<?xml version="1.0" encoding="utf-8"?>
<!-- Generator: Adobe Illustrator 24.3.0, SVG Export Plug-In . SVG Version: 6.00 Build 0)  -->
<svg version="1.1" id="Layer_1" xmlns="http://www.w3.org/2000/svg" xmlns:xlink="http://www.w3.org/1999/xlink" x="0px" y="0px"
	 viewBox="0 0 400 300" style="enable-background:new 0 0 400 300;" xml:space="preserve">
<style type="text/css">
	.st0{clip-path:url(#SVGID_2_);fill:#9E3039;}
	.st1{clip-path:url(#SVGID_2_);fill:#FFFFFF;}
	.st2{fill:none;stroke:#000000;stroke-miterlimit:10;}
	.st3{fill:none;}
	.st4{fill:#F3F2EF;}
	.st5{fill:#C98017;}
	.st6{fill:#FBED60;}
	.st7{fill:#FABA31;}
	.st8{fill:#68C2EE;}
	.st9{fill:#0491BE;}
	.st10{fill:#68C2EF;}
	.st11{fill:#31798F;}
	.st12{fill:#C1BDBE;}
	.st13{fill:#6E6E6E;}
	.st14{fill:#6C6C6C;}
	.st15{fill:#BCBCBC;}
	.st16{fill:#E1E1E1;}
	.st17{fill:#0A0A09;}
</style>
<g>
	<g>
		<defs>
			<path id="SVGID_1_" d="M202.1,186.8c-3.9,0.9-7.3,1.9-9.6,5c-1.6,2.1-3,4.4-5.5,5.7c-1.6,0.8-2.9,0.9-4.2-0.3
				c-2.1-2-4.2-2.2-6.5-0.4c-3.3,2.5-6.1,1.7-9-0.9c-3-2.6-6.5-3.8-10.6-2.8c-0.9,0.2-2.1,0.6-2.2-1.1c0-0.4-0.4-0.7-0.8-0.7
				c-2.2,0.2-4.5-0.6-6.5,1c-1.2,1-2.6,0.9-4,0.3c-1.2-0.5-2.4-0.9-3.5-1.5c-2.3-1.3-4.5-1.4-6.9-0.6c-1,0.4-1.8,0.4-2.3,1.8
				c-0.5,1.4-1.9,2.7-3.7,2.5c-1.5-0.2-2.3-1.3-2.8-2.8c-0.4-1.1-0.9-2.3-1.4-3.3c-0.9-2-2.2-2.4-4-1.2c-2.3,1.7-4.9,2.5-7.3,3.6
				c-1.2,0.5-2.2,0.4-3-0.7c-1.5-1.9-3.7-2.4-6-2.4c-3.3,0-6.6,0.2-9.9,0.3c-1.3,0.1-2.5-0.2-3.6-1c-1.4-1.2-3-1.1-4.6-0.3
				c-4.8,2.3-9.6,4.5-14.3,6.7c-0.6,0.3-1.3,0.8-1.9,0.7c-3.7-0.4-6.1,1.8-8.6,3.9c-1.3,1.1-2.8,1.7-4.5,2.2c-3.4,1-5.4,3.7-6.3,7.1
				c-1.1,4-1.1,4-5.2,4.5c-0.6,0.1-1.1,0.4-1.9,0c-0.1-3.8-1.8-7.2-3.1-10.8c-0.4-1.3-0.5-2.6-0.1-3.9c0.5-1.6,0.1-3.3-0.1-4.9
				c-0.3-2.2-0.4-4.3,0.8-6.3c0.9-1.6,0.6-3.5,0.5-5.2c0-0.7-0.4-1.4,0-2c1.2,0.8,1.1,1.4,1.6,4.7c0.2,1.5-1.2,3.6,0.8,4.8
				c0.5-0.1,0.7-0.4,0.6-0.7c-0.7-2.2-0.1-4.6-0.5-6.8c-0.2-1.3-0.7-2.3-2-2.8c-0.9-0.4-1.1-1.1-1-1.9c0.3-1.5,0.4-3.1,0.9-4.5
				c2-5.1,2.3-10.4,1.6-15.8c-0.2-1.4,0.3-2.5,1.5-3.2c1-0.6,1.9-1.6,2.9-2.1c3.1-1.6,4.5-4.8,7.1-6.8c3.9-3.2,3.8-7.7,3.6-12.2
				c-0.2-4.1-0.2-8.3,0.6-12.5c0.2-1.1,0.7-2,1.7-2.7c0.3-0.2,0.7-0.6,0.8-1c2.2-5.9,6.5-10.6,8.9-16.4c0.9-2.1,2.6-3.2,5-3.2
				c4.6,0.1,8.8-1.1,12.8-3.6c4.7-2.9,9.7-5.3,14.5-8c1.9-1.1,4-1.3,6.3-2c-0.2,2.1-0.3,4-0.6,5.7c-0.6,3.4,0.8,6.2,3.1,8.2
				c5,4.4,9.8,8.9,14.3,13.7c1.2,1.3,2.6,2.2,4.4,2.6c0.5,0.1,1,0.3,1.1,0.9c0.6,3.2,1.8,6.2,2.7,9.3c1,3.5,1.2,7.2,2.6,10.4
				c1.3,2.9,4.1,5,7.5,5.5c2.5,0.4,4.1,1.4,5.4,3.5c1.3,2.2,3.9,2.2,6,1.8c3.2-0.6,6.5-1.1,9.4-2.9c0.7-0.4,1.6-0.8,2-1.4
				c1.9-3.6,5.7-4.6,8.7-6.8c1.6-1.2,2.6-2.9,4-4.2c0.9-0.9,1.8-1.9,2.7-2.9c2.1-2.1,3.1-4.7,2.9-7.6c-0.4-6.3-0.6-12.7-2-18.9
				c-0.2-0.9,0-1.8,0.1-2.7c0.7-4.1-0.1-7.7-1.9-11.5c-1.7-3.4-1.9-7.4-0.7-11.4c0.7,0.2,1.1,0.3,1.4,0.4c1.7,0.7,2.8,0.1,3.5-1.6
				c1.3-3,4.8-5.1,8.1-5c2.1,0.1,4.1,0.1,4.7-2.7c0.2-1.2,1.3-1.2,2.1-0.7c1.4,1,2.4,0.7,3.5-0.4c0.4-0.4,1-0.7,1.5-0.7
				c2.7,0.1,4.3-1.6,5.9-3.4c0.7-0.8,1.4-1.5,2.5-1.7c2.5-0.7,3.6,0,4.2,2.4c0.2,0.8,0.3,1.6,0.6,2.4c0.3,0.9,0.7,1.8,1.9,1.3
				c1-0.4,2-1,1.6-2.4c-0.3-0.8-0.8-1.5-1-2.2c-0.3-0.7-0.4-1.6,0.4-2c0.9-0.4,1.5,0.2,1.8,0.9c0.4,1.4,1.1,2.2,2.7,2.4
				c0.8,0.1,1.4,0.7,2,1.4c0.5,0.7,1,1.6,1.7,2c2.1,1.4,4.3,2.4,5.3,5.1c0.6,1.5,2.5,1,4,0.5c2.6-0.9,2.7-0.8,3.4,1.8
				c0.5,2.1,1.5,3.2,3.8,3.2c2,0,3.9,0.3,5.9,0.5c1.5,0.1,2.1,0.8,1.6,2.3c-0.6,1.8-0.2,3.4,1.5,4.5c3.5,2.4,5.9,5.8,7.9,9.4
				c1.4,2.6,3.3,4.5,6.2,5.4c1.7,0.6,2.9,1.7,3.8,3.2c0.5,0.8,1.1,1.6,2.1,0.6c0.9-0.8,1.5,0.2,2.4,0.3c1.5-3.2,4.1-4.4,7.6-3.9
				c1.6,0.2,2.3-1,2.8-2.3c0.6-1.4,1.1-3,3-1.3c0.2,0.1,0.5,0.1,0.7,0.1c2.1-0.2,3.6,0.8,4.5,2.6c1,2,2.5,2.8,4.8,2.8
				c2.2-0.1,4.1,1.2,6.2,1.9c0.9,0.3,1.6,0.3,2.5,0c2.5-0.8,5-0.3,7.8-0.4c-0.2,2.1,0.2,4-0.4,5.9c-0.4,1.5-0.1,2.6,1.3,3.1
				c4.5,1.5,6.9,5.9,11.1,7.9c1.3,0.6,1.5,2.2,1.5,3.5c-0.1,2.2-0.3,4.4-0.5,6.7c-0.1,1.7-1.1,2.8-2.6,3.5c-0.9,0.4-1.8,0.8-2.6,1.3
				c-1.4,0.8-1.4,2-0.1,3c1.8,1.4,1.9,2.3,1.4,4.5c-1,4.3-2.5,8.4-4.3,12.4c-0.2,0.5-0.6,1.1,0,1.5c0.5,0.4,1.1,0.2,1.6-0.2
				c0.1-0.1,0.2-0.1,0.3-0.2c4.6-2.5,6-2.3,9.3,1.9c0.4,0.5,0.6,1.1,0.3,1.8c-0.2,0.4-0.3,0.7-0.5,1c-2.2,3.8-2.1,3.9,1.8,6.5
				c1.4,0.9,2,2,1.9,3.6c-0.1,0.8,0,1.5,0,2.3c0.1,2,0.9,3.5,2.9,4.3c0.6,0.3,1.3,0.6,1.9,0.9c1.2,0.7,1.5,1.7,0.4,2.6
				c-1.2,1.1-1,2.3-0.1,3.3c1.8,1.9,2.2,4,2.3,6.6c0.2,3.9,1.4,7.7,1,11.7c-0.2,2.4-0.4,4.8-1.7,7.2c-2-1.6-3.4-0.2-5,0.7
				c-2.7,1.4-5.7,2.2-6.9,5.6c-0.3,0.8-1.5,1.2-2.2,1.8c-0.9,0.7-1.6,1.6-1.8,2.8c-0.3,1.6-1.1,3.1-2.6,3.8
				c-3.2,1.5-4.2,4.2-4.3,7.4c-0.2,4.3-0.3,4.4-4.5,4.1c-2.4-0.2-4.9-0.3-6.6-2.5c-0.5,0.5-1,0.9-1.4,1.3c-2.2,2.2-2.4,2.3-4.6,0.2
				c-1.8-1.7-3.7-2-6.1-1.9c-3.9,0.1-6,2.3-7.6,5.4c-1.1,2.1-2.1,4.3-4.7,5.3c-1.3,0.5-2.5,0.8-3.8,0.2c-1.3-0.7-2.6-0.6-3.4,0.9
				c-0.5,0.9-1.3,0.8-2,0.6c-6-1.5-11.8-3.5-14.3-10.1c-0.8-2.2-2.2-3.8-3.9-5.3c-3.4-3.1-6.7-6.4-10.7-8.8
				c-1.3-0.8-2.2-2.3-3.3-3.4c-0.7-0.7-1.3-1.6-2.2-2.1c-1.7-1-2.8-2.4-3.1-4.3c-0.2-1.3-1-1.9-2.3-1.5c-0.4,0.1-0.8,0.2-1.1,0.1
				c-3.1-1.6-6.6-0.4-9.9-1.2c-3.2-0.8-6.5-1.2-9.8-1.8c-2.2-0.4-3.1-2.1-3.7-4c-0.5-1.5-1.1-3-2.3-4.1c-0.8-0.8-1-1.9-1.3-3
				c-0.5-2.3-1.1-4.6-1.9-6.8c-0.3-0.8-0.5-1.9-1.7-1.8c-0.9,0.1-0.7,1.2-0.9,1.9C202.2,186.6,202.1,186.8,202.1,186.8z"/>
		</defs>
		<clipPath id="SVGID_2_">
			<use xlink:href="#SVGID_1_"  style="overflow:visible;"/>
		</clipPath>
		<rect x="36.8" y="57.1" class="st0" width="331.9" height="75.4"/>
		<rect x="36.8" y="132.5" class="st1" width="331.9" height="36.4"/>
		<rect x="36.8" y="168.9" class="st0" width="331.9" height="75.4"/>
	</g>
	<g>
		<path class="st2" d="M202.1,186.8c-3.9,0.9-7.3,1.9-9.6,5c-1.6,2.1-3,4.4-5.5,5.7c-1.6,0.8-2.9,0.9-4.2-0.3
			c-2.1-2-4.2-2.2-6.5-0.4c-3.3,2.5-6.1,1.7-9-0.9c-3-2.6-6.5-3.8-10.6-2.8c-0.9,0.2-2.1,0.6-2.2-1.1c0-0.4-0.4-0.7-0.8-0.7
			c-2.2,0.2-4.5-0.6-6.5,1c-1.2,1-2.6,0.9-4,0.3c-1.2-0.5-2.4-0.9-3.5-1.5c-2.3-1.3-4.5-1.4-6.9-0.6c-1,0.4-1.8,0.4-2.3,1.8
			c-0.5,1.4-1.9,2.7-3.7,2.5c-1.5-0.2-2.3-1.3-2.8-2.8c-0.4-1.1-0.9-2.3-1.4-3.3c-0.9-2-2.2-2.4-4-1.2c-2.3,1.7-4.9,2.5-7.3,3.6
			c-1.2,0.5-2.2,0.4-3-0.7c-1.5-1.9-3.7-2.4-6-2.4c-3.3,0-6.6,0.2-9.9,0.3c-1.3,0.1-2.5-0.2-3.6-1c-1.4-1.2-3-1.1-4.6-0.3
			c-4.8,2.3-9.6,4.5-14.3,6.7c-0.6,0.3-1.3,0.8-1.9,0.7c-3.7-0.4-6.1,1.8-8.6,3.9c-1.3,1.1-2.8,1.7-4.5,2.2c-3.4,1-5.4,3.7-6.3,7.1
			c-1.1,4-1.1,4-5.2,4.5c-0.6,0.1-1.1,0.4-1.9,0c-0.1-3.8-1.8-7.2-3.1-10.8c-0.4-1.3-0.5-2.6-0.1-3.9c0.5-1.6,0.1-3.3-0.1-4.9
			c-0.3-2.2-0.4-4.3,0.8-6.3c0.9-1.6,0.6-3.5,0.5-5.2c0-0.7-0.4-1.4,0-2c1.2,0.8,1.1,1.4,1.6,4.7c0.2,1.5-1.2,3.6,0.8,4.8
			c0.5-0.1,0.7-0.4,0.6-0.7c-0.7-2.2-0.1-4.6-0.5-6.8c-0.2-1.3-0.7-2.3-2-2.8c-0.9-0.4-1.1-1.1-1-1.9c0.3-1.5,0.4-3.1,0.9-4.5
			c2-5.1,2.3-10.4,1.6-15.8c-0.2-1.4,0.3-2.5,1.5-3.2c1-0.6,1.9-1.6,2.9-2.1c3.1-1.6,4.5-4.8,7.1-6.8c3.9-3.2,3.8-7.7,3.6-12.2
			c-0.2-4.1-0.2-8.3,0.6-12.5c0.2-1.1,0.7-2,1.7-2.7c0.3-0.2,0.7-0.6,0.8-1c2.2-5.9,6.5-10.6,8.9-16.4c0.9-2.1,2.6-3.2,5-3.2
			c4.6,0.1,8.8-1.1,12.8-3.6c4.7-2.9,9.7-5.3,14.5-8c1.9-1.1,4-1.3,6.3-2c-0.2,2.1-0.3,4-0.6,5.7c-0.6,3.4,0.8,6.2,3.1,8.2
			c5,4.4,9.8,8.9,14.3,13.7c1.2,1.3,2.6,2.2,4.4,2.6c0.5,0.1,1,0.3,1.1,0.9c0.6,3.2,1.8,6.2,2.7,9.3c1,3.5,1.2,7.2,2.6,10.4
			c1.3,2.9,4.1,5,7.5,5.5c2.5,0.4,4.1,1.4,5.4,3.5c1.3,2.2,3.9,2.2,6,1.8c3.2-0.6,6.5-1.1,9.4-2.9c0.7-0.4,1.6-0.8,2-1.4
			c1.9-3.6,5.7-4.6,8.7-6.8c1.6-1.2,2.6-2.9,4-4.2c0.9-0.9,1.8-1.9,2.7-2.9c2.1-2.1,3.1-4.7,2.9-7.6c-0.4-6.3-0.6-12.7-2-18.9
			c-0.2-0.9,0-1.8,0.1-2.7c0.7-4.1-0.1-7.7-1.9-11.5c-1.7-3.4-1.9-7.4-0.7-11.4c0.7,0.2,1.1,0.3,1.4,0.4c1.7,0.7,2.8,0.1,3.5-1.6
			c1.3-3,4.8-5.1,8.1-5c2.1,0.1,4.1,0.1,4.7-2.7c0.2-1.2,1.3-1.2,2.1-0.7c1.4,1,2.4,0.7,3.5-0.4c0.4-0.4,1-0.7,1.5-0.7
			c2.7,0.1,4.3-1.6,5.9-3.4c0.7-0.8,1.4-1.5,2.5-1.7c2.5-0.7,3.6,0,4.2,2.4c0.2,0.8,0.3,1.6,0.6,2.4c0.3,0.9,0.7,1.8,1.9,1.3
			c1-0.4,2-1,1.6-2.4c-0.3-0.8-0.8-1.5-1-2.2c-0.3-0.7-0.4-1.6,0.4-2c0.9-0.4,1.5,0.2,1.8,0.9c0.4,1.4,1.1,2.2,2.7,2.4
			c0.8,0.1,1.4,0.7,2,1.4c0.5,0.7,1,1.6,1.7,2c2.1,1.4,4.3,2.4,5.3,5.1c0.6,1.5,2.5,1,4,0.5c2.6-0.9,2.7-0.8,3.4,1.8
			c0.5,2.1,1.5,3.2,3.8,3.2c2,0,3.9,0.3,5.9,0.5c1.5,0.1,2.1,0.8,1.6,2.3c-0.6,1.8-0.2,3.4,1.5,4.5c3.5,2.4,5.9,5.8,7.9,9.4
			c1.4,2.6,3.3,4.5,6.2,5.4c1.7,0.6,2.9,1.7,3.8,3.2c0.5,0.8,1.1,1.6,2.1,0.6c0.9-0.8,1.5,0.2,2.4,0.3c1.5-3.2,4.1-4.4,7.6-3.9
			c1.6,0.2,2.3-1,2.8-2.3c0.6-1.4,1.1-3,3-1.3c0.2,0.1,0.5,0.1,0.7,0.1c2.1-0.2,3.6,0.8,4.5,2.6c1,2,2.5,2.8,4.8,2.8
			c2.2-0.1,4.1,1.2,6.2,1.9c0.9,0.3,1.6,0.3,2.5,0c2.5-0.8,5-0.3,7.8-0.4c-0.2,2.1,0.2,4-0.4,5.9c-0.4,1.5-0.1,2.6,1.3,3.1
			c4.5,1.5,6.9,5.9,11.1,7.9c1.3,0.6,1.5,2.2,1.5,3.5c-0.1,2.2-0.3,4.4-0.5,6.7c-0.1,1.7-1.1,2.8-2.6,3.5c-0.9,0.4-1.8,0.8-2.6,1.3
			c-1.4,0.8-1.4,2-0.1,3c1.8,1.4,1.9,2.3,1.4,4.5c-1,4.3-2.5,8.4-4.3,12.4c-0.2,0.5-0.6,1.1,0,1.5c0.5,0.4,1.1,0.2,1.6-0.2
			c0.1-0.1,0.2-0.1,0.3-0.2c4.6-2.5,6-2.3,9.3,1.9c0.4,0.5,0.6,1.1,0.3,1.8c-0.2,0.4-0.3,0.7-0.5,1c-2.2,3.8-2.1,3.9,1.8,6.5
			c1.4,0.9,2,2,1.9,3.6c-0.1,0.8,0,1.5,0,2.3c0.1,2,0.9,3.5,2.9,4.3c0.6,0.3,1.3,0.6,1.9,0.9c1.2,0.7,1.5,1.7,0.4,2.6
			c-1.2,1.1-1,2.3-0.1,3.3c1.8,1.9,2.2,4,2.3,6.6c0.2,3.9,1.4,7.7,1,11.7c-0.2,2.4-0.4,4.8-1.7,7.2c-2-1.6-3.4-0.2-5,0.7
			c-2.7,1.4-5.7,2.2-6.9,5.6c-0.3,0.8-1.5,1.2-2.2,1.8c-0.9,0.7-1.6,1.6-1.8,2.8c-0.3,1.6-1.1,3.1-2.6,3.8c-3.2,1.5-4.2,4.2-4.3,7.4
			c-0.2,4.3-0.3,4.4-4.5,4.1c-2.4-0.2-4.9-0.3-6.6-2.5c-0.5,0.5-1,0.9-1.4,1.3c-2.2,2.2-2.4,2.3-4.6,0.2c-1.8-1.7-3.7-2-6.1-1.9
			c-3.9,0.1-6,2.3-7.6,5.4c-1.1,2.1-2.1,4.3-4.7,5.3c-1.3,0.5-2.5,0.8-3.8,0.2c-1.3-0.7-2.6-0.6-3.4,0.9c-0.5,0.9-1.3,0.8-2,0.6
			c-6-1.5-11.8-3.5-14.3-10.1c-0.8-2.2-2.2-3.8-3.9-5.3c-3.4-3.1-6.7-6.4-10.7-8.8c-1.3-0.8-2.2-2.3-3.3-3.4
			c-0.7-0.7-1.3-1.6-2.2-2.1c-1.7-1-2.8-2.4-3.1-4.3c-0.2-1.3-1-1.9-2.3-1.5c-0.4,0.1-0.8,0.2-1.1,0.1c-3.1-1.6-6.6-0.4-9.9-1.2
			c-3.2-0.8-6.5-1.2-9.8-1.8c-2.2-0.4-3.1-2.1-3.7-4c-0.5-1.5-1.1-3-2.3-4.1c-0.8-0.8-1-1.9-1.3-3c-0.5-2.3-1.1-4.6-1.9-6.8
			c-0.3-0.8-0.5-1.9-1.7-1.8c-0.9,0.1-0.7,1.2-0.9,1.9C202.2,186.6,202.1,186.8,202.1,186.8z"/>
	</g>
</g>
<rect y="16.6" class="st3" width="400" height="300"/>
<path class="st4" d="M343.4,19.5c7.2,7,7.3,18.5,0.3,25.7l0,0l-0.3,0.3c-7.2,7.2-18.9,7.3-26.1,0.1s-7.3-18.9-0.1-26.1
	c7.2-7.2,18.9-7.3,26.1-0.1L343.4,19.5z M337.4,39.5c1.9-1.8,2.9-4.4,2.9-7c0.1-2.6-1-5.1-2.9-6.9c-1.9-1.9-4.4-2.9-7.1-2.8
	c-5.3-0.1-9.7,4.2-9.8,9.5v0.2c0,2.6,1,5.1,2.8,7c1.8,1.9,4.3,2.9,6.9,2.9C332.9,42.5,335.5,41.5,337.4,39.5z M379.6,21.9l-47.7,74
	c-0.8,1.5-2.4,2.5-4.1,2.4c-2.7-0.1-4.9-2.3-5-5c0.1-1,0.4-2,0.9-2.9l47.8-74.2c0.8-1.5,2.4-2.5,4.1-2.4c1.4,0,2.7,0.5,3.6,1.5
	c1,0.9,1.5,2.3,1.4,3.6C380.5,20,380.2,21,379.6,21.9L379.6,21.9z M359.8,92.9c-7.2-7.2-7.2-18.8,0-26l0.1-0.1
	c3.4-3.4,8.1-5.3,12.9-5.4c10.2-0.1,18.4,8.1,18.5,18.3s-8.1,18.4-18.3,18.5C368.1,98.4,363.3,96.4,359.8,92.9z M365.8,72.9
	c-3.9,3.7-4,9.8-0.3,13.7l0.1,0.1l0.2,0.2c3.8,3.8,9.9,3.9,13.7,0.1c2-1.9,3-4.6,2.9-7.4c-0.2-5.2-4.4-9.4-9.6-9.6
	C370.2,70,367.7,71.2,365.8,72.9L365.8,72.9z"/>
<g>
	<ellipse transform="matrix(0.6576 -0.7533 0.7533 0.6576 -20.6934 63.0644)" class="st5" cx="59" cy="54.3" rx="51.8" ry="28.5"/>
	
		<ellipse transform="matrix(0.6728 -0.7398 0.7398 0.6728 -19.5472 57.5341)" class="st6" cx="55.3" cy="50.9" rx="51.8" ry="25.1"/>
	
		<ellipse transform="matrix(0.6728 -0.7398 0.7398 0.6728 -19.5472 57.5341)" class="st7" cx="55.3" cy="50.9" rx="41.4" ry="20.1"/>
	<path class="st5" d="M51.5,64.7c2.6,0.8,6.9-2.2,9.9-6.2c1.9-2.6,2.6-5.2,2.1-6.7l-0.2-1l1.1-1.1c1.1-1.1,2.2-2.1,3.1-3.6
		c3-4.1,3.1-8,0.4-8.5l-0.8,0.1l3.2-4.2c0.6-0.8,0.9-1.8,0.1-2c-0.5-0.1-1.5,0.4-2.2,1.3L65,37.1l-3.5-0.9l3.2-4.2
		c0.6-0.8,0.9-1.8,0.2-1.8c-0.8,0.1-1.8,0.6-2.2,1.3l-3.2,4.2l-3-0.8c-0.5-0.1-1.5,0.4-2.2,1.3C53.6,37,53.4,38,54,38.1l2.7,1
		L42.7,59.1l-2.7-1c-0.5-0.1-1.5,0.4-2.2,1.3c-0.6,0.8-0.9,1.8-0.2,1.8l2.7,1l-2.8,3.8c-0.6,0.8-0.9,1.8-0.1,2
		c0.5,0.1,1.5-0.4,2.2-1.3l3.2-4.2l3.6,1.1l-3.2,4.2c-0.6,0.8-0.9,1.8-0.2,1.8c0.8-0.1,1.8-0.6,2.2-1.3l3.2-4.2L51.5,64.7z
		 M59.5,39.1l6.3,1.7c1.4,0.5,1.4,2.6-0.1,4.8c-1.6,2.4-4.3,4.1-5.7,3.6l-6.3-1.7L59.5,39.1z M45.2,59.1l6.1-8.3l8.2,2.1
		c1.4,0.5,1.4,2.6-0.1,4.8c-1.4,2.3-4,3.9-5.7,3.6L45.2,59.1z"/>
</g>
<g>
	
		<ellipse transform="matrix(0.9449 -0.3274 0.3274 0.9449 -11.6661 50.4957)" class="st8" cx="144.2" cy="59.9" rx="17.6" ry="36.5"/>
	
		<ellipse transform="matrix(0.9449 -0.3274 0.3274 0.9449 -11.8848 49.6079)" class="st9" cx="141.4" cy="60.1" rx="16.4" ry="35.8"/>
	
		<ellipse transform="matrix(0.9449 -0.3274 0.3274 0.9449 -11.8848 49.6079)" class="st10" cx="141.4" cy="60.1" rx="13.2" ry="28.7"/>
	<path class="st11" d="M139.4,53.7l-1.9-7.8c-0.8,0.3-1.5,0.6-2.2,0.7c-0.4,0.1-0.4,0.5-0.1,1.3c0.5,2.5,1,5,1.7,7.6
		c0.4,1.6,0.4,2.5-0.2,3.3c-0.6,1-0.7,1.1,0.4,3l0.9-1.5c0.7,2.7,1.1,5.2,1.8,7.8l7.8-2.7c0.1-0.1,0.2-0.1,0.1-0.6
		c-0.2-1.2-0.4-2.4-0.7-3.9l-5.3,1.9c-0.2-1.5-0.5-2.8-0.9-4.1c-0.5-1.7-0.4-2.7,0.1-3.4c0.7-1,0.6-1-0.4-3L139.4,53.7z"/>
</g>
<g>
	<ellipse class="st12" cx="96.9" cy="246.4" rx="37.6" ry="43.3"/>
	<ellipse class="st13" cx="92.4" cy="244.9" rx="36.3" ry="41.9"/>
	<ellipse class="st12" cx="92.4" cy="244.9" rx="29.2" ry="33.6"/>
	<path class="st13" d="M98.7,225.5c3.8,0,6.9,3.3,7.1,7.9c0.3,4.4-2.6,7.8-6.1,8.3c-0.5,0.1-0.9,0.3-1.5,0.1c-1.6-0.3-3,0.9-3.2,2.5
		v0.5c0,2,1.2,3.3,2.9,3.2c3.4-0.3,6.5,2.4,7.3,6.2c0.8,3-0.3,6.1-2.4,8.3c-1.8,2-4.8,2.5-7.3,1.2c-2.6-1.3-4.1-3.7-4.4-7.1
		c-0.1-1.6,0.3-3.2,0.8-4.6c0.7-1.2,0.3-2.5-0.7-3.6c-0.8-0.8-2-0.9-3-0.5c-0.4,0.3-0.8,0.7-0.9,1.1c-1.8,3-4.4,4.2-7.3,3.4
		c-3-0.7-4.8-3-5.5-6.5c-0.9-4.9,3-10,7.4-9.6c2.9,0.3,4.8,2,6.1,4.8c0.4,1.3,1.8,2,3,1.7c0.1,0,0.1,0,0.3-0.1
		c0.3-0.1,0.3-0.1,0.4-0.3c1.5-0.8,2-2.8,1.2-4.4c-0.7-1.5-1.2-2.9-1.3-4.4C91.5,229.2,94.6,225.6,98.7,225.5z"/>
</g>
<g>
	<path class="st14" d="M380.6,246.6c1.6,1.7,3.2,3.5,4.5,5.5l0.4,0.3c0,0.2,0.2,0.8,0.5,1.1l0.1,0.2c-0.1,1.1,0.9,2.1,1.3,3.5
		c0.2,0.8-0.1,1.2,0.6,1.8c-0.2,1.4,0.1,3.3-0.2,4.9c-0.2,0-0.1,0.2-0.1,0.3l0.1,0.1c-0.4,0.9-0.8,1.7-1,2.7c0,0-0.4-0.2-0.2,0.1
		c-1.4,2-3.1,3.7-5.1,5c-1.8,0.6-3.7,2-5.7,2.4c-17.8,6.5-55.4-8-54.6-28.2c0.2-0.1-0.2-0.4,0-0.7c0.2-0.4,0.4-0.3,0.2-0.5
		c-0.3-1.5,1.7-3.8,1.9-4.9c0.3-0.3,0.5-0.6,0.6-0.9c0.5-0.4,0.9-1,1.5-1.2c1.1-1,2.1-1.9,3.3-2.6c0.6-0.1,0.9-0.2,1.3-0.6
		c2.7-1.1,5.3-1.8,8.1-2.2c0.3-0.4,1.1,0.1,1.2-0.5c0,0.2,0.2,0.1,0.3,0.1l0.1-0.1c3-0.1,6.5,0.1,9.7,0.1c0.2,0.1,0.5,0.2,0.8,0
		c4.8,0.9,9.7,2.2,14.4,3.8c0.5,0.4,1.1,0.7,1.7,0.6c1.2,0.8,2.5,1.4,3.9,1.9c0.2,0.1,0.3,0.4,0.5,0.2c0.9,1,2.6,1.5,3.6,2.4
		c0.6-0.1,0.6,0.6,1.1,0.5c0.1,0.2,0.3,0,0.4,0.2c-0.2,0.5,0.4,0.5,0.8,0.7C377.4,244.3,379.2,244.9,380.6,246.6z M376.3,269.3
		c11.5-5.8,5.6-17.7-1.8-23.5c-18.7-14.6-47.6-12.7-48,1.9c-0.7,7.8,6.8,13.7,12.7,17.8c11,5.9,24.9,9.5,36.7,4.1L376.3,269.3z"/>
	<path class="st15" d="M376,269.6c-12,5.5-25.7,1.7-36.7-4.1c-5.8-4.1-13.4-10-12.7-17.8c1.4-3.4,3.8-5.9,7-7.6
		c9.4-3.6,17.9-1.8,26.4,0.4c3.6,2.1,8.2,3.4,11.4,6.3c7.5,4.7,13.8,15.8,5,22.4C376.2,269.1,375.6,269.3,376,269.6z M358.4,248.8
		C358.7,249,359,248.4,358.4,248.8c-4.4-2.5-8.9-4.7-13.6-6.9l1.2,10.1c1.4-1.3,2.7-3,4-4.3C352.9,248.1,355.6,248.5,358.4,248.8z
		 M363.1,250.9c-3.7-1-8-1.2-11.9-2.1c-0.9,0.7-1.7,1.6-2.4,2.5c-1.1,1-2,2.2-3,3.2c0,0.2,0.4,0.2,0.6,0.4c6.5,3.6,13.2,7.6,20.1,11
		C365.4,261.1,364.8,255.6,363.1,250.9z"/>
	<path class="st15" d="M386.4,268.6l-0.2,0.1c-0.8,1.2-1.4,2.5-1.7,4c-0.5,0.4-0.6,1.2-1.1,1.5c-1.1,2-3.3,3-5.2,4.7
		c-2.8,1.1-5.6,2.1-8.5,2.7c-0.1-0.1-0.2-0.1-0.3,0l-0.1,0.1c-1.6-0.1-3.7,0.6-5.5,0.3c-1.8,0.2-3.5-0.5-5.1,0
		c0-0.2-0.2-0.1-0.3-0.1l-0.1,0.1c-0.3-0.4-0.8-0.5-1.3-0.2c-0.1-0.1-0.2-0.1-0.4,0c-0.3-0.4-0.8-0.5-1.3-0.2c0-0.2-0.2-0.1-0.4,0
		c0-0.2-0.2-0.1-0.3-0.1l-0.1,0.1c-0.3-0.3-0.5-0.3-0.8-0.3l0,0c-0.5-0.4-0.6-0.4-1.2,0c-3.6-1.3-7.8-2.2-11.6-3.8
		c-0.9-0.4-2.5-1.7-3.5-1.4c-1.3-1.2-3.6-1.7-5.1-3.3c-0.6,0.1-0.8-0.7-1.2-0.6c-3.7-3-7.4-6.2-9.8-10.3c-0.8-1.3-1.3-3.3-2.2-4.8
		c0.3-0.5-0.1-1-0.2-1.8c-0.2-3.1,0.5-6.1,1.9-8.9c-0.4,21.5,38.6,34.4,54.7,27.8c1.9-0.3,3.9-1.6,5.7-2.4c2-1.4,3.7-3.1,5.1-5
		c0.3,0.7-0.2,1.1-0.4,1.5L386.4,268.6z"/>
	<path class="st16" d="M376.3,269.3c9-6.9,1.9-17.8-5-22.4c-3.2-3-7.7-4.2-11.4-6.3c-9-2.5-17.7-3.8-26.4-0.4
		c-2.1,1.1-4,2.8-5.7,4.5c-0.7,0.9-0.6,2-1.5,2.9c-0.1-5.5,4.7-8.9,9.6-10.6c13.6-4.1,29.3,1.6,38.5,8.7
		C384.4,253.9,385.7,264.7,376.3,269.3z"/>
	<path class="st16" d="M376,269.6c-0.1-0.1,0-0.2,0-0.4c0.1-0.2,0.2,0,0.4,0L376,269.6z"/>
	<path class="st14" d="M363.2,251c1.6,4.6,2.1,10,3.5,15c-6.7-3.3-13.4-7.2-20.1-11c3-0.5,7.3,0.4,10.6,0.7
		C359.2,254.1,361.1,252.6,363.2,251z"/>
	<path class="st17" d="M363.2,251c-1.9,1.6-3.9,2.9-6,4.8c-3.3-0.3-7.3-1.1-10.6-0.7c-0.1-0.2-0.6,0.1-0.6-0.4
		c0.9-1.1,1.9-2.1,3-3.2c0.7-0.9,1.6-1.8,2.4-2.5C355.1,249.8,359.6,249.9,363.2,251z"/>
	<path class="st14" d="M358.3,248.9l-8.3-1.3c-1.3,1.2-2.5,2.9-4,4.3l-1.2-10.1C349.4,244.2,354,246.3,358.3,248.9z"/>
</g>
</svg>
