<?xml version="1.0" encoding="utf-8"?>
<!-- Generator: Adobe Illustrator 24.3.0, SVG Export Plug-In . SVG Version: 6.00 Build 0)  -->
<svg version="1.1" id="Layer_1" xmlns="http://www.w3.org/2000/svg" xmlns:xlink="http://www.w3.org/1999/xlink" x="0px" y="0px"
	 viewBox="0 0 693 201" style="enable-background:new 0 0 693 201;" xml:space="preserve">
<style type="text/css">
	.st0{fill:#FFFFFF;}
</style>
<g>
	<g>
		<path class="st0" d="M72.3,12.2c4.4,1.8,8.7,4.3,13,7.6c1.2,0.9,2.2,1.4,3,1.4c2.1,0,3.5-3.2,4.1-9.5H96
			c-0.4,7.2-0.6,19.9-0.6,38.2h-3.6c-0.9-7.8-2.2-13.7-3.8-17.8s-4.3-7.7-8.1-10.7c-2.6-2.5-5.7-4.4-9.2-5.8c-3.5-1.3-7.1-2-10.9-2
			c-10.6,0-18.5,5.2-23.7,15.6S28.4,52.5,28.4,68c0,15.4,2.7,28.2,8.1,38.5s13.4,15.5,24,15.5c3.6,0,7.1-0.7,10.7-2
			c3.5-1.3,6.5-3.2,8.9-5.8c3.9-2.9,6.6-6.6,8.1-11.1c1.5-4.4,2.7-10.9,3.6-19.4h3.6c0,19.1,0.2,32.3,0.6,39.8h-3.6
			c-0.3-3.4-0.8-5.8-1.3-7.2c-0.6-1.4-1.4-2.1-2.4-2.1c-0.8,0-1.9,0.4-3.3,1.3c-4.7,3.4-9.3,5.9-13.6,7.7c-4.3,1.7-9.5,2.6-15.6,2.6
			c-11.2,0-20.9-2.3-29.3-6.8S12,107.9,7.4,99.3S0.5,80.5,0.5,68.6c0-11.6,2.4-21.8,7.1-30.8c4.7-8.9,11.3-15.9,19.8-20.8
			s18.1-7.4,29-7.4C62.5,9.5,67.9,10.4,72.3,12.2L72.3,12.2z"/>
		<path class="st0" d="M133.4,54.3c4.7-9.8,13.3-14.7,25.7-14.7c8.2,0,14,2.1,17.4,6.2c1.8,2,3.1,4.6,3.9,7.8s1.2,7.4,1.2,12.7v42.5
			c0,4.3,0.7,7.3,2.2,8.9s4.1,2.4,7.9,2.4v3.3c-11-0.4-31.3-0.4-41.4,0v-3.3c3.2,0,5.4-0.8,6.6-2.4c1.3-1.6,1.9-4.6,1.9-8.9V59.7
			c0-4.3-0.7-7.6-2.1-9.8s-4-3.3-7.7-3.3c-4.4,0-8.1,1.7-11.1,5.1s-4.5,7.8-4.5,13v44.1c0,4.3,0.6,7.3,1.9,8.9s3.5,2.4,6.6,2.4v3.3
			c-10.1-0.4-30.4-0.4-41.4,0v-3.3c3.7,0,6.3-0.8,7.8-2.4s2.3-4.6,2.3-8.9V18.9c0-4.8-0.8-8.4-2.3-10.6S104.2,5,100.5,5V1.7
			c3.4,0.3,6.6,0.5,9.8,0.5c9.2,0,16.8-0.7,23.1-2.2L133.4,54.3L133.4,54.3z"/>
		<path class="st0" d="M398.4,117.7c1.5,1.6,4.1,2.4,7.8,2.4v3.3c-10.5-0.4-30.3-0.4-40.4,0v-3.3c2.8,0,4.8-0.8,5.9-2.4
			s1.7-4.6,1.7-9v-49c0-4.4-0.7-7.7-2-9.9s-3.8-3.2-7.5-3.2c-3.9,0-7.3,1.6-10.2,4.9s-4.6,7.3-5.1,12v2.8v42.5c0,4.3,0.7,7.3,2,8.9
			s3.7,2.4,7.2,2.4v3.3c-10.1-0.4-29.4-0.4-39.5,0v-3.3c2.8,0,4.8-0.8,5.9-2.4s1.7-4.6,1.7-8.9V59.7c0-4.4-0.6-7.7-1.7-9.9
			c-1.2-2.2-3.4-3.2-6.8-3.2c-4.2,0-7.8,1.8-10.8,5.3s-4.5,7.9-4.5,13v43.9c0,4.3,0.6,7.3,1.7,8.9s3.1,2.4,5.9,2.4v3.3
			c-9.3-0.4-29.1-0.4-40.4,0v-3.3c3.8,0,6.4-0.8,7.9-2.4s2.2-4.6,2.2-8.9V59.1c0-4.8-0.7-8.4-2.2-10.6s-4.1-3.3-7.9-3.3v-3.3
			c3.4,0.3,6.6,0.5,9.8,0.5c9.4,0,17.1-0.7,23.1-2.2v14.2c4.6-9.8,12.8-14.7,24.5-14.7c8,0,13.8,2.1,17.4,6.2c2,2.1,3.3,5.3,3.9,9.5
			c2.7-5.7,6.3-9.7,10.7-12.1s9.6-3.6,15.5-3.6c8,0,13.8,2.1,17.4,6.2c1.7,1.9,2.9,4.5,3.6,7.7c0.7,3.3,1.1,7.5,1.1,12.8v42.5
			C396.1,113.1,396.8,116.1,398.4,117.7L398.4,117.7z"/>
		<path class="st0" d="M479,50.1c5.3,7,7.9,17.1,7.9,30.4c0,15.5-3.4,26.9-10.1,34.2s-15.4,11-26.1,11c-7.3,0-13.2-1.8-17.7-5.5
			c-3.8-0.3-7.6,0.1-11.4,1.3s-6.8,2.7-9,4.6l-2.4-1.4c0.7-2.6,1.1-5.6,1.1-8.8v-97c0-4.8-0.8-8.4-2.3-10.6S404.9,5,401.2,5V1.7
			c3.3,0.3,6.5,0.5,9.8,0.5c9.2,0,16.8-0.7,23.1-2.2v54.6c2.2-4.8,5.4-8.6,9.6-11.1c4.2-2.6,9.1-3.9,14.5-3.9
			C466.8,39.6,473.7,43.1,479,50.1z M458.7,112.6c2.8-6.5,4.3-16.5,4.3-29.8c0-13-1.2-22.2-3.6-27.9c-2.4-5.6-5.9-8.4-10.4-8.4
			c-3.4,0-6.5,1.2-9.2,3.7c-2.8,2.5-4.7,5.8-5.6,10v58c3.5,2.8,7.4,4.3,11.7,4.3C451.6,122.4,455.9,119.1,458.7,112.6L458.7,112.6z"
			/>
		<path class="st0" d="M558.6,100.1l2.8,0.9c-2.1,6.8-5.9,12.7-11.3,17.5s-12.2,7.2-20.3,7.2c-11.2,0-20-3.6-26.6-10.7
			s-9.9-17.6-9.9-31.5c0-14.2,3.5-25.1,10.6-32.6s16.4-11.3,28.1-11.3c19.8,0,29.7,11.7,29.7,35.1h-44.4c-0.1,1.6-0.2,4.1-0.2,7.4
			c0,6.9,1,12.7,2.9,17.4c1.9,4.6,4.5,8,7.6,10.1s6.4,3.2,10,3.2C546.4,112.8,553.3,108.5,558.6,100.1z M521.7,50
			c-2.5,4.7-4,11.9-4.7,21.7h24.8c0.2-8.3-0.6-15.2-2.4-20.6s-4.6-8.1-8.3-8.1C527.3,43,524.2,45.3,521.7,50L521.7,50z"/>
		<path class="st0" d="M627.7,43.9c2.4,2.8,3.6,6.3,3.6,10.3c0,3.9-1.1,7.1-3.4,9.6c-2.3,2.5-5.2,3.7-8.9,3.7
			c-3.6,0-6.4-0.9-8.5-2.8c-2.1-1.8-3.2-4.3-3.2-7.3c0-5.1,2.3-9.2,6.9-12.3c-0.4-0.1-1.1-0.2-1.9-0.2c-1.1,0-1.9,0.1-2.5,0.3
			c-4,0.6-7.4,3.1-10.2,7.3s-4.2,8.5-4.2,13v41.9c0,4.8,1.2,8.2,3.6,10.1s6.1,2.8,11.3,2.8v3.3c-1.5,0-2.7-0.1-3.6-0.2
			c-10.7-0.3-30.8-0.3-40.9,0c-0.8,0.1-1.9,0.2-3.2,0.2v-3.3c3.8,0,6.4-0.8,7.9-2.4s2.2-4.6,2.2-8.9V59.1c0-4.8-0.7-8.4-2.2-10.6
			s-4.1-3.3-7.9-3.3v-3.3c3.4,0.3,6.6,0.5,9.8,0.5c9.4,0,17.1-0.7,23.1-2.2v14.7c2-4.5,4.9-8.2,8.7-11s8.1-4.2,12.8-4.2
			C621.7,39.6,625.3,41.1,627.7,43.9L627.7,43.9z"/>
		<path class="st0" d="M671.4,41.1c3.4,1,5.9,2.1,7.7,3.4c1.1,0.7,2,1.1,2.8,1.1c0.9,0,1.8-0.5,2.4-1.5c0.7-1,1.1-2.4,1.3-4.3h3.3
			c-0.4,5.4-0.6,14.6-0.6,27.8H685c-0.9-6.9-3-12.8-6.2-17.5s-7.9-7-14-7c-3.2,0-5.8,0.9-7.8,2.7c-2.1,1.8-3.1,4.3-3.1,7.4
			c0,3.6,1.2,6.7,3.6,9.2c2.4,2.6,6.2,5.7,11.4,9.4l4.6,3.3c6.4,4.8,11.2,9.2,14.2,13c3.1,3.8,4.6,8.5,4.6,14.2
			c0,4.6-1.3,8.7-4,12.3s-6.3,6.3-10.8,8.2s-9.5,2.8-15,2.8c-5.8,0-10.7-1.1-14.8-3.3c-3.4-1.7-5.8-2.8-7.3-3.3c-1.1-0.3-2,0-2.8,1
			s-1.4,2.5-1.8,4.5h-3.3c0.4-6,0.6-16.5,0.6-31.6h3.3c2.1,19.4,9.2,29.1,21.3,29.1c3.1,0,5.7-0.9,7.8-2.8c2.2-1.8,3.2-4.7,3.2-8.4
			c0-2.9-0.7-5.6-2-7.9s-3-4.4-5-6.2s-5-4.3-9-7.4c-4.7-3.8-8.3-6.8-10.8-9.2c-2.5-2.3-4.6-5.1-6.3-8.2s-2.6-6.7-2.6-10.6
			c0-6.7,2.6-12.1,7.9-16s11.7-5.8,19.3-5.8C664.4,39.6,668,40.1,671.4,41.1L671.4,41.1z"/>
		<g transform="translate(100 151)">
			<path class="st0" d="M89.2,1.1c-3.4,0-6.1-0.1-8-0.2v1.6c2.1,0.1,3.6,0.4,4.6,0.8s1.7,1.2,2,2.1c0.3,1,0.5,2.5,0.5,4.5v25.6
				L63.4,0.8C61.4,1,59,1,56.2,1c-3.1,0-5.5-0.1-7.3-0.2v1.6C50.8,2.5,52.1,2.7,53,3s1.4,0.9,1.8,1.8c0.3,0.9,0.5,2.3,0.5,4.3v30.2
				c0,2-0.2,3.5-0.5,4.5S53.9,45.5,53,46c-0.9,0.4-6.2,3-9.4-4.2L25.3,0.5h-1.2L6.8,39.6c-0.9,2-1.8,3.7-2.8,4.9s-2.2,2-3.6,2.4v1.6
				c1.4-0.2,12.3-0.2,13.9,0v-1.6c-2.1-0.2-3.7-0.7-4.6-1.4c-1-0.8-1.4-1.8-1.4-3.2c0-1.3,0.4-3,1.3-5l2.7-5.9h19l4,8.9
				c0.7,1.6,1.1,2.8,1.1,3.7c0,1-0.5,1.7-1.4,2.1s-2.3,0.7-4.3,0.8v1.6c2.2-0.2,31.7-0.2,33.5,0v-1.6c-2.1-0.1-3.6-0.4-4.6-0.8
				s-1.7-1.2-2-2.1c-0.3-1-0.5-2.5-0.5-4.5V5.7L88.3,49h1.8V10c0-2,0.2-3.5,0.5-4.5s0.9-1.7,1.8-2.2c0.9-0.4,2.2-0.7,4.1-0.8V0.9
				C94.8,1,92.3,1.1,89.2,1.1z M12.9,29.8L21.8,10l8.8,19.8H12.9z"/>
			<path class="st0" d="M138.6,6.8c4.1,3.9,6.1,9.7,6.1,17.2c0,4.9-1,9.2-3,12.9s-4.9,6.5-8.6,8.5c-3.8,2-8.3,3-13.6,3l-4.5-0.1
				c-2.9-0.1-5.1-0.2-6.4-0.2c-4.3,0-7.5,0.1-9.7,0.2v-1.6c1.9-0.1,3.2-0.3,4.1-0.6s1.4-0.9,1.8-1.8c0.3-0.9,0.5-2.3,0.5-4.3V9.1
				c0-2-0.2-3.4-0.5-4.3S103.9,3.3,103,3s-2.2-0.5-4.1-0.6V0.8c1.8,0.2,4.3,0.2,7.6,0.2l6.6-0.1c3.5-0.1,5.9-0.2,7.1-0.2
				C128.4,0.9,134.5,2.9,138.6,6.8z M114.6,2.8c-0.8,0.4-1.4,1-1.7,2c-0.3,0.9-0.5,2.3-0.5,4.2v31.2c0,1.9,0.2,3.3,0.5,4.2
				s0.9,1.6,1.7,2s2,0.5,3.7,0.5c4.7,0,8.5-0.8,11.2-2.5s4.6-4.2,5.7-7.5s1.6-7.5,1.6-12.7c0-7.6-1.4-13.2-4.2-16.7
				s-7.6-5.3-14.4-5.3C116.7,2.3,115.5,2.5,114.6,2.8z"/>
		</g>
		<path class="st0" d="M282.6,177v14.1c0,2,0.2,3.4,0.6,4.3s1.1,1.5,2.2,1.8c1,0.3,2.7,0.5,5.1,0.6v1.6c-2.7-0.2-19.3-0.2-21.5,0
			v-1.6c1.9-0.1,3.2-0.3,4.1-0.6s1.4-0.9,1.8-1.8c0.3-0.9,0.5-2.3,0.5-4.3v-38.7c0-2-0.2-3.4-0.5-4.3s-0.9-1.5-1.8-1.8
			s-2.2-0.5-4.1-0.6v-1.6c2.2,0.2,5.4,0.2,9.5,0.2l8.4-0.1c1-0.1,2.1-0.1,3.4-0.1c6.1,0,10.8,1.4,14,4.2s4.8,6.5,4.8,11.2
			c0,2.9-0.6,5.6-1.9,8.2s-3.4,4.8-6.5,6.6c-3,1.8-7.1,2.7-12.1,2.7L282.6,177L282.6,177z M284.8,146.2c-0.8,0.4-1.4,1-1.7,2
			c-0.3,0.9-0.5,2.3-0.5,4.2v23.1h5.2c5.1,0,8.6-1.4,10.6-4.1s2.9-6.4,2.9-11c0-5.1-1-8.8-3-11.2s-5.3-3.6-10-3.6
			C286.8,145.6,285.6,145.8,284.8,146.2z"/>
		<path class="st0" d="M436.7,161.1c0,2.7,0.1,4.8,0.2,6.4h-1.8c-0.3-3.6-0.8-6.4-1.5-8.4c-0.7-1.9-1.8-3.3-3.3-4.2
			s-3.7-1.3-6.5-1.3h-5v36.6c0,2.2,0.2,3.8,0.6,4.8s1.1,1.7,2.2,2c1,0.4,2.7,0.6,5.1,0.7v1.6c-2.7-0.2-20.5-0.2-23,0v-1.6
			c2.3-0.1,4-0.3,5.1-0.7c1-0.4,1.8-1,2.2-2s0.6-2.6,0.6-4.8v-36.6h-5c-2.8,0-5,0.4-6.5,1.3s-2.6,2.3-3.3,4.2s-1.2,4.7-1.5,8.4h-1.8
			c0.2-1.7,0.2-3.8,0.2-6.4c0-2.7-0.2-5.8-0.5-9.2c4.3,0.2,11.7,0.2,22,0.2s17.6-0.1,22-0.2C436.9,155.3,436.7,158.4,436.7,161.1
			L436.7,161.1z"/>
		<path class="st0" d="M486.7,153.5c-1.8,0.1-3.2,0.4-4.1,0.8s-1.5,1.2-1.8,2.2s-0.5,2.5-0.5,4.5v38.8h-1.8l-31.2-43.3v33.8
			c0,2,0.2,3.5,0.5,4.5s1,1.7,2,2.1s2.5,0.7,4.6,0.8v1.6c-1.9-0.2-13.5-0.2-15.2,0v-1.6c1.8-0.1,3.2-0.4,4.1-0.8s1.5-1.2,1.8-2.2
			s0.5-2.5,0.5-4.5V160c0-2-0.2-3.4-0.5-4.3s-0.9-1.5-1.8-1.8s-2.2-0.5-4.1-0.6v-1.6c1.7,0.2,4.1,0.2,7.3,0.2c2.8,0,5.2-0.1,7.2-0.2
			l24.9,34.7V161c0-2-0.2-3.5-0.5-4.5s-1-1.7-2-2.1s-2.5-0.7-4.6-0.8V152c1.9,0.2,4.5,0.2,8,0.2c3.1,0,5.5-0.1,7.3-0.2L486.7,153.5
			L486.7,153.5L486.7,153.5z"/>
		<path class="st0" d="M528,199.4c-3.4-0.2-34-0.2-39,0v-1.6c1.9-0.1,3.2-0.3,4.1-0.6s1.4-0.9,1.8-1.8c0.3-0.9,0.5-2.3,0.5-4.3
			v-30.9c0-2-0.2-3.4-0.5-4.3s-0.9-1.5-1.8-1.8s-2.2-0.5-4.1-0.6v-1.6c4.9,0.2,12.2,0.2,21.9,0.2c7.3,0,12.5-0.1,15.5-0.2
			c-0.4,3.1-0.5,5.9-0.5,8.4c0,2,0.1,3.6,0.2,4.8h-1.8c-0.4-4.3-1.3-7.3-2.7-8.9c-1.4-1.7-3.8-2.5-7-2.5h-5.7
			c-1.9,0-3.2,0.1-4.1,0.4s-1.4,0.9-1.8,1.8c-0.3,0.9-0.5,2.3-0.5,4.3v14.5h6.5c1.7,0,2.9-0.4,3.8-1.3s1.5-1.8,1.8-2.8
			s0.6-2.3,0.9-3.9h1.8c-0.2,1.8-0.2,3.7-0.2,5.8v3c0,2,0.2,4.9,0.5,8.7h-1.8c-0.3-2.5-0.9-4.5-1.8-5.9s-2.5-2.1-4.9-2.1h-6.5V191
			c0,2,0.2,3.4,0.5,4.3s0.9,1.5,1.8,1.8s2.2,0.4,4.1,0.4h5.7c2.6,0,4.7-0.4,6.2-1.2s2.7-2.2,3.4-4c0.8-1.8,1.3-4.4,1.6-7.8h1.8
			c-0.2,1.4-0.2,3.3-0.2,5.6C527.4,192.9,527.6,195.9,528,199.4L528,199.4z"/>
		<path class="st0" d="M600.1,151.5c1.3,0.5,2.7,1.2,4.1,2.1c1.1,0.7,2,1.1,2.7,1.1c0.5,0,0.8-0.3,1.1-0.8s0.5-1.4,0.6-2.6h1.8
			c-0.3,2.7-0.4,7.5-0.4,14.4h-1.8c-0.3-3.7-1.5-6.9-3.6-9.5s-5.2-3.9-9.2-3.9c-2.8,0-5,0.7-6.8,2.2s-2.7,3.3-2.7,5.5
			c0,1.6,0.4,3,1.2,4.2s1.8,2.2,3.1,3.1s3.1,1.9,5.4,3.2l2.6,1.4c3.2,1.7,5.8,3.3,7.8,4.6c2,1.4,3.5,2.9,4.7,4.6s1.8,3.8,1.8,6.1
			c0,4.2-1.5,7.5-4.6,9.8c-3,2.3-6.9,3.5-11.4,3.5c-2.5,0-4.5-0.3-6.1-0.8s-3.1-1.2-4.6-2.1c-1.1-0.7-2-1.1-2.7-1.1
			c-0.5,0-0.8,0.3-1.1,0.8s-0.5,1.4-0.6,2.6h-1.8c0.2-2.6,0.3-8.3,0.3-17.2h1.8c0.4,4.8,1.7,8.7,3.9,11.7s5.7,4.5,10.3,4.5
			c2.6,0,4.9-0.7,6.8-2.2s2.9-3.7,2.9-6.6c0-1.7-0.5-3.2-1.5-4.6c-1-1.3-2.3-2.5-4-3.6c-1.7-1-4-2.3-7-3.9c-4.3-2.2-7.5-4.4-9.8-6.6
			c-2.2-2.2-3.4-5-3.4-8.5c0-3.9,1.4-6.8,4.3-9c2.8-2.1,6.3-3.2,10.4-3.2C597,150.8,598.8,151,600.1,151.5z"/>
		<path class="st0" d="M266.2,117.2c-1.6,1.1-3,1.6-4.2,1.6c-1.4,0-2.3-0.5-2.8-1.6s-0.7-2.8-0.7-5.4v-43c0-5.8-0.4-10.4-1.2-13.7
			c-0.8-3.4-2.3-6.2-4.7-8.5c-2.5-2.5-5.7-4.3-9.5-5.4s-8.3-1.6-13.4-1.6c-5,0-9.5,0.5-13.7,1.4s-7.7,2.3-10.5,3.9
			c-2.9,1.8-5.1,3.7-6.6,5.8c-1.4,2.1-2.1,4.6-2.1,7.5c0,3.5,1,6.4,3,8.7s4.8,3.5,8.5,3.5c3.5,0,6.4-1.1,8.8-3.2s3.6-4.9,3.6-8.5
			c0-2.8-0.8-5.3-2.4-7.4s-3.9-3.7-6.9-4.7c2.6-2.5,6.5-3.8,11.5-3.8c4.3,0,7.5,1.2,9.6,3.7s3.1,5.9,3.1,10.3v12.3
			c0,2.8-1.3,5.1-4,6.7s-6.9,3.4-12.7,5.4c-5.5,1.9-10,3.7-13.5,5.4s-6.5,4.1-9,7.2s-3.7,7-3.7,11.8c0,5.7,1.7,10.3,5,13.7
			s8.3,5.2,15.1,5.2c10.2,0,17.9-4.3,23.2-12.8c0.1,3.9,1.3,7,3.6,9.3s6.4,3.5,12.2,3.5c6.2,0,11.5-1.6,15.9-4.7L266.2,117.2
			L266.2,117.2z M235.7,108c-3.1,4.3-6.6,6.5-10.7,6.5c-2.9,0-5.3-1-7.1-3.1s-2.7-5.2-2.7-9.6c0-4.9,1.1-8.7,3.2-11.4
			c2.1-2.6,5.2-5.3,9.3-7.9c4.1-2.5,6.8-4.8,8.1-6.9V108H235.7z"/>
		<path class="st0" d="M576.5,196c-1.2,1.2-2.4,1.7-3.4,1.7c-0.8,0-1.4-0.4-1.9-1.1c-0.5-0.8-1-2-1.4-3.9l-1.7-7.1
			c-0.7-2.8-1.8-4.8-3.4-6s-3.8-2.1-6.6-2.5c-0.7-0.1-1.6-0.2-2.7-0.3c5.5-0.7,9.5-2.3,11.9-4.8s3.6-5.3,3.6-8.3
			c0-3.5-1.6-6.3-4.6-8.5c-3.1-2.2-7.6-3.3-13.4-3.3c-1.1,0-2.2,0-3,0.1l-8,0.1c-4.2,0-7.3-0.1-9.5-0.2v1.6c1.9,0.1,3.2,0.3,4.1,0.6
			s1.4,0.9,1.8,1.8c0.3,0.9,0.5,2.3,0.5,4.3v30.9c0,2-0.2,3.4-0.5,4.3s-0.9,1.5-1.8,1.8s-2.2,0.5-4.1,0.6v1.6
			c2.2-0.2,17.5-0.2,19.9,0v-1.6c-1.9-0.1-3.2-0.3-4.1-0.6s-1.4-0.9-1.8-1.8c-0.3-0.9-0.5-2.3-0.5-4.3v-13.7h4.5
			c2.8,0,4.9,0.5,6.4,1.5c1.4,1,2.5,2.9,3.2,5.9l2.4,9.8c1,4,3.7,5.9,8,5.9c1.8,0,3.3-0.4,4.6-1.1c1-0.6,1.8-1.3,2.6-2.2L576.5,196z
			 M545.9,175.9v-15.7c0-1.9,0.1-3.3,0.4-4.2s0.7-1.6,1.4-2s1.8-0.5,3.2-0.5c4.3,0,7.4,0.9,9.3,2.8c1.9,1.8,2.9,4.6,2.9,8.4
			c0,3.6-0.8,6.4-2.5,8.3c-1.7,2-4.8,2.9-9.4,2.9H545.9L545.9,175.9z"/>
		<path class="st0" d="M394.8,196c-1.2,1.2-2.4,1.8-3.4,1.8c-0.8,0-1.4-0.4-1.9-1.1c-0.5-0.8-1-2-1.4-3.9l-1.7-7.1
			c-0.7-2.8-1.8-4.8-3.4-6s-3.8-2.1-6.6-2.5c-0.7-0.1-1.6-0.2-2.7-0.3c5.5-0.7,9.5-2.3,11.9-4.8s3.6-5.3,3.6-8.3
			c0-3.5-1.6-6.3-4.6-8.5c-3.1-2.2-7.6-3.3-13.4-3.3c-1.1,0-2.2,0-3,0.1l-8,0.1c-4.2,0-7.3-0.1-9.5-0.2v1.6c1.9,0.1,3.2,0.3,4.1,0.6
			s1.4,0.9,1.8,1.8c0.3,0.9,0.5,2.3,0.5,4.3v30.9c0,2-0.2,3.4-0.5,4.3s-0.9,1.5-1.8,1.8s-6.7,2.6-9.4-4.4l-18.3-41.3h-1.2
			l-17.3,39.1c-0.9,2-1.8,3.7-2.8,4.9s-2.2,2-3.6,2.4v1.6c1.4-0.2,12.3-0.2,13.9,0V198c-2.1-0.2-3.7-0.7-4.6-1.4
			c-1-0.8-1.4-1.8-1.4-3.2c0-1.3,0.4-3,1.3-5l2.7-5.9h19l4,8.9c0.7,1.6,1.1,2.8,1.1,3.7c0,1-0.5,1.7-1.4,2.1s-2.3,0.7-4.3,0.8v1.6
			c2.2-0.2,35.8-0.2,38.2,0V198c-1.9-0.1-3.2-0.3-4.1-0.6s-1.4-0.9-1.8-1.8c-0.3-0.9-0.5-2.3-0.5-4.3v-13.7h4.5
			c2.8,0,4.9,0.5,6.4,1.5c1.4,1,2.5,2.9,3.2,5.9l2.4,9.8c1,4,3.7,5.9,8,5.9c1.8,0,3.3-0.4,4.6-1.1c1-0.6,1.8-1.3,2.6-2.3L394.8,196
			L394.8,196z M314.6,180.8l8.9-19.8l8.8,19.8H314.6L314.6,180.8z M364.3,175.9v-15.7c0-1.9,0.1-3.3,0.4-4.2s0.7-1.6,1.4-2
			s1.8-0.5,3.2-0.5c4.3,0,7.4,0.9,9.3,2.8c1.9,1.8,2.9,4.6,2.9,8.4c0,3.6-0.8,6.4-2.5,8.3c-1.7,2-4.8,2.9-9.4,2.9H364.3z"/>
	</g>
</g>
</svg>
