<svg xmlns="http://www.w3.org/2000/svg" viewBox="0 0 442.72 477.74"><defs><style>.a{fill:#fff;}</style></defs><path class="a" d="M286.52,369.63c-.84,22.66-8.35,44.83-28,61.79-28.2,24.37-66.11,21.83-90.79-6.14-26.27-29.74-28.29-73.61-4.84-104.37,30.64-40.2,80.45-32,102.68-7.8C279.63,328.37,286.36,346.5,286.52,369.63Zm-60.25,72.52V298.67c-6.91-1.64-13.38-1.87-19.74.17V442A39.17,39.17,0,0,0,226.27,442.15Z"/><path class="a" d="M302.8,364.1c.28-26.07,13.41-50.34,41.46-64.58,39.21-19.91,85.61,2.92,95.64,46.57,6.54,28.44,2.09,55-17.38,77.69-13.76,16-31.18,25.43-52.82,24.45-22.61-1-39.46-12.82-52.42-30.52C306.8,403.4,302.9,386.87,302.8,364.1Zm59.42-65.51V441.9c6.84,2.81,14.95,2.66,20.23-.22V298.27C375.55,296,369.08,296.84,362.22,298.59Z"/><path class="a" d="M29.85,436.76c14.37,7.23,29,7.61,44.26,7.22V356.33c-7-1.89-14.16-.74-21.27.52a79.75,79.75,0,0,0-28.52,11.41c-2.39,1.49-4.44,2.25-6.87-.89,2.66-24.6,5.36-49.67,8.15-75.49,34,4.76,67.56,9.92,101.05,2.1,1.4,1.35.64,2.45.33,3.49a58.19,58.19,0,0,1-23.7,32.29c-8.81,6-18.92,7-29.07,7.49a247,247,0,0,1-41.32-1.54c-2.13-.25-4.27-.29-7-.47-1.66,9.29-2.37,18.43-3.26,28.43,8.08-4.58,15.79-8,24.07-9.86C67,349.22,87,350,106.26,358.54c23.06,10.28,33.88,34.3,25.35,56.34-5.2,13.45-14.91,23-28.47,27.58-24.59,8.27-49.31,8.33-73.72-1.2A67.91,67.91,0,0,1,11,430.41C2.38,423.33-.54,410.56,4.2,400.6a25.66,25.66,0,0,1,28.59-14.15,25.15,25.15,0,0,1,1.67,48.83C33.19,435.64,32,436.08,29.85,436.76Z"/><path class="a" d="M130.36,276.92c5.46,1.31,9.67-.75,13.19-4.33,5.84-5.93,9.29-13.35,12.08-21,6.66-18.38,10.05-37.52,12.84-56.79.27-1.82-.35-4.16,2.26-5,1.85,2.87,2.43,83.33.68,89.43H88.56c1-2.66,2.71-2.48,4.28-2.52a11.5,11.5,0,0,0,5.28-.81V59.65c-1.87-2-5.22.15-7.79-2.88,27.65-1.14,54.57-.9,81.87-.14v85.48c-3,0-2.55-2-2.79-3.55-2.5-15.42-4.7-30.89-8.89-46a147.8,147.8,0,0,0-8.85-24.34,16.61,16.61,0,0,0-21.33-7.8V164.35c2.9.62,4.49-.94,6-2.37a26.7,26.7,0,0,0,7.12-11.82,169.5,169.5,0,0,0,7.14-34.6c.14-1.44-.61-3.5,2.72-4.23.42,36.83.42,73.43,0,110,0,1-.93,1.26-2.21,1.34-2.15-4.66-1.64-9.88-2.47-14.83-1.38-8.19-2.73-16.39-5.27-24.31-2.1-6.54-5.8-11.9-13-14.92Z"/><path class="a" d="M241.47,71.09,253.9,56.38l1.51.54q.33,43.74.64,87.47c0,1.06-.54,1.9-2.35,2.17-1.8-4.34-1.68-9.15-2.29-13.75-1.92-14.33-3.51-28.7-7.24-42.72a106.49,106.49,0,0,0-9.94-24.93,16.77,16.77,0,0,0-6.39-6.81c-5.43-3-9.82-1.52-11.92,4.27a23.94,23.94,0,0,0-1.56,8.26q.15,98.81.19,197.61c0,7.48,3.4,11.43,9.16,10.82,3.75-.4,6.14-2.37,6.7-6.22a23.61,23.61,0,0,0,.23-3.47q0-43.67,0-87.33c0-1.3-.18-2.61-.26-3.69-2-2.14-5.35.34-7.3-3.33,15.05-.91,29.65-.89,45-.57-1.74,3-4.51,1.59-6.39,3.36V279.54l-1.34.46c-4.92-5.75-7.93-12.9-12.78-19.33-1.33,2.57-2.43,4.76-3.6,6.91-5,9.22-12.22,14.66-23.21,14.21-11.25-.45-19.85-5.36-25.16-15.23-6.72-12.48-9.67-26.15-11.12-40.11a566.7,566.7,0,0,1-1.94-96.6c1.08-16.13,3.63-32,8.92-47.39,2.84-8.27,7-15.83,13.62-21.74C217.62,49.5,231,52,238.52,67,239.18,68.33,239.48,69.89,241.47,71.09Z"/><path class="a" d="M398.21,276c9.08,2.51,14.61-1.53,18.81-8.34,5.49-8.89,8.18-18.87,11-28.77,4.54-15.86,7-32.13,8.88-48.49.16-1.35-.47-3.12,2.59-4.2,1.51,31.2.62,62,.73,93.49-27.59,1.24-54.88.67-82.76-.06,2.22-3.73,5.84-.9,8.31-3.4V59.29c-2.38-2.27-5.84-.19-8.43-1.88,2.87-2.21,45.52-3,51.92-.87-3.31,2.93-7.71-.09-11.07,2.67Z"/><path class="a" d="M41.06,276.14c8.31,2.46,13,.64,17.3-6.87,7.7-13.42,11.74-28.15,15.2-43.07,2.66-11.51,4.25-23.2,5.94-34.87.19-1.35-.4-3.12,1.54-3.79,2.33,3.16,2.61,82.63.35,91.69-5.94,1-77.16.63-81.39-.47.55-2.12,2.38-2,3.94-2.22s3.34.23,5.14-1.14V59.55c-2.29-1.76-5.86.53-7.57-2.72,5.23-2,49.6-1.51,52.7.83C50,60.2,45,57,41.06,60.15Z"/><path class="a" d="M294.25,279.39c-9.41.16-18.63,1-28.46-.14.78-1.1,1-1.72,1.31-1.8,8.47-1.91,11-8.42,12.08-15.85,4.75-33.41,9.38-66.84,14.1-100.25s9.5-66.81,14.27-100.21c.21-1.47.61-2.91,1-4.72,5.58-1,11.11-.59,17.37-.18,7.24,73.42,13.31,146.59,21.64,218.56,1.65,2.81,4.65.87,5.87,4.28-15.69.73-31.05.37-47.09.49,2.07-3.74,5.94-1.23,8.09-4.71.07-13.56-2-28-3.32-42.83H287.75c-2.4,4.93-2.28,10.34-3.12,15.51-.66,4.1-.91,8.26-1.34,12.4-1,9.33,1.25,13.1,9.87,16.94C293.82,277.17,294.19,277.69,294.25,279.39ZM303,126.19l-.91,0c-4.79,33.81-9.57,67.63-14.43,101.92a118.86,118.86,0,0,0,23,.12C308.1,194,305.55,160.08,303,126.19Z"/><path class="a" d="M440,477.74H1.15c-.71-1.95-.45-3.19,1.68-3.31,1.33-.07,2.66-.06,4-.06H434c1.5,0,3,0,4.49.12C440.42,474.68,440.38,476,440,477.74Z"/><path class="a" d="M274.61,28.28H439.38c.86,1.6.74,2.8-1,3.14a20.94,20.94,0,0,1-4,.18q-77.26,0-154.54-.05C277.86,31.54,274.55,32.92,274.61,28.28Z"/><path class="a" d="M158.57,28.22c.87,1.8.61,2.94-1.15,3.25a20,20,0,0,1-3.47.13q-74,0-148-.05c-2,0-5.38,1.41-5-3.33Z"/><path class="a" d="M217.56,22.48c2.69-1.5,4.2-3.81,6.72-4.79,5.14-2,8.78.48,8.12,5.95a83.54,83.54,0,0,1-2.24,9.67c-.42,1.7-1.24,3.37-.27,5.16,2.84-.38,2.46-3.89,5.45-4.94a14.68,14.68,0,0,1-4.72,8.33c-1.67,1.48-3.56,2.58-5.86,1.37s-2.78-3.32-2.32-5.54c.83-4,2-8,2.9-12.08.36-1.64,1.66-3.45-.77-5.48C216,25.05,215.3,34.5,212.2,42.42c-2,.43-3.75.73-5.7-.37,2.24-12.5,6.1-24.68,7.94-36.69-.56-2.46-2.59-2.05-3.59-3,.1-2.13,4.84-2.95,11.53-2Z"/><path class="a" d="M173.58,15.17c-.77-3.86.72-7,1.38-10.91,9.58,0,19.11.83,28.79-.4A32.26,32.26,0,0,1,203.92,17c-3-4.36-3-10.9-10.3-8.8L187.9,39.83c1.59,1.67,3.77.37,4.56,2-2.1,2-13,2.45-18.22.36,7.54-1.57,6.62-7.51,7.58-12.36,1.41-7.1,2.6-14.25,3.93-21.6-3.12-.8-5.37-.46-7.53,1.16C176.27,10.79,176.62,14,173.58,15.17Z"/><path class="a" d="M246.4,34.08c-.79,2.24-1.71,4.41.6,6,2.07,1.42,4.14.45,6.08-.58,2.65-1.4,4.06-4.23,6.64-6.2-.27,6-5.65,10-12.44,9.84C242,43,239.37,40,239.29,34c-.14-10.07,7.11-17.53,16.54-17,2.23.11,4.47.38,5.42,2.73s.17,4.54-1.43,6.45a19.07,19.07,0,0,1-6.34,4.71C251.26,31.91,249,32.89,246.4,34.08Zm1-4.2c6.92-2.71,9.31-5.85,8-10.55-5.08.4-7.69,3.91-7.92,10.68-.38-.25-.52-.19-.42.15Z"/><path d="M247.43,29.88l-.34.28c-.1-.34,0-.4.42-.15Z"/></svg>