<?xml version="1.0" encoding="utf-8"?>
<!-- Generator: Adobe Illustrator 24.3.0, SVG Export Plug-In . SVG Version: 6.00 Build 0)  -->
<svg version="1.1" id="Layer_1" xmlns="http://www.w3.org/2000/svg" xmlns:xlink="http://www.w3.org/1999/xlink" x="0px" y="0px"
	 viewBox="0 0 35 35" style="enable-background:new 0 0 35 35;" xml:space="preserve">
<style type="text/css">
	.st0{fill:#0076B4;}
	.st1{fill:#FFFFFF;}
</style>
<g>
	<circle class="st0" cx="17.5" cy="17.5" r="17.5"/>
</g>
<g>
	<path class="st1" d="M12.1,26.2H8V13.1h4.1V26.2z M10,11.3c-1.3,0-2.4-1.1-2.4-2.4c0-1.3,1.1-2.4,2.4-2.4c1.3,0,2.4,1.1,2.4,2.4
		C12.4,10.3,11.3,11.3,10,11.3z M27.3,26.2h-4.1v-6.4c0-1.5,0-3.5-2.1-3.5c-2.1,0-2.4,1.7-2.4,3.4v6.5h-4.1V13.1h3.9v1.8h0.1
		c0.5-1,1.9-2.1,3.9-2.1c4.1,0,4.9,2.7,4.9,6.3L27.3,26.2L27.3,26.2z"/>
</g>
</svg>
