<?xml version="1.0" encoding="utf-8"?>
<!-- Generator: Adobe Illustrator 24.3.0, SVG Export Plug-In . SVG Version: 6.00 Build 0)  -->
<svg version="1.1" id="Layer_1" xmlns="http://www.w3.org/2000/svg" xmlns:xlink="http://www.w3.org/1999/xlink" x="0px" y="0px"
	 viewBox="0 0 793.1 518" style="enable-background:new 0 0 793.1 518;" xml:space="preserve">
<style type="text/css">
	.st0{clip-path:url(#SVGID_1_);}
	.st1{clip-path:url(#SVGID_2_);fill:#FEFEFE;}
	.st2{clip-path:url(#SVGID_2_);fill:#DB143C;}
	.st3{fill:none;stroke:#BFA161;stroke-miterlimit:10;}
	.st4{clip-path:url(#SVGID_3_);}
	.st5{clip-path:url(#SVGID_3_);fill:#FFFFFF;}
	.st6{clip-path:url(#SVGID_14_);fill:#000CEB;}
	.st7{clip-path:url(#SVGID_14_);}
	.st8{fill:#000CEB;}
	.st9{fill:#5F381F;}
	.st10{fill:#FDFEFF;}
	.st11{fill:#C4C4C4;}
	.st12{fill:#BC1515;}
	.st13{fill:#C98017;}
	.st14{fill:#FBED60;}
	.st15{fill:#FABA31;}
	.st16{fill:#68C2EE;}
	.st17{fill:#0491BE;}
	.st18{fill:#68C2EF;}
	.st19{fill:#31798F;}
	.st20{fill:#C1BDBE;}
	.st21{fill:#6E6E6E;}
	.st22{fill:#6C6C6C;}
	.st23{fill:#BCBCBC;}
	.st24{fill:#E1E1E1;}
	.st25{fill:#0A0A09;}
	.st26{clip-path:url(#SVGID_15_);fill:#000CEB;}
	.st27{clip-path:url(#SVGID_15_);fill:#FFFFFF;}
	.st28{clip-path:url(#SVGID_15_);}
	.st29{fill:#D0D07D;}
	.st30{fill:#B69531;}
	.st31{fill:#6D584E;}
	.st32{fill:#C5A84F;}
	.st33{fill:#A38678;}
	.st34{fill:#5A4740;}
	.st35{fill:#C3A031;}
	.st36{fill:#208277;}
	.st37{fill:#45140D;}
	.st38{fill:#787772;}
	.st39{fill:#91908A;}
	.st40{fill:#796356;}
	.st41{fill:#715B52;}
	.st42{fill:#BFA161;}
	.st43{fill:#518885;}
	.st44{fill:#EEEEE2;}
	.st45{fill:#D8B144;}
</style>
<g>
	<defs>
		<path id="SVGID_4_" d="M459.5,397.8c0.8-2,1.6-3.7,2.4-5.2c1.8-4.1,3.7-8.2,4-12.7c0.4-5.2-1-9.5-5.5-12.3c-1.4-1-2.5-2.3-3.8-3.5
			c-0.4-0.3-0.6-0.8-0.6-1.3c0-0.4,0-0.8-0.1-1.1c-3.4-12.7-2.7-9.2,0.3-22.3c1.1-4.8,0.6-9.2-3.7-12.4c-1.6-1.3-1.7-3.2-1.4-5.1
			c0.1-0.6,0.3-1.1,0.6-1.6c2.3-5.2,0.1-8-4-11.4c-2.3-1.7-4.5-3.4-6.9-4.8c-1.3-1-2.1-2.1-3.1-3.4c-2-2.8-0.7-5.1,1-7.3
			c1.1-1.4,2.3-2.8,3.5-4c4-4,4.4-8.9,3.1-14.1c-1.3-4.7-2.5-9.3-4-14.1c-0.1-0.6-0.6-1.1-0.1-1.8l10.4,4c-0.1-2.1-0.1-4.1-0.3-6.2
			c-0.1-1.7-1.6-2.3-3.1-2.8c-2.3-0.8-4.7-1-7.1-1.3c-2.5-0.3-3-1.3-2-4c1.6,0.1,3.2,0.1,4.8,0.4c2.3,0.4,4.4,0,6.6-0.6
			c5.1-1.3,10-2.8,15-4.7c9.5-4,19.6-6.4,29.8-8.2c6.6-1.3,12.1-3.8,16.8-8.6c0.8-0.8,1.7-1.4,2.8-2.1c4.4-3.2,9.7-4.5,14.8-6.4
			c5.6-1.8,11.3-4,17.1-5.5c8-2.1,16.2-3.7,24.6-4.1c5.4-0.4,10.3,1,15.5,1.8c0.3,0,0.6,0.1,0.8,0.4c2.1,1.8,4.2,3.8,6.5,5.9
			c-4-0.7-6.8-3.8-11.1-4c2.7,5.2,4.7,10.6,9.5,14.1c2.8,2.1,6.1,3,9.3,3.2c3.8,0.3,7.3-0.7,10.9-1.8c6.1-2,12-2.4,18.3-2
			c32,1.7,64.2,3.2,96.2,4c1.3,0,2.8,0,4-1c1.4-1.3,3.7-1.3,5.2,0c4.5,3.2,9.6,5.1,14.1,8.5c1.8,1.4,3.2,3.4,3.4,5.6
			c0.6,7.3,3.7,14,5.8,20.7c2.5,8.3,5.4,16.5,8,24.8c1.3,4,1.8,8.3,1.7,12.6c-0.1,4.5-2.4,7.5-6.6,9.2c-3,1.1-5.8,2-8.6,3.5
			c-4.1,2.3-6.9,5.6-9,9.7c-1.3,2.4-0.1,4.9,2.5,6.2c2.1,1,4.2,1.7,6.6,2.5c2.5,1.1,4.4,2.5,5.1,5.6c0.6,2.8,1,5.4,0,8.2
			c-0.4,1.3-0.6,3-1.1,4.2c-2,5.5-1,10.6,1.4,15.7c0.7,1.3,0.6,3,0.4,4.4c-0.1,2.4,0.4,4.8,2.1,6.6c4.1,4.4,6.8,9.7,9.3,15.1
			c0.7,1.6,1.6,3,3,4c1,0.7,1.3,1.7,0.3,2.5c-2.3,1.6-1.7,4-1.6,6.1c0.1,1.7,1.1,3.4,1.6,5.1c1.3,4-0.3,7.6-3.7,9.9
			c-3.1,2-6.6,3.1-9.6,4.9c-2.8,1.6-5.4,3.8-7.6,6.2c-6.9,7.5-14,15-20.7,22.6c-2.3,2.4-4.1,5.1-5.6,7.9c-1.4,3.1-1.4,6.2-0.8,9.3
			c0.8,3.8,1.7,7.6,2.4,11.4c0.3,1.6,1.1,3.2,2.4,4.1c0.7,0.6,1.6,1.1,1.1,2.4c-0.7,1.3-1.6,1.4-2.8,1.1c-7.8-2.3-15.2-4.8-22.2-9.3
			c-6.4-4.1-13-7.8-19.9-10.7c-0.8-0.4-1.6-0.6-2.5-0.4c-3.7,0.4-7.1,0.7-10.7,1c-1.7,0-3.4,0.8-4.2,2.1c-2.3,3.2-5.4,3.1-8.6,2.1
			c-0.6-0.1-1-0.3-1.3-0.6c-5.2-2.8-10.4-2.3-15.7,0c-2.8,1.3-4.9,3.5-5.9,6.4c-0.3,0.6-0.6,1.1-0.8,1.6c-2.1-1-4.4-0.7-6.6-0.6
			c-1.8,0-1.8-0.7-2.4-2.4c-1-3.1-0.6-6.9-4.5-8.6c-3-1.3-4-4.4-6.2-6.6c-1.1-1.1-2.4-1.3-3.7-0.8c-1.4,0.8-3,1.7-4.1,3
			c-0.8,0.8-1.6,1.7-2.1,2.8c-1.1,1.8-2.5,2.7-4.7,2.5c-1.4-0.1-2.5-0.7-3.1-2.1c-0.6-1.6-1.3-3-3.2-3.1c-1-0.1-1.1-0.8-1.1-1.4
			c-0.1-1.7-1-3.5-2.1-4.8c-2-2.3-3.7-4.8-4.9-7.6c-1.4-3-4-5.2-7.2-6.2c-4-1.3-7.5-2.7-10.6-5.5c-1.1-1.1-2.3-1-3.5,0.1
			c-3,2.7-4,3-7.9-0.4c-2.3-2-4-4.4-5.9-6.8c1.3-0.6,2.3-0.8,3.1-1.4c1.3-0.8,1.7-2.3,1.4-3.8c-0.3-1.7-1.3-2.4-2.7-1.4
			c-3.5,2.1-6.6,0.8-9.6-0.8c-2.3-1.1-4.4-2.7-6.6-4c-2.5-1.4-5.5-2-8.3-1.7c-0.4,0-0.8,0.1-1.1,0.6c1.4,1.6,1.4,3.8,1.4,5.9
			c0,1.1,1,2-0.3,3.1c-2.3,2-4,4.8-7.2,5.5c-2,0.4-4-0.4-5.4-1.8c-3.4-3.7-6.6-7.2-9.7-10.9c-1.3-1.3-1.1-3.5,0.3-4.7l0.1-0.1
			c1-0.8,2.1-1.3,3-2.1c1.6-1.8,1.1-4,0-5.6c-0.8-1.3-2.8-1.1-4.4-1c-2.3,0.4-4.4,1-6.6,1.1c-0.8,0.1-1.6,0-2.1-0.7
			c-3.5-4-8.6-4.9-13-6.8c-1.6-0.6-3.2-1.1-4.9-1.3c-2.3-0.4-4-2.1-4.7-4.2c-0.1-0.4-0.3-0.7-0.4-1.1c-0.7-4-3.8-4.9-6.6-6.5
			c-0.7-0.3-1,0-1.3,0.4c-1,1-2.1,1.8-2.7,3.4C464.4,396.5,462.1,397.2,459.5,397.8z"/>
	</defs>
	<defs>
		<path id="SVGID_6_" d="M459.5,397.8c0.8-2,1.6-3.7,2.4-5.2c1.8-4.1,3.7-8.2,4-12.7c0.4-5.2-1-9.5-5.5-12.3c-1.4-1-2.5-2.3-3.8-3.5
			c-0.4-0.3-0.6-0.8-0.6-1.3c0-0.4,0-0.8-0.1-1.1c-3.4-12.7-2.7-9.2,0.3-22.3c1.1-4.8,0.6-9.2-3.7-12.4c-1.6-1.3-1.7-3.2-1.4-5.1
			c0.1-0.6,0.3-1.1,0.6-1.6c2.3-5.2,0.1-8-4-11.4c-2.3-1.7-4.5-3.4-6.9-4.8c-1.3-1-2.1-2.1-3.1-3.4c-2-2.8-0.7-5.1,1-7.3
			c1.1-1.4,2.3-2.8,3.5-4c4-4,4.4-8.9,3.1-14.1c-1.3-4.7-2.5-9.3-4-14.1c-0.1-0.6-0.6-1.1-0.1-1.8l10.4,4c-0.1-2.1-0.1-4.1-0.3-6.2
			c-0.1-1.7-1.6-2.3-3.1-2.8c-2.3-0.8-4.7-1-7.1-1.3c-2.5-0.3-3-1.3-2-4c1.6,0.1,3.2,0.1,4.8,0.4c2.3,0.4,4.4,0,6.6-0.6
			c5.1-1.3,10-2.8,15-4.7c9.5-4,19.6-6.4,29.8-8.2c6.6-1.3,12.1-3.8,16.8-8.6c0.8-0.8,1.7-1.4,2.8-2.1c4.4-3.2,9.7-4.5,14.8-6.4
			c5.6-1.8,11.3-4,17.1-5.5c8-2.1,16.2-3.7,24.6-4.1c5.4-0.4,10.3,1,15.5,1.8c0.3,0,0.6,0.1,0.8,0.4c2.1,1.8,4.2,3.8,6.5,5.9
			c-4-0.7-6.8-3.8-11.1-4c2.7,5.2,4.7,10.6,9.5,14.1c2.8,2.1,6.1,3,9.3,3.2c3.8,0.3,7.3-0.7,10.9-1.8c6.1-2,12-2.4,18.3-2
			c32,1.7,64.2,3.2,96.2,4c1.3,0,2.8,0,4-1c1.4-1.3,3.7-1.3,5.2,0c4.5,3.2,9.6,5.1,14.1,8.5c1.8,1.4,3.2,3.4,3.4,5.6
			c0.6,7.3,3.7,14,5.8,20.7c2.5,8.3,5.4,16.5,8,24.8c1.3,4,1.8,8.3,1.7,12.6c-0.1,4.5-2.4,7.5-6.6,9.2c-3,1.1-5.8,2-8.6,3.5
			c-4.1,2.3-6.9,5.6-9,9.7c-1.3,2.4-0.1,4.9,2.5,6.2c2.1,1,4.2,1.7,6.6,2.5c2.5,1.1,4.4,2.5,5.1,5.6c0.6,2.8,1,5.4,0,8.2
			c-0.4,1.3-0.6,3-1.1,4.2c-2,5.5-1,10.6,1.4,15.7c0.7,1.3,0.6,3,0.4,4.4c-0.1,2.4,0.4,4.8,2.1,6.6c4.1,4.4,6.8,9.7,9.3,15.1
			c0.7,1.6,1.6,3,3,4c1,0.7,1.3,1.7,0.3,2.5c-2.3,1.6-1.7,4-1.6,6.1c0.1,1.7,1.1,3.4,1.6,5.1c1.3,4-0.3,7.6-3.7,9.9
			c-3.1,2-6.6,3.1-9.6,4.9c-2.8,1.6-5.4,3.8-7.6,6.2c-6.9,7.5-14,15-20.7,22.6c-2.3,2.4-4.1,5.1-5.6,7.9c-1.4,3.1-1.4,6.2-0.8,9.3
			c0.8,3.8,1.7,7.6,2.4,11.4c0.3,1.6,1.1,3.2,2.4,4.1c0.7,0.6,1.6,1.1,1.1,2.4c-0.7,1.3-1.6,1.4-2.8,1.1c-7.8-2.3-15.2-4.8-22.2-9.3
			c-6.4-4.1-13-7.8-19.9-10.7c-0.8-0.4-1.6-0.6-2.5-0.4c-3.7,0.4-7.1,0.7-10.7,1c-1.7,0-3.4,0.8-4.2,2.1c-2.3,3.2-5.4,3.1-8.6,2.1
			c-0.6-0.1-1-0.3-1.3-0.6c-5.2-2.8-10.4-2.3-15.7,0c-2.8,1.3-4.9,3.5-5.9,6.4c-0.3,0.6-0.6,1.1-0.8,1.6c-2.1-1-4.4-0.7-6.6-0.6
			c-1.8,0-1.8-0.7-2.4-2.4c-1-3.1-0.6-6.9-4.5-8.6c-3-1.3-4-4.4-6.2-6.6c-1.1-1.1-2.4-1.3-3.7-0.8c-1.4,0.8-3,1.7-4.1,3
			c-0.8,0.8-1.6,1.7-2.1,2.8c-1.1,1.8-2.5,2.7-4.7,2.5c-1.4-0.1-2.5-0.7-3.1-2.1c-0.6-1.6-1.3-3-3.2-3.1c-1-0.1-1.1-0.8-1.1-1.4
			c-0.1-1.7-1-3.5-2.1-4.8c-2-2.3-3.7-4.8-4.9-7.6c-1.4-3-4-5.2-7.2-6.2c-4-1.3-7.5-2.7-10.6-5.5c-1.1-1.1-2.3-1-3.5,0.1
			c-3,2.7-4,3-7.9-0.4c-2.3-2-4-4.4-5.9-6.8c1.3-0.6,2.3-0.8,3.1-1.4c1.3-0.8,1.7-2.3,1.4-3.8c-0.3-1.7-1.3-2.4-2.7-1.4
			c-3.5,2.1-6.6,0.8-9.6-0.8c-2.3-1.1-4.4-2.7-6.6-4c-2.5-1.4-5.5-2-8.3-1.7c-0.4,0-0.8,0.1-1.1,0.6c1.4,1.6,1.4,3.8,1.4,5.9
			c0,1.1,1,2-0.3,3.1c-2.3,2-4,4.8-7.2,5.5c-2,0.4-4-0.4-5.4-1.8c-3.4-3.7-6.6-7.2-9.7-10.9c-1.3-1.3-1.1-3.5,0.3-4.7l0.1-0.1
			c1-0.8,2.1-1.3,3-2.1c1.6-1.8,1.1-4,0-5.6c-0.8-1.3-2.8-1.1-4.4-1c-2.3,0.4-4.4,1-6.6,1.1c-0.8,0.1-1.6,0-2.1-0.7
			c-3.5-4-8.6-4.9-13-6.8c-1.6-0.6-3.2-1.1-4.9-1.3c-2.3-0.4-4-2.1-4.7-4.2c-0.1-0.4-0.3-0.7-0.4-1.1c-0.7-4-3.8-4.9-6.6-6.5
			c-0.7-0.3-1,0-1.3,0.4c-1,1-2.1,1.8-2.7,3.4C464.4,396.5,462.1,397.2,459.5,397.8z"/>
	</defs>
	<clipPath id="SVGID_1_">
		<use xlink:href="#SVGID_4_"  style="overflow:visible;"/>
	</clipPath>
	<clipPath id="SVGID_2_" class="st0">
		<use xlink:href="#SVGID_6_"  style="overflow:visible;"/>
	</clipPath>
	<rect x="432.1" y="198.5" class="st1" width="347.7" height="149.8"/>
	<rect x="432.1" y="343.6" class="st2" width="347.7" height="149.8"/>
</g>
<g>
	<g>
		<g>
			<g>
				<path id="SVGID_13_" class="st3" d="M459.5,397.8c0.8-2,1.6-3.7,2.4-5.2c1.8-4.1,3.7-8.2,4-12.7c0.4-5.2-1-9.5-5.5-12.3
					c-1.4-1-2.5-2.3-3.8-3.5c-0.4-0.3-0.6-0.8-0.6-1.3c0-0.4,0-0.8-0.1-1.1c-3.4-12.7-2.7-9.2,0.3-22.3c1.1-4.8,0.6-9.2-3.7-12.4
					c-1.6-1.3-1.7-3.2-1.4-5.1c0.1-0.6,0.3-1.1,0.6-1.6c2.3-5.2,0.1-8-4-11.4c-2.3-1.7-4.5-3.4-6.9-4.8c-1.3-1-2.1-2.1-3.1-3.4
					c-2-2.8-0.7-5.1,1-7.3c1.1-1.4,2.3-2.8,3.5-4c4-4,4.4-8.9,3.1-14.1c-1.3-4.7-2.5-9.3-4-14.1c-0.1-0.6-0.6-1.1-0.1-1.8l10.4,4
					c-0.1-2.1-0.1-4.1-0.3-6.2c-0.1-1.7-1.6-2.3-3.1-2.8c-2.3-0.8-4.7-1-7.1-1.3c-2.5-0.3-3-1.3-2-4c1.6,0.1,3.2,0.1,4.8,0.4
					c2.3,0.4,4.4,0,6.6-0.6c5.1-1.3,10-2.8,15-4.7c9.5-4,19.6-6.4,29.8-8.2c6.6-1.3,12.1-3.8,16.8-8.6c0.8-0.8,1.7-1.4,2.8-2.1
					c4.4-3.2,9.7-4.5,14.8-6.4c5.6-1.8,11.3-4,17.1-5.5c8-2.1,16.2-3.7,24.6-4.1c5.4-0.4,10.3,1,15.5,1.8c0.3,0,0.6,0.1,0.8,0.4
					c2.1,1.8,4.2,3.8,6.5,5.9c-4-0.7-6.8-3.8-11.1-4c2.7,5.2,4.7,10.6,9.5,14.1c2.8,2.1,6.1,3,9.3,3.2c3.8,0.3,7.3-0.7,10.9-1.8
					c6.1-2,12-2.4,18.3-2c32,1.7,64.2,3.2,96.2,4c1.3,0,2.8,0,4-1c1.4-1.3,3.7-1.3,5.2,0c4.5,3.2,9.6,5.1,14.1,8.5
					c1.8,1.4,3.2,3.4,3.4,5.6c0.6,7.3,3.7,14,5.8,20.7c2.5,8.3,5.4,16.5,8,24.8c1.3,4,1.8,8.3,1.7,12.6c-0.1,4.5-2.4,7.5-6.6,9.2
					c-3,1.1-5.8,2-8.6,3.5c-4.1,2.3-6.9,5.6-9,9.7c-1.3,2.4-0.1,4.9,2.5,6.2c2.1,1,4.2,1.7,6.6,2.5c2.5,1.1,4.4,2.5,5.1,5.6
					c0.6,2.8,1,5.4,0,8.2c-0.4,1.3-0.6,3-1.1,4.2c-2,5.5-1,10.6,1.4,15.7c0.7,1.3,0.6,3,0.4,4.4c-0.1,2.4,0.4,4.8,2.1,6.6
					c4.1,4.4,6.8,9.7,9.3,15.1c0.7,1.6,1.6,3,3,4c1,0.7,1.3,1.7,0.3,2.5c-2.3,1.6-1.7,4-1.6,6.1c0.1,1.7,1.1,3.4,1.6,5.1
					c1.3,4-0.3,7.6-3.7,9.9c-3.1,2-6.6,3.1-9.6,4.9c-2.8,1.6-5.4,3.8-7.6,6.2c-6.9,7.5-14,15-20.7,22.6c-2.3,2.4-4.1,5.1-5.6,7.9
					c-1.4,3.1-1.4,6.2-0.8,9.3c0.8,3.8,1.7,7.6,2.4,11.4c0.3,1.6,1.1,3.2,2.4,4.1c0.7,0.6,1.6,1.1,1.1,2.4c-0.7,1.3-1.6,1.4-2.8,1.1
					c-7.8-2.3-15.2-4.8-22.2-9.3c-6.4-4.1-13-7.8-19.9-10.7c-0.8-0.4-1.6-0.6-2.5-0.4c-3.7,0.4-7.1,0.7-10.7,1
					c-1.7,0-3.4,0.8-4.2,2.1c-2.3,3.2-5.4,3.1-8.6,2.1c-0.6-0.1-1-0.3-1.3-0.6c-5.2-2.8-10.4-2.3-15.7,0c-2.8,1.3-4.9,3.5-5.9,6.4
					c-0.3,0.6-0.6,1.1-0.8,1.6c-2.1-1-4.4-0.7-6.6-0.6c-1.8,0-1.8-0.7-2.4-2.4c-1-3.1-0.6-6.9-4.5-8.6c-3-1.3-4-4.4-6.2-6.6
					c-1.1-1.1-2.4-1.3-3.7-0.8c-1.4,0.8-3,1.7-4.1,3c-0.8,0.8-1.6,1.7-2.1,2.8c-1.1,1.8-2.5,2.7-4.7,2.5c-1.4-0.1-2.5-0.7-3.1-2.1
					c-0.6-1.6-1.3-3-3.2-3.1c-1-0.1-1.1-0.8-1.1-1.4c-0.1-1.7-1-3.5-2.1-4.8c-2-2.3-3.7-4.8-4.9-7.6c-1.4-3-4-5.2-7.2-6.2
					c-4-1.3-7.5-2.7-10.6-5.5c-1.1-1.1-2.3-1-3.5,0.1c-3,2.7-4,3-7.9-0.4c-2.3-2-4-4.4-5.9-6.8c1.3-0.6,2.3-0.8,3.1-1.4
					c1.3-0.8,1.7-2.3,1.4-3.8c-0.3-1.7-1.3-2.4-2.7-1.4c-3.5,2.1-6.6,0.8-9.6-0.8c-2.3-1.1-4.4-2.7-6.6-4c-2.5-1.4-5.5-2-8.3-1.7
					c-0.4,0-0.8,0.1-1.1,0.6c1.4,1.6,1.4,3.8,1.4,5.9c0,1.1,1,2-0.3,3.1c-2.3,2-4,4.8-7.2,5.5c-2,0.4-4-0.4-5.4-1.8
					c-3.4-3.7-6.6-7.2-9.7-10.9c-1.3-1.3-1.1-3.5,0.3-4.7l0.1-0.1c1-0.8,2.1-1.3,3-2.1c1.6-1.8,1.1-4,0-5.6c-0.8-1.3-2.8-1.1-4.4-1
					c-2.3,0.4-4.4,1-6.6,1.1c-0.8,0.1-1.6,0-2.1-0.7c-3.5-4-8.6-4.9-13-6.8c-1.6-0.6-3.2-1.1-4.9-1.3c-2.3-0.4-4-2.1-4.7-4.2
					c-0.1-0.4-0.3-0.7-0.4-1.1c-0.7-4-3.8-4.9-6.6-6.5c-0.7-0.3-1,0-1.3,0.4c-1,1-2.1,1.8-2.7,3.4
					C464.4,396.5,462.1,397.2,459.5,397.8z"/>
			</g>
		</g>
		<g>
			<g>
				<path id="SVGID_12_" class="st3" d="M459.5,397.8c0.8-2,1.6-3.7,2.4-5.2c1.8-4.1,3.7-8.2,4-12.7c0.4-5.2-1-9.5-5.5-12.3
					c-1.4-1-2.5-2.3-3.8-3.5c-0.4-0.3-0.6-0.8-0.6-1.3c0-0.4,0-0.8-0.1-1.1c-3.4-12.7-2.7-9.2,0.3-22.3c1.1-4.8,0.6-9.2-3.7-12.4
					c-1.6-1.3-1.7-3.2-1.4-5.1c0.1-0.6,0.3-1.1,0.6-1.6c2.3-5.2,0.1-8-4-11.4c-2.3-1.7-4.5-3.4-6.9-4.8c-1.3-1-2.1-2.1-3.1-3.4
					c-2-2.8-0.7-5.1,1-7.3c1.1-1.4,2.3-2.8,3.5-4c4-4,4.4-8.9,3.1-14.1c-1.3-4.7-2.5-9.3-4-14.1c-0.1-0.6-0.6-1.1-0.1-1.8l10.4,4
					c-0.1-2.1-0.1-4.1-0.3-6.2c-0.1-1.7-1.6-2.3-3.1-2.8c-2.3-0.8-4.7-1-7.1-1.3c-2.5-0.3-3-1.3-2-4c1.6,0.1,3.2,0.1,4.8,0.4
					c2.3,0.4,4.4,0,6.6-0.6c5.1-1.3,10-2.8,15-4.7c9.5-4,19.6-6.4,29.8-8.2c6.6-1.3,12.1-3.8,16.8-8.6c0.8-0.8,1.7-1.4,2.8-2.1
					c4.4-3.2,9.7-4.5,14.8-6.4c5.6-1.8,11.3-4,17.1-5.5c8-2.1,16.2-3.7,24.6-4.1c5.4-0.4,10.3,1,15.5,1.8c0.3,0,0.6,0.1,0.8,0.4
					c2.1,1.8,4.2,3.8,6.5,5.9c-4-0.7-6.8-3.8-11.1-4c2.7,5.2,4.7,10.6,9.5,14.1c2.8,2.1,6.1,3,9.3,3.2c3.8,0.3,7.3-0.7,10.9-1.8
					c6.1-2,12-2.4,18.3-2c32,1.7,64.2,3.2,96.2,4c1.3,0,2.8,0,4-1c1.4-1.3,3.7-1.3,5.2,0c4.5,3.2,9.6,5.1,14.1,8.5
					c1.8,1.4,3.2,3.4,3.4,5.6c0.6,7.3,3.7,14,5.8,20.7c2.5,8.3,5.4,16.5,8,24.8c1.3,4,1.8,8.3,1.7,12.6c-0.1,4.5-2.4,7.5-6.6,9.2
					c-3,1.1-5.8,2-8.6,3.5c-4.1,2.3-6.9,5.6-9,9.7c-1.3,2.4-0.1,4.9,2.5,6.2c2.1,1,4.2,1.7,6.6,2.5c2.5,1.1,4.4,2.5,5.1,5.6
					c0.6,2.8,1,5.4,0,8.2c-0.4,1.3-0.6,3-1.1,4.2c-2,5.5-1,10.6,1.4,15.7c0.7,1.3,0.6,3,0.4,4.4c-0.1,2.4,0.4,4.8,2.1,6.6
					c4.1,4.4,6.8,9.7,9.3,15.1c0.7,1.6,1.6,3,3,4c1,0.7,1.3,1.7,0.3,2.5c-2.3,1.6-1.7,4-1.6,6.1c0.1,1.7,1.1,3.4,1.6,5.1
					c1.3,4-0.3,7.6-3.7,9.9c-3.1,2-6.6,3.1-9.6,4.9c-2.8,1.6-5.4,3.8-7.6,6.2c-6.9,7.5-14,15-20.7,22.6c-2.3,2.4-4.1,5.1-5.6,7.9
					c-1.4,3.1-1.4,6.2-0.8,9.3c0.8,3.8,1.7,7.6,2.4,11.4c0.3,1.6,1.1,3.2,2.4,4.1c0.7,0.6,1.6,1.1,1.1,2.4c-0.7,1.3-1.6,1.4-2.8,1.1
					c-7.8-2.3-15.2-4.8-22.2-9.3c-6.4-4.1-13-7.8-19.9-10.7c-0.8-0.4-1.6-0.6-2.5-0.4c-3.7,0.4-7.1,0.7-10.7,1
					c-1.7,0-3.4,0.8-4.2,2.1c-2.3,3.2-5.4,3.1-8.6,2.1c-0.6-0.1-1-0.3-1.3-0.6c-5.2-2.8-10.4-2.3-15.7,0c-2.8,1.3-4.9,3.5-5.9,6.4
					c-0.3,0.6-0.6,1.1-0.8,1.6c-2.1-1-4.4-0.7-6.6-0.6c-1.8,0-1.8-0.7-2.4-2.4c-1-3.1-0.6-6.9-4.5-8.6c-3-1.3-4-4.4-6.2-6.6
					c-1.1-1.1-2.4-1.3-3.7-0.8c-1.4,0.8-3,1.7-4.1,3c-0.8,0.8-1.6,1.7-2.1,2.8c-1.1,1.8-2.5,2.7-4.7,2.5c-1.4-0.1-2.5-0.7-3.1-2.1
					c-0.6-1.6-1.3-3-3.2-3.1c-1-0.1-1.1-0.8-1.1-1.4c-0.1-1.7-1-3.5-2.1-4.8c-2-2.3-3.7-4.8-4.9-7.6c-1.4-3-4-5.2-7.2-6.2
					c-4-1.3-7.5-2.7-10.6-5.5c-1.1-1.1-2.3-1-3.5,0.1c-3,2.7-4,3-7.9-0.4c-2.3-2-4-4.4-5.9-6.8c1.3-0.6,2.3-0.8,3.1-1.4
					c1.3-0.8,1.7-2.3,1.4-3.8c-0.3-1.7-1.3-2.4-2.7-1.4c-3.5,2.1-6.6,0.8-9.6-0.8c-2.3-1.1-4.4-2.7-6.6-4c-2.5-1.4-5.5-2-8.3-1.7
					c-0.4,0-0.8,0.1-1.1,0.6c1.4,1.6,1.4,3.8,1.4,5.9c0,1.1,1,2-0.3,3.1c-2.3,2-4,4.8-7.2,5.5c-2,0.4-4-0.4-5.4-1.8
					c-3.4-3.7-6.6-7.2-9.7-10.9c-1.3-1.3-1.1-3.5,0.3-4.7l0.1-0.1c1-0.8,2.1-1.3,3-2.1c1.6-1.8,1.1-4,0-5.6c-0.8-1.3-2.8-1.1-4.4-1
					c-2.3,0.4-4.4,1-6.6,1.1c-0.8,0.1-1.6,0-2.1-0.7c-3.5-4-8.6-4.9-13-6.8c-1.6-0.6-3.2-1.1-4.9-1.3c-2.3-0.4-4-2.1-4.7-4.2
					c-0.1-0.4-0.3-0.7-0.4-1.1c-0.7-4-3.8-4.9-6.6-6.5c-0.7-0.3-1,0-1.3,0.4c-1,1-2.1,1.8-2.7,3.4
					C464.4,396.5,462.1,397.2,459.5,397.8z"/>
			</g>
		</g>
	</g>
</g>
<g>
	<defs>
		<path id="SVGID_9_" d="M50,230.1l0.4-0.4v-1c0.4-0.2,0.4-0.6,0.4-0.8c0.2-0.2,0.6-0.6,0.6-0.8c0.2-0.6,0.6-0.6,0.6-1
			c0-0.6,0.6-0.6,0.6-0.8c0-0.6,0.4-0.6,0.6-0.8v-0.4l-1.4-1.4c-0.4,0.2-0.4-0.4-0.6-0.4c-0.4,0-0.6-0.4-0.8-0.4
			c-0.4,0.2-0.4-0.4-0.6-0.4s-0.6,0.2-0.8-0.4h-1.6l-0.4-0.4h-1.2l-0.4-0.4h-0.6l-1.6-1.8c0-0.4-0.2-0.6-0.4-1.2
			c-0.2-0.4-0.6-0.6-0.4-1.2c-0.4-0.2-0.4-0.6-0.6-0.8c-0.2-0.2,0-0.8-0.4-1c0-0.4-0.6-0.6-0.4-1l-1.8-1.8h-1.8l-0.4-0.4h-2.6
			l-0.2-0.2l-0.2-0.2c-0.2,0-0.4,0-0.6,0c-0.4,0-0.4-0.4-0.8-0.4l-1.8-1.8c0.2-0.4-0.4-0.6-0.4-0.8c-0.4-0.8-0.8-1.4-1-2.2
			c0-0.2-0.2-0.2-0.2-0.2v-1.2c0.2-0.2,0.6-0.6,0.8-0.6h2.2l0.4,0.4h0.6l0.4,0.4h0.6c0.2,0.2,0.4,0.4,0.6,0.4c0.2,0,0.2-0.2,0-0.2
			c-0.4-0.2-0.2-0.6-0.6-0.8c-0.2-0.2,0-0.4,0-0.6c-0.6-0.2-0.6-0.8-0.8-1.2c-0.4-0.6-0.6-1-0.6-1.4v-1.2c0.4-0.4,1-0.4,1.4-0.8
			c0.4,0.2,0.4,0.6,0.8,0.6c0.6,0.2,0.6,0.6,0.8,0.8c0.4,0.6,0.6,1.2,1.4,1.8h0.6l0.6-0.6c0-0.2,0-0.6-0.4-0.6v0.6l-0.4-0.6
			c0-0.6,0.6-0.6,0.6-1.2c0-0.6,0.6-0.4,1-0.6h1.4l0.4,0.4c0-0.2,0.2-0.2,0.2-0.4c-0.2-0.4-0.4-0.8-0.6-1.2v-0.8
			c-0.2-0.2-0.4-0.4-0.4-0.4c0.2-0.6-0.4-0.8-0.4-1.2c-0.2-0.4-0.2-0.6-0.6-1c-0.2-0.4-0.4-0.8-0.6-1.2c-0.4-0.6-0.6-1.4-1.2-1.8
			c0.2-0.4-0.4-0.6-0.4-0.8c0-0.2-0.6-0.4-0.6-0.6c-0.2-0.4-0.4-0.6-0.6-0.8c-0.4-0.2-0.2-0.6-0.6-0.8c-0.4-0.2-0.4-0.6-0.6-0.8
			c-0.2-0.4-0.4-0.6-0.6-1c-0.2-0.4-0.4-0.6-0.6-1c-0.2-0.4-0.6-0.6-0.8-0.8c-0.2-0.6-0.6-0.8-1.2-1.4c-0.4-0.4-0.6-0.6-1-1
			c-0.4-0.4-0.6-0.6-0.8-1c-0.2-0.4-0.6-0.6-0.8-1v-1.4c0.2,0,0.2-0.2,0.2-0.2c1,0.6,1.8,1,2.8,1.6h1.8l0.4-0.4
			c0-0.8,0.6-1.2,0.8-1.8h2.8c0.2,0.2,0.4,0.2,0.6,0.4c0.2,0,0.4,0,0.6,0.2c0.2,0.2,0.4,0.4,0.6,0.2c0.4,0.4,0.6,0.6,0.8,1
			c0.4,0.4,0.6,0.6,1,1c0,0,0,0.2,0.2,0.4c0.6,0.6,0.8,1.4,1.2,1.8c0.6,1.2,1.2,2,1.8,3c0,0.2,0.2,0.2,0.2,0.2v1.2l0.4,0.4
			c0.2,0.6,0,1.2,0,1.8c0.2,0.2,0.6,0.2,0.6,0.6l0.8-0.8V189l-0.4-0.4v-4.2l0.4-0.4v-1.2c0.4-0.2,0.4-0.6,0.4-0.8
			c0.2-0.4,0.4-0.6,0.4-0.8l1.2-1.4c0.2,0,0.4,0,0.6-0.2s0.4-0.2,0.6-0.2c0.2-0.2,0.4-0.2,0.6-0.2l1.2-1.4c0-0.6,0.6-0.6,0.4-1.2
			c0.4-0.4,0.2-0.6,0.6-1v-0.6l0.6-0.6h1.6c0.4,0.2-0.2,0.6,0.6,0.6v1l0.4,0.4v1.8l1.2,1.2c0.2,0,0.4,0.2,0.6,0.4h1.2
			c0.4-0.2,0-0.6,0.6-0.6v0.4l0.2-0.6v-4.3l0.4-0.4v-1.6l0.8-0.8h0.4l1.2-1.2c0.4-0.2,0.6,0,1-0.4h2.4l0.4-0.4H68l0.2-0.2
			c0.2-0.2,0.2-0.2,0.2-0.2h2.2c0.2-0.2,0.4-0.4,0.6-0.4l1.2-1.2h0.4c0.4-0.6,0.8-0.8,1.4-1.2c0.6-0.4,0.8-1,1.4-1.2
			c0.6-0.2,0.8-0.6,1.2-1h-0.8l0.4-0.4h0.6l0.4-0.4h0.6c0.4,0.2,0.6,0.6,0.8,0.6c0.2,0.2,0,0.6,0.4,0.6c0.2,0.2,0,0.6,0.2,0.8
			c0.2,0.2,0.2,0.6,0.4,0.6c0.2,0.2,0.2,0.6,0.2,0.6l1.2,1.2h0.2c0.4,0.6,0.4,1.2,1,1.6c0.4,0.2,0.6-0.6,1-0.4c0.6-0.6,1-1,1.4-1.4
			l0.2,0.2h0.6c0.2,0,0.2,0,0.2,0.2c0.6,0.6,1.2,0.6,1.8,1.2h0.8c0.2-0.4,0.6-0.4,0.8-0.4c0.6-0.4,0.6-1,1-1.2
			c0.6-0.4,0.4-0.8,0.8-1.2c0.4-0.4,0.8-0.8,1.2-1.2h0.4l0.4-0.4c0.2,0,0.2,0,0.4,0c0.8,0.6,1.6,0.8,2.2,1.2l0.4-0.4l0,0l0.4-0.4
			h0.8l0.4-0.4h1l0.4,0.4h0.8l0.4,0.4c0.6,0.4,1.2,0.6,1.8,1c0.2,0,0.4,0.2,0.4,0.2c0.6,0.2,0.8,0.6,1.4,0.6
			c0.2,0.2,0.6,0.2,0.6,0.4c0.4,0.2,0.6,0.6,1,0.6c0.4,0.2,0.6,0.6,0.8,0.6c0.6,1,1.8,1.2,2.6,1.8c0.6,0.4,1.2,0.4,1.8,0.6
			c0.2,0.2,0.6,0.4,0.6,0.6c0.2,0.6,0.6,0.6,0.6,1c0.2,0.4,0.4,0.6,0.6,0.8c0.2,0.2,0.2,0.6,0.4,0.6c-0.2,0.6,0.4,0.6,0.4,1.2
			c-0.2,0.4,0.4,0.6,0.4,0.8l1.8,1.8c0.6,0.4,1.4,0.6,1.8,1.2h0.6l0.4,0.4h0.8l0.4,0.4h0.8c0.2,0.6,0.6,0.2,1,0.4
			c0.4,0.2,0.6,0.4,1,0.6c0.4,0.2,0.6,0.6,1,0.6h0.2l2.2,2.2c0.4,0.4,0.6,0.6,0.8,0.8c0.2,0.4,0.6,0.6,0.4,0.8l-0.8-0.2v0.8
			l-0.4,0.4v1c-0.4-0.2-0.8-0.2-1.2-0.4c-0.4-0.6-1.2-0.6-1.4-1.2c-0.2-0.2-0.4-0.2-0.6-0.4c-0.2-0.2-0.4-0.6-0.6-0.6
			c-0.4,0-0.4-0.4-0.6-0.4c-0.4,0-0.4,0.4-0.6,0.4c-0.4,0-0.4,0.2-0.6,0.4c0.4,0.2,0.8,0.4,1.2,0.6c0.4,0.4,0.6,0.6,1,1
			c0,0.4,0.2,0.6,0.4,0.6v0.6c-0.2,0.2-0.4,0.2-0.6-0.2h-1.8c-0.4-0.4-0.8-0.6-1.4-0.6l-1.8-1.8c0.2-0.4-0.4-0.6-0.4-0.8
			c0-0.4,0-0.6-0.4-0.8c0-0.4-0.2-0.6-0.6-0.6h-1.2l-0.4,0.4c0,0.2,0,0.6-0.2,0.6l-0.4,0.4c0,0.4,0,0.6,0,0.8c0.2,0.4-0.6,0.6-0.4,1
			c0.2,0.4-0.4,0.6-0.4,0.8c0,0.2-0.6,0.4-0.4,0.8l-1.2,1c-0.4-0.2-0.6,0.4-0.8,0.4c-0.4-0.2-0.6-0.4-1-0.4c-0.2,0.2,0-0.2-0.2,0
			c-0.2,0.2-0.2,0.4-0.2,0.6l-0.2,0.2v2l0.2,0.2v1.8l-0.6,0.2c-0.4,0.4-0.6,0.6-1,1c-0.4,0.4-0.8,0.6-1,1.2
			c-0.2,0.4-0.4,0.6-0.8,0.6c-0.4,0.2-0.6,0.6-0.8,0.6c-0.4,0.2-0.6-0.6-0.8-0.4c-0.4-0.4-0.6-0.6-1.2-1c-0.4-0.2-0.6-0.6-1-0.8
			h-1.6c-0.4,0.2,0,0.6-0.6,0.6c0.6,0.6,1.2,1.2,1.6,1.8l-0.8,0.8c0.2,0.6-0.6,0.6-0.6,1.2c0,0.2-0.2,0.2-0.2,0.2
			c-0.2,0.4-0.8,0.6-0.6,1l-0.8,1c0,0.6-0.6,0.6-0.6,1.2c-0.4,0.6-1,0.8-1.6,1.2c-0.4,0.2-0.6,0.4-1.2,0.4c-0.2,0.2-0.4,0.6-0.6,0.6
			c-0.6,0.2-0.8,0.6-1.2,0.8c-0.4,0.2-0.2,0.6-0.6,0.8c-0.4,0.2-0.6,0.4-0.6,0.6c0,0.4-0.4,0.6-0.6,0.6c-0.6,0-0.6,0.4-0.8,0.6h-5.3
			c-0.2,0.4-0.4,0.4-0.6,0.4c-0.2,0.6-0.6,1-0.6,1.4c0.2,0.2,0.6,0,0.6,0.4c0.2,0.4,0.4,0.6,0.6,0.6c0.2,0.4,0.6,0.2,0.8,0.6
			c0.2,0.4,0.6,0.4,0.6,0.6v0.2l-2,2h-0.2l-0.4,0.4h-1.6l-0.4,0.4h-1.6c-0.2-0.2,0-0.6-0.2-0.6l-0.4-0.4v-0.6l-0.4-0.4v-0.6v-0.2
			c0,0,0-0.2-0.2-0.2l-0.6-0.6c-0.4,0.2-0.6-0.4-0.8-0.4c-0.6,0-1.2-0.6-1.8-0.4c-0.2,0-0.4,0.4-0.6,0.4l-1.8,1.8
			c-0.6,0-0.6-0.4-0.8-0.6c-0.4-0.2-0.2-0.6-0.4-0.6c-0.4-0.2-0.6-0.6-0.8-0.8l-0.4,0.4c-0.2,0.4,0.2,0.6-0.4,1v0.8
			c-0.2,0.4-0.6,0.4-0.4,0.6l-0.8,0.6h-0.6c-0.4-0.2,0-0.6-0.6-0.6v-1.2l-0.8-0.6l-0.2,0.2h-0.6l-0.6,0.6H68l-1.2,1.2
			c0.2,0.6-0.6,0.6-0.6,1h-0.6c-0.2-0.4-0.8-0.2-0.8-0.6H64c-0.2,0-0.2,0.2-0.2,0.2c-0.2,0.2-0.4,0.4-0.6,0.6
			c-0.2,0.2-0.8,0.4-1.2,0.6c-0.2,0-0.4,0-0.6,0c-0.2,0.6-0.8,0.6-1.2,0.8c-0.4,0.4-1,0.6-1.2,1c-0.4,0.4-0.6,0.8-1,1.2
			c-0.6,0.4-0.6,1-1,1.2c-0.4,0.4-0.6,0.8-0.8,1.2v5.5l-0.4,0.4v1.6l-0.4,0.4v1.2l-0.4,0.4v0.8l-0.4,0.4c0,0.4,0,0.6-0.4,0.8
			c0.2,0.4-0.6,0.6-0.4,1c0.2,0.4-0.6,0.6-0.4,1c-0.2,0.6-0.4,1.2-0.6,1.8c-0.4,0.6-0.6,1.2-0.8,1.6s-0.6,0.6-0.8,1.2v1.2l-0.4,0.4
			l0.4,0.4v2.6c-0.2,0.2-0.4,0.4-0.4,0.6c-0.6,0.6-1.2,1.2-1.8,1.8c-0.4,0.4-0.6,0.6-0.8,0.8c-0.6,0.2-0.6,0.6-0.8,0.8
			c-0.2,0.4-0.6,0.6-1,1l-0.8,0.8c-0.4,0.4-0.6,0.6-0.8,0.8c-0.4,0.4-0.6,0.2-0.8,0.6c-0.4,0.4-0.6,0.6-0.8,0.8l-0.8,0.8l-0.8,0.8
			c-0.2,0-0.2,0-0.4,0c-0.2,0.2-0.2,0.2-0.4,0.4h-1.8l-0.6-0.6c0-0.6-0.6-0.6-0.6-1c0-0.6-0.6-0.6-0.6-0.8c-0.2-0.4-0.2-0.6,0-1
			l0.2-0.2v-0.8l-0.4-0.4c0-0.4-0.2-0.8-0.4-1.2c-0.2-0.4-0.4-0.6-0.6-0.6s-0.2-0.2-0.2-0.2l-0.6-0.6v-1.4l0.4-0.6l0.4,0.4h1.2
			l0.6-0.8c0-0.2,0.2-0.4,0.4-0.6V241l0.4-0.4v-0.8c0.2-0.2,0.2-0.2,0.4-0.4v-0.6c0.2-0.6,0.6-1,0.8-1.4c0-0.6,0.6-0.6,0.6-1.2
			c0.4-0.4,0.4-0.8,0.6-1c0.4-0.6,0.6-1.4,1.2-2c0.2-0.4,0.4-0.6,0.4-1.2c0.6-0.4,0.8-1,1-1.6c0.2-0.2,0.6,0,0.6-0.4
			c0.6,0,0.6,0.6,1.2,0.4l0.6,0.6h0.4l0.4,0.4h1c0.6-0.2,0.4-0.8,0.8-1L50,230.1z"/>
	</defs>
	<clipPath id="SVGID_3_">
		<use xlink:href="#SVGID_9_"  style="overflow:visible;"/>
	</clipPath>
	<rect x="-24.1" y="161.7" class="st4" width="220.5" height="57.8"/>
	<rect x="-24.1" y="219.5" class="st5" width="220.5" height="57.3"/>
</g>
<g>
	<defs>
		<path id="SVGID_11_" d="M81.6,110.5l0.4,0.4h0.8c0.6,0.6,1.2,0.4,1.6,0.6l1.2,1.2c0.2,0.4-0.2,0.6-0.4,0.6c0,0.4,0,0.6-0.2,0.8
			c-0.2,0.2-0.4,0.6-0.4,0.8c0,0.4-0.4,0.6-0.4,0.8c0,0.2-0.4,0.4-0.4,0.4c-0.2,0.4,0,0.6,0.2,0.8v0.6l0.4,0.4v0.6
			c0.2,0.2,0.4,0.4,0.6,0.6v0.2l1.8,1.8h0.6l0.4-0.4h3.8l0.2-0.2c0.2,0,0.2-0.2,0.4-0.2c0.6,0,0.8,0,1.2,0c1.8,1,3.6,1.8,5.3,2.6
			c0.2,0,0.4,0,0.6,0c0.6,0.4,0.8,0.8,1.2,1.2c0.4,0.6,0.6,1,0.6,1.4v1.8l-0.4,0.4v1.6l0.6,1.2l-0.2,0.2c0.4,0.4,0.8,0.6,1.2,1.2
			c0.4,0.4,1,0.6,1,1.2c0.4,0.4,0.6,0.8,0.8,1.2c0.4,0.4,0.6,0.8,1,1.4v0.6l0.4,0.4v2.2c0.2,0.4,0.6,0.2,0.6,0.2l0.6,0.4v2.8
			c-0.4,0.4-0.4,0.8-0.6,1.2h-1c-0.4,0-0.4-0.6-0.8-0.6c-0.4-0.4-0.6-0.6-0.8-0.8c-0.4-0.2-0.6-0.4-1-0.6h-1.2l-0.4,0.4l-0.2,0.6
			l-0.4,0.6l-0.6-0.6c-0.4-0.2-0.6-0.2-1,0.2h-1.6l-0.4,0.4h-0.2l-0.2,0.2c0,0.6-0.6,0.6-0.6,1.2c0.2,0.4,0.6,0.2,0.8,0.6
			c0,0.4,0.2,0.6,0.4,0.6v2.6c-0.4,0.6-1,0.6-1.2,1c-0.4,0.6-1,0.6-1.2,1h-2.8l-0.4-0.4h-0.6c-0.6-0.6-0.6-1.2-1.2-1.8
			c0.2-0.6,0.6-1,0.8-1.4c0.6-0.8,1.8-1.2,2-1.8v-0.8l-0.4-0.4h-1.2c-0.6,0.2-1,0.6-1.4,0.8c-0.6,0.4-1,0.6-1.4,1
			c-0.4,0.4-0.8,0.8-1.2,1.4c0.2,0.4-0.4,0.6-0.4,0.8c0,0.4,0,0.6-0.4,0.8c0.2,0.4-0.4,0.6-0.4,0.8c0,0.2-0.4,0.4-0.4,0.6
			s-0.2,0.6-0.4,0.8c-0.2,0.4,0,0.6-0.4,0.8v0.8l-0.4,0.4v0.6l-0.4,0.4v0.6l-0.4,0.4v0.6l-0.4,0.4v0.8c-0.6,0.8-0.8,1.8-1.6,2.4
			c0,0.2,0,0.2,0,0.4c-0.2,0.2-0.6,0.4-0.6,0.6c-0.2,0.4-0.6,0.4-0.8,0.6c-0.4,0.2-0.4,0.6-0.6,0.6c-0.2,0.4-0.6,0.4-0.8,0.6
			c-0.4,0.2-0.6,0.2-0.6,0.6h-2.2l-0.4,0.4h-1.2l-0.4-0.4c-0.2-0.2-0.6,0.2-0.8-0.4h-1l-0.4-0.4H71c-0.8-0.8-1.8-1.8-2.4-2.6v-0.6
			l1.2-1.2c0-0.6,0.4-0.6,0.6-1c0-0.2,0-0.4,0-0.6c-0.4-0.8-0.8-1.8-1.2-2.4c-0.2-0.4-0.4-0.6-0.6-0.6c0.2-0.6-0.4-0.8-0.6-1.4
			c-0.2-0.4-0.6-0.6-0.6-0.8c0-0.4-0.2-0.6-0.4-1c0-0.4,0-0.6,0-0.8l-0.4-0.4v-5.5l-0.4-0.4V141c-0.2,0-0.2-0.2-0.2-0.2
			c-0.2-0.4-0.4-0.6-0.6-1.2l-1.2-1.2v-0.2l-1.6-1.6c0-0.4-0.2-0.6-0.4-0.6c-0.2,0-0.4-0.2-0.6-0.4c-0.4-0.2-0.4-0.4-0.6-0.4
			c-0.6,0-0.6-0.6-1-0.6c-0.4,0-0.6,0.2-0.8-0.4h-3.2l-0.4,0.4h0.4l-0.4,0.4h-0.8l-0.4,0.4h-0.4l-0.4,0.4h-1.2l-0.2-0.2
			c-0.4-0.2-0.6,0-0.8-0.2l-0.2-0.2c-0.8-0.6-1.8-0.6-2.2-1.4c-0.4,0.2-0.6-0.6-0.8-0.4c-0.2-0.4-0.6-0.2-0.6-0.4
			c-0.2-0.2-0.6-0.2-0.6-0.6c-0.2-0.4-0.6-0.2-0.6-0.6c-0.2-0.2-0.6-0.2-0.6-0.4c-0.4-0.2-0.8-0.4-1.2-0.6c-0.4-0.2-0.6-0.6-1-0.6
			c-0.2-0.2-0.4-0.2-0.6-0.2s-0.2-0.4-0.2-0.6c-0.4-0.4-0.6-0.6-0.8-0.8v-0.6c0.4-0.2,0.2-0.6,0.4-0.8c0.2-0.2,0.2-0.6,0.4-0.6h0.6
			l0.2-0.2c0.2,0,0.2,0,0.4-0.2h3.2l0.4,0.4h1.8l0.4,0.4h1.2l0.4-0.4h1.8l0.4-0.4h1.8l0.4-0.4h2l0.2,0.4l0.2-0.2h1.8l0.4-0.2h1.8
			l0.6-0.4h1.6l0.4-0.4h1.8l0.4-0.4h1.8c0,0,0.2,0,0.2-0.2l0.2-0.4l-0.6-0.4v-1c0.2-0.2,0.2-0.2,0.4-0.2c0.2,0,0.4-0.2,0.4-0.2
			l1.2,0.6c0.4,0.2,0.6,0.4,1.2,0.4c0-0.2,0.2-0.2,0.2-0.2c0-1.4,0-2.8,0-4.2l1.2-1h1.4c0.4-0.2,0.6-0.4,0.8-0.6
			c0.6-0.2,1.2-0.6,1.2-1.2c0.4-0.6,0.8-1.2,0.8-1.8c0-0.2,0.2-0.2,0.2-0.2v-2.2c0.2-0.2,0.4-0.2,0.4-0.4c0-0.2,0.2-0.4,0.2-0.6
			c0.2-0.2,0.2-0.4,0.2-0.6c0.2-0.2,0.6,0,0.6-0.4h1.8l0.4,0.4L81.6,110.5z"/>
	</defs>
	<clipPath id="SVGID_14_">
		<use xlink:href="#SVGID_11_"  style="overflow:visible;"/>
	</clipPath>
	<rect x="12" y="67.6" class="st6" width="114.2" height="60.4"/>
	<rect x="12" y="127.6" class="st7" width="114.2" height="60.4"/>
</g>
<path class="st8" d="M115.2,125.4h-1.6c-0.2-0.2-0.2-0.4-0.4-0.4c-0.4,0-0.6-0.2-0.6-0.6c-0.2-0.2-0.4-0.4-0.4-0.6
	c0-0.4-0.4-0.6-0.4-0.6c0.2-0.6-0.4-0.6-0.4-1.2c0.2-0.6-0.4-0.6-0.4-1.2c0-0.6-0.4-0.8-0.4-1.2c-0.4-0.2-0.2-0.6-0.6-0.8v-1.8
	l1.4-1.4c0.2,0,0.4-0.2,0.6-0.4h1.4l0.4-0.4c0.4,0,0.6-0.2,0.8,0.2h2l0.4,0.4h0.6l0.4,0.4h0.6l0.4,0.4c0.4,0,0.6-0.2,0.8,0.2
	c0.2,0.4,0.6,0,0.8,0.2c0.4,0.2,0.6,0.2,1.2,0.2c0.2-0.6,0.8,0,1.2-0.6c0-0.2,0.4,0,0.6,0l0.4-0.4h1.4c0.4,0.4,0.6,0.6,1,1
	c0.4,0.2,0.4,0.6,0.6,0.8c0.2,0.2,0.4,0.6,0.6,0.8c0.2,0.2,0.4,0.6,0.6,1c0.2,0.4,0.4,0.6,0.6,0.8v1.8c-0.6,0.2-0.2,0.6-0.4,1
	s-0.4,0.6-0.6,0.8c-0.8,0-1.4-0.6-2.2-0.8h-0.8c-0.2,0.2-0.4,0.4-0.4,0.6c-0.2,0.2-0.4,0.2-0.6,0.2s-0.4,0.4-0.6,0.6
	c-0.2,0.2-0.4,0.2-0.6,0.4h-1.8c-0.4-0.2-0.6-0.6-1-0.6c-0.6,0-0.6-0.6-1-0.6h-0.6l-0.2-0.2c-0.4-0.2-0.6-0.2-1,0
	c-0.2,0.4-0.6,0.6-0.4,1c-0.2,0.4-0.6-0.2-0.6,0.6h-1L115.2,125.4z"/>
<g>
	<path class="st9" d="M529.1,467.1c0-7.6,5.7-13.9,11.6-17.4c1.6-1,0-3.8,0-5.6c-0.6-0.2-1.4-0.3-2-0.3H308.3
		c-6.8,0-12.2,6.7-12.2,14.7v17.2c0,8.2,5.5,14.7,12.2,14.7h230.2c0.6,0,1.4-0.2,2-0.3c0-1.7,1.4-4,0-4.7
		C533.8,481.9,529.3,474.9,529.1,467.1z"/>
	<path class="st10" d="M532.4,467.8c0-7.8,3.3-14.5,8.3-17.9c-0.6-0.2-1.2-0.2-2-0.2H315.3c-6.6,0-12,5.2-12,11.4v13.4
		c0,6.4,5.4,11.4,12,11.4h223.4c0.6,0,1.2-0.2,2-0.2C535.8,482.2,532.4,475.5,532.4,467.8z"/>
	<path class="st11" d="M315.3,455.9h220.1c1.2-2.4,3.2-4.5,5.4-6.2c-0.6-0.2-1.2-0.2-2-0.2H315.3c-6.6,0-12,5.2-12,11.4v6.4
		C303.5,461.1,308.7,455.9,315.3,455.9z"/>
	<path class="st12" d="M511.9,415.9c0-8.2,5.2-15.2,10.9-19.1c1.6-1,0-4.2,0-6.2c-0.6-0.2-1.2-0.3-1.9-0.3H307.6
		c-6.3,0-11.3,7.3-11.3,16.2v19c0,9,5,16.2,11.3,16.2h213.2c0.6,0,1.2-0.2,1.9-0.3c0-1.8,1.4-4.4,0-5.2
		C517.2,433.1,511.9,424.7,511.9,415.9z"/>
	<path class="st10" d="M515.1,416.5c0-8.5,3.2-16,7.7-19.8c-0.6-0.2-1.2-0.2-1.9-0.2h-207c-6.1,0-11,5.6-11,12.6v14.7
		c0,7,4.8,12.6,11,12.6h207c0.6,0,1.2-0.2,1.9-0.2C518.3,432.5,515.1,425,515.1,416.5z"/>
	<path class="st11" d="M313.9,403.6h203.9c1.1-2.6,2.9-4.8,5-6.8c-0.6-0.2-1.2-0.2-1.9-0.2h-207c-6.1,0-11,5.6-11,12.6v7
		C302.9,409.2,307.9,403.6,313.9,403.6z"/>
</g>
<g>
	
		<ellipse transform="matrix(0.6003 -0.7998 0.7998 0.6003 165.7273 569.4462)" class="st13" cx="652.6" cy="118.9" rx="20.1" ry="36.6"/>
	
		<ellipse transform="matrix(0.6165 -0.7874 0.7874 0.6165 159.7715 560.3452)" class="st14" cx="655.1" cy="116.2" rx="17.7" ry="36.4"/>
	
		<ellipse transform="matrix(0.6165 -0.7874 0.7874 0.6165 159.7715 560.3452)" class="st15" cx="655.1" cy="116.2" rx="14.2" ry="29.2"/>
	<path class="st13" d="M645,114.1c-0.4,1.8,1.8,4.8,4.8,6.7c1.8,1.1,3.8,1.6,4.9,1.1l0.6-0.2l0.8,0.8c0.8,0.8,1.7,1.4,2.6,2
		c3,1.8,5.7,1.8,6.1-0.1l0.1-0.6l3.1,1.9c0.7,0.4,1.2,0.4,1.3,0c0.1-0.4-0.4-1.1-1.1-1.4l-3.1-1.9l0.4-2.6l3.1,1.9
		c0.7,0.4,1.2,0.4,1.2,0c0-0.4-0.4-1.1-1.1-1.4l-3.1-1.9l0.4-1.9c0.1-0.4-0.4-1.1-1.1-1.4c-0.7-0.4-1.2-0.4-1.2,0l-0.4,1.9
		l-14.8-8.9l0.4-1.9c0.1-0.4-0.4-1.1-1.1-1.4s-1.2-0.4-1.2,0l-0.4,1.9l-3.1-1.9c-0.7-0.4-1.2-0.4-1.3,0s0.4,1.1,1.1,1.4l3.1,1.9
		l-0.4,2.6l-3.1-1.9c-0.7-0.4-1.2-0.4-1.2,0s0.4,1.1,1.1,1.4l3.1,1.9L645,114.1L645,114.1z M663.2,118.5l-0.9,4.7
		c-0.2,1.1-1.8,1.1-3.5,0.1c-1.8-1-3-2.8-2.8-3.9l0.9-4.7L663.2,118.5z M648.4,109.6l6.2,3.8l-1.1,6c-0.2,1.1-1.8,1.1-3.5,0.1
		s-3-2.7-2.8-3.9L648.4,109.6z"/>
	
		<ellipse transform="matrix(0.5509 -0.8346 0.8346 0.5509 185.0084 671.8569)" class="st16" cx="716.8" cy="164" rx="43.4" ry="21"/>
	
		<ellipse transform="matrix(0.5509 -0.8346 0.8346 0.5509 186.1677 668.8591)" class="st17" cx="714.5" cy="161.5" rx="42.5" ry="19.4"/>
	
		<ellipse transform="matrix(0.5509 -0.8346 0.8346 0.5509 186.1677 668.8591)" class="st18" cx="714.5" cy="161.5" rx="34" ry="15.6"/>
	<path class="st19" d="M719.1,155l6-7.4c-0.9-0.6-1.6-1-2.3-1.6c-0.4-0.3-0.8,0-1.2,0.7c-2,2.3-4,4.7-5.9,7
		c-1.2,1.6-2.1,2.1-3.2,2.2c-1.3,0.1-1.6,0.2-2.7,2.6l1.9-0.2c-2,2.6-4,4.7-6,7.2l8.1,5.3c0.2,0.1,0.4,0.1,0.7-0.3
		c1-1.1,1.9-2.2,3.1-3.3l-5.6-3.7c1.1-1.3,2.2-2.6,3.2-3.9c1.2-1.7,2.2-2.3,3.3-2.3c1.3,0,1.4-0.2,2.7-2.6L719.1,155z"/>
	<ellipse class="st20" cx="649.2" cy="262.4" rx="45.9" ry="52.8"/>
	<ellipse class="st21" cx="643.6" cy="260.7" rx="44.3" ry="51.2"/>
	<ellipse class="st20" cx="643.6" cy="260.7" rx="35.4" ry="41"/>
	<path class="st21" d="M651.3,237c4.7,0,8.4,4,8.6,9.7c0.2,5.2-3.3,9.6-7.5,10.1c-0.6,0.1-1.2,0.2-1.8,0.1c-1.8-0.2-3.6,1.1-3.8,3.1
		c0,0.2,0,0.4,0,0.6c0,2.3,1.4,4,3.5,3.9c4.2-0.2,7.9,2.9,8.9,7.7c1,3.7-0.2,7.5-2.9,10c-2.3,2.6-6,3.1-8.9,1.4
		c-3.3-1.6-4.9-4.6-5.2-8.6c-0.1-1.9,0.3-3.9,1.1-5.6c0.7-1.4,0.4-3.2-0.8-4.3c-1-1.1-2.6-1.2-3.7-0.6c-0.6,0.4-1,0.9-1.2,1.3
		c-2.2,3.6-5.2,5-8.9,4.1s-6-3.7-6.8-8c-1.1-6.1,3.6-12.2,9-11.7c3.5,0.3,6,2.3,7.6,6c0.4,1.7,2.2,2.6,3.9,1.9
		c0.2-0.1,0.3-0.1,0.4-0.2c1.8-1.1,2.4-3.3,1.4-5.2c-0.9-1.7-1.4-3.5-1.6-5.3C642.5,241.5,646.3,237.1,651.3,237z"/>
	<path class="st22" d="M730,49.8c1.8,0.4,3.8,1.1,5.5,1.8l0.4,0.1c0.2,0.2,0.4,0.4,0.8,0.4l0.2,0.1c0.4,0.8,1.6,1.1,2.3,1.8
		c0.4,0.4,0.4,0.9,1.1,1c0.4,1.1,1.4,2.2,1.9,3.5c-0.1,0.1,0,0.2,0.1,0.3c0,0,0,0,0.1,0c0.1,0.8,0.2,1.6,0.4,2.3
		c0,0-0.4,0.1-0.1,0.2c-0.1,1.9-0.6,3.9-1.3,5.7c-1,1.1-1.7,3-2.9,4.1c-9.5,12.3-41.9,18.6-50,4.1c0.1-0.2-0.3-0.2-0.3-0.4
		c0-0.2,0.2-0.4-0.1-0.4c-0.9-0.9-0.4-3.3-0.8-4.2c0.1-0.3,0.1-0.6,0-0.9c0.2-0.4,0.2-1.1,0.6-1.4c0.3-1.1,0.7-2.2,1.1-3.3
		c0.3-0.3,0.4-0.6,0.7-1c1.3-1.9,2.9-3.6,4.7-5c0.1-0.4,0.8-0.4,0.7-0.9c0.1,0.1,0.2,0,0.3-0.1c0,0,0,0,0-0.1c2-1.3,4.6-2.8,6.8-4.1
		c0.2,0,0.4-0.1,0.6-0.3c3.9-1.4,7.7-2.7,11.7-3.6c0.4,0.1,1,0,1.4-0.3c1.1,0,2.3-0.1,3.5-0.4c0.2,0,0.4,0.2,0.4-0.1
		c1.1,0.3,2.4-0.1,3.6,0.1c0.3-0.3,0.7,0.2,1-0.2c0.2,0.1,0.2-0.1,0.4-0.1c0.1,0.4,0.4,0.2,0.8,0.2C726.9,49.6,728.3,49.1,730,49.8z
		 M736.8,67.3c5.5-9-3.8-14.7-11.4-15.6c-19.3-2-38.6,11.9-32.5,22.2c2.9,5.7,10.6,6.6,16.5,6.9c10.3-0.7,21.4-4.1,27.3-13
		L736.8,67.3z"/>
	<path class="st23" d="M736.7,67.8c-5.9,9-17.2,12.4-27.3,13c-5.8-0.3-13.6-1.1-16.5-6.9c-0.4-2.9,0.1-5.8,1.7-8.4
		c4.9-6.6,11.6-9,18.5-11.1c3.3-0.2,7.1-1.2,10.6-0.6c7.2,0.1,16.4,5,13.2,13.4C736.6,67.3,736.4,67.6,736.7,67.8z M715.5,60.9
		C715.8,61,715.7,60.5,715.5,60.9c-4.1,0.2-8.2,0.7-12.5,1.1l5.2,6.5c0.4-1.6,0.6-3.3,0.9-4.7C711.4,62.9,713.4,62,715.5,60.9z
		 M719.7,60.3c-3,0.9-6.1,2.6-9.1,3.8c-0.2,1-0.7,1.8-0.6,2.8c-0.3,1.1-0.4,2.3-0.7,3.5c0.2,0.2,0.4-0.1,0.6,0
		c6.1-0.3,12.5-0.4,18.6-1.1C725.7,66.4,722.9,62.9,719.7,60.3L719.7,60.3z"/>
	<path class="st23" d="M743.5,62.5l-0.1,0.2c0,1.1,0.2,2.4,0.6,3.5c-0.2,0.4,0.1,1.1-0.2,1.6c0.1,1.8-1,3.6-1.6,5.5
		c-1.4,1.9-3,3.9-4.7,5.6c-0.1,0-0.2,0-0.2,0.1V79c-1.1,0.6-2.3,2-3.7,2.6c-1.1,0.9-2.7,1.1-3.5,2.2c-0.1-0.1-0.2,0-0.3,0.1
		c0,0,0,0,0,0.1c-0.4-0.2-0.8,0.1-1,0.4c-0.1,0-0.2,0-0.3,0.2c-0.4-0.2-0.8,0.1-1,0.4c-0.1-0.1-0.2,0-0.3,0.2
		c-0.1-0.1-0.2,0-0.3,0.1c0,0,0,0,0,0.1c-0.3-0.1-0.6,0-0.7,0.2l0,0c-0.4-0.1-0.6,0-0.8,0.4c-3.1,0.7-6.4,1.8-9.7,2.4
		c-0.8,0.1-2.4-0.1-3,0.4c-1.4-0.3-3.3,0.3-4.9-0.1c-0.4,0.3-0.8-0.2-1.1,0.1c-3.9-0.4-7.8-1.1-11.3-2.9c-1.1-0.6-2.3-1.8-3.6-2.3
		c0-0.4-0.4-0.7-1-1.1c-1.2-1.9-2.6-4.5-2.6-6.9c9.1,15.1,41.7,7.1,50-4.3c1.2-1.1,2-2.8,2.9-4.1c0.8-1.8,1.2-3.8,1.3-5.7
		c0.4,0.3,0.3,0.9,0.4,1.2L743.5,62.5z"/>
	<path class="st24" d="M736.8,67.3c3.3-8.7-6.4-13.2-13.2-13.4c-3.5-0.7-7.1,0.4-10.6,0.6c-7.4,2.1-13.9,5-18.5,11.1
		c-1,1.8-1.7,3.6-1.9,5.6c-0.1,1,0.4,1.7,0.2,2.7c-2.4-3.8-0.6-8.2,2-11.5c7.7-8.8,21-11.6,30.4-10.6
		C735.8,53.2,741.4,60.1,736.8,67.3z"/>
	<path class="st22" d="M719.8,60.3c3.1,2.6,5.8,6,8.9,8.9c-6,0.6-12.5,0.8-18.6,1.1c1.9-1.7,5.2-2.9,7.7-4.1
		C718.3,64.3,719.1,62.3,719.8,60.3z"/>
	<path class="st25" d="M719.8,60.3c-0.7,1.9-1.4,3.8-2.1,5.9c-2.4,1.2-5.5,2.4-7.7,4.1c-0.2-0.1-0.4,0.3-0.6,0
		c0.2-1.1,0.4-2.3,0.7-3.5c-0.1-1,0.4-1.8,0.6-2.8C713.6,63,716.8,61.2,719.8,60.3z"/>
	<path class="st22" d="M715.5,61l-6.4,2.7c-0.3,1.3-0.4,3.1-0.9,4.7L703,62C707.4,61.6,711.4,61.1,715.5,61z"/>
</g>
<g>
	<defs>
		<path id="SVGID_7_" d="M234.8,59.1h0.6l0.4,0.4c0.6,0.2,0.8-0.4,1.4-0.6v-1.8L237,57c0-0.2-0.2-0.2-0.2-0.4c0-0.6,0-0.8,0-1.4
			c0.6-0.2,0.6-0.8,1-1.2c0.4,0,0.6,0,1.2,0c0.4,0.2,0.6,0.4,1,0.6c0.4,0.2,0.6,0.6,1,0.6c0.4,0,0.6,0.6,0.8,0.6
			c0.4,0.2,0.6,0.4,1,0.6h0.8l0.4,0.4h0.6l0.4,0.4h0.6l0.4,0.4h0.8l0.2,0.2c0.2,0.2,0.6-0.2,0.8,0.2c0.2,0.4,0.6,0.2,0.6,0.2
			c0.2,0,0.4,0,0.4,0c0.2,0.6,0.8,0,1,0.4s0.6,0,0.8,0.2l0.2,0.2h0.8l0.4,0.4h0.6l0.4,0.4c0.6-0.4,1.2,0.4,1.8,0.4
			c0.4,0.4,0.6,0.2,1.2,0.4l0.4,0.4l0.2-0.2c0-0.6,0-1.2,0-1.8l-0.4-0.4c0-0.6,0-0.6,0.6-1.8c0.4-0.6,0.8-0.8,1.4-1.2h0.6l0.4-0.4
			h5.9c0.4-0.4,0.2-0.6,0.2-1c-0.2-0.2-0.4-0.2-0.4-0.4c0-0.4-0.2-0.6-0.6-0.6c-0.4-0.2-0.6-0.4-0.6-0.8l-1-1
			c-0.2-0.6-0.4-0.8-0.6-1.6v-1.4l-0.4-0.4v-1.2l-0.4-0.4v-1.6l-0.4-0.4v-5.9l0.2-0.2c0.2-0.4,0-0.8,0.2-1.2c0.4,0.2,0.6,0.6,1,0.6
			c0.2,0.2,0.4,0.4,0.6,0.6c0.6,1.2,1.2,2.2,1.8,3.6v0.2c0.4,0.4,0.8,0.8,1.4,1.4c0.6,0.2,1,0.6,1.6,0.6c0.4,0.2,0.6,0.6,0.6,0.8
			c0.2,0.4,0.6,0.6,0.6,0.8c0.2,0.4,0.2,0.6,0.6,0.6c0.2,0.2,0.2,0.2,0.2,0.4c0.8,1.6,1.2,1.8,1.8,2.6h0.4l0.6,0.6h0.6l0.4,0.4h0.6
			l0.4,0.4c0.4,0,0.4-0.2,0.6-0.4h0.8c0.2-0.2,0.2-0.2,0.4-0.4c0.2-0.2,0.2-0.4,0.4-0.6c0.2-0.2,0.2-0.6,0.2-0.6
			c0.2-0.2,0.2-0.4,0.4-0.4c0-0.4,0-0.6,0-1c0-0.2,0-0.2-0.2-0.4c-0.2-0.2-0.2-0.2-0.2-0.2v-0.8c-0.6-0.4-0.6-1-1.2-1.6
			c-0.4-0.4-0.4-1-0.6-1.6v-1.8l0.4-0.4V40l-1.2-1.2c0-0.2,0-0.4,0.2-0.4c0.4-0.4,0.6-0.6,1.2-1.2c0.2-0.2,0-0.4,0.2-0.6h0.8
			c0.2,0.2,0.2,0.2,0.4,0.4h0.6c0.2,0.2,0.4,0.4,0.6,0.4c0.6,0.6,1.4,1.4,1.8,1.8v0.4l1.6,1.6v1l-0.4,0.4c0.4,0.2,0.4,0.6,0.6,1
			c-0.2,0.4,0.2,0.6,0.4,1c0,0.4,0.2,0.8,0,1.2l0.4,0.4v1.2c0.4,0.4,0.2,0.8,0.6,1c0.6,0.2,0.2,0.6,0.6,0.8c0.4,0,0.4,0.4,0.8,0.4
			c0.2,0,0.2,0.4,0.6,0.4s0.4-0.4,0.6-0.4h0.2l1.2-1.2c0-0.2,0-0.4,0.2-0.4c0.4-0.2,0.2-0.6,0.6-0.8v-0.6l-0.4-0.4v-0.6l0.4-0.4
			c0-0.2,0-0.4,0-0.6c0.4-0.6,0.4-1.2,0.6-1.8c0.2,0,0.4,0,0.4,0c0.4,0.4,0.6,0.6,1,0.6c0.2,0,0.4,0.2,0.4,0.4
			c0,0.6,0.6,0.6,0.6,0.8c0.2,0.4,0.2,0.6,0.6,0.6c0.4,0.2,0.2,0.6,0.6,0.8s0.4,0.8,0.8,1h1.2c0-0.2,0.2-0.2,0.2-0.2c0-1,0-2,0-3
			l0.6-0.6v0.2c0.2-0.6,0.8-0.4,1-0.8l0.4,0.4h0.6l2.4,1.4c0.8,0.8,1.8,1.8,2.4,2.4c0,0.2,0,0.2,0,0.2c0.2,0.2,0.2,0.4,0.4,0.4
			c0,0.6,0,1,0,1.8h13c0.2,0.2,0.2,0.2,0.4,0.2c0.6,0.2,0.8,0.4,1.2,0.6c0.4,0.4,0.8,0.4,1.2,0.6c0.2,0.4,0.6,0.2,0.6,0.4
			c0.2,0.2,0.6,0.2,0.6,0.2c0.2,0,0.2,0.2,0.4,0.4h0.8l0.4,0.4h0.8l0.4,0.4h0.8c0.4,0.2,0.6,0.6,0.8,0.6c0.6,0,0.6,0.6,1,0.6
			c0.2,0.4,0.6,0.2,0.8,0.6c0.2,0.4,0.6,0.4,1,0.6c0.4,0.4,0.6-0.2,0.8,0.4h0.8l0.4,0.4h2.2l0.4-0.4h0.4c0.6-0.6,1-1,1.6-1.6h0.4
			l0.6-0.6c0.2-0.2,0.2-0.2,0.2-0.2h3.4c0.2,0.2,0.4,0.4,0.4,0.4h0.6c0.2,0.4,0.6,0.2,1,0.4c0.4,0.4,0.8,0.6,1.2,0.6
			c0.6,0.4,1.2,0.6,1.8,0.8c0.4,0.6,0.8,0.8,1.4,1.2c1,0.6,1.6,1.4,2.2,2v0.4l3.6,3.6v0.4l0.8,0.6c0.4-0.2,0.6,0.4,0.8,0.4
			s0.6,0.4,1,0.4c0.4,0.4,1,0.4,1.4,0.6c0.6,0.4,1,0.4,1.4,0.8c0.2,0.2,0.6,0.2,0.6,0.6c0.2,0.4,0.6,0.2,0.8,0.6
			c0.4,0,0.6,0.4,0.8,0.4c0.4,0,0.4,0.2,0.6,0.4h2.2l0.4,0.4c1.2,0,2,0,3.2,0l0.4,0.4h2.8l0.4,0.4h5.3l0.4-0.4h4.3l0.4-0.4h4.2
			l0.4-0.4h3.8l0.2-0.2c0.2,0,0.2-0.2,0.4-0.2c0.8,0,1.8,0,2.4,0l0.4,0.4h0.8l0.6,0.4h0.8l0.4,0.4h0.8l0.4,0.4h0.8l0.4,0.4h0.8
			l0.4,0.4h0.8l0.4,0.4h0.8l0.4,0.4h0.8l0.4,0.4h4.2l0.4,0.4h4.3l0.4,0.4c0.4,0.2,0.8,0,1.2,0.2l0.2,0.2h1l0.4,0.4
			c0.2,0,0.6,0,0.6,0c0.4,0,0.4,0.4,0.6,0.4c0.4,0,0.6,0,0.8,0l0.4,0.4h0.8l0.4,0.4h0.8l0.4,0.4h0.8l0.4,0.4h0.8l0.4,0.2
			c0.8,0.4,1.2-0.4,1.8-0.4c0.2-0.2,0.4-0.4,0.6-0.2c0.4,0,0.4-0.4,0.6-0.4c0.6,0,0.6-0.6,1-0.6c0.6,0,0.6-0.6,1-0.6
			c0.4-0.2,0.6-0.6,0.8-0.6c0.4-0.2,0.6-0.4,0.6-1l1-1c0.8-1.8,1.6-2.8,2-4.2c0-0.2,0.2-0.2,0.4-0.4c0.2,0,0.4,0,0.4,0.2
			c0,0.6,0.6,0.6,0.6,1c0,0.4,0.4,0.6,0.6,1c0.2,0.2,0.4,0.4,0.6,0.4c0.6,0.2,1,0.4,1.4,0.6c0.4,0.2,0.6,0.6,1,0.6
			c0.4,0.4,0.8,0.6,1.2,1c0.6,0.6,0.6,1.2,1.2,1.8c0.2,0.2,0,0.6,0.2,0.6c0.2,0.2,0.2,0.6,0.4,0.6c0.2,0.2,0,0.6,0.4,1
			c0.2,0.2,0.2,0.6,0.4,0.6c-0.2,0.4,0.6,0.6,0.4,0.8l1,1c0.4,0.4,0.6,0.6,1,1c0.6,0,0.6,0.6,1,0.6c-0.2,0.4,0.2,0.6,0.4,0.6v0.8
			l-0.4,0.4v1.2c-0.4,0.2-0.4-0.4-0.6-0.2c-0.4,0.2-0.4-0.4-0.6-0.4c-0.4,0-0.4-0.4-0.8-0.2l-1,1.2h-0.6l-1.2,1.2h-2.8l-0.4,0.4
			h-2.2c-0.4,0.4-1,0.6-1.4,0.8v-0.6c0.2,0.4,0.6,0,0.8,0.4c0.2,0.2,0.6,0.2,0.8,0.4c0.4,0.2,0.6,0,0.8,0.2c0.2,0.2,0.6,0.2,0.6,0.4
			c0.2,0.2,0.4,0,0.6,0c0.2,0.2,0.2,0.2,0.4,0.4h1.6c0.2,0.2,0.2,0.4,0,0.6c-0.2,0.2-0.6,0.6-0.6,0.8c-0.2,0.4-0.4,0.6-0.6,0.6
			c0,0-0.2,0-0.2,0.2h-0.2h-3.8L427,86h-2.6c-0.4,0.2-0.6,0.4-1.2,0.6c-0.4,0-0.4,0.4-0.6,0.4c-0.4,0-0.4,0.4-0.6,0.4
			c-0.4,0.2-0.8,0.4-1.2,0.6c-0.2,0.2-0.6,0.6-0.8,0.8s-0.4,0.6-0.6,1V91l0.4,0.4v1.6c-0.4,0.2-0.2,0.6-0.6,0.6
			c-0.4,0.2,0,0.6-0.4,1c-0.4,0.2-0.2,0.6-0.6,0.6v1.2l-0.4,0.4v1.2l-0.4,0.4c0,0.4,0,0.8,0,1.2l-0.2,0.2c-0.2,0.4,0,0.6-0.2,1
			l-0.4,0.4v1.2l-0.4,0.4v1.2l-0.4,0.4v0.8c-0.2,0.2-0.2,0.2-0.4,0.4v0.6l-0.4,0.4v0.6c-0.2,0.4-0.4,0.6-0.6,0.8
			c-0.4,0.4,0,0.6-0.2,0.8c-0.4,0.4-0.2,0.6-0.4,1c-0.2,0.2-0.2,0.6-0.2,0.8l-0.4,0.4c0,0.4,0,0.6-0.2,0.8c-0.2,0.2-0.4,0.6-0.4,0.8
			c0,0.4-0.4,0.6-0.4,1c0.2,0.4-0.4,0.6-0.4,0.8c0,0.4-0.2,0.6-0.4,0.8s0.2,0.6-0.2,0.6c-0.2,0.2-0.2,0.6-0.4,0.6
			c0,0.4-0.2,0.8-0.4,1.2c-0.2,0.4-0.4,0.8-0.6,1.2c-0.2,0.4-0.4,0.8-0.6,1.2c-0.2,0.4-0.4,0.8-0.6,1.2c-0.2,0.4-0.4,0.8-0.6,1.2
			c-0.2,0.4-0.4,0.8-0.6,1.2c0.2,0.4-0.6,0.6-0.4,1.2c-0.2,0.4-0.4,0.6-0.4,1.2c0,0.4-0.4,0.8-0.4,1.2c-0.4,0.2-0.4,0.6-0.6,1
			c-0.2,0.4-0.4,0.6-0.6,1c-0.2,0.4-0.6,0.6-0.8,0.8h0.4l-2.6,2.6h-0.4l-2.2,2.2h-5.5l-1.2,1.2c-0.4,0.6-0.8,1-1.4,1.4
			c-0.6,0.4-1.2,0.8-1.6,1.4c-0.6,0.6-0.8,1-1.4,1.4c-0.4,0.2-0.8,0.6-1.2,0.8c-0.4,0.4-0.6,0.6-1,1v0.6l-0.4,0.4v0.6l-0.4,0.4v0.8
			l-0.4,0.4v0.6l-0.4,0.4c0,0.2,0,0.4,0,0.6c0,0.4-0.4,0.4-0.4,0.6s0,0.6-0.2,0.6s-0.4,0.4-0.2,0.6c0,0.2-0.2,0.4-0.4,0.6v0.8
			l-0.4,0.4v0.6l-0.4,0.4v0.8c-0.2,0.2-0.2,0.2-0.2,0.2c0,0.6-0.6,1-0.4,1.8c-0.2,0.6-0.4,1-0.6,1.4v0.2v0.8l-0.4,0.4v1.8l0.4,0.4
			v1.2l0.4,0.4v1.2c0.2,0.2,0.2,0.2,0.4,0.4v1.2l0.4,0.4v0.8l0.4,0.4v1.2l0.4,0.4v1.2l0.4,0.4v1.2l0.4,0.4v1.2l0.4,0.6v0.8l0.4,0.4
			v1.2l0.4,0.4v1.2l0.4,0.4v1.2l0.4,0.4v1.2l0.4,0.4v0.8l0.4,0.4v1.2l0.4,0.4v1.2l0.4,0.4v1.2l0.4,0.4c0,0.4,0,0.8,0,1.2l0.2,0.2
			c0.2,0.4,0,0.6,0.2,1c0,0.2,0.2,0.2,0.4,0.4v1.2l0.4,0.4v1.2l0.4,0.4v1.2l0.4,0.4v0.8l0.4,0.4c0.2,0.4,0,0.8,0,1.2l0.4,0.4v1.2
			l0.4,0.4v1.2c0.2,0.2,0.2,0.2,0.4,0.4v0.8l0.4,0.4v1.2l0.4,0.4v1.2l0.4,0.4v1.2l0.4,0.4v1c0,0.2-0.2,0.2-0.2,0.4
			c0,0.4-0.6,0.6-0.4,1c0.2,0.4-0.4,0.6-0.4,0.8c-0.4,0.2-0.4,0.6-0.6,0.8c-0.2,0.4,0,0.8-0.4,1c0,0.4-0.6,0.6-0.4,1.2
			c0,0.2-0.2,0.4-0.4,0.6c-0.2,0.4-0.2,0.6-0.4,0.8c-0.4,0.4,0,0.8-0.4,1.2c-0.2,0.2-0.4,0.6-0.4,0.8s-0.2,0.2-0.4,0.6v1.2l-0.4,0.4
			v1.8l-0.4,0.4v2.2l-0.4,0.4c-0.2,0.4,0.2,0.4,0.4,0.6v1.8l0.4,0.4v1.8l0.4,0.4v1.2c0.4,0.4,0.4,0.8,0.6,1c0,0.4,0.4,0.6,0.6,1
			c0.2,0.4,0.4,0.6,0.6,1c0.2,0.4,0.4,0.6,0.6,1c0.2,0.4,0.2,0.6,0.6,1c0.4,0.4,0,1,0.6,1.2c0.2,0.8,0.8,1.4,1,2
			c0.6,0.2,0,0.8,0.6,1c0.4,0.8,0.8,1.8,1.4,2.6v0.2l0.8,1c-0.2,0.6,0.6,0.6,0.6,1.2c0,0.2,0.2,0.2,0.2,0.2c0.2,0.2,0.6,0.4,0.6,0.6
			c0.2,0.4,0.4,0.6,0.6,0.8c0.4,0.2,0.2,0.6,0.6,0.6v1.8l0.4,0.4v1.8l-0.4,0.4v5.3c0.4,0.6,0.8,0.6,1.6,0.8l1,1v0.8l0.4,0.4v2.8
			c-0.2,0.2-0.2,0.2-0.2,0.2c0,0.6-0.6,1.2-0.4,1.8l-0.4,0.4v1.6l0.4,0.4v0.6c0.4,0.2,0.6,0.6,0.8,0.8c0.6,0.2,1.4,0.8,1.8,0.8h0.2
			c0.4,0.2,0.6,0.6,1.2,0.6c0.4,0.2,0.8,0.2,1.2,0.6c0.4,0.2,0.6,0.2,0.8,0.2c0.2,0.2,0.4,0.4,0.6,0.4l1.8,1.8v0.8l0.4,0.4v1.6
			c-0.2,0.2-0.4,0.2-0.4,0.6c0,0.2-0.2,0.4-0.4,0.6c0,0.2-0.4,0.4-0.6,0.6c-0.2,0.2-0.4,0.4-0.6,0.4c-0.4,0.6-1.2,0.6-1.8,1.2
			c-0.4,0.2-0.8-0.2-1,0.4c-0.4,0-0.6,0.4-1.2,0.4c-0.4,0-0.6,0.4-1.2,0.6h-1l-0.4,0.4h-1.6l-0.4,0.4h-1.4l-0.4,0.4h-1.8l-0.4,0.4
			c-0.6,0.2-1.2,0-1.8,0l-0.4,0.4h-1.2l-0.6,0.6c0.2,0.2,0.2,0.2,0.4,0.2l1.4,1.4c-0.6,0.6-1.2,0.6-2,1.2l-1.2,1.2
			c0,0.2,0,0.6-0.2,0.6l-0.2,0.2v2.6l0.4,0.4v1.2l0.4,0.4v2l-1.4,1.4c-0.2,0.2-0.4,0.2-0.6,0.4c-0.2,0.2-0.6-0.2-0.6,0.2
			c-0.2,0.2-0.6,0-0.8,0.2c-0.2,0.2-0.6,0.2-0.6,0.4c-0.2,0.4-0.6,0.2-0.8,0.2l-0.4,0.4h-0.6l-0.4,0.4h-0.4
			c-0.6,0.6-1.6,1.2-1.8,2.2v0.8l-0.4,0.4v0.8l0.4,0.4v1.8l0.2,0.2c0,0.2,0,0.2,0.2,0.4c0,1.2,0,2.2,0,3.2l-1.4,1.4H380l-0.6,0.8
			v2.8l0.2,0.4c0,0.4,0.2,0.6,0.2,1c0.6,0.2,0,0.8,0.4,1c0.4,0.2,0,0.6,0.4,1c0.2,0.2,0.4,0.6,0.4,0.8c-0.4,0.6-0.6,0.8-1.2,1
			c-0.4,0.2-0.8,0.4-1,0.6c-0.6,0.2-0.6-0.4-0.8-0.4c-0.4,0-0.6-0.4-1-0.4s-0.6-0.4-0.8-0.4c-0.2,0.2-0.4-0.2-0.6-0.2
			c-0.4,0-0.6-0.6-1-0.4c-0.4,0.2-0.6-0.4-1-0.4c-0.4,0.2-0.4-0.4-0.8-0.4c-0.4,0.2-0.6-0.4-0.6-0.4c-0.4,0-0.6-0.4-0.8-0.4
			c-0.2,0-0.6,0-0.6-0.2c0-0.2-0.6,0.2-0.8-0.2c-0.2-0.4-0.6-0.2-0.8-0.4c-0.2-0.2-0.4,0-0.6,0l-1.8-0.4h-2.4l-0.2-0.2
			c-0.2,0-0.2-0.2-0.2-0.2c-0.6,0-1,0-1.6,0c-0.2-0.4-0.6-0.2-0.8-0.6c-0.6-0.6-1.2-1.2-1.8-1.8c0.2-0.6-0.6-0.6-0.6-1.2
			c0-0.4-0.6-0.6-0.6-1c0-0.2-0.4-0.6-0.6-0.6v-0.4l-1.8-1.8c-0.4,0-0.6-0.6-1.2-0.4l-0.4-0.4h-0.6l0.4-10.1c-0.2,0-0.2-0.2-0.4-0.2
			c-0.4,0-0.6,0-1,0l-0.2,0.2c-0.2,0-0.2,0-0.4,0.2c-0.6,0-0.8,0-1.4,0l-1.6-1.6h-1c-0.4,0.2-0.6,0.4-0.8,0.6
			c-0.6,0.4-0.6,0.8-0.8,1.2c-0.2,0.4-0.2,0.8-0.6,1.2c0,0.4-0.2,0.8-0.4,1.2c-0.2,0.2-0.4,0.4-0.4,0.6c0,0.2-0.2,0.4-0.2,0.6
			c-0.2,0.2-0.2,0.4-0.2,0.6c-0.2,0.2-0.4,0.4-0.4,0.6c-0.2,0.2-0.4,0.4-0.4,0.6c-0.2,0.4-0.6,0.4-1,0.6h-6.3l-0.4,0.4
			c-0.4,0-0.6,0-0.8,0.2c-0.4,0.2-0.8,0.4-1.2,0.6c-0.4,0.2-0.6,0.6-1,0.6c-0.2,0.2-0.2,0.2-0.4,0.2l-1.8,1.8
			c-0.2,0.4-0.6,0.6-0.4,1.2c-0.4,0.2-0.2,0.6-0.4,0.6c-0.2,0.2-0.4,0.6-0.6,0.6c-0.6,0.2-0.8-0.4-1.4-0.4c-0.4-0.6-0.8-0.6-1.2-0.8
			c-0.6,0.2-1,0.6-1.4,0.8c-0.4,0.4-0.8,0.6-1.4,0.6c-0.4-0.2-0.6-0.4-0.6-0.6c0-0.2-0.6-0.6-0.8-0.6c-0.2-0.2-0.4-0.6-0.6-0.6
			c-0.2-0.4-0.4-0.6-0.6-0.6c-0.2,0-0.2-0.6-0.4-0.8c-0.6-0.4-0.6-0.8-1-1.2c-0.4-0.4-0.6-0.6-1.2-1c-0.4,0.2-0.6-0.6-0.8-0.4
			c-0.2-0.4-0.6-0.4-1-0.6c-0.6,0.2-0.6-0.2-1.2-0.4c-0.4-0.2-0.6-0.4-1-0.6c-0.4-0.2-0.6,0.2-0.8-0.2c-0.2-0.2-0.6-0.4-0.6-0.4
			c-0.6-0.2-1.2-0.6-1.6-1c-0.4-0.4-0.8-0.6-1.2-0.8c-0.6,0-0.6-0.4-0.8-0.6c-0.2-0.4-0.6-0.6-0.8-1c-0.4-0.4-0.6-0.6-1-1v-0.2
			c-0.4-0.4-0.6-0.6-0.6-1c-0.2-0.4-0.6-0.6-0.6-1c-0.2-0.4-0.2-0.6-0.6-0.8s-0.2-0.6-0.6-0.8c0-0.4-0.4-0.6-0.6-0.8l-0.2-0.2
			c0.2-0.4-0.6-0.6-0.4-0.8c-0.2-0.2-0.6-0.4-0.6-0.6c0-0.6-0.6-0.6-0.6-0.8c-0.4-0.8-1-1.6-1.2-2.2c-0.2-0.4-0.6-0.6-0.6-1.2
			c-0.4-0.4-0.8-0.6-1.2-1.2c-0.2-0.4-0.6-0.8-1-1.2c-0.4-0.4-0.8-0.8-1.2-1.2c-0.4-0.2-0.6-0.6-1-0.8c-0.4-0.4-0.6-0.6-1-1
			c0,0-0.2,0-0.4,0l-1.4-1.4c-1-0.4-1.4-1.4-2-1.8h1.8c-0.2-0.4-0.4-0.6-0.6-0.8c-0.2-0.4,0.2-0.6-0.4-0.6v-2l-0.4-0.4
			c-0.2-0.4,0.2-0.6,0.4-0.6v-0.8c0.2-0.4,0.4-0.6,0.6-1.2v-4c-0.2-0.2-0.4-0.6-0.6-0.8c-0.2-0.2-0.6-0.2-0.8-0.6h-1.8l-0.4-0.4
			h-2.8c-0.2-0.2-0.2-0.2-0.4-0.4h-2.8l-0.2-0.2l-0.2-0.2h-3.2l-0.2-0.2l-0.2-0.2c-0.6,0-1,0-1.6,0c-0.6-0.8-1.6-1.4-1.8-2.2v-0.2
			l-0.4-0.4v-0.6l-0.4-0.4v-0.2l-0.4-0.4c0-0.2,0-0.4,0-0.6s0-0.2,0-0.4c-0.6-0.2-0.2-0.6-0.4-1c-0.4-0.4-0.6-0.6-0.6-1.2
			c0-0.2-0.2-0.2-0.4-0.4h-0.8l-0.4,0.4h-0.6l-0.4,0.4h-0.6c-0.4,0.2-0.8,0.4-1.2,0.6c-0.4-0.2-0.6,0.2-1,0.4c-0.6,0-0.8,0.2-1.4,0
			c-0.4,0.2-0.6,0.6-1,0.4l-0.4-0.4h-1.2c-0.2-0.6-0.8-0.6-1.2-1c-0.4-0.4-0.8-0.6-1-1.2c-0.2-0.6-0.6-0.8-0.8-1.4v-1.4l-0.2-0.4
			v-0.6l-0.8-0.8c-0.4,0.2-0.6-0.2-0.6-0.4h-0.8l-0.4-0.4h-0.8c-0.2,0-0.2-0.2-0.4-0.2c-0.4-0.6-1-0.6-1.4-1c-0.6,0-0.8-0.6-1.2-1
			c-0.4-0.4-1-0.6-1-1.2c0-0.2-0.2-0.2-0.2-0.2c-0.6-0.6-1.2-0.8-1.4-1.8l-1.4-1.4l-1.8-1h-1.4l-0.2,0.2c-0.6-0.6-1.2-1-1.4-1.8l0,0
			l-0.4-0.4c0-0.4,0-0.6-0.2-0.6c-0.2-0.2-0.4-0.6-0.6-1c-0.2-0.2-0.4-0.6-0.6-0.6c-0.6,0-0.6-0.4-0.8-0.6h-0.6l-0.6,0.8v2.2
			c0.2,0.4,0.6,0.4,0.6,0.8c0.4,0.2,0.4,0.6,0.6,1c0.2,0.4,0.4,0.6,0.6,1c0.2,0.4,0,0.8,0.4,1v1.4l-0.6,0.6c0.2,0.4-0.2,0.6-0.6,0.6
			c-0.2,0.2-0.4,0.6-0.6,0.6l-1.8,1.2h-0.8c-0.2-0.2-0.4-0.4-0.6-0.4c-0.2-0.2-0.6-0.6-0.6-0.8V242l-0.4-0.4V241l-0.2-0.2
			c-0.2-0.4,0-0.6-0.2-1l-0.4-0.4v-1l-0.4-0.4v-0.2c0-0.4,0-0.6,0-1c-0.2-0.4-0.2-0.6-0.4-1c-0.2-0.4-0.2-0.6-0.4-1
			c0-0.2-0.4-0.2-0.4-0.6c0-0.4-0.2-0.2-0.4-0.4c-0.4-0.4-0.6-0.6-1-0.8h-3.4l-0.8,0.6h1c-0.4,0.6-1.2,0.6-1.6,1.2
			c-0.4,0.6-0.8,1-1.4,1.4l-1.2,1.2l-1.4,1.4l-1.4,1.4h-0.4l-0.6,0.6h-1l-0.4,0.4H223l-0.4,0.4h-1.8c-0.4,0.2-0.6,0.6-1,0.6
			c-0.2,0.2-0.4,0.4-0.6,0.4c-0.2,0.2-0.4,0.4-0.6,0.6l-1.6,1.6h-1.6c-0.2-0.2-0.4-0.6-0.8-0.2c-0.4-0.2-0.6-0.6-0.8-0.6
			c-0.4,0-0.6-0.2-0.8-0.4c-0.4-0.4-0.6,0-0.8-0.2c-0.4-0.4-0.6-0.4-1-0.2c-0.2,0.2-0.2,0.6-0.4,0.6c-0.6,0.6-0.8,1.2-1,1.8
			c-0.2,0.4-0.6,0.6-0.4,1.2c-0.4,0.2-0.2,0.6-0.6,0.8c-0.4,0.4-0.6,0.6-0.8,0.8c-0.2-0.2-0.6,0-0.6,0.4h-2.2l-0.4,0.4h-1.2
			l-0.4-0.4h-2.8l-0.4-0.4l-0.4,0.4h0.6c-0.4,0.6-0.8,0.8-1.2,1.2c-0.4,0.4-0.6,0.2-1,0.6c-0.2,0.4-0.6,0.6-0.8,0.8l-0.6,0.8
			c-0.8,0.4-1.6,0.6-2,1.2c-0.4,0.2-0.6,0.6-0.8,1c-0.2,0.6-0.6,0.8-0.6,1.4l-0.4,0.4v0.6c-0.6,0.6-0.6,1.4-1.2,1.8
			c-0.6,0.6-1.2,0.6-1.8,1h-1.8L188,259c-0.6,0.2-0.8-0.4-1.2-0.4c-0.2-0.4-0.6-0.4-0.8-0.4l-0.6-0.6l1.2-2.4v-1l0.4-0.4v-1.8
			l0.4-0.4v-0.6l0.4-0.4c0-0.2,0-0.4,0-0.6c0.2-0.4,0.4-0.8,0.6-1.2c-0.2-0.6,0.4-0.6,0.4-1.2c0.6-0.2,0.2-0.8,0.4-1
			c0.4-0.4,0.2-0.6,0.6-0.8c-0.2-0.6,0.4-0.8,0.6-1.4c0-0.2,0.2-0.2,0.2-0.2c-0.2-0.6,0.4-0.6,0.4-1.2c0-0.2,0-0.2,0-0.4l0.4-0.4
			v-0.8l0.4-0.2V241l0.4-0.4v-0.8c0.2-0.6,0.6-1.2,0.8-1.6c0.4-0.6,1-0.8,1.4-1.4c0.4-0.6,0.8-0.8,1.2-1.4c0.2-0.8,0.8-1.4,1.2-2
			v-6.1l0.4-0.4v-1.6l0.2-0.2c0-0.2,0-0.2,0.2-0.4c0-0.8,0-1.6,0-2c-0.4-0.2-0.2-0.6-0.4-0.8c-0.4-0.2-0.2-0.6-0.6-0.8v-0.8
			l-0.4-0.4v-1.8l0.4-0.4v-0.6l0.4-0.4c0-0.4-0.2-0.6,0.4-0.8v-3.6c0-0.2,0-0.2,0.2-0.2c0.4-0.2,0.2-0.6,0.4-0.8v0.4
			c0.4-0.4,0.6-0.6,0.8-0.8c0.2-0.4,0.4-0.6,0.6-0.8c0.2-0.4,0.6-0.2,0.8-0.6c0.2-0.4,0.6-0.2,0.6-0.6l0.8-0.8
			c0.2-0.2,0.4-0.6,0.6-0.6c0.2-0.2,0.6-0.6,0.6-0.6v0.2c0.2-0.2,0.2-0.2,0.2-0.2c0.2-0.4,0-0.8,0.4-1v-1.4l-0.4-0.4v-0.8l-0.4-0.4
			v-0.2c-0.6-0.2-0.6-0.8-0.8-1.2c-0.4-0.4-0.8-0.8-1.2-1.2c-0.4-0.4-0.6-0.8-1.2-0.8c-0.4-0.6-0.8-0.8-1.4-1.2
			c-0.6-0.4-0.8-1-1.4-1.2c-0.6-0.2-0.8-0.6-1.2-1h-0.4c-0.2,0-0.2,0-0.4,0c0,0-0.2,0-0.2-0.2c-0.4-0.4-1-0.4-1.4-0.8h-1.8l-0.4-0.4
			H190c-0.4,0.2-0.6,0.2-0.8,0.4c-0.4,0.2-0.6,0.2-0.8,0.6c-0.4-0.2-0.6,0.4-0.6,0.6c-0.2,0.2-0.6,0.4-0.6,0.6
			c0.2,0.4-0.4,0.6-0.4,0.8c0,0.2-0.2,0.6-0.4,0.6c-0.2,0.2-0.2,0.6-0.4,0.6c-0.4,0.2-0.2,0.6-0.2,0.8l-0.4,0.4v2l-0.4,0.4
			c-0.2,0.6,0,1.2,0,1.8c-0.4,0.6-0.6,1.2-0.8,1.8c-0.2,0.4-0.4,0.8-0.6,1.2c-0.2,0.2-0.2,0.6-0.2,0.6c-0.4,0.2-0.2,0.6-0.6,0.8
			c-0.6,0.4-0.6,1-1.2,1.6c-0.4,0.2-0.6,0.2-0.8,0.6h-1.8l-0.4-0.4h-0.8l-0.4-0.4h-1.2c0.2,0,0,0,0,0c-0.4,0.6-0.8,0.6-1,1.2
			c-0.2,0.4-0.6,0.6-0.6,1c0,0.4-0.2,0.6-0.4,1.2c-0.2,0.6-0.4,0.8-0.6,1.2c-0.6,0.2-1-0.2-1.4-0.4c-0.4-0.4-0.8-0.6-1.2-1
			c-0.2-0.4-0.4-0.6-0.6-0.8c-0.2-0.6-0.6-1-0.8-1.4c-0.2-0.2-0.2-0.6-0.4-0.6c0-0.4-0.4-0.6-0.6-0.6h-0.4c-0.8-0.8-1.8-1.8-2.6-2.6
			c-0.4-0.4-0.6-0.6-0.6-1c-0.4-0.4-0.6-0.6-0.8-0.8c-0.4-0.4-0.6-0.6-1-0.6c-0.2-0.2-0.6,0-0.6-0.2c0-0.2-0.6,0-0.6-0.4
			c-0.2-0.4-0.6,0-0.6-0.2s-0.2-0.4-0.6-0.4c-0.2,0-0.4-0.2-0.6-0.4h-0.8l-0.4-0.4h-1.8l-0.4-0.4h-0.6l-1.2-1.2v-0.2
			c-0.2-0.4-0.6-0.6-0.8-0.8c-0.6,0.2-0.6,0.6-1.2,0.8h-1.2c-0.4-0.6-0.8-0.8-1.4-0.8c-0.4,0.2-0.6,0.6-0.6,0.8
			c-0.2,0.4-0.4,0.6-0.6,0.8H149l-0.4-0.6c0-0.2,0-0.6-0.2-0.8c-0.2-0.4,0.2-0.6-0.4-0.8c0-0.4,0-0.6-0.2-1l-0.4-0.4v-1.8l-0.4-0.4
			v-1c-0.6-0.6-0.6-1.4-1.6-1.8h-0.2c-0.2-0.2-0.2-0.4-0.2-0.4c-0.2-0.2-0.4-0.6-0.6-0.6v-0.6l-0.2-0.2c-0.2-0.4,0-0.6,0-0.8
			l-0.4-0.4v-1.2l0.4-0.4v-2l0.4-0.4v-4.7l-0.4-0.4v-2.8c-0.6-0.4-0.6-1-1-1.4l-1.8,0.8h1.6c-0.2,0-0.2-0.4-0.6-0.4l-1.4-1.4
			l-0.6-0.2c0-0.4-0.4-0.6-0.6-0.8s-0.2-0.6-0.4-0.6c-0.2-0.2,0-0.6-0.4-0.8c0-0.6,0-1.6,0-2h-0.6c-0.8,0.4-0.8,1.2-1.4,1.8
			c0,0.2,0.2,0.6,0,0.6c-0.2,0.2-0.4,0.6-0.4,0.8c-0.2,0.2-0.2,0.4-0.4,0.4c-0.2,0-0.4,0-0.4-0.2c-0.4-0.4-0.6-0.6-1-1
			c0.2-0.6-0.4-0.8-0.4-1.2l0.4-0.4v-0.8c0.4-0.6,0.6-1.2,0.8-1.8v-0.6c0.2-0.4,0.6-0.4,0.4-0.6l-0.2-0.4v-1l-0.4-0.4v-0.8l-0.2-0.2
			c-0.2-0.4,0-0.6-0.2-1l-0.4-0.4v-1.2l-0.4-0.4v-1.8l-0.4-0.4v-1.2l0.4-0.4V158c0.4-0.4,0.6-0.8,0.8-1.4h1.2l0.4,0.4h0.6l0.6-0.6
			v-0.6l-1.2-1.2v-2.8l1-0.6c0.2,0,0.4,0.6,0.6,0.4c0.4,0,0.6,0.2,0.8,0.4c0.4,0.2,0.6,0.2,0.8,0.6h1.8l0.2-0.2
			c0.4-0.2,0.6,0,1.2-0.2c0.4-0.4,1.2-0.2,1.8-0.6h1.2l0.4-0.4h1.8c0.2,0.4,0.6,0.4,1,0.6c0.6,0,0.6,0.6,0.8,0.6
			c0.6,0.2,0.6,0.6,1,0.6c0.4,0.2,0.6,0.4,0.8,0.6h0.8l0.6,0.4h1.6c0.4-0.4,0-0.6,0.2-0.8l0.2-0.2c0.2-0.6-0.6-0.6-0.4-1.2
			c-0.2-0.2-0.2-0.2-0.4-0.4c-0.2-0.4-0.6-0.2-0.6-0.4c-0.2-0.2-0.4-0.4-0.6-0.6v-1.8l0.4-0.4v-0.6c0.2-0.4,0.6-0.6,0.8-0.8h1.4
			c0.8,0.6,1.6,0.8,2.2,1.2c0.2,0.2,0.4,0.4,0.6,0.4s0.4,0.2,0.4-0.2c-0.2-0.4-0.6-0.6-0.6-1c-0.4-0.4-0.6-0.6-0.8-0.8
			c-0.4-0.4-0.8-0.4-1-0.8c-0.2-0.4-0.6-0.4-0.8-0.6h-3.2l-1.4,1.4v0.2c-0.4,0.4-0.6,0.2-0.8,0.2l-0.2-0.4l-1-1h-1.8l-0.2,0.2
			c-0.4,0-0.6,0-1,0.2c-0.4,0.2-0.6,0.2-0.8,0.2c-0.4,0.2-0.6,0.4-1,0.4l-0.4-0.4h-4.9c-0.4,0.4-0.8,0.4-1.2,0.6
			c-0.2,0.4-0.6,0.4-1,0.6c-0.4,0.4-0.4,0.8-0.6,1h-0.8l-0.4-0.4h-0.8l-0.4-0.4c-0.2,0-0.6,0-0.6,0.2c-0.2,0.2-0.4,0.4-0.6,0.2
			c-0.4,0-0.4,0.4-0.6,0.4c-0.6-0.2-0.6,0.4-1.2,0.4c-0.2,0.4-0.6,0.2-0.6,0.6c-0.2,0.4-0.6,0-0.8,0.2c-0.2,0-0.2,0.2-0.4,0.2
			c-0.2-0.2-0.2-0.4-0.2-0.6c0.2-0.6,0.6-0.8,0.6-1.2c0.4-0.4,0.6-0.8,0.6-1.2c0.2-0.2,0.4-0.6,0.4-0.8c0.2-0.6,0.6-1,0.8-1.4
			c0.4-0.4,0.8-0.6,1.2-0.8h1.2c0.4-0.4,0.8-0.4,1.2-0.8v-1.2c-0.2-0.2-0.6-0.6-0.6-0.6c-0.4-0.2-0.2-0.6-0.6-0.8
			c-0.4-0.2-0.6-0.4-0.6-0.8c0-0.6-0.6-0.6-0.6-1l-0.6-0.8c-0.2-0.2-0.2-0.6-0.6-0.8c-0.4-0.2-0.2-0.6-0.6-0.8v-0.8l-0.2-0.2
			c-0.2-0.4,0-0.6-0.2-1c-0.4-0.4-0.6-0.6-0.6-0.8c-0.2-0.4-0.6-0.6-0.6-1c-0.4-0.4-0.6-0.8-0.6-1.2v-2.8c0.6-0.4,0.6-1.2,1.4-1.6
			h5.1c0.4-0.2,0.6-0.6,0.6-0.8c0.2-0.4,0.6-0.6,1-1c0.4,0.2,0.4,0.4,0.6,0.6c0.4,0.2,0.6,0.2,0.6,0.4h1.2c0,0,0-0.2,0.2-0.2
			c0.6-0.4,1-0.4,1.4-0.8c0.4-0.6,0.8-0.8,1.2-1.2l0.6-0.6v-0.6l0.2-0.2c0-0.2,0-0.2,0.2-0.4c0-0.6,0-0.8,0-1.4l-0.4-0.4v-1.8
			l-0.4-0.4c0.2-0.8-0.4-1.4-0.6-2c-0.2-0.4-0.4-0.6-0.6-1c-0.6-0.4-0.8-0.8-1.2-1.2c-0.4,0-0.4,0-0.6,0.2c0,0.2,0,0.4,0.2,0.4
			c0.4,0.4,0.8,0.8,1.2,1.2c0.6,0.6,0.8,1.4,1.4,1.8c0.2,0.2,0,0.4,0,0.6l-0.6,0.6c-0.6-0.2-0.8,0.6-1.6,0.4
			c-0.4,0.2-0.6,0.6-0.6,0.6c-0.2,0.4-0.2,0.6-0.6,0.6c-0.4,0.2-0.2,0.6-0.6,0.8v1.8l-0.6,0.6h-0.2c-0.8-0.4-0.8-1.4-1.8-1.8h-0.2
			l-0.4-0.4H134l-0.4-0.4h-0.4l-0.4-0.4h-0.4c-0.4-0.4-0.6-0.6-0.8-0.8c-0.4-0.2-0.6-0.4-0.8-0.6l-0.6-1c-0.2-0.4-0.6-0.6-0.6-1
			c-0.2-0.4-0.6-0.6-0.4-1c0.6-0.2,1.2,0,1.8-0.2c0.2-0.2-0.2-0.2-0.2-0.6v-1l-0.4-0.4v-0.2l0.4-0.4c0-0.8,0.2-1,1.6-2.2v-0.2v-0.6
			c0.6-0.8,1.6-1.6,2-2h0.6l1.2,1.2c0.2-0.2,0.2-0.2,0.2-0.2c0-1.8,0-4,0-5.7l-0.4-0.4c0-0.4,0-0.6-0.2-0.8
			c-0.2-0.2,0.2-0.6-0.2-0.8c-0.4-0.2,0-0.6-0.4-1c-0.2-0.2-0.2-0.6-0.6-0.6c0.2-0.6-0.6-0.8-0.4-1.4c0-0.4-0.4-0.4-0.4-0.6
			c0.2-0.4-0.4-0.6-0.4-1s0-0.6,0-1l-0.4-0.4v-1.2l-0.4-0.4v-1.2l-0.4-0.4c0.4-0.2,0.6-0.6,0.8-0.6c0.4,0,0.6-0.6,1-0.6
			c0.6,0,0.6-0.6,1-0.6c0.4,0,0.6-0.4,1-0.6h0.8l0.4,0.4h0.6L138,91c0.2,0,0.2,0,0.4,0.2c0.4,0,0.6,0,1,0c0.2-0.4,0.8-0.6,0.8-1.2
			c0.2-0.2,0.4-0.4,0.6-0.6c0.6-0.2,1-0.6,1.4-0.8c0.6-0.6,1.2-1.2,1.8-1.8h1.2c0.2,0,0.2,0.2,0.2,0.2c0.4,0.4,0.6,0.6,1.2,1.2
			c0.4,0.6,0.8,0.6,1.2,1c0.4,0.4,0.6,0.6,1.2,1.2c0.2,0.2,0.6,0,0.6,0.4c0.6-0.4,0.8-0.8,1.2-1.4v-1.8l-0.6-1.4l-0.4-0.2
			c-0.2-0.4,0-0.6-0.2-0.8c0.6-1.2,0.6-1.4,1.8-1.8h5.7l0.4,0.4h0.8l0.4,0.4h2.8l0.4-0.4h0.6l0.4-0.4c0.2,0,0.6,0,0.6-0.2
			c0.2-0.2,0.4-0.4,0.6-0.4c0.4,0,0.4-0.2,0.6-0.2s0.6-0.2,0.6-0.4h1.6l0.4-0.4h2c0.2,0.4,0.6,0.6,0.8,0.8c0.2,0.6,0.6,0.6,0.8,1
			c0.4,0.4,0.6,0.6,0.8,0.8c0-0.6,0.6-0.6,0.6-1.2c0.4-0.2,0.4-0.6,0.6-0.8c0.2-0.2,0-0.6,0.4-1l-0.4-0.4v-0.8l-0.4-0.4
			c0.2-0.6-0.2-0.8-0.6-1.4c-0.2-0.4-0.6-0.6-0.8-1c0-0.4-0.6-0.6-0.6-1l-0.6-0.6c-0.2-0.2-0.2-0.6-0.6-0.8
			c-0.4-0.2-0.6-0.6-0.6-0.8c0-0.2-0.4-0.4-0.6-0.6c-0.2-0.4-0.4-0.6-0.4-0.8c0-0.2-0.2-0.2-0.2-0.2v2.2c0.2-0.4,0.4-0.8,0.6-1.2
			c0.2-0.4,0.4-0.8,0.6-1.2c0.4-0.4,0.8-0.4,1.2-0.6c0.4,0.2,0.4-0.2,0.6-0.2c0.6-0.2,0.6,0.2,0.8,0.2c0.6,0.2,1,0.4,1.4,0.6
			c0.4,0.4,0.8,0.4,1.2,0.6c0.4,0.4,0.6,0.6,0.8,0.8c0.6,0.4,0.8,0.8,1.2,1.2v0.6l1.8,1.8c0.2,0,0.4,0,0.4,0.2
			c0.2,0.4,0.6,0.2,0.8,0.6h1.2c0.2-0.2,0.4-0.4,0.6-0.4l0.6-0.6v-0.4l-0.4-0.4v-0.8c-0.4-0.4-0.4-0.8-0.6-1c-0.4-0.2-0.4-0.8-0.6-1
			c-0.4-0.4-0.6-0.6-0.8-0.8l-1-1c-0.2-0.4,0.2-0.6,0.4-0.6l0,0c0.4-0.2,0.6-0.4,1-0.6h3.6l0.2-0.2c0.2,0,0.2-0.2,0.2-0.2h1.8
			c0.4-0.4,1-0.6,1.6-0.6c0.4-0.4,0.8-0.6,0.8-1.2c0.6-0.2,0-0.8,0.6-1.2v-1.6l0.4-0.4v-1.2l0.4-0.4v-0.8c0.2-0.6,0.8-0.4,1-0.8h0.8
			l0.4-0.4h1l0.2-0.4h0.8l0.6-0.4c0.2,0,0.4,0.2,0.6,0.4h0.8c0.2,0.2,0.4,0.6,0.6,0.4c0.4,0.4,0.8,0.8,1.2,1.2
			c0.4,0.4,0.8,0.8,1.2,1.2c0.4,0.6,0.8,0.8,1,1.2c0.2,0,0.2,0,0.4,0c0.2,0.2,0.2,0.2,0.4,0.4h0.8l0.4-0.4h0.4l1.8-1.8
			c0.4,0.2,0.4-0.2,0.6-0.4c0.2,0.2,0.2,0.2,0.4,0.4c0.6,0.2,1.2,0.4,1.6,0.6c0.4,0.2,0.6,0.2,0.8,0.6c0.2,0.4,0.6,0.6,0.8,0.6
			c0.4,0.2,0.6,0.6,0.8,0.6c0.4,0.2,0.6,0,0.6,0.4h1.6l0.6-0.6c0.2-0.4-0.6-0.6-0.4-0.8c-0.4-0.4-0.6-0.6-0.6-1
			c-0.2-0.2-0.6-0.2-0.6-0.4c-0.4,0-0.6-0.4-0.6-0.6v-0.8c0.2,0,0.2-0.2,0.2-0.2c0.6,0,1.4,0,1.8,0c0.2-0.4,0-0.6,0.2-1.2
			c0-0.2,0.2-0.2,0.4-0.4v-1.2l0.6-0.8c0.6-0.2,0.8,0.2,1.2,0.4c0.4,0.2,0.6,0.6,0.8,0.8c0,0.6,0.6,0.6,0.6,1c0,0.4,0.2,0.6,0.4,0.8
			c0.4,0.4,0.2,0.6,0.2,0.8l0.4,0.4v0.6c0.6,0.6,0.6,1.4,1.4,1.8c0.2,0,0.4-0.2,0.6-0.4h0.8c0.6-0.6,0.8-1,1.4-1.6
			c0.2-0.6,0.6-1.2,0.8-1.8c-0.2-0.8,0.6-1.2,0.6-1.8l-0.4-0.4v-0.8c-0.2,0-0.2-0.2-0.2-0.2c-0.2-0.4-0.4-0.6-0.6-1.2l-1.2-1.2v-0.6
			l-0.4-0.4V52l-0.4-0.4v-1.4c0.2-0.2,0.6-0.4,0.6-0.6c0.2,0,0.6-0.6,0.6-0.6c0.4,0,0.6-0.6,0.8-0.4c0.2,0.2,0.4,0.4,0.6,0.6
			c0.4,0.4,0.6,0.8,1.2,1c0.4,0.6,0.8,0.6,1,1.2c0,0.2,0.2,0.2,0.2,0.2c0.4,0.6,1,0.6,1.2,1.4l1.2,1.2v0.4l1.2,1.2
			c0,0.2,0,0.2,0,0.4s0.2,0.2,0.2,0.2c0.4-0.2,0.6,0.6,1,0.4c0.2-0.2,0.4,0.2,0.6,0.2c0.2,0.2,0.6,0.2,0.6,0
			c0.4-0.4,0.6-0.2,1.2-0.4c0.2,0,0.2-0.2,0.2-0.2h0.8l0.4-0.4h0.8l0.4-0.4h1l0.2-0.2c0.2-0.2,0.2,0.2,0.4,0.2
			c0.6,0,1.4,0.4,1.8,0.8c0.2,0.2,0.6,0.2,0.8,0.4c0.2,0.2,0.4,0.4,0.6,0.4C234.3,58.7,234.7,58.9,234.8,59.1z"/>
	</defs>
	<clipPath id="SVGID_15_">
		<use xlink:href="#SVGID_7_"  style="overflow:visible;"/>
	</clipPath>
	<rect x="21.6" y="36.6" class="st26" width="426" height="91.4"/>
	<rect x="21.6" y="217.5" class="st27" width="426" height="91.4"/>
	<rect x="21.6" y="128" class="st28" width="426" height="91.4"/>
</g>
<g>
	<g>
		<g>
			<g>
				<g>
					<g>
						<path id="SVGID_10_" class="st3" d="M234.8,59.1h0.6l0.4,0.4c0.6,0.2,0.8-0.4,1.4-0.6v-1.8L237,57c0-0.2-0.2-0.2-0.2-0.4
							c0-0.6,0-0.8,0-1.4c0.6-0.2,0.6-0.8,1-1.2c0.4,0,0.6,0,1.2,0c0.4,0.2,0.6,0.4,1,0.6c0.4,0.2,0.6,0.6,1,0.6
							c0.4,0,0.6,0.6,0.8,0.6c0.4,0.2,0.6,0.4,1,0.6h0.8l0.4,0.4h0.6l0.4,0.4h0.6l0.4,0.4h0.8l0.2,0.2c0.2,0.2,0.6-0.2,0.8,0.2
							c0.2,0.4,0.6,0.2,0.6,0.2c0.2,0,0.4,0,0.4,0c0.2,0.6,0.8,0,1,0.4s0.6,0,0.8,0.2l0.2,0.2h0.8l0.4,0.4h0.6l0.4,0.4
							c0.6-0.4,1.2,0.4,1.8,0.4c0.4,0.4,0.6,0.2,1.2,0.4l0.4,0.4l0.2-0.2c0-0.6,0-1.2,0-1.8l-0.4-0.4c0-0.6,0-0.6,0.6-1.8
							c0.4-0.6,0.8-0.8,1.4-1.2h0.6l0.4-0.4h5.9c0.4-0.4,0.2-0.6,0.2-1c-0.2-0.2-0.4-0.2-0.4-0.4c0-0.4-0.2-0.6-0.6-0.6
							c-0.4-0.2-0.6-0.4-0.6-0.8l-1-1c-0.2-0.6-0.4-0.8-0.6-1.6v-1.4l-0.4-0.4v-1.2l-0.4-0.4v-1.6l-0.4-0.4v-5.9l0.2-0.2
							c0.2-0.4,0-0.8,0.2-1.2c0.4,0.2,0.6,0.6,1,0.6c0.2,0.2,0.4,0.4,0.6,0.6c0.6,1.2,1.2,2.2,1.8,3.6v0.2c0.4,0.4,0.8,0.8,1.4,1.4
							c0.6,0.2,1,0.6,1.6,0.6c0.4,0.2,0.6,0.6,0.6,0.8c0.2,0.4,0.6,0.6,0.6,0.8c0.2,0.4,0.2,0.6,0.6,0.6c0.2,0.2,0.2,0.2,0.2,0.4
							c0.8,1.6,1.2,1.8,1.8,2.6h0.4l0.6,0.6h0.6l0.4,0.4h0.6l0.4,0.4c0.4,0,0.4-0.2,0.6-0.4h0.8c0.2-0.2,0.2-0.2,0.4-0.4
							c0.2-0.2,0.2-0.4,0.4-0.6c0.2-0.2,0.2-0.6,0.2-0.6c0.2-0.2,0.2-0.4,0.4-0.4c0-0.4,0-0.6,0-1c0-0.2,0-0.2-0.2-0.4
							c-0.2-0.2-0.2-0.2-0.2-0.2v-0.8c-0.6-0.4-0.6-1-1.2-1.6c-0.4-0.4-0.4-1-0.6-1.6v-1.8l0.4-0.4V40l-1.2-1.2c0-0.2,0-0.4,0.2-0.4
							c0.4-0.4,0.6-0.6,1.2-1.2c0.2-0.2,0-0.4,0.2-0.6h0.8c0.2,0.2,0.2,0.2,0.4,0.4h0.6c0.2,0.2,0.4,0.4,0.6,0.4
							c0.6,0.6,1.4,1.4,1.8,1.8v0.4l1.6,1.6v1l-0.4,0.4c0.4,0.2,0.4,0.6,0.6,1c-0.2,0.4,0.2,0.6,0.4,1c0,0.4,0.2,0.8,0,1.2l0.4,0.4
							v1.2c0.4,0.4,0.2,0.8,0.6,1c0.6,0.2,0.2,0.6,0.6,0.8c0.4,0,0.4,0.4,0.8,0.4c0.2,0,0.2,0.4,0.6,0.4s0.4-0.4,0.6-0.4h0.2
							l1.2-1.2c0-0.2,0-0.4,0.2-0.4c0.4-0.2,0.2-0.6,0.6-0.8v-0.6l-0.4-0.4v-0.6l0.4-0.4c0-0.2,0-0.4,0-0.6c0.4-0.6,0.4-1.2,0.6-1.8
							c0.2,0,0.4,0,0.4,0c0.4,0.4,0.6,0.6,1,0.6c0.2,0,0.4,0.2,0.4,0.4c0,0.6,0.6,0.6,0.6,0.8c0.2,0.4,0.2,0.6,0.6,0.6
							c0.4,0.2,0.2,0.6,0.6,0.8s0.4,0.8,0.8,1h1.2c0-0.2,0.2-0.2,0.2-0.2c0-1,0-2,0-3l0.6-0.6v0.2c0.2-0.6,0.8-0.4,1-0.8l0.4,0.4
							h0.6l2.4,1.4c0.8,0.8,1.8,1.8,2.4,2.4c0,0.2,0,0.2,0,0.2c0.2,0.2,0.2,0.4,0.4,0.4c0,0.6,0,1,0,1.8h13c0.2,0.2,0.2,0.2,0.4,0.2
							c0.6,0.2,0.8,0.4,1.2,0.6c0.4,0.4,0.8,0.4,1.2,0.6c0.2,0.4,0.6,0.2,0.6,0.4c0.2,0.2,0.6,0.2,0.6,0.2c0.2,0,0.2,0.2,0.4,0.4
							h0.8l0.4,0.4h0.8l0.4,0.4h0.8c0.4,0.2,0.6,0.6,0.8,0.6c0.6,0,0.6,0.6,1,0.6c0.2,0.4,0.6,0.2,0.8,0.6c0.2,0.4,0.6,0.4,1,0.6
							c0.4,0.4,0.6-0.2,0.8,0.4h0.8l0.4,0.4h2.2l0.4-0.4h0.4c0.6-0.6,1-1,1.6-1.6h0.4l0.6-0.6c0.2-0.2,0.2-0.2,0.2-0.2h3.4
							c0.2,0.2,0.4,0.4,0.4,0.4h0.6c0.2,0.4,0.6,0.2,1,0.4c0.4,0.4,0.8,0.6,1.2,0.6c0.6,0.4,1.2,0.6,1.8,0.8
							c0.4,0.6,0.8,0.8,1.4,1.2c1,0.6,1.6,1.4,2.2,2v0.4l3.6,3.6v0.4l0.8,0.6c0.4-0.2,0.6,0.4,0.8,0.4s0.6,0.4,1,0.4
							c0.4,0.4,1,0.4,1.4,0.6c0.6,0.4,1,0.4,1.4,0.8c0.2,0.2,0.6,0.2,0.6,0.6c0.2,0.4,0.6,0.2,0.8,0.6c0.4,0,0.6,0.4,0.8,0.4
							c0.4,0,0.4,0.2,0.6,0.4h2.2l0.4,0.4c1.2,0,2,0,3.2,0l0.4,0.4h2.8l0.4,0.4h5.3l0.4-0.4h4.3l0.4-0.4h4.2l0.4-0.4h3.8l0.2-0.2
							c0.2,0,0.2-0.2,0.4-0.2c0.8,0,1.8,0,2.4,0l0.4,0.4h0.8l0.6,0.4h0.8l0.4,0.4h0.8l0.4,0.4h0.8l0.4,0.4h0.8l0.4,0.4h0.8l0.4,0.4
							h0.8l0.4,0.4h0.8l0.4,0.4h4.2l0.4,0.4h4.3l0.4,0.4c0.4,0.2,0.8,0,1.2,0.2l0.2,0.2h1l0.4,0.4c0.2,0,0.6,0,0.6,0
							c0.4,0,0.4,0.4,0.6,0.4c0.4,0,0.6,0,0.8,0l0.4,0.4h0.8l0.4,0.4h0.8l0.4,0.4h0.8l0.4,0.4h0.8l0.4,0.2c0.8,0.4,1.2-0.4,1.8-0.4
							c0.2-0.2,0.4-0.4,0.6-0.2c0.4,0,0.4-0.4,0.6-0.4c0.6,0,0.6-0.6,1-0.6c0.6,0,0.6-0.6,1-0.6c0.4-0.2,0.6-0.6,0.8-0.6
							c0.4-0.2,0.6-0.4,0.6-1l1-1c0.8-1.8,1.6-2.8,2-4.2c0-0.2,0.2-0.2,0.4-0.4c0.2,0,0.4,0,0.4,0.2c0,0.6,0.6,0.6,0.6,1
							c0,0.4,0.4,0.6,0.6,1c0.2,0.2,0.4,0.4,0.6,0.4c0.6,0.2,1,0.4,1.4,0.6c0.4,0.2,0.6,0.6,1,0.6c0.4,0.4,0.8,0.6,1.2,1
							c0.6,0.6,0.6,1.2,1.2,1.8c0.2,0.2,0,0.6,0.2,0.6c0.2,0.2,0.2,0.6,0.4,0.6c0.2,0.2,0,0.6,0.4,1c0.2,0.2,0.2,0.6,0.4,0.6
							c-0.2,0.4,0.6,0.6,0.4,0.8l1,1c0.4,0.4,0.6,0.6,1,1c0.6,0,0.6,0.6,1,0.6c-0.2,0.4,0.2,0.6,0.4,0.6v0.8l-0.4,0.4v1.2
							c-0.4,0.2-0.4-0.4-0.6-0.2c-0.4,0.2-0.4-0.4-0.6-0.4c-0.4,0-0.4-0.4-0.8-0.2l-1,1.2h-0.6l-1.2,1.2h-2.8l-0.4,0.4h-2.2
							c-0.4,0.4-1,0.6-1.4,0.8v-0.6c0.2,0.4,0.6,0,0.8,0.4c0.2,0.2,0.6,0.2,0.8,0.4c0.4,0.2,0.6,0,0.8,0.2c0.2,0.2,0.6,0.2,0.6,0.4
							c0.2,0.2,0.4,0,0.6,0c0.2,0.2,0.2,0.2,0.4,0.4h1.6c0.2,0.2,0.2,0.4,0,0.6c-0.2,0.2-0.6,0.6-0.6,0.8c-0.2,0.4-0.4,0.6-0.6,0.6
							c0,0-0.2,0-0.2,0.2h-0.2h-3.8L427,86h-2.6c-0.4,0.2-0.6,0.4-1.2,0.6c-0.4,0-0.4,0.4-0.6,0.4c-0.4,0-0.4,0.4-0.6,0.4
							c-0.4,0.2-0.8,0.4-1.2,0.6c-0.2,0.2-0.6,0.6-0.8,0.8s-0.4,0.6-0.6,1V91l0.4,0.4v1.6c-0.4,0.2-0.2,0.6-0.6,0.6
							c-0.4,0.2,0,0.6-0.4,1c-0.4,0.2-0.2,0.6-0.6,0.6v1.2l-0.4,0.4v1.2l-0.4,0.4c0,0.4,0,0.8,0,1.2l-0.2,0.2c-0.2,0.4,0,0.6-0.2,1
							l-0.4,0.4v1.2l-0.4,0.4v1.2l-0.4,0.4v0.8c-0.2,0.2-0.2,0.2-0.4,0.4v0.6l-0.4,0.4v0.6c-0.2,0.4-0.4,0.6-0.6,0.8
							c-0.4,0.4,0,0.6-0.2,0.8c-0.4,0.4-0.2,0.6-0.4,1c-0.2,0.2-0.2,0.6-0.2,0.8l-0.4,0.4c0,0.4,0,0.6-0.2,0.8
							c-0.2,0.2-0.4,0.6-0.4,0.8c0,0.4-0.4,0.6-0.4,1c0.2,0.4-0.4,0.6-0.4,0.8c0,0.4-0.2,0.6-0.4,0.8s0.2,0.6-0.2,0.6
							c-0.2,0.2-0.2,0.6-0.4,0.6c0,0.4-0.2,0.8-0.4,1.2c-0.2,0.4-0.4,0.8-0.6,1.2c-0.2,0.4-0.4,0.8-0.6,1.2
							c-0.2,0.4-0.4,0.8-0.6,1.2c-0.2,0.4-0.4,0.8-0.6,1.2c-0.2,0.4-0.4,0.8-0.6,1.2c0.2,0.4-0.6,0.6-0.4,1.2
							c-0.2,0.4-0.4,0.6-0.4,1.2c0,0.4-0.4,0.8-0.4,1.2c-0.4,0.2-0.4,0.6-0.6,1c-0.2,0.4-0.4,0.6-0.6,1c-0.2,0.4-0.6,0.6-0.8,0.8
							h0.4l-2.6,2.6h-0.4l-2.2,2.2h-5.5l-1.2,1.2c-0.4,0.6-0.8,1-1.4,1.4c-0.6,0.4-1.2,0.8-1.6,1.4c-0.6,0.6-0.8,1-1.4,1.4
							c-0.4,0.2-0.8,0.6-1.2,0.8c-0.4,0.4-0.6,0.6-1,1v0.6l-0.4,0.4v0.6l-0.4,0.4v0.8l-0.4,0.4v0.6l-0.4,0.4c0,0.2,0,0.4,0,0.6
							c0,0.4-0.4,0.4-0.4,0.6s0,0.6-0.2,0.6s-0.4,0.4-0.2,0.6c0,0.2-0.2,0.4-0.4,0.6v0.8l-0.4,0.4v0.6l-0.4,0.4v0.8
							c-0.2,0.2-0.2,0.2-0.2,0.2c0,0.6-0.6,1-0.4,1.8c-0.2,0.6-0.4,1-0.6,1.4v0.2v0.8l-0.4,0.4v1.8l0.4,0.4v1.2l0.4,0.4v1.2
							c0.2,0.2,0.2,0.2,0.4,0.4v1.2l0.4,0.4v0.8l0.4,0.4v1.2l0.4,0.4v1.2l0.4,0.4v1.2l0.4,0.4v1.2l0.4,0.6v0.8l0.4,0.4v1.2l0.4,0.4
							v1.2l0.4,0.4v1.2l0.4,0.4v1.2l0.4,0.4v0.8l0.4,0.4v1.2l0.4,0.4v1.2l0.4,0.4v1.2l0.4,0.4c0,0.4,0,0.8,0,1.2l0.2,0.2
							c0.2,0.4,0,0.6,0.2,1c0,0.2,0.2,0.2,0.4,0.4v1.2l0.4,0.4v1.2l0.4,0.4v1.2l0.4,0.4v0.8l0.4,0.4c0.2,0.4,0,0.8,0,1.2l0.4,0.4
							v1.2l0.4,0.4v1.2c0.2,0.2,0.2,0.2,0.4,0.4v0.8l0.4,0.4v1.2l0.4,0.4v1.2l0.4,0.4v1.2l0.4,0.4v1c0,0.2-0.2,0.2-0.2,0.4
							c0,0.4-0.6,0.6-0.4,1c0.2,0.4-0.4,0.6-0.4,0.8c-0.4,0.2-0.4,0.6-0.6,0.8c-0.2,0.4,0,0.8-0.4,1c0,0.4-0.6,0.6-0.4,1.2
							c0,0.2-0.2,0.4-0.4,0.6c-0.2,0.4-0.2,0.6-0.4,0.8c-0.4,0.4,0,0.8-0.4,1.2c-0.2,0.2-0.4,0.6-0.4,0.8s-0.2,0.2-0.4,0.6v1.2
							l-0.4,0.4v1.8l-0.4,0.4v2.2l-0.4,0.4c-0.2,0.4,0.2,0.4,0.4,0.6v1.8l0.4,0.4v1.8l0.4,0.4v1.2c0.4,0.4,0.4,0.8,0.6,1
							c0,0.4,0.4,0.6,0.6,1c0.2,0.4,0.4,0.6,0.6,1c0.2,0.4,0.4,0.6,0.6,1c0.2,0.4,0.2,0.6,0.6,1c0.4,0.4,0,1,0.6,1.2
							c0.2,0.8,0.8,1.4,1,2c0.6,0.2,0,0.8,0.6,1c0.4,0.8,0.8,1.8,1.4,2.6v0.2l0.8,1c-0.2,0.6,0.6,0.6,0.6,1.2c0,0.2,0.2,0.2,0.2,0.2
							c0.2,0.2,0.6,0.4,0.6,0.6c0.2,0.4,0.4,0.6,0.6,0.8c0.4,0.2,0.2,0.6,0.6,0.6v1.8l0.4,0.4v1.8l-0.4,0.4v5.3
							c0.4,0.6,0.8,0.6,1.6,0.8l1,1v0.8l0.4,0.4v2.8c-0.2,0.2-0.2,0.2-0.2,0.2c0,0.6-0.6,1.2-0.4,1.8l-0.4,0.4v1.6l0.4,0.4v0.6
							c0.4,0.2,0.6,0.6,0.8,0.8c0.6,0.2,1.4,0.8,1.8,0.8h0.2c0.4,0.2,0.6,0.6,1.2,0.6c0.4,0.2,0.8,0.2,1.2,0.6
							c0.4,0.2,0.6,0.2,0.8,0.2c0.2,0.2,0.4,0.4,0.6,0.4l1.8,1.8v0.8l0.4,0.4v1.6c-0.2,0.2-0.4,0.2-0.4,0.6c0,0.2-0.2,0.4-0.4,0.6
							c0,0.2-0.4,0.4-0.6,0.6c-0.2,0.2-0.4,0.4-0.6,0.4c-0.4,0.6-1.2,0.6-1.8,1.2c-0.4,0.2-0.8-0.2-1,0.4c-0.4,0-0.6,0.4-1.2,0.4
							c-0.4,0-0.6,0.4-1.2,0.6h-1l-0.4,0.4h-1.6l-0.4,0.4h-1.4l-0.4,0.4h-1.8l-0.4,0.4c-0.6,0.2-1.2,0-1.8,0l-0.4,0.4h-1.2l-0.6,0.6
							c0.2,0.2,0.2,0.2,0.4,0.2l1.4,1.4c-0.6,0.6-1.2,0.6-2,1.2l-1.2,1.2c0,0.2,0,0.6-0.2,0.6l-0.2,0.2v2.6l0.4,0.4v1.2l0.4,0.4v2
							l-1.4,1.4c-0.2,0.2-0.4,0.2-0.6,0.4c-0.2,0.2-0.6-0.2-0.6,0.2c-0.2,0.2-0.6,0-0.8,0.2c-0.2,0.2-0.6,0.2-0.6,0.4
							c-0.2,0.4-0.6,0.2-0.8,0.2l-0.4,0.4h-0.6l-0.4,0.4h-0.4c-0.6,0.6-1.6,1.2-1.8,2.2v0.8l-0.4,0.4v0.8l0.4,0.4v1.8l0.2,0.2
							c0,0.2,0,0.2,0.2,0.4c0,1.2,0,2.2,0,3.2l-1.4,1.4H380l-0.6,0.8v2.8l0.2,0.4c0,0.4,0.2,0.6,0.2,1c0.6,0.2,0,0.8,0.4,1
							c0.4,0.2,0,0.6,0.4,1c0.2,0.2,0.4,0.6,0.4,0.8c-0.4,0.6-0.6,0.8-1.2,1c-0.4,0.2-0.8,0.4-1,0.6c-0.6,0.2-0.6-0.4-0.8-0.4
							c-0.4,0-0.6-0.4-1-0.4s-0.6-0.4-0.8-0.4c-0.2,0.2-0.4-0.2-0.6-0.2c-0.4,0-0.6-0.6-1-0.4c-0.4,0.2-0.6-0.4-1-0.4
							c-0.4,0.2-0.4-0.4-0.8-0.4c-0.4,0.2-0.6-0.4-0.6-0.4c-0.4,0-0.6-0.4-0.8-0.4c-0.2,0-0.6,0-0.6-0.2c0-0.2-0.6,0.2-0.8-0.2
							c-0.2-0.4-0.6-0.2-0.8-0.4c-0.2-0.2-0.4,0-0.6,0l-1.8-0.4h-2.4l-0.2-0.2c-0.2,0-0.2-0.2-0.2-0.2c-0.6,0-1,0-1.6,0
							c-0.2-0.4-0.6-0.2-0.8-0.6c-0.6-0.6-1.2-1.2-1.8-1.8c0.2-0.6-0.6-0.6-0.6-1.2c0-0.4-0.6-0.6-0.6-1c0-0.2-0.4-0.6-0.6-0.6v-0.4
							l-1.8-1.8c-0.4,0-0.6-0.6-1.2-0.4l-0.4-0.4h-0.6l0.4-10.1c-0.2,0-0.2-0.2-0.4-0.2c-0.4,0-0.6,0-1,0l-0.2,0.2
							c-0.2,0-0.2,0-0.4,0.2c-0.6,0-0.8,0-1.4,0l-1.6-1.6h-1c-0.4,0.2-0.6,0.4-0.8,0.6c-0.6,0.4-0.6,0.8-0.8,1.2
							c-0.2,0.4-0.2,0.8-0.6,1.2c0,0.4-0.2,0.8-0.4,1.2c-0.2,0.2-0.4,0.4-0.4,0.6c0,0.2-0.2,0.4-0.2,0.6c-0.2,0.2-0.2,0.4-0.2,0.6
							c-0.2,0.2-0.4,0.4-0.4,0.6c-0.2,0.2-0.4,0.4-0.4,0.6c-0.2,0.4-0.6,0.4-1,0.6h-6.3l-0.4,0.4c-0.4,0-0.6,0-0.8,0.2
							c-0.4,0.2-0.8,0.4-1.2,0.6c-0.4,0.2-0.6,0.6-1,0.6c-0.2,0.2-0.2,0.2-0.4,0.2l-1.8,1.8c-0.2,0.4-0.6,0.6-0.4,1.2
							c-0.4,0.2-0.2,0.6-0.4,0.6c-0.2,0.2-0.4,0.6-0.6,0.6c-0.6,0.2-0.8-0.4-1.4-0.4c-0.4-0.6-0.8-0.6-1.2-0.8
							c-0.6,0.2-1,0.6-1.4,0.8c-0.4,0.4-0.8,0.6-1.4,0.6c-0.4-0.2-0.6-0.4-0.6-0.6c0-0.2-0.6-0.6-0.8-0.6c-0.2-0.2-0.4-0.6-0.6-0.6
							c-0.2-0.4-0.4-0.6-0.6-0.6c-0.2,0-0.2-0.6-0.4-0.8c-0.6-0.4-0.6-0.8-1-1.2c-0.4-0.4-0.6-0.6-1.2-1c-0.4,0.2-0.6-0.6-0.8-0.4
							c-0.2-0.4-0.6-0.4-1-0.6c-0.6,0.2-0.6-0.2-1.2-0.4c-0.4-0.2-0.6-0.4-1-0.6c-0.4-0.2-0.6,0.2-0.8-0.2c-0.2-0.2-0.6-0.4-0.6-0.4
							c-0.6-0.2-1.2-0.6-1.6-1c-0.4-0.4-0.8-0.6-1.2-0.8c-0.6,0-0.6-0.4-0.8-0.6c-0.2-0.4-0.6-0.6-0.8-1c-0.4-0.4-0.6-0.6-1-1v-0.2
							c-0.4-0.4-0.6-0.6-0.6-1c-0.2-0.4-0.6-0.6-0.6-1c-0.2-0.4-0.2-0.6-0.6-0.8s-0.2-0.6-0.6-0.8c0-0.4-0.4-0.6-0.6-0.8l-0.2-0.2
							c0.2-0.4-0.6-0.6-0.4-0.8c-0.2-0.2-0.6-0.4-0.6-0.6c0-0.6-0.6-0.6-0.6-0.8c-0.4-0.8-1-1.6-1.2-2.2c-0.2-0.4-0.6-0.6-0.6-1.2
							c-0.4-0.4-0.8-0.6-1.2-1.2c-0.2-0.4-0.6-0.8-1-1.2c-0.4-0.4-0.8-0.8-1.2-1.2c-0.4-0.2-0.6-0.6-1-0.8c-0.4-0.4-0.6-0.6-1-1
							c0,0-0.2,0-0.4,0l-1.4-1.4c-1-0.4-1.4-1.4-2-1.8h1.8c-0.2-0.4-0.4-0.6-0.6-0.8c-0.2-0.4,0.2-0.6-0.4-0.6v-2l-0.4-0.4
							c-0.2-0.4,0.2-0.6,0.4-0.6v-0.8c0.2-0.4,0.4-0.6,0.6-1.2v-4c-0.2-0.2-0.4-0.6-0.6-0.8c-0.2-0.2-0.6-0.2-0.8-0.6h-1.8l-0.4-0.4
							h-2.8c-0.2-0.2-0.2-0.2-0.4-0.4h-2.8l-0.2-0.2l-0.2-0.2h-3.2l-0.2-0.2l-0.2-0.2c-0.6,0-1,0-1.6,0c-0.6-0.8-1.6-1.4-1.8-2.2
							v-0.2l-0.4-0.4v-0.6l-0.4-0.4v-0.2l-0.4-0.4c0-0.2,0-0.4,0-0.6s0-0.2,0-0.4c-0.6-0.2-0.2-0.6-0.4-1c-0.4-0.4-0.6-0.6-0.6-1.2
							c0-0.2-0.2-0.2-0.4-0.4h-0.8l-0.4,0.4h-0.6l-0.4,0.4h-0.6c-0.4,0.2-0.8,0.4-1.2,0.6c-0.4-0.2-0.6,0.2-1,0.4
							c-0.6,0-0.8,0.2-1.4,0c-0.4,0.2-0.6,0.6-1,0.4l-0.4-0.4h-1.2c-0.2-0.6-0.8-0.6-1.2-1c-0.4-0.4-0.8-0.6-1-1.2
							c-0.2-0.6-0.6-0.8-0.8-1.4v-1.4l-0.2-0.4v-0.6l-0.8-0.8c-0.4,0.2-0.6-0.2-0.6-0.4h-0.8l-0.4-0.4h-0.8c-0.2,0-0.2-0.2-0.4-0.2
							c-0.4-0.6-1-0.6-1.4-1c-0.6,0-0.8-0.6-1.2-1c-0.4-0.4-1-0.6-1-1.2c0-0.2-0.2-0.2-0.2-0.2c-0.6-0.6-1.2-0.8-1.4-1.8l-1.4-1.4
							l-1.8-1h-1.4l-0.2,0.2c-0.6-0.6-1.2-1-1.4-1.8l0,0l-0.4-0.4c0-0.4,0-0.6-0.2-0.6c-0.2-0.2-0.4-0.6-0.6-1
							c-0.2-0.2-0.4-0.6-0.6-0.6c-0.6,0-0.6-0.4-0.8-0.6h-0.6l-0.6,0.8v2.2c0.2,0.4,0.6,0.4,0.6,0.8c0.4,0.2,0.4,0.6,0.6,1
							c0.2,0.4,0.4,0.6,0.6,1c0.2,0.4,0,0.8,0.4,1v1.4l-0.6,0.6c0.2,0.4-0.2,0.6-0.6,0.6c-0.2,0.2-0.4,0.6-0.6,0.6l-1.8,1.2h-0.8
							c-0.2-0.2-0.4-0.4-0.6-0.4c-0.2-0.2-0.6-0.6-0.6-0.8V242l-0.4-0.4V241l-0.2-0.2c-0.2-0.4,0-0.6-0.2-1l-0.4-0.4v-1l-0.4-0.4
							v-0.2c0-0.4,0-0.6,0-1c-0.2-0.4-0.2-0.6-0.4-1c-0.2-0.4-0.2-0.6-0.4-1c0-0.2-0.4-0.2-0.4-0.6c0-0.4-0.2-0.2-0.4-0.4
							c-0.4-0.4-0.6-0.6-1-0.8h-3.4l-0.8,0.6h1c-0.4,0.6-1.2,0.6-1.6,1.2c-0.4,0.6-0.8,1-1.4,1.4l-1.2,1.2l-1.4,1.4l-1.4,1.4h-0.4
							l-0.6,0.6h-1l-0.4,0.4H223l-0.4,0.4h-1.8c-0.4,0.2-0.6,0.6-1,0.6c-0.2,0.2-0.4,0.4-0.6,0.4c-0.2,0.2-0.4,0.4-0.6,0.6l-1.6,1.6
							h-1.6c-0.2-0.2-0.4-0.6-0.8-0.2c-0.4-0.2-0.6-0.6-0.8-0.6c-0.4,0-0.6-0.2-0.8-0.4c-0.4-0.4-0.6,0-0.8-0.2
							c-0.4-0.4-0.6-0.4-1-0.2c-0.2,0.2-0.2,0.6-0.4,0.6c-0.6,0.6-0.8,1.2-1,1.8c-0.2,0.4-0.6,0.6-0.4,1.2c-0.4,0.2-0.2,0.6-0.6,0.8
							c-0.4,0.4-0.6,0.6-0.8,0.8c-0.2-0.2-0.6,0-0.6,0.4h-2.2l-0.4,0.4h-1.2l-0.4-0.4h-2.8l-0.4-0.4l-0.4,0.4h0.6
							c-0.4,0.6-0.8,0.8-1.2,1.2c-0.4,0.4-0.6,0.2-1,0.6c-0.2,0.4-0.6,0.6-0.8,0.8l-0.6,0.8c-0.8,0.4-1.6,0.6-2,1.2
							c-0.4,0.2-0.6,0.6-0.8,1c-0.2,0.6-0.6,0.8-0.6,1.4l-0.4,0.4v0.6c-0.6,0.6-0.6,1.4-1.2,1.8c-0.6,0.6-1.2,0.6-1.8,1h-1.8
							L188,259c-0.6,0.2-0.8-0.4-1.2-0.4c-0.2-0.4-0.6-0.4-0.8-0.4l-0.6-0.6l1.2-2.4v-1l0.4-0.4v-1.8l0.4-0.4v-0.6l0.4-0.4
							c0-0.2,0-0.4,0-0.6c0.2-0.4,0.4-0.8,0.6-1.2c-0.2-0.6,0.4-0.6,0.4-1.2c0.6-0.2,0.2-0.8,0.4-1c0.4-0.4,0.2-0.6,0.6-0.8
							c-0.2-0.6,0.4-0.8,0.6-1.4c0-0.2,0.2-0.2,0.2-0.2c-0.2-0.6,0.4-0.6,0.4-1.2c0-0.2,0-0.2,0-0.4l0.4-0.4v-0.8l0.4-0.2V241
							l0.4-0.4v-0.8c0.2-0.6,0.6-1.2,0.8-1.6c0.4-0.6,1-0.8,1.4-1.4c0.4-0.6,0.8-0.8,1.2-1.4c0.2-0.8,0.8-1.4,1.2-2v-6.1l0.4-0.4
							v-1.6l0.2-0.2c0-0.2,0-0.2,0.2-0.4c0-0.8,0-1.6,0-2c-0.4-0.2-0.2-0.6-0.4-0.8c-0.4-0.2-0.2-0.6-0.6-0.8v-0.8l-0.4-0.4v-1.8
							l0.4-0.4v-0.6l0.4-0.4c0-0.4-0.2-0.6,0.4-0.8v-3.6c0-0.2,0-0.2,0.2-0.2c0.4-0.2,0.2-0.6,0.4-0.8v0.4c0.4-0.4,0.6-0.6,0.8-0.8
							c0.2-0.4,0.4-0.6,0.6-0.8c0.2-0.4,0.6-0.2,0.8-0.6c0.2-0.4,0.6-0.2,0.6-0.6l0.8-0.8c0.2-0.2,0.4-0.6,0.6-0.6
							c0.2-0.2,0.6-0.6,0.6-0.6v0.2c0.2-0.2,0.2-0.2,0.2-0.2c0.2-0.4,0-0.8,0.4-1v-1.4l-0.4-0.4v-0.8l-0.4-0.4v-0.2
							c-0.6-0.2-0.6-0.8-0.8-1.2c-0.4-0.4-0.8-0.8-1.2-1.2c-0.4-0.4-0.6-0.8-1.2-0.8c-0.4-0.6-0.8-0.8-1.4-1.2
							c-0.6-0.4-0.8-1-1.4-1.2c-0.6-0.2-0.8-0.6-1.2-1h-0.4c-0.2,0-0.2,0-0.4,0c0,0-0.2,0-0.2-0.2c-0.4-0.4-1-0.4-1.4-0.8h-1.8
							l-0.4-0.4H190c-0.4,0.2-0.6,0.2-0.8,0.4c-0.4,0.2-0.6,0.2-0.8,0.6c-0.4-0.2-0.6,0.4-0.6,0.6c-0.2,0.2-0.6,0.4-0.6,0.6
							c0.2,0.4-0.4,0.6-0.4,0.8c0,0.2-0.2,0.6-0.4,0.6c-0.2,0.2-0.2,0.6-0.4,0.6c-0.4,0.2-0.2,0.6-0.2,0.8l-0.4,0.4v2l-0.4,0.4
							c-0.2,0.6,0,1.2,0,1.8c-0.4,0.6-0.6,1.2-0.8,1.8c-0.2,0.4-0.4,0.8-0.6,1.2c-0.2,0.2-0.2,0.6-0.2,0.6c-0.4,0.2-0.2,0.6-0.6,0.8
							c-0.6,0.4-0.6,1-1.2,1.6c-0.4,0.2-0.6,0.2-0.8,0.6h-1.8l-0.4-0.4h-0.8l-0.4-0.4h-1.2c0.2,0,0,0,0,0c-0.4,0.6-0.8,0.6-1,1.2
							c-0.2,0.4-0.6,0.6-0.6,1c0,0.4-0.2,0.6-0.4,1.2c-0.2,0.6-0.4,0.8-0.6,1.2c-0.6,0.2-1-0.2-1.4-0.4c-0.4-0.4-0.8-0.6-1.2-1
							c-0.2-0.4-0.4-0.6-0.6-0.8c-0.2-0.6-0.6-1-0.8-1.4c-0.2-0.2-0.2-0.6-0.4-0.6c0-0.4-0.4-0.6-0.6-0.6h-0.4
							c-0.8-0.8-1.8-1.8-2.6-2.6c-0.4-0.4-0.6-0.6-0.6-1c-0.4-0.4-0.6-0.6-0.8-0.8c-0.4-0.4-0.6-0.6-1-0.6c-0.2-0.2-0.6,0-0.6-0.2
							c0-0.2-0.6,0-0.6-0.4c-0.2-0.4-0.6,0-0.6-0.2s-0.2-0.4-0.6-0.4c-0.2,0-0.4-0.2-0.6-0.4h-0.8l-0.4-0.4h-1.8l-0.4-0.4h-0.6
							l-1.2-1.2v-0.2c-0.2-0.4-0.6-0.6-0.8-0.8c-0.6,0.2-0.6,0.6-1.2,0.8h-1.2c-0.4-0.6-0.8-0.8-1.4-0.8c-0.4,0.2-0.6,0.6-0.6,0.8
							c-0.2,0.4-0.4,0.6-0.6,0.8H149l-0.4-0.6c0-0.2,0-0.6-0.2-0.8c-0.2-0.4,0.2-0.6-0.4-0.8c0-0.4,0-0.6-0.2-1l-0.4-0.4v-1.8
							l-0.4-0.4v-1c-0.6-0.6-0.6-1.4-1.6-1.8h-0.2c-0.2-0.2-0.2-0.4-0.2-0.4c-0.2-0.2-0.4-0.6-0.6-0.6v-0.6l-0.2-0.2
							c-0.2-0.4,0-0.6,0-0.8l-0.4-0.4v-1.2l0.4-0.4v-2l0.4-0.4v-4.7l-0.4-0.4v-2.8c-0.6-0.4-0.6-1-1-1.4l-1.8,0.8h1.6
							c-0.2,0-0.2-0.4-0.6-0.4l-1.4-1.4l-0.6-0.2c0-0.4-0.4-0.6-0.6-0.8s-0.2-0.6-0.4-0.6c-0.2-0.2,0-0.6-0.4-0.8c0-0.6,0-1.6,0-2
							h-0.6c-0.8,0.4-0.8,1.2-1.4,1.8c0,0.2,0.2,0.6,0,0.6c-0.2,0.2-0.4,0.6-0.4,0.8c-0.2,0.2-0.2,0.4-0.4,0.4c-0.2,0-0.4,0-0.4-0.2
							c-0.4-0.4-0.6-0.6-1-1c0.2-0.6-0.4-0.8-0.4-1.2l0.4-0.4v-0.8c0.4-0.6,0.6-1.2,0.8-1.8v-0.6c0.2-0.4,0.6-0.4,0.4-0.6l-0.2-0.4
							v-1l-0.4-0.4v-0.8l-0.2-0.2c-0.2-0.4,0-0.6-0.2-1l-0.4-0.4v-1.2l-0.4-0.4v-1.8l-0.4-0.4v-1.2l0.4-0.4V158
							c0.4-0.4,0.6-0.8,0.8-1.4h1.2l0.4,0.4h0.6l0.6-0.6v-0.6l-1.2-1.2v-2.8l1-0.6c0.2,0,0.4,0.6,0.6,0.4c0.4,0,0.6,0.2,0.8,0.4
							c0.4,0.2,0.6,0.2,0.8,0.6h1.8l0.2-0.2c0.4-0.2,0.6,0,1.2-0.2c0.4-0.4,1.2-0.2,1.8-0.6h1.2l0.4-0.4h1.8c0.2,0.4,0.6,0.4,1,0.6
							c0.6,0,0.6,0.6,0.8,0.6c0.6,0.2,0.6,0.6,1,0.6c0.4,0.2,0.6,0.4,0.8,0.6h0.8l0.6,0.4h1.6c0.4-0.4,0-0.6,0.2-0.8l0.2-0.2
							c0.2-0.6-0.6-0.6-0.4-1.2c-0.2-0.2-0.2-0.2-0.4-0.4c-0.2-0.4-0.6-0.2-0.6-0.4c-0.2-0.2-0.4-0.4-0.6-0.6v-1.8l0.4-0.4v-0.6
							c0.2-0.4,0.6-0.6,0.8-0.8h1.4c0.8,0.6,1.6,0.8,2.2,1.2c0.2,0.2,0.4,0.4,0.6,0.4s0.4,0.2,0.4-0.2c-0.2-0.4-0.6-0.6-0.6-1
							c-0.4-0.4-0.6-0.6-0.8-0.8c-0.4-0.4-0.8-0.4-1-0.8c-0.2-0.4-0.6-0.4-0.8-0.6h-3.2l-1.4,1.4v0.2c-0.4,0.4-0.6,0.2-0.8,0.2
							l-0.2-0.4l-1-1h-1.8l-0.2,0.2c-0.4,0-0.6,0-1,0.2c-0.4,0.2-0.6,0.2-0.8,0.2c-0.4,0.2-0.6,0.4-1,0.4l-0.4-0.4h-4.9
							c-0.4,0.4-0.8,0.4-1.2,0.6c-0.2,0.4-0.6,0.4-1,0.6c-0.4,0.4-0.4,0.8-0.6,1h-0.8l-0.4-0.4h-0.8l-0.4-0.4c-0.2,0-0.6,0-0.6,0.2
							c-0.2,0.2-0.4,0.4-0.6,0.2c-0.4,0-0.4,0.4-0.6,0.4c-0.6-0.2-0.6,0.4-1.2,0.4c-0.2,0.4-0.6,0.2-0.6,0.6c-0.2,0.4-0.6,0-0.8,0.2
							c-0.2,0-0.2,0.2-0.4,0.2c-0.2-0.2-0.2-0.4-0.2-0.6c0.2-0.6,0.6-0.8,0.6-1.2c0.4-0.4,0.6-0.8,0.6-1.2c0.2-0.2,0.4-0.6,0.4-0.8
							c0.2-0.6,0.6-1,0.8-1.4c0.4-0.4,0.8-0.6,1.2-0.8h1.2c0.4-0.4,0.8-0.4,1.2-0.8v-1.2c-0.2-0.2-0.6-0.6-0.6-0.6
							c-0.4-0.2-0.2-0.6-0.6-0.8c-0.4-0.2-0.6-0.4-0.6-0.8c0-0.6-0.6-0.6-0.6-1l-0.6-0.8c-0.2-0.2-0.2-0.6-0.6-0.8
							c-0.4-0.2-0.2-0.6-0.6-0.8v-0.8l-0.2-0.2c-0.2-0.4,0-0.6-0.2-1c-0.4-0.4-0.6-0.6-0.6-0.8c-0.2-0.4-0.6-0.6-0.6-1
							c-0.4-0.4-0.6-0.8-0.6-1.2v-2.8c0.6-0.4,0.6-1.2,1.4-1.6h5.1c0.4-0.2,0.6-0.6,0.6-0.8c0.2-0.4,0.6-0.6,1-1
							c0.4,0.2,0.4,0.4,0.6,0.6c0.4,0.2,0.6,0.2,0.6,0.4h1.2c0,0,0-0.2,0.2-0.2c0.6-0.4,1-0.4,1.4-0.8c0.4-0.6,0.8-0.8,1.2-1.2
							l0.6-0.6v-0.6l0.2-0.2c0-0.2,0-0.2,0.2-0.4c0-0.6,0-0.8,0-1.4l-0.4-0.4v-1.8l-0.4-0.4c0.2-0.8-0.4-1.4-0.6-2
							c-0.2-0.4-0.4-0.6-0.6-1c-0.6-0.4-0.8-0.8-1.2-1.2c-0.4,0-0.4,0-0.6,0.2c0,0.2,0,0.4,0.2,0.4c0.4,0.4,0.8,0.8,1.2,1.2
							c0.6,0.6,0.8,1.4,1.4,1.8c0.2,0.2,0,0.4,0,0.6l-0.6,0.6c-0.6-0.2-0.8,0.6-1.6,0.4c-0.4,0.2-0.6,0.6-0.6,0.6
							c-0.2,0.4-0.2,0.6-0.6,0.6c-0.4,0.2-0.2,0.6-0.6,0.8v1.8l-0.6,0.6h-0.2c-0.8-0.4-0.8-1.4-1.8-1.8h-0.2l-0.4-0.4H134l-0.4-0.4
							h-0.4l-0.4-0.4h-0.4c-0.4-0.4-0.6-0.6-0.8-0.8c-0.4-0.2-0.6-0.4-0.8-0.6l-0.6-1c-0.2-0.4-0.6-0.6-0.6-1
							c-0.2-0.4-0.6-0.6-0.4-1c0.6-0.2,1.2,0,1.8-0.2c0.2-0.2-0.2-0.2-0.2-0.6v-1l-0.4-0.4v-0.2l0.4-0.4c0-0.8,0.2-1,1.6-2.2v-0.2
							v-0.6c0.6-0.8,1.6-1.6,2-2h0.6l1.2,1.2c0.2-0.2,0.2-0.2,0.2-0.2c0-1.8,0-4,0-5.7l-0.4-0.4c0-0.4,0-0.6-0.2-0.8
							c-0.2-0.2,0.2-0.6-0.2-0.8c-0.4-0.2,0-0.6-0.4-1c-0.2-0.2-0.2-0.6-0.6-0.6c0.2-0.6-0.6-0.8-0.4-1.4c0-0.4-0.4-0.4-0.4-0.6
							c0.2-0.4-0.4-0.6-0.4-1s0-0.6,0-1l-0.4-0.4v-1.2l-0.4-0.4v-1.2l-0.4-0.4c0.4-0.2,0.6-0.6,0.8-0.6c0.4,0,0.6-0.6,1-0.6
							c0.6,0,0.6-0.6,1-0.6c0.4,0,0.6-0.4,1-0.6h0.8l0.4,0.4h0.6L138,91c0.2,0,0.2,0,0.4,0.2c0.4,0,0.6,0,1,0
							c0.2-0.4,0.8-0.6,0.8-1.2c0.2-0.2,0.4-0.4,0.6-0.6c0.6-0.2,1-0.6,1.4-0.8c0.6-0.6,1.2-1.2,1.8-1.8h1.2c0.2,0,0.2,0.2,0.2,0.2
							c0.4,0.4,0.6,0.6,1.2,1.2c0.4,0.6,0.8,0.6,1.2,1c0.4,0.4,0.6,0.6,1.2,1.2c0.2,0.2,0.6,0,0.6,0.4c0.6-0.4,0.8-0.8,1.2-1.4v-1.8
							l-0.6-1.4l-0.4-0.2c-0.2-0.4,0-0.6-0.2-0.8c0.6-1.2,0.6-1.4,1.8-1.8h5.7l0.4,0.4h0.8l0.4,0.4h2.8l0.4-0.4h0.6l0.4-0.4
							c0.2,0,0.6,0,0.6-0.2c0.2-0.2,0.4-0.4,0.6-0.4c0.4,0,0.4-0.2,0.6-0.2s0.6-0.2,0.6-0.4h1.6l0.4-0.4h2c0.2,0.4,0.6,0.6,0.8,0.8
							c0.2,0.6,0.6,0.6,0.8,1c0.4,0.4,0.6,0.6,0.8,0.8c0-0.6,0.6-0.6,0.6-1.2c0.4-0.2,0.4-0.6,0.6-0.8c0.2-0.2,0-0.6,0.4-1l-0.4-0.4
							v-0.8l-0.4-0.4c0.2-0.6-0.2-0.8-0.6-1.4c-0.2-0.4-0.6-0.6-0.8-1c0-0.4-0.6-0.6-0.6-1l-0.6-0.6c-0.2-0.2-0.2-0.6-0.6-0.8
							c-0.4-0.2-0.6-0.6-0.6-0.8c0-0.2-0.4-0.4-0.6-0.6c-0.2-0.4-0.4-0.6-0.4-0.8c0-0.2-0.2-0.2-0.2-0.2v2.2
							c0.2-0.4,0.4-0.8,0.6-1.2c0.2-0.4,0.4-0.8,0.6-1.2c0.4-0.4,0.8-0.4,1.2-0.6c0.4,0.2,0.4-0.2,0.6-0.2c0.6-0.2,0.6,0.2,0.8,0.2
							c0.6,0.2,1,0.4,1.4,0.6c0.4,0.4,0.8,0.4,1.2,0.6c0.4,0.4,0.6,0.6,0.8,0.8c0.6,0.4,0.8,0.8,1.2,1.2v0.6l1.8,1.8
							c0.2,0,0.4,0,0.4,0.2c0.2,0.4,0.6,0.2,0.8,0.6h1.2c0.2-0.2,0.4-0.4,0.6-0.4l0.6-0.6v-0.4l-0.4-0.4v-0.8
							c-0.4-0.4-0.4-0.8-0.6-1c-0.4-0.2-0.4-0.8-0.6-1c-0.4-0.4-0.6-0.6-0.8-0.8l-1-1c-0.2-0.4,0.2-0.6,0.4-0.6l0,0
							c0.4-0.2,0.6-0.4,1-0.6h3.6l0.2-0.2c0.2,0,0.2-0.2,0.2-0.2h1.8c0.4-0.4,1-0.6,1.6-0.6c0.4-0.4,0.8-0.6,0.8-1.2
							c0.6-0.2,0-0.8,0.6-1.2v-1.6l0.4-0.4v-1.2l0.4-0.4v-0.8c0.2-0.6,0.8-0.4,1-0.8h0.8l0.4-0.4h1l0.2-0.4h0.8l0.6-0.4
							c0.2,0,0.4,0.2,0.6,0.4h0.8c0.2,0.2,0.4,0.6,0.6,0.4c0.4,0.4,0.8,0.8,1.2,1.2c0.4,0.4,0.8,0.8,1.2,1.2c0.4,0.6,0.8,0.8,1,1.2
							c0.2,0,0.2,0,0.4,0c0.2,0.2,0.2,0.2,0.4,0.4h0.8l0.4-0.4h0.4l1.8-1.8c0.4,0.2,0.4-0.2,0.6-0.4c0.2,0.2,0.2,0.2,0.4,0.4
							c0.6,0.2,1.2,0.4,1.6,0.6c0.4,0.2,0.6,0.2,0.8,0.6c0.2,0.4,0.6,0.6,0.8,0.6c0.4,0.2,0.6,0.6,0.8,0.6c0.4,0.2,0.6,0,0.6,0.4
							h1.6l0.6-0.6c0.2-0.4-0.6-0.6-0.4-0.8c-0.4-0.4-0.6-0.6-0.6-1c-0.2-0.2-0.6-0.2-0.6-0.4c-0.4,0-0.6-0.4-0.6-0.6v-0.8
							c0.2,0,0.2-0.2,0.2-0.2c0.6,0,1.4,0,1.8,0c0.2-0.4,0-0.6,0.2-1.2c0-0.2,0.2-0.2,0.4-0.4v-1.2l0.6-0.8c0.6-0.2,0.8,0.2,1.2,0.4
							c0.4,0.2,0.6,0.6,0.8,0.8c0,0.6,0.6,0.6,0.6,1c0,0.4,0.2,0.6,0.4,0.8c0.4,0.4,0.2,0.6,0.2,0.8l0.4,0.4v0.6
							c0.6,0.6,0.6,1.4,1.4,1.8c0.2,0,0.4-0.2,0.6-0.4h0.8c0.6-0.6,0.8-1,1.4-1.6c0.2-0.6,0.6-1.2,0.8-1.8c-0.2-0.8,0.6-1.2,0.6-1.8
							l-0.4-0.4v-0.8c-0.2,0-0.2-0.2-0.2-0.2c-0.2-0.4-0.4-0.6-0.6-1.2l-1.2-1.2v-0.6l-0.4-0.4V52l-0.4-0.4v-1.4
							c0.2-0.2,0.6-0.4,0.6-0.6c0.2,0,0.6-0.6,0.6-0.6c0.4,0,0.6-0.6,0.8-0.4c0.2,0.2,0.4,0.4,0.6,0.6c0.4,0.4,0.6,0.8,1.2,1
							c0.4,0.6,0.8,0.6,1,1.2c0,0.2,0.2,0.2,0.2,0.2c0.4,0.6,1,0.6,1.2,1.4l1.2,1.2v0.4l1.2,1.2c0,0.2,0,0.2,0,0.4s0.2,0.2,0.2,0.2
							c0.4-0.2,0.6,0.6,1,0.4c0.2-0.2,0.4,0.2,0.6,0.2c0.2,0.2,0.6,0.2,0.6,0c0.4-0.4,0.6-0.2,1.2-0.4c0.2,0,0.2-0.2,0.2-0.2h0.8
							l0.4-0.4h0.8l0.4-0.4h1l0.2-0.2c0.2-0.2,0.2,0.2,0.4,0.2c0.6,0,1.4,0.4,1.8,0.8c0.2,0.2,0.6,0.2,0.8,0.4
							c0.2,0.2,0.4,0.4,0.6,0.4C234.3,58.7,234.7,58.9,234.8,59.1z"/>
					</g>
				</g>
			</g>
		</g>
		<g>
			<g>
				<g>
					<g>
						<path id="SVGID_8_" class="st3" d="M50,230.1l0.4-0.4v-1c0.4-0.2,0.4-0.6,0.4-0.8c0.2-0.2,0.6-0.6,0.6-0.8
							c0.2-0.6,0.6-0.6,0.6-1c0-0.6,0.6-0.6,0.6-0.8c0-0.6,0.4-0.6,0.6-0.8v-0.4l-1.4-1.4c-0.4,0.2-0.4-0.4-0.6-0.4
							c-0.4,0-0.6-0.4-0.8-0.4c-0.4,0.2-0.4-0.4-0.6-0.4s-0.6,0.2-0.8-0.4h-1.6l-0.4-0.4h-1.2l-0.4-0.4h-0.6l-1.6-1.8
							c0-0.4-0.2-0.6-0.4-1.2c-0.2-0.4-0.6-0.6-0.4-1.2c-0.4-0.2-0.4-0.6-0.6-0.8c-0.2-0.2,0-0.8-0.4-1c0-0.4-0.6-0.6-0.4-1
							l-1.8-1.8h-1.8l-0.4-0.4h-2.6l-0.2-0.2l-0.2-0.2c-0.2,0-0.4,0-0.6,0c-0.4,0-0.4-0.4-0.8-0.4l-1.8-1.8c0.2-0.4-0.4-0.6-0.4-0.8
							c-0.4-0.8-0.8-1.4-1-2.2c0-0.2-0.2-0.2-0.2-0.2v-1.2c0.2-0.2,0.6-0.6,0.8-0.6h2.2l0.4,0.4h0.6l0.4,0.4h0.6
							c0.2,0.2,0.4,0.4,0.6,0.4c0.2,0,0.2-0.2,0-0.2c-0.4-0.2-0.2-0.6-0.6-0.8c-0.2-0.2,0-0.4,0-0.6c-0.6-0.2-0.6-0.8-0.8-1.2
							c-0.4-0.6-0.6-1-0.6-1.4v-1.2c0.4-0.4,1-0.4,1.4-0.8c0.4,0.2,0.4,0.6,0.8,0.6c0.6,0.2,0.6,0.6,0.8,0.8
							c0.4,0.6,0.6,1.2,1.4,1.8h0.6l0.6-0.6c0-0.2,0-0.6-0.4-0.6v0.6l-0.4-0.6c0-0.6,0.6-0.6,0.6-1.2c0-0.6,0.6-0.4,1-0.6h1.4
							l0.4,0.4c0-0.2,0.2-0.2,0.2-0.4c-0.2-0.4-0.4-0.8-0.6-1.2v-0.8c-0.2-0.2-0.4-0.4-0.4-0.4c0.2-0.6-0.4-0.8-0.4-1.2
							c-0.2-0.4-0.2-0.6-0.6-1c-0.2-0.4-0.4-0.8-0.6-1.2c-0.4-0.6-0.6-1.4-1.2-1.8c0.2-0.4-0.4-0.6-0.4-0.8c0-0.2-0.6-0.4-0.6-0.6
							c-0.2-0.4-0.4-0.6-0.6-0.8c-0.4-0.2-0.2-0.6-0.6-0.8c-0.4-0.2-0.4-0.6-0.6-0.8c-0.2-0.4-0.4-0.6-0.6-1c-0.2-0.4-0.4-0.6-0.6-1
							c-0.2-0.4-0.6-0.6-0.8-0.8c-0.2-0.6-0.6-0.8-1.2-1.4c-0.4-0.4-0.6-0.6-1-1c-0.4-0.4-0.6-0.6-0.8-1c-0.2-0.4-0.6-0.6-0.8-1
							v-1.4c0.2,0,0.2-0.2,0.2-0.2c1,0.6,1.8,1,2.8,1.6h1.8l0.4-0.4c0-0.8,0.6-1.2,0.8-1.8h2.8c0.2,0.2,0.4,0.2,0.6,0.4
							c0.2,0,0.4,0,0.6,0.2c0.2,0.2,0.4,0.4,0.6,0.2c0.4,0.4,0.6,0.6,0.8,1c0.4,0.4,0.6,0.6,1,1c0,0,0,0.2,0.2,0.4
							c0.6,0.6,0.8,1.4,1.2,1.8c0.6,1.2,1.2,2,1.8,3c0,0.2,0.2,0.2,0.2,0.2v1.2l0.4,0.4c0.2,0.6,0,1.2,0,1.8
							c0.2,0.2,0.6,0.2,0.6,0.6l0.8-0.8V189l-0.4-0.4v-4.2l0.4-0.4v-1.2c0.4-0.2,0.4-0.6,0.4-0.8c0.2-0.4,0.4-0.6,0.4-0.8l1.2-1.4
							c0.2,0,0.4,0,0.6-0.2s0.4-0.2,0.6-0.2c0.2-0.2,0.4-0.2,0.6-0.2l1.2-1.4c0-0.6,0.6-0.6,0.4-1.2c0.4-0.4,0.2-0.6,0.6-1v-0.6
							l0.6-0.6h1.6c0.4,0.2-0.2,0.6,0.6,0.6v1l0.4,0.4v1.8l1.2,1.2c0.2,0,0.4,0.2,0.6,0.4h1.2c0.4-0.2,0-0.6,0.6-0.6v0.4l0.2-0.6
							v-4.3l0.4-0.4v-1.6l0.8-0.8h0.4l1.2-1.2c0.4-0.2,0.6,0,1-0.4h2.4l0.4-0.4H68l0.2-0.2c0.2-0.2,0.2-0.2,0.2-0.2h2.2
							c0.2-0.2,0.4-0.4,0.6-0.4l1.2-1.2h0.4c0.4-0.6,0.8-0.8,1.4-1.2c0.6-0.4,0.8-1,1.4-1.2c0.6-0.2,0.8-0.6,1.2-1h-0.8l0.4-0.4h0.6
							l0.4-0.4h0.6c0.4,0.2,0.6,0.6,0.8,0.6c0.2,0.2,0,0.6,0.4,0.6c0.2,0.2,0,0.6,0.2,0.8c0.2,0.2,0.2,0.6,0.4,0.6
							c0.2,0.2,0.2,0.6,0.2,0.6l1.2,1.2h0.2c0.4,0.6,0.4,1.2,1,1.6c0.4,0.2,0.6-0.6,1-0.4c0.6-0.6,1-1,1.4-1.4l0.2,0.2h0.6
							c0.2,0,0.2,0,0.2,0.2c0.6,0.6,1.2,0.6,1.8,1.2h0.8c0.2-0.4,0.6-0.4,0.8-0.4c0.6-0.4,0.6-1,1-1.2c0.6-0.4,0.4-0.8,0.8-1.2
							c0.4-0.4,0.8-0.8,1.2-1.2h0.4l0.4-0.4c0.2,0,0.2,0,0.4,0c0.8,0.6,1.6,0.8,2.2,1.2l0.4-0.4l0,0l0.4-0.4h0.8l0.4-0.4h1l0.4,0.4
							h0.8l0.4,0.4c0.6,0.4,1.2,0.6,1.8,1c0.2,0,0.4,0.2,0.4,0.2c0.6,0.2,0.8,0.6,1.4,0.6c0.2,0.2,0.6,0.2,0.6,0.4
							c0.4,0.2,0.6,0.6,1,0.6c0.4,0.2,0.6,0.6,0.8,0.6c0.6,1,1.8,1.2,2.6,1.8c0.6,0.4,1.2,0.4,1.8,0.6c0.2,0.2,0.6,0.4,0.6,0.6
							c0.2,0.6,0.6,0.6,0.6,1c0.2,0.4,0.4,0.6,0.6,0.8c0.2,0.2,0.2,0.6,0.4,0.6c-0.2,0.6,0.4,0.6,0.4,1.2c-0.2,0.4,0.4,0.6,0.4,0.8
							l1.8,1.8c0.6,0.4,1.4,0.6,1.8,1.2h0.6l0.4,0.4h0.8l0.4,0.4h0.8c0.2,0.6,0.6,0.2,1,0.4c0.4,0.2,0.6,0.4,1,0.6
							c0.4,0.2,0.6,0.6,1,0.6h0.2l2.2,2.2c0.4,0.4,0.6,0.6,0.8,0.8c0.2,0.4,0.6,0.6,0.4,0.8l-0.8-0.2v0.8l-0.4,0.4v1
							c-0.4-0.2-0.8-0.2-1.2-0.4c-0.4-0.6-1.2-0.6-1.4-1.2c-0.2-0.2-0.4-0.2-0.6-0.4c-0.2-0.2-0.4-0.6-0.6-0.6
							c-0.4,0-0.4-0.4-0.6-0.4c-0.4,0-0.4,0.4-0.6,0.4c-0.4,0-0.4,0.2-0.6,0.4c0.4,0.2,0.8,0.4,1.2,0.6c0.4,0.4,0.6,0.6,1,1
							c0,0.4,0.2,0.6,0.4,0.6v0.6c-0.2,0.2-0.4,0.2-0.6-0.2h-1.8c-0.4-0.4-0.8-0.6-1.4-0.6l-1.8-1.8c0.2-0.4-0.4-0.6-0.4-0.8
							c0-0.4,0-0.6-0.4-0.8c0-0.4-0.2-0.6-0.6-0.6h-1.2l-0.4,0.4c0,0.2,0,0.6-0.2,0.6l-0.4,0.4c0,0.4,0,0.6,0,0.8
							c0.2,0.4-0.6,0.6-0.4,1c0.2,0.4-0.4,0.6-0.4,0.8c0,0.2-0.6,0.4-0.4,0.8l-1.2,1c-0.4-0.2-0.6,0.4-0.8,0.4
							c-0.4-0.2-0.6-0.4-1-0.4c-0.2,0.2,0-0.2-0.2,0c-0.2,0.2-0.2,0.4-0.2,0.6l-0.2,0.2v2l0.2,0.2v1.8l-0.6,0.2
							c-0.4,0.4-0.6,0.6-1,1c-0.4,0.4-0.8,0.6-1,1.2c-0.2,0.4-0.4,0.6-0.8,0.6c-0.4,0.2-0.6,0.6-0.8,0.6c-0.4,0.2-0.6-0.6-0.8-0.4
							c-0.4-0.4-0.6-0.6-1.2-1c-0.4-0.2-0.6-0.6-1-0.8h-1.6c-0.4,0.2,0,0.6-0.6,0.6c0.6,0.6,1.2,1.2,1.6,1.8l-0.8,0.8
							c0.2,0.6-0.6,0.6-0.6,1.2c0,0.2-0.2,0.2-0.2,0.2c-0.2,0.4-0.8,0.6-0.6,1l-0.8,1c0,0.6-0.6,0.6-0.6,1.2c-0.4,0.6-1,0.8-1.6,1.2
							c-0.4,0.2-0.6,0.4-1.2,0.4c-0.2,0.2-0.4,0.6-0.6,0.6c-0.6,0.2-0.8,0.6-1.2,0.8c-0.4,0.2-0.2,0.6-0.6,0.8
							c-0.4,0.2-0.6,0.4-0.6,0.6c0,0.4-0.4,0.6-0.6,0.6c-0.6,0-0.6,0.4-0.8,0.6h-5.3c-0.2,0.4-0.4,0.4-0.6,0.4
							c-0.2,0.6-0.6,1-0.6,1.4c0.2,0.2,0.6,0,0.6,0.4c0.2,0.4,0.4,0.6,0.6,0.6c0.2,0.4,0.6,0.2,0.8,0.6c0.2,0.4,0.6,0.4,0.6,0.6v0.2
							l-2,2h-0.2l-0.4,0.4h-1.6l-0.4,0.4h-1.6c-0.2-0.2,0-0.6-0.2-0.6l-0.4-0.4v-0.6l-0.4-0.4v-0.6v-0.2c0,0,0-0.2-0.2-0.2l-0.6-0.6
							c-0.4,0.2-0.6-0.4-0.8-0.4c-0.6,0-1.2-0.6-1.8-0.4c-0.2,0-0.4,0.4-0.6,0.4l-1.8,1.8c-0.6,0-0.6-0.4-0.8-0.6
							c-0.4-0.2-0.2-0.6-0.4-0.6c-0.4-0.2-0.6-0.6-0.8-0.8l-0.4,0.4c-0.2,0.4,0.2,0.6-0.4,1v0.8c-0.2,0.4-0.6,0.4-0.4,0.6l-0.8,0.6
							h-0.6c-0.4-0.2,0-0.6-0.6-0.6v-1.2l-0.8-0.6l-0.2,0.2h-0.6l-0.6,0.6H68l-1.2,1.2c0.2,0.6-0.6,0.6-0.6,1h-0.6
							c-0.2-0.4-0.8-0.2-0.8-0.6H64c-0.2,0-0.2,0.2-0.2,0.2c-0.2,0.2-0.4,0.4-0.6,0.6c-0.2,0.2-0.8,0.4-1.2,0.6c-0.2,0-0.4,0-0.6,0
							c-0.2,0.6-0.8,0.6-1.2,0.8c-0.4,0.4-1,0.6-1.2,1c-0.4,0.4-0.6,0.8-1,1.2c-0.6,0.4-0.6,1-1,1.2c-0.4,0.4-0.6,0.8-0.8,1.2v5.5
							l-0.4,0.4v1.6l-0.4,0.4v1.2l-0.4,0.4v0.8l-0.4,0.4c0,0.4,0,0.6-0.4,0.8c0.2,0.4-0.6,0.6-0.4,1c0.2,0.4-0.6,0.6-0.4,1
							c-0.2,0.6-0.4,1.2-0.6,1.8c-0.4,0.6-0.6,1.2-0.8,1.6s-0.6,0.6-0.8,1.2v1.2l-0.4,0.4l0.4,0.4v2.6c-0.2,0.2-0.4,0.4-0.4,0.6
							c-0.6,0.6-1.2,1.2-1.8,1.8c-0.4,0.4-0.6,0.6-0.8,0.8c-0.6,0.2-0.6,0.6-0.8,0.8c-0.2,0.4-0.6,0.6-1,1l-0.8,0.8
							c-0.4,0.4-0.6,0.6-0.8,0.8c-0.4,0.4-0.6,0.2-0.8,0.6c-0.4,0.4-0.6,0.6-0.8,0.8l-0.8,0.8l-0.8,0.8c-0.2,0-0.2,0-0.4,0
							c-0.2,0.2-0.2,0.2-0.4,0.4h-1.8l-0.6-0.6c0-0.6-0.6-0.6-0.6-1c0-0.6-0.6-0.6-0.6-0.8c-0.2-0.4-0.2-0.6,0-1l0.2-0.2v-0.8
							l-0.4-0.4c0-0.4-0.2-0.8-0.4-1.2c-0.2-0.4-0.4-0.6-0.6-0.6s-0.2-0.2-0.2-0.2l-0.6-0.6v-1.4l0.4-0.6l0.4,0.4h1.2l0.6-0.8
							c0-0.2,0.2-0.4,0.4-0.6V241l0.4-0.4v-0.8c0.2-0.2,0.2-0.2,0.4-0.4v-0.6c0.2-0.6,0.6-1,0.8-1.4c0-0.6,0.6-0.6,0.6-1.2
							c0.4-0.4,0.4-0.8,0.6-1c0.4-0.6,0.6-1.4,1.2-2c0.2-0.4,0.4-0.6,0.4-1.2c0.6-0.4,0.8-1,1-1.6c0.2-0.2,0.6,0,0.6-0.4
							c0.6,0,0.6,0.6,1.2,0.4l0.6,0.6h0.4l0.4,0.4h1c0.6-0.2,0.4-0.8,0.8-1L50,230.1z"/>
					</g>
				</g>
			</g>
		</g>
		<g>
			<g>
				<g>
					<g>
						<path id="SVGID_5_" class="st3" d="M81.6,110.5l0.4,0.4h0.8c0.6,0.6,1.2,0.4,1.6,0.6l1.2,1.2c0.2,0.4-0.2,0.6-0.4,0.6
							c0,0.4,0,0.6-0.2,0.8c-0.2,0.2-0.4,0.6-0.4,0.8c0,0.4-0.4,0.6-0.4,0.8c0,0.2-0.4,0.4-0.4,0.4c-0.2,0.4,0,0.6,0.2,0.8v0.6
							l0.4,0.4v0.6c0.2,0.2,0.4,0.4,0.6,0.6v0.2l1.8,1.8h0.6l0.4-0.4h3.8l0.2-0.2c0.2,0,0.2-0.2,0.4-0.2c0.6,0,0.8,0,1.2,0
							c1.8,1,3.6,1.8,5.3,2.6c0.2,0,0.4,0,0.6,0c0.6,0.4,0.8,0.8,1.2,1.2c0.4,0.6,0.6,1,0.6,1.4v1.8l-0.4,0.4v1.6l0.6,1.2l-0.2,0.2
							c0.4,0.4,0.8,0.6,1.2,1.2c0.4,0.4,1,0.6,1,1.2c0.4,0.4,0.6,0.8,0.8,1.2c0.4,0.4,0.6,0.8,1,1.4v0.6l0.4,0.4v2.2
							c0.2,0.4,0.6,0.2,0.6,0.2l0.6,0.4v2.8c-0.4,0.4-0.4,0.8-0.6,1.2h-1c-0.4,0-0.4-0.6-0.8-0.6c-0.4-0.4-0.6-0.6-0.8-0.8
							c-0.4-0.2-0.6-0.4-1-0.6h-1.2l-0.4,0.4l-0.2,0.6l-0.4,0.6l-0.6-0.6c-0.4-0.2-0.6-0.2-1,0.2h-1.6l-0.4,0.4h-0.2l-0.2,0.2
							c0,0.6-0.6,0.6-0.6,1.2c0.2,0.4,0.6,0.2,0.8,0.6c0,0.4,0.2,0.6,0.4,0.6v2.6c-0.4,0.6-1,0.6-1.2,1c-0.4,0.6-1,0.6-1.2,1h-2.8
							l-0.4-0.4h-0.6c-0.6-0.6-0.6-1.2-1.2-1.8c0.2-0.6,0.6-1,0.8-1.4c0.6-0.8,1.8-1.2,2-1.8v-0.8l-0.4-0.4h-1.2
							c-0.6,0.2-1,0.6-1.4,0.8c-0.6,0.4-1,0.6-1.4,1c-0.4,0.4-0.8,0.8-1.2,1.4c0.2,0.4-0.4,0.6-0.4,0.8c0,0.4,0,0.6-0.4,0.8
							c0.2,0.4-0.4,0.6-0.4,0.8c0,0.2-0.4,0.4-0.4,0.6s-0.2,0.6-0.4,0.8c-0.2,0.4,0,0.6-0.4,0.8v0.8l-0.4,0.4v0.6l-0.4,0.4v0.6
							l-0.4,0.4v0.6l-0.4,0.4v0.8c-0.6,0.8-0.8,1.8-1.6,2.4c0,0.2,0,0.2,0,0.4c-0.2,0.2-0.6,0.4-0.6,0.6c-0.2,0.4-0.6,0.4-0.8,0.6
							c-0.4,0.2-0.4,0.6-0.6,0.6c-0.2,0.4-0.6,0.4-0.8,0.6c-0.4,0.2-0.6,0.2-0.6,0.6h-2.2l-0.4,0.4h-1.2l-0.4-0.4
							c-0.2-0.2-0.6,0.2-0.8-0.4h-1l-0.4-0.4H71c-0.8-0.8-1.8-1.8-2.4-2.6v-0.6l1.2-1.2c0-0.6,0.4-0.6,0.6-1c0-0.2,0-0.4,0-0.6
							c-0.4-0.8-0.8-1.8-1.2-2.4c-0.2-0.4-0.4-0.6-0.6-0.6c0.2-0.6-0.4-0.8-0.6-1.4c-0.2-0.4-0.6-0.6-0.6-0.8c0-0.4-0.2-0.6-0.4-1
							c0-0.4,0-0.6,0-0.8l-0.4-0.4v-5.5l-0.4-0.4V141c-0.2,0-0.2-0.2-0.2-0.2c-0.2-0.4-0.4-0.6-0.6-1.2l-1.2-1.2v-0.2l-1.6-1.6
							c0-0.4-0.2-0.6-0.4-0.6c-0.2,0-0.4-0.2-0.6-0.4c-0.4-0.2-0.4-0.4-0.6-0.4c-0.6,0-0.6-0.6-1-0.6c-0.4,0-0.6,0.2-0.8-0.4h-3.2
							l-0.4,0.4h0.4l-0.4,0.4h-0.8l-0.4,0.4h-0.4l-0.4,0.4h-1.2l-0.2-0.2c-0.4-0.2-0.6,0-0.8-0.2l-0.2-0.2c-0.8-0.6-1.8-0.6-2.2-1.4
							c-0.4,0.2-0.6-0.6-0.8-0.4c-0.2-0.4-0.6-0.2-0.6-0.4c-0.2-0.2-0.6-0.2-0.6-0.6c-0.2-0.4-0.6-0.2-0.6-0.6
							c-0.2-0.2-0.6-0.2-0.6-0.4c-0.4-0.2-0.8-0.4-1.2-0.6c-0.4-0.2-0.6-0.6-1-0.6c-0.2-0.2-0.4-0.2-0.6-0.2s-0.2-0.4-0.2-0.6
							c-0.4-0.4-0.6-0.6-0.8-0.8v-0.6c0.4-0.2,0.2-0.6,0.4-0.8c0.2-0.2,0.2-0.6,0.4-0.6h0.6l0.2-0.2c0.2,0,0.2,0,0.4-0.2h3.2
							l0.4,0.4h1.8l0.4,0.4h1.2l0.4-0.4h1.8l0.4-0.4h1.8l0.4-0.4h2l0.2,0.4l0.2-0.2h1.8l0.4-0.2h1.8l0.6-0.4h1.6l0.4-0.4h1.8
							l0.4-0.4h1.8c0,0,0.2,0,0.2-0.2l0.2-0.4l-0.6-0.4v-1c0.2-0.2,0.2-0.2,0.4-0.2c0.2,0,0.4-0.2,0.4-0.2l1.2,0.6
							c0.4,0.2,0.6,0.4,1.2,0.4c0-0.2,0.2-0.2,0.2-0.2c0-1.4,0-2.8,0-4.2l1.2-1h1.4c0.4-0.2,0.6-0.4,0.8-0.6
							c0.6-0.2,1.2-0.6,1.2-1.2c0.4-0.6,0.8-1.2,0.8-1.8c0-0.2,0.2-0.2,0.2-0.2v-2.2c0.2-0.2,0.4-0.2,0.4-0.4c0-0.2,0.2-0.4,0.2-0.6
							c0.2-0.2,0.2-0.4,0.2-0.6c0.2-0.2,0.6,0,0.6-0.4h1.8l0.4,0.4L81.6,110.5z"/>
					</g>
				</g>
			</g>
		</g>
		<path class="st3" d="M115.2,125.4h-1.6c-0.2-0.2-0.2-0.4-0.4-0.4c-0.4,0-0.6-0.2-0.6-0.6c-0.2-0.2-0.4-0.4-0.4-0.6
			c0-0.4-0.4-0.6-0.4-0.6c0.2-0.6-0.4-0.6-0.4-1.2c0.2-0.6-0.4-0.6-0.4-1.2c0-0.6-0.4-0.8-0.4-1.2c-0.4-0.2-0.2-0.6-0.6-0.8v-1.8
			l1.4-1.4c0.2,0,0.4-0.2,0.6-0.4h1.4l0.4-0.4c0.4,0,0.6-0.2,0.8,0.2h2l0.4,0.4h0.6l0.4,0.4h0.6l0.4,0.4c0.4,0,0.6-0.2,0.8,0.2
			c0.2,0.4,0.6,0,0.8,0.2c0.4,0.2,0.6,0.2,1.2,0.2c0.2-0.6,0.8,0,1.2-0.6c0-0.2,0.4,0,0.6,0l0.4-0.4h1.4c0.4,0.4,0.6,0.6,1,1
			c0.4,0.2,0.4,0.6,0.6,0.8c0.2,0.2,0.4,0.6,0.6,0.8c0.2,0.2,0.4,0.6,0.6,1c0.2,0.4,0.4,0.6,0.6,0.8v1.8c-0.6,0.2-0.2,0.6-0.4,1
			s-0.4,0.6-0.6,0.8c-0.8,0-1.4-0.6-2.2-0.8h-0.8c-0.2,0.2-0.4,0.4-0.4,0.6c-0.2,0.2-0.4,0.2-0.6,0.2s-0.4,0.4-0.6,0.6
			c-0.2,0.2-0.4,0.2-0.6,0.4h-1.8c-0.4-0.2-0.6-0.6-1-0.6c-0.6,0-0.6-0.6-1-0.6h-0.6l-0.2-0.2c-0.4-0.2-0.6-0.2-1,0
			c-0.2,0.4-0.6,0.6-0.4,1c-0.2,0.4-0.6-0.2-0.6,0.6h-1L115.2,125.4z"/>
	</g>
</g>
<g>
	<polygon class="st29" points="57.4,209.3 56.6,218.7 56.6,220 60.4,220.1 59.3,209.3 	"/>
	<path class="st30" d="M158.1,247.1c0.1,7.1,0.1,14.1,0.3,21.2c-0.1,0.1-0.3,0.2-0.5,0.3h-0.2l-2.3-0.2c-0.3-27.4-0.6-54.9-0.8-82.3
		l2.4-0.1c0.3,19.7,0.8,39.3,1.1,59.1C158.1,245.7,158.1,246.4,158.1,247.1z"/>
	<path class="st29" d="M158.9,168.4l23.7-7c11.4-3.4,18-15.2,27.8-21.4l10-3.6l13.4,1c-13.5-1.8-24.9,3.3-34.5,14.5
		c-10.9,12.7-25.8,13.1-39.3,17.8c-0.1-0.1-0.3-0.1-0.5-0.2c-0.1-0.2-0.3-0.4-0.4-0.6C159.1,168.6,159,168.5,158.9,168.4z"/>
	<path class="st31" d="M159.6,176.7c0.1,0.1,0.3,0.1,0.4,0.3c-0.4,1.5-0.9,3-1.3,4.5l-12.4-0.1l-0.7-4.7H159.6z"/>
	<path class="st32" d="M153.2,155.6l1.3,0.3c0.3,0.5,0.6,1,0.8,1.5l0.1-0.1c-0.5,1.6-1,3.3-1.5,4.9h-4.2c0.5-2.2,0.9-4.2,1.4-6.4
		l0.8-0.2c0.1,1.4,0.1,2.8,0.2,4.2l1-0.1L153.2,155.6z"/>
	<path class="st31" d="M159.4,183.1l-0.1,1.7l-13.3,0.1l-0.4-0.1c0-0.6,0.1-1,0.1-1.6L159.4,183.1z"/>
	<path class="st33" d="M159.4,183.1l-13.7,0.1c-0.1-0.3-0.1-0.5,0-0.8l0.6-0.9l-0.1-0.1l12.4,0.1L159.4,183.1z"/>
	<path class="st33" d="M149.8,162.3h4.2l3.1-0.6l2.5,2.4l-0.1,0.1l-13.7-0.1h-0.1l2.8-1.6L149.8,162.3z"/>
	<path class="st30" d="M157.1,161.6l-3.1,0.6c0.5-1.7,1-3.3,1.5-4.9C155.9,158.8,156.5,160.2,157.1,161.6z"/>
	<path class="st34" d="M146.1,184.9l13.3-0.1l-2.4,1.1l-2.4,0.1l-2.7-0.1c-0.2-0.1-0.4-0.1-0.6-0.1h-1.3l-0.7,0.1
		c-0.1-0.1-0.3-0.1-0.5-0.1L146.1,184.9z"/>
	<path class="st30" d="M149.8,162.3h-1.4c0.9-2.2,1.9-4.2,2.8-6.4C150.7,158,150.3,160.2,149.8,162.3z"/>
	<path class="st29" d="M153.2,155.6v4.2l-1,0.1c-0.1-1.4-0.1-2.8-0.2-4.2L153.2,155.6z"/>
	<path class="st30" d="M155.3,157.4c-0.3-0.5-0.6-1-0.8-1.5L155.3,157.4z"/>
	<path class="st29" d="M249.4,153.8l0.1,0.3l-0.7,0.7l-0.3-1.2L249.4,153.8z"/>
	<path class="st35" d="M249.4,153.8l-0.9-0.2l0.1-0.1c0-0.3,0-0.6,0.1-0.8l0.2-0.3C249.1,152.9,249.2,153.3,249.4,153.8z"/>
	<path class="st36" d="M223.2,272.1c0.2-0.1,0.5-0.1,0.6,0.1L223.2,272.1z"/>
	<path class="st34" d="M125.1,364.2l-3.5-2.2l0.1-0.8c0.2,0,0.4-0.1,0.6-0.1c6.7,0.3,13.4,0.9,20.1,0.8c14.4-0.2,28.8-0.8,43.2-1.2
		l1.1,0.4l-1.5,2.2l-33.3,0.3L125.1,364.2z"/>
	<path class="st31" d="M176.7,339.6l2,1.1c-1.5,1-2.9,2.7-4.5,2.7c-13.2,0.2-26.5,0.1-39.7,0.1v0.9h40.1c0.2,1.3,0.3,2.3,0.5,3.3
		h-1.2l-41.7-1.7l-0.3-0.9l-1.4-1.1l-0.6,0.3c0-1.3,0-2.6,0-3.8c0-0.3,0-0.5,0-0.8v-0.1l2.4-0.6h1.1h3.1h4l25.2,0.8l3.9-0.1
		L176.7,339.6z"/>
	<path class="st31" d="M180.7,349.1c0,0.3-0.1,0.6-0.1,0.8c0,0.8,0,1.7,0,2.5l0,0l-2.7,0.7v6.3l-9.8-0.4l0.1-5.1l3.9-0.6h-41
		l2.1,5.5l-3.4,0.1l-0.7-4.2l-2-1.8l0,0l-0.8-1.5c0-0.6,0-1,0-1.6l0.8-1.4l0,0l3.9-0.6L180.7,349.1z"/>
	<path class="st31" d="M185.7,360.8c-14.4,0.4-28.8,1-43.2,1.2c-6.7,0.1-13.4-0.6-20.1-0.8c0-0.2,0-0.4,0-0.7l0.3-0.8h0.2l0.1-0.1
		l3.4,0.1l2.2,0.6l56.8-0.2C185.6,360.3,185.7,360.6,185.7,360.8z"/>
	<path class="st33" d="M180.7,349.1l-49.5-1.1l0.7-0.5l42.1,0.1h1.2l1.5-0.1L180.7,349.1z"/>
	<path class="st33" d="M185.5,360.2l-56.8,0.2c-0.1-0.2-0.1-0.5-0.1-0.7l0.7-0.8l0.8,0.1l3.4-0.1h5.3h2.9h6.2l0.8-0.1l19.7,0.1
		l9.8,0.4l0.9,0.2L185.5,360.2z"/>
	<path class="st33" d="M165.6,339.8l-25.2-0.8l2.7-0.3l21.1-0.8l0.3-4.7l0.1-0.2l0.2,0.1C165.1,335.3,165.3,337.5,165.6,339.8z"/>
	<path class="st34" d="M176.6,347.6l-1.5,0.1c-0.1-1-0.3-2-0.5-3.3h-40v-0.9c13.2,0,26.5,0.1,39.7-0.1c1.5,0,3-1.7,4.5-2.7
		C182.3,344.9,174.4,344.2,176.6,347.6z"/>
	<path class="st33" d="M176.7,339.6l-7.2,0.1C171.9,339.6,174.3,339.6,176.7,339.6z"/>
	<path class="st34" d="M178.9,359.6l-0.9-0.2v-6.3l0.8,0.3L178.9,359.6z"/>
	<path class="st37" d="M180.7,352.4c0-0.8,0-1.7,0-2.5C180.7,350.8,180.7,351.6,180.7,352.4z"/>
	<path class="st37" d="M178.9,353.4l-0.8-0.3l2.7-0.7L178.9,353.4z"/>
	<path class="st34" d="M164.2,337.9l-21.1,0.8l0.3-6.5l1.5,4.7h12.4v-65.5l3.1-1.2H150l-3.3,2.7c1.3-1-2.6-4.4,1.4-4.1l3.3-0.1h0.8
		l0.9-0.1l2.2-0.3l2.3,0.2h0.3c0.1-0.1,0.3-0.2,0.5-0.3l2.2,0.6l0.4,4c-0.1,0.4-0.1,0.8-0.3,1.4l1.2-0.1l-0.1,0.1l1.1,2l0.1,0.1
		l-0.1,0.2C163.3,297,163.7,317.4,164.2,337.9z"/>
	<path class="st37" d="M164.2,337.9c-0.4-20.5-0.9-41-1.3-61.4l0.6,0.6c0.3,18.7,0.7,37.5,1,56.2L164.2,337.9z"/>
	<path class="st37" d="M161.9,274.2l-1.2,0.1c0.1-0.6,0.2-1,0.3-1.4L161.9,274.2z"/>
	<path class="st37" d="M162.8,276.2l-1.1-2L162.8,276.2z"/>
	<path class="st38" d="M250.2,181.7l-0.1,1.4L250.2,181.7z"/>
	<path class="st39" d="M256.2,184.7c0.1,0.1,0.3,0.2,0.4,0.3c-0.1,0.2-0.1,0.4-0.3,0.6L256.2,184.7z"/>
	<path class="st38" d="M250.6,179.2c0,0.1,0,0.3-0.1,0.5C250.4,179.5,250.5,179.3,250.6,179.2z"/>
	<path class="st40" d="M159.3,172.8c0,1,0,2.2,0,3.2h-13.5c-0.1-0.6-0.1-1.3-0.1-2c0.1-0.4,0.1-0.8,0.2-1.3H159.3z"/>
	<path class="st34" d="M159.3,172.8h-13.4l-0.7-0.7c0-0.3,0.1-0.6,0.1-1l14.7-0.6C159.7,171.2,159.5,172,159.3,172.8z"/>
	<path class="st41" d="M159.9,170.5l-14.7,0.6c0.1-0.5,0.1-1,0.1-1.5l14.1-0.1c0.1,0.1,0.3,0.1,0.5,0.2
		C160,169.9,160,170.2,159.9,170.5z"/>
	<path class="st33" d="M145.8,175.9h13.5l0.3,0.8h-14L145.8,175.9z"/>
	<path class="st29" d="M248.6,153.5l-1-0.9h1C248.6,153,248.6,153.3,248.6,153.5z"/>
	<path class="st31" d="M145.7,163.9l13.7,0.1c-0.1,1.5-0.3,2.9-0.6,4.4c0.1,0.1,0.1,0.2,0.1,0.3l-12.7-0.1l-0.8-2.5
		C145.7,165.4,145.7,164.7,145.7,163.9z"/>
	<path class="st42" d="M155.4,268.4l-2.2,0.3l-0.6-0.3l-0.7-82.4l2.7,0.1C154.8,213.5,155.1,240.9,155.4,268.4z"/>
	<path class="st40" d="M157.9,268.6h-0.3H157.9z"/>
	<path class="st29" d="M145.1,172l0.7,0.7c-0.1,0.4-0.1,0.8-0.2,1.3l-34.8,7.5l-1.5-0.5L95,177.6H79.3l-6.9,1.6
		c0.6-0.6,1-1.1,1.6-1.7c13.2-6.8,25.9,0.4,38.9,1.7h4.8l4.4-0.8l3.1-0.8L145.1,172z"/>
	<path class="st33" d="M146.4,168.6l12.7,0.1c0.1,0.2,0.3,0.4,0.4,0.6l-14.1,0.1c0.1-0.3,0.2-0.6,0.3-0.8L146.4,168.6z"/>
	<path class="st43" d="M145.7,182.4c0-0.3-0.1-0.6-0.1-1l0.8,0.1L145.7,182.4z"/>
	<path class="st42" d="M149.9,185.9h1.3c0,27.5,0,54.9,0,82.5l-2.8-0.1l0.1-0.8l1.3-28.9C149.8,221,149.8,203.4,149.9,185.9z"/>
	<path class="st29" d="M151.3,268.3c0-27.5,0-54.9,0-82.5c0.2-0.1,0.5-0.1,0.6,0.1l0.7,82.4c-0.1,0.1-0.2,0.3-0.3,0.4h-0.8
		C151.4,268.6,151.3,268.4,151.3,268.3z"/>
	<path class="st35" d="M149.9,185.9c0,17.6-0.1,35.1-0.1,52.7l-1.3-0.1l-0.1-0.3c0.1-0.7,0.1-1.5,0.3-2.2v-6.3
		c0.1-14.3,0.1-28.6,0.2-42.8l0.3-1L149.9,185.9z"/>
	<path class="st30" d="M149.2,185.9l-0.3,1c-0.1-0.3-0.1-0.8-0.2-1.1C148.8,185.9,149,185.9,149.2,185.9z"/>
	<path class="st40" d="M121.7,361.3c0-0.2,0-0.4,0-0.6c0.2-0.1,0.4-0.1,0.6-0.1c0,0.2,0,0.4,0,0.7
		C122.2,361.2,122,361.2,121.7,361.3z"/>
	<path class="st34" d="M173.9,347.7l-42.1-0.1c0.1-0.5,0.2-1,0.3-1.5L173.9,347.7z"/>
	<path class="st33" d="M133.4,339L133.4,339z"/>
	<path class="st34" d="M129.9,344.2l-1.3-1.5c0-0.5,0-1,0-1.5l0.6-0.8c0.2,0,0.4,0,0.6,0C129.9,341.6,129.9,342.9,129.9,344.2z"/>
	<path class="st33" d="M129.9,339.6l2.4-0.6L129.9,339.6z"/>
	<path class="st34" d="M131.8,345.1l-1.4-1.1C130.9,344.4,131.4,344.7,131.8,345.1z"/>
	<path class="st38" d="M129.9,340.4c-0.2,0-0.4,0-0.6,0l0.6-0.8C129.9,339.8,129.9,340.1,129.9,340.4z"/>
	<path class="st40" d="M147.8,359h-6.2h-2.9h-5.3c-0.7-1.8-1.4-3.7-2.1-5.5l37.1,0.6l-0.1,5.1l-19.7-0.1L147.8,359z"/>
	<path class="st34" d="M168.3,354l-37.1-0.6h41L168.3,354z"/>
	<path class="st34" d="M129.2,358.8c0-1.3,0.1-2.7,0.1-4l0.7,4.2L129.2,358.8z"/>
	<path class="st44" d="M126.5,350l0.8-1.4L126.5,350z"/>
	<path class="st44" d="M127.3,353.1l-0.8-1.5L127.3,353.1z"/>
	<path class="st40" d="M126.5,359.8l2-0.1c0,0.2,0.1,0.5,0.1,0.7L126.5,359.8z"/>
	<path class="st44" d="M122.4,360.5c-0.2,0-0.4,0-0.6,0.1l1-0.9L122.4,360.5z"/>
	<path class="st31" d="M138.7,358.9h2.9H138.7z"/>
	<path class="st31" d="M147.8,359l0.8-0.1L147.8,359z"/>
	<path class="st40" d="M143.4,332.1l0.2-0.1l-0.8-1.3l0.1,0.2l-0.2,0.1l0.1-5.9c0-5.2,0-10.3,0.1-15.5c0.1-0.3,0.2-0.4,0.4-0.4
		l0.3-29.9c0.8-1.9,1.5-3.8,2.3-5.7l1-0.8l-0.2,0.1l-0.1-0.2c0.9-0.8,1.8-1.5,3.3-2.7h10.5l-3.1,1.2v65.5H145L143.4,332.1z"/>
	<path class="st40" d="M148.1,268.8c0-0.2,0.1-0.4,0.3-0.6l2.8,0.1c0.1,0.1,0.2,0.3,0.3,0.4L148.1,268.8z"/>
	<path class="st40" d="M152.3,268.7c0.1-0.1,0.1-0.3,0.3-0.4l0.6,0.3L152.3,268.7z"/>
	<path class="st32" d="M110.9,181.4l-1.5-0.5L110.9,181.4z"/>
	<path class="st32" d="M113.4,187.9l-1-0.6L113.4,187.9z"/>
	<path class="st30" d="M148.6,229.7L148.6,229.7z"/>
	<path class="st30" d="M148.5,267.4v-28.9l1.3,0.1L148.5,267.4z"/>
	<path class="st34" d="M142.9,330.8l0.8,1.3L142.9,330.8z"/>
	<path class="st34" d="M143.4,309.3l0.3-29.9L143.4,309.3z"/>
	<path class="st34" d="M146,273.7l1-0.8L146,273.7z"/>
	<path class="st45" d="M233.9,137.4c-13.5-1.8-24.9,3.3-34.5,14.5c-10.9,12.7-25.8,13.1-39.3,17.8v0.8c-0.2,0.8-0.4,1.5-0.7,2.3
		c0,1,0,2.2,0,3.2l0.3,0.8c0.1,0.1,0.3,0.1,0.4,0.3c0.8,0.7,6.3-1.5,7.3-1.7c2.6-0.6,5.1-1.3,7.6-2.1c5-1.5,9.8-3.6,14.3-6.2
		c4.7-2.9,9-6.6,12.4-11c6.2-7.9,12.2-14.3,21.7-15.8s18.3,3.5,24.2,12.4h1l0.2-0.3C245.6,145,240.8,139.8,233.9,137.4z"/>
	<path class="st45" d="M72.2,179.2"/>
	<path class="st45" d="M69.5,180.8L69.5,180.8L69.5,180.8z"/>
	<path class="st45" d="M145.6,176.8l0.2-0.8c-0.1-0.6-0.1-1.3-0.1-2l-34.8,7.4l-1.5-0.5c-10.3-3.5-21.5-4.9-32.2-2.9
		c-6.5,1.3-10.4,5.4-15.1,10.4c-3.5,6.4-4.9,13.4-4.6,21l1.3-4.5h-0.1c0.3-1.1,0.6-2.2,0.8-3.3c1.5-6.5,5-12.5,10-17.1
		c5.4-4.9,12.7-6.1,19.4-5.4c7.5,0.8,13.9,5.2,21,7.9c7.3,2.9,14.3,0.3,21.6-1.7l14.2-3.9l0.8,0.1l-0.1-0.1L145.6,176.8z"/>
	<polygon class="st29" points="25.6,314.8 56.6,218.7 57.7,219.1 27.7,314.7 	"/>
	<polygon class="st29" points="94.4,315 60.4,220.1 59.3,220.6 92.4,314.8 	"/>
	<polygon class="st29" points="58.2,214.1 47.4,314.8 49.2,314.6 59,216.1 	"/>
	<polygon class="st29" points="59.1,214.1 70.1,314.8 68.3,314.6 58.3,216.1 	"/>
	<path class="st45" d="M72.3,314.8l1.3-0.1l1.4-0.1l14.3,0.3c-1.4,4.2-2.8,8.4-4.1,12.5l-4,0.3l-9.1-0.2L72.3,314.8z"/>
	<path class="st30" d="M93.5,314.7l1,0.1c-2.4,4.9-2,12.6-9.2,12.7c1.4-4.2,2.8-8.4,4.1-12.5L93.5,314.7z"/>
	<path class="st30" d="M29,325.9l-0.7-1.5l-0.2-0.9l-0.3-0.7c-0.1-0.3-0.2-0.7-0.3-1L27,321c0-0.2,0-0.5-0.1-0.7l-1.3-5.4l0.8-0.2
		l1.2,0.1l0.7-0.1l8.3,0.2l3.4,12.5l-9.5,0.1l-1.1-0.9C29.3,326.3,29.2,326.1,29,325.9z"/>
	<path class="st45" d="M40,327.4c-1.1-4.2-2.2-8.4-3.4-12.5l11.8-0.2h1.2l4.2-0.1h1.4h12.3c0.2,0.1,0.4,0.2,0.6,0.3
		c0.1,4.2,0.1,8.4,0.1,12.7L40,327.4z"/>
	<path class="st29" d="M68.2,327.5c-0.1-4.2-0.1-8.4-0.1-12.7h4.2l-0.1,12.7H68.2z"/>
	<polygon class="st29" points="215.7,259.5 246.7,163.2 247.8,163.7 217.7,259.3 	"/>
	<polygon class="st29" points="284.4,259.5 250.5,164.7 249.3,165.2 282.4,259.5 	"/>
	<polygon class="st29" points="248.2,158.6 237.5,259.5 239.2,259.2 249.1,160.7 	"/>
	<polygon class="st29" points="249.3,158.7 260.1,259.5 258.4,259.2 248.4,160.7 	"/>
	<polygon class="st29" points="247.5,154 246.7,163.2 246.7,164.6 250.5,164.7 249.3,154 	"/>
	<path class="st45" d="M262.4,259.5l1.3-0.1l1.4-0.1l14.3,0.3c-1.4,4.2-2.8,8.4-4.1,12.5l-4,0.3l-9.1-0.2
		C262.3,267.9,262.4,263.6,262.4,259.5z"/>
	<path class="st30" d="M283.6,259.3l1,0.1c-2.4,4.9-2,12.6-9.2,12.7c1.4-4.2,2.8-8.4,4.1-12.5L283.6,259.3z"/>
	<path class="st30" d="M219.1,270.5l-0.7-1.5l-0.2-0.9l-0.3-0.7l-0.4-1c-0.1-0.3-0.3-0.5-0.4-0.7c0-0.2,0-0.5-0.1-0.7l-1.3-5.4
		l0.8-0.2l1.2,0.1l0.7-0.1l8.2,0.2l3.4,12.5l-9.5,0.1l-1.1-0.9C219.3,271,219.2,270.7,219.1,270.5z"/>
	<path class="st45" d="M230.1,272l-3.4-12.5l11.8-0.2h1.2l4.2-0.1h1.4h12.3c0.2,0.1,0.4,0.2,0.6,0.3c0.1,4.2,0.1,8.4,0.1,12.7
		L230.1,272z"/>
	<path class="st29" d="M258.3,272.1c-0.1-4.2-0.1-8.4-0.1-12.7h4.2c-0.1,4.2-0.1,8.4-0.1,12.7H258.3z"/>
</g>
</svg>
