<?xml version="1.0" encoding="utf-8"?>
<!-- Generator: Adobe Illustrator 24.3.0, SVG Export Plug-In . SVG Version: 6.00 Build 0)  -->
<svg version="1.1" id="Layer_1" xmlns="http://www.w3.org/2000/svg" xmlns:xlink="http://www.w3.org/1999/xlink" x="0px" y="0px"
	 viewBox="0 0 37.1 43.1" style="enable-background:new 0 0 37.1 43.1;" xml:space="preserve">
<style type="text/css">
	.st0{fill:#BFA161;}
</style>
<g>
	<path class="st0" d="M24.8,4.9c0,1.2,0,2.3,0,3.4c0,1.6,0,3.2,0,4.8c0,1.5,0.8,2.3,2.3,2.3c2.4,0,4.9,0,7.3,0
		c0.2,0,0.5-0.1,0.8,0.1c0.1,0.3,0.1,0.5,0.1,0.8c0,6.1,0,12.3,0,18.4c0,2.4-1.2,3.6-3.6,3.6c-4.7,0-9.5,0-14.2,0
		c-0.3,0-0.5,0-0.8,0c0-1.7,0-3.3,0-4.9c0-0.7,0.2-1.1,0.8-1.5c0.8-0.5,1.2-1.3,1.5-2.1c0.1-0.5,0.4-0.9,0.7-1.3
		c1.1-1.2,1.4-2.6,1-4.2c-0.1-0.2-0.2-0.5-0.1-0.7c0.6-1.6,0.2-3.1-1-4.3c-0.4-0.4-0.6-0.9-0.7-1.4c-0.4-1.3-1.3-2.2-2.7-2.6
		c-0.5-0.1-0.9-0.4-1.2-0.7c-1.3-1.3-2.8-1.5-4.4-0.9c-0.2-0.2-0.1-0.4-0.1-0.6c0-1.5,0-3.1,0-4.6c0-2.1,1.3-3.4,3.4-3.4
		c3.4,0,6.9,0,10.3,0C24.2,4.9,24.4,4.9,24.8,4.9z"/>
	<path class="st0" d="M14.4,38.2c-1.3-0.7-2.5-1.2-3.7-1.8c-0.3-0.2-0.6-0.2-1,0c-1.2,0.6-2.3,1.2-3.5,1.8c-0.2-0.3-0.1-0.5-0.1-0.8
		c0-2,0-4,0-6c0-0.5-0.1-0.7-0.6-0.8c-1.1-0.2-1.7-0.8-1.9-1.8c-0.1-0.7-0.5-1.2-1-1.7c-0.7-0.6-0.8-1.4-0.6-2.2
		c0.2-0.7,0.2-1.4,0-2c-0.3-0.9-0.1-1.6,0.6-2.2c0.5-0.5,0.9-1.1,1-1.8c0.2-0.9,0.7-1.4,1.5-1.6C5.9,17,6.5,16.6,7,16.1
		c0.6-0.7,1.3-0.9,2.2-0.6c0.7,0.2,1.4,0.2,2,0c0.9-0.3,1.6-0.1,2.2,0.6c0.5,0.6,1.1,0.9,1.8,1.1c0.9,0.2,1.4,0.7,1.6,1.6
		c0.1,0.7,0.5,1.3,1,1.8c0.6,0.6,0.9,1.3,0.6,2.1c-0.2,0.7-0.2,1.4,0,2.1c0.3,0.9,0,1.7-0.6,2.3c-0.5,0.5-0.8,1-0.9,1.7
		c-0.2,1-0.8,1.6-1.8,1.8c-0.5,0.1-0.7,0.3-0.7,0.9c0,1.9,0,3.9,0,5.8C14.4,37.5,14.4,37.7,14.4,38.2z M10.1,27.8
		c2.4,0,4.3-1.9,4.3-4.2c0-2.3-1.9-4.2-4.3-4.2c-2.2,0-4.1,1.9-4.1,4.2C6,25.9,7.9,27.8,10.1,27.8z"/>
	<path class="st0" d="M34.8,13.2c-2.5,0-5.1,0-7.8,0c0-2.7,0-5.3,0-7.8C29.5,7.9,32.2,10.6,34.8,13.2z"/>
</g>
</svg>
