<?xml version="1.0" encoding="utf-8"?>
<!-- Generator: Adobe Illustrator 24.3.0, SVG Export Plug-In . SVG Version: 6.00 Build 0)  -->
<svg version="1.1" id="Layer_1" xmlns="http://www.w3.org/2000/svg" xmlns:xlink="http://www.w3.org/1999/xlink" x="0px" y="0px"
	 viewBox="0 0 51.1 48.2" style="enable-background:new 0 0 51.1 48.2;" xml:space="preserve">
<style type="text/css">
	.st0{fill:#BFA161;}
</style>
<g>
	<path class="st0" d="M25.5,1.4c4.2,0,8.1,1,11.6,3.1c3.6,2.1,6.4,4.9,8.5,8.5c2.1,3.6,3.1,7.4,3.1,11.6c0,4.2-1,8.1-3.1,11.6
		c-2.1,3.6-4.9,6.4-8.5,8.5c-3.6,2.1-7.4,3.1-11.6,3.1s-8.1-1-11.6-3.1c-3.6-2.1-6.4-4.9-8.5-8.5c-2.1-3.6-3.1-7.4-3.1-11.6
		c0-4.2,1-8.1,3.1-11.6c2.1-3.6,4.9-6.4,8.5-8.5C17.5,2.5,21.4,1.4,25.5,1.4z M25.5,43.5c3.4,0,6.5-0.8,9.4-2.5
		c2.9-1.7,5.2-4,6.8-6.8c1.7-2.9,2.5-6,2.5-9.4s-0.8-6.5-2.5-9.4c-1.7-2.9-4-5.2-6.8-6.8c-2.9-1.7-6-2.5-9.4-2.5S19,6.8,16.2,8.5
		c-2.9,1.7-5.2,4-6.8,6.8c-1.7,2.9-2.5,6-2.5,9.4s0.8,6.5,2.5,9.4s4,5.2,6.8,6.8C19,42.6,22.2,43.5,25.5,43.5z M31.4,33.7
		c0.2,0.2,0.5,0.2,0.8,0.2c0.3-0.1,0.6-0.2,0.8-0.5l1.7-2.4c0.2-0.3,0.3-0.5,0.2-0.8c0-0.3-0.2-0.6-0.4-0.7l-6.3-4.5V11.6
		c0-0.3-0.1-0.6-0.3-0.8c-0.2-0.2-0.5-0.3-0.8-0.3h-3c-0.3,0-0.6,0.1-0.8,0.3s-0.3,0.5-0.3,0.8V27c0,0.4,0.2,0.7,0.5,0.9L31.4,33.7z
		"/>
</g>
</svg>
