<?xml version="1.0" encoding="utf-8"?>
<!-- Generator: Adobe Illustrator 24.3.0, SVG Export Plug-In . SVG Version: 6.00 Build 0)  -->
<svg version="1.1" id="Layer_1" xmlns="http://www.w3.org/2000/svg" xmlns:xlink="http://www.w3.org/1999/xlink" x="0px" y="0px"
	 viewBox="0 0 761.5 500.1" style="enable-background:new 0 0 761.5 500.1;" xml:space="preserve">
<style type="text/css">
	.st0{clip-path:url(#SVGID_2_);}
	.st1{fill:#D80C13;}
	.st2{fill:#FFFFFF;}
	.st3{fill:#08437F;}
</style>
<g>
	<defs>
		<path id="SVGID_1_" d="M738.5,280c0,2.2,0,4.4,0,6.6c-1.9,6.2-6.3,8.4-12.5,8.1c-3.8-0.2-7.5-0.1-11.3,0c-3.2,0.1-6,1.3-7.8,4
			c-3.9,5.7-7.3,11.8-12,16.9c-0.5,0.6-0.8,1.5-0.9,2.3c-0.4,3.3-2.4,5.5-4.7,7.6c-3.7,3.3-8,5.4-12.7,7c-5.7,1.9-9.2,5.7-10.5,11.5
			c-1.6,7-3.4,13.9-4.8,20.9c-1.3,6.6-5.1,10.7-11.6,11.9c-5.3,1-8.4,3.9-9.9,8.9c-1.1,3.5-2.9,6.8-6.2,8.7
			c-6.7,3.8-12.7,8.5-19.2,12.6c-3.5,2.2-7.2,4-11.3,5.1c-2.1,0.6-3.9,0.6-5.9-0.6c-2.4-1.4-5.2-1.6-7.7-0.4
			c-2.3,1.1-4.4,0.9-6.7,0.1c-2.5-0.9-5-1.8-7.5-2.7c-12.9-5-14.7-4.4-21.3,7.7c-5.4,9.9-11,19.8-15.2,31c-2-4.4-3.8-8.2-5.6-12.1
			c-1.2-2.6-2.9-3.4-6-3.2c-6.9,0.4-14.1-0.2-18.2-6.8c-3.2-5.1-7.6-6.2-12.9-7.6c-8.3-2.1-13.8,0-17.6,7.5c-1.4,2.7-3.8,3.4-6.8,3
			c-8-1-15.9-1.9-23.9-2.6c-7.4-0.6-13.8-3.4-19.4-8.3c-2.7-2.4-5.7-4.6-8.5-6.9c-2.3-1.9-4.9-2.7-7.8-2.1
			c-8.9,1.9-16.5-1.1-23.7-5.8c-6.4-4.2-12.9-8.3-19.7-11.8c-6.5-3.3-12.5-3.4-18.4,1c-1,0.8-2.3,1.4-3.5,1.9
			c-1.1,0.4-2.4,0.3-2.6-1.1c-0.6-5.5-5-6.8-9-8.3c-7-2.8-11-0.3-10.3,7.2c1,11.1-3.5,20.6-6.9,31.1c-9.5-3.1-14,3.7-19,9.4
			c-0.4,0.5-0.7,1-1.2,1.4c-4.8,4.3-6.3,9.6-4.9,15.8c0.3,1.5,1,3.3-0.7,4.3c-1.7,0.9-3.5,0-4.7-1.2c-3.8-4.1-8.6-5.6-14-6.1
			c-1.3-0.1-2.6-0.7-3.8-1.3c-2.5-1.5-4.3-0.7-6.1,1.3c-2,2.2-4.1,4.2-6,6.4c-2.9,3.3-6.3,4.1-10.5,2.8c-7.5-2.3-15.1-4.5-22.7-6.6
			c-5.6-1.6-6.8-3.4-5.2-8.9c0.7-2.5,0.1-4.3-1.8-5.8c-3.1-2.5-6.1-5.2-9.5-7.4c-7-4.4-12.5-9.9-15.9-17.5c-0.9-2.1-2.5-3.8-3.9-5.7
			c-1.1-1.4-2.4-2.4-4.2-2.7c-2.7-0.3-4.4-2-5.8-4c-1.4-2-2.7-4-4.3-5.9c-3.4-4-6.4-4.7-11.3-2.9c-1.3,0.5-2.5,1.5-4.3,1.1
			c-0.9-1.7-1.8-3.6-2.8-5.4c-2.6-5.1-4.8-10.3-7.9-15.2c-2.5-3.9-5.7-7.2-10.2-8.3c-8.5-2.1-13.2-7.9-16.4-15.6
			c-2.8-6.7-6.6-13-11.7-18.3c-2.5-2.6-5.4-4.1-9-4c-2,0.1-4,0-5.7-1.1c-10.1-6.4-18.7-14-20.8-26.7c-0.2-1.5-0.7-2.9-1.7-4
			c-4.2-4.4-6.6-9.9-8.4-15.6c-2.3-7.1-5.7-13.4-12-17.8c-3-2.1-3.1-4.3-0.6-7.1c4.1-4.8,8.3-9.5,11.7-14.9c1.4-2.3,3.1-4.7,2-7.5
			c-2.9-7.3-6.2-14.3-13.7-18.2c-3.8-2-7.4-4.2-10.7-7c-4.9-4.2-8.7-8.9-9.1-15.9c-0.3-4.7-2.2-9.2-5.1-13.1c-2-2.7-2.8-5.6-2.7-8.9
			c0.1-2.5-0.3-5.7,2.5-6.7c2.8-1,4.5,1.8,6.1,3.6c3.2,3.7,4.8,8.1,6.1,12.7c0.8,2.8,1.2,6,4.2,7.8c2.9-2.1,2.9-5.3,3.6-8.2
			c1-4.6,2.3-8.9,5.4-12.6c4.2-4.8,8.8-9.1,14-12.7c4.4-3,9.2-4.5,14.5-3.4c4.1,0.9,7.4-0.2,10.1-3.4c2.5-2.9,5.5-3.2,8.9-1.4
			c2.8,1.5,5.6,3,8.3,4.5c2.7,1.5,4.9,0.8,6.8-1.4c1.5-1.7,2.6-3.5,3-5.7c1.2-5.8,1.2-5.8,7.3-5.9c1,0,2-0.2,2.9,0
			c4.8,0.6,8.1-1.4,10.5-5.6c1.5-2.7,3.5-5.4,6.8-6.3c3.9-1,7-3.2,9.6-6.2c1.4-1.7,3.1-2.4,5.2-1.4c8.6,4.1,10.2,1.8,13.3-6.3
			c0.1-0.3,0.3-0.7,0.4-1c1.5-4.5,4.6-7,9.3-7.7c6.7-0.9,13.5-2,20.2-2.6c4.7-0.5,8.5-2.2,11.1-6c3.2-4.5,7.5-6.3,12.9-5.9
			c4.9,0.4,9.4-0.9,13.5-3.6c6.5-4.3,13.4-7.9,20.8-10.5c1.8-0.6,3.8-1.3,5-3.5c-6-1.2-9.6-5.2-12.8-9.5c-2-2.7-2-9.9-0.1-11.1
			c3.5-2.1,6.3,0.3,8.8,2.4c2.9,2.4,5.5,2.7,8.9,0.9c5.8-3,14.1,2.9,13.5,9.4c-0.3,3.1-1,6.1-1.5,9.2c2.7,1.3,5-0.7,7.5,0.1
			c0.6,1.6,0,3.1-0.3,4.6c-0.6,4.2,0.4,6.1,4.3,7.7c4.9,2.1,9.6,1.1,13.9-1.6c3.3-2.1,6.4-2.8,10.2-1.2c4.1,1.7,7.4-0.1,8.8-4.4
			c1.1-3.3,0.8-6.7,0.2-10.1c-0.4-2.4-0.9-4.8-1.1-7.2c-0.2-2.2,1-3.8,3.2-3.2c7.3,1.9,14.9,2.5,22,4.9c2.7,0.9,4.4,3.1,3.9,5.9
			c-1.2,7.1,1.1,12.8,6.2,17.6c1.7,1.6,2.7,4,3.6,6.3c0.4,1.1,0.5,2.4,2.4,3.2c3.8-5.5,8.8-2.6,13.7-1.5c6.2,1.4,12,3.8,17.8,6.4
			c4,1.8,8.1,3.3,12.7,2c2.3-0.6,3.4,0.7,4,2.7c0.9,3.1,1.7,6.3,2.6,9.6c4.7-0.6,9.1-1.1,13.5-1.7c0.7,4.3-0.5,8.5,1.3,12.5
			c3.4-2,5.6-4.9,8.3-7c1.2-0.9,2.3-2.2,4.2-1.1c3,1.7,6.2,1.4,9.2,0.1c6.9-3.1,12.3-0.4,17.2,4.1c3.7,3.4,3.9,6.5,1.3,10.8
			c-3.3,5.4-7.9,9.5-13.1,13c-1.7,1.1-3.5,2.3-5,3.6c-1.4,1.2-2.3,2.8-1.7,4.8c1.2,4.1,7.6,9,11.9,8.8c2.2-0.1,3.7,0.8,5,2.4
			c7.3,9.4,15.5,18.1,20.7,29c2,4.1,5,7.5,8.6,10.3c4.4,3.5,7.3,3,10.7-1.5c0.5-0.7,1.1-1.4,1.4-2.1c2.4-6.2,7.5-8.9,13.6-10.4
			c4-1,8-2.1,11.9-3.5c4.2-1.5,4.7-3.6,2-7.1c-1.9-2.4-4-4.6-6.1-6.8c-3.9-4.3-7.4-8.8-9.3-14.2c-0.9-2.4-1.8-5,0.1-7.3
			c2-2.4,4.7-1.2,7.2-0.8c1.7,0.3,3.3,1,4.8,1.6c6,2.3,11.7,5.4,17.2,8.7c7.1,4.2,13.6,9.4,20.9,13.2c11.2,5.9,22.4,6.6,33.8,0.5
			c2.6-1.4,5.4-2.5,8.5-3.9c0.6,4.4,0.9,8.3,1.7,12c0.9,4-0.3,6.2-4.3,7.5c-4.7,1.6-9.2,4-14.1,6.1c3.3,3.5,5.4,7.9,9.8,8.6
			c5.6,0.9,8.5,4.2,10.5,8.9c1.8,4.1,4.6,7.4,8.5,9.7c1.9,1.1,3.8,1.6,5.9,1c5.3-1.6,9.9-4.7,15.8-5.7c-0.8-1-1.3-1.6-1.7-2.1
			c-1.3-1.7-3.4-3.8-1.4-5.7c2.2-2.2,4,0.6,5.5,1.7c3.4,2.7,6.4,6.2,10.6,7.6c5.6,1.9,10.2,5,14.1,9.3c1.1,1.2,2.5,2.2,4.2,1.3
			c4.1-2.2,7.8-0.9,11.3,1.4c4,2.7,8.1,4.5,12.7,1.3c0.3-0.2,0.9,0,1.4,0c0.2,0.4,0.5,0.7,0.5,1c0.4,1.6,1,3.3,1.2,5
			c1.6,13.7,7.3,24.6,19.3,32.2C732.9,269.1,736.8,273.9,738.5,280z"/>
	</defs>
	<clipPath id="SVGID_2_">
		<use xlink:href="#SVGID_1_"  style="overflow:visible;"/>
	</clipPath>
	<g class="st0">
		<path class="st1" d="M755.8,250.1c0,83.4,0,166.7,0,250.1c-249.8,0-499.6,0-749.3,0c0.5-0.4,1-0.9,1.5-1.3
			c49.1-32.8,98.2-65.5,147.4-98.3c74.4-49.6,148.8-99.1,223.1-148.7c0.9-0.6,1.7-1.3,2.5-2c1.4,0,2.7,0,4.1,0
			c122.3,0,244.6,0,366.9,0C753.3,250,754.5,250,755.8,250.1z"/>
	</g>
	<g class="st0">
		<path class="st2" d="M755.8,250.1c-1.3,0-2.5-0.1-3.8-0.1c-122.3,0-244.6,0-366.9,0c-1.4,0-2.7,0-4.1,0c-0.8-0.6-1.6-1.2-2.4-1.7
			c-15.7-10.5-31.5-21-47.2-31.5C224.8,145.7,118.2,74.7,11.6,3.6C9.9,2.4,8.2,1.2,6.5,0C256.2,0,506,0,755.8,0
			C755.8,83.4,755.8,166.7,755.8,250.1z"/>
	</g>
	<g class="st0">
		<path class="st3" d="M6.5,0c1.7,1.2,3.4,2.4,5.2,3.6c106.6,71.1,213.2,142.1,319.8,213.2c15.7,10.5,31.5,21,47.2,31.5
			c0.8,0.5,1.6,1.1,2.4,1.7c-0.8,0.7-1.6,1.4-2.5,2c-74.4,49.6-148.8,99.2-223.1,148.7C106.2,433.4,57.1,466.1,8,498.9
			c-0.5,0.4-1,0.8-1.5,1.3c-0.2-0.1-0.6-0.2-0.6-0.3c0-0.8,0-1.6,0-2.3c0-165,0-329.9,0-494.9C5.9,1.8,5.2,0.6,6.5,0z"/>
	</g>
</g>
<g>
	<path d="M250.5,457c-1.2,0-2.5-0.2-3.8-0.6c-7.1-2.2-14.4-4.2-21.5-6.3l-1.2-0.4c-3.4-1-5.1-2-6-3.6c-0.8-1.5-0.8-3.5,0.1-6.6
		c0.6-2,0.2-3.4-1.5-4.7c-0.9-0.7-1.7-1.4-2.6-2.1c-2.2-1.8-4.4-3.7-6.8-5.2c-7.8-4.9-13.1-10.8-16.3-17.9c-0.7-1.5-1.8-3-2.9-4.3
		c-0.3-0.4-0.6-0.8-0.9-1.1c-1.1-1.4-2.2-2.1-3.5-2.3c-3.2-0.4-5.2-2.5-6.5-4.4c-0.4-0.6-0.9-1.2-1.3-1.9c-0.9-1.3-1.9-2.7-2.9-4
		c-3.1-3.7-5.6-4.3-10.2-2.6c-0.3,0.1-0.6,0.3-0.9,0.4c-1,0.5-2.3,1.1-3.9,0.8l-0.5-0.1l-3-5.8c-0.9-1.7-1.8-3.5-2.6-5.2
		c-1.6-3.3-3.3-6.7-5.3-9.9c-2.8-4.4-5.9-7-9.6-7.9c-8-2-13.2-7-17.1-16.2c-2.9-6.9-6.7-13-11.5-18c-2.5-2.6-5.1-3.8-8.3-3.7
		c-2,0.1-4.3,0-6.2-1.2c-9.2-5.9-19-13.8-21.2-27.4c-0.3-1.6-0.7-2.6-1.5-3.4c-4.7-4.9-7.1-11.1-8.7-16c-2.6-8-6.2-13.5-11.6-17.3
		c-1.7-1.2-2.6-2.4-2.8-3.8c-0.2-1.5,0.5-3,2-4.7l0.4-0.4c3.9-4.5,8-9.2,11.2-14.4l0.3-0.5c1.3-2.1,2.5-4,1.7-6.1
		c-2.8-7.2-6-13.9-13.2-17.7c-4.4-2.3-7.9-4.6-10.8-7.1c-4.4-3.8-8.9-8.7-9.5-16.6c-0.3-4.3-2-8.6-4.9-12.6c-2-2.7-3-5.9-2.9-9.5
		c0-0.3,0-0.6,0-0.8c0-2.4,0-5.6,3.1-6.8c3.1-1.1,5.1,1.3,6.5,3.1c0.2,0.3,0.5,0.6,0.7,0.8c3.4,3.9,5,8.6,6.3,13.1
		c0.1,0.4,0.2,0.8,0.3,1.2c0.6,2.2,1.1,4.2,2.9,5.6c1.6-1.5,2-3.5,2.3-5.6c0.1-0.5,0.2-1,0.3-1.5c1.1-5.2,2.5-9.4,5.7-13
		c4.3-5,9.1-9.3,14.2-12.8c5-3.5,10-4.6,15.3-3.5c3.8,0.8,6.7-0.2,9.1-3c2.7-3.2,6.2-3.7,10.1-1.6c1,0.6,2.1,1.1,3.1,1.7
		c1.7,0.9,3.5,1.9,5.2,2.9c2.1,1.2,3.8,0.8,5.6-1.2c1.5-1.7,2.4-3.4,2.8-5.3c1.3-6.3,1.7-6.6,8.3-6.7c0.3,0,0.6,0,0.9,0
		c0.7,0,1.4-0.1,2.2,0c4.3,0.5,7.2-1.1,9.5-5.1c1.6-2.8,3.7-5.8,7.4-6.8c3.5-0.9,6.5-2.9,9.1-5.9c2.3-2.7,4.7-2.4,6.4-1.6
		c3.7,1.7,5.9,2.2,7.4,1.6c1.7-0.7,2.8-2.9,4.6-7.4c0.1-0.2,0.2-0.4,0.2-0.5c0.1-0.1,0.1-0.3,0.2-0.4c1.6-4.8,4.9-7.6,10.1-8.4
		l3.7-0.5c5.4-0.8,11-1.6,16.6-2.1c4.8-0.5,8.1-2.3,10.4-5.6c3.3-4.7,7.8-6.7,13.8-6.3c4.6,0.4,8.8-0.8,12.8-3.5
		c6.6-4.4,13.7-8,21-10.6l0.2-0.1c1.3-0.5,2.5-0.9,3.5-1.9c-5.5-1.6-9-5.5-11.9-9.5c-1.6-2.2-2-6.7-1.4-9.6c0.3-1.5,0.9-2.5,1.6-3
		c4.1-2.4,7.2,0.2,9.8,2.3l0.2,0.1c2.6,2.2,4.8,2.4,7.8,0.8c2.9-1.5,6.7-1.1,10,1c3.4,2.3,5.3,5.8,5,9.3c-0.2,2.2-0.6,4.3-1,6.4
		c-0.1,0.7-0.2,1.3-0.4,2c0.9,0.2,1.8,0.1,2.8-0.1c1.2-0.2,2.5-0.5,3.9,0l0.5,0.1l0.2,0.4c0.6,1.5,0.3,2.8,0,4
		c-0.1,0.4-0.2,0.7-0.2,1.1c-0.5,3.8,0.2,5.2,3.7,6.7c4.2,1.8,8.6,1.2,13-1.5c4-2.5,7.3-2.8,11.1-1.2c1.6,0.7,3.1,0.7,4.3,0.2
		c1.4-0.6,2.5-2,3.1-4c1.1-3.2,0.7-6.5,0.2-9.6c-0.1-0.6-0.2-1.2-0.3-1.8c-0.3-1.8-0.6-3.6-0.8-5.4c-0.1-1.6,0.3-2.9,1.2-3.7
		c0.8-0.7,2-0.9,3.3-0.6c3,0.8,6.1,1.3,9.1,1.9c4.3,0.8,8.7,1.6,12.9,3c3.4,1.1,5.1,3.8,4.6,7c-1.1,6.6,0.8,11.9,5.9,16.7
		c1.9,1.8,2.9,4.2,3.8,6.6c0.1,0.3,0.2,0.5,0.3,0.7c0.2,0.7,0.4,1.2,0.9,1.6c3.4-4.3,7.8-3,11.6-1.8c0.8,0.2,1.7,0.5,2.5,0.7
		c5.4,1.3,11,3.2,18,6.4c3.7,1.7,7.6,3.2,12,2c1.7-0.5,2.9,0,3.5,0.5c0.8,0.6,1.3,1.6,1.7,2.9c0.6,2.2,1.2,4.4,1.8,6.7l0.5,2
		l13.6-1.7l0.2,1c0.3,1.7,0.3,3.5,0.3,5.1c0,2.1,0,4.2,0.6,6.1c1.6-1.1,2.9-2.3,4.2-3.6c1-0.9,2-1.9,3-2.7c0.1-0.1,0.3-0.2,0.4-0.3
		c1-0.9,2.6-2.2,4.9-0.9c3.1,1.7,6.2,1,8.3,0.1c8.2-3.7,14.4,0.6,18.3,4.3c4,3.7,4.4,7.3,1.5,12c-3.1,5.1-7.5,9.4-13.4,13.3
		c-1.6,1-3.4,2.2-4.9,3.5c-1.4,1.2-1.8,2.4-1.4,3.8c1.1,3.7,7.2,8.3,10.9,8.1c2.4-0.1,4.3,0.8,5.8,2.8c1.8,2.3,3.6,4.6,5.4,6.8
		c5.6,6.9,11.4,14.1,15.4,22.4c1.8,3.7,4.6,7,8.3,10c2,1.6,3.6,2.2,5,2.1c1.4-0.2,2.8-1.3,4.3-3.4l0.2-0.3c0.4-0.5,0.8-1.1,1-1.6
		c2.9-7.5,9.5-9.9,14.2-11c4.4-1.1,8.3-2.2,11.8-3.5c1.7-0.6,2.7-1.3,3-2.1c0.2-0.8-0.3-2-1.4-3.5c-1.3-1.7-2.8-3.3-4.2-4.8
		c-0.6-0.6-1.2-1.3-1.8-1.9c-3.5-3.9-7.4-8.7-9.5-14.6c-0.9-2.5-2-5.6,0.2-8.3c2.1-2.5,4.8-1.9,7-1.4c0.4,0.1,0.8,0.2,1.1,0.2
		c1.6,0.3,3.2,0.9,4.7,1.5l0.4,0.1c5.2,2,10.6,4.7,17.4,8.8c3,1.8,5.9,3.8,8.8,5.7c3.9,2.6,7.9,5.3,12.2,7.6
		c11.4,6,22.2,6.2,32.9,0.5c1.8-1,3.7-1.8,5.7-2.7c0.9-0.4,1.9-0.8,2.9-1.3l1.2-0.6l0.2,1.3c0.2,1.4,0.3,2.7,0.5,4
		c0.3,2.8,0.6,5.4,1.2,7.9c1,4.6-0.5,7.2-5,8.7c-3.2,1.1-6.3,2.5-9.6,4.1c-1,0.5-2.1,1-3.2,1.5c0.5,0.6,1,1.3,1.5,1.9
		c2.1,2.6,3.9,4.9,6.8,5.4c6.7,1,9.5,5.4,11.3,9.5c1.8,4,4.5,7.1,8.1,9.3c1.8,1.1,3.5,1.4,5.1,0.9c2.1-0.6,4.1-1.5,6.1-2.4
		c2.6-1.1,5.2-2.3,8.1-3c-0.3-0.3-0.5-0.6-0.7-0.9l-0.4-0.5c-1.3-1.6-3.3-4.1-0.9-6.5c2.4-2.5,4.7-0.3,5.9,0.9
		c0.3,0.3,0.6,0.6,0.9,0.8c1,0.8,1.9,1.6,2.8,2.4c2.4,2.1,4.6,4.1,7.5,5c5.6,1.9,10.4,5,14.6,9.5c1.5,1.6,2.4,1.4,3,1.1
		c5-2.7,9.2-0.6,12.3,1.5c4.2,2.8,7.7,4,11.6,1.3c0.5-0.4,1.1-0.3,1.6-0.2c0.1,0,0.3,0,0.4,0h0.6l0.3,0.5c0.1,0.1,0.1,0.2,0.2,0.3
		c0.2,0.3,0.4,0.6,0.4,0.9c0.1,0.4,0.2,0.9,0.4,1.3c0.3,1.2,0.7,2.5,0.8,3.8c1.6,14.2,7.8,24.5,18.8,31.5c5.6,3.5,9.4,8.7,11.1,14.8
		l0,0.3l0,6.9c-1.9,6.3-6.3,9.2-13.5,8.8c-3.2-0.2-6.5-0.1-9.7-0.1l-1.5,0c-3.1,0.1-5.4,1.3-7,3.6c-1.1,1.6-2.1,3.2-3.2,4.8
		c-2.7,4.2-5.5,8.5-8.9,12.3c-0.3,0.4-0.6,1.1-0.7,1.8c-0.5,3.7-2.7,6.1-5,8.2c-3.4,3.1-7.5,5.4-13,7.2c-5.4,1.8-8.6,5.4-9.8,10.8
		c-0.6,2.7-1.3,5.5-1.9,8.2c-1,4.2-2.1,8.5-2.9,12.7c-1.4,7.2-5.6,11.5-12.4,12.7c-4.8,0.9-7.7,3.5-9.1,8.2
		c-1.4,4.5-3.6,7.5-6.7,9.3c-3.9,2.2-7.7,4.8-11.3,7.3c-2.5,1.8-5.2,3.6-7.8,5.3c-3.8,2.4-7.6,4.1-11.5,5.2
		c-2.6,0.7-4.6,0.5-6.7-0.7c-2.1-1.2-4.6-1.4-6.8-0.3c-2.4,1.1-4.7,1.1-7.4,0.1c-1-0.4-2.1-0.8-3.2-1.1c-1.5-0.5-2.9-1-4.4-1.6
		c-12.5-4.8-13.7-4.4-20.1,7.2l-1.1,2c-5,9.1-10.2,18.5-14.1,28.9l-0.8,2.2l-2.8-6c-1.3-2.9-2.6-5.6-3.8-8.3c-1-2.2-2.3-2.8-5.1-2.7
		c-7,0.4-14.7-0.1-19.1-7.2c-3-4.8-7.1-5.8-12.3-7.1c-8-2-12.9,0.1-16.5,7c-1.4,2.8-4.1,4-7.8,3.6c-7.1-0.9-15.5-1.8-23.9-2.6
		c-7.7-0.7-14.2-3.5-20-8.5c-1.8-1.6-3.8-3.2-5.7-4.7c-0.9-0.7-1.8-1.4-2.7-2.2c-2.2-1.8-4.6-2.4-7-1.9c-8.1,1.7-15.6-0.1-24.5-5.9
		c-5.8-3.8-12.5-8.1-19.6-11.7c-6.5-3.4-12.1-3.1-17.4,1c-1.2,0.9-2.7,1.5-3.8,2c-1.1,0.4-2.1,0.4-2.8-0.1c-0.4-0.3-1-0.8-1.1-1.9
		c-0.5-4.5-3.9-5.8-7.5-7.2l-0.9-0.4c-3.3-1.3-5.8-1.4-7.3-0.3c-1.8,1.3-1.9,4.2-1.7,6.4c0.8,9.2-2,17.1-4.9,25.6
		c-0.7,1.9-1.4,3.9-2,5.9l-0.3,1l-1-0.3c-7.9-2.6-12,2.3-16.5,7.4c-0.5,0.6-1,1.2-1.5,1.8c-0.1,0.2-0.3,0.3-0.4,0.5
		c-0.3,0.3-0.5,0.7-0.9,1c-4.4,4-5.9,8.8-4.6,14.8l0.1,0.4c0.3,1.4,0.9,3.7-1.3,5c-2.2,1.2-4.5,0.1-5.9-1.4
		c-3.3-3.4-7.5-5.3-13.3-5.8c-1.6-0.1-3.2-0.9-4.2-1.5c-1.8-1.1-3.2-0.8-4.8,1.1c-0.9,1-1.9,2-2.8,2.9c-1.1,1.1-2.2,2.2-3.2,3.4
		C256,455.8,253.4,457,250.5,457z M166.6,386.2c2.9,0,5.2,1.4,7.6,4.2c1.1,1.3,2.1,2.7,3,4.1c0.4,0.6,0.8,1.2,1.3,1.8
		c1.6,2.3,3.2,3.4,5.1,3.6c1.9,0.2,3.5,1.2,4.9,3c0.3,0.4,0.6,0.7,0.9,1.1c1.2,1.5,2.4,3,3.2,4.8c3,6.8,8.1,12.4,15.6,17
		c2.5,1.6,4.8,3.5,7.1,5.4c0.8,0.7,1.7,1.4,2.5,2.1c2.3,1.8,3,4,2.1,6.8c-0.7,2.6-0.8,4.1-0.2,5.1c0.6,1,2,1.8,4.8,2.6l1.2,0.4
		c7.1,2,14.4,4.1,21.5,6.3c3.9,1.2,6.9,0.4,9.4-2.5c1.1-1.2,2.2-2.4,3.3-3.5c0.9-0.9,1.9-1.9,2.7-2.9c2.3-2.5,4.7-3,7.3-1.5
		c1.2,0.7,2.3,1.1,3.3,1.2c6.4,0.6,11,2.6,14.6,6.4c0.3,0.3,1.9,1.9,3.5,1c0.8-0.4,0.8-1,0.4-2.7l-0.1-0.5
		c-1.5-6.7,0.2-12.3,5.2-16.8c0.2-0.2,0.4-0.5,0.7-0.7c0.1-0.2,0.3-0.4,0.5-0.6c0.5-0.6,1-1.2,1.5-1.7c4.5-5.2,9.1-10.6,17.6-8.3
		c0.6-1.7,1.2-3.4,1.7-5.1c2.9-8.2,5.6-16,4.8-24.7c-0.4-3.9,0.5-6.7,2.5-8.2c1.5-1.1,4.2-2,9.2,0l0.9,0.3c3.8,1.5,8.2,3.1,8.7,8.8
		c0,0.1,0.1,0.3,0.2,0.4c0.2,0.1,0.6,0.1,1.1-0.1c1-0.4,2.3-0.9,3.3-1.7c5.9-4.5,12.3-4.8,19.5-1.1c7.2,3.7,14,8,19.8,11.8
		c8.4,5.5,15.5,7.3,23,5.7c3-0.6,6,0.1,8.7,2.3c0.9,0.7,1.8,1.4,2.7,2.2c1.9,1.5,3.9,3.1,5.8,4.8c5.4,4.8,11.6,7.4,18.8,8
		c8.5,0.7,16.9,1.7,24,2.6c2.9,0.4,4.8-0.4,5.8-2.5c3.9-7.7,9.9-10.3,18.8-8c5.2,1.3,10.1,2.6,13.5,8c3.8,6.2,10.6,6.7,17.3,6.3
		c3.6-0.2,5.6,0.9,7,3.8c1.2,2.7,2.5,5.4,3.8,8.3l0.8,1.7c3.8-9.7,8.6-18.5,13.3-27l1.1-2c6.8-12.5,9.2-13.3,22.5-8.1
		c1.4,0.6,2.9,1.1,4.3,1.6c1.1,0.4,2.1,0.8,3.2,1.1c2.2,0.8,4,0.8,5.9-0.1c2.8-1.3,6-1.2,8.7,0.4c1.6,0.9,3.1,1,5.2,0.5
		c3.7-1,7.3-2.6,11-4.9c2.6-1.7,5.2-3.5,7.8-5.2c3.7-2.5,7.5-5.2,11.4-7.4c2.6-1.5,4.5-4.2,5.7-8.2c1.7-5.5,5.2-8.6,10.7-9.6
		c6-1.1,9.6-4.7,10.8-11.1c0.9-4.3,1.9-8.6,2.9-12.8c0.6-2.7,1.3-5.4,1.9-8.2c1.4-6.2,5-10.2,11.1-12.3c5.2-1.8,9.1-3.9,12.3-6.8
		c2.4-2.1,4-4.1,4.4-7c0.1-0.5,0.3-1.9,1.2-2.9c3.3-3.7,6.1-7.9,8.7-12c1-1.6,2.1-3.2,3.2-4.8c1.9-2.8,4.9-4.4,8.6-4.4l1.5,0
		c3.2-0.1,6.6-0.1,9.9,0.1c6.2,0.4,9.8-1.9,11.5-7.2v-6.3c-1.6-5.6-5.1-10.3-10.2-13.5c-11.6-7.4-18-18.1-19.7-33
		c-0.1-1.1-0.5-2.3-0.8-3.5c-0.1-0.4-0.2-0.9-0.4-1.3c0-0.1-0.1-0.2-0.2-0.3c0,0,0,0,0,0c-0.1,0-0.2,0-0.3,0
		c-5.1,3.5-9.6,1.4-13.8-1.4c-4-2.7-7-3.1-10.2-1.4c-1.8,1-3.6,0.4-5.4-1.5c-3.9-4.3-8.4-7.2-13.7-9c-3.2-1.1-5.7-3.3-8.2-5.4
		c-0.9-0.8-1.8-1.6-2.7-2.3c-0.3-0.3-0.7-0.6-1-0.9c-1.7-1.7-2.3-1.8-3.1-0.9c-1,1-0.5,1.9,1.1,3.9c0.1,0.2,0.3,0.4,0.4,0.5
		c0.3,0.4,0.6,0.7,0.9,1.2l1.8,2.2l-1.7,0.3c-3.3,0.6-6.3,1.9-9.3,3.2c-2,0.9-4.2,1.8-6.4,2.5c-2.2,0.7-4.4,0.3-6.7-1.1
		c-4-2.4-7-5.8-8.9-10.2c-2.3-5.2-5.1-7.6-9.8-8.3c-3.7-0.6-5.9-3.4-8.1-6.1c-0.7-0.9-1.5-1.9-2.3-2.8l-1-1l1.3-0.6
		c1.5-0.7,2.9-1.3,4.4-2c3.3-1.6,6.5-3,9.8-4.1c3.5-1.2,4.4-2.8,3.6-6.4c-0.6-2.6-0.9-5.3-1.2-8.1c-0.1-0.9-0.2-1.8-0.3-2.7
		c-0.6,0.3-1.2,0.5-1.7,0.8c-1.9,0.9-3.8,1.7-5.5,2.6c-11.3,6-22.7,5.8-34.8-0.5c-4.3-2.3-8.4-5-12.3-7.7c-2.8-1.9-5.7-3.8-8.7-5.6
		c-6.7-4-11.9-6.6-17.1-8.6l-0.4-0.1c-1.4-0.5-2.9-1.1-4.3-1.4c-0.4-0.1-0.8-0.2-1.2-0.3c-2.3-0.5-3.8-0.7-5,0.7
		c-1.5,1.8-0.7,4,0.1,6.3c2,5.6,5.7,10.2,9.1,13.9c0.6,0.6,1.2,1.3,1.8,1.9c1.5,1.6,3,3.2,4.4,5c1.7,2.1,2.2,3.8,1.8,5.3
		c-0.4,1.5-1.8,2.5-4.2,3.4c-3.5,1.3-7.5,2.4-12,3.5c-6.9,1.7-10.8,4.7-12.9,9.8c-0.3,0.8-0.8,1.4-1.3,2.1l-0.2,0.3
		c-1.9,2.6-3.7,3.9-5.7,4.2c-1.9,0.3-4-0.5-6.5-2.5c-4-3.1-6.9-6.7-8.8-10.7c-3.9-8.1-9.6-15.2-15.2-22c-1.8-2.2-3.7-4.5-5.4-6.8
		c-1.1-1.5-2.4-2.1-4.1-2c-4.5,0.2-11.5-5-12.9-9.5c-0.5-1.5-0.5-3.8,2-5.9c1.7-1.4,3.5-2.6,5.1-3.7c5.7-3.7,9.9-7.9,12.8-12.7
		c2.4-3.9,2.1-6.5-1.1-9.5c-5.6-5.2-10.6-6.4-16.1-3.9c-3.6,1.6-7,1.6-10.1-0.1c-1-0.6-1.6-0.2-2.7,0.7c-0.1,0.1-0.3,0.2-0.4,0.3
		c-1,0.8-1.9,1.7-2.9,2.6c-1.6,1.6-3.3,3.2-5.6,4.5l-1,0.6l-0.5-1c-1.2-2.7-1.2-5.4-1.2-8c0-1.3,0-2.5-0.1-3.8l-13.4,1.6l-1-3.7
		c-0.6-2.3-1.2-4.5-1.8-6.7c-0.2-0.9-0.6-1.5-1-1.8c-0.2-0.1-0.6-0.5-1.7-0.2c-5,1.4-9.5-0.4-13.4-2.1c-6.9-3.1-12.3-5.1-17.6-6.3
		c-0.9-0.2-1.8-0.5-2.6-0.7c-3.9-1.2-7.3-2.2-10,1.8l-0.5,0.7l-0.8-0.3c-2-0.8-2.4-2.2-2.7-3.2c-0.1-0.2-0.1-0.4-0.2-0.6
		c-0.9-2.2-1.8-4.4-3.4-5.9c-5.6-5.3-7.7-11.3-6.5-18.5c0.4-2.2-0.8-4-3.2-4.8c-4.1-1.4-8.5-2.2-12.7-2.9c-3-0.6-6.2-1.1-9.3-1.9
		c-0.4-0.1-1.1-0.2-1.5,0.2c-0.4,0.3-0.6,1.1-0.5,2c0.2,1.7,0.5,3.5,0.8,5.3c0.1,0.6,0.2,1.2,0.3,1.9c0.5,3.2,1,6.9-0.3,10.6
		c-0.9,2.5-2.3,4.3-4.2,5.2c-1.7,0.8-3.8,0.7-5.9-0.2c-3.2-1.3-5.9-1-9.3,1.1c-5,3.1-10,3.7-14.8,1.7c-4.3-1.8-5.6-4.1-4.9-8.8
		c0.1-0.4,0.1-0.8,0.2-1.2c0.2-0.9,0.4-1.7,0.2-2.4c-0.7-0.1-1.5,0-2.4,0.2c-1.4,0.3-3,0.6-4.8-0.3l-0.7-0.3l0.1-0.7
		c0.2-0.9,0.3-1.9,0.5-2.8c0.4-2,0.8-4.2,0.9-6.2c0.3-2.7-1.4-5.6-4.1-7.5c-2.6-1.8-5.7-2.1-7.9-0.9c-3.8,2-6.8,1.7-10-1l-0.2-0.1
		c-2.8-2.3-4.8-3.7-7.5-2.1c-0.2,0.1-0.5,0.5-0.7,1.6c-0.5,2.4-0.1,6.3,1.1,8c2.9,4,6.4,7.9,12.2,9.1l1.3,0.3l-0.6,1.2
		c-1.4,2.5-3.6,3.3-5.4,3.9l-0.2,0.1c-7.2,2.5-14.1,6-20.5,10.4c-4.3,2.9-9.1,4.2-14.1,3.8c-5.2-0.4-9.1,1.4-12,5.4
		c-2.7,3.8-6.6,5.9-11.9,6.4c-5.5,0.6-11.1,1.3-16.5,2.1l-3.7,0.5c-4.4,0.6-7.1,2.9-8.4,7c-0.1,0.2-0.2,0.5-0.3,0.7
		c-0.1,0.1-0.1,0.2-0.2,0.4c-1.7,4.3-3.1,7.5-5.7,8.5c-2.1,0.8-4.7,0.3-9-1.7c-1.5-0.7-2.7-0.4-4,1.1c-2.9,3.4-6.2,5.5-10.1,6.6
		c-2.9,0.8-4.7,3.3-6.2,5.8c-2.7,4.7-6.4,6.7-11.4,6.1c-0.6-0.1-1.2,0-1.8,0c-0.3,0-0.6,0-0.9,0c-2.7,0.1-4.2,0.1-4.9,0.6
		c-0.6,0.5-1,2-1.5,4.5c-0.5,2.2-1.5,4.2-3.3,6.2c-2.4,2.7-5.1,3.2-8.1,1.6c-1.7-1-3.4-1.9-5.2-2.8c-1-0.6-2.1-1.1-3.1-1.7
		c-3-1.7-5.5-1.3-7.6,1.1c-2.9,3.4-6.5,4.7-11.1,3.7c-4.7-1-9.2,0.1-13.7,3.2c-5,3.4-9.6,7.6-13.9,12.5c-2.9,3.3-4.1,7.2-5.2,12.1
		c-0.1,0.5-0.2,1-0.3,1.5c-0.4,2.5-1,5.3-3.7,7.3l-0.5,0.4l-0.6-0.3c-3-1.7-3.7-4.6-4.4-7.2c-0.1-0.4-0.2-0.8-0.3-1.2
		c-1.2-4.3-2.7-8.7-5.9-12.3c-0.2-0.3-0.5-0.6-0.7-0.9c-1.6-1.9-2.7-3.1-4.3-2.5c-1.7,0.6-1.8,2.3-1.8,4.9c0,0.3,0,0.6,0,0.9
		c-0.1,3.2,0.8,5.9,2.6,8.2c3.2,4.2,5,8.9,5.3,13.6c0.5,7.2,4.7,11.7,8.8,15.2c2.8,2.4,6.2,4.6,10.5,6.8
		c7.8,4.1,11.3,11.5,14.1,18.7c1.2,3-0.5,5.7-1.8,7.9l-0.3,0.5c-3.3,5.3-7.4,10.1-11.4,14.6l-0.4,0.4c-1.1,1.3-1.6,2.3-1.5,3.2
		c0.1,0.8,0.7,1.6,1.9,2.4c5.7,4,9.6,9.8,12.3,18.3c1.5,4.6,3.8,10.5,8.2,15.2c1,1.1,1.7,2.5,2,4.5c2.1,12.8,11.5,20.3,20.3,26
		c1.5,0.9,3.4,1,5.1,0.9c3.7-0.1,6.9,1.3,9.8,4.3c5,5.2,9,11.5,11.9,18.6c3.5,8.6,8.4,13.2,15.7,15c4.2,1.1,7.8,3.9,10.8,8.8
		c2.1,3.3,3.7,6.7,5.4,10.1c0.8,1.7,1.7,3.5,2.6,5.2l2.6,4.9c0.8,0,1.5-0.3,2.2-0.7c0.4-0.2,0.7-0.3,1.1-0.5
		C163.6,386.5,165.2,386.2,166.6,386.2z"/>
</g>
</svg>
