<?xml version="1.0" encoding="utf-8"?>
<!-- Generator: Adobe Illustrator 24.3.0, SVG Export Plug-In . SVG Version: 6.00 Build 0)  -->
<svg version="1.1" id="Layer_1" xmlns="http://www.w3.org/2000/svg" xmlns:xlink="http://www.w3.org/1999/xlink" x="0px" y="0px"
	 viewBox="0 0 303 300" style="enable-background:new 0 0 303 300;" xml:space="preserve">
<style type="text/css">
	.st0{clip-path:url(#SVGID_2_);}
	.st1{fill:#FF0000;}
	.st2{clip-path:url(#SVGID_4_);}
	.st3{fill:#006600;}
	.st4{clip-path:url(#SVGID_6_);}
	.st5{fill-rule:evenodd;clip-rule:evenodd;fill:#FFFF00;}
	.st6{clip-path:url(#SVGID_8_);}
	.st7{fill:#FFFFFF;}
	.st8{fill:#FFFF00;}
	.st9{fill:#003399;}
</style>
<g>
	<g>
		<g>
			<defs>
				<path id="SVGID_1_" d="M121.2,82.8c-0.4-0.8-0.9-1.5-1.7-2.2c-0.9,1.7-1.3,3.6-1.9,5.3c-0.6,1.7-1.1,3.5-1.9,5.2
					c0.1-0.5,0.2-1,0.3-1.5c1.3-5.9,2.7-11.8,4.1-17.7c0.2-0.7,0.1-1.4,0-2.2c-1.3-6.7-3.5-13.1-5.4-19.6c-0.2-0.6-0.5-1.2-0.3-1.8
					c1-3.5-0.4-6.7-1.1-10c-0.5-2.2-1.1-4.3-2-6.4c-1.1-2.5-0.7-5.3-0.4-8c0.1-0.6,0.5-0.9,1-1.2c1.1-0.8,2.1-1.5,3.2-2.3
					c0.4-0.3,1-0.6,0.9-1.2c-0.2-1.7,1-2.3,2.2-2.7c1.1-0.4,1.8-0.9,1.6-2.3c-0.1-0.8,0.3-1,1.1-1.1c1.6-0.2,3.5,0.1,4.5-1.9
					c0.2-0.4,0.8-0.3,1.2-0.2c1.5,0.1,3,0.1,4.5,0.2c1.8,0.2,3.4-0.2,4.8-1.3c0.8-0.7,1.8-1.1,2.8-1.7c0.1,0.3,0.3,0.5,0.3,0.7
					c0.3,1.9,0.9,3.4,3.3,2.8c0.5-0.1,0.8,0.1,0.9,0.6c0.2,0.8,0.3,1.5-0.4,2.2c-1.5,1.4-2.9,2.9-4.3,4.3c-1.1,1.1-0.7,3.5,0.7,4.2
					c1.1,0.5,0.8,1.6,0.9,2.5c0.1,1.1,0.5,1.5,1.6,1.4c0.7-0.1,1.4-0.1,2-0.1c1.1,0,2.4-0.2,2.9-0.9c1.2-1.9,3.4-2.5,4.9-4
					c0.6,0.7,0.3,1.8,1.2,2.6c1.7-1.4,3.8-1.9,5.8-2.5s3.4,0.8,5.1,0.7c0.5,0,0.4,0.6,0.3,1c-0.1,0.5-0.3,1-0.2,1.7
					c1.5,0,3.1,0.6,4.6-0.8c1-1,2.5-0.5,3,0.8c0.2,0.5,0.2,1.2,0.7,1.5c0.1,0,0.1,0,0.2,0c1.8-2.7,4.8-2.6,7.5-3.1
					c2.2-0.5,3.4-2.3,3-4.5c0-0.2,0-0.4-0.1-0.6c-0.2-0.7,0.1-1.2,0.7-1.5c0.7-0.4,1,0,1.5,0.4c2.3,2.2,3.6,2.3,6.2,0.2
					c1.3,1.9,3.3,1.2,5.1,1.4c0.9,0.1,1.3-0.5,1.7-1.2c0.8-1.3,1.8-1.4,2.4,0.1c0.7,1.6,1.6,2.1,3.3,1.6c1.4-0.4,3.2,0.1,4.2-1.5
					c1.2,0.5,1.4,1.4,1.1,2.5c-0.3,0.9-0.3,1.7,0.6,2.4c0.8,0.6,0.5,1.4,0.4,2.2c-0.3,2.6-1.2,5.1-0.5,7.7c0.5,2,1.3,2.5,3.3,2
					c3.6-1,6.9-0.5,9.6,2.2c2.4,2.4,2.3,2.4,0.5,5.4c-1.3,2.2-3.2,4-3.5,6.7c0,0.1-0.1,0.4-0.2,0.4c-2.3,0.2-2.3,2.6-3.6,3.8
					c-1.4,1.2-2.6,2.5-4.1,3.7c-1.4,1-2.8,2-4.7,1.1c-1-0.5-1.6,0-2.1,0.9c-2,3.1-3.7,6.5-5.1,9.9c-0.4,1.1-1,1.7-2.3,1.8
					c-1.4,0.1-2.8,0.4-4.1,0.6c-0.3,0.8,0.3,1.2,0.5,1.7c1.1,2,2.7,3.7,3.3,6c0.2,0.7,0.9,0.8,1.5,1.2c-0.7,2.1-0.9,4.4-1.3,6.7
					c-0.2,1.1-0.1,2,0.4,2.8c1.1,1.8,1,3.5,0.1,5.3c-0.6,1.1-1.1,2.1,0.5,3.2c1,0.7,1,2.1,0.2,3.2c-0.7,1-1.5,1.8-1.4,3.2
					c0.1,1.2,0.3,2.2,1.4,3c1.5,1.1,1.2,2.7-0.6,3.2c-1.2,0.4-1.6,1-1.7,2.1c0,1-0.5,1.2-1.4,1.2c-1.2,0.1-2.6-0.5-3.6,0.8
					c-1.4,1.8-1.6,3.9-1.6,5.9c0,0.9,0.8,1.8,1.9,1.8c1.1,0,1.5,0.8,2.2,1.5c2.5,2.6,1.7,5.7,1.2,8.7c0,0.1,0,0.1,0,0.2
					c0.2,2.4-0.9,4.1-2.9,5.4c-0.5,0.3-0.7,0.8-0.8,1.5c-0.1,1.4-0.4,2.8-0.5,4.2c-0.3,2.7-1,3.3-3.8,3.4c-2.4,0-4.8,0-7.2,0
					c-0.5,0-1.1-0.1-1.4,0.1c-2.3,1.7-4.7,0.6-7.1,0.4c-1-0.1-1.9-0.3-2.9-0.4c-0.6,0.6-0.2,1-0.1,1.5c0.8,2.7,2.7,4.5,4.6,6.5
					c1.5,1.5,2.7,3,4.7,3.8c0.1,0.1,0.2,0.5,0.1,0.7c0,0.4-0.1,0.7-0.2,1.1c-0.8,2.5-0.3,4.7,1.9,6.3c0.8,0.6,1,1.3,0.6,2.3
					c-0.5,1.6,0.2,3.1,1.7,3.9c0.6,0.3,1.1,0.7,1.7,0.9c1.1,0.5,1.5,1.1,1.2,2.3c-0.3,1.5,1,2.4,2.4,1.9c2.5-1,2.6-1,4.8,1.7
					c0.9,1.1,0.8,2.5-0.3,4.2c-0.7,1-1.4,2.1-2.1,3.1c-0.7,0.9-1,1.8-0.7,3s-1.4,3.3-2.6,3.3c-0.9,0-1.6,0.4-2.2,1
					c-0.7,0.7-1.3,1.6-2.1,2.1c-2.2,1.5-3.2,3.9-2.6,6.1c0.7,2.5-0.8,3.9-1.5,5.8c-0.5,1.3-1.5,2.5-0.7,4.1c0.2,0.4-0.4,1.2-0.8,2
					c2.8,0.3,3.5,2.6,4.7,4.4c1.8,2.7,3.8,5.2,4.6,8.5c0.3,1.3,1.3,1.5,2.5,1.1c1.5-0.6,3-1.1,4.8-1.8c-0.4,1.7-0.8,3.1-1.1,4.6
					c-0.3,1.2-0.5,2.5-0.7,3.7c-0.3,1.7-1.7,2.2-3.1,1.3c-1.9-1.2-2.4-1.1-3.1,1c-0.2,0.7-0.7,0.9-1.3,0.9c-1,0.1-2.1,0.3-3.1,0.3
					c-0.9,0-1.3,0.4-1.4,1.3c-0.1,1.1-0.2,2.3-0.3,3.4c-0.1,1.2-0.5,2.3-1.5,3.1c-3.6,2.8-5.7,6.5-7,10.8c-0.9,2.9-1.6,5.4-0.4,8.5
					c2,5,2.2,10.4,3.3,15.6c0,0.2,0,0.5,0,0.7c-2.8,0.3-5.5,0.8-7.7,2.7c-1.9,1.5-3.9,2.8-5.8,4.3c-1.1,0.8-2.5,1-3.8,1.4
					c-6.9,2-7,2.1-12.6-2.2c-2.2-1.7-4.3-1.1-6.5-0.8c-1,0.2-1.8,0.3-2.6-0.5c-0.3-0.3-0.7-0.4-1.2-0.3c-3.4,0.2-6.4-0.9-9.5-2
					c-1.5-0.6-2.7,0.6-3.6,1.6c-0.6,0.6-1.1,1-1.9,1.2c-1.8,0.4-3.5,0.9-5.3,1.3c-1.6,0.4-3.2,0.8-4.3,2.3c-0.8-0.3-1.3-1-2.3-0.7
					c0.6-1.2,1-2.1,1.5-3c1.8-3.1,3.5-6.4,3.7-9.9c0.2-3.1,1.5-5.4,2.8-7.9c1.2-2.3,0.8-4.8,0.4-7c-0.6-2.7-0.5-5.2,0.4-7.8
					c0.2-0.6,0.4-1.2,0.1-1.7c-0.7-1.5-0.5-3-0.2-4.6c0.4-1.8-0.2-3.5-0.3-5.3c-0.1-0.6-0.5-0.9-1-1.1c-0.8-0.4-1.7-0.8-2.5-1.3
					c4.8-8.3,5.8-16.9,2.7-26.2c1.7,2.3,3.9,1.4,5.8,1.8c0.3-0.9,0.1-1.5-0.5-1.8c-1.3-0.7-1.4-1.8-1.4-3c0-1-0.1-2.1-0.6-2.9
					c-0.4-0.2-0.7-0.1-1,0.1c-1.6,1.1-3.2,1.5-5.1,0.9c-1.1-0.3-2.1,0.6-2.7,1.5c-0.4,0.7-0.7,1-1.5,1c-0.2,0-0.5,0.2-0.7,0.3
					c-2.5,2.4-5.9,1.8-8.9,3.1c0.2-2.2,0.7-3.8,2.3-5c-2.4-1.9-2.6-4.9-3.7-7.3c-0.3-0.6,0-1.1,0.8-1.2c0.7,0,1.5,0,2.2,0
					c0.8,2.1,1.4,2.4,2.9,1.8c0.3,0.4,0.7,0.9,1.1,1.4c0.8-0.8,0.2-1.8,0.6-2.7c1.9,0.8,2.8-0.3,3.3-2c-0.3-0.6-1.1-0.4-1.7-0.9
					c1-0.9,2-1.7,2.9-2.5c0.5-0.4,0.8-0.8,0.5-1.5c-1.2-2.4-1.7-5-2.2-7.6c-0.7-0.2-0.8,0.4-1,0.7c-1.9,2.7-3.2,5.6-4.2,8.7
					c-0.8,2.5-1,2.5-3.6,2.4c-1.1,0-2.2-0.3-3.3,0.1c-2,0.7-3.9,1.1-5.8-0.1c-0.8-0.5-1.7,0.2-2.6-0.1c-0.4-0.5,0-1.1,0-1.7
					c0-0.5,0.1-1.2-0.1-1.4c-1.6-1.4-0.5-2.6,0-3.9c0.2-0.5,0.4-1,0.6-1.4c1.6-2.9,2.4-5.9,1.9-9.2c-0.4-2.8,1-5.1,2.1-7.4
					c1.1-2.2,1.5-4.5,1.2-7c-0.2-1.4-1.2-2.4-1.8-3.9c3,0.2,4.5-2.9,7.4-2.9c0,0,0.1-0.1,0.1-0.2c-0.7-2.1,0-3.6,1.6-4.9
					c0.8-0.6,1.4-1.5,2.2-2.2c1.4-1.3,2.6-2.5,1.4-4.7c-0.4-0.8,0.1-1.6,0.4-2.4c2.8-8,5.6-15.9,8.5-23.9c0.5-1.4,0.6-2.6-0.5-3.7
					c-0.9-1-1-2.1-0.6-3.5c2-7,4-14,5.9-21c0.3-1.1,0.7-1.9,1.9-2.1c0.9-0.2,3.1-3.6,3.1-4.5c0-0.1,0-0.1,0-0.2
					C119.7,85,119.7,85,121.2,82.8z"/>
			</defs>
			<clipPath id="SVGID_2_">
				<use xlink:href="#SVGID_1_"  style="overflow:visible;"/>
			</clipPath>
			<g class="st0">
				<rect x="-82.2" y="-20.7" class="st1" width="487.9" height="325.2"/>
			</g>
		</g>
		<g>
			<defs>
				<path id="SVGID_3_" d="M121.2,82.8c-0.4-0.8-0.9-1.5-1.7-2.2c-0.9,1.7-1.3,3.6-1.9,5.3c-0.6,1.7-1.1,3.5-1.9,5.2
					c0.1-0.5,0.2-1,0.3-1.5c1.3-5.9,2.7-11.8,4.1-17.7c0.2-0.7,0.1-1.4,0-2.2c-1.3-6.7-3.5-13.1-5.4-19.6c-0.2-0.6-0.5-1.2-0.3-1.8
					c1-3.5-0.4-6.7-1.1-10c-0.5-2.2-1.1-4.3-2-6.4c-1.1-2.5-0.7-5.3-0.4-8c0.1-0.6,0.5-0.9,1-1.2c1.1-0.8,2.1-1.5,3.2-2.3
					c0.4-0.3,1-0.6,0.9-1.2c-0.2-1.7,1-2.3,2.2-2.7c1.1-0.4,1.8-0.9,1.6-2.3c-0.1-0.8,0.3-1,1.1-1.1c1.6-0.2,3.5,0.1,4.5-1.9
					c0.2-0.4,0.8-0.3,1.2-0.2c1.5,0.1,3,0.1,4.5,0.2c1.8,0.2,3.4-0.2,4.8-1.3c0.8-0.7,1.8-1.1,2.8-1.7c0.1,0.3,0.3,0.5,0.3,0.7
					c0.3,1.9,0.9,3.4,3.3,2.8c0.5-0.1,0.8,0.1,0.9,0.6c0.2,0.8,0.3,1.5-0.4,2.2c-1.5,1.4-2.9,2.9-4.3,4.3c-1.1,1.1-0.7,3.5,0.7,4.2
					c1.1,0.5,0.8,1.6,0.9,2.5c0.1,1.1,0.5,1.5,1.6,1.4c0.7-0.1,1.4-0.1,2-0.1c1.1,0,2.4-0.2,2.9-0.9c1.2-1.9,3.4-2.5,4.9-4
					c0.6,0.7,0.3,1.8,1.2,2.6c1.7-1.4,3.8-1.9,5.8-2.5s3.4,0.8,5.1,0.7c0.5,0,0.4,0.6,0.3,1c-0.1,0.5-0.3,1-0.2,1.7
					c1.5,0,3.1,0.6,4.6-0.8c1-1,2.5-0.5,3,0.8c0.2,0.5,0.2,1.2,0.7,1.5c0.1,0,0.1,0,0.2,0c1.8-2.7,4.8-2.6,7.5-3.1
					c2.2-0.5,3.4-2.3,3-4.5c0-0.2,0-0.4-0.1-0.6c-0.2-0.7,0.1-1.2,0.7-1.5c0.7-0.4,1,0,1.5,0.4c2.3,2.2,3.6,2.3,6.2,0.2
					c1.3,1.9,3.3,1.2,5.1,1.4c0.9,0.1,1.3-0.5,1.7-1.2c0.8-1.3,1.8-1.4,2.4,0.1c0.7,1.6,1.6,2.1,3.3,1.6c1.4-0.4,3.2,0.1,4.2-1.5
					c1.2,0.5,1.4,1.4,1.1,2.5c-0.3,0.9-0.3,1.7,0.6,2.4c0.8,0.6,0.5,1.4,0.4,2.2c-0.3,2.6-1.2,5.1-0.5,7.7c0.5,2,1.3,2.5,3.3,2
					c3.6-1,6.9-0.5,9.6,2.2c2.4,2.4,2.3,2.4,0.5,5.4c-1.3,2.2-3.2,4-3.5,6.7c0,0.1-0.1,0.4-0.2,0.4c-2.3,0.2-2.3,2.6-3.6,3.8
					c-1.4,1.2-2.6,2.5-4.1,3.7c-1.4,1-2.8,2-4.7,1.1c-1-0.5-1.6,0-2.1,0.9c-2,3.1-3.7,6.5-5.1,9.9c-0.4,1.1-1,1.7-2.3,1.8
					c-1.4,0.1-2.8,0.4-4.1,0.6c-0.3,0.8,0.3,1.2,0.5,1.7c1.1,2,2.7,3.7,3.3,6c0.2,0.7,0.9,0.8,1.5,1.2c-0.7,2.1-0.9,4.4-1.3,6.7
					c-0.2,1.1-0.1,2,0.4,2.8c1.1,1.8,1,3.5,0.1,5.3c-0.6,1.1-1.1,2.1,0.5,3.2c1,0.7,1,2.1,0.2,3.2c-0.7,1-1.5,1.8-1.4,3.2
					c0.1,1.2,0.3,2.2,1.4,3c1.5,1.1,1.2,2.7-0.6,3.2c-1.2,0.4-1.6,1-1.7,2.1c0,1-0.5,1.2-1.4,1.2c-1.2,0.1-2.6-0.5-3.6,0.8
					c-1.4,1.8-1.6,3.9-1.6,5.9c0,0.9,0.8,1.8,1.9,1.8c1.1,0,1.5,0.8,2.2,1.5c2.5,2.6,1.7,5.7,1.2,8.7c0,0.1,0,0.1,0,0.2
					c0.2,2.4-0.9,4.1-2.9,5.4c-0.5,0.3-0.7,0.8-0.8,1.5c-0.1,1.4-0.4,2.8-0.5,4.2c-0.3,2.7-1,3.3-3.8,3.4c-2.4,0-4.8,0-7.2,0
					c-0.5,0-1.1-0.1-1.4,0.1c-2.3,1.7-4.7,0.6-7.1,0.4c-1-0.1-1.9-0.3-2.9-0.4c-0.6,0.6-0.2,1-0.1,1.5c0.8,2.7,2.7,4.5,4.6,6.5
					c1.5,1.5,2.7,3,4.7,3.8c0.1,0.1,0.2,0.5,0.1,0.7c0,0.4-0.1,0.7-0.2,1.1c-0.8,2.5-0.3,4.7,1.9,6.3c0.8,0.6,1,1.3,0.6,2.3
					c-0.5,1.6,0.2,3.1,1.7,3.9c0.6,0.3,1.1,0.7,1.7,0.9c1.1,0.5,1.5,1.1,1.2,2.3c-0.3,1.5,1,2.4,2.4,1.9c2.5-1,2.6-1,4.8,1.7
					c0.9,1.1,0.8,2.5-0.3,4.2c-0.7,1-1.4,2.1-2.1,3.1c-0.7,0.9-1,1.8-0.7,3s-1.4,3.3-2.6,3.3c-0.9,0-1.6,0.4-2.2,1
					c-0.7,0.7-1.3,1.6-2.1,2.1c-2.2,1.5-3.2,3.9-2.6,6.1c0.7,2.5-0.8,3.9-1.5,5.8c-0.5,1.3-1.5,2.5-0.7,4.1c0.2,0.4-0.4,1.2-0.8,2
					c2.8,0.3,3.5,2.6,4.7,4.4c1.8,2.7,3.8,5.2,4.6,8.5c0.3,1.3,1.3,1.5,2.5,1.1c1.5-0.6,3-1.1,4.8-1.8c-0.4,1.7-0.8,3.1-1.1,4.6
					c-0.3,1.2-0.5,2.5-0.7,3.7c-0.3,1.7-1.7,2.2-3.1,1.3c-1.9-1.2-2.4-1.1-3.1,1c-0.2,0.7-0.7,0.9-1.3,0.9c-1,0.1-2.1,0.3-3.1,0.3
					c-0.9,0-1.3,0.4-1.4,1.3c-0.1,1.1-0.2,2.3-0.3,3.4c-0.1,1.2-0.5,2.3-1.5,3.1c-3.6,2.8-5.7,6.5-7,10.8c-0.9,2.9-1.6,5.4-0.4,8.5
					c2,5,2.2,10.4,3.3,15.6c0,0.2,0,0.5,0,0.7c-2.8,0.3-5.5,0.8-7.7,2.7c-1.9,1.5-3.9,2.8-5.8,4.3c-1.1,0.8-2.5,1-3.8,1.4
					c-6.9,2-7,2.1-12.6-2.2c-2.2-1.7-4.3-1.1-6.5-0.8c-1,0.2-1.8,0.3-2.6-0.5c-0.3-0.3-0.7-0.4-1.2-0.3c-3.4,0.2-6.4-0.9-9.5-2
					c-1.5-0.6-2.7,0.6-3.6,1.6c-0.6,0.6-1.1,1-1.9,1.2c-1.8,0.4-3.5,0.9-5.3,1.3c-1.6,0.4-3.2,0.8-4.3,2.3c-0.8-0.3-1.3-1-2.3-0.7
					c0.6-1.2,1-2.1,1.5-3c1.8-3.1,3.5-6.4,3.7-9.9c0.2-3.1,1.5-5.4,2.8-7.9c1.2-2.3,0.8-4.8,0.4-7c-0.6-2.7-0.5-5.2,0.4-7.8
					c0.2-0.6,0.4-1.2,0.1-1.7c-0.7-1.5-0.5-3-0.2-4.6c0.4-1.8-0.2-3.5-0.3-5.3c-0.1-0.6-0.5-0.9-1-1.1c-0.8-0.4-1.7-0.8-2.5-1.3
					c4.8-8.3,5.8-16.9,2.7-26.2c1.7,2.3,3.9,1.4,5.8,1.8c0.3-0.9,0.1-1.5-0.5-1.8c-1.3-0.7-1.4-1.8-1.4-3c0-1-0.1-2.1-0.6-2.9
					c-0.4-0.2-0.7-0.1-1,0.1c-1.6,1.1-3.2,1.5-5.1,0.9c-1.1-0.3-2.1,0.6-2.7,1.5c-0.4,0.7-0.7,1-1.5,1c-0.2,0-0.5,0.2-0.7,0.3
					c-2.5,2.4-5.9,1.8-8.9,3.1c0.2-2.2,0.7-3.8,2.3-5c-2.4-1.9-2.6-4.9-3.7-7.3c-0.3-0.6,0-1.1,0.8-1.2c0.7,0,1.5,0,2.2,0
					c0.8,2.1,1.4,2.4,2.9,1.8c0.3,0.4,0.7,0.9,1.1,1.4c0.8-0.8,0.2-1.8,0.6-2.7c1.9,0.8,2.8-0.3,3.3-2c-0.3-0.6-1.1-0.4-1.7-0.9
					c1-0.9,2-1.7,2.9-2.5c0.5-0.4,0.8-0.8,0.5-1.5c-1.2-2.4-1.7-5-2.2-7.6c-0.7-0.2-0.8,0.4-1,0.7c-1.9,2.7-3.2,5.6-4.2,8.7
					c-0.8,2.5-1,2.5-3.6,2.4c-1.1,0-2.2-0.3-3.3,0.1c-2,0.7-3.9,1.1-5.8-0.1c-0.8-0.5-1.7,0.2-2.6-0.1c-0.4-0.5,0-1.1,0-1.7
					c0-0.5,0.1-1.2-0.1-1.4c-1.6-1.4-0.5-2.6,0-3.9c0.2-0.5,0.4-1,0.6-1.4c1.6-2.9,2.4-5.9,1.9-9.2c-0.4-2.8,1-5.1,2.1-7.4
					c1.1-2.2,1.5-4.5,1.2-7c-0.2-1.4-1.2-2.4-1.8-3.9c3,0.2,4.5-2.9,7.4-2.9c0,0,0.1-0.1,0.1-0.2c-0.7-2.1,0-3.6,1.6-4.9
					c0.8-0.6,1.4-1.5,2.2-2.2c1.4-1.3,2.6-2.5,1.4-4.7c-0.4-0.8,0.1-1.6,0.4-2.4c2.8-8,5.6-15.9,8.5-23.9c0.5-1.4,0.6-2.6-0.5-3.7
					c-0.9-1-1-2.1-0.6-3.5c2-7,4-14,5.9-21c0.3-1.1,0.7-1.9,1.9-2.1c0.9-0.2,3.1-3.6,3.1-4.5c0-0.1,0-0.1,0-0.2
					C119.7,85,119.7,85,121.2,82.8z"/>
			</defs>
			<clipPath id="SVGID_4_">
				<use xlink:href="#SVGID_3_"  style="overflow:visible;"/>
			</clipPath>
			<g class="st2">
				<rect x="72.8" y="-35.2" class="st3" width="71.2" height="354.3"/>
			</g>
		</g>
		<g>
			<defs>
				<path id="SVGID_5_" d="M121.2,82.8c-0.4-0.8-0.9-1.5-1.7-2.2c-0.9,1.7-1.3,3.6-1.9,5.3c-0.6,1.7-1.1,3.5-1.9,5.2
					c0.1-0.5,0.2-1,0.3-1.5c1.3-5.9,2.7-11.8,4.1-17.7c0.2-0.7,0.1-1.4,0-2.2c-1.3-6.7-3.5-13.1-5.4-19.6c-0.2-0.6-0.5-1.2-0.3-1.8
					c1-3.5-0.4-6.7-1.1-10c-0.5-2.2-1.1-4.3-2-6.4c-1.1-2.5-0.7-5.3-0.4-8c0.1-0.6,0.5-0.9,1-1.2c1.1-0.8,2.1-1.5,3.2-2.3
					c0.4-0.3,1-0.6,0.9-1.2c-0.2-1.7,1-2.3,2.2-2.7c1.1-0.4,1.8-0.9,1.6-2.3c-0.1-0.8,0.3-1,1.1-1.1c1.6-0.2,3.5,0.1,4.5-1.9
					c0.2-0.4,0.8-0.3,1.2-0.2c1.5,0.1,3,0.1,4.5,0.2c1.8,0.2,3.4-0.2,4.8-1.3c0.8-0.7,1.8-1.1,2.8-1.7c0.1,0.3,0.3,0.5,0.3,0.7
					c0.3,1.9,0.9,3.4,3.3,2.8c0.5-0.1,0.8,0.1,0.9,0.6c0.2,0.8,0.3,1.5-0.4,2.2c-1.5,1.4-2.9,2.9-4.3,4.3c-1.1,1.1-0.7,3.5,0.7,4.2
					c1.1,0.5,0.8,1.6,0.9,2.5c0.1,1.1,0.5,1.5,1.6,1.4c0.7-0.1,1.4-0.1,2-0.1c1.1,0,2.4-0.2,2.9-0.9c1.2-1.9,3.4-2.5,4.9-4
					c0.6,0.7,0.3,1.8,1.2,2.6c1.7-1.4,3.8-1.9,5.8-2.5s3.4,0.8,5.1,0.7c0.5,0,0.4,0.6,0.3,1c-0.1,0.5-0.3,1-0.2,1.7
					c1.5,0,3.1,0.6,4.6-0.8c1-1,2.5-0.5,3,0.8c0.2,0.5,0.2,1.2,0.7,1.5c0.1,0,0.1,0,0.2,0c1.8-2.7,4.8-2.6,7.5-3.1
					c2.2-0.5,3.4-2.3,3-4.5c0-0.2,0-0.4-0.1-0.6c-0.2-0.7,0.1-1.2,0.7-1.5c0.7-0.4,1,0,1.5,0.4c2.3,2.2,3.6,2.3,6.2,0.2
					c1.3,1.9,3.3,1.2,5.1,1.4c0.9,0.1,1.3-0.5,1.7-1.2c0.8-1.3,1.8-1.4,2.4,0.1c0.7,1.6,1.6,2.1,3.3,1.6c1.4-0.4,3.2,0.1,4.2-1.5
					c1.2,0.5,1.4,1.4,1.1,2.5c-0.3,0.9-0.3,1.7,0.6,2.4c0.8,0.6,0.5,1.4,0.4,2.2c-0.3,2.6-1.2,5.1-0.5,7.7c0.5,2,1.3,2.5,3.3,2
					c3.6-1,6.9-0.5,9.6,2.2c2.4,2.4,2.3,2.4,0.5,5.4c-1.3,2.2-3.2,4-3.5,6.7c0,0.1-0.1,0.4-0.2,0.4c-2.3,0.2-2.3,2.6-3.6,3.8
					c-1.4,1.2-2.6,2.5-4.1,3.7c-1.4,1-2.8,2-4.7,1.1c-1-0.5-1.6,0-2.1,0.9c-2,3.1-3.7,6.5-5.1,9.9c-0.4,1.1-1,1.7-2.3,1.8
					c-1.4,0.1-2.8,0.4-4.1,0.6c-0.3,0.8,0.3,1.2,0.5,1.7c1.1,2,2.7,3.7,3.3,6c0.2,0.7,0.9,0.8,1.5,1.2c-0.7,2.1-0.9,4.4-1.3,6.7
					c-0.2,1.1-0.1,2,0.4,2.8c1.1,1.8,1,3.5,0.1,5.3c-0.6,1.1-1.1,2.1,0.5,3.2c1,0.7,1,2.1,0.2,3.2c-0.7,1-1.5,1.8-1.4,3.2
					c0.1,1.2,0.3,2.2,1.4,3c1.5,1.1,1.2,2.7-0.6,3.2c-1.2,0.4-1.6,1-1.7,2.1c0,1-0.5,1.2-1.4,1.2c-1.2,0.1-2.6-0.5-3.6,0.8
					c-1.4,1.8-1.6,3.9-1.6,5.9c0,0.9,0.8,1.8,1.9,1.8c1.1,0,1.5,0.8,2.2,1.5c2.5,2.6,1.7,5.7,1.2,8.7c0,0.1,0,0.1,0,0.2
					c0.2,2.4-0.9,4.1-2.9,5.4c-0.5,0.3-0.7,0.8-0.8,1.5c-0.1,1.4-0.4,2.8-0.5,4.2c-0.3,2.7-1,3.3-3.8,3.4c-2.4,0-4.8,0-7.2,0
					c-0.5,0-1.1-0.1-1.4,0.1c-2.3,1.7-4.7,0.6-7.1,0.4c-1-0.1-1.9-0.3-2.9-0.4c-0.6,0.6-0.2,1-0.1,1.5c0.8,2.7,2.7,4.5,4.6,6.5
					c1.5,1.5,2.7,3,4.7,3.8c0.1,0.1,0.2,0.5,0.1,0.7c0,0.4-0.1,0.7-0.2,1.1c-0.8,2.5-0.3,4.7,1.9,6.3c0.8,0.6,1,1.3,0.6,2.3
					c-0.5,1.6,0.2,3.1,1.7,3.9c0.6,0.3,1.1,0.7,1.7,0.9c1.1,0.5,1.5,1.1,1.2,2.3c-0.3,1.5,1,2.4,2.4,1.9c2.5-1,2.6-1,4.8,1.7
					c0.9,1.1,0.8,2.5-0.3,4.2c-0.7,1-1.4,2.1-2.1,3.1c-0.7,0.9-1,1.8-0.7,3s-1.4,3.3-2.6,3.3c-0.9,0-1.6,0.4-2.2,1
					c-0.7,0.7-1.3,1.6-2.1,2.1c-2.2,1.5-3.2,3.9-2.6,6.1c0.7,2.5-0.8,3.9-1.5,5.8c-0.5,1.3-1.5,2.5-0.7,4.1c0.2,0.4-0.4,1.2-0.8,2
					c2.8,0.3,3.5,2.6,4.7,4.4c1.8,2.7,3.8,5.2,4.6,8.5c0.3,1.3,1.3,1.5,2.5,1.1c1.5-0.6,3-1.1,4.8-1.8c-0.4,1.7-0.8,3.1-1.1,4.6
					c-0.3,1.2-0.5,2.5-0.7,3.7c-0.3,1.7-1.7,2.2-3.1,1.3c-1.9-1.2-2.4-1.1-3.1,1c-0.2,0.7-0.7,0.9-1.3,0.9c-1,0.1-2.1,0.3-3.1,0.3
					c-0.9,0-1.3,0.4-1.4,1.3c-0.1,1.1-0.2,2.3-0.3,3.4c-0.1,1.2-0.5,2.3-1.5,3.1c-3.6,2.8-5.7,6.5-7,10.8c-0.9,2.9-1.6,5.4-0.4,8.5
					c2,5,2.2,10.4,3.3,15.6c0,0.2,0,0.5,0,0.7c-2.8,0.3-5.5,0.8-7.7,2.7c-1.9,1.5-3.9,2.8-5.8,4.3c-1.1,0.8-2.5,1-3.8,1.4
					c-6.9,2-7,2.1-12.6-2.2c-2.2-1.7-4.3-1.1-6.5-0.8c-1,0.2-1.8,0.3-2.6-0.5c-0.3-0.3-0.7-0.4-1.2-0.3c-3.4,0.2-6.4-0.9-9.5-2
					c-1.5-0.6-2.7,0.6-3.6,1.6c-0.6,0.6-1.1,1-1.9,1.2c-1.8,0.4-3.5,0.9-5.3,1.3c-1.6,0.4-3.2,0.8-4.3,2.3c-0.8-0.3-1.3-1-2.3-0.7
					c0.6-1.2,1-2.1,1.5-3c1.8-3.1,3.5-6.4,3.7-9.9c0.2-3.1,1.5-5.4,2.8-7.9c1.2-2.3,0.8-4.8,0.4-7c-0.6-2.7-0.5-5.2,0.4-7.8
					c0.2-0.6,0.4-1.2,0.1-1.7c-0.7-1.5-0.5-3-0.2-4.6c0.4-1.8-0.2-3.5-0.3-5.3c-0.1-0.6-0.5-0.9-1-1.1c-0.8-0.4-1.7-0.8-2.5-1.3
					c4.8-8.3,5.8-16.9,2.7-26.2c1.7,2.3,3.9,1.4,5.8,1.8c0.3-0.9,0.1-1.5-0.5-1.8c-1.3-0.7-1.4-1.8-1.4-3c0-1-0.1-2.1-0.6-2.9
					c-0.4-0.2-0.7-0.1-1,0.1c-1.6,1.1-3.2,1.5-5.1,0.9c-1.1-0.3-2.1,0.6-2.7,1.5c-0.4,0.7-0.7,1-1.5,1c-0.2,0-0.5,0.2-0.7,0.3
					c-2.5,2.4-5.9,1.8-8.9,3.1c0.2-2.2,0.7-3.8,2.3-5c-2.4-1.9-2.6-4.9-3.7-7.3c-0.3-0.6,0-1.1,0.8-1.2c0.7,0,1.5,0,2.2,0
					c0.8,2.1,1.4,2.4,2.9,1.8c0.3,0.4,0.7,0.9,1.1,1.4c0.8-0.8,0.2-1.8,0.6-2.7c1.9,0.8,2.8-0.3,3.3-2c-0.3-0.6-1.1-0.4-1.7-0.9
					c1-0.9,2-1.7,2.9-2.5c0.5-0.4,0.8-0.8,0.5-1.5c-1.2-2.4-1.7-5-2.2-7.6c-0.7-0.2-0.8,0.4-1,0.7c-1.9,2.7-3.2,5.6-4.2,8.7
					c-0.8,2.5-1,2.5-3.6,2.4c-1.1,0-2.2-0.3-3.3,0.1c-2,0.7-3.9,1.1-5.8-0.1c-0.8-0.5-1.7,0.2-2.6-0.1c-0.4-0.5,0-1.1,0-1.7
					c0-0.5,0.1-1.2-0.1-1.4c-1.6-1.4-0.5-2.6,0-3.9c0.2-0.5,0.4-1,0.6-1.4c1.6-2.9,2.4-5.9,1.9-9.2c-0.4-2.8,1-5.1,2.1-7.4
					c1.1-2.2,1.5-4.5,1.2-7c-0.2-1.4-1.2-2.4-1.8-3.9c3,0.2,4.5-2.9,7.4-2.9c0,0,0.1-0.1,0.1-0.2c-0.7-2.1,0-3.6,1.6-4.9
					c0.8-0.6,1.4-1.5,2.2-2.2c1.4-1.3,2.6-2.5,1.4-4.7c-0.4-0.8,0.1-1.6,0.4-2.4c2.8-8,5.6-15.9,8.5-23.9c0.5-1.4,0.6-2.6-0.5-3.7
					c-0.9-1-1-2.1-0.6-3.5c2-7,4-14,5.9-21c0.3-1.1,0.7-1.9,1.9-2.1c0.9-0.2,3.1-3.6,3.1-4.5c0-0.1,0-0.1,0-0.2
					C119.7,85,119.7,85,121.2,82.8z"/>
			</defs>
			<clipPath id="SVGID_6_">
				<use xlink:href="#SVGID_5_"  style="overflow:visible;"/>
			</clipPath>
			<g class="st4">
				<g>
					<path class="st5" d="M167.2,160.4c-9-0.3-50.1-25.9-50.3-30l2.3-3.8c4.1,5.9,46.1,30.9,50.2,30L167.2,160.4"/>
					<path d="M167.2,160.7L167.2,160.7c-4.8-0.1-17.9-7.1-28.6-13.6c-10.5-6.4-21.9-14.3-22.1-16.7c0-0.1,0-0.1,0-0.2l2.3-3.8
						c0-0.1,0.1-0.1,0.2-0.1c0.1,0,0.2,0,0.2,0.1c3.9,5.6,45.8,30.8,49.9,29.9c0.1,0,0.2,0,0.3,0.1s0.1,0.2,0,0.3l-2.1,3.8
						C167.4,160.6,167.3,160.7,167.2,160.7z M117.1,130.4c0.8,4,40.7,29.1,49.9,29.7l1.8-3.2c-6.4-0.7-44.5-23.4-49.7-29.8
						L117.1,130.4z"/>
				</g>
				<g>
					<path class="st5" d="M118.6,126.1c-0.8,2.2,10.7,9.3,24.6,17.7c13.9,8.4,25.8,13.6,26.7,12.9c0.1-0.1,0.4-0.8,0.4-0.7
						c-0.2,0.3-0.6,0.3-1.2,0.1c-3.7-1.1-13.5-5.6-25.6-12.9c-12.1-7.3-22.6-14.1-24.3-17c-0.1-0.2-0.2-0.6-0.2-0.8l0,0L118.6,126.1
						L118.6,126.1L118.6,126.1L118.6,126.1z M167.4,160.5c-0.2,0.3-0.4,0.3-1,0.2c-3.4-0.4-13.5-5.3-25.6-12.5
						c-14-8.4-25.6-16-24.3-18l0.3-0.6h0.1c-1.1,3.4,22.8,17.1,24.2,18c13.9,8.6,25.5,13.6,26.6,12.3L167.4,160.5L167.4,160.5
						L167.4,160.5z"/>
					<path d="M166.8,161c-0.2,0-0.3,0-0.5,0c-3.4-0.4-13.8-5.4-25.7-12.6c-16.2-9.7-24-15.3-24.5-17.6c-0.1-0.3,0-0.6,0.1-0.8
						l0.3-0.6c0.1-0.1,0.2-0.2,0.3-0.1c0.1,0,0.2,0.1,0.2,0.2s0.1,0.2,0.1,0.2c-0.3,0.9,1.4,4.2,23.2,17.1c0.5,0.3,0.8,0.5,0.9,0.6
						c15,9.3,25.5,13.3,26.2,12.4c0.1-0.1,0.3-0.1,0.4-0.1c0.1,0,0.2,0.3,0.1,0.4l-0.4,0.6l0,0C167.4,161,167.2,161,166.8,161z
						 M116.7,130.5c0,0.1,0,0.1,0,0.2c0.5,2.1,8.7,7.9,24.3,17.3c11.9,7.1,22.1,12.1,25.4,12.5c0.6,0.1,0.6,0,0.7-0.1l0,0l0,0H167
						c-3.5,0-15.5-6-26-12.5c-0.1-0.1-0.5-0.3-0.9-0.6C121.4,136.2,117.4,132.1,116.7,130.5z M169.7,157c-2.7,0-15.1-6-26.6-13
						c-16-9.7-25.6-15.8-24.7-18.1l0,0l0.4-0.7c0.1-0.1,0.2-0.1,0.3-0.1s0.2,0,0.2,0.1s0.1,0.1,0.1,0.2c0,0.2,0.1,0.5,0.1,0.7
						c1.7,3,13.8,10.6,24.2,16.9c12.7,7.7,22.2,11.9,25.6,12.9c0.5,0.2,0.8,0.1,0.9,0c0-0.1,0.1-0.1,0.2-0.1s0.2,0,0.3,0.1
						c0.1,0.2,0.1,0.2-0.3,1v0.1c0,0,0,0.1-0.1,0.1C170,157,169.9,157,169.7,157z M118.9,126.2c-0.7,2.1,13.3,10.5,24.5,17.4
						c14.3,8.7,25.1,13.2,26.4,12.9c-0.2,0-0.4,0-0.7-0.1c-4.1-1.2-14.3-6-25.7-12.9c-15.7-9.5-23-14.6-24.4-17.1
						C119,126.3,118.9,126.2,118.9,126.2L118.9,126.2z"/>
				</g>
				<g>
					<path class="st5" d="M144,132.8c9-0.1,20-1.2,26.4-3.8l-1.4-2.2c-3.8,2.1-14.9,3.5-25.1,3.7c-12.1-0.1-20.6-1.2-24.9-4.1
						l-1.3,2.4C125.6,132.1,133.7,132.8,144,132.8"/>
					<path d="M144,133.1L144,133.1c-10.4,0-18.4-0.7-26.4-4.1c-0.1,0-0.1-0.1-0.2-0.2c0-0.1,0-0.2,0-0.2l1.3-2.4
						c0-0.1,0.1-0.1,0.2-0.1c0.1,0,0.2,0,0.2,0c3.9,2.6,11.8,3.9,24.7,4.1c9.5-0.2,21.1-1.5,25-3.6c0.1-0.1,0.3,0,0.4,0.1l1.4,2.2
						c0,0.1,0.1,0.2,0,0.2c0,0.1-0.1,0.1-0.2,0.2C163.8,132,152.4,133.1,144,133.1L144,133.1z M118.2,128.6
						c7.7,3.2,15.7,3.9,25.8,3.9l0,0c7.8-0.1,19.3-1,26-3.6l-1.1-1.7c-4.3,2.2-15.9,3.4-25,3.6c-12.8-0.1-20.7-1.4-24.8-4
						L118.2,128.6z"/>
				</g>
				<g>
					<path class="st5" d="M170.8,129.1c-0.2,0.4-4.4,1.8-10.5,2.8c-4.2,0.6-9.6,1.2-16.3,1.2c-6.4,0-11.7-0.5-15.6-1
						c-6.4-1-9.7-2.4-11-2.9c0.1-0.2,0.2-0.4,0.3-0.6c3.5,1.4,6.9,2.3,10.8,2.9c3.9,0.5,9.1,1,15.5,1c6.7,0,12.1-0.6,16.2-1.2
						c6.3-1,9.7-2.3,10.2-2.9L170.8,129.1L170.8,129.1L170.8,129.1z M169.6,126.9c-0.7,0.5-4.1,1.7-10,2.7c-4,0.6-9,1.1-15.5,1.1
						c-6.1,0-11.2-0.4-15-1c-6.1-0.8-9.3-2.2-10.4-2.6c0.1-0.2,0.2-0.4,0.4-0.6c0.9,0.5,4,1.7,10.2,2.6c3.8,0.5,8.8,0.9,14.9,0.9
						c6.4,0,11.4-0.5,15.4-1.1c6-0.8,9.2-2.4,9.7-2.7L169.6,126.9L169.6,126.9L169.6,126.9z"/>
					<path d="M143.9,133.4c-5.5,0-10.7-0.3-15.5-1c-6.2-1-9.6-2.4-10.9-2.9l-0.1-0.1c-0.1,0-0.1-0.1-0.2-0.2c0-0.1,0-0.2,0-0.2
						l0.1-0.3c0.1-0.1,0.1-0.2,0.2-0.4c0.1-0.1,0.2-0.2,0.4-0.1c3.4,1.3,6.7,2.2,10.7,2.8c4.9,0.7,10.1,1,15.5,1
						c5.5,0,10.8-0.4,16.2-1.2c6.7-1.1,9.7-2.4,10-2.8c0.1-0.1,0.2-0.1,0.2-0.1c0.1,0,0.2,0.1,0.2,0.1l0.4,0.8
						c0.1,0.1,0.1,0.2,0,0.3c-0.4,0.6-5.2,2-10.7,3C155.3,132.9,149.8,133.3,143.9,133.4C143.9,133.4,143.9,133.4,143.9,133.4z
						 M117.8,129.1c1.4,0.6,4.7,1.8,10.6,2.8c4.8,0.7,10,1,15.5,1h0.1c5.7,0,11.2-0.4,16.3-1.2c5.4-0.9,9.3-2.2,10.2-2.6l-0.1-0.2
						c-1.1,0.8-4.7,1.9-10.1,2.8c-5.4,0.8-10.7,1.2-16.2,1.2H144c-5.4,0-10.6-0.3-15.4-1c-4-0.6-7.3-1.5-10.6-2.8
						C117.8,129,117.8,129.1,117.8,129.1z M143.9,130.9c-5.4,0-10.5-0.3-14.9-1c-5.4-0.7-8.5-1.9-10-2.5c-0.2-0.1-0.4-0.1-0.5-0.2
						c-0.1,0-0.1-0.1-0.2-0.2c-0.1-0.1,0-0.2,0-0.2c0.1-0.2,0.2-0.4,0.4-0.6c0.1-0.1,0.2-0.2,0.4-0.1c0.5,0.3,3.5,1.6,10.1,2.6
						c3,0.4,8,0.9,14.7,0.9h0.1c7,0,12.1-0.6,15.4-1.1c6.2-0.8,9.2-2.4,9.6-2.7c0.1-0.1,0.1-0.1,0.2-0.1c0.1,0,0.2,0.1,0.2,0.1
						l0.4,0.7c0.1,0.1,0,0.3-0.1,0.4c-0.7,0.5-4,1.8-10.2,2.8C154.4,130.4,149.3,130.8,143.9,130.9C144,130.9,144,130.9,143.9,130.9
						z M119.1,126.9c0.1,0,0.1,0,0.2,0.1c1.5,0.6,4.6,1.7,9.9,2.4c4.4,0.6,9.5,0.9,14.9,1c5.4,0,10.4-0.4,15.5-1.1
						c5.7-0.9,8.8-2,9.7-2.5l-0.1-0.2c-1,0.5-4.1,1.9-9.6,2.6c-3.3,0.5-8.4,1.1-15.4,1.1h-0.1c-6.8,0-11.8-0.5-14.8-0.9
						C123.1,128.5,120,127.3,119.1,126.9C119.1,126.8,119.1,126.9,119.1,126.9z"/>
				</g>
				<g>
					<path class="st5" d="M114.6,143.6c5.5,3,17.8,4.5,29.4,4.6c10.6,0,24.3-1.6,29.5-4.4l-0.1-3c-1.6,2.5-16.4,4.9-29.4,4.8
						c-13.1-0.1-25.2-2.1-29.3-4.7L114.6,143.6"/>
					<path d="M144.1,148.5c-0.1,0-0.1,0-0.2,0c-10.3-0.1-23.5-1.3-29.5-4.6c-0.1-0.1-0.2-0.2-0.2-0.3v-2.7c0-0.1,0.1-0.2,0.1-0.3
						s0.2,0,0.3,0c4.1,2.6,16.3,4.6,29.1,4.7c14.1,0.1,27.8-2.5,29.2-4.7c0.1-0.1,0.2-0.2,0.3-0.1c0.1,0,0.2,0.1,0.2,0.3l0.1,3
						c0,0.1-0.1,0.2-0.2,0.3C168.3,146.9,154.5,148.5,144.1,148.5z M114.8,143.5c6,3.1,18.9,4.4,29.1,4.5c0.1,0,0.1,0,0.2,0
						c10.2,0,23.8-1.6,29-4.2l-0.1-2.1c-3.1,2.4-16.7,4.6-29.2,4.4c-12.5-0.1-24.5-2-29-4.5L114.8,143.5z"/>
				</g>
				<g>
					<path class="st5" d="M173.7,143.2v0.7c-0.8,0.9-5.6,2.3-11.7,3.3c-4.6,0.7-10.7,1.2-18.2,1.2c-7.1,0-12.8-0.5-17.3-1.2
						c-7-1-11.4-2.8-12.3-3.3v-0.8c2.7,1.8,10,3.1,12.4,3.5c4.4,0.7,10,1.2,17.2,1.2c7.5,0,13.5-0.5,18.1-1.2
						C166.2,145.9,172.4,144.3,173.7,143.2L173.7,143.2L173.7,143.2z M173.7,140.7v0.7c-0.8,0.9-5.6,2.3-11.7,3.3
						c-4.6,0.7-10.7,1.2-18.2,1.2c-7.1,0-12.8-0.5-17.3-1.2c-7-1-11.4-2.8-12.3-3.3v-0.8c2.7,1.8,10,3.1,12.4,3.5
						c4.4,0.7,10,1.2,17.2,1.2c7.5,0,13.5-0.5,18.1-1.2C166.2,143.4,172.5,141.8,173.7,140.7L173.7,140.7L173.7,140.7z"/>
					<path d="M143.8,148.8c-6.3,0-12.1-0.4-17.3-1.2c-6.7-1-11.4-2.7-12.4-3.4c-0.1-0.1-0.1-0.1-0.1-0.2v-0.8c0-0.1,0.1-0.2,0.2-0.3
						c0.1-0.1,0.2,0,0.3,0c2.7,1.8,10.1,3.1,12.3,3.5c5.1,0.8,10.8,1.2,17.1,1.2c6.6,0,12.7-0.4,18-1.2c4.3-0.6,10.5-2.3,11.7-3.3
						c0.1-0.1,0.2-0.1,0.3,0c0.1,0,0.2,0.1,0.2,0.3v0.7c0,0.1,0,0.1-0.1,0.2c-0.8,1-5.7,2.4-11.9,3.4
						C156.6,148.3,150.5,148.8,143.8,148.8z M114.5,143.8c1,0.5,5.2,2.2,12.1,3.2c5.1,0.8,10.9,1.2,17.2,1.2
						c6.7,0,12.8-0.4,18.1-1.2c6.4-1,10.6-2.4,11.5-3.1v-0.1c-1.9,1.1-7.4,2.5-11.5,3.1c-5.4,0.8-11.5,1.2-18.1,1.2
						c-6.3,0-12.1-0.4-17.2-1.2c-2.7-0.4-9.2-1.6-12.1-3.3L114.5,143.8z M143.8,146.2c-6.3,0-12.2-0.4-17.3-1.2
						c-6.7-1-11.4-2.7-12.4-3.4c-0.1-0.1-0.1-0.1-0.1-0.2v-0.8c0-0.1,0.1-0.2,0.2-0.3c0.1,0,0.2,0,0.3,0c2.7,1.8,10.1,3.1,12.3,3.5
						c5.1,0.8,10.8,1.2,17.1,1.2c6.6,0,12.7-0.4,18-1.2c4.3-0.6,10.5-2.3,11.7-3.3c0.1-0.1,0.2-0.1,0.3,0c0.1,0,0.2,0.1,0.2,0.3v0.7
						c0,0.1,0,0.1-0.1,0.2c-0.8,1-5.7,2.4-11.9,3.4C156.6,145.8,150.5,146.2,143.8,146.2z M114.5,141.3c1,0.5,5.2,2.2,12.1,3.2
						c5.1,0.8,10.9,1.2,17.2,1.2c6.7,0,12.8-0.4,18.1-1.2c6.2-1,10.6-2.4,11.5-3.1v-0.1c-1.9,1.1-7.4,2.5-11.5,3.1
						c-5.4,0.8-11.5,1.2-18.1,1.2c-6.3,0-12.1-0.4-17.2-1.2c-2.7-0.4-9.2-1.6-12.1-3.3L114.5,141.3z"/>
				</g>
				<g>
					<path class="st5" d="M143.9,159.9c-12.7-0.1-23.6-3.5-25.9-4l1.7,2.6c4.1,1.7,14.7,4.2,24.3,4c9.6-0.3,18.1-1,24-3.9l1.7-2.7
						C165.7,157.7,151.9,159.8,143.9,159.9"/>
					<path d="M142.5,162.7c-9.1,0-18.9-2.3-22.9-4c-0.1,0-0.1-0.1-0.1-0.1l-1.7-2.6c-0.1-0.1-0.1-0.2,0-0.3c0.1-0.1,0.2-0.1,0.3-0.1
						c0.3,0.1,0.7,0.2,1.2,0.3c3.7,1,13.5,3.6,24.6,3.7c8.1,0,21.8-2.2,25.7-4c0.1-0.1,0.3,0,0.3,0.1c0.1,0.1,0.1,0.2,0,0.3
						l-1.7,2.7l-0.1,0.1c-6.2,3-15.3,3.7-24.1,3.9C143.5,162.7,143,162.7,142.5,162.7z M119.9,158.2c4.2,1.8,14.7,4.2,24.1,3.9
						c8.8-0.3,17.7-0.9,23.8-3.9l1.2-1.9c-4.8,1.8-17.5,3.7-25.1,3.7l0,0c-11.2-0.1-21.1-2.7-24.8-3.7c-0.2,0-0.3-0.1-0.5-0.1
						L119.9,158.2z"/>
				</g>
				<g>
					<path class="st5" d="M168.7,157.9c-0.3,0.4-0.5,0.8-0.8,1.1c-2.8,1-7.2,2-9.1,2.3c-3.8,0.8-9.7,1.4-14.9,1.4
						c-11.2-0.2-20.4-2.4-24.8-4.2l-0.3-0.6l0.1-0.1l0.6,0.2c7.7,2.8,16.3,3.9,24.5,4.1c5.2,0,10.4-0.6,14.6-1.3
						c6.5-1.3,9.1-2.3,9.9-2.7L168.7,157.9L168.7,157.9L168.7,157.9z M170.2,155.4C170.2,155.5,170.2,155.5,170.2,155.4
						c-0.2,0.3-0.4,0.7-0.6,1c-1.5,0.5-5.5,1.7-11.5,2.5c-3.9,0.5-6.3,1-14.1,1.2c-14.5-0.4-24-3.2-26.2-3.9l-0.3-0.6
						c8.4,2.2,17,3.7,26.5,3.9c7.1-0.2,10.1-0.7,14-1.2c6.9-1.1,10.4-2.2,11.4-2.5c0,0,0,0,0-0.1L170.2,155.4L170.2,155.4
						L170.2,155.4z"/>
					<path d="M143.9,163c-11.5-0.2-20.6-2.4-24.9-4.3c-0.1,0-0.1-0.1-0.1-0.1l-0.3-0.6c-0.1-0.1,0-0.2,0-0.3l0.1-0.1
						c0.1-0.1,0.2-0.2,0.3-0.1l0.6,0.2c6.8,2.4,15.1,3.8,24.4,4c0.1,0,0.1,0,0.2,0c5.6,0,10.9-0.7,14.3-1.3c7.2-1.4,9.3-2.4,9.8-2.7
						l0.2-0.1c0.1-0.1,0.2,0,0.3,0.1c0.1,0.1,0.1,0.2,0,0.3c-0.3,0.4-0.5,0.8-0.8,1.1l-0.1,0.1c-2.8,1-7.2,2-9.1,2.3
						C154.9,162.5,149,163,143.9,163z M119.5,158.3c4.7,2,13.9,4,24.5,4.1c4.9,0,10.9-0.5,14.9-1.4c1.9-0.3,6.2-1.3,9-2.3
						c0.1-0.1,0.1-0.1,0.2-0.2c-1.2,0.5-3.7,1.3-9.2,2.4c-3.5,0.6-8.9,1.4-14.7,1.4C134.6,162.1,126.3,160.8,119.5,158.3z
						 M144.1,160.5c-13-0.3-22.1-2.6-26.3-3.9c-0.1,0-0.1-0.1-0.2-0.1l-0.3-0.6c-0.1-0.1,0-0.2,0-0.3c0.1-0.1,0.2-0.1,0.3-0.1
						c9.6,2.5,18,3.7,26.5,3.9c6.3-0.1,9.4-0.6,12.7-1l1.2-0.2c6.5-1,10-2.1,11.2-2.5l0.1-0.1l0.7-0.3c0.1,0,0.2,0,0.3,0.1l-0.2,0.2
						l0.2-0.2c0.1,0.1,0.1,0.2,0,0.3c-0.2,0.3-0.4,0.6-0.6,1c0,0.1-0.1,0.1-0.1,0.1c-2,0.7-6.2,1.8-11.5,2.6
						c-0.6,0.1-1.1,0.2-1.6,0.2C153.4,159.9,150.7,160.3,144.1,160.5z M118.3,156.1c4.3,1.3,13.2,3.5,25.8,3.8
						c6.6-0.1,9.3-0.5,12.4-1c0.5-0.1,1.1-0.2,1.6-0.2c6.6-0.9,10.6-2.2,11.3-2.5c0-0.1,0.1-0.1,0.1-0.2h-0.1
						c-1.2,0.4-4.7,1.5-11.4,2.5l-1.2,0.2c-3.3,0.5-6.4,0.9-12.8,1C135.8,159.7,127.6,158.5,118.3,156.1z"/>
				</g>
				<g>
					<path class="st5" d="M170.3,141.3c0,8.3-4.2,15.8-7.7,19.1c-4.9,4.7-11.3,7.7-18.9,7.8c-8.4,0.2-16.4-5.3-18.5-7.7
						c-4.2-4.7-7.6-10.7-7.7-18.8c0.5-9.1,4.1-15.5,9.3-19.8c5.2-4.4,12.1-6.5,17.8-6.3c6.6,0.2,14.4,3.4,19.7,9.9
						C168,129.7,169.5,134.3,170.3,141.3L170.3,141.3z M143.9,112.7c16.2,0,29.5,13.2,29.5,29.3s-13.3,29.3-29.5,29.3
						s-29.4-13.2-29.4-29.3S127.7,112.7,143.9,112.7"/>
					<path d="M143.9,171.6c-16.4,0-29.7-13.3-29.7-29.6s13.3-29.6,29.6-29.6c16.4,0,29.7,13.3,29.7,29.6S160.3,171.6,143.9,171.6z
						 M143.9,113c-16,0-29.1,13-29.1,29s13,29,29.1,29s29.2-13,29.2-29S159.9,113,143.9,113z M143.4,168.6c-8.7,0-16.5-5.7-18.3-7.8
						c-5.1-5.8-7.6-12-7.7-18.9c0.5-8.5,3.6-15.2,9.4-20c4.9-4.1,11.8-6.5,18-6.4c7.4,0.2,15,4,19.9,10c3.4,4.1,5,8.6,5.9,15.9l0,0
						c0,8.1-4,15.7-7.8,19.4c-5.2,5-11.8,7.8-19.1,7.9C143.7,168.6,143.6,168.6,143.4,168.6z M144.2,115.9c-5.9,0-12.4,2.4-17.1,6.3
						c-5.6,4.7-8.7,11.3-9.2,19.6c0.1,6.8,2.6,12.9,7.6,18.6c1.9,2.1,9.6,7.8,18.3,7.6c7.1-0.1,13.5-2.8,18.7-7.7
						c3.7-3.5,7.6-11,7.6-18.9c-0.8-7.2-2.4-11.6-5.8-15.6c-4.8-5.8-12.3-9.6-19.5-9.8C144.6,115.9,144.4,115.9,144.2,115.9z"/>
				</g>
				<g>
					<path class="st5" d="M143.9,112.6c16.2,0,29.4,13.2,29.4,29.4s-13.2,29.4-29.4,29.4s-29.4-13.2-29.4-29.4
						S127.8,112.6,143.9,112.6L143.9,112.6z M115.2,142c0,15.8,13,28.7,28.7,28.7c15.8,0,28.7-12.9,28.7-28.7s-13-28.7-28.7-28.7
						S115.2,126.2,115.2,142L115.2,142z"/>
					<path d="M143.9,171.7c-16.4,0-29.7-13.3-29.7-29.7s13.3-29.7,29.7-29.7s29.7,13.3,29.7,29.7
						C173.6,158.3,160.3,171.7,143.9,171.7z M143.9,112.9c-16,0-29.1,13.1-29.1,29.1s13,29.1,29.1,29.1S173,158,173,142
						C173,125.9,160,112.9,143.9,112.9z M143.9,171c-16,0-29-13-29-29s13-29,29-29s29,13,29,29S159.9,171,143.9,171z M143.9,113.5
						c-15.7,0-28.4,12.8-28.4,28.4s12.8,28.4,28.4,28.4s28.4-12.8,28.4-28.4S159.6,113.5,143.9,113.5z"/>
				</g>
				<g>
					<path class="st5" d="M144,115.1c14.8,0,26.9,12.1,26.9,26.9s-12.2,26.9-26.9,26.9s-26.9-12.1-26.9-26.9S129.2,115.1,144,115.1
						L144,115.1z M117.7,142c0,14.4,11.9,26.3,26.3,26.3s26.2-11.9,26.2-26.3c0-14.4-11.9-26.3-26.3-26.3
						C129.6,115.7,117.7,127.5,117.7,142L117.7,142z"/>
					<path d="M144,169.2c-15,0-27.2-12.2-27.2-27.2s12.2-27.2,27.2-27.2s27.2,12.2,27.2,27.2S159,169.2,144,169.2z M144,115.3
						c-14.7,0-26.6,11.9-26.6,26.6c0,14.7,11.9,26.6,26.6,26.6s26.6-11.9,26.6-26.6C170.6,127.3,158.6,115.3,144,115.3z M144,168.5
						c-14.6,0-26.5-11.9-26.5-26.6s11.9-26.6,26.5-26.6s26.5,11.9,26.5,26.6S158.6,168.5,144,168.5z M144,116c-14.3,0-26,11.7-26,26
						s11.7,26,26,26s26-11.7,26-26S158.3,116,144,116z"/>
				</g>
				<g>
					<path class="st5" d="M145.1,112.5h-2.5v59h2.6L145.1,112.5z"/>
					<path d="M145.2,171.8h-2.5c-0.2,0-0.3-0.1-0.3-0.3v-59c0-0.1,0-0.1,0.1-0.2c0.1-0.1,0.1-0.1,0.2-0.1h2.5c0.2,0,0.3,0.1,0.3,0.3
						v59c0,0.1,0,0.1-0.1,0.2S145.2,171.8,145.2,171.8z M142.9,171.2h2v-58.5H143L142.9,171.2z"/>
				</g>
				<g>
					<path class="st5" d="M144.9,112.2h0.6v59.7h-0.6V112.2L144.9,112.2z M142.4,112.2h0.6v59.7h-0.6V112.2L142.4,112.2z"/>
					<path d="M143,172.2h-0.6c-0.2,0-0.3-0.1-0.3-0.3v-59.7c0-0.2,0.1-0.3,0.3-0.3h0.6c0.2,0,0.3,0.1,0.3,0.3v59.7
						c0,0.1,0,0.1-0.1,0.2C143.1,172.2,143.1,172.2,143,172.2z M142.7,171.6L142.7,171.6l0.1-59.1h-0.1V171.6z M145.5,172.2h-0.6
						c-0.2,0-0.3-0.1-0.3-0.3v-59.7c0-0.1,0-0.1,0.1-0.2s0.1-0.1,0.2-0.1h0.6c0.2,0,0.3,0.1,0.3,0.3v59.7c0,0.1,0,0.1-0.1,0.2
						S145.6,172.2,145.5,172.2z M145.2,171.6L145.2,171.6l0.1-59.1h-0.1V171.6z"/>
				</g>
				<g>
					<path class="st5" d="M173.3,143.1v-2.2l-1.8-1.7l-10.1-2.7l-14.5-1.5l-17.5,1l-12.5,3l-2.5,1.9v2.2l6.4-2.9l15.1-2.4h14.5
						l10.8,1.2l7.4,1.8L173.3,143.1z"/>
					<path d="M173.3,143.4h-0.1l-4.7-2.4l-7.4-1.8l-10.6-1.2H136l-15,2.4l-6.3,2.8c-0.1,0-0.2,0-0.3,0c-0.1-0.1-0.1-0.1-0.1-0.2
						v-2.2c0-0.1,0-0.2,0.1-0.2l2.5-1.9h0.1l12.5-3l17.6-0.9l14.6,1.5l10.1,2.7c0,0,0.1,0,0.1,0.1l1.8,1.7c0.1,0.1,0.1,0.1,0.1,0.2
						v2.2c0,0.1-0.1,0.2-0.1,0.2C173.4,143.4,173.4,143.4,173.3,143.4z M150.5,137.5l10.7,1.2l7.5,1.8l4.4,2.2v-1.6l-1.6-1.5
						l-10-2.7l-14.5-1.5l-17.5,0.9l-12.4,2.9l-2.4,1.7v1.6l6-2.7c0,0,0,0,0.1,0l15.1-2.4L150.5,137.5z"/>
				</g>
				<g>
					<path class="st5" d="M144,137.4c6.9,0,13.7,0.7,19,1.7c5.5,1.1,9.4,2.5,10.7,4v0.8c-1.6-1.9-6.8-3.3-10.8-4.1
						c-5.3-1-12-1.7-18.9-1.7c-7.3,0-14.1,0.7-19.3,1.7c-4.2,0.8-9.8,2.5-10.5,4.1v-0.8c0.4-1.1,4.5-2.8,10.4-4
						C129.8,138.1,136.6,137.5,144,137.4L144,137.4z M144,134.9c6.9,0,13.7,0.7,19,1.7c5.5,1.1,9.4,2.5,10.7,4v0.8
						c-1.6-1.9-6.8-3.3-10.8-4.1c-5.3-1-12-1.7-18.9-1.7c-7.3,0-14,0.7-19.2,1.7c-4,0.8-9.9,2.5-10.5,4.1v-0.8
						c0.4-1.1,4.6-2.9,10.4-4C129.8,135.6,136.6,134.9,144,134.9L144,134.9z"/>
					<path d="M114.2,144.2L114.2,144.2c-0.2,0-0.3-0.2-0.3-0.3v-0.8V143c0.5-1.5,5.9-3.2,10.6-4.2c5.6-1.1,12.5-1.7,19.4-1.7l0,0
						c6.6,0,13.4,0.6,19.1,1.7c4,0.8,9.2,2.2,10.9,4.1c0,0.1,0.1,0.1,0.1,0.2v0.8c0,0.1-0.1,0.2-0.2,0.3c-0.1,0-0.2,0-0.3-0.1
						c-1.7-2-7.4-3.4-10.7-4c-5.6-1.1-12.3-1.7-18.8-1.7c-6.8,0-13.6,0.6-19.2,1.7c-4.7,0.9-9.7,2.6-10.3,3.9
						C114.4,144.2,114.3,144.2,114.2,144.2z M144.2,137.8c6.5,0,13.1,0.6,18.7,1.7c3.7,0.7,8.2,1.9,10.3,3.6
						c-1.4-1.4-5-2.6-10.3-3.7c-5.7-1.1-12.4-1.7-19-1.7l0,0c-6.9,0-13.7,0.6-19.3,1.7c-5.6,1.1-9.3,2.6-10,3.6
						c2.3-1.9,9.2-3.3,10-3.5c5.6-1.1,12.5-1.7,19.3-1.7C144,137.8,144.1,137.8,144.2,137.8z M144,137.4L144,137.4L144,137.4z
						 M114.2,141.7L114.2,141.7c-0.2,0-0.3-0.1-0.3-0.3v-0.8v-0.1c0.4-1.3,4.9-3.1,10.6-4.2c5.6-1.1,12.5-1.7,19.4-1.7l0,0
						c0.1,0,0.1,0,0.2,0c6.5,0,13.2,0.6,18.9,1.7c4,0.8,9.2,2.2,10.9,4.1c0,0.1,0.1,0.1,0.1,0.2v0.8c0,0.1-0.1,0.2-0.2,0.3
						c-0.1,0-0.2,0-0.3-0.1c-1.7-2-7.4-3.4-10.7-4c-5.6-1.1-12.2-1.7-18.6-1.7c-0.1,0-0.1,0-0.2,0c-6.8,0-13.6,0.6-19.2,1.7
						c-4.6,0.9-9.8,2.6-10.3,3.9C114.4,141.6,114.3,141.7,114.2,141.7z M144.2,135.3c6.5,0,13.1,0.6,18.7,1.7
						c3.7,0.7,8.2,1.9,10.3,3.6c-1.4-1.4-5-2.6-10.3-3.7c-5.7-1.1-12.4-1.7-19-1.7l0,0c-6.9,0-13.7,0.6-19.3,1.7
						c-5.4,1.1-9.2,2.6-10,3.6c1.9-1.6,7.2-2.9,10.1-3.5c5.6-1.1,12.5-1.7,19.3-1.7C144,135.3,144.1,135.3,144.2,135.3z"/>
				</g>
				<g>
					<path class="st5" d="M143.8,122.1c10.9-0.1,20.5,1.5,24.8,3.8l1.6,2.8c-3.8-2-14.1-4.2-26.4-3.9c-10,0.1-20.8,1.1-26.2,4
						l1.9-3.2C124,123.2,134.4,122.1,143.8,122.1"/>
					<path d="M117.7,129c-0.1,0-0.2,0-0.2-0.1c-0.1-0.1-0.1-0.2,0-0.3l1.9-3.2l0.1-0.1c4.6-2.4,15.6-3.5,24.4-3.5c0.2,0,0.4,0,0.6,0
						c10.4,0,19.9,1.5,24.4,3.8l0.1,0.1l1.6,2.8c0.1,0.1,0,0.3,0,0.3c-0.1,0.1-0.2,0.1-0.3,0.1c-4-2.1-14.2-4.1-26.3-3.8
						c-7,0-19.8,0.6-26,3.9C117.8,129,117.7,129,117.7,129z M119.8,125.8l-1.4,2.3c6.6-3,18.6-3.5,25.4-3.6
						c11.3-0.3,21.2,1.5,25.7,3.5l-1.1-1.9c-4.6-2.3-14.2-3.7-24.6-3.7l0,0C135.1,122.4,124.4,123.4,119.8,125.8z"/>
				</g>
				<g>
					<path class="st5" d="M144,124.3c6.2,0,12.3,0.3,17.1,1.2c4.5,0.8,8.7,2.1,9.3,2.7l0.5,0.8c-1.5-1-5.2-2-9.9-2.9
						s-10.8-1.2-17-1.2c-7,0-12.5,0.3-17.2,1.2c-5,0.9-8.4,2.3-9.3,2.9l0.5-0.9c1.7-0.8,4.3-1.9,8.7-2.6
						C131.5,124.6,137,124.4,144,124.3L144,124.3L144,124.3z M144,121.8c6,0,11.9,0.3,16.5,1.1c3.6,0.7,7.2,1.8,8.5,2.8l0.7,1.1
						c-1.2-1.3-5.6-2.5-9.5-3.2c-4.6-0.8-10.2-1.1-16.2-1.1c-6.3,0-12.1,0.4-16.5,1.2c-4.3,0.8-7,1.8-8.2,2.5l0.6-0.9
						c1.6-0.8,4.2-1.6,7.5-2.3C131.8,122.2,137.7,121.8,144,121.8L144,121.8z"/>
					<path d="M170.8,129.4c-0.1,0-0.1,0-0.2,0c-1.4-0.9-5-2-9.8-2.9c-4.2-0.8-9.9-1.2-16.9-1.2s-12.5,0.3-17.2,1.2
						c-4.8,0.9-8.3,2.2-9.1,2.8c-0.1,0.1-0.3,0.1-0.4,0c-0.1-0.1-0.1-0.2-0.1-0.4l0.5-0.9c0-0.1,0.1-0.1,0.1-0.1
						c2.2-1.1,5.1-2,8.8-2.7c4.4-0.8,9.4-1.2,17.4-1.2l0,0c0.1,0,0.3,0,0.4,0c6.6,0,12.3,0.4,16.7,1.2c4.1,0.8,8.8,2,9.5,2.8
						l0.5,0.9c0.1,0.1,0,0.3-0.1,0.4C170.9,129.4,170.9,129.4,170.8,129.4z M144.4,124.7c6.8,0,12.4,0.4,16.6,1.2
						c4,0.8,7.3,1.6,9.1,2.5c-0.6-0.5-4.4-1.7-9.1-2.6c-4.4-0.8-10.3-1.2-17-1.2c-7.9,0-12.9,0.4-17.3,1.2c-3.1,0.6-5.6,1.3-7.7,2.2
						c1.7-0.7,4.3-1.5,7.7-2.1c4.7-0.8,10.2-1.2,17.3-1.2C144.1,124.7,144.3,124.7,144.4,124.7z M169.6,127.1c-0.1,0-0.2,0-0.2-0.1
						c-1.1-1.2-5.5-2.5-9.3-3.1c-4.1-0.7-9.4-1.1-16.1-1.1c-6.5,0-12.2,0.4-16.5,1.2c-3.8,0.7-6.8,1.7-8.1,2.5
						c-0.1,0.1-0.3,0.1-0.4,0c-0.1-0.1-0.1-0.2,0-0.4l0.6-0.9l0.1-0.1c1.6-0.9,4.2-1.6,7.6-2.3c4.3-0.8,10.1-1.2,16.7-1.2l0,0l0,0
						c6.5,0,12.2,0.4,16.5,1.1c4,0.8,7.4,1.9,8.6,2.8c0,0,0.1,0,0.1,0.1l0.7,1.1c0.1,0.1,0,0.3-0.1,0.4
						C169.7,127.1,169.7,127.1,169.6,127.1z M144,122.1c-6.6,0-12.3,0.4-16.6,1.2c-2.6,0.5-4.7,1.1-6.3,1.7c1.6-0.6,3.8-1.2,6.3-1.6
						C131.7,122.6,137.4,122.2,144,122.1c6.8,0.1,12.1,0.5,16.2,1.2c2.2,0.4,4.7,1,6.6,1.7c-1.6-0.6-3.9-1.3-6.5-1.8
						C156.1,122.5,150.4,122.1,144,122.1L144,122.1z"/>
				</g>
				<g>
					<path class="st5" d="M158.5,154.2c-5.4-1-10.8-1.2-14.6-1.1c-18.2,0.2-24.1,3.7-24.8,4.8l-1.4-2.2c4.6-3.4,14.6-5.2,26.3-5.1
						c6.1,0.1,11.3,0.5,15.8,1.4L158.5,154.2"/>
					<path d="M119.1,158.2L119.1,158.2c-0.1,0-0.2-0.1-0.2-0.1l-1.4-2.2c-0.1-0.1,0-0.3,0.1-0.4c4.7-3.4,14.6-5.3,26.5-5.1
						c6.4,0.1,11.6,0.6,15.8,1.4c0.1,0,0.2,0.1,0.2,0.2c0,0.1,0,0.2,0,0.3l-1.3,2.2c0,0,0,0,0,0.1c-0.1,0.1-0.2,0.1-0.3,0.1
						c-4.3-0.8-9.2-1.2-14.5-1.1c-17.6,0.2-23.8,3.5-24.6,4.7C119.3,158.1,119.2,158.2,119.1,158.2z M118.1,155.8l1,1.7
						c1.6-1.5,8.1-4.4,24.8-4.6c5.3-0.1,10.2,0.3,14.5,1.1l1-1.7c-4.1-0.8-9.1-1.2-15.3-1.3C132.5,150.7,122.8,152.5,118.1,155.8z"
						/>
				</g>
				<g>
					<path class="st5" d="M143.8,152.8c5.1,0.1,10,0.3,14.8,1.2l-0.3,0.6c-4.5-0.8-9.2-1.1-14.5-1.1c-6.7-0.1-13.5,0.6-19.4,2.3
						c-1.9,0.5-5,1.7-5.3,2.7l-0.3-0.6c0.1-0.6,2-1.8,5.5-2.8C131,153.2,137.4,152.8,143.8,152.8L143.8,152.8L143.8,152.8z
						 M144.1,150.2c5.3,0.1,10.7,0.3,15.9,1.4l-0.4,0.6c-4.8-0.9-9.3-1.3-15.6-1.4c-6.7,0-13.9,0.5-20.4,2.4c-2.1,0.6-5.7,1.9-5.8,3
						l-0.3-0.6c0.1-1,3.2-2.2,6-3C130.1,150.7,137.3,150.2,144.1,150.2L144.1,150.2z"/>
					<path d="M119.1,158.7c-0.1,0-0.2,0-0.2-0.1l-0.3-0.6c0-0.1,0-0.1,0-0.2c0.1-0.9,2.5-2.1,5.7-3c6.5-1.9,12.6-2.3,19.7-2.3l0,0
						l0,0c4.8,0.1,10,0.3,14.9,1.2c0.1,0,0.2,0.1,0.2,0.2c0,0.1,0,0.2,0,0.3l-0.3,0.6c-0.1,0.1-0.2,0.2-0.3,0.1
						c-4.2-0.8-8.9-1.1-14.4-1.1c-7.4-0.1-13.9,0.7-19.4,2.3c-2.3,0.6-4.9,1.8-5.1,2.5C119.4,158.6,119.3,158.7,119.1,158.7
						C119.2,158.7,119.1,158.7,119.1,158.7z M119.1,157.8L119.1,157.8c1.2-1.2,5.2-2.4,5.2-2.4c5.5-1.6,12.1-2.3,19.5-2.3
						c5.5,0,10.2,0.3,14.3,1.1l0.1-0.1c-4.8-0.9-9.7-1-14.4-1.1c-7.1,0-13.1,0.5-19.5,2.3C121,156.3,119.3,157.4,119.1,157.8z
						 M117.9,156.5c-0.1,0-0.2-0.1-0.2-0.1l-0.3-0.6c0,0,0-0.1,0-0.2c0.1-1.3,4.4-2.7,6.2-3.3c5.6-1.6,12.2-2.4,20.6-2.4l0,0
						c5.1,0.1,10.6,0.3,16,1.4c0.1,0,0.2,0.1,0.2,0.2c0,0.1,0,0.2,0,0.3l-0.4,0.6c-0.1,0.1-0.2,0.2-0.3,0.1c-5-1-9.8-1.3-15.5-1.4
						c-8.3,0-14.8,0.8-20.3,2.4c-3.1,0.9-5.6,2.1-5.6,2.7C118.1,156.4,118,156.5,117.9,156.5L117.9,156.5z M117.8,155.6L117.8,155.6
						c1.1-1.1,4.6-2.2,5.8-2.6c5.6-1.6,12.1-2.4,20.5-2.4c5.6,0.1,10.4,0.3,15.4,1.3l0.1-0.1c-5.2-1-10.5-1.2-15.5-1.3
						c-8.4,0-14.9,0.8-20.4,2.4C120,154,118,155,117.8,155.6z"/>
				</g>
				<g>
					<path class="st5" d="M170,156l-2.2,3.4l-6.3-5.6l-16.3-11l-18.4-10.1l-9.6-3.3l2-3.8l0.7-0.4l5.9,1.5l19.6,10.1l11.3,7.1
						l9.5,6.8l3.9,4.5L170,156z"/>
					<path d="M167.8,159.7c-0.1,0-0.1,0-0.2-0.1l-6.3-5.6L145,143l-18.4-10l-9.5-3.2c-0.1,0-0.1-0.1-0.2-0.2c-0.1-0.1,0-0.2,0-0.2
						l2-3.8l0.1-0.1l0.7-0.4c0.1,0,0.1,0,0.2,0l5.9,1.5l19.6,10.1l11.3,7.1l9.5,6.8l3.9,4.5c0.1,0.1,0.1,0.2,0.1,0.2l-0.1,0.7v0.1
						l-2.2,3.4C168,159.6,167.9,159.7,167.8,159.7L167.8,159.7z M117.6,129.3l9.2,3.2l18.4,10.1l16.3,11l6.1,5.4l2-3.1l0.1-0.5
						l-3.8-4.3l-9.4-6.8l-11.3-7.1l-19.6-10.1l-5.8-1.4l-0.5,0.3L117.6,129.3z M170,156L170,156L170,156z"/>
				</g>
				<g>
					<path class="st5" d="M116.9,129.6c1.7-1.1,14,4.3,26.9,12.1c12.8,7.8,25.1,16.6,24,18.2l-0.4,0.6l-0.2,0.1c0,0,0.2-0.3,0-0.9
						c-0.5-1.8-9.3-8.7-23.7-17.5c-14.1-8.4-25.8-13.5-27-12L116.9,129.6L116.9,129.6L116.9,129.6z M170.4,156
						c1.1-2.1-10.4-10.7-24.5-19.1c-14.5-8.2-24.9-13-26.8-11.6l-0.4,0.8c0,0,0-0.1,0.1-0.1c0.3-0.3,0.9-0.3,1.2-0.3
						c3.3,0,12.7,4.4,25.8,11.9c5.8,3.4,24.4,15.3,24.3,18.6c0,0.3,0,0.3-0.1,0.5L170.4,156L170.4,156L170.4,156z"/>
					<path d="M167.2,160.9c-0.1,0-0.2,0-0.2-0.1c-0.1-0.1-0.1-0.3,0.1-0.4l0,0c0,0,0-0.1-0.1-0.5c-0.5-1.5-8.3-8.1-23.6-17.3
						c-15.2-9.1-25.8-13.2-26.6-12.1c-0.1,0.1-0.3,0.1-0.4,0.1c-0.1-0.1-0.2-0.2-0.1-0.4l0.4-0.7l0.1-0.1
						c2.1-1.4,15.7,5.2,27.2,12.1c11.2,6.8,23.6,15.4,24.2,18c0.1,0.2,0,0.5-0.1,0.6l-0.4,0.6c0,0,0,0.1-0.1,0.1l-0.2,0.1l0,0l0,0
						C167.3,160.9,167.3,160.9,167.2,160.9z M117.3,129.8c3.7,0,15.7,5.9,26.3,12.3c14.2,8.6,23.2,15.7,23.8,17.6v0.1l0,0
						c0-0.1,0-0.1,0-0.2c-0.5-2.1-10.7-9.7-23.9-17.7c-13.3-8-24.8-13-26.5-12.2C117.2,129.8,117.2,129.8,117.3,129.8z M169.9,157
						c-0.1,0-0.1,0-0.2-0.1s-0.2-0.3-0.1-0.4v-0.1c0,0,0-0.1,0-0.2v-0.1c0.1-3-17.2-14.4-24.1-18.4c-13-7.4-22.3-11.7-25.6-11.7
						c-0.3,0-0.7,0-1,0.2c-0.1,0.1-0.2,0.2-0.4,0.2c-0.1,0-0.2-0.2-0.2-0.3V126l0.4-0.8c0,0,0-0.1,0.1-0.1c1.9-1.4,11,2.5,27.1,11.6
						c12.8,7.6,25.9,16.9,24.6,19.4l0,0l-0.4,0.6c0,0,0,0.1-0.1,0.1C170.1,156.9,170,157,169.9,157z M170.4,156L170.4,156L170.4,156
						z M119.9,125.4L119.9,125.4c3.3,0.1,12.8,4.4,26,11.9c3.9,2.2,22.7,14,24.3,18.3c0.1-1.9-8.9-9.3-24.5-18.5
						c-19.5-11-24.7-12.1-26.1-11.7C119.7,125.4,119.8,125.4,119.9,125.4C119.8,125.4,119.9,125.4,119.9,125.4z"/>
				</g>
			</g>
		</g>
		<g>
			<defs>
				<path id="SVGID_7_" d="M121.2,82.8c-0.4-0.8-0.9-1.5-1.7-2.2c-0.9,1.7-1.3,3.6-1.9,5.3c-0.6,1.7-1.1,3.5-1.9,5.2
					c0.1-0.5,0.2-1,0.3-1.5c1.3-5.9,2.7-11.8,4.1-17.7c0.2-0.7,0.1-1.4,0-2.2c-1.3-6.7-3.5-13.1-5.4-19.6c-0.2-0.6-0.5-1.2-0.3-1.8
					c1-3.5-0.4-6.7-1.1-10c-0.5-2.2-1.1-4.3-2-6.4c-1.1-2.5-0.7-5.3-0.4-8c0.1-0.6,0.5-0.9,1-1.2c1.1-0.8,2.1-1.5,3.2-2.3
					c0.4-0.3,1-0.6,0.9-1.2c-0.2-1.7,1-2.3,2.2-2.7c1.1-0.4,1.8-0.9,1.6-2.3c-0.1-0.8,0.3-1,1.1-1.1c1.6-0.2,3.5,0.1,4.5-1.9
					c0.2-0.4,0.8-0.3,1.2-0.2c1.5,0.1,3,0.1,4.5,0.2c1.8,0.2,3.4-0.2,4.8-1.3c0.8-0.7,1.8-1.1,2.8-1.7c0.1,0.3,0.3,0.5,0.3,0.7
					c0.3,1.9,0.9,3.4,3.3,2.8c0.5-0.1,0.8,0.1,0.9,0.6c0.2,0.8,0.3,1.5-0.4,2.2c-1.5,1.4-2.9,2.9-4.3,4.3c-1.1,1.1-0.7,3.5,0.7,4.2
					c1.1,0.5,0.8,1.6,0.9,2.5c0.1,1.1,0.5,1.5,1.6,1.4c0.7-0.1,1.4-0.1,2-0.1c1.1,0,2.4-0.2,2.9-0.9c1.2-1.9,3.4-2.5,4.9-4
					c0.6,0.7,0.3,1.8,1.2,2.6c1.7-1.4,3.8-1.9,5.8-2.5s3.4,0.8,5.1,0.7c0.5,0,0.4,0.6,0.3,1c-0.1,0.5-0.3,1-0.2,1.7
					c1.5,0,3.1,0.6,4.6-0.8c1-1,2.5-0.5,3,0.8c0.2,0.5,0.2,1.2,0.7,1.5c0.1,0,0.1,0,0.2,0c1.8-2.7,4.8-2.6,7.5-3.1
					c2.2-0.5,3.4-2.3,3-4.5c0-0.2,0-0.4-0.1-0.6c-0.2-0.7,0.1-1.2,0.7-1.5c0.7-0.4,1,0,1.5,0.4c2.3,2.2,3.6,2.3,6.2,0.2
					c1.3,1.9,3.3,1.2,5.1,1.4c0.9,0.1,1.3-0.5,1.7-1.2c0.8-1.3,1.8-1.4,2.4,0.1c0.7,1.6,1.6,2.1,3.3,1.6c1.4-0.4,3.2,0.1,4.2-1.5
					c1.2,0.5,1.4,1.4,1.1,2.5c-0.3,0.9-0.3,1.7,0.6,2.4c0.8,0.6,0.5,1.4,0.4,2.2c-0.3,2.6-1.2,5.1-0.5,7.7c0.5,2,1.3,2.5,3.3,2
					c3.6-1,6.9-0.5,9.6,2.2c2.4,2.4,2.3,2.4,0.5,5.4c-1.3,2.2-3.2,4-3.5,6.7c0,0.1-0.1,0.4-0.2,0.4c-2.3,0.2-2.3,2.6-3.6,3.8
					c-1.4,1.2-2.6,2.5-4.1,3.7c-1.4,1-2.8,2-4.7,1.1c-1-0.5-1.6,0-2.1,0.9c-2,3.1-3.7,6.5-5.1,9.9c-0.4,1.1-1,1.7-2.3,1.8
					c-1.4,0.1-2.8,0.4-4.1,0.6c-0.3,0.8,0.3,1.2,0.5,1.7c1.1,2,2.7,3.7,3.3,6c0.2,0.7,0.9,0.8,1.5,1.2c-0.7,2.1-0.9,4.4-1.3,6.7
					c-0.2,1.1-0.1,2,0.4,2.8c1.1,1.8,1,3.5,0.1,5.3c-0.6,1.1-1.1,2.1,0.5,3.2c1,0.7,1,2.1,0.2,3.2c-0.7,1-1.5,1.8-1.4,3.2
					c0.1,1.2,0.3,2.2,1.4,3c1.5,1.1,1.2,2.7-0.6,3.2c-1.2,0.4-1.6,1-1.7,2.1c0,1-0.5,1.2-1.4,1.2c-1.2,0.1-2.6-0.5-3.6,0.8
					c-1.4,1.8-1.6,3.9-1.6,5.9c0,0.9,0.8,1.8,1.9,1.8c1.1,0,1.5,0.8,2.2,1.5c2.5,2.6,1.7,5.7,1.2,8.7c0,0.1,0,0.1,0,0.2
					c0.2,2.4-0.9,4.1-2.9,5.4c-0.5,0.3-0.7,0.8-0.8,1.5c-0.1,1.4-0.4,2.8-0.5,4.2c-0.3,2.7-1,3.3-3.8,3.4c-2.4,0-4.8,0-7.2,0
					c-0.5,0-1.1-0.1-1.4,0.1c-2.3,1.7-4.7,0.6-7.1,0.4c-1-0.1-1.9-0.3-2.9-0.4c-0.6,0.6-0.2,1-0.1,1.5c0.8,2.7,2.7,4.5,4.6,6.5
					c1.5,1.5,2.7,3,4.7,3.8c0.1,0.1,0.2,0.5,0.1,0.7c0,0.4-0.1,0.7-0.2,1.1c-0.8,2.5-0.3,4.7,1.9,6.3c0.8,0.6,1,1.3,0.6,2.3
					c-0.5,1.6,0.2,3.1,1.7,3.9c0.6,0.3,1.1,0.7,1.7,0.9c1.1,0.5,1.5,1.1,1.2,2.3c-0.3,1.5,1,2.4,2.4,1.9c2.5-1,2.6-1,4.8,1.7
					c0.9,1.1,0.8,2.5-0.3,4.2c-0.7,1-1.4,2.1-2.1,3.1c-0.7,0.9-1,1.8-0.7,3s-1.4,3.3-2.6,3.3c-0.9,0-1.6,0.4-2.2,1
					c-0.7,0.7-1.3,1.6-2.1,2.1c-2.2,1.5-3.2,3.9-2.6,6.1c0.7,2.5-0.8,3.9-1.5,5.8c-0.5,1.3-1.5,2.5-0.7,4.1c0.2,0.4-0.4,1.2-0.8,2
					c2.8,0.3,3.5,2.6,4.7,4.4c1.8,2.7,3.8,5.2,4.6,8.5c0.3,1.3,1.3,1.5,2.5,1.1c1.5-0.6,3-1.1,4.8-1.8c-0.4,1.7-0.8,3.1-1.1,4.6
					c-0.3,1.2-0.5,2.5-0.7,3.7c-0.3,1.7-1.7,2.2-3.1,1.3c-1.9-1.2-2.4-1.1-3.1,1c-0.2,0.7-0.7,0.9-1.3,0.9c-1,0.1-2.1,0.3-3.1,0.3
					c-0.9,0-1.3,0.4-1.4,1.3c-0.1,1.1-0.2,2.3-0.3,3.4c-0.1,1.2-0.5,2.3-1.5,3.1c-3.6,2.8-5.7,6.5-7,10.8c-0.9,2.9-1.6,5.4-0.4,8.5
					c2,5,2.2,10.4,3.3,15.6c0,0.2,0,0.5,0,0.7c-2.8,0.3-5.5,0.8-7.7,2.7c-1.9,1.5-3.9,2.8-5.8,4.3c-1.1,0.8-2.5,1-3.8,1.4
					c-6.9,2-7,2.1-12.6-2.2c-2.2-1.7-4.3-1.1-6.5-0.8c-1,0.2-1.8,0.3-2.6-0.5c-0.3-0.3-0.7-0.4-1.2-0.3c-3.4,0.2-6.4-0.9-9.5-2
					c-1.5-0.6-2.7,0.6-3.6,1.6c-0.6,0.6-1.1,1-1.9,1.2c-1.8,0.4-3.5,0.9-5.3,1.3c-1.6,0.4-3.2,0.8-4.3,2.3c-0.8-0.3-1.3-1-2.3-0.7
					c0.6-1.2,1-2.1,1.5-3c1.8-3.1,3.5-6.4,3.7-9.9c0.2-3.1,1.5-5.4,2.8-7.9c1.2-2.3,0.8-4.8,0.4-7c-0.6-2.7-0.5-5.2,0.4-7.8
					c0.2-0.6,0.4-1.2,0.1-1.7c-0.7-1.5-0.5-3-0.2-4.6c0.4-1.8-0.2-3.5-0.3-5.3c-0.1-0.6-0.5-0.9-1-1.1c-0.8-0.4-1.7-0.8-2.5-1.3
					c4.8-8.3,5.8-16.9,2.7-26.2c1.7,2.3,3.9,1.4,5.8,1.8c0.3-0.9,0.1-1.5-0.5-1.8c-1.3-0.7-1.4-1.8-1.4-3c0-1-0.1-2.1-0.6-2.9
					c-0.4-0.2-0.7-0.1-1,0.1c-1.6,1.1-3.2,1.5-5.1,0.9c-1.1-0.3-2.1,0.6-2.7,1.5c-0.4,0.7-0.7,1-1.5,1c-0.2,0-0.5,0.2-0.7,0.3
					c-2.5,2.4-5.9,1.8-8.9,3.1c0.2-2.2,0.7-3.8,2.3-5c-2.4-1.9-2.6-4.9-3.7-7.3c-0.3-0.6,0-1.1,0.8-1.2c0.7,0,1.5,0,2.2,0
					c0.8,2.1,1.4,2.4,2.9,1.8c0.3,0.4,0.7,0.9,1.1,1.4c0.8-0.8,0.2-1.8,0.6-2.7c1.9,0.8,2.8-0.3,3.3-2c-0.3-0.6-1.1-0.4-1.7-0.9
					c1-0.9,2-1.7,2.9-2.5c0.5-0.4,0.8-0.8,0.5-1.5c-1.2-2.4-1.7-5-2.2-7.6c-0.7-0.2-0.8,0.4-1,0.7c-1.9,2.7-3.2,5.6-4.2,8.7
					c-0.8,2.5-1,2.5-3.6,2.4c-1.1,0-2.2-0.3-3.3,0.1c-2,0.7-3.9,1.1-5.8-0.1c-0.8-0.5-1.7,0.2-2.6-0.1c-0.4-0.5,0-1.1,0-1.7
					c0-0.5,0.1-1.2-0.1-1.4c-1.6-1.4-0.5-2.6,0-3.9c0.2-0.5,0.4-1,0.6-1.4c1.6-2.9,2.4-5.9,1.9-9.2c-0.4-2.8,1-5.1,2.1-7.4
					c1.1-2.2,1.5-4.5,1.2-7c-0.2-1.4-1.2-2.4-1.8-3.9c3,0.2,4.5-2.9,7.4-2.9c0,0,0.1-0.1,0.1-0.2c-0.7-2.1,0-3.6,1.6-4.9
					c0.8-0.6,1.4-1.5,2.2-2.2c1.4-1.3,2.6-2.5,1.4-4.7c-0.4-0.8,0.1-1.6,0.4-2.4c2.8-8,5.6-15.9,8.5-23.9c0.5-1.4,0.6-2.6-0.5-3.7
					c-0.9-1-1-2.1-0.6-3.5c2-7,4-14,5.9-21c0.3-1.1,0.7-1.9,1.9-2.1c0.9-0.2,3.1-3.6,3.1-4.5c0-0.1,0-0.1,0-0.2
					C119.7,85,119.7,85,121.2,82.8z"/>
			</defs>
			<clipPath id="SVGID_8_">
				<use xlink:href="#SVGID_7_"  style="overflow:visible;"/>
			</clipPath>
			<g class="st6">
				<g>
					<path class="st7" d="M126.3,145.2c0,4.8,2,9.2,5.2,12.4c3.2,3.2,7.6,5.2,12.4,5.2c4.9,0,9.3-2,12.5-5.2s5.2-7.6,5.2-12.4l0,0
						v-23.5h-35.2L126.3,145.2L126.3,145.2L126.3,145.2z"/>
					<path d="M143.9,163.2c-4.7,0-9.2-1.9-12.6-5.3c-3.4-3.4-5.3-7.9-5.3-12.6v-23.9h35.9v23.8c0,4.8-1.9,9.3-5.3,12.7
						C153.2,161.3,148.7,163.2,143.9,163.2z M126.7,122v23.2c0,4.6,1.8,8.9,5.1,12.1c3.3,3.3,7.6,5.1,12.2,5.1c4.6,0,9-1.8,12.2-5.1
						c3.2-3.3,5.1-7.6,5.1-12.2v-23.2L126.7,122z"/>
				</g>
				<g>
					<path class="st1" d="M127,145.3L127,145.3c0,4.6,1.9,8.8,5,11.9c3.1,3.1,7.3,5,11.9,5c4.7,0,8.9-1.9,11.9-4.9
						c3.1-3,5-7.2,5-11.9l0,0v-22.8H127V145.3 M154,129.3v14.5v1.5l0,0c0,0.4,0,0.9-0.1,1.3c-0.3,2.3-1.3,4.3-2.9,5.8
						c-1.8,1.8-4.4,2.9-7.1,2.9c-2.8,0-5.2-1.2-7.1-3c-1.9-1.9-3-4.4-3-7.1v-16L154,129.3L154,129.3L154,129.3z"/>
					<path d="M143.9,162.4c-4.5,0-8.9-1.8-12.1-5c-3.3-3.2-5.1-7.5-5.1-12.1h0.5h-0.5v-23H161v23c0,4.5-1.8,8.8-5,12.1
						C152.8,160.6,148.5,162.4,143.9,162.4z M127.3,145.3L127.3,145.3c0,4.4,1.7,8.6,4.9,11.7c3.2,3.1,7.3,4.9,11.8,4.9
						c4.4,0,8.6-1.7,11.8-4.9c3.1-3.1,4.9-7.3,4.9-11.7v-22.5h-33.3L127.3,145.3L127.3,145.3z M143.9,155.7c-2.7,0-5.3-1.1-7.2-3.1
						c-1.9-1.9-3.1-4.6-3.1-7.3V129h0.3h20.4v0.3v14.5v1.5c0,0.4,0,0.9-0.1,1.3c-0.3,2.3-1.3,4.3-3,6
						C149.3,154.6,146.7,155.7,143.9,155.7z M134.1,129.5v15.8c0,2.6,1.1,5.1,2.9,6.9c1.9,1.9,4.3,2.9,6.9,2.9c2.6,0,5.1-1,7-2.9
						c1.6-1.6,2.6-3.5,2.8-5.7c0-0.4,0.1-0.8,0.1-1.2v-1.5v-14.3H134.1z"/>
				</g>
				<g id="castle3">
					<g id="castle">
						<g>
							<path class="st8" d="M129.2,128.4c0-1.6,1.2-2,1.2-2s1.3,0.4,1.3,2H129.2"/>
						</g>
						<g>
							<path class="st8" d="M128.2,126.4l-0.2,1.9h1.2c0-1.6,1.2-1.8,1.2-1.8s1.2,0.3,1.2,1.8h1.2l-0.2-1.9H128.2L128.2,126.4
								L128.2,126.4z"/>
							<path d="M129.5,128.6h-1.8l0.3-2.4h4.9l0.3,2.4h-1.8v-0.2c0-1.1-0.8-1.5-1-1.6c-0.2,0-0.9,0.3-0.9,1.6V128.6z M131.9,128.1
								h0.7l-0.2-1.4h-1.2l0,0C131.5,126.9,131.8,127.4,131.9,128.1z M128.3,128.1h0.7c0.1-0.7,0.4-1.1,0.6-1.4h-1.2L128.3,128.1z"
								/>
						</g>
						<g>
							<path class="st8" d="M127.9,128.3h5c0.1,0,0.2,0.1,0.2,0.2c0,0.1-0.1,0.2-0.2,0.2h-5c-0.1,0-0.2-0.1-0.2-0.2
								C127.7,128.4,127.8,128.3,127.9,128.3z"/>
							<path d="M132.9,129h-5c-0.2,0-0.4-0.2-0.4-0.5s0.2-0.5,0.4-0.5h5c0.2,0,0.4,0.2,0.4,0.5C133.4,128.8,133.2,129,132.9,129z"/>
						</g>
						<g>
							<path class="st8" d="M129.7,128.3c0-1,0.7-1.3,0.7-1.3s0.7,0.3,0.7,1.3H129.7"/>
							<path d="M131.4,128.6h-1.9v-0.3c0-0.7,0.3-1.1,0.5-1.3c0.1-0.1,0.3-0.2,0.4-0.2l0,0c0.1,0,0.9,0.4,0.9,1.5L131.4,128.6z
								 M130,128.1h0.8c-0.1-0.4-0.3-0.6-0.4-0.7C130.3,127.4,130.1,127.7,130,128.1z"/>
						</g>
						<g>
							<path class="st8" d="M128,125.7h4.8c0.1,0,0.2,0.1,0.2,0.2s-0.1,0.2-0.2,0.2H128c-0.1,0-0.2-0.1-0.2-0.2
								C127.8,125.8,127.9,125.7,128,125.7z"/>
							<path d="M132.8,126.3H128c-0.2,0-0.4-0.2-0.4-0.5s0.2-0.5,0.4-0.5h4.8c0.2,0,0.4,0.2,0.4,0.5S133.1,126.3,132.8,126.3z"/>
						</g>
						<g>
							<path class="st8" d="M128.1,126.1h4.6c0.1,0,0.2,0.1,0.2,0.2s-0.1,0.2-0.2,0.2h-4.6c-0.1,0-0.2-0.1-0.2-0.2
								C127.9,126.2,128,126.1,128.1,126.1z"/>
							<path d="M132.7,126.7h-4.6c-0.2,0-0.4-0.2-0.4-0.5s0.2-0.5,0.4-0.5h4.6c0.2,0,0.4,0.2,0.4,0.5S133,126.7,132.7,126.7z"/>
						</g>
						<g>
							<path class="st8" d="M129.6,122.9h0.4v0.3h0.2v-0.3h0.4v0.3h0.3v-0.3h0.3v0.6c0,0.1-0.1,0.2-0.2,0.2h-1.3
								c-0.1,0-0.2-0.1-0.2-0.2L129.6,122.9L129.6,122.9L129.6,122.9z"/>
							<path d="M131.1,123.9h-1.3c-0.2,0-0.4-0.2-0.4-0.4v-0.8h0.6l0,0h0.6l0,0h0.9v0.8C131.5,123.8,131.3,123.9,131.1,123.9z"/>
						</g>
						<g>
							<path class="st8" d="M131,123.7l0.1,1.9h-1.3l0.1-1.9H131"/>
							<path d="M131.3,125.9h-1.8l0.1-2.4h1.6L131.3,125.9z M130,125.4h0.8l-0.1-1.4h-0.6L130,125.4z"/>
						</g>
						<g id="cp1">
							<path class="st8" d="M129.4,124.6v1h-1.2v-1H129.4L129.4,124.6L129.4,124.6z"/>
							<path d="M128,125.9l0.1-1.5h1.6l0.1,1.5H128z M128.5,124.9v0.5h0.7v-0.5H128.5z"/>
						</g>
						<g>
							<g id="cp1_1_">
								<path class="st8" d="M132.6,124.6v1h-1.2v-1H132.6L132.6,124.6L132.6,124.6z"/>
								<path d="M131.1,125.9l0.1-1.5h1.6l0.1,1.5H131.1z M131.6,124.9v0.5h0.7v-0.5H131.6z"/>
							</g>
						</g>
						<g id="cp2">
							<path class="st8" d="M128,123.9h0.4v0.3h0.3v-0.3h0.4v0.3h0.3v-0.3h0.4v0.6c0,0.1-0.1,0.2-0.2,0.2h-1.4
								c-0.1,0-0.2-0.1-0.2-0.2V123.9L128,123.9L128,123.9z"/>
							<path d="M129.5,124.9h-1.3c-0.2,0-0.4-0.2-0.4-0.4v-0.8h2.1v0.8C129.9,124.7,129.7,124.9,129.5,124.9z"/>
						</g>
						<g>
							<g id="cp2_1_">
								<path class="st8" d="M131.2,123.9h0.4v0.3h0.3v-0.3h0.4v0.3h0.3v-0.3h0.4v0.6c0,0.1-0.1,0.2-0.2,0.2h-1.3
									c-0.1,0-0.2-0.1-0.2-0.2L131.2,123.9L131.2,123.9L131.2,123.9z"/>
								<path d="M132.6,124.9h-1.3c-0.2,0-0.4-0.2-0.4-0.4v-0.8h2.1v0.8C133,124.7,132.9,124.9,132.6,124.9z"/>
							</g>
						</g>
						<g>
							<path d="M130.3,124.3c0-0.2,0.3-0.2,0.3,0v0.5h-0.3V124.3"/>
						</g>
						<g id="cp3">
							<path d="M128.7,125c0-0.2,0.2-0.2,0.2,0v0.4h-0.2V125"/>
						</g>
						<g>
							<g id="cp3_1_">
								<path d="M131.9,125c0-0.2,0.2-0.2,0.2,0v0.4h-0.2V125"/>
							</g>
						</g>
					</g>
					<g>
						<g id="castle_1_">
							<g>
								<path class="st8" d="M129.2,142.2c0-1.6,1.2-2,1.2-2s1.3,0.4,1.3,2H129.2"/>
							</g>
							<g>
								<path class="st8" d="M128.2,140.2l-0.2,1.9h1.2c0-1.6,1.2-1.8,1.2-1.8s1.2,0.3,1.2,1.8h1.2l-0.2-1.9H128.2L128.2,140.2
									L128.2,140.2z"/>
								<path d="M129.5,142.3h-1.8l0.3-2.4h4.9l0.3,2.4h-1.8v-0.2c0-1.1-0.8-1.5-1-1.6c-0.2,0.1-0.9,0.4-0.9,1.6V142.3z
									 M131.9,141.8h0.7l-0.2-1.4h-1.2l0,0C131.5,140.7,131.8,141.1,131.9,141.8z M128.3,141.8h0.7c0.1-0.7,0.4-1.1,0.6-1.4h-1.2
									L128.3,141.8z"/>
							</g>
							<g>
								<path class="st8" d="M127.9,142.1h5c0.1,0,0.2,0.1,0.2,0.2c0,0.1-0.1,0.2-0.2,0.2h-5c-0.1,0-0.2-0.1-0.2-0.2
									C127.7,142.2,127.8,142.1,127.9,142.1z"/>
								<path d="M132.9,142.8h-5c-0.2,0-0.4-0.2-0.4-0.5s0.2-0.5,0.4-0.5h5c0.2,0,0.4,0.2,0.4,0.5
									C133.4,142.6,133.2,142.8,132.9,142.8z"/>
							</g>
							<g>
								<path class="st8" d="M129.7,142.1c0-1,0.7-1.3,0.7-1.3s0.7,0.3,0.7,1.3H129.7"/>
								<path d="M131.4,142.3h-1.9V142c0-0.7,0.3-1.1,0.5-1.3c0.1-0.1,0.3-0.2,0.4-0.2l0,0c0.1,0,0.9,0.4,0.9,1.5L131.4,142.3z
									 M130,141.8h0.8c-0.1-0.4-0.3-0.6-0.4-0.7C130.3,141.2,130.1,141.4,130,141.8z"/>
							</g>
							<g>
								<path class="st8" d="M128,139.4h4.8c0.1,0,0.2,0.1,0.2,0.2c0,0.1-0.1,0.2-0.2,0.2H128c-0.1,0-0.2-0.1-0.2-0.2
									C127.8,139.5,127.9,139.4,128,139.4z"/>
								<path d="M132.8,140.1H128c-0.2,0-0.4-0.2-0.4-0.5s0.2-0.5,0.4-0.5h4.8c0.2,0,0.4,0.2,0.4,0.5
									C133.3,139.9,133.1,140.1,132.8,140.1z"/>
							</g>
							<g>
								<path class="st8" d="M128.1,139.8h4.6c0.1,0,0.2,0.1,0.2,0.2c0,0.1-0.1,0.2-0.2,0.2h-4.6c-0.1,0-0.2-0.1-0.2-0.2
									C127.9,139.9,128,139.8,128.1,139.8z"/>
								<path d="M132.7,140.5h-4.6c-0.2,0-0.4-0.2-0.4-0.5s0.2-0.5,0.4-0.5h4.6c0.2,0,0.4,0.2,0.4,0.5S133,140.5,132.7,140.5z"/>
							</g>
							<g>
								<path class="st8" d="M129.6,136.7h0.4v0.3h0.2v-0.3h0.4v0.3h0.3v-0.3h0.3v0.6c0,0.1-0.1,0.2-0.2,0.2h-1.3
									c-0.1,0-0.2-0.1-0.2-0.2L129.6,136.7L129.6,136.7L129.6,136.7z"/>
								<path d="M131.1,137.7h-1.3c-0.2,0-0.4-0.2-0.4-0.4v-0.8h2.1v0.8C131.5,137.5,131.3,137.7,131.1,137.7z"/>
							</g>
							<g>
								<path class="st8" d="M131,137.5l0.1,1.9h-1.3l0.1-1.9H131"/>
								<path d="M131.3,139.6h-1.8l0.1-2.4h1.6L131.3,139.6z M130,139.1h0.8l-0.1-1.4h-0.6L130,139.1z"/>
							</g>
							<g id="cp1_2_">
								<path class="st8" d="M129.4,138.4v1h-1.2v-1H129.4L129.4,138.4L129.4,138.4z"/>
								<path d="M128,139.6l0.1-1.5h1.6l0.1,1.5H128z M128.5,138.6v0.5h0.7v-0.5H128.5z"/>
							</g>
							<g>
								<g id="cp1_3_">
									<path class="st8" d="M132.6,138.4v1h-1.2v-1H132.6L132.6,138.4L132.6,138.4z"/>
									<path d="M131.1,139.6l0.1-1.5h1.6l0.1,1.5H131.1z M131.6,138.6v0.5h0.7v-0.5H131.6z"/>
								</g>
							</g>
							<g id="cp2_2_">
								<path class="st8" d="M128,137.6h0.4v0.3h0.3v-0.3h0.4v0.3h0.3v-0.3h0.4v0.6c0,0.1-0.1,0.2-0.2,0.2h-1.4
									c-0.1,0-0.2-0.1-0.2-0.2V137.6L128,137.6L128,137.6z"/>
								<path d="M129.5,138.6h-1.3c-0.2,0-0.4-0.2-0.4-0.4v-0.8h2.1v0.8C129.9,138.4,129.7,138.6,129.5,138.6z"/>
							</g>
							<g>
								<g id="cp2_3_">
									<path class="st8" d="M131.2,137.6h0.4v0.3h0.3v-0.3h0.4v0.3h0.3v-0.3h0.4v0.6c0,0.1-0.1,0.2-0.2,0.2h-1.3
										c-0.1,0-0.2-0.1-0.2-0.2L131.2,137.6L131.2,137.6L131.2,137.6z"/>
									<path d="M132.6,138.6h-1.3c-0.2,0-0.4-0.2-0.4-0.4v-0.8h2.1v0.8C133,138.4,132.9,138.6,132.6,138.6z"/>
								</g>
							</g>
							<g>
								<path d="M130.3,138.1c0-0.2,0.3-0.2,0.3,0v0.5h-0.3V138.1"/>
							</g>
							<g id="cp3_2_">
								<path d="M128.7,138.7c0-0.2,0.2-0.2,0.2,0v0.4h-0.2V138.7"/>
							</g>
							<g>
								<g id="cp3_3_">
									<path d="M131.9,138.7c0-0.2,0.2-0.2,0.2,0v0.4h-0.2V138.7"/>
								</g>
							</g>
						</g>
					</g>
					<g transform="matrix(0.70460892,-0.70959585,0.70959585,0.70460892,-35.341459,275.10898)">
						<g id="castle_2_">
							<g>
								<path class="st8" d="M117.9,196.4c-1.1-1.2-0.6-2.3-0.6-2.3s1.2-0.6,2.3,0.6L117.9,196.4"/>
							</g>
							<g>
								<path class="st8" d="M115.8,195.7l1.2,1.5l0.9-0.9c-1.1-1.1-0.5-2.1-0.4-2.1c0,0,1.1-0.6,2.1,0.4l0.9-0.9l-1.5-1.2
									L115.8,195.7L115.8,195.7L115.8,195.7z"/>
								<path d="M117,197.5l-1.5-1.9l3.4-3.5l1.9,1.5l-1.2,1.3l-0.2-0.2c-0.8-0.8-1.6-0.5-1.8-0.4c-0.1,0.1-0.4,0.9,0.4,1.8l0.2,0.2
									L117,197.5z M116.2,195.7l0.9,1.1l0.5-0.5c-0.5-0.5-0.6-1-0.5-1.4L116.2,195.7z M118.2,193.7c0.4,0,0.9,0.1,1.4,0.5l0.5-0.5
									l-1.1-0.9L118.2,193.7L118.2,193.7z"/>
							</g>
							<g>
								<path class="st8" d="M117,197.2l3.5-3.6c0.1-0.1,0.2-0.1,0.3,0c0.1,0.1,0.1,0.2,0,0.3l-3.5,3.6c-0.1,0.1-0.2,0.1-0.3,0
									C116.9,197.4,116.9,197.3,117,197.2z"/>
								<path d="M117.2,197.9c-0.1,0-0.3-0.1-0.4-0.1c-0.1-0.1-0.2-0.2-0.2-0.4c0-0.1,0-0.2,0.1-0.3l3.5-3.6
									c0.1-0.1,0.2-0.1,0.3-0.1c0.1,0,0.2,0.1,0.3,0.1c0.2,0.2,0.2,0.5,0,0.7l-3.5,3.6C117.4,197.8,117.3,197.9,117.2,197.9z
									 M117.1,197.4L117.1,197.4L117.1,197.4z M117.1,197.4L117.1,197.4L117.1,197.4z"/>
							</g>
							<g>
								<path class="st8" d="M118.2,195.9c-0.7-0.7-0.4-1.4-0.4-1.4s0.7-0.3,1.4,0.4L118.2,195.9"/>
								<path d="M118.2,196.3l-0.2-0.2c-0.5-0.5-0.6-1.1-0.5-1.3c0-0.3,0.1-0.4,0.2-0.4s0.9-0.4,1.7,0.4l0.2,0.1L118.2,196.3z
									 M118,194.8c0,0.2,0,0.5,0.2,0.8l0.6-0.6C118.5,194.7,118.2,194.7,118,194.8z"/>
							</g>
							<g>
								<path class="st8" d="M115.1,195.3l3.4-3.4c0.1-0.1,0.2-0.1,0.3,0c0.1,0.1,0.1,0.2,0,0.3l-3.4,3.4c-0.1,0.1-0.2,0.1-0.3,0
									C115.1,195.5,115.1,195.3,115.1,195.3z"/>
								<path d="M115.3,195.9L115.3,195.9c-0.1,0-0.2-0.1-0.3-0.1c-0.1-0.1-0.1-0.2-0.1-0.3s0-0.2,0.1-0.3l3.4-3.4
									c0.1-0.1,0.2-0.1,0.3-0.1l0,0c0.1,0,0.2,0.1,0.3,0.1c0.2,0.2,0.2,0.5,0,0.6l-3.4,3.4C115.5,195.8,115.4,195.9,115.3,195.9z"
									/>
							</g>
							<g>
								<path class="st8" d="M115.5,195.5l3.2-3.3c0.1-0.1,0.2-0.1,0.3,0c0.1,0.1,0.1,0.2,0,0.3l-3.2,3.3c-0.1,0.1-0.2,0.1-0.3,0
									C115.5,195.7,115.4,195.6,115.5,195.5z"/>
								<path d="M115.7,196.1L115.7,196.1c-0.1,0-0.3-0.1-0.3-0.1c-0.2-0.2-0.2-0.5,0-0.6l3.2-3.3c0.1-0.1,0.2-0.1,0.3-0.1
									c0.1,0,0.2,0.1,0.3,0.1c0.1,0.1,0.1,0.2,0.1,0.3s0,0.2-0.1,0.3L116,196C115.9,196,115.8,196.1,115.7,196.1z"/>
							</g>
							<g>
								<path class="st8" d="M114.3,192.2l0.3-0.3l0.2,0.2l0.2-0.2l-0.2-0.2l0.3-0.3l0.2,0.2l0.2-0.2l-0.2-0.2l0.3-0.3l0.4,0.4
									c0.1,0.1,0.1,0.2,0,0.2l-0.9,0.9c-0.1,0.1-0.2,0.1-0.2,0L114.3,192.2L114.3,192.2L114.3,192.2z"/>
								<path d="M114.9,192.9c-0.1,0-0.2,0-0.3-0.1l-0.6-0.6l0.4-0.4l0,0l0.5-0.5l0,0l0.6-0.6l0.6,0.6c0.2,0.2,0.2,0.4,0,0.6
									l-0.9,0.9C115.1,192.9,115,192.9,114.9,192.9z"/>
							</g>
							<g>
								<path class="st8" d="M115.9,191.8l1.4,1.3l-0.9,0.9l-1.3-1.4L115.9,191.8"/>
								<path d="M116.4,194.4l-1.6-1.8l1.1-1.1l1.8,1.6L116.4,194.4z M115.4,192.6l1,1l0.5-0.5l-1-1L115.4,192.6z"/>
							</g>
							<g id="cp1_4_">
								<path class="st8" d="M115.4,193.5l0.8,0.7l-0.9,0.9l-0.7-0.8L115.4,193.5L115.4,193.5L115.4,193.5z"/>
								<path d="M115.3,195.5l-1.1-1.1l1.2-1.2l1.1,1L115.3,195.5z M114.9,194.4l0.4,0.4l0.5-0.5l-0.4-0.4L114.9,194.4z"/>
							</g>
							<g>
								<g id="cp1_5_">
									<path class="st8" d="M117.6,191.3l0.8,0.7l-0.9,0.9l-0.7-0.8L117.6,191.3L117.6,191.3L117.6,191.3z"/>
									<path d="M117.5,193.2l-1.1-1.1l1.2-1.2l1.1,1L117.5,193.2z M117.1,192.1l0.4,0.4l0.5-0.5l-0.4-0.4L117.1,192.1z"/>
								</g>
							</g>
							<g id="cp2_4_">
								<path class="st8" d="M113.9,194l0.3-0.3l0.2,0.2l0.2-0.2l-0.2-0.2l0.3-0.3l0.2,0.2l0.2-0.2l-0.2-0.2l0.3-0.3l0.4,0.4
									c0.1,0.1,0.1,0.2,0,0.2l-0.9,0.9c-0.1,0.1-0.2,0.1-0.2,0L113.9,194L113.9,194L113.9,194z"/>
								<path d="M114.4,194.7c-0.1,0-0.2,0-0.3-0.1l-0.6-0.6l0.4-0.4l0,0l0.4-0.4l0,0l0.6-0.6l0.6,0.6c0.2,0.2,0.2,0.4,0,0.6
									l-0.9,0.9C114.6,194.7,114.5,194.7,114.4,194.7z"/>
							</g>
							<g>
								<g id="cp2_5_">
									<path class="st8" d="M116.1,191.8l0.3-0.3l0.2,0.2l0.2-0.2l-0.2-0.2l0.3-0.3l0.2,0.2l0.2-0.2l-0.2-0.2l0.3-0.3l0.4,0.4
										c0.1,0.1,0.1,0.2,0,0.2l-0.9,0.9c-0.1,0.1-0.2,0.1-0.2,0L116.1,191.8L116.1,191.8L116.1,191.8z"/>
									<path d="M116.6,192.5c-0.1,0-0.2,0-0.3-0.1l-0.6-0.6l0.4-0.4l0,0l0.5-0.5l0,0l0.6-0.6l0.6,0.6c0.2,0.2,0.2,0.4,0,0.6
										l-0.9,0.9C116.9,192.4,116.7,192.5,116.6,192.5z"/>
								</g>
							</g>
							<g>
								<path d="M115.8,192.7c-0.1-0.1,0-0.3,0.2-0.2l0.3,0.3l-0.2,0.2L115.8,192.7"/>
							</g>
							<g id="cp3_4_">
								<path d="M115.2,194.3c-0.1-0.1,0-0.3,0.2-0.2l0.2,0.2l-0.2,0.2L115.2,194.3"/>
							</g>
							<g>
								<g id="cp3_5_">
									<path d="M117.4,192.1c-0.1-0.1,0-0.3,0.2-0.2l0.2,0.2l-0.2,0.2L117.4,192.1"/>
								</g>
							</g>
						</g>
					</g>
				</g>
				<g>
					<g id="castle_3_">
						<g>
							<path class="st8" d="M142.8,128.4c0-1.6,1.2-2,1.2-2s1.3,0.4,1.3,2H142.8"/>
						</g>
						<g>
							<path class="st8" d="M141.7,126.4l-0.2,1.9h1.2c0-1.6,1.2-1.8,1.2-1.8s1.2,0.3,1.2,1.8h1.2l-0.2-1.9H141.7L141.7,126.4
								L141.7,126.4z"/>
							<path d="M143,128.6h-1.8l0.3-2.4h4.9l0.3,2.4h-1.8v-0.2c0-1.1-0.8-1.5-1-1.6c-0.2,0-0.9,0.3-0.9,1.6V128.6z M145.4,128.1h0.7
								l-0.2-1.4h-1.2l0,0C145,126.9,145.4,127.4,145.4,128.1z M141.8,128.1h0.7c0.1-0.7,0.4-1.1,0.6-1.4h-1.2L141.8,128.1z"/>
						</g>
						<g>
							<path class="st8" d="M141.5,128.3h5c0.1,0,0.2,0.1,0.2,0.2c0,0.1-0.1,0.2-0.2,0.2h-5c-0.1,0-0.2-0.1-0.2-0.2
								C141.3,128.4,141.4,128.3,141.5,128.3z"/>
							<path d="M146.5,129h-5c-0.2,0-0.4-0.2-0.4-0.5s0.2-0.5,0.4-0.5h5c0.2,0,0.4,0.2,0.4,0.5C146.9,128.8,146.7,129,146.5,129z"/>
						</g>
						<g>
							<path class="st8" d="M143.3,128.3c0-1,0.7-1.3,0.7-1.3s0.7,0.3,0.7,1.3H143.3"/>
							<path d="M144.9,128.6H143v-0.3c0-0.7,0.3-1.1,0.5-1.3c0.1-0.1,0.3-0.2,0.4-0.2l0,0c0.1,0,0.9,0.4,0.9,1.5L144.9,128.6z
								 M143.6,128.1h0.8c-0.1-0.4-0.3-0.6-0.4-0.7C143.8,127.4,143.6,127.7,143.6,128.1z"/>
						</g>
						<g>
							<path class="st8" d="M141.6,125.7h4.8c0.1,0,0.2,0.1,0.2,0.2s-0.1,0.2-0.2,0.2h-4.8c-0.1,0-0.2-0.1-0.2-0.2
								C141.4,125.8,141.5,125.7,141.6,125.7z"/>
							<path d="M146.4,126.3h-4.8c-0.2,0-0.4-0.2-0.4-0.5s0.2-0.5,0.4-0.5h4.8c0.2,0,0.4,0.2,0.4,0.5S146.6,126.3,146.4,126.3z"/>
						</g>
						<g>
							<path class="st8" d="M141.7,126.1h4.6c0.1,0,0.2,0.1,0.2,0.2s-0.1,0.2-0.2,0.2h-4.6c-0.1,0-0.2-0.1-0.2-0.2
								S141.6,126.1,141.7,126.1z"/>
							<path d="M146.3,126.7h-4.6c-0.2,0-0.4-0.2-0.4-0.5s0.2-0.5,0.4-0.5h4.6c0.2,0,0.4,0.2,0.4,0.5S146.5,126.7,146.3,126.7z"/>
						</g>
						<g>
							<path class="st8" d="M143.2,122.9h0.4v0.3h0.3v-0.3h0.4v0.3h0.3v-0.3h0.4v0.6c0,0.1-0.1,0.2-0.2,0.2h-1.3
								c-0.1,0-0.2-0.1-0.2-0.2L143.2,122.9L143.2,122.9L143.2,122.9z"/>
							<path d="M144.6,123.9h-1.3c-0.2,0-0.4-0.2-0.4-0.4v-0.8h0.6l0,0h0.6l0,0h0.9v0.8C145.1,123.8,144.9,123.9,144.6,123.9z"/>
						</g>
						<g>
							<path class="st8" d="M144.5,123.7l0.1,1.9h-1.3l0.1-1.9H144.5"/>
							<path d="M144.9,125.9h-1.8l0.1-2.4h1.6L144.9,125.9z M143.6,125.4h0.8l-0.1-1.4h-0.6L143.6,125.4z"/>
						</g>
						<g id="cp1_6_">
							<path class="st8" d="M143,124.6v1h-1.2v-1H143L143,124.6L143,124.6z"/>
							<path d="M141.5,125.9l0.1-1.5h1.6l0.1,1.5H141.5z M142.1,124.9v0.5h0.7v-0.5H142.1z"/>
						</g>
						<g>
							<g id="cp1_7_">
								<path class="st8" d="M146.1,124.6v1h-1.2v-1H146.1L146.1,124.6L146.1,124.6z"/>
								<path d="M144.7,125.9l0.1-1.5h1.6l0.1,1.5H144.7z M145.2,124.9v0.5h0.7v-0.5H145.2z"/>
							</g>
						</g>
						<g id="cp2_6_">
							<path class="st8" d="M141.6,123.9h0.4v0.3h0.2v-0.3h0.4v0.3h0.3v-0.3h0.4v0.6c0,0.1-0.1,0.2-0.2,0.2h-1.3
								c-0.1,0-0.2-0.1-0.2-0.2L141.6,123.9L141.6,123.9L141.6,123.9z"/>
							<path d="M143,124.9h-1.3c-0.2,0-0.4-0.2-0.4-0.4v-0.8h2.1v0.8C143.5,124.7,143.3,124.9,143,124.9z"/>
						</g>
						<g>
							<g id="cp2_7_">
								<path class="st8" d="M144.7,123.9h0.4v0.3h0.3v-0.3h0.4v0.3h0.3v-0.3h0.4v0.6c0,0.1-0.1,0.2-0.2,0.2H145
									c-0.1,0-0.2-0.1-0.2-0.2L144.7,123.9L144.7,123.9L144.7,123.9z"/>
								<path d="M146.2,124.9h-1.3c-0.2,0-0.4-0.2-0.4-0.4v-0.8h2.1v0.8C146.6,124.7,146.4,124.9,146.2,124.9z"/>
							</g>
						</g>
						<g>
							<path d="M143.9,124.3c0-0.2,0.3-0.2,0.3,0v0.5h-0.3V124.3"/>
						</g>
						<g id="cp3_6_">
							<path d="M142.3,125c0-0.2,0.2-0.2,0.2,0v0.4h-0.2V125"/>
						</g>
						<g>
							<g id="cp3_7_">
								<path d="M145.4,125c0-0.2,0.2-0.2,0.2,0v0.4h-0.2V125"/>
							</g>
						</g>
					</g>
				</g>
				<g transform="matrix(-1,0,0,1,479.79195,0)">
					<g id="castle3_1_">
						<g id="castle_4_">
							<g>
								<path class="st8" d="M46.3,128.4c0-1.6-1.2-2-1.2-2s-1.3,0.4-1.3,2H46.3"/>
							</g>
							<g>
								<path class="st8" d="M47.3,126.4l0.2,1.9h-1.2c0-1.6-1.2-1.8-1.2-1.8s-1.2,0.3-1.2,1.8h-1.2l0.2-1.9H47.3L47.3,126.4
									L47.3,126.4z"/>
								<path d="M46,128.6v-0.2c0-1.2-0.8-1.5-0.9-1.6c-0.2,0.1-1,0.4-1,1.6v0.2h-1.8l0.3-2.4h4.9l0.3,2.4H46z M42.9,128.1h0.7
									c0.1-0.7,0.4-1.1,0.7-1.4l0,0h-1.2L42.9,128.1z M45.9,126.7c0.3,0.3,0.6,0.7,0.6,1.4h0.7l-0.1-1.4L45.9,126.7z"/>
							</g>
							<g>
								<path class="st8" d="M47.6,128.3h-5c-0.1,0-0.2,0.1-0.2,0.2c0,0.1,0.1,0.2,0.2,0.2h5c0.1,0,0.2-0.1,0.2-0.2
									C47.8,128.4,47.7,128.3,47.6,128.3z"/>
								<path d="M47.6,129h-5c-0.2,0-0.4-0.2-0.4-0.5s0.2-0.5,0.4-0.5h5c0.2,0,0.4,0.2,0.4,0.5C48,128.8,47.8,129,47.6,129z"/>
							</g>
							<g>
								<path class="st8" d="M45.7,128.3c0-1-0.7-1.3-0.7-1.3s-0.7,0.3-0.7,1.3H45.7"/>
								<path d="M46,128.6h-1.9v-0.3c0-1.1,0.8-1.5,0.9-1.5c0.2,0,0.4,0.1,0.5,0.2c0.2,0.2,0.5,0.6,0.5,1.3V128.6z M44.6,128.1h0.8
									c-0.1-0.4-0.3-0.6-0.4-0.7C44.9,127.4,44.7,127.7,44.6,128.1z"/>
							</g>
							<g>
								<path class="st8" d="M47.5,125.7h-4.8c-0.1,0-0.2,0.1-0.2,0.2s0.1,0.2,0.2,0.2h4.8c0.1,0,0.2-0.1,0.2-0.2
									C47.6,125.8,47.6,125.7,47.5,125.7z"/>
								<path d="M47.5,126.3h-4.8c-0.2,0-0.4-0.2-0.4-0.5s0.2-0.5,0.4-0.5h4.8c0.2,0,0.4,0.2,0.4,0.5S47.7,126.3,47.5,126.3z"/>
							</g>
							<g>
								<path class="st8" d="M47.4,126.1h-4.6c-0.1,0-0.2,0.1-0.2,0.2s0.1,0.2,0.2,0.2h4.6c0.1,0,0.2-0.1,0.2-0.2
									C47.5,126.2,47.5,126.1,47.4,126.1z"/>
								<path d="M47.4,126.7h-4.6c-0.2,0-0.4-0.2-0.4-0.5s0.2-0.5,0.4-0.5h4.6c0.2,0,0.4,0.2,0.4,0.5S47.6,126.7,47.4,126.7z"/>
							</g>
							<g>
								<path class="st8" d="M45.9,122.9h-0.4v0.3h-0.3v-0.3h-0.4v0.3h-0.3v-0.3h-0.4v0.6c0,0.1,0.1,0.2,0.2,0.2h1.3
									c0.1,0,0.2-0.1,0.2-0.2L45.9,122.9L45.9,122.9L45.9,122.9z"/>
								<path d="M45.7,123.9h-1.3c-0.2,0-0.4-0.2-0.4-0.4v-0.8h2.1v0.8C46.1,123.7,45.9,123.9,45.7,123.9z"/>
							</g>
							<g>
								<path class="st8" d="M44.5,123.7l-0.1,1.9h1.3l-0.1-1.9H44.5"/>
								<path d="M44.2,125.9l0.1-2.4h1.6l0.1,2.4H44.2z M44.7,124l-0.1,1.4h0.8l-0.1-1.4H44.7z"/>
							</g>
							<g id="cp1_8_">
								<path class="st8" d="M46.1,124.6v1h1.2v-1H46.1L46.1,124.6L46.1,124.6z"/>
								<path d="M47.5,125.9h-1.7l0.1-1.5h1.6V125.9z M46.3,125.4H47v-0.5h-0.7V125.4z"/>
							</g>
							<g>
								<g id="cp1_9_">
									<path class="st8" d="M42.9,124.6v1h1.2v-1H42.9L42.9,124.6L42.9,124.6z"/>
									<path d="M44.4,125.9h-1.7l0.1-1.5h1.6V125.9z M43.1,125.4h0.7v-0.5h-0.7V125.4z"/>
								</g>
							</g>
							<g id="cp2_8_">
								<path class="st8" d="M47.4,123.9H47v0.3h-0.2v-0.3h-0.4v0.3h-0.3v-0.3h-0.4v0.6c0,0.1,0.1,0.2,0.2,0.2h1.3
									c0.1,0,0.2-0.1,0.2-0.2L47.4,123.9L47.4,123.9L47.4,123.9z"/>
								<path d="M47.3,124.9H46c-0.2,0-0.4-0.2-0.4-0.4v-0.8h0.9l0,0h0.6l0,0h0.6v0.8C47.7,124.7,47.5,124.9,47.3,124.9z"/>
							</g>
							<g>
								<g id="cp2_9_">
									<path class="st8" d="M44.3,123.9h-0.4v0.3h-0.3v-0.3h-0.4v0.3h-0.3v-0.3h-0.4v0.6c0,0.1,0.1,0.2,0.2,0.2H44
										c0.1,0,0.2-0.1,0.2-0.2L44.3,123.9L44.3,123.9L44.3,123.9z"/>
									<path d="M44.1,124.9h-1.3c-0.2,0-0.4-0.2-0.4-0.4v-0.8h0.9l0,0h0.6l0,0h0.6v0.8C44.5,124.7,44.3,124.9,44.1,124.9z"/>
								</g>
							</g>
							<g>
								<path d="M45.2,124.3c0-0.2-0.3-0.2-0.3,0v0.5h0.3V124.3"/>
							</g>
							<g id="cp3_8_">
								<path d="M46.8,125c0-0.2-0.2-0.2-0.2,0v0.4h0.2V125"/>
							</g>
							<g>
								<g id="cp3_9_">
									<path d="M43.6,125c0-0.2-0.2-0.2-0.2,0v0.4h0.2V125"/>
								</g>
							</g>
						</g>
						<g>
							<g id="castle_5_">
								<g>
									<path class="st8" d="M46.3,142.2c0-1.6-1.2-2-1.2-2s-1.3,0.4-1.3,2H46.3"/>
								</g>
								<g>
									<path class="st8" d="M47.3,140.2l0.2,1.9h-1.2c0-1.6-1.2-1.8-1.2-1.8s-1.2,0.3-1.2,1.8h-1.2l0.2-1.9H47.3L47.3,140.2
										L47.3,140.2z"/>
									<path d="M46,142.3v-0.2c0-1.2-0.8-1.5-0.9-1.6c-0.2,0.1-1,0.4-1,1.6v0.2h-1.8l0.3-2.4h4.9l0.3,2.4H46z M42.9,141.8h0.7
										c0.1-0.7,0.4-1.1,0.7-1.4l0,0h-1.2L42.9,141.8z M45.9,140.4c0.3,0.3,0.6,0.7,0.6,1.4h0.7l-0.1-1.4H45.9z"/>
								</g>
								<g>
									<path class="st8" d="M47.6,142.1h-5c-0.1,0-0.2,0.1-0.2,0.2c0,0.1,0.1,0.2,0.2,0.2h5c0.1,0,0.2-0.1,0.2-0.2
										C47.8,142.2,47.7,142.1,47.6,142.1z"/>
									<path d="M47.6,142.8h-5c-0.2,0-0.4-0.2-0.4-0.5s0.2-0.5,0.4-0.5h5c0.2,0,0.4,0.2,0.4,0.5C48,142.6,47.8,142.8,47.6,142.8z"
										/>
								</g>
								<g>
									<path class="st8" d="M45.7,142.1c0-1-0.7-1.3-0.7-1.3s-0.7,0.3-0.7,1.3H45.7"/>
									<path d="M46,142.3h-1.9V142c0-1.1,0.8-1.5,0.9-1.5c0.2,0,0.4,0.1,0.5,0.2c0.2,0.2,0.5,0.6,0.5,1.3V142.3z M44.6,141.8h0.8
										c-0.1-0.4-0.3-0.6-0.4-0.7C44.9,141.2,44.7,141.4,44.6,141.8z"/>
								</g>
								<g>
									<path class="st8" d="M47.5,139.4h-4.8c-0.1,0-0.2,0.1-0.2,0.2c0,0.1,0.1,0.2,0.2,0.2h4.8c0.1,0,0.2-0.1,0.2-0.2
										C47.6,139.5,47.6,139.4,47.5,139.4z"/>
									<path d="M47.5,140.1h-4.8c-0.2,0-0.4-0.2-0.4-0.5s0.2-0.5,0.4-0.5h4.8c0.2,0,0.4,0.2,0.4,0.5
										C47.9,139.9,47.7,140.1,47.5,140.1z"/>
								</g>
								<g>
									<path class="st8" d="M47.4,139.8h-4.6c-0.1,0-0.2,0.1-0.2,0.2c0,0.1,0.1,0.2,0.2,0.2h4.6c0.1,0,0.2-0.1,0.2-0.2
										C47.5,139.9,47.5,139.8,47.4,139.8z"/>
									<path d="M47.4,140.5h-4.6c-0.2,0-0.4-0.2-0.4-0.5s0.2-0.5,0.4-0.5h4.6c0.2,0,0.4,0.2,0.4,0.5S47.6,140.5,47.4,140.5z"/>
								</g>
								<g>
									<path class="st8" d="M45.9,136.7h-0.4v0.3h-0.3v-0.3h-0.4v0.3h-0.3v-0.3h-0.4v0.6c0,0.1,0.1,0.2,0.2,0.2h1.3
										c0.1,0,0.2-0.1,0.2-0.2L45.9,136.7L45.9,136.7L45.9,136.7z"/>
									<path d="M45.7,137.7h-1.3c-0.2,0-0.4-0.2-0.4-0.4v-0.8h2.1v0.8C46.1,137.5,45.9,137.7,45.7,137.7z"/>
								</g>
								<g>
									<path class="st8" d="M44.5,137.5l-0.1,1.9h1.3l-0.1-1.9H44.5"/>
									<path d="M44.2,139.6l0.1-2.4h1.6l0.1,2.4H44.2z M44.7,137.7l-0.1,1.4h0.8l-0.1-1.4H44.7z"/>
								</g>
								<g id="cp1_10_">
									<path class="st8" d="M46.1,138.4v1h1.2v-1H46.1L46.1,138.4L46.1,138.4z"/>
									<path d="M47.5,139.6h-1.7l0.1-1.5h1.6V139.6z M46.3,139.1H47v-0.5h-0.7V139.1z"/>
								</g>
								<g>
									<g id="cp1_11_">
										<path class="st8" d="M42.9,138.4v1h1.2v-1H42.9L42.9,138.4L42.9,138.4z"/>
										<path d="M44.4,139.6h-1.7l0.1-1.5h1.6V139.6z M43.1,139.1h0.7v-0.5h-0.7V139.1z"/>
									</g>
								</g>
								<g id="cp2_10_">
									<path class="st8" d="M47.4,137.6H47v0.3h-0.2v-0.3h-0.4v0.3h-0.3v-0.3h-0.4v0.6c0,0.1,0.1,0.2,0.2,0.2h1.3
										c0.1,0,0.2-0.1,0.2-0.2L47.4,137.6L47.4,137.6L47.4,137.6z"/>
									<path d="M47.3,138.6H46c-0.2,0-0.4-0.2-0.4-0.4v-0.8h0.9l0,0h0.6l0,0h0.6v0.8C47.7,138.4,47.5,138.6,47.3,138.6z"/>
								</g>
								<g>
									<g id="cp2_11_">
										<path class="st8" d="M44.3,137.6h-0.4v0.3h-0.3v-0.3h-0.4v0.3h-0.3v-0.3h-0.4v0.6c0,0.1,0.1,0.2,0.2,0.2H44
											c0.1,0,0.2-0.1,0.2-0.2L44.3,137.6L44.3,137.6L44.3,137.6z"/>
										<path d="M44.1,138.6h-1.3c-0.2,0-0.4-0.2-0.4-0.4v-0.8h0.9l0,0h0.6l0,0h0.6v0.8C44.5,138.4,44.4,138.6,44.1,138.6z"/>
									</g>
								</g>
								<g>
									<path d="M45.2,138.1c0-0.2-0.3-0.2-0.3,0v0.5h0.3V138.1"/>
								</g>
								<g id="cp3_10_">
									<path d="M46.8,138.7c0-0.2-0.2-0.2-0.2,0v0.4h0.2V138.7"/>
								</g>
								<g>
									<g id="cp3_11_">
										<path d="M43.6,138.7c0-0.2-0.2-0.2-0.2,0v0.4h0.2V138.7"/>
									</g>
								</g>
							</g>
						</g>
						<g transform="matrix(0.70460892,-0.70959585,0.70959585,0.70460892,-35.341459,275.10898)">
							<g id="castle_6_">
								<g>
									<path class="st8" d="M57.5,116.6c1.1-1.2,0.6-2.3,0.6-2.3s-1.2-0.6-2.3,0.6L57.5,116.6"/>
								</g>
								<g>
									<path class="st8" d="M59.6,115.9l-1.2,1.5l-0.9-0.9c1.1-1.1,0.5-2.1,0.4-2.1c0,0-1.1-0.6-2.1,0.4l-0.9-0.9l1.5-1.2
										L59.6,115.9L59.6,115.9L59.6,115.9z"/>
									<path d="M58.5,117.7l-1.2-1.2l0.2-0.2c0.8-0.8,0.5-1.6,0.4-1.8c-0.2-0.1-1-0.4-1.8,0.4l-0.2,0.2l-1.2-1.2l1.9-1.5l3.4,3.5
										L58.5,117.7z M57.9,116.5l0.5,0.5l0.9-1.1l-0.8-0.8C58.5,115.4,58.4,115.9,57.9,116.5z M55.4,113.9l0.5,0.5
										c0.5-0.4,1.1-0.5,1.4-0.5l0,0l-0.9-0.9L55.4,113.9z"/>
								</g>
								<g>
									<path class="st8" d="M58.5,117.4l-3.5-3.6c-0.1-0.1-0.2-0.1-0.3,0c-0.1,0.1-0.1,0.2,0,0.3l3.5,3.6c0.1,0.1,0.2,0.1,0.3,0
										C58.6,117.6,58.6,117.5,58.5,117.4z"/>
									<path d="M58.3,118.1c-0.1,0-0.2,0-0.3-0.1l-3.5-3.6c-0.2-0.2-0.2-0.5,0-0.7c0.1-0.1,0.2-0.2,0.4-0.1c0.1,0,0.2,0,0.3,0.1
										l3.5,3.6c0.1,0.1,0.1,0.2,0.1,0.3s-0.1,0.3-0.2,0.4C58.6,118,58.5,118,58.3,118.1L58.3,118.1z M58.3,117.6L58.3,117.6
										L58.3,117.6z"/>
								</g>
								<g>
									<path class="st8" d="M57.2,116.1c0.7-0.7,0.4-1.4,0.4-1.4s-0.7-0.3-1.4,0.4L57.2,116.1"/>
									<path d="M57.2,116.5l-1.3-1.3l0.2-0.2c0.8-0.8,1.6-0.5,1.7-0.4s0.1,0.3,0.1,0.4c0,0.3-0.1,0.8-0.5,1.3L57.2,116.5z
										 M56.6,115.2l0.6,0.6c0.3-0.3,0.3-0.6,0.2-0.8C57.3,114.9,57,114.9,56.6,115.2z"/>
								</g>
								<g>
									<path class="st8" d="M60.3,115.5l-3.4-3.4c-0.1-0.1-0.2-0.1-0.3,0c-0.1,0.1-0.1,0.2,0,0.3l3.4,3.4c0.1,0.1,0.2,0.1,0.3,0
										C60.4,115.7,60.4,115.5,60.3,115.5z"/>
									<path d="M60.2,116.1L60.2,116.1c-0.1,0-0.2,0-0.3-0.1l-3.4-3.4c-0.1-0.1-0.1-0.2-0.1-0.3s0.1-0.2,0.1-0.3
										c0.1-0.1,0.2-0.1,0.3-0.1l0,0c0.1,0,0.2,0,0.3,0.1l3.4,3.4c0.1,0.1,0.1,0.2,0.1,0.3s-0.1,0.2-0.1,0.3
										C60.4,116,60.3,116.1,60.2,116.1z M60.2,115.6L60.2,115.6L60.2,115.6L60.2,115.6z"/>
								</g>
								<g>
									<path class="st8" d="M60,115.7l-3.2-3.3c-0.1-0.1-0.2-0.1-0.3,0c-0.1,0.1-0.1,0.2,0,0.3l3.2,3.3c0.1,0.1,0.2,0.1,0.3,0
										C60,115.9,60,115.8,60,115.7z"/>
									<path d="M59.8,116.3c-0.1,0-0.2,0-0.3-0.1l-3.2-3.3c-0.2-0.2-0.2-0.4,0-0.6c0.1-0.1,0.2-0.1,0.3-0.1c0.1,0,0.2,0,0.3,0.1
										l3.2,3.3c0.2,0.2,0.2,0.4,0,0.6C60,116.2,59.9,116.3,59.8,116.3z M59.8,115.9L59.8,115.9L59.8,115.9z"/>
								</g>
								<g>
									<path class="st8" d="M61.1,112.4l-0.3-0.3l-0.2,0.2l-0.2-0.2l0.2-0.2l-0.3-0.3l-0.2,0.2l-0.2-0.2l0.2-0.2l-0.3-0.3
										l-0.4,0.4c-0.1,0.1-0.1,0.2,0,0.2l0.9,0.9c0.1,0.1,0.2,0.1,0.2,0L61.1,112.4L61.1,112.4L61.1,112.4z"/>
									<path d="M60.6,113.1c-0.1,0-0.2,0-0.3-0.1l-0.9-0.9c-0.2-0.2-0.2-0.4,0-0.6l0.6-0.6l0.6,0.6l0,0l0.5,0.5l0,0l0.4,0.4
										l-0.6,0.6C60.8,113.1,60.7,113.1,60.6,113.1z"/>
								</g>
								<g>
									<path class="st8" d="M59.6,112l-1.4,1.3l0.9,0.9l1.3-1.4L59.6,112"/>
									<path d="M59.1,114.6l-1.3-1.3l1.8-1.6l1.1,1.1L59.1,114.6z M58.6,113.3l0.5,0.5l1-1l-0.4-0.4L58.6,113.3z"/>
								</g>
								<g id="cp1_12_">
									<path class="st8" d="M60.1,113.7l-0.8,0.7l0.9,0.9l0.7-0.8L60.1,113.7L60.1,113.7L60.1,113.7z"/>
									<path d="M60.2,115.7l-1.2-1.2l1.1-1l1.2,1.2L60.2,115.7z M59.7,114.4l0.5,0.5l0.4-0.4l-0.5-0.5L59.7,114.4z"/>
								</g>
								<g>
									<g id="cp1_13_">
										<path class="st8" d="M57.9,111.5l-0.8,0.7l0.9,0.9l0.7-0.8L57.9,111.5L57.9,111.5L57.9,111.5z"/>
										<path d="M58,113.4l-1.2-1.2l1.1-1l1.2,1.2L58,113.4z M57.5,112.2l0.5,0.5l0.4-0.4l-0.5-0.5L57.5,112.2z"/>
									</g>
								</g>
								<g id="cp2_12_">
									<path class="st8" d="M61.6,114.2l-0.3-0.3l-0.2,0.2l-0.2-0.2l0.2-0.2l-0.3-0.3l-0.2,0.2l-0.2-0.2l0.2-0.2l-0.3-0.3
										l-0.4,0.4c-0.1,0.1-0.1,0.2,0,0.2l0.9,0.9c0.1,0.1,0.2,0.1,0.2,0L61.6,114.2L61.6,114.2L61.6,114.2z"/>
									<path d="M61.1,114.9c-0.1,0-0.2,0-0.3-0.1l-0.9-0.9c-0.2-0.2-0.2-0.4,0-0.6l0.6-0.6l0.6,0.6l0,0l0.4,0.4l0,0l0.4,0.4
										l-0.6,0.6C61.3,114.9,61.2,114.9,61.1,114.9z"/>
								</g>
								<g>
									<g id="cp2_13_">
										<path class="st8" d="M59.4,112l-0.3-0.3l-0.2,0.2l-0.2-0.2l0.2-0.2l-0.3-0.3l-0.2,0.2l-0.2-0.2l0.2-0.2l-0.3-0.3l-0.4,0.4
											c-0.1,0.1-0.1,0.2,0,0.2l0.9,0.9c0.1,0.1,0.2,0.1,0.2,0L59.4,112L59.4,112L59.4,112z"/>
										<path d="M58.8,112.7L58.8,112.7c-0.1,0-0.2,0-0.3-0.1l-0.9-0.9c-0.2-0.2-0.2-0.4,0-0.6l0.6-0.6l0.6,0.6l0,0l0.4,0.4l0,0
											l0.4,0.4l-0.6,0.6C59,112.6,58.9,112.7,58.8,112.7z"/>
									</g>
								</g>
								<g>
									<path d="M59.7,112.9c0.1-0.1,0-0.3-0.2-0.2l-0.3,0.3l0.2,0.2L59.7,112.9"/>
								</g>
								<g id="cp3_12_">
									<path d="M60.3,114.5c0.1-0.1,0-0.3-0.2-0.2l-0.2,0.2l0.2,0.2L60.3,114.5"/>
								</g>
								<g>
									<g id="cp3_13_">
										<path d="M58.1,112.3c0.1-0.1,0-0.3-0.2-0.2l-0.2,0.2l0.2,0.2L58.1,112.3"/>
									</g>
								</g>
							</g>
						</g>
					</g>
				</g>
				<g id="quina">
					<g>
						<path class="st9" d="M141.8,142.7L141.8,142.7c0,0.7,0.3,1.3,0.7,1.7c0.4,0.4,1,0.7,1.6,0.7s1.2-0.3,1.6-0.7
							c0.4-0.4,0.7-1,0.7-1.7v-3.2H142L141.8,142.7"/>
					</g>
					<g>
						<circle class="st7" cx="142.8" cy="140.7" r="0.4"/>
					</g>
					<g>
						<circle class="st7" cx="145.3" cy="140.7" r="0.4"/>
					</g>
					<g>
						<circle class="st7" cx="144" cy="141.9" r="0.4"/>
					</g>
					<g>
						<circle class="st7" cx="142.8" cy="143.1" r="0.4"/>
					</g>
					<g>
						<circle class="st7" cx="145.3" cy="143.1" r="0.4"/>
					</g>
				</g>
				<g>
					<g id="quina_1_">
						<g>
							<path class="st9" d="M141.8,135L141.8,135c0,0.7,0.3,1.3,0.7,1.7c0.4,0.4,1,0.7,1.6,0.7s1.2-0.3,1.6-0.7
								c0.4-0.4,0.7-1,0.7-1.7v-3.2H142L141.8,135"/>
						</g>
						<g>
							<circle class="st7" cx="142.8" cy="133" r="0.4"/>
						</g>
						<g>
							<circle class="st7" cx="145.3" cy="133" r="0.4"/>
						</g>
						<g>
							<circle class="st7" cx="144" cy="134.2" r="0.4"/>
						</g>
						<g>
							<circle class="st7" cx="142.8" cy="135.4" r="0.4"/>
						</g>
						<g>
							<circle class="st7" cx="145.3" cy="135.4" r="0.4"/>
						</g>
					</g>
				</g>
				<g>
					<g id="quina_2_">
						<g>
							<path class="st9" d="M135.6,142.7L135.6,142.7c0,0.7,0.3,1.3,0.7,1.7s1,0.7,1.6,0.7s1.2-0.3,1.6-0.7c0.4-0.4,0.7-1,0.7-1.7
								v-3.2h-4.4L135.6,142.7"/>
						</g>
						<g>
							<circle class="st7" cx="136.6" cy="140.7" r="0.4"/>
						</g>
						<g>
							<circle class="st7" cx="139.1" cy="140.7" r="0.4"/>
						</g>
						<g>
							<circle class="st7" cx="137.9" cy="141.9" r="0.4"/>
						</g>
						<g>
							<circle class="st7" cx="136.6" cy="143.1" r="0.4"/>
						</g>
						<g>
							<circle class="st7" cx="139.1" cy="143.1" r="0.4"/>
						</g>
					</g>
				</g>
				<g>
					<g id="quina_3_">
						<g>
							<path class="st9" d="M147.9,142.7L147.9,142.7c0,0.7,0.3,1.3,0.7,1.7s1,0.7,1.6,0.7c0.6,0,1.2-0.3,1.6-0.7s0.7-1,0.7-1.7
								v-3.2h-4.4L147.9,142.7"/>
						</g>
						<g>
							<circle class="st7" cx="149" cy="140.7" r="0.4"/>
						</g>
						<g>
							<circle class="st7" cx="151.4" cy="140.7" r="0.4"/>
						</g>
						<g>
							<circle class="st7" cx="150.2" cy="141.9" r="0.4"/>
						</g>
						<g>
							<circle class="st7" cx="149" cy="143.1" r="0.4"/>
						</g>
						<g>
							<circle class="st7" cx="151.4" cy="143.1" r="0.4"/>
						</g>
					</g>
				</g>
				<g>
					<g id="quina_4_">
						<g>
							<path class="st9" d="M141.8,150.3L141.8,150.3c0,0.7,0.3,1.3,0.7,1.7c0.4,0.4,1,0.7,1.6,0.7s1.2-0.3,1.6-0.7
								c0.4-0.4,0.7-1,0.7-1.7v-3.2H142L141.8,150.3"/>
						</g>
						<g>
							<circle class="st7" cx="142.8" cy="148.3" r="0.4"/>
						</g>
						<g>
							<circle class="st7" cx="145.3" cy="148.3" r="0.4"/>
						</g>
						<g>
							<circle class="st7" cx="144" cy="149.5" r="0.4"/>
						</g>
						<g>
							<circle class="st7" cx="142.8" cy="150.8" r="0.4"/>
						</g>
						<g>
							<circle class="st7" cx="145.3" cy="150.8" r="0.4"/>
						</g>
					</g>
				</g>
			</g>
		</g>
	</g>
	<g>
		<g>
			<path d="M149.1,292.6c-2.1,0-3.6-1-6.9-3.6c-1.8-1.4-3.5-1.1-5.4-0.8l-0.7,0.1c-0.9,0.1-2.1,0.3-3-0.7c-0.1-0.2-0.4-0.2-0.8-0.2
				c-3.5,0.2-6.7-0.9-9.7-2.1c-1.2-0.4-2,0.4-3,1.5c-0.7,0.8-1.3,1.2-2.2,1.4c-1,0.2-1.9,0.5-2.9,0.7c-0.8,0.2-1.6,0.4-2.5,0.6
				c-1.8,0.4-3.1,0.8-4,2.1l-0.2,0.3l-0.4-0.1c-0.3-0.1-0.6-0.3-0.8-0.4c-0.4-0.3-0.7-0.5-1.3-0.3l-1.1,0.3l0.5-1
				c0.2-0.4,0.4-0.7,0.5-1.1c0.4-0.7,0.7-1.3,1-1.9c1.7-3.1,3.5-6.3,3.7-9.7c0.2-2.9,1.3-5.2,2.6-7.5l0.3-0.6
				c1.1-2.2,0.7-4.6,0.3-6.7c-0.6-2.9-0.5-5.5,0.4-8.1c0.2-0.5,0.3-1,0.2-1.3c-0.8-1.7-0.6-3.3-0.3-4.9c0.2-1.2,0.1-2.3-0.1-3.5
				c-0.1-0.5-0.2-1.1-0.2-1.6c0-0.3-0.2-0.5-0.7-0.7c-0.6-0.3-1.2-0.6-1.8-0.9l-1.2-0.6l0.3-0.5c4.8-8.3,5.7-16.7,2.6-25.8l-1-2.9
				l1.9,2.5c1.1,1.4,2.3,1.5,3.8,1.5c0.4,0,0.8,0,1.3,0c0-0.3,0-0.6-0.3-0.8c-1.7-0.9-1.7-2.4-1.6-3.5c0-0.9-0.1-1.8-0.4-2.5
				c-0.1,0-0.2,0-0.3,0.1c-1.7,1.3-3.5,1.6-5.5,1c-1-0.3-1.8,0.8-2.1,1.3c-0.5,0.7-0.9,1.3-2,1.2c0,0-0.2,0.1-0.3,0.2
				c-1.6,1.6-3.6,2-5.6,2.3c-1.2,0.2-2.4,0.4-3.5,0.9l-0.8,0.3l0.1-0.8c0.2-2.3,0.8-3.9,2-5c-1.4-1.4-2-3.1-2.5-4.7
				c-0.3-0.8-0.5-1.6-0.9-2.3c-0.2-0.4-0.2-0.9,0-1.3c0.2-0.4,0.7-0.6,1.2-0.6s1,0,1.5,0h1l0.1,0.3c0.8,2,1.2,2,2.3,1.5l0.3-0.1
				l0.8,1.1c0-0.2,0-0.3,0-0.6c0-0.4,0-0.9,0.3-1.5l0.2-0.4l0.4,0.2c0.6,0.3,1.1,0.3,1.5,0.1s0.8-0.7,1.1-1.6
				c-0.1-0.1-0.2-0.1-0.4-0.2c-0.3-0.1-0.7-0.2-1.1-0.5l-0.4-0.4l1.3-1.1c0.7-0.6,1.4-1.2,2.1-1.8c0.5-0.5,0.5-0.6,0.4-0.9
				c-1.1-2.3-1.6-4.7-2.1-7.2c0,0,0,0.1-0.1,0.1c0,0.1-0.1,0.2-0.2,0.3c-1.7,2.4-3.1,5.2-4.2,8.6c-0.9,2.7-1.3,2.9-4.1,2.8
				c-0.3,0-0.6,0-0.9-0.1c-0.8-0.1-1.5-0.1-2.2,0.1c-1.9,0.7-4.1,1.2-6.3-0.1c-0.3-0.2-0.6-0.1-1.1,0c-0.4,0.1-0.9,0.2-1.5,0
				l-0.2-0.1l-0.1-0.1c-0.4-0.5-0.3-1.1-0.2-1.4c0-0.2,0.1-0.3,0.1-0.5s0-0.4,0-0.6c0-0.1,0-0.4,0-0.5c-1.6-1.4-0.9-2.8-0.3-3.8
				c0.1-0.2,0.2-0.4,0.3-0.6c0.1-0.1,0.1-0.3,0.2-0.4c0.1-0.3,0.3-0.7,0.5-1c1.6-3,2.3-5.9,1.9-8.9c-0.3-2.7,0.8-4.9,1.8-7l0.3-0.6
				c1.1-2.2,1.4-4.4,1.1-6.7c-0.1-0.8-0.5-1.4-0.9-2.1c-0.3-0.5-0.6-1.1-0.9-1.7l-0.3-0.7l0.8,0.1c1.4,0.1,2.4-0.6,3.5-1.4
				c1-0.7,2-1.4,3.3-1.5c-0.5-1.9,0.1-3.5,1.9-5c0.4-0.3,0.8-0.8,1.2-1.2c0.3-0.3,0.6-0.7,1-1c1.5-1.4,2.3-2.3,1.3-4
				c-0.5-0.8-0.1-1.7,0.2-2.4c0.1-0.2,0.1-0.3,0.2-0.5l2-5.7c2.1-6.1,4.3-12.1,6.5-18.2c0.5-1.5,0.4-2.4-0.4-3.2
				c-1.2-1.3-1-2.8-0.7-3.9c2.1-7.4,4.2-14.7,5.9-21c0.3-1.1,0.8-2.1,2.3-2.5c0.6-0.2,2.7-3.3,2.7-3.9c-0.6-3.3-0.6-3.6,0.9-5.7
				c-0.2-0.5-0.5-0.9-1-1.3c-0.4,0.9-0.7,1.9-1,2.8c-0.2,0.6-0.4,1.2-0.6,1.8c-0.2,0.5-0.3,1-0.5,1.5c-0.1,1.1-0.5,2.4-1.1,3.6
				l-1.7,3.6l0.8-4.3c0.1-0.3,0.1-0.7,0.2-1l0.6-2.4c1.2-5.1,2.3-10.2,3.5-15.3c0.1-0.6,0.1-1.2,0-1.9c-0.9-4.7-2.4-9.4-3.7-14
				c-0.6-1.9-1.1-3.7-1.6-5.6c0-0.1-0.1-0.3-0.1-0.4c-0.2-0.5-0.4-1.1-0.2-1.7c0.7-2.6,0.1-5-0.6-7.6c-0.2-0.7-0.4-1.4-0.5-2.2
				c-0.5-2.4-1.2-4.4-2-6.3c-1.2-2.6-0.8-5.6-0.4-8.3c0.1-0.7,0.6-1.1,1.1-1.4l0.1-0.1c0.7-0.5,1.4-1,2.1-1.6l1.1-0.8
				c0.4-0.3,0.6-0.5,0.6-0.7c-0.3-2.2,1.5-2.9,2.5-3.2c1.1-0.4,1.5-0.8,1.3-1.7c-0.1-0.4,0-0.8,0.2-1.1c0.3-0.4,0.8-0.5,1.3-0.6
				c0.3-0.1,0.7-0.1,1.1-0.1c1.3-0.1,2.4-0.2,3-1.5c0.3-0.7,1-0.6,1.4-0.5c0.1,0,0.2,0,0.2,0h0.8c1.2,0,2.5,0.1,3.8,0.2
				c1.8,0.2,3.2-0.2,4.5-1.2c0.6-0.5,1.3-0.9,2-1.2c0.3-0.2,0.6-0.3,0.9-0.5l0.5-0.3l0.2,0.5c-0.1,0,0,0.1,0,0.2
				c0.1,0.2,0.2,0.3,0.2,0.6c0.1,0.9,0.4,1.9,1,2.3c0.4,0.3,1,0.3,1.7,0.1c0.3-0.1,0.7-0.1,1,0.1c0.3,0.2,0.5,0.5,0.6,0.9
				c0.2,0.8,0.4,1.8-0.5,2.6c-1.5,1.5-3,3-4.3,4.3c-0.4,0.4-0.6,1.1-0.5,1.9c0.1,0.7,0.5,1.3,1,1.5c1.2,0.6,1.2,1.6,1.2,2.3
				c0,0.2,0,0.4,0,0.5c0.1,0.5,0.2,0.7,0.3,0.9c0.1,0.1,0.4,0.1,0.7,0.1c0.5-0.1,1-0.1,1.4-0.1c0.2,0,0.4,0,0.6,0
				c0.6,0,2.1-0.1,2.5-0.7c0.7-1.2,1.9-1.9,2.9-2.6c0.7-0.5,1.4-0.9,2-1.5l0.4-0.4l0.4,0.4c0.3,0.4,0.4,0.8,0.5,1.3
				c0.1,0.3,0.2,0.7,0.3,1c1.3-1,2.9-1.5,4.4-1.9c0.4-0.1,0.8-0.2,1.2-0.4c1.3-0.4,2.4,0,3.4,0.3c0.6,0.2,1.2,0.4,1.9,0.4
				c0.3,0,0.6,0.1,0.7,0.3c0.3,0.4,0.2,1,0.1,1.4V24c-0.1,0.3-0.2,0.6-0.2,0.9c0.2,0,0.5,0,0.7,0c1.2,0.1,2.1,0.2,3.1-0.8
				c0.5-0.5,1.3-0.8,2-0.6c0.8,0.2,1.5,0.8,1.8,1.6c0.1,0.2,0.1,0.3,0.2,0.5c0,0.2,0.1,0.3,0.1,0.5c1.5-2,3.7-2.3,5.8-2.7
				c0.6-0.1,1.1-0.2,1.7-0.3c1.9-0.4,3-2,2.7-4c0-0.1,0-0.2,0-0.3c0-0.1,0-0.2,0-0.3c-0.4-1.3,0.6-1.9,0.9-2.1c1-0.6,1.6,0,2,0.4
				c2.2,2.1,3.2,2.1,5.6,0.2l0.4-0.3l0.3,0.4c0.8,1.1,1.9,1.1,3.2,1.1c0.5,0,1.1,0,1.6,0.1s0.7-0.2,1.1-0.9c0.6-1.1,1.3-1.3,1.7-1.2
				c0.4,0,1,0.3,1.5,1.4c0.6,1.4,1.3,1.7,2.7,1.4c0.5-0.1,1-0.2,1.4-0.2c1-0.1,1.9-0.2,2.4-1.1l0.2-0.4l0.4,0.2
				c1.3,0.6,1.8,1.6,1.3,3.1c-0.3,0.9-0.2,1.4,0.4,1.8c0.9,0.6,0.8,1.6,0.6,2.3c0,0.1,0,0.2-0.1,0.4c-0.1,0.6-0.2,1.3-0.3,1.9
				c-0.4,1.9-0.7,3.7-0.2,5.6c0.2,0.9,0.5,1.4,0.9,1.6c0.4,0.2,0.9,0.2,1.8,0c4-1.1,7.4-0.3,10.1,2.4c2.5,2.5,2.5,2.8,0.8,5.8
				l-0.1,0.2c-0.4,0.6-0.8,1.2-1.2,1.8c-1.1,1.5-2.1,2.9-2.3,4.7c0,0.2-0.2,0.8-0.7,0.8c-1.1,0.1-1.5,0.8-2.1,1.9
				c-0.3,0.6-0.6,1.3-1.2,1.7c-0.5,0.4-1,0.9-1.5,1.4c-0.8,0.8-1.7,1.6-2.6,2.3c-1.2,0.9-2.9,2.3-5.2,1.1c-0.5-0.3-0.9-0.2-1.5,0.7
				c-1.9,3-3.6,6.3-5,9.8c-0.4,1-1,2-2.7,2.1c-0.9,0.1-1.9,0.2-2.8,0.4c-0.3,0.1-0.6,0.1-0.9,0.2c0,0.2,0.1,0.4,0.3,0.6
				c0.1,0.1,0.2,0.2,0.2,0.4c0.3,0.6,0.8,1.3,1.2,1.9c0.9,1.3,1.8,2.7,2.1,4.3c0.1,0.2,0.2,0.3,0.6,0.6c0.2,0.1,0.5,0.2,0.7,0.4
				l0.3,0.2l-0.1,0.3c-0.5,1.6-0.8,3.3-1.1,5c-0.1,0.5-0.2,1.1-0.3,1.6c-0.2,1-0.1,1.8,0.4,2.5c1.1,1.9,1.2,3.8,0.1,5.8
				c-0.6,1.1-0.8,1.7,0.3,2.5c0.5,0.3,0.8,0.9,0.9,1.5c0.1,0.8-0.1,1.7-0.7,2.5l-0.2,0.3c-0.6,0.8-1.1,1.5-1.1,2.6
				c0.1,1.1,0.3,1.9,1.2,2.6s1.3,1.5,1.1,2.3c-0.1,0.8-0.8,1.5-1.9,1.8c-0.9,0.3-1.3,0.8-1.3,1.7c0,1.6-1.3,1.7-1.9,1.7
				c-0.4,0-0.7,0-1.1,0c-1-0.1-1.7-0.1-2.2,0.6c-1.3,1.7-1.5,3.8-1.5,5.6c0,0.6,0.6,1.3,1.4,1.3c1.2,0,1.7,0.7,2.2,1.3
				c0.1,0.1,0.2,0.2,0.3,0.4c2.5,2.7,2,5.7,1.4,8.6l-0.1,0.6c0.2,2.4-0.8,4.3-3.2,5.8c-0.3,0.2-0.5,0.5-0.6,1.1
				c-0.1,0.8-0.2,1.6-0.3,2.4c-0.1,0.6-0.2,1.2-0.2,1.8c-0.3,3-1.2,3.8-4.3,3.8c-1.5,0-2.9,0-4.4,0c-0.9,0-1.9,0-2.8,0
				c-0.1,0-0.2,0-0.4,0s-0.6,0-0.7,0c-1.9,1.4-3.9,1.1-5.8,0.7c-0.5-0.1-1.1-0.2-1.6-0.3c-0.7-0.1-1.4-0.2-2-0.3l-0.6-0.1
				c-0.1,0.1,0,0.3,0.1,0.6c0,0.1,0.1,0.2,0.1,0.3c0.7,2.5,2.4,4.2,4.2,6l0.8,0.8c1.2,1.2,2.3,2.4,3.9,3.1c0.5,0.2,0.5,0.9,0.5,1.2
				c0,0.4-0.1,0.8-0.2,1.2c-0.8,2.4-0.2,4.3,1.7,5.8c0.9,0.7,1.2,1.7,0.8,2.9c-0.4,1.3,0.1,2.6,1.4,3.3c0.2,0.1,0.4,0.2,0.5,0.3
				c0.4,0.2,0.7,0.4,1.1,0.6c1.4,0.6,1.8,1.5,1.5,2.9c-0.1,0.5,0,0.9,0.3,1.1c0.4,0.3,0.9,0.4,1.4,0.2c2.7-1.1,3.1-1,5.4,1.8
				c1,1.2,0.9,2.9-0.3,4.8l-0.5,0.8c-0.5,0.8-1,1.6-1.6,2.3c-0.7,0.9-0.9,1.7-0.6,2.6c0.2,0.7-0.1,1.6-0.8,2.5
				c-0.5,0.7-1.4,1.5-2.3,1.5c-0.7,0-1.2,0.2-1.8,0.9l-0.4,0.4c-0.5,0.6-1.1,1.3-1.8,1.7c-2,1.4-2.9,3.6-2.4,5.6
				c0.6,2-0.1,3.4-0.8,4.7c-0.2,0.5-0.5,0.9-0.7,1.4c-0.1,0.3-0.3,0.6-0.4,0.9c-0.5,0.9-0.8,1.7-0.3,2.8c0.3,0.5,0,1-0.4,1.7
				c0,0.1-0.1,0.1-0.1,0.2c2,0.5,2.9,2,3.7,3.4c0.2,0.4,0.4,0.8,0.7,1.1c0.3,0.4,0.5,0.8,0.8,1.2c1.6,2.3,3.2,4.6,3.8,7.4
				c0.1,0.4,0.3,0.7,0.5,0.8c0.4,0.2,0.9,0.1,1.3-0.1l5.7-2.1l-0.6,2.4c-0.3,1.1-0.5,2-0.7,3c-0.2,0.7-0.3,1.4-0.4,2.1
				c-0.1,0.5-0.2,1-0.3,1.6c-0.2,1-0.7,1.7-1.4,2s-1.6,0.2-2.4-0.4c-0.6-0.4-1.3-0.8-1.6-0.7s-0.7,1.1-0.8,1.5
				c-0.3,1-1.1,1.2-1.7,1.3c-1.1,0.1-2.1,0.3-3.2,0.3c-0.7,0-0.8,0.2-0.9,0.8c0,0.7-0.1,1.3-0.2,2c-0.1,0.5-0.1,1-0.2,1.5
				c-0.1,1.5-0.7,2.6-1.7,3.5c-3.2,2.5-5.4,5.9-6.9,10.6c-1,3.1-1.5,5.3-0.4,8.1c1.4,3.5,1.9,7.2,2.5,10.9c0.2,1.6,0.5,3.2,0.8,4.8
				c0,0.2,0,0.5,0,0.7c0,0.1,0,0.1,0,0.2v0.4h-0.4c-3,0.3-5.4,0.9-7.5,2.6c-1.2,1-2.5,1.9-3.7,2.8c-0.7,0.5-1.4,1-2.1,1.5
				c-1,0.7-2.1,1-3.1,1.3c-0.3,0.1-0.6,0.1-0.8,0.2l-0.3,0.1C152.2,292.1,150.5,292.6,149.1,292.6z M139.1,287
				c1.2,0,2.4,0.3,3.7,1.2c5.3,4,5.3,4,11.8,2.2l0.3-0.1c0.3-0.1,0.6-0.2,0.9-0.2c1-0.3,2-0.5,2.8-1.1c0.7-0.5,1.4-1,2.1-1.5
				c1.2-0.9,2.5-1.8,3.7-2.7c2.1-1.8,4.6-2.4,7.6-2.7c0-0.1,0-0.1,0-0.2c-0.3-1.6-0.6-3.3-0.8-4.9c-0.5-3.6-1.1-7.3-2.4-10.6
				c-1.3-3.4-0.5-6.1,0.4-8.8c1.5-4.9,3.8-8.4,7.2-11c0.8-0.6,1.2-1.5,1.3-2.8c0-0.5,0.1-1,0.2-1.5c0.1-0.6,0.1-1.3,0.2-1.9
				c0.1-1.2,0.7-1.8,1.9-1.8c1,0,2-0.1,3.1-0.3c0.5-0.1,0.8-0.2,0.9-0.6c0.4-1.1,0.8-1.9,1.4-2.1c0.7-0.2,1.4,0.1,2.4,0.8
				c0.5,0.4,1.1,0.5,1.5,0.3s0.7-0.6,0.8-1.3c0.1-0.5,0.2-1,0.3-1.5c0.1-0.7,0.3-1.4,0.4-2.2c0.2-1,0.5-2,0.7-3.1l0.1-0.6l-3.9,1.4
				c-0.8,0.3-1.5,0.3-2.1,0c-0.4-0.2-0.8-0.6-1-1.4c-0.6-2.7-2.2-4.9-3.7-7.1c-0.3-0.4-0.6-0.8-0.8-1.2c-0.3-0.4-0.5-0.8-0.7-1.2
				c-0.9-1.5-1.7-2.9-3.6-3.1l-0.7-0.1l0.3-0.6c0.1-0.3,0.3-0.6,0.4-0.9c0.1-0.3,0.4-0.7,0.4-0.8c-0.7-1.4-0.2-2.6,0.3-3.6
				c0.1-0.3,0.3-0.6,0.4-0.8c0.2-0.5,0.5-1.1,0.7-1.5c0.6-1.3,1.2-2.3,0.7-4c-0.7-2.4,0.4-5,2.7-6.7c0.6-0.4,1.1-1,1.6-1.6l0.4-0.5
				c0.7-0.8,1.5-1.2,2.5-1.2c0.4,0,1-0.4,1.5-1.1c0.5-0.6,0.7-1.3,0.6-1.6c-0.3-1.2-0.1-2.3,0.8-3.5c0.6-0.7,1.1-1.5,1.6-2.3
				l0.5-0.8c0.7-1,1.3-2.4,0.4-3.6c-2-2.4-2-2.4-4.2-1.5c-0.9,0.3-1.8,0.2-2.5-0.3c-0.6-0.5-0.8-1.3-0.6-2.1c0.2-0.9,0-1.3-0.9-1.7
				c-0.4-0.2-0.8-0.4-1.2-0.6c-0.2-0.1-0.3-0.2-0.5-0.3c-1.7-0.9-2.5-2.8-1.9-4.5c0.3-0.8,0.2-1.3-0.4-1.8c-2.3-1.7-3-4-2.1-6.9
				c0.1-0.3,0.2-0.6,0.2-1c0-0.1,0-0.2,0-0.3c-1.7-0.7-2.9-2-4.1-3.2l-0.8-0.8c-1.9-1.9-3.7-3.8-4.5-6.5c0-0.1,0-0.1-0.1-0.2
				c-0.2-0.4-0.4-1.1,0.3-1.8l0.2-0.2h0.2c0.3,0,0.6,0.1,0.9,0.1c0.6,0.1,1.3,0.2,2,0.3c0.6,0.1,1.2,0.2,1.7,0.3
				c1.8,0.3,3.4,0.6,5-0.5c0.4-0.3,0.9-0.3,1.4-0.2c0.1,0,0.2,0,0.3,0c0.9,0,1.9,0,2.8,0c1.5,0,2.9,0,4.4,0c2.5,0,3-0.4,3.3-2.9
				c0.1-0.6,0.2-1.2,0.2-1.8c0.1-0.8,0.2-1.6,0.3-2.3c0.1-0.8,0.4-1.5,1-1.8c2-1.3,2.9-2.8,2.7-4.9v-0.1l0.1-0.2l0.1-0.5
				c0.5-2.8,1-5.4-1.2-7.7c-0.1-0.1-0.2-0.3-0.3-0.4c-0.5-0.5-0.8-0.9-1.5-0.9c-1.3,0-2.4-1.1-2.3-2.3c0-2,0.2-4.3,1.7-6.2
				c0.9-1.2,2.1-1.1,3.1-1c0.3,0,0.6,0,0.9,0c0.8-0.1,0.9-0.2,0.9-0.7c0-1.3,0.7-2.2,2-2.6c0.7-0.2,1.1-0.6,1.2-1
				c0.1-0.4-0.2-0.9-0.7-1.4c-1.2-0.9-1.5-2-1.6-3.3c-0.1-1.4,0.6-2.4,1.2-3.2l0.2-0.3c0.4-0.6,0.6-1.2,0.5-1.7
				c0-0.2-0.2-0.6-0.5-0.8c-1.9-1.3-1.2-2.8-0.6-3.8c0.9-1.7,0.9-3.3,0-4.8c-0.6-0.9-0.7-1.9-0.5-3.2c0.1-0.5,0.2-1,0.3-1.6
				c0.3-1.6,0.5-3.2,1-4.8c-0.1,0-0.2-0.1-0.2-0.1c-0.4-0.2-1-0.5-1.1-1.2c-0.3-1.5-1.2-2.7-2-4c-0.4-0.6-0.8-1.3-1.2-1.9
				c-0.1-0.1-0.1-0.2-0.2-0.3c-0.3-0.4-0.7-0.9-0.4-1.8l0.1-0.3h0.3c0.4-0.1,0.8-0.1,1.2-0.2c1-0.2,1.9-0.4,2.9-0.4
				c0.9-0.1,1.4-0.4,1.9-1.4c1.5-3.6,3.2-6.9,5.1-10c0.3-0.5,1.2-1.9,2.8-1c1.6,0.8,2.8,0,4.2-1c0.9-0.7,1.7-1.5,2.6-2.3
				c0.5-0.5,1-0.9,1.5-1.4c0.4-0.4,0.7-0.9,1-1.4c0.5-1,1.1-2.2,2.7-2.4c0.3-2.1,1.4-3.7,2.5-5.2c0.4-0.6,0.8-1.1,1.2-1.7l0.1-0.2
				c1.5-2.5,1.5-2.5-0.6-4.6c-2.4-2.4-5.4-3.1-9.1-2.1c-1.2,0.3-2,0.3-2.6-0.1c-0.6-0.4-1-1.1-1.3-2.2c-0.5-2.1-0.2-4.1,0.2-6.1
				c0.1-0.6,0.2-1.2,0.3-1.9c0-0.1,0-0.3,0.1-0.4c0.1-0.7,0.1-1-0.2-1.3c-1.2-0.8-1.1-2-0.8-2.9c0.2-0.9,0.1-1.3-0.4-1.7
				c-0.8,1-1.9,1.1-2.9,1.2c-0.4,0-0.9,0.1-1.3,0.2c-1.9,0.5-3-0.1-3.8-1.9c-0.2-0.5-0.4-0.7-0.7-0.8c-0.2,0-0.5,0.2-0.8,0.8
				c-0.4,0.7-0.9,1.6-2.2,1.4c-0.5-0.1-0.9-0.1-1.4-0.1c-1.3,0-2.6,0-3.7-1.2c-2.6,1.9-4.1,1.7-6.5-0.6c-0.5-0.5-0.6-0.5-0.9-0.3
				c-0.6,0.3-0.6,0.6-0.5,1c0.1,0.2,0.1,0.3,0.1,0.5c0,0.1,0,0.1,0,0.2c0.4,2.5-1,4.6-3.4,5.1c-0.6,0.1-1.1,0.2-1.7,0.3
				c-2.1,0.3-4.1,0.7-5.4,2.6l-0.1,0.2l-0.5,0.1l-0.2-0.1c-0.6-0.4-0.7-0.9-0.8-1.3c0-0.1-0.1-0.3-0.1-0.4c-0.2-0.5-0.6-0.9-1.1-1
				c-0.4-0.1-0.8,0-1.1,0.3c-1.3,1.2-2.6,1.1-3.9,1c-0.4,0-0.7-0.1-1.1,0h-0.4l-0.1-0.4c-0.2-0.8,0-1.4,0.1-1.9v-0.2
				c0-0.2,0.1-0.3,0.1-0.4c-0.8,0-1.5-0.2-2.1-0.5c-0.9-0.3-1.7-0.6-2.7-0.3c-0.4,0.1-0.8,0.3-1.2,0.4c-1.6,0.5-3.2,1-4.5,2.1
				l-1.1,0.2l-0.3-0.3c-0.6-0.6-0.7-1.2-0.9-1.8c0-0.1-0.1-0.3-0.1-0.4c-0.5,0.5-1.1,0.8-1.7,1.2c-1,0.6-2,1.2-2.6,2.3
				c-0.6,0.9-2,1.1-3.3,1.2c-0.2,0-0.4,0-0.7,0c-0.5,0-0.9,0-1.3,0.1c-0.6,0.1-1.1,0-1.4-0.3c-0.5-0.4-0.6-1-0.7-1.5
				c0-0.2,0-0.4,0-0.6c0-0.7,0-1.1-0.6-1.4c-0.8-0.4-1.4-1.2-1.5-2.2c-0.4-1.3-0.1-2.3,0.6-3c1.3-1.3,2.8-2.8,4.3-4.3
				c0.5-0.5,0.4-0.9,0.2-1.7c0-0.1-0.1-0.2-0.1-0.2s-0.1,0-0.2,0c-1.1,0.3-1.9,0.2-2.5-0.2c-0.9-0.6-1.2-1.9-1.4-3l0,0
				c-0.2,0.1-0.3,0.2-0.5,0.3c-0.7,0.4-1.3,0.7-1.8,1.2c-1.5,1.2-3.2,1.6-5.2,1.4c-1.2-0.1-2.5-0.2-3.7-0.2h-0.8c-0.1,0-0.2,0-0.3,0
				c-0.1,0-0.3,0-0.4,0c-0.9,1.8-2.5,1.9-3.9,2c-0.3,0-0.7,0-1,0.1c-0.4,0.1-0.6,0.1-0.7,0.2c0,0.1,0,0.2,0,0.3
				c0.3,1.8-0.9,2.4-2,2.8c-1.4,0.5-2,1-1.9,2.2c0.1,0.8-0.6,1.3-1,1.6l-1.1,0.7c-0.7,0.5-1.4,1.1-2.2,1.6l-0.1,0.1
				c-0.4,0.3-0.6,0.4-0.6,0.7c-0.3,2.5-0.7,5.4,0.4,7.8c0.8,1.9,1.5,4,2,6.5c0.2,0.7,0.3,1.4,0.5,2.1c0.7,2.6,1.4,5.2,0.6,8.1
				c-0.1,0.3,0,0.7,0.2,1.1c0.1,0.2,0.1,0.3,0.1,0.5c0.5,1.9,1.1,3.7,1.6,5.6c1.4,4.6,2.8,9.3,3.7,14.1c0.2,0.9,0.2,1.6,0,2.4
				c-0.9,3.8-1.8,7.6-2.6,11.4c0.3-1,0.6-2,1.2-3l0.3-0.6l0.5,0.4c0.8,0.8,1.4,1.5,1.8,2.4l0.1,0.3l-0.2,0.2
				c-1.5,2.1-1.5,2.1-0.9,5.1c0,0.1,0,0.2,0,0.2c0,1.1-2.4,4.7-3.5,5c-0.9,0.2-1.2,0.6-1.6,1.8c-1.7,6.2-3.7,13.6-5.9,21
				c-0.4,1.4-0.3,2.2,0.4,3c1.3,1.4,1.1,3,0.6,4.3c-2.2,6-4.3,12.1-6.5,18.2l-2,5.7c-0.1,0.2-0.1,0.3-0.2,0.5
				c-0.3,0.7-0.4,1.1-0.2,1.5c1.4,2.5-0.2,4.1-1.5,5.3c-0.3,0.3-0.6,0.6-0.9,0.9c-0.4,0.5-0.8,0.9-1.3,1.3c-1.6,1.3-2.1,2.6-1.5,4.3
				c0.1,0.2,0,0.5-0.2,0.7l-0.1,0.2l-0.2-0.1c-1.3,0-2.2,0.7-3.3,1.4c-1,0.7-2,1.4-3.4,1.5c0.2,0.3,0.3,0.6,0.5,0.9
				c0.4,0.7,0.9,1.5,1,2.4c0.3,2.5,0,4.8-1.2,7.2l-0.3,0.7c-1,2.1-2,4.1-1.7,6.5c0.4,3.2-0.2,6.3-2,9.5c-0.2,0.3-0.3,0.6-0.4,0.9
				c-0.1,0.2-0.1,0.3-0.2,0.5s-0.2,0.5-0.3,0.7c-0.6,1.1-0.8,1.8,0.1,2.6c0.4,0.3,0.3,0.8,0.3,1.3c0,0.2,0,0.3,0,0.5
				c0,0.3,0,0.5-0.1,0.7c0,0.3-0.1,0.4,0,0.5c0.2,0,0.5,0,0.8-0.1c0.5-0.1,1.1-0.2,1.8,0.2c1.8,1.1,3.7,0.7,5.4,0
				c0.9-0.3,1.8-0.3,2.6-0.2c0.3,0,0.5,0.1,0.8,0.1c2.4,0.1,2.4,0.1,3.1-2.1c1.1-3.4,2.5-6.3,4.3-8.8c0,0,0.1-0.1,0.1-0.2
				c0.2-0.3,0.5-0.9,1.4-0.7l0.3,0.1l0.1,0.3c0.5,2.7,1.1,5.1,2.2,7.4c0.5,1.1-0.3,1.8-0.7,2.1c-0.7,0.6-1.4,1.2-2.1,1.8l-0.3,0.3
				h0.1c0.4,0.1,0.9,0.2,1.2,0.8l0.1,0.2l-0.1,0.2c-0.4,1.3-0.9,2.1-1.7,2.4c-0.5,0.2-1.1,0.3-1.8,0.1c0,0.2,0,0.3,0,0.5
				c0,0.6,0,1.2-0.6,1.9l-0.4,0.4l-1.2-1.6c-1.6,0.5-2.4-0.2-3.1-1.9H97c-0.5,0-1,0-1.5,0c-0.2,0-0.3,0.1-0.4,0.1c0,0.1,0,0.2,0,0.3
				c0.4,0.8,0.7,1.6,0.9,2.4c0.6,1.8,1.1,3.4,2.7,4.7l0.5,0.4l-0.5,0.4c-1.2,0.9-1.8,2.1-2,3.9c1-0.3,2-0.5,2.9-0.7
				c1.9-0.3,3.7-0.7,5.1-2c0.1-0.1,0.6-0.5,1.1-0.5s0.7-0.1,1.1-0.7c0.9-1.4,2.1-2.1,3.2-1.7c1.7,0.5,3.2,0.3,4.7-0.8
				c0.2-0.1,0.7-0.6,1.5-0.1l0.1,0.1l0.1,0.1c0.4,0.9,0.7,2,0.6,3.2c0,1.2,0,2,1.1,2.6c0.8,0.4,1.1,1.3,0.7,2.4l-0.1,0.4l-0.4-0.1
				c-0.5-0.1-1-0.1-1.5-0.1c-1,0-2.1,0-3.2-0.6c2.4,8.5,1.4,16.5-3,24.4l0.5-0.2c0.6,0.3,1.2,0.6,1.8,0.9c0.4,0.2,1.1,0.6,1.2,1.5
				c0,0.5,0.1,1,0.2,1.5c0.2,1.2,0.4,2.5,0.1,3.9c-0.3,1.5-0.5,2.9,0.2,4.3c0.3,0.7,0.1,1.5-0.1,2.1c-0.8,2.4-1,4.8-0.4,7.5
				c0.5,2.3,0.9,4.9-0.4,7.4l-0.3,0.6c-1.2,2.2-2.3,4.4-2.5,7.1c-0.2,3.6-2,6.9-3.8,10.1c-0.3,0.6-0.6,1.2-1,1.9
				c-0.1,0.1-0.1,0.2-0.2,0.3c0.4,0.1,0.8,0.3,1.1,0.5c0.1,0.1,0.2,0.1,0.3,0.2c1.2-1.4,2.9-1.8,4.3-2.2c0.8-0.2,1.6-0.4,2.4-0.6
				c1-0.2,1.9-0.5,2.9-0.7c0.6-0.1,1.1-0.4,1.7-1.1c0.9-1,2.2-2.4,4.1-1.7c2.9,1.1,6,2.2,9.3,2c0.3,0,1-0.1,1.6,0.5
				c0.5,0.6,1.1,0.6,2.2,0.4l0.7-0.1C137.4,287.1,138.3,287,139.1,287z M95.9,161.4L95.9,161.4L95.9,161.4z M194.9,132.8
				L194.9,132.8L194.9,132.8z"/>
		</g>
	</g>
</g>
</svg>
