<?xml version="1.0" encoding="utf-8"?>
<!-- Generator: Adobe Illustrator 24.3.0, SVG Export Plug-In . SVG Version: 6.00 Build 0)  -->
<svg version="1.1" id="Layer_1" xmlns="http://www.w3.org/2000/svg" xmlns:xlink="http://www.w3.org/1999/xlink" x="0px" y="0px"
	 viewBox="0 0 761.5 438.7" style="enable-background:new 0 0 761.5 438.7;" xml:space="preserve">
<style type="text/css">
	.st0{clip-path:url(#SVGID_2_);fill:#FFFFFF;}
	.st1{clip-path:url(#SVGID_2_);fill:#EF1620;}
	.st2{clip-path:url(#SVGID_2_);fill:#034DA3;}
	.st3{clip-path:url(#SVGID_2_);fill:#EF1721;}
	.st4{clip-path:url(#SVGID_2_);fill:#044DA3;}
	.st5{clip-path:url(#SVGID_2_);fill:#FFFDFD;}
</style>
<g>
	<defs>
		<path id="SVGID_1_" d="M482.2,247.9c-0.2,0.7-0.5,1.1-0.4,1.4c1.5,7.4-3.5,11.7-7.9,16.1c-1.9,1.9-3.2,3.9-3.2,6.5
			c0,7.5-3.9,13.2-8.3,18.8c-1.6,2.1-3.8,3.7-5.2,6c-1.3,2.1-3.4,2.3-5.5,0.9c-2.2-1.5-4-1.7-5.4,1.2c-1.3,2.7-3.9,2.9-6.5,2.9
			c-2.5,0-3.7,0.9-4.7,3.6c-1.5,4.1-4.8,7.4-7.7,10.7c-1,1.2-2.5,0.3-3.7-0.1c-3.5-1.1-6.5-0.3-8.8,2.7c-1.8,2.3-4.1,3.6-6.9,4.7
			c-0.1-4-1-7.2-5.4-7.8c-3.5-0.5-6.6,1.6-10.4,2.4c1.6-4,1.7-7.3-2.8-8.7c-1.6-0.5-3.1-0.2-4.7,0.2c-3.1,0.7-5,0-5.5-3.6
			c-0.5-3.9-3.5-5.4-7-3.4c-4.4,2.6-8.7,5.5-12.4,9.2c-1.5,1.5-2,3.3-2,5.4c-0.1,3.7-0.8,7.4-2.2,10.8c-0.5,1.2-1.1,2.6-2.7,2.3
			c-6.4-1.1-12.6,1.4-18.9,1.1c-1.3-0.1-2.4,0.7-3.3,1.9c-3,3.8-8.5,5-12.8,2.8c-4.6-2.4-9-3.4-13.5,0.5c-3.8,3.2-4.1-2-6.4-3.2
			c-5.2,3.3-11.5,3.4-17.5,4.3c-5.2,0.7-6.5,1.3-7.2,6.4c-0.6,5-4.3,6.6-8.4,8.3c1.9,3.7,1.2,7.2,0.2,10.8c-1.5,5.7-0.8,7.1,4,10.7
			c2.3,1.7,4.8,3.2,6.8,7.1c-9.6-2.4-14.2,3.8-19.9,8.3c-2.9,2.3-6.6,2.4-10.3,2.2c-3.7-0.2-7.4-0.5-11,0.9
			c-0.2,0.1-0.5,0.2-0.8,0.1c-9.1-2.5-17.1,2.2-25.5,4.1c-6,1.3-12.2,0.2-18-1.8c-5.2-1.7-10.3-2-15.6-1.2
			c-8.1,1.3-16.3,1.9-24.5,1.8c-6,0-11.5-1.6-16.2-5.4c-3.3-2.7-6.6-5.4-9.9-7.9c-1.4-1.1-2.7-2.7-4.7-0.5c-1.3,1.4-2.4,0.1-3.1-1
			c-1.1-1.6-2.1-3.4-3.1-5.1c-1.2-1.9-2.7-3.5-5.1-4.1c-3-0.7-4.9-3-6.6-5.4c-1.9-2.9-3.7-5.8-5.5-8.7c-3-4.8-6.8-8.4-13-8.4
			c-2.8,0-5.1-1.4-6.7-3.7c-1.3-2-2.9-2.8-4.9-1.4c-5.1,3.7-9.5-1.3-14.3-1.2c-0.9,0-1.2-1.3-1.2-2.3c-0.1-2.1-0.4-4.2-0.2-6.3
			c0.5-7.2-1.5-10.2-7.9-13.7c-5.5-3-8.4-8.1-8.2-14.4c0.1-4.9-0.5-9.1-5.4-11.7c-1.7-0.9-1.9-3-2.1-4.9c-0.2-3.4-1.6-5.9-4.9-7.5
			c-3.5-1.7-3.6-2.9-0.8-5.6c1.3-1.2,1.7-2.1,1.4-4c-1.4-8.4,1.9-15.2,8.2-20.5c2.8-2.4,4-4.7,2.2-8.2c-2-4.1-1.2-8,0.1-12.2
			c2.4-8.1,6.3-15.4,9.9-22.9c1.2-2.6,2.8-4.8,5.5-6c2.4-1.1,3.5-3,4-5.5c1.5-7.6,7.8-11.5,14.1-13.4c1.2-0.3,2.1,0.3,2.8,1.1
			c2,1.9,4.4,3,6.9,3.8c3.4,1,6.3,2.4,8.8,5c2.1,2.2,4.3,1.9,6.6-0.2c5.4-5,9.9-4.3,13.3,2.5c2.6-3.2,6.2-3.6,9.9-3.5
			c0.7,0,1.8-0.3,2.1-0.8c1.6-2.7,4.3-2.8,7-2.9c3.6-0.2,6.4-1.3,7.8-4.9c0.5-1.3,1.7-2.4,2.4-3.6c2.3-3.7,5-5.8,10-5.2
			c5.7,0.7,6,0,7.1-5.8c0.4-2.2,0.9-4.4,1.6-6.5c1.5-4.6,4.4-7.3,9.6-7.4c2.6-0.1,5.2-0.7,7.8-1.3c3.9-1,6.4-3.7,7.4-7.6
			c1-4,2.7-7.8,1.7-12.3c-0.8-3.5,2.8-6.6,3.4-10.2c0.3-1.5,1.4-2.9,1.3-4.5c-0.8-9.9,5.4-14.3,13.6-17.1c4.2-1.5,8.6-2.6,12.6-4.8
			c3.9-2.1,6.9-4.8,7.9-9.4c0.1-0.5,0.2-1.3,0.5-1.4c5.5-2.5,6.9-8.4,10.7-12.3c2-2,3.3-4,2.9-7c-0.2-1.6-0.1-3.4,1.9-3.9
			c1.9-0.5,3.9-1.3,5.5,0.7c1.6,2.1,3.7,2.1,5.7,1c3.8-2.1,7.1-1.3,10.4,1c1.7,1.2,2.8,1.2,4.8-0.3c5.5-4.1,12-5.3,18.8-4.2
			c3.1,0.5,4.8,2.3,4.9,5.7c0,3.4-1.5,7.1,2.2,9.8c0.8,0.6-0.3,2.2-0.6,3.3c-0.6,2.1,0,3.6,2,4.6c1.9,0.9,3.8,0.9,4.9-0.9
			c2.4-3.9,5.8-3.2,9.1-2.1c2.2,0.7,4.3,1.2,6.6,1c3-0.3,6.3-0.4,4.4-5.1c-0.4-1.1,0.1-2.3,1.2-2.7c4.6-1.7,4.6-5.8,4.9-9.5
			c0.5-6.3,1.4-7.1,7.8-7.2c1.8,0,3.7,0,5.5-0.3c1.4-0.2,3.1-0.9,3.4-2.4c1-6.1,7.2-7.7,10.3-13.5c1.2,4.8,3.9,6.6,7.3,7.6
			c1.2,0.4,1.4,1.9,1.3,3.1c-0.3,8.9,6.4,14.7,8.9,22c2.3,0.2,2.5-1.8,4-1.8c2.4,1.1,2.6,2.7,1.5,5.1c-2.2,4.9-1.4,6.2,3.9,6.4
			c3.3,0.1,6.5,0.3,9.6-1.7c2.3-1.5,3.5-0.4,4.1,2.2c1.3,6,2.2,12,2.8,18.2c0.5,4.4-0.9,6.6-3,9.4c-2.7,3.6-1.9,6.7,2.2,8.6
			c4.7,2.2,9.8,1,12.9-3c3.2-4.1,11.5-3.5,13.3,1.3c1.6,4.3,6,3.2,8.5,5.8c2.1-2.4,2.2-5.1,2.3-7.7c0.4-8.9,4.3-15.8,11.1-21.5
			c3.7-3.1,7.9-3.4,12.3-2.5c4.5,0.8,5.1,0.3,5-4.3c0-0.4,0-0.8,0-1.2c0-2.5-0.8-5.3,2.4-6.4c2.8-1,5.4-0.6,7.2,2.3
			c0.4,0.6,1.2,0.9,1.8,1.3c4.9-4.6,7.7-4.6,12.7,0c2.5,2.3,5.8,2.4,8.6-0.1c2.3-2,4.2-5.2,7.8-1.5c0.9,1,2.3-0.1,3.1-1
			c1.7-1.7,4-2.2,6.2-2.1c2.7,0.1,5.2,0.5,3.7,4.4c-0.7,2-0.3,4,2.5,4.3c2,0.2,2.9,1.7,3.6,3.3c1,2.5,2.2,4,4.8,1.6
			c1.1-1,2.5-0.8,3.1,0.4c1.6,3.1,4.9,4.4,7.2,6.7c2.9,2.9,5.5,2.1,6.7-1.7c1.7-5.7,5.9-9,11.8-9c3.1,0,3.3-1.5,2.8-3.8
			c-0.1-0.5-0.4-1-0.7-1.4c-1-1.9-4.1-3.4-1.9-5.9c1.9-2.1,8.4-0.8,10.3,1.6c0.8,1,1.6,2.2,2.7,2.9c2.2,1.5,3.8,1.3,4.5-1.8
			c1.6-6.8,8.8-10.7,15-7.5c3.9,2.1,8.7,1.6,12.1,5.5c1.4,1.6,4.6,0.1,6.7-0.9c2.1-0.9,3.9-1.8,5.1,1.5c1.3-2.7,3.3-3.5,5.7-3.6
			c1.4-0.1,2.9-0.5,4.1-1.3c2.3-1.5,3.8-1.3,5,1.3c0.9,2,2.8,2.7,4.8,3c5.8,0.9,9.7,4.6,10.8,10.3c0.2,0.8,0.1,1.6,1,2
			c1.4,0.1,1.6-1,2.1-1.9c1.9-3.7,6.8-4.5,8.9-1c2,3.3,4.4,3.6,7.6,3.5c5.2-0.1,5.4,0.2,6,5.4c0.3,2.8,1.3,5.2,4,6.4
			c2.7,1.3,3.5,3.5,3.3,6.2c-0.5,4.9,2,8.3,6.4,9.1c5.8,1.1,10.6,5.3,16.7,4.6c1.8,8.4,4.9,10.3,13.1,8c3.4-1,5.4-0.8,7.8,2.5
			c3.7,5.1,9,8.7,15.9,7.9c3.8-0.4,4.9,1.4,4.8,4.8c-0.2,5.3-0.8,9.7-6.9,12.3c-3.7,1.6-7.2,5.6-7.5,10.8c-0.2,2.2-1.5,4-2.7,5.7
			c-3.6,5.1-4.8,10.8-4.6,16.9c0,2.2-0.3,4.1-2.5,5.4c-2.6,1.5-2.7,3.9-1.6,6.6c2.4,5.7,1.4,10.2-3.3,14c-3.8,3.1-8.1,5.6-9.9,10.5
			c-0.2,0.4-0.7,0.8-1.2,1c-8.2,2.6-8.9,9.9-9.7,16.6c-0.9,7.5-0.5,15.1-0.8,22.6c-0.2,5.9-3,8-8.8,6.9c-1.5-0.3-3-0.9-4.6-1.4
			c-2.3-0.7-4.2-0.6-6.6,0.9c-3.6,2.3-8.3,2.1-12.5,2.3c-2.6,0.2-5.4-0.5-5.6,3.6c-0.1,1.6-1.6,2-3,1.8c-3.1-0.4-6.3-0.9-9.4-1.4
			c-0.7-0.1-1.7-0.4-2.1-1c-4.4-6.6-11.7-11.3-12.5-20.2c-0.1-1.3-0.5-2.6-0.7-3.9c-0.6-3.5-2.5-5.6-6.2-5.2
			c-2.7,0.3-4.2-0.7-4.8-3.4c-0.7-3.1-2.7-5.4-5-7.5c-3.8-3.6-5.5-3.7-9.3,0c-1.5,1.5-3.2,1.3-4.8,1.2c-3.3-0.2-5.9,0.6-8,3.2
			c-1.7,2.1-3.6,2.5-6.6,1.9c-5.6-1.1-11.1,0.8-15.7,4c-2.6,1.8-4.5,1.8-6.7,0.1c-1.6-1.2-3.1-2.5-4.7-3.6c-1.5-1-3.1-1.7-4.7-0.3
			c-2.9,2.6-5,0.9-7.2-1.2c-2.3-2.2-3.9-5.5-8.1-2.2c-1.6,1.2-3.6-1.4-4.5-3c-1.4-2.4-3.2-2.8-5.6-2.6c-9,0.8-17.7,1.7-25.5,7.3
			C490.4,248.6,486.3,249.8,482.2,247.9z"/>
	</defs>
	<clipPath id="SVGID_2_">
		<use xlink:href="#SVGID_1_"  style="overflow:visible;"/>
	</clipPath>
	<rect x="38.5" y="30.3" class="st0" width="783.3" height="127.1"/>
	<path class="st1" d="M704.1,283c0,42.5,0,84.9,0,127.4c-190.8,0-381.7,0-572.5,0c0-42.5,0-84.9,0-127.4c0.4,0,0.9,0,1.3,0
		c38.1,0,76.2,0,114.3,0c0.7,0,1.3-0.1,2-0.1c0.3,0.3,0.7,0.6,1,0.9c14.8,16,32.8,27.5,52.3,36.8c0.8,0.4,1.5,0.5,2.3,0
		c1.5-0.8,3.1-1.5,4.6-2.3c14.5-7.3,28.1-15.9,40.1-26.9c2.9-2.7,5.7-5.6,8.6-8.5c1,0,2.1,0.1,3.1,0.1c113.4,0,226.9,0,340.3,0
		C702.3,283,703.2,283,704.1,283z"/>
	<path class="st0" d="M358,282.9c-2.9,2.8-5.6,5.7-8.6,8.5c-11.9,11.1-25.6,19.7-40.1,26.9c-1.5,0.8-3.1,1.5-4.6,2.3
		c-0.8,0.4-1.5,0.4-2.3,0c-19.5-9.3-37.5-20.7-52.3-36.8c-0.3-0.3-0.7-0.6-1-0.9c-0.4-0.5-0.8-1-1.3-1.6c-5.2-6-9.7-12.4-13.5-19.4
		c-8.8-16.1-12.9-33.4-12.8-51.7c0.1-17.3,0.5-34.6,0.8-51.8c0-0.8,0-1.6,0-2.6c-0.9,0-1.6,0-2.3,0c-28.8,0-57.5,0-86.3,0
		c-0.7,0-1.5,0.1-2.2,0.1c0-42.5,0-84.9,0-127.4c190.8,0,381.7,0,572.5,0c0,42.5,0,84.9,0,127.4c-0.7,0-1.3-0.1-2-0.1
		c-105,0-210,0-315,0c-0.7,0-1.4,0-2.3,0c0,1.1,0,2,0,2.8c0.3,16.8,0.6,33.7,0.8,50.5c0,4.9-0.3,9.8-0.8,14.7
		c-1.6,15-6.4,29-14.2,41.9C366.9,271.9,362.6,277.5,358,282.9z M364.7,264.2c1.3-2.2,2.8-4.4,4-6.7c7.4-14.2,11.1-29.3,11.2-45.3
		c0.2-20.2-0.2-40.4-1-60.5c-0.3-7.7-0.8-15.3-1.3-23c-0.1-1.5-0.3-3.1-0.5-4.6c-49,0-97.9,0-146.8,0c-0.1,0.5-0.2,0.9-0.2,1.2
		c-0.4,6.5-1,12.9-1.3,19.4c-1,22.6-1.6,45.3-1.4,67.9c0.1,12,2.3,23.7,6.7,34.9c2.3,5.8,4.9,11.5,8.5,16.7c0.4,0.8,0.8,1.6,1.3,2.3
		c4.6,6.9,9.9,13.2,15.9,18.9c12.6,12.1,27.2,21.2,42.7,28.9c1.1,0.5,1.8,0.2,2.7-0.2c9.1-4.5,17.9-9.5,26.1-15.4
		c12.6-8.9,23.6-19.4,32.1-32.3C363.9,265.8,364.3,265,364.7,264.2z"/>
	<path class="st2" d="M358,282.9c4.6-5.4,8.9-11,12.6-17c7.8-13,12.6-26.9,14.2-41.9c0.5-4.9,0.8-9.8,0.8-14.7
		c-0.2-16.8-0.5-33.7-0.8-50.5c0-0.9,0-1.8,0-2.8c0.9,0,1.6,0,2.3,0c105,0,210,0,315,0c0.7,0,1.3,0.1,2,0.1c0,42.3,0,84.6,0,127
		c-0.9,0-1.8,0-2.7,0c-113.4,0-226.9,0-340.3,0C360.1,283,359,282.9,358,282.9z"/>
	<path class="st2" d="M131.6,156c0.7,0,1.5-0.1,2.2-0.1c28.8,0,57.5,0,86.3,0c0.7,0,1.4,0,2.3,0c0,1,0,1.8,0,2.6
		c-0.3,17.3-0.7,34.6-0.8,51.8c-0.1,18.3,4,35.6,12.8,51.7c3.8,6.9,8.4,13.4,13.5,19.4c0.4,0.5,0.8,1,1.3,1.6c-0.7,0-1.3,0.1-2,0.1
		c-38.1,0-76.2,0-114.3,0c-0.4,0-0.9,0-1.3,0C131.6,240.6,131.6,198.3,131.6,156z"/>
	<path class="st3" d="M242.5,264.2c-3.6-5.2-6.2-10.8-8.5-16.7c-4.4-11.2-6.6-22.9-6.7-34.9c-0.2-22.6,0.3-45.3,1.4-67.9
		c0.3-6.5,0.8-12.9,1.3-19.4c0-0.4,0.1-0.7,0.2-1.2c48.9,0,97.7,0,146.8,0c0.2,1.5,0.4,3.1,0.5,4.6c0.5,7.7,1,15.3,1.3,23
		c0.8,20.2,1.2,40.4,1,60.5c-0.1,16-3.8,31.1-11.2,45.3c-1.2,2.3-2.6,4.5-4,6.7c-0.8-1.2-1.5-2.4-2.3-3.5c-1.8-2.7-3.9-5.1-6.4-7.1
		c-2.2-1.7-4.5-3.2-7.3-3.7c-7.9-1.3-14.3,1.3-19.3,7.6c-0.5,0.6-0.9,1.3-1.5,2.1c-4.1-8.5-8.9-16.1-17.5-20.3c0-10.1,0-20.2,0-30.4
		c4.8,0,9.2-0.2,13.7,0c4.4,0.2,8.8,0.6,13.1,1.3c4.3,0.7,8.6,1.7,12.9,2.6c0-7.5,0-14.8,0-22.4c-12.9,4-26.1,4.7-39.4,4.4
		c-0.4-3.6-0.3-19,0.2-20.6c5.2,0,10.4,0,15.6,0.9c5.1,0.9,10.3,2.1,15.3,3.1c0-7.4,0-14.7,0-22.3c-10.1,3.3-20.4,4.6-31.2,4.4
		c0-5.1,0.7-9.9,1.4-14.8c0.7-4.8,1.7-9.6,2.5-14.4c-7.2,0-14.3,0-21.5,0c0.8,4.7,1.7,9.5,2.5,14.4c0.8,4.8,1.4,9.7,1.4,14.8
		c-10.7,0.1-21.1-1.2-31.1-4.4c0,7.6,0,15,0,22.3c5.2-1,10.3-2.2,15.5-3.1c5.2-0.9,10.4-1,15.7-0.8c0,6.9,0,13.6,0,20.5
		c-13.4,0.3-26.6-0.4-39.5-4.4c0,7.6,0,15,0,22.6c13-3.9,26.2-4.6,39.7-4.3c0,1.1,0,1.9,0,2.7c0,9.2,0,18.5,0.1,27.7
		c-8.8,4.2-13.6,11.9-17.6,20.3c-1.3-1.5-2.3-3-3.6-4.3c-7.3-7.3-18.1-7.6-25.7-0.6c-1.6,1.5-3.1,3.3-4.4,5
		C244.5,261,243.6,262.6,242.5,264.2z"/>
	<path class="st4" d="M310.3,239.2c8.7,4.2,13.4,11.8,17.5,20.3c0.6-0.8,1.1-1.5,1.5-2.1c4.9-6.3,11.3-8.9,19.3-7.6
		c2.8,0.5,5.1,1.9,7.3,3.7c2.5,2,4.6,4.5,6.4,7.1c0.8,1.2,1.5,2.4,2.3,3.5c-0.4,0.8-0.8,1.6-1.3,2.3c-8.5,12.9-19.6,23.3-32.1,32.3
		c-8.3,5.9-17.1,10.9-26.1,15.4c-0.9,0.4-1.6,0.7-2.7,0.2c-15.6-7.7-30.1-16.8-42.7-28.9c-6-5.7-11.3-12-15.9-18.9
		c-0.5-0.7-0.9-1.5-1.3-2.3c1-1.5,2-3.1,3.1-4.6c1.4-1.7,2.8-3.5,4.4-5c7.6-7,18.4-6.7,25.7,0.6c1.3,1.3,2.4,2.8,3.6,4.3
		c4-8.4,8.8-16.1,17.6-20.3C301.5,237.6,305.9,237.6,310.3,239.2z"/>
	<path class="st5" d="M310.3,239.2c-4.4-1.6-8.9-1.6-13.3,0c0-9.2,0-18.5-0.1-27.7c0-0.8,0-1.6,0-2.7c-13.5-0.4-26.7,0.4-39.7,4.3
		c0-7.6,0-15,0-22.6c12.9,4,26.1,4.7,39.5,4.4c0-6.9,0-13.6,0-20.5c-5.3-0.2-10.6-0.1-15.7,0.8c-5.2,0.9-10.3,2.1-15.5,3.1
		c0-7.3,0-14.7,0-22.3c10.1,3.3,20.4,4.6,31.1,4.4c0.1-5.1-0.6-9.9-1.4-14.8c-0.8-4.8-1.7-9.6-2.5-14.4c7.2,0,14.3,0,21.5,0
		c-0.8,4.7-1.8,9.5-2.5,14.4c-0.7,4.8-1.4,9.7-1.4,14.8c10.8,0.1,21.1-1.1,31.2-4.4c0,7.6,0,15,0,22.3c-5.1-1-10.2-2.1-15.3-3.1
		c-5.1-0.9-10.4-1-15.6-0.9c-0.5,1.6-0.6,16.9-0.2,20.6c13.3,0.3,26.5-0.4,39.4-4.4c0,7.6,0,14.9,0,22.4c-4.3-0.9-8.6-2-12.9-2.6
		c-4.3-0.7-8.7-1.1-13.1-1.3c-4.4-0.2-8.9,0-13.7,0C310.3,219,310.3,229.1,310.3,239.2z"/>
	<rect x="418.4" y="155.9" class="st2" width="404.4" height="127.1"/>
	<rect x="-91.2" y="155.9" class="st2" width="275.7" height="127.1"/>
	<rect x="-91.2" y="282.5" class="st1" width="275.7" height="127.1"/>
</g>
<g>
	<g>
		<path d="M203,398c-3.9,0-8.1-0.8-12.9-2.4c-4.8-1.6-9.7-2-15.2-1.1c-8.1,1.3-16.4,1.9-24.7,1.8c-6.7,0-12.2-1.9-16.8-5.7
			c-3.1-2.5-6.5-5.3-9.9-7.9c-0.2-0.1-0.3-0.3-0.5-0.4c-1.3-1.1-1.8-1.4-2.8-0.2c-0.8,0.8-1.5,1-2,0.9c-1.2-0.1-2.1-1.1-2.7-2.1
			c-0.6-1-1.3-2-1.8-3c-0.4-0.7-0.9-1.4-1.3-2.1c-1.4-2.1-2.7-3.2-4.5-3.6c-3.4-0.8-5.5-3.4-7.2-5.9c-1.3-1.9-2.5-3.8-3.6-5.7
			c-0.6-1-1.3-2-1.9-3c-3.5-5.5-7.2-7.9-12.2-7.9c-3.1,0-5.7-1.5-7.5-4.2c-0.6-1-1.3-1.5-1.9-1.6c-0.5-0.1-1,0.1-1.7,0.5
			c-3.7,2.6-7.1,1.3-10.1,0.2c-1.7-0.6-3.3-1.2-4.8-1.2c-0.6,0-2.1-0.3-2.2-3.2c0-0.5-0.1-1-0.1-1.5c-0.1-1.6-0.2-3.3-0.1-4.9
			c0.5-6.6-1.1-9.4-7.3-12.7c-5.8-3.1-8.9-8.6-8.8-15.3c0.1-5.2-0.7-8.6-4.9-10.8c-2.3-1.2-2.5-3.8-2.6-5.7
			c-0.2-3.3-1.6-5.4-4.3-6.7c-1.6-0.8-3.1-1.7-3.3-3.2c-0.2-1.5,1-2.8,2.3-4c1-1,1.4-1.6,1.1-3.1c-1.4-8.3,1.5-15.5,8.5-21.4
			c2.8-2.4,3.4-4.2,2-7c-2.2-4.5-1.2-8.9,0-13c2-6.7,5-12.9,7.9-18.9c0.7-1.4,1.3-2.7,2-4.1c1.6-3.3,3.4-5.3,6-6.5
			c1.9-0.9,2.9-2.4,3.4-4.8c1.3-6.7,6.6-11.8,14.8-14.1c1.7-0.5,3,0.5,3.8,1.3c1.7,1.6,3.8,2.8,6.5,3.6c4.1,1.2,6.9,2.8,9.2,5.2
			c1.6,1.7,3.2,1.6,5.2-0.2c2.9-2.7,5.7-3.9,8.2-3.4c2.2,0.4,4.2,2.1,6,4.9c2.9-2.7,6.5-2.9,9.7-2.8c0.5,0,1.1-0.2,1.3-0.4
			c1.9-3.1,4.9-3.2,7.6-3.4l0.1,0c3.7-0.2,5.8-1.4,6.9-4.2c0.4-1,1-1.7,1.6-2.5c0.3-0.4,0.7-0.8,0.9-1.3c2-3.2,4.9-6.4,11-5.7
			c4.9,0.6,4.9,0.6,6-5c0.4-2,0.9-4.4,1.6-6.6c1.6-5.2,5.2-8,10.5-8.1c2.5-0.1,5.1-0.7,7.6-1.3c3.5-0.9,5.7-3.2,6.7-6.9
			c0.2-0.8,0.4-1.5,0.6-2.3c0.9-3.1,1.8-6.1,1-9.6c-0.5-2.4,0.6-4.6,1.7-6.6c0.7-1.3,1.4-2.7,1.7-4c0.1-0.7,0.4-1.4,0.7-2
			c0.3-0.8,0.7-1.5,0.6-2.2c-0.9-11.4,7.2-15.7,14.3-18.1c1-0.4,2-0.7,3.1-1c3.2-1,6.4-2.1,9.4-3.7c4.3-2.3,6.6-5,7.4-8.7l0-0.2
			c0.1-0.7,0.3-1.6,1.1-1.9c3.2-1.4,4.9-4.2,6.7-7.1c1.1-1.7,2.2-3.5,3.7-5c1.9-2,3-3.6,2.6-6.1c-0.6-3.6,1.4-4.7,2.6-5l0.4-0.1
			c1.8-0.5,4.3-1.2,6.2,1.2c0.4,0.5,1.7,2.2,4.4,0.7c3.7-2,7.5-1.7,11.4,1c1.3,0.9,2,1,3.6-0.2c5.6-4.1,12.1-5.6,19.6-4.3
			c3.7,0.6,5.7,2.9,5.7,6.7c0,0.8-0.1,1.7-0.2,2.5c-0.2,2.5-0.5,4.7,1.9,6.5c1.2,0.9,0.6,2.5,0.1,3.5c-0.1,0.3-0.3,0.7-0.4,0.9
			c-0.5,1.7,0,2.7,1.5,3.4c2.5,1.2,3.4-0.1,3.6-0.6c3-4.9,7.7-3.4,10.3-2.6c2.3,0.7,4.2,1.1,6.2,0.9l0.5-0.1c1.4-0.1,3-0.3,3.4-1
			c0.3-0.5,0.2-1.4-0.3-2.6c-0.3-0.8-0.3-1.6,0-2.3c0.3-0.7,1-1.3,1.7-1.6c3.7-1.3,3.9-4.3,4.2-7.8l0.1-0.8c0.6-6.8,1.9-8.1,8.7-8.2
			l0.7,0c1.6,0,3.2,0,4.7-0.3c0.6-0.1,2.4-0.5,2.6-1.6c0.6-3.8,3.1-6,5.5-8.2c1.8-1.6,3.6-3.3,4.9-5.7l1.2-2.3l0.7,2.5
			c1.2,4.4,3.5,6,6.6,6.9c1.4,0.4,2.1,1.8,2.1,4.1c-0.2,5.3,2.4,9.7,4.9,13.8c1.4,2.3,2.8,4.6,3.7,7.1c0.4-0.1,0.7-0.4,1.1-0.7
			c0.5-0.5,1.2-1.1,2.2-1.1c0,0,0,0,0,0l0.2,0l0.2,0.1c3.6,1.7,2.8,4.5,2,6.4c-0.4,0.8-1.4,3.2-0.9,4c0.5,0.8,3.1,0.9,4,0.9l0.4,0
			c3.1,0.1,5.9,0.2,8.6-1.5c1.2-0.8,2.4-1.1,3.4-0.7c1.1,0.4,1.8,1.6,2.2,3.5c1.3,5.9,2.2,11.9,2.8,18.3c0.5,4.8-1.1,7.3-3.2,10.1
			c-0.8,1-1.6,2.6-1.3,4.1c0.4,1.5,1.9,2.5,3.1,3c4.2,2,8.9,0.9,11.7-2.7c1.8-2.4,5.2-3.5,8.7-3c3.1,0.5,5.4,2.2,6.3,4.6
			c0.8,2.1,2.4,2.6,4.2,3.3c1.1,0.4,2.2,0.7,3.2,1.4c1.3-2,1.4-4.2,1.5-6.3c0.4-8.9,4.2-16.1,11.4-22.2c3.5-2.9,7.6-3.8,13.1-2.7
			c0.9,0.2,2.9,0.5,3.4,0.1c0.4-0.4,0.5-1.9,0.4-3.4l0-0.4c0-0.3,0-0.5,0-0.8c0-0.4,0-0.8,0-1.2c-0.1-2.1-0.2-5,3.1-6.2
			c3.6-1.3,6.5-0.3,8.4,2.7c0.1,0.2,0.5,0.4,0.8,0.6c5-4.4,8.3-4.3,13.5,0.5c2.2,2,4.9,2,7.2-0.1c0.3-0.3,0.7-0.6,1-1
			c1.3-1.2,2.6-2.5,4.4-2.5c0,0,0,0,0.1,0c1.2,0,2.5,0.7,3.7,2c0.1,0.1,0.1,0.1,0.1,0.1c0.1,0,0.6-0.1,1.5-1.1c1.7-1.7,4-2.5,7-2.4
			c1.8,0.1,3.7,0.3,4.6,1.6c0.7,1,0.7,2.3,0,4.1c-0.3,0.9-0.3,1.7,0,2.2c0.3,0.4,0.9,0.7,1.7,0.8c2.7,0.3,3.8,2.4,4.4,4
			c0.5,1.3,1,2.1,1.5,2.2c0.4,0.1,1-0.2,1.8-0.9c0.8-0.7,1.7-1,2.6-0.8c0.9,0.2,1.6,0.7,2,1.5c0.9,1.8,2.5,2.9,4.1,4.1
			c1,0.7,2,1.4,2.9,2.3c1.1,1.1,2.2,1.6,3,1.4c0.8-0.2,1.6-1.2,2-2.7c1.9-6.2,6.5-9.7,12.6-9.7c0.1,0,0.1,0,0.2,0
			c0.9,0,1.5-0.2,1.7-0.4c0.3-0.3,0.3-1,0-2.1c0-0.2-0.2-0.5-0.4-0.7c-0.1-0.1-0.2-0.3-0.2-0.4c-0.2-0.4-0.6-0.9-1-1.3
			c-1.2-1.3-2.9-3.2-0.7-5.7c0.8-1,2.3-1.4,4.3-1.4c2.6,0.1,6.1,1.1,7.6,3l0.4,0.5c0.6,0.8,1.3,1.7,2.1,2.2c0.9,0.6,1.6,0.8,2,0.7
			c0.4-0.2,0.8-0.8,1-1.9c0.9-3.7,3.4-6.9,6.8-8.4c3.1-1.4,6.6-1.3,9.6,0.2c1.3,0.7,2.8,1.1,4.4,1.5c2.8,0.8,5.7,1.5,8,4.2
			c0.8,0.9,3.5-0.2,5.1-0.9l0.7-0.3c1.3-0.6,2.7-1.2,4.1-0.6c0.5,0.2,0.9,0.6,1.3,1.1c1.7-2.1,3.8-2.5,5.6-2.6
			c1.3-0.1,2.7-0.5,3.6-1.1c0.9-0.6,2.4-1.4,3.8-1c1.1,0.3,1.9,1.2,2.6,2.7c0.7,1.4,1.9,2.1,4.1,2.5c6.3,1,10.4,4.9,11.7,11.1
			c0,0.2,0.1,0.3,0.1,0.5c0.1,0.5,0.1,0.6,0.2,0.7c0.3,0,0.4-0.2,0.7-0.9c0.1-0.2,0.1-0.3,0.2-0.4c1.2-2.3,3.3-3.7,5.7-3.8
			c2.1-0.1,3.8,0.9,4.9,2.7c1.6,2.7,3.4,3.1,6.7,3c5.7-0.2,6.4,0.5,7,6.3c0.3,2.9,1.3,4.6,3.4,5.6c2.9,1.3,4.2,3.8,3.9,7.2
			c-0.4,4.3,1.6,7.3,5.6,8c2.4,0.5,4.5,1.4,6.7,2.3c3.2,1.4,6.3,2.7,9.8,2.3l0.9-0.1l0.2,0.9c0.9,4.1,2.1,6.4,3.8,7.4
			c1.7,1,4.2,0.9,8.1-0.2c3.7-1,6.2-0.9,8.9,2.8c4.1,5.6,9.1,8.2,15,7.5c2-0.2,3.5,0.1,4.5,1c1.1,1,1.5,2.5,1.5,4.8
			c-0.2,5.5-0.8,10.3-7.5,13.2c-3.2,1.4-6.6,5-6.9,9.9c-0.2,2.3-1.5,4.2-2.7,5.9l-0.2,0.3c-3.1,4.5-4.6,9.8-4.5,16.3
			c0,2.3-0.3,4.7-3,6.3c-1.2,0.7-2.6,2-1.2,5.4c2.6,6.2,1.4,11.1-3.6,15.2c-0.7,0.6-1.4,1.1-2.1,1.7c-3.1,2.4-6.1,4.7-7.4,8.4
			c-0.3,0.8-1.1,1.4-1.8,1.6c-7.5,2.4-8.3,9.1-9,15.6l0,0.1c-0.6,4.9-0.6,9.9-0.7,14.8c0,2.5-0.1,5.2-0.2,7.7
			c-0.1,3.3-1,5.5-2.7,6.8c-1.7,1.3-4.1,1.7-7.3,1c-1.1-0.2-2.3-0.6-3.3-1c-0.4-0.1-0.9-0.3-1.3-0.4c-2.2-0.7-3.8-0.5-5.7,0.8
			c-3.3,2.1-7.1,2.2-10.9,2.4c-0.7,0-1.4,0.1-2.2,0.1c-0.4,0-0.8,0-1.2,0c-2.3,0-3.3,0-3.5,2.6c0,0.8-0.4,1.5-1,2
			c-0.8,0.6-1.9,0.9-3.2,0.7c-3.3-0.4-6.4-0.9-9.4-1.4c-0.8-0.1-2.1-0.5-2.8-1.4c-1.3-2-3-3.8-4.5-5.7c-3.7-4.2-7.5-8.6-8.1-15
			c-0.1-0.7-0.2-1.4-0.4-2.2c-0.1-0.5-0.2-1.1-0.3-1.6c-0.5-3.3-2.2-4.7-5.1-4.4c-3.3,0.3-5.2-1.1-5.9-4.2c-0.6-2.9-2.7-5.2-4.7-7
			c-3.4-3.3-4.6-3.3-7.9,0c-1.8,1.7-3.8,1.6-5.5,1.5c-3.3-0.2-5.5,0.7-7.3,2.9c-1.8,2.3-4.1,3-7.6,2.3c-6-1.2-11.5,1.5-14.9,3.9
			c-2.9,2-5.2,2.1-7.9,0.1c-0.6-0.5-1.3-1-1.9-1.5c-0.9-0.7-1.8-1.4-2.8-2.1c-1.9-1.3-2.8-1-3.5-0.4c-3.8,3.4-6.9,0.4-8.5-1.2
			c-0.4-0.4-0.7-0.7-1-1.1c-1.8-2-3-3.2-5.8-1.1c-0.6,0.4-1.3,0.6-2,0.5c-1.8-0.3-3.3-2.5-4-3.8c-1-1.7-2.2-2.3-4.7-2.1
			c-8.5,0.8-17.3,1.6-25,7.2c-2.6,1.8-6.6,3.1-10.7,1.7c1.4,7.3-3.2,11.8-7.3,15.9l-1,1c-2.1,2.1-2.9,3.8-2.9,5.8
			c0,7.9-4.2,13.9-8.5,19.4c-0.7,0.9-1.5,1.7-2.3,2.5c-1.1,1.1-2.1,2.1-2.9,3.4c-0.7,1.2-1.7,1.9-2.9,2.2c-1.3,0.3-2.7-0.1-4-1
			c-1.1-0.7-1.9-1-2.5-0.8c-0.5,0.1-1,0.7-1.4,1.6c-1.6,3.4-5.1,3.5-7.3,3.5c-1.9,0-2.9,0.5-3.8,2.9c-1.3,3.6-4,6.6-6.5,9.4
			c-0.5,0.5-1,1.1-1.4,1.6c-1.3,1.5-3,0.9-4.2,0.4c-0.2-0.1-0.4-0.1-0.6-0.2c-3.2-1-5.7-0.3-7.7,2.3c-2,2.7-4.7,4-7.4,5.1l-1.3,0.5
			l0-1.4c-0.1-4.6-1.3-6.4-4.5-6.8c-2-0.3-3.8,0.4-5.9,1.1c-1.3,0.5-2.7,0.9-4.2,1.2l-1.8,0.3l0.7-1.7c1-2.4,1.2-4.1,0.7-5.3
			c-0.4-0.9-1.4-1.6-2.9-2.1c-1.3-0.4-2.6-0.1-4.1,0.2c-2.2,0.5-3.7,0.3-4.8-0.4c-1.1-0.8-1.8-2.1-2-4c-0.2-1.6-0.9-2.7-1.8-3.1
			c-1-0.5-2.3-0.3-3.7,0.5c-4.9,2.8-8.9,5.8-12.2,9c-1.1,1.1-1.7,2.6-1.7,4.7c-0.1,4.2-0.9,7.8-2.3,11.2c-0.5,1.3-1.4,3.4-3.8,2.9
			c-3.4-0.6-6.8-0.1-10.3,0.4c-2.8,0.4-5.6,0.8-8.5,0.7c-0.8,0-1.6,0.4-2.5,1.5c-3.3,4.1-9.3,5.5-14,3.1c-4.5-2.3-8.3-3.1-12.4,0.4
			c-1.2,1-2.2,1.4-3.2,1.2c-1.4-0.2-2.2-1.4-2.8-2.5c-0.3-0.5-0.7-1.1-1-1.4c-4.3,2.5-9.2,3.1-14,3.6c-1.1,0.1-2.2,0.3-3.3,0.4
			c-5,0.7-5.8,1.1-6.3,5.5c-0.6,5.1-4.3,7.1-8,8.7c1.5,3.7,0.8,7.2-0.1,10.6c-1.4,5.2-1,6.3,3.6,9.7c0.3,0.2,0.5,0.4,0.8,0.6
			c2.1,1.5,4.4,3.2,6.3,6.9l1,2l-2.1-0.5c-7.5-1.9-11.8,1.9-16.3,5.8c-0.9,0.8-1.8,1.6-2.7,2.3c-3.2,2.6-7.3,2.6-10.9,2.4l-0.8,0
			c-3.4-0.2-6.6-0.3-9.8,0.9c-0.4,0.1-0.9,0.3-1.4,0.1c-6.3-1.7-12,0.1-17.9,2c-2.3,0.7-4.7,1.5-7.1,2.1
			C206.8,397.8,204.9,398,203,398z M180.4,392c3.6,0,7,0.6,10.3,1.7c6.9,2.3,12.4,2.8,17.4,1.7c2.3-0.5,4.7-1.3,6.9-2
			c6-1.9,12.2-3.9,19.1-2c0,0,0,0,0.1-0.1c3.5-1.4,7.1-1.2,10.6-1l0.8,0c3.4,0.2,6.9,0.2,9.6-2c0.9-0.7,1.8-1.5,2.6-2.3
			c4.3-3.8,8.7-7.6,15.9-6.7c-1.4-2.1-3-3.2-4.6-4.4c-0.3-0.2-0.5-0.4-0.8-0.6c-5-3.7-6.1-5.5-4.4-11.8c0.9-3.4,1.6-6.7-0.2-10.1
			l-0.5-1l1-0.4c3.9-1.6,7.2-3.1,7.8-7.5c0.7-5.7,2.6-6.5,8-7.3c1.1-0.2,2.2-0.3,3.4-0.4c5-0.6,9.7-1.1,13.7-3.7l0.5-0.3l0.5,0.3
			c1,0.5,1.7,1.5,2.2,2.5c0.5,0.8,1,1.5,1.4,1.6c0.3,0.1,0.9-0.2,1.6-0.8c5.2-4.4,10.3-2.8,14.6-0.6c3.8,1.9,8.9,0.8,11.6-2.5
			c1.2-1.6,2.6-2.3,4.1-2.2c2.7,0.1,5.3-0.2,8.1-0.7c3.5-0.5,7.2-1.1,11-0.4c0.7,0.1,1-0.2,1.6-1.7c1.3-3.2,2-6.6,2.2-10.5
			c0.1-1.7,0.4-4.1,2.3-6.1c3.4-3.3,7.5-6.4,12.6-9.3c2-1.1,3.9-1.4,5.5-0.6c1.6,0.8,2.6,2.4,2.9,4.7c0.2,1.4,0.6,2.2,1.2,2.6
			c0.6,0.4,1.7,0.5,3.1,0.2c1.7-0.4,3.4-0.8,5.2-0.2c2,0.7,3.4,1.7,4.1,3.2c0.6,1.4,0.6,3,0,5.1c0.8-0.2,1.5-0.5,2.2-0.7
			c2.2-0.8,4.4-1.5,6.8-1.2c4.7,0.6,5.9,4,6.2,7.3c1.9-0.9,3.8-2,5.2-3.9c2.5-3.3,5.9-4.3,9.9-3c0.2,0.1,0.5,0.2,0.7,0.2
			c1.2,0.4,1.7,0.5,2,0.1c0.5-0.5,1-1.1,1.4-1.6c2.4-2.7,4.9-5.5,6.1-8.8c1.1-3,2.7-4.2,5.6-4.3c2.6-0.1,4.6-0.3,5.6-2.4
			c0.7-1.5,1.6-2.4,2.7-2.7c1.6-0.4,3.1,0.4,4.1,1.1c0.9,0.6,1.8,0.8,2.5,0.7c0.6-0.1,1.2-0.6,1.6-1.3c0.9-1.4,2-2.6,3.1-3.7
			c0.8-0.8,1.5-1.5,2.1-2.3c4.1-5.2,8.1-10.9,8.1-18.2c0-3.2,1.8-5.5,3.5-7.2l1-1c4.1-4.1,7.9-7.9,6.7-14.2
			c-0.1-0.5,0.1-0.9,0.2-1.3c0.1-0.2,0.1-0.3,0.2-0.5l0.3-1.1l1.1,0.5c3.7,1.8,7.4,0.6,9.7-1c8.1-5.9,17.2-6.7,26-7.5
			c2.3-0.2,4.8,0,6.6,3c0.9,1.5,2,2.7,2.7,2.8c0.1,0,0.2,0,0.4-0.1c4.3-3.3,6.7-0.6,8.5,1.3c0.3,0.3,0.6,0.7,1,1
			c2.3,2.3,3.7,3,5.8,1.1c2.5-2.2,5.1-0.4,6,0.2c1,0.7,1.9,1.4,2.9,2.2c0.6,0.5,1.2,1,1.9,1.5c1.9,1.4,3.3,1.4,5.5-0.1
			c5.5-3.8,11.1-5.2,16.5-4.2c2.8,0.5,4.3,0.1,5.6-1.6c2.2-2.7,5-3.9,8.9-3.6c1.6,0.1,2.9,0.2,4-0.9c4.1-4.1,6.4-4.1,10.7,0
			c2.1,2,4.5,4.5,5.2,8c0.5,2.1,1.4,2.8,3.8,2.6c4-0.4,6.6,1.8,7.3,6.1c0.1,0.5,0.2,1,0.3,1.5c0.2,0.8,0.4,1.6,0.4,2.4
			c0.5,5.8,3.9,9.7,7.6,13.8c1.6,1.9,3.3,3.8,4.7,5.9c0.1,0.1,0.6,0.4,1.4,0.6c3,0.5,6,1,9.3,1.4c0.7,0.1,1.3,0,1.6-0.3
			c0.1-0.1,0.2-0.2,0.3-0.6c0.2-4.4,3.2-4.5,5.4-4.5c0.4,0,0.8,0,1.1,0c0.7,0,1.5-0.1,2.2-0.1c3.5-0.1,7.1-0.3,9.9-2.1
			c2.5-1.6,4.6-1.9,7.4-1c0.5,0.1,0.9,0.3,1.4,0.4c1.1,0.4,2.1,0.7,3.1,0.9c2.6,0.5,4.5,0.3,5.7-0.6c1.2-0.9,1.8-2.7,1.9-5.3
			c0.1-2.5,0.1-5.2,0.2-7.7c0.1-4.9,0.1-10,0.7-15l0-0.1c0.8-6.8,1.7-14.5,10.4-17.3c0.2-0.1,0.5-0.3,0.5-0.4
			c1.5-4.3,4.9-6.9,8.1-9.3c0.7-0.5,1.4-1.1,2.1-1.6c4.3-3.5,5.2-7.5,3-12.9c-1.4-3.4-0.7-6.2,2-7.8c1.7-1,2-2.4,2-4.5
			c-0.1-7,1.4-12.7,4.8-17.5l0.2-0.3c1.1-1.5,2.2-3.1,2.3-4.9c0.4-5.8,4.4-10,8.1-11.6c5.6-2.4,6.2-6.3,6.3-11.4
			c0-1.6-0.2-2.7-0.8-3.2c-0.6-0.5-1.5-0.7-2.9-0.5c-6.5,0.8-12.4-2.1-16.9-8.3c-2.1-2.8-3.6-3-6.8-2.1c-4.5,1.3-7.5,1.3-9.7,0
			c-2.1-1.3-3.5-3.6-4.5-7.9c-3.6,0.1-6.8-1.2-9.9-2.5c-2-0.9-4.1-1.7-6.3-2.2c-5-1-7.7-4.9-7.2-10.2c0.2-2.6-0.6-4.2-2.7-5.2
			c-2.7-1.3-4.2-3.6-4.5-7.2c-0.5-4.7-0.4-4.7-4.9-4.5c-3.2,0.1-6.2-0.1-8.5-4c-0.7-1.2-1.8-1.8-3.1-1.7c-1.6,0.1-3.2,1.1-4,2.7
			c-0.1,0.1-0.1,0.3-0.2,0.4c-0.4,0.8-1,2.2-2.9,2.1l-0.2,0l-0.2-0.1c-1.3-0.6-1.4-1.7-1.5-2.4c0-0.1,0-0.3-0.1-0.4
			c-1.1-5.3-4.6-8.7-10-9.5c-2.8-0.4-4.7-1.6-5.6-3.6c-0.4-0.9-0.9-1.5-1.4-1.6c-0.5-0.1-1.2,0.1-2.2,0.7c-1.3,0.8-2.9,1.3-4.6,1.4
			c-2.1,0.1-3.7,0.7-4.9,3.1l-1,2.1L608,81c-0.2-0.6-0.6-1.4-1.1-1.6c-0.6-0.2-1.5,0.2-2.5,0.6l-0.7,0.3c-2.4,1-5.7,2.4-7.4,0.4
			c-1.9-2.2-4.4-2.9-7-3.6c-1.6-0.4-3.2-0.9-4.8-1.7c-2.5-1.3-5.3-1.4-7.8-0.2c-2.8,1.3-4.9,3.9-5.7,7.1c-0.4,1.8-1.2,2.9-2.2,3.3
			c-1.1,0.4-2.3,0.1-3.8-0.9c-1-0.7-1.8-1.7-2.5-2.6l-0.3-0.4c-1-1.2-3.7-2.2-6.1-2.3c-1.3,0-2.3,0.2-2.7,0.7c-0.9,1-0.6,1.6,0.7,3
			c0.5,0.5,1,1.1,1.3,1.7c0.1,0.1,0.1,0.2,0.2,0.3c0.2,0.4,0.5,0.8,0.6,1.4c0.3,1.3,0.4,2.8-0.4,3.8c-0.7,0.8-1.8,1.2-3.3,1.2
			c0,0-0.1,0-0.1,0c-5.3,0-9.1,2.9-10.7,8.3c-0.9,2.9-2.4,3.8-3.5,4.1c-1.1,0.3-2.8,0.2-4.9-1.9c-0.8-0.8-1.7-1.4-2.6-2.1
			c-1.8-1.3-3.6-2.6-4.7-4.8c-0.1-0.2-0.3-0.4-0.6-0.5c-0.3-0.1-0.6,0.1-0.9,0.3c-1.3,1.2-2.5,1.6-3.6,1.4c-1.5-0.4-2.3-1.9-2.8-3.4
			c-0.7-1.8-1.5-2.6-2.8-2.7c-1.9-0.2-2.8-1.1-3.2-1.7c-0.6-1-0.7-2.4-0.1-3.9c0.4-1.1,0.5-1.9,0.2-2.3c-0.4-0.7-2.1-0.7-3-0.8
			c-2.4-0.1-4.2,0.5-5.5,1.8c-0.7,0.7-1.8,1.6-3,1.6c0,0,0,0,0,0c-0.6,0-1.1-0.2-1.5-0.7c-0.9-0.9-1.7-1.4-2.3-1.4c0,0,0,0,0,0
			c-1,0-1.9,0.9-3,1.9c-0.4,0.4-0.7,0.7-1.1,1c-3.1,2.7-7,2.7-9.9,0c-4.6-4.3-6.8-4.3-11.3,0l-0.6,0.6l-0.7-0.5
			c-0.2-0.1-0.3-0.2-0.5-0.3c-0.5-0.3-1.2-0.7-1.5-1.3c-1.4-2.2-3.3-2.8-6-1.8c-1.9,0.7-1.9,2-1.8,4.2c0,0.4,0,0.8,0,1.3
			c0,0.2,0,0.5,0,0.7l0,0.5c0.1,2.5-0.1,4.1-1.1,5c-1,0.9-2.6,0.8-5.1,0.3c-5-0.9-8.4-0.2-11.5,2.3c-6.8,5.7-10.3,12.4-10.7,20.7
			c-0.1,2.6-0.3,5.6-2.6,8.3l-0.7,0.8l-0.8-0.8c-0.8-0.9-2-1.3-3.2-1.7c-2-0.7-4.3-1.5-5.5-4.5c-0.6-1.7-2.4-2.9-4.7-3.3
			c-2.7-0.4-5.5,0.5-6.8,2.2c-3.3,4.3-9,5.7-14.1,3.3c-2.3-1.1-3.7-2.6-4.2-4.4c-0.4-1.8,0.1-3.8,1.6-5.8c2-2.6,3.2-4.7,2.8-8.7
			c-0.7-6.3-1.6-12.2-2.8-18.1c-0.2-1.1-0.6-1.9-1-2c-0.3-0.1-0.9,0-1.5,0.5c-3.2,2.1-6.5,2-9.8,1.9l-0.4,0
			c-2.7-0.1-4.7-0.5-5.6-1.9c-0.9-1.4-0.3-3.4,0.8-5.9c1-2.2,0.6-3-0.7-3.7c-0.2,0.1-0.4,0.2-0.7,0.5c-0.6,0.6-1.6,1.4-3.3,1.3
			l-0.6-0.1l-0.2-0.6c-0.9-2.6-2.3-4.9-3.8-7.5c-2.6-4.4-5.4-9-5.2-14.9c0-0.7,0-1.9-0.6-2.1c-2.7-0.8-5.6-2.2-7.3-6.2
			c-1.3,1.8-2.8,3.1-4.2,4.4c-2.3,2.1-4.4,3.9-4.9,7c-0.3,1.7-1.8,2.8-4.2,3.2c-1.7,0.3-3.3,0.3-5,0.3l-0.7,0
			c-5.8,0.1-6.3,0.5-6.8,6.3l-0.1,0.8c-0.3,3.6-0.6,7.8-5.5,9.5c-0.3,0.1-0.5,0.3-0.6,0.6c-0.1,0.2-0.1,0.5,0,0.8
			c0.8,1.9,0.8,3.3,0.2,4.4c-0.9,1.6-3,1.8-4.9,2l-0.5,0.1c-2.3,0.3-4.5-0.2-7-1c-3.8-1.2-6.1-1.3-7.9,1.7c-1.3,2.1-3.6,2.6-6.2,1.3
			c-2.4-1.2-3.3-3.1-2.5-5.8c0.1-0.4,0.3-0.8,0.5-1.2c0.2-0.3,0.4-0.9,0.4-1.2c-3.2-2.4-2.9-5.5-2.6-8.2c0.1-0.8,0.2-1.6,0.1-2.3
			c0-2.8-1.3-4.3-4-4.8c-6.9-1.2-12.9,0.2-18,4c-2.2,1.7-3.8,1.7-5.9,0.3c-3.4-2.3-6.3-2.6-9.4-0.9c-2.7,1.5-5.2,1-6.9-1.3
			c-1-1.3-2.2-1-4-0.5l-0.4,0.1c-0.5,0.1-1.5,0.4-1.2,2.8c0.6,3.6-1.3,5.9-3.2,7.8c-1.3,1.4-2.3,3-3.4,4.7c-1.9,3-3.8,6-7.4,7.7
			c0,0.2-0.1,0.4-0.1,0.6l-0.1,0.3c-0.9,4.2-3.6,7.4-8.4,10c-3.1,1.7-6.5,2.8-9.7,3.8c-1,0.3-2,0.7-3,1c-9.7,3.3-13.6,8.2-13,16.1
			c0.1,1.2-0.4,2.3-0.8,3.2c-0.2,0.6-0.5,1.1-0.6,1.6c-0.3,1.7-1.1,3.2-1.9,4.6c-1,1.8-1.9,3.5-1.5,5.2c0.9,3.9-0.1,7.3-1.1,10.6
			c-0.2,0.7-0.4,1.5-0.6,2.2c-1.1,4.3-3.9,7.2-8.1,8.3c-2.6,0.7-5.3,1.3-8,1.4c-4.5,0.1-7.2,2.3-8.6,6.7c-0.7,2.2-1.2,4.5-1.6,6.4
			c-1.2,6-1.7,7.3-8.2,6.6c-4.6-0.5-7,1.5-9,4.8c-0.3,0.5-0.7,1-1,1.4c-0.5,0.7-1,1.3-1.3,2c-1.9,4.7-5.9,5.4-8.7,5.5l-0.1,0
			c-2.5,0.1-4.7,0.2-6,2.4c-0.6,1-2.1,1.3-3,1.3c-4-0.1-6.9,0.4-9.1,3.1l-1,1.2l-0.7-1.4c-1.6-3.1-3.3-4.8-5.2-5.1
			c-1.9-0.3-4.1,0.6-6.5,2.9c-3.6,3.3-6.3,1.9-8,0.2c-2.1-2.1-4.7-3.6-8.4-4.7c-3-0.9-5.4-2.2-7.3-4c-0.8-0.7-1.3-1-1.9-0.8
			c-5.3,1.5-11.9,5-13.4,12.6c-0.6,3.1-2.1,5.1-4.5,6.3c-2.1,1-3.7,2.7-5,5.5c-0.7,1.4-1.3,2.7-2,4.1c-2.9,6-5.9,12.1-7.8,18.6
			c-1.4,4.6-1.9,8-0.1,11.5c2.2,4.5,0,7.3-2.5,9.4c-6.4,5.5-9.1,12.1-7.8,19.6c0.4,2.4-0.3,3.6-1.7,4.9c-1.4,1.4-1.7,2-1.6,2.3
			c0,0.2,0.4,0.8,2.2,1.7c3.4,1.7,5.1,4.3,5.4,8.4c0.1,1.9,0.3,3.5,1.5,4.1c5.7,3,6,8.1,6,12.6c-0.1,6,2.6,10.8,7.7,13.5
			c6.9,3.7,8.9,7.3,8.4,14.6c-0.1,1.5,0,3,0.1,4.6c0,0.5,0.1,1,0.1,1.5c0,0.8,0.2,1.2,0.3,1.3c0,0,0,0,0,0c1.9,0,3.7,0.7,5.5,1.4
			c2.9,1.1,5.4,2.1,8.2,0.1c1.1-0.8,2.2-1.1,3.2-0.9c1.2,0.2,2.2,1,3.2,2.5c1.4,2.1,3.5,3.3,5.8,3.3c7.3,0,11.2,4.8,13.8,8.9
			c0.6,1,1.3,2,1.9,3.1c1.2,1.9,2.3,3.8,3.6,5.6c1.5,2.2,3.2,4.4,6,5c3,0.7,4.5,2.7,5.7,4.5c0.5,0.7,0.9,1.4,1.3,2.2
			c0.6,1,1.2,1.9,1.8,2.9c0.7,1.1,1.1,1.2,1.2,1.2c0.1,0,0.2-0.1,0.4-0.3c2.4-2.6,4.4-1,5.6,0c0.2,0.1,0.3,0.3,0.5,0.4
			c3.5,2.7,6.8,5.4,9.9,8c4.2,3.5,9.3,5.2,15.6,5.2c8.1,0,16.3-0.6,24.3-1.8C176.6,392.2,178.6,392,180.4,392z"/>
	</g>
</g>
</svg>
