<?xml version="1.0" encoding="utf-8"?>
<!-- Generator: Adobe Illustrator 24.3.0, SVG Export Plug-In . SVG Version: 6.00 Build 0)  -->
<svg version="1.1" id="Layer_1" xmlns="http://www.w3.org/2000/svg" xmlns:xlink="http://www.w3.org/1999/xlink" x="0px" y="0px"
	 viewBox="0 0 400 300" style="enable-background:new 0 0 400 300;" xml:space="preserve">
<style type="text/css">
	.st0{fill:#D67901;}
	.st1{fill:#536033;}
	.st2{fill:#515E31;}
	.st3{fill:#525F32;}
	.st4{fill:#535F32;}
	.st5{fill:#525F33;}
	.st6{fill:#525E31;}
	.st7{fill:#536034;}
	.st8{fill:#535F33;}
	.st9{fill:#546135;}
	.st10{fill:#566338;}
	.st11{fill:#566337;}
	.st12{fill:#59663C;}
	.st13{fill:#586439;}
	.st14{fill:#576236;}
	.st15{fill:#5C673D;}
	.st16{fill:#E3983B;}
	.st17{fill:none;}
	.st18{fill:#F3F2EF;}
	.st19{fill:#C98017;}
	.st20{fill:#FBED60;}
	.st21{fill:#FABA31;}
	.st22{fill:#68C2EE;}
	.st23{fill:#0491BE;}
	.st24{fill:#68C2EF;}
	.st25{fill:#31798F;}
	.st26{fill:#C1BDBE;}
	.st27{fill:#6E6E6E;}
	.st28{fill:#6C6C6C;}
	.st29{fill:#BCBCBC;}
	.st30{fill:#E1E1E1;}
	.st31{fill:#0A0A09;}
</style>
<g>
	<g>
		<path class="st0" d="M156.2,186.9c-0.4,0-0.7-0.1-0.9-0.2c-0.7-0.5-1.5-0.6-2.3-0.7c-0.5-0.1-1.1-0.2-1.5-0.4
			c-0.2-0.1-0.4-0.1-0.5-0.1c-1.1,0.7-2.2,0.8-3.3,0.8c-0.7,0-1.3,0-2,0.1l-1.2,0.2l0.8-0.9c1.1-1.3,0.7-2.2,0-3.4
			c-0.5-0.6-0.6-1.3-0.8-2c-0.5-1.4-1.1-2.5-2-3.5c-0.4-0.4-0.6-0.7-0.8-0.9c-0.4-0.5-0.7-0.9-1.2-1.3c-1.4-1.1-2.6-1.5-3.9-1.5
			c-0.5,0-0.9,0-1.4,0.1c-0.1,0-0.4,0.1-0.6,0.1c-0.4,0-0.6,0-1.1-0.2h-0.1c-0.1,0-0.2-0.1-0.4-0.1c-1.2,0.8-2.5,0.8-3.6,0.8
			c-0.7,0-1.3,0-1.9,0.1c-0.9,0.2-1.6,0.4-2.2,0.9c-0.6,0.5-1.3,1.1-2.3,1.1c-0.4,0-0.6,0-0.9-0.1c-0.1,0-0.2-0.1-0.4-0.1
			c-0.2,0-0.6,0.1-0.7,0.4c-0.5,0.5-0.9,0.7-1.4,0.7s-0.8-0.1-1.2-0.2l-0.2-0.1c-1.2-0.4-2.5-0.8-3.5-1.2c-1.5-0.6-3.2-1.2-4.8-1.5
			c-0.9-0.2-1.8-0.7-2.7-1.4c-2.8-2.2-5.4-3.3-8.2-3.5c-0.2,0-0.7-0.1-0.9-0.4c-0.5-0.4-0.8-0.6-1.3-0.6s-0.9,0.1-1.4,0.5l-0.7,0.1
			l-0.2-0.1c-1.5-0.7-2.8-1.8-4.2-3l-0.2-0.3c-0.5-0.5-0.9-0.9-1.5-0.9c-0.2,0-0.4,0-0.6,0.1l-0.4,0.1l-0.4-0.5
			c-0.8-1.3-1.4-2.1-2.5-2.1c-0.1,0-0.2,0-0.2,0l0,0c-0.4,0-0.6-0.1-0.8-0.4c-0.2-0.4-0.4-0.8-0.4-1.3c0.2-1.5-0.2-3-0.7-4.6
			c-0.2-0.7-0.5-1.4-0.6-2.1c0-0.2-0.1-0.4-0.1-0.6c-0.1-0.2-0.1-0.5-0.2-0.7c-0.4-2.3-1.1-3-3.4-3.6c-0.8-0.1-1.5-0.5-1.8-1.4
			c-0.4-1.4-1.4-2.3-2.5-3.2c-0.4-0.4-0.8-0.7-0.9-1.2v-0.1v-0.2c0-0.1,0-0.4,0.1-0.5c1.8-2.5,1.8-2.5-0.1-4.9
			c-0.1-0.1-0.1-0.2-0.2-0.2c-0.4-0.4-0.7-0.8-0.8-1.4v-0.1l0.1-0.1c1.2-2,1.1-4-0.2-6.4c-0.2-0.5-0.5-0.9-0.8-1.4
			c-0.7-1.3-1.5-2.7-2.5-4c-0.5-0.5-0.5-1.1-0.6-1.6c-0.1-1.6,0.1-3.2,0.5-5c0.2-1.1,0.8-1.3,1.3-1.3c0.2,0,0.6,0.1,0.9,0.2
			c0.9,0.5,1.6,1.2,2.2,1.8c1.6,1.6,3.2,3.2,5.1,4.3c1.6,0.9,3.3,1.5,5,1.5c1.8,0,3.7-0.6,5.6-1.6c1.3-0.7,2.3-1.8,3.5-2.8l0.4-0.2
			c1.5-1.4,2.7-3.2,3.5-5.4c0.6-1.8,1.5-3.6,3.5-5c0.7-0.5,0.8-1.3,0.9-2.3v-0.5l0.5,0.1c0.4,0.1,0.7,0.1,1.1,0.2
			c0.6,0.1,1.2,0.4,1.8,0.4c0.5,0,0.9-0.1,1.4-0.5c0.5-0.4,1.1-0.5,1.5-0.6c0.9-0.2,1.6-0.4,1.9-1.4l0.1-0.5l0.5,0.1
			c0.4,0.1,0.8,0.2,1.2,0.2c0.6,0,1.1-0.1,1.6-0.5c0.5-0.2,0.9-0.5,1.5-0.5c0.6,0,1.2,0.1,1.6,0.4c1.2,0.6,2.5,0.8,3.7,0.9
			c1.2,0.1,2.2,0.4,3.4,0.8h0.2c0.1,0,0.4,0,0.5,0.2c0.9,0.9,2.2,1.4,3.5,1.9c0.8,0.4,1.6,0.6,2.5,1.1c1.3,0.7,2.8,1.5,4.4,1.5
			c0.2,0,0.6,0,0.8-0.1c0.6-0.1,1.1-0.2,1.5-0.5c1.6-0.9,3.3-2,4.9-3.2l0.8-0.6c0.4-0.2,0.7-0.7,0.8-1.2c1.8-4.9,3.7-11.3,3.4-18.2
			v-0.5c-0.1-1.5-0.1-3-1.3-4.1c-0.4-0.4-0.6-0.9-0.5-1.6c0.1-2,0-3.5-0.6-4.8l-0.1-0.4l0.4-0.2c0.4-0.1,0.7-0.2,0.9-0.2
			c0.5,0,0.9,0.2,1.3,0.4c0.1,0,0.2,0.1,0.2,0.1c1.4,0.6,2.7,1.4,4,2.2c0.9,0.6,1.9,1.2,2.8,1.6c0.8,0.5,1.5,0.7,2.2,0.7
			c0.2,0,0.4,0,0.6,0c0.1,0,0.4,0,0.5,0c0.8,0,1.4,0.4,2.1,0.7c1.2,0.6,2.3,0.9,3.5,0.9s2.5-0.4,3.6-1.1c0.5-0.4,0.9-0.5,1.4-0.5
			c0.4,0,0.6,0,0.9,0.2c0.2,0.1,0.6,0.1,0.8,0.2c0.4,0.1,0.7,0.1,1.1,0.4c1.4,0.6,2.8,0.8,4.2,0.8c0.9,0,1.9-0.1,2.8-0.4
			c0.2-0.1,0.5-0.1,0.7-0.1c0.8,0,1.5,0.4,2.2,0.7c0.5,0.2,0.8,0.4,1.3,0.5c0.1,0,0.4,0.1,0.5,0.1c0.2,0.1,0.6,0.1,0.8,0.1
			c0.1,0,0.2,0,0.5-0.1s0.6-0.2,0.8-0.2c0.4,0,0.6,0.1,1.1,0.2c0.2,0.1,0.5,0.2,0.6,0.2c0.5-0.2,0.9-0.2,1.5-0.2
			c0.7,0,1.4,0.2,2.1,0.4c0.5,0.1,0.8,0.2,1.3,0.4c1.4,0.2,2.8,0.5,4.6,0.8c1.1,0.2,2.1,0.2,3,0.2c0.4,0,1.8,0,2.2,0h1.2
			c1.1,0,2,0,3,0c1.1,0,2,0,3,0h0.1c2,0,4-0.5,5.7-0.8c0.2-0.1,0.6-0.1,0.8-0.2c0.8-0.2,1.5-0.4,2.3-0.4c1.9,0,3.7-0.5,5.6-1.2
			c0.7-0.2,1.4-0.4,2.2-0.4c0.2,0,0.4,0,0.6,0s0.5,0,0.6,0c1.2,0,2.2-0.2,2.9-0.5c0.1,0,0.2,0,0.4,0c0.6,0,0.8,0.5,0.9,0.6
			c0,0,0,0,0,0.1c2.1-0.6,3.6-1.3,4.9-2.5c0.8-0.7,1.8-1.2,2.7-1.5c0.6-0.2,1.1-0.5,1.5-0.7c2.1-1.3,4.3-1.9,6.9-1.9
			c0.6,0,1.2,0,1.9,0.1c0.6,0.1,1.2,0.1,1.8,0.1c1.5,0,3-0.2,4.3-0.7c0.7-0.2,1.5-0.5,2.2-0.7c2.1-0.7,4.3-1.5,6.5-2
			c3.9-0.9,7.2-2.7,10.6-4.4c0.9-0.5,1.9-1.1,2.9-1.5c0.7-0.4,1.4-0.7,2-1.1c1.3-0.7,2.6-1.4,4-1.9c1.2-0.5,2-1.4,2.8-2.5
			c0.2-0.4,0.5-0.6,0.8-0.9c0.2-0.2,0.5-0.5,0.6-0.7c0.5-0.7,1.1-1.3,1.9-1.8c0.6-0.4,0.8-1.1,0.9-1.6v-0.2l0.2-0.1
			c0.2-0.1,0.6-0.1,0.8-0.1s0.5,0.1,0.7,0.2c0.6,0.4,1.3,0.5,2.1,0.5c0.4,0,0.8,0,1.2-0.1c0.5,0,0.8-0.1,1.3-0.1l0,0
			c0.2,0,0.5-0.1,0.6-0.2c1.3-1.2,2.8-1.5,4.2-1.8c0.7-0.1,1.4-0.2,2-0.5l0.4-0.1c1.4-0.5,2.9-1.1,3.4-2.8l0.1-0.5l0.5,0.1
			c0.2,0,0.4,0.1,0.6,0.1c0.5,0,1.1-0.1,1.5-1.4c0.5-1.2,1.4-1.5,2.2-1.9l0.4-0.1c1.6-0.7,3.4-1.1,4.7-1.3c0.6-0.1,0.9-0.6,1.4-1.1
			l0.4-0.4c0.8-0.8,1.6-1.2,2.5-1.2c0.5,0,0.8,0.1,1.3,0.2c0.1,0.1,0.4,0.1,0.5,0.1c0.2,0,0.6-0.1,0.9-0.4c0.6-0.4,1.2-0.6,1.6-0.6
			l0,0c1.5,0,2.2-0.7,2.5-2.2l0.1-0.6l0.6,0.2c0.4,0.2,0.7,0.2,0.9,0.2c0.7,0,1.4-0.5,2.1-0.9l0.2-0.1c1.2-0.8,2.3-1.6,3.9-1.6
			c0.2,0,0.6,0,0.8,0.1l1.4,0.2L336,37c-0.1,0.4-0.2,0.6-0.4,0.9c-0.5,1.1-0.8,2.1-0.8,3.3c0,1.8-0.6,2.2-2.2,2.6
			c-0.2,0.1-0.6,0.1-0.8,0.1c-0.7,0.1-1.4,0.2-1.8,0.8l-0.1,0.2h-0.2c-2,0.2-3.7,1.2-5.5,2.2c-0.9,0.5-1.9,1.1-2.8,1.4
			c-2.5,1.1-4.2,2.8-5.1,5.5c-0.6,1.6-2,2.8-4.2,3.7c-2.8,1.2-5.4,2.9-7.6,5.5c-0.9,1.1-2.1,1.9-3.7,2.6c-1.2,0.5-2.2,1.1-3.4,1.5
			c-2.7,1.2-5.4,2.3-7.9,3.9c-3.5,2.2-7.2,4.9-10.2,8.4c-1.1,1.3-1.8,2.7-2,4c-0.4,2-1.5,3-3.6,3.4c-0.7,0.1-1.6,0.2-2.5,0.2
			c-0.8,0-1.6-0.1-2.3-0.4c-0.5-0.1-0.9-0.2-1.4-0.2c-1.8,0-3.7,0.9-4.7,2.3c-0.5,0.7-0.9,1.4-1.4,2.1c-0.5,0.8-1.1,1.6-1.6,2.5
			c-1.5,2-1.9,4.6-2.2,7.1l-0.1,0.8c-0.1,0.8,0.2,1.6,0.6,2.5l0.1,0.4c0.2,0.7,0.7,1.8-0.1,2.7c0.9,0.5,1.5,1.2,2,1.8l0.2,0.2
			c1.1,1.5,2,2.9,3.4,3.9c0.6,0.4,0.8,0.9,0.9,1.4c0.9,2.5,2.8,4.2,4.4,5.6c0.4,0.2,0.6,0.5,0.8,0.7c2.3,1.6,4.2,3.6,5.7,6.3
			c0.5,0.7,0.9,1.5,1.5,2.2c0.2,0.4,0.6,0.7,0.8,1.1l0.1,0.1v0.1c0,0.4-0.2,0.6-0.4,0.8c-0.2,0.4-0.4,0.6-0.1,0.8
			c0.5,0.6,0.9,0.8,1.5,1.1l0.2,0.1v0.2c0.1,0.5,0,0.9-0.1,1.2s-0.4,0.2-0.5,0.2h-0.1h-0.1c-0.4-0.1-0.7-0.1-1.2-0.2
			c-0.6,0-1.3,0-1.9-0.5c-0.7-0.5-1.4-0.8-2.2-1.2c-0.7-0.4-1.5-0.6-2.1-1.1c-0.2-0.1-0.4-0.2-0.7-0.2h-0.1c-0.5,0-0.9,0-1.4,0
			c-1.4,0-2.7-0.2-3.7-0.6c-0.1,0-0.4-0.1-0.5-0.1c-0.1,0-0.2,0-0.2,0.1c-0.7,0.9-1.6,1.1-2.5,1.1c-0.2,0-0.4,0-0.6,0
			c-1.8,0.2-3,0.6-4.1,2c-0.9,1.2-2.3,1.9-3.5,2.5c-0.4,0.1-0.6,0.2-0.9,0.2c-0.4,0-0.7-0.1-1.1-0.2c-0.6-0.2-1.1-0.5-1.4-0.9
			c-2.3-2.9-5.6-3.3-9.3-3.5c-0.2,0-0.5,0-0.7,0c-0.7,0-1.3,0-2,0.1c-0.7,0-1.3,0.1-2,0.1l0,0c-0.2,0-0.5,0-0.7,0
			c-0.1,0-0.2,0-0.4,0c-2.2,0-4,0.8-5.4,2.2c-1.5,1.6-2.3,4-2.2,6.5c0,0.9,0,1.9-0.1,2.8c-0.1,0.7-0.1,1.4-0.1,2.1
			c0,1.1-0.7,1.9-1.4,2.6l-0.2,0.2c-1.1,1.2-1.6,2.5-2,3.7v0.2l-0.2,0.1c-0.5,0.2-0.8,0.4-1.4,0.4c-0.5,0-0.8-0.1-1.2-0.1h-0.2
			c-0.4-0.1-0.7-0.1-1.2-0.1c-0.4,0-0.8,0-1.2,0H218c-0.9,0-1.5,0.4-2,1.2c-0.9,1.4-2.2,2.3-4,2.9c-0.1,0-0.2,0.1-0.4,0.1
			c-0.7,1.3-2,1.3-3,1.3h-0.5c-1.4,0-2.6,0.5-3.6,1.3c-1.9,1.4-3.7,2.3-5.7,2.9h-0.2c-0.1,0-0.2,0.1-0.4,0.1
			c-1.4,1.3-3.2,1.8-4.8,2.2c-0.8,0.2-1.8,0.6-2.6,0.9c-0.2,0.1-0.6,0.2-0.9,0.2c-0.4,0-0.7-0.1-1.1-0.2l-0.4-0.1
			c-0.5-0.1-0.9-0.1-1.3-0.1c-1.2,0-1.9,0.6-2.6,2l-0.1,0.2h-0.2c-0.5,0.1-0.9,0.1-1.5,0.1c-0.7,0-1.4-0.1-2-0.1
			c-0.4,0-0.6,0-0.9-0.1c-0.9-0.1-1.9-0.1-2.8-0.2c-1.8-0.1-3.5-0.4-5.1-0.4h-0.4c-4.2,0-8.2,1.4-12,4.3c-0.4,0.2-0.6,0.5-0.8,0.7
			c-0.4,0.4-0.8,0.7-1.3,0.9c-1.5,1.1-2.6,2.7-2.8,4.4c-0.2,1.8,0.2,3.6,1.5,5c0.2,0.2,1.2,1.3,1.2,1.3c0.4,0.5,0.9,1.1,0.5,1.9
			C156.9,186.6,156.5,186.9,156.2,186.9z"/>
		<path d="M333.1,36.8c0.2,0,0.5,0,0.7,0.1c0.2,0.1,0.6,0.1,0.8,0.2c-0.5,1.4-1.2,2.8-1.2,4.3s-0.4,1.8-1.9,2.2
			c-1.1,0.2-2.2,0.1-2.8,1.2c-3.2,0.4-5.6,2.5-8.5,3.6c-2.6,1.2-4.4,3-5.4,5.7c-0.7,1.8-2.3,2.8-3.9,3.4c-3.2,1.2-5.6,3.2-7.8,5.6
			c-0.9,1.2-2.2,1.9-3.5,2.5c-3.9,1.8-7.8,3.2-11.3,5.4c-3.7,2.5-7.4,5-10.3,8.5c-1.1,1.3-1.8,2.7-2.1,4.2c-0.4,1.9-1.5,2.7-3.2,3
			c-0.8,0.1-1.6,0.2-2.3,0.2c-0.7,0-1.4-0.1-2.1-0.4c-0.5-0.2-1.1-0.2-1.6-0.2c-2,0-4,1.1-5,2.5c-1.1,1.5-1.9,3.2-3,4.6
			c-1.8,2.3-2,5.4-2.3,8.2c-0.1,1.1,0.4,2,0.7,2.9c0.4,1.1,0.7,2-0.7,2.7c1.3,0.2,2,0.9,2.6,1.9c1.1,1.5,2.1,3.2,3.7,4.3
			c0.5,0.4,0.6,0.8,0.8,1.3c0.9,2.3,2.7,4.2,4.6,5.7c0.4,0.2,0.6,0.5,0.9,0.7c2.3,1.6,4.2,3.6,5.6,6.1c0.7,1.2,1.5,2.2,2.5,3.4
			c0,0.6-1.1,1.1-0.4,2c0.5,0.7,1.2,0.9,1.6,1.2c0.1,0.5-0.1,0.9-0.2,0.9l0,0c-0.9-0.4-2,0-2.9-0.6c-1.3-0.9-3-1.3-4.3-2.2
			c-0.2-0.2-0.6-0.2-0.9-0.2c-0.1,0-0.1,0-0.2,0c-0.5,0-0.9,0-1.4,0c-1.3,0-2.5-0.1-3.6-0.5c-0.2-0.1-0.5-0.1-0.6-0.1
			c-0.2,0-0.5,0.1-0.6,0.2c-0.7,1.1-1.8,0.8-2.8,0.9c-1.8,0.2-3.3,0.6-4.4,2.2c-0.8,1.1-2.1,1.8-3.4,2.3c-0.2,0.1-0.5,0.1-0.7,0.1
			c-0.4,0-0.6-0.1-0.9-0.2c-0.5-0.2-0.9-0.5-1.3-0.8c-2.5-3.2-6.1-3.5-9.6-3.6c-0.2,0-0.5,0-0.7,0c-1.3,0-2.7,0.1-4,0.1
			c-0.2,0-0.5,0-0.6,0c-0.1,0-0.2,0-0.4,0c-5.3,0-8.3,4.3-7.9,9.1c0.1,1.6-0.4,3.3-0.4,4.9c0,1.1-0.8,1.9-1.5,2.6
			c-1.1,1.2-1.8,2.5-2,3.9c-0.4,0.2-0.8,0.2-1.2,0.2c-0.5,0-0.9-0.1-1.4-0.2c-0.5-0.1-0.8-0.1-1.3-0.1c-0.6,0-1.2,0-1.8,0.1
			c-1.1,0-1.8,0.5-2.3,1.3c-0.8,1.4-2.1,2.2-3.7,2.7c-0.2,0-0.5,0.1-0.5,0.2c-0.6,1.2-1.6,1.2-2.7,1.2l0,0c-0.1,0-0.2,0-0.5,0
			c-1.4,0-2.8,0.5-3.9,1.3c-1.8,1.3-3.5,2.2-5.6,2.8c-0.2,0.1-0.6,0.1-0.7,0.2c-2.1,1.9-4.9,2-7.2,3c-0.2,0.1-0.5,0.1-0.7,0.1
			c-0.5,0-0.9-0.1-1.3-0.2c-0.5-0.1-0.9-0.2-1.4-0.2c-1.3,0-2.2,0.7-2.9,2.3c-0.5,0.1-0.9,0.1-1.4,0.1c-0.9,0-2-0.1-2.9-0.2
			c-2.7-0.2-5.4-0.5-7.9-0.6c-0.1,0-0.2,0-0.4,0c-4.6,0-8.6,1.6-12.3,4.4c-0.7,0.6-1.3,1.2-2.1,1.6c-3.4,2.3-4.1,6.9-1.4,10.2
			c0.4,0.5,0.7,0.8,1.2,1.3c0.4,0.4,0.7,0.8,0.4,1.4c-0.2,0.4-0.5,0.4-0.7,0.4s-0.5-0.1-0.7-0.2c-1.3-0.7-2.7-0.7-4-1.2
			c-0.2-0.1-0.5-0.1-0.6-0.1s-0.2,0-0.4,0.1c-1.5,1.1-3.2,0.5-5,0.8c1.2-1.4,0.8-2.7,0-3.9c-0.4-0.6-0.6-1.3-0.8-1.9
			c-0.5-1.4-1.2-2.6-2.1-3.6c-0.7-0.7-1.2-1.6-2-2.3c-1.3-1.1-2.7-1.6-4.1-1.6c-0.5,0-0.9,0.1-1.5,0.2c-0.1,0-0.2,0-0.5,0
			c-0.4,0-0.6-0.1-0.9-0.1c-0.2-0.1-0.5-0.1-0.6-0.1s-0.2,0-0.2,0.1c-1.6,1.2-3.5,0.5-5.4,0.9c-0.9,0.2-1.6,0.4-2.5,1.1
			c-0.6,0.5-1.3,0.9-2,0.9c-0.2,0-0.5,0-0.8-0.1c-0.2-0.1-0.4-0.1-0.6-0.1c-0.4,0-0.8,0.1-1.1,0.5c-0.4,0.4-0.7,0.5-1.2,0.5
			c-0.5,0-0.9-0.1-1.3-0.4c-2.8-0.8-5.5-2-8.3-2.7c-0.9-0.2-1.8-0.7-2.6-1.3c-2.5-2-5.3-3.4-8.4-3.6c-0.2,0-0.6-0.1-0.7-0.2
			c-0.6-0.5-1.1-0.7-1.6-0.7c-0.6,0-1.1,0.2-1.6,0.6c-1.6-0.8-2.9-1.9-4.1-3c-0.7-0.6-1.3-1.4-2.1-1.4c-0.2,0-0.5,0-0.7,0.1
			c-0.8-1.3-1.5-2.5-3-2.5c-0.1,0-0.2,0-0.4,0l0,0c-0.5,0-0.7-0.6-0.7-1.2c0.4-2.5-0.8-4.6-1.3-6.8c-0.1-0.5-0.2-0.8-0.4-1.3
			c-0.4-2.6-1.2-3.4-3.7-4c-0.7-0.1-1.3-0.4-1.4-1.1c-0.4-1.5-1.5-2.5-2.6-3.4c-0.4-0.2-0.7-0.6-0.8-0.9c0-0.1,0-0.4,0-0.5
			c1.9-2.6,1.9-2.9-0.1-5.5c-0.4-0.5-0.8-0.8-0.9-1.5c1.3-2.2,1.1-4.6-0.2-6.8c-1.1-1.9-2-3.7-3.3-5.4c-0.4-0.5-0.5-0.9-0.5-1.4
			c-0.1-1.6,0.1-3.3,0.5-4.9c0.1-0.6,0.4-0.9,0.8-0.9c0.2,0,0.5,0.1,0.7,0.2c0.8,0.4,1.5,0.9,2.1,1.6c1.6,1.6,3.3,3.3,5.3,4.4
			c1.8,1.1,3.5,1.5,5.3,1.5c2,0,3.9-0.6,5.8-1.8c1.4-0.8,2.7-2,3.9-3c1.6-1.5,2.8-3.4,3.6-5.6c0.7-1.9,1.6-3.6,3.3-4.8
			c0.8-0.6,1.1-1.5,1.1-2.7c0.9,0.2,1.9,0.6,2.8,0.6c0.6,0,1.1-0.1,1.6-0.5c1.2-0.8,3-0.2,3.6-2.1c0.5,0.1,0.9,0.2,1.3,0.2
			c0.6,0,1.3-0.2,1.9-0.6c0.5-0.2,0.8-0.4,1.3-0.4c0.5,0,1.1,0.1,1.4,0.4c2.2,1.2,4.9,0.8,7.1,1.8c0,0,0.1,0,0.2,0h0.1
			c0.1,0,0.1,0,0.2,0c1.6,1.6,4.1,1.9,6.1,3c1.4,0.8,2.9,1.6,4.7,1.6c0.2,0,0.6,0,0.8-0.1c0.6-0.1,1.2-0.2,1.6-0.5
			c2-1.1,3.9-2.5,5.7-3.7c0.5-0.4,0.8-0.8,1.1-1.4c2.1-6,3.7-12,3.4-18.4c-0.1-1.8,0-3.5-1.4-4.8c-0.4-0.4-0.5-0.8-0.4-1.3
			c0.1-1.8,0-3.4-0.6-5c0.2-0.1,0.6-0.2,0.8-0.2c0.5,0,0.9,0.2,1.4,0.5c2.5,1.1,4.4,2.7,6.8,3.9c0.8,0.5,1.5,0.7,2.5,0.7
			c0.2,0,0.5,0,0.7-0.1c0.1,0,0.2,0,0.5,0c0.7,0,1.3,0.4,2,0.7c1.2,0.6,2.5,0.9,3.6,0.9c1.3,0,2.6-0.4,3.9-1.2
			c0.5-0.2,0.8-0.4,1.2-0.4c0.2,0,0.5,0,0.8,0.1c0.6,0.2,1.3,0.4,1.9,0.6c1.4,0.6,2.9,0.8,4.3,0.8c0.9,0,2-0.1,2.9-0.4
			c0.2,0,0.5-0.1,0.6-0.1c1.2,0,2.2,0.8,3.3,1.2c0.5,0.1,0.9,0.4,1.4,0.4c0.2,0,0.4,0,0.6-0.1s0.5-0.1,0.6-0.1
			c0.2,0,0.6,0.1,0.8,0.2s0.6,0.2,0.8,0.2h0.1c0.5-0.2,0.9-0.2,1.3-0.2c1.2,0,2.2,0.5,3.3,0.7c1.5,0.2,3,0.6,4.4,0.8
			c1.1,0.2,2.1,0.2,3.2,0.2c0.7,0,1.4,0,2.2,0c0.1,0,0.2,0,0.4,0c0.2,0,0.5,0,0.7,0c2,0,4-0.1,6-0.1h0.1l0,0c2,0,3.9-0.4,5.8-0.8
			c1.1-0.2,2.1-0.6,3.2-0.6c2-0.1,3.9-0.5,5.7-1.2c0.7-0.2,1.3-0.4,2-0.4c0.2,0,0.4,0,0.6,0s0.5,0,0.7,0c1.1,0,2.2-0.2,3-0.6
			c0.1,0,0.1,0,0.2,0c0.6,0,0.5,0.6,0.9,0.7c1.9-0.5,3.7-1.2,5.3-2.6c1.2-1.1,2.8-1.5,4.2-2.2c2.1-1.2,4.3-1.8,6.7-1.8
			c0.6,0,1.2,0,1.8,0.1c0.6,0.1,1.2,0.1,1.9,0.1c1.5,0,3-0.2,4.6-0.7c2.9-0.9,5.7-2.1,8.8-2.7c4.9-1.2,9.1-3.7,13.5-6
			c2-0.9,3.9-2.1,6-2.9c1.6-0.7,2.6-2.2,3.7-3.4c0.8-0.8,1.4-1.9,2.3-2.5c0.7-0.5,0.9-1.3,1.1-2c0.2-0.1,0.5-0.1,0.6-0.1
			c0.2,0,0.4,0,0.5,0.1c0.7,0.5,1.5,0.6,2.3,0.6s1.6-0.1,2.5-0.1c0,0,0,0,0.1,0l0,0c0.2,0,0.6-0.1,0.8-0.4c1.8-1.6,4.1-1.5,6.1-2.2
			c1.5-0.6,3.4-1.1,4-3.2c0.2,0.1,0.5,0.1,0.7,0.1c0.9,0,1.6-0.7,2-1.6c0.5-1.2,1.3-1.4,2.3-1.8c1.5-0.7,3-0.9,4.7-1.3
			c0.8-0.1,1.4-0.9,2-1.5c0.7-0.7,1.4-1.1,2.1-1.1c0.4,0,0.7,0.1,1.2,0.2c0.2,0.1,0.5,0.1,0.7,0.1c0.4,0,0.8-0.1,1.2-0.4
			c0.5-0.2,0.9-0.5,1.4-0.5l0,0l0,0c1.6,0,2.6-0.8,2.8-2.6c0.5,0.2,0.8,0.4,1.2,0.4c0.9,0,1.8-0.6,2.5-1.2
			C330.5,37.5,331.7,36.8,333.1,36.8 M333.1,35.9L333.1,35.9c-1.6,0-3,0.8-4.2,1.6l-0.2,0.1c-0.6,0.5-1.2,0.9-1.8,0.9
			c-0.2,0-0.5-0.1-0.8-0.2l-1.1-0.6l-0.2,1.2c-0.2,1.5-0.9,1.9-1.9,1.9h-0.1c-0.6,0-1.2,0.2-1.9,0.6c-0.2,0.1-0.5,0.2-0.7,0.2
			c-0.1,0-0.2,0-0.4-0.1c-0.5-0.2-0.9-0.4-1.5-0.4c-0.9,0-1.9,0.5-2.8,1.3c-0.1,0.1-0.2,0.2-0.4,0.4c-0.4,0.5-0.8,0.8-1.2,0.9
			c-1.4,0.2-3,0.6-4.8,1.3l-0.4,0.1c-0.9,0.4-2,0.8-2.6,2.1c-0.5,1.1-0.9,1.1-1.2,1.1c-0.1,0-0.2,0-0.5-0.1l-0.8-0.2l-0.2,0.8
			c-0.5,1.5-1.8,2-3.2,2.5l-0.4,0.1c-0.6,0.2-1.3,0.4-2,0.5c-1.5,0.4-3,0.7-4.4,1.9l-0.2,0.1h-0.1c-0.5,0-0.9,0-1.3,0.1
			c-0.5,0-0.8,0.1-1.2,0.1c-0.8,0-1.4-0.1-1.9-0.5c-0.2-0.1-0.6-0.2-0.9-0.2c-0.2,0-0.6,0-0.9,0.2l-0.5,0.1l-0.1,0.5
			c-0.1,0.7-0.4,1.2-0.7,1.4c-0.8,0.5-1.4,1.2-2,1.9c-0.2,0.2-0.4,0.5-0.6,0.7c-0.2,0.2-0.5,0.6-0.8,0.9c-0.8,0.9-1.6,1.9-2.7,2.3
			c-1.4,0.6-2.7,1.3-4,2c-0.7,0.4-1.3,0.7-2,1.1c-0.9,0.5-1.9,0.9-2.9,1.5c-3.3,1.8-6.8,3.5-10.5,4.4c-2.2,0.5-4.4,1.3-6.5,2
			c-0.7,0.2-1.5,0.5-2.2,0.7c-1.3,0.5-2.7,0.7-4.2,0.7c-0.6,0-1.2,0-1.8-0.1c-0.6-0.1-1.3-0.1-1.9-0.1c-2.6,0-4.9,0.6-7,1.9
			c-0.5,0.2-0.9,0.5-1.5,0.7c-0.9,0.5-2,0.8-2.8,1.6c-1.2,1.1-2.5,1.8-4.4,2.2c-0.2-0.2-0.5-0.7-1.2-0.7c-0.1,0-0.2,0-0.4,0h-0.1
			h-0.1c-0.9,0.4-1.9,0.5-2.8,0.5c-0.2,0-0.4,0-0.6,0c-0.2,0-0.5,0-0.7,0c-0.8,0-1.6,0.1-2.3,0.5c-1.9,0.7-3.6,1.1-5.5,1.2
			c-0.8,0-1.6,0.2-2.5,0.5c-0.2,0.1-0.6,0.1-0.8,0.2c-1.8,0.4-3.7,0.8-5.6,0.8h-0.1c-1.1,0-2,0-3,0c-0.9,0-2,0-2.9,0
			c-0.2,0-0.5,0-0.7,0h-0.4c-0.4,0-0.7,0-1.1,0c-0.4,0-0.7,0-1.1,0c-0.9,0-2,0-2.9-0.2c-1.4-0.4-3-0.6-4.6-0.8
			c-0.4-0.1-0.8-0.1-1.2-0.2c-0.7-0.2-1.4-0.4-2.2-0.4c-0.6,0-1.1,0.1-1.5,0.2c-0.1,0-0.2-0.1-0.2-0.1h-0.1
			c-0.5-0.2-0.8-0.2-1.2-0.2c-0.4,0-0.7,0.1-1.1,0.2c-0.1,0-0.1,0-0.2,0c-0.1,0-0.4-0.1-0.7-0.1c-0.1,0-0.4-0.1-0.5-0.1
			c-0.4-0.1-0.7-0.2-1.2-0.5c-0.7-0.4-1.4-0.7-2.3-0.7c-0.2,0-0.6,0-0.8,0.1c-0.9,0.2-1.8,0.4-2.7,0.4c-1.4,0-2.7-0.2-4.1-0.8
			c-0.4-0.1-0.7-0.2-1.1-0.4c-0.2-0.1-0.6-0.1-0.8-0.2c-0.4-0.1-0.7-0.2-1.1-0.2c-0.6,0-1.1,0.1-1.6,0.5c-1.2,0.7-2.2,1.1-3.4,1.1
			c-1.1,0-2.1-0.2-3.2-0.8h-0.1c-0.7-0.4-1.4-0.7-2.2-0.7c-0.2,0-0.4,0-0.6,0.1c-0.1,0-0.4,0-0.5,0c-0.6,0-1.3-0.2-2-0.7
			c-0.9-0.5-1.9-1.1-2.8-1.6c-1.3-0.8-2.6-1.6-4.1-2.2c-0.1,0-0.2-0.1-0.2-0.1c-0.4-0.2-0.8-0.5-1.4-0.5c-0.4,0-0.8,0.1-1.2,0.4
			l-0.7,0.4l0.2,0.7c0.5,1.3,0.6,2.8,0.5,4.7c0,0.8,0.2,1.5,0.7,2c1.1,0.9,1.1,2.3,1.2,3.7V86c0.4,6.9-1.6,13.3-3.4,18.1
			c-0.1,0.4-0.4,0.7-0.7,0.9l-0.8,0.6c-1.5,1.1-3.2,2.2-4.8,3c-0.4,0.2-0.8,0.4-1.3,0.4c-0.2,0-0.5,0-0.7,0c-1.5,0-3-0.8-4.2-1.5
			c-0.8-0.5-1.6-0.8-2.6-1.2c-1.3-0.5-2.5-0.9-3.3-1.8c-0.4-0.4-0.7-0.4-0.8-0.4h-0.1l0,0c-1.2-0.5-2.2-0.6-3.4-0.8
			c-1.3-0.2-2.6-0.4-3.6-0.9c-0.6-0.4-1.2-0.5-1.9-0.5c-0.6,0-1.3,0.1-1.8,0.5c-0.5,0.2-0.9,0.5-1.4,0.5c-0.4,0-0.7-0.1-1.1-0.2
			l-0.8-0.4l-0.2,0.9c-0.2,0.7-0.6,0.8-1.5,1.1c-0.6,0.1-1.2,0.2-1.6,0.6c-0.4,0.2-0.7,0.4-1.2,0.4s-1.1-0.1-1.6-0.2
			c-0.4-0.1-0.7-0.2-1.1-0.2l-0.9-0.2l-0.1,0.9c-0.1,1.2-0.2,1.8-0.7,2.1c-2,1.4-3,3.5-3.6,5.1c-0.8,2.2-1.9,3.9-3.4,5.3l-0.4,0.2
			c-1.1,0.9-2.2,2-3.4,2.7c-1.9,1.1-3.6,1.6-5.4,1.6c-1.6,0-3.3-0.5-4.8-1.4c-1.9-1.2-3.5-2.7-5-4.3c-0.6-0.6-1.4-1.3-2.3-1.8
			c-0.4-0.2-0.8-0.4-1.2-0.4c-0.4,0-1.4,0.1-1.6,1.6c-0.4,1.9-0.6,3.5-0.5,5.1c0,0.6,0.1,1.3,0.7,1.9c0.9,1.2,1.6,2.5,2.5,3.9
			c0.2,0.5,0.5,0.9,0.8,1.4c1.3,2.2,1.4,4.1,0.2,6l-0.1,0.2l0.1,0.4c0.1,0.8,0.6,1.3,0.9,1.6c0.1,0.1,0.1,0.1,0.2,0.2
			c1.8,2.2,1.8,2.2,0.1,4.3c-0.2,0.2-0.2,0.6-0.2,0.7c0,0,0,0,0,0.1v0.2v0.2c0.2,0.6,0.7,1.1,1.1,1.3h0.1c1.2,0.9,2,1.8,2.3,2.9
			c0.4,1.3,1.5,1.5,2.1,1.6c2.2,0.5,2.7,1.1,3,3.3c0,0.4,0.1,0.6,0.2,0.8c0,0.1,0.1,0.4,0.1,0.5c0.1,0.7,0.4,1.4,0.6,2.1
			c0.5,1.5,0.8,2.9,0.7,4.3c-0.1,0.6,0.1,1.3,0.5,1.6c0.2,0.4,0.7,0.5,1.1,0.5l0,0h0.1c0.1,0,0.1,0,0.2,0c0.9,0,1.4,0.6,2.1,1.9
			l0.1,0.1l0.4,0.7l0.7-0.4c0.1-0.1,0.2-0.1,0.4-0.1c0.4,0,0.8,0.4,1.2,0.8c0.1,0.1,0.2,0.2,0.4,0.4c1.4,1.4,2.8,2.3,4.3,3.2
			l0.5,0.2l0.5-0.2c0.5-0.2,0.8-0.4,1.2-0.4s0.7,0.1,1.1,0.5c0.4,0.4,0.8,0.4,1.2,0.5c2.7,0.2,5.3,1.3,7.9,3.4
			c0.9,0.8,1.9,1.3,2.8,1.5c1.6,0.4,3.2,0.9,4.7,1.5c1.2,0.5,2.3,0.8,3.6,1.2l0.2,0.1c0.5,0.1,0.8,0.2,1.4,0.2
			c0.7,0,1.3-0.2,1.8-0.8c0.1-0.1,0.2-0.2,0.5-0.2c0.1,0,0.1,0,0.2,0c0.4,0.1,0.7,0.2,1.1,0.2c1.2,0,2-0.7,2.6-1.2
			c0.6-0.5,1.2-0.6,2-0.8c0.6-0.1,1.2-0.1,1.8-0.1c1.2,0,2.5,0,3.7-0.8h0.1c0.1,0,0.1,0,0.2,0.1c0.5,0.1,0.8,0.2,1.2,0.2
			c0.2,0,0.5,0,0.7-0.1c0.5-0.1,0.8-0.1,1.3-0.1c1.2,0,2.3,0.5,3.6,1.4c0.5,0.4,0.7,0.8,1.1,1.2c0.2,0.4,0.5,0.7,0.8,1.1
			c0.9,0.9,1.5,2,1.9,3.3c0.2,0.7,0.5,1.5,0.9,2.1c0.8,1.2,0.8,1.9,0,2.8l-1.5,2l2.5-0.6c0.6-0.1,1.3-0.1,1.9-0.1
			c1.2,0,2.2,0,3.4-0.8c0.1,0,0.1,0,0.2,0.1h0.1c0.6,0.1,1.1,0.2,1.6,0.4c0.8,0.1,1.5,0.2,2.2,0.7c0.4,0.2,0.8,0.4,1.2,0.4
			c0.6,0,1.1-0.2,1.4-0.8c0.7-1.1-0.1-1.9-0.5-2.3L157,183c-0.2-0.2-0.5-0.6-0.7-0.8c-1.2-1.4-1.6-3-1.4-4.7
			c0.2-1.6,1.2-3.2,2.6-4.1c0.5-0.4,0.9-0.7,1.3-1.1c0.2-0.2,0.6-0.5,0.8-0.7c3.7-2.9,7.6-4.3,11.8-4.3c0.1,0,0.2,0,0.4,0
			c1.8,0,3.5,0.2,5.1,0.4c0.9,0.1,1.9,0.1,2.8,0.2c0.4,0,0.6,0,0.9,0.1c0.7,0.1,1.4,0.1,2.1,0.1c0.6,0,1.1,0,1.5-0.1l0.5-0.1
			l0.2-0.4c0.7-1.5,1.4-1.8,2.2-1.8c0.4,0,0.7,0,1.2,0.1c0.1,0,0.2,0,0.4,0.1c0.4,0.1,0.8,0.2,1.2,0.2c0.4,0,0.7-0.1,1.1-0.2
			c0.8-0.4,1.6-0.6,2.6-0.9c1.6-0.5,3.4-1.1,4.9-2.3c0,0,0.1,0,0.2,0s0.1,0,0.2,0c2-0.6,4-1.5,5.8-3c1.1-0.7,2.1-1.2,3.4-1.2
			c0.1,0,0.2,0,0.4,0c1.1,0,2.6,0,3.4-1.4l0,0h0.1c1.9-0.6,3.3-1.6,4.2-3.2c0.4-0.6,0.8-0.8,1.6-0.9c0.2,0,0.4,0,0.6,0
			c0.4,0,0.8,0,1.2,0c0.5,0,0.8,0,1.2,0.1h0.2c0.4,0.1,0.8,0.1,1.3,0.1c0.6,0,1.1-0.1,1.5-0.4l0.4-0.2l0.1-0.5
			c0.2-1.2,0.8-2.3,1.9-3.5l0.2-0.2c0.7-0.7,1.5-1.6,1.5-2.9c0-0.7,0.1-1.4,0.1-2.1c0.1-0.9,0.2-1.9,0.1-2.9c-0.1-2.5,0.6-4.7,2-6.2
			c1.3-1.4,3-2.1,5-2.1c0.1,0,0.2,0,0.4,0c0.2,0,0.5,0,0.7,0c0.7,0,1.4,0,2-0.1c0.6,0,1.3-0.1,2-0.1c0.2,0,0.5,0,0.7,0
			c3.7,0.1,6.8,0.5,9,3.3c0.5,0.6,1.1,0.8,1.6,1.1c0.5,0.2,0.8,0.2,1.3,0.2c0.4,0,0.8-0.1,1.2-0.2c1.3-0.6,2.8-1.4,3.7-2.7
			c0.9-1.3,2.2-1.6,3.9-1.9c0.2,0,0.4,0,0.6,0c0.8,0,2-0.1,2.8-1.2c0.1,0,0.1,0,0.4,0.1c1.2,0.4,2.5,0.6,4,0.6c0.5,0,0.9,0,1.4,0
			h0.1c0.2,0,0.4,0,0.5,0.1c0.7,0.5,1.5,0.8,2.2,1.2c0.8,0.4,1.5,0.7,2.1,1.1c0.7,0.5,1.4,0.6,2.1,0.6c0.4,0,0.7,0,0.9,0.1l0.1,0.1
			h0.2c0.4,0,0.7-0.1,0.8-0.5c0.4-0.5,0.4-1.1,0.2-1.5l-0.1-0.4l-0.4-0.1c-0.6-0.2-0.9-0.5-1.3-0.9c0-0.1-0.1-0.1-0.1-0.1
			s0.1-0.1,0.1-0.2c0.1-0.2,0.4-0.6,0.4-1.1v-0.2l-0.1-0.2c-0.2-0.4-0.6-0.7-0.8-1.2c-0.6-0.7-1.1-1.4-1.5-2.2
			c-1.5-2.7-3.5-4.8-5.8-6.4c-0.2-0.1-0.5-0.4-0.7-0.6l-0.1-0.1c-1.6-1.4-3.4-3-4.3-5.4c-0.2-0.6-0.5-1.2-1.2-1.6
			c-1.4-0.9-2.3-2.3-3.4-3.7l-0.2-0.2c-0.5-0.6-0.9-1.3-1.6-1.6c0.6-0.9,0.1-2.1-0.1-2.7l-0.1-0.4c-0.4-0.8-0.6-1.5-0.5-2.2l0.1-0.8
			c0.4-2.6,0.6-4.9,2.1-6.9c0.6-0.8,1.2-1.6,1.6-2.6c0.5-0.7,0.9-1.4,1.4-2.1c0.9-1.3,2.7-2.1,4.3-2.1c0.5,0,0.9,0.1,1.3,0.2
			c0.7,0.2,1.5,0.5,2.5,0.5s1.8-0.1,2.6-0.2c2.3-0.4,3.6-1.6,4-3.7c0.2-1.3,0.8-2.6,1.9-3.9c2.9-3.5,6.5-6.1,10-8.3
			c2.5-1.5,5.1-2.7,7.8-3.9c1.2-0.5,2.2-0.9,3.4-1.5c1.6-0.8,2.9-1.6,3.9-2.7c2.2-2.6,4.7-4.3,7.5-5.4c2.3-0.9,3.7-2.2,4.4-4
			c0.9-2.5,2.6-4.2,4.9-5.3c1.1-0.5,2-0.9,2.9-1.5c1.8-0.9,3.4-1.9,5.4-2.1h0.5l0.2-0.4c0.2-0.5,0.7-0.6,1.5-0.7
			c0.2,0,0.6-0.1,0.8-0.1c1.6-0.5,2.5-0.9,2.6-3c0-1.1,0.4-2.1,0.8-3.2c0.1-0.4,0.2-0.6,0.3-0.9l0.4-0.9l-1.1-0.2l-0.8-0.2
			C333.6,36,333.4,35.9,333.1,35.9L333.1,35.9z"/>
	</g>
	<g>
		<path class="st1" d="M191.7,255.1c-1.8-1.8-3.3-3.7-4.7-5.6c-0.6-0.8-1.3-1.6-2-2.5c-0.8,1.1-1.6,2-2.5,3c-1.3,1.6-2.7,3.4-4.2,5
			l-0.4,0.4l-0.4-0.4c-1.2-1.4-2.6-2.6-4-3.9l-1.1-0.9l7.4-5.4l-3.2-1.6l2-2.3h0.2c1.4,0.2,2.7,0.8,3.9,1.5c0.7,0.4,1.5,0.6,2.1,0.6
			c0.7,0,1.4-0.2,2.2-0.6c1.1-0.6,2.2-1.2,3.6-1.4h0.2l0.1,0.1c0.7,0.5,1.2,1.2,1.6,1.8l0.2,0.4l-0.2,0.2c-0.5,0.5-1.1,0.8-1.8,1.1
			c-0.4,0.1-0.7,0.4-1.1,0.5l7.2,5.4l-0.4,0.4c-0.5,0.5-0.9,0.8-1.4,1.3c-1.2,1.1-2.3,2-3.3,3.3l-0.4,0.4L191.7,255.1z"/>
		<path d="M191,241.4c0.7,0.5,1.1,0.9,1.5,1.6c-0.8,0.8-2.2,0.9-3.2,1.9c2.5,1.8,4.8,3.5,7.4,5.4c-1.6,1.5-3.3,2.8-4.7,4.6
			c-2.6-2.7-4.6-5.6-7-8.4c-2.5,2.8-4.4,5.7-7,8.4c-1.4-1.6-3-3-4.7-4.6c2.6-1.9,4.9-3.6,7.5-5.5c-1.2-0.6-2.2-1.2-3.3-1.8
			c0.6-0.6,0.9-1.2,1.4-1.8c1.4,0.2,2.6,0.8,3.7,1.4c0.8,0.5,1.6,0.7,2.3,0.7c0.8,0,1.6-0.2,2.5-0.7
			C188.6,242.2,189.8,241.6,191,241.4 M178.6,240.4l-0.4,0.4l-1.4,1.8l-0.7,0.8l0.9,0.5l1.2,0.6l0.9,0.5l-2.6,1.9l-3.7,2.8l-0.8,0.7
			l0.8,0.7l0.7,0.6c1.4,1.3,2.8,2.5,4,3.9l0.6,0.7l0.7-0.7c1.5-1.6,2.9-3.4,4.2-5c0.7-0.8,1.4-1.8,2.1-2.6c0.6,0.7,1.1,1.4,1.6,2
			c1.5,1.9,3,3.9,4.8,5.6l0.7,0.7l0.6-0.8c0.9-1.2,2.1-2.2,3.3-3.3c0.5-0.4,0.9-0.8,1.4-1.3l0.8-0.7l-0.8-0.6l-2.8-2.1l-3.5-2.6
			c0.1,0,0.2-0.1,0.4-0.1c0.6-0.2,1.3-0.6,1.9-1.2l0.5-0.5l-0.4-0.6c-0.5-0.7-0.9-1.3-1.8-1.9l-0.4-0.2l-0.4,0.1
			c-1.4,0.4-2.7,0.9-3.7,1.5c-0.7,0.4-1.4,0.6-2.1,0.6c-0.6,0-1.3-0.2-2-0.6c-1.3-0.7-2.6-1.3-4-1.5H178.6L178.6,240.4z"/>
	</g>
	<g>
		<path class="st2" d="M269.6,201c-0.1,0-0.2,0-0.4,0h-0.1h-0.2l-0.1-0.1c-0.6-0.8-0.2-1.8,0-2.3l0.1-0.2c2-6,5.7-10.7,11.4-14.7
			c0.8-0.6,1.6-1.1,2.8-1.1c0.2,0,0.6,0,0.9,0.1l0.4,0.1v0.4c0.2,3.9,0.5,8.5-3.6,12c-2.7,2.3-5.8,4.2-9.3,5.6
			c-0.5,0.2-1.1,0.4-1.5,0.5l0,0L269.6,201z"/>
		<path d="M283.1,182.9c0.2,0,0.5,0,0.8,0.1c0.2,4.3,0.4,8.5-3.4,11.6c-2.8,2.3-6,4.2-9.3,5.5c-0.5,0.2-0.9,0.4-1.4,0.5h-0.1
			c-0.1,0-0.4,0-0.5-0.1c-0.5-0.8-0.1-1.5,0.1-2.2c2-6.2,6-10.9,11.2-14.5C281.3,183.4,282.1,182.9,283.1,182.9 M283.1,182
			L283.1,182c-1.3,0-2.2,0.6-3.2,1.2c-5.8,4-9.6,8.9-11.6,14.9l-0.1,0.2c-0.2,0.7-0.6,1.8,0.1,2.8l0.2,0.4h0.5h0.1
			c0.1,0,0.2,0,0.5,0c0.1,0,0.2,0,0.4,0c0.5-0.1,1.1-0.2,1.5-0.5c3.5-1.4,6.8-3.4,9.5-5.7c4.2-3.5,4-8.4,3.7-12.4v-0.7l-0.7-0.1
			C283.7,182.1,283.4,182,283.1,182L283.1,182z"/>
	</g>
	<g>
		<path class="st3" d="M100.5,201c-0.7,0-1.2-0.2-1.6-0.5l-0.2-0.1c-3-1.3-6.1-3-8.8-5.1c-2.5-1.9-3.7-4.3-4.1-7.5l-0.1-0.7
			c-0.1-1.4-0.2-2.9,0.1-4.3l0.1-0.2l0.2-0.1c0.4-0.1,0.7-0.1,1.1-0.1c0.9,0,1.8,0.5,2.3,0.8c4.3,2.8,7.5,6.1,9.6,9.9
			c0.9,1.6,1.8,3.4,2.3,5.4c0,0.1,0,0.2,0.1,0.2c0.1,0.5,0.4,1.3-0.1,2l-0.1,0.1h-0.2C100.8,201,100.6,201,100.5,201z"/>
		<path d="M87.1,182.9c0.8,0,1.5,0.4,2.1,0.7c3.9,2.6,7.1,5.7,9.5,9.8c0.9,1.6,1.8,3.4,2.3,5.3c0.1,0.6,0.5,1.2,0,1.9
			c-0.1,0-0.2,0-0.4,0c-0.6,0-1.2-0.2-1.8-0.5c-3.2-1.3-6.1-3-8.6-5c-2.3-1.9-3.6-4.2-3.9-7.1c-0.1-1.6-0.5-3.3,0-4.9
			C86.5,182.9,86.9,182.9,87.1,182.9 M87.1,182c-0.4,0-0.7,0.1-1.2,0.2l-0.5,0.1l-0.1,0.5c-0.5,1.5-0.2,3-0.1,4.6
			c0,0.2,0,0.5,0.1,0.7c0.2,3.3,1.6,5.7,4.2,7.7c2.8,2.1,5.7,3.9,8.9,5.1l0.2,0.1c0.5,0.2,1.1,0.5,1.9,0.5c0.1,0,0.4,0,0.5,0
			l0.4-0.1l0.2-0.4c0.7-0.9,0.4-1.9,0.2-2.5c0-0.1,0-0.1-0.1-0.2c-0.6-2-1.4-3.7-2.3-5.4c-2.1-3.9-5.4-7.2-9.7-10
			C89.1,182.4,88.2,182,87.1,182L87.1,182z"/>
	</g>
	<g>
		<path class="st3" d="M194.3,239.1c2.1-3.7,4.8-8.1,9-11c1.9-1.3,3.6-2,5.6-2.2c0.4,0,0.7-0.1,0.9-0.1c0.6,0,1.2,0.1,1.6,0.5
			l0.1,0.1v0.2c0.2,2.2-0.5,4.2-2,6.3c-1.2,1.5-2.7,2.7-4.7,3.7c-2.7,1.4-5.7,2.3-10.2,3l-0.9,0.1L194.3,239.1z"/>
		<path d="M209.9,226.3c0.5,0,0.9,0.1,1.4,0.4c0.2,2.2-0.6,4.2-2,6c-1.3,1.6-2.8,2.7-4.6,3.6c-3,1.6-6.2,2.3-10,3
			c2.5-4.4,5-8.2,8.9-10.7c1.6-1.2,3.4-1.9,5.5-2.1C209.3,226.4,209.6,226.3,209.9,226.3 M209.9,225.5L209.9,225.5
			c-0.4,0-0.6,0-0.9,0.1h-0.1c-2,0.2-4,0.9-5.8,2.2c-4.3,3-7,7.2-9.1,11.1l-0.8,1.5l1.8-0.2c4.4-0.7,7.6-1.6,10.3-3
			c2.1-1.1,3.6-2.3,4.9-3.9c1.6-2.1,2.3-4.3,2.1-6.5v-0.5l-0.4-0.2C211.3,225.6,210.7,225.5,209.9,225.5L209.9,225.5z"/>
	</g>
	<g>
		<path class="st3" d="M175.2,239.7c-4.4-0.7-9.1-1.8-12.8-4.8c-2.9-2.3-4.2-5-4-8.3v-0.2l0.2-0.1c0.6-0.2,1.2-0.4,1.8-0.4
			c0.9,0,1.8,0.2,2.6,0.5c1.6,0.5,3.2,1.3,4.8,2.5c3,2.3,5.4,5.5,8.1,10.3l0.5,0.8L175.2,239.7z"/>
		<path d="M160.4,226.3c0.8,0,1.6,0.2,2.6,0.5c1.6,0.5,3.2,1.3,4.6,2.5c3.4,2.7,5.7,6.1,7.9,10.2c-4.8-0.7-9.1-1.9-12.7-4.7
			c-2.5-2-4.1-4.6-3.9-7.9C159.3,226.4,159.9,226.3,160.4,226.3 M160.4,225.5L160.4,225.5c-0.7,0-1.3,0.1-2,0.4l-0.5,0.2v0.6
			c-0.2,3.4,1.2,6.2,4.2,8.6c3.9,3.2,8.6,4.2,13.1,4.9l1.8,0.2l-0.8-1.5c-2.6-4.9-5-7.9-8.2-10.4c-1.6-1.3-3.2-2.1-4.8-2.6h-0.1
			C162.3,225.7,161.3,225.5,160.4,225.5L160.4,225.5z"/>
	</g>
	<g>
		<path class="st4" d="M112.8,224.6c-3.3,0-6.3-0.6-9.3-1.9c-2.2-0.9-3.2-2-3.7-4.3l-0.1-0.4l0.4-0.1c1.9-0.7,4-0.9,6.3-0.9
			c6.2,0,11.2,2.3,13.4,6.3l0.4,0.5l-0.6,0.1C117.1,224.3,115,224.6,112.8,224.6z"/>
		<path d="M106.2,217.4c5,0,10.6,1.8,13.1,6.1c-2.2,0.5-4.4,0.7-6.5,0.7c-3,0-6.2-0.6-9.1-1.8c-2.2-0.9-3-2-3.5-4
			C101.9,217.7,104,217.4,106.2,217.4 M106.2,216.5L106.2,216.5c-2.3,0-4.6,0.4-6.4,1.1l-0.8,0.2l0.2,0.8c0.6,2.5,1.6,3.6,4.1,4.7
			c3,1.3,6.1,1.9,9.5,1.9c2.1,0,4.3-0.2,6.8-0.7l1.2-0.2l-0.6-1.1C117.8,219,112.5,216.5,106.2,216.5L106.2,216.5z"/>
	</g>
	<g>
		<path class="st4" d="M163.4,246.5c-4.1,0-8.1-1.1-11.1-3.2l-0.4-0.2l0.2-0.4c1.3-2.1,3.4-2.9,5.1-3.3c0.9-0.2,1.8-0.4,2.8-0.4
			s2.2,0.1,3.6,0.4c3.2,0.6,6.2,1.6,9.5,3.3l0.6,0.4l-0.5,0.5C171,245.4,167.4,246.5,163.4,246.5z"/>
		<path d="M160,239.6c1.2,0,2.3,0.1,3.6,0.4c3.3,0.6,6.3,1.8,9.3,3.2c-2.2,1.9-5.7,2.8-9.6,2.8c-3.7,0-7.7-0.9-10.9-3
			c1.2-1.9,2.9-2.7,4.9-3.2C158.3,239.7,159.2,239.6,160,239.6 M160,238.8L160,238.8c-1.1,0-2,0.1-2.8,0.4c-1.9,0.5-4.1,1.2-5.5,3.5
			l-0.5,0.7l0.7,0.5c3.2,2.1,7.2,3.2,11.4,3.2c4.1,0,7.8-1.1,10.2-3l1.1-0.8l-1.2-0.6c-3.3-1.6-6.4-2.7-9.6-3.3
			C162.4,238.9,161.2,238.8,160,238.8L160,238.8z"/>
	</g>
	<g>
		<path class="st3" d="M257.1,224.6c-2.1,0-4.3-0.2-6.5-0.7l-0.6-0.1l0.4-0.5c2.5-3.9,7.5-6.2,13.4-6.2c2.1,0,4.2,0.2,6.2,0.8
			l0.2,0.1v0.2c0.4,1.4-0.6,2.3-1.4,3.2c-1.1,1.1-2.5,1.8-4.3,2.2C262,224.2,259.6,224.6,257.1,224.6z"/>
		<path d="M263.8,217.4c2.1,0,4.1,0.2,6,0.8c0.2,1.2-0.5,2-1.3,2.8c-1.2,1.2-2.7,1.8-4.2,2.2c-2.5,0.7-4.8,1.1-7.2,1.1
			c-2.1,0-4.2-0.2-6.4-0.7C253.3,219.2,258.5,217.4,263.8,217.4 M263.8,216.5L263.8,216.5c-6.2,0-11.3,2.5-13.9,6.4l-0.7,1.1
			l1.2,0.2c2.2,0.5,4.4,0.7,6.7,0.7c2.6,0,5-0.4,7.5-1.1c2-0.6,3.4-1.3,4.6-2.3c0.7-0.6,1.9-1.8,1.5-3.6l-0.1-0.5l-0.5-0.1
			C268.1,216.9,265.9,216.5,263.8,216.5L263.8,216.5z"/>
	</g>
	<g>
		<path class="st4" d="M206.7,246.5c-3.7,0-7.2-0.9-9.8-2.7l-0.2-0.2l0.1-0.4c0.2-0.6,0.8-0.8,1.2-0.9c0.1,0,0.2-0.1,0.2-0.1
			c3.7-1.6,7-2.6,10.2-2.9c0.6-0.1,1.2-0.1,1.6-0.1c1.5,0,2.9,0.2,4.3,0.7c1.6,0.6,2.8,1.5,3.6,2.8l0.2,0.4l-0.4,0.2
			C215.1,245.3,211,246.5,206.7,246.5z"/>
		<path d="M210,239.7c1.4,0,2.8,0.2,4.2,0.7c1.4,0.5,2.6,1.3,3.4,2.6c-2.7,2-6.8,3.2-10.7,3.2c-3.5,0-6.9-0.8-9.6-2.7
			c0.2-0.6,0.8-0.6,1.2-0.8c3.2-1.4,6.5-2.5,10-2.9C208.9,239.7,209.5,239.7,210,239.7 M210,238.8c-0.6,0-1.2,0-1.8,0.1
			c-3.2,0.4-6.4,1.3-10.3,2.9c-0.1,0-0.1,0-0.2,0.1c-0.5,0.1-1.2,0.4-1.4,1.2l-0.2,0.6l0.6,0.4c2.6,1.9,6.2,2.8,10,2.8
			c4.3,0,8.5-1.3,11.3-3.3l0.6-0.5l-0.4-0.7c-0.8-1.3-2.1-2.3-3.9-2.9C213.1,239,211.6,238.8,210,238.8L210,238.8z"/>
	</g>
	<g>
		<path class="st5" d="M245.3,216.5c-0.5-0.7-0.2-1.3,0-1.6c0-0.1,0.1-0.1,0.1-0.2c1.3-3.9,2.7-6.8,4.3-9.5c1.1-1.5,2.5-3.5,4.7-4.7
			c1.2-0.6,2.1-0.9,3-0.9c0.7,0,1.4,0.1,2.1,0.5l0.4,0.2l-0.1,0.4c-3.3,7.4-7.8,12.6-14,16l-0.4,0.2L245.3,216.5z"/>
		<path d="M257.5,200.1c0.6,0,1.3,0.1,2,0.5c-2.9,6.8-7.2,12.3-13.8,15.8c-0.5-0.6,0-1.1,0.1-1.5c1.1-3.3,2.5-6.4,4.3-9.3
			c1.2-1.9,2.6-3.5,4.6-4.6C255.5,200.4,256.4,200.1,257.5,200.1 M257.5,199.1c-1.4,0-2.6,0.6-3.3,0.9c-2.3,1.3-3.9,3.3-4.8,4.8
			c-1.8,2.6-3.2,5.6-4.4,9.5c0,0.1,0,0.1-0.1,0.2c-0.2,0.5-0.6,1.2,0.1,2.1l0.5,0.7l0.7-0.4c6.3-3.4,11-8.6,14.1-16.2l0.4-0.8
			l-0.7-0.4C259.1,199.4,258.3,199.1,257.5,199.1L257.5,199.1z"/>
	</g>
	<g>
		<path class="st1" d="M124.7,216.9c-6.4-3.4-11-8.5-14.5-16.1l-0.1-0.4l0.4-0.2c0.7-0.4,1.4-0.5,2.1-0.5c1.1,0,2,0.4,2.7,0.7
			c1.2,0.5,2.2,1.3,3.2,2.5c3.3,3.6,5,7.9,6.9,13.7l0.4,1.1L124.7,216.9z"/>
		<path d="M112.5,200.1c0.8,0,1.6,0.2,2.5,0.6c1.2,0.5,2.2,1.3,3,2.3c3.4,3.7,5.1,8.4,6.8,13.5c-7-3.6-11.2-9.1-14.2-15.9
			C111.3,200.2,112,200.1,112.5,200.1 M112.5,199.1L112.5,199.1c-0.8,0-1.5,0.2-2.3,0.6l-0.7,0.4l0.4,0.8c3.4,7.7,8.1,13,14.6,16.3
			l1.9,1.1l-0.7-2c-1.4-4.6-3.3-9.7-7-13.8c-1.1-1.2-2.1-2-3.3-2.5C114.6,199.6,113.7,199.1,112.5,199.1L112.5,199.1z"/>
	</g>
	<g>
		<path class="st5" d="M221.5,227.1c2.1-7.9,8.2-11.4,13.1-11.4c0.9,0,1.9,0.1,2.7,0.4l0.5,0.1l-0.1,0.5c-1.5,5.6-9,11-15.6,11.1
			h-0.6L221.5,227.1z"/>
		<path d="M234.6,216.2c0.9,0,1.8,0.1,2.6,0.4c-1.4,5.5-8.8,10.6-15.3,10.7C224.1,219.5,229.7,216.2,234.6,216.2 M234.6,215.2
			L234.6,215.2c-5.1,0-11.3,3.6-13.5,11.7l-0.4,1.2h1.2c6.9-0.1,14.5-5.6,16.1-11.4l0.2-0.8l-0.8-0.2
			C236.6,215.3,235.6,215.2,234.6,215.2L234.6,215.2z"/>
	</g>
	<g>
		<path class="st2" d="M148.1,227.7c-7.1-0.6-14-5.4-15.6-11l-0.1-0.5l0.5-0.1c0.9-0.2,1.9-0.5,2.9-0.5c5.7,0,11.1,4.8,13,11.4
			l0.1,0.6L148.1,227.7z"/>
		<path d="M135.6,216.2c5.4,0,10.7,4.6,12.5,11.1c-7-0.6-13.7-5.3-15.3-10.6C133.8,216.3,134.7,216.2,135.6,216.2 M135.6,215.3
			L135.6,215.3c-1.1,0-2.1,0.1-3,0.5l-0.8,0.2l0.2,0.8c1.8,5.7,8.8,10.7,16,11.3l1.3,0.1l-0.4-1.2
			C147.2,220.2,141.5,215.3,135.6,215.3L135.6,215.3z"/>
	</g>
	<g>
		<path class="st6" d="M136.2,237.2c-4.3,0-8.3-1.2-11.8-3.5l-0.1-0.1c-0.6-0.4-1.2-0.7-1.5-1.6l-0.2-0.5l0.5-0.1
			c3.2-0.7,6.1-1.1,8.9-1.1c0.9,0,2,0,2.9,0.1c2.2,0.2,4,0.7,5.6,1.6c0.4,0.2,1.1,0.6,1.5,1.1c0.6,0.6,0.8,1.2,0.8,1.8
			c-0.1,0.6-0.6,1.1-1.3,1.5c-0.7,0.4-1.2,0.5-1.8,0.6C138.5,237,137.3,237.2,136.2,237.2z"/>
		<path d="M131.9,230.6c0.9,0,1.9,0,2.8,0.1c1.9,0.1,3.7,0.6,5.5,1.5c0.5,0.2,0.9,0.6,1.4,0.9c1.1,1.1,0.8,1.9-0.4,2.6
			c-0.5,0.2-1.1,0.5-1.6,0.6c-1.2,0.1-2.2,0.2-3.4,0.2c-4.1,0-7.9-1.1-11.6-3.4c-0.6-0.4-1.2-0.7-1.5-1.5
			C126.1,231.1,129,230.6,131.9,230.6 M131.9,229.8L131.9,229.8c-2.9,0-5.8,0.4-9,1.1l-1.1,0.2l0.4,0.9c0.5,1.1,1.2,1.5,1.8,1.9
			l0.1,0.1c3.6,2.3,7.6,3.5,12,3.5c1.2,0,2.3-0.1,3.5-0.2c0.6-0.1,1.2-0.2,1.9-0.6c0.9-0.5,1.4-1.1,1.5-1.8c0.1-0.7-0.2-1.4-0.9-2.2
			c-0.5-0.5-1.2-0.9-1.5-1.2c-1.6-0.9-3.6-1.5-5.8-1.6C133.9,229.8,132.8,229.8,131.9,229.8L131.9,229.8z"/>
	</g>
	<g>
		<path class="st6" d="M234,237.2c-1.2,0-2.3-0.1-3.5-0.2c-1.1-0.1-2.8-0.4-3-2.1c-0.1-1.4,1.1-2.1,1.9-2.6l0.4-0.1
			c1.5-0.9,3.4-1.4,5.6-1.6c0.9-0.1,1.9-0.1,2.9-0.1c2.8,0,5.7,0.4,8.9,1.1l0.5,0.1l-0.1,0.5c-0.2,0.8-0.8,1.3-1.3,1.5l-0.2,0.1
			C242.3,235.9,238.3,237.2,234,237.2z"/>
		<path d="M238.2,230.6c2.9,0,5.8,0.4,8.9,1.1c-0.2,0.8-0.8,1.1-1.4,1.4c-3.6,2.5-7.5,3.5-11.7,3.5c-1.2,0-2.2-0.1-3.4-0.2
			c-1.1-0.1-2.5-0.4-2.7-1.8c-0.1-1.3,1.1-1.8,2-2.3c1.6-0.9,3.5-1.4,5.5-1.6C236.2,230.7,237.2,230.6,238.2,230.6 M238.2,229.8
			L238.2,229.8c-0.9,0-2,0-2.9,0.1c-2.2,0.2-4.2,0.7-5.8,1.8l-0.2,0.1c-0.9,0.5-2.3,1.3-2.1,3c0.2,2.1,2.3,2.3,3.4,2.6
			c1.2,0.1,2.3,0.2,3.5,0.2c4.4,0,8.5-1.3,12.1-3.7l0.2-0.1c0.5-0.4,1.2-0.8,1.5-1.8l0.4-0.9l-0.9-0.2
			C243.9,230.2,241,229.8,238.2,229.8L238.2,229.8z"/>
	</g>
	<g>
		<path class="st4" d="M137.7,228.6c-2.1,0-4.1-0.4-5.8-0.8c-2.9-0.7-5.3-1.6-7.2-3.2c-2-1.4-3.3-3.2-3.9-5.1l-0.1-0.4l0.4-0.1
			c0.7-0.4,1.5-0.6,2.5-0.6c0.7,0,1.4,0.1,2,0.2c2.6,0.5,5,1.5,7.6,3.4c2.2,1.5,4.2,3.4,6.2,5.8l0.6,0.7l-0.8,0.1
			C138.6,228.6,138.1,228.6,137.7,228.6z"/>
		<path d="M123.4,219c0.7,0,1.3,0.1,2,0.2c2.8,0.5,5.1,1.6,7.5,3.3c2.2,1.6,4.2,3.4,6.2,5.7c-0.4,0-0.8,0-1.2,0
			c-2,0-3.9-0.4-5.7-0.8c-2.6-0.6-5-1.5-7.1-3c-1.8-1.3-3-2.8-3.7-4.9C121.9,219.1,122.6,219,123.4,219 M123.4,218L123.4,218
			c-0.9,0-1.9,0.2-2.6,0.6l-0.7,0.4l0.2,0.7c0.7,2.1,2,3.9,4.1,5.4c2,1.5,4.4,2.6,7.5,3.2c1.8,0.4,3.7,0.8,6,0.8c0.5,0,0.8,0,1.3,0
			l1.8-0.1l-1.2-1.3c-2.1-2.5-4.1-4.3-6.3-5.8c-2.7-1.9-5.1-3-7.8-3.4C124.8,218.1,124.1,218,123.4,218L123.4,218z"/>
	</g>
	<g>
		<path class="st4" d="M232.5,228.6c-0.4,0-0.7,0-1.1,0l-0.7-0.1l0.4-0.6c3.3-5.1,10.2-9.2,15.5-9.2c0.9,0,1.8,0.1,2.5,0.4l0.5,0.1
			l-0.1,0.5c-0.7,2-2,3.7-3.9,5.1c-2.3,1.8-5.1,2.8-8.8,3.5C235.3,228.4,233.9,228.6,232.5,228.6z"/>
		<path d="M246.6,219.1c0.8,0,1.6,0.1,2.3,0.4c-0.7,2.1-2,3.6-3.6,4.9c-2.6,1.9-5.5,2.8-8.6,3.4c-1.4,0.2-2.8,0.5-4.2,0.5
			c-0.4,0-0.7,0-1.1,0C234.7,223,241.5,219.1,246.6,219.1 M246.6,218.3L246.6,218.3c-5.5,0-12.6,4.2-15.9,9.5l-0.8,1.2l1.4,0.1
			c0.4,0,0.7,0,1.2,0c1.5,0,2.9-0.2,4.4-0.5c3.7-0.7,6.7-1.9,9-3.5c2-1.4,3.3-3.2,4-5.3l0.2-0.8l-0.8-0.2
			C248.5,218.4,247.5,218.3,246.6,218.3L246.6,218.3z"/>
	</g>
	<g>
		<path class="st7" d="M253,216.6c-0.2-0.6,0-1.2,0.2-1.5c0-0.1,0.1-0.1,0.1-0.2c1.2-2.6,2.5-4.7,4-6.5c1.4-1.8,2.9-3.2,4.4-4.1
			c1.3-0.8,2.6-1.2,3.9-1.2c0.4,0,0.6,0,0.9,0.1h0.4v0.4c-0.2,7-8.1,11.9-13.5,13.2l-0.4,0.1V216.6z"/>
		<path d="M265.7,203.6c0.2,0,0.6,0,0.9,0.1c-0.2,6.5-7.5,11.6-13.2,12.8c-0.2-0.6,0.2-0.9,0.4-1.4c1.1-2.3,2.3-4.6,4-6.5
			c1.3-1.5,2.6-2.9,4.3-4C263.2,204,264.3,203.6,265.7,203.6 M265.7,202.7L265.7,202.7c-1.3,0-2.6,0.4-4,1.2
			c-1.6,0.9-3.2,2.3-4.7,4.2c-1.5,2-2.8,4.1-4.1,6.7c0,0.1-0.1,0.1-0.1,0.2c-0.2,0.4-0.6,1.1-0.2,1.9l0.2,0.7l0.7-0.1
			c5.6-1.3,13.5-6.4,13.9-13.7V203l-0.8-0.1C266.3,202.7,266,202.7,265.7,202.7L265.7,202.7z"/>
	</g>
	<g>
		<path class="st8" d="M271.6,209c-1.1,0-2-0.1-2.9-0.2l-0.5-0.1l0.1-0.5c0.4-2.6,1.8-4.3,4.2-5.7c2.7-1.5,5.8-2.2,9.9-2.3h0.5v0.5
			c0,4.3-2.6,7.5-6.7,7.9C274.5,208.8,273.1,209,271.6,209z"/>
		<path d="M282.4,200.6c0,4.1-2.5,7.1-6.3,7.6c-1.5,0.2-3,0.4-4.6,0.4c-0.9,0-1.9-0.1-2.8-0.2c0.4-2.7,1.9-4.2,4-5.4
			C275.8,201.2,279,200.8,282.4,200.6 M283.2,199.7h-0.9c-4.1,0.1-7.4,0.8-10,2.3c-2.6,1.4-4,3.4-4.4,6.1l-0.1,0.8l0.8,0.1
			c0.9,0.1,2,0.2,3,0.2c1.5,0,2.9-0.1,4.7-0.4c4.2-0.6,7-3.9,7-8.4L283.2,199.7L283.2,199.7z"/>
	</g>
	<g>
		<path class="st3" d="M116.9,216.9c-7.4-1.4-13.9-7.7-13.7-13.2v-0.4l0.4-0.1c0.4-0.1,0.7-0.1,1.1-0.1c1.1,0,2.1,0.4,2.9,0.7
			c1.5,0.7,2.9,1.9,4.3,3.4c2.1,2.3,3.9,5.1,5.6,9l0.4,0.8L116.9,216.9z"/>
		<path d="M104.5,203.6c0.9,0,1.9,0.4,2.7,0.7c1.6,0.8,3,1.9,4.2,3.3c2.3,2.6,4,5.6,5.5,9c-7.2-1.4-13.5-7.5-13.3-12.8
			C103.9,203.6,104.3,203.6,104.5,203.6 M104.5,202.7c-0.4,0-0.8,0-1.2,0.1l-0.7,0.1v0.7c-0.2,5.8,6.3,12.1,14,13.7l1.6,0.4
			l-0.7-1.5c-1.8-4-3.5-6.8-5.6-9.1c-1.4-1.6-2.9-2.7-4.4-3.5C106.8,203.1,105.8,202.7,104.5,202.7L104.5,202.7z"/>
	</g>
	<g>
		<path class="st4" d="M214.1,237.9c-1.6,0-3.3-0.1-5.4-0.4c-0.2,0-0.4-0.1-0.5-0.2c0,0-0.1,0-0.1-0.1l-0.5-0.2l0.4-0.5
			c3-3.6,8.2-5.8,12.8-5.8c1.9,0,3.5,0.4,4.9,1.1l0.2,0.1v0.4c-0.2,1.3-0.9,2.5-2.3,3.4c-1.4,0.9-3,1.6-5.1,1.9
			C217.1,237.7,215.7,237.9,214.1,237.9z"/>
		<path d="M220.7,231.2c1.8,0,3.4,0.4,4.8,1.1c-0.2,1.4-1.1,2.3-2.1,3.2c-1.5,1.1-3.2,1.5-4.9,1.9c-1.4,0.2-2.8,0.4-4.3,0.4
			c-1.8,0-3.6-0.1-5.4-0.4c-0.1,0-0.4-0.1-0.5-0.2C211.4,233.3,216.4,231.2,220.7,231.2 M220.7,230.3L220.7,230.3
			c-4.8,0-10,2.3-13.2,6.1l-0.7,0.8l0.9,0.5h0.1c0.1,0.1,0.4,0.2,0.7,0.2c2.1,0.2,3.9,0.4,5.5,0.4c1.6,0,3-0.1,4.4-0.4
			c2.2-0.4,3.9-0.9,5.4-2c1.4-1.1,2.3-2.2,2.6-3.7l0.1-0.6l-0.6-0.2C224.4,230.6,222.7,230.3,220.7,230.3L220.7,230.3z"/>
	</g>
	<g>
		<path class="st5" d="M98.4,208.9c-2.1,0-4.2-0.2-6.3-0.7c-1.2-0.2-2.2-1.1-3.2-2.3c-1.1-1.5-1.8-3.3-2-5.3l-0.1-0.5h0.5
			c4.2,0.1,8.5,0.6,12,3.7c1.3,1.2,2.1,2.6,2.2,4.4v0.5h-0.5C100.4,208.9,99.4,208.9,98.4,208.9z"/>
		<path d="M87.5,200.6c4.3,0.1,8.4,0.7,11.8,3.6c1.2,1.1,1.9,2.3,2.1,4.1c-0.9,0.1-1.9,0.1-2.8,0.1c-2.1,0-4.2-0.2-6.3-0.7
			c-1.2-0.2-2.1-1.1-2.8-2.1C88.3,204.3,87.7,202.6,87.5,200.6 M86.4,199.7l0.1,1.1c0.2,2.1,0.9,3.9,2.1,5.5
			c0.9,1.4,2.1,2.2,3.4,2.5c2.2,0.5,4.3,0.7,6.4,0.7c0.9,0,2,0,2.9-0.1l0.9-0.1l-0.1-0.9c-0.2-2-0.9-3.5-2.5-4.7
			c-3.6-3.2-8.1-3.7-12.3-3.9L86.4,199.7L86.4,199.7z"/>
	</g>
	<g>
		<path class="st6" d="M156,237.9c-2.1,0-3.9-0.2-5.6-0.6c-2-0.5-3.4-1.2-4.6-2.2c-0.8-0.8-1.4-1.6-1.6-2.8l-0.1-0.4l0.4-0.1
			c1.4-0.7,3.2-1.1,5-1.1c4.6,0,9.5,2.2,12.8,5.7l0.1,0.1v0.2c-0.1,0.4-0.4,0.7-0.8,0.7C159.8,237.7,157.9,237.9,156,237.9z"/>
		<path d="M149.4,231.2c4.2,0,9.1,2,12.5,5.6c0,0.2-0.2,0.4-0.4,0.4c-1.9,0.2-3.7,0.4-5.5,0.4c-1.9,0-3.6-0.1-5.5-0.6
			c-1.6-0.4-3.2-0.9-4.4-2.1c-0.7-0.7-1.3-1.4-1.5-2.6C146,231.6,147.7,231.2,149.4,231.2 M149.4,230.3L149.4,230.3
			c-1.9,0-3.7,0.4-5.1,1.2l-0.6,0.4l0.1,0.7c0.2,1.2,0.8,2.1,1.8,3c1.2,1.2,2.8,1.9,4.8,2.3c1.8,0.4,3.6,0.6,5.7,0.6
			c2,0,4-0.2,5.6-0.4c0.6-0.1,1.1-0.5,1.2-1.1l0.1-0.5l-0.4-0.4C159.1,232.5,154.1,230.3,149.4,230.3L149.4,230.3z"/>
	</g>
	<g>
		<path class="st9" d="M105.8,200.8c-1.8-2-3.4-4.3-3.4-7.4c0-1.4-0.2-2.7-0.4-4.1c-0.1-0.7-0.1-1.4-0.2-2.1l-0.1-0.7l0.7,0.2
			c2.8,1.2,4.2,2.8,4.6,5c0.4,3,0,6.1-0.4,8.9l-0.1,0.9L105.8,200.8z"/>
		<path d="M102.3,187.1c2.3,0.9,4,2.3,4.3,4.7c0.4,2.9,0,5.8-0.4,8.8c-1.9-2.1-3.3-4.2-3.3-7.1C102.7,191.4,102.4,189.3,102.3,187.1
			 M101.2,185.8l0.1,1.4c0.1,0.7,0.1,1.4,0.2,2.1c0.1,1.4,0.4,2.8,0.4,4.1c0,3.3,1.8,5.6,3.5,7.7l1.3,1.4l0.2-1.9
			c0.5-2.8,0.8-5.8,0.4-9c-0.4-2.3-1.9-4.1-4.8-5.4L101.2,185.8L101.2,185.8z"/>
	</g>
	<g>
		<path class="st10" d="M263.3,200.4c-0.2-2.7-0.6-5.3-0.4-7.9c0.2-3.3,2.7-4.8,4.7-5.8l0.7-0.4l-0.2,2.1c-0.1,0.8-0.2,1.6-0.2,2.5
			c-0.1,1.3-0.2,2.6-0.4,3.7c-0.1,2-1.5,4.6-3.5,6.3l-0.7,0.6V200.4z"/>
		<path d="M267.8,187.1c-0.1,1.4-0.2,2.6-0.4,3.7c-0.1,1.3-0.2,2.6-0.4,3.7c-0.1,1.9-1.4,4.3-3.4,6.1c-0.2-2.8-0.6-5.5-0.4-8.2
			C263.6,189.8,265.3,188.3,267.8,187.1 M268.9,185.6l-1.4,0.7c-2.2,1.1-4.8,2.7-5,6.2c-0.2,2.7,0.1,5.4,0.4,7.9v0.4l0.2,1.8
			l1.3-1.3c2-2,3.5-4.6,3.6-6.7c0.1-1.3,0.2-2.5,0.4-3.7c0.1-0.8,0.1-1.6,0.2-2.5l0.1-1.3L268.9,185.6L268.9,185.6z"/>
	</g>
	<g>
		<path class="st11" d="M265.9,216.3c-0.4,0-0.8,0-1.2-0.1c-1.1-0.2-1.4-0.7-1.5-1.2c-0.1-0.4-0.1-0.9,0.5-1.8
			c1.2-1.4,2.7-2.1,4.4-2.1c0.5,0,1.1,0,1.5,0.1l0.4,0.1v0.4C269.9,214.4,268.2,216.3,265.9,216.3z"/>
		<path d="M268.1,211.6c0.5,0,0.9,0,1.5,0.1c0,2.6-1.5,4.1-3.7,4.1c-0.4,0-0.7,0-1.1-0.1c-1.3-0.4-1.6-1.2-0.8-2.2
			C265,212.2,266.4,211.6,268.1,211.6 M268.1,210.8L268.1,210.8c-2,0-3.5,0.8-4.8,2.2c-0.8,0.9-0.7,1.8-0.6,2.2
			c0.1,0.5,0.6,1.2,1.9,1.4c0.5,0.1,0.8,0.1,1.3,0.1c2.7,0,4.6-2.1,4.6-5V211l-0.7-0.1C269.1,210.8,268.5,210.8,268.1,210.8
			L268.1,210.8z"/>
	</g>
	<g>
		<path class="st11" d="M104.3,216.3c-1.2,0-2.2-0.4-2.9-1.2c-0.8-0.8-1.3-2-1.2-3.4v-0.4l0.4-0.1c0.6-0.1,1.1-0.2,1.6-0.2
			c1.6,0,3,0.6,4.1,1.8c0.4,0.4,1.1,1.1,0.7,2.1c-0.4,0.9-1.3,1.1-1.9,1.2C104.7,216.3,104.5,216.3,104.3,216.3z"/>
		<path d="M102,211.6c1.5,0,2.7,0.5,3.9,1.6c0.5,0.5,0.8,1.1,0.6,1.8c-0.2,0.7-0.9,0.8-1.5,0.8c-0.2,0-0.5,0-0.7,0
			c-2.2,0-3.7-1.5-3.7-4.1C101.1,211.7,101.6,211.6,102,211.6 M102,210.8L102,210.8c-0.6,0-1.1,0.1-1.6,0.2l-0.7,0.1v0.7
			c0,1.5,0.5,2.8,1.4,3.7c0.8,0.8,2,1.3,3.3,1.3c0.2,0,0.5,0,0.8,0c0.7-0.1,1.9-0.2,2.3-1.4c0.5-1.3-0.5-2.3-0.8-2.6
			C105.3,211.4,103.8,210.8,102,210.8L102,210.8z"/>
	</g>
	<g>
		<path class="st12" d="M222.8,243c-0.9,0-1.6-0.6-1.9-1.5c-0.1-0.8,0.1-1.8,0.8-2.5c0.7-0.8,1.9-1.4,2.9-1.4c0.2,0,0.5,0,0.8,0.1
			l0.2,0.1v0.2c0.2,1.3,0,2.3-0.4,3.2c-0.4,1.1-1.3,1.8-2.3,1.9C223,243,222.9,243,222.8,243z"/>
		<path d="M224.8,238c0.2,0,0.5,0,0.7,0.1c0.2,1.1,0,2-0.4,2.9c-0.4,0.9-1.1,1.4-2,1.6c-0.1,0-0.2,0-0.2,0c-0.7,0-1.3-0.5-1.4-1.2
			C221.2,239.7,222.9,238,224.8,238 M224.8,237.2L224.8,237.2c-1.3,0-2.5,0.6-3.3,1.5c-0.7,0.8-1.1,1.9-0.9,2.8c0.2,1.2,1.1,2,2.2,2
			c0.1,0,0.2,0,0.4,0c1.3-0.2,2.2-0.9,2.7-2.1c0.4-0.9,0.7-2,0.5-3.4l-0.1-0.6l-0.6-0.1C225.4,237.2,225,237.2,224.8,237.2
			L224.8,237.2z"/>
	</g>
	<g>
		<path class="st10" d="M147.2,243c-0.1,0-0.2,0-0.5,0c-1.1-0.2-1.9-0.8-2.2-1.9c-0.1-0.4-0.2-0.7-0.4-1.1c0-0.5-0.1-0.9-0.1-1.4
			l-0.1-1.1l0.4-0.1c0.2,0,0.5-0.1,0.7-0.1c1.1,0,2.1,0.5,2.9,1.2c0.7,0.7,0.9,1.6,0.9,2.5C149,242.3,148.3,243,147.2,243z"/>
		<path d="M145.2,238c2,0,3.5,1.5,3.4,3.3c0,0.8-0.6,1.3-1.3,1.3c-0.1,0-0.2,0-0.4,0c-0.9-0.1-1.6-0.7-2-1.6
			c-0.1-0.2-0.2-0.6-0.2-0.9c-0.1-0.6-0.1-1.3-0.1-2C144.8,238.1,145,238,145.2,238 M145.2,237.2L145.2,237.2c-0.2,0-0.6,0-0.8,0.1
			l-0.8,0.1v0.8c0,0.2,0,0.5,0,0.6c0,0.5,0.1,0.9,0.1,1.4c0,0.4,0.2,0.7,0.4,1.1c0.5,1.3,1.4,2,2.6,2.2c0.1,0,0.4,0,0.5,0
			c1.3,0,2.1-0.8,2.2-2.1c0.1-1.1-0.4-2.1-1.1-2.8C147.7,237.6,146.5,237.2,145.2,237.2L145.2,237.2z"/>
	</g>
	<g>
		<path class="st9" d="M154.4,229.3c-0.4,0-0.7-0.1-1.1-0.2c-0.9-0.4-1.5-1.2-1.8-2.3c-0.2-0.9-0.2-1.8-0.1-2.6l0.1-0.4h0.4
			c0.1,0,0.4,0,0.5,0c2,0,3.4,1.1,3.9,2.9c0.1,0.6,0.4,1.5-0.6,2.1C155.3,229.2,154.9,229.3,154.4,229.3z"/>
		<path d="M152.3,224.3c1.9,0,3,0.9,3.4,2.6c0.1,0.6,0.2,1.3-0.4,1.8c-0.2,0.2-0.6,0.2-0.9,0.2c-0.4,0-0.6-0.1-0.9-0.2
			c-0.9-0.4-1.3-1.2-1.5-2c-0.2-0.7-0.2-1.5-0.1-2.3C152.1,224.3,152.2,224.3,152.3,224.3 M152.3,223.5L152.3,223.5
			c-0.1,0-0.4,0-0.5,0h-0.7l-0.1,0.7c-0.2,1.2,0,2.1,0.1,2.7c0.4,1.3,1.1,2.2,2.1,2.6c0.5,0.2,0.8,0.2,1.3,0.2
			c0.5,0,0.9-0.1,1.4-0.5c1.2-0.8,0.8-2.1,0.7-2.6C156.2,224.7,154.7,223.5,152.3,223.5L152.3,223.5z"/>
	</g>
	<g>
		<path class="st13" d="M241.1,218.7c-0.5,0-0.8-0.1-1.1-0.2c-0.8-0.5-0.9-1.5-0.5-2.8c0.7-1.8,1.8-2.5,3.6-2.5c0.1,0,0.4,0,0.5,0
			h0.4v0.4c0.1,1.2,0.2,2.8-1.1,4.3C242.6,218.5,241.8,218.7,241.1,218.7z"/>
		<path d="M243.2,213.7c0.1,0,0.2,0,0.5,0c0.2,1.4,0.1,2.8-0.9,4c-0.4,0.5-1.1,0.6-1.6,0.6c-0.4,0-0.6-0.1-0.8-0.2
			c-0.6-0.4-0.7-1.2-0.2-2.2C240.7,214.4,241.5,213.7,243.2,213.7 M243.2,212.9L243.2,212.9c-2.1,0-3.3,0.8-4.1,2.7
			c-0.6,1.4-0.4,2.7,0.6,3.3c0.4,0.2,0.8,0.4,1.3,0.4c0.9,0,1.8-0.4,2.2-0.9c1.4-1.6,1.4-3.4,1.2-4.7l-0.1-0.7h-0.7
			C243.6,212.9,243.3,212.9,243.2,212.9L243.2,212.9z"/>
	</g>
	<g>
		<path class="st11" d="M215.6,229.3c-0.5,0-0.9-0.2-1.3-0.6c-0.6-0.7-0.5-1.5-0.4-2c0.5-1.9,1.9-2.9,3.7-2.9c0.2,0,0.5,0,0.7,0h0.4
			l0.1,0.2c0.2,1.1,0,2-0.2,2.8v0.1c-0.4,1.1-0.9,1.8-1.9,2C216.2,229.3,215.8,229.3,215.6,229.3z"/>
		<path d="M217.6,224.3c0.2,0,0.4,0,0.6,0c0.2,1.1,0,1.9-0.2,2.7c-0.2,0.8-0.8,1.5-1.6,1.8c-0.2,0.1-0.5,0.1-0.7,0.1
			c-0.4,0-0.7-0.1-1.1-0.5c-0.5-0.5-0.5-1.1-0.2-1.6C214.8,225.3,215.8,224.3,217.6,224.3 M217.6,223.5L217.6,223.5
			c-2.1,0-3.6,1.2-4.1,3.3c-0.1,0.4-0.4,1.5,0.5,2.5c0.5,0.5,1.1,0.7,1.6,0.7c0.4,0,0.6,0,1.1-0.1c1.1-0.4,1.9-1.2,2.2-2.3v-0.1
			c0.2-0.8,0.6-1.9,0.2-3l-0.1-0.6l-0.6-0.1C218,223.5,217.8,223.5,217.6,223.5L217.6,223.5z"/>
	</g>
	<g>
		<path class="st14" d="M129,218.7c-0.2,0-0.5,0-0.7-0.1c-0.7-0.1-1.3-0.6-1.8-1.3c-0.7-1.1-0.8-2.2-0.4-3.7l0.1-0.4h0.5
			c2.1,0,3.6,1.2,4,3.2c0.1,0.9-0.1,1.5-0.4,1.8C130.2,218.5,129.7,218.7,129,218.7z"/>
		<path d="M126.8,213.7c1.9,0,3.2,1.1,3.5,2.8c0.2,1.2-0.4,1.9-1.3,1.9c-0.2,0-0.4,0-0.6-0.1c-0.7-0.1-1.2-0.6-1.5-1.1
			c-0.6-0.9-0.7-2-0.4-3.4C126.7,213.7,126.8,213.7,126.8,213.7 M126.8,212.9c-0.1,0-0.1,0-0.2,0h-0.7l-0.1,0.6
			c-0.5,1.6-0.4,2.9,0.5,4.1c0.5,0.8,1.2,1.3,2,1.5c0.2,0,0.5,0.1,0.8,0.1c0.9,0,1.4-0.4,1.8-0.7c0.4-0.4,0.6-1.1,0.5-2.1
			C130.7,214.2,129.1,212.9,126.8,212.9L126.8,212.9z"/>
	</g>
	<g>
		<path class="st15" d="M247.4,230c-0.2,0-0.5,0-0.7-0.1c-0.4-0.1-0.7-0.4-0.8-0.7c-0.2-0.5-0.2-1.2,0-1.9c0.6-1.6,1.5-2.2,3.3-2.2
			h0.4l0.1,0.4c0.4,1.2,0.1,2.3-0.5,3.4C248.8,229.7,248.2,230,247.4,230z"/>
		<path d="M249.3,225.6c0.4,1.1,0.1,2.1-0.5,3c-0.4,0.6-0.8,0.9-1.4,0.9c-0.1,0-0.4,0-0.6-0.1c-0.7-0.2-0.8-1.1-0.5-2
			C247,226.2,247.7,225.6,249.3,225.6 M250,224.8h-0.7c-2,0-3,0.8-3.6,2.6c-0.2,0.8-0.2,1.5,0,2.1c0.2,0.5,0.6,0.8,1.1,0.9
			c0.2,0.1,0.6,0.1,0.8,0.1c0.9,0,1.6-0.5,2.1-1.4c0.7-1.2,0.8-2.5,0.5-3.7L250,224.8L250,224.8z"/>
	</g>
	<g>
		<path class="st12" d="M122.7,230c-0.6,0-1.1-0.2-1.5-0.7c-0.7-0.8-0.9-2.1-0.7-3.7v-0.4h0.5c0.9,0,1.9,0.5,2.6,1.2
			c0.6,0.7,0.8,1.5,0.7,2.3c-0.1,0.7-0.5,1.2-1.2,1.3C122.9,230,122.8,230,122.7,230z"/>
		<path d="M120.9,225.7c1.6,0,3,1.4,2.8,3c-0.1,0.5-0.4,0.8-0.8,0.9c-0.1,0-0.2,0-0.4,0c-0.5,0-0.8-0.2-1.2-0.6
			c-0.6-0.7-0.8-1.9-0.6-3.4C120.8,225.7,120.9,225.7,120.9,225.7 M120.9,224.8L120.9,224.8h-0.1h-0.7l-0.1,0.7
			c-0.2,1.8,0,3.3,0.8,4.1c0.6,0.6,1.2,0.8,1.9,0.8c0.2,0,0.4,0,0.6-0.1c0.8-0.2,1.3-0.8,1.4-1.6c0.1-0.9-0.1-2-0.8-2.7
			C123.2,225.3,122.1,224.8,120.9,224.8L120.9,224.8z"/>
	</g>
	<g>
		<path class="st16" d="M332.9,37.2l0.6-0.6c0.5-0.5,1.1-0.7,1.8-0.7h0.5v0.5c0.1,0.8-0.6,1.1-0.8,1.3l-0.1,0.1L332.9,37.2z"/>
		<path d="M335.3,36.3c0,0.5-0.2,0.6-0.6,0.8c-0.2-0.1-0.6-0.1-0.8-0.2C334.2,36.5,334.7,36.4,335.3,36.3 M336.1,35.3l-0.8,0.1
			c-0.8,0.1-1.5,0.4-2,0.8l-1.3,1.2l1.6,0.4l0.8,0.2h0.2l0.2-0.1c0.3-0.1,1.2-0.6,1.1-1.6L336.1,35.3L336.1,35.3z"/>
	</g>
</g>
<rect y="16.6" class="st17" width="400" height="300"/>
<path class="st18" d="M326.4,90.4c7.2,7,7.3,18.5,0.3,25.7l0,0l-0.3,0.3c-7.2,7.2-18.9,7.3-26.1,0.1c-7.2-7.2-7.3-18.9-0.1-26.1
	c7.2-7.2,18.9-7.3,26.1-0.1L326.4,90.4z M320.4,110.4c1.9-1.8,2.9-4.4,2.9-7c0.1-2.6-1-5.1-2.9-6.9c-1.9-1.9-4.4-2.9-7.1-2.8
	c-5.3-0.1-9.7,4.2-9.8,9.5v0.2c0,2.6,1,5.1,2.8,7s4.3,2.9,6.9,2.9C315.9,113.4,318.5,112.3,320.4,110.4z M362.6,92.7l-47.7,74.1
	c-0.8,1.5-2.4,2.5-4.1,2.4c-2.7-0.1-4.9-2.3-5-5c0.1-1,0.4-2,0.9-2.9l47.8-74.2c0.8-1.5,2.4-2.5,4.1-2.4c1.4,0,2.7,0.5,3.6,1.5
	c1,0.9,1.5,2.3,1.4,3.6C363.5,90.8,363.2,91.8,362.6,92.7L362.6,92.7z M342.8,163.8c-7.2-7.2-7.2-18.8,0-26l0.1-0.1
	c3.4-3.4,8.1-5.3,12.9-5.4c10.2-0.1,18.4,8.1,18.5,18.3s-8.1,18.4-18.3,18.5C351.1,169.3,346.3,167.3,342.8,163.8z M348.8,143.8
	c-3.9,3.7-4,9.8-0.3,13.7l0.1,0.1l0.2,0.2c3.8,3.8,9.9,3.9,13.7,0.1c2-1.9,3-4.6,2.9-7.4c-0.2-5.2-4.4-9.4-9.6-9.6
	C353.2,140.9,350.7,142,348.8,143.8L348.8,143.8z"/>
<g>
	<ellipse transform="matrix(0.2051 -0.9787 0.9787 0.2051 118.07 222.9435)" class="st19" cx="196.3" cy="38.8" rx="19.2" ry="35"/>
	<ellipse transform="matrix(0.225 -0.9744 0.9744 0.225 118.3084 219.6302)" class="st20" cx="197.2" cy="35.4" rx="17" ry="35"/>
	<ellipse transform="matrix(0.225 -0.9744 0.9744 0.225 118.3084 219.6302)" class="st21" cx="197.2" cy="35.4" rx="13.6" ry="28"/>
	<path class="st19" d="M187.7,37.8c0.4,1.8,3.6,3.4,6.9,3.8c2.1,0.2,3.9-0.2,4.7-1l0.5-0.4l0.9,0.3c0.9,0.3,2,0.6,3.1,0.7
		c3.4,0.4,5.7-0.8,5.2-2.5l-0.2-0.6l3.5,0.5c0.7,0.1,1.3-0.1,1.2-0.6c-0.1-0.4-0.8-0.7-1.5-0.8l-3.5-0.5l-0.6-2.4l3.5,0.5
		c0.7,0.1,1.3-0.1,1.1-0.5c-0.3-0.5-0.9-0.8-1.5-0.8l-3.5-0.5L207,31c-0.1-0.4-0.8-0.7-1.5-0.8c-0.7-0.1-1.3,0.1-1.1,0.5l0.4,1.9
		l-16.5-1.7L188,29c-0.1-0.4-0.8-0.7-1.5-0.8c-0.7-0.1-1.3,0.1-1.1,0.5l0.4,1.9l-3.5-0.5c-0.7-0.1-1.3,0.1-1.2,0.6
		c0.1,0.4,0.8,0.7,1.5,0.8l3.5,0.5l0.6,2.5l-3.5-0.5c-0.7-0.1-1.3,0.1-1.1,0.5c0.3,0.5,0.9,0.8,1.5,0.8l3.5,0.5L187.7,37.8z
		 M205.4,34.1l1.1,4.3c0.2,1-1.1,1.6-2.9,1.5c-1.9-0.1-3.8-1.2-4-2.2l-1.1-4.3L205.4,34.1z M188.9,32.3l6.9,0.8l1.5,5.6
		c0.2,1-1.1,1.6-2.9,1.5c-1.8-0.1-3.7-1.1-4-2.2L188.9,32.3z"/>
</g>
<g>
	
		<ellipse transform="matrix(0.7396 -0.6731 0.6731 0.7396 -73.036 274.2635)" class="st22" cx="317.9" cy="231.5" rx="53" ry="25.6"/>
	
		<ellipse transform="matrix(0.7396 -0.6731 0.6731 0.7396 -71.0645 272.0442)" class="st23" cx="316" cy="227.9" rx="51.9" ry="23.8"/>
	
		<ellipse transform="matrix(0.7396 -0.6731 0.6731 0.7396 -71.0645 272.0442)" class="st24" cx="316" cy="227.9" rx="41.6" ry="19.1"/>
	<path class="st25" d="M323.4,221.7l9.3-6.9c-0.9-0.9-1.6-1.6-2.2-2.6c-0.4-0.5-0.9-0.2-1.7,0.5c-3.1,2.1-6.1,4.3-9.1,6.6
		c-2,1.5-3.2,1.9-4.5,1.6c-1.6-0.3-1.9-0.3-3.9,2.2l2.4,0.4c-3.2,2.5-6.3,4.4-9.3,6.8l8,8.8c0.2,0.1,0.4,0.2,0.9-0.2
		c1.5-1,3-2,4.7-3.1l-5.5-6.1c1.8-1.2,3.4-2.3,5-3.6c2-1.6,3.3-2,4.6-1.7c1.6,0.4,1.7,0.2,3.9-2.2L323.4,221.7z"/>
</g>
<g>
	<ellipse class="st26" cx="72.2" cy="54" rx="37.9" ry="43.6"/>
	<ellipse class="st27" cx="67.6" cy="52.5" rx="36.6" ry="42.2"/>
	<ellipse class="st26" cx="67.6" cy="52.5" rx="29.3" ry="33.8"/>
	<path class="st27" d="M74,33c3.9,0,6.9,3.3,7.1,8c0.2,4.3-2.7,7.9-6.1,8.4c-0.5,0.1-1,0.2-1.5,0.1c-1.6-0.2-3,1-3.1,2.6v0.5
		c0,1.9,1.2,3.3,2.9,3.2c3.5-0.2,6.5,2.4,7.3,6.3c0.8,3-0.2,6.1-2.4,8.3c-1.8,2.1-4.9,2.6-7.3,1.2c-2.7-1.3-4.1-3.8-4.3-7.1
		c-0.1-1.6,0.2-3.2,0.9-4.6c0.6-1.2,0.3-2.6-0.6-3.6c-0.8-0.9-2-1-3-0.5c-0.4,0.3-0.8,0.6-1,1.1c-1.8,3-4.3,4.2-7.3,3.4
		c-3-0.7-4.9-3-5.6-6.6c-1-5,3-10.1,7.4-9.7c2.9,0.2,4.9,1.9,6.2,4.9c0.4,1.3,1.8,2,3,1.7c0.1,0,0.1,0,0.2-0.1
		c0.2-0.1,0.2-0.1,0.4-0.2c1.4-0.9,2-2.8,1.2-4.3c-0.7-1.4-1.2-2.9-1.3-4.4C66.7,36.7,69.8,33.1,74,33z"/>
</g>
<g>
	<path class="st28" d="M71.1,223.5c2.3,0.6,4.6,1.3,6.8,2.3l0.5,0.1c0.2,0.2,0.6,0.5,1,0.6l0.2,0.1c0.5,1,1.9,1.4,2.9,2.3
		c0.6,0.5,0.5,1.1,1.4,1.2c0.6,1.3,1.8,2.7,2.4,4.3c-0.1,0.1,0,0.2,0.1,0.4h0.1c0.1,1,0.2,1.9,0.6,2.9c0,0-0.5,0.1-0.1,0.2
		c-0.1,2.4-0.7,4.8-1.7,7c-1.2,1.4-2,3.7-3.6,5.1C70,265,30.1,272.7,20,255c0.1-0.2-0.4-0.2-0.4-0.6s0.2-0.5-0.1-0.6
		c-1.1-1.1-0.6-4.2-1-5.2c0.1-0.4,0.1-0.7,0-1.1c0.2-0.6,0.2-1.3,0.7-1.8c0.4-1.4,0.8-2.7,1.4-4c0.4-0.4,0.6-0.7,0.8-1.2
		c1.7-2.4,3.6-4.4,5.8-6.2c0.1-0.5,1-0.5,0.8-1.1c0.1,0.1,0.2,0,0.4-0.1V233c2.5-1.7,5.6-3.4,8.3-5.1c0.2,0,0.6-0.1,0.7-0.4
		c4.6-1.8,9.5-3.3,14.4-4.4c0.6,0.1,1.3,0,1.8-0.4c1.4,0,2.9-0.1,4.3-0.5c0.2,0,0.5,0.2,0.6-0.1c1.3,0.4,3-0.1,4.4,0.1
		c0.4-0.4,0.8,0.2,1.2-0.2c0.2,0.1,0.2-0.1,0.5-0.1c0.1,0.6,0.6,0.2,1,0.2C67.2,223.3,69,222.8,71.1,223.5z M79.5,245.2
		c6.7-11.1-4.6-18.1-14-19.1c-23.8-2.5-47.4,14.6-40,27.2c3.6,7,13.1,8.1,20.3,8.4c12.6-0.8,26.3-5.1,33.5-16.1L79.5,245.2z"/>
	<path class="st29" d="M79.4,245.6c-7.3,11.1-21,15.2-33.5,16.1c-7.1-0.4-16.8-1.4-20.3-8.4c-0.6-3.6,0.1-7.1,2-10.2
		c6.1-8.1,14.3-11.1,22.7-13.7c4.2-0.2,8.8-1.5,13.1-0.7c8.9,0.1,20.2,6.2,16.2,16.4C79.3,245,78.9,245.5,79.4,245.6z M53.3,237.2
		C53.7,237.3,53.6,236.6,53.3,237.2c-5.1,0.2-10.1,0.8-15.3,1.3l6.4,8c0.5-1.9,0.7-4,1.1-5.8C48.2,239.6,50.7,238.5,53.3,237.2z
		 M58.4,236.5c-3.7,1.1-7.5,3.2-11.3,4.6c-0.4,1.1-0.6,2.3-0.7,3.4c-0.4,1.4-0.6,2.9-0.8,4.3c0.2,0.2,0.5-0.1,0.7,0
		c7.5-0.4,15.3-0.6,23-1.3C65.8,244,62.4,239.6,58.4,236.5z"/>
	<path class="st29" d="M87.7,239.2l-0.1,0.2c0,1.4,0.2,2.9,0.7,4.3c-0.2,0.6,0.1,1.3-0.2,1.9c0.1,2.3-1.2,4.4-1.9,6.7
		c-1.8,2.4-3.7,4.8-5.8,6.9c-0.1,0-0.2,0-0.2,0.1v0.1c-1.4,0.7-2.9,2.5-4.5,3.2c-1.4,1.1-3.3,1.4-4.3,2.7c-0.1-0.1-0.2,0-0.4,0.1
		v0.1c-0.5-0.2-1,0-1.2,0.5c-0.1,0-0.2,0-0.4,0.2c-0.5-0.2-1,0-1.2,0.5c-0.1-0.1-0.2,0-0.4,0.2c-0.1-0.1-0.2,0-0.4,0.1v0.1
		c-0.4-0.1-0.6,0-0.8,0.2l0,0c-0.6-0.1-0.7,0-1,0.6c-3.8,0.8-7.8,2.3-11.9,3c-1,0.1-3-0.1-3.7,0.6c-1.8-0.4-4,0.4-6.1-0.1
		c-0.5,0.4-1-0.2-1.3,0.1c-4.8-0.6-9.6-1.3-13.8-3.6c-1.4-0.7-2.9-2.1-4.4-2.9c0-0.6-0.6-0.8-1.2-1.4c-1.8-2.5-2.9-5.5-3.1-8.6
		c11.2,18.6,51.3,8.8,61.5-5.4c1.5-1.3,2.5-3.4,3.6-5.1c1-2.3,1.5-4.6,1.7-7c0.6,0.4,0.4,1.1,0.5,1.5L87.7,239.2z"/>
	<path class="st30" d="M79.5,245.2c4-10.7-7.8-16.2-16.2-16.4c-4.3-0.8-8.8,0.5-13.1,0.7c-9,2.6-17.1,6.2-22.7,13.7
		c-1.2,2.1-2,4.5-2.4,6.9c-0.1,1.2,0.6,2,0.2,3.3c-3-4.6-0.7-10.1,2.5-14.2c9.4-10.8,25.8-14.3,37.5-13.1
		C78.2,227.7,85.1,236.2,79.5,245.2z"/>
	<path class="st30" d="M79.4,245.6c-0.1,0-0.2-0.2-0.2-0.4s0.2-0.2,0.4-0.2L79.4,245.6z"/>
	<path class="st28" d="M58.6,236.5c3.8,3.1,7.1,7.4,10.9,10.9c-7.4,0.7-15.3,1-23,1.3c2.4-2,6.4-3.6,9.4-5.1
		C56.8,241.3,57.6,239,58.6,236.5z"/>
	<path class="st31" d="M58.6,236.5c-0.8,2.4-1.8,4.6-2.6,7.3c-3,1.5-6.8,3-9.4,5.1c-0.2-0.1-0.5,0.4-0.7,0c0.2-1.4,0.5-2.9,0.8-4.3
		c0.1-1.2,0.4-2.4,0.7-3.4C51,239.8,54.9,237.5,58.6,236.5z"/>
	<path class="st28" d="M53.3,237.3l-7.8,3.3c-0.4,1.7-0.6,3.8-1.1,5.8l-6.4-8C43.2,238.1,48.2,237.4,53.3,237.3z"/>
</g>
</svg>
