<?xml version="1.0" encoding="utf-8"?>
<!-- Generator: Adobe Illustrator 24.3.0, SVG Export Plug-In . SVG Version: 6.00 Build 0)  -->
<svg version="1.1" id="Layer_1" xmlns="http://www.w3.org/2000/svg" xmlns:xlink="http://www.w3.org/1999/xlink" x="0px" y="0px"
	 viewBox="0 0 53.4 45.1" style="enable-background:new 0 0 53.4 45.1;" xml:space="preserve">
<style type="text/css">
	.st0{fill:#BFA161;}
</style>
<path class="st0" d="M44.6,6.1c2.3,0,4.1,1.8,4.1,4.1c0,1.3-0.6,2.5-1.7,3.3l-18.7,14c-1,0.7-2.3,0.7-3.3,0l-18.7-14
	c-1-0.8-1.7-2-1.7-3.3c0-2.3,1.8-4.1,4.1-4.1H44.6z M23.4,29.7c2,1.5,4.6,1.5,6.6,0l18.7-14v17.9c0,3-2.5,5.5-5.5,5.5h-33
	c-3,0-5.5-2.5-5.5-5.5V15.7L23.4,29.7z"/>
</svg>
