<?xml version="1.0" encoding="utf-8"?>
<!-- Generator: Adobe Illustrator 24.3.0, SVG Export Plug-In . SVG Version: 6.00 Build 0)  -->
<svg version="1.1" id="Layer_1" xmlns="http://www.w3.org/2000/svg" xmlns:xlink="http://www.w3.org/1999/xlink" x="0px" y="0px"
	 viewBox="0 0 400 300" style="enable-background:new 0 0 400 300;" xml:space="preserve">
<style type="text/css">
	.st0{fill:none;}
	.st1{fill:#183E7E;}
	.st2{fill:#2D66AF;}
	.st3{fill:#7FC6EE;}
	.st4{fill:#0295D4;}
	.st5{fill:#F1EB0D;}
	.st6{fill:#444358;}
	.st7{fill:#E7EEF4;}
	.st8{fill:#3889B1;}
	.st9{fill:#432C79;}
	.st10{fill:#32255F;}
	.st11{fill:#BAB8DD;}
	.st12{fill:#7778B8;}
	.st13{fill:#504894;}
	.st14{fill:#EFB02B;}
	.st15{fill:#86CBC5;}
	.st16{fill:#D7DDE2;}
	.st17{fill:#EFF8FE;}
	.st18{fill:#B2D0E9;}
	.st19{fill:#2853A1;}
	.st20{fill:#FCDCC8;}
	.st21{fill:#592D15;}
	.st22{fill:#EBEBEB;}
</style>
<rect x="0.5" y="0.8" class="st0" width="400" height="300"/>
<g>
	<g>
		<path d="M255.8,274.4c-4.1,0.2-7.5-1.6-11-3.1c-22.3-9.7-44.5-19.4-66.8-29.1c-6.3-2.7-10.3-7.2-11.1-14.2
			c-0.3-2.4,0.3-4.7,1.3-6.9c11-25.3,22-50.7,33-76c14.1-32.3,28.1-64.7,42.1-97c1.3-3,2.5-6.1,5.3-8.1c5.5-4,11.5-4.2,17.6-1.6
			c8.8,3.8,17.5,7.6,26.3,11.4c14.8,6.4,29.6,12.9,44.5,19.3c7.6,3.3,13.6,12.4,8.7,21.9c-1.7,3.4-3.1,7-4.6,10.6
			c-17.7,40.7-35.4,81.4-53,122c-6,13.7-12,27.5-17.9,41.3C267.4,271.4,262.4,274.1,255.8,274.4z M294.7,191.5
			c0.5-0.5,0.7-1.2,0.8-1.8c0.6-0.8,0.9-1.7,1.2-2.6c11.3-26,22.6-52,33.9-78c1.8-4.1,3.6-8.1,5.4-12.3c-29.9-13-59.7-25.9-89.6-39
			c-1.8,4.1-3.4,8.1-5.1,12c-0.1,0.1-0.2,0.2-0.2,0.3c-10.4,23.8-20.7,47.7-31.1,71.5c-3.2,7.4-6.4,14.9-9.6,22.3
			c-4.6,10.5-9.2,21-13.7,31.4c-2.2,5.1-4.4,10.2-6.7,15.4c29.9,13,59.6,25.9,89.4,38.9c0.4-1,0.8-1.7,1.1-2.4
			c4.1-9.5,8.2-18.9,12.4-28.4c2.7-6.3,5.4-12.6,8.1-18.9c0.7-1,1.1-2.1,1.5-3.3c0.5-1.1,0.9-2.2,1.4-3.3
			C294.3,192.8,294.5,192.2,294.7,191.5z M219.1,234.3c-5.2-0.2-9.6,4-9.8,9.3c-0.2,5.2,4.1,9.6,9.4,9.8c5.1,0.1,9.6-4.1,9.7-9.2
			C228.6,238.9,224.4,234.4,219.1,234.3z M307,70.4c0-0.7-0.5-1.1-1.2-1.3c-6.1-2.7-12.3-5.3-18.4-8c-1-0.4-2-0.5-2.5,0.7
			c-0.5,1.2,0.3,1.8,1.3,2.3c1.7,0.8,3.4,1.5,5.1,2.2c4.4,1.9,8.7,3.8,13.1,5.7C305.9,72.6,307.1,71.9,307,70.4z M278.6,61.5
			c1.3,0,2.5-1.2,2.5-2.4c0-1.3-1.3-2.5-2.5-2.5c-1.4,0.1-2.3,0.9-2.4,2.4C276,60.2,277.3,61.4,278.6,61.5z"/>
	</g>
	<g>
		<path class="st1" d="M272,83.9c-4.3-2.1-8.8-4-13.2-5.9c-5.3-2.2-10.5-4.6-15.8-6.9c-0.7-0.3-1.4-0.5-1.6-1.4
			c1.7-4,3.4-7.9,5.1-12c29.9,13,59.7,26,89.6,39c-1.9,4.2-3.6,8.3-5.4,12.3c-5.9-2.1-11.5-4.9-17.2-7.3c-9.2-3.9-18.3-8-27.4-11.9
			c-0.7-0.3-1.3-0.6-2.1-0.6l0,0c-0.2-0.3-0.5-0.3-0.8-0.4l0,0C279.6,86.8,275.8,85.3,272,83.9z M256.4,74.2
			C256.4,74.2,256.4,74.2,256.4,74.2c0.4,1.3,1.5,0.8,2.2,1.2c0.5,0.2,0.9,0.3,1.5,0.5c1.1-2.6,2.2-5.1,3.3-7.8
			c-0.5-0.3-0.9-0.7-1.6-0.6c-0.3,0.5-0.5,1.1-0.8,1.6c-0.2,0-0.3,0-0.5,0c0.6-1.5-0.6-1.2-1.2-1.4c-0.6,0.6-0.5,1.4-1.3,1.9
			c0.1-0.7,0.2-1.3-0.6-1.6c-1.1-0.4-1,0.9-1.7,1c-0.4-0.5-0.9-0.9-1.7-0.8c-0.3,0.6-0.6,1.2-0.9,1.8c-0.1-0.1-0.2-0.2-0.3-0.3
			c0.4-1.2-0.5-1.2-1.3-1.4c-0.3,0.5-0.5,0.9-0.8,1.4c-0.5-0.6-1-1.2-1.8-1.1c-0.4,0.6-0.7,1.3-0.9,2c1,1,1.7,0.7,2.3-0.6
			c-0.1,1.3-0.3,2.6,1.5,1.7c0.1-0.1,0.4-0.3,0.4,0c0,1.5,1.6,1,2.2,1.8C255,74.4,255.6,74.5,256.4,74.2z"/>
	</g>
	<g>
		<path class="st2" d="M219.1,234.3c5.3,0.2,9.5,4.6,9.3,9.9c-0.2,5.2-4.6,9.4-9.7,9.2c-5.3-0.1-9.5-4.5-9.4-9.8
			C209.5,238.3,213.9,234.1,219.1,234.3z M226,243.9c0.1-4-3-7.2-7-7.3c-3.8-0.1-7.1,3.1-7.2,7c-0.1,3.9,3.1,7.1,7,7.3
			C222.5,251,225.8,247.9,226,243.9z"/>
	</g>
	<g>
		<path class="st3" d="M307,70.4c0.1,1.5-1.1,2.1-2.6,1.5c-4.4-1.9-8.7-3.8-13.1-5.7c-1.7-0.7-3.4-1.5-5.1-2.2c-1-0.4-1.8-1-1.3-2.3
			c0.5-1.2,1.6-1.1,2.5-0.7c6.1,2.6,12.3,5.3,18.4,8C306.5,69.4,307,69.8,307,70.4z"/>
	</g>
	<g>
		<path class="st3" d="M278.6,61.5c-1.3,0-2.6-1.3-2.4-2.5c0.2-1.4,1-2.2,2.4-2.4c1.3-0.1,2.5,1.2,2.5,2.5
			C281.1,60.3,279.9,61.5,278.6,61.5z"/>
	</g>
	<g>
		<path class="st4" d="M284.2,92.1c0.1,0.1,0.3,0.3,0.4,0.4C284.5,92.4,284.3,92.3,284.2,92.1z"/>
	</g>
	<g>
		<path class="st5" d="M253.2,70c0.3-0.6,0.6-1.2,0.9-1.8c0.8-0.1,1.3,0.3,1.7,0.8c0.7-0.1,0.6-1.4,1.7-1c0.8,0.3,0.7,0.8,0.6,1.6
			c0.9-0.5,0.8-1.3,1.3-1.9c0.6,0.3,1.8-0.1,1.2,1.4c-0.8,1.9-1.7,3.8-2.5,5.7c-0.7,0.1-1.1-0.2-1.6-0.5c0,0,0-0.1,0-0.1
			c-0.6-0.2-1.3-0.4-1.9-0.5c-0.6-0.8-2.2-0.3-2.2-1.8c0-0.3-0.2-0.1-0.4,0c-1.9,0.8-1.6-0.4-1.5-1.7c-0.6,1.2-1.3,1.5-2.3,0.6
			c0.2-0.8,0.4-1.4,0.9-2c0.8-0.1,1.3,0.5,1.8,1.1c0.3-0.5,0.5-0.9,0.8-1.4c0.8,0.2,1.7,0.2,1.3,1.4c-0.3,0.4-0.6,0.7-0.4,1.2
			C253.1,70.9,253,70.3,253.2,70z"/>
	</g>
	<g>
		<path class="st5" d="M261.1,69.1c0.3-0.5,0.5-1.1,0.8-1.6c0.7-0.1,1.1,0.3,1.6,0.6c-1.1,2.6-2.2,5.2-3.3,7.8
			c-0.6-0.2-1-0.4-1.5-0.5C259.5,73.3,260.3,71.2,261.1,69.1z"/>
	</g>
	<g>
		<path class="st6" d="M261.1,69.1c-0.8,2.1-1.6,4.1-2.4,6.2c-0.7-0.4-1.9,0.1-2.2-1.1c0.5,0.3,0.9,0.6,1.6,0.5
			c0.8-1.9,1.7-3.8,2.5-5.7C260.7,69.1,260.9,69.1,261.1,69.1z"/>
	</g>
	<g>
		<path class="st6" d="M254.5,73.6c0.6,0.2,1.3,0.4,1.9,0.5C255.6,74.5,255,74.4,254.5,73.6z"/>
	</g>
	<g>
		<path class="st4" d="M283.9,89.2c-0.3-0.1-0.5-0.3-0.8-0.4C283.4,88.8,283.7,88.9,283.9,89.2z"/>
	</g>
	<g>
		<path class="st7" d="M226,243.9c-0.1,3.9-3.4,7.1-7.3,6.9c-3.9-0.1-7.1-3.4-7-7.3c0.1-3.9,3.4-7.1,7.2-7
			C223,236.7,226.1,239.9,226,243.9z M215.6,238.7c1.9,1.4,2.6-0.2,3.6-0.9C218,237.7,216.8,237.8,215.6,238.7z M222.2,248.8
			c-1.8-1.5-2.7,0.2-3.7,0.8C219.7,249.8,220.9,249.6,222.2,248.8z M214.9,248.1c-0.3-3.1-0.3-3.1-2-3.2
			C213.3,246.1,213.7,247.3,214.9,248.1z M218.5,243c0.5-0.8,1-1.3-0.1-1.8c-1.1-0.5-1.5-0.1-1.8,1
			C217.2,242.4,217.8,242.7,218.5,243z M216.1,243.2c-0.7,1-0.3,1.5,0.7,1.9c1.3,0.5,1-0.5,1.2-1.1
			C217.4,243.6,216.8,243.2,216.1,243.2z M219.7,243.4c0.7,0.4,1.3,0.9,2,0.7c0.6-0.9,0.2-1.4-0.6-1.8
			C220.1,242,219.9,242.6,219.7,243.4z M214.5,244c1-1.7-0.2-1.8-1.2-2.2C212.2,243.3,213.3,243.6,214.5,244z M222.9,239.6
			c0.4,1.1-0.4,2.8,1.9,3.1C224.5,241.4,224,240.3,222.9,239.6z M219.3,244.5c-0.4,0.6-1.1,1.1,0,1.7c1,0.5,1.6,0.3,1.8-0.8
			C220.6,244.9,220,244.7,219.3,244.5z M224,246.7c-1.6-1-1.6-1-2.4,0.4C222.5,247.7,223.5,248.4,224,246.7z M224.4,245.6
			c1-1.7-0.2-1.8-1.2-2.1C222.3,245.1,223.5,245.2,224.4,245.6z"/>
	</g>
	<g>
		<path class="st1" d="M253.2,70c-0.2,0.3-0.1,0.8-0.7,1c-0.2-0.5,0.1-0.9,0.4-1.2C253,69.9,253.1,69.9,253.2,70z"/>
	</g>
	<g>
		<path class="st8" d="M215.6,238.7c1.2-0.9,2.4-1,3.6-0.9C218.2,238.5,217.5,240.1,215.6,238.7z"/>
	</g>
	<g>
		<circle class="st3" cx="218.9" cy="243.8" r="6.3"/>
	</g>
	<g>
		<polygon class="st9" points="241.3,69.8 180,210.8 269.4,249.7 330.6,109 		"/>
	</g>
	<g>
		
			<rect x="262.6" y="91.5" transform="matrix(0.4036 -0.915 0.915 0.4036 29.0384 325.0705)" class="st10" width="2.6" height="97.5"/>
	</g>
	<g>
		<path class="st11" d="M284.6,143.6c-0.1,0-0.1,0-0.2,0c-0.2-0.1-0.3-0.2-0.4-0.4l-3.4-21.9l-13.1,3.2c-0.3,0.1-0.6-0.1-0.7-0.4
			l-3.4-9.7l-15.2,6.7c-0.2,0.1-0.4,0.1-0.5,0c-0.2-0.1-0.3-0.3-0.3-0.5V97.1l-6.2,0.2c-0.3,0-0.6-0.2-0.6-0.5
			c0-0.3,0.2-0.6,0.5-0.6l6.8-0.3c0.2,0,0.3,0.1,0.4,0.2c0.1,0.1,0.2,0.3,0.2,0.4v23.3l15-6.6c0.1-0.1,0.3-0.1,0.4,0
			c0.1,0.1,0.3,0.2,0.3,0.3l3.4,9.8L281,120c0.2,0,0.3,0,0.4,0.1c0.1,0.1,0.2,0.2,0.2,0.4l3.3,21.4l21.6-21.7
			c0.1-0.1,0.3-0.2,0.5-0.2c0.2,0,0.3,0.2,0.4,0.3l4.2,9.8h6.5c0.3,0,0.6,0.2,0.6,0.6c0,0.3-0.2,0.6-0.6,0.6h-6.8
			c-0.2,0-0.4-0.1-0.5-0.3l-4-9.3L285,143.5C284.9,143.6,284.7,143.6,284.6,143.6z"/>
	</g>
	<g>
		<path class="st12" d="M278.6,188.8c-0.1,0-0.2,0-0.3-0.1c-0.3-0.1-0.5-0.4-0.5-0.7v-21.2l-14.1-5.3l-9.2,1.7c-0.2,0-0.4,0-0.6-0.1
			c-0.2-0.1-0.3-0.3-0.3-0.5l-1.4-8.2l-23.6,6.4c-0.3,0.1-0.7-0.1-0.9-0.4l-3.1-6.5l-9.8,0.3c-0.4,0-0.8-0.3-0.8-0.7
			c0-0.4,0.3-0.8,0.7-0.8l10.3-0.3c0.3,0,0.6,0.2,0.7,0.4l3,6.4l23.8-6.5c0.2-0.1,0.4,0,0.6,0.1c0.2,0.1,0.3,0.3,0.3,0.5l1.4,8.2
			l8.7-1.6c0.1,0,0.3,0,0.4,0l14.8,5.6c0.3,0.1,0.5,0.4,0.5,0.7v19.9l16-16.1c0.3-0.3,0.8-0.3,1.1,0c0.3,0.3,0.3,0.8,0,1.1
			l-17.2,17.4C279,188.7,278.8,188.8,278.6,188.8z"/>
	</g>
	<g>
		<g>
			
				<rect x="209.7" y="160.1" transform="matrix(0.4005 -0.9163 0.9163 0.4005 -50.4682 339.5894)" class="st10" width="49.2" height="96.6"/>
		</g>
		<g>
			<path class="st13" d="M228.4,188.5c-0.1,0-0.3,0-0.4-0.1l-25.8-11.3c-0.6-0.2-0.8-0.9-0.6-1.5c0.2-0.6,0.9-0.8,1.5-0.6l25.8,11.3
				c0.6,0.2,0.8,0.9,0.6,1.5C229.2,188.3,228.8,188.5,228.4,188.5z"/>
		</g>
		<g>
			<path class="st13" d="M266.9,205.4c-0.1,0-0.3,0-0.4-0.1L240.6,194c-0.6-0.2-0.8-0.9-0.6-1.5c0.2-0.6,0.9-0.8,1.5-0.6l25.8,11.3
				c0.6,0.2,0.8,0.9,0.6,1.5C267.7,205.1,267.3,205.4,266.9,205.4z"/>
		</g>
		<g>
			<path class="st13" d="M281.8,220.6c0,0-0.1,0-0.1,0l-88.5-38.7c-0.2-0.1-0.3-0.3-0.2-0.5c0.1-0.2,0.3-0.3,0.5-0.2l88.5,38.7
				c0.2,0.1,0.3,0.3,0.2,0.5C282.1,220.5,282,220.6,281.8,220.6z"/>
		</g>
		<g>
			
				<ellipse transform="matrix(0.4005 -0.9163 0.9163 0.4005 -24.9685 379.2582)" class="st14" cx="277.4" cy="208.7" rx="2.4" ry="2.7"/>
		</g>
		<g>
			<path class="st13" d="M221.8,203.6c-0.1,0-0.3,0-0.4-0.1l-25.8-11.3c-0.6-0.2-0.8-0.9-0.6-1.5c0.2-0.6,0.9-0.8,1.5-0.6l25.8,11.3
				c0.6,0.2,0.8,0.9,0.6,1.5C222.6,203.3,222.2,203.6,221.8,203.6z"/>
		</g>
		<g>
			<path class="st13" d="M260.3,220.4c-0.1,0-0.3,0-0.4-0.1L234,209c-0.6-0.2-0.8-0.9-0.6-1.5c0.2-0.6,0.9-0.8,1.5-0.6l25.8,11.3
				c0.6,0.2,0.8,0.9,0.6,1.5C261.1,220.1,260.7,220.4,260.3,220.4z"/>
		</g>
		<g>
			<path class="st13" d="M275.3,235.6c0,0-0.1,0-0.1,0l-88.5-38.7c-0.2-0.1-0.3-0.3-0.2-0.5c0.1-0.2,0.3-0.3,0.5-0.2l88.5,38.7
				c0.2,0.1,0.3,0.3,0.2,0.5C275.5,235.5,275.4,235.6,275.3,235.6z"/>
		</g>
		<g>
			
				<ellipse transform="matrix(0.4005 -0.9163 0.9163 0.4005 -42.6625 382.2455)" class="st15" cx="270.8" cy="223.7" rx="2.4" ry="2.7"/>
		</g>
		<g>
			<g>
				<path class="st13" d="M215.2,218.6c-0.1,0-0.3,0-0.4-0.1l-25.8-11.3c-0.6-0.2-0.8-0.9-0.6-1.5c0.2-0.6,0.9-0.8,1.5-0.6
					l25.8,11.3c0.6,0.2,0.8,0.9,0.6,1.5C216.1,218.4,215.7,218.6,215.2,218.6z"/>
			</g>
			<g>
				<path class="st13" d="M253.7,235.4c-0.1,0-0.3,0-0.4-0.1L227.4,224c-0.6-0.2-0.8-0.9-0.6-1.5c0.2-0.6,0.9-0.8,1.5-0.6l25.8,11.3
					c0.6,0.2,0.8,0.9,0.6,1.5C254.6,235.2,254.2,235.4,253.7,235.4z"/>
			</g>
			<g>
				
					<ellipse transform="matrix(0.4005 -0.9163 0.9163 0.4005 -60.3932 385.2388)" class="st14" cx="264.2" cy="238.8" rx="2.4" ry="2.7"/>
			</g>
		</g>
	</g>
	<g>
		<g>
			<path class="st16" d="M198.1,176.1H67c-2.5,0-4.5-2-4.5-4.5V81.2c0-2.5,2-4.5,4.5-4.5h131.1c2.5,0,4.5,2,4.5,4.5v90.5
				C202.5,174.1,200.5,176.1,198.1,176.1z"/>
		</g>
		<g>
			<path class="st16" d="M198.1,176.7H67c-2.8,0-5-2.3-5-5V81.2c0-2.8,2.3-5,5-5h131.1c2.8,0,5,2.3,5,5v90.5
				C203.1,174.4,200.8,176.7,198.1,176.7z M67,77.2c-2.2,0-3.9,1.8-3.9,3.9v90.5c0,2.2,1.8,3.9,3.9,3.9h131.1c2.2,0,3.9-1.8,3.9-3.9
				V81.2c0-2.2-1.8-3.9-3.9-3.9H67z"/>
		</g>
	</g>
	<g>
		<path class="st17" d="M121.1,160.7h-42c-2.5,0-4.5-2-4.5-4.5V93.2c0-2.5,2-4.5,4.5-4.5h42c2.5,0,4.5,2,4.5,4.5v63.1
			C125.6,158.7,123.6,160.7,121.1,160.7z"/>
	</g>
	<g>
		<path class="st18" d="M191.5,105.6h-12.8c-2.5,0-4.5-2-4.5-4.5v-7.9c0-2.5,2-4.5,4.5-4.5h12.8c2.5,0,4.5,2,4.5,4.5v7.9
			C196,103.6,194,105.6,191.5,105.6z"/>
	</g>
	<g>
		<path class="st18" d="M166.8,108h-32.1c-0.7,0-1.3-0.6-1.3-1.3c0-0.7,0.6-1.3,1.3-1.3h32.1c0.7,0,1.3,0.6,1.3,1.3
			C168.1,107.4,167.6,108,166.8,108z"/>
	</g>
	<g>
		<path class="st18" d="M196,121.9h-61.3c-0.7,0-1.3-0.6-1.3-1.3s0.6-1.3,1.3-1.3H196c0.7,0,1.3,0.6,1.3,1.3S196.7,121.9,196,121.9z
			"/>
	</g>
	<g>
		<path class="st18" d="M157.8,137.7h-23.1c-0.7,0-1.3-0.6-1.3-1.3c0-0.7,0.6-1.3,1.3-1.3h23.1c0.7,0,1.3,0.6,1.3,1.3
			C159.1,137.2,158.5,137.7,157.8,137.7z"/>
	</g>
	<g>
		<path class="st18" d="M196.7,137.7h-31.3c-0.7,0-1.3-0.6-1.3-1.3c0-0.7,0.6-1.3,1.3-1.3h31.3c0.7,0,1.3,0.6,1.3,1.3
			C198,137.2,197.4,137.7,196.7,137.7z"/>
	</g>
	<g>
		<path class="st18" d="M175.2,152.6c-1.3,0.5-2.7,1-4,1.4c-1.1,0.4-3.3,1.3-2.4-0.7c0.5-1.2-1.5-2-2-0.9c-1.1,2.2-2.6,3.9-4.5,5.1
			c0-1.7,0-3.4,0-5.1c0-0.8-1-1.5-1.7-1c-0.8,0.6-1.5,1.1-2.3,1.5c-0.5,0.3-0.7,0.5-1.3,0.3c-0.8-0.4-0.2-0.7,0.2-1.4
			c0.7-1.1-0.9-2.2-1.8-1.4c-2,1.9-4.1,3.7-6.4,5.2c0.6-1.7,1.3-3.4,2.2-5c0.6-1.3-1.2-2.4-1.9-1.1c-0.2,0.3-0.3,0.6-0.5,0.9
			c-1.2,2-2.7,3.8-4.5,5.4c-1.7,1.4-5.1,3.9-7.4,3.6c-2.6-0.4-0.9-5.5-0.3-7c1.1-2.7,2.8-4.9,5.1-6.7c1.1-0.9-0.5-2.5-1.6-1.6
			c-2.8,2.3-4.9,5.3-6,8.8c-0.8,2.5-1.6,6.6,0.9,8.4c2.6,1.7,6.9-1,9.1-2.5c0.8-0.5,1.5-1.1,2.1-1.7c-0.1,0.3-0.1,0.5-0.2,0.8
			c-0.2,0.9,0.8,1.8,1.6,1.3c2.3-1.4,4.5-2.9,6.6-4.6c0.2,0.5,0.5,1,1.1,1.3c1.3,0.7,3.1-0.2,4.6-1.2c0,1.6,0,3.2,0,4.8
			c0,0.9,0.9,1.3,1.7,1c2-0.9,3.8-2.3,5.2-4c0.3,0.3,0.7,0.5,1.2,0.6c1.1,0.2,2.4-0.4,3.4-0.7c1.5-0.5,2.9-1,4.4-1.5
			C177.1,154.2,176.5,152,175.2,152.6z"/>
	</g>
	<g>
		<g>
			<path class="st19" d="M124.8,159.8c-1.7-5.5-12.1-9.7-24.7-9.7c-12.6,0-23,4.2-24.7,9.7H124.8z"/>
		</g>
		<g>
			<ellipse class="st20" cx="100.1" cy="129.3" rx="15" ry="19.6"/>
		</g>
		<g>
			<ellipse class="st20" cx="100.1" cy="151.7" rx="8" ry="6"/>
		</g>
		<g>
			<rect x="92.1" y="136.8" class="st20" width="16" height="15.1"/>
		</g>
		<g>
			<path class="st21" d="M115.8,126.6c0-2.5-0.2-5-0.7-7.5c0-0.7-0.2-1.4-0.5-2.1c-1.6-3.2-5.6-5.6-8.7-7.1
				c-3.5-1.6-7.3-2.5-11.1-2.5c-1.4,0-3.7-0.1-3.7,1.9c0,0.3,0.1,0.6,0.2,0.9c-0.5-0.3-1.1-0.5-1.6-0.8c-1.4-0.6-3-0.8-4.3,0.2
				c-1.1,0.8-1.4,2.2-0.7,3.4c0.2,0.3,0.3,0.5,0.5,0.7c-0.8-0.1-1.6-0.2-2.2,0c-2,0.6-0.7,3.3,0.1,4.4c0.6,0.8,1.2,1.5,2,2
				c-0.7,2.7-0.5,5.7-0.6,8.5c0,1.1,1.6,1.1,1.7,0c0.1-2.2,0.7-4.3,1.8-6.2c0.2,0.2,0.4,0.3,0.8,0.1c0.3-0.1,0.6-0.2,0.9-0.2
				c0.9,0.3,1.8,0.6,2.7,0.8c0.5,0.1,1.1,0.2,1.6,0.3c1,0.4,1.9,0.8,2.8,1c2.8,0.6,5.7,0.6,8.5,0.5c2.4,0,4.8-0.3,6.9-1.2
				c0.4-0.2,0.8-0.4,1.2-0.6c0.5,1.1,0.8,2.2,0.9,3.4c0,1.1-0.1,2.2-0.2,3.3c-0.1,0.9,1.5,1.1,1.6,0.2
				C115.8,128.8,115.9,127.7,115.8,126.6z"/>
		</g>
	</g>
</g>
<path class="st22" d="M124.8,197.4c-14.5,0-26.3,11.8-26.3,26.3c0,14.5,11.8,26.3,26.3,26.3c14.5,0,26.3-11.8,26.3-26.3
	C151.1,209.2,139.3,197.4,124.8,197.4z M139,219.4l-15.7,11.8c-0.4,0.3-0.8,0.4-1.3,0.4c-0.6,0-1.1-0.2-1.6-0.7l-5.5-5.7
	c-0.8-0.9-0.8-2.2,0.1-3.1c0.9-0.8,2.2-0.8,3.1,0.1l4.2,4.3l14.2-10.7c1-0.7,2.3-0.5,3,0.4C140.1,217.3,139.9,218.7,139,219.4z"/>
<g>
	<path class="st12" d="M226.1,130.2c0.4,2.9,0.8,5.8,1.2,8.7c-2,0.6-3.9,1.1-6,1.7c-0.9-1.9-1.8-3.7-2.6-5.6
		C221.2,133.4,223.6,131.8,226.1,130.2z"/>
	<path class="st12" d="M218.4,136.2c0.8,1.8,1.7,3.5,2.5,5.3c1.9-0.5,3.8-1.1,5.7-1.6c0,0,0,0.1,0.1,0.1c-2.4,1.7-4.9,3.5-7.4,5.3
		c-0.3-3.1-0.6-6-0.9-9C218.4,136.2,218.4,136.2,218.4,136.2z"/>
</g>
<g>
	<path class="st11" d="M246.4,89.9c1.3,0.6,2.9,0.1,3.5-1.2c0.4-0.8,0.3-1.8-0.2-2.5l-0.2-0.4l0.4-0.3c0.4-0.3,0.7-0.6,0.9-1
		c0.6-1.3,0.1-2.9-1.3-3.5l-0.4-0.2l0.6-1.4c0.1-0.3,0-0.6-0.3-0.7c-0.3-0.1-0.6,0-0.7,0.3l-0.6,1.4l-1.8-0.8l0.6-1.4
		c0.1-0.3,0-0.6-0.3-0.7c-0.3-0.1-0.6,0-0.7,0.3l-0.6,1.4l-1.4-0.6c-0.3-0.1-0.6,0-0.7,0.3c-0.1,0.3,0,0.6,0.3,0.7l1.4,0.6l-3.1,6.5
		l-1.4-0.6c-0.3-0.1-0.6,0-0.7,0.3c-0.1,0.3,0,0.6,0.3,0.7l1.4,0.6l-0.6,1.4c-0.1,0.3,0,0.6,0.3,0.7s0.6,0,0.7-0.3l0.6-1.4l1.8,0.8
		l-0.6,1.4c-0.1,0.3,0,0.6,0.3,0.7s0.6,0,0.7-0.3l0.6-1.4L246.4,89.9C246.4,89.9,246.4,89.9,246.4,89.9z M245.7,80.5L249,82
		c0.8,0.4,1.1,1.3,0.7,2c-0.4,0.8-1.3,1.1-2,0.7l-3.2-1.5L245.7,80.5z M242.7,86.9l1.3-2.7l4.2,2c0.8,0.4,1.1,1.3,0.7,2
		s-1.3,1.1-2,0.7L242.7,86.9z"/>
</g>
</svg>
