<?xml version="1.0" encoding="utf-8"?>
<!-- Generator: Adobe Illustrator 24.3.0, SVG Export Plug-In . SVG Version: 6.00 Build 0)  -->
<svg version="1.1" id="Layer_1" xmlns="http://www.w3.org/2000/svg" xmlns:xlink="http://www.w3.org/1999/xlink" x="0px" y="0px"
	 viewBox="0 0 51.1 48.2" style="enable-background:new 0 0 51.1 48.2;" xml:space="preserve">
<style type="text/css">
	.st0{fill:#BFA161;}
</style>
<path class="st0" d="M45.1,34.2l-1.8,7.8c-0.3,1.1-1.2,1.9-2.3,1.9C21.6,43.8,5.8,28,5.8,8.6c0-1.1,0.8-2.1,1.9-2.3l7.8-1.8
	c1.1-0.3,2.3,0.3,2.8,1.4l3.6,8.3c0.4,1,0.1,2.1-0.7,2.8l-4.1,3.3c2.6,5.3,6.9,9.7,12.3,12.3l3.4-4.1c0.7-0.8,1.8-1.1,2.8-0.7
	l8.3,3.6C44.8,31.9,45.4,33,45.1,34.2z"/>
</svg>
