<?xml version="1.0" encoding="utf-8"?>
<!-- Generator: Adobe Illustrator 24.3.0, SVG Export Plug-In . SVG Version: 6.00 Build 0)  -->
<svg version="1.1" id="Layer_1" xmlns="http://www.w3.org/2000/svg" xmlns:xlink="http://www.w3.org/1999/xlink" x="0px" y="0px"
	 viewBox="0 0 400 300" style="enable-background:new 0 0 400 300;" xml:space="preserve">
<style type="text/css">
	.st0{fill:none;}
	.st1{fill:#C98017;}
	.st2{fill:#FBED60;}
	.st3{fill:#FABA31;}
	.st4{fill:#68C2EE;}
	.st5{fill:#0491BE;}
	.st6{fill:#68C2EF;}
	.st7{fill:#31798F;}
	.st8{fill:#C1BDBE;}
	.st9{fill:#6E6E6E;}
	.st10{fill:#6C6C6C;}
	.st11{fill:#BCBCBC;}
	.st12{fill:#E1E1E1;}
	.st13{fill:#0A0A09;}
	.st14{fill:#F3F2EF;}
	.st15{clip-path:url(#SVGID_2_);}
	.st16{fill:#FF0000;}
	.st17{fill:#006600;}
	.st18{fill-rule:evenodd;clip-rule:evenodd;fill:#FFFF00;}
	.st19{fill:#FFFFFF;}
	.st20{fill:#FFFF00;}
	.st21{fill:#003399;}
</style>
<rect y="16.6" class="st0" width="400" height="300"/>
<g>
	
		<ellipse transform="matrix(0.6003 -0.7998 0.7998 0.6003 -132.3437 253.7043)" class="st1" cx="187.6" cy="259.3" rx="19.2" ry="35"/>
	
		<ellipse transform="matrix(0.6165 -0.7874 0.7874 0.6165 -129.2252 247.9489)" class="st2" cx="189.9" cy="256.6" rx="17" ry="35"/>
	
		<ellipse transform="matrix(0.6165 -0.7874 0.7874 0.6165 -129.2252 247.9489)" class="st3" cx="189.9" cy="256.6" rx="13.6" ry="28"/>
	<path class="st1" d="M180.3,254.7c-0.4,1.8,1.8,4.6,4.6,6.4c1.8,1.1,3.6,1.5,4.7,1.1l0.6-0.2l0.7,0.7c0.7,0.7,1.6,1.4,2.5,1.9
		c2.9,1.8,5.5,1.7,5.8-0.1l0.1-0.6l3,1.9c0.6,0.4,1.2,0.4,1.3,0s-0.4-1-1-1.4l-3-1.9l0.5-2.4l3,1.9c0.6,0.4,1.2,0.4,1.2,0
		c-0.1-0.6-0.5-1.1-1-1.4l-3-1.9l0.4-1.9c0.1-0.4-0.4-1-1-1.4c-0.6-0.4-1.2-0.4-1.2,0l-0.4,1.9l-14.2-8.5l0.4-1.9
		c0.1-0.4-0.4-1-1-1.4c-0.6-0.4-1.2-0.4-1.2,0l-0.4,1.9l-3-1.9c-0.6-0.4-1.2-0.4-1.3,0c-0.1,0.4,0.4,1,1,1.4l3,1.9l-0.5,2.5l-3-1.9
		c-0.6-0.4-1.2-0.4-1.2,0c0.1,0.6,0.5,1.1,1,1.4l3,1.9L180.3,254.7z M197.9,258.9l-0.8,4.4c-0.2,1-1.7,1-3.3,0.1
		c-1.7-0.9-2.9-2.7-2.7-3.7l0.8-4.4L197.9,258.9z M183.7,250.3l5.9,3.6l-1,5.7c-0.2,1-1.7,1-3.3,0.1c-1.6-0.9-2.9-2.6-2.7-3.7
		L183.7,250.3z"/>
</g>
<g>
	
		<ellipse transform="matrix(0.5509 -0.8346 0.8346 0.5509 -33.8704 234.2414)" class="st4" cx="200.7" cy="148.6" rx="55" ry="26.6"/>
	
		<ellipse transform="matrix(0.5509 -0.8346 0.8346 0.5509 -32.4717 230.4426)" class="st5" cx="197.9" cy="145.4" rx="53.9" ry="24.7"/>
	
		<ellipse transform="matrix(0.5509 -0.8346 0.8346 0.5509 -32.4717 230.4426)" class="st6" cx="197.9" cy="145.4" rx="43.2" ry="19.8"/>
	<path class="st7" d="M203.7,137.3l7.6-9.3c-1.1-0.7-2-1.2-2.9-2c-0.5-0.4-1,0-1.6,0.9c-2.6,2.9-5,5.9-7.5,9c-1.6,2-2.7,2.7-4.1,2.8
		c-1.7,0.1-2,0.2-3.4,3.2l2.5-0.2c-2.6,3.3-5.2,6-7.6,9.2l10.3,6.8c0.2,0.1,0.5,0.1,0.9-0.4c1.2-1.4,2.5-2.8,3.9-4.3l-7.1-4.7
		c1.5-1.7,2.8-3.2,4.1-4.9c1.6-2.1,2.8-2.9,4.2-2.9c1.7,0,1.8-0.2,3.4-3.2L203.7,137.3z"/>
</g>
<g>
	<ellipse class="st8" cx="298.3" cy="196.7" rx="47.5" ry="54.6"/>
	<ellipse class="st9" cx="292.5" cy="194.9" rx="45.8" ry="52.9"/>
	<ellipse class="st8" cx="292.5" cy="194.9" rx="36.7" ry="42.4"/>
	<path class="st9" d="M300.5,170.4c4.9,0,8.7,4.1,8.9,10c0.2,5.4-3.4,9.9-7.7,10.5c-0.6,0.1-1.3,0.2-1.9,0.1c-2-0.2-3.7,1.2-3.9,3.2
		v0.6c0,2.4,1.5,4.1,3.6,4c4.4-0.2,8.2,3,9.2,7.9c1,3.8-0.2,7.7-3,10.4c-2.3,2.6-6.2,3.2-9.2,1.5c-3.4-1.6-5.1-4.7-5.4-8.9
		c-0.1-2,0.3-4,1.1-5.8c0.7-1.5,0.4-3.3-0.8-4.5c-1-1.1-2.5-1.3-3.8-0.6c-0.5,0.4-1,0.8-1.3,1.4c-2.3,3.7-5.4,5.2-9.2,4.3
		s-6.2-3.8-7-8.3c-1.2-6.3,3.7-12.6,9.3-12.1c3.6,0.3,6.2,2.4,7.8,6.2c0.5,1.6,2.2,2.5,3.8,2.1c0.1,0,0.1,0,0.2-0.1
		c0.2-0.1,0.3-0.1,0.5-0.2c1.8-1.1,2.5-3.5,1.5-5.4c-0.9-1.7-1.5-3.6-1.6-5.5C291.4,175.1,295.3,170.5,300.5,170.4z"/>
</g>
<g>
	<path class="st10" d="M260.5,17.3c1.9,0.5,3.9,1.1,5.7,1.9l0.4,0.1c0.2,0.2,0.5,0.4,0.8,0.5l0.2,0.1c0.4,0.8,1.6,1.2,2.4,1.9
		c0.5,0.4,0.4,0.9,1.2,1c0.5,1.1,1.5,2.3,2,3.6c-0.1,0.1,0,0.2,0.1,0.3h0.1c0.1,0.8,0.2,1.6,0.5,2.4c0,0-0.4,0.1-0.1,0.2
		c-0.1,2-0.6,4-1.4,5.9c-1,1.2-1.7,3.1-3,4.3c-9.8,12.7-43.3,19.2-51.8,4.3c0.1-0.2-0.3-0.2-0.3-0.5s0.2-0.4-0.1-0.5
		c-0.9-0.9-0.5-3.5-0.8-4.4c0.1-0.3,0.1-0.6,0-0.9c0.2-0.5,0.2-1.1,0.6-1.5c0.3-1.2,0.7-2.3,1.2-3.4c0.3-0.3,0.5-0.6,0.7-1
		c1.4-2,3-3.7,4.9-5.2c0.1-0.4,0.8-0.4,0.7-0.9c0.1,0.1,0.2,0,0.3-0.1v-0.1c2.1-1.4,4.7-2.9,7-4.3c0.2,0,0.5-0.1,0.6-0.3
		c3.9-1.5,8-2.8,12.1-3.7c0.5,0.1,1.1,0,1.5-0.3c1.2,0,2.4-0.1,3.6-0.4c0.2,0,0.4,0.2,0.5-0.1c1.1,0.3,2.5-0.1,3.7,0.1
		c0.3-0.3,0.7,0.2,1-0.2c0.2,0.1,0.2-0.1,0.4-0.1c0.1,0.5,0.5,0.2,0.8,0.2C257.3,17.1,258.8,16.7,260.5,17.3z M267.6,35.5
		c5.6-9.3-3.9-15.2-11.8-16.1c-20-2.1-39.9,12.3-33.6,22.9c3,5.9,11,6.8,17.1,7.1c10.6-0.7,22.1-4.3,28.2-13.5L267.6,35.5z"/>
	<path class="st11" d="M267.5,35.9c-6.1,9.3-17.7,12.8-28.2,13.5c-6-0.3-14.1-1.2-17.1-7.1c-0.5-3,0.1-6,1.7-8.6
		c5.1-6.8,12-9.3,19.1-11.5c3.5-0.2,7.4-1.3,11-0.6c7.5,0.1,17,5.2,13.6,13.8C267.4,35.4,267.1,35.8,267.5,35.9z M245.6,28.8
		C245.9,28.9,245.8,28.3,245.6,28.8c-4.3,0.2-8.5,0.7-12.9,1.1l5.4,6.7c0.4-1.6,0.6-3.4,0.9-4.9C241.3,30.8,243.4,29.9,245.6,28.8z
		 M249.9,28.2c-3.1,0.9-6.3,2.7-9.5,3.9c-0.3,0.9-0.5,1.9-0.6,2.9c-0.3,1.2-0.5,2.4-0.7,3.6c0.2,0.2,0.4-0.1,0.6,0
		c6.3-0.3,12.9-0.5,19.3-1.1C256.1,34.5,253.2,30.8,249.9,28.2z"/>
	<path class="st11" d="M274.5,30.5l-0.1,0.2c0,1.2,0.2,2.4,0.6,3.6c-0.2,0.5,0.1,1.1-0.2,1.6c0.1,1.9-1,3.7-1.6,5.6
		c-1.5,2-3.1,4-4.9,5.8c-0.1,0-0.2,0-0.2,0.1v0.1c-1.2,0.6-2.4,2.1-3.8,2.7c-1.2,0.9-2.8,1.2-3.6,2.3c-0.1-0.1-0.2,0-0.3,0.1v0.1
		c-0.4-0.2-0.8,0-1,0.4c-0.1,0-0.2,0-0.3,0.2c-0.4-0.2-0.8,0-1,0.4c-0.1-0.1-0.2,0-0.3,0.2c-0.1-0.1-0.2,0-0.3,0.1v0.1
		c-0.3-0.1-0.5,0-0.7,0.2l0,0c-0.5-0.1-0.6,0-0.8,0.5c-3.2,0.7-6.6,1.9-10,2.5c-0.8,0.1-2.5-0.1-3.1,0.5c-1.5-0.3-3.4,0.3-5.1-0.1
		c-0.4,0.3-0.8-0.2-1.1,0.1c-4-0.5-8.1-1.1-11.6-3c-1.2-0.6-2.4-1.8-3.7-2.4c0-0.5-0.5-0.7-1-1.2c-1.5-2.1-2.4-4.6-2.6-7.2
		c9.4,15.6,43.1,7.4,51.7-4.5c1.3-1.1,2.1-2.9,3-4.3c0.8-1.9,1.3-3.9,1.4-5.9c0.5,0.3,0.3,0.9,0.4,1.3L274.5,30.5z"/>
	<path class="st12" d="M267.6,35.5c3.4-9-6.6-13.6-13.6-13.8c-3.6-0.7-7.4,0.4-11,0.6c-7.6,2.2-14.4,5.2-19.1,11.5
		c-1,1.8-1.7,3.8-2,5.8c-0.1,1,0.5,1.7,0.2,2.8c-2.5-3.9-0.6-8.5,2.1-11.9c7.9-9.1,21.7-12,31.5-11C266.5,20.8,272.3,28,267.6,35.5z
		"/>
	<path class="st12" d="M267.5,35.9c-0.1,0-0.2-0.2-0.2-0.3s0.2-0.2,0.3-0.2L267.5,35.9z"/>
	<path class="st10" d="M250,28.2c3.2,2.6,6,6.2,9.2,9.2c-6.2,0.6-12.9,0.8-19.3,1.1c2-1.7,5.4-3,7.9-4.3
		C248.5,32.3,249.2,30.3,250,28.2z"/>
	<path class="st13" d="M250,28.2c-0.7,2-1.5,3.9-2.2,6.1c-2.5,1.3-5.7,2.5-7.9,4.3c-0.2-0.1-0.4,0.3-0.6,0c0.2-1.2,0.4-2.4,0.7-3.6
		c0.1-1,0.3-2,0.6-2.9C243.6,31,246.9,29.1,250,28.2z"/>
	<path class="st10" d="M245.6,28.9l-6.6,2.8c-0.3,1.4-0.5,3.2-0.9,4.9l-5.4-6.7C237.1,29.6,241.3,29,245.6,28.9z"/>
</g>
<path class="st14" d="M328,18.2c7.2,7,7.3,18.5,0.3,25.7l0,0l-0.3,0.3c-7.2,7.2-18.9,7.3-26.1,0.1s-7.3-18.9-0.1-26.1
	c7.2-7.2,18.9-7.3,26.1-0.1L328,18.2z M322,38.2c1.9-1.8,2.9-4.4,2.9-7c0.1-2.6-1-5.1-2.9-6.9c-1.9-1.9-4.4-2.9-7.1-2.8
	c-5.3-0.1-9.7,4.2-9.8,9.5v0.2c0,2.6,1,5.1,2.8,7s4.3,2.9,6.9,2.9C317.5,41.2,320.1,40.1,322,38.2z M364.2,20.5l-47.7,74.1
	c-0.8,1.5-2.4,2.5-4.1,2.4c-2.7-0.1-4.9-2.3-5-5c0.1-1,0.4-2,0.9-2.9l47.8-74.2c0.8-1.5,2.4-2.5,4.1-2.4c1.4,0,2.7,0.5,3.6,1.5
	c1,0.9,1.5,2.3,1.4,3.6C365.1,18.6,364.8,19.6,364.2,20.5L364.2,20.5z M344.4,91.6c-7.2-7.2-7.2-18.8,0-26l0.1-0.1
	c3.4-3.4,8.1-5.3,12.9-5.4c10.2-0.1,18.4,8.1,18.5,18.3s-8.1,18.4-18.3,18.5C352.7,97.1,347.9,95.1,344.4,91.6z M350.4,71.6
	c-3.9,3.7-4,9.8-0.3,13.7l0.1,0.1l0.2,0.2c3.8,3.8,9.9,3.9,13.7,0.1c2-1.9,3-4.6,2.9-7.4c-0.2-5.2-4.4-9.4-9.6-9.6
	C354.8,68.7,352.3,69.8,350.4,71.6L350.4,71.6z"/>
<g>
	<g>
		<defs>
			<path id="SVGID_1_" d="M65,82.8c-0.4-0.8-0.9-1.5-1.7-2.2c-0.9,1.7-1.3,3.6-1.9,5.3c-0.6,1.7-1.1,3.5-1.9,5.2
				c0.1-0.5,0.2-1,0.3-1.5c1.3-5.9,2.7-11.8,4.1-17.7c0.2-0.7,0.1-1.4,0-2.2c-1.3-6.7-3.5-13.1-5.4-19.6c-0.2-0.6-0.5-1.2-0.3-1.8
				c1-3.5-0.4-6.7-1.1-10c-0.5-2.2-1.1-4.3-2-6.4c-1.1-2.5-0.7-5.3-0.4-8c0.1-0.6,0.5-0.9,1-1.2c1.1-0.8,2.1-1.5,3.2-2.3
				c0.4-0.3,1-0.6,0.9-1.2c-0.2-1.7,1-2.3,2.2-2.7c1.1-0.4,1.8-0.9,1.6-2.3c-0.1-0.8,0.3-1,1.1-1.1c1.6-0.2,3.5,0.1,4.5-1.9
				c0.2-0.4,0.8-0.3,1.2-0.2c1.5,0.1,3,0.1,4.5,0.2c1.8,0.2,3.4-0.2,4.8-1.3c0.8-0.7,1.8-1.1,2.8-1.7c0.1,0.3,0.3,0.5,0.3,0.7
				c0.3,1.9,0.9,3.4,3.3,2.8c0.5-0.1,0.8,0.1,0.9,0.6c0.2,0.8,0.3,1.5-0.4,2.2c-1.5,1.4-2.9,2.9-4.3,4.3c-1.1,1.1-0.7,3.5,0.7,4.2
				c1.1,0.5,0.8,1.6,0.9,2.5c0.1,1.1,0.5,1.5,1.6,1.4c0.7-0.1,1.4-0.1,2-0.1c1.1,0,2.4-0.2,2.9-0.9c1.2-1.9,3.4-2.5,4.9-4
				c0.6,0.7,0.3,1.8,1.2,2.6c1.7-1.4,3.8-1.9,5.8-2.5c2-0.6,3.4,0.8,5.1,0.7c0.5,0,0.4,0.6,0.3,1c-0.1,0.5-0.3,1-0.2,1.7
				c1.5,0,3.1,0.6,4.6-0.8c1-1,2.5-0.5,3,0.8c0.2,0.5,0.2,1.2,0.7,1.5c0.1,0,0.1,0,0.2,0c1.8-2.7,4.8-2.6,7.5-3.1
				c2.2-0.5,3.4-2.3,3-4.5c0-0.2,0-0.4-0.1-0.6c-0.2-0.7,0.1-1.2,0.7-1.5c0.7-0.4,1,0,1.5,0.4c2.3,2.2,3.6,2.3,6.2,0.2
				c1.3,1.9,3.3,1.2,5.1,1.4c0.9,0.1,1.3-0.5,1.7-1.2c0.8-1.3,1.8-1.4,2.4,0.1c0.7,1.6,1.6,2.1,3.3,1.6c1.4-0.4,3.2,0.1,4.2-1.5
				c1.2,0.5,1.4,1.4,1.1,2.5c-0.3,0.9-0.3,1.7,0.6,2.4c0.8,0.6,0.5,1.4,0.4,2.2c-0.3,2.6-1.2,5.1-0.5,7.7c0.5,2,1.3,2.5,3.3,2
				c3.6-1,6.9-0.5,9.6,2.2c2.4,2.4,2.3,2.4,0.5,5.4c-1.3,2.2-3.2,4-3.5,6.7c0,0.1-0.1,0.4-0.2,0.4c-2.3,0.2-2.3,2.6-3.6,3.8
				c-1.4,1.2-2.6,2.5-4.1,3.7c-1.4,1-2.8,2-4.7,1.1c-1-0.5-1.6,0-2.1,0.9c-2,3.1-3.7,6.5-5.1,9.9c-0.4,1.1-1,1.7-2.3,1.8
				c-1.4,0.1-2.8,0.4-4.1,0.6c-0.3,0.8,0.3,1.2,0.5,1.7c1.1,2,2.7,3.7,3.3,6c0.2,0.7,0.9,0.8,1.5,1.2c-0.7,2.1-0.9,4.4-1.3,6.7
				c-0.2,1.1-0.1,2,0.4,2.8c1.1,1.8,1,3.5,0.1,5.3c-0.6,1.1-1.1,2.1,0.5,3.2c1,0.7,1,2.1,0.2,3.2c-0.7,1-1.5,1.8-1.4,3.2
				c0.1,1.2,0.3,2.2,1.4,3c1.5,1.1,1.2,2.7-0.6,3.2c-1.2,0.4-1.6,1-1.7,2.1c0,1-0.5,1.2-1.4,1.2c-1.2,0.1-2.6-0.5-3.6,0.8
				c-1.4,1.8-1.6,3.9-1.6,5.9c0,0.9,0.8,1.8,1.9,1.8c1.1,0,1.5,0.8,2.2,1.5c2.5,2.6,1.7,5.7,1.2,8.7c0,0.1,0,0.1,0,0.2
				c0.2,2.4-0.9,4.1-2.9,5.4c-0.5,0.3-0.7,0.8-0.8,1.5c-0.1,1.4-0.4,2.8-0.5,4.2c-0.3,2.7-1,3.3-3.8,3.4c-2.4,0-4.8,0-7.2,0
				c-0.5,0-1.1-0.1-1.4,0.1c-2.3,1.7-4.7,0.6-7.1,0.4c-1-0.1-1.9-0.3-2.9-0.4c-0.6,0.6-0.2,1-0.1,1.5c0.8,2.7,2.7,4.5,4.6,6.5
				c1.5,1.5,2.7,3,4.7,3.8c0.1,0.1,0.2,0.5,0.1,0.7c0,0.4-0.1,0.7-0.2,1.1c-0.8,2.5-0.3,4.7,1.9,6.3c0.8,0.6,1,1.3,0.6,2.3
				c-0.5,1.6,0.2,3.1,1.7,3.9c0.6,0.3,1.1,0.7,1.7,0.9c1.1,0.5,1.5,1.1,1.2,2.3c-0.3,1.5,1,2.4,2.4,1.9c2.5-1,2.6-1,4.8,1.7
				c0.9,1.1,0.8,2.5-0.3,4.2c-0.7,1-1.4,2.1-2.1,3.1c-0.7,0.9-1,1.8-0.7,3c0.3,1.2-1.4,3.3-2.6,3.3c-0.9,0-1.6,0.4-2.2,1
				c-0.7,0.7-1.3,1.6-2.1,2.1c-2.2,1.5-3.2,3.9-2.6,6.1c0.7,2.5-0.8,3.9-1.5,5.8c-0.5,1.3-1.5,2.5-0.7,4.1c0.2,0.4-0.4,1.2-0.8,2
				c2.8,0.3,3.5,2.6,4.7,4.4c1.8,2.7,3.8,5.2,4.6,8.5c0.3,1.3,1.3,1.5,2.5,1.1c1.5-0.6,3-1.1,4.8-1.8c-0.4,1.7-0.8,3.1-1.1,4.6
				c-0.3,1.2-0.5,2.5-0.7,3.7c-0.3,1.7-1.7,2.2-3.1,1.3c-1.9-1.2-2.4-1.1-3.1,1c-0.2,0.7-0.7,0.9-1.3,0.9c-1,0.1-2.1,0.3-3.1,0.3
				c-0.9,0-1.3,0.4-1.4,1.3c-0.1,1.1-0.2,2.3-0.3,3.4c-0.1,1.2-0.5,2.3-1.5,3.1c-3.6,2.8-5.7,6.5-7,10.8c-0.9,2.9-1.6,5.4-0.4,8.5
				c2,5,2.2,10.4,3.3,15.6c0,0.2,0,0.5,0,0.7c-2.8,0.3-5.5,0.8-7.7,2.7c-1.9,1.5-3.9,2.8-5.8,4.3c-1.1,0.8-2.5,1-3.8,1.4
				c-6.9,2-7,2.1-12.6-2.2c-2.2-1.7-4.3-1.1-6.5-0.8c-1,0.2-1.8,0.3-2.6-0.5c-0.3-0.3-0.7-0.4-1.2-0.3c-3.4,0.2-6.4-0.9-9.5-2
				c-1.5-0.6-2.7,0.6-3.6,1.6c-0.6,0.6-1.1,1-1.9,1.2c-1.8,0.4-3.5,0.9-5.3,1.3c-1.6,0.4-3.2,0.8-4.3,2.3c-0.8-0.3-1.3-1-2.3-0.7
				c0.6-1.2,1-2.1,1.5-3c1.8-3.1,3.5-6.4,3.7-9.9c0.2-3.1,1.5-5.4,2.8-7.9c1.2-2.3,0.8-4.8,0.4-7c-0.6-2.7-0.5-5.2,0.4-7.8
				c0.2-0.6,0.4-1.2,0.1-1.7c-0.7-1.5-0.5-3-0.2-4.6c0.4-1.8-0.2-3.5-0.3-5.3c-0.1-0.6-0.5-0.9-1-1.1c-0.8-0.4-1.7-0.8-2.5-1.3
				c4.8-8.3,5.8-16.9,2.7-26.2c1.7,2.3,3.9,1.4,5.8,1.8c0.3-0.9,0.1-1.5-0.5-1.8c-1.3-0.7-1.4-1.8-1.4-3c0-1-0.1-2.1-0.6-2.9
				c-0.4-0.2-0.7-0.1-1,0.1c-1.6,1.1-3.2,1.5-5.1,0.9c-1.1-0.3-2.1,0.6-2.7,1.5c-0.4,0.7-0.7,1-1.5,1c-0.2,0-0.5,0.2-0.7,0.3
				c-2.5,2.4-5.9,1.8-8.9,3.1c0.2-2.2,0.7-3.8,2.3-5c-2.4-1.9-2.6-4.9-3.7-7.3c-0.3-0.6,0-1.1,0.8-1.2c0.7,0,1.5,0,2.2,0
				c0.8,2.1,1.4,2.4,2.9,1.8c0.3,0.4,0.7,0.9,1.1,1.4c0.8-0.8,0.2-1.8,0.6-2.7c1.9,0.8,2.8-0.3,3.3-2c-0.3-0.6-1.1-0.4-1.7-0.9
				c1-0.9,2-1.7,2.9-2.5c0.5-0.4,0.8-0.8,0.5-1.5c-1.2-2.4-1.7-5-2.2-7.6c-0.7-0.2-0.8,0.4-1,0.7c-1.9,2.7-3.2,5.6-4.2,8.7
				c-0.8,2.5-1,2.5-3.6,2.4c-1.1,0-2.2-0.3-3.3,0.1c-2,0.7-3.9,1.1-5.8-0.1c-0.8-0.5-1.7,0.2-2.6-0.1c-0.4-0.5,0-1.1,0-1.7
				c0-0.5,0.1-1.2-0.1-1.4c-1.6-1.4-0.5-2.6,0-3.9c0.2-0.5,0.4-1,0.6-1.4c1.6-2.9,2.4-5.9,1.9-9.2c-0.4-2.8,1-5.1,2.1-7.4
				c1.1-2.2,1.5-4.5,1.2-7c-0.2-1.4-1.2-2.4-1.8-3.9c3,0.2,4.5-2.9,7.4-2.9c0,0,0.1-0.1,0.1-0.2c-0.7-2.1,0-3.6,1.6-4.9
				c0.8-0.6,1.4-1.5,2.2-2.2c1.4-1.3,2.6-2.5,1.4-4.7c-0.4-0.8,0.1-1.6,0.4-2.4c2.8-8,5.6-15.9,8.5-23.9c0.5-1.4,0.6-2.6-0.5-3.7
				c-0.9-1-1-2.1-0.6-3.5c2-7,4-14,5.9-21c0.3-1.1,0.7-1.9,1.9-2.1c0.9-0.2,3.1-3.6,3.1-4.5c0-0.1,0-0.1,0-0.2
				C63.5,85,63.5,85,65,82.8z"/>
		</defs>
		<clipPath id="SVGID_2_">
			<use xlink:href="#SVGID_1_"  style="overflow:visible;"/>
		</clipPath>
		<g class="st15">
			<rect x="-138.4" y="-20.7" class="st16" width="487.9" height="325.2"/>
		</g>
		<g class="st15">
			<rect x="16.6" y="-35.2" class="st17" width="71.2" height="354.3"/>
		</g>
		<g class="st15">
			<g>
				<path class="st18" d="M111,160.4c-9-0.3-50.1-25.9-50.3-30l2.3-3.8c4.1,5.9,46.1,30.9,50.2,30L111,160.4"/>
				<path d="M111,160.7C111,160.7,111,160.7,111,160.7c-4.8-0.1-17.9-7.1-28.6-13.6c-10.5-6.4-21.9-14.3-22.1-16.7
					c0-0.1,0-0.1,0-0.2l2.3-3.8c0-0.1,0.1-0.1,0.2-0.1c0.1,0,0.2,0,0.2,0.1c3.9,5.6,45.8,30.8,49.9,29.9c0.1,0,0.2,0,0.3,0.1
					s0.1,0.2,0,0.3l-2.1,3.8C111.2,160.6,111.1,160.7,111,160.7z M60.9,130.4c0.8,4,40.7,29.1,49.9,29.7l1.8-3.2
					c-6.4-0.7-44.5-23.4-49.7-29.8L60.9,130.4z"/>
			</g>
			<g>
				<path class="st18" d="M62.4,126.1c-0.8,2.2,10.7,9.3,24.6,17.7c13.9,8.4,25.8,13.6,26.7,12.9c0.1-0.1,0.4-0.8,0.4-0.7
					c-0.2,0.3-0.6,0.3-1.2,0.1c-3.7-1.1-13.5-5.6-25.6-12.9c-12.1-7.3-22.6-14.1-24.3-17c-0.1-0.2-0.2-0.6-0.2-0.8l0,0L62.4,126.1
					L62.4,126.1L62.4,126.1L62.4,126.1z M111.2,160.5c-0.2,0.3-0.4,0.3-1,0.2c-3.4-0.4-13.5-5.3-25.6-12.5c-14-8.4-25.6-16-24.3-18
					l0.3-0.6l0.1,0c-1.1,3.4,22.8,17.1,24.2,18c13.9,8.6,25.5,13.6,26.6,12.3L111.2,160.5L111.2,160.5L111.2,160.5z"/>
				<path d="M110.6,161c-0.2,0-0.3,0-0.5,0c-3.4-0.4-13.8-5.4-25.7-12.6c-16.2-9.7-24-15.3-24.5-17.6c-0.1-0.3,0-0.6,0.1-0.8
					l0.3-0.6c0.1-0.1,0.2-0.2,0.3-0.1c0.1,0,0.2,0.1,0.2,0.2s0.1,0.2,0.1,0.2c-0.3,0.9,1.4,4.2,23.2,17.1c0.5,0.3,0.8,0.5,0.9,0.6
					c15,9.3,25.5,13.3,26.2,12.4c0.1-0.1,0.3-0.1,0.4-0.1s0.2,0.3,0.1,0.4l-0.4,0.6c0,0,0,0,0,0C111.2,161,111,161,110.6,161z
					 M60.5,130.5c0,0.1,0,0.1,0,0.2c0.5,2.1,8.7,7.9,24.3,17.3c11.9,7.1,22.1,12.1,25.4,12.5c0.6,0.1,0.6,0,0.7-0.1c0,0,0,0,0,0l0,0
					c0,0-0.1,0-0.1,0c-3.5,0-15.5-6-26-12.5c-0.1-0.1-0.5-0.3-0.9-0.6C65.2,136.2,61.2,132.1,60.5,130.5z M113.5,157
					c-2.7,0-15.1-6-26.6-13c-16-9.7-25.6-15.8-24.7-18.1c0,0,0,0,0,0l0.4-0.7c0.1-0.1,0.2-0.1,0.3-0.1c0.1,0,0.2,0,0.2,0.1
					s0.1,0.1,0.1,0.2c0,0.2,0.1,0.5,0.1,0.7c1.7,3,13.8,10.6,24.2,16.9c12.7,7.7,22.2,11.9,25.6,12.9c0.5,0.2,0.8,0.1,0.9,0
					c0-0.1,0.1-0.1,0.2-0.1c0.1,0,0.2,0,0.3,0.1c0.1,0.2,0.1,0.2-0.3,1l0,0.1c0,0,0,0.1-0.1,0.1C113.8,157,113.7,157,113.5,157z
					 M62.7,126.2c-0.7,2.1,13.3,10.5,24.5,17.4c14.3,8.7,25.1,13.2,26.4,12.9c-0.2,0-0.4,0-0.7-0.1c-4.1-1.2-14.3-6-25.7-12.9
					c-15.7-9.5-23-14.6-24.4-17.1C62.8,126.3,62.7,126.2,62.7,126.2L62.7,126.2z"/>
			</g>
			<g>
				<path class="st18" d="M87.8,132.8c9-0.1,20-1.2,26.4-3.8l-1.4-2.2c-3.8,2.1-14.9,3.5-25.1,3.7c-12.1-0.1-20.6-1.2-24.9-4.1
					l-1.3,2.4C69.4,132.1,77.5,132.8,87.8,132.8"/>
				<path d="M87.8,133.1C87.8,133.1,87.8,133.1,87.8,133.1c-10.4,0-18.4-0.7-26.4-4.1c-0.1,0-0.1-0.1-0.2-0.2c0-0.1,0-0.2,0-0.2
					l1.3-2.4c0-0.1,0.1-0.1,0.2-0.1c0.1,0,0.2,0,0.2,0c3.9,2.6,11.8,3.9,24.7,4.1c9.5-0.2,21.1-1.5,25-3.6c0.1-0.1,0.3,0,0.4,0.1
					l1.4,2.2c0,0.1,0.1,0.2,0,0.2c0,0.1-0.1,0.1-0.2,0.2C107.6,132,96.2,133.1,87.8,133.1C87.8,133.1,87.8,133.1,87.8,133.1z
					 M62,128.6c7.7,3.2,15.7,3.9,25.8,3.9c0,0,0,0,0,0c7.8-0.1,19.3-1,26-3.6l-1.1-1.7c-4.3,2.2-15.9,3.4-25,3.6
					c-12.8-0.1-20.7-1.4-24.8-4L62,128.6z"/>
			</g>
			<g>
				<path class="st18" d="M114.6,129.1c-0.2,0.4-4.4,1.8-10.5,2.8c-4.2,0.6-9.6,1.2-16.3,1.2c-6.4,0-11.7-0.5-15.6-1
					c-6.4-1-9.7-2.4-11-2.9c0.1-0.2,0.2-0.4,0.3-0.6c3.5,1.4,6.9,2.3,10.8,2.9c3.9,0.5,9.1,1,15.5,1c6.7,0,12.1-0.6,16.2-1.2
					c6.3-1,9.7-2.3,10.2-2.9L114.6,129.1L114.6,129.1L114.6,129.1z M113.4,126.9c-0.7,0.5-4.1,1.7-10,2.7c-4,0.6-9,1.1-15.5,1.1
					c-6.1,0-11.2-0.4-15-1c-6.1-0.8-9.3-2.2-10.4-2.6c0.1-0.2,0.2-0.4,0.4-0.6c0.9,0.5,4,1.7,10.2,2.6c3.8,0.5,8.8,0.9,14.9,0.9
					c6.4,0,11.4-0.5,15.4-1.1c6-0.8,9.2-2.4,9.7-2.7L113.4,126.9L113.4,126.9L113.4,126.9z"/>
				<path d="M87.7,133.4c-5.5,0-10.7-0.3-15.5-1c-6.2-1-9.6-2.4-10.9-2.9l-0.1-0.1c-0.1,0-0.1-0.1-0.2-0.2c0-0.1,0-0.2,0-0.2
					l0.1-0.3c0.1-0.1,0.1-0.2,0.2-0.4c0.1-0.1,0.2-0.2,0.4-0.1c3.4,1.3,6.7,2.2,10.7,2.8c4.9,0.7,10.1,1,15.5,1
					c5.5,0,10.8-0.4,16.2-1.2c6.7-1.1,9.7-2.4,10-2.8c0.1-0.1,0.2-0.1,0.2-0.1c0.1,0,0.2,0.1,0.2,0.1l0.4,0.8c0.1,0.1,0.1,0.2,0,0.3
					c-0.4,0.6-5.2,2-10.7,3c-5.1,0.8-10.6,1.2-16.4,1.2C87.7,133.4,87.7,133.4,87.7,133.4z M61.6,129.1c1.4,0.6,4.7,1.8,10.6,2.8
					c4.8,0.7,10,1,15.5,1c0,0,0.1,0,0.1,0c5.7,0,11.2-0.4,16.3-1.2c5.4-0.9,9.3-2.2,10.2-2.6l-0.1-0.2c-1.1,0.8-4.7,1.9-10.1,2.8
					c-5.4,0.8-10.7,1.2-16.2,1.2c0,0-0.1,0-0.1,0c-5.4,0-10.6-0.3-15.4-1c-4-0.6-7.3-1.5-10.6-2.8C61.6,129,61.6,129.1,61.6,129.1z
					 M87.7,130.9c-5.4,0-10.5-0.3-14.9-1c-5.4-0.7-8.5-1.9-10-2.5c-0.2-0.1-0.4-0.1-0.5-0.2c-0.1,0-0.1-0.1-0.2-0.2s0-0.2,0-0.2
					c0.1-0.2,0.2-0.4,0.4-0.6c0.1-0.1,0.2-0.2,0.4-0.1c0.5,0.3,3.5,1.6,10.1,2.6c3,0.4,8,0.9,14.7,0.9c0,0,0.1,0,0.1,0
					c7,0,12.1-0.6,15.4-1.1c6.2-0.8,9.2-2.4,9.6-2.7c0.1-0.1,0.1-0.1,0.2-0.1c0.1,0,0.2,0.1,0.2,0.1l0.4,0.7c0.1,0.1,0,0.3-0.1,0.4
					c-0.7,0.5-4,1.8-10.2,2.8c-5.1,0.7-10.2,1.1-15.6,1.1C87.8,130.9,87.8,130.9,87.7,130.9z M62.9,126.9c0.1,0,0.1,0,0.2,0.1
					c1.5,0.6,4.6,1.7,9.9,2.4c4.4,0.6,9.5,0.9,14.9,1c5.4,0,10.4-0.4,15.5-1.1c5.7-0.9,8.8-2,9.7-2.5l-0.1-0.2
					c-1,0.5-4.1,1.9-9.6,2.6c-3.3,0.5-8.4,1.1-15.4,1.1c0,0-0.1,0-0.1,0c-6.8,0-11.8-0.5-14.8-0.9C66.9,128.5,63.8,127.3,62.9,126.9
					C62.9,126.8,62.9,126.9,62.9,126.9z"/>
			</g>
			<g>
				<path class="st18" d="M58.4,143.6c5.5,3,17.8,4.5,29.4,4.6c10.6,0,24.3-1.6,29.5-4.4l-0.1-3c-1.6,2.5-16.4,4.9-29.4,4.8
					c-13.1-0.1-25.2-2.1-29.3-4.7L58.4,143.6"/>
				<path d="M87.9,148.5c-0.1,0-0.1,0-0.2,0c-10.3-0.1-23.5-1.3-29.5-4.6c-0.1-0.1-0.2-0.2-0.2-0.3l0-2.7c0-0.1,0.1-0.2,0.1-0.3
					s0.2,0,0.3,0c4.1,2.6,16.3,4.6,29.1,4.7c14.1,0.1,27.8-2.5,29.2-4.7c0.1-0.1,0.2-0.2,0.3-0.1c0.1,0,0.2,0.1,0.2,0.3l0.1,3
					c0,0.1-0.1,0.2-0.2,0.3C112.1,146.9,98.3,148.5,87.9,148.5z M58.6,143.5c6,3.1,18.9,4.4,29.1,4.5c0.1,0,0.1,0,0.2,0
					c10.2,0,23.8-1.6,29-4.2l-0.1-2.1c-3.1,2.4-16.7,4.6-29.2,4.4c-12.5-0.1-24.5-2-29-4.5L58.6,143.5z"/>
			</g>
			<g>
				<path class="st18" d="M117.5,143.2l0,0.7c-0.8,0.9-5.6,2.3-11.7,3.3c-4.6,0.7-10.7,1.2-18.2,1.2c-7.1,0-12.8-0.5-17.3-1.2
					c-7-1-11.4-2.8-12.3-3.3l0-0.8c2.7,1.8,10,3.1,12.4,3.5c4.4,0.7,10,1.2,17.2,1.2c7.5,0,13.5-0.5,18.1-1.2
					C110,145.9,116.2,144.3,117.5,143.2L117.5,143.2L117.5,143.2z M117.5,140.7l0,0.7c-0.8,0.9-5.6,2.3-11.7,3.3
					c-4.6,0.7-10.7,1.2-18.2,1.2c-7.1,0-12.8-0.5-17.3-1.2c-7-1-11.4-2.8-12.3-3.3l0-0.8c2.7,1.8,10,3.1,12.4,3.5
					c4.4,0.7,10,1.2,17.2,1.2c7.5,0,13.5-0.5,18.1-1.2C110,143.4,116.3,141.8,117.5,140.7L117.5,140.7L117.5,140.7z"/>
				<path d="M87.6,148.8c-6.3,0-12.1-0.4-17.3-1.2c-6.7-1-11.4-2.7-12.4-3.4c-0.1-0.1-0.1-0.1-0.1-0.2l0-0.8c0-0.1,0.1-0.2,0.2-0.3
					c0.1-0.1,0.2,0,0.3,0c2.7,1.8,10.1,3.1,12.3,3.5c5.1,0.8,10.8,1.2,17.1,1.2c6.6,0,12.7-0.4,18-1.2c4.3-0.6,10.5-2.3,11.7-3.3
					c0.1-0.1,0.2-0.1,0.3,0c0.1,0,0.2,0.1,0.2,0.3v0.7c0,0.1,0,0.1-0.1,0.2c-0.8,1-5.7,2.4-11.9,3.4
					C100.4,148.3,94.3,148.8,87.6,148.8z M58.3,143.8c1,0.5,5.2,2.2,12.1,3.2c5.1,0.8,10.9,1.2,17.2,1.2c6.7,0,12.8-0.4,18.1-1.2
					c6.4-1,10.6-2.4,11.5-3.1v-0.1c-1.9,1.1-7.4,2.5-11.5,3.1c-5.4,0.8-11.5,1.2-18.1,1.2c-6.3,0-12.1-0.4-17.2-1.2
					c-2.7-0.4-9.2-1.6-12.1-3.3L58.3,143.8z M87.6,146.2c-6.3,0-12.2-0.4-17.3-1.2c-6.7-1-11.4-2.7-12.4-3.4
					c-0.1-0.1-0.1-0.1-0.1-0.2l0-0.8c0-0.1,0.1-0.2,0.2-0.3c0.1,0,0.2,0,0.3,0c2.7,1.8,10.1,3.1,12.3,3.5c5.1,0.8,10.8,1.2,17.1,1.2
					c6.6,0,12.7-0.4,18-1.2c4.3-0.6,10.5-2.3,11.7-3.3c0.1-0.1,0.2-0.1,0.3,0c0.1,0,0.2,0.1,0.2,0.3v0.7c0,0.1,0,0.1-0.1,0.2
					c-0.8,1-5.7,2.4-11.9,3.4C100.4,145.8,94.3,146.2,87.6,146.2z M58.3,141.3c1,0.5,5.2,2.2,12.1,3.2c5.1,0.8,10.9,1.2,17.2,1.2
					c6.7,0,12.8-0.4,18.1-1.2c6.2-1,10.6-2.4,11.5-3.1v-0.1c-1.9,1.1-7.4,2.5-11.5,3.1c-5.4,0.8-11.5,1.2-18.1,1.2
					c-6.3,0-12.1-0.4-17.2-1.2c-2.7-0.4-9.2-1.6-12.1-3.3L58.3,141.3z"/>
			</g>
			<g>
				<path class="st18" d="M87.7,159.9c-12.7-0.1-23.6-3.5-25.9-4l1.7,2.6c4.1,1.7,14.7,4.2,24.3,4c9.6-0.3,18.1-1,24-3.9l1.7-2.7
					C109.5,157.7,95.7,159.8,87.7,159.9"/>
				<path d="M86.3,162.7c-9.1,0-18.9-2.3-22.9-4c-0.1,0-0.1-0.1-0.1-0.1l-1.7-2.6c-0.1-0.1-0.1-0.2,0-0.3c0.1-0.1,0.2-0.1,0.3-0.1
					c0.3,0.1,0.7,0.2,1.2,0.3c3.7,1,13.5,3.6,24.6,3.7c8.1,0,21.8-2.2,25.7-4c0.1-0.1,0.3,0,0.3,0.1c0.1,0.1,0.1,0.2,0,0.3l-1.7,2.7
					c0,0-0.1,0.1-0.1,0.1c-6.2,3-15.3,3.7-24.1,3.9C87.3,162.7,86.8,162.7,86.3,162.7z M63.7,158.2c4.2,1.8,14.7,4.2,24.1,3.9
					c8.8-0.3,17.7-0.9,23.8-3.9l1.2-1.9c-4.8,1.8-17.5,3.7-25.1,3.7c0,0,0,0,0,0c-11.2-0.1-21.1-2.7-24.8-3.7
					c-0.2,0-0.3-0.1-0.5-0.1L63.7,158.2z"/>
			</g>
			<g>
				<path class="st18" d="M112.5,157.9c-0.3,0.4-0.5,0.8-0.8,1.1c-2.8,1-7.2,2-9.1,2.3c-3.8,0.8-9.7,1.4-14.9,1.4
					c-11.2-0.2-20.4-2.4-24.8-4.2l-0.3-0.6l0.1-0.1l0.6,0.2c7.7,2.8,16.3,3.9,24.5,4.1c5.2,0,10.4-0.6,14.6-1.3
					c6.5-1.3,9.1-2.3,9.9-2.7L112.5,157.9L112.5,157.9L112.5,157.9z M114,155.4C114,155.5,114,155.5,114,155.4
					c-0.2,0.3-0.4,0.7-0.6,1c-1.5,0.5-5.5,1.7-11.5,2.5c-3.9,0.5-6.3,1-14.1,1.2c-14.5-0.4-24-3.2-26.2-3.9l-0.3-0.6
					c8.4,2.2,17,3.7,26.5,3.9c7.1-0.2,10.1-0.7,14-1.2c6.9-1.1,10.4-2.2,11.4-2.5c0,0,0,0,0-0.1L114,155.4L114,155.4L114,155.4z"/>
				<path d="M87.7,163c-11.5-0.2-20.6-2.4-24.9-4.3c-0.1,0-0.1-0.1-0.1-0.1l-0.3-0.6c-0.1-0.1,0-0.2,0-0.3l0.1-0.1
					c0.1-0.1,0.2-0.2,0.3-0.1l0.6,0.2c6.8,2.4,15.1,3.8,24.4,4c0.1,0,0.1,0,0.2,0c5.6,0,10.9-0.7,14.3-1.3c7.2-1.4,9.3-2.4,9.8-2.7
					l0.2-0.1c0.1-0.1,0.2,0,0.3,0.1c0.1,0.1,0.1,0.2,0,0.3c-0.3,0.4-0.5,0.8-0.8,1.1c0,0-0.1,0.1-0.1,0.1c-2.8,1-7.2,2-9.1,2.3
					C98.7,162.5,92.8,163,87.7,163z M63.3,158.3c4.7,2,13.9,4,24.5,4.1c4.9,0,10.9-0.5,14.9-1.4c1.9-0.3,6.2-1.3,9-2.3
					c0.1-0.1,0.1-0.1,0.2-0.2c-1.2,0.5-3.7,1.3-9.2,2.4c-3.5,0.6-8.9,1.4-14.7,1.4C78.4,162.1,70.1,160.8,63.3,158.3z M87.9,160.5
					c-13-0.3-22.1-2.6-26.3-3.9c-0.1,0-0.1-0.1-0.2-0.1l-0.3-0.6c-0.1-0.1,0-0.2,0-0.3c0.1-0.1,0.2-0.1,0.3-0.1
					c9.6,2.5,18,3.7,26.5,3.9c6.3-0.1,9.4-0.6,12.7-1l1.2-0.2c6.5-1,10-2.1,11.2-2.5c0,0,0.1-0.1,0.1-0.1l0.7-0.3
					c0.1,0,0.2,0,0.3,0.1l-0.2,0.2l0.2-0.2c0.1,0.1,0.1,0.2,0,0.3c-0.2,0.3-0.4,0.6-0.6,1c0,0.1-0.1,0.1-0.1,0.1
					c-2,0.7-6.2,1.8-11.5,2.6c-0.6,0.1-1.1,0.2-1.6,0.2C97.2,159.9,94.5,160.3,87.9,160.5z M62.1,156.1c4.3,1.3,13.2,3.5,25.8,3.8
					c6.6-0.1,9.3-0.5,12.4-1c0.5-0.1,1.1-0.2,1.6-0.2c6.6-0.9,10.6-2.2,11.3-2.5c0-0.1,0.1-0.1,0.1-0.2l-0.1,0
					c-1.2,0.4-4.7,1.5-11.4,2.5l-1.2,0.2c-3.3,0.5-6.4,0.9-12.8,1C79.6,159.7,71.4,158.5,62.1,156.1z"/>
			</g>
			<g>
				<path class="st18" d="M114.1,141.3c0,8.3-4.2,15.8-7.7,19.1c-4.9,4.7-11.3,7.7-18.9,7.8c-8.4,0.2-16.4-5.3-18.5-7.7
					c-4.2-4.7-7.6-10.7-7.7-18.8c0.5-9.1,4.1-15.5,9.3-19.8c5.2-4.4,12.1-6.5,17.8-6.3c6.6,0.2,14.4,3.4,19.7,9.9
					C111.8,129.7,113.3,134.3,114.1,141.3L114.1,141.3z M87.7,112.7c16.2,0,29.5,13.2,29.5,29.3c0,16.1-13.3,29.3-29.5,29.3
					S58.3,158.1,58.3,142S71.5,112.7,87.7,112.7"/>
				<path d="M87.7,171.6C71.3,171.6,58,158.3,58,142s13.3-29.6,29.6-29.6c16.4,0,29.7,13.3,29.7,29.6S104.1,171.6,87.7,171.6z
					 M87.7,113c-16,0-29.1,13-29.1,29s13,29,29.1,29c16.1,0,29.2-13,29.2-29S103.7,113,87.7,113z M87.2,168.6
					c-8.7,0-16.5-5.7-18.3-7.8c-5.1-5.8-7.6-12-7.7-18.9c0.5-8.5,3.6-15.2,9.4-20c4.9-4.1,11.8-6.5,18-6.4c7.4,0.2,15,4,19.9,10
					c3.4,4.1,5,8.6,5.9,15.9c0,0,0,0,0,0c0,8.1-4,15.7-7.8,19.4c-5.2,5-11.8,7.8-19.1,7.9C87.5,168.6,87.4,168.6,87.2,168.6z
					 M88,115.9c-5.9,0-12.4,2.4-17.1,6.3c-5.6,4.7-8.7,11.3-9.2,19.6c0.1,6.8,2.6,12.9,7.6,18.6c1.9,2.1,9.6,7.8,18.3,7.6
					c7.1-0.1,13.5-2.8,18.7-7.7c3.7-3.5,7.6-11,7.6-18.9c-0.8-7.2-2.4-11.6-5.8-15.6c-4.8-5.8-12.3-9.6-19.5-9.8
					C88.4,115.9,88.2,115.9,88,115.9z"/>
			</g>
			<g>
				<path class="st18" d="M87.7,112.6c16.2,0,29.4,13.2,29.4,29.4c0,16.2-13.2,29.4-29.4,29.4c-16.2,0-29.4-13.2-29.4-29.4
					S71.6,112.6,87.7,112.6L87.7,112.6z M59,142c0,15.8,13,28.7,28.7,28.7c15.8,0,28.7-12.9,28.7-28.7c0-15.8-13-28.7-28.7-28.7
					S59,126.2,59,142L59,142z"/>
				<path d="M87.7,171.7c-16.4,0-29.7-13.3-29.7-29.7c0-16.4,13.3-29.7,29.7-29.7s29.7,13.3,29.7,29.7
					C117.4,158.3,104.1,171.7,87.7,171.7z M87.7,112.9c-16,0-29.1,13.1-29.1,29.1c0,16,13,29.1,29.1,29.1s29.1-13.1,29.1-29.1
					C116.8,125.9,103.8,112.9,87.7,112.9z M87.7,171c-16,0-29-13-29-29s13-29,29-29s29,13,29,29S103.7,171,87.7,171z M87.7,113.5
					c-15.7,0-28.4,12.8-28.4,28.4s12.8,28.4,28.4,28.4s28.4-12.8,28.4-28.4S103.4,113.5,87.7,113.5z"/>
			</g>
			<g>
				<path class="st18" d="M87.8,115.1c14.8,0,26.9,12.1,26.9,26.9c0,14.8-12.2,26.9-26.9,26.9S60.9,156.8,60.9,142
					C60.9,127.2,73,115.1,87.8,115.1L87.8,115.1z M61.5,142c0,14.4,11.9,26.3,26.3,26.3S114,156.4,114,142
					c0-14.4-11.9-26.3-26.3-26.3C73.4,115.7,61.5,127.5,61.5,142L61.5,142z"/>
				<path d="M87.8,169.2c-15,0-27.2-12.2-27.2-27.2c0-15,12.2-27.2,27.2-27.2S115,127,115,142C115,157,102.8,169.2,87.8,169.2z
					 M87.8,115.3c-14.7,0-26.6,11.9-26.6,26.6c0,14.7,11.9,26.6,26.6,26.6s26.6-11.9,26.6-26.6C114.4,127.3,102.4,115.3,87.8,115.3z
					 M87.8,168.5c-14.6,0-26.5-11.9-26.5-26.6s11.9-26.6,26.5-26.6c14.6,0,26.5,11.9,26.5,26.6S102.4,168.5,87.8,168.5z M87.8,116
					c-14.3,0-26,11.7-26,26s11.7,26,26,26c14.3,0,26-11.7,26-26S102.1,116,87.8,116z"/>
			</g>
			<g>
				<path class="st18" d="M88.9,112.5h-2.5l0,59H89L88.9,112.5z"/>
				<path d="M89,171.8h-2.5c-0.2,0-0.3-0.1-0.3-0.3l0-59c0-0.1,0-0.1,0.1-0.2s0.1-0.1,0.2-0.1h2.5c0.2,0,0.3,0.1,0.3,0.3l0,59
					c0,0.1,0,0.1-0.1,0.2S89,171.8,89,171.8z M86.7,171.2h2l0-58.5h-1.9L86.7,171.2z"/>
			</g>
			<g>
				<path class="st18" d="M88.7,112.2h0.6l0,59.7h-0.6L88.7,112.2L88.7,112.2z M86.2,112.2h0.6l0,59.7h-0.6L86.2,112.2L86.2,112.2z"
					/>
				<path d="M86.8,172.2h-0.6c-0.2,0-0.3-0.1-0.3-0.3v-59.7c0-0.2,0.1-0.3,0.3-0.3h0.6c0.2,0,0.3,0.1,0.3,0.3l0,59.7
					c0,0.1,0,0.1-0.1,0.2S86.9,172.2,86.8,172.2z M86.5,171.6L86.5,171.6l0.1-59.1h-0.1V171.6z M89.3,172.2h-0.6
					c-0.2,0-0.3-0.1-0.3-0.3l0-59.7c0-0.1,0-0.1,0.1-0.2s0.1-0.1,0.2-0.1h0.6c0.2,0,0.3,0.1,0.3,0.3l0,59.7c0,0.1,0,0.1-0.1,0.2
					S89.4,172.2,89.3,172.2z M89,171.6L89,171.6l0.1-59.1H89L89,171.6z"/>
			</g>
			<g>
				<path class="st18" d="M117.1,143.1v-2.2l-1.8-1.7l-10.1-2.7l-14.5-1.5L73.2,136l-12.5,3l-2.5,1.9v2.2l6.4-2.9l15.1-2.4h14.5
					L105,139l7.4,1.8L117.1,143.1z"/>
				<path d="M117.1,143.4c0,0-0.1,0-0.1,0l-4.7-2.4l-7.4-1.8l-10.6-1.2l-14.5,0l-15,2.4l-6.3,2.8c-0.1,0-0.2,0-0.3,0
					c-0.1-0.1-0.1-0.1-0.1-0.2v-2.2c0-0.1,0-0.2,0.1-0.2l2.5-1.9c0,0,0.1,0,0.1,0l12.5-3l17.6-0.9l14.6,1.5l10.1,2.7
					c0,0,0.1,0,0.1,0.1l1.8,1.7c0.1,0.1,0.1,0.1,0.1,0.2v2.2c0,0.1-0.1,0.2-0.1,0.2C117.2,143.4,117.2,143.4,117.1,143.4z
					 M94.3,137.5l10.7,1.2l7.5,1.8l4.4,2.2v-1.6l-1.6-1.5l-10-2.7l-14.5-1.5l-17.5,0.9l-12.4,2.9l-2.4,1.7v1.6l6-2.7c0,0,0,0,0.1,0
					l15.1-2.4L94.3,137.5z"/>
			</g>
			<g>
				<path class="st18" d="M87.8,137.4c6.9,0,13.7,0.7,19,1.7c5.5,1.1,9.4,2.5,10.7,4l0,0.8c-1.6-1.9-6.8-3.3-10.8-4.1
					c-5.3-1-12-1.7-18.9-1.7c-7.3,0-14.1,0.7-19.3,1.7c-4.2,0.8-9.8,2.5-10.5,4.1v-0.8c0.4-1.1,4.5-2.8,10.4-4
					C73.6,138.1,80.4,137.5,87.8,137.4L87.8,137.4z M87.8,134.9c6.9,0,13.7,0.7,19,1.7c5.5,1.1,9.4,2.5,10.7,4l0,0.8
					c-1.6-1.9-6.8-3.3-10.8-4.1c-5.3-1-12-1.7-18.9-1.7c-7.3,0-14,0.7-19.2,1.7c-4,0.8-9.9,2.5-10.5,4.1v-0.8
					c0.4-1.1,4.6-2.9,10.4-4C73.6,135.6,80.4,134.9,87.8,134.9L87.8,134.9z"/>
				<path d="M58,144.2C58,144.2,58,144.2,58,144.2c-0.2,0-0.3-0.2-0.3-0.3v-0.8c0,0,0-0.1,0-0.1c0.5-1.5,5.9-3.2,10.6-4.2
					c5.6-1.1,12.5-1.7,19.4-1.7l0,0c6.6,0,13.4,0.6,19.1,1.7c4,0.8,9.2,2.2,10.9,4.1c0,0.1,0.1,0.1,0.1,0.2l0,0.8
					c0,0.1-0.1,0.2-0.2,0.3c-0.1,0-0.2,0-0.3-0.1c-1.7-2-7.4-3.4-10.7-4c-5.6-1.1-12.3-1.7-18.8-1.7c-6.8,0-13.6,0.6-19.2,1.7
					c-4.7,0.9-9.7,2.6-10.3,3.9C58.2,144.2,58.1,144.2,58,144.2z M88,137.8c6.5,0,13.1,0.6,18.7,1.7c3.7,0.7,8.2,1.9,10.3,3.6
					c-1.4-1.4-5-2.6-10.3-3.7c-5.7-1.1-12.4-1.7-19-1.7l0,0c-6.9,0-13.7,0.6-19.3,1.7c-5.6,1.1-9.3,2.6-10,3.6
					c2.3-1.9,9.2-3.3,10-3.5c5.6-1.1,12.5-1.7,19.3-1.7C87.8,137.8,87.9,137.8,88,137.8z M87.8,137.4L87.8,137.4L87.8,137.4z
					 M58,141.7C58,141.7,58,141.7,58,141.7c-0.2,0-0.3-0.1-0.3-0.3v-0.8c0,0,0-0.1,0-0.1c0.4-1.3,4.9-3.1,10.6-4.2
					c5.6-1.1,12.5-1.7,19.4-1.7l0,0c0.1,0,0.1,0,0.2,0c6.5,0,13.2,0.6,18.9,1.7c4,0.8,9.2,2.2,10.9,4.1c0,0.1,0.1,0.1,0.1,0.2l0,0.8
					c0,0.1-0.1,0.2-0.2,0.3c-0.1,0-0.2,0-0.3-0.1c-1.7-2-7.4-3.4-10.7-4c-5.6-1.1-12.2-1.7-18.6-1.7c-0.1,0-0.1,0-0.2,0
					c-6.8,0-13.6,0.6-19.2,1.7c-4.6,0.9-9.8,2.6-10.3,3.9C58.2,141.6,58.1,141.7,58,141.7z M88,135.3c6.5,0,13.1,0.6,18.7,1.7
					c3.7,0.7,8.2,1.9,10.3,3.6c-1.4-1.4-5-2.6-10.3-3.7c-5.7-1.1-12.4-1.7-19-1.7l0,0c-6.9,0-13.7,0.6-19.3,1.7
					c-5.4,1.1-9.2,2.6-10,3.6c1.9-1.6,7.2-2.9,10.1-3.5c5.6-1.1,12.5-1.7,19.3-1.7C87.8,135.3,87.9,135.3,88,135.3z"/>
			</g>
			<g>
				<path class="st18" d="M87.6,122.1c10.9-0.1,20.5,1.5,24.8,3.8l1.6,2.8c-3.8-2-14.1-4.2-26.4-3.9c-10,0.1-20.8,1.1-26.2,4
					l1.9-3.2C67.8,123.2,78.2,122.1,87.6,122.1"/>
				<path d="M61.5,129c-0.1,0-0.2,0-0.2-0.1c-0.1-0.1-0.1-0.2,0-0.3l1.9-3.2c0,0,0.1-0.1,0.1-0.1c4.6-2.4,15.6-3.5,24.4-3.5
					c0.2,0,0.4,0,0.6,0c10.4,0,19.9,1.5,24.4,3.8c0,0,0.1,0.1,0.1,0.1l1.6,2.8c0.1,0.1,0,0.3,0,0.3c-0.1,0.1-0.2,0.1-0.3,0.1
					c-4-2.1-14.2-4.1-26.3-3.8c-7,0-19.8,0.6-26,3.9C61.6,129,61.5,129,61.5,129z M63.6,125.8l-1.4,2.3c6.6-3,18.6-3.5,25.4-3.6
					c11.3-0.3,21.2,1.5,25.7,3.5l-1.1-1.9c-4.6-2.3-14.2-3.7-24.6-3.7c0,0,0,0,0,0C78.9,122.4,68.2,123.4,63.6,125.8z"/>
			</g>
			<g>
				<path class="st18" d="M87.8,124.3c6.2,0,12.3,0.3,17.1,1.2c4.5,0.8,8.7,2.1,9.3,2.7l0.5,0.8c-1.5-1-5.2-2-9.9-2.9
					c-4.7-0.9-10.8-1.2-17-1.2c-7,0-12.5,0.3-17.2,1.2c-5,0.9-8.4,2.3-9.3,2.9l0.5-0.9c1.7-0.8,4.3-1.9,8.7-2.6
					C75.3,124.6,80.8,124.4,87.8,124.3L87.8,124.3L87.8,124.3z M87.8,121.8c6,0,11.9,0.3,16.5,1.1c3.6,0.7,7.2,1.8,8.5,2.8l0.7,1.1
					c-1.2-1.3-5.6-2.5-9.5-3.2c-4.6-0.8-10.2-1.1-16.2-1.1c-6.3,0-12.1,0.4-16.5,1.2c-4.3,0.8-7,1.8-8.2,2.5l0.6-0.9
					c1.6-0.8,4.2-1.6,7.5-2.3C75.6,122.2,81.5,121.8,87.8,121.8L87.8,121.8z"/>
				<path d="M114.6,129.4c-0.1,0-0.1,0-0.2,0c-1.4-0.9-5-2-9.8-2.9c-4.2-0.8-9.9-1.2-16.9-1.2c-7,0-12.5,0.3-17.2,1.2
					c-4.8,0.9-8.3,2.2-9.1,2.8c-0.1,0.1-0.3,0.1-0.4,0c-0.1-0.1-0.1-0.2-0.1-0.4l0.5-0.9c0-0.1,0.1-0.1,0.1-0.1
					c2.2-1.1,5.1-2,8.8-2.7c4.4-0.8,9.4-1.2,17.4-1.2h0c0.1,0,0.3,0,0.4,0c6.6,0,12.3,0.4,16.7,1.2c4.1,0.8,8.8,2,9.5,2.8l0.5,0.9
					c0.1,0.1,0,0.3-0.1,0.4C114.7,129.4,114.7,129.4,114.6,129.4z M88.2,124.7c6.8,0,12.4,0.4,16.6,1.2c4,0.8,7.3,1.6,9.1,2.5
					c-0.6-0.5-4.4-1.7-9.1-2.6c-4.4-0.8-10.3-1.2-17-1.2c-7.9,0-12.9,0.4-17.3,1.2c-3.1,0.6-5.6,1.3-7.7,2.2
					c1.7-0.7,4.3-1.5,7.7-2.1c4.7-0.8,10.2-1.2,17.3-1.2C87.9,124.7,88.1,124.7,88.2,124.7z M113.4,127.1c-0.1,0-0.2,0-0.2-0.1
					c-1.1-1.2-5.5-2.5-9.3-3.1c-4.1-0.7-9.4-1.1-16.1-1.1c-6.5,0-12.2,0.4-16.5,1.2c-3.8,0.7-6.8,1.7-8.1,2.5
					c-0.1,0.1-0.3,0.1-0.4,0c-0.1-0.1-0.1-0.2,0-0.4l0.6-0.9c0,0,0.1-0.1,0.1-0.1c1.6-0.9,4.2-1.6,7.6-2.3
					c4.3-0.8,10.1-1.2,16.7-1.2l0,0h0c6.5,0,12.2,0.4,16.5,1.1c4,0.8,7.4,1.9,8.6,2.8c0,0,0.1,0,0.1,0.1l0.7,1.1
					c0.1,0.1,0,0.3-0.1,0.4C113.5,127.1,113.5,127.1,113.4,127.1z M87.8,122.1c-6.6,0-12.3,0.4-16.6,1.2c-2.6,0.5-4.7,1.1-6.3,1.7
					c1.6-0.6,3.8-1.2,6.3-1.6C75.5,122.6,81.2,122.2,87.8,122.1c6.8,0.1,12.1,0.5,16.2,1.2c2.2,0.4,4.7,1,6.6,1.7
					c-1.6-0.6-3.9-1.3-6.5-1.8C99.9,122.5,94.2,122.1,87.8,122.1L87.8,122.1z"/>
			</g>
			<g>
				<path class="st18" d="M102.3,154.2c-5.4-1-10.8-1.2-14.6-1.1c-18.2,0.2-24.1,3.7-24.8,4.8l-1.4-2.2c4.6-3.4,14.6-5.2,26.3-5.1
					c6.1,0.1,11.3,0.5,15.8,1.4L102.3,154.2"/>
				<path d="M62.9,158.2C62.9,158.2,62.9,158.2,62.9,158.2c-0.1,0-0.2-0.1-0.2-0.1l-1.4-2.2c-0.1-0.1,0-0.3,0.1-0.4
					c4.7-3.4,14.6-5.3,26.5-5.1c6.4,0.1,11.6,0.6,15.8,1.4c0.1,0,0.2,0.1,0.2,0.2c0,0.1,0,0.2,0,0.3l-1.3,2.2c0,0,0,0,0,0.1
					c-0.1,0.1-0.2,0.1-0.3,0.1c-4.3-0.8-9.2-1.2-14.5-1.1c-17.6,0.2-23.8,3.5-24.6,4.7C63.1,158.1,63,158.2,62.9,158.2z M61.9,155.8
					l1,1.7c1.6-1.5,8.1-4.4,24.8-4.6c5.3-0.1,10.2,0.3,14.5,1.1l1-1.7c-4.1-0.8-9.1-1.2-15.3-1.3C76.3,150.7,66.6,152.5,61.9,155.8z
					"/>
			</g>
			<g>
				<path class="st18" d="M87.6,152.8c5.1,0.1,10,0.3,14.8,1.2l-0.3,0.6c-4.5-0.8-9.2-1.1-14.5-1.1c-6.7-0.1-13.5,0.6-19.4,2.3
					c-1.9,0.5-5,1.7-5.3,2.7l-0.3-0.6c0.1-0.6,2-1.8,5.5-2.8C74.8,153.2,81.2,152.8,87.6,152.8L87.6,152.8L87.6,152.8z M87.9,150.2
					c5.3,0.1,10.7,0.3,15.9,1.4l-0.4,0.6c-4.8-0.9-9.3-1.3-15.6-1.4c-6.7,0-13.9,0.5-20.4,2.4c-2.1,0.6-5.7,1.9-5.8,3l-0.3-0.6
					c0.1-1,3.2-2.2,6-3C73.9,150.7,81.1,150.2,87.9,150.2L87.9,150.2z"/>
				<path d="M62.9,158.7c-0.1,0-0.2,0-0.2-0.1l-0.3-0.6c0-0.1,0-0.1,0-0.2c0.1-0.9,2.5-2.1,5.7-3c6.5-1.9,12.6-2.3,19.7-2.3l0,0
					c0,0,0,0,0,0c4.8,0.1,10,0.3,14.9,1.2c0.1,0,0.2,0.1,0.2,0.2c0,0.1,0,0.2,0,0.3l-0.3,0.6c-0.1,0.1-0.2,0.2-0.3,0.1
					c-4.2-0.8-8.9-1.1-14.4-1.1c-7.4-0.1-13.9,0.7-19.4,2.3c-2.3,0.6-4.9,1.8-5.1,2.5C63.2,158.6,63.1,158.7,62.9,158.7
					C63,158.7,62.9,158.7,62.9,158.7z M62.9,157.8L62.9,157.8c1.2-1.2,5.2-2.4,5.2-2.4c5.5-1.6,12.1-2.3,19.5-2.3
					c5.5,0,10.2,0.3,14.3,1.1l0.1-0.1c-4.8-0.9-9.7-1-14.4-1.1c-7.1,0-13.1,0.5-19.5,2.3C64.8,156.3,63.1,157.4,62.9,157.8z
					 M61.7,156.5c-0.1,0-0.2-0.1-0.2-0.1l-0.3-0.6c0,0,0-0.1,0-0.2c0.1-1.3,4.4-2.7,6.2-3.3c5.6-1.6,12.2-2.4,20.6-2.4c0,0,0,0,0,0
					c5.1,0.1,10.6,0.3,16,1.4c0.1,0,0.2,0.1,0.2,0.2c0,0.1,0,0.2,0,0.3l-0.4,0.6c-0.1,0.1-0.2,0.2-0.3,0.1c-5-1-9.8-1.3-15.5-1.4
					c-8.3,0-14.8,0.8-20.3,2.4c-3.1,0.9-5.6,2.1-5.6,2.7C61.9,156.4,61.8,156.5,61.7,156.5C61.7,156.5,61.7,156.5,61.7,156.5z
					 M61.6,155.6L61.6,155.6c1.1-1.1,4.6-2.2,5.8-2.6c5.6-1.6,12.1-2.4,20.5-2.4c5.6,0.1,10.4,0.3,15.4,1.3l0.1-0.1
					c-5.2-1-10.5-1.2-15.5-1.3c-8.4,0-14.9,0.8-20.4,2.4C63.8,154,61.8,155,61.6,155.6z"/>
			</g>
			<g>
				<path class="st18" d="M113.8,156l-2.2,3.4l-6.3-5.6l-16.3-11l-18.4-10.1l-9.6-3.3l2-3.8l0.7-0.4l5.9,1.5l19.6,10.1l11.3,7.1
					l9.5,6.8l3.9,4.5L113.8,156z"/>
				<path d="M111.6,159.7c-0.1,0-0.1,0-0.2-0.1l-6.3-5.6l-16.3-11L70.4,133l-9.5-3.2c-0.1,0-0.1-0.1-0.2-0.2s0-0.2,0-0.2l2-3.8
					c0,0,0.1-0.1,0.1-0.1l0.7-0.4c0.1,0,0.1,0,0.2,0l5.9,1.5l19.6,10.1l11.3,7.1l9.5,6.8l3.9,4.5c0.1,0.1,0.1,0.2,0.1,0.2l-0.1,0.7
					c0,0,0,0.1,0,0.1l-2.2,3.4C111.8,159.6,111.7,159.7,111.6,159.7C111.6,159.7,111.6,159.7,111.6,159.7z M61.4,129.3l9.2,3.2
					l18.4,10.1l16.3,11l6.1,5.4l2-3.1l0.1-0.5l-3.8-4.3l-9.4-6.8l-11.3-7.1l-19.6-10.1l-5.8-1.4l-0.5,0.3L61.4,129.3z M113.8,156
					L113.8,156L113.8,156z"/>
			</g>
			<g>
				<path class="st18" d="M60.7,129.6c1.7-1.1,14,4.3,26.9,12.1c12.8,7.8,25.1,16.6,24,18.2l-0.4,0.6l-0.2,0.1c0,0,0.2-0.3,0-0.9
					c-0.5-1.8-9.3-8.7-23.7-17.5c-14.1-8.4-25.8-13.5-27-12L60.7,129.6L60.7,129.6L60.7,129.6z M114.2,156
					c1.1-2.1-10.4-10.7-24.5-19.1c-14.5-8.2-24.9-13-26.8-11.6l-0.4,0.8c0,0,0-0.1,0.1-0.1c0.3-0.3,0.9-0.3,1.2-0.3
					c3.3,0,12.7,4.4,25.8,11.9c5.8,3.4,24.4,15.3,24.3,18.6c0,0.3,0,0.3-0.1,0.5L114.2,156L114.2,156L114.2,156z"/>
				<path d="M111,160.9c-0.1,0-0.2,0-0.2-0.1c-0.1-0.1-0.1-0.3,0.1-0.4l0,0c0,0,0-0.1-0.1-0.5c-0.5-1.5-8.3-8.1-23.6-17.3
					c-15.2-9.1-25.8-13.2-26.6-12.1c-0.1,0.1-0.3,0.1-0.4,0.1c-0.1-0.1-0.2-0.2-0.1-0.4l0.4-0.7c0,0,0.1-0.1,0.1-0.1
					c2.1-1.4,15.7,5.2,27.2,12.1c11.2,6.8,23.6,15.4,24.2,18c0.1,0.2,0,0.5-0.1,0.6l-0.4,0.6c0,0,0,0.1-0.1,0.1l-0.2,0.1l0,0
					c0,0,0,0,0,0C111.1,160.9,111.1,160.9,111,160.9z M61.1,129.8c3.7,0,15.7,5.9,26.3,12.3c14.2,8.6,23.2,15.7,23.8,17.6
					c0,0,0,0.1,0,0.1l0,0c0-0.1,0-0.1,0-0.2c-0.5-2.1-10.7-9.7-23.9-17.7c-13.3-8-24.8-13-26.5-12.2C61,129.8,61,129.8,61.1,129.8z
					 M113.7,157c-0.1,0-0.1,0-0.2-0.1c-0.1-0.1-0.2-0.3-0.1-0.4l0-0.1c0,0,0-0.1,0-0.2l0-0.1c0.1-3-17.2-14.4-24.1-18.4
					C76.3,130.3,67,126,63.7,126c-0.3,0-0.7,0-1,0.2c-0.1,0.1-0.2,0.2-0.4,0.2c-0.1,0-0.2-0.2-0.2-0.3c0,0,0-0.1,0-0.1l0.4-0.8
					c0,0,0-0.1,0.1-0.1c1.9-1.4,11,2.5,27.1,11.6c12.8,7.6,25.9,16.9,24.6,19.4c0,0,0,0,0,0l-0.4,0.6c0,0,0,0.1-0.1,0.1
					C113.9,156.9,113.8,157,113.7,157z M114.2,156L114.2,156L114.2,156z M63.7,125.4C63.7,125.4,63.7,125.4,63.7,125.4
					c3.3,0.1,12.8,4.4,26,11.9c3.9,2.2,22.7,14,24.3,18.3c0.1-1.9-8.9-9.3-24.5-18.5C70,126.1,64.8,125,63.4,125.4
					C63.5,125.4,63.6,125.4,63.7,125.4C63.6,125.4,63.7,125.4,63.7,125.4z"/>
			</g>
		</g>
		<g class="st15">
			<g>
				<path class="st19" d="M70.1,145.2c0,4.8,2,9.2,5.2,12.4c3.2,3.2,7.6,5.2,12.4,5.2c4.9,0,9.3-2,12.5-5.2
					c3.2-3.2,5.2-7.6,5.2-12.4h0v-23.5l-35.2,0L70.1,145.2L70.1,145.2L70.1,145.2z"/>
				<path d="M87.7,163.2c-4.7,0-9.2-1.9-12.6-5.3c-3.4-3.4-5.3-7.9-5.3-12.6l0-23.9l35.9,0v23.8c0,4.8-1.9,9.3-5.3,12.7
					C97,161.3,92.5,163.2,87.7,163.2z M70.5,122l0,23.2c0,4.6,1.8,8.9,5.1,12.1c3.3,3.3,7.6,5.1,12.2,5.1c4.6,0,9-1.8,12.2-5.1
					s5.1-7.6,5.1-12.2l0-23.2L70.5,122z"/>
			</g>
			<g>
				<path class="st16" d="M70.8,145.3L70.8,145.3c0,4.6,1.9,8.8,5,11.9c3.1,3.1,7.3,5,11.9,5c4.7,0,8.9-1.9,11.9-4.9
					c3.1-3,5-7.2,5-11.9h0v-22.8l-33.8,0L70.8,145.3 M97.8,129.3l0,14.5l0,1.5h0c0,0.4,0,0.9-0.1,1.3c-0.3,2.3-1.3,4.3-2.9,5.8
					c-1.8,1.8-4.4,2.9-7.1,2.9c-2.8,0-5.2-1.2-7.1-3c-1.9-1.9-3-4.4-3-7.1l0-16L97.8,129.3L97.8,129.3L97.8,129.3z"/>
				<path d="M87.7,162.4c-4.5,0-8.9-1.8-12.1-5c-3.3-3.2-5.1-7.5-5.1-12.1l0.5,0h-0.5l0-23l34.3,0v23c0,4.5-1.8,8.8-5,12.1
					C96.6,160.6,92.3,162.4,87.7,162.4z M71.1,145.3L71.1,145.3c0,4.4,1.7,8.6,4.9,11.7c3.2,3.1,7.3,4.9,11.8,4.9
					c4.4,0,8.6-1.7,11.8-4.9c3.1-3.1,4.9-7.3,4.9-11.7v-22.5l-33.3,0L71.1,145.3L71.1,145.3z M87.7,155.7c-2.7,0-5.3-1.1-7.2-3.1
					c-1.9-1.9-3.1-4.6-3.1-7.3l0-16.3h0.3l20.4,0l0,0.3l0,14.5l0,1.5c0,0.4,0,0.9-0.1,1.3c-0.3,2.3-1.3,4.3-3,6
					C93.1,154.6,90.5,155.7,87.7,155.7z M77.9,129.5l0,15.8c0,2.6,1.1,5.1,2.9,6.9c1.9,1.9,4.3,2.9,6.9,2.9c2.6,0,5.1-1,7-2.9
					c1.6-1.6,2.6-3.5,2.8-5.7c0-0.4,0.1-0.8,0.1-1.2l0-1.5l0-14.3L77.9,129.5z"/>
			</g>
			<g id="castle3">
				<g id="castle">
					<g>
						<path class="st20" d="M73,128.4c0-1.6,1.2-2,1.2-2c0,0,1.3,0.4,1.3,2L73,128.4"/>
					</g>
					<g>
						<path class="st20" d="M72,126.4l-0.2,1.9l1.2,0c0-1.6,1.2-1.8,1.2-1.8c0,0,1.2,0.3,1.2,1.8h1.2l-0.2-1.9L72,126.4L72,126.4
							L72,126.4z"/>
						<path d="M73.3,128.6l-1.8,0l0.3-2.4l4.9,0l0.3,2.4h-1.8l0-0.2c0-1.1-0.8-1.5-1-1.6c-0.2,0-0.9,0.3-0.9,1.6L73.3,128.6z
							 M75.7,128.1h0.7l-0.2-1.4l-1.2,0c0,0,0,0,0,0C75.3,126.9,75.6,127.4,75.7,128.1z M72.1,128.1l0.7,0c0.1-0.7,0.4-1.1,0.6-1.4
							l-1.2,0L72.1,128.1z"/>
					</g>
					<g>
						<path class="st20" d="M71.7,128.3h5c0.1,0,0.2,0.1,0.2,0.2c0,0.1-0.1,0.2-0.2,0.2h-5c-0.1,0-0.2-0.1-0.2-0.2
							C71.5,128.4,71.6,128.3,71.7,128.3z"/>
						<path d="M76.7,129h-5c-0.2,0-0.4-0.2-0.4-0.5c0-0.3,0.2-0.5,0.4-0.5h5c0.2,0,0.4,0.2,0.4,0.5C77.2,128.8,77,129,76.7,129z"/>
					</g>
					<g>
						<path class="st20" d="M73.5,128.3c0-1,0.7-1.3,0.7-1.3c0,0,0.7,0.3,0.7,1.3H73.5"/>
						<path d="M75.2,128.6h-1.9l0-0.3c0-0.7,0.3-1.1,0.5-1.3c0.1-0.1,0.3-0.2,0.4-0.2c0,0,0,0,0,0c0.1,0,0.9,0.4,0.9,1.5L75.2,128.6
							z M73.8,128.1h0.8c-0.1-0.4-0.3-0.6-0.4-0.7C74.1,127.4,73.9,127.7,73.8,128.1z"/>
					</g>
					<g>
						<path class="st20" d="M71.8,125.7h4.8c0.1,0,0.2,0.1,0.2,0.2c0,0.1-0.1,0.2-0.2,0.2h-4.8c-0.1,0-0.2-0.1-0.2-0.2
							C71.6,125.8,71.7,125.7,71.8,125.7z"/>
						<path d="M76.6,126.3h-4.8c-0.2,0-0.4-0.2-0.4-0.5s0.2-0.5,0.4-0.5h4.8c0.2,0,0.4,0.2,0.4,0.5S76.9,126.3,76.6,126.3z"/>
					</g>
					<g>
						<path class="st20" d="M71.9,126.1h4.6c0.1,0,0.2,0.1,0.2,0.2c0,0.1-0.1,0.2-0.2,0.2h-4.6c-0.1,0-0.2-0.1-0.2-0.2
							C71.7,126.2,71.8,126.1,71.9,126.1z"/>
						<path d="M76.5,126.7h-4.6c-0.2,0-0.4-0.2-0.4-0.5c0-0.3,0.2-0.5,0.4-0.5h4.6c0.2,0,0.4,0.2,0.4,0.5
							C76.9,126.5,76.8,126.7,76.5,126.7z"/>
					</g>
					<g>
						<path class="st20" d="M73.4,122.9l0.4,0v0.3H74v-0.3l0.4,0v0.3h0.3v-0.3H75l0,0.6c0,0.1-0.1,0.2-0.2,0.2h-1.3
							c-0.1,0-0.2-0.1-0.2-0.2L73.4,122.9L73.4,122.9L73.4,122.9z"/>
						<path d="M74.9,123.9h-1.3c-0.2,0-0.4-0.2-0.4-0.4l0-0.8l0.6,0v0l0.6,0v0h0.9l0,0.8C75.3,123.8,75.1,123.9,74.9,123.9z"/>
					</g>
					<g>
						<path class="st20" d="M74.8,123.7l0.1,1.9l-1.3,0l0.1-1.9L74.8,123.7"/>
						<path d="M75.1,125.9l-1.8,0l0.1-2.4l1.6,0L75.1,125.9z M73.8,125.4l0.8,0l-0.1-1.4l-0.6,0L73.8,125.4z"/>
					</g>
					<g id="cp1">
						<path class="st20" d="M73.2,124.6l0,1l-1.2,0l0-1L73.2,124.6L73.2,124.6L73.2,124.6z"/>
						<path d="M71.8,125.9l0.1-1.5h1.6l0.1,1.5L71.8,125.9z M72.3,124.9l0,0.5l0.7,0l0-0.5H72.3z"/>
					</g>
					<g>
						<g id="cp1_1_">
							<path class="st20" d="M76.4,124.6l0,1l-1.2,0l0-1L76.4,124.6L76.4,124.6L76.4,124.6z"/>
							<path d="M74.9,125.9l0.1-1.5h1.6l0.1,1.5L74.9,125.9z M75.4,124.9l0,0.5l0.7,0l0-0.5H75.4z"/>
						</g>
					</g>
					<g id="cp2">
						<path class="st20" d="M71.8,123.9l0.4,0v0.3h0.3v-0.3l0.4,0v0.3h0.3v-0.3l0.4,0l0,0.6c0,0.1-0.1,0.2-0.2,0.2H72
							c-0.1,0-0.2-0.1-0.2-0.2L71.8,123.9L71.8,123.9L71.8,123.9z"/>
						<path d="M73.3,124.9H72c-0.2,0-0.4-0.2-0.4-0.4l0-0.8l2.1,0l0,0.8C73.7,124.7,73.5,124.9,73.3,124.9z"/>
					</g>
					<g>
						<g id="cp2_1_">
							<path class="st20" d="M75,123.9l0.4,0v0.3h0.3v-0.3l0.4,0v0.3h0.3v-0.3l0.4,0l0,0.6c0,0.1-0.1,0.2-0.2,0.2h-1.3
								c-0.1,0-0.2-0.1-0.2-0.2L75,123.9L75,123.9L75,123.9z"/>
							<path d="M76.4,124.9h-1.3c-0.2,0-0.4-0.2-0.4-0.4l0-0.8l2.1,0l0,0.8C76.8,124.7,76.7,124.9,76.4,124.9z"/>
						</g>
					</g>
					<g>
						<path d="M74.1,124.3c0-0.2,0.3-0.2,0.3,0v0.5h-0.3L74.1,124.3"/>
					</g>
					<g id="cp3">
						<path d="M72.5,125c0-0.2,0.2-0.2,0.2,0v0.4h-0.2L72.5,125"/>
					</g>
					<g>
						<g id="cp3_1_">
							<path d="M75.7,125c0-0.2,0.2-0.2,0.2,0v0.4h-0.2L75.7,125"/>
						</g>
					</g>
				</g>
				<g>
					<g id="castle_1_">
						<g>
							<path class="st20" d="M73,142.2c0-1.6,1.2-2,1.2-2c0,0,1.3,0.4,1.3,2L73,142.2"/>
						</g>
						<g>
							<path class="st20" d="M72,140.2l-0.2,1.9l1.2,0c0-1.6,1.2-1.8,1.2-1.8c0,0,1.2,0.3,1.2,1.8h1.2l-0.2-1.9L72,140.2L72,140.2
								L72,140.2z"/>
							<path d="M73.3,142.3l-1.8,0l0.3-2.4l4.9,0l0.3,2.4h-1.8l0-0.2c0-1.1-0.8-1.5-1-1.6c-0.2,0.1-0.9,0.4-0.9,1.6L73.3,142.3z
								 M75.7,141.8h0.7l-0.2-1.4l-1.2,0c0,0,0,0,0,0C75.3,140.7,75.6,141.1,75.7,141.8z M72.1,141.8l0.7,0c0.1-0.7,0.4-1.1,0.6-1.4
								l-1.2,0L72.1,141.8z"/>
						</g>
						<g>
							<path class="st20" d="M71.7,142.1h5c0.1,0,0.2,0.1,0.2,0.2c0,0.1-0.1,0.2-0.2,0.2h-5c-0.1,0-0.2-0.1-0.2-0.2
								C71.5,142.2,71.6,142.1,71.7,142.1z"/>
							<path d="M76.7,142.8h-5c-0.2,0-0.4-0.2-0.4-0.5c0-0.3,0.2-0.5,0.4-0.5h5c0.2,0,0.4,0.2,0.4,0.5
								C77.2,142.6,77,142.8,76.7,142.8z"/>
						</g>
						<g>
							<path class="st20" d="M73.5,142.1c0-1,0.7-1.3,0.7-1.3c0,0,0.7,0.3,0.7,1.3H73.5"/>
							<path d="M75.2,142.3h-1.9l0-0.3c0-0.7,0.3-1.1,0.5-1.3c0.1-0.1,0.3-0.2,0.4-0.2c0,0,0,0,0,0c0.1,0,0.9,0.4,0.9,1.5
								L75.2,142.3z M73.8,141.8h0.8c-0.1-0.4-0.3-0.6-0.4-0.7C74.1,141.2,73.9,141.4,73.8,141.8z"/>
						</g>
						<g>
							<path class="st20" d="M71.8,139.4h4.8c0.1,0,0.2,0.1,0.2,0.2c0,0.1-0.1,0.2-0.2,0.2h-4.8c-0.1,0-0.2-0.1-0.2-0.2
								C71.6,139.5,71.7,139.4,71.8,139.4z"/>
							<path d="M76.6,140.1h-4.8c-0.2,0-0.4-0.2-0.4-0.5c0-0.3,0.2-0.5,0.4-0.5h4.8c0.2,0,0.4,0.2,0.4,0.5
								C77.1,139.9,76.9,140.1,76.6,140.1z"/>
						</g>
						<g>
							<path class="st20" d="M71.9,139.8h4.6c0.1,0,0.2,0.1,0.2,0.2c0,0.1-0.1,0.2-0.2,0.2h-4.6c-0.1,0-0.2-0.1-0.2-0.2
								C71.7,139.9,71.8,139.8,71.9,139.8z"/>
							<path d="M76.5,140.5h-4.6c-0.2,0-0.4-0.2-0.4-0.5s0.2-0.5,0.4-0.5h4.6c0.2,0,0.4,0.2,0.4,0.5S76.8,140.5,76.5,140.5z"/>
						</g>
						<g>
							<path class="st20" d="M73.4,136.7l0.4,0v0.3H74v-0.3l0.4,0v0.3h0.3v-0.3H75l0,0.6c0,0.1-0.1,0.2-0.2,0.2h-1.3
								c-0.1,0-0.2-0.1-0.2-0.2L73.4,136.7L73.4,136.7L73.4,136.7z"/>
							<path d="M74.9,137.7h-1.3c-0.2,0-0.4-0.2-0.4-0.4l0-0.8l2.1,0l0,0.8C75.3,137.5,75.1,137.7,74.9,137.7z"/>
						</g>
						<g>
							<path class="st20" d="M74.8,137.5l0.1,1.9l-1.3,0l0.1-1.9L74.8,137.5"/>
							<path d="M75.1,139.6l-1.8,0l0.1-2.4l1.6,0L75.1,139.6z M73.8,139.1l0.8,0l-0.1-1.4l-0.6,0L73.8,139.1z"/>
						</g>
						<g id="cp1_2_">
							<path class="st20" d="M73.2,138.4l0,1l-1.2,0l0-1L73.2,138.4L73.2,138.4L73.2,138.4z"/>
							<path d="M71.8,139.6l0.1-1.5h1.6l0.1,1.5L71.8,139.6z M72.3,138.6l0,0.5l0.7,0l0-0.5H72.3z"/>
						</g>
						<g>
							<g id="cp1_3_">
								<path class="st20" d="M76.4,138.4l0,1l-1.2,0l0-1L76.4,138.4L76.4,138.4L76.4,138.4z"/>
								<path d="M74.9,139.6l0.1-1.5h1.6l0.1,1.5L74.9,139.6z M75.4,138.6l0,0.5l0.7,0l0-0.5H75.4z"/>
							</g>
						</g>
						<g id="cp2_2_">
							<path class="st20" d="M71.8,137.6l0.4,0v0.3h0.3v-0.3l0.4,0v0.3h0.3v-0.3l0.4,0l0,0.6c0,0.1-0.1,0.2-0.2,0.2H72
								c-0.1,0-0.2-0.1-0.2-0.2L71.8,137.6L71.8,137.6L71.8,137.6z"/>
							<path d="M73.3,138.6H72c-0.2,0-0.4-0.2-0.4-0.4l0-0.8l2.1,0l0,0.8C73.7,138.4,73.5,138.6,73.3,138.6z"/>
						</g>
						<g>
							<g id="cp2_3_">
								<path class="st20" d="M75,137.6l0.4,0v0.3h0.3v-0.3l0.4,0v0.3h0.3v-0.3l0.4,0l0,0.6c0,0.1-0.1,0.2-0.2,0.2h-1.3
									c-0.1,0-0.2-0.1-0.2-0.2L75,137.6L75,137.6L75,137.6z"/>
								<path d="M76.4,138.6h-1.3c-0.2,0-0.4-0.2-0.4-0.4l0-0.8l2.1,0l0,0.8C76.8,138.4,76.7,138.6,76.4,138.6z"/>
							</g>
						</g>
						<g>
							<path d="M74.1,138.1c0-0.2,0.3-0.2,0.3,0v0.5h-0.3L74.1,138.1"/>
						</g>
						<g id="cp3_2_">
							<path d="M72.5,138.7c0-0.2,0.2-0.2,0.2,0v0.4h-0.2L72.5,138.7"/>
						</g>
						<g>
							<g id="cp3_3_">
								<path d="M75.7,138.7c0-0.2,0.2-0.2,0.2,0v0.4h-0.2L75.7,138.7"/>
							</g>
						</g>
					</g>
				</g>
				<g transform="matrix(0.70460892,-0.70959585,0.70959585,0.70460892,-35.341459,275.10898)">
					<g id="castle_2_">
						<g>
							<path class="st20" d="M78.3,156.5c-1.1-1.2-0.6-2.3-0.6-2.3c0,0,1.2-0.6,2.3,0.6L78.3,156.5"/>
						</g>
						<g>
							<path class="st20" d="M76.2,155.8l1.2,1.5l0.9-0.9c-1.1-1.1-0.5-2.1-0.4-2.1c0,0,1.1-0.6,2.1,0.4l0.9-0.9l-1.5-1.2
								L76.2,155.8L76.2,155.8L76.2,155.8z"/>
							<path d="M77.4,157.6l-1.5-1.9l3.4-3.5l1.9,1.5L80,155l-0.2-0.2c-0.8-0.8-1.6-0.5-1.8-0.4c-0.1,0.1-0.4,0.9,0.4,1.8l0.2,0.2
								L77.4,157.6z M76.6,155.8l0.9,1.1l0.5-0.5c-0.5-0.5-0.6-1-0.5-1.4L76.6,155.8z M78.6,153.8c0.4,0,0.9,0.1,1.4,0.5l0.5-0.5
								l-1.1-0.9l-0.9,0.9C78.5,153.8,78.6,153.8,78.6,153.8z"/>
						</g>
						<g>
							<path class="st20" d="M77.4,157.3l3.5-3.6c0.1-0.1,0.2-0.1,0.3,0c0.1,0.1,0.1,0.2,0,0.3l-3.5,3.6c-0.1,0.1-0.2,0.1-0.3,0
								C77.3,157.5,77.3,157.4,77.4,157.3z"/>
							<path d="M77.6,158c-0.1,0-0.3-0.1-0.4-0.1c-0.1-0.1-0.2-0.2-0.2-0.4c0-0.1,0-0.2,0.1-0.3l3.5-3.6c0.1-0.1,0.2-0.1,0.3-0.1
								c0.1,0,0.2,0.1,0.3,0.1c0.2,0.2,0.2,0.5,0,0.7l-3.5,3.6C77.8,157.9,77.7,158,77.6,158z M77.5,157.5L77.5,157.5
								C77.5,157.5,77.5,157.5,77.5,157.5z M77.5,157.5L77.5,157.5L77.5,157.5z"/>
						</g>
						<g>
							<path class="st20" d="M78.6,156c-0.7-0.7-0.4-1.4-0.4-1.4c0,0,0.7-0.3,1.4,0.4L78.6,156"/>
							<path d="M78.6,156.4l-0.2-0.2c-0.5-0.5-0.6-1.1-0.5-1.3c0-0.3,0.1-0.4,0.2-0.4c0.1,0,0.9-0.4,1.7,0.4L80,155L78.6,156.4z
								 M78.4,154.9c0,0.2,0,0.5,0.2,0.8l0.6-0.6C78.9,154.8,78.6,154.8,78.4,154.9z"/>
						</g>
						<g>
							<path class="st20" d="M75.5,155.4l3.4-3.4c0.1-0.1,0.2-0.1,0.3,0c0.1,0.1,0.1,0.2,0,0.3l-3.4,3.4c-0.1,0.1-0.2,0.1-0.3,0
								C75.5,155.6,75.5,155.4,75.5,155.4z"/>
							<path d="M75.7,156C75.7,156,75.7,156,75.7,156c-0.1,0-0.2-0.1-0.3-0.1c-0.1-0.1-0.1-0.2-0.1-0.3c0-0.1,0-0.2,0.1-0.3l3.4-3.4
								c0.1-0.1,0.2-0.1,0.3-0.1c0,0,0,0,0,0c0.1,0,0.2,0.1,0.3,0.1c0.2,0.2,0.2,0.5,0,0.6l-3.4,3.4C75.9,155.9,75.8,156,75.7,156z"
								/>
						</g>
						<g>
							<path class="st20" d="M75.9,155.6l3.2-3.3c0.1-0.1,0.2-0.1,0.3,0c0.1,0.1,0.1,0.2,0,0.3l-3.2,3.3c-0.1,0.1-0.2,0.1-0.3,0
								C75.9,155.8,75.8,155.7,75.9,155.6z"/>
							<path d="M76.1,156.2C76.1,156.2,76.1,156.2,76.1,156.2c-0.1,0-0.3-0.1-0.3-0.1c-0.2-0.2-0.2-0.5,0-0.6l3.2-3.3
								c0.1-0.1,0.2-0.1,0.3-0.1c0.1,0,0.2,0.1,0.3,0.1c0.1,0.1,0.1,0.2,0.1,0.3c0,0.1,0,0.2-0.1,0.3l-3.2,3.3
								C76.3,156.1,76.2,156.2,76.1,156.2z"/>
						</g>
						<g>
							<path class="st20" d="M74.7,152.3l0.3-0.3l0.2,0.2l0.2-0.2l-0.2-0.2l0.3-0.3l0.2,0.2l0.2-0.2l-0.2-0.2l0.3-0.3l0.4,0.4
								c0.1,0.1,0.1,0.2,0,0.2l-0.9,0.9c-0.1,0.1-0.2,0.1-0.2,0L74.7,152.3L74.7,152.3L74.7,152.3z"/>
							<path d="M75.3,153c-0.1,0-0.2,0-0.3-0.1l-0.6-0.6l0.4-0.4l0,0l0.5-0.5l0,0l0.6-0.6l0.6,0.6c0.2,0.2,0.2,0.4,0,0.6l-0.9,0.9
								C75.5,153,75.4,153,75.3,153z"/>
						</g>
						<g>
							<path class="st20" d="M76.3,151.9l1.4,1.3l-0.9,0.9l-1.3-1.4L76.3,151.9"/>
							<path d="M76.8,154.5l-1.6-1.8l1.1-1.1l1.8,1.6L76.8,154.5z M75.8,152.7l1,1l0.5-0.5l-1-1L75.8,152.7z"/>
						</g>
						<g id="cp1_4_">
							<path class="st20" d="M75.8,153.6l0.8,0.7l-0.9,0.9l-0.7-0.8L75.8,153.6L75.8,153.6L75.8,153.6z"/>
							<path d="M75.7,155.6l-1.1-1.1l1.2-1.2l1.1,1L75.7,155.6z M75.3,154.5l0.4,0.4l0.5-0.5l-0.4-0.4L75.3,154.5z"/>
						</g>
						<g>
							<g id="cp1_5_">
								<path class="st20" d="M78,151.4l0.8,0.7l-0.9,0.9l-0.7-0.8L78,151.4L78,151.4L78,151.4z"/>
								<path d="M77.9,153.3l-1.1-1.1l1.2-1.2l1.1,1L77.9,153.3z M77.5,152.2l0.4,0.4l0.5-0.5l-0.4-0.4L77.5,152.2z"/>
							</g>
						</g>
						<g id="cp2_4_">
							<path class="st20" d="M74.3,154.1l0.3-0.3l0.2,0.2l0.2-0.2l-0.2-0.2l0.3-0.3l0.2,0.2l0.2-0.2l-0.2-0.2l0.3-0.3l0.4,0.4
								c0.1,0.1,0.1,0.2,0,0.2l-0.9,0.9c-0.1,0.1-0.2,0.1-0.2,0L74.3,154.1L74.3,154.1L74.3,154.1z"/>
							<path d="M74.8,154.8c-0.1,0-0.2,0-0.3-0.1l-0.6-0.6l0.4-0.4l0,0l0.4-0.4l0,0l0.6-0.6l0.6,0.6c0.2,0.2,0.2,0.4,0,0.6l-0.9,0.9
								C75,154.8,74.9,154.8,74.8,154.8z"/>
						</g>
						<g>
							<g id="cp2_5_">
								<path class="st20" d="M76.5,151.9l0.3-0.3l0.2,0.2l0.2-0.2l-0.2-0.2l0.3-0.3l0.2,0.2l0.2-0.2l-0.2-0.2l0.3-0.3l0.4,0.4
									c0.1,0.1,0.1,0.2,0,0.2l-0.9,0.9c-0.1,0.1-0.2,0.1-0.2,0L76.5,151.9L76.5,151.9L76.5,151.9z"/>
								<path d="M77,152.6c-0.1,0-0.2,0-0.3-0.1l-0.6-0.6l0.4-0.4l0,0L77,151l0,0l0.6-0.6l0.6,0.6c0.2,0.2,0.2,0.4,0,0.6l-0.9,0.9
									C77.3,152.5,77.1,152.6,77,152.6z"/>
							</g>
						</g>
						<g>
							<path d="M76.2,152.8c-0.1-0.1,0-0.3,0.2-0.2l0.3,0.3l-0.2,0.2L76.2,152.8"/>
						</g>
						<g id="cp3_4_">
							<path d="M75.6,154.4c-0.1-0.1,0-0.3,0.2-0.2l0.2,0.2l-0.2,0.2L75.6,154.4"/>
						</g>
						<g>
							<g id="cp3_5_">
								<path d="M77.8,152.2c-0.1-0.1,0-0.3,0.2-0.2l0.2,0.2l-0.2,0.2L77.8,152.2"/>
							</g>
						</g>
					</g>
				</g>
			</g>
			<g>
				<g id="castle_3_">
					<g>
						<path class="st20" d="M86.6,128.4c0-1.6,1.2-2,1.2-2c0,0,1.3,0.4,1.3,2L86.6,128.4"/>
					</g>
					<g>
						<path class="st20" d="M85.5,126.4l-0.2,1.9l1.2,0c0-1.6,1.2-1.8,1.2-1.8c0,0,1.2,0.3,1.2,1.8h1.2l-0.2-1.9L85.5,126.4
							L85.5,126.4L85.5,126.4z"/>
						<path d="M86.8,128.6l-1.8,0l0.3-2.4l4.9,0l0.3,2.4h-1.8l0-0.2c0-1.1-0.8-1.5-1-1.6c-0.2,0-0.9,0.3-0.9,1.6L86.8,128.6z
							 M89.2,128.1h0.7l-0.2-1.4l-1.2,0c0,0,0,0,0,0C88.8,126.9,89.2,127.4,89.2,128.1z M85.6,128.1l0.7,0c0.1-0.7,0.4-1.1,0.6-1.4
							l-1.2,0L85.6,128.1z"/>
					</g>
					<g>
						<path class="st20" d="M85.3,128.3h5c0.1,0,0.2,0.1,0.2,0.2c0,0.1-0.1,0.2-0.2,0.2h-5c-0.1,0-0.2-0.1-0.2-0.2
							C85.1,128.4,85.2,128.3,85.3,128.3z"/>
						<path d="M90.3,129h-5c-0.2,0-0.4-0.2-0.4-0.5c0-0.3,0.2-0.5,0.4-0.5h5c0.2,0,0.4,0.2,0.4,0.5C90.7,128.8,90.5,129,90.3,129z"
							/>
					</g>
					<g>
						<path class="st20" d="M87.1,128.3c0-1,0.7-1.3,0.7-1.3c0,0,0.7,0.3,0.7,1.3H87.1"/>
						<path d="M88.7,128.6h-1.9l0-0.3c0-0.7,0.3-1.1,0.5-1.3c0.1-0.1,0.3-0.2,0.4-0.2c0,0,0,0,0,0c0.1,0,0.9,0.4,0.9,1.5L88.7,128.6
							z M87.4,128.1h0.8c-0.1-0.4-0.3-0.6-0.4-0.7C87.6,127.4,87.4,127.7,87.4,128.1z"/>
					</g>
					<g>
						<path class="st20" d="M85.4,125.7h4.8c0.1,0,0.2,0.1,0.2,0.2c0,0.1-0.1,0.2-0.2,0.2h-4.8c-0.1,0-0.2-0.1-0.2-0.2
							C85.2,125.8,85.3,125.7,85.4,125.7z"/>
						<path d="M90.2,126.3h-4.8c-0.2,0-0.4-0.2-0.4-0.5s0.2-0.5,0.4-0.5h4.8c0.2,0,0.4,0.2,0.4,0.5S90.4,126.3,90.2,126.3z"/>
					</g>
					<g>
						<path class="st20" d="M85.5,126.1h4.6c0.1,0,0.2,0.1,0.2,0.2c0,0.1-0.1,0.2-0.2,0.2h-4.6c-0.1,0-0.2-0.1-0.2-0.2
							C85.3,126.2,85.4,126.1,85.5,126.1z"/>
						<path d="M90.1,126.7h-4.6c-0.2,0-0.4-0.2-0.4-0.5c0-0.3,0.2-0.5,0.4-0.5h4.6c0.2,0,0.4,0.2,0.4,0.5
							C90.5,126.5,90.3,126.7,90.1,126.7z"/>
					</g>
					<g>
						<path class="st20" d="M87,122.9l0.4,0v0.3h0.3v-0.3l0.4,0v0.3h0.3v-0.3h0.4l0,0.6c0,0.1-0.1,0.2-0.2,0.2h-1.3
							c-0.1,0-0.2-0.1-0.2-0.2L87,122.9L87,122.9L87,122.9z"/>
						<path d="M88.4,123.9h-1.3c-0.2,0-0.4-0.2-0.4-0.4l0-0.8l0.6,0v0l0.6,0v0h0.9l0,0.8C88.9,123.8,88.7,123.9,88.4,123.9z"/>
					</g>
					<g>
						<path class="st20" d="M88.3,123.7l0.1,1.9l-1.3,0l0.1-1.9L88.3,123.7"/>
						<path d="M88.7,125.9l-1.8,0l0.1-2.4l1.6,0L88.7,125.9z M87.4,125.4l0.8,0l-0.1-1.4l-0.6,0L87.4,125.4z"/>
					</g>
					<g id="cp1_6_">
						<path class="st20" d="M86.8,124.6l0,1l-1.2,0l0-1L86.8,124.6L86.8,124.6L86.8,124.6z"/>
						<path d="M85.3,125.9l0.1-1.5H87l0.1,1.5L85.3,125.9z M85.9,124.9l0,0.5l0.7,0l0-0.5H85.9z"/>
					</g>
					<g>
						<g id="cp1_7_">
							<path class="st20" d="M89.9,124.6l0,1l-1.2,0l0-1L89.9,124.6L89.9,124.6L89.9,124.6z"/>
							<path d="M88.5,125.9l0.1-1.5h1.6l0.1,1.5L88.5,125.9z M89,124.9l0,0.5l0.7,0l0-0.5H89z"/>
						</g>
					</g>
					<g id="cp2_6_">
						<path class="st20" d="M85.4,123.9l0.4,0v0.3H86v-0.3l0.4,0v0.3h0.3v-0.3l0.4,0l0,0.6c0,0.1-0.1,0.2-0.2,0.2h-1.3
							c-0.1,0-0.2-0.1-0.2-0.2L85.4,123.9L85.4,123.9L85.4,123.9z"/>
						<path d="M86.8,124.9h-1.3c-0.2,0-0.4-0.2-0.4-0.4l0-0.8l2.1,0l0,0.8C87.3,124.7,87.1,124.9,86.8,124.9z"/>
					</g>
					<g>
						<g id="cp2_7_">
							<path class="st20" d="M88.5,123.9l0.4,0v0.3h0.3v-0.3l0.4,0v0.3h0.3v-0.3l0.4,0l0,0.6c0,0.1-0.1,0.2-0.2,0.2h-1.3
								c-0.1,0-0.2-0.1-0.2-0.2L88.5,123.9L88.5,123.9L88.5,123.9z"/>
							<path d="M90,124.9h-1.3c-0.2,0-0.4-0.2-0.4-0.4l0-0.8l2.1,0l0,0.8C90.4,124.7,90.2,124.9,90,124.9z"/>
						</g>
					</g>
					<g>
						<path d="M87.7,124.3c0-0.2,0.3-0.2,0.3,0v0.5h-0.3L87.7,124.3"/>
					</g>
					<g id="cp3_6_">
						<path d="M86.1,125c0-0.2,0.2-0.2,0.2,0v0.4h-0.2L86.1,125"/>
					</g>
					<g>
						<g id="cp3_7_">
							<path d="M89.2,125c0-0.2,0.2-0.2,0.2,0v0.4h-0.2L89.2,125"/>
						</g>
					</g>
				</g>
			</g>
			<g transform="matrix(-1,0,0,1,479.79195,0)">
				<g id="castle3_1_">
					<g id="castle_4_">
						<g>
							<path class="st20" d="M102.5,128.4c0-1.6-1.2-2-1.2-2c0,0-1.3,0.4-1.3,2L102.5,128.4"/>
						</g>
						<g>
							<path class="st20" d="M103.5,126.4l0.2,1.9l-1.2,0c0-1.6-1.2-1.8-1.2-1.8c0,0-1.2,0.3-1.2,1.8h-1.2l0.2-1.9L103.5,126.4
								L103.5,126.4L103.5,126.4z"/>
							<path d="M102.2,128.6l0-0.2c0-1.2-0.8-1.5-0.9-1.6c-0.2,0.1-1,0.4-1,1.6l0,0.2h-1.8l0.3-2.4l4.9,0l0.3,2.4L102.2,128.6z
								 M99.1,128.1h0.7c0.1-0.7,0.4-1.1,0.7-1.4c0,0,0,0,0,0l-1.2,0L99.1,128.1z M102.1,126.7c0.3,0.3,0.6,0.7,0.6,1.4l0.7,0
								l-0.1-1.4L102.1,126.7z"/>
						</g>
						<g>
							<path class="st20" d="M103.8,128.3h-5c-0.1,0-0.2,0.1-0.2,0.2c0,0.1,0.1,0.2,0.2,0.2h5c0.1,0,0.2-0.1,0.2-0.2
								C104,128.4,103.9,128.3,103.8,128.3z"/>
							<path d="M103.8,129h-5c-0.2,0-0.4-0.2-0.4-0.5c0-0.3,0.2-0.5,0.4-0.5h5c0.2,0,0.4,0.2,0.4,0.5C104.2,128.8,104,129,103.8,129
								z"/>
						</g>
						<g>
							<path class="st20" d="M101.9,128.3c0-1-0.7-1.3-0.7-1.3c0,0-0.7,0.3-0.7,1.3H101.9"/>
							<path d="M102.2,128.6h-1.9l0-0.3c0-1.1,0.8-1.5,0.9-1.5c0.2,0,0.4,0.1,0.5,0.2c0.2,0.2,0.5,0.6,0.5,1.3L102.2,128.6z
								 M100.8,128.1h0.8c-0.1-0.4-0.3-0.6-0.4-0.7C101.1,127.4,100.9,127.7,100.8,128.1z"/>
						</g>
						<g>
							<path class="st20" d="M103.7,125.7h-4.8c-0.1,0-0.2,0.1-0.2,0.2c0,0.1,0.1,0.2,0.2,0.2h4.8c0.1,0,0.2-0.1,0.2-0.2
								C103.8,125.8,103.8,125.7,103.7,125.7z"/>
							<path d="M103.7,126.3h-4.8c-0.2,0-0.4-0.2-0.4-0.5s0.2-0.5,0.4-0.5h4.8c0.2,0,0.4,0.2,0.4,0.5S103.9,126.3,103.7,126.3z"/>
						</g>
						<g>
							<path class="st20" d="M103.6,126.1H99c-0.1,0-0.2,0.1-0.2,0.2c0,0.1,0.1,0.2,0.2,0.2h4.6c0.1,0,0.2-0.1,0.2-0.2
								C103.7,126.2,103.7,126.1,103.6,126.1z"/>
							<path d="M103.6,126.7H99c-0.2,0-0.4-0.2-0.4-0.5c0-0.3,0.2-0.5,0.4-0.5h4.6c0.2,0,0.4,0.2,0.4,0.5
								C104,126.5,103.8,126.7,103.6,126.7z"/>
						</g>
						<g>
							<path class="st20" d="M102.1,122.9l-0.4,0v0.3h-0.3v-0.3l-0.4,0v0.3h-0.3v-0.3h-0.4l0,0.6c0,0.1,0.1,0.2,0.2,0.2h1.3
								c0.1,0,0.2-0.1,0.2-0.2L102.1,122.9L102.1,122.9L102.1,122.9z"/>
							<path d="M101.9,123.9h-1.3c-0.2,0-0.4-0.2-0.4-0.4l0-0.8l2.1,0l0,0.8C102.3,123.7,102.1,123.9,101.9,123.9z"/>
						</g>
						<g>
							<path class="st20" d="M100.7,123.7l-0.1,1.9l1.3,0l-0.1-1.9L100.7,123.7"/>
							<path d="M100.4,125.9l0.1-2.4l1.6,0l0.1,2.4L100.4,125.9z M100.9,124l-0.1,1.4l0.8,0l-0.1-1.4L100.9,124z"/>
						</g>
						<g id="cp1_8_">
							<path class="st20" d="M102.3,124.6l0,1l1.2,0l0-1L102.3,124.6L102.3,124.6L102.3,124.6z"/>
							<path d="M103.7,125.9l-1.7,0l0.1-1.5h1.6L103.7,125.9z M102.5,125.4l0.7,0l0-0.5h-0.7L102.5,125.4z"/>
						</g>
						<g>
							<g id="cp1_9_">
								<path class="st20" d="M99.1,124.6l0,1l1.2,0l0-1L99.1,124.6L99.1,124.6L99.1,124.6z"/>
								<path d="M100.6,125.9l-1.7,0l0.1-1.5h1.6L100.6,125.9z M99.3,125.4l0.7,0l0-0.5h-0.7L99.3,125.4z"/>
							</g>
						</g>
						<g id="cp2_8_">
							<path class="st20" d="M103.6,123.9l-0.4,0v0.3H103v-0.3l-0.4,0v0.3h-0.3v-0.3l-0.4,0l0,0.6c0,0.1,0.1,0.2,0.2,0.2h1.3
								c0.1,0,0.2-0.1,0.2-0.2L103.6,123.9L103.6,123.9L103.6,123.9z"/>
							<path d="M103.5,124.9h-1.3c-0.2,0-0.4-0.2-0.4-0.4l0-0.8l0.9,0l0,0l0.6,0l0,0l0.6,0l0,0.8
								C103.9,124.7,103.7,124.9,103.5,124.9z"/>
						</g>
						<g>
							<g id="cp2_9_">
								<path class="st20" d="M100.5,123.9l-0.4,0v0.3h-0.3v-0.3l-0.4,0v0.3h-0.3v-0.3l-0.4,0l0,0.6c0,0.1,0.1,0.2,0.2,0.2h1.3
									c0.1,0,0.2-0.1,0.2-0.2L100.5,123.9L100.5,123.9L100.5,123.9z"/>
								<path d="M100.3,124.9H99c-0.2,0-0.4-0.2-0.4-0.4l0-0.8l0.9,0l0,0l0.6,0l0,0l0.6,0l0,0.8
									C100.7,124.7,100.5,124.9,100.3,124.9z"/>
							</g>
						</g>
						<g>
							<path d="M101.4,124.3c0-0.2-0.3-0.2-0.3,0v0.5h0.3L101.4,124.3"/>
						</g>
						<g id="cp3_8_">
							<path d="M103,125c0-0.2-0.2-0.2-0.2,0v0.4h0.2L103,125"/>
						</g>
						<g>
							<g id="cp3_9_">
								<path d="M99.8,125c0-0.2-0.2-0.2-0.2,0v0.4h0.2L99.8,125"/>
							</g>
						</g>
					</g>
					<g>
						<g id="castle_5_">
							<g>
								<path class="st20" d="M102.5,142.2c0-1.6-1.2-2-1.2-2c0,0-1.3,0.4-1.3,2L102.5,142.2"/>
							</g>
							<g>
								<path class="st20" d="M103.5,140.2l0.2,1.9l-1.2,0c0-1.6-1.2-1.8-1.2-1.8c0,0-1.2,0.3-1.2,1.8h-1.2l0.2-1.9L103.5,140.2
									L103.5,140.2L103.5,140.2z"/>
								<path d="M102.2,142.3l0-0.2c0-1.2-0.8-1.5-0.9-1.6c-0.2,0.1-1,0.4-1,1.6l0,0.2h-1.8l0.3-2.4l4.9,0l0.3,2.4L102.2,142.3z
									 M99.1,141.8h0.7c0.1-0.7,0.4-1.1,0.7-1.4c0,0,0,0,0,0l-1.2,0L99.1,141.8z M102.1,140.4c0.3,0.3,0.6,0.7,0.6,1.4l0.7,0
									l-0.1-1.4L102.1,140.4z"/>
							</g>
							<g>
								<path class="st20" d="M103.8,142.1h-5c-0.1,0-0.2,0.1-0.2,0.2c0,0.1,0.1,0.2,0.2,0.2h5c0.1,0,0.2-0.1,0.2-0.2
									C104,142.2,103.9,142.1,103.8,142.1z"/>
								<path d="M103.8,142.8h-5c-0.2,0-0.4-0.2-0.4-0.5c0-0.3,0.2-0.5,0.4-0.5h5c0.2,0,0.4,0.2,0.4,0.5
									C104.2,142.6,104,142.8,103.8,142.8z"/>
							</g>
							<g>
								<path class="st20" d="M101.9,142.1c0-1-0.7-1.3-0.7-1.3c0,0-0.7,0.3-0.7,1.3H101.9"/>
								<path d="M102.2,142.3h-1.9l0-0.3c0-1.1,0.8-1.5,0.9-1.5c0.2,0,0.4,0.1,0.5,0.2c0.2,0.2,0.5,0.6,0.5,1.3L102.2,142.3z
									 M100.8,141.8h0.8c-0.1-0.4-0.3-0.6-0.4-0.7C101.1,141.2,100.9,141.4,100.8,141.8z"/>
							</g>
							<g>
								<path class="st20" d="M103.7,139.4h-4.8c-0.1,0-0.2,0.1-0.2,0.2c0,0.1,0.1,0.2,0.2,0.2h4.8c0.1,0,0.2-0.1,0.2-0.2
									C103.8,139.5,103.8,139.4,103.7,139.4z"/>
								<path d="M103.7,140.1h-4.8c-0.2,0-0.4-0.2-0.4-0.5c0-0.3,0.2-0.5,0.4-0.5h4.8c0.2,0,0.4,0.2,0.4,0.5
									C104.1,139.9,103.9,140.1,103.7,140.1z"/>
							</g>
							<g>
								<path class="st20" d="M103.6,139.8H99c-0.1,0-0.2,0.1-0.2,0.2c0,0.1,0.1,0.2,0.2,0.2h4.6c0.1,0,0.2-0.1,0.2-0.2
									C103.7,139.9,103.7,139.8,103.6,139.8z"/>
								<path d="M103.6,140.5H99c-0.2,0-0.4-0.2-0.4-0.5s0.2-0.5,0.4-0.5h4.6c0.2,0,0.4,0.2,0.4,0.5S103.8,140.5,103.6,140.5z"/>
							</g>
							<g>
								<path class="st20" d="M102.1,136.7l-0.4,0v0.3h-0.3v-0.3l-0.4,0v0.3h-0.3v-0.3h-0.4l0,0.6c0,0.1,0.1,0.2,0.2,0.2h1.3
									c0.1,0,0.2-0.1,0.2-0.2L102.1,136.7L102.1,136.7L102.1,136.7z"/>
								<path d="M101.9,137.7h-1.3c-0.2,0-0.4-0.2-0.4-0.4l0-0.8l2.1,0l0,0.8C102.3,137.5,102.1,137.7,101.9,137.7z"/>
							</g>
							<g>
								<path class="st20" d="M100.7,137.5l-0.1,1.9l1.3,0l-0.1-1.9L100.7,137.5"/>
								<path d="M100.4,139.6l0.1-2.4l1.6,0l0.1,2.4L100.4,139.6z M100.9,137.7l-0.1,1.4l0.8,0l-0.1-1.4L100.9,137.7z"/>
							</g>
							<g id="cp1_10_">
								<path class="st20" d="M102.3,138.4l0,1l1.2,0l0-1L102.3,138.4L102.3,138.4L102.3,138.4z"/>
								<path d="M103.7,139.6l-1.7,0l0.1-1.5h1.6L103.7,139.6z M102.5,139.1l0.7,0l0-0.5h-0.7L102.5,139.1z"/>
							</g>
							<g>
								<g id="cp1_11_">
									<path class="st20" d="M99.1,138.4l0,1l1.2,0l0-1L99.1,138.4L99.1,138.4L99.1,138.4z"/>
									<path d="M100.6,139.6l-1.7,0l0.1-1.5h1.6L100.6,139.6z M99.3,139.1l0.7,0l0-0.5h-0.7L99.3,139.1z"/>
								</g>
							</g>
							<g id="cp2_10_">
								<path class="st20" d="M103.6,137.6l-0.4,0v0.3H103v-0.3l-0.4,0v0.3h-0.3v-0.3l-0.4,0l0,0.6c0,0.1,0.1,0.2,0.2,0.2h1.3
									c0.1,0,0.2-0.1,0.2-0.2L103.6,137.6L103.6,137.6L103.6,137.6z"/>
								<path d="M103.5,138.6h-1.3c-0.2,0-0.4-0.2-0.4-0.4l0-0.8l0.9,0l0,0l0.6,0l0,0l0.6,0l0,0.8
									C103.9,138.4,103.7,138.6,103.5,138.6z"/>
							</g>
							<g>
								<g id="cp2_11_">
									<path class="st20" d="M100.5,137.6l-0.4,0v0.3h-0.3v-0.3l-0.4,0v0.3h-0.3v-0.3l-0.4,0l0,0.6c0,0.1,0.1,0.2,0.2,0.2h1.3
										c0.1,0,0.2-0.1,0.2-0.2L100.5,137.6L100.5,137.6L100.5,137.6z"/>
									<path d="M100.3,138.6H99c-0.2,0-0.4-0.2-0.4-0.4l0-0.8l0.9,0l0,0l0.6,0l0,0l0.6,0l0,0.8
										C100.7,138.4,100.6,138.6,100.3,138.6z"/>
								</g>
							</g>
							<g>
								<path d="M101.4,138.1c0-0.2-0.3-0.2-0.3,0v0.5h0.3L101.4,138.1"/>
							</g>
							<g id="cp3_10_">
								<path d="M103,138.7c0-0.2-0.2-0.2-0.2,0v0.4h0.2L103,138.7"/>
							</g>
							<g>
								<g id="cp3_11_">
									<path d="M99.8,138.7c0-0.2-0.2-0.2-0.2,0v0.4h0.2L99.8,138.7"/>
								</g>
							</g>
						</g>
					</g>
					<g transform="matrix(0.70460892,-0.70959585,0.70959585,0.70460892,-35.341459,275.10898)">
						<g id="castle_6_">
							<g>
								<path class="st20" d="M97.1,156.5c1.1-1.2,0.6-2.3,0.6-2.3c0,0-1.2-0.6-2.3,0.6L97.1,156.5"/>
							</g>
							<g>
								<path class="st20" d="M99.2,155.8l-1.2,1.5l-0.9-0.9c1.1-1.1,0.5-2.1,0.4-2.1c0,0-1.1-0.6-2.1,0.4l-0.9-0.9l1.5-1.2
									L99.2,155.8L99.2,155.8L99.2,155.8z"/>
								<path d="M98.1,157.6l-1.2-1.2l0.2-0.2c0.8-0.8,0.5-1.6,0.4-1.8c-0.2-0.1-1-0.4-1.8,0.4l-0.2,0.2l-1.2-1.2l1.9-1.5l3.4,3.5
									L98.1,157.6z M97.5,156.4l0.5,0.5l0.9-1.1l-0.8-0.8C98.1,155.3,98,155.8,97.5,156.4z M95,153.8l0.5,0.5
									c0.5-0.4,1.1-0.5,1.4-0.5c0,0,0,0,0,0l-0.9-0.9L95,153.8z"/>
							</g>
							<g>
								<path class="st20" d="M98.1,157.3l-3.5-3.6c-0.1-0.1-0.2-0.1-0.3,0c-0.1,0.1-0.1,0.2,0,0.3l3.5,3.6c0.1,0.1,0.2,0.1,0.3,0
									C98.2,157.5,98.2,157.4,98.1,157.3z"/>
								<path d="M97.9,158c-0.1,0-0.2,0-0.3-0.1l-3.5-3.6c-0.2-0.2-0.2-0.5,0-0.7c0.1-0.1,0.2-0.2,0.4-0.1c0.1,0,0.2,0,0.3,0.1
									l3.5,3.6c0.1,0.1,0.1,0.2,0.1,0.3c0,0.1-0.1,0.3-0.2,0.4C98.2,157.9,98.1,157.9,97.9,158C97.9,158,97.9,158,97.9,158z
									 M97.9,157.5C97.9,157.5,97.9,157.5,97.9,157.5L97.9,157.5z"/>
							</g>
							<g>
								<path class="st20" d="M96.8,156c0.7-0.7,0.4-1.4,0.4-1.4c0,0-0.7-0.3-1.4,0.4L96.8,156"/>
								<path d="M96.8,156.4l-1.3-1.3l0.2-0.2c0.8-0.8,1.6-0.5,1.7-0.4c0.1,0.1,0.1,0.3,0.1,0.4c0,0.3-0.1,0.8-0.5,1.3L96.8,156.4z
									 M96.2,155.1l0.6,0.6c0.3-0.3,0.3-0.6,0.2-0.8C96.9,154.8,96.6,154.8,96.2,155.1z"/>
							</g>
							<g>
								<path class="st20" d="M99.9,155.4l-3.4-3.4c-0.1-0.1-0.2-0.1-0.3,0c-0.1,0.1-0.1,0.2,0,0.3l3.4,3.4c0.1,0.1,0.2,0.1,0.3,0
									C100,155.6,100,155.4,99.9,155.4z"/>
								<path d="M99.8,156L99.8,156c-0.1,0-0.2,0-0.3-0.1l-3.4-3.4c-0.1-0.1-0.1-0.2-0.1-0.3c0-0.1,0.1-0.2,0.1-0.3
									c0.1-0.1,0.2-0.1,0.3-0.1c0,0,0,0,0,0c0.1,0,0.2,0,0.3,0.1l3.4,3.4c0.1,0.1,0.1,0.2,0.1,0.3c0,0.1-0.1,0.2-0.1,0.3
									C100,155.9,99.9,156,99.8,156z M99.8,155.5L99.8,155.5L99.8,155.5L99.8,155.5z"/>
							</g>
							<g>
								<path class="st20" d="M99.6,155.6l-3.2-3.3c-0.1-0.1-0.2-0.1-0.3,0c-0.1,0.1-0.1,0.2,0,0.3l3.2,3.3c0.1,0.1,0.2,0.1,0.3,0
									C99.6,155.8,99.6,155.7,99.6,155.6z"/>
								<path d="M99.4,156.2c-0.1,0-0.2,0-0.3-0.1l-3.2-3.3c-0.2-0.2-0.2-0.4,0-0.6c0.1-0.1,0.2-0.1,0.3-0.1c0.1,0,0.2,0,0.3,0.1
									l3.2,3.3c0.2,0.2,0.2,0.4,0,0.6C99.6,156.1,99.5,156.2,99.4,156.2z M99.4,155.8L99.4,155.8L99.4,155.8z"/>
							</g>
							<g>
								<path class="st20" d="M100.7,152.3l-0.3-0.3l-0.2,0.2l-0.2-0.2l0.2-0.2l-0.3-0.3l-0.2,0.2l-0.2-0.2l0.2-0.2l-0.3-0.3
									l-0.4,0.4c-0.1,0.1-0.1,0.2,0,0.2l0.9,0.9c0.1,0.1,0.2,0.1,0.2,0L100.7,152.3L100.7,152.3L100.7,152.3z"/>
								<path d="M100.2,153c-0.1,0-0.2,0-0.3-0.1L99,152c-0.2-0.2-0.2-0.4,0-0.6l0.6-0.6l0.6,0.6l0,0l0.5,0.5l0,0l0.4,0.4l-0.6,0.6
									C100.4,153,100.3,153,100.2,153z"/>
							</g>
							<g>
								<path class="st20" d="M99.2,151.9l-1.4,1.3l0.9,0.9l1.3-1.4L99.2,151.9"/>
								<path d="M98.7,154.5l-1.3-1.3l1.8-1.6l1.1,1.1L98.7,154.5z M98.2,153.2l0.5,0.5l1-1l-0.4-0.4L98.2,153.2z"/>
							</g>
							<g id="cp1_12_">
								<path class="st20" d="M99.7,153.6l-0.8,0.7l0.9,0.9l0.7-0.8L99.7,153.6L99.7,153.6L99.7,153.6z"/>
								<path d="M99.8,155.6l-1.2-1.2l1.1-1l1.2,1.2L99.8,155.6z M99.3,154.3l0.5,0.5l0.4-0.4l-0.5-0.5L99.3,154.3z"/>
							</g>
							<g>
								<g id="cp1_13_">
									<path class="st20" d="M97.5,151.4l-0.8,0.7l0.9,0.9l0.7-0.8L97.5,151.4L97.5,151.4L97.5,151.4z"/>
									<path d="M97.6,153.3l-1.2-1.2l1.1-1l1.2,1.2L97.6,153.3z M97.1,152.1l0.5,0.5l0.4-0.4l-0.5-0.5L97.1,152.1z"/>
								</g>
							</g>
							<g id="cp2_12_">
								<path class="st20" d="M101.2,154.1l-0.3-0.3l-0.2,0.2l-0.2-0.2l0.2-0.2l-0.3-0.3l-0.2,0.2l-0.2-0.2l0.2-0.2l-0.3-0.3
									l-0.4,0.4c-0.1,0.1-0.1,0.2,0,0.2l0.9,0.9c0.1,0.1,0.2,0.1,0.2,0L101.2,154.1L101.2,154.1L101.2,154.1z"/>
								<path d="M100.7,154.8c-0.1,0-0.2,0-0.3-0.1l-0.9-0.9c-0.2-0.2-0.2-0.4,0-0.6l0.6-0.6l0.6,0.6l0,0l0.4,0.4l0,0l0.4,0.4
									l-0.6,0.6C100.9,154.8,100.8,154.8,100.7,154.8z"/>
							</g>
							<g>
								<g id="cp2_13_">
									<path class="st20" d="M99,151.9l-0.3-0.3l-0.2,0.2l-0.2-0.2l0.2-0.2l-0.3-0.3l-0.2,0.2l-0.2-0.2l0.2-0.2l-0.3-0.3l-0.4,0.4
										c-0.1,0.1-0.1,0.2,0,0.2l0.9,0.9c0.1,0.1,0.2,0.1,0.2,0L99,151.9L99,151.9L99,151.9z"/>
									<path d="M98.4,152.6C98.4,152.6,98.4,152.6,98.4,152.6c-0.1,0-0.2,0-0.3-0.1l-0.9-0.9c-0.2-0.2-0.2-0.4,0-0.6l0.6-0.6
										l0.6,0.6l0,0l0.4,0.4l0,0l0.4,0.4l-0.6,0.6C98.6,152.5,98.5,152.6,98.4,152.6z"/>
								</g>
							</g>
							<g>
								<path d="M99.3,152.8c0.1-0.1,0-0.3-0.2-0.2l-0.3,0.3l0.2,0.2L99.3,152.8"/>
							</g>
							<g id="cp3_12_">
								<path d="M99.9,154.4c0.1-0.1,0-0.3-0.2-0.2l-0.2,0.2l0.2,0.2L99.9,154.4"/>
							</g>
							<g>
								<g id="cp3_13_">
									<path d="M97.7,152.2c0.1-0.1,0-0.3-0.2-0.2l-0.2,0.2l0.2,0.2L97.7,152.2"/>
								</g>
							</g>
						</g>
					</g>
				</g>
			</g>
			<g id="quina">
				<g>
					<path class="st21" d="M85.6,142.7L85.6,142.7c0,0.7,0.3,1.3,0.7,1.7c0.4,0.4,1,0.7,1.6,0.7c0.6,0,1.2-0.3,1.6-0.7
						c0.4-0.4,0.7-1,0.7-1.7v-3.2l-4.4,0L85.6,142.7"/>
				</g>
				<g>
					<circle class="st19" cx="86.6" cy="140.7" r="0.4"/>
				</g>
				<g>
					<circle class="st19" cx="89.1" cy="140.7" r="0.4"/>
				</g>
				<g>
					<circle class="st19" cx="87.8" cy="141.9" r="0.4"/>
				</g>
				<g>
					<circle class="st19" cx="86.6" cy="143.1" r="0.4"/>
				</g>
				<g>
					<circle class="st19" cx="89.1" cy="143.1" r="0.4"/>
				</g>
			</g>
			<g>
				<g id="quina_1_">
					<g>
						<path class="st21" d="M85.6,135L85.6,135c0,0.7,0.3,1.3,0.7,1.7c0.4,0.4,1,0.7,1.6,0.7c0.6,0,1.2-0.3,1.6-0.7
							c0.4-0.4,0.7-1,0.7-1.7v-3.2l-4.4,0L85.6,135"/>
					</g>
					<g>
						<circle class="st19" cx="86.6" cy="133" r="0.4"/>
					</g>
					<g>
						<circle class="st19" cx="89.1" cy="133" r="0.4"/>
					</g>
					<g>
						<circle class="st19" cx="87.8" cy="134.2" r="0.4"/>
					</g>
					<g>
						<circle class="st19" cx="86.6" cy="135.4" r="0.4"/>
					</g>
					<g>
						<circle class="st19" cx="89.1" cy="135.4" r="0.4"/>
					</g>
				</g>
			</g>
			<g>
				<g id="quina_2_">
					<g>
						<path class="st21" d="M79.4,142.7L79.4,142.7c0,0.7,0.3,1.3,0.7,1.7c0.4,0.4,1,0.7,1.6,0.7c0.6,0,1.2-0.3,1.6-0.7
							c0.4-0.4,0.7-1,0.7-1.7v-3.2l-4.4,0L79.4,142.7"/>
					</g>
					<g>
						<circle class="st19" cx="80.4" cy="140.7" r="0.4"/>
					</g>
					<g>
						<circle class="st19" cx="82.9" cy="140.7" r="0.4"/>
					</g>
					<g>
						<circle class="st19" cx="81.7" cy="141.9" r="0.4"/>
					</g>
					<g>
						<circle class="st19" cx="80.4" cy="143.1" r="0.4"/>
					</g>
					<g>
						<circle class="st19" cx="82.9" cy="143.1" r="0.4"/>
					</g>
				</g>
			</g>
			<g>
				<g id="quina_3_">
					<g>
						<path class="st21" d="M91.7,142.7L91.7,142.7c0,0.7,0.3,1.3,0.7,1.7c0.4,0.4,1,0.7,1.6,0.7c0.6,0,1.2-0.3,1.6-0.7
							c0.4-0.4,0.7-1,0.7-1.7v-3.2l-4.4,0L91.7,142.7"/>
					</g>
					<g>
						<circle class="st19" cx="92.8" cy="140.7" r="0.4"/>
					</g>
					<g>
						<circle class="st19" cx="95.2" cy="140.7" r="0.4"/>
					</g>
					<g>
						<circle class="st19" cx="94" cy="141.9" r="0.4"/>
					</g>
					<g>
						<circle class="st19" cx="92.8" cy="143.1" r="0.4"/>
					</g>
					<g>
						<circle class="st19" cx="95.2" cy="143.1" r="0.4"/>
					</g>
				</g>
			</g>
			<g>
				<g id="quina_4_">
					<g>
						<path class="st21" d="M85.6,150.3L85.6,150.3c0,0.7,0.3,1.3,0.7,1.7c0.4,0.4,1,0.7,1.6,0.7c0.6,0,1.2-0.3,1.6-0.7
							c0.4-0.4,0.7-1,0.7-1.7v-3.2l-4.4,0L85.6,150.3"/>
					</g>
					<g>
						<circle class="st19" cx="86.6" cy="148.3" r="0.4"/>
					</g>
					<g>
						<circle class="st19" cx="89.1" cy="148.3" r="0.4"/>
					</g>
					<g>
						<circle class="st19" cx="87.8" cy="149.5" r="0.4"/>
					</g>
					<g>
						<circle class="st19" cx="86.6" cy="150.8" r="0.4"/>
					</g>
					<g>
						<circle class="st19" cx="89.1" cy="150.8" r="0.4"/>
					</g>
				</g>
			</g>
		</g>
	</g>
	<g>
		<g>
			<path d="M92.9,292.6c-2.1,0-3.6-1-6.9-3.6c-1.8-1.4-3.5-1.1-5.4-0.8l-0.7,0.1c-0.9,0.1-2.1,0.3-3-0.7c-0.1-0.2-0.4-0.2-0.8-0.2
				c-3.5,0.2-6.7-0.9-9.7-2.1c-1.2-0.4-2,0.4-3,1.5c-0.7,0.8-1.3,1.2-2.2,1.4c-1,0.2-1.9,0.5-2.9,0.7c-0.8,0.2-1.6,0.4-2.5,0.6
				c-1.8,0.4-3.1,0.8-4,2.1l-0.2,0.3l-0.4-0.1c-0.3-0.1-0.6-0.3-0.8-0.4c-0.4-0.3-0.7-0.5-1.3-0.3l-1.1,0.3l0.5-1
				c0.2-0.4,0.4-0.7,0.5-1.1c0.4-0.7,0.7-1.3,1-1.9c1.7-3.1,3.5-6.3,3.7-9.7c0.2-2.9,1.3-5.2,2.6-7.5l0.3-0.6
				c1.1-2.2,0.7-4.6,0.3-6.7c-0.6-2.9-0.5-5.5,0.4-8.1c0.2-0.5,0.3-1,0.2-1.3c-0.8-1.7-0.6-3.3-0.3-4.9c0.2-1.2,0.1-2.3-0.1-3.5
				c-0.1-0.5-0.2-1.1-0.2-1.6c0-0.3-0.2-0.5-0.7-0.7c-0.6-0.3-1.2-0.6-1.8-0.9l-1.2-0.6l0.3-0.5c4.8-8.3,5.7-16.7,2.6-25.8l-1-2.9
				l1.9,2.5c1.1,1.4,2.3,1.5,3.8,1.5c0.4,0,0.8,0,1.3,0c0-0.3,0-0.6-0.3-0.8c-1.7-0.9-1.7-2.4-1.6-3.5c0-0.9-0.1-1.8-0.4-2.5
				c-0.1,0-0.2,0-0.3,0.1c-1.7,1.3-3.5,1.6-5.5,1c-1-0.3-1.8,0.8-2.1,1.3c-0.5,0.7-0.9,1.3-2,1.2c0,0-0.2,0.1-0.3,0.2
				c-1.6,1.6-3.6,2-5.6,2.3c-1.2,0.2-2.4,0.4-3.5,0.9l-0.8,0.3l0.1-0.8c0.2-2.3,0.8-3.9,2-5c-1.4-1.4-2-3.1-2.5-4.7
				c-0.3-0.8-0.5-1.6-0.9-2.3c-0.2-0.4-0.2-0.9,0-1.3c0.2-0.4,0.7-0.6,1.2-0.6c0.5,0,1,0,1.5,0l1,0l0.1,0.3c0.8,2,1.2,2,2.3,1.5
				l0.3-0.1l0.8,1.1c0-0.2,0-0.3,0-0.6c0-0.4,0-0.9,0.3-1.5l0.2-0.4l0.4,0.2c0.6,0.3,1.1,0.3,1.5,0.1c0.4-0.2,0.8-0.7,1.1-1.6
				c-0.1-0.1-0.2-0.1-0.4-0.2c-0.3-0.1-0.7-0.2-1.1-0.5l-0.4-0.4l1.3-1.1c0.7-0.6,1.4-1.2,2.1-1.8c0.5-0.5,0.5-0.6,0.4-0.9
				c-1.1-2.3-1.6-4.7-2.1-7.2c0,0,0,0.1-0.1,0.1c0,0.1-0.1,0.2-0.2,0.3c-1.7,2.4-3.1,5.2-4.2,8.6c-0.9,2.7-1.3,2.9-4.1,2.8
				c-0.3,0-0.6,0-0.9-0.1c-0.8-0.1-1.5-0.1-2.2,0.1c-1.9,0.7-4.1,1.2-6.3-0.1c-0.3-0.2-0.6-0.1-1.1,0c-0.4,0.1-0.9,0.2-1.5,0
				l-0.2-0.1l-0.1-0.1c-0.4-0.5-0.3-1.1-0.2-1.4c0-0.2,0.1-0.3,0.1-0.5c0-0.2,0-0.4,0-0.6c0-0.1,0-0.4,0-0.5
				c-1.6-1.4-0.9-2.8-0.3-3.8c0.1-0.2,0.2-0.4,0.3-0.6c0.1-0.1,0.1-0.3,0.2-0.4c0.1-0.3,0.3-0.7,0.5-1c1.6-3,2.3-5.9,1.9-8.9
				c-0.3-2.7,0.8-4.9,1.8-7l0.3-0.6c1.1-2.2,1.4-4.4,1.1-6.7c-0.1-0.8-0.5-1.4-0.9-2.1c-0.3-0.5-0.6-1.1-0.9-1.7l-0.3-0.7l0.8,0.1
				c1.4,0.1,2.4-0.6,3.5-1.4c1-0.7,2-1.4,3.3-1.5c-0.5-1.9,0.1-3.5,1.9-5c0.4-0.3,0.8-0.8,1.2-1.2c0.3-0.3,0.6-0.7,1-1
				c1.5-1.4,2.3-2.3,1.3-4c-0.5-0.8-0.1-1.7,0.2-2.4c0.1-0.2,0.1-0.3,0.2-0.5l2-5.7c2.1-6.1,4.3-12.1,6.5-18.2
				c0.5-1.5,0.4-2.4-0.4-3.2c-1.2-1.3-1-2.8-0.7-3.9c2.1-7.4,4.2-14.7,5.9-21c0.3-1.1,0.8-2.1,2.3-2.5c0.6-0.2,2.7-3.3,2.7-3.9
				c-0.6-3.3-0.6-3.6,0.9-5.7c-0.2-0.5-0.5-0.9-1-1.3c-0.4,0.9-0.7,1.9-1,2.8c-0.2,0.6-0.4,1.2-0.6,1.8c-0.2,0.5-0.3,1-0.5,1.5
				C61,88.7,60.6,90,60,91.2l-1.7,3.6l0.8-4.3c0.1-0.3,0.1-0.7,0.2-1l0.6-2.4c1.2-5.1,2.3-10.2,3.5-15.3c0.1-0.6,0.1-1.2,0-1.9
				c-0.9-4.7-2.4-9.4-3.7-14c-0.6-1.9-1.1-3.7-1.6-5.6c0-0.1-0.1-0.3-0.1-0.4c-0.2-0.5-0.4-1.1-0.2-1.7c0.7-2.6,0.1-5-0.6-7.6
				c-0.2-0.7-0.4-1.4-0.5-2.2c-0.5-2.4-1.2-4.4-2-6.3c-1.2-2.6-0.8-5.6-0.4-8.3c0.1-0.7,0.6-1.1,1.1-1.4l0.1-0.1
				c0.7-0.5,1.4-1,2.1-1.6l1.1-0.8c0.4-0.3,0.6-0.5,0.6-0.7c-0.3-2.2,1.5-2.9,2.5-3.2c1.1-0.4,1.5-0.8,1.3-1.7
				c-0.1-0.4,0-0.8,0.2-1.1c0.3-0.4,0.8-0.5,1.3-0.6c0.3-0.1,0.7-0.1,1.1-0.1c1.3-0.1,2.4-0.2,3-1.5c0.3-0.7,1-0.6,1.4-0.5
				c0.1,0,0.2,0,0.2,0l0.8,0c1.2,0,2.5,0.1,3.8,0.2c1.8,0.2,3.2-0.2,4.5-1.2c0.6-0.5,1.3-0.9,2-1.2c0.3-0.2,0.6-0.3,0.9-0.5l0.5-0.3
				l0.2,0.5C82.9,8,83,8.1,83,8.2c0.1,0.2,0.2,0.3,0.2,0.6c0.1,0.9,0.4,1.9,1,2.3c0.4,0.3,1,0.3,1.7,0.1c0.3-0.1,0.7-0.1,1,0.1
				c0.3,0.2,0.5,0.5,0.6,0.9c0.2,0.8,0.4,1.8-0.5,2.6c-1.5,1.5-3,3-4.3,4.3c-0.4,0.4-0.6,1.1-0.5,1.9c0.1,0.7,0.5,1.3,1,1.5
				c1.2,0.6,1.2,1.6,1.2,2.3c0,0.2,0,0.4,0,0.5c0.1,0.5,0.2,0.7,0.3,0.9c0.1,0.1,0.4,0.1,0.7,0.1c0.5-0.1,1-0.1,1.4-0.1
				c0.2,0,0.4,0,0.6,0c0.6,0,2.1-0.1,2.5-0.7c0.7-1.2,1.9-1.9,2.9-2.6c0.7-0.5,1.4-0.9,2-1.5l0.4-0.4l0.4,0.4
				c0.3,0.4,0.4,0.8,0.5,1.3c0.1,0.3,0.2,0.7,0.3,1c1.3-1,2.9-1.5,4.4-1.9c0.4-0.1,0.8-0.2,1.2-0.4c1.3-0.4,2.4,0,3.4,0.3
				c0.6,0.2,1.2,0.4,1.9,0.4c0.3,0,0.6,0.1,0.7,0.3c0.3,0.4,0.2,1,0.1,1.4l0,0.2c-0.1,0.3-0.2,0.6-0.2,0.9c0.2,0,0.5,0,0.7,0
				c1.2,0.1,2.1,0.2,3.1-0.8c0.5-0.5,1.3-0.8,2-0.6c0.8,0.2,1.5,0.8,1.8,1.6c0.1,0.2,0.1,0.3,0.2,0.5c0,0.2,0.1,0.3,0.1,0.5
				c1.5-2,3.7-2.3,5.8-2.7c0.6-0.1,1.1-0.2,1.7-0.3c1.9-0.4,3-2,2.7-4c0-0.1,0-0.2,0-0.3c0-0.1,0-0.2,0-0.3
				c-0.4-1.3,0.6-1.9,0.9-2.1c1-0.6,1.6,0,2,0.4c2.2,2.1,3.2,2.1,5.6,0.2l0.4-0.3l0.3,0.4c0.8,1.1,1.9,1.1,3.2,1.1
				c0.5,0,1.1,0,1.6,0.1c0.5,0.1,0.7-0.2,1.1-0.9c0.6-1.1,1.3-1.3,1.7-1.2c0.4,0,1,0.3,1.5,1.4c0.6,1.4,1.3,1.7,2.7,1.4
				c0.5-0.1,1-0.2,1.4-0.2c1-0.1,1.9-0.2,2.4-1.1l0.2-0.4l0.4,0.2c1.3,0.6,1.8,1.6,1.3,3.1c-0.3,0.9-0.2,1.4,0.4,1.8
				c0.9,0.6,0.8,1.6,0.6,2.3c0,0.1,0,0.2-0.1,0.4c-0.1,0.6-0.2,1.3-0.3,1.9c-0.4,1.9-0.7,3.7-0.2,5.6c0.2,0.9,0.5,1.4,0.9,1.6
				c0.4,0.2,0.9,0.2,1.8,0c4-1.1,7.4-0.3,10.1,2.4c2.5,2.5,2.5,2.8,0.8,5.8l-0.1,0.2c-0.4,0.6-0.8,1.2-1.2,1.8
				c-1.1,1.5-2.1,2.9-2.3,4.7c0,0.2-0.2,0.8-0.7,0.8c-1.1,0.1-1.5,0.8-2.1,1.9c-0.3,0.6-0.6,1.3-1.2,1.7c-0.5,0.4-1,0.9-1.5,1.4
				c-0.8,0.8-1.7,1.6-2.6,2.3c-1.2,0.9-2.9,2.3-5.2,1.1c-0.5-0.3-0.9-0.2-1.5,0.7c-1.9,3-3.6,6.3-5,9.8c-0.4,1-1,2-2.7,2.1
				c-0.9,0.1-1.9,0.2-2.8,0.4c-0.3,0.1-0.6,0.1-0.9,0.2c0,0.2,0.1,0.4,0.3,0.6c0.1,0.1,0.2,0.2,0.2,0.4c0.3,0.6,0.8,1.3,1.2,1.9
				c0.9,1.3,1.8,2.7,2.1,4.3c0.1,0.2,0.2,0.3,0.6,0.6c0.2,0.1,0.5,0.2,0.7,0.4l0.3,0.2l-0.1,0.3c-0.5,1.6-0.8,3.3-1.1,5
				c-0.1,0.5-0.2,1.1-0.3,1.6c-0.2,1-0.1,1.8,0.4,2.5c1.1,1.9,1.2,3.8,0.1,5.8c-0.6,1.1-0.8,1.7,0.3,2.5c0.5,0.3,0.8,0.9,0.9,1.5
				c0.1,0.8-0.1,1.7-0.7,2.5l-0.2,0.3c-0.6,0.8-1.1,1.5-1.1,2.6c0.1,1.1,0.3,1.9,1.2,2.6c0.9,0.7,1.3,1.5,1.1,2.3
				c-0.1,0.8-0.8,1.5-1.9,1.8c-0.9,0.3-1.3,0.8-1.3,1.7c0,1.6-1.3,1.7-1.9,1.7c-0.4,0-0.7,0-1.1,0c-1-0.1-1.7-0.1-2.2,0.6
				c-1.3,1.7-1.5,3.8-1.5,5.6c0,0.6,0.6,1.3,1.4,1.3c1.2,0,1.7,0.7,2.2,1.3c0.1,0.1,0.2,0.2,0.3,0.4c2.5,2.7,2,5.7,1.4,8.6l-0.1,0.6
				c0.2,2.4-0.8,4.3-3.2,5.8c-0.3,0.2-0.5,0.5-0.6,1.1c-0.1,0.8-0.2,1.6-0.3,2.4c-0.1,0.6-0.2,1.2-0.2,1.8c-0.3,3-1.2,3.8-4.3,3.8
				c-1.5,0-2.9,0-4.4,0c-0.9,0-1.9,0-2.8,0c-0.1,0-0.2,0-0.4,0c-0.2,0-0.6,0-0.7,0c-1.9,1.4-3.9,1.1-5.8,0.7
				c-0.5-0.1-1.1-0.2-1.6-0.3c-0.7-0.1-1.4-0.2-2-0.3l-0.6-0.1c-0.1,0.1,0,0.3,0.1,0.6c0,0.1,0.1,0.2,0.1,0.3c0.7,2.5,2.4,4.2,4.2,6
				l0.8,0.8c1.2,1.2,2.3,2.4,3.9,3.1c0.5,0.2,0.5,0.9,0.5,1.2c0,0.4-0.1,0.8-0.2,1.2c-0.8,2.4-0.2,4.3,1.7,5.8
				c0.9,0.7,1.2,1.7,0.8,2.9c-0.4,1.3,0.1,2.6,1.4,3.3c0.2,0.1,0.4,0.2,0.5,0.3c0.4,0.2,0.7,0.4,1.1,0.6c1.4,0.6,1.8,1.5,1.5,2.9
				c-0.1,0.5,0,0.9,0.3,1.1c0.4,0.3,0.9,0.4,1.4,0.2c2.7-1.1,3.1-1,5.4,1.8c1,1.2,0.9,2.9-0.3,4.8l-0.5,0.8c-0.5,0.8-1,1.6-1.6,2.3
				c-0.7,0.9-0.9,1.7-0.6,2.6c0.2,0.7-0.1,1.6-0.8,2.5c-0.5,0.7-1.4,1.5-2.3,1.5c-0.7,0-1.2,0.2-1.8,0.9l-0.4,0.4
				c-0.5,0.6-1.1,1.3-1.8,1.7c-2,1.4-2.9,3.6-2.4,5.6c0.6,2-0.1,3.4-0.8,4.7c-0.2,0.5-0.5,0.9-0.7,1.4c-0.1,0.3-0.3,0.6-0.4,0.9
				c-0.5,0.9-0.8,1.7-0.3,2.8c0.3,0.5,0,1-0.4,1.7c0,0.1-0.1,0.1-0.1,0.2c2,0.5,2.9,2,3.7,3.4c0.2,0.4,0.4,0.8,0.7,1.1
				c0.3,0.4,0.5,0.8,0.8,1.2c1.6,2.3,3.2,4.6,3.8,7.4c0.1,0.4,0.3,0.7,0.5,0.8c0.4,0.2,0.9,0.1,1.3-0.1l5.7-2.1l-0.6,2.4
				c-0.3,1.1-0.5,2-0.7,3c-0.2,0.7-0.3,1.4-0.4,2.1c-0.1,0.5-0.2,1-0.3,1.6c-0.2,1-0.7,1.7-1.4,2c-0.7,0.3-1.6,0.2-2.4-0.4
				c-0.6-0.4-1.3-0.8-1.6-0.7c-0.3,0.1-0.7,1.1-0.8,1.5c-0.3,1-1.1,1.2-1.7,1.3c-1.1,0.1-2.1,0.3-3.2,0.3c-0.7,0-0.8,0.2-0.9,0.8
				c0,0.7-0.1,1.3-0.2,2c-0.1,0.5-0.1,1-0.2,1.5c-0.1,1.5-0.7,2.6-1.7,3.5c-3.2,2.5-5.4,5.9-6.9,10.6c-1,3.1-1.5,5.3-0.4,8.1
				c1.4,3.5,1.9,7.2,2.5,10.9c0.2,1.6,0.5,3.2,0.8,4.8c0,0.2,0,0.5,0,0.7c0,0.1,0,0.1,0,0.2l0,0.4l-0.4,0c-3,0.3-5.4,0.9-7.5,2.6
				c-1.2,1-2.5,1.9-3.7,2.8c-0.7,0.5-1.4,1-2.1,1.5c-1,0.7-2.1,1-3.1,1.3c-0.3,0.1-0.6,0.1-0.8,0.2l-0.3,0.1
				C96,292.1,94.3,292.6,92.9,292.6z M82.9,287c1.2,0,2.4,0.3,3.7,1.2c5.3,4,5.3,4,11.8,2.2l0.3-0.1c0.3-0.1,0.6-0.2,0.9-0.2
				c1-0.3,2-0.5,2.8-1.1c0.7-0.5,1.4-1,2.1-1.5c1.2-0.9,2.5-1.8,3.7-2.7c2.1-1.8,4.6-2.4,7.6-2.7c0-0.1,0-0.1,0-0.2
				c-0.3-1.6-0.6-3.3-0.8-4.9c-0.5-3.6-1.1-7.3-2.4-10.6c-1.3-3.4-0.5-6.1,0.4-8.8c1.5-4.9,3.8-8.4,7.2-11c0.8-0.6,1.2-1.5,1.3-2.8
				c0-0.5,0.1-1,0.2-1.5c0.1-0.6,0.1-1.3,0.2-1.9c0.1-1.2,0.7-1.8,1.9-1.8c1,0,2-0.1,3.1-0.3c0.5-0.1,0.8-0.2,0.9-0.6
				c0.4-1.1,0.8-1.9,1.4-2.1c0.7-0.2,1.4,0.1,2.4,0.8c0.5,0.4,1.1,0.5,1.5,0.3c0.4-0.2,0.7-0.6,0.8-1.3c0.1-0.5,0.2-1,0.3-1.5
				c0.1-0.7,0.3-1.4,0.4-2.2c0.2-1,0.5-2,0.7-3.1l0.1-0.6l-3.9,1.4c-0.8,0.3-1.5,0.3-2.1,0c-0.4-0.2-0.8-0.6-1-1.4
				c-0.6-2.7-2.2-4.9-3.7-7.1c-0.3-0.4-0.6-0.8-0.8-1.2c-0.3-0.4-0.5-0.8-0.7-1.2c-0.9-1.5-1.7-2.9-3.6-3.1l-0.7-0.1l0.3-0.6
				c0.1-0.3,0.3-0.6,0.4-0.9c0.1-0.3,0.4-0.7,0.4-0.8c-0.7-1.4-0.2-2.6,0.3-3.6c0.1-0.3,0.3-0.6,0.4-0.8c0.2-0.5,0.5-1.1,0.7-1.5
				c0.6-1.3,1.2-2.3,0.7-4c-0.7-2.4,0.4-5,2.7-6.7c0.6-0.4,1.1-1,1.6-1.6l0.4-0.5c0.7-0.8,1.5-1.2,2.5-1.2c0.4,0,1-0.4,1.5-1.1
				c0.5-0.6,0.7-1.3,0.6-1.6c-0.3-1.2-0.1-2.3,0.8-3.5c0.6-0.7,1.1-1.5,1.6-2.3l0.5-0.8c0.7-1,1.3-2.4,0.4-3.6c-2-2.4-2-2.4-4.2-1.5
				c-0.9,0.3-1.8,0.2-2.5-0.3c-0.6-0.5-0.8-1.3-0.6-2.1c0.2-0.9,0-1.3-0.9-1.7c-0.4-0.2-0.8-0.4-1.2-0.6c-0.2-0.1-0.3-0.2-0.5-0.3
				c-1.7-0.9-2.5-2.8-1.9-4.5c0.3-0.8,0.2-1.3-0.4-1.8c-2.3-1.7-3-4-2.1-6.9c0.1-0.3,0.2-0.6,0.2-1c0-0.1,0-0.2,0-0.3
				c-1.7-0.7-2.9-2-4.1-3.2l-0.8-0.8c-1.9-1.9-3.7-3.8-4.5-6.5c0-0.1,0-0.1-0.1-0.2c-0.2-0.4-0.4-1.1,0.3-1.8l0.2-0.2l0.2,0
				c0.3,0,0.6,0.1,0.9,0.1c0.6,0.1,1.3,0.2,2,0.3c0.6,0.1,1.2,0.2,1.7,0.3c1.8,0.3,3.4,0.6,5-0.5c0.4-0.3,0.9-0.3,1.4-0.2
				c0.1,0,0.2,0,0.3,0c0.9,0,1.9,0,2.8,0c1.5,0,2.9,0,4.4,0c2.5,0,3-0.4,3.3-2.9c0.1-0.6,0.2-1.2,0.2-1.8c0.1-0.8,0.2-1.6,0.3-2.3
				c0.1-0.8,0.4-1.5,1-1.8c2-1.3,2.9-2.8,2.7-4.9l0-0.1l0.1-0.2l0.1-0.5c0.5-2.8,1-5.4-1.2-7.7c-0.1-0.1-0.2-0.3-0.3-0.4
				c-0.5-0.5-0.8-0.9-1.5-0.9c-1.3,0-2.4-1.1-2.3-2.3c0-2,0.2-4.3,1.7-6.2c0.9-1.2,2.1-1.1,3.1-1c0.3,0,0.6,0,0.9,0
				c0.8-0.1,0.9-0.2,0.9-0.7c0-1.3,0.7-2.2,2-2.6c0.7-0.2,1.1-0.6,1.2-1c0.1-0.4-0.2-0.9-0.7-1.4c-1.2-0.9-1.5-2-1.6-3.3
				c-0.1-1.4,0.6-2.4,1.2-3.2l0.2-0.3c0.4-0.6,0.6-1.2,0.5-1.7c0-0.2-0.2-0.6-0.5-0.8c-1.9-1.3-1.2-2.8-0.6-3.8
				c0.9-1.7,0.9-3.3,0-4.8c-0.6-0.9-0.7-1.9-0.5-3.2c0.1-0.5,0.2-1,0.3-1.6c0.3-1.6,0.5-3.2,1-4.8c-0.1,0-0.2-0.1-0.2-0.1
				c-0.4-0.2-1-0.5-1.1-1.2c-0.3-1.5-1.2-2.7-2-4c-0.4-0.6-0.8-1.3-1.2-1.9c-0.1-0.1-0.1-0.2-0.2-0.3c-0.3-0.4-0.7-0.9-0.4-1.8
				l0.1-0.3l0.3,0c0.4-0.1,0.8-0.1,1.2-0.2c1-0.2,1.9-0.4,2.9-0.4c0.9-0.1,1.4-0.4,1.9-1.4c1.5-3.6,3.2-6.9,5.1-10
				c0.3-0.5,1.2-1.9,2.8-1c1.6,0.8,2.8,0,4.2-1c0.9-0.7,1.7-1.5,2.6-2.3c0.5-0.5,1-0.9,1.5-1.4c0.4-0.4,0.7-0.9,1-1.4
				c0.5-1,1.1-2.2,2.7-2.4c0.3-2.1,1.4-3.7,2.5-5.2c0.4-0.6,0.8-1.1,1.2-1.7l0.1-0.2c1.5-2.5,1.5-2.5-0.6-4.6
				c-2.4-2.4-5.4-3.1-9.1-2.1c-1.2,0.3-2,0.3-2.6-0.1c-0.6-0.4-1-1.1-1.3-2.2c-0.5-2.1-0.2-4.1,0.2-6.1c0.1-0.6,0.2-1.2,0.3-1.9
				c0-0.1,0-0.3,0.1-0.4c0.1-0.7,0.1-1-0.2-1.3c-1.2-0.8-1.1-2-0.8-2.9c0.2-0.9,0.1-1.3-0.4-1.7c-0.8,1-1.9,1.1-2.9,1.2
				c-0.4,0-0.9,0.1-1.3,0.2c-1.9,0.5-3-0.1-3.8-1.9c-0.2-0.5-0.4-0.7-0.7-0.8c-0.2,0-0.5,0.2-0.8,0.8c-0.4,0.7-0.9,1.6-2.2,1.4
				c-0.5-0.1-0.9-0.1-1.4-0.1c-1.3,0-2.6,0-3.7-1.2c-2.6,1.9-4.1,1.7-6.5-0.6c-0.5-0.5-0.6-0.5-0.9-0.3c-0.6,0.3-0.6,0.6-0.5,1
				c0.1,0.2,0.1,0.3,0.1,0.5c0,0.1,0,0.1,0,0.2c0.4,2.5-1,4.6-3.4,5.1c-0.6,0.1-1.1,0.2-1.7,0.3c-2.1,0.3-4.1,0.7-5.4,2.6l-0.1,0.2
				l-0.5,0.1l-0.2-0.1c-0.6-0.4-0.7-0.9-0.8-1.3c0-0.1-0.1-0.3-0.1-0.4c-0.2-0.5-0.6-0.9-1.1-1c-0.4-0.1-0.8,0-1.1,0.3
				c-1.3,1.2-2.6,1.1-3.9,1c-0.4,0-0.7-0.1-1.1,0l-0.4,0l-0.1-0.4c-0.2-0.8,0-1.4,0.1-1.9l0-0.2c0-0.2,0.1-0.3,0.1-0.4
				c-0.8,0-1.5-0.2-2.1-0.5c-0.9-0.3-1.7-0.6-2.7-0.3c-0.4,0.1-0.8,0.3-1.2,0.4c-1.6,0.5-3.2,1-4.5,2.1L96.5,25l-0.3-0.3
				c-0.6-0.6-0.7-1.2-0.9-1.8c0-0.1-0.1-0.3-0.1-0.4c-0.5,0.5-1.1,0.8-1.7,1.2c-1,0.6-2,1.2-2.6,2.3c-0.6,0.9-2,1.1-3.3,1.2
				c-0.2,0-0.4,0-0.7,0c-0.5,0-0.9,0-1.3,0.1c-0.6,0.1-1.1,0-1.4-0.3c-0.5-0.4-0.6-1-0.7-1.5c0-0.2,0-0.4,0-0.6c0-0.7,0-1.1-0.6-1.4
				c-0.8-0.4-1.4-1.2-1.5-2.2C81,20,81.3,19,82,18.3c1.3-1.3,2.8-2.8,4.3-4.3c0.5-0.5,0.4-0.9,0.2-1.7c0-0.1-0.1-0.2-0.1-0.2
				c0,0-0.1,0-0.2,0c-1.1,0.3-1.9,0.2-2.5-0.2c-0.9-0.6-1.2-1.9-1.4-3c0,0,0,0,0,0c-0.2,0.1-0.3,0.2-0.5,0.3
				c-0.7,0.4-1.3,0.7-1.8,1.2c-1.5,1.2-3.2,1.6-5.2,1.4c-1.2-0.1-2.5-0.2-3.7-0.2l-0.8,0c-0.1,0-0.2,0-0.3,0c-0.1,0-0.3,0-0.4,0
				c-0.9,1.8-2.5,1.9-3.9,2c-0.3,0-0.7,0-1,0.1c-0.4,0.1-0.6,0.1-0.7,0.2c0,0.1,0,0.2,0,0.3c0.3,1.8-0.9,2.4-2,2.8
				c-1.4,0.5-2,1-1.9,2.2c0.1,0.8-0.6,1.3-1,1.6L58,21.5c-0.7,0.5-1.4,1.1-2.2,1.6l-0.1,0.1c-0.4,0.3-0.6,0.4-0.6,0.7
				c-0.3,2.5-0.7,5.4,0.4,7.8c0.8,1.9,1.5,4,2,6.5c0.2,0.7,0.3,1.4,0.5,2.1c0.7,2.6,1.4,5.2,0.6,8.1c-0.1,0.3,0,0.7,0.2,1.1
				c0.1,0.2,0.1,0.3,0.1,0.5c0.5,1.9,1.1,3.7,1.6,5.6c1.4,4.6,2.8,9.3,3.7,14.1c0.2,0.9,0.2,1.6,0,2.4c-0.9,3.8-1.8,7.6-2.6,11.4
				c0.3-1,0.6-2,1.2-3l0.3-0.6l0.5,0.4c0.8,0.8,1.4,1.5,1.8,2.4l0.1,0.3l-0.2,0.2c-1.5,2.1-1.5,2.1-0.9,5.1c0,0.1,0,0.2,0,0.2
				c0,1.1-2.4,4.7-3.5,5c-0.9,0.2-1.2,0.6-1.6,1.8c-1.7,6.2-3.7,13.6-5.9,21c-0.4,1.4-0.3,2.2,0.4,3c1.3,1.4,1.1,3,0.6,4.3
				c-2.2,6-4.3,12.1-6.5,18.2l-2,5.7c-0.1,0.2-0.1,0.3-0.2,0.5c-0.3,0.7-0.4,1.1-0.2,1.5c1.4,2.5-0.2,4.1-1.5,5.3
				c-0.3,0.3-0.6,0.6-0.9,0.9c-0.4,0.5-0.8,0.9-1.3,1.3c-1.6,1.3-2.1,2.6-1.5,4.3c0.1,0.2,0,0.5-0.2,0.7l-0.1,0.2l-0.2-0.1
				c-1.3,0-2.2,0.7-3.3,1.4c-1,0.7-2,1.4-3.4,1.5c0.2,0.3,0.3,0.6,0.5,0.9c0.4,0.7,0.9,1.5,1,2.4c0.3,2.5,0,4.8-1.2,7.2l-0.3,0.7
				c-1,2.1-2,4.1-1.7,6.5c0.4,3.2-0.2,6.3-2,9.5c-0.2,0.3-0.3,0.6-0.4,0.9c-0.1,0.2-0.1,0.3-0.2,0.5c-0.1,0.2-0.2,0.5-0.3,0.7
				c-0.6,1.1-0.8,1.8,0.1,2.6c0.4,0.3,0.3,0.8,0.3,1.3c0,0.2,0,0.3,0,0.5c0,0.3,0,0.5-0.1,0.7c0,0.3-0.1,0.4,0,0.5
				c0.2,0,0.5,0,0.8-0.1c0.5-0.1,1.1-0.2,1.8,0.2c1.8,1.1,3.7,0.7,5.4,0c0.9-0.3,1.8-0.3,2.6-0.2c0.3,0,0.5,0.1,0.8,0.1
				c2.4,0.1,2.4,0.1,3.1-2.1c1.1-3.4,2.5-6.3,4.3-8.8c0,0,0.1-0.1,0.1-0.2c0.2-0.3,0.5-0.9,1.4-0.7l0.3,0.1l0.1,0.3
				c0.5,2.7,1.1,5.1,2.2,7.4c0.5,1.1-0.3,1.8-0.7,2.1c-0.7,0.6-1.4,1.2-2.1,1.8l-0.3,0.3c0,0,0.1,0,0.1,0c0.4,0.1,0.9,0.2,1.2,0.8
				l0.1,0.2l-0.1,0.2c-0.4,1.3-0.9,2.1-1.7,2.4c-0.5,0.2-1.1,0.3-1.8,0.1c0,0.2,0,0.3,0,0.5c0,0.6,0,1.2-0.6,1.9l-0.4,0.4l-1.2-1.6
				c-1.6,0.5-2.4-0.2-3.1-1.9l-0.3,0c-0.5,0-1,0-1.5,0c-0.2,0-0.3,0.1-0.4,0.1c0,0.1,0,0.2,0,0.3c0.4,0.8,0.7,1.6,0.9,2.4
				c0.6,1.8,1.1,3.4,2.7,4.7l0.5,0.4l-0.5,0.4c-1.2,0.9-1.8,2.1-2,3.9c1-0.3,2-0.5,2.9-0.7c1.9-0.3,3.7-0.7,5.1-2
				c0.1-0.1,0.6-0.5,1.1-0.5c0.5,0,0.7-0.1,1.1-0.7c0.9-1.4,2.1-2.1,3.2-1.7c1.7,0.5,3.2,0.3,4.7-0.8c0.2-0.1,0.7-0.6,1.5-0.1
				l0.1,0.1l0.1,0.1c0.4,0.9,0.7,2,0.6,3.2c0,1.2,0,2,1.1,2.6c0.8,0.4,1.1,1.3,0.7,2.4l-0.1,0.4l-0.4-0.1c-0.5-0.1-1-0.1-1.5-0.1
				c-1,0-2.1,0-3.2-0.6c2.4,8.5,1.4,16.5-3,24.4L55,241c0.6,0.3,1.2,0.6,1.8,0.9c0.4,0.2,1.1,0.6,1.2,1.5c0,0.5,0.1,1,0.2,1.5
				c0.2,1.2,0.4,2.5,0.1,3.9c-0.3,1.5-0.5,2.9,0.2,4.3c0.3,0.7,0.1,1.5-0.1,2.1c-0.8,2.4-1,4.8-0.4,7.5c0.5,2.3,0.9,4.9-0.4,7.4
				l-0.3,0.6c-1.2,2.2-2.3,4.4-2.5,7.1c-0.2,3.6-2,6.9-3.8,10.1c-0.3,0.6-0.6,1.2-1,1.9c-0.1,0.1-0.1,0.2-0.2,0.3
				c0.4,0.1,0.8,0.3,1.1,0.5c0.1,0.1,0.2,0.1,0.3,0.2c1.2-1.4,2.9-1.8,4.3-2.2c0.8-0.2,1.6-0.4,2.4-0.6c1-0.2,1.9-0.5,2.9-0.7
				c0.6-0.1,1.1-0.4,1.7-1.1c0.9-1,2.2-2.4,4.1-1.7c2.9,1.1,6,2.2,9.3,2c0.3,0,1-0.1,1.6,0.5c0.5,0.6,1.1,0.6,2.2,0.4l0.7-0.1
				C81.2,287.1,82.1,287,82.9,287z M39.7,161.4C39.7,161.4,39.7,161.4,39.7,161.4C39.7,161.4,39.7,161.4,39.7,161.4z M138.7,132.8
				C138.7,132.8,138.7,132.8,138.7,132.8C138.7,132.8,138.7,132.8,138.7,132.8z"/>
		</g>
	</g>
</g>
</svg>
