<?xml version="1.0" encoding="utf-8"?>
<!-- Generator: Adobe Illustrator 24.3.0, SVG Export Plug-In . SVG Version: 6.00 Build 0)  -->
<svg version="1.1" id="Layer_1" xmlns="http://www.w3.org/2000/svg" xmlns:xlink="http://www.w3.org/1999/xlink" x="0px" y="0px"
	 viewBox="0 0 279.5 172.7" style="enable-background:new 0 0 279.5 172.7;" xml:space="preserve">
<style type="text/css">
	.st0{fill:#BFA161;}
	.st1{enable-background:new    ;}
</style>
<g>
	<path class="st0" d="M194.4,43c-18.2,2.8-36.4,4.1-54.6,4.1c-18.4,0-36.6-1.3-54.6-4.1c-5-0.9-10.2-1.5-15.2-2.6
		c4.5,1.9,9.3,3.5,13.9,5c36.4,12.1,75.6,12.1,111.8,0c4.8-1.5,9.3-3.2,14.1-5.2C204.6,41.5,199.4,42.4,194.4,43z"/>
</g>
<g>
	<path class="st0" d="M112.1,17.9c5.4-3.7,11.5-6.1,17.8-7.4c-11.3,1.7-21.9,6.7-30.5,14.3l5.6-0.6
		C107.1,21.8,109.5,19.6,112.1,17.9z"/>
</g>
<g>
	<path class="st0" d="M137.4,21.6h0.4c0.4-6.3,0.9-10.4,0.9-11.9c-1.5,0-3,0.2-4.5,0.2c-3.5,3.5-6.3,7.6-8.2,12.1
		C129.6,21.8,133.5,21.6,137.4,21.6z"/>
</g>
<g>
	<path class="st0" d="M108,23.7c4.3-0.4,8.9-1.1,13.2-1.5c2.2-3.7,5-7.1,8.2-10c1.1-0.9,2.4-1.7,3.5-2.4L131,10
		c-4.5,1.1-9.1,2.6-13.2,5C114.2,17.5,110.8,20.3,108,23.7z"/>
</g>
<g>
	<path class="st0" d="M96.9,35.9c1.1-2.2,2.6-4.3,4.1-6.5l0.2-0.4c-2.4,0.2-5,0.6-7.1,1.3c-2.8,3.2-5.4,6.7-7.6,10.4
		c2.4,0.4,5,0.6,7.4,1.1c0.4-0.4,0.9-1.1,1.1-1.7C95.6,38.5,96.3,37.2,96.9,35.9z"/>
</g>
<g>
	<path class="st0" d="M118.8,27c-3.2,0.2-6.5,0.4-9.7,0.9c-0.4,0-2.4,0.2-4.8,0.4c-2.8,3.9-5.2,8.4-6.7,13c0,0.2,0,0.2-0.2,0.4
		c5.6,0.6,11.3,1.1,16.9,1.5c0.4-2.6,1.1-5.2,1.7-7.6C116.6,32.8,117.7,29.8,118.8,27z"/>
</g>
<g>
	<path class="st0" d="M153.4,22c-1.9-4.5-4.8-8.7-8.2-12.1c-1.1,0-2.2-0.2-3.2-0.2c0.4,3.9,0.6,7.8,0.9,11.9
		C146.3,21.6,149.8,21.8,153.4,22z"/>
</g>
<g>
	<path class="st0" d="M178.6,29.4c1.5,2.2,2.8,4.3,4.1,6.5c0.6,1.3,1.1,2.6,1.7,3.9c0.2,0.6,0.6,1.1,1.1,1.5l7.6-1.1
		c-2.2-3.7-4.5-7.1-7.4-10.2c-2.2-0.4-4.8-0.9-7.4-1.3C178.4,28.9,178.4,29.2,178.6,29.4z"/>
</g>
<g>
	<path class="st0" d="M174.5,24.2l5.6,0.6l0,0c-8.7-7.6-19.5-12.6-31-14.5c6.5,1.3,12.6,3.9,18.2,7.6
		C169.9,19.6,172.3,21.8,174.5,24.2z"/>
</g>
<g>
	<path class="st0" d="M158.2,22.4c4.3,0.4,8.9,0.9,13.2,1.5c-2.8-3.5-6.3-6.5-10-8.7c-4.1-2.2-8.7-3.9-13.2-5l-1.7-0.2
		c1.3,0.6,2.4,1.5,3.7,2.4C153.2,15.3,155.8,18.5,158.2,22.4z"/>
</g>
<g>
	<path class="st0" d="M155.4,26.8c-4.1-0.2-8.2-0.2-12.6-0.2c0.2,5.8,0.4,11.9,0.6,17.8c5.4,0,10.6-0.2,16-0.6
		c-0.4-2.6-0.9-4.8-1.1-5.2C157.8,34.6,156.7,30.7,155.4,26.8z"/>
</g>
<g>
	<path class="st0" d="M124,26.8c-1.3,3.9-2.4,7.8-3.2,11.9c0,0.4-0.4,2.4-1.1,5.2c5.6,0.2,11.3,0.4,16.7,0.4
		c0.2-6.7,0.6-12.8,1.1-17.8C132.9,26.6,128.5,26.6,124,26.8z"/>
</g>
<g>
	<path class="st0" d="M175.1,28.5c-2.6-0.2-4.3-0.4-4.8-0.4c-3.2-0.4-6.5-0.6-9.7-0.9c1.3,2.8,2.2,5.8,3,8.9c0.6,2.4,1.1,5,1.7,7.6
		c5.6-0.4,11.3-0.9,16.9-1.5V42C180.3,36.7,177.9,32.4,175.1,28.5z"/>
</g>
<g>
	<path class="st0" d="M85,100.2c18.2-2.8,36.4-4.1,54.8-4.1s36.6,1.3,54.6,4.1c5,0.6,10.2,1.5,15.2,2.6c-4.8-1.9-9.3-3.7-13.9-5
		c-36.4-12.3-75.6-12.3-112-0.2c-4.5,1.5-9.3,3.2-13.9,5.2C74.8,101.7,80,100.9,85,100.2z"/>
</g>
<g>
	<path class="st0" d="M167.3,125.3c-5.4,3.7-11.5,6.1-17.8,7.4c11.3-1.7,21.9-6.9,30.5-14.5l-5.6,0.6
		C172.3,121.4,169.9,123.6,167.3,125.3z"/>
</g>
<g>
	<path class="st0" d="M142,121.7h-0.4c-0.4,6.3-0.9,10.4-0.9,11.9c1.5,0,3,0,4.5-0.2c3.5-3.5,6.3-7.6,8.2-12.1
		C149.8,121.4,145.9,121.7,142,121.7z"/>
</g>
<g>
	<path class="st0" d="M171.4,119.5c-4.3,0.6-8.7,1.1-13.2,1.5c-2.2,3.9-5,7.1-8.2,10.2c-1.1,0.9-2.4,1.5-3.7,2.2l1.9-0.2
		c4.5-1.1,9.1-2.6,13.2-5C165.1,125.8,168.6,123,171.4,119.5z"/>
</g>
<g>
	<path class="st0" d="M182.7,107.4c-1.1,2.2-2.6,4.3-4.1,6.5l-0.4,0.4c2.4-0.4,5-0.6,7.1-1.3c2.8-3.2,5.4-6.5,7.6-10.2
		c-2.4-0.4-5-0.6-7.4-1.1c-0.4,0.4-0.9,1.1-1.1,1.7C183.8,104.8,183.3,106.1,182.7,107.4z"/>
</g>
<g>
	<path class="st0" d="M160.6,116.2c3.2-0.2,6.5-0.4,9.7-0.9c0.4,0,2.4-0.2,4.8-0.4c2.8-3.9,5.2-8.4,6.9-13l0.2-0.4
		c-5.6-0.6-11.3-1.1-16.9-1.5c-0.4,2.6-1.1,5.2-1.7,7.6C162.8,110.4,161.9,113.4,160.6,116.2z"/>
</g>
<g>
	<path class="st0" d="M125.9,121.2c1.9,4.5,4.8,8.7,8.2,12.1c1.1,0,2.2,0.2,3.5,0.2c-0.2-3.9-0.6-7.8-0.9-11.9
		C133.3,121.7,129.6,121.4,125.9,121.2z"/>
</g>
<g>
	<path class="st0" d="M101,113.9c-1.5-2.2-2.8-4.3-4.1-6.5c-0.6-1.3-1.3-2.6-1.9-3.9c-0.2-0.6-0.6-1.1-1.1-1.5
		c-2.4,0.4-5,0.6-7.6,1.1c2.2,3.7,4.5,7.1,7.4,10.2c2.2,0.4,4.8,0.9,7.4,1.3C101,114.3,101,114.1,101,113.9z"/>
</g>
<g>
	<path class="st0" d="M104.9,119.1l-5.6-0.6l0,0c8.7,7.8,19.5,12.8,31,14.5c-6.5-1.3-12.6-3.9-18.2-7.6
		C109.5,123.6,107.1,121.4,104.9,119.1z"/>
</g>
<g>
	<path class="st0" d="M121.4,120.8c-4.3-0.4-8.9-0.9-13.2-1.5c2.8,3.5,6.3,6.5,10,8.7c4.1,2.4,8.7,3.9,13.2,5l1.7,0.2
		c-1.3-0.6-2.4-1.5-3.5-2.4C126.4,128.1,123.6,124.7,121.4,120.8z"/>
</g>
<g>
	<path class="st0" d="M124,116.5c4.1,0.2,8.4,0.2,12.6,0.2c-0.2-5.8-0.4-11.9-0.6-17.8c-5.4,0-10.6,0.2-16,0.6
		c0.4,2.6,0.9,4.8,1.1,5.2C121.6,108.7,122.7,112.6,124,116.5z"/>
</g>
<g>
	<path class="st0" d="M155.4,116.5c1.3-3.9,2.4-7.8,3.2-11.9c0-0.4,0.4-2.6,1.1-5.2c-5.6-0.2-11.3-0.4-16.7-0.4
		c-0.2,6.7-0.6,12.8-1.1,18C146.5,116.7,151.1,116.7,155.4,116.5z"/>
</g>
<g>
	<path class="st0" d="M104.5,114.7c2.6,0.2,4.3,0.4,4.8,0.4c3.2,0.4,6.5,0.6,9.7,0.9c-1.3-2.8-2.2-5.8-3-8.9c-0.6-2.4-1.3-5-1.7-7.6
		c-5.6,0.4-11.3,0.9-16.9,1.7c0,0,0,0.2,0.2,0.2C99.3,106.3,101.7,110.8,104.5,114.7z"/>
</g>
<g>
	<path class="st0" d="M106.7,77.7h-2.2v5.6h-7.6V60.8h10.8c1.9,0,3.7,0.2,5.4,1.1c1.5,0.6,2.8,1.7,3.7,3c0.9,1.3,1.3,3,1.3,4.5
		s-0.4,3-1.1,4.3c-0.9,1.3-1.9,2.2-3.2,2.8l4.8,6.9h-8.2L106.7,77.7z M109.7,67.3c-0.6-0.4-1.5-0.6-2.4-0.6h-2.8V72h2.8
		c0.9,0,1.7-0.2,2.4-0.6c0.4-0.4,0.9-1.3,0.9-1.9C110.3,68.6,110.1,67.9,109.7,67.3L109.7,67.3z"/>
</g>
<g>
	<path class="st0" d="M131.4,81.1c-1.9-2.2-3-5-2.8-7.8V60.8h7.6v12.1c0,1.3,0.2,2.6,0.9,3.7c1.3,1.5,3.5,1.5,5,0.2l0.2-0.2
		c0.6-1.1,1.1-2.4,0.9-3.7V60.8h7.6v12.6c0.2,3-0.9,5.8-2.8,7.8c-2.2,1.9-5.2,3-8.2,2.8C136.6,84.2,133.5,83.1,131.4,81.1z"/>
</g>
<g>
	<path class="st0" d="M180.5,77.7v5.8h-18.8V60.8h18.4v5.8h-10.8v2.6h9.5v5.4h-9.5v3L180.5,77.7L180.5,77.7z"/>
</g>
<g class="st1">
	<path class="st0" d="M6.6,164.6v-13.5h6c0.6,0,1.2,0.1,1.7,0.4c0.5,0.3,1,0.6,1.4,1c0.4,0.4,0.7,0.9,0.9,1.4s0.3,1.1,0.3,1.6
		c0,0.6-0.1,1.1-0.3,1.6c-0.2,0.5-0.5,1-0.8,1.4c-0.4,0.4-0.8,0.7-1.3,0.9l3.1,5.1h-2.9l-2.8-4.5H9.2v4.5H6.6z M9.2,157.7h3.3
		c0.3,0,0.6-0.1,0.9-0.3c0.3-0.2,0.5-0.5,0.6-0.8c0.2-0.3,0.2-0.7,0.2-1.1c0-0.4-0.1-0.8-0.3-1.1c-0.2-0.3-0.4-0.6-0.7-0.8
		s-0.6-0.3-0.9-0.3H9.2V157.7z"/>
	<path class="st0" d="M28.6,162.3v2.3h-9.4v-13.5h9.2v2.3h-6.6v3.2h5.7v2.1h-5.7v3.5H28.6z"/>
	<path class="st0" d="M36,164.6c-0.9,0-1.7-0.2-2.5-0.5c-0.8-0.4-1.5-0.8-2.1-1.5s-1-1.4-1.4-2.2c-0.3-0.8-0.5-1.7-0.5-2.7
		c0-0.9,0.2-1.8,0.5-2.6c0.3-0.8,0.8-1.5,1.4-2.2c0.6-0.6,1.3-1.1,2.1-1.5c0.8-0.4,1.7-0.5,2.6-0.5c1.3,0,2.4,0.3,3.3,0.8
		c0.9,0.5,1.6,1.2,2,2.1l-2,1.4c-0.3-0.7-0.8-1.2-1.4-1.5c-0.6-0.4-1.3-0.5-2-0.5c-0.6,0-1.1,0.1-1.6,0.4s-0.9,0.6-1.2,1
		s-0.6,0.9-0.8,1.4s-0.3,1.1-0.3,1.7c0,0.6,0.1,1.2,0.3,1.8s0.5,1,0.8,1.4c0.4,0.4,0.8,0.7,1.3,1c0.5,0.2,1,0.4,1.6,0.4
		c0.7,0,1.3-0.2,2-0.5c0.6-0.4,1.2-0.9,1.8-1.6v2.6C38.9,164,37.5,164.6,36,164.6z M39.8,159.5h-2.7v-1.9H42v6.9h-2.2V159.5z"/>
	<path class="st0" d="M49.9,164.6c-1.1,0-2-0.2-2.7-0.5s-1.4-0.9-1.8-1.5c-0.5-0.6-0.8-1.4-1-2.2c-0.2-0.8-0.3-1.6-0.3-2.5v-6.9h2.6
		v6.9c0,0.6,0.1,1.1,0.2,1.6c0.1,0.5,0.3,1,0.5,1.4s0.6,0.7,1,1s0.9,0.4,1.6,0.4c0.6,0,1.2-0.1,1.6-0.4c0.4-0.2,0.8-0.6,1-1
		c0.2-0.4,0.4-0.9,0.5-1.4c0.1-0.5,0.2-1.1,0.2-1.6v-6.9h2.6v6.9c0,0.9-0.1,1.8-0.3,2.6c-0.2,0.8-0.6,1.5-1,2.1
		c-0.5,0.6-1.1,1.1-1.8,1.4C51.9,164.5,51,164.6,49.9,164.6z"/>
	<path class="st0" d="M58.5,164.6v-13.5h2.6v11.2H68v2.3H58.5z"/>
	<path class="st0" d="M73.2,151.1h2.7l5,13.5h-2.7l-1.1-3.4h-5l-1.1,3.4h-2.7L73.2,151.1z M76.4,159.3l-1.9-5.6l-1.9,5.6H76.4z"/>
	<path class="st0" d="M91.2,153.4h-4.3v11.2h-2.6v-11.2h-4.3v-2.3h11.2V153.4z"/>
	<path class="st0" d="M102.2,162.3v2.3h-9.4v-13.5h9.2v2.3h-6.6v3.2h5.7v2.1h-5.7v3.5H102.2z"/>
	<path class="st0" d="M104.2,164.6v-13.5h4.9c1.5,0,2.7,0.3,3.7,0.9c1,0.6,1.7,1.4,2.2,2.4c0.5,1,0.7,2.2,0.7,3.4
		c0,1.4-0.3,2.6-0.8,3.6c-0.5,1-1.3,1.8-2.3,2.4c-1,0.6-2.2,0.8-3.5,0.8H104.2z M113.2,157.8c0-0.9-0.2-1.6-0.5-2.3
		c-0.3-0.7-0.8-1.2-1.4-1.6c-0.6-0.4-1.3-0.6-2.2-0.6h-2.3v8.9h2.3c0.9,0,1.6-0.2,2.2-0.6c0.6-0.4,1-0.9,1.4-1.6
		C113,159.4,113.2,158.6,113.2,157.8z"/>
	<path class="st0" d="M128.1,164.6c-1.1,0-2-0.2-2.7-0.5s-1.4-0.9-1.8-1.5c-0.5-0.6-0.8-1.4-1-2.2c-0.2-0.8-0.3-1.6-0.3-2.5v-6.9
		h2.6v6.9c0,0.6,0.1,1.1,0.2,1.6c0.1,0.5,0.3,1,0.5,1.4s0.6,0.7,1,1s0.9,0.4,1.6,0.4c0.6,0,1.2-0.1,1.6-0.4c0.4-0.2,0.8-0.6,1-1
		c0.2-0.4,0.4-0.9,0.5-1.4c0.1-0.5,0.2-1.1,0.2-1.6v-6.9h2.6v6.9c0,0.9-0.1,1.8-0.3,2.6c-0.2,0.8-0.6,1.5-1,2.1
		c-0.5,0.6-1.1,1.1-1.8,1.4C130.1,164.5,129.2,164.6,128.1,164.6z"/>
	<path class="st0" d="M139.3,155.9v8.7h-2.6v-13.5h2.1l7,8.9v-8.9h2.6v13.5h-2.2L139.3,155.9z"/>
	<path class="st0" d="M151.2,164.6v-13.5h2.6v13.5H151.2z"/>
	<path class="st0" d="M166.7,153.4h-4.3v11.2h-2.6v-11.2h-4.3v-2.3h11.2V153.4z"/>
	<path class="st0" d="M177.7,162.3v2.3h-9.4v-13.5h9.2v2.3H171v3.2h5.7v2.1H171v3.5H177.7z"/>
	<path class="st0" d="M179.8,164.6v-13.5h4.9c1.5,0,2.7,0.3,3.7,0.9s1.7,1.4,2.2,2.4c0.5,1,0.7,2.2,0.7,3.4c0,1.4-0.3,2.6-0.8,3.6
		c-0.5,1-1.3,1.8-2.3,2.4c-1,0.6-2.2,0.8-3.5,0.8H179.8z M188.7,157.8c0-0.9-0.2-1.6-0.5-2.3c-0.3-0.7-0.8-1.2-1.4-1.6
		s-1.3-0.6-2.2-0.6h-2.3v8.9h2.3c0.9,0,1.6-0.2,2.2-0.6c0.6-0.4,1-0.9,1.4-1.6S188.7,158.6,188.7,157.8z"/>
	<path class="st0" d="M207.3,162.3v2.3h-9.4v-13.5h9.2v2.3h-6.6v3.2h5.7v2.1h-5.7v3.5H207.3z"/>
	<path class="st0" d="M215.1,164.6c-1.1,0-2-0.2-2.7-0.5c-0.8-0.4-1.4-0.9-1.8-1.5c-0.5-0.6-0.8-1.4-1-2.2c-0.2-0.8-0.3-1.6-0.3-2.5
		v-6.9h2.6v6.9c0,0.6,0.1,1.1,0.2,1.6s0.3,1,0.5,1.4s0.6,0.7,1,1s0.9,0.4,1.6,0.4c0.6,0,1.2-0.1,1.6-0.4c0.4-0.2,0.8-0.6,1-1
		c0.2-0.4,0.4-0.9,0.5-1.4c0.1-0.5,0.2-1.1,0.2-1.6v-6.9h2.6v6.9c0,0.9-0.1,1.8-0.3,2.6c-0.2,0.8-0.6,1.5-1,2.1
		c-0.5,0.6-1.1,1.1-1.8,1.4C217,164.5,216.1,164.6,215.1,164.6z"/>
	<path class="st0" d="M223.6,164.6v-13.5h6c0.6,0,1.2,0.1,1.7,0.4c0.5,0.3,1,0.6,1.4,1c0.4,0.4,0.7,0.9,0.9,1.4s0.3,1.1,0.3,1.6
		c0,0.6-0.1,1.1-0.3,1.6c-0.2,0.5-0.5,1-0.8,1.4c-0.4,0.4-0.8,0.7-1.3,0.9l3.1,5.1h-2.9l-2.8-4.5h-2.6v4.5H223.6z M226.2,157.7h3.3
		c0.3,0,0.6-0.1,0.9-0.3c0.3-0.2,0.5-0.5,0.6-0.8c0.2-0.3,0.2-0.7,0.2-1.1c0-0.4-0.1-0.8-0.3-1.1c-0.2-0.3-0.4-0.6-0.7-0.8
		c-0.3-0.2-0.6-0.3-0.9-0.3h-3.2V157.7z"/>
	<path class="st0" d="M241.9,164.6c-1,0-1.9-0.2-2.7-0.6c-0.8-0.4-1.5-0.9-2.1-1.5s-1-1.4-1.3-2.2c-0.3-0.8-0.5-1.7-0.5-2.5
		c0-0.9,0.2-1.8,0.5-2.6s0.8-1.5,1.4-2.2c0.6-0.6,1.3-1.1,2.1-1.5c0.8-0.4,1.7-0.6,2.7-0.6c1,0,1.9,0.2,2.7,0.6s1.5,0.9,2.1,1.6
		c0.6,0.7,1,1.4,1.3,2.2c0.3,0.8,0.5,1.6,0.5,2.5c0,0.9-0.2,1.7-0.5,2.6c-0.3,0.8-0.8,1.5-1.4,2.2c-0.6,0.6-1.3,1.1-2.1,1.5
		C243.7,164.5,242.9,164.6,241.9,164.6z M238,157.8c0,0.6,0.1,1.1,0.3,1.7c0.2,0.5,0.4,1,0.8,1.5c0.3,0.4,0.7,0.8,1.2,1
		c0.5,0.2,1,0.4,1.7,0.4c0.6,0,1.2-0.1,1.7-0.4s0.9-0.6,1.2-1c0.3-0.4,0.6-0.9,0.8-1.5c0.2-0.5,0.3-1.1,0.3-1.6
		c0-0.6-0.1-1.1-0.3-1.7c-0.2-0.5-0.4-1-0.8-1.4c-0.3-0.4-0.7-0.8-1.2-1c-0.5-0.2-1-0.4-1.6-0.4c-0.6,0-1.2,0.1-1.7,0.4
		c-0.5,0.3-0.9,0.6-1.2,1c-0.3,0.4-0.6,0.9-0.8,1.4C238.1,156.7,238,157.3,238,157.8z"/>
	<path class="st0" d="M250.5,164.6v-13.5h5.7c0.6,0,1.2,0.1,1.7,0.4c0.5,0.3,1,0.6,1.4,1c0.4,0.4,0.7,0.9,0.9,1.4s0.3,1.1,0.3,1.6
		c0,0.8-0.2,1.5-0.5,2.2c-0.4,0.7-0.8,1.2-1.5,1.7c-0.6,0.4-1.4,0.6-2.2,0.6h-3.2v4.5H250.5z M253.1,157.7h3c0.3,0,0.6-0.1,0.9-0.3
		s0.5-0.4,0.6-0.8s0.2-0.7,0.2-1.1c0-0.5-0.1-0.9-0.3-1.2c-0.2-0.3-0.4-0.6-0.7-0.7c-0.3-0.2-0.6-0.2-0.9-0.2h-2.9V157.7z"/>
	<path class="st0" d="M271.7,162.3v2.3h-9.4v-13.5h9.2v2.3H265v3.2h5.7v2.1H265v3.5H271.7z"/>
</g>
</svg>
