<?xml version="1.0" encoding="utf-8"?>
<!-- Generator: Adobe Illustrator 24.3.0, SVG Export Plug-In . SVG Version: 6.00 Build 0)  -->
<svg version="1.1" id="Layer_1" xmlns="http://www.w3.org/2000/svg" xmlns:xlink="http://www.w3.org/1999/xlink" x="0px" y="0px"
	 viewBox="0 0 35 35" style="enable-background:new 0 0 35 35;" xml:space="preserve">
<style type="text/css">
	.st0{fill:#FF0000;}
	.st1{fill:#FFFFFF;}
</style>
<g>
	<path class="st0" d="M17.5,35L17.5,35C7.8,35,0,27.2,0,17.5l0,0C0,7.8,7.8,0,17.5,0l0,0C27.2,0,35,7.8,35,17.5l0,0
		C35,27.2,27.2,35,17.5,35z"/>
	<path class="st1" d="M28.6,11.9c-0.3-1-1.1-1.8-2.1-2.1c-1.8-0.5-9.1-0.5-9.1-0.5s-7.3,0-9.1,0.5c-1,0.3-1.8,1.1-2.1,2.1
		c-0.5,1.8-0.5,5.6-0.5,5.6s0,3.8,0.5,5.6c0.3,1,1.1,1.8,2.1,2.1c1.8,0.5,9.1,0.5,9.1,0.5s7.3,0,9.1-0.5c1-0.3,1.8-1.1,2.1-2.1
		c0.5-1.8,0.5-5.6,0.5-5.6S29.1,13.7,28.6,11.9z M15.1,21V14l6.1,3.5L15.1,21z"/>
</g>
</svg>
