<?xml version="1.0" encoding="UTF-8"?>
<svg xmlns="http://www.w3.org/2000/svg" xmlns:xlink="http://www.w3.org/1999/xlink" version="1.1" id="Layer_1" x="0px" y="0px" viewBox="0 0 414 300" style="enable-background:new 0 0 414 300;" xml:space="preserve">
<style type="text/css">
	.st0{fill:#C98017;}
	.st1{fill:#FBED60;}
	.st2{fill:#FABA31;}
	.st3{fill:#68C2EE;}
	.st4{fill:#0491BE;}
	.st5{fill:#68C2EF;}
	.st6{fill:#31798F;}
	.st7{fill:#C1BDBE;}
	.st8{fill:#6E6E6E;}
	.st9{fill:#6C6C6C;}
	.st10{fill:#BCBCBC;}
	.st11{fill:#E1E1E1;}
	.st12{fill:#0A0A09;}
	.st13{fill:#FFC800;}
</style>
<g>
	
		<ellipse transform="matrix(6.609438e-02 -0.9978 0.9978 6.609438e-02 106.0207 290.5301)" class="st0" cx="208.2" cy="88.6" rx="21.9" ry="39.9"></ellipse>
	
		<ellipse transform="matrix(8.639421e-02 -0.9963 0.9963 8.639421e-02 106.3321 285.253)" class="st1" cx="208.7" cy="84.7" rx="19.4" ry="39.9"></ellipse>
	
		<ellipse transform="matrix(8.639421e-02 -0.9963 0.9963 8.639421e-02 106.3321 285.253)" class="st2" cx="208.7" cy="84.7" rx="15.5" ry="31.9"></ellipse>
	<path class="st0" d="M198.3,88.8c0.8,2,4.6,3.2,8.4,3.2c2.4-0.1,4.3-0.9,5.2-1.9l0.5-0.6l1.1,0.2c1.1,0.2,2.3,0.4,3.6,0.3   c3.9-0.1,6.3-1.8,5.5-3.6l-0.3-0.7l4.1,0c0.8,0,1.4-0.3,1.3-0.9c-0.1-0.5-1-0.7-1.8-0.6l-4.1,0l-1.1-2.6l4.1,0   c0.8,0,1.4-0.3,1.2-0.7c-0.4-0.5-1.2-0.7-1.8-0.6l-4.1,0l-0.9-2.1c-0.1-0.5-1-0.7-1.8-0.6c-0.8,0-1.4,0.3-1.2,0.7l0.8,2.1L198.1,81   l-0.6-2.1c-0.1-0.5-1-0.7-1.8-0.6c-0.8,0-1.4,0.3-1.2,0.7l0.8,2.1l-4.1,0c-0.8,0-1.4,0.3-1.3,0.9c0.1,0.5,1,0.7,1.8,0.6l4.1,0   l1.1,2.7l-4.1,0c-0.8,0-1.4,0.3-1.2,0.7c0.4,0.5,1.2,0.7,1.8,0.6l4.1,0L198.3,88.8z M217.7,81.9l2,4.7c0.4,1.1-1,2-3,2.1   c-2.2,0.2-4.5-0.7-4.9-1.8l-2-4.7L217.7,81.9z M198.9,82.4l7.9-0.2l2.6,6c0.4,1.1-1,2-3,2.1c-2,0.1-4.3-0.7-4.9-1.8L198.9,82.4z"></path>
</g>
<g>
	
		<ellipse transform="matrix(0.9047 -0.4261 0.4261 0.9047 -63.8323 118.383)" class="st3" cx="232.6" cy="201.8" rx="59.5" ry="28.7"></ellipse>
	
		<ellipse transform="matrix(0.9047 -0.4261 0.4261 0.9047 -61.9859 117.5926)" class="st4" cx="231.8" cy="197.3" rx="58.2" ry="26.7"></ellipse>
	
		<ellipse transform="matrix(0.9047 -0.4261 0.4261 0.9047 -61.9859 117.5926)" class="st5" cx="231.8" cy="197.3" rx="46.7" ry="21.4"></ellipse>
	<path class="st6" d="M241.8,193.1l12.2-4.3c-0.7-1.2-1.2-2.2-1.5-3.5c-0.2-0.7-0.9-0.5-2,0c-4.1,1.3-7.9,2.6-11.9,4.1   c-2.6,1-4.1,0.9-5.3,0.3c-1.6-0.8-1.9-0.9-4.9,1.1l2.5,1.2c-4.3,1.6-8.2,2.6-12.2,4.2l5.7,12.1c0.2,0.2,0.3,0.3,1,0.1   c1.9-0.6,3.9-1.1,6.1-1.8l-3.9-8.3c2.3-0.7,4.4-1.4,6.5-2.2c2.6-1.1,4.2-1,5.5-0.3c1.6,0.9,1.8,0.7,4.9-1.1L241.8,193.1z"></path>
</g>
<g>
	<ellipse class="st7" cx="159.4" cy="155.5" rx="40.3" ry="46.4"></ellipse>
	<ellipse class="st8" cx="154.5" cy="153.8" rx="38.9" ry="44.9"></ellipse>
	<ellipse class="st7" cx="154.5" cy="153.8" rx="31.2" ry="36"></ellipse>
	<path class="st8" d="M161.3,133.1c4.1,0,7.4,3.5,7.5,8.6c0.2,4.6-2.9,8.4-6.5,8.9c-0.6,0.1-1.1,0.2-1.6,0.1   c-1.7-0.2-3.2,1.1-3.3,2.8v0.6c0,2,1.3,3.5,3.1,3.4c3.7-0.2,6.9,2.6,7.7,6.7c0.8,3.2-0.2,6.5-2.6,8.8c-1.9,2.2-5.2,2.8-7.7,1.3   c-2.9-1.4-4.3-4-4.6-7.5c-0.1-1.7,0.2-3.4,0.9-4.9c0.6-1.3,0.3-2.8-0.6-3.9c-0.8-0.9-2.1-1.1-3.2-0.6c-0.5,0.3-0.8,0.6-1.1,1.2   c-1.9,3.2-4.6,4.5-7.7,3.6c-3.2-0.7-5.2-3.2-6-7c-1.1-5.3,3.2-10.8,7.9-10.3c3.1,0.2,5.2,2,6.6,5.2c0.5,1.4,1.9,2.1,3.2,1.8   c0.1,0,0.1,0,0.2-0.1c0.2-0.1,0.2-0.1,0.5-0.2c1.5-0.9,2.1-2.9,1.3-4.6c-0.7-1.5-1.3-3.1-1.4-4.7   C153.5,137,156.8,133.2,161.3,133.1z"></path>
</g>
<g>
	<path class="st9" d="M275.4,116.9c1.6,0.4,3.2,0.9,4.8,1.6l0.4,0.1c0.1,0.1,0.4,0.4,0.7,0.4l0.1,0.1c0.4,0.7,1.3,1,2,1.6   c0.4,0.4,0.4,0.8,1,0.8c0.4,0.9,1.3,1.9,1.7,3c-0.1,0.1,0,0.1,0.1,0.3h0.1c0.1,0.7,0.1,1.3,0.4,2c0,0-0.4,0.1-0.1,0.1   c-0.1,1.7-0.5,3.4-1.2,4.9c-0.8,1-1.4,2.6-2.5,3.6c-8.3,10.6-36.4,16-43.6,3.5c0.1-0.1-0.3-0.1-0.3-0.4c0-0.3,0.1-0.4-0.1-0.4   c-0.8-0.8-0.4-3-0.7-3.7c0.1-0.3,0.1-0.5,0-0.8c0.1-0.4,0.1-0.9,0.5-1.3c0.3-1,0.6-1.9,1-2.8c0.3-0.3,0.4-0.5,0.6-0.8   c1.2-1.7,2.5-3.1,4.1-4.4c0.1-0.4,0.7-0.4,0.6-0.8c0.1,0.1,0.1,0,0.3-0.1v-0.1c1.8-1.2,4-2.4,5.9-3.6c0.1,0,0.4-0.1,0.5-0.3   c3.2-1.3,6.7-2.3,10.2-3.1c0.4,0.1,0.9,0,1.3-0.3c1,0,2-0.1,3-0.4c0.1,0,0.4,0.1,0.4-0.1c0.9,0.3,2.1-0.1,3.1,0.1   c0.3-0.3,0.6,0.1,0.8-0.1c0.1,0.1,0.1-0.1,0.4-0.1c0.1,0.4,0.4,0.1,0.7,0.1C272.6,116.8,273.9,116.4,275.4,116.9z M281.3,132.3   c4.7-7.8-3.2-12.8-9.9-13.5c-16.8-1.8-33.5,10.3-28.2,19.2c2.5,4.9,9.2,5.7,14.3,5.9c8.9-0.6,18.6-3.6,23.7-11.4L281.3,132.3z"></path>
	<path class="st10" d="M281.2,132.5c-5.2,7.8-14.8,10.7-23.7,11.4c-5-0.3-11.9-1-14.3-5.9c-0.4-2.5,0.1-5,1.4-7.2   c4.3-5.7,10.1-7.8,16-9.7c3-0.1,6.2-1.1,9.2-0.5c6.3,0.1,14.3,4.4,11.4,11.6C281.2,132.1,280.9,132.5,281.2,132.5z M262.8,126.6   C263.1,126.7,263,126.2,262.8,126.6c-3.6,0.1-7.1,0.6-10.8,0.9l4.5,5.6c0.4-1.3,0.5-2.8,0.8-4.1C259.2,128.3,261,127.5,262.8,126.6   z M266.4,126.1c-2.6,0.8-5.3,2.3-8,3.2c-0.3,0.8-0.4,1.6-0.5,2.4c-0.3,1-0.4,2-0.6,3c0.1,0.1,0.4-0.1,0.5,0   c5.3-0.3,10.8-0.4,16.2-0.9C271.6,131.4,269.2,128.3,266.4,126.1z"></path>
	<path class="st10" d="M287.1,128l-0.1,0.1c0,1,0.1,2,0.5,3c-0.1,0.4,0.1,0.9-0.1,1.3c0.1,1.6-0.8,3.1-1.3,4.7   c-1.3,1.7-2.6,3.4-4.1,4.9c-0.1,0-0.1,0-0.1,0.1v0.1c-1,0.5-2,1.8-3.2,2.3c-1,0.8-2.3,1-3,1.9c-0.1-0.1-0.1,0-0.3,0.1v0.1   c-0.4-0.1-0.7,0-0.8,0.4c-0.1,0-0.1,0-0.3,0.1c-0.4-0.1-0.7,0-0.8,0.4c-0.1-0.1-0.1,0-0.3,0.1c-0.1-0.1-0.1,0-0.3,0.1v0.1   c-0.3-0.1-0.4,0-0.6,0.1l0,0c-0.4-0.1-0.5,0-0.7,0.4c-2.7,0.6-5.5,1.6-8.4,2.1c-0.7,0.1-2.1-0.1-2.6,0.4c-1.3-0.3-2.8,0.3-4.3-0.1   c-0.4,0.3-0.7-0.1-0.9,0.1c-3.4-0.4-6.8-0.9-9.7-2.5c-1-0.5-2-1.5-3.1-2c0-0.4-0.4-0.6-0.8-1c-1.3-1.8-2-3.9-2.2-6.1   c7.9,13.1,36.2,6.2,43.4-3.8c1.1-0.9,1.8-2.4,2.5-3.6c0.7-1.6,1.1-3.2,1.2-4.9c0.4,0.3,0.3,0.8,0.4,1.1L287.1,128z"></path>
	<path class="st11" d="M281.3,132.3c2.8-7.6-5.5-11.4-11.4-11.6c-3-0.6-6.2,0.4-9.2,0.5c-6.4,1.8-12.1,4.4-16,9.7   c-0.8,1.5-1.4,3.2-1.7,4.9c-0.1,0.8,0.4,1.4,0.1,2.3c-2.1-3.2-0.5-7.1,1.8-10c6.6-7.6,18.2-10.1,26.5-9.2   C280.4,119.9,285.3,125.9,281.3,132.3z"></path>
	<path class="st11" d="M281.2,132.5c-0.1,0-0.1-0.1-0.1-0.3s0.1-0.1,0.3-0.1L281.2,132.5z"></path>
	<path class="st9" d="M266.6,126.1c2.7,2.2,5,5.2,7.7,7.7c-5.2,0.5-10.8,0.7-16.2,0.9c1.7-1.4,4.5-2.5,6.6-3.6   C265.3,129.5,265.9,127.9,266.6,126.1z"></path>
	<path class="st12" d="M266.6,126.1c-0.6,1.7-1.3,3.2-1.8,5.2c-2.1,1.1-4.8,2.1-6.6,3.6c-0.1-0.1-0.4,0.3-0.5,0c0.1-1,0.4-2,0.6-3   c0.1-0.8,0.3-1.7,0.5-2.4C261.2,128.4,263.9,126.8,266.6,126.1z"></path>
	<path class="st9" d="M262.8,126.7l-5.5,2.3c-0.3,1.2-0.4,2.7-0.8,4.1l-4.5-5.6C255.7,127.2,259.2,126.7,262.8,126.7z"></path>
</g>
<g>
	<path class="st13" d="M153.1,261.6c1.4,4.4,2.8,8.6,4.1,12.9c-0.1,0.1-0.3,0.3-0.4,0.4c-3.6-2.6-7.3-5.2-11.1-7.9   c-3.7,2.6-7.3,5.3-11,7.9c-0.2-0.1-0.3-0.2-0.5-0.3c1.3-4.2,2.7-8.5,4.1-12.9c-3.7-2.8-7.4-5.5-11.1-8.3c0.1-0.2,0.1-0.3,0.2-0.5   c4.5,0,9.1,0,13.8,0c1.4-4.3,2.8-8.4,4.4-13.2c2.3,4.5,2.9,8.9,4.8,13.1c4.5,0,9,0,13.6,0c0.1,0.2,0.2,0.4,0.3,0.6   C160.6,256.1,156.9,258.9,153.1,261.6z"></path>
	<path class="st13" d="M89.5,231.4c1.6-5,3-9.3,4.4-13.8c-3.7-2.7-7.3-5.4-10.9-8c0-0.2,0.1-0.4,0.1-0.5c4.5,0,9,0,13.5,0   c1.5-4.5,2.9-8.8,4.6-13.8c1.7,4.9,3.1,9.2,4.6,13.6c4.6,0,9.2,0,13.7,0c0.1,0.2,0.1,0.4,0.2,0.6c-3.6,2.7-7.3,5.3-11.1,8.2   c1.4,4.4,2.8,8.7,4.4,13.8c-4.3-3.1-7.9-5.7-11.8-8.4C97.5,225.7,93.8,228.3,89.5,231.4z"></path>
	<path class="st13" d="M104.9,147.5c-3.6,2.6-7.2,5.3-11.1,8.1c1.4,4.3,2.7,8.7,4.1,13c-0.1,0.1-0.3,0.2-0.4,0.4   c-3.6-2.6-7.3-5.2-11.1-8c-3.7,2.7-7.4,5.3-11.8,8.4c1.6-5,2.9-9.3,4.4-13.8c-3.6-2.7-7.3-5.4-10.9-8c0.1-0.2,0.1-0.4,0.2-0.6   c4.4,0,8.9,0,13.5,0c1.5-4.5,2.9-8.7,4.6-13.8c1.7,4.9,3.1,9.1,4.6,13.6c4.6,0,9.1,0,13.7,0C104.8,147.1,104.8,147.3,104.9,147.5z"></path>
	<path class="st13" d="M204.1,23.6c1.5-4.6,2.9-8.9,4.3-13.1c0.2,0,0.4,0,0.6,0c1.4,4.2,2.8,8.4,4.3,12.9c4.6,0,9.2,0,13.7,0   c0.1,0.2,0.1,0.3,0.2,0.5c-3.6,2.7-7.3,5.4-11.1,8.2c1.4,4.4,2.8,8.7,4.4,13.8c-4.3-3.1-8-5.7-11.8-8.4c-3.8,2.7-7.5,5.4-11.8,8.4   c1.6-5,2.9-9.2,4.4-13.8c-3.6-2.7-7.3-5.4-11.5-8.5C194.9,23.6,199.4,23.6,204.1,23.6z"></path>
	<path class="st13" d="M280.3,61.7c-4.2-3-7.8-5.6-11.6-8.3c-4.1,2.1-7.4,5.5-11.8,8c1.5-4.8,2.9-9.1,4.3-13.5   c-3.8-2.8-7.3-5.4-11.5-8.4c5,0,9.4,0,13.9,0c2.2-4.4,3-9,4.9-13.9c1.6,4.9,3.1,9.2,4.6,13.7c4.6,0,9,0,13.5,0   c0.1,0.2,0.2,0.4,0.2,0.6c-3.6,2.7-7.2,5.3-10.9,8.1C277.3,52.4,278.7,56.7,280.3,61.7z"></path>
	<path class="st13" d="M251.8,252.7c4.5,0,9,0,13.6,0c1.5-4.5,2.9-8.8,4.6-13.7c1.6,4.9,3,9.2,4.6,13.8c4.6,0,9.1,0,13.6,0   c0.1,0.2,0.1,0.4,0.2,0.6c-3.6,2.6-7.2,5.3-11,8.1c1.4,4.4,2.8,8.7,4.4,13.8c-4.3-3.1-7.9-5.7-11.8-8.5c-3.7,2.7-7.4,5.4-11.8,8.5   c1.6-5,3-9.3,4.4-13.8c-3.6-2.7-7.3-5.4-10.9-8.1C251.7,253.1,251.8,252.9,251.8,252.7z"></path>
	<path class="st13" d="M157.5,61.7c-4.3-3-7.9-5.6-11.8-8.4c-3.7,2.6-7.4,5.3-11.8,8.4c1.6-5,3-9.3,4.4-13.7   c-3.7-2.7-7.3-5.4-11.5-8.5c5.2,0,9.6,0,14.3,0c1.5-4.5,2.9-8.7,4.5-13.5c2.2,4.5,2.9,9,4.8,13.3c4.5,0,9.1,0,13.6,0   c0.1,0.2,0.1,0.4,0.2,0.5c-3.6,2.7-7.3,5.4-11,8.2C154.6,52.4,155.9,56.7,157.5,61.7z"></path>
	<path class="st13" d="M89,108.3c1.6-5.1,3-9.3,4.4-13.8c-3.7-2.8-7.4-5.4-11.6-8.6c5.2,0,9.7,0,14.4,0c1.5-4.4,2.9-8.7,4.4-13   c0.2,0,0.4,0,0.5,0c1.4,4.2,2.8,8.4,4.3,12.9c4.6,0,9.1,0,13.6,0c0.1,0.2,0.1,0.4,0.2,0.6c-3.6,2.7-7.3,5.4-11,8.1   c1.4,4.5,2.8,8.8,4.4,13.8c-4.2-3-7.9-5.7-11.7-8.4C97,102.6,93.3,105.2,89,108.3z"></path>
	<path class="st13" d="M326.7,106.2c-4.3-3.1-8-5.7-11.8-8.5c-3.7,2.7-7.4,5.4-11.8,8.5c1.6-5,2.9-9.3,4.4-13.8   c-3.7-2.7-7.2-5.3-10.8-8c0-0.2,0.1-0.4,0.1-0.5c4.4,0,8.8,0,13.5,0c1.5-4.6,3-8.9,4.6-13.9c1.6,4.9,3.1,9.2,4.6,13.7   c4.6,0,9.1,0,13.6,0c0.1,0.2,0.1,0.4,0.2,0.6c-3.6,2.6-7.2,5.3-10.9,8.1C323.7,96.7,325.1,101.1,326.7,106.2z"></path>
	<path class="st13" d="M319.3,167.9c1.4-4.3,2.8-8.5,4.2-13c-3.6-2.7-7.2-5.3-11.4-8.5c5.2,0,9.5,0,14.1,0c1.5-4.6,3-9,4.7-14   c1.7,4.9,3.1,9.3,4.6,13.8c4.6,0,9,0,13.3,0c0.1,0.2,0.2,0.4,0.3,0.6c-3.6,2.6-7.2,5.3-10.8,8c1.1,4.6,3.2,8.7,3.9,13.3l0.1-0.1   c-4.1-2-7.3-5.4-11.5-7.7c-3.1,2.2-6.3,4.5-9.5,6.8C320.7,167.5,320.2,168.2,319.3,167.9L319.3,167.9z"></path>
	<path class="st13" d="M319.2,208.7c4.6,0,9,0,13.4,0c0.1,0.2,0.1,0.3,0.2,0.5c-3.6,2.6-7.1,5.3-10.8,8c1.4,4.5,2.8,8.8,4.4,13.8   c-4.2-3-7.9-5.7-11.8-8.5c-3.7,2.7-7.4,5.3-11.5,8.2c0.9-4.9,3-9.1,4-13.6c-3.7-2.7-7.2-5.3-11.4-8.3c5.1,0,9.5,0,14.2,0   c1.5-4.6,3-9,4.7-14C316.2,199.8,317.6,204.1,319.2,208.7z"></path>
	<path class="st13" d="M201.3,278c-3.7-2.7-7.3-5.4-10.8-8c0.1-0.2,0.1-0.3,0.2-0.5c4.4,0,8.9,0,13.5,0c1.5-4.5,2.9-8.8,4.6-13.9   c1.7,5,3.1,9.3,4.6,13.8c4.6,0,9,0,13.5,0c0.1,0.2,0.2,0.4,0.2,0.6c-3.5,2.6-7.1,5.3-10.9,8.1c1.4,4.4,2.8,8.7,4.4,13.9   c-4.2-3.1-7.9-5.7-11.8-8.5c-3.8,2.7-7.4,5.4-11.8,8.4C198.5,286.9,199.9,282.5,201.3,278z"></path>
	<path class="st13" d="M319.3,167.8c0.1,0.1,0.1,0.1,0.2,0.2C319.4,167.9,319.4,167.9,319.3,167.8   C319.3,167.9,319.3,167.8,319.3,167.8z"></path>
	<path class="st13" d="M342.3,168c0.1,0,0.1,0.1,0.2,0.1C342.4,168,342.4,168,342.3,168C342.3,167.9,342.3,168,342.3,168z"></path>
</g>
</svg>
