<?xml version="1.0" encoding="UTF-8"?>
<svg xmlns="http://www.w3.org/2000/svg" xmlns:xlink="http://www.w3.org/1999/xlink" version="1.1" id="Layer_1" x="0px" y="0px" viewBox="0 0 400 300" style="enable-background:new 0 0 400 300;" xml:space="preserve">
<style type="text/css">
	.st0{fill:none;}
	.st1{fill:none;stroke:#F3F2EF;stroke-width:2;stroke-miterlimit:10;}
	.st2{fill:#F3F2EF;}
	.st3{fill:#C98017;}
	.st4{fill:#FBED60;}
	.st5{fill:#FABA31;}
	.st6{fill:#C1BDBE;}
	.st7{fill:#6E6E6E;}
	.st8{fill:#46B2D3;}
	.st9{fill:#0491BE;}
	.st10{fill:#68C2EF;}
	.st11{fill:#31798F;}
</style>
<rect y="16.6" class="st0" width="400" height="300"></rect>
<g>
	<path class="st1" d="M32.3,17.5h335.4c11.7,0,21.3,9.6,21.3,21.3v224.4c0,11.7-9.6,21.3-21.3,21.3H32.3c-11.7,0-21.3-9.6-21.3-21.3   V38.8C11,27,20.6,17.5,32.3,17.5z"></path>
	<path class="st2" d="M43.1,167.1h-5.9c0-3,0-5.9,0-8.9c0-0.5,0.7-1.1,1.1-1.4c14.2-8.2,28.4-16.3,42.4-24.3c0.9-0.4,1.8-0.4,2.5,0   c14.2,8,28.4,16.2,42.6,24.3c0.7,0.4,1.1,1.1,1.4,1.8c0.2,2.7,0,5.5,0,8.3h-6v41h5.9v5.3h5v7.5H32v-7.5h5V208h5.9v-40.8H43.1z    M74.9,172.5v35.2h14.7v-35.2H74.9z M66.4,207.8v-35.2H51.8v35.2H66.4z M112.9,207.8v-35.2H98.2v35.2H112.9z M105.6,157.5   c-0.4-0.4-0.7-0.5-1.1-0.7c-7.1-3.9-14.2-7.8-21.3-11.7c-0.9-0.4-1.8-0.2-2.5,0.2c-6.7,3.7-13.5,7.5-20.2,11.2   c-0.5,0.4-1.1,0.7-1.6,1.2L105.6,157.5z"></path>
	<rect x="11" y="54.6" class="st2" width="378" height="39.4"></rect>
	<ellipse class="st3" cx="207.7" cy="182" rx="47.8" ry="49.5"></ellipse>
	<ellipse transform="matrix(0.1091 -0.994 0.994 0.1091 2.2148 363.3513)" class="st4" cx="203.8" cy="180.4" rx="47.9" ry="47.9"></ellipse>
	
		<ellipse transform="matrix(0.7071 -0.7071 0.7071 0.7071 -67.9124 196.9055)" class="st5" cx="203.7" cy="180.4" rx="38.4" ry="38.4"></ellipse>
	<path class="st3" d="M208.3,197.3c4.4,1.4,9.2-1.1,10.7-5.5c0.9-2.8,0.4-5.9-1.6-8.2l-0.9-1.1l1.1-1.1c1.1-1.1,2-2.3,2.3-3.7   c1.4-4.4-1.1-9.2-5.5-10.7l-1.4-0.5l1.4-4.6c0.4-1.1-0.2-2-1.2-2.3c-1.1-0.4-2,0.2-2.3,1.2l-1.4,4.6l-6.2-2l1.4-4.6   c0.4-1.1-0.2-2-1.2-2.3c-1.1-0.4-2,0.2-2.3,1.2l-1.4,4.6l-4.6-1.6c-1.1-0.4-2,0.2-2.3,1.2c-0.4,1.1,0.2,2,1.2,2.3l4.6,1.4   l-6.9,22.2l-4.6-1.4c-1.1-0.4-2,0.2-2.3,1.2c-0.4,1.1,0.2,2,1.2,2.3l4.6,1.4l-1.4,4.6c-0.4,1.1,0.2,2,1.2,2.3   c1.1,0.4,2-0.2,2.3-1.2l1.4-4.6l6.2,2l-1.4,4.6c-0.4,1.1,0.2,2,1.2,2.3c1.1,0.4,2-0.2,2.3-1.2l1.4-4.6L208.3,197.3L208.3,197.3z    M202,167.1l11,3.6c2.7,0.9,4.1,3.6,3.2,6.2s-3.6,4.1-6.2,3.2l0,0l-11-3.6L202,167.1z M194.9,189.3l3-9.4l14.4,4.4   c2.7,0.9,4.1,3.6,3.2,6.2s-3.6,4.1-6.2,3.2L194.9,189.3z"></path>
	<ellipse class="st6" cx="298.3" cy="233.3" rx="39.8" ry="41.2"></ellipse>
	<circle class="st7" cx="294.9" cy="231.9" r="39.9"></circle>
	<circle class="st6" cx="294.9" cy="231.9" r="32"></circle>
	<path class="st7" d="M301.8,213.5c4.3,0,7.8,3.6,7.6,7.8c0,3.9-2.8,7.1-6.6,7.6c-0.5,0.2-1.1,0.2-1.6,0.2c-1.6-0.2-3,0.9-3.4,2.5   c-0.2,1.6,0.9,3,2.5,3.4c0.2,0,0.4,0,0.5,0c3.7-0.2,7.1,2.3,8,6c1.1,4.1-1.4,8.3-5.7,9.4c-4.1,1.1-8.3-1.4-9.4-5.7   c-0.2-0.5-0.2-1.1-0.2-1.6c0-1.6,0.4-3,1.1-4.3c0.5-1.2,0.4-2.7-0.7-3.4c-0.9-0.9-2.3-1.1-3.4-0.5c-0.5,0.2-0.9,0.7-1.1,1.1   c-1.8,2.7-5,4.1-8,3.4c-3.2-0.5-5.7-3-6-6.2c-0.7-4.3,2.1-8.3,6.4-9.1c0.5-0.2,1.1-0.2,1.8-0.2c3,0.2,5.7,2,6.7,4.6   c0.7,1.4,2.5,2,3.9,1.2c1.4-0.7,2-2.5,1.2-3.9l0,0c-0.7-1.2-1.2-2.7-1.4-4.1c-0.4-4.3,3-8,7.3-8.2   C301.5,213.5,301.6,213.5,301.8,213.5z"></path>
	<ellipse class="st8" cx="323.3" cy="132.1" rx="27.9" ry="28.9"></ellipse>
	<circle class="st9" cx="321" cy="131.3" r="27.9"></circle>
	<circle class="st10" cx="321" cy="131.3" r="22.4"></circle>
	<path class="st11" d="M323.7,117.4l-2.3,10.3l5.7-2.1c0,0.5-0.2,0.9-0.2,1.4c-0.2,0.7-0.4,1.2-0.4,2c0,0.2-0.2,0.4-0.4,0.5l-5.1,2   c-0.2,0-0.4,0.2-0.4,0.4c-0.4,1.8-0.7,3.6-1.1,5.3c0,0.2,0,0.2,0,0.4h12.3l-1.1,4.6c-0.4,0-17.8,0.2-18.3,0l1.8-8l-3.4,1.2   c-0.2-0.2,0-0.2,0-0.4c0.2-1.1,0.4-2.1,0.5-3c0-0.2,0.2-0.5,0.4-0.5c0.9-0.4,1.8-0.7,2.7-1.1c0.4-0.2,0.7-0.4,0.7-0.7   c0.9-3.9,1.8-7.8,2.5-11.7c0-0.4,0.2-0.5,0.7-0.5c1.6,0,3.2,0,5,0C323.3,117.4,323.5,117.4,323.7,117.4z"></path>
</g>
</svg>
