<?xml version="1.0" encoding="utf-8"?>
<!-- Generator: Adobe Illustrator 24.3.0, SVG Export Plug-In . SVG Version: 6.00 Build 0)  -->
<svg version="1.1" id="Layer_1" xmlns="http://www.w3.org/2000/svg" xmlns:xlink="http://www.w3.org/1999/xlink" x="0px" y="0px"
	 viewBox="0 0 400 300" style="enable-background:new 0 0 400 300;" xml:space="preserve">
<style type="text/css">
	.st0{clip-path:url(#SVGID_2_);fill:#FFFFFF;}
	.st1{clip-path:url(#SVGID_4_);fill:#00966E;}
	.st2{clip-path:url(#SVGID_6_);fill:#D62612;}
	.st3{fill:#F3F2EF;}
	.st4{fill:#C98017;}
	.st5{fill:#FBED60;}
	.st6{fill:#FABA31;}
	.st7{fill:#68C2EE;}
	.st8{fill:#0491BE;}
	.st9{fill:#68C2EF;}
	.st10{fill:#31798F;}
	.st11{fill:#C1BDBE;}
	.st12{fill:#6E6E6E;}
	.st13{fill:#6C6C6C;}
	.st14{fill:#BCBCBC;}
	.st15{fill:#E1E1E1;}
	.st16{fill:#0A0A09;}
</style>
<g>
	<g>
		<defs>
			<path id="SVGID_1_" d="M119.6,259.1c-1.1-0.3-2.1-0.6-3.1-0.8c-1.4-0.2-2.2,0.4-2.2,1.9c0,0.9,0.4,2.2-0.5,2.6
				c-1.5,0.6-3.4,1.4-4.7,0.9c-3.4-1.4-5.6,0.7-8.2,1.9c-0.7,0.3-1.2,0.9-2,0.8c-1.7-0.2-3.3,0.1-4.7,1.4c-1,0.9-2.2,0.4-3.4-0.2
				c-3-1.4-5.9-1.9-8.9,0.2c-0.8,0.6-1.6,0.6-2.6-0.1c-1.9-1.4-3.9-0.8-4.6,1.4c-0.6,2.2-2.2,2.9-4,2.7c-3.1-0.2-6.2-0.7-9.3-1.2
				c0.6-5.7,1-11,0-16.4c-0.2-1.2,0-2.4,1-3.2c1.1-1,1.7-2.3,2.1-3.7c0.5-1.6,0.4-3.1-1.6-3.7c-0.9-0.3-1.4-0.9-1.7-1.7
				c-1.2-3.6-3.3-6.9-3.5-10.8c-0.1-2.9-2-4.2-4.3-4.8c-3.9-0.9-7.5-2.5-10.2-5.3c-3.4-3.6-6.5-7.7-9.7-12.5
				c5.2,0.7,5.1-4.2,7.9-6.1c2.3-1.6,1.6-5.3-0.7-7c-2.4-1.8-3.5-3.9-2.4-6.9c0.6-1.8,0.1-3.9,1.4-5.6c0.6-0.7-0.1-1.4-0.5-2.1
				c-2-3.6-1.2-5.8,2.6-7.3c1.9-0.7,3.8-1.4,6.1-0.7c2.7,0.8,4.3-0.3,5.1-3.1c0.5-1.9,0.9-3.6,3.2-4.1c0.1,0,0.2-0.1,0.2-0.1
				c2.7-3.1,5.7-5.9,7.1-9.9c0.6-1.9,0.2-3-1.9-3.6c-2.7-0.8-4.2-3.1-5.2-5.5c-1.3-3.1-3.5-5-6.6-6.6c-5.1-2.5-9.8-5.6-9.7-12.4
				c0.1-2.1-0.2-4.3-2.6-5.4c-0.2-0.1-0.4-0.3-0.5-0.6c-1-3.8-3.6-7.2-2.2-11.5c0.7-2.4,1.1-4.9,1.4-7.4c0.2-1.9,1.1-3.1,2.9-3.2
				c1.4-0.1,2.6-0.5,3.2-2c0.1-0.1,0.2-0.4,0.3-0.4c3.7-0.6,3-3.6,3.2-5.9c0.1-1.3,0.6-2.4,1.4-3.5c1.7-2.1,2.7-2.3,4.9-0.8
				c1.7,1.2,3.5,2.4,5.2,3.6c2,1.4,4.1,2.7,6.6,3.1c1.4,0.2,2.6,1,2.6,2.7c0,1.6-0.7,2.7-2.2,3.3c-0.2,0.1-0.3,0.1-0.5,0.2
				c-4.6,1.6-5.6,2.8-5.9,7.7c-0.1,2.2,1,3.7,3.2,3.6c4.4-0.1,8.7-0.3,13-1.8c5.6-1.9,11.3-2.2,16.7,0.9c1.9,1.1,3.7,1.5,5.9,0.8
				c1.4-0.5,2.7-0.1,4.1,0.4c8.7,3,17.4,6.1,27,4.7c1-0.1,1.8-0.5,2.5-1.1c2.1-1.7,4.3-1.8,6.7-0.7c0.4,0.2,1,0.3,1.4,0.6
				c4.9,2.5,10.2,3.1,15.5,2.2c2.1-0.3,4.1,0,5.9,0.9c1.4,0.6,2.9,1.1,4.4,1.1c3.7,0,7.2,0.9,10.1,3.4c0.8,0.7,1.9,1.1,2.9,0.8
				c3.9-1.6,8.5-0.4,11.9-3.6c0.2-0.2,0.4-0.4,0.7-0.4c6.3-0.4,8.7-5.6,12.1-9.6c0.6-0.7,1.3-1.3,2.1-1.9c1.9-1.4,3.8-2.7,5-5
				c1-1.9,2.9-2.6,4.9-3.4c6.1-2.5,12.7-2.9,19-4.2c4.4-0.9,8.8-1.9,13-4c3.2-1.6,7-2.7,10.8-0.4c1.9,1.1,4.3,1.4,6.6,1.9
				c1,0.2,1.7,0.6,1.9,1.7c0.1,1.1,0.9,1.6,1.7,2c1.1,0.6,2.1,1.1,2.7,2.2c0.4,0.7,1.2,1,1.9,1c2.9,0,5.9,0.3,8.9-0.4
				c1.8-0.4,2.8,0.1,3.7,1.6c2.1,3.5,2.7,3.6,6.2,1.7c0.8-0.4,1.7-0.8,2.6-1.1c1.6-0.6,2.8,0,3.4,1.7c0.6,1.7,1.1,3.4,1.5,5.1
				c0.4,2,1.7,3.2,3.4,4.1c7.2,3.7,14.7,5.9,23,5.4c1.7-0.1,2.2,0.6,2.2,2.2c-0.1,3.4-0.1,6.6,1,10c0.9,2.6-0.7,5.4-2.9,7.5
				c-1.2,1.2-2.4,2.3-3.2,3.9c-1.1-0.1-1.9-0.6-2.6-1.2c-2.2-1.8-4.4-2.3-7-1c-0.6,0.3-1.3,0.3-2,0.3c-4.2,0.1-5.2,0.8-6.8,4.7
				c-0.1,0.2-0.2,0.5-0.2,0.7c-1.2,3.6-2.1,7.4-7.2,7.5c2.5,3.6,0.2,6.5-0.6,9.4c-0.4,1.6-0.7,3.1-0.4,4.7c0.6,3,0.4,6-0.1,9
				c-0.4,1.9,0.2,3.9,0.3,5.8c0,2.7-0.6,3.2-3.4,3c-0.4-0.1-0.8-0.1-1.2-0.2c-3.3-0.3-3.7,0.1-3.7,3.4c-2.7,0.8-5.6,1.7-3.6,5.6
				c-2.1,1.1-4.2-0.2-5.9,1.1c-1.6,1.2-0.7,3.9-3.1,4.9c0.9,0.8,1.6,1.4,2.4,2.1c1.7-1.8,3.9-0.5,5.9-1.1c0.5,1.1,0.7,2.4,2.5,2.2
				c1.2-0.1,1.2,1.3,1.2,2.3c0,1.6-0.1,3,2.2,3.1c1.2,0.1,1.2,1.5,0.7,2.2c-1.6,1.9-0.6,3.3,0.7,4.4c2.9,2.7,4.7,6.6,8,9
				c1.5,1.1,2.2,3.2,2.7,5.1c0.3,1.4-0.1,2.4-1.8,2.1c-1.5-0.2-3,0.1-4.5-0.4c-2.8-1.1-3.4-0.6-3.7,2.8c-4.6-2.4-8.7-2.2-12.2,2.4
				c-2.7-3.4-7.5-4.5-9.5-8.8c-0.7-1.5-1.9-2.6-3.6-3.1c-1.1-0.4-2.2-0.6-3,0.5c-1.4,2.1-3.2,1.6-4.9,0.7s-2.9-0.5-4.1,1.1
				c-2.7,3.4-6.1,4.9-10.7,5.2c-2.5,0.2-5.1,0.2-7.6,0.5c-1.7,0.1-2.9,1.4-2.9,3.5c0.1,4.9-1.2,6-6,6c-4,0-5.1,1.3-5.1,6
				c-0.9,0.8-1.7,0.4-2.6,0c-0.9-0.5-1.4-2.1-2.7-1.6c-2.2,0.8-4.7,0.6-6.6,2.3c-1.2,1.2-1.1,3.1,0.6,4.4c2.3,1.7,4.1,6.2,3.6,9.2
				c-0.1,0.4-0.1,0.9,0,1.2c1,4-0.6,6.7-4.6,7.7c-2.5,0.6-4.5,2.4-7.2,2.4c-0.6,0-1.5,0.5-1.9,0c-2.4-2.8-4.7-0.6-7.1,0
				c-0.5,0.1-1,0.7-1.4,0.6c-6.7-2.1-11.9,2.6-18,3.6c-2.2,0.4-3.8,0.1-5.1-1.7c-1.5-2.2-3.7-3.4-6.1-4.2c-2.4-0.9-4.7-1.9-7-3
				c-2.8-1.3-3.7-1.1-5.4,1.6c-0.8,1.2-1.7,0.7-2.2-0.1c-1.6-2.4-4-3.4-6.7-4.2c-2.1-0.6-2.7-2.9-3.2-4.8c-0.9-3.5-1.3-3.7-4.6-1.9
				c-2.1,1.1-4.4,0.9-6.7,1c-0.2,0-0.6-0.2-0.8-0.5C122.5,256,122.3,256,119.6,259.1z"/>
		</defs>
		<clipPath id="SVGID_2_">
			<use xlink:href="#SVGID_1_"  style="overflow:visible;"/>
		</clipPath>
		<rect x="30.2" y="50.7" class="st0" width="303.8" height="78.9"/>
	</g>
	<g>
		<defs>
			<path id="SVGID_3_" d="M119.6,259.1c-1.1-0.3-2.1-0.6-3.1-0.8c-1.4-0.2-2.2,0.4-2.2,1.9c0,0.9,0.4,2.2-0.5,2.6
				c-1.5,0.6-3.4,1.4-4.7,0.9c-3.4-1.4-5.6,0.7-8.2,1.9c-0.7,0.3-1.2,0.9-2,0.8c-1.7-0.2-3.3,0.1-4.7,1.4c-1,0.9-2.2,0.4-3.4-0.2
				c-3-1.4-5.9-1.9-8.9,0.2c-0.8,0.6-1.6,0.6-2.6-0.1c-1.9-1.4-3.9-0.8-4.6,1.4c-0.6,2.2-2.2,2.9-4,2.7c-3.1-0.2-6.2-0.7-9.3-1.2
				c0.6-5.7,1-11,0-16.4c-0.2-1.2,0-2.4,1-3.2c1.1-1,1.7-2.3,2.1-3.7c0.5-1.6,0.4-3.1-1.6-3.7c-0.9-0.3-1.4-0.9-1.7-1.7
				c-1.2-3.6-3.3-6.9-3.5-10.8c-0.1-2.9-2-4.2-4.3-4.8c-3.9-0.9-7.5-2.5-10.2-5.3c-3.4-3.6-6.5-7.7-9.7-12.5
				c5.2,0.7,5.1-4.2,7.9-6.1c2.3-1.6,1.6-5.3-0.7-7c-2.4-1.8-3.5-3.9-2.4-6.9c0.6-1.8,0.1-3.9,1.4-5.6c0.6-0.7-0.1-1.4-0.5-2.1
				c-2-3.6-1.2-5.8,2.6-7.3c1.9-0.7,3.8-1.4,6.1-0.7c2.7,0.8,4.3-0.3,5.1-3.1c0.5-1.9,0.9-3.6,3.2-4.1c0.1,0,0.2-0.1,0.2-0.1
				c2.7-3.1,5.7-5.9,7.1-9.9c0.6-1.9,0.2-3-1.9-3.6c-2.7-0.8-4.2-3.1-5.2-5.5c-1.3-3.1-3.5-5-6.6-6.6c-5.1-2.5-9.8-5.6-9.7-12.4
				c0.1-2.1-0.2-4.3-2.6-5.4c-0.2-0.1-0.4-0.3-0.5-0.6c-1-3.8-3.6-7.2-2.2-11.5c0.7-2.4,1.1-4.9,1.4-7.4c0.2-1.9,1.1-3.1,2.9-3.2
				c1.4-0.1,2.6-0.5,3.2-2c0.1-0.1,0.2-0.4,0.3-0.4c3.7-0.6,3-3.6,3.2-5.9c0.1-1.3,0.6-2.4,1.4-3.5c1.7-2.1,2.7-2.3,4.9-0.8
				c1.7,1.2,3.5,2.4,5.2,3.6c2,1.4,4.1,2.7,6.6,3.1c1.4,0.2,2.6,1,2.6,2.7c0,1.6-0.7,2.7-2.2,3.3c-0.2,0.1-0.3,0.1-0.5,0.2
				c-4.6,1.6-5.6,2.8-5.9,7.7c-0.1,2.2,1,3.7,3.2,3.6c4.4-0.1,8.7-0.3,13-1.8c5.6-1.9,11.3-2.2,16.7,0.9c1.9,1.1,3.7,1.5,5.9,0.8
				c1.4-0.5,2.7-0.1,4.1,0.4c8.7,3,17.4,6.1,27,4.7c1-0.1,1.8-0.5,2.5-1.1c2.1-1.7,4.3-1.8,6.7-0.7c0.4,0.2,1,0.3,1.4,0.6
				c4.9,2.5,10.2,3.1,15.5,2.2c2.1-0.3,4.1,0,5.9,0.9c1.4,0.6,2.9,1.1,4.4,1.1c3.7,0,7.2,0.9,10.1,3.4c0.8,0.7,1.9,1.1,2.9,0.8
				c3.9-1.6,8.5-0.4,11.9-3.6c0.2-0.2,0.4-0.4,0.7-0.4c6.3-0.4,8.7-5.6,12.1-9.6c0.6-0.7,1.3-1.3,2.1-1.9c1.9-1.4,3.8-2.7,5-5
				c1-1.9,2.9-2.6,4.9-3.4c6.1-2.5,12.7-2.9,19-4.2c4.4-0.9,8.8-1.9,13-4c3.2-1.6,7-2.7,10.8-0.4c1.9,1.1,4.3,1.4,6.6,1.9
				c1,0.2,1.7,0.6,1.9,1.7c0.1,1.1,0.9,1.6,1.7,2c1.1,0.6,2.1,1.1,2.7,2.2c0.4,0.7,1.2,1,1.9,1c2.9,0,5.9,0.3,8.9-0.4
				c1.8-0.4,2.8,0.1,3.7,1.6c2.1,3.5,2.7,3.6,6.2,1.7c0.8-0.4,1.7-0.8,2.6-1.1c1.6-0.6,2.8,0,3.4,1.7c0.6,1.7,1.1,3.4,1.5,5.1
				c0.4,2,1.7,3.2,3.4,4.1c7.2,3.7,14.7,5.9,23,5.4c1.7-0.1,2.2,0.6,2.2,2.2c-0.1,3.4-0.1,6.6,1,10c0.9,2.6-0.7,5.4-2.9,7.5
				c-1.2,1.2-2.4,2.3-3.2,3.9c-1.1-0.1-1.9-0.6-2.6-1.2c-2.2-1.8-4.4-2.3-7-1c-0.6,0.3-1.3,0.3-2,0.3c-4.2,0.1-5.2,0.8-6.8,4.7
				c-0.1,0.2-0.2,0.5-0.2,0.7c-1.2,3.6-2.1,7.4-7.2,7.5c2.5,3.6,0.2,6.5-0.6,9.4c-0.4,1.6-0.7,3.1-0.4,4.7c0.6,3,0.4,6-0.1,9
				c-0.4,1.9,0.2,3.9,0.3,5.8c0,2.7-0.6,3.2-3.4,3c-0.4-0.1-0.8-0.1-1.2-0.2c-3.3-0.3-3.7,0.1-3.7,3.4c-2.7,0.8-5.6,1.7-3.6,5.6
				c-2.1,1.1-4.2-0.2-5.9,1.1c-1.6,1.2-0.7,3.9-3.1,4.9c0.9,0.8,1.6,1.4,2.4,2.1c1.7-1.8,3.9-0.5,5.9-1.1c0.5,1.1,0.7,2.4,2.5,2.2
				c1.2-0.1,1.2,1.3,1.2,2.3c0,1.6-0.1,3,2.2,3.1c1.2,0.1,1.2,1.5,0.7,2.2c-1.6,1.9-0.6,3.3,0.7,4.4c2.9,2.7,4.7,6.6,8,9
				c1.5,1.1,2.2,3.2,2.7,5.1c0.3,1.4-0.1,2.4-1.8,2.1c-1.5-0.2-3,0.1-4.5-0.4c-2.8-1.1-3.4-0.6-3.7,2.8c-4.6-2.4-8.7-2.2-12.2,2.4
				c-2.7-3.4-7.5-4.5-9.5-8.8c-0.7-1.5-1.9-2.6-3.6-3.1c-1.1-0.4-2.2-0.6-3,0.5c-1.4,2.1-3.2,1.6-4.9,0.7s-2.9-0.5-4.1,1.1
				c-2.7,3.4-6.1,4.9-10.7,5.2c-2.5,0.2-5.1,0.2-7.6,0.5c-1.7,0.1-2.9,1.4-2.9,3.5c0.1,4.9-1.2,6-6,6c-4,0-5.1,1.3-5.1,6
				c-0.9,0.8-1.7,0.4-2.6,0c-0.9-0.5-1.4-2.1-2.7-1.6c-2.2,0.8-4.7,0.6-6.6,2.3c-1.2,1.2-1.1,3.1,0.6,4.4c2.3,1.7,4.1,6.2,3.6,9.2
				c-0.1,0.4-0.1,0.9,0,1.2c1,4-0.6,6.7-4.6,7.7c-2.5,0.6-4.5,2.4-7.2,2.4c-0.6,0-1.5,0.5-1.9,0c-2.4-2.8-4.7-0.6-7.1,0
				c-0.5,0.1-1,0.7-1.4,0.6c-6.7-2.1-11.9,2.6-18,3.6c-2.2,0.4-3.8,0.1-5.1-1.7c-1.5-2.2-3.7-3.4-6.1-4.2c-2.4-0.9-4.7-1.9-7-3
				c-2.8-1.3-3.7-1.1-5.4,1.6c-0.8,1.2-1.7,0.7-2.2-0.1c-1.6-2.4-4-3.4-6.7-4.2c-2.1-0.6-2.7-2.9-3.2-4.8c-0.9-3.5-1.3-3.7-4.6-1.9
				c-2.1,1.1-4.4,0.9-6.7,1c-0.2,0-0.6-0.2-0.8-0.5C122.5,256,122.3,256,119.6,259.1z"/>
		</defs>
		<clipPath id="SVGID_4_">
			<use xlink:href="#SVGID_3_"  style="overflow:visible;"/>
		</clipPath>
		<rect x="30.2" y="129.6" class="st1" width="303.8" height="78.9"/>
	</g>
	<g>
		<defs>
			<path id="SVGID_5_" d="M119.6,259.1c-1.1-0.3-2.1-0.6-3.1-0.8c-1.4-0.2-2.2,0.4-2.2,1.9c0,0.9,0.4,2.2-0.5,2.6
				c-1.5,0.6-3.4,1.4-4.7,0.9c-3.4-1.4-5.6,0.7-8.2,1.9c-0.7,0.3-1.2,0.9-2,0.8c-1.7-0.2-3.3,0.1-4.7,1.4c-1,0.9-2.2,0.4-3.4-0.2
				c-3-1.4-5.9-1.9-8.9,0.2c-0.8,0.6-1.6,0.6-2.6-0.1c-1.9-1.4-3.9-0.8-4.6,1.4c-0.6,2.2-2.2,2.9-4,2.7c-3.1-0.2-6.2-0.7-9.3-1.2
				c0.6-5.7,1-11,0-16.4c-0.2-1.2,0-2.4,1-3.2c1.1-1,1.7-2.3,2.1-3.7c0.5-1.6,0.4-3.1-1.6-3.7c-0.9-0.3-1.4-0.9-1.7-1.7
				c-1.2-3.6-3.3-6.9-3.5-10.8c-0.1-2.9-2-4.2-4.3-4.8c-3.9-0.9-7.5-2.5-10.2-5.3c-3.4-3.6-6.5-7.7-9.7-12.5
				c5.2,0.7,5.1-4.2,7.9-6.1c2.3-1.6,1.6-5.3-0.7-7c-2.4-1.8-3.5-3.9-2.4-6.9c0.6-1.8,0.1-3.9,1.4-5.6c0.6-0.7-0.1-1.4-0.5-2.1
				c-2-3.6-1.2-5.8,2.6-7.3c1.9-0.7,3.8-1.4,6.1-0.7c2.7,0.8,4.3-0.3,5.1-3.1c0.5-1.9,0.9-3.6,3.2-4.1c0.1,0,0.2-0.1,0.2-0.1
				c2.7-3.1,5.7-5.9,7.1-9.9c0.6-1.9,0.2-3-1.9-3.6c-2.7-0.8-4.2-3.1-5.2-5.5c-1.3-3.1-3.5-5-6.6-6.6c-5.1-2.5-9.8-5.6-9.7-12.4
				c0.1-2.1-0.2-4.3-2.6-5.4c-0.2-0.1-0.4-0.3-0.5-0.6c-1-3.8-3.6-7.2-2.2-11.5c0.7-2.4,1.1-4.9,1.4-7.4c0.2-1.9,1.1-3.1,2.9-3.2
				c1.4-0.1,2.6-0.5,3.2-2c0.1-0.1,0.2-0.4,0.3-0.4c3.7-0.6,3-3.6,3.2-5.9c0.1-1.3,0.6-2.4,1.4-3.5c1.7-2.1,2.7-2.3,4.9-0.8
				c1.7,1.2,3.5,2.4,5.2,3.6c2,1.4,4.1,2.7,6.6,3.1c1.4,0.2,2.6,1,2.6,2.7c0,1.6-0.7,2.7-2.2,3.3c-0.2,0.1-0.3,0.1-0.5,0.2
				c-4.6,1.6-5.6,2.8-5.9,7.7c-0.1,2.2,1,3.7,3.2,3.6c4.4-0.1,8.7-0.3,13-1.8c5.6-1.9,11.3-2.2,16.7,0.9c1.9,1.1,3.7,1.5,5.9,0.8
				c1.4-0.5,2.7-0.1,4.1,0.4c8.7,3,17.4,6.1,27,4.7c1-0.1,1.8-0.5,2.5-1.1c2.1-1.7,4.3-1.8,6.7-0.7c0.4,0.2,1,0.3,1.4,0.6
				c4.9,2.5,10.2,3.1,15.5,2.2c2.1-0.3,4.1,0,5.9,0.9c1.4,0.6,2.9,1.1,4.4,1.1c3.7,0,7.2,0.9,10.1,3.4c0.8,0.7,1.9,1.1,2.9,0.8
				c3.9-1.6,8.5-0.4,11.9-3.6c0.2-0.2,0.4-0.4,0.7-0.4c6.3-0.4,8.7-5.6,12.1-9.6c0.6-0.7,1.3-1.3,2.1-1.9c1.9-1.4,3.8-2.7,5-5
				c1-1.9,2.9-2.6,4.9-3.4c6.1-2.5,12.7-2.9,19-4.2c4.4-0.9,8.8-1.9,13-4c3.2-1.6,7-2.7,10.8-0.4c1.9,1.1,4.3,1.4,6.6,1.9
				c1,0.2,1.7,0.6,1.9,1.7c0.1,1.1,0.9,1.6,1.7,2c1.1,0.6,2.1,1.1,2.7,2.2c0.4,0.7,1.2,1,1.9,1c2.9,0,5.9,0.3,8.9-0.4
				c1.8-0.4,2.8,0.1,3.7,1.6c2.1,3.5,2.7,3.6,6.2,1.7c0.8-0.4,1.7-0.8,2.6-1.1c1.6-0.6,2.8,0,3.4,1.7c0.6,1.7,1.1,3.4,1.5,5.1
				c0.4,2,1.7,3.2,3.4,4.1c7.2,3.7,14.7,5.9,23,5.4c1.7-0.1,2.2,0.6,2.2,2.2c-0.1,3.4-0.1,6.6,1,10c0.9,2.6-0.7,5.4-2.9,7.5
				c-1.2,1.2-2.4,2.3-3.2,3.9c-1.1-0.1-1.9-0.6-2.6-1.2c-2.2-1.8-4.4-2.3-7-1c-0.6,0.3-1.3,0.3-2,0.3c-4.2,0.1-5.2,0.8-6.8,4.7
				c-0.1,0.2-0.2,0.5-0.2,0.7c-1.2,3.6-2.1,7.4-7.2,7.5c2.5,3.6,0.2,6.5-0.6,9.4c-0.4,1.6-0.7,3.1-0.4,4.7c0.6,3,0.4,6-0.1,9
				c-0.4,1.9,0.2,3.9,0.3,5.8c0,2.7-0.6,3.2-3.4,3c-0.4-0.1-0.8-0.1-1.2-0.2c-3.3-0.3-3.7,0.1-3.7,3.4c-2.7,0.8-5.6,1.7-3.6,5.6
				c-2.1,1.1-4.2-0.2-5.9,1.1c-1.6,1.2-0.7,3.9-3.1,4.9c0.9,0.8,1.6,1.4,2.4,2.1c1.7-1.8,3.9-0.5,5.9-1.1c0.5,1.1,0.7,2.4,2.5,2.2
				c1.2-0.1,1.2,1.3,1.2,2.3c0,1.6-0.1,3,2.2,3.1c1.2,0.1,1.2,1.5,0.7,2.2c-1.6,1.9-0.6,3.3,0.7,4.4c2.9,2.7,4.7,6.6,8,9
				c1.5,1.1,2.2,3.2,2.7,5.1c0.3,1.4-0.1,2.4-1.8,2.1c-1.5-0.2-3,0.1-4.5-0.4c-2.8-1.1-3.4-0.6-3.7,2.8c-4.6-2.4-8.7-2.2-12.2,2.4
				c-2.7-3.4-7.5-4.5-9.5-8.8c-0.7-1.5-1.9-2.6-3.6-3.1c-1.1-0.4-2.2-0.6-3,0.5c-1.4,2.1-3.2,1.6-4.9,0.7s-2.9-0.5-4.1,1.1
				c-2.7,3.4-6.1,4.9-10.7,5.2c-2.5,0.2-5.1,0.2-7.6,0.5c-1.7,0.1-2.9,1.4-2.9,3.5c0.1,4.9-1.2,6-6,6c-4,0-5.1,1.3-5.1,6
				c-0.9,0.8-1.7,0.4-2.6,0c-0.9-0.5-1.4-2.1-2.7-1.6c-2.2,0.8-4.7,0.6-6.6,2.3c-1.2,1.2-1.1,3.1,0.6,4.4c2.3,1.7,4.1,6.2,3.6,9.2
				c-0.1,0.4-0.1,0.9,0,1.2c1,4-0.6,6.7-4.6,7.7c-2.5,0.6-4.5,2.4-7.2,2.4c-0.6,0-1.5,0.5-1.9,0c-2.4-2.8-4.7-0.6-7.1,0
				c-0.5,0.1-1,0.7-1.4,0.6c-6.7-2.1-11.9,2.6-18,3.6c-2.2,0.4-3.8,0.1-5.1-1.7c-1.5-2.2-3.7-3.4-6.1-4.2c-2.4-0.9-4.7-1.9-7-3
				c-2.8-1.3-3.7-1.1-5.4,1.6c-0.8,1.2-1.7,0.7-2.2-0.1c-1.6-2.4-4-3.4-6.7-4.2c-2.1-0.6-2.7-2.9-3.2-4.8c-0.9-3.5-1.3-3.7-4.6-1.9
				c-2.1,1.1-4.4,0.9-6.7,1c-0.2,0-0.6-0.2-0.8-0.5C122.5,256,122.3,256,119.6,259.1z"/>
		</defs>
		<clipPath id="SVGID_6_">
			<use xlink:href="#SVGID_5_"  style="overflow:visible;"/>
		</clipPath>
		<rect x="30.2" y="207" class="st2" width="295.1" height="78.9"/>
	</g>
</g>
<g>
	<g>
		<path d="M49.9,85.7c0.7,0,1.4,0.3,2.3,0.9c1.7,1.2,3.5,2.4,5.2,3.6c2,1.4,4.1,2.7,6.6,3.1c1.4,0.2,2.6,1,2.6,2.7
			c0,1.6-0.7,2.7-2.2,3.3c-0.2,0.1-0.3,0.1-0.5,0.2c-4.6,1.6-5.6,2.8-5.9,7.7c-0.1,2.2,1,3.6,3.2,3.6h0.1c4.4-0.1,8.7-0.3,13-1.8
			c2.6-0.9,5.3-1.4,7.9-1.4c3,0,5.9,0.7,8.7,2.4c1.2,0.7,2.5,1.1,3.8,1.1c0.7,0,1.3-0.1,2-0.3c0.4-0.1,0.9-0.2,1.3-0.2
			c0.9,0,1.9,0.3,2.9,0.6c7.2,2.5,14.4,5.1,22.1,5.1c1.6,0,3.2-0.1,4.8-0.4c1-0.1,1.8-0.5,2.5-1.1c1.2-1,2.4-1.4,3.7-1.4
			c0.9,0,1.9,0.2,2.9,0.7c0.4,0.2,1,0.3,1.4,0.6c3.6,1.8,7.2,2.6,11,2.6c1.5,0,3-0.1,4.6-0.4c0.5-0.1,1.1-0.1,1.6-0.1
			c1.5,0,2.9,0.3,4.4,1c1.4,0.6,2.9,1.1,4.4,1.1c3.7,0,7.2,0.9,10.1,3.4c0.6,0.5,1.4,0.9,2.2,0.9c0.2,0,0.5-0.1,0.7-0.1
			c3.9-1.6,8.5-0.4,11.9-3.6c0.2-0.2,0.4-0.4,0.7-0.4c6.3-0.4,8.7-5.6,12.1-9.6c0.6-0.7,1.3-1.3,2.1-1.9c1.9-1.4,3.8-2.7,5-5
			c1-1.9,2.9-2.6,4.9-3.4c6.1-2.5,12.7-2.9,19-4.2c4.4-0.9,8.8-1.9,13-4c1.9-0.9,4-1.7,6.2-1.7c1.5,0,3.1,0.4,4.6,1.3
			c1.9,1.1,4.3,1.4,6.6,1.9c1,0.2,1.7,0.6,1.9,1.7c0.1,1.1,0.9,1.6,1.7,2c1.1,0.6,2.1,1.1,2.7,2.2c0.4,0.7,1.2,1,1.9,1
			c1.4,0,2.7,0.1,4.2,0.1c1.6,0,3.2-0.1,4.7-0.5c0.4-0.1,0.8-0.1,1.1-0.1c1.1,0,1.9,0.6,2.6,1.8c1.2,2.1,1.9,2.9,3.1,2.9
			c0.8,0,1.7-0.4,3.2-1.2c0.8-0.4,1.7-0.8,2.6-1.1c0.4-0.1,0.8-0.2,1.1-0.2c1.1,0,1.8,0.6,2.2,1.9c0.6,1.7,1.1,3.4,1.5,5.1
			c0.4,2,1.7,3.2,3.4,4.1c6.4,3.4,13.1,5.4,20.3,5.4c0.9,0,1.7-0.1,2.7-0.1c0.1,0,0.2,0,0.3,0c1.4,0,1.9,0.7,1.9,2.2
			c-0.1,3.4-0.1,6.6,1,10c0.9,2.6-0.7,5.4-2.9,7.5c-1.2,1.2-2.4,2.3-3.2,3.9c-1.1-0.1-1.9-0.6-2.6-1.2c-1.3-1.1-2.7-1.7-4.2-1.7
			c-0.9,0-1.9,0.2-2.9,0.7c-0.6,0.3-1.3,0.3-2,0.3c-4.2,0.1-5.2,0.8-6.8,4.7c-0.1,0.2-0.2,0.5-0.2,0.7c-1.2,3.6-2.1,7.4-7.2,7.5
			c2.5,3.6,0.2,6.5-0.6,9.4c-0.4,1.6-0.7,3.1-0.4,4.7c0.6,3,0.4,6-0.1,9c-0.4,1.9,0.2,3.9,0.3,5.8c0,2.3-0.4,3.1-2.2,3.1
			c-0.3,0-0.7,0-1.1-0.1c-0.4-0.1-0.8-0.1-1.2-0.2c-0.6-0.1-1.1-0.1-1.4-0.1c-2,0-2.2,0.7-2.2,3.5c-2.7,0.8-5.6,1.7-3.6,5.6
			c-0.8,0.4-1.6,0.4-2.4,0.4c-0.4,0-0.7,0-1,0c-0.9,0-1.7,0.1-2.4,0.7c-1.6,1.2-0.7,3.9-3.1,4.9c0.9,0.8,1.6,1.4,2.4,2.1
			c0.8-0.8,1.7-1,2.6-1c0.7,0,1.4,0.1,2.1,0.1c0.4,0,0.9-0.1,1.2-0.1c0.5,1.1,0.7,2.2,2.2,2.2c0.1,0,0.2,0,0.3,0c0.1,0,0.1,0,0.1,0
			c1.1,0,1.1,1.4,1.1,2.3c0,1.6-0.1,3,2.2,3.1c1.2,0.1,1.2,1.5,0.7,2.2c-1.6,1.9-0.6,3.3,0.7,4.4c2.9,2.7,4.7,6.6,8,9
			c1.5,1.1,2.2,3.2,2.7,5.1c0.3,1.2,0,2.2-1.2,2.2c-0.2,0-0.4,0-0.6-0.1c-1.5-0.2-3,0.1-4.5-0.4c-0.8-0.3-1.5-0.5-2-0.5
			c-1.1,0-1.5,0.9-1.7,3.3c-1.9-0.9-3.6-1.5-5.3-1.5c-2.5,0-4.8,1.2-6.9,4c-2.7-3.4-7.5-4.5-9.5-8.8c-0.7-1.5-1.9-2.6-3.6-3.1
			c-0.5-0.2-0.9-0.3-1.4-0.3c-0.6,0-1.2,0.2-1.6,0.8c-0.7,1.1-1.6,1.4-2.4,1.4c-0.8,0-1.6-0.3-2.5-0.7c-0.6-0.3-1.2-0.4-1.7-0.4
			c-0.9,0-1.6,0.5-2.4,1.5c-2.7,3.4-6.1,4.9-10.7,5.2c-2.5,0.2-5.1,0.2-7.6,0.5c-1.7,0.1-2.9,1.4-2.9,3.5c0.1,4.8-1.1,6-5.8,6
			c-0.1,0-0.1,0-0.2,0s-0.1,0-0.1,0c-3.9,0-5,1.4-5,6c-0.4,0.4-0.7,0.5-1.1,0.5c-0.5,0-1-0.2-1.4-0.5c-0.8-0.4-1.2-1.6-2.2-1.6
			c-0.1,0-0.3,0-0.5,0.1c-2.2,0.8-4.7,0.6-6.6,2.3c-1.2,1.2-1.1,3.1,0.6,4.4c2.3,1.7,4.1,6.2,3.6,9.2c-0.1,0.4-0.1,0.9,0,1.2
			c1,4-0.6,6.7-4.6,7.7c-2.5,0.6-4.5,2.4-7.2,2.4c-0.4,0-0.9,0.2-1.4,0.2c-0.2,0-0.4-0.1-0.6-0.2c-0.9-1-1.7-1.4-2.6-1.4
			c-1.5,0-3,1-4.5,1.4c-0.4,0.1-0.9,0.6-1.2,0.6c-0.1,0-0.1,0-0.1,0c-1.2-0.4-2.3-0.5-3.4-0.5c-5.1,0-9.6,3.3-14.5,4.2
			c-0.6,0.1-1.1,0.1-1.6,0.1c-1.4,0-2.6-0.5-3.6-1.9c-1.5-2.2-3.7-3.4-6.1-4.2c-2.4-0.9-4.7-1.9-7-3c-1.1-0.5-1.9-0.7-2.6-0.7
			c-1.1,0-1.8,0.7-2.9,2.3c-0.3,0.6-0.7,0.7-1.1,0.7c-0.5,0-0.9-0.4-1.2-0.8c-1.6-2.4-4-3.4-6.7-4.2c-2.1-0.6-2.7-2.9-3.2-4.8
			c-0.6-2.1-0.9-3-1.8-3c-0.6,0-1.4,0.4-2.7,1.1c-2.1,1.1-4.4,0.9-6.7,1l0,0c-0.2,0-0.6-0.2-0.8-0.5c-1.2-1.3-1.9-1.9-2.6-1.9
			c-0.7,0-1.5,0.8-2.9,2.4c-1.1-0.3-2.1-0.6-3.1-0.8c-0.2-0.1-0.4-0.1-0.6-0.1c-1.1,0-1.7,0.6-1.7,2c0,0.9,0.4,2.2-0.5,2.6
			c-1.2,0.5-2.6,1.1-3.8,1.1c-0.3,0-0.6-0.1-0.9-0.1c-0.7-0.3-1.5-0.4-2.2-0.4c-2.2,0-4.1,1.4-6,2.4c-0.6,0.3-1.1,0.8-1.9,0.8
			c-0.1,0-0.1,0-0.2,0c-0.3-0.1-0.6-0.1-0.9-0.1c-1.4,0-2.6,0.4-3.8,1.4c-0.4,0.3-0.8,0.5-1.2,0.5c-0.7,0-1.4-0.3-2.1-0.6
			c-1.6-0.7-3.1-1.2-4.6-1.2c-1.4,0-2.9,0.4-4.3,1.4c-0.4,0.2-0.7,0.4-1.1,0.4c-0.4,0-0.9-0.2-1.4-0.6c-0.7-0.5-1.4-0.7-2.1-0.7
			c-1.1,0-2.1,0.7-2.5,2.1c-0.6,2.1-1.9,2.8-3.6,2.8c-0.1,0-0.2,0-0.4,0c-3.1-0.2-6.2-0.7-9.3-1.2c0.6-5.7,1-11,0-16.4
			c-0.2-1.2,0-2.4,1-3.2c1.1-1,1.7-2.3,2.1-3.7c0.5-1.6,0.4-3.1-1.6-3.7c-0.9-0.3-1.4-0.9-1.7-1.7c-1.2-3.6-3.3-6.9-3.5-10.8
			c-0.1-2.9-2-4.2-4.3-4.8c-3.9-0.9-7.5-2.5-10.2-5.3c-3.4-3.6-6.5-7.7-9.7-12.5c0.4,0.1,0.7,0.1,1,0.1c4.2,0,4.3-4.4,6.9-6.2
			c2.3-1.6,1.6-5.3-0.7-7c-2.4-1.8-3.5-3.9-2.4-6.9c0.6-1.8,0.1-3.9,1.4-5.6c0.6-0.7-0.1-1.4-0.5-2.1c-2-3.6-1.2-5.8,2.6-7.3
			c1.4-0.6,2.7-1.1,4.2-1.1c0.6,0,1.2,0.1,1.9,0.2s1.1,0.2,1.6,0.2c1.7,0,2.8-1.2,3.4-3.4c0.5-1.9,0.9-3.6,3.2-4.1
			c0.1,0,0.2-0.1,0.2-0.1c2.7-3.1,5.7-5.9,7.1-9.9c0.6-1.9,0.2-3-1.9-3.6c-2.7-0.8-4.2-3.1-5.2-5.5c-1.3-3.1-3.5-5-6.6-6.6
			c-5.1-2.5-9.8-5.6-9.7-12.4c0.1-2.1-0.2-4.3-2.6-5.4c-0.2-0.1-0.4-0.3-0.5-0.6c-1-3.8-3.6-7.2-2.2-11.5c0.6-2.7,1-5.2,1.2-7.7
			c0.2-1.9,1.1-3.1,2.9-3.2c1.4-0.1,2.6-0.5,3.2-2c0.1-0.1,0.2-0.4,0.3-0.4c3.7-0.6,3-3.6,3.2-5.9c0.1-1.3,0.6-2.4,1.4-3.5
			C48.3,86.3,49,85.7,49.9,85.7 M49.9,84.4c-1.6,0-2.6,1.1-3.6,2.2c-0.9,1.2-1.5,2.6-1.6,4.1c-0.1,0.5-0.1,0.9-0.1,1.4
			c-0.1,2.4-0.2,3.2-2.1,3.4c-0.8,0.1-1.2,0.9-1.3,1.1c-0.2,0.7-0.7,1.1-2.2,1.2c-2.4,0.2-3.7,1.7-4.1,4.3c-0.3,2.9-0.7,5.2-1.4,7.2
			c-1.1,3.5,0.1,6.5,1.2,9.1c0.4,1.1,0.8,2.1,1.1,3.1c0.1,0.6,0.6,1.1,1.2,1.4c1.4,0.6,1.9,1.8,1.8,4.2c-0.2,7.4,4.9,10.9,10.4,13.6
			c3.1,1.5,4.9,3.2,6,5.9c0.9,2.2,2.6,5.2,6.1,6.2c0.6,0.2,1.1,0.4,1.2,0.7c0.1,0.2,0.1,0.7-0.1,1.4c-1.1,3.2-3.3,5.6-5.7,8.2
			c-0.4,0.4-0.7,0.7-1.1,1.1c-2.7,0.7-3.3,3.1-3.9,4.9v0.1c-0.6,2.2-1.4,2.4-2.2,2.4c-0.4,0-0.8-0.1-1.2-0.2
			c-0.7-0.2-1.5-0.3-2.2-0.3c-1.7,0-3.2,0.6-4.7,1.1c-2.2,0.9-3.6,2.1-4.1,3.6c-0.6,1.6-0.2,3.4,0.9,5.6c0.1,0.2,0.2,0.4,0.3,0.5
			c0.1,0.1,0.1,0.2,0.2,0.3c-0.9,1.3-1.1,2.7-1.2,3.9c-0.1,0.7-0.1,1.3-0.3,1.9c-1.5,4.4,0.9,6.9,2.9,8.4c1,0.7,1.7,2.1,1.7,3.3
			c0,0.6-0.2,1.2-0.9,1.7c-1.2,0.8-1.9,2.1-2.6,3.2c-1.1,1.8-1.7,2.8-3.6,2.8c-0.2,0-0.5,0-0.8-0.1l-2.7-0.4l1.5,2.3
			c3.7,5.6,6.7,9.4,9.9,12.7c2.6,2.7,6.2,4.6,10.9,5.6c2.2,0.5,3.2,1.6,3.4,3.6c0.1,2.9,1.2,5.4,2.2,7.9c0.5,1.1,0.9,2.2,1.3,3.3
			c0.6,1.6,1.7,2.2,2.6,2.6c0.4,0.1,0.7,0.3,0.8,0.5c0.2,0.3,0.1,0.9-0.1,1.6c-0.4,1.4-1,2.4-1.8,3.2c-1.2,1.1-1.7,2.6-1.4,4.4
			c0.9,5.2,0.5,10.6,0,16.1l-0.1,1.2l1.2,0.2c0.9,0.1,1.9,0.2,2.7,0.4c2.2,0.3,4.4,0.7,6.6,0.8c0.2,0,0.3,0,0.5,0
			c2.4,0,4.1-1.3,4.8-3.7c0.1-0.4,0.4-1.2,1.3-1.2c0.4,0,0.9,0.2,1.3,0.5c0.7,0.5,1.4,0.8,2.1,0.8c0.6,0,1.2-0.2,1.9-0.6
			c1.1-0.8,2.3-1.2,3.6-1.2c1.2,0,2.6,0.4,4.1,1.1c0.8,0.4,1.7,0.7,2.6,0.7c0.8,0,1.5-0.2,2.1-0.7c0.9-0.7,1.8-1.1,3-1.1
			c0.2,0,0.5,0,0.7,0.1c0.1,0,0.2,0,0.3,0c0.9,0,1.5-0.4,1.9-0.7c0.2-0.1,0.3-0.2,0.4-0.2c0.6-0.2,1.1-0.6,1.6-0.9
			c1.3-0.7,2.5-1.4,3.9-1.4c0.6,0,1.1,0.1,1.7,0.4c0.4,0.2,0.9,0.2,1.4,0.2c1.4,0,2.9-0.6,4.1-1.1l0.2-0.1c1.6-0.6,1.4-2.4,1.3-3.2
			c0-0.2-0.1-0.4-0.1-0.6c0-0.4,0.1-0.7,0.1-0.7c0,0,0.1-0.1,0.3-0.1c0.1,0,0.2,0,0.4,0.1c0.6,0.1,1.2,0.2,1.9,0.5
			c0.4,0.1,0.7,0.2,1.1,0.3l0.7,0.2l0.5-0.6c0.6-0.7,1.6-1.8,1.9-2c0.3,0.1,1.2,1,1.7,1.6c0.6,0.6,1.1,0.9,1.7,0.9l0,0h0.1
			c0.4,0,0.7,0,1.1,0c2.1,0,4.1-0.1,6.1-1.1c0.4-0.2,1.6-0.9,2.1-1c0.2,0.4,0.6,1.6,0.7,2.1l0.1,0.1c0.6,2,1.3,4.8,4.1,5.6
			c2.7,0.7,4.7,1.6,6,3.6c0.6,0.9,1.4,1.4,2.2,1.4c0.5,0,1.4-0.2,2.1-1.3c1-1.6,1.4-1.7,1.8-1.7c0.4,0,1.1,0.2,2.1,0.6
			c2.4,1.1,4.7,2.1,7.1,3c1.9,0.7,4.1,1.7,5.5,3.7c1.1,1.7,2.6,2.4,4.6,2.4c0.5,0,1.1-0.1,1.7-0.2c2.2-0.4,4.3-1.2,6.4-2.1
			c2.7-1.1,5.2-2.1,8-2.1c1.1,0,2.1,0.1,3.1,0.4c0.1,0.1,0.3,0.1,0.4,0.1c0.6,0,0.9-0.2,1.3-0.5c0.1-0.1,0.2-0.1,0.3-0.2
			c0.6-0.1,1.3-0.4,1.9-0.7c0.8-0.3,1.6-0.6,2.2-0.6c0.4,0,1,0.1,1.7,0.9c0.2,0.3,0.7,0.7,1.5,0.7c0.4,0,0.7-0.1,1-0.1
			c0.1-0.1,0.3-0.1,0.4-0.1c1.8-0.1,3.3-0.7,4.7-1.4c0.9-0.4,1.7-0.8,2.7-1.1c2.2-0.5,3.9-1.6,4.9-3.2c1-1.6,1.2-3.7,0.6-6
			c-0.1-0.2,0-0.6,0.1-0.7c0.6-3.4-1.4-8.4-4.1-10.4c-0.6-0.4-0.9-0.9-0.9-1.4c0-0.4,0.1-0.7,0.4-1c0.9-0.9,2.2-1.1,3.6-1.4
			c0.9-0.2,1.7-0.3,2.6-0.7l0,0c0.1,0.1,0.3,0.3,0.4,0.4c0.3,0.3,0.7,0.7,1.2,1.1c0.6,0.3,1.2,0.6,2.1,0.6c0.7,0,1.4-0.2,1.9-0.8
			l0.4-0.4v-0.6c0-2.1,0.2-3.3,0.7-3.9c0.3-0.4,0.9-0.8,3-0.8h0.1h0.2c2.1,0,4.2-0.2,5.6-1.6c1.4-1.4,1.5-3.6,1.5-5.7
			c0-1.4,0.6-2.1,1.7-2.2c1.6-0.1,3.2-0.2,4.7-0.3c0.9-0.1,1.9-0.1,2.9-0.2c5.2-0.4,8.9-2.1,11.6-5.7c0.7-0.9,1.1-1,1.4-1
			s0.7,0.1,1.1,0.3c0.9,0.4,1.9,0.8,3,0.8c1.4,0,2.6-0.7,3.5-2c0.1-0.2,0.3-0.3,0.6-0.3s0.6,0.1,1,0.2c1.4,0.5,2.3,1.4,2.9,2.5
			c1.3,2.8,3.6,4.3,5.7,5.8c1.5,1,2.9,1.9,3.9,3.2l1,1.2l0.9-1.3c1.7-2.3,3.6-3.5,5.9-3.5c1.4,0,3,0.4,4.7,1.4l1.6,0.9l0.2-1.9
			c0.1-1.6,0.3-2.1,0.4-2.2c0,0,0,0,0.1,0c0.3,0,0.8,0.1,1.6,0.4c1.1,0.4,2.2,0.4,3.1,0.4c0.6,0,1.1,0,1.6,0.1
			c0.2,0.1,0.6,0.1,0.7,0.1c1.1,0,1.7-0.5,2.1-0.9c0.4-0.5,0.7-1.4,0.4-2.8c-0.5-2.1-1.3-4.4-3.1-5.8c-1.7-1.3-3-3-4.4-4.8
			c-1.1-1.4-2.2-2.9-3.6-4.2s-1.2-1.9-0.6-2.7c0.7-0.8,0.8-2,0.4-2.9c-0.4-0.8-1.1-1.3-2-1.3c-1-0.1-1.1-0.1-1.1-1.8V204
			c0-0.8,0-2.1-0.8-2.9c-0.4-0.4-0.9-0.6-1.6-0.6c-0.1,0-0.2,0-0.2,0c-0.1,0-0.1,0-0.2,0c-0.4,0-0.4,0-0.8-1
			c-0.1-0.2-0.1-0.4-0.2-0.6l-0.4-1l-1.1,0.3c-0.2,0.1-0.6,0.1-0.9,0.1c-0.3,0-0.6,0-0.9-0.1c-0.4,0-0.7-0.1-1.1-0.1
			c-0.7,0-1.6,0.1-2.6,0.6l-0.4-0.4c0.7-0.7,0.9-1.7,1.1-2.4c0.2-0.7,0.4-1.2,0.7-1.6c0.4-0.3,0.9-0.4,1.7-0.4c0.2,0,0.3,0,0.5,0
			c0.2,0,0.4,0,0.6,0c0.9,0,1.9-0.1,2.9-0.6l1.1-0.6l-0.6-1.1c-0.4-0.7-0.7-1.6-0.4-2.2c0.3-0.8,2-1.3,3.3-1.7l0.9-0.2v-0.9
			c-0.1-1.6,0.1-2,0.2-2.1l0,0c0,0,0.2-0.1,0.8-0.1c0.3,0,0.7,0,1.4,0.1c0.2,0,0.4,0.1,0.6,0.1c0.2,0.1,0.4,0.1,0.7,0.1
			c0.5,0.1,0.9,0.1,1.2,0.1c0.7,0,1.8-0.1,2.6-0.9c0.8-0.8,0.9-1.9,0.9-3.4c0-0.8-0.1-1.6-0.2-2.4c-0.1-1.1-0.2-2.2-0.1-3.1
			c0.6-3.4,0.7-6.6,0.1-9.5c-0.2-1.3-0.1-2.5,0.4-4.1c0.2-0.6,0.4-1.2,0.6-1.8c0.7-1.9,1.7-4.3,0.7-6.9c4.1-1,5.3-4.5,6.2-7.4
			c0.1-0.2,0.2-0.5,0.2-0.7c0.1-0.2,0.2-0.4,0.2-0.7c1.4-3.5,1.9-3.9,5.6-3.9h0.1c0.7,0,1.6-0.1,2.4-0.4c0.8-0.4,1.6-0.6,2.3-0.6
			c1.1,0,2.2,0.5,3.4,1.4c0.7,0.6,1.8,1.4,3.3,1.4l0.8,0.1l0.4-0.7c0.7-1.4,1.8-2.4,2.9-3.5c2.9-2.7,4.1-6,3.2-8.7
			c-1.1-3.2-1-6.4-0.9-9.5c0-0.7-0.1-1.9-0.8-2.7c-0.6-0.6-1.3-0.8-2.3-0.8c-0.1,0-0.2,0-0.4,0c-0.9,0.1-1.7,0.1-2.6,0.1
			c-6.4,0-12.9-1.7-19.7-5.3c-1.7-0.9-2.5-1.8-2.8-3.2c-0.4-1.6-0.9-3.2-1.4-4.8l-0.1-0.4c-0.6-1.7-1.8-2.7-3.4-2.7
			c-0.5,0-1,0.1-1.6,0.2c-1,0.4-2,0.8-2.7,1.2c-1,0.5-2.1,1.1-2.6,1.1c-0.4,0-0.8-0.4-2-2.3c-0.6-1.1-1.6-2.4-3.7-2.4
			c-0.4,0-0.9,0.1-1.4,0.2c-1.2,0.3-2.6,0.4-4.4,0.4c-0.7,0-1.5,0-2.2-0.1c-0.6,0-1.2-0.1-1.9-0.1c-0.7,0-0.8-0.2-0.9-0.4
			c-0.8-1.3-2.1-2-3.2-2.6c-0.9-0.4-1.1-0.7-1.1-1c-0.2-2.2-2-2.6-2.8-2.9c-0.6-0.1-1.2-0.2-1.9-0.4c-1.6-0.3-3.1-0.6-4.4-1.4
			c-1.6-1-3.4-1.5-5.2-1.5c-2.7,0-5.2,1.1-6.8,1.9c-3.9,1.9-8,2.9-12.7,3.9c-1.9,0.4-3.9,0.7-5.8,1.1c-4.4,0.7-9,1.5-13.4,3.2
			c-1.9,0.7-4.2,1.7-5.5,4c-1,1.8-2.6,3-4.2,4.3l-0.4,0.2c-0.7,0.5-1.6,1.2-2.2,2.1c-0.7,0.9-1.4,1.7-2.1,2.6
			c-2.4,3.2-4.7,6.3-9.1,6.5c-0.6,0.1-1.1,0.4-1.4,0.7c-1.8,1.7-4.1,2-6.6,2.3c-1.6,0.2-3.3,0.4-4.9,1.1c-0.1,0-0.1,0.1-0.2,0.1
			c-0.4,0-0.9-0.2-1.4-0.6c-2.9-2.4-6.5-3.7-10.9-3.7c-1.2,0-2.5-0.3-3.9-0.9c-1.6-0.7-3.2-1.1-4.9-1.1c-0.6,0-1.2,0.1-1.7,0.1
			c-1.5,0.2-2.9,0.4-4.4,0.4c-3.7,0-7.2-0.8-10.5-2.5c-0.3-0.2-0.7-0.2-0.9-0.4c-0.2-0.1-0.4-0.1-0.5-0.2c-1.2-0.6-2.4-0.8-3.4-0.8
			c-1.6,0-3.1,0.6-4.5,1.7c-0.6,0.4-1.2,0.7-1.9,0.8c-1.5,0.2-3.1,0.3-4.7,0.3c-7.2,0-14.3-2.4-21.1-4.8l-0.6-0.2
			c-1-0.4-2.1-0.7-3.2-0.7c-0.6,0-1.1,0.1-1.7,0.2s-1.1,0.2-1.6,0.2c-1,0-2.1-0.3-3.2-0.9c-2.9-1.7-6.1-2.5-9.4-2.5
			c-2.6,0-5.4,0.5-8.3,1.6c-3.9,1.4-7.9,1.7-12.6,1.7h-0.1c-0.7,0-1.2-0.2-1.5-0.5c-0.4-0.5-0.5-1.2-0.4-1.8
			c0.3-4.4,0.9-5.2,5.1-6.6c0.1-0.1,0.2-0.1,0.4-0.1l0.1-0.1c2-0.7,3.1-2.3,3.1-4.5c0-2.1-1.4-3.6-3.6-3.9c-2.2-0.4-4.2-1.6-6.1-2.9
			c-1.9-1.4-3.8-2.6-5.3-3.6C51.7,84.8,50.8,84.4,49.9,84.4L49.9,84.4z"/>
	</g>
</g>
<path class="st3" d="M347.5,234.4c4.9,4.8,5,12.7,0.2,17.6l0,0l-0.2,0.2c-4.9,4.9-12.9,5-17.8,0.1s-5-12.9-0.1-17.8
	C334.5,229.5,342.5,229.5,347.5,234.4L347.5,234.4z M343.4,248.1c1.3-1.2,2-3,2-4.8c0.1-1.8-0.7-3.5-2-4.7c-1.3-1.3-3-2-4.9-1.9
	c-3.6-0.1-6.6,2.9-6.7,6.5v0.1c0,1.8,0.7,3.5,1.9,4.8c1.2,1.3,2.9,2,4.7,2C340.3,250.2,342.1,249.4,343.4,248.1z M372.2,236
	l-32.6,50.7c-0.5,1-1.6,1.7-2.8,1.6c-1.8-0.1-3.4-1.6-3.4-3.4c0.1-0.7,0.3-1.4,0.6-2l32.7-50.7c0.5-1,1.6-1.7,2.8-1.6
	c1,0,1.8,0.3,2.5,1c0.7,0.6,1,1.6,1,2.5C372.9,234.7,372.7,235.4,372.2,236L372.2,236z M358.7,284.6c-4.9-4.9-4.9-12.9,0-17.8
	l0.1-0.1c2.3-2.3,5.5-3.6,8.8-3.7c7-0.1,12.6,5.5,12.7,12.5c0.1,7-5.5,12.6-12.5,12.7C364.4,288.4,361.1,287,358.7,284.6z
	 M362.8,271c-2.7,2.5-2.7,6.7-0.2,9.4l0.1,0.1l0.1,0.1c2.6,2.6,6.8,2.7,9.4,0.1c1.4-1.3,2.1-3.1,2-5.1c-0.1-3.6-3-6.4-6.6-6.6
	C365.8,269,364.1,269.7,362.8,271L362.8,271z"/>
<g>
	
		<ellipse transform="matrix(0.6003 -0.7998 0.7998 0.6003 -115.8772 181.857)" class="st4" cx="124" cy="206.9" rx="28.1" ry="51.3"/>
	
		<ellipse transform="matrix(0.6165 -0.7874 0.7874 0.6165 -111.0959 178.1255)" class="st5" cx="127.3" cy="203.1" rx="24.9" ry="51.3"/>
	
		<ellipse transform="matrix(0.6165 -0.7874 0.7874 0.6165 -111.0959 178.1255)" class="st6" cx="127.3" cy="203.1" rx="19.9" ry="41"/>
	<path class="st4" d="M113.2,200.2c-0.6,2.6,2.6,6.7,6.7,9.4c2.6,1.6,5.3,2.2,6.9,1.6l0.9-0.3l1,1c1,1,2.3,2.1,3.7,2.8
		c4.2,2.6,8.1,2.5,8.5-0.1l0.1-0.9l4.4,2.8c0.9,0.6,1.8,0.6,1.9,0s-0.6-1.5-1.5-2.1l-4.4-2.8l0.7-3.5l4.4,2.8c0.9,0.6,1.8,0.6,1.8,0
		c-0.1-0.9-0.7-1.6-1.5-2.1l-4.4-2.8l0.6-2.8c0.1-0.6-0.6-1.5-1.5-2.1s-1.8-0.6-1.8,0l-0.6,2.8l-20.8-12.5l0.6-2.8
		c0.1-0.6-0.6-1.5-1.5-2.1s-1.8-0.6-1.8,0l-0.6,2.8l-4.4-2.8c-0.9-0.6-1.8-0.6-1.9,0s0.6,1.5,1.5,2.1l4.4,2.8l-0.7,3.7l-4.4-2.8
		c-0.9-0.6-1.8-0.6-1.8,0c0.1,0.9,0.7,1.6,1.5,2.1l4.4,2.8L113.2,200.2z M138.9,206.3l-1.2,6.4c-0.3,1.5-2.5,1.5-4.8,0.1
		c-2.5-1.3-4.2-4-4-5.4l1.2-6.4L138.9,206.3z M118.1,193.7l8.6,5.3l-1.5,8.4c-0.3,1.5-2.5,1.5-4.8,0.1s-4.2-3.8-4-5.4L118.1,193.7z"
		/>
</g>
<g>
	
		<ellipse transform="matrix(0.5509 -0.8346 0.8346 0.5509 115.2973 315.7933)" class="st7" cx="351.1" cy="50.8" rx="42.1" ry="20.4"/>
	
		<ellipse transform="matrix(0.5509 -0.8346 0.8346 0.5509 116.39 312.8864)" class="st8" cx="348.9" cy="48.3" rx="41.3" ry="18.9"/>
	
		<ellipse transform="matrix(0.5509 -0.8346 0.8346 0.5509 116.39 312.8864)" class="st9" cx="348.9" cy="48.3" rx="33.1" ry="15.2"/>
	<path class="st10" d="M353.4,42.1l5.8-7.1c-0.8-0.5-1.5-0.9-2.2-1.5c-0.4-0.3-0.8,0-1.2,0.7c-2,2.2-3.8,4.5-5.7,6.9
		c-1.2,1.5-2.1,2.1-3.1,2.1c-1.3,0.1-1.5,0.2-2.6,2.4l1.9-0.2c-2,2.5-4,4.6-5.8,7l7.9,5.2c0.2,0.1,0.4,0.1,0.7-0.3
		c0.9-1.1,1.9-2.1,3-3.3l-5.4-3.6c1.1-1.3,2.1-2.4,3.1-3.8c1.2-1.6,2.1-2.2,3.2-2.2c1.3,0,1.4-0.2,2.6-2.4L353.4,42.1z"/>
</g>
<g>
	<ellipse class="st11" cx="175.6" cy="50.8" rx="38.4" ry="44.1"/>
	<ellipse class="st12" cx="170.9" cy="49.4" rx="37" ry="42.7"/>
	<ellipse class="st11" cx="170.9" cy="49.4" rx="29.6" ry="34.3"/>
	<path class="st12" d="M177.4,29.6c4,0,7,3.3,7.2,8.1c0.2,4.4-2.7,8-6.2,8.5c-0.5,0.1-1.1,0.2-1.5,0.1c-1.6-0.2-3,1-3.2,2.6v0.5
		c0,1.9,1.2,3.3,2.9,3.2c3.6-0.2,6.6,2.4,7.4,6.4c0.8,3.1-0.2,6.2-2.4,8.4c-1.9,2.1-5,2.6-7.4,1.2c-2.7-1.3-4.1-3.8-4.4-7.2
		c-0.1-1.6,0.2-3.2,0.9-4.7c0.6-1.2,0.3-2.7-0.6-3.6c-0.8-0.9-2-1.1-3.1-0.5c-0.4,0.3-0.8,0.6-1.1,1.1c-1.9,3-4.4,4.2-7.4,3.5
		c-3.1-0.7-5-3.1-5.7-6.7c-1-5.1,3-10.2,7.5-9.8c2.9,0.2,5,1.9,6.3,5c0.4,1.3,1.8,2,3.1,1.7c0.1,0,0.1,0,0.2-0.1
		c0.2-0.1,0.2-0.1,0.4-0.2c1.5-0.9,2-2.8,1.2-4.4c-0.7-1.4-1.2-2.9-1.3-4.4C170.1,33.4,173.2,29.6,177.4,29.6z"/>
</g>
<g>
	<path class="st13" d="M371.9,149.1c1.9,0.5,3.9,1.1,5.7,1.9l0.4,0.1c0.2,0.2,0.5,0.4,0.8,0.5l0.2,0.1c0.4,0.8,1.6,1.2,2.4,1.9
		c0.5,0.4,0.4,0.9,1.2,1c0.5,1.1,1.5,2.3,2,3.6c-0.1,0.1,0,0.2,0.1,0.3h0.1c0.1,0.8,0.2,1.6,0.5,2.4c0,0-0.4,0.1-0.1,0.2
		c-0.1,2-0.6,4-1.4,5.9c-1,1.2-1.7,3.1-3,4.3c-9.8,12.7-43.3,19.2-51.8,4.3c0.1-0.2-0.3-0.2-0.3-0.5s0.2-0.4-0.1-0.5
		c-0.9-0.9-0.5-3.5-0.8-4.4c0.1-0.3,0.1-0.6,0-0.9c0.2-0.5,0.2-1.1,0.6-1.5c0.3-1.2,0.7-2.3,1.2-3.4c0.3-0.3,0.5-0.6,0.7-1
		c1.4-2,3-3.7,4.9-5.2c0.1-0.4,0.8-0.4,0.7-0.9c0.1,0.1,0.2,0,0.3-0.1v-0.1c2.1-1.4,4.7-2.9,7-4.3c0.2,0,0.5-0.1,0.6-0.3
		c3.9-1.5,8-2.8,12.1-3.7c0.5,0.1,1.1,0,1.5-0.3c1.2,0,2.4-0.1,3.6-0.4c0.2,0,0.4,0.2,0.5-0.1c1.1,0.3,2.5-0.1,3.7,0.1
		c0.3-0.3,0.7,0.2,1-0.2c0.2,0.1,0.2-0.1,0.4-0.1c0.1,0.5,0.5,0.2,0.8,0.2C368.7,148.9,370.2,148.5,371.9,149.1z M379,167.3
		c5.6-9.3-3.9-15.2-11.8-16.1c-20-2.1-39.9,12.3-33.6,22.9c3,5.9,11,6.8,17.1,7.1c10.6-0.7,22.1-4.3,28.2-13.5L379,167.3z"/>
	<path class="st14" d="M378.9,167.7c-6.1,9.3-17.7,12.8-28.2,13.5c-6-0.3-14.1-1.2-17.1-7.1c-0.5-3,0.1-6,1.7-8.6
		c5.1-6.8,12-9.3,19.1-11.5c3.5-0.2,7.4-1.3,11-0.6c7.5,0.1,17,5.2,13.6,13.8C378.8,167.2,378.5,167.6,378.9,167.7z M357,160.6
		C357.3,160.7,357.2,160.1,357,160.6c-4.3,0.2-8.5,0.7-12.9,1.1l5.4,6.7c0.4-1.6,0.6-3.4,0.9-4.9C352.7,162.6,354.8,161.7,357,160.6
		z M361.3,160c-3.1,0.9-6.3,2.7-9.5,3.9c-0.3,0.9-0.5,1.9-0.6,2.9c-0.3,1.2-0.5,2.4-0.7,3.6c0.2,0.2,0.4-0.1,0.6,0
		c6.3-0.3,12.9-0.5,19.3-1.1C367.5,166.3,364.6,162.6,361.3,160z"/>
	<path class="st14" d="M385.9,162.3l-0.1,0.2c0,1.2,0.2,2.4,0.6,3.6c-0.2,0.5,0.1,1.1-0.2,1.6c0.1,1.9-1,3.7-1.6,5.6
		c-1.5,2-3.1,4-4.9,5.8c-0.1,0-0.2,0-0.2,0.1v0.1c-1.2,0.6-2.4,2.1-3.8,2.7c-1.2,0.9-2.8,1.2-3.6,2.3c-0.1-0.1-0.2,0-0.3,0.1v0.1
		c-0.4-0.2-0.8,0-1,0.4c-0.1,0-0.2,0-0.3,0.2c-0.4-0.2-0.8,0-1,0.4c-0.1-0.1-0.2,0-0.3,0.2c-0.1-0.1-0.2,0-0.3,0.1v0.1
		c-0.3-0.1-0.5,0-0.7,0.2l0,0c-0.5-0.1-0.6,0-0.8,0.5c-3.2,0.7-6.6,1.9-10,2.5c-0.8,0.1-2.5-0.1-3.1,0.5c-1.5-0.3-3.4,0.3-5.1-0.1
		c-0.4,0.3-0.8-0.2-1.1,0.1c-4-0.5-8.1-1.1-11.6-3c-1.2-0.6-2.4-1.8-3.7-2.4c0-0.5-0.5-0.7-1-1.2c-1.5-2.1-2.4-4.6-2.6-7.2
		c9.4,15.6,43.1,7.4,51.7-4.5c1.3-1.1,2.1-2.9,3-4.3c0.8-1.9,1.3-3.9,1.4-5.9c0.5,0.3,0.3,0.9,0.4,1.3L385.9,162.3z"/>
	<path class="st15" d="M379,167.3c3.4-9-6.6-13.6-13.6-13.8c-3.6-0.7-7.4,0.4-11,0.6c-7.6,2.2-14.4,5.2-19.1,11.5
		c-1,1.8-1.7,3.8-2,5.8c-0.1,1,0.5,1.7,0.2,2.8c-2.5-3.9-0.6-8.5,2.1-11.9c7.9-9.1,21.7-12,31.5-11
		C377.9,152.6,383.7,159.8,379,167.3z"/>
	<path class="st15" d="M378.9,167.7c-0.1,0-0.2-0.2-0.2-0.3s0.2-0.2,0.3-0.2L378.9,167.7z"/>
	<path class="st13" d="M361.4,160c3.2,2.6,6,6.2,9.2,9.2c-6.2,0.6-12.9,0.8-19.3,1.1c2-1.7,5.4-3,7.9-4.3
		C359.9,164.1,360.6,162.1,361.4,160z"/>
	<path class="st16" d="M361.4,160c-0.7,2-1.5,3.9-2.2,6.1c-2.5,1.3-5.7,2.5-7.9,4.3c-0.2-0.1-0.4,0.3-0.6,0c0.2-1.2,0.4-2.4,0.7-3.6
		c0.1-1,0.3-2,0.6-2.9C355,162.8,358.3,160.9,361.4,160z"/>
	<path class="st13" d="M357,160.7l-6.6,2.8c-0.3,1.4-0.5,3.2-0.9,4.9l-5.4-6.7C348.5,161.4,352.7,160.8,357,160.7z"/>
</g>
</svg>
