<?xml version="1.0" encoding="utf-8"?>
<!-- Generator: Adobe Illustrator 24.3.0, SVG Export Plug-In . SVG Version: 6.00 Build 0)  -->
<svg version="1.1" id="Layer_1" xmlns="http://www.w3.org/2000/svg" xmlns:xlink="http://www.w3.org/1999/xlink" x="0px" y="0px"
	 viewBox="0 0 400 300" style="enable-background:new 0 0 400 300;" xml:space="preserve">
<style type="text/css">
	.st0{fill:none;}
	.st1{clip-path:url(#SVGID_2_);fill:#EE1C25;}
	.st2{clip-path:url(#SVGID_2_);fill:#0B4EA2;}
	.st3{clip-path:url(#SVGID_2_);fill:#FFFFFF;}
	.st4{clip-path:url(#SVGID_2_);}
	.st5{fill:#FFFFFF;}
	.st6{fill:#EE1C25;}
	.st7{fill:#0B4EA2;}
	.st8{fill:#C98017;}
	.st9{fill:#FBED60;}
	.st10{fill:#FABA31;}
	.st11{fill:#68C2EE;}
	.st12{fill:#0491BE;}
	.st13{fill:#68C2EF;}
	.st14{fill:#31798F;}
	.st15{fill:#C1BDBE;}
	.st16{fill:#6E6E6E;}
	.st17{fill:#6C6C6C;}
	.st18{fill:#BCBCBC;}
	.st19{fill:#E1E1E1;}
	.st20{fill:#0A0A09;}
	.st21{fill:#F3F2EF;}
</style>
<g>
	<rect y="-3.4" class="st0" width="400" height="300"/>
	<g>
		<defs>
			<path id="SVGID_1_" d="M281.5,70.4c0.3-1.4,0.1-2.8,1.4-3.8c1-0.7,1.7-1.5,3-1.2c1,0.2,1.7-0.3,2.1-1.2c0.4-0.9-0.5-1.3-0.9-1.8
				c-0.3-0.3-0.6-0.6-0.9-0.9c-0.3-0.3-0.7-0.7-0.5-1.2c0.2-0.6,0.7-0.6,1.2-0.5c1.2,0.1,2.2-0.2,3-1.3c1,0.8,1.8,1.5,2.6,2.1
				c1.8,1.4,3.1,1,3.8-1.1c0.7-2.2,2.7-3.2,4.9-2.6c2.1,0.6,4.6,0.7,6.3,2c1.3,1,2.6,1.6,3.8,1.1c1.4-0.6,3.2,0.2,4.2-1.4
				c0.3-0.5,1.5-0.7,2-0.5c1.5,0.5,2.8,0.2,3.9-0.8c0.8,0.6,1,1.4,1.4,2.1c0.4,0.8,1,1.2,2,1c2-0.4,4.5,1.4,4.9,3.6
				c0.2,1,0.3,2.1,1.7,2.1c0.9-0.8,0.5-2.6,2-3c0.4-0.1,1.1-0.7,1.2-0.3c0.5,2,2.8,1.4,3.7,2.8c0.5,0.9,1.6,0.8,2.6,1
				c1.4,0.2,2.4,0.8,2.6,2.4c0.2,1.5,1,2.8,2.2,3.8c1.2,1,1.7,2.3,1.1,3.8c-0.4,1,0,1.6,0.8,2.2c1.4,0.9,2.7,1.7,4.5,1.8
				c0.9,0,1.8,0.4,2.6,1c1,0.9,1.9,1.7,3.4,1c0.7-0.4,1.3,0.2,1.2,1.1c-0.3,1.2,0.4,1.7,1.4,2c1.9,0.5,3.6,1.8,5.7,0.6
				c0.8-0.4,1.8,0,2.4,1c0.5,0.8,1,1.6,1.5,2.4c0.2,0.3,0.5,0.9,0.8,0.9c1.9-0.2,3.7,0.8,5.6,0.8c1,0,1.8,0,2.8,0.3
				c0.1,2.5-0.7,4.8-0.9,7.2c-0.1,0.8-0.9,1-1.6,0.9c-1.4-0.1-2.1,0.6-2.7,1.7c-1.4,2.6-3.2,5-3.2,8.1c0,0.7-0.3,1.2-0.9,1.7
				c-1.8,1.3-2.4,3.2-1.7,5.3c0.6,1.8,0.5,3.2-1,4.5c-0.9,0.8-1.2,1.8-0.5,3.1c0.9,1.6-0.9,5.2-2.5,6c-2,1-3.4,2.6-4.7,4.3
				c-0.4,0.5-0.6,1.3-1.2,1.5c-3.2,1-3.4,3.9-3.8,6.5c-0.5,3.3-0.4,6.7-1.2,10c-0.2,1.1-0.4,2.3,0,3.4c0.3,1-0.2,1.9-0.8,2.5
				c-0.7,0.6-1.7,0.2-2.6,0.1c-1.7-0.1-3.2-0.9-5-0.4c-2.7,0.7-5.4,1.7-8.2,2.3c-0.4,0.1-0.8-0.2-1.2-0.2c-0.9-0.1-1.7-0.1-1.7,1.1
				c0,1.3-0.8,1.3-1.8,1.2c-2.6-0.4-4.6-1.1-6.2-3.7c-1.1-1.7-1.9-3.7-3-5.4c-1.1-1.7-1.8-3.4-1.8-5.5c0-1.4-0.7-2.1-2.2-1.7
				c-2,0.5-3.3-0.2-3.8-2.1c-0.8-2.7-3.5-3.4-5.4-4.9c-0.4-0.3-1.1-0.1-1.1,0.4c-0.1,1.7-1.3,1.4-2.3,1.5c-2.2,0.2-4.6-0.2-5.4,2.9
				c-0.3,1.2-1.7,0.8-2.4,0.3c-1.5-1.2-2.8-0.9-4.1,0.3c-0.2,0.2-0.6,0.5-0.9,0.5c-1.4-0.2-2,0.7-2.7,1.7c-1,1.4-2.1,1.2-2.7-0.4
				c-0.2-0.6-0.6-0.9-1.1-1c-2-0.3-3.8-2-5.9-0.4c-0.6,0.4-1.1-0.2-1.5-0.7c-1.1-1.7-2.3-3-4.6-2.4c-1,0.3-1.6-0.5-2.1-1.3
				c-0.6-1-1.4-1.2-2.6-0.9c-3,0.7-5.9,1.2-8.9,1.8c-1.2,0.2-2.3,0.6-3.4,1.2c-1,0.6-2,0.9-3.2,0.6c-2.7-0.5-4.2,0.8-4.2,3.6
				c0,0.9-0.3,1.6-0.9,2.3c-1.6,1.7-2.7,3.8-4.2,5.6c-0.8,0.9-0.9,2.5-0.9,3.6c0,3.2-2.6,5-3.6,7.5c-0.1,0.2-0.3,0.4-0.5,0.6
				c-2.6,3.4-2.6,3.4-6.4,1.4c-1.3,1.6-2.8,3.1-5.3,2.4c-0.9-0.3-1.4,0.2-1.4,1.2c0,1.5-0.8,2.5-2,3.3c-1,0.7-2,1.4-2.4,2.7
				c-0.2,0.5-0.5,0.7-1.1,0.6c-2.4-0.3-4.4,0.5-5.9,2.5c-0.5,0.7-1,1.5-2.1,1.1c-0.9-3.8-3.6-4.7-7.4-2.5c-0.6-0.9,0.8-1.8,0-2.6
				c-0.6-0.6-1.3-1.1-2-1.7c-0.8-0.8-1.5-1.1-2.6-0.3c-1.1,0.8-2,0.6-2.6-0.9c-1-2.8-2.6-3.1-4.9-1.3c-1.3,1-2.5,2-4.3,2.4
				c-1.7,0.3-1.5,2.3-1.7,3.8c-0.4,2.5-0.8,5-2.2,7.2c-0.9-0.3-1.3-1.4-2.1-0.8c-2.3,1.7-4.9,1-7.4,1c-0.9,0-1.8,0.1-2.4,0.8
				c-2.2,2.6-5.1,2-7.6,1.2c-2-0.6-3.7,0-5.6,0.1c-2.2,0.1-4.2,0.4-6.3,0.9c-1.3,0.3-3.1,0.2-4.7,0.1c-1.4-0.1-3,0.5-4.2,1.2
				c-1,0.6-0.8,2.1-0.9,3.2c0,1.3-0.6,1.9-1.8,2.2c-1.6,0.3-2.4,1.2-1.3,2.9c0.4,0.6,0.3,1.3,0.1,2c-0.8,3.1-0.8,6,2.2,8.1
				c1,0.7,0.9,2.2,2.2,2.7c-1.5-0.2-2.8-0.1-4.3,0.2c-1.6,0.4-2.6,1.1-3.3,2.7c-0.8,1.8-2.5,2.7-4.6,2.8c-2.7,0.1-5.5-1-8.1,0.5
				c-0.1,0.1-0.3,0.1-0.4,0c-3.6-1.7-6.9,0-10.1,1.2c-3.5,1.4-6.8,0.1-10.2,0c-2-0.1-3.9-0.6-5.7-1.4c-0.5-0.2-1.1-0.5-1.6-0.3
				c-3,1.2-6.2,0.9-9.2,1.1c-4.1,0.3-8.4,1.1-12.5-0.7c-2.4-1.1-3.8-3.2-5.7-4.8c-1.1-0.9-2-2-3.7-1.5c-1.2,0.4-1.4-0.8-1.7-1.6
				c-0.7-1.6-1.4-2.8-3.4-3.1c-1.5-0.2-2.7-1.3-3.4-3.1c-1.2-3.1-4-5.2-6.1-7.8c-0.4-0.6-1.2-0.5-1.9-0.6c-1.7-0.1-3.2-0.1-4.3-1.9
				c-0.8-1.1-2.7-0.7-4-0.2c-1.2,0.5-2.2,0.4-3.1-0.4c-0.3-0.3-0.9-0.7-1.2-0.6c-2.2,0.6-1.8-0.5-2-2.1c-0.2-2.2,1.3-4.6-0.4-6.7
				c-0.4-0.5-0.6-1.4-1.4-1.4c-2.8,0.1-3.9-2.1-4.7-4c-1-2.4-2.4-4.7-1.6-7.5c0.2-0.8-0.3-1.2-1-1.5c-1.5-0.8-2.2-1.9-2.3-3.7
				c-0.1-1.7-1.7-2.2-2.8-3c-1.2-0.9-1.8-2.6-0.8-3.4c1.4-1.1,1.6-2.7,1.1-3.8c-1.2-3.1,0.9-4.5,2.6-6c1.9-1.6,2.7-4,2.3-6.6
				c-0.3-2.3-0.8-4.8,1.1-6.9c0.3-0.3,0.5-0.7,0.6-1c0.9-3.8,3.1-7.1,4.5-10.7c0.1-0.3,0.2-0.7,0.5-0.9c3.3-2.6,4.6-6.9,8-9.4
				c0.8-0.6,1.4-0.9,2.3-0.4c2.1,0.9,4.2,1.8,6.4,2.6c0.9,0.3,1.4,1,2,1.6c1.6,2,3.8,1.9,5.4-0.1c1.4-1.8,2.2-1.9,3.4-0.7
				c0.6,0.6,0.9,1.9,2,1.7c1.7-0.3,3.7-0.2,4.9-1.6c1.6-1.7,3.3-2.7,5.6-2.6c0.8,0,1.5-0.4,2.1-1c0.6-0.7,1.3-1.4,1.8-2.2
				c1.6-2.5,3.7-3.7,6.8-3.2c1.7,0.3,2.7-0.9,3.1-2.6c0.4-1.6,0.8-3.3,1.1-4.9c0.2-1.2,0.8-1.7,1.9-1.5c2.7,0.4,5.2-0.6,7.6-1.7
				c1.1-0.5,1.8-1.2,2.1-2.4c0.5-2.3,0.9-4.6,1.2-6.9c0.2-2.2,0.3-4.7,1.6-6.7c0.8-1.3,1.2-2.6,0-3.8c0.8-1.4,2.7-2.1,2.5-4.1
				c-0.1-0.8,0.9-0.7,1.5-0.7c3.4,0.1,6.4-1.2,9.3-2.8c2.5-1.4,3.8-3.9,3.3-6.7c2-0.2,3.8-0.7,4.6-2.9c0.5-1.3,1.8-2.2,2.8-3.1
				c0.8-0.8,1.2-1.5,0.6-2.6c-0.4-0.8-0.5-1.6,0.4-2.1c0.9-0.5,2-0.8,2.7,0.1c0.9,1.1,1.9,1,2.9,0.5c1.7-0.8,3.2-0.7,4.8,0.2
				c1.5,0.9,2.7,0.6,4-0.4c3.1-2.5,6.8-1.4,10.3-1.4c1,0,2,0.7,1.3,2.3c-0.3,0.7-0.4,1.9,0,2.6c0.9,1.8,1.7,3.4,0.6,5.4
				c-0.2,0.4,0.3,1.2,1,1.3c1.2,0,2.7,0.8,3.6-0.5c1-1.6,1.9-1.7,3.4-0.5c1.1,0.9,2.6,0.1,4,0.1c0.7,0,1.3-0.5,2.2-0.8
				c-0.5-1.7-0.7-3.4,1.6-4.1c0.5-0.2,0.2-0.9,0.2-1.5c-0.6-3.4,2.2-6.4,5.6-6.1c0.7,0.1,1.3,0.1,2,0.1c1.1,0,1.7-0.5,1.5-1.6
				c-0.2-1.3,0.6-1.6,1.3-2.4c1.1-1.5,3.1-1.7,4.1-3.6c0,2.5,2,3.1,3.4,4.1c0.1,0.1,0.3,0.3,0.3,0.5c-0.5,2.6,1.2,4.6,1.7,6.9
				c0.6,3,2.5,4.6,5.2,4.4c0.5,0.4,0.5,1,0.3,1.5c-0.9,2,0.1,2.7,1.8,3.1c0.8,0.2,1.6,0.5,2.3,0.8c1,0.5,1.7,0.2,2.4-0.6
				c1.5-1.6,2.5-1.3,3.2,0.9c0.7,2.5,0.2,5,0.2,7.5c0,0.2-0.2,0.5-0.1,0.6c2.2,2.9-1,4.5-1.6,6.7c-0.2,0.9-0.7,1.7-0.2,2.5
				c0.5,0.7,1.3,1,2.1,0.8c0.8-0.2,1.6,0.1,2.4,0.3c2,0.7,3.6-0.3,4.4-1.9c1.1-2.1,2.8-1.1,4.3-1.3c1.2-0.2,1.8,0.8,2.1,1.8
				c0.6,1.7,2.2,2.3,3.6,3c0.6,0.3,1.6,0.3,1.6-0.6c0-2.1,1.5-3.6,1.4-5.8c-0.1-1.9,0.9-4.3,2-5.5c2-2.1,4.3-4.8,8.2-3.7
				c2.2,0.6,2.8-0.3,3.1-2.8c0.3-3.1,1-3.4,3.5-1.7c1.1,0.7,1.8-0.1,2.4-0.8c1.4-1.6,2.7-1.7,4.4-0.2c0.8,0.7,1.5,1.4,2.5,1.7
				c3.2,1,4.1,0.7,5.7-2.4c1.6,1.3,2.9,1.1,4.3-0.4c1-1.1,3.2,0,3.7,1.5c0.9,2.6,3.2,4.1,5,6.1c0.1,0.1,0.3,0.2,0.4,0.1
				c3-1.3,3.6,1.6,5.1,2.9c0.5,0.4,0.8,0.9,1.5,0.6C279,70.5,280.2,70.6,281.5,70.4z"/>
		</defs>
		<clipPath id="SVGID_2_">
			<use xlink:href="#SVGID_1_"  style="overflow:visible;"/>
		</clipPath>
		<rect x="-65.6" y="31.4" class="st1" width="469.3" height="200.2"/>
		<rect x="-65.6" y="31.4" class="st2" width="469.3" height="133.4"/>
		<rect x="-65.6" y="31.4" class="st3" width="469.3" height="66.7"/>
		<g class="st4">
			<path class="st5" d="M187.3,80.9h-2.4h-33.7h-33.7h-2.4l-0.2,2.4c-0.1,0.5-1.3,12.8-1.3,39.9c0,12.7,4.3,23.9,12.8,33.3
				c5.9,6.6,13.7,12.1,23.7,17l1.1,0.5l1.1-0.5c10-4.8,17.8-10.4,23.7-17c8.5-9.4,12.8-20.6,12.8-33.3c0-27.1-1.3-39.4-1.3-39.9
				L187.3,80.9z"/>
			<path class="st6" d="M151.2,171.1c-14.4-6.9-35-20.7-35-48s1.3-39.6,1.3-39.6h33.7h33.7c0,0,1.3,12.4,1.3,39.6
				C186.2,150.4,165.6,164.2,151.2,171.1z"/>
			<path class="st5" d="M154.3,116c3.9,0.1,11.5,0.2,18.3-2.1c0,0-0.2,2.4-0.2,5.2c0,2.8,0.2,5.2,0.2,5.2
				c-6.2-2.1-13.9-2.1-18.3-2.1v15h-6.2v-15c-4.4-0.1-12.1,0-18.3,2.1c0,0,0.2-2.4,0.2-5.2c0-2.8-0.2-5.2-0.2-5.2
				c6.8,2.3,14.4,2.1,18.3,2.1v-9.4c-3.6,0-8.7,0.1-14.5,2.1c0,0,0.2-2.4,0.2-5.2c0-2.8-0.2-5.2-0.2-5.2c5.8,1.9,10.9,2.1,14.5,2.1
				c-0.2-6-1.9-13.5-1.9-13.5s3.6,0.3,5,0.3c1.4,0,5-0.3,5-0.3s-1.7,7.5-1.9,13.5c3.6,0,8.7-0.1,14.5-2.1c0,0-0.2,2.4-0.2,5.2
				c0,2.8,0.2,5.2,0.2,5.2c-5.8-1.9-10.9-2.1-14.5-2.1V116L154.3,116z"/>
			<path class="st7" d="M151.2,135.8c-7.3,0-11.1,10.1-11.1,10.1s-2.2-4.8-8.1-4.8c-4,0-7,3.6-8.8,6.9c7.3,11.6,18.9,18.7,28,23.1
				c9.1-4.4,20.8-11.6,28.1-23.1c-1.9-3.3-4.8-6.9-8.8-6.9c-5.9,0-8.1,4.8-8.1,4.8S158.4,135.8,151.2,135.8L151.2,135.8z"/>
		</g>
	</g>
	<g>
		<g>
			<path d="M184.7,43c0.6,1.1,1.7,1.7,2.5,2.2c0.2,0.1,0.5,0.3,0.7,0.4c-0.2,1.8,0.4,3.3,1,4.6c0.3,0.8,0.6,1.5,0.8,2.3
				c0.6,3.2,2.7,5.2,5.6,5.2c0,0,0,0,0,0c-0.5,1.1-0.6,2-0.2,2.7c0.5,1.1,1.7,1.5,2.7,1.8c0.8,0.2,1.5,0.5,2.1,0.8
				c0.5,0.2,0.9,0.4,1.4,0.4c1,0,1.8-0.7,2.2-1.2c0.6-0.7,0.9-0.7,0.9-0.7c0,0,0.3,0.2,0.6,1.2c0.5,1.6,0.4,3.3,0.3,5
				c0,0.7-0.1,1.4-0.1,2.1c0,0,0,0,0,0c-0.1,0.2-0.2,0.7,0.1,1.2c1,1.3,0.6,2-0.5,3.5c-0.5,0.7-1,1.4-1.3,2.3c0,0.2-0.1,0.3-0.2,0.5
				c-0.3,0.7-0.6,1.8,0,2.8c0.5,0.9,1.4,1.3,2.4,1.3c0.2,0,0.5,0,0.7-0.1c0.1,0,0.3,0,0.4,0c0.4,0,0.9,0.1,1.4,0.3
				c0.5,0.2,1.1,0.3,1.6,0.3c1.7,0,3.2-1,4-2.6c0.4-0.7,0.7-0.8,1.3-0.8c0.2,0,0.4,0,0.7,0c0.3,0,0.5,0,0.8,0c0.3,0,0.5,0,0.7-0.1
				c0.1,0,0.1,0,0.2,0c0.2,0,0.5,0,0.9,1.1c0.7,1.9,2.3,2.7,3.6,3.3c0.2,0.1,0.4,0.2,0.5,0.3c0.4,0.2,0.8,0.3,1.2,0.3
				c1.1,0,1.9-0.7,1.9-1.8c0-0.8,0.3-1.5,0.6-2.4c0.4-1,0.9-2.1,0.8-3.5c-0.1-1.6,0.8-3.8,1.7-4.7l0.4-0.4c1.5-1.6,3.1-3.3,5.3-3.3
				c0.5,0,1,0.1,1.5,0.2c0.5,0.1,1,0.2,1.4,0.2c2.6,0,2.9-2.7,3-3.9c0.1-1.2,0.3-1.7,0.4-1.8c0.2,0,0.6,0.2,1.6,0.8
				c0.4,0.3,0.9,0.4,1.4,0.4c1.1,0,1.8-0.8,2.3-1.4c0.6-0.6,1.1-0.9,1.5-0.9c0.4,0,0.9,0.3,1.5,0.8l0.3,0.2c0.7,0.6,1.5,1.3,2.6,1.6
				c1.2,0.4,2.1,0.6,2.8,0.6c1.8,0,2.8-1.1,3.6-2.5c0.5,0.3,1.1,0.4,1.6,0.4c1.1,0,2.1-0.5,3.1-1.6c0,0,0.1-0.1,0.3-0.1
				c0.6,0,1.4,0.6,1.6,1.2c0.7,2.1,2.2,3.6,3.7,4.9c0.5,0.5,1,1,1.5,1.5c0.3,0.3,0.7,0.5,1.1,0.5l0.3,0l0.2-0.1
				c0.4-0.2,0.7-0.2,1-0.2c0.7,0,1.2,0.6,1.9,1.5c0.4,0.5,0.7,1,1.2,1.4l0.1,0.1c0.4,0.3,0.8,0.8,1.6,0.8c0.3,0,0.6-0.1,0.9-0.3
				c0.6-0.3,1.2-0.4,2-0.5c0.4,0,0.8-0.1,1.3-0.2l0.7-0.1l0.1-0.7c0.1-0.4,0.1-0.7,0.2-1.1c0.1-1,0.2-1.7,0.9-2.2l0.3-0.2
				c0.7-0.5,1.1-0.8,1.6-0.8c0.1,0,0.2,0,0.3,0c0.2,0,0.4,0.1,0.6,0.1c1.1,0,2.1-0.7,2.6-1.8c0.6-1.4-0.4-2.2-0.8-2.6
				c-0.1-0.1-0.2-0.2-0.3-0.3c-0.2-0.2-0.4-0.4-0.5-0.5c-0.1-0.1-0.2-0.2-0.4-0.3c0,0,0,0-0.1-0.1c0.1,0,0.3,0,0.4,0
				c1.1,0,2-0.3,2.8-1c0.1,0,0.1,0.1,0.2,0.1c0.6,0.5,1.2,1,1.8,1.4c0.9,0.7,1.7,1,2.5,1c0.9,0,2.1-0.4,2.9-2.6
				c0.4-1.3,1.4-2.1,2.7-2.1c0.3,0,0.6,0.1,1,0.2c0.7,0.2,1.5,0.4,2.2,0.5c1.4,0.3,2.8,0.6,3.8,1.3c1.2,1,2.4,1.5,3.5,1.5
				c0.5,0,0.9-0.1,1.3-0.3c0.3-0.1,0.8-0.2,1.3-0.2c1-0.1,2.4-0.1,3.3-1.5c0.1-0.1,0.4-0.2,0.8-0.2c0.1,0,0.2,0,0.2,0
				c0.6,0.2,1.1,0.3,1.6,0.3c0.9,0,1.7-0.2,2.4-0.7c0.1,0.2,0.2,0.4,0.4,0.7c0.1,0.2,0.2,0.4,0.3,0.5c0.6,1.1,1.4,1.6,2.4,1.6
				c0.2,0,0.4,0,0.6-0.1c0.1,0,0.3,0,0.4,0c1.4,0,3.1,1.4,3.3,2.8l0,0.2c0.2,0.9,0.5,2.7,2.6,2.8l0.4,0l0.3-0.3
				c0.6-0.5,0.8-1.2,1-1.8c0.2-0.7,0.3-0.9,0.7-1c0.1,0,0.2-0.1,0.3-0.1c0.6,1,1.5,1.3,2.3,1.6c0.6,0.2,1,0.4,1.2,0.7
				c0.7,1.1,1.9,1.3,2.8,1.4c0.2,0,0.3,0,0.4,0.1c1.3,0.2,1.6,0.7,1.8,1.5c0.3,1.7,1.1,3.2,2.5,4.4c1.3,1.1,1.1,2,0.8,2.6
				c-0.6,1.4-0.2,2.5,1.2,3.4c1.5,1,3,1.8,4.9,1.9c0.7,0,1.4,0.3,2,0.8c0.8,0.7,1.7,1.5,2.9,1.5c0.4,0,0.8-0.1,1.2-0.2
				c-0.2,1,0,2.5,2.2,3c0.4,0.1,0.9,0.3,1.3,0.4c0.9,0.3,1.8,0.7,2.9,0.7c0.8,0,1.5-0.2,2.2-0.6c0.1,0,0.1,0,0.2,0
				c0.2,0,0.6,0.2,0.9,0.7c0.5,0.8,1,1.5,1.5,2.3l0.1,0.2c0,0.1,0.1,0.1,0.1,0.2c0.3,0.5,0.7,1.1,1.5,1.1l0.1,0l0.1,0
				c0.1,0,0.3,0,0.4,0c0.7,0,1.5,0.2,2.2,0.4c0.8,0.2,1.7,0.4,2.6,0.4c0.1,0,0.1,0,0.2,0c0.2,0,0.5,0,0.7,0c0.4,0,0.8,0,1.1,0.1
				c0,1.2-0.2,2.3-0.5,3.5c-0.2,0.9-0.4,1.8-0.5,2.8c-0.1,0-0.2,0-0.3,0c-0.1,0-0.1,0-0.2,0c-0.1,0-0.3,0-0.4,0
				c-1.8,0-2.7,1.3-3.3,2.2c-0.3,0.5-0.5,1-0.8,1.5c-1.2,2.1-2.5,4.3-2.5,7.1c0,0.3-0.1,0.5-0.5,0.9c-2.2,1.6-2.9,3.9-2.1,6.5
				c0.5,1.6,0.3,2.5-0.7,3.5c-1.3,1.2-1.6,2.7-0.7,4.3c0.1,0.3,0.2,0.8-0.1,1.8c-0.4,1.4-1.4,2.6-1.9,2.9c-2.4,1.2-4,3.2-5.1,4.6
				c-0.2,0.2-0.3,0.4-0.4,0.6c-0.1,0.2-0.3,0.5-0.4,0.5c-3.5,1.1-4,4.2-4.4,6.6c0,0.2-0.1,0.5-0.1,0.7c-0.2,1.5-0.4,3-0.5,4.4
				c-0.1,1.8-0.3,3.8-0.7,5.6c-0.2,1.1-0.4,2.5,0,3.9c0.2,0.7-0.3,1.2-0.5,1.4c0,0-0.1,0.1-0.3,0.1c-0.2,0-0.5,0-0.7-0.1
				c-0.3,0-0.5-0.1-0.8-0.1c-0.5,0-1-0.1-1.5-0.3c-0.7-0.2-1.5-0.3-2.4-0.3c-0.5,0-1,0.1-1.5,0.2c-1.2,0.3-2.3,0.7-3.4,1
				c-1.5,0.5-3.1,1-4.7,1.3c-0.1,0-0.2-0.1-0.3-0.1c-0.2-0.1-0.4-0.1-0.6-0.1c-0.3-0.1-0.6-0.1-0.8-0.1c-1.3,0-2,0.8-2.1,2.1
				c0,0.1,0,0.2,0,0.3c0,0-0.1,0-0.1,0c-0.1,0-0.3,0-0.5,0c-2.4-0.3-4-1-5.5-3.2c-0.5-0.8-1-1.7-1.4-2.6c-0.5-0.9-1-1.9-1.6-2.8
				c-1.2-1.8-1.7-3.3-1.7-4.9c0-0.8-0.2-1.4-0.5-1.9c-0.3-0.4-0.9-0.9-1.9-0.9c-0.3,0-0.7,0-1.1,0.1c-0.3,0.1-0.6,0.1-0.9,0.1
				c-0.6,0-1.3-0.2-1.8-1.6c-0.7-2.3-2.5-3.4-4.1-4.3c-0.6-0.4-1.2-0.7-1.7-1.1c-0.3-0.2-0.7-0.4-1.1-0.4c-0.9,0-1.6,0.7-1.7,1.5
				c0,0.3-0.1,0.4-0.1,0.4c0,0,0,0,0,0c-0.1,0.1-0.5,0.1-0.8,0.1c-0.2,0-0.4,0-0.6,0c-0.3,0-0.6,0-0.9,0.1c-1.9,0.1-4.5,0.2-5.4,3.6
				c0,0,0,0,0,0.1c0,0,0,0,0,0c-0.2,0-0.5-0.1-0.8-0.3c-0.9-0.7-1.7-1-2.5-1c-1,0-1.9,0.4-2.9,1.4c-0.1,0.1-0.2,0.1-0.2,0.2
				c-0.1,0-0.2,0-0.3,0c-1.7,0-2.5,1.2-3.1,2.1c-0.3,0.4-0.5,0.5-0.5,0.5c0,0-0.2-0.2-0.4-0.7c-0.4-1.2-1.3-1.6-1.9-1.7
				c-0.5-0.1-1-0.3-1.5-0.5c-0.8-0.3-1.7-0.6-2.6-0.6c-0.8,0-1.6,0.2-2.3,0.7c-0.1-0.1-0.1-0.2-0.2-0.3c-0.9-1.5-2.1-3-4.3-3
				c-0.4,0-0.9,0.1-1.4,0.2c-0.1,0-0.1,0-0.2,0c-0.2,0-0.5-0.3-0.8-0.8c-0.6-1-1.5-1.5-2.5-1.5c-0.3,0-0.7,0-1.1,0.1
				c-2.8,0.6-5.7,1.2-8.9,1.7c-1.4,0.2-2.6,0.7-3.7,1.4c-0.7,0.4-1.2,0.6-1.8,0.6c-0.2,0-0.5,0-0.7-0.1c-0.5-0.1-0.9-0.1-1.3-0.1
				c-2.6,0-4.1,1.7-4.1,4.7c0,0.7-0.2,1.1-0.7,1.7c-0.8,0.9-1.5,2-2.2,2.9c-0.7,0.9-1.3,1.8-2,2.7c-1,1.1-1.1,2.8-1.1,4.3
				c0,1.7-0.9,3-1.9,4.3c-0.6,0.9-1.3,1.8-1.7,2.9c0,0-0.1,0.1-0.1,0.2c-0.1,0.1-0.1,0.2-0.2,0.2c-1.3,1.6-1.9,2.4-2.3,2.4
				c-0.5,0-1.4-0.5-2.8-1.2l-0.7-0.4l-0.5,0.6c-1.2,1.4-2.1,2.2-3.3,2.2c-0.3,0-0.6-0.1-1-0.2c-0.3-0.1-0.5-0.1-0.7-0.1
				c-1,0-1.9,0.7-2,2.2c0,1-0.5,1.8-1.6,2.5c-0.9,0.7-2.2,1.5-2.8,3.1c0,0,0,0-0.1,0c-0.4,0-0.7-0.1-1-0.1c-2.3,0-4.3,1-5.8,2.9
				l-0.1,0.2c-0.1,0.2-0.3,0.4-0.4,0.5c-1.1-3.2-3.3-3.7-4.5-3.7c-0.7,0-1.5,0.2-2.4,0.5c0.1-0.5,0-1.1-0.5-1.6
				c-0.4-0.4-0.8-0.8-1.3-1.1c-0.3-0.2-0.5-0.4-0.8-0.7c-0.5-0.5-1.2-1-2.1-1c-0.6,0-1.2,0.2-1.8,0.7c-0.3,0.3-0.5,0.3-0.6,0.3
				c-0.1,0-0.3-0.2-0.5-0.7c-0.8-2-1.9-3.1-3.4-3.1c-0.9,0-1.9,0.4-3.1,1.3l-0.3,0.2c-1.2,0.9-2.2,1.7-3.6,1.9
				c-2.1,0.4-2.3,2.5-2.4,3.8c0,0.3-0.1,0.6-0.1,0.8l0,0.2c-0.3,1.9-0.6,3.9-1.5,5.7c-0.3-0.3-0.7-0.6-1.3-0.6
				c-0.4,0-0.7,0.1-1.1,0.4c-1.1,0.8-2.4,0.9-3.5,0.9c-0.5,0-0.9,0-1.4,0c-0.5,0-1,0-1.5,0c-0.1,0-0.3,0-0.4,0
				c-0.9,0-2.2,0.1-3.1,1.1c-0.9,1-1.9,1.5-3.3,1.5c-1.1,0-2.3-0.3-3.3-0.6c-0.7-0.2-1.4-0.3-2.2-0.3c-0.7,0-1.4,0.1-2.1,0.2
				c-0.5,0.1-1.1,0.1-1.6,0.2c-2.2,0.1-4.3,0.4-6.5,1c-0.4,0.1-1,0.2-1.7,0.2c-0.8,0-1.7-0.1-2.5-0.1l-0.2,0c-0.1,0-0.3,0-0.4,0
				c-1.7,0-3.5,0.8-4.4,1.4c-1.4,0.8-1.4,2.4-1.4,3.5c0,0.2,0,0.3,0,0.5c0,0.8-0.2,1-1,1.2c-1.3,0.3-2.1,0.8-2.5,1.6
				c-0.3,0.8-0.2,1.7,0.5,2.8c0.2,0.2,0.1,0.5-0.1,1.1c-0.8,2.9-1.2,6.6,2.6,9.1c0.2,0.1,0.3,0.4,0.5,0.8c0,0,0,0,0,0
				c-0.7,0-1.5,0.2-2.2,0.3c-2,0.5-3.2,1.4-4,3.3c-0.6,1.3-2,2.1-3.7,2.2l-0.2,0c-0.7,0-1.4-0.1-2.1-0.2c-0.8-0.1-1.6-0.2-2.4-0.2
				c-1.4,0-2.6,0.3-3.6,0.8c-1.1-0.5-2.2-0.7-3.4-0.7c-2.3,0-4.4,0.9-6.5,1.7c-0.3,0.1-0.5,0.2-0.8,0.3c-1,0.4-2,0.6-3.2,0.6
				c-1.1,0-2.2-0.2-3.4-0.3c-1-0.1-2.1-0.3-3.1-0.3c-1.7-0.1-3.4-0.5-5.4-1.3c-0.5-0.2-1-0.4-1.6-0.4c-0.2,0-0.5,0-0.7,0.1
				c-2,0.8-4.1,0.9-6.3,0.9c-0.8,0-1.7,0-2.6,0.1c-0.6,0-1.3,0.1-2,0.2c-1.4,0.1-2.9,0.3-4.4,0.3c-2.3,0-4.1-0.3-5.7-1.1
				c-1.4-0.6-2.5-1.7-3.6-2.9c-0.6-0.6-1.2-1.2-1.8-1.8c-0.1-0.1-0.2-0.2-0.4-0.3c-0.8-0.7-1.7-1.5-3.1-1.5c-0.4,0-0.7,0.1-1.1,0.2
				c0,0-0.1,0-0.1,0c-0.1-0.1-0.2-0.5-0.3-0.7c0-0.1-0.1-0.3-0.1-0.4c-0.7-1.7-1.6-3.4-4.2-3.7c-1.1-0.2-2.1-1-2.6-2.4
				c-0.9-2.3-2.5-4-4.1-5.7c-0.8-0.8-1.5-1.6-2.1-2.4c-0.7-0.9-1.7-0.9-2.4-0.9l-0.2,0l-0.2,0c-1.5-0.1-2.5-0.1-3.4-1.4
				c-0.4-0.5-1.1-1.2-2.5-1.2c-1.1,0-2.2,0.4-2.7,0.6c-0.4,0.2-0.7,0.2-1,0.2c-0.3,0-0.6-0.1-1.1-0.5c-0.7-0.6-1.3-0.9-1.8-0.9
				c-0.1,0-0.2,0-0.4,0c-0.3,0.1-0.5,0.1-0.6,0.1c0-0.2,0-0.4,0-0.6c0-0.2,0-0.5-0.1-0.8c-0.1-0.7,0.1-1.4,0.2-2.1
				c0.3-1.6,0.6-3.4-0.8-5.1c-0.1-0.1-0.1-0.2-0.2-0.4c-0.3-0.5-0.8-1.4-1.9-1.4l-0.1,0l0,0c-0.1,0-0.1,0-0.2,0
				c-1.8,0-2.7-1.2-3.6-3.4c-0.2-0.4-0.3-0.8-0.5-1.2c-0.8-1.9-1.6-3.6-1-5.6c0.5-1.7-1-2.5-1.5-2.7c-1.2-0.6-1.7-1.5-1.7-2.8
				c-0.1-1.9-1.5-2.8-2.6-3.4c-0.2-0.1-0.5-0.3-0.7-0.4c-0.6-0.4-0.9-1-0.9-1.4c0-0.2,0.1-0.3,0.2-0.4c1.8-1.4,2-3.5,1.4-5
				c-0.8-2.1,0.2-3,2-4.5l0.4-0.3c2.1-1.8,3.1-4.5,2.6-7.5l0-0.2c-0.3-2.2-0.6-4.2,0.9-5.9c0.4-0.4,0.7-1,0.8-1.5
				c0.5-2.3,1.5-4.4,2.6-6.6c0.6-1.3,1.3-2.6,1.8-4c0-0.1,0.1-0.1,0.1-0.2c0-0.1,0.1-0.2,0.1-0.3c1.7-1.4,2.9-3.1,4-4.8
				c1.2-1.7,2.3-3.4,3.9-4.6c0.4-0.3,0.7-0.4,0.9-0.4c0.1,0,0.3,0,0.4,0.1c2,0.9,4.2,1.8,6.4,2.6c0.6,0.2,1,0.7,1.6,1.3
				c1,1.2,2.2,1.8,3.4,1.8c1.3,0,2.5-0.7,3.5-1.9c0.8-1.1,1.1-1.1,1.2-1.1c0,0,0.2,0,0.7,0.5c0.1,0.1,0.2,0.3,0.4,0.5
				c0.4,0.6,1,1.5,2.2,1.5c0.1,0,0.2,0,0.4,0c0.3,0,0.6-0.1,0.9-0.1c1.6-0.2,3.3-0.4,4.6-1.8c1.4-1.6,2.8-2.3,4.5-2.3
				c0.1,0,0.2,0,0.4,0c0.1,0,0.1,0,0.2,0c1,0,2-0.5,2.7-1.4c0.2-0.3,0.4-0.5,0.7-0.8c0.4-0.4,0.9-0.9,1.2-1.5c1.3-2,2.8-2.9,4.7-2.9
				c0.3,0,0.7,0,1.1,0.1c0.2,0,0.4,0,0.6,0c1.8,0,3.1-1.2,3.6-3.4l0.2-0.8c0.3-1.4,0.7-2.8,0.9-4.2c0.1-0.7,0.3-0.7,0.5-0.7
				c0.1,0,0.2,0,0.3,0c0.5,0.1,1,0.1,1.4,0.1c2.5,0,4.8-1,6.7-1.9c1.1-0.5,2.3-1.3,2.7-3.1c0.5-2.3,0.9-4.6,1.2-7
				c0-0.3,0.1-0.5,0.1-0.8c0.2-1.9,0.4-3.9,1.4-5.5c0.4-0.7,1.5-2.5,0.4-4.4c0.2-0.2,0.4-0.4,0.6-0.6c0.8-0.7,1.7-1.6,1.7-3.1
				c0,0,0.1,0,0.1,0c0.1,0,0.2,0,0.3,0c0.1,0,0.3,0,0.4,0c3.6,0,6.6-1.4,9.4-3c2.6-1.4,4-3.9,3.9-6.7c1.8-0.3,3.6-1.1,4.5-3.4
				c0.3-0.8,1-1.4,1.8-2c0.3-0.2,0.5-0.5,0.8-0.7c0.5-0.5,1.9-1.8,0.8-3.9c-0.2-0.3-0.2-0.5-0.2-0.5c0,0,0.1-0.1,0.2-0.2
				c0.5-0.3,0.9-0.4,1.1-0.4c0.2,0,0.3,0,0.4,0.2c0.6,0.8,1.4,1.2,2.3,1.2c0.5,0,1.1-0.2,1.8-0.5c0.6-0.3,1.2-0.5,1.8-0.5
				c0.7,0,1.3,0.2,2,0.6c0.8,0.5,1.5,0.7,2.3,0.7c1,0,1.9-0.4,2.9-1.2c1.2-1,2.7-1.4,4.7-1.4c0.8,0,1.6,0.1,2.4,0.1
				c0.8,0.1,1.7,0.1,2.6,0.1c0.3,0,0.5,0.1,0.5,0.2c0.1,0.1,0.1,0.3-0.1,0.7c-0.4,0.9-0.5,2.4,0,3.4c0.9,1.8,1.4,3,0.6,4.5
				c-0.3,0.5-0.2,1.1,0.1,1.7c0.4,0.6,1.1,1.1,1.8,1.1c0.2,0,0.5,0,0.9,0.1c0.4,0.1,0.8,0.1,1.2,0.1c1,0,1.8-0.4,2.4-1.2
				c0.4-0.6,0.7-0.9,0.9-0.9c0.1,0,0.4,0.1,1,0.6c0.6,0.4,1.2,0.7,2,0.7c0.6,0,1.1-0.1,1.6-0.2c0.4-0.1,0.7-0.1,1-0.2
				c0.7,0,1.2-0.3,1.8-0.6c0.2-0.1,0.5-0.2,0.7-0.3l0.8-0.3l-0.2-0.9c-0.5-1.8-0.3-2.5,1-2.8c1.3-0.4,1-1.8,0.9-2.4
				c0-0.1,0-0.2,0-0.2c-0.2-1.3,0.1-2.5,0.9-3.5c0.8-1,2-1.5,3.3-1.5c0.1,0,0.2,0,0.4,0l0.5,0c0.5,0,1.1,0.1,1.6,0.1l0,0h0
				c1.1,0,1.7-0.4,2-0.8c0.3-0.4,0.6-1,0.4-2c-0.1-0.4,0-0.5,0.5-1c0.2-0.2,0.4-0.4,0.6-0.7c0.4-0.5,0.9-0.8,1.5-1.2
				C183.8,43.6,184.3,43.3,184.7,43 M185.2,40.9c-1,1.9-3,2.2-4.1,3.6c-0.6,0.8-1.5,1.2-1.3,2.4c0.2,1.1-0.4,1.6-1.4,1.6
				c0,0,0,0,0,0c-0.7,0-1.3-0.1-2-0.1c-0.1,0-0.3,0-0.4,0c-3.2,0-5.7,2.9-5.2,6.2c0.1,0.6,0.3,1.3-0.2,1.5c-2.3,0.7-2.1,2.4-1.6,4.1
				c-0.9,0.3-1.5,0.8-2.2,0.8c-0.8,0-1.8,0.4-2.6,0.4c-0.5,0-0.9-0.1-1.4-0.4c-0.7-0.5-1.2-0.8-1.7-0.8c-0.6,0-1.1,0.4-1.7,1.3
				c-0.4,0.6-0.9,0.8-1.5,0.8c-0.7,0-1.4-0.2-2.1-0.2c-0.7,0-1.3-0.8-1-1.3c1.1-2,0.3-3.7-0.6-5.4c-0.3-0.7-0.3-1.8,0-2.6
				c0.7-1.6-0.3-2.3-1.3-2.3c0,0,0,0,0,0c0,0,0,0,0,0c-1.6,0-3.3-0.2-4.9-0.2c-1.9,0-3.7,0.3-5.4,1.6c-0.8,0.6-1.5,1-2.3,1
				c-0.6,0-1.1-0.2-1.7-0.6c-0.8-0.5-1.7-0.8-2.6-0.8c-0.7,0-1.5,0.2-2.2,0.6c-0.4,0.2-0.9,0.4-1.3,0.4c-0.5,0-1.1-0.2-1.5-0.8
				c-0.3-0.4-0.8-0.6-1.2-0.6c-0.5,0-1.1,0.2-1.5,0.5c-0.9,0.5-0.8,1.3-0.4,2.1c0.6,1.1,0.2,1.9-0.6,2.6c-1,1-2.3,1.8-2.8,3.1
				c-0.8,2.2-2.6,2.7-4.6,2.9c0.5,2.8-0.9,5.3-3.3,6.7c-2.8,1.6-5.7,2.8-8.9,2.8c-0.1,0-0.3,0-0.4,0c-0.1,0-0.2,0-0.3,0
				c-0.5,0-1.2,0.1-1.1,0.7c0.1,2-1.7,2.6-2.5,4.1c1.2,1.3,0.8,2.5,0,3.8c-1.2,2-1.4,4.5-1.6,6.7c-0.3,2.3-0.6,4.6-1.2,6.9
				c-0.3,1.3-1,1.9-2.1,2.4c-2,1-4,1.8-6.3,1.8c-0.4,0-0.8,0-1.3-0.1c-0.1,0-0.3,0-0.4,0c-0.9,0-1.3,0.5-1.5,1.5
				c-0.3,1.7-0.7,3.3-1.1,4.9c-0.4,1.5-1.2,2.6-2.6,2.6c-0.2,0-0.3,0-0.5,0c-0.4-0.1-0.9-0.1-1.2-0.1c-2.4,0-4.1,1.2-5.5,3.3
				c-0.5,0.8-1.2,1.4-1.8,2.2c-0.5,0.6-1.2,1.1-2,1.1c0,0-0.1,0-0.1,0c-0.1,0-0.3,0-0.4,0c-2.1,0-3.7,1-5.2,2.6
				c-1.2,1.3-3.2,1.3-4.9,1.6c-0.1,0-0.1,0-0.2,0c-1,0-1.2-1.2-1.8-1.7c-0.5-0.5-1-0.8-1.4-0.8c-0.6,0-1.2,0.5-2,1.5
				c-0.8,1-1.8,1.5-2.7,1.5c-0.9,0-1.9-0.5-2.7-1.5c-0.6-0.7-1.1-1.3-2-1.6c-2.1-0.8-4.3-1.7-6.4-2.6c-0.3-0.1-0.6-0.2-0.9-0.2
				c-0.5,0-0.9,0.2-1.5,0.6c-3.4,2.6-4.7,6.8-8,9.4c-0.2,0.2-0.3,0.6-0.5,0.9c-1.4,3.6-3.6,6.9-4.5,10.7c-0.1,0.4-0.3,0.8-0.6,1
				c-1.9,2.1-1.4,4.6-1.1,6.9c0.4,2.5-0.4,5-2.3,6.6c-1.7,1.5-3.8,2.9-2.6,6c0.5,1.2,0.3,2.7-1.1,3.8c-1.1,0.8-0.5,2.6,0.8,3.4
				c1.1,0.8,2.8,1.3,2.8,3c0.1,1.7,0.8,2.9,2.3,3.7c0.7,0.3,1.2,0.7,1,1.5c-0.9,2.8,0.6,5.2,1.6,7.5c0.8,1.9,1.8,4,4.5,4
				c0.1,0,0.1,0,0.2,0c0,0,0,0,0,0c0.7,0,0.9,0.8,1.3,1.4c1.7,2.1,0.2,4.5,0.4,6.7c0.1,1.3-0.1,2.3,1,2.3c0.3,0,0.6-0.1,1-0.2
				c0,0,0.1,0,0.1,0c0.3,0,0.8,0.4,1.1,0.6c0.6,0.5,1.2,0.8,1.8,0.8c0.4,0,0.9-0.1,1.4-0.3c0.7-0.3,1.5-0.5,2.3-0.5
				c0.7,0,1.3,0.2,1.7,0.7c1.2,1.8,2.7,1.8,4.3,1.9c0.7,0,1.4,0,1.9,0.6c2,2.6,4.8,4.6,6.1,7.8c0.7,1.7,1.9,2.8,3.4,3.1
				c2.1,0.3,2.8,1.5,3.4,3.1c0.3,0.7,0.5,1.7,1.3,1.7c0.1,0,0.3,0,0.4-0.1c0.3-0.1,0.6-0.1,0.8-0.1c1.2,0,1.9,0.8,2.8,1.6
				c1.9,1.6,3.3,3.7,5.7,4.8c2,0.9,4.1,1.2,6.1,1.2c2.1,0,4.3-0.3,6.4-0.5c3-0.2,6.2,0.1,9.2-1.1c0.1,0,0.2-0.1,0.3-0.1
				c0.4,0,0.9,0.2,1.3,0.4c1.8,0.8,3.7,1.3,5.7,1.4c2.2,0.1,4.4,0.7,6.6,0.7c1.2,0,2.3-0.2,3.6-0.6c2.2-0.9,4.5-1.9,6.9-1.9
				c1,0,2.1,0.2,3.2,0.7c0.1,0,0.1,0,0.2,0c0.1,0,0.2,0,0.2,0c1.1-0.7,2.2-0.8,3.4-0.8c1.5,0,3,0.3,4.5,0.3c0.1,0,0.1,0,0.2,0
				c2,0,3.8-1,4.6-2.8c0.7-1.6,1.7-2.3,3.3-2.7c0.9-0.2,1.8-0.3,2.7-0.3c0.5,0,1,0,1.6,0.1c-1.4-0.5-1.3-2.1-2.2-2.7
				c-3.1-2.1-3-4.9-2.2-8.1c0.2-0.7,0.3-1.3-0.1-2c-1.1-1.7-0.3-2.5,1.3-2.9c1.3-0.2,1.8-0.8,1.8-2.2c0-1.1-0.2-2.6,0.9-3.2
				c1.2-0.7,2.6-1.2,3.9-1.2c0.1,0,0.2,0,0.3,0c0.9,0.1,1.8,0.1,2.7,0.1c0.7,0,1.4-0.1,2-0.2c2.1-0.6,4.1-0.9,6.3-0.9
				c1.2,0,2.4-0.3,3.6-0.3c0.6,0,1.2,0.1,1.9,0.3c1.2,0.4,2.4,0.7,3.6,0.7c1.4,0,2.8-0.5,4.1-1.9c0.6-0.7,1.5-0.8,2.4-0.8
				c0.1,0,0.3,0,0.4,0c1,0,2,0.1,3,0.1c1.4,0,2.8-0.2,4.1-1.1c0.2-0.1,0.3-0.2,0.5-0.2c0.5,0,0.9,0.7,1.6,1c1.4-2.2,1.8-4.7,2.2-7.2
				c0.2-1.5,0.1-3.5,1.7-3.8c1.8-0.3,3-1.3,4.3-2.4c0.9-0.7,1.8-1.1,2.5-1.1c1,0,1.8,0.8,2.4,2.4c0.4,0.9,0.9,1.4,1.4,1.4
				c0.4,0,0.8-0.2,1.2-0.5c0.4-0.3,0.8-0.5,1.2-0.5c0.5,0,1,0.3,1.4,0.7c0.6,0.6,1.4,1.1,2,1.7c0.8,0.8-0.7,1.7,0,2.6
				c1.3-0.8,2.6-1.2,3.6-1.2c1.9,0,3.2,1.3,3.8,3.7c0.2,0.1,0.4,0.1,0.5,0.1c0.8,0,1.2-0.7,1.6-1.2c1.3-1.7,3-2.6,5-2.6
				c0.3,0,0.6,0,0.9,0.1c0.1,0,0.1,0,0.2,0c0.5,0,0.8-0.2,0.9-0.7c0.4-1.2,1.4-2,2.4-2.7c1.2-0.8,2-1.9,2-3.3c0-0.8,0.4-1.3,1-1.3
				c0.1,0,0.3,0,0.4,0.1c0.5,0.1,0.9,0.2,1.3,0.2c1.8,0,2.9-1.2,4-2.6c1.6,0.8,2.5,1.3,3.3,1.3c1,0,1.6-0.8,3.1-2.7
				c0.2-0.2,0.4-0.4,0.5-0.6c1-2.6,3.6-4.3,3.6-7.5c0-1.1,0.1-2.7,0.9-3.6c1.6-1.8,2.7-3.9,4.2-5.6c0.6-0.7,0.9-1.4,0.9-2.3
				c0-2.4,1.1-3.7,3.1-3.7c0.3,0,0.7,0,1.1,0.1c0.3,0.1,0.6,0.1,0.9,0.1c0.8,0,1.6-0.3,2.3-0.7c1.1-0.6,2.2-1,3.4-1.2
				c3-0.5,6-1.1,8.9-1.8c0.3-0.1,0.6-0.1,0.9-0.1c0.7,0,1.2,0.3,1.7,1c0.4,0.7,0.9,1.3,1.7,1.3c0.1,0,0.3,0,0.4-0.1
				c0.4-0.1,0.8-0.2,1.1-0.2c1.6,0,2.6,1.1,3.5,2.5c0.3,0.4,0.6,0.9,1.1,0.9c0.1,0,0.3,0,0.4-0.1c0.7-0.5,1.3-0.7,1.9-0.7
				c1.4,0,2.6,0.9,4,1.1c0.5,0.1,0.9,0.4,1.1,1c0.3,0.9,0.8,1.3,1.3,1.3c0.4,0,0.9-0.3,1.4-0.9c0.6-0.9,1.2-1.7,2.3-1.7
				c0.1,0,0.2,0,0.4,0c0,0,0,0,0.1,0c0.3,0,0.6-0.3,0.8-0.5c0.7-0.7,1.4-1.1,2.2-1.1c0.6,0,1.2,0.2,1.9,0.8c0.4,0.3,0.9,0.5,1.4,0.5
				c0.5,0,0.8-0.2,1-0.8c0.8-3.1,3.2-2.7,5.4-2.9c1-0.1,2.2,0.2,2.3-1.5c0-0.4,0.3-0.6,0.7-0.6c0.2,0,0.3,0,0.5,0.1
				c1.9,1.5,4.6,2.1,5.4,4.9c0.5,1.5,1.4,2.3,2.7,2.3c0.3,0,0.7-0.1,1.1-0.2c0.3-0.1,0.6-0.1,0.8-0.1c1,0,1.4,0.6,1.4,1.8
				c0,2.1,0.8,3.8,1.8,5.5c1.1,1.7,1.9,3.6,3,5.4c1.6,2.6,3.6,3.3,6.2,3.7c0.2,0,0.4,0.1,0.6,0.1c0.7,0,1.1-0.3,1.1-1.2
				c0-0.9,0.5-1.1,1.1-1.1c0.2,0,0.4,0,0.6,0.1c0.3,0.1,0.7,0.2,1,0.2c0,0,0.1,0,0.1,0c2.8-0.6,5.4-1.6,8.2-2.3
				c0.4-0.1,0.8-0.2,1.2-0.2c1.3,0,2.5,0.5,3.8,0.6c0.6,0,1.1,0.2,1.7,0.2c0.3,0,0.7-0.1,0.9-0.3c0.7-0.6,1.2-1.5,0.8-2.5
				c-0.4-1.1-0.3-2.3,0-3.4c0.7-3.3,0.6-6.7,1.2-10c0.4-2.6,0.5-5.5,3.8-6.5c0.7-0.2,0.9-1,1.2-1.5c1.3-1.8,2.7-3.4,4.7-4.3
				c1.6-0.8,3.4-4.4,2.5-6c-0.7-1.3-0.5-2.2,0.5-3.1c1.5-1.3,1.6-2.7,1-4.5c-0.7-2.1-0.1-4,1.7-5.3c0.6-0.4,0.9-1,0.9-1.7
				c0-3.1,1.8-5.5,3.2-8.1c0.5-1,1.2-1.7,2.4-1.7c0.1,0,0.2,0,0.3,0c0.1,0,0.2,0,0.3,0c0.6,0,1.2-0.2,1.3-0.9
				c0.2-2.4,1.1-4.7,0.9-7.2c-0.7-0.3-1.4-0.4-2-0.4c-0.2,0-0.5,0-0.7,0c-0.1,0-0.1,0-0.2,0c-1.6,0-3.2-0.8-4.8-0.8
				c-0.2,0-0.4,0-0.6,0c0,0,0,0,0,0c-0.2,0-0.5-0.6-0.8-0.9c-0.5-0.8-1.1-1.6-1.5-2.4c-0.4-0.7-1.1-1.2-1.7-1.2
				c-0.2,0-0.5,0.1-0.7,0.2c-0.6,0.3-1.2,0.5-1.8,0.5c-1.4,0-2.6-0.8-4-1.1c-1-0.2-1.7-0.7-1.4-2c0.2-0.7-0.2-1.2-0.7-1.2
				c-0.1,0-0.3,0-0.5,0.1c-0.4,0.2-0.8,0.3-1.1,0.3c-0.9,0-1.6-0.6-2.3-1.2c-0.7-0.7-1.6-1-2.6-1c-1.7-0.1-3.1-0.9-4.5-1.8
				c-0.9-0.5-1.2-1.1-0.8-2.2c0.6-1.5,0.1-2.8-1.1-3.8c-1.2-1-1.9-2.2-2.2-3.8c-0.2-1.5-1.2-2.1-2.6-2.4c-0.9-0.1-2-0.1-2.6-1
				c-0.9-1.4-3.2-0.8-3.7-2.8c0-0.1-0.1-0.2-0.2-0.2c-0.3,0-0.7,0.3-1,0.4c-1.5,0.4-1.1,2.2-2,3c-1.4-0.1-1.5-1.1-1.7-2.1
				c-0.4-2-2.4-3.6-4.3-3.6c-0.2,0-0.4,0-0.6,0.1c-0.2,0-0.3,0-0.4,0c-0.7,0-1.2-0.4-1.5-1.1c-0.4-0.7-0.6-1.5-1.4-2.1
				c-0.8,0.7-1.6,1-2.5,1c-0.4,0-0.9-0.1-1.3-0.2c-0.1,0-0.3-0.1-0.5-0.1c-0.6,0-1.3,0.2-1.6,0.6c-1.1,1.6-2.9,0.8-4.2,1.4
				c-0.3,0.1-0.6,0.2-0.9,0.2c-0.9,0-1.9-0.5-2.9-1.3c-1.7-1.4-4.2-1.4-6.3-2c-0.4-0.1-0.9-0.2-1.3-0.2c-1.6,0-3,1-3.6,2.7
				c-0.4,1.2-1.1,1.9-1.9,1.9c-0.5,0-1.2-0.3-1.9-0.8c-0.8-0.7-1.7-1.3-2.6-2.1c-0.7,1-1.6,1.4-2.7,1.4c-0.1,0-0.2,0-0.3,0
				c-0.1,0-0.2,0-0.3,0c-0.4,0-0.7,0.1-0.9,0.5c-0.2,0.5,0.2,0.9,0.5,1.2c0.3,0.3,0.6,0.6,0.9,0.9c0.5,0.5,1.3,0.9,0.9,1.8
				c-0.3,0.7-0.9,1.2-1.7,1.2c-0.1,0-0.3,0-0.4,0c-0.2,0-0.3,0-0.5,0c-1,0-1.7,0.6-2.5,1.3c-1.4,1-1.1,2.5-1.4,3.8
				c-1.2,0.2-2.5,0.1-3.6,0.7c-0.2,0.1-0.3,0.1-0.5,0.1c-0.4,0-0.7-0.4-1.1-0.7c-1.2-1.1-1.9-3.2-3.7-3.2c-0.4,0-0.8,0.1-1.4,0.3
				c0,0,0,0,0,0c-0.1,0-0.2-0.1-0.3-0.1c-1.8-1.9-4.1-3.4-5-6.1c-0.3-1-1.6-1.9-2.6-1.9c-0.4,0-0.8,0.1-1.1,0.4
				c-0.8,0.8-1.6,1.3-2.3,1.3c-0.6,0-1.3-0.3-2-0.8c-1.1,2.1-1.9,2.9-3.3,2.9c-0.7,0-1.4-0.2-2.5-0.5c-1-0.3-1.7-1-2.5-1.7
				c-0.8-0.7-1.5-1-2.2-1c-0.8,0-1.5,0.4-2.2,1.3c-0.5,0.5-0.9,1-1.6,1c-0.2,0-0.5-0.1-0.8-0.3c-1-0.7-1.7-1-2.2-1
				c-0.8,0-1.1,0.8-1.3,2.7c-0.2,2-0.7,3-2,3c-0.3,0-0.7-0.1-1.1-0.2c-0.6-0.2-1.2-0.3-1.8-0.3c-2.9,0-4.7,2.2-6.4,4
				c-1.1,1.1-2.1,3.5-2,5.5c0.1,2.2-1.4,3.7-1.4,5.8c0,0.6-0.4,0.8-0.9,0.8c-0.3,0-0.5-0.1-0.7-0.2c-1.4-0.7-3-1.3-3.6-3
				c-0.3-0.9-0.8-1.8-1.8-1.8c-0.1,0-0.2,0-0.3,0c-0.2,0-0.4,0-0.6,0c-0.5,0-1-0.1-1.5-0.1c-0.8,0-1.6,0.2-2.2,1.4
				c-0.6,1.2-1.7,2.1-3.1,2.1c-0.4,0-0.8-0.1-1.3-0.2c-0.6-0.2-1.2-0.4-1.8-0.4c-0.2,0-0.4,0-0.6,0.1c-0.2,0-0.4,0.1-0.5,0.1
				c-0.7,0-1.2-0.3-1.6-0.9c-0.5-0.8,0-1.6,0.2-2.5c0.6-2.2,3.8-3.8,1.6-6.7c-0.1-0.1,0.1-0.4,0.1-0.6c0-2.5,0.5-5-0.2-7.5
				c-0.4-1.2-0.9-1.9-1.5-1.9c-0.5,0-1,0.3-1.7,1c-0.5,0.5-1,0.8-1.5,0.8c-0.3,0-0.6-0.1-0.9-0.3c-0.7-0.4-1.5-0.6-2.3-0.8
				c-1.7-0.4-2.7-1.1-1.8-3.1c0.2-0.5,0.2-1.1-0.3-1.5c-0.2,0-0.4,0-0.5,0c-2.4,0-4.1-1.6-4.7-4.4c-0.5-2.3-2.2-4.4-1.7-6.9
				c0-0.1-0.2-0.4-0.3-0.5C187.2,43.9,185.2,43.4,185.2,40.9L185.2,40.9z"/>
		</g>
	</g>
</g>
<g>
	
		<ellipse transform="matrix(0.6003 -0.7998 0.7998 0.6003 -117.2148 251.5613)" class="st8" cx="193.1" cy="243" rx="24.3" ry="44.3"/>
	
		<ellipse transform="matrix(0.6165 -0.7874 0.7874 0.6165 -113.5476 246.1432)" class="st9" cx="195.9" cy="239.6" rx="21.5" ry="44.3"/>
	
		<ellipse transform="matrix(0.6165 -0.7874 0.7874 0.6165 -113.5476 246.1432)" class="st10" cx="195.9" cy="239.6" rx="17.2" ry="35.4"/>
	<path class="st8" d="M183.8,237.2c-0.5,2.3,2.3,5.8,5.8,8.1c2.3,1.4,4.6,1.9,5.9,1.4l0.8-0.3l0.9,0.9c0.9,0.9,2,1.8,3.2,2.4
		c3.7,2.3,7,2.1,7.3-0.1l0.1-0.8l3.8,2.4c0.8,0.5,1.5,0.5,1.6,0c0.1-0.5-0.5-1.3-1.3-1.8l-3.8-2.4l0.6-3l3.8,2.4
		c0.8,0.5,1.5,0.5,1.5,0c-0.1-0.8-0.6-1.4-1.3-1.8l-3.8-2.4l0.5-2.4c0.1-0.5-0.5-1.3-1.3-1.8c-0.8-0.5-1.5-0.5-1.5,0l-0.5,2.4
		l-18-10.7l0.5-2.4c0.1-0.5-0.5-1.3-1.3-1.8c-0.8-0.5-1.5-0.5-1.5,0l-0.5,2.4l-3.8-2.4c-0.8-0.5-1.5-0.5-1.6,0
		c-0.1,0.5,0.5,1.3,1.3,1.8l3.8,2.4l-0.6,3.2l-3.8-2.4c-0.8-0.5-1.5-0.5-1.5,0c0.1,0.8,0.6,1.4,1.3,1.8l3.8,2.4L183.8,237.2z
		 M206,242.5l-1,5.6c-0.3,1.3-2.1,1.3-4.2,0.1c-2.1-1.1-3.7-3.4-3.4-4.7l1-5.6L206,242.5z M188.1,231.6l7.5,4.6l-1.3,7.2
		c-0.3,1.3-2.1,1.3-4.2,0.1c-2-1.1-3.7-3.3-3.4-4.7L188.1,231.6z"/>
</g>
<g>
	<ellipse transform="matrix(0.9711 -0.2388 0.2388 0.9711 -8.6466 13.445)" class="st11" cx="51.2" cy="42.4" rx="43.1" ry="20.8"/>
	<ellipse transform="matrix(0.9711 -0.2388 0.2388 0.9711 -7.8433 13.3709)" class="st12" cx="51.2" cy="39" rx="42.2" ry="19.3"/>
	<ellipse transform="matrix(0.9711 -0.2388 0.2388 0.9711 -7.8433 13.3709)" class="st13" cx="51.2" cy="39" rx="33.8" ry="15.5"/>
	<path class="st14" d="M58.9,37.5l9.3-1.3c-0.3-1-0.5-1.8-0.6-2.7C67.5,33,67,33,66.2,33.2c-3,0.3-6,0.7-9.1,1.2
		c-2,0.3-3,0.1-3.8-0.6c-1-0.8-1.3-0.9-3.7,0l1.5,1.2c-3.3,0.5-6.2,0.7-9.3,1.3l2.3,9.4c0.1,0.2,0.2,0.3,0.7,0.2
		c1.4-0.2,2.9-0.3,4.5-0.4L47.9,39c1.8-0.2,3.3-0.4,5-0.6c2-0.4,3.2-0.2,4,0.6c1,0.9,1.1,0.8,3.7,0L58.9,37.5z"/>
</g>
<g>
	<ellipse class="st15" cx="360.7" cy="258.1" rx="29.8" ry="34.2"/>
	<ellipse class="st16" cx="357.1" cy="257" rx="28.7" ry="33.2"/>
	<ellipse class="st15" cx="357.1" cy="257" rx="23" ry="26.6"/>
	<path class="st16" d="M362.1,241.6c3.1,0,5.5,2.6,5.6,6.3c0.1,3.4-2.1,6.2-4.8,6.6c-0.4,0.1-0.8,0.1-1.2,0.1
		c-1.3-0.1-2.3,0.8-2.4,2v0.4c0,1.5,0.9,2.6,2.3,2.5c2.8-0.1,5.1,1.9,5.8,5c0.6,2.4-0.1,4.8-1.9,6.5c-1.4,1.6-3.9,2-5.8,0.9
		c-2.1-1-3.2-2.9-3.4-5.6c-0.1-1.3,0.2-2.5,0.7-3.6c0.4-0.9,0.3-2.1-0.5-2.8c-0.6-0.7-1.6-0.8-2.4-0.4c-0.3,0.3-0.6,0.5-0.8,0.9
		c-1.4,2.3-3.4,3.3-5.8,2.7c-2.4-0.6-3.9-2.4-4.4-5.2c-0.8-4,2.3-7.9,5.8-7.6c2.3,0.2,3.9,1.5,4.9,3.9c0.3,1,1.4,1.6,2.4,1.3
		c0.1,0,0.1,0,0.1-0.1c0.1-0.1,0.2-0.1,0.3-0.1c1.1-0.7,1.6-2.2,0.9-3.4c-0.6-1.1-0.9-2.3-1-3.4
		C356.4,244.6,358.8,241.7,362.1,241.6z"/>
</g>
<g>
	<path class="st17" d="M78.6,251.6c1.9,0.5,3.9,1.1,5.7,1.9l0.4,0.1c0.2,0.2,0.5,0.4,0.8,0.5l0.2,0.1c0.4,0.8,1.6,1.2,2.4,1.9
		c0.5,0.4,0.4,0.9,1.2,1c0.5,1.1,1.5,2.3,2,3.6c-0.1,0.1,0,0.2,0.1,0.3h0.1c0.1,0.8,0.2,1.6,0.5,2.4c0,0-0.4,0.1-0.1,0.2
		c-0.1,2-0.6,4-1.4,5.9c-1,1.2-1.7,3.1-3,4.3c-9.8,12.7-43.3,19.2-51.8,4.3c0.1-0.2-0.3-0.2-0.3-0.5c0-0.3,0.2-0.4-0.1-0.5
		c-0.9-0.9-0.5-3.5-0.8-4.4c0.1-0.3,0.1-0.6,0-0.9c0.2-0.5,0.2-1.1,0.6-1.5c0.3-1.2,0.7-2.3,1.2-3.4c0.3-0.3,0.5-0.6,0.7-1
		c1.4-2,3-3.7,4.9-5.2c0.1-0.4,0.8-0.4,0.7-0.9c0.1,0.1,0.2,0,0.3-0.1v-0.1c2.1-1.4,4.7-2.9,7-4.3c0.2,0,0.5-0.1,0.6-0.3
		c3.9-1.5,8-2.8,12.1-3.7c0.5,0.1,1.1,0,1.5-0.3c1.2,0,2.4-0.1,3.6-0.4c0.2,0,0.4,0.2,0.5-0.1c1.1,0.3,2.5-0.1,3.7,0.1
		c0.3-0.3,0.7,0.2,1-0.2c0.2,0.1,0.2-0.1,0.4-0.1c0.1,0.5,0.5,0.2,0.8,0.2C75.4,251.4,76.9,251,78.6,251.6z M85.7,269.8
		c5.6-9.3-3.9-15.2-11.8-16.1c-20-2.1-39.9,12.3-33.6,22.9c3,5.9,11,6.8,17.1,7.1c10.6-0.7,22.1-4.3,28.2-13.5L85.7,269.8z"/>
	<path class="st18" d="M85.6,270.2c-6.1,9.3-17.7,12.8-28.2,13.5c-6-0.3-14.1-1.2-17.1-7.1c-0.5-3,0.1-6,1.7-8.6
		c5.1-6.8,12-9.3,19.1-11.5c3.5-0.2,7.4-1.3,11-0.6c7.5,0.1,17,5.2,13.6,13.8C85.5,269.7,85.2,270.1,85.6,270.2z M63.7,263.1
		C64,263.2,63.9,262.6,63.7,263.1c-4.3,0.2-8.5,0.7-12.9,1.1l5.4,6.7c0.4-1.6,0.6-3.4,0.9-4.9C59.4,265.1,61.5,264.2,63.7,263.1z
		 M68,262.5c-3.1,0.9-6.3,2.7-9.5,3.9c-0.3,0.9-0.5,1.9-0.6,2.9c-0.3,1.2-0.5,2.4-0.7,3.6c0.2,0.2,0.4-0.1,0.6,0
		c6.3-0.3,12.9-0.5,19.3-1.1C74.2,268.8,71.3,265.1,68,262.5z"/>
	<path class="st18" d="M92.6,264.8l-0.1,0.2c0,1.2,0.2,2.4,0.6,3.6c-0.2,0.5,0.1,1.1-0.2,1.6c0.1,1.9-1,3.7-1.6,5.6
		c-1.5,2-3.1,4-4.9,5.8c-0.1,0-0.2,0-0.2,0.1v0.1c-1.2,0.6-2.4,2.1-3.8,2.7c-1.2,0.9-2.8,1.2-3.6,2.3c-0.1-0.1-0.2,0-0.3,0.1v0.1
		c-0.4-0.2-0.8,0-1,0.4c-0.1,0-0.2,0-0.3,0.2c-0.4-0.2-0.8,0-1,0.4c-0.1-0.1-0.2,0-0.3,0.2c-0.1-0.1-0.2,0-0.3,0.1v0.1
		c-0.3-0.1-0.5,0-0.7,0.2l0,0c-0.5-0.1-0.6,0-0.8,0.5c-3.2,0.7-6.6,1.9-10,2.5c-0.8,0.1-2.5-0.1-3.1,0.5c-1.5-0.3-3.4,0.3-5.1-0.1
		c-0.4,0.3-0.8-0.2-1.1,0.1c-4-0.5-8.1-1.1-11.6-3c-1.2-0.6-2.4-1.8-3.7-2.4c0-0.5-0.5-0.7-1-1.2c-1.5-2.1-2.4-4.6-2.6-7.2
		c9.4,15.6,43.1,7.4,51.7-4.5c1.3-1.1,2.1-2.9,3-4.3c0.8-1.9,1.3-3.9,1.4-5.9c0.5,0.3,0.3,0.9,0.4,1.3L92.6,264.8z"/>
	<path class="st19" d="M85.7,269.8c3.4-9-6.6-13.6-13.6-13.8c-3.6-0.7-7.4,0.4-11,0.6c-7.6,2.2-14.4,5.2-19.1,11.5
		c-1,1.8-1.7,3.8-2,5.8c-0.1,1,0.5,1.7,0.2,2.8c-2.5-3.9-0.6-8.5,2.1-11.9c7.9-9.1,21.7-12,31.5-11
		C84.6,255.1,90.4,262.3,85.7,269.8z"/>
	<path class="st19" d="M85.6,270.2c-0.1,0-0.2-0.2-0.2-0.3c0-0.1,0.2-0.2,0.3-0.2L85.6,270.2z"/>
	<path class="st17" d="M68.1,262.5c3.2,2.6,6,6.2,9.2,9.2c-6.2,0.6-12.9,0.8-19.3,1.1c2-1.7,5.4-3,7.9-4.3
		C66.6,266.6,67.3,264.6,68.1,262.5z"/>
	<path class="st20" d="M68.1,262.5c-0.7,2-1.5,3.9-2.2,6.1c-2.5,1.3-5.7,2.5-7.9,4.3c-0.2-0.1-0.4,0.3-0.6,0
		c0.2-1.2,0.4-2.4,0.7-3.6c0.1-1,0.3-2,0.6-2.9C61.7,265.3,65,263.4,68.1,262.5z"/>
	<path class="st17" d="M63.7,263.2l-6.6,2.8c-0.3,1.4-0.5,3.2-0.9,4.9l-5.4-6.7C55.2,263.9,59.4,263.3,63.7,263.2z"/>
</g>
<path class="st21" d="M269.1,178.9c7.2,7,7.3,18.5,0.3,25.7l0,0l-0.3,0.3c-7.2,7.2-18.9,7.3-26.1,0.1s-7.3-18.9-0.1-26.1
	c7.2-7.2,18.9-7.3,26.1-0.1L269.1,178.9z M263.1,198.9c1.9-1.8,2.9-4.4,2.9-7c0.1-2.6-1-5.1-2.9-6.9c-1.9-1.9-4.4-2.9-7.1-2.8
	c-5.3-0.1-9.7,4.2-9.8,9.5v0.2c0,2.6,1,5.1,2.8,7c1.8,1.9,4.3,2.9,6.9,2.9C258.6,201.9,261.2,200.8,263.1,198.9z M305.3,181.2
	l-47.7,74.1c-0.8,1.5-2.4,2.5-4.1,2.4c-2.7-0.1-4.9-2.3-5-5c0.1-1,0.4-2,0.9-2.9l47.8-74.2c0.8-1.5,2.4-2.5,4.1-2.4
	c1.4,0,2.7,0.5,3.6,1.5c1,0.9,1.5,2.3,1.4,3.6C306.2,179.3,305.9,180.3,305.3,181.2L305.3,181.2z M285.5,252.3
	c-7.2-7.2-7.2-18.8,0-26l0.1-0.1c3.4-3.4,8.1-5.3,12.9-5.4c10.2-0.1,18.4,8.1,18.5,18.3s-8.1,18.4-18.3,18.5
	C293.8,257.8,289,255.8,285.5,252.3z M291.5,232.3c-3.9,3.7-4,9.8-0.3,13.7l0.1,0.1l0.2,0.2c3.8,3.8,9.9,3.9,13.7,0.1
	c2-1.9,3-4.6,2.9-7.4c-0.2-5.2-4.4-9.4-9.6-9.6C295.9,229.4,293.4,230.5,291.5,232.3L291.5,232.3z"/>
</svg>
