<?xml version="1.0" encoding="utf-8"?>
<!-- Generator: Adobe Illustrator 24.3.0, SVG Export Plug-In . SVG Version: 6.00 Build 0)  -->
<svg version="1.1" id="Layer_1" xmlns="http://www.w3.org/2000/svg" xmlns:xlink="http://www.w3.org/1999/xlink" x="0px" y="0px"
	 viewBox="0 0 685.1 451.4" style="enable-background:new 0 0 685.1 451.4;" xml:space="preserve">
<style type="text/css">
	.st0{fill:#BFAE95;}
	.st1{fill:#787772;}
	.st2{fill:#49807B;}
	.st3{fill:#715B52;}
	.st4{fill:#5A4740;}
	.st5{fill:#45140D;}
	.st6{fill:#C3A031;}
	.st7{fill:#A38678;}
	.st8{fill:#B69531;}
	.st9{fill:#6D584E;}
	.st10{fill:#796356;}
	.st11{fill:#518885;}
	.st12{fill:#DDDEDA;}
	.st13{fill:#BCBAB8;}
	.st14{fill:#B3B0A9;}
	.st15{fill:#C4C4C6;}
	.st16{fill:#801614;}
	.st17{fill:#D8B144;}
	.st18{fill:#6E6D69;}
	.st19{fill:#D0D1CE;}
	.st20{fill:#F5F5EF;}
	.st21{fill:#EEEEE2;}
	.st22{fill:#D0D07D;}
	.st23{fill:#B3AEA8;}
	.st24{fill:#F2F3E5;}
	.st25{fill:#91908A;}
	.st26{fill:#BFA161;}
	.st27{fill:#C4C4C4;}
	.st28{fill:#C5A84F;}
	.st29{fill:#208277;}
	.st30{fill:#497775;}
	.st31{clip-path:url(#SVGID_2_);fill:#002B7F;}
	.st32{clip-path:url(#SVGID_4_);fill:#CE1126;}
	.st33{fill:#FFD83D;}
</style>
<rect class="st0" width="685.1" height="451.4"/>
<path class="st1" d="M532.5,293.4h3.8H532.5z"/>
<path class="st1" d="M562.3,293l1,0.4h-1.9C561.7,293.2,562,293.1,562.3,293z"/>
<path class="st1" d="M543.5,293.4c0.3-0.1,0.6-0.1,0.9,0H543.5z"/>
<path class="st1" d="M538.6,293.5c0.2-0.1,0.5-0.1,0.8,0l-0.4,0.2L538.6,293.5z"/>
<path class="st2" d="M571.6,272.1l-3.3-8L571.6,272.1z"/>
<path class="st1" d="M538.5,235.2l0.7,3L538.5,235.2z"/>
<path class="st1" d="M535.2,228c-0.2-1-0.4-2-0.7-3C534.8,226,535,227,535.2,228z"/>
<path class="st3" d="M194.9,314.6l-9.3-6.4h-0.1l-2.9,3l0,0l-5.6,9.2l7.2,5l0,0l1.2,0.9l0,0l5.2,3.3v-0.1l3.4,2.7l-0.4,2.7l2.6-0.5
	c1.1-4.4,2.2-8.7,3.3-13L194.9,314.6z"/>
<path class="st4" d="M188.3,332.2l-1.8,1.9c0,0,5.5,1.4,7.2,1.2l1.9,1.1l1.2-3.5l-2.6-1l-5.8-2.1L188.3,332.2z"/>
<path class="st5" d="M167.1,419.6c-0.7-0.2-1.4-0.5-2.1-0.8c-0.3-0.7-0.5-1.4-0.6-2.1c-0.6-3.8-4.9-39,0.7-39h-12.6
	c-22.1,0-44.2-0.1-66.3-0.2c-8.6,0-17.1,0-25.7,0H47.6h-6.4c-1.5,0-4.4-0.5-5.7,0.2c-0.2,0.1-0.3,0.3-0.4,0.5
	c-4.1,5.9-6.4,12.9-6.4,20.1c0,3.6,0.6,7.2,1.5,10.7c0.5,1.9,1.1,3.7,1.8,5.5c0.6,1.6,0.9,4.8,2.7,5.5c0.6,0.2,1.3,0.3,2,0.2
	c22.3-0.6,44.7,0,67,0h8.1c17.9,0,35.8,0.1,53.8,0.1h0.2l-0.1-0.1h1.1C166.8,420,166.9,419.8,167.1,419.6z"/>
<path class="st6" d="M51.4,377.8l1.4-0.2l1,0.4c-8.6,7.1-9,33.4-0.5,41.9l-0.9,0.5l-1.9-0.6C42.4,405.5,41.5,391.5,51.4,377.8z"/>
<path class="st5" d="M51.4,377.8c-9.9,13.8-9,27.7-0.9,41.9h-2l-2.8-2.5c-4.6-11.2-4.2-22.7-1.1-34.2l4.3-5L51.4,377.8z"/>
<path class="st7" d="M166.5,256.4l1.4-0.1l9.6,7.4l1.5,1.1l5.7,4.2l9.3,7l0.9,0.7c0.7,0.9,1.4,1.8,2.1,2.7L166.5,256.4z"/>
<path class="st4" d="M52.4,420.3L52.4,420.3l-3.8-0.3l-0.2-0.3h2L52.4,420.3z"/>
<path class="st1" d="M42.4,420.1c0.3,0.2,0.7,0.3,1,0.5L42.4,420.1z"/>
<path class="st8" d="M189.8,297.5l-3.9,5.5l-17.6,23.8c-1.1,1.5-2.3,3.1-3.4,4.6l-2.9,3.5l-1.3,0.3l0,0l-5.1-3.9l0,0l-3-2.1l0,0
	l-3-2.3v-0.2l29.1-38.6l7.8,5.4l0.9,0.7C188.2,295.3,189,296.4,189.8,297.5z"/>
<path class="st9" d="M159.2,266.9l1.7-1.5l-1.5-5l7.4,4.2l0,0l1.5,1l0,0l1.5,1l0,0l1.5,1l0,0l5.1,4l0,0l2.9,2l0,0l5.1,4l0,0l1.5,1
	l0,0l1.5,1l0,0l1.5,1l0,0l4.4,3.1l0,0l1.5,1l0,0l1.5,1l0,0c1.5,1.5,2.9,3.1,4.4,4.6L198,290l-3-0.5l-0.2-0.2l0.1,0.3
	c0.7,0.8,1.4,1.5,2.1,2.3l-1.7,1.6l-2.2-1.1l-2.4-1.4l-5.1-3.9l-1.4-1l-1.4-1l-0.8-0.8l-4.3-3.1l-1.5-1l-0.8-0.8l-1.4-1.1l-1.4-1
	l-5.8-4.1l-0.8-0.8L159.2,266.9z M184.4,281.6l1.5,1l1.5,1l0.2,0.2l-0.1-0.2l-1.5-1L184.4,281.6l-1.4-1l-5.9-4.1l-1.5-1l-0.7-0.9
	l-2.9-2.1c-1.6-1.3-3.1-2.7,0.4,0.4c-4.1-2.1-2.4-1.2-0.5-0.3l2.9,2l0.7,0.9l1.4,1l5.9,4.1L184.4,281.6z M191,286.6
	c0.2,0.2,0.4,0.3-0.5-0.4c1.1,0.6,0.9,0.5,0.6,0.3c0-0.5-0.1-1,0,0.1C190.2,286.1,190.6,286.4,191,286.6L191,286.6z"/>
<path class="st10" d="M166.5,256.4l30.5,23l0,0l6.6,6l-2.3,3.5l-5.3-3.2l0,0l-1.5-1l0,0l-1.5-1l0,0l-4.4-3.1l0,0l-1.5-1l0,0l-1.5-1
	l0,0l-1.5-1l0,0l-5.1-4l0,0l-2.9-2l0,0l-5.1-4l0,0l-1.5-1l0,0l-1.5-1l0,0l-1.5-1l0,0l-5-4.8l2.9-3.6l1.7,0.2H166.5z"/>
<path class="st9" d="M168.2,326.8l17.6-23.8c-0.1,1.3-0.3,2.6-0.4,3.9l-2.8,4.3l0,0c-4.2,3.9-8.9,7.4-9.4,13.8L168.2,326.8z"/>
<path class="st4" d="M194.7,298.2l-3.6-0.5l-0.1,0.1l-1.2-0.1v-0.2c-0.8-1.1-1.6-2.2-2.4-3.3l0.1-0.1l7.6,2.7l0.2,0.3L194.7,298.2z"
	/>
<path class="st7" d="M196.9,279.3l2.4,0.4l4.3,5.6L196.9,279.3z"/>
<path class="st10" d="M197.7,290l2.7,0.3l1.7,0.3c-0.4,2.4-1.6,3.2-3.9,2L197.7,290z"/>
<path class="st7" d="M202.1,290.6l-1.7-0.3c-1.5-1.5-2.9-3.1-4.4-4.6l5.2,3.2L202.1,290.6z"/>
<path class="st7" d="M192.6,292.4l2.2,1.1l0.4,3.7l-0.2-0.3l-2.7-4.2L192.6,292.4z"/>
<path class="st4" d="M182.6,311.1l2.8-4.3l0.1,1.3L182.6,311.1z"/>
<path class="st4" d="M197.7,290l0.5,2.6l-1.6-0.8c-0.7-0.8-1.4-1.5-2.1-2.3l0.1-0.1L197.7,290z"/>
<path class="st11" d="M189.8,297.6l1.2,0.1L189.8,297.6z"/>
<path class="st10" d="M141.6,343.2l-27.3-19.6l3.6-4.9l5.9,3.4l2.2,1.9l2.2,1.2l1.4,1l2.9,2.8l9.5,7l1.4,1l4.4,3.1
	c1.9,2.5,0.3,3.7-1.6,4.7L141.6,343.2z"/>
<path class="st8" d="M128.8,310.7l28.5-38.4l3.3,2.5l-28.5,38.8h-0.3l-2.4-1.3l0,0L128.8,310.7z"/>
<path class="st4" d="M123,316l0.6-5.5l2.6,0.4c0.2,0.1,0.4,0.1,0.6,0.2l-2.8,1.7l39.7,26.9l-5.4,2.3l-1.7-0.4l-1.4-1l-0.8-0.8
	l-5.8-4.1l-0.9-0.8l-2-1.3l-0.9-0.8l-2-1.4l-5.1-3.9l-0.9-0.7l-1.4-1l-2-1.4l-5.1-3.8l-0.8-0.8l-2-1.3l-0.8-0.8L123,316z"/>
<path class="st4" d="M141.6,343.2l4.6,1.5c1.9-1,3.5-2.1,1.6-4.7l0.1-0.1l13.1,6.8l-5,2.4l-2.2,3l-0.9-0.2l-1.1-0.8l-2.8-2.6l5,0.7
	l-3-3.7l-2,3l-7-4.4L141.6,343.2z"/>
<path class="st7" d="M159.2,266.9l6.6,5.5l-0.2,0.1l-9-5l-0.9-0.4L159.2,266.9z"/>
<path class="st4" d="M123.8,322c-2-1.1-4-2.3-5.9-3.4c-0.1-1.2-0.1-2.3-0.2-3.5c0.2,0.1,0.5,0.2,0.7,0.4l5.6,6.4L123.8,322z"/>
<path class="st4" d="M159.4,260.3l1.5,5L160,265l-1.5-5.1L159.4,260.3z"/>
<path class="st7" d="M118.4,315.5c-0.2-0.1-0.5-0.2-0.7-0.4l5.4,0.9l1.7,1.8l-0.5,0.4L118.4,315.5z"/>
<path class="st4" d="M160.6,274.8l-3.3-2.5l-0.5-0.9l0.2-0.2l5,4l-0.1,0.1L160.6,274.8z"/>
<path class="st4" d="M155.7,267.1l0.9,0.4l0.4,3.6l-0.2,0.2C156.4,270,156.1,268.5,155.7,267.1z"/>
<path class="st7" d="M127,311.2c-0.2-0.1-0.4-0.2-0.6-0.2l-1.5-1.6l4.1,1.3l0.6,1.6L127,311.2z"/>
<path class="st3" d="M124.7,309.4l1.5,1.6l-2.6-0.4L124.7,309.4z"/>
<path class="st3" d="M69.4,377.6c-0.2,0-0.4,0-0.5-0.1l-0.2-0.9c1.4-7-3.2-15.4,4.9-20.8l31.8,0.1c-0.3,6.9-0.6,13.8-0.8,20.6
	c-0.2,0.1-0.5,0.1-0.7,0.1l-18.4,0.8c-0.2,0.1-0.5,0.2-0.7,0.1l-2.8-0.1h-2l-1.9,0.1h-6.9L69.4,377.6z"/>
<path class="st3" d="M95.9,353.5l-22.2,0.1c0-1.4,0-2.7,0-4c0.2,0,0.4,0,0.6,0.1l20.9,1.1L95.9,353.5z"/>
<path class="st3" d="M186.2,377.6c0.2,0,0.4,0,0.5-0.1l0.2-0.9c-1.4-7,3.2-15.4-4.9-20.8l-31.8,0.1c0.3,6.9,0.6,13.8,0.8,20.6
	c0.2,0.1,0.5,0.1,0.7,0.1l18.5,0.8c0.2,0.1,0.4,0.2,0.7,0.1l2.8-0.1h1.8l1.9,0.1h6.9L186.2,377.6z"/>
<path class="st3" d="M158.1,353.5l23.8,0.1c0-1.4,0-2.7,0-4c-0.2,0-0.4,0-0.7,0.1l-22.4,1.1L158.1,353.5z"/>
<path class="st6" d="M44.6,383c-3.1,11.5-3.5,22.9,1.2,34.2C39,406,39.2,394.6,44.6,383z"/>
<path class="st7" d="M159.4,260.3l-0.8-0.4c0-0.2,0-0.4,0-0.5l3.3,0.4l5,4.8L159.4,260.3z"/>
<path class="st10" d="M120.9,349.5v-0.1l-46.5,0.2l20.9,1.1l0.6,2.7h25.5C121.1,352.2,120.9,350.9,120.9,349.5z"/>
<path class="st5" d="M220,417.4c-0.1,0.5-0.1,1.1-0.2,1.6l-1.1,0.6c-1.7-0.5-3.5-1.6-5.2-1.6c-39.4-0.1-78.8-0.1-118.1-0.1
	c-1.7,0-3.3-0.9-5-1.3c0.2,0,0.4,0,0.6-0.1c1.5,0.3,3,0.6,4.6,0.7C137,417.3,178.5,417.4,220,417.4z"/>
<path class="st12" d="M91,416.6c-0.2,0-0.4,0.1-0.6,0.1l-1.3-1.3l0.4-0.4h2.4c22.4,0.3,44.7,0.5,67.1,0.8l58,0.7L91,416.6z"/>
<path class="st13" d="M91,416.6l126-0.2l2.9,1c-41.5,0-82.9-0.1-124.4-0.2C94,417.1,92.5,416.9,91,416.6z"/>
<path class="st14" d="M91.9,414.9h-2.4c0-0.2,0-0.5,0-0.7h124.6v0.7H91.9z"/>
<path class="st13" d="M214.6,412.5c-20.2,0.3-40.4,0.6-60.7,0.8c-21.5,0.1-43,0-64.5,0c0-0.3,0-0.6,0-0.9l124.2,0.1H214.6z"/>
<path class="st12" d="M89.5,412.4c0,0.3,0,0.6,0,0.9v0.9c0,0.2,0,0.5,0,0.7l-0.4,0.4c-1.2-3-2.3-6.1-3.5-9.2l3.9,5.6
	C89.5,412,89.5,412.1,89.5,412.4z"/>
<path class="st15" d="M214.6,412.5h-0.9l-0.9-1.1l0.8-0.5l1,0.1l0.9,1.6L214.6,412.5z"/>
<path class="st4" d="M218.7,419.6l1.1-0.6c0.1,0.4,0.3,0.8,0.4,1.2l-0.8,0.3l-1-0.4C218.5,420,218.6,419.8,218.7,419.6z"/>
<path class="st16" d="M218.7,419.6c-0.1,0.2-0.2,0.3-0.3,0.5l-32.5-0.1h-6.4H95.8h-5.4h-0.9h-2.9l-0.6-0.5
	c-6.7-14.2-8.5-28.2,1.3-41.9l16.7-0.4l47.8,0.1l1.3,0.5c0.1,0.4,0.3,0.7,0.4,1.1l-1.5,0.6h-1.2l-60.3,0.6c0,0.1,0,0.3,0.1,0.4
	l-3.6,5.2c-0.4,1.7-0.8,3.4-1.2,5.1c-0.2,1.6-0.4,3.1-0.7,4.7c0.1,2.6,0.2,5.2,0.3,7.7l0.4,2.7c1.2,3.1,2.3,6.1,3.5,9.2l1.3,1.3
	c1.7,0.5,3.3,1.3,5,1.3c39.4,0.1,78.7,0,118.1,0.1C215.2,418.1,217,419.1,218.7,419.6z"/>
<path class="st4" d="M179.5,420.1h6.4H179.5z"/>
<path class="st4" d="M89.4,420.1h0.9H89.4z"/>
<path class="st4" d="M95.8,420.1L95.8,420.1z"/>
<path class="st17" d="M178.7,288.1l-29.1,38.6l-1.2-0.5l-3-2.1l0,0l-2.5-2.4l-1.1-0.4l-1.6-1.1l0,0c0.1-0.2,0.1-0.4,0.1-0.7
	c1.4-1.1,2.7-2.2,3.9-3.5c8.8-11.2,17.5-22.5,26.1-33.9L178.7,288.1z"/>
<path class="st3" d="M162.3,336.2l1.6,3.6l-39.7-26.9l2.8-1.7l2.4,1l0,0l2.4,1.3h0.3c0,0.2,0.1,0.4,0.2,0.6l0.9,0.9
	c0.2,0,0.4,0.1,0.5,0.2l2.4,1.9l1.2,1l3,2.1l0,0l1.6,1.1l1.1,0.4l2.5,2.4l0,0l3,2.1l1.2,0.5v0.2l3,2.3l0,0l3,2.1l0,0l5.1,3.9l0,0
	L162.3,336.2z"/>
<path class="st4" d="M178.7,288.1l-8.2-6l-4.2-2.9l-4.4-4l0.1-0.1l24.8,18l-0.4,0.3L178.7,288.1z"/>
<path class="st7" d="M160.7,335.3l-5.1-3.9L160.7,335.3z"/>
<path class="st7" d="M152.6,329.3l-3-2.3L152.6,329.3z"/>
<path class="st7" d="M155.6,331.4l-3-2.1L155.6,331.4z"/>
<path class="st7" d="M162.3,336.2l-1.7-1l1.3-0.3L162.3,336.2z"/>
<path class="st4" d="M187.4,294.2l-0.9-0.7l0.4-0.3l0.6,0.9L187.4,294.2z"/>
<path class="st4" d="M172.1,272.6c-1.8-0.9-3.6-1.9,0.5,0.3c-3.5-3-2-1.7-0.4-0.4L172.1,272.6z"/>
<path class="st7" d="M166.6,273.2l5.8,4.1l-0.4,0.4l-5.8-4.2L166.6,273.2z"/>
<path class="st4" d="M183,280.6l-5.9-4.1l0.1-0.1L183,280.6L183,280.6z"/>
<path class="st7" d="M179.2,273.6l5.1,4L179.2,273.6z"/>
<path class="st7" d="M171.2,267.6l5.1,4L171.2,267.6z"/>
<path class="st7" d="M185.4,287.2l5.1,3.9l-0.3,0.4l-5.1-3.9L185.4,287.2z"/>
<path class="st7" d="M177.5,281.2l4.3,3.1l-0.4,0.3l-4.3-3.1L177.5,281.2z"/>
<path class="st7" d="M188.6,280.6l4.4,3.1L188.6,280.6z"/>
<path class="st4" d="M172.2,272.5l2.9,2.1H175l-2.9-2L172.2,272.5z"/>
<path class="st7" d="M176.2,271.6l2.9,2L176.2,271.6z"/>
<path class="st7" d="M190.6,291l2.1,1.3l-0.2,0.2l-2.2-1.2L190.6,291z"/>
<path class="st4" d="M191,286.6c-0.4-0.2-0.7-0.5,0.1,0.1c-0.1-1.2,0-0.7,0-0.1H191z"/>
<path class="st7" d="M184,286.1l1.4,1l-0.3,0.3l-1.4-1L184,286.1z"/>
<path class="st4" d="M191.1,286.5c0.2,0.1,0.4,0.2-0.6-0.3c1,0.7,0.8,0.6,0.5,0.4L191.1,286.5z"/>
<path class="st7" d="M182.6,285.1l1.4,1l-0.3,0.3l-1.4-1L182.6,285.1z"/>
<path class="st4" d="M186,282.6l1.5,1l0,0L186,282.6L186,282.6z"/>
<path class="st7" d="M193,283.6l1.5,1L193,283.6z"/>
<path class="st7" d="M194.5,284.7l1.5,1L194.5,284.7z"/>
<path class="st7" d="M166.8,264.5l1.5,1L166.8,264.5z"/>
<path class="st7" d="M168.2,265.6l1.5,1L168.2,265.6z"/>
<path class="st7" d="M169.7,266.6l1.5,1L169.7,266.6z"/>
<path class="st4" d="M177.1,276.6l-1.4-1h0.1L177.1,276.6L177.1,276.6z"/>
<path class="st7" d="M184.2,277.5l1.5,1L184.2,277.5z"/>
<path class="st7" d="M185.7,278.6l1.5,1L185.7,278.6z"/>
<path class="st7" d="M172.4,277.3l1.4,1l-0.3,0.4l-1.5-1L172.4,277.3z"/>
<path class="st7" d="M187.2,279.6l1.5,1L187.2,279.6z"/>
<path class="st7" d="M173.8,278.3l1.4,1.1l-0.2,0.2l-1.5-0.9L173.8,278.3z"/>
<path class="st4" d="M184.4,281.6l-1.5-1l0.1-0.1L184.4,281.6L184.4,281.6z"/>
<path class="st7" d="M176,280.2l1.5,1l-0.4,0.3l-1.4-1.1L176,280.2z"/>
<path class="st4" d="M185.9,282.6l-1.5-1l0.1-0.1L185.9,282.6L185.9,282.6z"/>
<polygon class="st4" points="194.5,289.5 194.4,289.2 194.7,289.4 "/>
<path class="st7" d="M181.8,284.3l0.8,0.8l-0.3,0.3l-0.8-0.8L181.8,284.3z"/>
<path class="st7" d="M165.7,272.4l0.8,0.8l-0.4,0.3c-0.2-0.3-0.4-0.6-0.6-0.9L165.7,272.4z"/>
<path class="st4" d="M175.1,274.6l0.7,0.9h-0.1L175.1,274.6L175.1,274.6z"/>
<path class="st4" d="M187.4,283.6l0.2,0.3L187.4,283.6z"/>
<path class="st7" d="M175.2,279.4l0.8,0.8l-0.3,0.3l-0.7-0.8L175.2,279.4z"/>
<path class="st4" d="M202.3,326l3.9,2.6l-0.4,0.4l-4.8-1.7c-0.5,1.9-0.9,3.6-1.4,5.6l10.9,8.9c0.7-3,1.1-5,1.6-6.9l0.4,10.8
	c0.1,0.4,0.1,0.9,0.2,1.3l0.4,1.9l-0.1,1.2l-15.6-12.4l0.8-4.8l0.2-0.8l2.2-7L202.3,326z"/>
<path class="st5" d="M202.3,326l-1.8-1.1c0.1-0.3,0.2-0.6,0.3-0.9L202.3,326z"/>
<path class="st7" d="M198.4,331.9l-0.2,0.8L198.4,331.9z"/>
<path class="st9" d="M196,335.5c0.1-0.2,0.2-0.5,0.3-0.7C196.2,335,196.1,335.3,196,335.5z"/>
<path class="st4" d="M174.2,326.1l-1-1.2c0.4-6.4,5.2-9.9,9.4-13.8l-5.6,9.2l8.5,5.8l-2.5,4.5l-1.6,0.5L174.2,326.1z"/>
<path class="st10" d="M105.4,355.9l50,1.5l-2.2,8.1l0,0c-0.8,1.9-1.6,3.8-2.4,5.7c0.5,1.8,1,3.6,1.5,5.4h-47.8
	C104.9,369.7,105.1,362.8,105.4,355.9z"/>
<path class="st3" d="M159.5,351.1l18.1-0.9c-6.1,2.6-12.3,5.7-18.3,1.1L159.5,351.1z"/>
<path class="st4" d="M146.1,349.5l11-0.3l1,0.2l-0.6,2.2L146.1,349.5z"/>
<path class="st9" d="M155.8,360.8c-0.4,1-0.8,2.1-1.1,3.1C155,362.8,155.4,361.8,155.8,360.8z"/>
<path class="st9" d="M175,279.6l0.7,0.8l1.4,1.1l4.3,3.1l0.8,0.8l1.4,1l1.4,1l5.1,3.9l2.2,1.2l2.7,4.2l-7.6-2.7l-0.6-0.9l-24.8-18
	l-5-4l-0.4-3.6l9,5c0.2,0.3,0.4,0.6,0.6,0.9l5.8,4.2l1.5,1L175,279.6z"/>
<path class="st4" d="M142,335.9l-9.5-7l0.1-0.1l9.5,7L142,335.9z"/>
<path class="st4" d="M147.8,340l-4.4-3.1l0.1-0.1l4.4,3L147.8,340z"/>
<path class="st4" d="M132.5,328.9l-2.9-2.8l0.2-0.1l2.8,2.8L132.5,328.9z"/>
<path class="st4" d="M126,323.9l-2.2-1.9l0.1-0.1L126,323.9L126,323.9z"/>
<path class="st4" d="M128.2,325.1l-2.2-1.2l0.1-0.1l2.3,1.1L128.2,325.1z"/>
<path class="st4" d="M129.6,326.1l-1.4-1l0.1-0.2l1.4,1L129.6,326.1z"/>
<path class="st4" d="M143.4,336.9l-1.4-1l0.1-0.1l1.4,1L143.4,336.9z"/>
<path class="st17" d="M162,275.3l4.4,4L139,318.4l-1.6-0.3l-1.2-1l-2.4-1.9c-0.2-0.1-0.3-0.1-0.5-0.2l-0.9-0.9
	c-0.1-0.2-0.2-0.4-0.2-0.6l28.5-38.8L162,275.3z"/>
<path class="st7" d="M131.7,313.5l-2.4-1.3L131.7,313.5z"/>
<path class="st7" d="M148.8,335.7l5.8,4.1l-0.4,0.4l-5.8-4.1L148.8,335.7z"/>
<path class="st7" d="M128.4,320.7l5.1,3.8c-0.1,0.1-0.3,0.3-0.4,0.4L128,321L128.4,320.7z"/>
<path class="st7" d="M137.9,327.6l5.1,3.9c-0.2,0.1-0.3,0.3-0.5,0.5l-5.1-3.9L137.9,327.6z"/>
<path class="st7" d="M158.4,342.1l2.4,2.9l-4.6-2.9l0.4-0.4L158.4,342.1z"/>
<path class="st7" d="M133.5,324.5l2,1.4l-0.3,0.3L133,325C133.2,324.8,133.4,324.6,133.5,324.5z"/>
<path class="st7" d="M125.5,318.6l2,1.3l-0.4,0.3L125,319C125.2,318.9,125.4,318.7,125.5,318.6z"/>
<path class="st7" d="M145.9,333.6l2,1.3l-0.3,0.2l-2.2-1.2L145.9,333.6z"/>
<path class="st7" d="M143,331.5l2,1.4l-0.4,0.4l-2.1-1.3C142.7,331.8,142.8,331.7,143,331.5z"/>
<path class="st7" d="M135.6,325.9l1.4,1l-0.3,0.3l-1.4-1L135.6,325.9z"/>
<path class="st7" d="M155.3,340.6l1.4,1l-0.4,0.4l-1.4-1C155,340.9,155.2,340.8,155.3,340.6z"/>
<path class="st7" d="M124.7,317.8l0.8,0.8c-0.1,0.2-0.3,0.3-0.5,0.4l-0.8-0.8L124.7,317.8z"/>
<path class="st7" d="M127.6,319.9l0.8,0.8L128,321l-0.8-0.8L127.6,319.9z"/>
<path class="st7" d="M145,332.9l0.9,0.8c-0.1,0.1-0.3,0.3-0.5,0.4c-0.3-0.2-0.5-0.5-0.8-0.8L145,332.9z"/>
<path class="st7" d="M147.9,335l0.9,0.8l-0.5,0.4l-0.6-0.9L147.9,335z"/>
<path class="st7" d="M154.5,339.9l0.8,0.8l-0.4,0.4l-0.8-0.8L154.5,339.9z"/>
<path class="st7" d="M137,326.9l0.9,0.7l-0.5,0.4l-0.7-0.9L137,326.9z"/>
<path class="st3" d="M136.7,327.2l0.7,0.9l5.1,3.9l2.1,1.3c0.3,0.3,0.5,0.5,0.8,0.8l2.2,1.2l0.6,0.9l5.8,4.1l0.8,0.8l1.4,1.1
	l4.6,2.9c0,0.6,0.1,1.1,0.1,1.7l-13.1-6.8l-4.4-3l-1.4-1l-9.5-7l-2.8-2.9l-1.4-1L126,324l-2.1-2l-5.6-6.4l5.9,2.7l0.8,0.8l2.2,1.2
	l0.8,0.8l5.1,3.9l2.2,1.2L136.7,327.2z"/>
<path class="st10" d="M149,348.5l2-3l3,3.7L149,348.5L149,348.5z"/>
<path class="st4" d="M69.4,377.6h1.9H69.4z"/>
<path class="st4" d="M78.2,377.6l1.9-0.1c-0.1,0.2-0.1,0.5-0.1,0.8l0,0L78.2,377.6z"/>
<path class="st1" d="M104.6,376.6h47.8c0.1,0.2,0.1,0.5,0.1,0.7l-0.8,0.2l-47.8-0.1v-0.7C104.1,376.6,104.3,376.6,104.6,376.6z"/>
<path class="st18" d="M103.8,376.7v0.7l-16.7,0.4l-1.7-0.2L103.8,376.7z"/>
<path class="st5" d="M80,378.3c0-0.3,0-0.5,0.1-0.8h1.8L80,378.3z"/>
<path class="st19" d="M214.6,410.9l-1-0.1l-2.2-0.6l-107.7-0.1h-15c0-0.2,0-0.5,0-0.8v-0.8c0.2-0.5,0.5-1,0.8-1.5v-0.8l22.3,1.6
	v-2.3l102.1-0.1C214.1,407.1,214.3,409,214.6,410.9z"/>
<path class="st20" d="M213.8,396.5v0.9h-99.9v0.7h99.9v0.9h-99.9v0.7h99.9v0.9h-99.9v0.8h99.9c0,0.2,0,0.5,0,0.7
	c-26.3,0-52.5,0-78.8,0.1c-7.2,0-14.4,0.6-21.6,0.9c0,0.2,0,0.4,0,0.5l-1.4,0.1c-0.4-3.4-0.8-6.8-1.2-10.2l1.1-0.1l0,0v0.8
	c1.6,0.4,3.3,0.6,5,0.8c32.3,0.1,64.7,0.1,97,0.1v0.8H113.7v0.7L213.8,396.5z"/>
<path class="st4" d="M292.1,405.1c-0.3,1.9-0.7,3.8-1,5.7l-4-2.5l-0.9-0.8l-2.1-1.6l-3-2.2l-3.4-2.5l-22-17.5c0-0.2,0.1-0.4,0.1-0.6
	c-0.3-0.1-0.6-0.1-1-0.2l0.1,0.2l-0.6-0.4l-20.5-15.8c-1.6-5.6-3.1-11.2-4.7-16.8c1.6,3.3,2.4,7.7,5,9.8
	C253.3,375.2,272.8,390.1,292.1,405.1z"/>
<path class="st19" d="M214.6,386.3l-0.8,4.1l-1.6-0.2c-1.6-0.4-3.3-0.6-5-0.8c-30.7,0-61.5-0.1-92.2-0.1h-1.5h-1.7l-1.6,0.1
	c-0.2,0-0.5,0-0.8,0l-1.4-0.9c-0.2,0-0.3-0.2-0.3-0.3c0,0,0,0,0-0.1c2.3-0.6,4.6-0.9,6.9-1.1c33-0.3,66.1-0.6,99.1-0.8l0.8-0.1
	L214.6,386.3z"/>
<path class="st15" d="M205,383.8l10.6,0.2c-0.3,0.8-0.6,1.5-0.9,2.3l-0.1-0.2l-58.9-0.8l-0.8-0.8l-0.1-0.8l1.7-0.1l11.1-0.1
	l32.8,0.1L205,383.8z"/>
<path class="st21" d="M109.4,389.4c0.2,0,0.5,0,0.8,0l0.9,1.5c1.6,0.4,3.3,0.6,5,0.7c32.6,0.1,65.2,0.1,97.8,0.2c0,0.2,0,0.4,0,0.6
	c-6.6,0-13.3,0-19.9,0.1c-27.4,0.2-54.7,0.5-82.1,0.8l-1.1,0.1c-0.4-1-0.9-2.1-1.3-3.1L109.4,389.4z"/>
<path class="st12" d="M112,403.7l1.4-0.1v0.1c1.6,0.4,3.3,0.6,5,0.8c31.8,0.1,63.6,0.1,95.4,0.1c0,0.2,0,0.5,0,0.7l-102.1,0.1
	l-0.8-1L112,403.7z"/>
<path class="st15" d="M213.8,391.9c-32.6,0-65.2-0.1-97.8-0.2c-1.7-0.1-3.4-0.4-5-0.7l2.4-0.1l100.4-0.2V391.9z"/>
<path class="st13" d="M213.8,395c-32.3,0-64.7,0-97-0.1c-1.7-0.1-3.4-0.4-5-0.8l102-0.1V395z"/>
<path class="st13" d="M111.8,393.4c27.4-0.3,54.8-0.5,82.1-0.8c6.6-0.1,13.3-0.1,19.9-0.1c0,0.3,0,0.6,0,0.9H111.8L111.8,393.4z"/>
<path class="st21" d="M111.8,393.4h102c0,0.2,0,0.5,0,0.7l-102,0.1C111.8,393.9,111.8,393.6,111.8,393.4z"/>
<path class="st14" d="M213.8,396.5H113.7v-0.7h100.1C213.8,396,213.8,396.3,213.8,396.5z"/>
<path class="st14" d="M213.7,398.1h-99.9v-0.7h99.9C213.8,397.6,213.8,397.9,213.7,398.1z"/>
<path class="st14" d="M213.8,399.7h-99.9V399h99.9C213.8,399.2,213.8,399.5,213.8,399.7z"/>
<path class="st14" d="M213.8,401.3h-99.9v-0.8h99.9V401.3z"/>
<path class="st13" d="M113.4,403c7.2-0.3,14.4-0.9,21.6-0.9c26.3-0.1,52.5-0.1,78.8-0.1c0,0.3,0,0.6,0,1H113.4z"/>
<path class="st21" d="M113.4,403h100.4c0,0.2,0,0.4,0,0.6l-100.4,0.1v-0.1C113.4,403.4,113.4,403.2,113.4,403z"/>
<path class="st15" d="M113.4,403.7l100.4-0.1v1c-31.8,0-63.6,0-95.4-0.1C116.7,404.4,115,404.1,113.4,403.7z"/>
<path class="st21" d="M213.8,390.7l-100.4,0.2c0-0.2,0-0.4,0-0.6l98.7-0.1l1.6,0.2L213.8,390.7z"/>
<path class="st5" d="M247,364.8l1,0.1c0,0.2,0,0.4,0,0.6L247,364.8z"/>
<path class="st5" d="M246.5,364.7l0.6,0.3C246.9,365,246.6,364.9,246.5,364.7z"/>
<path class="st21" d="M211.5,410.2l2.1,0.6l-0.8,0.5l0.9,1.1l-124.2-0.1c0-0.2,0-0.4,0-0.6c30.1,0,60.2,0.1,90.3-0.1
	c10.5,0,21.1-0.6,31.6-0.9C211.4,410.6,211.4,410.4,211.5,410.2z"/>
<path class="st15" d="M211.4,410.8c-10.5,0.3-21.1,0.9-31.6,0.9c-30.1,0.1-60.2,0.1-90.3,0.1l-3.9-5.6l-0.4-2.7
	c0.1-0.4,0.2-0.9,0.3-1.3h2.4c0,0.2,0,0.5,0,0.7l11.1,0.9l3.1,0.6v-0.8l-0.2-0.3l4-0.3l4.9,1.4l0.8,1v2.3l-22.2-1.5l-0.9,0.5l1,0.3
	c-0.3,0.5-0.5,1-0.8,1.5c-0.1,0.1-0.3,0.2-0.2,0.2c0.1,0.2,0.1,0.4,0.2,0.6c0,0.3,0,0.5,0,0.8c1,0.4,2,0.6,3,0.8
	C131.6,410.9,171.5,410.8,211.4,410.8z M96.9,405.1v-0.4h-5.3v0.4H96.9z"/>
<path class="st19" d="M156.5,383.8l-1.7,0.1h-46.3v0.8h46.4l0.8,0.8l-47.8,0.8l-2.6,0.2l0.2,0.1l-2.3-1.1h-0.8c0-0.2,0-0.5,0-0.8
	l3.6-0.6H91v0.7h6.6c0,0.2,0,0.3,0.1,0.5l-10.4,1L87,386l3.6-5.2h63.6l0.8,1.5H91.2v0.7h63.9L156.5,383.8z"/>
<path class="st14" d="M85.5,402.1c-0.1,0.4-0.2,0.9-0.3,1.3c-0.1-2.6-0.2-5.1-0.3-7.7l1.5-3l1.6-0.2l7.1,0.1c0,0.2,0,0.5,0,0.7h-6.7
	v0.9h11.4c0,0.2,0,0.5,0,0.7H88.4v0.8h12.1h4.9c0.2,0.2,0.3,0.5,0.2,0.7l-5.1,0.1H88v0.7h12.5l6.8,0.5l-6.8,0.5l-14.2,0.7
	c0,0.2,0,0.5,0,0.7l-0.8,1.7V402.1z"/>
<path class="st7" d="M153.7,379.8l0.3,0.9H90.4c-0.1-0.1-0.1-0.3-0.1-0.4l60.3-0.6h1.2L153.7,379.8z"/>
<path class="st5" d="M150.6,379.7l-60.3,0.6L150.6,379.7z"/>
<path class="st19" d="M88,392.5l-1.6,0.2c-0.3-0.6-0.6-1.1-0.8-1.7c0.4-1.7,0.8-3.4,1.2-5.1l0.3,0.3c0.3,1.9,0.6,3.8,0.9,5.7
	C88,392.1,88,392.3,88,392.5z"/>
<path class="st12" d="M85.6,391c0.3,0.5,0.6,1.1,0.8,1.7l-1.5,3C85.1,394.1,85.3,392.6,85.6,391z"/>
<path class="st5" d="M153.7,379.8h-1.9l1.5-0.6L153.7,379.8z"/>
<path class="st4" d="M152.4,377.3c0.2,0.2,0.3,0.5,0.5,0.7l-1.3-0.5L152.4,377.3z"/>
<path class="st22" d="M139,318.4l27.4-39.1l4.2,2.9c-8.7,11.3-17.4,22.6-26.2,33.8c-1.2,1.3-2.5,2.5-3.9,3.5L139,318.4z"/>
<path class="st7" d="M148.4,326.2l-3-2.1L148.4,326.2z"/>
<path class="st7" d="M145.4,324.1l-2.5-2.4L145.4,324.1z"/>
<path class="st7" d="M139,318.4l1.5,1.1c0,0.2-0.1,0.4-0.1,0.7l-3-2.1L139,318.4z"/>
<path class="st7" d="M141.8,321.3l-1.6-1.1L141.8,321.3z"/>
<path class="st7" d="M133.7,315.2l2.4,1.9L133.7,315.2z"/>
<path class="st7" d="M132.2,314.2l0.9,0.9L132.2,314.2z"/>
<path class="st9" d="M225,340.9l4,14.9l-3.1,0.1l-1.1-2.4c0.2-2.4,0.5-4.8,0.5-5.4l-7.1-10.8c0.1-0.1,0.3-0.1,0.4-0.2l5.6,2.9v-0.2
	c-0.1,0.2-0.1,0.4-0.2,0.6L225,340.9z"/>
<path class="st4" d="M213.8,341.3c-0.2-2.6-0.3-5.3-0.5-7.9l5.4,3.6c-0.2,0-0.3,0.1-0.4,0.2l-3.1-0.6l-0.7,5L213.8,341.3z"/>
<path class="st4" d="M211.2,331.8l0.9,2l-4-3.7l0.1-0.1L211.2,331.8z"/>
<path class="st4" d="M206.2,328.6l1.9,1.4l-0.1,0.1l-2.2-1.1L206.2,328.6z"/>
<path class="st3" d="M205.8,329l2.2,1.1l4,3.7v0.9c-0.5,2-0.9,3.9-1.6,6.9l-10.9-8.9c0.5-2,0.9-3.6,1.4-5.6L205.8,329z"/>
<path class="st9" d="M212.5,345.5c0.1,0.4,0.1,0.9,0.2,1.3C212.6,346.4,212.6,346,212.5,345.5z"/>
<path class="st10" d="M154,370.2c0,0.2,0,0.5,0,0.7h-0.8L154,370.2z"/>
<path class="st12" d="M211.4,410.8c-39.9,0-79.9,0.1-119.8,0.1c-1-0.1-2-0.4-3-0.8h15.1l107.7,0.1
	C211.4,410.4,211.4,410.6,211.4,410.8z"/>
<path class="st15" d="M103.8,410.1L103.8,410.1z"/>
<path class="st12" d="M89.5,406.9l-1-0.3l0.9-0.5C89.5,406.4,89.5,406.7,89.5,406.9z"/>
<path class="st12" d="M88.7,409.3c-0.1-0.2-0.2-0.4-0.2-0.6c0-0.1,0.2-0.2,0.2-0.2V409.3z"/>
<path class="st12" d="M107.7,388.2l-2.6-1.8l2.6-0.2l106,0.1c-33,0.2-66.1,0.5-99.1,0.8C112.3,387.2,110,387.6,107.7,388.2z"/>
<path class="st13" d="M213.7,386.3l-106-0.1l47.8-0.8l58.9,0.8L213.7,386.3z"/>
<path class="st15" d="M212.2,390.2l-98.7,0.1l-1.7-0.9h1.7h1.6c30.7,0,61.5,0,92.2,0.1C208.9,389.6,210.5,389.8,212.2,390.2z"/>
<path class="st12" d="M111.8,389.4l1.7,0.9c0,0.2,0,0.4,0,0.6L111,391l-0.9-1.5L111.8,389.4z"/>
<path class="st12" d="M109.3,390.3l-1.4-1.7l1.4,0.9C109.4,389.7,109.4,390,109.3,390.3z"/>
<path class="st12" d="M115,389.4L115,389.4z"/>
<path class="st4" d="M230.6,364.3l-16-12.9l-0.5-3.2c-0.1-2-0.1-4-0.2-6c0.2,0,0.3,0,0.5,0l10.5,11.2l1.1,2.4l3.1-0.1
	C229.5,358.6,230.1,361.4,230.6,364.3z"/>
<path class="st13" d="M154.8,384.6h-46.4v-0.8h46.3L154.8,384.6z"/>
<path class="st12" d="M85.5,402.1c0-0.3,0-0.5,0-0.8l1-0.1l14.1,0.1c0,0.2,0,0.4,0,0.7l0,0l-12.7,0.1L85.5,402.1z"/>
<path class="st21" d="M99,403.7l-11-0.8l12.5,0.3c-0.1,0.2-0.2,0.4-0.3,0.5H99z"/>
<path class="st13" d="M100.4,403.1L88,402.9c0-0.2,0-0.5,0-0.7l12.7-0.1L100.4,403.1z"/>
<path class="st12" d="M96.9,405.1h-5.3v-0.4h5.3V405.1z"/>
<path class="st23" d="M100.4,403.1l0.2-1l0,0h5.5L106,403l-4,0.3l0.2,0.3v0.8l-2-0.7C100.3,403.5,100.4,403.3,100.4,403.1z"/>
<path class="st12" d="M100.1,403.6l2,0.7l-3.1-0.6L100.1,403.6z"/>
<path class="st21" d="M102.2,403.6l-0.2-0.3L102.2,403.6z"/>
<path class="st15" d="M103,386h-5.3l3.9,3.2l-0.1,0.1c-0.4,0.8-0.9,1.6-1.3,2.3l-0.4,0.1l-2.1,0.1v0.5h2.1l0.1,0.8l-0.1,0.1
	l-4.8-0.1c0-0.2,0-0.5,0-0.7l-7-0.7c-0.3-1.9-0.6-3.8-0.9-5.7l10.4-1l4.7,0.2h0.8L103,386z M90,388.1l0.8,1.3l10.2-6.5L90,388.1z
	 M95.4,390.8v-0.4H90v0.4H95.4z"/>
<path class="st13" d="M154.8,382.2c0.2,0.2,0.3,0.4,0.3,0.7H91.2v-0.7H154.8z"/>
<path class="st13" d="M97.5,384.7h-6.6V384h15l-3.6,0.6L97.5,384.7z"/>
<path class="st12" d="M97.5,384.7l4.7-0.1c0,0.2,0,0.5,0,0.8l-4.7-0.2C97.5,385,97.5,384.8,97.5,384.7z"/>
<path class="st12" d="M103,386v-0.6l2.3,1.1L103,386z"/>
<path class="st23" d="M106,398.9v0.9l-5.5,0.1H87.1l-0.9-0.2c0-0.2,0-0.5,0-0.7l14.2-0.1L106,398.9z"/>
<path class="st24" d="M100.5,398.9L86.3,399l14.2-0.7C100.6,398.4,100.6,398.6,100.5,398.9z"/>
<path class="st21" d="M100.5,397.3H88v-0.7h12.5C100.6,396.8,100.6,397.1,100.5,397.3z"/>
<path class="st21" d="M100.5,395.7H88.4v-0.8h11.4l0.7,0.2C100.6,395.3,100.6,395.5,100.5,395.7z"/>
<path class="st15" d="M100.5,397.3c0-0.2,0-0.4,0-0.7l5.1-0.1c0.1,0.8,0.3,1.6,0.4,2.4h-5.5c0-0.2,0-0.5,0-0.7l6.8-0.5L100.5,397.3z
	"/>
<path class="st12" d="M95,393.3l4.8,0.1c0,0.3,0,0.5,0,0.8H88.4v-0.9H95z"/>
<path class="st21" d="M88,391.9l7,0.7l-7.1-0.1C88,392.3,88,392.1,88,391.9z"/>
<path class="st15" d="M99.8,394.2c0-0.3,0-0.5,0-0.8l0.1-0.1l4.8,0.1c0.1,0.4,0.2,0.8,0.3,1.2l-4.2,0.2l-0.3,0.2l-0.7-0.2
	C99.8,394.6,99.8,394.4,99.8,394.2z"/>
<path class="st15" d="M100.5,395.7c0-0.2,0-0.4,0-0.6l0.3-0.2l4.2-0.2c0.2,0.4,0.3,0.7,0.4,1.1L100.5,395.7z"/>
<path class="st19" d="M86.3,399.6l0.9,0.2c0,0.2,0,0.4,0,0.5l-0.7,0.8l-1,0.1L86.3,399.6z"/>
<path class="st4" d="M255.7,362.6l1.5,1.1L255.7,362.6z"/>
<path class="st3" d="M224.8,353.4l-10.5-11.2c0-0.2,0.1-0.5,0.1-0.7l0.7-5l3.1,0.6l7.1,10.9C225.3,348.7,225.1,351,224.8,353.4z"/>
<path class="st10" d="M214.5,341.5c0,0.2-0.1,0.5-0.1,0.7c-0.2,0-0.3,0-0.5,0v-0.9L214.5,341.5z"/>
<polygon class="st3" points="229.7,346.9 229.6,346.7 229.8,346.9 "/>
<path class="st15" d="M100.5,399.8l5.5-0.1c0,0.8,0,1.5,0,2.3h-5.5c0-0.2,0-0.4,0-0.7h3.7v-0.8l-3.8-0.2
	C100.5,400.3,100.5,400,100.5,399.8z"/>
<path class="st15" d="M101.6,389.2l2.2,2.5l-3.2,0.1l0.8-2.5L101.6,389.2z"/>
<path class="st23" d="M100.7,391.8l3.2-0.1l0.8,1.6l-4.8-0.1l-0.1-0.8c0.1-0.2,0.1-0.5,0-0.7l0.4-0.1
	C100.3,391.7,100.5,391.8,100.7,391.8z"/>
<path class="st25" d="M105,394.7l-4.2,0.2L105,394.7L105,394.7z"/>
<path class="st14" d="M100.5,400.4l3.8,0.2v0.8h-3.7l-14.1-0.1l0.7-0.8L100.5,400.4z"/>
<path class="st12" d="M90,388.1l11-5.2l-10.2,6.5L90,388.1z"/>
<ellipse class="st12" cx="92.7" cy="390.6" rx="3.8" ry="0.3"/>
<path class="st25" d="M100.7,391.8c-0.2-0.1-0.3-0.1-0.5-0.1c0.4-0.8,0.9-1.6,1.3-2.3L100.7,391.8z"/>
<path class="st20" d="M99.8,391.8c0.1,0.2,0.1,0.5,0,0.7h-2.1V392L99.8,391.8z"/>
<path class="st21" d="M100.5,400.4H87.2c0-0.2,0-0.4,0-0.5h13.3C100.5,400.1,100.5,400.3,100.5,400.4z"/>
<path class="st26" d="M54.8,377.8v-0.1c-0.4-0.1-0.9-0.1-1.3,0h-1.2c-0.4-0.2-0.8-0.2-1.2,0h-1.3c-9.8,13.7-7.9,27.7-1.3,41.9
	l0.6,0.5H52h0.9h0.8l-0.6-0.5c-6.7-14.2-8.5-28.2,1.3-41.9L54.8,377.8z"/>
<path class="st6" d="M82.7,377.8L82.7,377.8l-0.9-0.1c-0.2-0.1-0.4-0.1-0.6-0.1s-0.4,0-0.7,0.1h-1.3c-9.8,13.7-7.9,27.7-1.3,41.9
	l0.6,0.5H82l-0.6-0.5C74.7,405.4,72.8,391.4,82.7,377.8L82.7,377.8z"/>
<path class="st16" d="M218.7,419.6c-0.7-0.2-1.4-0.5-2.1-0.8c-0.3-0.7-0.5-1.4-0.6-2.1c-0.6-3.8-4.9-39,0.7-39h-12.6
	c-16.8,0-33.6,0.3-50.3-0.1c-9-0.2-18.1-0.2-27.1-0.2c-8.3,0-16.5-0.1-24.7,0c-4.1,0-8.2,0.1-12.3,0.1c-0.8-0.1-1.6-0.1-2.4,0.1
	c-0.7,0.4-1.3,1.9-1.7,2.6c-1,1.6-1.8,3.3-2.6,5.1c-2.6,6.5-3.2,13.6-1.7,20.5c1,4.7,2.6,9.3,4.7,13.7l0.6,0.5c0.4,0.3,2.4,0,3,0
	c16.6-0.1,33.2,0,49.8,0c12.5,0,24.9,0.1,37.4,0.1h40.7c0,0,0-0.1-0.1-0.1h1.1C218.5,419.9,218.6,419.8,218.7,419.6z"/>
<path class="st24" d="M217.3,417.3c-0.7-0.9-1.1-1.9-1.3-3c-0.6-3.3-4.8-33.5,0.7-33.5H111.3c-6.8,0-13.6-0.2-20.3-0.2
	c-3.3,0-6,8-6,18s2.7,18,6,18c18.7-0.1,37.4,0.5,56.1,0.5l30.1,0.1L217.3,417.3z"/>
<rect x="86.8" y="385.8" class="st27" width="127.3" height="0.4"/>
<rect x="88.1" y="382.9" class="st27" width="126" height="0.4"/>
<rect x="85.8" y="389.6" class="st27" width="129.1" height="0.4"/>
<rect x="85.2" y="393.2" class="st27" width="128.9" height="0.4"/>
<rect x="85" y="398" class="st27" width="129.1" height="0.4"/>
<rect x="85.1" y="401.9" class="st27" width="129" height="0.4"/>
<rect x="85.6" y="405.9" class="st27" width="128.5" height="0.4"/>
<rect x="86.2" y="409.1" class="st27" width="127.9" height="0.4"/>
<rect x="87.2" y="412.3" class="st27" width="126.9" height="0.4"/>
<path class="st16" d="M105.6,396.5c-0.8-3.1-2.5-5.9-4.9-8c-0.4-0.4-0.9-0.8-1.3-1.1c-0.3-0.2-1.3-1.3-1.6-1.3h5.3
	c0.9,0,1.7,0.3,2.4,0.7c3.8,2.2,5.1,6.3,5.6,10.5c0.1,1.3,0.3,2.6,0.6,3.9c0.1,0.4,0.6,2.4,0.3,2.6l-1,0.7l-5-1.5l0.1-0.9
	C106.2,400.2,106.1,398.3,105.6,396.5z"/>
<polygon class="st9" points="201,327.3 199.6,332.8 292.1,405.1 294.4,389.9 200.8,324 198.4,331.9 "/>
<polygon class="st4" points="198.9,332.7 195.4,336.3 291.2,411.7 292.1,405.1 "/>
<path class="st4" d="M193.8,334.6l0.4-2.7l-7.1-5.6l-9.9-6.3l-1.3,0.9l1.1,2.9l3.4,6.5l3.2,2.4l-0.1,0.1l2.3,1.1l2.2,0.6l5.5,0.8
	C193.7,335.1,193.8,334.9,193.8,334.6z"/>
<path class="st4" d="M105.4,355.9l-31.8-0.1l0.1-2.3l22.2-0.1l61.1,0.1c-0.5,1.3-1,2.6-1.6,3.8L105.4,355.9z"/>
<path class="st4" d="M150.7,356.1c0,0.3,0,0.6,0,0.9l31.3-0.1l-0.1-3.3l-22.1-0.1h-9.3C150.5,354.3,150.6,355.2,150.7,356.1z"/>
<polygon class="st10" points="97.3,350.4 99.3,353.5 158.4,353.7 159.5,351.1 146.1,349.5 96.6,349.4 "/>
<polygon class="st4" points="151.9,350.2 159.5,351.1 181.9,349.5 181.9,349.1 152,349.3 "/>
<rect x="69.4" y="374.4" class="st10" width="117.4" height="3.1"/>
<polygon class="st9" points="191.2,321.6 199.7,321.1 201,324.5 198.2,333.2 195.4,336.3 196.4,332 "/>
<path class="st9" d="M318.7,421.9l0.1-0.1l0.1-0.1c1.4-1.5,2.6-3.3,3.2-5.2c0.8-1.9,1.2-3.9,1.1-6c-0.3-1.9-2.3-3-3.8-4
	c-4.8-3.2-9.5-6.4-14.2-9.6L282,381.1l-17.3-6.9l18.6,23.9c11.7,8,23.2,16.4,35.1,24C318.4,422.1,318.6,422,318.7,421.9z"/>
<path class="st4" d="M303.3,420.8c4.8,1.7,10,2.2,15,1.5L288.1,402l-6.4-1l0.4,3.6l20.4,16C302.8,420.6,303,420.7,303.3,420.8z"/>
<polygon class="st22" points="324.2,198.1 323,211.5 323,213.5 328.5,213.6 326.9,198.1 "/>
<path class="st8" d="M468.8,252.3c0.1,10.2,0.2,20.3,0.4,30.5c-0.2,0.2-0.4,0.3-0.7,0.4h-0.3l-3.3-0.3c-0.4-39.4-0.8-78.8-1.2-118.2
	l3.5-0.2c0.5,28.3,1.1,56.5,1.6,84.8C468.8,250.3,468.8,251.3,468.8,252.3z"/>
<path class="st22" d="M470,139.4l34.1-10.1c16.3-4.9,25.8-21.8,39.9-30.7l14.3-5.2l19.3,1.4c-19.4-2.6-35.8,4.8-49.6,20.8
	c-15.7,18.2-37.1,18.8-56.5,25.5c-0.2-0.1-0.5-0.2-0.7-0.3c-0.2-0.3-0.4-0.6-0.6-0.9C470.2,139.7,470.1,139.5,470,139.4z"/>
<path class="st9" d="M471,151.3c0.2,0.1,0.4,0.2,0.6,0.4c-0.6,2.2-1.3,4.3-1.9,6.5l-17.8-0.2l-1-6.7H471z"/>
<path class="st28" d="M461.8,121l1.9,0.5c0.4,0.7,0.8,1.4,1.1,2.1l0.1-0.1c-0.7,2.3-1.4,4.7-2.1,7h-6c0.7-3.1,1.3-6.1,2-9.2l1.1-0.3
	c0.1,2,0.2,4,0.3,6.1l1.4-0.1L461.8,121z"/>
<path class="st9" d="M470.6,160.4l-0.1,2.4l-19.1,0.2l-0.6-0.2c0-0.8,0.1-1.5,0.2-2.3L470.6,160.4z"/>
<path class="st7" d="M470.6,160.4l-19.6,0.2c-0.1-0.4-0.1-0.7,0-1.1l0.9-1.3l-0.1-0.1l17.8,0.2L470.6,160.4z"/>
<path class="st7" d="M456.9,130.6h6l4.4-0.9l3.6,3.4l-0.2,0.1l-19.7-0.1h-0.1l4-2.3L456.9,130.6z"/>
<path class="st8" d="M467.3,129.6l-4.4,0.9c0.7-2.4,1.4-4.7,2.1-7C465.7,125.6,466.5,127.6,467.3,129.6z"/>
<path class="st4" d="M451.5,163.1l19.1-0.2l-3.4,1.6l-3.5,0.2l-3.9-0.2c-0.3-0.2-0.6-0.2-0.9-0.1H457l-1,0.1
	c-0.2-0.1-0.4-0.1-0.7-0.1L451.5,163.1z"/>
<path class="st8" d="M456.9,130.6h-2c1.3-3.1,2.7-6.1,4-9.2C458.2,124.4,457.6,127.5,456.9,130.6z"/>
<path class="st22" d="M461.8,121v6.1l-1.4,0.1c-0.1-2-0.2-4-0.3-6.1L461.8,121z"/>
<path class="st2" d="M476.2,257.9l-1.9-1.5L476.2,257.9z"/>
<path class="st8" d="M464.8,123.6c-0.4-0.7-0.8-1.4-1.1-2.1L464.8,123.6z"/>
<path class="st22" d="M599.9,118.4l0.2,0.4l-1,1l-0.5-1.7L599.9,118.4z"/>
<path class="st6" d="M599.9,118.4l-1.3-0.3l0.1-0.1c0-0.4,0-0.8,0.1-1.2l0.3-0.4C599.4,117.1,599.6,117.7,599.9,118.4z"/>
<path class="st29" d="M562.3,288.3c0.3-0.2,0.7-0.1,0.9,0.2L562.3,288.3z"/>
<path class="st30" d="M549.4,322.9c0-0.4,0-0.7,0-1.1c0.1,0.2,0.2,0.5,0.3,0.8C549.7,322.7,549.5,322.8,549.4,322.9z"/>
<path class="st4" d="M421.4,420.5l-5-3.1l0.2-1.1c0.3,0,0.6-0.1,0.8-0.1c9.6,0.4,19.2,1.3,28.9,1.2c20.7-0.3,41.4-1.1,62.1-1.7
	l1.6,0.6l-2.2,3.1l-47.8,0.4L421.4,420.5z"/>
<path class="st9" d="M495.5,385.2l2.8,1.6c-2.1,1.4-4.2,3.9-6.4,3.9c-19,0.3-38,0.2-57,0.2v1.3h57.6c0.3,1.9,0.5,3.3,0.7,4.7h-1.7
	l-59.9-2.4l-0.5-1.3l-2-1.6l-0.8,0.4c0-1.8,0-3.7,0-5.5c0-0.4,0-0.7,0-1.1v-0.1l3.4-0.8h1.6h4.4h5.7l36.2,1.1l5.6-0.1L495.5,385.2z"
	/>
<path class="st9" d="M501.3,398.8c0,0.4-0.1,0.8-0.1,1.2c0,1.2,0,2.4,0,3.6l0,0l-3.9,1v9l-14-0.6l0.2-7.3l5.6-0.8h-58.8l3,7.9
	l-4.9,0.1l-1-6l-2.9-2.6l0,0l-1.2-2.1c0-0.8,0-1.5,0-2.3l1.2-2l0,0l5.6-0.9L501.3,398.8z"/>
<path class="st9" d="M508.4,415.6c-20.7,0.6-41.4,1.4-62.1,1.7c-9.6,0.1-19.2-0.8-28.9-1.2c0-0.3,0-0.6,0-1l0.5-1.1h0.3l0.2-0.2
	l4.9,0.1l3.1,0.9l81.6-0.3C508.3,414.9,508.4,415.3,508.4,415.6z"/>
<path class="st7" d="M501.3,398.8l-71.1-1.6l1-0.7l60.4,0.2h1.7l2.1-0.2L501.3,398.8z"/>
<path class="st7" d="M508.1,414.7l-81.6,0.3c-0.1-0.3-0.2-0.7-0.2-1l1-1.1l1.2,0.2l4.9-0.1h7.6h4.1h8.9l1.1-0.1l28.3,0.1l14,0.6
	l1.3,0.3L508.1,414.7z"/>
<path class="st7" d="M479.6,385.4l-36.2-1.1l3.9-0.5l30.3-1.1l0.5-6.8l0.2-0.3l0.3,0.2C478.9,379,479.2,382.2,479.6,385.4z"/>
<path class="st4" d="M495.3,396.6l-2.1,0.2c-0.2-1.4-0.4-2.8-0.7-4.7H435v-1.3c19,0,38,0.1,57-0.2c2.1,0,4.3-2.5,6.4-3.9
	C503.6,392.7,492.2,391.7,495.3,396.6z"/>
<path class="st7" d="M495.5,385.2l-10.3,0.1C488.6,385.2,492.1,385.2,495.5,385.2z"/>
<path class="st4" d="M498.6,413.9l-1.3-0.3v-9l1.2,0.5L498.6,413.9z"/>
<path class="st5" d="M501.2,403.6c0-1.2,0-2.4,0-3.6C501.2,401.2,501.2,402.4,501.2,403.6z"/>
<path class="st5" d="M498.6,405l-1.2-0.5l3.9-1L498.6,405z"/>
<path class="st4" d="M477.6,382.7l-30.3,1.1l0.5-9.4l2.2,6.7h17.8v-94l4.5-1.7h-15.1l-4.7,3.9c1.8-1.4-3.8-6.3,2-5.9l4.8-0.1h1.1
	l1.3-0.2l3.2-0.4l3.3,0.3h0.4c0.2-0.1,0.5-0.3,0.7-0.4l3.1,0.9l0.6,5.7c-0.1,0.6-0.2,1.1-0.4,2l1.7-0.2l-0.2,0.2l1.6,2.8l0.2,0.2
	l-0.1,0.3C476.3,324,476.9,353.3,477.6,382.7z"/>
<path class="st5" d="M477.6,382.7c-0.6-29.4-1.3-58.8-1.9-88.2l0.9,0.8c0.5,26.9,1,53.8,1.5,80.7L477.6,382.7z"/>
<path class="st5" d="M474.2,291.2l-1.7,0.2c0.2-0.8,0.3-1.4,0.4-2L474.2,291.2z"/>
<path class="st5" d="M475.6,294.1l-1.6-2.8L475.6,294.1z"/>
<path class="st2" d="M606.3,141.3l-0.6-2.2l0.6-0.2c0.2,0.7,0.3,1.4,0.5,2L606.3,141.3z"/>
<path class="st1" d="M601.1,158.4l-0.2,2L601.1,158.4z"/>
<path class="st25" d="M592.4,253.7c-0.1,0.8-0.2,1.6-0.3,2.4C592.2,255.3,592.3,254.5,592.4,253.7z"/>
<path class="st25" d="M609.7,162.8c0.2,0.2,0.4,0.3,0.6,0.5c-0.1,0.3-0.2,0.6-0.4,0.9L609.7,162.8z"/>
<path class="st1" d="M601.6,154.9c0,0.2,0,0.5-0.1,0.7C601.3,155.3,601.4,155,601.6,154.9z"/>
<path class="st25" d="M591.4,265.1c-0.1,0.5-0.2,0.9-0.3,1.4C591.2,266.1,591.3,265.6,591.4,265.1z"/>
<path class="st10" d="M470.5,145.6c0,1.5,0,3.1,0,4.6h-19.4c-0.1-0.9-0.1-1.9-0.2-2.8c0.1-0.6,0.2-1.2,0.3-1.8H470.5z"/>
<path class="st4" d="M470.5,145.6h-19.3l-1-1c0-0.5,0.1-0.9,0.1-1.4l21.1-0.9C471.1,143.4,470.8,144.5,470.5,145.6z"/>
<path class="st3" d="M471.4,142.3l-21.1,0.9c0.1-0.7,0.1-1.5,0.2-2.2l20.3-0.2c0.2,0.1,0.5,0.2,0.7,0.3
	C471.5,141.5,471.5,141.9,471.4,142.3z"/>
<path class="st7" d="M451.1,150.1h19.4l0.4,1.2h-20.1L451.1,150.1z"/>
<path class="st22" d="M598.7,118l-1.4-1.3h1.5C598.8,117.2,598.7,117.6,598.7,118z"/>
<path class="st9" d="M451,132.9l19.7,0.1c-0.2,2.1-0.5,4.2-0.8,6.3c0.2,0.1,0.2,0.3,0.2,0.5l-18.2-0.2l-1.1-3.6
	C451,135.1,451,134,451,132.9z"/>
<path class="st26" d="M464.9,282.9l-3.2,0.4l-0.9-0.5l-1-118.3l3.9,0.2C464.1,204.1,464.5,243.5,464.9,282.9z"/>
<path class="st10" d="M468.5,283.2h-0.4H468.5z"/>
<path class="st22" d="M450.2,144.5l1,1c-0.1,0.6-0.2,1.2-0.3,1.8L401,158l-2.1-0.7l-20.7-4.7h-22.6l-9.9,2.3
	c0.8-0.8,1.5-1.6,2.3-2.4c18.9-9.7,37.2,0.6,55.8,2.4h6.9l6.3-1.2l4.4-1.1L450.2,144.5z"/>
<path class="st7" d="M452,139.7l18.2,0.2c0.2,0.3,0.4,0.6,0.6,0.9l-20.3,0.2c0.1-0.4,0.3-0.8,0.4-1.2L452,139.7z"/>
<path class="st11" d="M451,159.5c0-0.5-0.1-0.9-0.2-1.4l1.1,0.1L451,159.5z"/>
<path class="st26" d="M457,164.4h1.9c0,39.5,0,78.9,0,118.4l-4-0.1l0.1-1.2l1.8-41.5C456.9,214.8,456.9,189.6,457,164.4z"/>
<path class="st22" d="M459,282.8c0-39.5,0-78.9,0-118.4c0.3-0.1,0.7-0.1,0.9,0.1l1,118.3c-0.2,0.2-0.3,0.4-0.4,0.6h-1.2
	C459.2,283.2,459.1,282.9,459,282.8z"/>
<path class="st6" d="M457,164.4c0,25.2-0.1,50.4-0.1,75.6l-1.9-0.1l-0.2-0.4c0.1-1,0.2-2.1,0.4-3.1v-9c0.1-20.5,0.2-41,0.3-61.4
	l0.4-1.5L457,164.4z"/>
<path class="st8" d="M456,164.5l-0.4,1.5c-0.1-0.5-0.2-1.1-0.3-1.6C455.5,164.4,455.7,164.4,456,164.5z"/>
<path class="st10" d="M416.6,416.3c0-0.3,0-0.6,0-0.9c0.3-0.1,0.6-0.2,0.9-0.2c0,0.3,0,0.6,0,1C417.2,416.2,416.9,416.2,416.6,416.3
	z"/>
<path class="st4" d="M491.5,396.8l-60.4-0.2c0.2-0.7,0.3-1.5,0.5-2.2L491.5,396.8z"/>
<path class="st7" d="M433.3,384.3L433.3,384.3z"/>
<path class="st4" d="M428.3,391.8l-1.8-2.1c0-0.7,0-1.5,0-2.2l0.9-1.2c0.3,0,0.6,0,0.9,0C428.3,388.1,428.3,389.9,428.3,391.8z"/>
<path class="st7" d="M428.3,385.1l3.4-0.8L428.3,385.1z"/>
<path class="st4" d="M431.1,393.1l-2-1.6C429.8,392,430.4,392.5,431.1,393.1z"/>
<path class="st1" d="M428.3,386.3c-0.3,0-0.6,0-0.9,0l0.9-1.1C428.3,385.5,428.3,385.9,428.3,386.3z"/>
<path class="st10" d="M454,413h-8.9H441h-7.6c-1-2.6-2-5.3-3-7.9l53.2,0.8l-0.2,7.3l-28.3-0.1L454,413z"/>
<path class="st4" d="M483.5,405.8l-53.2-0.8h58.8L483.5,405.8z"/>
<path class="st4" d="M427.3,412.8c0-1.9,0.1-3.9,0.1-5.8l1,6L427.3,412.8z"/>
<path class="st21" d="M423.4,400.1l1.2-2L423.4,400.1z"/>
<path class="st21" d="M424.6,404.5l-1.2-2.1L424.6,404.5z"/>
<path class="st10" d="M423.4,414.1l2.9-0.1c0,0.3,0.1,0.7,0.2,1L423.4,414.1z"/>
<path class="st21" d="M417.5,415.2c-0.3,0-0.6,0-0.9,0.2l1.4-1.3L417.5,415.2z"/>
<path class="st9" d="M441,412.9h4.1H441z"/>
<path class="st9" d="M454,413l1.1-0.1L454,413z"/>
<path class="st10" d="M447.7,374.4l0.3-0.1l-1.1-1.8l0.1,0.3l-0.3,0.1l0.2-8.4c0-7.4,0-14.8,0.1-22.2c0.1-0.4,0.3-0.6,0.6-0.6
	l0.4-42.9c1.1-2.7,2.2-5.4,3.3-8.2l1.5-1.2l-0.3,0.2l-0.2-0.3c1.3-1.1,2.6-2.2,4.7-3.9h15.1l-4.5,1.7v94H450L447.7,374.4z"/>
<path class="st10" d="M454.5,283.5c0-0.3,0.2-0.6,0.4-0.8l4,0.1c0.2,0.2,0.3,0.4,0.4,0.6L454.5,283.5z"/>
<path class="st10" d="M460.4,283.4c0.1-0.2,0.2-0.4,0.4-0.6l0.9,0.5L460.4,283.4z"/>
<path class="st11" d="M596.8,219.3c0.3,1.2,0.7,2.3,1,3.5C597.4,221.6,597.1,220.4,596.8,219.3z"/>
<path class="st28" d="M401,158l-2.1-0.7L401,158z"/>
<path class="st28" d="M404.6,167.4l-1.4-0.8L404.6,167.4z"/>
<path class="st8" d="M455.2,227.4L455.2,227.4z"/>
<path class="st8" d="M455,281.5V240l1.9,0.1L455,281.5z"/>
<path class="st4" d="M447,372.5l1.1,1.8L447,372.5z"/>
<path class="st4" d="M447.7,341.6l0.4-42.9L447.7,341.6z"/>
<path class="st4" d="M451.4,290.6l1.5-1.2L451.4,290.6z"/>
<path class="st17" d="M577.6,94.9c-19.4-2.6-35.8,4.8-49.6,20.8c-15.7,18.2-37.1,18.8-56.5,25.5v1.2c-0.3,1.1-0.6,2.2-1,3.3
	c0,1.5,0,3.1,0,4.6l0.4,1.2c0.2,0.1,0.4,0.2,0.6,0.4c1.1,1,9-2.1,10.5-2.4c3.7-0.9,7.3-1.9,10.9-3c7.2-2.1,14.1-5.1,20.6-8.9
	c6.8-4.1,12.9-9.5,17.8-15.8c8.9-11.3,17.5-20.6,31.2-22.7s26.3,5,34.7,17.8h1.5l0.3-0.4C594.5,105.8,587.5,98.3,577.6,94.9z"/>
<path class="st17" d="M345.5,154.8"/>
<path class="st17" d="M341.6,157.1L341.6,157.1L341.6,157.1z"/>
<path class="st17" d="M450.8,151.4l0.3-1.2c-0.1-0.9-0.1-1.9-0.2-2.8L401,158l-2.1-0.7c-14.8-5-30.9-7-46.2-4.2
	c-9.4,1.8-15,7.7-21.7,15c-5,9.2-7.1,19.2-6.6,30.1l1.8-6.5h-0.1c0.4-1.6,0.8-3.2,1.2-4.8c2.2-9.4,7.2-18,14.4-24.5
	c7.7-7,18.3-8.8,27.8-7.8c10.8,1.1,20,7.4,30.1,11.4c10.5,4.1,20.6,0.4,31-2.4L451,158l1.1,0.1L452,158L450.8,151.4z"/>
<polygon class="st22" points="278.6,349.6 323,211.5 324.7,212.1 281.5,349.4 "/>
<polygon class="st22" points="377.3,349.8 328.5,213.6 326.9,214.3 374.4,349.6 "/>
<polygon class="st22" points="325.3,204.9 309.9,349.6 312.4,349.3 326.5,207.9 "/>
<polygon class="st22" points="326.7,204.9 342.4,349.6 339.8,349.3 325.5,207.9 "/>
<path class="st17" d="M345.6,349.6l1.9-0.2l2-0.1l20.6,0.4c-2,6-4,12-5.9,18l-5.7,0.4l-13.1-0.3L345.6,349.6z"/>
<path class="st8" d="M376,349.4l1.5,0.1c-3.4,7.1-2.8,18.1-13.2,18.3c2-6,4-12,5.9-18L376,349.4z"/>
<path class="st8" d="M283.5,365.5l-1-2.2l-0.3-1.3l-0.5-1c-0.2-0.5-0.3-1-0.5-1.5l-0.6-1c0-0.3,0-0.7-0.1-1l-1.8-7.8l1.2-0.3
	l1.7,0.1l1-0.1l11.9,0.3l4.9,18l-13.7,0.1l-1.6-1.3C283.8,366.1,283.7,365.8,283.5,365.5z"/>
<path class="st17" d="M299.2,367.7c-1.6-6-3.2-12-4.9-18l17-0.3h1.7l6-0.1h2h17.7c0.3,0.1,0.6,0.3,0.9,0.4
	c0.1,6.1,0.1,12.1,0.2,18.2L299.2,367.7z"/>
<path class="st22" d="M339.7,367.8c-0.1-6.1-0.1-12.1-0.2-18.2h6.1l-0.2,18.2H339.7z"/>
<polygon class="st22" points="551.5,270.1 596,131.9 597.6,132.6 554.4,269.8 "/>
<polygon class="st22" points="650.2,270.2 601.4,134 599.8,134.8 647.3,270.1 "/>
<polygon class="st22" points="598.2,125.3 582.8,270.1 585.3,269.7 599.4,128.3 "/>
<polygon class="st22" points="599.7,125.4 615.3,270.1 612.8,269.7 598.5,128.3 "/>
<polygon class="st22" points="597.1,118.6 596,131.9 596,133.9 601.4,134 599.8,118.6 "/>
<path class="st17" d="M618.6,270.1l1.9-0.2l2-0.1l20.6,0.4c-2,6-4,12-5.9,18l-5.7,0.4l-13.1-0.3
	C618.4,282.2,618.5,276.1,618.6,270.1z"/>
<path class="st8" d="M649,269.8l1.5,0.1c-3.4,7.1-2.8,18.1-13.2,18.3c2-6,4-12,5.9-18L649,269.8z"/>
<path class="st8" d="M556.4,286l-1-2.2l-0.3-1.3l-0.5-1L554,280c-0.2-0.4-0.4-0.7-0.6-1c0-0.3,0-0.7-0.1-1l-1.8-7.8l1.2-0.3l1.7,0.1
	l1-0.1l11.8,0.3l4.9,18l-13.7,0.1l-1.6-1.3C556.7,286.6,556.6,286.3,556.4,286z"/>
<path class="st17" d="M572.2,288.1l-4.9-18l17-0.3h1.7l6-0.1h2h17.7c0.3,0.1,0.6,0.3,0.9,0.4c0.1,6.1,0.1,12.1,0.2,18.2L572.2,288.1
	z"/>
<path class="st22" d="M612.7,288.2c-0.1-6.1-0.1-12.1-0.2-18.2h6.1c-0.1,6.1-0.1,12.1-0.2,18.2H612.7z"/>
<g>
	<g>
		<defs>
			<path id="SVGID_1_" d="M161.3,231.5c-0.6,4.3-2.8,6.6-7.4,6.3c-1.2-0.1-2.1,0.5-2.5,1.5c-1.6,3.4-4.1,4.3-7.5,2.7
				c-1.5,1.6-2.1,3.6-1.2,4.9c2.8,3.6,1.2,6.8,0.1,10.3c-0.9,2.8-1.8,4.4-5.7,5.1c-3.9,0.8-7.9,3.6-11.7,6c-3.1,2-6.1,3.3-10,3
				c-3.9-0.3-7.8,0.9-11.4,2.9c-4.9,2.6-6.6,1.7-7.7-3.9c-0.5-2.5-0.6-5-2.5-7.1c-5.2-5.6-7.4-6.2-14.8-3.9
				c-5.2,1.6-10.8,2-14.9,6.4c-1.2,1.3-4.4,1.3-6.5,0.9c-2.5-0.4-3.9,0.6-5.1,2.6c-7.3-6.2-6.6,3.3-10,4.9c-2.8-1.4-2.5-4.1-3.1-6.6
				c-2.1-0.3-3.2,1-4.4,2.7c-2.2-3.3-2.6-6.8-3.3-10.3c-0.6-2.9,1.5-4.5,3.8-5.6c9.1-4.4,16.7-11.1,24.8-17
				c7.9-5.8,10.1-13.6,9.2-22.3c-1.2-11.5-3.6-22.9-5.7-34.3c-1.2-6.7-4.4-12.5-7.8-18.4c-12-20.9-17.5-42.6-4.4-65.4
				c2.1-3.6,3.4-7.6,3.9-11.8c0.4-4.7,2.2-9,4.8-13c6.9-10.6,12.7-21.8,16.7-33.9c1.5-4.5,2.7-9,2.3-13.7c0.4,0,0.7,0,1,0
				c2.1,1.9,5.8,3.6,6,5.8c0.6,4.9,4.2,6.2,7.2,8.7c4.4,3.6,8.7,7.3,11.9,12.2c2.6,3.9,2.8,7.1-0.6,10.6c-3.9,4-6.3,8.9-7.8,13.8
				c1.7,3.3,4.3,0,6.3,1.7c4,3.3,8.3,6.1,11.3,10.6c7.2,10.9,7.2,14.6-0.9,25.3c-1.5,2-0.9,3.9-0.9,5.9c0.3,6.2,1.3,12.6-5.5,16.4
				c-0.5,0.3-0.8,1.2-0.2,2c2,1.1,4.2,0.6,6.4,0.3c1.5-0.2,3.1-1.6,4.4-0.3c6,6,15.1,8.7,17.7,18.6c2.5,9.3,5.8,9.9,13.5,4.2
				c0.2-0.1,0.7-0.1,1.3-0.1c0.5,2.7,3.3,4.4,2.8,7.7c-1.2,6.6-1.5,12.9,5.5,16.9c0.9,0.5,1.8,1.2,1.7,3.1c-1.1,1.5-2.2,3.8-3.9,5.2
				c-4.2,3.4-2.8,9.1-5.5,13.1c-0.5,0.7,0,2.3,1.1,2.5c4.7,1.2,6,5.8,9.2,8.4C161.3,221.8,161.3,226.6,161.3,231.5z"/>
		</defs>
		<clipPath id="SVGID_2_">
			<use xlink:href="#SVGID_1_"  style="overflow:visible;"/>
		</clipPath>
		<rect x="-5.3" y="21.8" class="st31" width="427.4" height="256.4"/>
	</g>
	<g>
		<defs>
			<path id="SVGID_3_" d="M161.3,231.5c-0.6,4.3-2.8,6.6-7.4,6.3c-1.2-0.1-2.1,0.5-2.5,1.5c-1.6,3.4-4.1,4.3-7.5,2.7
				c-1.5,1.6-2.1,3.6-1.2,4.9c2.8,3.6,1.2,6.8,0.1,10.3c-0.9,2.8-1.8,4.4-5.7,5.1c-3.9,0.8-7.9,3.6-11.7,6c-3.1,2-6.1,3.3-10,3
				c-3.9-0.3-7.8,0.9-11.4,2.9c-4.9,2.6-6.6,1.7-7.7-3.9c-0.5-2.5-0.6-5-2.5-7.1c-5.2-5.6-7.4-6.2-14.8-3.9
				c-5.2,1.6-10.8,2-14.9,6.4c-1.2,1.3-4.4,1.3-6.5,0.9c-2.5-0.4-3.9,0.6-5.1,2.6c-7.3-6.2-6.6,3.3-10,4.9c-2.8-1.4-2.5-4.1-3.1-6.6
				c-2.1-0.3-3.2,1-4.4,2.7c-2.2-3.3-2.6-6.8-3.3-10.3c-0.6-2.9,1.5-4.5,3.8-5.6c9.1-4.4,16.7-11.1,24.8-17
				c7.9-5.8,10.1-13.6,9.2-22.3c-1.2-11.5-3.6-22.9-5.7-34.3c-1.2-6.7-4.4-12.5-7.8-18.4c-12-20.9-17.5-42.6-4.4-65.4
				c2.1-3.6,3.4-7.6,3.9-11.8c0.4-4.7,2.2-9,4.8-13c6.9-10.6,12.7-21.8,16.7-33.9c1.5-4.5,2.7-9,2.3-13.7c0.4,0,0.7,0,1,0
				c2.1,1.9,5.8,3.6,6,5.8c0.6,4.9,4.2,6.2,7.2,8.7c4.4,3.6,8.7,7.3,11.9,12.2c2.6,3.9,2.8,7.1-0.6,10.6c-3.9,4-6.3,8.9-7.8,13.8
				c1.7,3.3,4.3,0,6.3,1.7c4,3.3,8.3,6.1,11.3,10.6c7.2,10.9,7.2,14.6-0.9,25.3c-1.5,2-0.9,3.9-0.9,5.9c0.3,6.2,1.3,12.6-5.5,16.4
				c-0.5,0.3-0.8,1.2-0.2,2c2,1.1,4.2,0.6,6.4,0.3c1.5-0.2,3.1-1.6,4.4-0.3c6,6,15.1,8.7,17.7,18.6c2.5,9.3,5.8,9.9,13.5,4.2
				c0.2-0.1,0.7-0.1,1.3-0.1c0.5,2.7,3.3,4.4,2.8,7.7c-1.2,6.6-1.5,12.9,5.5,16.9c0.9,0.5,1.8,1.2,1.7,3.1c-1.1,1.5-2.2,3.8-3.9,5.2
				c-4.2,3.4-2.8,9.1-5.5,13.1c-0.5,0.7,0,2.3,1.1,2.5c4.7,1.2,6,5.8,9.2,8.4C161.3,221.8,161.3,226.6,161.3,231.5z"/>
		</defs>
		<clipPath id="SVGID_4_">
			<use xlink:href="#SVGID_3_"  style="overflow:visible;"/>
		</clipPath>
		<rect x="-5.3" y="150" class="st32" width="427.4" height="128.3"/>
	</g>
</g>
<g>
	<path d="M80.2,24.5c2.1,1.9,5.8,3.6,6,5.8c0.6,4.9,4.2,6.2,7.2,8.7c4.4,3.6,8.7,7.3,11.9,12.2c2.6,3.9,2.8,7.1-0.6,10.6
		c-3.9,4-6.3,8.9-7.8,13.8c0.7,1.2,1.4,1.5,2.2,1.5c0.9,0,1.8-0.4,2.7-0.4c0.5,0,0.9,0.1,1.4,0.5c4,3.3,8.3,6.1,11.3,10.6
		c7.2,10.9,7.2,14.6-0.9,25.3c-1.5,2-0.9,3.9-0.9,5.9c0.3,6.2,1.3,12.6-5.5,16.4c-0.5,0.3-0.8,1.2-0.2,2c0.9,0.5,1.9,0.7,2.9,0.7
		c1.2,0,2.3-0.2,3.5-0.4c1-0.1,2.1-0.9,3.1-0.9c0.4,0,0.9,0.1,1.3,0.5c6,6,15.1,8.7,17.7,18.6c1.5,5.5,3.1,7.9,5.8,7.9
		c2,0,4.4-1.3,7.6-3.6c0.1-0.1,0.4-0.1,0.6-0.1c0.1,0,0.1,0,0.1,0c0.1,0,0.4,0,0.6,0c0.5,2.7,3.3,4.4,2.8,7.7
		c-1.2,6.6-1.5,12.9,5.5,16.9c0.9,0.5,1.8,1.2,1.7,3.1c-1.1,1.5-2.2,3.8-3.9,5.2c-4.2,3.4-2.8,9.1-5.5,13.1c-0.5,0.7,0,2.3,1.1,2.5
		c4.7,1.2,6,5.8,9.2,8.4c0,4.9,0,9.7,0,14.6c-0.6,4-2.6,6.3-6.6,6.3c-0.3,0-0.5,0-0.8,0c-0.1,0-0.1,0-0.2,0c-1.1,0-1.9,0.6-2.3,1.5
		c-1.1,2.3-2.6,3.5-4.5,3.5c-0.9,0-1.9-0.3-3-0.7c-1.5,1.6-2.1,3.6-1.2,4.9c2.8,3.6,1.2,6.8,0.1,10.3c-0.9,2.8-1.8,4.4-5.7,5.1
		c-3.9,0.8-7.9,3.6-11.7,6c-2.8,1.7-5.5,3.1-9,3.1c-0.4,0-0.7,0-1.1-0.1c-0.4,0-0.7-0.1-1.2-0.1c-3.5,0-7.1,1.2-10.3,3
		c-1.7,0.9-3.1,1.4-4.1,1.4c-2,0-2.9-1.7-3.6-5.3c-0.5-2.5-0.6-5-2.5-7.1c-3.3-3.6-5.5-5.2-8.6-5.2c-1.7,0-3.6,0.4-6.3,1.2
		c-5.2,1.6-10.8,2-14.9,6.4c-0.8,0.9-2.5,1.2-4.1,1.2c-0.9,0-1.7-0.1-2.4-0.2c-0.4-0.1-0.7-0.1-1-0.1c-1.9,0-3,0.9-4.1,2.7
		c-1.7-1.5-3.1-2.1-4.1-2.1c-3.1,0-3.3,5.8-6,7c-2.8-1.4-2.5-4.1-3.1-6.6c-0.2,0-0.4-0.1-0.6-0.1c-1.7,0-2.8,1.2-3.8,2.8
		c-2.2-3.3-2.6-6.8-3.3-10.3c-0.6-2.9,1.5-4.5,3.8-5.6c9.1-4.4,16.7-11.1,24.8-17c7.9-5.8,10.1-13.6,9.2-22.3
		c-1.2-11.5-3.6-22.9-5.7-34.3c-1.2-6.7-4.4-12.5-7.8-18.4c-12-20.9-17.5-42.6-4.4-65.4c2.1-3.6,3.4-7.6,3.9-11.8
		c0.4-4.7,2.2-9,4.8-13c6.9-10.6,12.7-21.8,16.7-33.9c1.5-4.5,2.7-9,2.3-13.7C79.4,24.5,79.8,24.5,80.2,24.5 M80.7,23.1h-0.6h-0.9
		h-1.5l0.1,1.5c0.3,4.7-0.9,9.1-2.3,13.1c-3.9,11.4-9.3,22.4-16.6,33.6c-2.9,4.5-4.6,9-5,13.7c-0.4,3.9-1.6,7.6-3.6,11.2
		c-6.4,11.1-8.9,22.3-7.5,34.3c1.2,10,5,20.7,11.9,32.5c3.3,5.8,6.4,11.5,7.6,18c0.4,2.3,0.9,4.6,1.2,6.8c1.7,9,3.4,18.2,4.4,27.4
		c1,9.2-1.8,16.1-8.6,21c-2.1,1.5-4.2,3.1-6.3,4.7c-5.8,4.4-11.7,9-18.3,12.2c-3.6,1.7-5.2,4.1-4.6,7.2c0.1,0.4,0.1,0.7,0.2,1.2
		c0.6,3.2,1.2,6.6,3.3,9.8l1.2,1.7l1.2-1.7c0.8-1.1,1.4-1.7,2-2c0,0.1,0,0.2,0.1,0.3c0.4,2,0.8,4.7,3.6,6l0.6,0.3l0.7-0.3
		c1.7-0.7,2.5-2.5,3.3-4.1c0.8-1.6,1.4-2.7,2.1-2.7c0.4,0,1.3,0.2,3.1,1.7l1.3,1.1l0.9-1.4c1.1-1.7,1.8-2,2.8-2c0.2,0,0.5,0,0.8,0.1
		c0.9,0.1,1.7,0.2,2.6,0.2c2.4,0,4.1-0.5,5.2-1.6c2.9-3.1,6.6-4,10.6-5c1.2-0.3,2.5-0.7,3.7-1c2.7-0.8,4.4-1.2,5.8-1.2
		c2.5,0,4.2,1.1,7.5,4.7c1.4,1.5,1.6,3.2,2,5.2c0.1,0.4,0.1,0.9,0.2,1.2c0.4,2.1,1.2,6.5,5,6.5c1.2,0,2.8-0.5,4.8-1.6
		c3.4-1.8,6.6-2.8,9.6-2.8c0.4,0,0.7,0,1,0.1c0.4,0,0.8,0.1,1.2,0.1c3.7,0,6.6-1.3,9.8-3.3c0.6-0.4,1.2-0.7,1.8-1.2
		c3.1-2,6.4-4.1,9.4-4.7c4.4-0.9,5.7-2.7,6.8-6.1c0.1-0.4,0.2-0.8,0.4-1.2c1-3.1,2.2-6.7-0.7-10.4c-0.4-0.4-0.1-1.3,0.4-2.3
		c0.9,0.3,1.7,0.4,2.5,0.4c1.7,0,4.1-0.7,5.8-4.3c0.2-0.4,0.6-0.7,1-0.7h0.1c0.3,0,0.6,0,0.9,0c3.2,0,7.2-1.3,8.1-7.6v-0.1v-0.1V217
		v-0.7l-0.5-0.4c-1-0.9-1.9-2-2.8-3.2c-1.7-2.2-3.6-4.7-7.1-5.6c-0.1,0-0.2-0.3-0.2-0.4c1.2-1.9,1.7-4.1,2.1-6.1
		c0.5-2.6,1-4.9,3.1-6.6c1.5-1.2,2.4-2.8,3.3-4.1c0.3-0.5,0.7-1,0.9-1.4l0.3-0.4v-0.4c0-2.9-1.7-3.9-2.5-4.4
		c-5.8-3.3-6.1-8.1-4.8-15.4c0.4-2.5-0.7-4.4-1.6-5.8c-0.5-0.8-1-1.6-1.2-2.4l-0.2-1.3l-1.3,0.1c-0.1,0-0.4,0-0.4,0h-0.1h-0.1
		c-0.4,0-0.9,0-1.5,0.4c-3.1,2.3-5.3,3.3-6.8,3.3c-1.2,0-2.8-0.8-4.4-6.8c-1.9-7.3-7.1-10.8-11.9-14.3c-2.2-1.6-4.3-3.1-6.1-4.8
		c-0.7-0.7-1.4-0.9-2.3-0.9c-0.8,0-1.6,0.3-2.3,0.5c-0.4,0.1-0.8,0.3-1.1,0.4c-0.2,0-0.4,0.1-0.7,0.1c-0.9,0.1-1.8,0.3-2.6,0.3
		c-0.6,0-1.1-0.1-1.6-0.2c6.7-3.9,6.3-10.3,6-16c0-0.5-0.1-1-0.1-1.5c0-0.4-0.1-0.7-0.1-1.1c-0.1-1.5-0.2-2.7,0.7-3.9
		c8.4-11.1,8.5-15.4,0.9-26.9c-2.4-3.6-5.8-6.3-8.9-8.7c-0.9-0.7-1.7-1.4-2.6-2.1c-0.7-0.5-1.5-0.8-2.3-0.8c-0.6,0-1.2,0.1-1.7,0.2
		c-0.4,0.1-0.7,0.1-1,0.1c-0.1,0-0.4,0-0.6-0.3c1.7-5.1,4.1-9.3,7.3-12.5c3.7-3.9,3.9-7.6,0.7-12.4c-3.4-5.1-7.9-9-12.2-12.4
		c-0.7-0.6-1.4-1-2-1.5c-2.3-1.7-4.2-3-4.6-6.2c-0.3-2.1-2.3-3.6-4.4-5c-0.8-0.6-1.5-1.1-2.2-1.7L80.7,23.1L80.7,23.1z"/>
</g>
<g id="half">
	<g>
		<path class="st33" d="M80.5,92L80,109.6H62.1c-2.2-4.3-4-7.9-4-12.8c0-4.1,3.2-7.4,7.9-7.4C70.9,89.4,76.3,91.1,80.5,92z"/>
	</g>
	<g>
		<g>
			<path class="st33" d="M60.2,92.8V103"/>
			<path d="M60.2,103.4c-0.2,0-0.4-0.1-0.4-0.4V92.8c0-0.2,0.1-0.4,0.4-0.4c0.2,0,0.4,0.1,0.4,0.4V103
				C60.5,103.1,60.4,103.4,60.2,103.4z"/>
		</g>
		<g>
			<path class="st33" d="M61.6,91.8v13.5"/>
			<path d="M61.6,105.7c-0.2,0-0.4-0.1-0.4-0.4V91.8c0-0.2,0.1-0.4,0.4-0.4c0.2,0,0.4,0.1,0.4,0.4v13.5
				C62,105.5,61.8,105.7,61.6,105.7z"/>
		</g>
		<g>
			<path class="st33" d="M63.1,91.1v16.2"/>
			<path d="M63.1,107.6c-0.2,0-0.4-0.1-0.4-0.4V91.1c0-0.2,0.1-0.4,0.4-0.4c0.2,0,0.4,0.1,0.4,0.4v16.2
				C63.4,107.4,63.2,107.6,63.1,107.6z"/>
		</g>
		<g>
			<path class="st33" d="M64.5,90.7v12.7"/>
			<path d="M64.5,103.7c-0.2,0-0.4-0.1-0.4-0.4V90.7c0-0.2,0.1-0.4,0.4-0.4s0.4,0.1,0.4,0.4v12.7C64.8,103.6,64.7,103.7,64.5,103.7z
				"/>
		</g>
		<g>
			<path class="st33" d="M65.9,90.6v12.8"/>
			<path d="M65.9,103.8c-0.2,0-0.4-0.1-0.4-0.4V90.6c0-0.2,0.1-0.4,0.4-0.4s0.4,0.1,0.4,0.4v12.8C66.3,103.6,66.1,103.8,65.9,103.8z
				"/>
		</g>
		<g>
			<path class="st33" d="M67.4,90.2v13.2"/>
			<path d="M67.4,103.8c-0.2,0-0.4-0.1-0.4-0.4V90.2c0-0.2,0.1-0.4,0.4-0.4c0.2,0,0.4,0.1,0.4,0.4v13.2
				C67.7,103.6,67.6,103.8,67.4,103.8z"/>
		</g>
		<g>
			<path class="st33" d="M68.8,90.2v13.2"/>
			<path d="M68.8,103.8c-0.2,0-0.4-0.1-0.4-0.4V90.2c0-0.2,0.1-0.4,0.4-0.4c0.2,0,0.4,0.1,0.4,0.4v13.2
				C69.2,103.6,69,103.8,68.8,103.8z"/>
		</g>
		<g>
			<path class="st33" d="M70.2,90.3v13.2"/>
			<path d="M70.2,103.9c-0.2,0-0.4-0.1-0.4-0.4V90.3c0-0.2,0.1-0.4,0.4-0.4s0.4,0.1,0.4,0.4v13.2C70.6,103.7,70.4,103.9,70.2,103.9z
				"/>
		</g>
		<g>
			<path class="st33" d="M71.7,90.5v13.2"/>
			<path d="M71.7,104c-0.2,0-0.4-0.1-0.4-0.4V90.4c0-0.2,0.1-0.4,0.4-0.4c0.2,0,0.4,0.1,0.4,0.4v13.2C72,103.9,71.9,104,71.7,104z"
				/>
		</g>
		<g>
			<path class="st33" d="M73.1,91.3v13.2"/>
			<path d="M73.1,104.9c-0.2,0-0.4-0.1-0.4-0.4V91.3c0-0.2,0.1-0.4,0.4-0.4c0.2,0,0.4,0.1,0.4,0.4v13.2
				C73.5,104.7,73.3,104.9,73.1,104.9z"/>
		</g>
		<g>
			<path class="st33" d="M74.6,91.4v14.9"/>
			<path d="M74.6,106.7c-0.2,0-0.4-0.1-0.4-0.4V91.4c0-0.2,0.1-0.4,0.4-0.4s0.4,0.1,0.4,0.4v14.9C74.9,106.6,74.7,106.7,74.6,106.7z
				"/>
		</g>
		<g>
			<path class="st33" d="M76,91.4v13.2"/>
			<path d="M76,105c-0.2,0-0.4-0.1-0.4-0.4V91.4c0-0.2,0.1-0.4,0.4-0.4c0.2,0,0.4,0.1,0.4,0.4v13.2C76.3,104.9,76.2,105,76,105z"/>
		</g>
		<g>
			<path class="st33" d="M77.4,91.4v13.2"/>
			<path d="M77.4,105c-0.2,0-0.4-0.1-0.4-0.4V91.4c0-0.2,0.1-0.4,0.4-0.4c0.2,0,0.4,0.1,0.4,0.4v13.2C77.8,104.9,77.6,105,77.4,105z
				"/>
		</g>
		<g>
			<path d="M69.2,90.8c3.1,0.5,9.7,3.6,9,7.9c-1.1,6-4.6,3.6-9.2,2.7l-3.5,1.2c-1.2,1.3-3.1,2.5-4.4,0.9h-2v8.2H82V91.9L69.2,90.8z"
				/>
			<path d="M81.9,111.9H59c-0.2,0-0.4-0.1-0.4-0.4v-8.1c0-0.2,0.1-0.4,0.4-0.4h2c0.1,0,0.2,0.1,0.3,0.1c0.3,0.4,0.7,0.6,1.1,0.6
				c1,0.1,2.1-0.9,2.7-1.5c0.1-0.1,0.1-0.1,0.1-0.1l3.5-1.2c0.1,0,0.1,0,0.1,0c0.9,0.1,1.7,0.4,2.5,0.6c1.9,0.5,3.6,0.9,4.7,0.2
				c0.8-0.5,1.3-1.5,1.6-3.3c0.1-0.9-0.1-2-0.7-2.9c-1.7-2.4-5.7-4.1-7.9-4.5c-0.2,0-0.3-0.2-0.3-0.4s0.2-0.4,0.4-0.3l12.7,1.2
				c0.2,0,0.3,0.1,0.3,0.4v19.6C82.3,111.7,82.1,111.9,81.9,111.9z M59.4,111.1h22.2V92.3l-9.1-0.8c2,0.9,4,2.2,5.2,3.8
				c0.8,1.1,1.1,2.3,0.9,3.4c-0.4,2-0.9,3.1-1.9,3.7c-1.4,0.9-3.1,0.4-5.2-0.1c-0.8-0.2-1.6-0.4-2.4-0.6l-3.3,1.1
				c-0.8,0.8-2,1.7-3.2,1.7c-0.6,0-1.1-0.3-1.5-0.7h-1.5v7.4H59.4z"/>
		</g>
	</g>
	<g>
		<circle class="st33" cx="79.4" cy="89.4" r="1.4"/>
		<path d="M79.4,91.2c-1,0-1.9-0.9-1.9-1.9s0.9-1.9,1.9-1.9s1.9,0.9,1.9,1.9C81.3,90.4,80.5,91.2,79.4,91.2z M79.4,88.4
			c-0.5,0-0.9,0.4-0.9,0.9c0,0.5,0.4,0.9,0.9,0.9s0.9-0.4,0.9-0.9C80.4,88.9,80,88.4,79.4,88.4z"/>
	</g>
	<g>
		<circle class="st33" cx="76.3" cy="88.6" r="1.4"/>
		<path d="M76.3,90.5c-1,0-1.9-0.9-1.9-1.9s0.9-1.9,1.9-1.9s1.9,0.9,1.9,1.9C78.2,89.7,77.3,90.5,76.3,90.5z M76.3,87.7
			c-0.5,0-0.9,0.4-0.9,0.9c0,0.5,0.4,0.9,0.9,0.9s0.9-0.4,0.9-0.9C77.3,88.1,76.8,87.7,76.3,87.7z"/>
	</g>
	<g>
		<circle class="st33" cx="73.1" cy="87.8" r="1.4"/>
		<path d="M73.1,89.7c-1,0-1.9-0.9-1.9-1.9s0.9-1.9,1.9-1.9c1,0,1.9,0.9,1.9,1.9C75,88.9,74.2,89.7,73.1,89.7z M73.1,86.9
			c-0.5,0-0.9,0.4-0.9,0.9c0,0.5,0.4,0.9,0.9,0.9s0.9-0.4,0.9-0.9C74.1,87.3,73.6,86.9,73.1,86.9z"/>
	</g>
	<g>
		<circle class="st33" cx="70" cy="87.3" r="1.4"/>
		<path d="M70,89.2c-1,0-1.9-0.9-1.9-1.9s0.9-1.9,1.9-1.9c1,0,1.9,0.9,1.9,1.9C71.8,88.3,71,89.2,70,89.2z M70,86.4
			c-0.5,0-0.9,0.4-0.9,0.9c0,0.5,0.4,0.9,0.9,0.9s0.9-0.4,0.9-0.9C70.9,86.8,70.5,86.4,70,86.4z"/>
	</g>
	<g>
		<circle class="st33" cx="66.8" cy="87" r="1.4"/>
		<path d="M66.8,88.8c-1,0-1.9-0.9-1.9-1.9c0-1,0.9-1.9,1.9-1.9c1,0,1.9,0.9,1.9,1.9C68.7,88,67.8,88.8,66.8,88.8z M66.8,86
			c-0.5,0-0.9,0.4-0.9,0.9c0,0.5,0.4,0.9,0.9,0.9c0.5,0,0.9-0.4,0.9-0.9C67.7,86.5,67.3,86,66.8,86z"/>
	</g>
	<g>
		<circle class="st33" cx="63.7" cy="87.1" r="1.4"/>
		<path d="M63.7,89c-1,0-1.9-0.9-1.9-1.9s0.9-1.9,1.9-1.9s1.9,0.9,1.9,1.9C65.5,88.1,64.7,89,63.7,89z M63.7,86.3
			c-0.5,0-0.9,0.4-0.9,0.9s0.4,0.9,0.9,0.9c0.5,0,0.9-0.4,0.9-0.9S64.2,86.3,63.7,86.3z"/>
	</g>
	<g>
		<circle class="st33" cx="60.7" cy="88.1" r="1.4"/>
		<path d="M60.7,90c-1,0-1.9-0.9-1.9-1.9s0.9-1.9,1.9-1.9c1,0,1.9,0.9,1.9,1.9S61.7,90,60.7,90z M60.7,87.3c-0.5,0-0.9,0.4-0.9,0.9
			c0,0.5,0.4,0.9,0.9,0.9c0.5,0,0.9-0.4,0.9-0.9C61.5,87.6,61.2,87.3,60.7,87.3z"/>
	</g>
	<g>
		<circle class="st33" cx="58.1" cy="90" r="1.4"/>
		<path d="M58.1,91.9c-1,0-1.9-0.9-1.9-1.9s0.9-1.9,1.9-1.9S60,88.9,60,90C60,91.1,59.2,91.9,58.1,91.9z M58.1,89.1
			c-0.5,0-0.9,0.4-0.9,0.9c0,0.5,0.4,0.9,0.9,0.9c0.5,0,0.9-0.4,0.9-0.9C59.1,89.5,58.6,89.1,58.1,89.1z"/>
	</g>
	<g>
		<circle class="st33" cx="56.4" cy="92.6" r="1.4"/>
		<path d="M56.4,94.5c-1,0-1.9-0.9-1.9-1.9s0.9-1.9,1.9-1.9c1,0,1.9,0.9,1.9,1.9C58.3,93.6,57.4,94.5,56.4,94.5z M56.4,91.6
			c-0.5,0-0.9,0.4-0.9,0.9s0.4,0.9,0.9,0.9c0.5,0,0.9-0.4,0.9-0.9S56.9,91.6,56.4,91.6z"/>
	</g>
	<g>
		<circle class="st33" cx="55.5" cy="95.6" r="1.4"/>
		<path d="M55.5,97.5c-1,0-1.9-0.9-1.9-1.9s0.9-1.9,1.9-1.9c1,0,1.9,0.9,1.9,1.9C57.4,96.7,56.5,97.5,55.5,97.5z M55.5,94.7
			c-0.5,0-0.9,0.4-0.9,0.9c0,0.5,0.4,0.9,0.9,0.9c0.5,0,0.9-0.4,0.9-0.9C56.4,95.1,56,94.7,55.5,94.7z"/>
	</g>
	<g>
		<circle class="st33" cx="55.6" cy="98.8" r="1.4"/>
		<path d="M55.6,100.7c-1,0-1.9-0.9-1.9-1.9c0-1,0.9-1.9,1.9-1.9c1,0,1.9,0.9,1.9,1.9C57.4,99.8,56.6,100.7,55.6,100.7z M55.6,97.8
			c-0.5,0-0.9,0.4-0.9,0.9c0,0.5,0.4,0.9,0.9,0.9c0.5,0,0.9-0.4,0.9-0.9C56.5,98.3,56.1,97.8,55.6,97.8z"/>
	</g>
	<g>
		<circle class="st33" cx="56.2" cy="101.8" r="1.4"/>
		<path d="M56.2,103.7c-1,0-1.9-0.9-1.9-1.9s0.9-1.9,1.9-1.9c1,0,1.9,0.9,1.9,1.9C58,102.8,57.2,103.7,56.2,103.7z M56.2,101
			c-0.5,0-0.9,0.4-0.9,0.9c0,0.5,0.4,0.9,0.9,0.9c0.5,0,0.9-0.4,0.9-0.9C57.1,101.4,56.7,101,56.2,101z"/>
	</g>
	<g>
		<path class="st33" d="M80.1,91.2L80,93c-3.5-0.5-8.4-2.5-13-2.5c-4.2,0-7.5,1.7-7.5,6c0,4.2,1.7,8,4.1,11.9l-2.5,1.2
			c-2.2-4.3-4-7.9-4-12.8c0-4.1,3.2-8.2,8.8-8.2C70.9,88.6,76,90.3,80.1,91.2z"/>
		<path d="M61.2,110.1c-0.1,0-0.4-0.1-0.4-0.3c-2.1-4.1-4.1-7.9-4.1-13c0-4.2,3.3-8.7,9.3-8.7c3.9,0,7.7,1,11.1,1.8
			c1.1,0.3,2.1,0.5,3.1,0.7c0.2,0.1,0.4,0.3,0.4,0.5L80.4,93c0,0.1-0.1,0.3-0.1,0.4c-0.1,0.1-0.2,0.1-0.4,0.1
			c-1.2-0.2-2.7-0.6-4.2-0.9C73,91.8,69.9,91,67,91c-2.6,0-7.1,0.7-7.1,5.5c0,4.4,2,8.4,4.1,11.6c0.1,0.1,0.1,0.3,0.1,0.4
			c-0.1,0.1-0.1,0.2-0.2,0.3l-2.5,1.2C61.3,110.1,61.2,110.1,61.2,110.1z M65.9,89.1c-5.4,0-8.3,3.9-8.3,7.7c0,4.7,1.8,8.4,3.8,12.2
			l1.5-0.7C61,105,59,101,59,96.6c0-4.1,2.9-6.5,8-6.5c3,0,6.1,0.8,8.9,1.5c1.3,0.4,2.5,0.7,3.6,0.9l0.1-0.9
			c-0.9-0.2-1.7-0.4-2.7-0.7C73.5,90,69.6,89.1,65.9,89.1z"/>
	</g>
</g>
<g id="half_1_">
	<g>
		<path class="st33" d="M98.7,89.4c4.7,0,7.9,3.3,7.9,7.4c0,4.9-1.8,8.6-4,12.8H84.7l-0.5-17.6C88.3,91.1,93.7,89.4,98.7,89.4z"/>
	</g>
	<g>
		<g>
			<path class="st33" d="M104.4,103V92.8"/>
			<path d="M104.4,103.4c0.2,0,0.4-0.1,0.4-0.4V92.8c0-0.2-0.1-0.4-0.4-0.4c-0.2,0-0.4,0.1-0.4,0.4V103
				C104,103.1,104.2,103.4,104.4,103.4z"/>
		</g>
		<g>
			<path class="st33" d="M103,105.3V91.8"/>
			<path d="M103,105.7c0.2,0,0.4-0.1,0.4-0.4V91.8c0-0.2-0.1-0.4-0.4-0.4s-0.4,0.1-0.4,0.4v13.5C102.7,105.5,102.8,105.7,103,105.7z
				"/>
		</g>
		<g>
			<path class="st33" d="M101.6,107.2V91.1"/>
			<path d="M101.6,107.6c0.2,0,0.4-0.1,0.4-0.4V91.1c0-0.2-0.1-0.4-0.4-0.4s-0.4,0.1-0.4,0.4v16.2
				C101.2,107.4,101.4,107.6,101.6,107.6z"/>
		</g>
		<g>
			<path class="st33" d="M100.1,103.4V90.7"/>
			<path d="M100.1,103.7c0.2,0,0.4-0.1,0.4-0.4V90.7c0-0.2-0.1-0.4-0.4-0.4c-0.2,0-0.4,0.1-0.4,0.4v12.7
				C99.8,103.6,99.9,103.7,100.1,103.7z"/>
		</g>
		<g>
			<path class="st33" d="M98.7,103.4V90.6"/>
			<path d="M98.7,103.8c0.2,0,0.4-0.1,0.4-0.4V90.6c0-0.2-0.1-0.4-0.4-0.4c-0.2,0-0.4,0.1-0.4,0.4v12.8
				C98.3,103.6,98.5,103.8,98.7,103.8z"/>
		</g>
		<g>
			<path class="st33" d="M97.3,103.4V90.2"/>
			<path d="M97.3,103.8c0.2,0,0.4-0.1,0.4-0.4V90.2c0-0.2-0.1-0.4-0.4-0.4c-0.2,0-0.4,0.1-0.4,0.4v13.2
				C96.9,103.6,97.1,103.8,97.3,103.8z"/>
		</g>
		<g>
			<path class="st33" d="M95.8,103.4V90.2"/>
			<path d="M95.8,103.8c0.2,0,0.4-0.1,0.4-0.4V90.2c0-0.2-0.1-0.4-0.4-0.4c-0.2,0-0.4,0.1-0.4,0.4v13.2
				C95.5,103.6,95.6,103.8,95.8,103.8z"/>
		</g>
		<g>
			<path class="st33" d="M94.4,103.6V90.3"/>
			<path d="M94.4,103.9c0.2,0,0.4-0.1,0.4-0.4V90.3c0-0.2-0.1-0.4-0.4-0.4S94,90.1,94,90.3v13.2C94,103.7,94.1,103.9,94.4,103.9z"/>
		</g>
		<g>
			<path class="st33" d="M92.9,103.6V90.4"/>
			<path d="M92.9,104c0.2,0,0.4-0.1,0.4-0.4V90.4c0-0.2-0.1-0.4-0.4-0.4c-0.2,0-0.4,0.1-0.4,0.4v13.2C92.5,103.9,92.8,104,92.9,104z
				"/>
		</g>
		<g>
			<path class="st33" d="M91.5,104.5V91.3"/>
			<path d="M91.5,104.9c0.2,0,0.4-0.1,0.4-0.4V91.3c0-0.2-0.1-0.4-0.4-0.4c-0.2,0-0.4,0.1-0.4,0.4v13.2
				C91.2,104.7,91.3,104.9,91.5,104.9z"/>
		</g>
		<g>
			<path class="st33" d="M90.1,106.3V91.4"/>
			<path d="M90.1,106.7c0.2,0,0.4-0.1,0.4-0.4V91.4c0-0.2-0.1-0.4-0.4-0.4s-0.4,0.1-0.4,0.4v14.9C89.7,106.6,89.9,106.7,90.1,106.7z
				"/>
		</g>
		<g>
			<path class="st33" d="M88.6,104.7V91.4"/>
			<path d="M88.6,105c0.2,0,0.4-0.1,0.4-0.4V91.4c0-0.2-0.1-0.4-0.4-0.4s-0.4,0.1-0.4,0.4v13.2C88.3,104.9,88.4,105,88.6,105z"/>
		</g>
		<g>
			<path class="st33" d="M87.2,104.7V91.4"/>
			<path d="M87.2,105c0.2,0,0.4-0.1,0.4-0.4V91.4c0-0.2-0.1-0.4-0.4-0.4c-0.2,0-0.4,0.1-0.4,0.4v13.2C86.8,104.9,87,105,87.2,105z"
				/>
		</g>
		<g>
			<path d="M82.6,91.9v19.6h22.9v-8.1h-2c-1.2,1.5-3.1,0.4-4.4-0.9l-3.5-1.2c-4.7,0.9-8.2,3.3-9.2-2.7c-0.7-4.2,5.9-7.4,9-7.9
				L82.6,91.9z"/>
			<path d="M82.3,111.5V91.9c0-0.2,0.1-0.4,0.3-0.4l12.7-1.2c0.2,0,0.4,0.1,0.4,0.3c0,0.2-0.1,0.4-0.3,0.4c-2.3,0.4-6.2,2.1-7.9,4.5
				c-0.7,0.9-0.9,2-0.7,2.9c0.3,1.7,0.8,2.8,1.6,3.3c1.1,0.7,2.7,0.3,4.7-0.2c0.8-0.2,1.7-0.4,2.5-0.6c0.1,0,0.1,0,0.1,0l3.5,1.2
				c0.1,0,0.1,0.1,0.1,0.1c0.6,0.6,1.7,1.6,2.7,1.5c0.4,0,0.8-0.2,1.1-0.6c0.1-0.1,0.1-0.1,0.3-0.1h2c0.2,0,0.4,0.1,0.4,0.4v8.1
				c0,0.2-0.1,0.4-0.4,0.4H82.6C82.4,111.9,82.3,111.7,82.3,111.5z M105.2,103.7h-1.5c-0.4,0.4-0.9,0.7-1.5,0.7
				c-1.2,0.1-2.4-0.9-3.2-1.7l-3.3-1.1c-0.9,0.1-1.7,0.4-2.4,0.6c-2,0.5-3.9,1-5.2,0.1c-0.9-0.6-1.6-1.8-1.9-3.7
				c-0.2-1.2,0.1-2.3,0.9-3.4c1.2-1.6,3.2-2.9,5.2-3.8l-9.1,0.8v18.9h22.2v-7.4H105.2z"/>
		</g>
	</g>
	<g>
		<circle class="st33" cx="85.1" cy="89.4" r="1.4"/>
		<path d="M83.3,89.4c0-1,0.9-1.9,1.9-1.9s1.9,0.9,1.9,1.9s-0.9,1.9-1.9,1.9S83.3,90.4,83.3,89.4z M84.3,89.4c0,0.5,0.4,0.9,0.9,0.9
			c0.5,0,0.9-0.4,0.9-0.9c0-0.5-0.4-0.9-0.9-0.9C84.6,88.4,84.3,88.9,84.3,89.4z"/>
	</g>
	<g>
		<circle class="st33" cx="88.3" cy="88.6" r="1.4"/>
		<path d="M86.4,88.6c0-1,0.9-1.9,1.9-1.9c1,0,1.9,0.9,1.9,1.9s-0.9,1.9-1.9,1.9C87.3,90.5,86.4,89.7,86.4,88.6z M87.4,88.6
			c0,0.5,0.4,0.9,0.9,0.9s0.9-0.4,0.9-0.9s-0.4-0.9-0.9-0.9C87.7,87.7,87.4,88.1,87.4,88.6z"/>
	</g>
	<g>
		<circle class="st33" cx="91.5" cy="87.8" r="1.4"/>
		<path d="M89.6,87.8c0-1,0.9-1.9,1.9-1.9s1.9,0.9,1.9,1.9s-0.9,1.9-1.9,1.9S89.6,88.9,89.6,87.8z M90.5,87.8c0,0.5,0.4,0.9,0.9,0.9
			s0.9-0.4,0.9-0.9s-0.4-0.9-0.9-0.9C90.9,86.9,90.5,87.3,90.5,87.8z"/>
	</g>
	<g>
		<circle class="st33" cx="94.7" cy="87.3" r="1.4"/>
		<path d="M92.8,87.3c0-1,0.9-1.9,1.9-1.9c1,0,1.9,0.9,1.9,1.9c0,1-0.9,1.9-1.9,1.9C93.6,89.2,92.8,88.3,92.8,87.3z M93.7,87.3
			c0,0.5,0.4,0.9,0.9,0.9s0.9-0.4,0.9-0.9c0-0.5-0.4-0.9-0.9-0.9C94.1,86.4,93.7,86.8,93.7,87.3z"/>
	</g>
	<g>
		<circle class="st33" cx="97.9" cy="87" r="1.4"/>
		<path d="M96,87c0-1,0.9-1.9,1.9-1.9c1,0,1.9,0.9,1.9,1.9c0,1-0.9,1.9-1.9,1.9C96.8,88.8,96,88,96,87z M96.9,87
			c0,0.5,0.4,0.9,0.9,0.9s0.9-0.4,0.9-0.9c0-0.5-0.4-0.9-0.9-0.9S96.9,86.5,96.9,87z"/>
	</g>
	<g>
		<circle class="st33" cx="101" cy="87.1" r="1.4"/>
		<path d="M99.1,87.1c0-1,0.9-1.9,1.9-1.9c1,0,1.9,0.9,1.9,1.9S102,89,101,89C100,89,99.1,88.1,99.1,87.1z M100,87.1
			c0,0.5,0.4,0.9,0.9,0.9s0.9-0.4,0.9-0.9s-0.4-0.9-0.9-0.9C100.5,86.3,100,86.6,100,87.1z"/>
	</g>
	<g>
		<circle class="st33" cx="104" cy="88.1" r="1.4"/>
		<path d="M102.1,88.1c0-1,0.9-1.9,1.9-1.9c1,0,1.9,0.9,1.9,1.9S105,90,104,90C103,90,102.1,89.2,102.1,88.1z M103,88.1
			c0,0.5,0.4,0.9,0.9,0.9s0.9-0.4,0.9-0.9c0-0.5-0.4-0.9-0.9-0.9S103,87.6,103,88.1z"/>
	</g>
	<g>
		<circle class="st33" cx="106.5" cy="90" r="1.4"/>
		<path d="M104.6,90c0-1,0.9-1.9,1.9-1.9c1,0,1.9,0.9,1.9,1.9c0,1-0.9,1.9-1.9,1.9C105.4,91.9,104.6,91.1,104.6,90z M105.5,90
			c0,0.5,0.4,0.9,0.9,0.9s0.9-0.4,0.9-0.9c0-0.5-0.4-0.9-0.9-0.9S105.5,89.5,105.5,90z"/>
	</g>
	<g>
		<circle class="st33" cx="108.3" cy="92.6" r="1.4"/>
		<path d="M106.4,92.6c0-1,0.9-1.9,1.9-1.9c1,0,1.9,0.9,1.9,1.9s-0.9,1.9-1.9,1.9C107.3,94.5,106.4,93.6,106.4,92.6z M107.3,92.6
			c0,0.5,0.4,0.9,0.9,0.9s0.9-0.4,0.9-0.9s-0.4-0.9-0.9-0.9S107.3,92.1,107.3,92.6z"/>
	</g>
	<g>
		<circle class="st33" cx="109.1" cy="95.6" r="1.4"/>
		<path d="M107.3,95.6c0-1,0.9-1.9,1.9-1.9c1,0,1.9,0.9,1.9,1.9s-0.9,1.9-1.9,1.9C108.1,97.5,107.3,96.7,107.3,95.6z M108.2,95.6
			c0,0.5,0.4,0.9,0.9,0.9s0.9-0.4,0.9-0.9s-0.4-0.9-0.9-0.9C108.6,94.7,108.2,95.1,108.2,95.6z"/>
	</g>
	<g>
		<circle class="st33" cx="109.1" cy="98.8" r="1.4"/>
		<path d="M107.2,98.8c0-1,0.9-1.9,1.9-1.9c1,0,1.9,0.9,1.9,1.9c0,1-0.9,1.9-1.9,1.9C108.1,100.7,107.2,99.8,107.2,98.8z
			 M108.1,98.8c0,0.5,0.4,0.9,0.9,0.9s0.9-0.4,0.9-0.9c0-0.5-0.4-0.9-0.9-0.9C108.6,97.8,108.1,98.3,108.1,98.8z"/>
	</g>
	<g>
		<circle class="st33" cx="108.5" cy="101.8" r="1.4"/>
		<path d="M106.6,101.8c0-1,0.9-1.9,1.9-1.9c1,0,1.9,0.9,1.9,1.9c0,1-0.9,1.9-1.9,1.9C107.4,103.7,106.6,102.8,106.6,101.8z
			 M107.5,101.8c0,0.5,0.4,0.9,0.9,0.9s0.9-0.4,0.9-0.9c0-0.5-0.4-0.9-0.9-0.9C108,101,107.5,101.3,107.5,101.8z"/>
	</g>
	<g>
		<path class="st33" d="M98.7,88.6c5.6,0,8.8,4.1,8.8,8.2c0,4.9-1.8,8.6-4,12.8l-2.5-1.2c2.4-3.9,4.1-7.7,4.1-11.9
			c0-4.3-3.3-6-7.5-6c-4.6,0-9.5,2-13,2.5l-0.1-1.8C88.7,90.3,93.7,88.6,98.7,88.6z"/>
		<path d="M103.2,110.1l-2.5-1.2c-0.1-0.1-0.2-0.1-0.2-0.3c-0.1-0.1,0-0.3,0.1-0.4c2-3.3,4.1-7.3,4.1-11.6c0-4.8-4.4-5.5-7.1-5.5
			c-2.9,0-6,0.8-8.7,1.5c-1.5,0.4-3,0.8-4.2,0.9c-0.1,0-0.3,0-0.4-0.1c-0.1-0.1-0.1-0.2-0.1-0.4l-0.1-1.8c0-0.2,0.1-0.4,0.4-0.5
			c0.9-0.2,2-0.5,3.1-0.7c3.4-0.9,7.4-1.8,11.1-1.8c6,0,9.3,4.4,9.3,8.7c0,5.2-2,9-4.1,13c-0.1,0.1-0.2,0.3-0.4,0.3
			C103.4,110.1,103.3,110.1,103.2,110.1z M87.7,90.9c-0.9,0.2-1.8,0.4-2.7,0.7l0.1,0.9c1.1-0.2,2.3-0.5,3.6-0.9
			c2.8-0.7,5.9-1.5,8.9-1.5c5.1,0,8,2.3,8,6.5c0,4.4-2,8.4-3.9,11.7l1.5,0.7c2-3.8,3.8-7.5,3.8-12.2c0-3.7-2.9-7.7-8.3-7.7
			C94.9,89.1,91.1,90,87.7,90.9z"/>
	</g>
</g>
<g>
	<path class="st33" d="M82.1,72.5l-1.5,2.7l1.5,2.7l1.5-2.7L82.1,72.5z M82.1,79.3L80.6,82l1.5,2.7l1.5-2.7L82.1,79.3z"/>
	<path d="M82.1,85.3L82.1,85.3c-0.1,0-0.4-0.1-0.4-0.2l-1.5-2.7c-0.1-0.1-0.1-0.3,0-0.4l1.5-2.7c0.1-0.3,0.7-0.3,0.9,0L84,82
		c0.1,0.1,0.1,0.3,0,0.4l-1.5,2.7C82.4,85.2,82.2,85.3,82.1,85.3z M81.1,82.1l0.9,1.7l0.9-1.7L82,80.4L81.1,82.1z M82.1,78.4
		L82.1,78.4c-0.1,0-0.4-0.1-0.4-0.2l-1.5-2.7c-0.1-0.1-0.1-0.3,0-0.4l1.5-2.7c0.1-0.3,0.7-0.3,0.9,0L84,75c0.1,0.1,0.1,0.3,0,0.4
		l-1.5,2.7C82.4,78.3,82.2,78.4,82.1,78.4z M81.1,75.2l0.9,1.7l0.9-1.7L82,73.5L81.1,75.2z"/>
</g>
<g>
	<path class="st33" d="M76.8,78.6l2.3,1.5l2.3-1.5l-2.3-1.5L76.8,78.6z M82.6,78.6l2.3,1.5l2.3-1.5l-2.3-1.5L82.6,78.6z"/>
	<path d="M79.2,80.6c-0.1,0-0.1,0-0.3-0.1L76.5,79c-0.1-0.1-0.2-0.2-0.2-0.4s0.1-0.3,0.2-0.4l2.3-1.5c0.1-0.1,0.4-0.1,0.5,0l2.3,1.5
		c0.1,0.1,0.2,0.2,0.2,0.4s-0.1,0.3-0.2,0.4l-2.3,1.5C79.3,80.6,79.2,80.6,79.2,80.6z M77.8,78.6l1.4,0.9l1.4-0.9l-1.4-0.9
		L77.8,78.6z M84.9,80.6c-0.1,0-0.1,0-0.3-0.1L82.4,79c-0.1-0.1-0.2-0.2-0.2-0.4s0.1-0.3,0.2-0.4l2.3-1.5c0.1-0.1,0.4-0.1,0.5,0
		l2.3,1.5c0.1,0.1,0.2,0.2,0.2,0.4s-0.1,0.3-0.2,0.4l-2.3,1.5C85.1,80.6,85.1,80.6,84.9,80.6z M83.5,78.6l1.4,0.9l1.4-0.9l-1.4-0.9
		L83.5,78.6z"/>
</g>
<g>
	<circle class="st33" cx="82.1" cy="78.7" r="1.1"/>
	<path d="M82.1,80.3c-0.9,0-1.6-0.7-1.6-1.6c0-0.9,0.7-1.6,1.6-1.6s1.6,0.7,1.6,1.6C83.6,79.6,82.9,80.3,82.1,80.3z M82.1,78
		c-0.4,0-0.7,0.3-0.7,0.7c0,0.4,0.3,0.7,0.7,0.7s0.7-0.3,0.7-0.7C82.6,78.3,82.4,78,82.1,78z"/>
</g>
<g>
	<circle class="st33" cx="82.1" cy="85.7" r="3"/>
	<path d="M82.1,89.2c-1.9,0-3.4-1.5-3.4-3.4c0-1.9,1.5-3.4,3.4-3.4s3.4,1.5,3.4,3.4C85.5,87.6,84,89.2,82.1,89.2z M82.1,83.2
		c-1.4,0-2.5,1.1-2.5,2.5c0,1.4,1.1,2.5,2.5,2.5c1.4,0,2.5-1.1,2.5-2.5C84.5,84.3,83.4,83.2,82.1,83.2z"/>
</g>
<g>
	<path d="M79.2,86.8c-0.1,0-0.3-0.1-0.4-0.3c0-0.2,0.1-0.4,0.3-0.4c2-0.3,3.9-0.3,5.8,0c0.2,0,0.4,0.2,0.3,0.4
		c0,0.2-0.2,0.3-0.4,0.3C83,86.5,81.1,86.5,79.2,86.8C79.2,86.8,79.2,86.8,79.2,86.8z M84.9,85.3C84.8,85.3,84.8,85.3,84.9,85.3
		c-0.7-0.1-1.5-0.2-2.1-0.2c-0.2,0-0.4-0.1-0.4-0.4v-1.9c0-0.2,0.1-0.4,0.4-0.4c0.2,0,0.4,0.1,0.4,0.4v1.5c0.6,0.1,1.2,0.1,1.8,0.2
		c0.2,0,0.4,0.2,0.3,0.4C85.2,85.2,85.1,85.3,84.9,85.3z M79.2,85.3c-0.1,0-0.3-0.1-0.4-0.3c0-0.2,0.1-0.4,0.3-0.4
		c0.6-0.1,1.2-0.1,1.8-0.2v-0.1c0-0.4,0-0.8,0-1.4c0-0.2,0.1-0.4,0.4-0.4c0.2,0,0.4,0.1,0.4,0.4c0,0.6,0,1,0,1.5v0.4
		c0,0.2-0.1,0.4-0.4,0.4C80.6,85.1,80,85.2,79.2,85.3C79.2,85.3,79.2,85.3,79.2,85.3z"/>
</g>
<g>
	<path class="st33" d="M79.2,90.7c-0.3,4.8-0.9,9.8-2.7,13.3l3.1-1.2c1.1-4.1,1.3-9.2,1.6-11.7L79.2,90.7z M84.9,90.7l-2,0.3
		c0.3,2.5,0.6,7.7,1.6,11.7l3.1,1.2C85.8,100.4,85.2,95.5,84.9,90.7z"/>
	<path d="M87.7,104.4c-0.1,0-0.1,0-0.1,0l-3.1-1.2c-0.1-0.1-0.2-0.1-0.3-0.3c-0.8-3-1.1-6.6-1.4-9.2c-0.1-1-0.1-1.9-0.3-2.5
		c0-0.3,0.1-0.5,0.4-0.5l2-0.3c0.1,0,0.3,0,0.4,0.1s0.1,0.2,0.1,0.4c0.3,4.4,0.8,9.5,2.7,13.1c0.1,0.1,0.1,0.4-0.1,0.5
		C87.9,104.4,87.7,104.4,87.7,104.4z M85,102.4l1.7,0.7c-1.5-3.5-2-7.9-2.2-11.8l-0.9,0.1c0.1,0.6,0.1,1.3,0.2,2.1
		C84,96.1,84.3,99.5,85,102.4z M76.5,104.4c-0.1,0-0.3-0.1-0.4-0.1c-0.1-0.1-0.1-0.4-0.1-0.5c1.9-3.6,2.4-8.7,2.7-13.1
		c0-0.1,0.1-0.3,0.1-0.4c0.1-0.1,0.2-0.1,0.4-0.1l2,0.3c0.2,0.1,0.4,0.3,0.4,0.5c-0.1,0.7-0.1,1.5-0.3,2.5c-0.2,2.6-0.6,6.3-1.4,9.2
		c-0.1,0.1-0.1,0.3-0.3,0.3L76.5,104.4C76.5,104.4,76.5,104.4,76.5,104.4z M79.6,91.3c-0.2,4-0.7,8.4-2.2,11.8l1.7-0.7
		c0.7-2.8,1-6.3,1.3-8.9c0.1-0.8,0.1-1.5,0.2-2.1L79.6,91.3z"/>
</g>
<g>
	<path class="st33" d="M82.1,101.1c-3.6,0-6.3,1.7-6.5,6.1c-0.9-1.6-4.7-6.5-8.2-5.8c-2.1,0.4-3.9,3.3-3.6,6.6
		c-1.7-4.9-6.8-5.8-10.5-2.8c3.3,2.7,4.7,10.7,7.5,14.1h21.3h21.3c2.8-3.5,4.2-11.4,7.5-14.1c-3.7-2.9-8.7-2.1-10.5,2.8
		c0.3-3.3-1.5-6.2-3.6-6.6c-3.5-0.7-7.3,4.3-8.2,5.8C88.3,102.8,85.7,101.1,82.1,101.1z"/>
	<path d="M103.3,119.7H60.7c-0.1,0-0.3-0.1-0.4-0.1c-1.2-1.6-2.3-4-3.3-6.5c-1.2-3-2.5-6.1-4.2-7.6c-0.1-0.1-0.1-0.2-0.1-0.4
		c0-0.1,0.1-0.3,0.1-0.4c2-1.6,4.5-2.2,6.7-1.5c1.5,0.4,2.8,1.4,3.6,2.8c0.4-2.5,2-4.7,3.9-5.1c3.2-0.6,6.4,2.8,7.9,4.9
		c0.6-3.3,3-5.2,6.8-5.2s6.3,1.8,6.8,5.2c1.5-2.1,4.7-5.5,7.9-4.9c2,0.4,3.6,2.5,3.9,5.1c0.9-1.4,2.2-2.3,3.6-2.8
		c2.2-0.7,4.7-0.1,6.7,1.5c0.1,0.1,0.1,0.2,0.1,0.4s-0.1,0.3-0.1,0.4c-1.7,1.5-3,4.5-4.2,7.6c-1,2.5-2,4.9-3.3,6.5
		C103.5,119.7,103.5,119.7,103.3,119.7z M61,118.8h42.1c1.1-1.5,2-3.7,3-6c1.2-2.9,2.3-5.8,4-7.5c-1.7-1.2-3.6-1.5-5.4-1
		c-1.8,0.5-3.2,2-3.9,4c-0.1,0.2-0.3,0.4-0.6,0.3c-0.2-0.1-0.4-0.3-0.4-0.5c0.3-3.2-1.5-5.8-3.3-6.1c-3.1-0.6-6.7,3.9-7.6,5.6
		c-0.1,0.2-0.3,0.3-0.5,0.2c-0.2-0.1-0.4-0.2-0.4-0.4c-0.1-3.7-2.2-5.6-6-5.6c-3.9,0-5.9,1.9-6,5.6c0,0.2-0.1,0.4-0.4,0.4
		c-0.2,0.1-0.4-0.1-0.5-0.2c-0.9-1.7-4.6-6.2-7.6-5.6c-1.7,0.4-3.6,2.9-3.2,6.1c0,0.2-0.1,0.4-0.4,0.5c-0.2,0.1-0.5-0.1-0.6-0.3
		c-0.7-2-2.1-3.5-3.9-4c-1.7-0.5-3.7-0.1-5.4,1c1.7,1.7,2.9,4.7,4,7.5C59,115.1,59.9,117.3,61,118.8z"/>
</g>
<g>
	<g>
		<path d="M103.2,119.3c0,1.6-9.5,3.3-21.2,3.3s-21.2-1.7-21.2-3.3c0-1.6,9.5-2.4,21.2-2.4S103.2,117.7,103.2,119.3z"/>
		<path d="M82.1,122.9c-10.4,0-21.5-1.5-21.5-3.6c0-2.4,13.5-2.8,21.5-2.8s21.5,0.4,21.5,2.8C103.6,121.5,92.5,122.9,82.1,122.9z
			 M82.1,117.3c-15.7,0-20.8,1.4-20.8,2c0,1,8.1,2.9,20.8,2.9s20.8-2,20.8-2.9C102.9,118.6,97.8,117.3,82.1,117.3z"/>
	</g>
	<g>
		<circle class="st33" cx="82.1" cy="89.7" r="1"/>
		<path d="M82.1,91.1c-0.7,0-1.4-0.6-1.4-1.4c0-0.7,0.6-1.4,1.4-1.4c0.8,0,1.4,0.6,1.4,1.4C83.4,90.5,82.8,91.1,82.1,91.1z
			 M82.1,89.2c-0.4,0-0.7,0.3-0.7,0.7s0.3,0.7,0.7,0.7s0.7-0.3,0.7-0.7C82.6,89.5,82.4,89.2,82.1,89.2z"/>
	</g>
	<g>
		<circle class="st33" cx="82.1" cy="91.9" r="1"/>
		<path d="M82.1,93.3c-0.8,0-1.4-0.7-1.4-1.4s0.7-1.4,1.4-1.4s1.4,0.7,1.4,1.4S82.8,93.3,82.1,93.3z M82.1,91.2
			c-0.4,0-0.7,0.3-0.7,0.7s0.3,0.7,0.7,0.7s0.7-0.3,0.7-0.7S82.4,91.2,82.1,91.2z"/>
	</g>
	<g>
		<circle class="st33" cx="82.1" cy="94.2" r="1.2"/>
		<path d="M82.1,95.7c-0.8,0-1.5-0.7-1.5-1.5c0-0.8,0.7-1.5,1.5-1.5s1.5,0.7,1.5,1.5C83.5,95.1,82.9,95.7,82.1,95.7z M82.1,93.4
			c-0.4,0-0.8,0.4-0.8,0.8s0.4,0.8,0.8,0.8s0.8-0.4,0.8-0.8C82.8,93.7,82.5,93.4,82.1,93.4z"/>
	</g>
	<g>
		<circle class="st33" cx="82.1" cy="96.8" r="1.3"/>
		<path d="M82.1,98.4c-0.9,0-1.7-0.7-1.7-1.7s0.7-1.7,1.7-1.7s1.7,0.7,1.7,1.7S82.9,98.4,82.1,98.4z M82.1,95.8
			c-0.5,0-0.9,0.4-0.9,0.9c0,0.5,0.4,0.9,0.9,0.9s0.9-0.4,0.9-0.9C83,96.2,82.6,95.8,82.1,95.8z"/>
	</g>
	<g>
		<circle class="st33" cx="82.1" cy="99.6" r="1.5"/>
		<path d="M82.1,101.4c-1,0-1.8-0.8-1.8-1.8s0.8-1.8,1.8-1.8s1.8,0.8,1.8,1.8S83,101.4,82.1,101.4z M82.1,98.6
			c-0.6,0-1.1,0.5-1.1,1.1s0.5,1.1,1.1,1.1s1.1-0.5,1.1-1.1S82.6,98.6,82.1,98.6z"/>
	</g>
	<g>
		<path d="M81.5,102.4c-0.1,0-0.3,0.1-0.3,0.4c0.1,0.3,0.1,0.9,0.1,1.2c0.1,0.4,0.3,0.3,0.4,0c0.1-0.3,0.1-0.5,0.1-1.2
			C81.8,102.6,81.6,102.4,81.5,102.4z M82.6,102.4c-0.1,0-0.3,0.1-0.3,0.4c0,0.6,0,0.8,0.1,1.2c0.1,0.4,0.3,0.4,0.4,0
			c0.1-0.4,0.1-0.9,0.1-1.2C82.9,102.6,82.8,102.4,82.6,102.4z M80.5,102.6c-0.1,0-0.3,0.1-0.3,0.3c0,0.3,0.1,0.6,0.1,1
			c0,0.4,0.4,0.3,0.4,0c0-0.2,0.1-0.6,0-1.1C80.7,102.6,80.6,102.6,80.5,102.6L80.5,102.6z M83.6,102.6c-0.1,0-0.1,0.1-0.2,0.3
			c0,0.5,0,0.9,0,1.1c0,0.2,0.4,0.4,0.4,0s0.1-0.7,0.1-1C84,102.7,83.7,102.6,83.6,102.6L83.6,102.6z M79.2,103.1
			c-0.1,0-0.2,0.2-0.2,0.4c0.1,0.4,0.1,0.7,0.1,1.1c0,0.3,0.3,0.2,0.3,0c0-0.2,0.1-0.7,0.1-1.1C79.4,103.1,79.4,103,79.2,103.1z
			 M84.8,103.1c-0.1,0-0.1,0.1-0.1,0.4c0,0.4,0,0.9,0.1,1.1c0,0.2,0.3,0.4,0.3,0c0-0.4,0.1-0.7,0.1-1.1c0.1-0.1-0.1-0.4-0.2-0.4
			C84.8,103.1,84.8,103.1,84.8,103.1z M68.1,103.1c-0.1,0-0.3,0.2-0.1,0.4c0.1,0.4,0.4,0.6,0.5,1c0.1,0.4,0.4,0.1,0.3-0.1
			c-0.1-0.2-0.1-0.5-0.4-1.1C68.3,103.2,68.2,103.1,68.1,103.1z M96,103.1c-0.1,0-0.2,0.1-0.3,0.3c-0.2,0.5-0.3,0.8-0.4,1.1
			c-0.1,0.2,0.1,0.5,0.3,0.1c0.1-0.4,0.4-0.7,0.5-1C96.3,103.3,96.1,103.1,96,103.1z M69.3,103.1c-0.1,0-0.2,0.1-0.1,0.4
			c0.1,0.4,0.4,0.7,0.5,1.1c0.1,0.3,0.4,0.2,0.3-0.1c-0.1-0.3-0.1-0.4-0.3-1C69.5,103.1,69.3,103.1,69.3,103.1z M94.7,103.1
			c-0.1,0-0.2,0.1-0.3,0.3c-0.2,0.6-0.2,0.7-0.3,1c-0.1,0.3,0.2,0.4,0.3,0.1c0.1-0.4,0.4-0.7,0.5-1.1
			C95,103.3,94.9,103.1,94.7,103.1C94.8,103.1,94.8,103.1,94.7,103.1z M70.6,103.4c-0.1,0-0.3,0.2-0.1,0.5c0.1,0.4,0.3,0.7,0.4,1.1
			c0.1,0.4,0.4,0.3,0.4,0.1c-0.1-0.2-0.1-0.7-0.3-1.3C70.9,103.5,70.8,103.4,70.6,103.4z M93.4,103.4c-0.1,0-0.2,0.1-0.3,0.4
			c-0.2,0.7-0.3,1-0.3,1.3c-0.1,0.2,0.2,0.4,0.4-0.1c0.1-0.4,0.4-0.7,0.4-1.1C93.7,103.6,93.6,103.4,93.4,103.4z M67.1,103.6
			c-0.1,0-0.3,0.3-0.2,0.4c0.1,0.3,0.3,0.4,0.4,0.7c0.1,0.4,0.3,0.1,0.3-0.1c-0.1-0.2-0.1-0.4-0.2-0.8
			C67.4,103.6,67.2,103.6,67.1,103.6z M96.9,103.6c-0.1,0-0.2,0.1-0.2,0.3c-0.1,0.3-0.1,0.6-0.2,0.8s0.1,0.5,0.3,0.1
			c0.1-0.4,0.2-0.4,0.4-0.7C97.2,103.9,97.1,103.6,96.9,103.6z M78,104.4c-0.1,0-0.4,0.2-0.3,0.4c0.1,0.4,0.2,0.6,0.4,1
			c0.1,0.4,0.4,0.2,0.4-0.1c0-0.2-0.1-0.6-0.1-1.1C78.2,104.4,78.1,104.4,78,104.4z M86.1,104.4c-0.1,0-0.2,0.1-0.2,0.3
			c-0.1,0.5-0.1,0.9-0.1,1.1c0,0.2,0.2,0.4,0.4,0.1c0.1-0.4,0.2-0.7,0.4-1C86.4,104.6,86.2,104.4,86.1,104.4z M82.1,104.7
			c-0.2,0-0.2,0.3-0.2,0.5c0,0.7-0.3,1.5-0.6,1.7c-0.3,0.4-0.7,0.3-1,0.1c-0.4-0.2-0.6-0.3-0.9-0.6c-0.4-0.3-0.7-0.1-0.2,0.5
			c1.3,1.8,2.7,3.4,2.7,6.5c0,0.4,0.1,0.5,0.2,0.5s0.2-0.1,0.2-0.5c0-3.1,1.4-4.6,2.7-6.5c0.4-0.7,0.1-0.8-0.2-0.5
			c-0.4,0.3-0.6,0.4-0.9,0.6c-0.4,0.2-0.7,0.3-1-0.1c-0.3-0.4-0.6-1-0.6-1.7C82.3,105,82.2,104.7,82.1,104.7z M72.1,104.2
			C72.1,104.2,72,104.2,72.1,104.2c-0.1,0-0.1,0.1-0.1,0.3c0.1,0.3,0.2,0.8,0.3,1.1c0.1,0.3,0.4,0.2,0.3-0.1
			c-0.1-0.4-0.1-0.4-0.1-0.9C72.4,104.4,72.2,104.2,72.1,104.2z M92,104.2c-0.1,0-0.3,0.1-0.4,0.4c-0.1,0.4-0.1,0.5-0.1,0.9
			c-0.1,0.4,0.2,0.4,0.3,0.1c0.1-0.3,0.3-0.8,0.3-1.1C92.2,104.4,92.1,104.3,92,104.2C92,104.2,92,104.2,92,104.2z M66.2,104.4
			c-0.1,0-0.3,0.2-0.1,0.5s0.5,0.7,0.7,0.9s0.4,0.1,0.2-0.2c-0.1-0.3-0.2-0.7-0.4-1.1C66.4,104.4,66.3,104.4,66.2,104.4z
			 M97.9,104.4c-0.1,0-0.2,0.1-0.3,0.2c-0.2,0.4-0.3,0.7-0.4,1.1c-0.1,0.3,0.1,0.4,0.2,0.2c0.1-0.2,0.4-0.7,0.7-0.9
			C98.2,104.6,98.1,104.4,97.9,104.4z M57.2,105.3c-0.2,0-0.2,0.4-0.1,0.6c0.3,0.3,0.4,0.5,0.7,0.8c0.2,0.2,0.3-0.1,0.2-0.3
			c-0.1-0.2-0.3-0.4-0.5-0.8C57.5,105.4,57.3,105.3,57.2,105.3z M106.8,105.3c-0.1,0-0.2,0.1-0.3,0.3c-0.2,0.4-0.4,0.6-0.5,0.8
			c-0.1,0.2-0.1,0.5,0.2,0.3c0.3-0.3,0.5-0.4,0.7-0.8C107.1,105.6,107,105.3,106.8,105.3z M58.6,105.6c-0.1,0-0.2,0.1-0.1,0.4
			c0.1,0.4,0.4,0.8,0.5,1.1s0.6,0.4,0.4-0.1c-0.1-0.4-0.2-0.7-0.4-1.1C59,105.7,58.8,105.6,58.6,105.6z M105.4,105.6
			c-0.1,0-0.4,0.1-0.4,0.3c-0.1,0.4-0.2,0.7-0.4,1.1c-0.1,0.4,0.3,0.4,0.4,0.1c0.1-0.3,0.4-0.7,0.5-1.1
			C105.6,105.7,105.6,105.6,105.4,105.6z M55.9,105.7c-0.2,0-0.2,0.2-0.1,0.4c0.3,0.2,0.6,0.4,0.9,0.7c0.4,0.3,0.5,0,0.3-0.2
			c-0.2-0.2-0.4-0.4-0.9-0.7C56.1,105.7,56,105.7,55.9,105.7z M108.2,105.7c-0.1,0-0.1,0-0.3,0.1c-0.4,0.2-0.7,0.4-0.9,0.7
			c-0.2,0.2-0.1,0.5,0.3,0.2c0.3-0.2,0.6-0.4,0.9-0.7C108.4,105.9,108.4,105.7,108.2,105.7z M77.3,105.9c-0.1,0-0.2,0.1-0.1,0.4
			c0.1,0.3,0.2,0.7,0.3,1c0.1,0.4,0.4,0.4,0.4,0c-0.1-0.3-0.1-0.7-0.2-1.1C77.5,106,77.4,105.9,77.3,105.9L77.3,105.9z M86.8,105.9
			c-0.1,0-0.1,0.1-0.2,0.3c-0.1,0.4-0.1,0.8-0.2,1.1c-0.1,0.3,0.3,0.3,0.4,0c0.1-0.4,0.1-0.7,0.3-1
			C87.1,106.1,86.9,105.9,86.8,105.9L86.8,105.9z M68.7,105.3c-0.1,0-0.1,0.2-0.1,0.4c0.4,1.5,0.5,2.2,0.4,2.5s-0.3,0.4-0.5,0.3
			c-0.2-0.1-0.6-0.3-0.8-0.4c-0.2-0.1-0.5,0-0.1,0.3c1.7,1.4,2.9,3,3.3,4.9c0.1,0.4,0.4,0.4,0.3,0c-0.4-2.5-0.4-4.4,0.1-5.8
			c0.2-0.5,0-0.9-0.4-0.1c-0.2,0.5-0.6,0.7-0.9,0.3c-0.3-0.4-0.9-1.6-1.1-2.2C69,105.5,68.9,105.3,68.7,105.3
			C68.8,105.3,68.7,105.3,68.7,105.3z M95.2,105.3c-0.1,0-0.1,0.1-0.2,0.3c-0.2,0.5-0.8,1.7-1.1,2.2c-0.3,0.4-0.7,0.2-0.9-0.3
			c-0.4-0.8-0.6-0.3-0.4,0.1c0.6,1.2,0.5,3.3,0.1,5.8c-0.1,0.4,0.1,0.4,0.3,0c0.4-2,1.7-3.6,3.3-4.9c0.4-0.3,0.1-0.4-0.1-0.3
			c-0.2,0.1-0.5,0.4-0.8,0.4c-0.3,0.1-0.4,0.1-0.5-0.3c-0.1-0.4,0.1-1.1,0.4-2.5C95.5,105.5,95.4,105.3,95.2,105.3
			C95.3,105.3,95.3,105.3,95.2,105.3z M60.2,106c-0.1,0-0.3,0.1-0.2,0.4c0.1,0.4,0.4,0.8,0.4,1c0.1,0.2,0.4,0.1,0.3-0.2
			c-0.1-0.4-0.1-0.5-0.1-0.9C60.5,106.1,60.3,106,60.2,106z M103.9,106c-0.1,0-0.4,0.1-0.4,0.3c-0.1,0.4-0.1,0.6-0.1,0.9
			c-0.1,0.3,0.2,0.4,0.3,0.2c0.1-0.2,0.3-0.7,0.4-1C104.2,106.1,104,106,103.9,106z M65.5,105.5c-0.1,0-0.2,0.4-0.1,0.6
			c0.2,0.2,0.5,0.6,0.8,0.9c0.2,0.3,0.4,0,0.2-0.2c-0.1-0.2-0.4-0.5-0.7-1.1C65.6,105.6,65.5,105.5,65.5,105.5z M98.6,105.5
			c-0.1,0-0.1,0.1-0.2,0.2c-0.4,0.6-0.6,0.9-0.7,1.1c-0.1,0.2,0,0.5,0.2,0.2c0.3-0.4,0.6-0.7,0.8-0.9
			C98.8,106,98.8,105.5,98.6,105.5z M61.4,106.6c-0.1,0-0.2,0.1-0.1,0.3c0.1,0.3,0.1,0.6,0.2,0.9c0.1,0.3,0.3,0.2,0.3,0
			c0-0.3-0.1-0.6-0.1-0.9C61.6,106.8,61.5,106.6,61.4,106.6z M102.7,106.6c-0.1,0-0.2,0.1-0.3,0.3c-0.1,0.3-0.1,0.6-0.1,0.9
			c0,0.3,0.2,0.4,0.3,0c0.1-0.3,0.1-0.6,0.2-0.9C102.9,106.7,102.8,106.6,102.7,106.6z M65.1,107.1c-0.1,0-0.4,0.2-0.1,0.4
			c0.3,0.4,0.7,0.7,0.8,0.9c0.1,0.1,0.4,0.1,0.2-0.2c-0.2-0.4-0.5-0.7-0.7-1C65.3,107.1,65.2,107,65.1,107.1z M99,107.1
			c-0.1,0-0.1,0.1-0.2,0.1c-0.1,0.2-0.4,0.7-0.7,1c-0.2,0.4,0.1,0.4,0.2,0.2c0.1-0.1,0.5-0.4,0.8-0.9
			C99.3,107.2,99.2,107.1,99,107.1C99,107,99,107.1,99,107.1z M59.2,108.2c-0.1,0-0.2,0.1,0,0.4c0.4,0.6,0.9,1.5,0.9,1.8
			c0,0.4-0.1,0.4-0.3,0.4c-0.5,0-0.8-0.4-1.2-0.5c-0.4-0.1-0.5,0.1-0.2,0.4c1.7,1.2,3.4,2.6,4.1,3.9c0.3,0.5,0.7,0.7,0.4,0.2
			c-0.7-1.5-0.8-2.8-0.7-3.6c0.1-0.8,0.4-1.3,0.3-1.7c0-0.4-0.3-0.4-0.4,0c-0.1,0.3-0.2,0.7-0.3,0.8c-0.1,0.1-0.4,0.2-0.8-0.3
			c-0.4-0.5-1.2-1.4-1.5-1.7C59.4,108.3,59.4,108.2,59.2,108.2z M104.8,108.2c-0.1,0-0.2,0.1-0.3,0.1c-0.3,0.2-1.2,1.2-1.5,1.7
			c-0.4,0.5-0.7,0.4-0.8,0.3c-0.1-0.1-0.2-0.5-0.3-0.8c-0.1-0.4-0.4-0.4-0.4,0s0.1,0.9,0.3,1.7c0.1,0.8,0,2-0.7,3.6
			c-0.2,0.5,0.1,0.3,0.4-0.2c0.7-1.2,2.4-2.7,4.1-3.9c0.4-0.2,0.3-0.5-0.2-0.4c-0.4,0.1-0.7,0.5-1.2,0.5c-0.1,0-0.4,0-0.3-0.4
			c0-0.4,0.5-1.2,0.9-1.8C105,108.3,105,108.2,104.8,108.2z"/>
	</g>
	<g>
		<path class="st33" d="M61.8,117.5l0.6,1.7 M62.9,117.1l0.5,1.7 M64.2,117l0.4,1.8 M65.3,116.7l0.4,1.8 M66.7,116.6l0.3,1.8
			 M68.2,116.6l0.3,1.8 M69.8,116.1l0.2,1.8 M71.2,116.2l0.2,1.8 M72.6,115.9l0.2,1.8 M73.9,115.8l0.1,1.8 M75.4,115.8l0.1,1.8
			 M76.8,115.7l0.1,1.8 M78.2,115.7l0.1,1.8 M80,115.6l0.1,1.8 M102.3,117.5l-0.6,1.7 M101.1,117.1l-0.5,1.7 M100,117l-0.4,1.8
			 M98.8,116.7l-0.4,1.8 M97.4,116.6l-0.3,1.8 M95.8,116.6l-0.3,1.8 M94.3,116.1l-0.2,1.8 M92.9,116.2l-0.2,1.8 M91.5,115.9
			l-0.2,1.8 M90.1,115.8l-0.1,1.8 M88.6,115.8l-0.1,1.8 M87.3,115.7l-0.1,1.8 M85.9,115.7l-0.1,1.8 M84.2,115.6l-0.1,1.8
			 M82.1,115.5v2"/>
		<path d="M101.7,119.6L101.7,119.6c-0.3-0.1-0.4-0.3-0.3-0.4l0.6-1.7c0.1-0.2,0.3-0.3,0.4-0.2c0.2,0.1,0.3,0.3,0.2,0.4l-0.6,1.7
			C102,119.4,101.9,119.6,101.7,119.6z M62.3,119.6c-0.1,0-0.3-0.1-0.4-0.2l-0.6-1.7c-0.1-0.2,0.1-0.4,0.2-0.4
			c0.2-0.1,0.4,0.1,0.4,0.2l0.6,1.7C62.7,119.4,62.6,119.5,62.3,119.6L62.3,119.6z M100.7,119.2L100.7,119.2
			c-0.3-0.1-0.4-0.2-0.3-0.4l0.5-1.7c0.1-0.2,0.2-0.3,0.4-0.2c0.2,0.1,0.3,0.2,0.2,0.4l-0.5,1.7C101,119.2,100.8,119.2,100.7,119.2z
			 M63.4,119.2c-0.1,0-0.3-0.1-0.4-0.3l-0.5-1.7c-0.1-0.2,0.1-0.4,0.2-0.4c0.2-0.1,0.4,0.1,0.4,0.2l0.5,1.7
			C63.7,118.9,63.6,119.1,63.4,119.2C63.4,119.2,63.4,119.2,63.4,119.2z M99.6,119.1C99.6,119.1,99.5,119.1,99.6,119.1
			c-0.3-0.1-0.4-0.2-0.4-0.4l0.4-1.8c0.1-0.2,0.2-0.3,0.4-0.3c0.2,0.1,0.3,0.2,0.3,0.4l-0.4,1.8C99.9,119,99.8,119.1,99.6,119.1z
			 M64.5,119.1c-0.1,0-0.3-0.1-0.4-0.3l-0.4-1.8c-0.1-0.2,0.1-0.4,0.3-0.4c0.2,0,0.4,0.1,0.4,0.3l0.4,1.8
			C64.9,118.9,64.7,119.1,64.5,119.1C64.5,119.1,64.5,119.1,64.5,119.1z M98.4,118.9C98.4,118.9,98.4,118.9,98.4,118.9
			c-0.3-0.1-0.4-0.2-0.4-0.4l0.4-1.8c0.1-0.2,0.2-0.3,0.4-0.3c0.2,0.1,0.3,0.2,0.3,0.4l-0.4,1.8C98.8,118.7,98.6,118.9,98.4,118.9z
			 M65.6,118.9c-0.1,0-0.3-0.1-0.4-0.3l-0.4-1.8c-0.1-0.2,0.1-0.4,0.3-0.4c0.2-0.1,0.4,0.1,0.4,0.3l0.4,1.8
			C66,118.6,65.9,118.8,65.6,118.9C65.7,118.9,65.6,118.9,65.6,118.9z M97.1,118.7L97.1,118.7c-0.2,0-0.4-0.2-0.4-0.4l0.3-1.8
			c0-0.2,0.2-0.4,0.4-0.3c0.2,0,0.4,0.2,0.3,0.4l-0.3,1.8C97.4,118.6,97.2,118.7,97.1,118.7z M67,118.7c-0.1,0-0.3-0.1-0.4-0.3
			l-0.3-1.8c0-0.2,0.1-0.4,0.3-0.4c0.2,0,0.4,0.1,0.4,0.3l0.3,1.8C67.4,118.5,67.3,118.7,67,118.7C67.1,118.7,67,118.7,67,118.7z
			 M95.5,118.7C95.5,118.7,95.5,118.7,95.5,118.7c-0.3-0.1-0.4-0.2-0.4-0.4l0.3-1.8c0-0.2,0.2-0.4,0.4-0.3c0.2,0,0.3,0.2,0.3,0.4
			l-0.3,1.8C95.8,118.6,95.7,118.7,95.5,118.7z M68.6,118.7c-0.1,0-0.3-0.1-0.4-0.3l-0.3-1.8c0-0.2,0.1-0.4,0.3-0.4
			c0.2,0,0.4,0.1,0.4,0.3l0.3,1.8C69,118.5,68.8,118.7,68.6,118.7L68.6,118.7z M92.6,118.4L92.6,118.4c-0.2,0-0.4-0.2-0.4-0.4
			l0.2-1.8c0-0.2,0.2-0.4,0.4-0.3c0.2,0,0.4,0.2,0.3,0.4l-0.2,1.8C93,118.2,92.8,118.4,92.6,118.4z M71.4,118.4
			c-0.1,0-0.4-0.1-0.4-0.3l-0.2-1.8c0-0.2,0.1-0.4,0.3-0.4c0.2,0,0.4,0.1,0.4,0.3l0.2,1.8C71.8,118.1,71.7,118.3,71.4,118.4
			L71.4,118.4z M94.1,118.2L94.1,118.2c-0.2,0-0.4-0.2-0.4-0.4l0.2-1.8c0-0.2,0.2-0.4,0.4-0.3c0.2,0,0.4,0.2,0.3,0.4l-0.2,1.8
			C94.4,118.1,94.2,118.2,94.1,118.2z M70,118.2c-0.1,0-0.4-0.1-0.4-0.3l-0.2-1.8c0-0.2,0.1-0.4,0.3-0.4c0.2,0,0.4,0.1,0.4,0.3
			l0.2,1.8C70.3,118.1,70.3,118.2,70,118.2C70.1,118.2,70,118.2,70,118.2z M72.8,118.1c-0.1,0-0.4-0.1-0.4-0.3l-0.2-1.8
			c0-0.2,0.1-0.4,0.3-0.4c0.2,0,0.4,0.1,0.4,0.3l0.2,1.8C73.2,117.9,73,118.1,72.8,118.1L72.8,118.1z M91.3,118.1
			C91.2,118.1,91.2,118.1,91.3,118.1c-0.2,0-0.4-0.2-0.4-0.4l0.2-1.8c0-0.2,0.2-0.4,0.4-0.3c0.2,0,0.4,0.2,0.3,0.4l-0.2,1.8
			C91.6,118,91.5,118.1,91.3,118.1z M88.5,118L88.5,118c-0.2,0-0.4-0.2-0.4-0.4l0.1-1.8c0-0.2,0.2-0.4,0.4-0.4
			c0.2,0,0.4,0.2,0.4,0.4l-0.1,1.8C88.9,117.8,88.8,118,88.5,118z M75.5,118c-0.2,0-0.4-0.1-0.4-0.4l-0.1-1.8c0-0.2,0.1-0.4,0.4-0.4
			c0.2,0,0.4,0.1,0.4,0.4l0.1,1.8C75.9,117.8,75.7,118,75.5,118L75.5,118z M90,118L90,118c-0.2,0-0.4-0.2-0.4-0.4l0.1-1.8
			c0-0.2,0.2-0.4,0.4-0.4c0.2,0,0.4,0.2,0.4,0.4l-0.1,1.8C90.4,117.8,90.2,118,90,118z M74.1,118c-0.2,0-0.4-0.1-0.4-0.4l-0.1-1.8
			c0-0.2,0.1-0.4,0.4-0.4c0.2,0,0.4,0.1,0.4,0.4l0.1,1.8C74.4,117.8,74.3,118,74.1,118L74.1,118z M87.2,117.9L87.2,117.9
			c-0.2,0-0.4-0.1-0.4-0.4l0.1-1.8c0-0.2,0.1-0.4,0.4-0.4c0.2,0,0.4,0.1,0.4,0.4l-0.1,1.8C87.6,117.8,87.4,117.9,87.2,117.9z
			 M76.8,117.9c-0.2,0-0.4-0.1-0.4-0.4l-0.1-1.8c0-0.2,0.1-0.4,0.4-0.4s0.4,0.1,0.4,0.4l0.1,1.8C77.2,117.8,77,117.9,76.8,117.9
			C76.9,117.9,76.8,117.9,76.8,117.9z M82.1,117.8c-0.2,0-0.4-0.1-0.4-0.4v-2c0-0.2,0.1-0.4,0.4-0.4s0.4,0.1,0.4,0.4v2
			C82.4,117.7,82.2,117.8,82.1,117.8z M85.8,117.8L85.8,117.8c-0.2,0-0.4-0.1-0.4-0.4l0.1-1.8c0-0.2,0.1-0.4,0.4-0.4
			s0.4,0.1,0.4,0.4l-0.1,1.8C86.1,117.7,85.9,117.8,85.8,117.8z M78.3,117.8c-0.2,0-0.4-0.1-0.4-0.4l-0.1-1.8c0-0.2,0.1-0.4,0.4-0.4
			c0.2,0,0.4,0.1,0.4,0.4l0.1,1.8C78.6,117.6,78.5,117.8,78.3,117.8C78.4,117.8,78.3,117.8,78.3,117.8z M84.1,117.8
			C84,117.8,84,117.8,84.1,117.8c-0.2,0-0.4-0.1-0.4-0.4l0.1-1.8c0-0.2,0.1-0.4,0.4-0.4s0.4,0.1,0.4,0.4l-0.1,1.8
			C84.4,117.6,84.3,117.8,84.1,117.8z M80,117.8c-0.2,0-0.4-0.1-0.4-0.4l-0.1-1.8c0-0.2,0.1-0.4,0.4-0.4s0.4,0.1,0.4,0.4l0.1,1.8
			C80.4,117.6,80.2,117.8,80,117.8L80,117.8z"/>
	</g>
</g>
</svg>
