<?xml version="1.0" encoding="utf-8"?>
<!-- Generator: Adobe Illustrator 24.3.0, SVG Export Plug-In . SVG Version: 6.00 Build 0)  -->
<svg version="1.1" id="Layer_1" xmlns="http://www.w3.org/2000/svg" xmlns:xlink="http://www.w3.org/1999/xlink" x="0px" y="0px"
	 viewBox="0 0 400 300" style="enable-background:new 0 0 400 300;" xml:space="preserve">
<style type="text/css">
	.st0{fill:none;}
	.st1{fill:#F3F2EF;}
	.st2{fill:#C98017;}
	.st3{fill:#FBED60;}
	.st4{fill:#FABA31;}
	.st5{fill:#68C2EE;}
	.st6{fill:#0491BE;}
	.st7{fill:#68C2EF;}
	.st8{fill:#31798F;}
	.st9{fill:#C1BDBE;}
	.st10{fill:#6E6E6E;}
	.st11{fill:#6C6C6C;}
	.st12{fill:#BCBCBC;}
	.st13{fill:#E1E1E1;}
	.st14{fill:#0A0A09;}
	.st15{clip-path:url(#SVGID_2_);}
	.st16{fill:#D80C13;}
	.st17{clip-path:url(#SVGID_4_);}
	.st18{fill:#FFFFFF;}
	.st19{clip-path:url(#SVGID_6_);}
	.st20{fill:#08437F;}
</style>
<rect y="16.6" class="st0" width="400" height="300"/>
<path class="st1" d="M245.6,25.5c6.3,6.1,6.4,16.2,0.3,22.5l0,0l-0.3,0.3c-6.3,6.3-16.5,6.4-22.8,0.1c-6.3-6.3-6.4-16.5-0.1-22.8
	C229,19.2,239.2,19.1,245.6,25.5L245.6,25.5z M240.3,43c1.7-1.6,2.5-3.8,2.5-6.1c0.1-2.3-0.9-4.5-2.5-6c-1.7-1.7-3.8-2.5-6.2-2.4
	c-4.6-0.1-8.5,3.7-8.6,8.3v0.2c0,2.3,0.9,4.5,2.4,6.1c1.6,1.7,3.8,2.5,6,2.5C236.4,45.6,238.7,44.6,240.3,43z M277.2,27.5
	l-41.7,64.8c-0.7,1.3-2.1,2.2-3.6,2.1c-2.4-0.1-4.3-2-4.4-4.4c0.1-0.9,0.3-1.7,0.8-2.5l41.8-64.8c0.7-1.3,2.1-2.2,3.6-2.1
	c1.2,0,2.4,0.4,3.1,1.3c0.9,0.8,1.3,2,1.2,3.1C278,25.8,277.7,26.7,277.2,27.5L277.2,27.5z M259.9,89.6c-6.3-6.3-6.3-16.4,0-22.7
	l0.1-0.1c3-3,7.1-4.6,11.3-4.7c8.9-0.1,16.1,7.1,16.2,16s-7.1,16.1-16,16.2C267.2,94.4,263,92.7,259.9,89.6z M265.1,72.2
	c-3.4,3.2-3.5,8.6-0.3,12l0.1,0.1l0.2,0.2c3.3,3.3,8.7,3.4,12,0.1c1.7-1.7,2.6-4,2.5-6.5c-0.2-4.5-3.8-8.2-8.4-8.4
	C269,69.6,266.8,70.6,265.1,72.2L265.1,72.2z"/>
<g>
	
		<ellipse transform="matrix(0.2051 -0.9787 0.9787 0.2051 -168.7247 260.858)" class="st2" cx="76.2" cy="234.3" rx="25.7" ry="46.8"/>
	
		<ellipse transform="matrix(0.225 -0.9744 0.9744 0.225 -163.907 253.7155)" class="st3" cx="77.5" cy="229.9" rx="22.7" ry="46.8"/>
	
		<ellipse transform="matrix(0.225 -0.9744 0.9744 0.225 -163.907 253.7155)" class="st4" cx="77.5" cy="229.9" rx="18.2" ry="37.4"/>
	<path class="st2" d="M64.8,233c0.5,2.4,4.8,4.5,9.2,5.1c2.8,0.3,5.2-0.2,6.3-1.3l0.6-0.6l1.2,0.5c1.2,0.5,2.7,0.8,4.1,0.9
		c4.5,0.5,7.6-1.1,7-3.4l-0.2-0.8l4.7,0.6c1,0.1,1.7-0.2,1.6-0.7s-1.1-1-2-1.1l-4.7-0.6l-0.8-3.3l4.7,0.6c1,0.1,1.7-0.2,1.5-0.7
		c-0.5-0.7-1.2-1-2-1.1l-4.7-0.6l-0.6-2.5c-0.1-0.5-1.1-1-2-1.1c-1-0.1-1.7,0.2-1.5,0.7l0.6,2.5l-22-2.3l-0.6-2.5
		c-0.1-0.5-1.1-1-2-1.1c-1-0.1-1.7,0.2-1.5,0.7l0.6,2.5l-4.7-0.6c-1-0.1-1.7,0.2-1.6,0.7s1.1,1,2,1.1l4.7,0.6l0.8,3.3l-4.7-0.6
		c-1-0.1-1.7,0.2-1.5,0.7c0.5,0.7,1.2,1,2,1.1l4.7,0.6L64.8,233z M88.5,228.1l1.5,5.8c0.3,1.3-1.5,2.2-3.9,2c-2.6-0.1-5-1.6-5.4-3
		l-1.5-5.8L88.5,228.1z M66.4,225.7l9.2,1l2,7.5c0.3,1.3-1.5,2.2-3.9,2c-2.4-0.2-5-1.5-5.4-3L66.4,225.7z"/>
</g>
<g>
	
		<ellipse transform="matrix(0.6382 -0.7699 0.7699 0.6382 -17.5806 60.0445)" class="st5" cx="55.1" cy="48.7" rx="41.1" ry="19.8"/>
	
		<ellipse transform="matrix(0.6382 -0.7699 0.7699 0.6382 -16.2236 57.6774)" class="st6" cx="53.3" cy="46.1" rx="40.2" ry="18.4"/>
	
		<ellipse transform="matrix(0.6382 -0.7699 0.7699 0.6382 -16.2236 57.6774)" class="st7" cx="53.3" cy="46.1" rx="32.2" ry="14.8"/>
	<path class="st8" d="M58.2,40.6l6.4-6.3c-0.8-0.6-1.4-1.1-2-1.7c-0.4-0.4-0.8-0.1-1.2,0.6c-2.2,1.9-4.2,4-6.3,6.1
		c-1.3,1.3-2.2,1.8-3.2,1.8c-1.2-0.1-1.5,0-2.8,2.1l1.9,0c-2.2,2.3-4.3,4-6.4,6.2l7.1,5.8c0.1,0.1,0.4,0.1,0.7-0.2
		c1-0.9,2.1-1.9,3.3-2.8l-4.9-4c1.2-1.1,2.3-2.2,3.4-3.3c1.3-1.4,2.3-1.9,3.3-1.8c1.2,0.1,1.3,0,2.8-2.1L58.2,40.6z"/>
</g>
<g>
	<ellipse class="st9" cx="200.8" cy="255.2" rx="32.2" ry="37"/>
	<ellipse class="st10" cx="196.8" cy="253.9" rx="31.1" ry="35.8"/>
	<ellipse class="st9" cx="196.8" cy="253.9" rx="24.9" ry="28.7"/>
	<path class="st10" d="M202.2,237.4c3.3,0,5.9,2.8,6,6.8c0.2,3.6-2.3,6.7-5.2,7.1c-0.4,0.1-0.8,0.2-1.3,0.1
		c-1.4-0.2-2.5,0.8-2.6,2.2v0.4c0,1.6,1,2.8,2.5,2.7c3-0.2,5.5,2,6.2,5.3c0.7,2.5-0.2,5.2-2,7c-1.5,1.8-4.2,2.2-6.2,1
		c-2.3-1.1-3.5-3.2-3.6-6c-0.1-1.4,0.2-2.7,0.8-3.9c0.5-1,0.3-2.2-0.5-3.1c-0.7-0.8-1.7-0.8-2.5-0.4c-0.3,0.3-0.7,0.5-0.8,0.9
		c-1.5,2.5-3.6,3.6-6.2,2.9c-2.5-0.6-4.2-2.5-4.8-5.6c-0.8-4.2,2.5-8.6,6.3-8.2c2.5,0.2,4.2,1.6,5.3,4.2c0.3,1.1,1.5,1.7,2.5,1.4
		c0.1,0,0.1,0,0.2-0.1c0.2-0.1,0.2-0.1,0.3-0.2c1.2-0.8,1.7-2.4,1-3.6c-0.6-1.2-1-2.5-1.1-3.7C196.1,240.5,198.8,237.5,202.2,237.4z
		"/>
</g>
<g>
	<path class="st11" d="M343.4,216.4c2.4,1.5,4.9,3.1,7,5l0.5,0.3c0.2,0.4,0.5,0.8,0.9,1l0.2,0.2c0.2,1.3,1.7,2.3,2.5,3.6
		c0.5,0.8,0.2,1.4,1.2,1.9c0.2,1.7,1.1,3.8,1.3,5.8c-0.2,0.1-0.1,0.3,0,0.5h0.1c-0.2,1.1-0.4,2.3-0.3,3.5c0,0-0.6,0-0.2,0.2
		c-1,2.7-2.5,5.2-4.4,7.5c-1.9,1.2-3.6,3.5-5.9,4.6c-18.7,13.3-67.3,8.4-72.7-15.5c0.2-0.2-0.3-0.4-0.2-0.8s0.4-0.5,0.1-0.7
		c-0.9-1.6,0.8-5,0.7-6.4c0.3-0.4,0.4-0.8,0.4-1.2c0.5-0.6,0.7-1.4,1.4-1.8c0.9-1.5,1.9-2.9,3.1-4.2c0.5-0.3,0.9-0.6,1.4-1.1
		c2.7-2.2,5.6-3.8,8.9-5.1c0.3-0.5,1.3-0.2,1.3-0.9c0.1,0.2,0.3,0.1,0.5,0v-0.1c3.5-1,7.6-2,11.4-3c0.3,0.1,0.7,0.1,0.9-0.2
		c6-0.4,12.1-0.5,18.1-0.1c0.6,0.3,1.5,0.5,2.2,0.2c1.6,0.5,3.3,0.9,5.1,0.9c0.3,0.1,0.5,0.4,0.7,0.1c1.4,0.9,3.5,0.9,5,1.7
		c0.5-0.3,0.9,0.6,1.5,0.1c0.2,0.2,0.3-0.1,0.6,0c-0.1,0.7,0.6,0.5,1,0.6C339.1,214.8,341.3,214.9,343.4,216.4z M345.5,244.3
		c11.5-10.4,0.9-22.4-9.5-26.9c-26.5-11.2-59.7,0.3-55.5,17.5c1.7,9.3,12.3,13.9,20.5,16.8c14.8,3.4,32.1,3.3,44.2-6.8L345.5,244.3z
		"/>
	<path class="st12" d="M345.2,244.8C333,255,315.7,255,301,251.6c-8.1-2.9-18.8-7.5-20.5-16.8c0.6-4.3,2.6-8.2,5.9-11.1
		c9.8-7.2,20.3-7.8,30.9-7.9c4.9,1.2,10.7,1.3,15.3,3.7c10.2,3.2,21.1,14.2,12.9,24.5C345.3,244.1,344.7,244.5,345.2,244.8z
		 M318.2,226C318.6,226.3,318.7,225.4,318.2,226c-6-1.5-11.9-2.6-18.1-3.8l4.6,11.4c1.2-2,2.2-4.4,3.3-6.3
		C311.5,227,314.7,226.6,318.2,226z M324.3,227c-4.6,0-9.7,1.1-14.6,1.4c-0.8,1.1-1.5,2.4-2,3.7c-0.9,1.5-1.7,3.1-2.4,4.6
		c0.2,0.4,0.6,0,0.8,0.2c8.8,2.2,17.9,4.7,26.9,6.5C330.2,238.2,327.8,231.9,324.3,227z"/>
	<path class="st12" d="M357.1,240.3l-0.2,0.2c-0.5,1.6-0.7,3.4-0.7,5.2c-0.5,0.6-0.3,1.5-0.9,2.1c-0.6,2.6-2.9,4.7-4.5,7
		c-2.9,2.1-5.9,4.2-9.1,5.9c-0.1,0-0.3-0.1-0.3,0.1v0.1c-1.9,0.3-4.2,1.9-6.3,2.1c-2,0.7-4.3,0.5-5.9,1.7c-0.1-0.2-0.3-0.1-0.5,0
		v0.1c-0.5-0.4-1.1-0.3-1.5,0.1c-0.1,0-0.3-0.1-0.5,0.1c-0.5-0.4-1.1-0.3-1.5,0.1c-0.1-0.2-0.3-0.1-0.5,0.1c-0.1-0.2-0.3-0.1-0.5,0
		v0.1c-0.4-0.3-0.7-0.2-1,0l0,0c-0.6-0.3-0.8-0.2-1.3,0.4c-4.7-0.4-9.8-0.1-14.7-0.7c-1.1-0.2-3.4-1.2-4.5-0.6c-1.9-1-4.8-1-6.9-2.2
		c-0.7,0.2-1-0.6-1.5-0.3c-5.3-2.3-10.6-4.9-14.6-8.9c-1.4-1.3-2.5-3.5-4.1-4.8c0.2-0.7-0.4-1.2-0.9-2.1c-1.2-3.5-1.4-7.3-0.6-10.9
		c6.4,25.3,56,28,72.7,15.2c2.2-1,4.1-3.1,5.9-4.6c1.9-2.3,3.4-4.8,4.4-7.5C357.7,238.9,357.1,239.7,357.1,240.3L357.1,240.3z"/>
	<path class="st13" d="M345.5,244.3c8.4-10.9-3.4-21.4-12.9-24.5c-4.6-2.4-10.3-2.5-15.3-3.7c-11.3-0.1-21.9,1.2-30.9,7.9
		c-2.1,2.1-3.9,4.5-5.1,7.1c-0.6,1.3,0,2.5-0.9,3.9c-1.8-6.4,2.7-11.9,7.8-15.4c14.6-9.2,34.7-7.5,47.7-2
		C350.1,223.7,355.1,236,345.5,244.3z"/>
	<path class="st13" d="M345.2,244.8c-0.1,0-0.2-0.4-0.1-0.5c0-0.1,0.4-0.2,0.5-0.1L345.2,244.8z"/>
	<path class="st11" d="M324.5,227c3.3,4.9,5.7,11,8.8,16.4c-8.7-1.7-18-4.2-26.9-6.5c3.4-1.5,8.6-1.9,12.6-2.6
		C320.7,232,322.5,229.6,324.5,227z"/>
	<path class="st14" d="M324.5,227c-1.8,2.4-3.7,4.7-5.5,7.4c-4,0.7-8.8,1.1-12.6,2.6c-0.2-0.2-0.7,0.2-0.8-0.2
		c0.8-1.6,1.5-3.1,2.4-4.6c0.6-1.3,1.2-2.6,2-3.7C314.5,228.2,319.8,227,324.5,227z"/>
	<path class="st11" d="M318.1,226.2l-10.2,1.1c-1,1.8-2,4.2-3.3,6.3l-4.6-11.4C306.2,223.6,312.2,224.5,318.1,226.2z"/>
</g>
<g>
	<g>
		<g>
			<defs>
				<path id="SVGID_1_" d="M303.1,156.7c0,0.8,0,1.5,0,2.3c-0.7,2.2-2.2,2.9-4.3,2.8c-1.3-0.1-2.6,0-3.9,0c-1.1,0-2.1,0.5-2.7,1.4
					c-1.4,2-2.5,4.1-4.2,5.9c-0.2,0.2-0.3,0.5-0.3,0.8c-0.1,1.1-0.8,1.9-1.6,2.6c-1.3,1.1-2.8,1.9-4.4,2.4c-2,0.7-3.2,2-3.6,4
					c-0.6,2.4-1.2,4.8-1.7,7.2c-0.5,2.3-1.8,3.7-4,4.1c-1.8,0.3-2.9,1.4-3.4,3.1c-0.4,1.2-1,2.4-2.2,3c-2.3,1.3-4.4,2.9-6.7,4.4
					c-1.2,0.8-2.5,1.4-3.9,1.8c-0.7,0.2-1.4,0.2-2-0.2c-0.8-0.5-1.8-0.6-2.7-0.1c-0.8,0.4-1.5,0.3-2.3,0c-0.9-0.3-1.7-0.6-2.6-0.9
					c-4.5-1.7-5.1-1.5-7.4,2.7c-1.9,3.4-3.8,6.9-5.3,10.8c-0.7-1.5-1.3-2.8-1.9-4.2c-0.4-0.9-1-1.2-2.1-1.1
					c-2.4,0.1-4.9-0.1-6.3-2.4c-1.1-1.8-2.6-2.2-4.5-2.6c-2.9-0.7-4.8,0-6.1,2.6c-0.5,0.9-1.3,1.2-2.4,1c-2.8-0.3-5.5-0.7-8.3-0.9
					c-2.6-0.2-4.8-1.2-6.7-2.9c-0.9-0.8-2-1.6-2.9-2.4c-0.8-0.7-1.7-0.9-2.7-0.7c-3.1,0.7-5.7-0.4-8.2-2c-2.2-1.5-4.5-2.9-6.8-4.1
					c-2.3-1.1-4.3-1.2-6.4,0.3c-0.3,0.3-0.8,0.5-1.2,0.7c-0.4,0.1-0.8,0.1-0.9-0.4c-0.2-1.9-1.7-2.4-3.1-2.9c-2.4-1-3.8-0.1-3.6,2.5
					c0.3,3.9-1.2,7.1-2.4,10.8c-3.3-1.1-4.9,1.3-6.6,3.3c-0.1,0.2-0.2,0.3-0.4,0.5c-1.7,1.5-2.2,3.3-1.7,5.5
					c0.1,0.5,0.3,1.1-0.2,1.5c-0.6,0.3-1.2,0-1.6-0.4c-1.3-1.4-3-1.9-4.9-2.1c-0.5,0-0.9-0.2-1.3-0.5c-0.9-0.5-1.5-0.2-2.1,0.5
					c-0.7,0.8-1.4,1.5-2.1,2.2c-1,1.1-2.2,1.4-3.6,1c-2.6-0.8-5.2-1.6-7.9-2.3c-1.9-0.6-2.4-1.2-1.8-3.1c0.2-0.9,0-1.5-0.6-2
					c-1.1-0.9-2.1-1.8-3.3-2.6c-2.4-1.5-4.3-3.4-5.5-6.1c-0.3-0.7-0.9-1.3-1.4-2c-0.4-0.5-0.8-0.8-1.5-0.9c-0.9-0.1-1.5-0.7-2-1.4
					c-0.5-0.7-0.9-1.4-1.5-2c-1.2-1.4-2.2-1.6-3.9-1c-0.5,0.2-0.9,0.5-1.5,0.4c-0.3-0.6-0.6-1.2-1-1.9c-0.9-1.8-1.7-3.6-2.7-5.3
					c-0.9-1.4-2-2.5-3.5-2.9c-2.9-0.7-4.6-2.7-5.7-5.4c-1-2.3-2.3-4.5-4.1-6.3c-0.9-0.9-1.9-1.4-3.1-1.4c-0.7,0-1.4,0-2-0.4
					c-3.5-2.2-6.5-4.9-7.2-9.3c-0.1-0.5-0.2-1-0.6-1.4c-1.5-1.5-2.3-3.4-2.9-5.4c-0.8-2.5-2-4.6-4.2-6.2c-1-0.7-1.1-1.5-0.2-2.5
					c1.4-1.7,2.9-3.3,4.1-5.2c0.5-0.8,1.1-1.6,0.7-2.6c-1-2.5-2.2-5-4.8-6.3c-1.3-0.7-2.6-1.5-3.7-2.4c-1.7-1.5-3-3.1-3.2-5.5
					c-0.1-1.6-0.8-3.2-1.8-4.5c-0.7-0.9-1-1.9-0.9-3.1c0-0.9-0.1-2,0.9-2.3c1-0.3,1.6,0.6,2.1,1.2c1.1,1.3,1.7,2.8,2.1,4.4
					c0.3,1,0.4,2.1,1.5,2.7c1-0.7,1-1.8,1.2-2.8c0.3-1.6,0.8-3.1,1.9-4.4c1.5-1.7,3.1-3.2,4.9-4.4c1.5-1,3.2-1.6,5-1.2
					c1.4,0.3,2.6-0.1,3.5-1.2c0.9-1,1.9-1.1,3.1-0.5c1,0.5,1.9,1,2.9,1.6s1.7,0.3,2.4-0.5c0.5-0.6,0.9-1.2,1-2c0.4-2,0.4-2,2.5-2
					c0.3,0,0.7-0.1,1,0c1.7,0.2,2.8-0.5,3.6-1.9c0.5-0.9,1.2-1.9,2.4-2.2c1.4-0.3,2.4-1.1,3.3-2.2c0.5-0.6,1.1-0.8,1.8-0.5
					c3,1.4,3.5,0.6,4.6-2.2c0-0.1,0.1-0.2,0.1-0.3c0.5-1.6,1.6-2.4,3.2-2.7c2.3-0.3,4.7-0.7,7-0.9c1.6-0.2,2.9-0.8,3.9-2.1
					c1.1-1.6,2.6-2.2,4.5-2c1.7,0.1,3.3-0.3,4.7-1.2c2.3-1.5,4.6-2.7,7.2-3.6c0.6-0.2,1.3-0.5,1.7-1.2c-2.1-0.4-3.3-1.8-4.4-3.3
					c-0.7-0.9-0.7-3.4,0-3.9c1.2-0.7,2.2,0.1,3.1,0.8c1,0.8,1.9,0.9,3.1,0.3c2-1,4.9,1,4.7,3.3c-0.1,1.1-0.3,2.1-0.5,3.2
					c0.9,0.5,1.7-0.2,2.6,0c0.2,0.6,0,1.1-0.1,1.6c-0.2,1.5,0.1,2.1,1.5,2.7c1.7,0.7,3.3,0.4,4.8-0.6c1.1-0.7,2.2-1,3.5-0.4
					c1.4,0.6,2.6,0,3.1-1.5c0.4-1.1,0.3-2.3,0.1-3.5c-0.1-0.8-0.3-1.7-0.4-2.5c-0.1-0.8,0.3-1.3,1.1-1.1c2.5,0.7,5.2,0.9,7.6,1.7
					c0.9,0.3,1.5,1.1,1.4,2c-0.4,2.5,0.4,4.4,2.2,6.1c0.6,0.6,0.9,1.4,1.2,2.2c0.1,0.4,0.2,0.8,0.8,1.1c1.3-1.9,3.1-0.9,4.8-0.5
					c2.2,0.5,4.2,1.3,6.2,2.2c1.4,0.6,2.8,1.1,4.4,0.7c0.8-0.2,1.2,0.2,1.4,0.9c0.3,1.1,0.6,2.2,0.9,3.3c1.6-0.2,3.2-0.4,4.7-0.6
					c0.2,1.5-0.2,2.9,0.5,4.3c1.2-0.7,1.9-1.7,2.9-2.4c0.4-0.3,0.8-0.8,1.5-0.4c1,0.6,2.2,0.5,3.2,0c2.4-1.1,4.3-0.1,6,1.4
					c1.3,1.2,1.4,2.3,0.5,3.7c-1.1,1.9-2.7,3.3-4.5,4.5c-0.6,0.4-1.2,0.8-1.7,1.2c-0.5,0.4-0.8,1-0.6,1.7c0.4,1.4,2.6,3.1,4.1,3.1
					c0.8,0,1.3,0.3,1.7,0.8c2.5,3.3,5.4,6.3,7.2,10.1c0.7,1.4,1.7,2.6,3,3.6c1.5,1.2,2.5,1,3.7-0.5c0.2-0.2,0.4-0.5,0.5-0.7
					c0.8-2.2,2.6-3.1,4.7-3.6c1.4-0.3,2.8-0.7,4.1-1.2c1.5-0.5,1.6-1.2,0.7-2.5c-0.7-0.8-1.4-1.6-2.1-2.4c-1.4-1.5-2.6-3.1-3.2-4.9
					c-0.3-0.8-0.6-1.7,0-2.5c0.7-0.8,1.6-0.4,2.5-0.3c0.6,0.1,1.1,0.3,1.7,0.6c2.1,0.8,4.1,1.9,6,3c2.5,1.5,4.7,3.3,7.2,4.6
					c3.9,2,7.8,2.3,11.7,0.2c0.9-0.5,1.9-0.9,2.9-1.4c0.2,1.5,0.3,2.9,0.6,4.2c0.3,1.4-0.1,2.2-1.5,2.6c-1.6,0.6-3.2,1.4-4.9,2.1
					c1.1,1.2,1.9,2.7,3.4,3c1.9,0.3,2.9,1.5,3.6,3.1c0.6,1.4,1.6,2.6,2.9,3.4c0.7,0.4,1.3,0.6,2,0.3c1.8-0.6,3.4-1.6,5.5-2
					c-0.3-0.3-0.5-0.6-0.6-0.7c-0.5-0.6-1.2-1.3-0.5-2c0.8-0.8,1.4,0.2,1.9,0.6c1.2,0.9,2.2,2.2,3.7,2.6c1.9,0.7,3.5,1.7,4.9,3.2
					c0.4,0.4,0.9,0.8,1.5,0.5c1.4-0.8,2.7-0.3,3.9,0.5c1.4,0.9,2.8,1.6,4.4,0.5c0.1-0.1,0.3,0,0.5,0c0.1,0.1,0.2,0.2,0.2,0.3
					c0.1,0.6,0.3,1.1,0.4,1.7c0.6,4.8,2.5,8.5,6.7,11.2C301.2,153,302.5,154.6,303.1,156.7z"/>
			</defs>
			<clipPath id="SVGID_2_">
				<use xlink:href="#SVGID_1_"  style="overflow:visible;"/>
			</clipPath>
			<g class="st15">
				<path class="st16" d="M309.1,146.4c0,28.9,0,57.8,0,86.8c-86.7,0-173.3,0-259.9,0c0.2-0.1,0.3-0.3,0.5-0.5
					c17-11.4,34.1-22.7,51.1-34.1c25.8-17.2,51.6-34.4,77.4-51.6c0.3-0.2,0.6-0.5,0.9-0.7c0.5,0,0.9,0,1.4,0c42.4,0,84.8,0,127.3,0
					C308.2,146.3,308.7,146.3,309.1,146.4z"/>
			</g>
		</g>
		<g>
			<defs>
				<path id="SVGID_3_" d="M303.1,156.7c0,0.8,0,1.5,0,2.3c-0.7,2.2-2.2,2.9-4.3,2.8c-1.3-0.1-2.6,0-3.9,0c-1.1,0-2.1,0.5-2.7,1.4
					c-1.4,2-2.5,4.1-4.2,5.9c-0.2,0.2-0.3,0.5-0.3,0.8c-0.1,1.1-0.8,1.9-1.6,2.6c-1.3,1.1-2.8,1.9-4.4,2.4c-2,0.7-3.2,2-3.6,4
					c-0.6,2.4-1.2,4.8-1.7,7.2c-0.5,2.3-1.8,3.7-4,4.1c-1.8,0.3-2.9,1.4-3.4,3.1c-0.4,1.2-1,2.4-2.2,3c-2.3,1.3-4.4,2.9-6.7,4.4
					c-1.2,0.8-2.5,1.4-3.9,1.8c-0.7,0.2-1.4,0.2-2-0.2c-0.8-0.5-1.8-0.6-2.7-0.1c-0.8,0.4-1.5,0.3-2.3,0c-0.9-0.3-1.7-0.6-2.6-0.9
					c-4.5-1.7-5.1-1.5-7.4,2.7c-1.9,3.4-3.8,6.9-5.3,10.8c-0.7-1.5-1.3-2.8-1.9-4.2c-0.4-0.9-1-1.2-2.1-1.1
					c-2.4,0.1-4.9-0.1-6.3-2.4c-1.1-1.8-2.6-2.2-4.5-2.6c-2.9-0.7-4.8,0-6.1,2.6c-0.5,0.9-1.3,1.2-2.4,1c-2.8-0.3-5.5-0.7-8.3-0.9
					c-2.6-0.2-4.8-1.2-6.7-2.9c-0.9-0.8-2-1.6-2.9-2.4c-0.8-0.7-1.7-0.9-2.7-0.7c-3.1,0.7-5.7-0.4-8.2-2c-2.2-1.5-4.5-2.9-6.8-4.1
					c-2.3-1.1-4.3-1.2-6.4,0.3c-0.3,0.3-0.8,0.5-1.2,0.7c-0.4,0.1-0.8,0.1-0.9-0.4c-0.2-1.9-1.7-2.4-3.1-2.9c-2.4-1-3.8-0.1-3.6,2.5
					c0.3,3.9-1.2,7.1-2.4,10.8c-3.3-1.1-4.9,1.3-6.6,3.3c-0.1,0.2-0.2,0.3-0.4,0.5c-1.7,1.5-2.2,3.3-1.7,5.5
					c0.1,0.5,0.3,1.1-0.2,1.5c-0.6,0.3-1.2,0-1.6-0.4c-1.3-1.4-3-1.9-4.9-2.1c-0.5,0-0.9-0.2-1.3-0.5c-0.9-0.5-1.5-0.2-2.1,0.5
					c-0.7,0.8-1.4,1.5-2.1,2.2c-1,1.1-2.2,1.4-3.6,1c-2.6-0.8-5.2-1.6-7.9-2.3c-1.9-0.6-2.4-1.2-1.8-3.1c0.2-0.9,0-1.5-0.6-2
					c-1.1-0.9-2.1-1.8-3.3-2.6c-2.4-1.5-4.3-3.4-5.5-6.1c-0.3-0.7-0.9-1.3-1.4-2c-0.4-0.5-0.8-0.8-1.5-0.9c-0.9-0.1-1.5-0.7-2-1.4
					c-0.5-0.7-0.9-1.4-1.5-2c-1.2-1.4-2.2-1.6-3.9-1c-0.5,0.2-0.9,0.5-1.5,0.4c-0.3-0.6-0.6-1.2-1-1.9c-0.9-1.8-1.7-3.6-2.7-5.3
					c-0.9-1.4-2-2.5-3.5-2.9c-2.9-0.7-4.6-2.7-5.7-5.4c-1-2.3-2.3-4.5-4.1-6.3c-0.9-0.9-1.9-1.4-3.1-1.4c-0.7,0-1.4,0-2-0.4
					c-3.5-2.2-6.5-4.9-7.2-9.3c-0.1-0.5-0.2-1-0.6-1.4c-1.5-1.5-2.3-3.4-2.9-5.4c-0.8-2.5-2-4.6-4.2-6.2c-1-0.7-1.1-1.5-0.2-2.5
					c1.4-1.7,2.9-3.3,4.1-5.2c0.5-0.8,1.1-1.6,0.7-2.6c-1-2.5-2.2-5-4.8-6.3c-1.3-0.7-2.6-1.5-3.7-2.4c-1.7-1.5-3-3.1-3.2-5.5
					c-0.1-1.6-0.8-3.2-1.8-4.5c-0.7-0.9-1-1.9-0.9-3.1c0-0.9-0.1-2,0.9-2.3c1-0.3,1.6,0.6,2.1,1.2c1.1,1.3,1.7,2.8,2.1,4.4
					c0.3,1,0.4,2.1,1.5,2.7c1-0.7,1-1.8,1.2-2.8c0.3-1.6,0.8-3.1,1.9-4.4c1.5-1.7,3.1-3.2,4.9-4.4c1.5-1,3.2-1.6,5-1.2
					c1.4,0.3,2.6-0.1,3.5-1.2c0.9-1,1.9-1.1,3.1-0.5c1,0.5,1.9,1,2.9,1.6s1.7,0.3,2.4-0.5c0.5-0.6,0.9-1.2,1-2c0.4-2,0.4-2,2.5-2
					c0.3,0,0.7-0.1,1,0c1.7,0.2,2.8-0.5,3.6-1.9c0.5-0.9,1.2-1.9,2.4-2.2c1.4-0.3,2.4-1.1,3.3-2.2c0.5-0.6,1.1-0.8,1.8-0.5
					c3,1.4,3.5,0.6,4.6-2.2c0-0.1,0.1-0.2,0.1-0.3c0.5-1.6,1.6-2.4,3.2-2.7c2.3-0.3,4.7-0.7,7-0.9c1.6-0.2,2.9-0.8,3.9-2.1
					c1.1-1.6,2.6-2.2,4.5-2c1.7,0.1,3.3-0.3,4.7-1.2c2.3-1.5,4.6-2.7,7.2-3.6c0.6-0.2,1.3-0.5,1.7-1.2c-2.1-0.4-3.3-1.8-4.4-3.3
					c-0.7-0.9-0.7-3.4,0-3.9c1.2-0.7,2.2,0.1,3.1,0.8c1,0.8,1.9,0.9,3.1,0.3c2-1,4.9,1,4.7,3.3c-0.1,1.1-0.3,2.1-0.5,3.2
					c0.9,0.5,1.7-0.2,2.6,0c0.2,0.6,0,1.1-0.1,1.6c-0.2,1.5,0.1,2.1,1.5,2.7c1.7,0.7,3.3,0.4,4.8-0.6c1.1-0.7,2.2-1,3.5-0.4
					c1.4,0.6,2.6,0,3.1-1.5c0.4-1.1,0.3-2.3,0.1-3.5c-0.1-0.8-0.3-1.7-0.4-2.5c-0.1-0.8,0.3-1.3,1.1-1.1c2.5,0.7,5.2,0.9,7.6,1.7
					c0.9,0.3,1.5,1.1,1.4,2c-0.4,2.5,0.4,4.4,2.2,6.1c0.6,0.6,0.9,1.4,1.2,2.2c0.1,0.4,0.2,0.8,0.8,1.1c1.3-1.9,3.1-0.9,4.8-0.5
					c2.2,0.5,4.2,1.3,6.2,2.2c1.4,0.6,2.8,1.1,4.4,0.7c0.8-0.2,1.2,0.2,1.4,0.9c0.3,1.1,0.6,2.2,0.9,3.3c1.6-0.2,3.2-0.4,4.7-0.6
					c0.2,1.5-0.2,2.9,0.5,4.3c1.2-0.7,1.9-1.7,2.9-2.4c0.4-0.3,0.8-0.8,1.5-0.4c1,0.6,2.2,0.5,3.2,0c2.4-1.1,4.3-0.1,6,1.4
					c1.3,1.2,1.4,2.3,0.5,3.7c-1.1,1.9-2.7,3.3-4.5,4.5c-0.6,0.4-1.2,0.8-1.7,1.2c-0.5,0.4-0.8,1-0.6,1.7c0.4,1.4,2.6,3.1,4.1,3.1
					c0.8,0,1.3,0.3,1.7,0.8c2.5,3.3,5.4,6.3,7.2,10.1c0.7,1.4,1.7,2.6,3,3.6c1.5,1.2,2.5,1,3.7-0.5c0.2-0.2,0.4-0.5,0.5-0.7
					c0.8-2.2,2.6-3.1,4.7-3.6c1.4-0.3,2.8-0.7,4.1-1.2c1.5-0.5,1.6-1.2,0.7-2.5c-0.7-0.8-1.4-1.6-2.1-2.4c-1.4-1.5-2.6-3.1-3.2-4.9
					c-0.3-0.8-0.6-1.7,0-2.5c0.7-0.8,1.6-0.4,2.5-0.3c0.6,0.1,1.1,0.3,1.7,0.6c2.1,0.8,4.1,1.9,6,3c2.5,1.5,4.7,3.3,7.2,4.6
					c3.9,2,7.8,2.3,11.7,0.2c0.9-0.5,1.9-0.9,2.9-1.4c0.2,1.5,0.3,2.9,0.6,4.2c0.3,1.4-0.1,2.2-1.5,2.6c-1.6,0.6-3.2,1.4-4.9,2.1
					c1.1,1.2,1.9,2.7,3.4,3c1.9,0.3,2.9,1.5,3.6,3.1c0.6,1.4,1.6,2.6,2.9,3.4c0.7,0.4,1.3,0.6,2,0.3c1.8-0.6,3.4-1.6,5.5-2
					c-0.3-0.3-0.5-0.6-0.6-0.7c-0.5-0.6-1.2-1.3-0.5-2c0.8-0.8,1.4,0.2,1.9,0.6c1.2,0.9,2.2,2.2,3.7,2.6c1.9,0.7,3.5,1.7,4.9,3.2
					c0.4,0.4,0.9,0.8,1.5,0.5c1.4-0.8,2.7-0.3,3.9,0.5c1.4,0.9,2.8,1.6,4.4,0.5c0.1-0.1,0.3,0,0.5,0c0.1,0.1,0.2,0.2,0.2,0.3
					c0.1,0.6,0.3,1.1,0.4,1.7c0.6,4.8,2.5,8.5,6.7,11.2C301.2,153,302.5,154.6,303.1,156.7z"/>
			</defs>
			<clipPath id="SVGID_4_">
				<use xlink:href="#SVGID_3_"  style="overflow:visible;"/>
			</clipPath>
			<g class="st17">
				<path class="st18" d="M309.1,146.4c-0.5,0-0.9,0-1.3,0c-42.4,0-84.8,0-127.3,0c-0.5,0-0.9,0-1.4,0c-0.3-0.2-0.6-0.4-0.8-0.6
					c-5.4-3.6-10.9-7.3-16.4-10.9c-37-24.7-74-49.3-110.9-74c-0.6-0.4-1.2-0.8-1.8-1.2c86.6,0,173.3,0,259.9,0
					C309.1,88.5,309.1,117.4,309.1,146.4z"/>
			</g>
		</g>
		<g>
			<defs>
				<path id="SVGID_5_" d="M303.1,156.7c0,0.8,0,1.5,0,2.3c-0.7,2.2-2.2,2.9-4.3,2.8c-1.3-0.1-2.6,0-3.9,0c-1.1,0-2.1,0.5-2.7,1.4
					c-1.4,2-2.5,4.1-4.2,5.9c-0.2,0.2-0.3,0.5-0.3,0.8c-0.1,1.1-0.8,1.9-1.6,2.6c-1.3,1.1-2.8,1.9-4.4,2.4c-2,0.7-3.2,2-3.6,4
					c-0.6,2.4-1.2,4.8-1.7,7.2c-0.5,2.3-1.8,3.7-4,4.1c-1.8,0.3-2.9,1.4-3.4,3.1c-0.4,1.2-1,2.4-2.2,3c-2.3,1.3-4.4,2.9-6.7,4.4
					c-1.2,0.8-2.5,1.4-3.9,1.8c-0.7,0.2-1.4,0.2-2-0.2c-0.8-0.5-1.8-0.6-2.7-0.1c-0.8,0.4-1.5,0.3-2.3,0c-0.9-0.3-1.7-0.6-2.6-0.9
					c-4.5-1.7-5.1-1.5-7.4,2.7c-1.9,3.4-3.8,6.9-5.3,10.8c-0.7-1.5-1.3-2.8-1.9-4.2c-0.4-0.9-1-1.2-2.1-1.1
					c-2.4,0.1-4.9-0.1-6.3-2.4c-1.1-1.8-2.6-2.2-4.5-2.6c-2.9-0.7-4.8,0-6.1,2.6c-0.5,0.9-1.3,1.2-2.4,1c-2.8-0.3-5.5-0.7-8.3-0.9
					c-2.6-0.2-4.8-1.2-6.7-2.9c-0.9-0.8-2-1.6-2.9-2.4c-0.8-0.7-1.7-0.9-2.7-0.7c-3.1,0.7-5.7-0.4-8.2-2c-2.2-1.5-4.5-2.9-6.8-4.1
					c-2.3-1.1-4.3-1.2-6.4,0.3c-0.3,0.3-0.8,0.5-1.2,0.7c-0.4,0.1-0.8,0.1-0.9-0.4c-0.2-1.9-1.7-2.4-3.1-2.9c-2.4-1-3.8-0.1-3.6,2.5
					c0.3,3.9-1.2,7.1-2.4,10.8c-3.3-1.1-4.9,1.3-6.6,3.3c-0.1,0.2-0.2,0.3-0.4,0.5c-1.7,1.5-2.2,3.3-1.7,5.5
					c0.1,0.5,0.3,1.1-0.2,1.5c-0.6,0.3-1.2,0-1.6-0.4c-1.3-1.4-3-1.9-4.9-2.1c-0.5,0-0.9-0.2-1.3-0.5c-0.9-0.5-1.5-0.2-2.1,0.5
					c-0.7,0.8-1.4,1.5-2.1,2.2c-1,1.1-2.2,1.4-3.6,1c-2.6-0.8-5.2-1.6-7.9-2.3c-1.9-0.6-2.4-1.2-1.8-3.1c0.2-0.9,0-1.5-0.6-2
					c-1.1-0.9-2.1-1.8-3.3-2.6c-2.4-1.5-4.3-3.4-5.5-6.1c-0.3-0.7-0.9-1.3-1.4-2c-0.4-0.5-0.8-0.8-1.5-0.9c-0.9-0.1-1.5-0.7-2-1.4
					c-0.5-0.7-0.9-1.4-1.5-2c-1.2-1.4-2.2-1.6-3.9-1c-0.5,0.2-0.9,0.5-1.5,0.4c-0.3-0.6-0.6-1.2-1-1.9c-0.9-1.8-1.7-3.6-2.7-5.3
					c-0.9-1.4-2-2.5-3.5-2.9c-2.9-0.7-4.6-2.7-5.7-5.4c-1-2.3-2.3-4.5-4.1-6.3c-0.9-0.9-1.9-1.4-3.1-1.4c-0.7,0-1.4,0-2-0.4
					c-3.5-2.2-6.5-4.9-7.2-9.3c-0.1-0.5-0.2-1-0.6-1.4c-1.5-1.5-2.3-3.4-2.9-5.4c-0.8-2.5-2-4.6-4.2-6.2c-1-0.7-1.1-1.5-0.2-2.5
					c1.4-1.7,2.9-3.3,4.1-5.2c0.5-0.8,1.1-1.6,0.7-2.6c-1-2.5-2.2-5-4.8-6.3c-1.3-0.7-2.6-1.5-3.7-2.4c-1.7-1.5-3-3.1-3.2-5.5
					c-0.1-1.6-0.8-3.2-1.8-4.5c-0.7-0.9-1-1.9-0.9-3.1c0-0.9-0.1-2,0.9-2.3c1-0.3,1.6,0.6,2.1,1.2c1.1,1.3,1.7,2.8,2.1,4.4
					c0.3,1,0.4,2.1,1.5,2.7c1-0.7,1-1.8,1.2-2.8c0.3-1.6,0.8-3.1,1.9-4.4c1.5-1.7,3.1-3.2,4.9-4.4c1.5-1,3.2-1.6,5-1.2
					c1.4,0.3,2.6-0.1,3.5-1.2c0.9-1,1.9-1.1,3.1-0.5c1,0.5,1.9,1,2.9,1.6s1.7,0.3,2.4-0.5c0.5-0.6,0.9-1.2,1-2c0.4-2,0.4-2,2.5-2
					c0.3,0,0.7-0.1,1,0c1.7,0.2,2.8-0.5,3.6-1.9c0.5-0.9,1.2-1.9,2.4-2.2c1.4-0.3,2.4-1.1,3.3-2.2c0.5-0.6,1.1-0.8,1.8-0.5
					c3,1.4,3.5,0.6,4.6-2.2c0-0.1,0.1-0.2,0.1-0.3c0.5-1.6,1.6-2.4,3.2-2.7c2.3-0.3,4.7-0.7,7-0.9c1.6-0.2,2.9-0.8,3.9-2.1
					c1.1-1.6,2.6-2.2,4.5-2c1.7,0.1,3.3-0.3,4.7-1.2c2.3-1.5,4.6-2.7,7.2-3.6c0.6-0.2,1.3-0.5,1.7-1.2c-2.1-0.4-3.3-1.8-4.4-3.3
					c-0.7-0.9-0.7-3.4,0-3.9c1.2-0.7,2.2,0.1,3.1,0.8c1,0.8,1.9,0.9,3.1,0.3c2-1,4.9,1,4.7,3.3c-0.1,1.1-0.3,2.1-0.5,3.2
					c0.9,0.5,1.7-0.2,2.6,0c0.2,0.6,0,1.1-0.1,1.6c-0.2,1.5,0.1,2.1,1.5,2.7c1.7,0.7,3.3,0.4,4.8-0.6c1.1-0.7,2.2-1,3.5-0.4
					c1.4,0.6,2.6,0,3.1-1.5c0.4-1.1,0.3-2.3,0.1-3.5c-0.1-0.8-0.3-1.7-0.4-2.5c-0.1-0.8,0.3-1.3,1.1-1.1c2.5,0.7,5.2,0.9,7.6,1.7
					c0.9,0.3,1.5,1.1,1.4,2c-0.4,2.5,0.4,4.4,2.2,6.1c0.6,0.6,0.9,1.4,1.2,2.2c0.1,0.4,0.2,0.8,0.8,1.1c1.3-1.9,3.1-0.9,4.8-0.5
					c2.2,0.5,4.2,1.3,6.2,2.2c1.4,0.6,2.8,1.1,4.4,0.7c0.8-0.2,1.2,0.2,1.4,0.9c0.3,1.1,0.6,2.2,0.9,3.3c1.6-0.2,3.2-0.4,4.7-0.6
					c0.2,1.5-0.2,2.9,0.5,4.3c1.2-0.7,1.9-1.7,2.9-2.4c0.4-0.3,0.8-0.8,1.5-0.4c1,0.6,2.2,0.5,3.2,0c2.4-1.1,4.3-0.1,6,1.4
					c1.3,1.2,1.4,2.3,0.5,3.7c-1.1,1.9-2.7,3.3-4.5,4.5c-0.6,0.4-1.2,0.8-1.7,1.2c-0.5,0.4-0.8,1-0.6,1.7c0.4,1.4,2.6,3.1,4.1,3.1
					c0.8,0,1.3,0.3,1.7,0.8c2.5,3.3,5.4,6.3,7.2,10.1c0.7,1.4,1.7,2.6,3,3.6c1.5,1.2,2.5,1,3.7-0.5c0.2-0.2,0.4-0.5,0.5-0.7
					c0.8-2.2,2.6-3.1,4.7-3.6c1.4-0.3,2.8-0.7,4.1-1.2c1.5-0.5,1.6-1.2,0.7-2.5c-0.7-0.8-1.4-1.6-2.1-2.4c-1.4-1.5-2.6-3.1-3.2-4.9
					c-0.3-0.8-0.6-1.7,0-2.5c0.7-0.8,1.6-0.4,2.5-0.3c0.6,0.1,1.1,0.3,1.7,0.6c2.1,0.8,4.1,1.9,6,3c2.5,1.5,4.7,3.3,7.2,4.6
					c3.9,2,7.8,2.3,11.7,0.2c0.9-0.5,1.9-0.9,2.9-1.4c0.2,1.5,0.3,2.9,0.6,4.2c0.3,1.4-0.1,2.2-1.5,2.6c-1.6,0.6-3.2,1.4-4.9,2.1
					c1.1,1.2,1.9,2.7,3.4,3c1.9,0.3,2.9,1.5,3.6,3.1c0.6,1.4,1.6,2.6,2.9,3.4c0.7,0.4,1.3,0.6,2,0.3c1.8-0.6,3.4-1.6,5.5-2
					c-0.3-0.3-0.5-0.6-0.6-0.7c-0.5-0.6-1.2-1.3-0.5-2c0.8-0.8,1.4,0.2,1.9,0.6c1.2,0.9,2.2,2.2,3.7,2.6c1.9,0.7,3.5,1.7,4.9,3.2
					c0.4,0.4,0.9,0.8,1.5,0.5c1.4-0.8,2.7-0.3,3.9,0.5c1.4,0.9,2.8,1.6,4.4,0.5c0.1-0.1,0.3,0,0.5,0c0.1,0.1,0.2,0.2,0.2,0.3
					c0.1,0.6,0.3,1.1,0.4,1.7c0.6,4.8,2.5,8.5,6.7,11.2C301.2,153,302.5,154.6,303.1,156.7z"/>
			</defs>
			<clipPath id="SVGID_6_">
				<use xlink:href="#SVGID_5_"  style="overflow:visible;"/>
			</clipPath>
			<g class="st19">
				<path class="st20" d="M49.2,59.6c0.6,0.4,1.2,0.8,1.8,1.2c37,24.7,74,49.3,110.9,74c5.4,3.6,10.9,7.3,16.4,10.9
					c0.3,0.2,0.6,0.4,0.8,0.6c-0.3,0.2-0.6,0.5-0.9,0.7c-25.8,17.2-51.6,34.4-77.4,51.6c-17.1,11.3-34.1,22.7-51.2,34.1
					c-0.2,0.1-0.3,0.3-0.5,0.5c-0.1,0-0.2-0.1-0.2-0.1c0-0.3,0-0.6,0-0.8c0-57.2,0-114.4,0-171.7C49,60.2,48.7,59.8,49.2,59.6z"/>
			</g>
		</g>
	</g>
	<g>
		<path d="M133.8,218.1c-0.4,0-0.9-0.1-1.3-0.2c-2.5-0.8-5-1.5-7.5-2.2l-0.4-0.1c-1.2-0.3-1.8-0.7-2.1-1.2c-0.3-0.5-0.3-1.2,0-2.3
			c0.2-0.7,0.1-1.2-0.5-1.6c-0.3-0.2-0.6-0.5-0.9-0.7c-0.8-0.6-1.5-1.3-2.4-1.8c-2.7-1.7-4.5-3.7-5.7-6.2c-0.2-0.5-0.6-1-1-1.5
			c-0.1-0.1-0.2-0.3-0.3-0.4c-0.4-0.5-0.8-0.7-1.2-0.8c-1.1-0.1-1.8-0.9-2.3-1.5c-0.1-0.2-0.3-0.4-0.5-0.7c-0.3-0.5-0.7-0.9-1-1.4
			c-1.1-1.3-1.9-1.5-3.5-0.9c-0.1,0-0.2,0.1-0.3,0.1c-0.3,0.2-0.8,0.4-1.4,0.3l-0.2,0l-1-2c-0.3-0.6-0.6-1.2-0.9-1.8
			c-0.6-1.1-1.1-2.3-1.8-3.4c-1-1.5-2-2.4-3.3-2.7c-2.8-0.7-4.6-2.4-5.9-5.6c-1-2.4-2.3-4.5-4-6.2c-0.9-0.9-1.8-1.3-2.9-1.3
			c-0.7,0-1.5,0-2.2-0.4c-3.2-2-6.6-4.8-7.4-9.5c-0.1-0.6-0.2-0.9-0.5-1.2c-1.6-1.7-2.5-3.9-3-5.6c-0.9-2.8-2.2-4.7-4-6
			c-0.6-0.4-0.9-0.8-1-1.3c-0.1-0.5,0.2-1,0.7-1.6l0.1-0.1c1.4-1.6,2.8-3.2,3.9-5l0.1-0.2c0.5-0.7,0.9-1.4,0.6-2.1
			c-1-2.5-2.1-4.8-4.6-6.1c-1.5-0.8-2.7-1.6-3.7-2.5c-1.5-1.3-3.1-3-3.3-5.8c-0.1-1.5-0.7-3-1.7-4.4c-0.7-0.9-1-2-1-3.3
			c0-0.1,0-0.2,0-0.3c0-0.8,0-1.9,1.1-2.4c1.1-0.4,1.8,0.5,2.3,1.1c0.1,0.1,0.2,0.2,0.2,0.3c1.2,1.4,1.7,3,2.2,4.5
			c0,0.1,0.1,0.3,0.1,0.4c0.2,0.8,0.4,1.5,1,1.9c0.6-0.5,0.7-1.2,0.8-1.9c0-0.2,0.1-0.3,0.1-0.5c0.4-1.8,0.9-3.3,2-4.5
			c1.5-1.7,3.2-3.2,4.9-4.4c1.7-1.2,3.5-1.6,5.3-1.2c1.3,0.3,2.3-0.1,3.2-1c0.9-1.1,2.2-1.3,3.5-0.6c0.3,0.2,0.7,0.4,1.1,0.6
			c0.6,0.3,1.2,0.7,1.8,1c0.7,0.4,1.3,0.3,1.9-0.4c0.5-0.6,0.8-1.2,1-1.8c0.5-2.2,0.6-2.3,2.9-2.3c0.1,0,0.2,0,0.3,0
			c0.2,0,0.5,0,0.8,0c1.5,0.2,2.5-0.4,3.3-1.8c0.6-1,1.3-2,2.6-2.4c1.2-0.3,2.3-1,3.2-2c0.8-0.9,1.6-0.8,2.2-0.6
			c1.3,0.6,2,0.8,2.6,0.6c0.6-0.2,1-1,1.6-2.6c0-0.1,0.1-0.1,0.1-0.2c0,0,0-0.1,0.1-0.1c0.6-1.7,1.7-2.6,3.5-2.9l1.3-0.2
			c1.9-0.3,3.8-0.6,5.8-0.7c1.7-0.2,2.8-0.8,3.6-1.9c1.1-1.6,2.7-2.3,4.8-2.2c1.6,0.1,3.1-0.3,4.4-1.2c2.3-1.5,4.8-2.8,7.3-3.7
			l0.1,0c0.5-0.2,0.9-0.3,1.2-0.7c-1.9-0.6-3.1-1.9-4.1-3.3c-0.6-0.8-0.7-2.3-0.5-3.3c0.1-0.5,0.3-0.9,0.6-1
			c1.4-0.8,2.5,0.1,3.4,0.8l0.1,0c0.9,0.8,1.7,0.8,2.7,0.3c1-0.5,2.3-0.4,3.5,0.3c1.2,0.8,1.8,2,1.7,3.2c-0.1,0.8-0.2,1.5-0.3,2.2
			c0,0.2-0.1,0.5-0.1,0.7c0.3,0.1,0.6,0,1,0c0.4-0.1,0.9-0.2,1.4,0l0.2,0l0.1,0.1c0.2,0.5,0.1,1,0,1.4c0,0.1-0.1,0.2-0.1,0.4
			c-0.2,1.3,0.1,1.8,1.3,2.3c1.5,0.6,3,0.4,4.5-0.5c1.4-0.9,2.5-1,3.9-0.4c0.6,0.2,1.1,0.2,1.5,0.1c0.5-0.2,0.9-0.7,1.1-1.4
			c0.4-1.1,0.2-2.3,0.1-3.3c0-0.2-0.1-0.4-0.1-0.6c-0.1-0.6-0.2-1.2-0.3-1.9c0-0.6,0.1-1,0.4-1.3c0.3-0.2,0.7-0.3,1.1-0.2
			c1,0.3,2.1,0.5,3.2,0.7c1.5,0.3,3,0.6,4.5,1c1.2,0.4,1.8,1.3,1.6,2.4c-0.4,2.3,0.3,4.1,2,5.8c0.7,0.6,1,1.5,1.3,2.3
			c0,0.1,0.1,0.2,0.1,0.2c0.1,0.2,0.1,0.4,0.3,0.6c1.2-1.5,2.7-1,4-0.6c0.3,0.1,0.6,0.2,0.9,0.2c1.9,0.5,3.8,1.1,6.2,2.2
			c1.3,0.6,2.6,1.1,4.2,0.7c0.6-0.2,1,0,1.2,0.2c0.3,0.2,0.5,0.6,0.6,1c0.2,0.8,0.4,1.5,0.6,2.3l0.2,0.7l4.7-0.6l0.1,0.3
			c0.1,0.6,0.1,1.2,0.1,1.8c0,0.7,0,1.5,0.2,2.1c0.6-0.4,1-0.8,1.5-1.2c0.3-0.3,0.7-0.7,1-0.9c0,0,0.1-0.1,0.1-0.1
			c0.3-0.3,0.9-0.8,1.7-0.3c1.1,0.6,2.2,0.3,2.9,0c2.8-1.3,5,0.2,6.3,1.5c1.4,1.3,1.5,2.5,0.5,4.2c-1.1,1.8-2.6,3.3-4.6,4.6
			c-0.6,0.3-1.2,0.8-1.7,1.2c-0.5,0.4-0.6,0.8-0.5,1.3c0.4,1.3,2.5,2.9,3.8,2.8c0.8,0,1.5,0.3,2,1c0.6,0.8,1.2,1.6,1.9,2.4
			c1.9,2.4,4,4.9,5.3,7.8c0.6,1.3,1.6,2.4,2.9,3.5c0.7,0.6,1.2,0.8,1.7,0.7c0.5-0.1,1-0.5,1.5-1.2l0.1-0.1c0.1-0.2,0.3-0.4,0.3-0.6
			c1-2.6,3.3-3.4,4.9-3.8c1.5-0.4,2.9-0.8,4.1-1.2c0.6-0.2,0.9-0.5,1-0.7c0.1-0.3-0.1-0.7-0.5-1.2c-0.5-0.6-1-1.1-1.5-1.7
			c-0.2-0.2-0.4-0.5-0.6-0.7c-1.2-1.4-2.6-3-3.3-5.1c-0.3-0.9-0.7-1.9,0.1-2.9c0.7-0.9,1.7-0.7,2.4-0.5c0.1,0,0.3,0.1,0.4,0.1
			c0.6,0.1,1.1,0.3,1.6,0.5l0.1,0c1.8,0.7,3.7,1.6,6,3.1c1,0.6,2,1.3,3.1,2c1.4,0.9,2.7,1.8,4.2,2.6c4,2.1,7.7,2.2,11.4,0.2
			c0.6-0.3,1.3-0.6,2-0.9c0.3-0.1,0.7-0.3,1-0.5l0.4-0.2l0.1,0.5c0.1,0.5,0.1,0.9,0.2,1.4c0.1,1,0.2,1.9,0.4,2.7
			c0.3,1.6-0.2,2.5-1.7,3c-1.1,0.4-2.2,0.9-3.3,1.4c-0.3,0.2-0.7,0.3-1.1,0.5c0.2,0.2,0.3,0.5,0.5,0.7c0.7,0.9,1.4,1.7,2.4,1.9
			c2.3,0.3,3.3,1.9,3.9,3.3c0.6,1.4,1.6,2.5,2.8,3.2c0.6,0.4,1.2,0.5,1.8,0.3c0.7-0.2,1.4-0.5,2.1-0.8c0.9-0.4,1.8-0.8,2.8-1
			c-0.1-0.1-0.2-0.2-0.2-0.3l-0.1-0.2c-0.5-0.6-1.1-1.4-0.3-2.3c0.8-0.9,1.6-0.1,2,0.3c0.1,0.1,0.2,0.2,0.3,0.3
			c0.3,0.3,0.7,0.6,1,0.8c0.8,0.7,1.6,1.4,2.6,1.7c1.9,0.7,3.6,1.7,5.1,3.3c0.5,0.6,0.8,0.5,1,0.4c1.7-0.9,3.2-0.2,4.3,0.5
			c1.5,1,2.7,1.4,4,0.5c0.2-0.1,0.4-0.1,0.6-0.1c0,0,0.1,0,0.1,0h0.2l0.1,0.2c0,0,0,0.1,0.1,0.1c0.1,0.1,0.1,0.2,0.1,0.3
			c0,0.1,0.1,0.3,0.1,0.5c0.1,0.4,0.2,0.9,0.3,1.3c0.6,4.9,2.7,8.5,6.5,10.9c1.9,1.2,3.3,3,3.9,5.1v0.1v2.4
			c-0.7,2.2-2.2,3.2-4.7,3.1c-1.1-0.1-2.3,0-3.4,0H295c-1.1,0-1.9,0.5-2.4,1.2c-0.4,0.6-0.7,1.1-1.1,1.7c-0.9,1.5-1.9,2.9-3.1,4.3
			c-0.1,0.1-0.2,0.4-0.2,0.6c-0.2,1.3-0.9,2.1-1.7,2.8c-1.2,1.1-2.6,1.9-4.5,2.5c-1.9,0.6-3,1.9-3.4,3.7c-0.2,0.9-0.5,1.9-0.7,2.8
			c-0.3,1.5-0.7,2.9-1,4.4c-0.5,2.5-1.9,4-4.3,4.4c-1.7,0.3-2.7,1.2-3.2,2.8c-0.5,1.6-1.2,2.6-2.3,3.2c-1.4,0.8-2.7,1.7-3.9,2.5
			c-0.9,0.6-1.8,1.2-2.7,1.8c-1.3,0.8-2.6,1.4-4,1.8c-0.9,0.2-1.6,0.2-2.3-0.2c-0.7-0.4-1.6-0.5-2.4-0.1c-0.8,0.4-1.6,0.4-2.6,0
			c-0.3-0.1-0.7-0.3-1.1-0.4c-0.5-0.2-1-0.3-1.5-0.6c-4.3-1.7-4.8-1.5-7,2.5l-0.4,0.7c-1.7,3.2-3.5,6.4-4.9,10l-0.3,0.8l-1-2.1
			c-0.5-1-0.9-1.9-1.3-2.9c-0.3-0.8-0.8-1-1.8-0.9c-2.4,0.1-5.1,0-6.6-2.5c-1-1.7-2.5-2-4.3-2.5c-2.8-0.7-4.5,0-5.7,2.4
			c-0.5,1-1.4,1.4-2.7,1.2c-2.5-0.3-5.4-0.6-8.3-0.9c-2.7-0.2-4.9-1.2-6.9-2.9c-0.6-0.6-1.3-1.1-2-1.6c-0.3-0.2-0.6-0.5-0.9-0.8
			c-0.8-0.6-1.6-0.8-2.4-0.7c-2.8,0.6-5.4,0-8.5-2c-2-1.3-4.3-2.8-6.8-4.1c-2.3-1.2-4.2-1.1-6,0.3c-0.4,0.3-0.9,0.5-1.3,0.7
			c-0.4,0.1-0.7,0.1-1,0c-0.1-0.1-0.3-0.3-0.4-0.7c-0.2-1.6-1.4-2-2.6-2.5l-0.3-0.1c-1.1-0.5-2-0.5-2.5-0.1
			c-0.6,0.5-0.7,1.5-0.6,2.2c0.3,3.2-0.7,5.9-1.7,8.9c-0.2,0.7-0.5,1.4-0.7,2l-0.1,0.3l-0.3-0.1c-2.7-0.9-4.2,0.8-5.7,2.6
			c-0.2,0.2-0.3,0.4-0.5,0.6c0,0.1-0.1,0.1-0.1,0.2c-0.1,0.1-0.2,0.2-0.3,0.3c-1.5,1.4-2,3.1-1.6,5.1l0,0.1c0.1,0.5,0.3,1.3-0.5,1.7
			c-0.8,0.4-1.6,0-2-0.5c-1.1-1.2-2.6-1.8-4.6-2c-0.6,0-1.1-0.3-1.5-0.5c-0.6-0.4-1.1-0.3-1.7,0.4c-0.3,0.3-0.7,0.7-1,1
			c-0.4,0.4-0.8,0.8-1.1,1.2C135.7,217.7,134.8,218.1,133.8,218.1z M104.7,193.6c1,0,1.8,0.5,2.6,1.5c0.4,0.5,0.7,0.9,1,1.4
			c0.1,0.2,0.3,0.4,0.5,0.6c0.6,0.8,1.1,1.2,1.8,1.2c0.7,0.1,1.2,0.4,1.7,1c0.1,0.1,0.2,0.2,0.3,0.4c0.4,0.5,0.8,1,1.1,1.7
			c1,2.4,2.8,4.3,5.4,5.9c0.9,0.6,1.7,1.2,2.5,1.9c0.3,0.2,0.6,0.5,0.9,0.7c0.8,0.6,1,1.4,0.7,2.4c-0.2,0.9-0.3,1.4-0.1,1.8
			s0.7,0.6,1.7,0.9l0.4,0.1c2.5,0.7,5,1.4,7.5,2.2c1.4,0.4,2.4,0.1,3.3-0.9c0.4-0.4,0.8-0.8,1.1-1.2c0.3-0.3,0.7-0.7,0.9-1
			c0.8-0.9,1.6-1,2.5-0.5c0.4,0.2,0.8,0.4,1.1,0.4c2.2,0.2,3.8,0.9,5.1,2.2c0.1,0.1,0.7,0.7,1.2,0.3c0.3-0.1,0.3-0.3,0.1-0.9l0-0.2
			c-0.5-2.3,0.1-4.3,1.8-5.8c0.1-0.1,0.1-0.2,0.2-0.2c0-0.1,0.1-0.1,0.2-0.2c0.2-0.2,0.3-0.4,0.5-0.6c1.6-1.8,3.2-3.7,6.1-2.9
			c0.2-0.6,0.4-1.2,0.6-1.8c1-2.8,1.9-5.6,1.7-8.6c-0.1-1.4,0.2-2.3,0.9-2.8c0.5-0.4,1.5-0.7,3.2,0l0.3,0.1c1.3,0.5,2.8,1.1,3,3.1
			c0,0,0,0.1,0.1,0.1c0.1,0,0.2,0,0.4,0c0.3-0.1,0.8-0.3,1.1-0.6c2-1.6,4.3-1.7,6.8-0.4s4.9,2.8,6.9,4.1c2.9,1.9,5.4,2.5,8,2
			c1-0.2,2.1,0,3,0.8c0.3,0.2,0.6,0.5,0.9,0.8c0.7,0.5,1.4,1.1,2,1.7c1.9,1.7,4,2.6,6.5,2.8c2.9,0.2,5.9,0.6,8.3,0.9
			c1,0.1,1.7-0.1,2-0.9c1.4-2.7,3.4-3.6,6.5-2.8c1.8,0.5,3.5,0.9,4.7,2.8c1.3,2.2,3.7,2.3,6,2.2c1.2-0.1,1.9,0.3,2.4,1.3
			c0.4,0.9,0.9,1.9,1.3,2.9l0.3,0.6c1.3-3.4,3-6.4,4.6-9.4l0.4-0.7c2.4-4.3,3.2-4.6,7.8-2.8c0.5,0.2,1,0.4,1.5,0.6
			c0.4,0.1,0.7,0.3,1.1,0.4c0.8,0.3,1.4,0.3,2,0c1-0.5,2.1-0.4,3,0.1c0.6,0.3,1.1,0.3,1.8,0.2c1.3-0.3,2.5-0.9,3.8-1.7
			c0.9-0.6,1.8-1.2,2.7-1.8c1.3-0.9,2.6-1.8,4-2.6c0.9-0.5,1.6-1.5,2-2.8c0.6-1.9,1.8-3,3.7-3.3c2.1-0.4,3.3-1.6,3.7-3.9
			c0.3-1.5,0.7-3,1-4.4c0.2-0.9,0.5-1.9,0.7-2.8c0.5-2.2,1.7-3.5,3.9-4.3c1.8-0.6,3.2-1.4,4.3-2.4c0.8-0.7,1.4-1.4,1.5-2.4
			c0-0.2,0.1-0.7,0.4-1c1.1-1.3,2.1-2.7,3-4.2c0.3-0.6,0.7-1.1,1.1-1.7c0.7-1,1.7-1.5,3-1.5h0.5c1.1,0,2.3,0,3.4,0
			c2.2,0.1,3.4-0.7,4-2.5v-2.2c-0.6-1.9-1.8-3.6-3.5-4.7c-4-2.6-6.2-6.3-6.8-11.4c0-0.4-0.2-0.8-0.3-1.2c0-0.1-0.1-0.3-0.1-0.5
			c0,0,0-0.1-0.1-0.1l0,0c0,0-0.1,0-0.1,0c-1.8,1.2-3.3,0.5-4.8-0.5c-1.4-0.9-2.4-1.1-3.5-0.5c-0.6,0.3-1.2,0.1-1.9-0.5
			c-1.4-1.5-2.9-2.5-4.8-3.1c-1.1-0.4-2-1.1-2.8-1.9c-0.3-0.3-0.6-0.6-0.9-0.8c-0.1-0.1-0.2-0.2-0.3-0.3c-0.6-0.6-0.8-0.6-1.1-0.3
			c-0.3,0.3-0.2,0.7,0.4,1.4c0,0.1,0.1,0.1,0.1,0.2c0.1,0.1,0.2,0.2,0.3,0.4l0.6,0.8l-0.6,0.1c-1.1,0.2-2.2,0.7-3.2,1.1
			c-0.7,0.3-1.5,0.6-2.2,0.9c-0.8,0.2-1.5,0.1-2.3-0.4c-1.4-0.8-2.4-2-3.1-3.5c-0.8-1.8-1.8-2.6-3.4-2.9c-1.3-0.2-2-1.2-2.8-2.1
			c-0.2-0.3-0.5-0.7-0.8-1l-0.3-0.3l0.5-0.2c0.5-0.2,1-0.5,1.5-0.7c1.1-0.6,2.3-1,3.4-1.4c1.2-0.4,1.5-1,1.2-2.2
			c-0.2-0.9-0.3-1.8-0.4-2.8c0-0.3-0.1-0.6-0.1-0.9c-0.2,0.1-0.4,0.2-0.6,0.3c-0.7,0.3-1.3,0.6-1.9,0.9c-3.9,2.1-7.9,2-12.1-0.2
			c-1.5-0.8-2.9-1.7-4.3-2.7c-1-0.7-2-1.3-3-1.9c-2.3-1.4-4.1-2.3-5.9-3l-0.1,0c-0.5-0.2-1-0.4-1.5-0.5c-0.1,0-0.3-0.1-0.4-0.1
			c-0.8-0.2-1.3-0.2-1.7,0.2c-0.5,0.6-0.2,1.4,0,2.2c0.7,1.9,2,3.5,3.2,4.8c0.2,0.2,0.4,0.5,0.6,0.7c0.5,0.6,1,1.1,1.5,1.7
			c0.6,0.7,0.8,1.3,0.6,1.8s-0.6,0.9-1.5,1.2c-1.2,0.5-2.6,0.8-4.2,1.2c-2.4,0.6-3.7,1.6-4.5,3.4c-0.1,0.3-0.3,0.5-0.5,0.7l-0.1,0.1
			c-0.7,0.9-1.3,1.4-2,1.5c-0.7,0.1-1.4-0.2-2.3-0.9c-1.4-1.1-2.4-2.3-3.1-3.7c-1.4-2.8-3.3-5.3-5.3-7.6c-0.6-0.8-1.3-1.6-1.9-2.4
			c-0.4-0.5-0.8-0.7-1.4-0.7c-1.6,0.1-4-1.7-4.5-3.3c-0.2-0.5-0.2-1.3,0.7-2c0.6-0.5,1.2-0.9,1.8-1.3c2-1.3,3.4-2.7,4.4-4.4
			c0.8-1.4,0.7-2.3-0.4-3.3c-1.9-1.8-3.7-2.2-5.6-1.4c-1.2,0.6-2.4,0.6-3.5,0c-0.3-0.2-0.6-0.1-0.9,0.2c0,0-0.1,0.1-0.1,0.1
			c-0.3,0.3-0.7,0.6-1,0.9c-0.6,0.6-1.1,1.1-1.9,1.6l-0.3,0.2l-0.2-0.3c-0.4-0.9-0.4-1.9-0.4-2.8c0-0.5,0-0.9,0-1.3l-4.6,0.6
			l-0.3-1.3c-0.2-0.8-0.4-1.6-0.6-2.3c-0.1-0.3-0.2-0.5-0.3-0.6c-0.1,0-0.2-0.2-0.6-0.1c-1.7,0.5-3.3-0.1-4.6-0.7
			c-2.4-1.1-4.3-1.8-6.1-2.2c-0.3-0.1-0.6-0.2-0.9-0.2c-1.4-0.4-2.5-0.8-3.5,0.6l-0.2,0.2l-0.3-0.1c-0.7-0.3-0.8-0.8-0.9-1.1
			c0-0.1,0-0.1-0.1-0.2c-0.3-0.8-0.6-1.5-1.2-2c-1.9-1.8-2.7-3.9-2.3-6.4c0.1-0.8-0.3-1.4-1.1-1.7c-1.4-0.5-2.9-0.8-4.4-1
			c-1-0.2-2.2-0.4-3.2-0.7c-0.1,0-0.4-0.1-0.5,0.1c-0.1,0.1-0.2,0.4-0.2,0.7c0.1,0.6,0.2,1.2,0.3,1.8c0,0.2,0.1,0.4,0.1,0.7
			c0.2,1.1,0.3,2.4-0.1,3.7c-0.3,0.9-0.8,1.5-1.5,1.8c-0.6,0.3-1.3,0.2-2-0.1c-1.1-0.5-2-0.3-3.2,0.4c-1.7,1.1-3.5,1.3-5.1,0.6
			c-1.5-0.6-1.9-1.4-1.7-3.1c0-0.1,0-0.3,0.1-0.4c0.1-0.3,0.1-0.6,0.1-0.8c-0.2,0-0.5,0-0.8,0.1c-0.5,0.1-1,0.2-1.7-0.1l-0.2-0.1
			l0-0.2c0.1-0.3,0.1-0.7,0.2-1c0.1-0.7,0.3-1.5,0.3-2.2c0.1-0.9-0.5-1.9-1.4-2.6c-0.9-0.6-2-0.7-2.7-0.3c-1.3,0.7-2.4,0.6-3.5-0.3
			l-0.1,0c-1-0.8-1.7-1.3-2.6-0.7c-0.1,0-0.2,0.2-0.2,0.6c-0.2,0.8,0,2.2,0.4,2.8c1,1.4,2.2,2.7,4.2,3.2l0.5,0.1l-0.2,0.4
			c-0.5,0.9-1.2,1.1-1.9,1.4l-0.1,0c-2.5,0.9-4.9,2.1-7.1,3.6c-1.5,1-3.2,1.5-4.9,1.3c-1.8-0.1-3.2,0.5-4.2,1.9
			c-0.9,1.3-2.3,2-4.1,2.2c-1.9,0.2-3.9,0.5-5.7,0.7l-1.3,0.2c-1.5,0.2-2.5,1-2.9,2.4c0,0.1-0.1,0.2-0.1,0.2c0,0,0,0.1-0.1,0.1
			c-0.6,1.5-1.1,2.6-2,2.9c-0.7,0.3-1.6,0.1-3.1-0.6c-0.5-0.2-0.9-0.1-1.4,0.4c-1,1.2-2.2,1.9-3.5,2.3c-1,0.3-1.6,1.1-2.2,2
			c-0.9,1.6-2.2,2.3-4,2.1c-0.2,0-0.4,0-0.6,0c-0.1,0-0.2,0-0.3,0c-0.9,0-1.5,0-1.7,0.2c-0.2,0.2-0.3,0.7-0.5,1.6
			c-0.2,0.8-0.5,1.5-1.1,2.2c-0.8,0.9-1.8,1.1-2.8,0.6c-0.6-0.3-1.2-0.7-1.8-1c-0.3-0.2-0.7-0.4-1.1-0.6c-1-0.6-1.9-0.5-2.6,0.4
			c-1,1.2-2.3,1.6-3.9,1.3c-1.6-0.3-3.2,0-4.8,1.1c-1.7,1.2-3.3,2.6-4.8,4.3c-1,1.1-1.4,2.5-1.8,4.2c0,0.2-0.1,0.3-0.1,0.5
			c-0.1,0.9-0.3,1.8-1.3,2.5l-0.2,0.1l-0.2-0.1c-1-0.6-1.3-1.6-1.5-2.5c0-0.1-0.1-0.3-0.1-0.4c-0.4-1.5-0.9-3-2-4.3
			c-0.1-0.1-0.2-0.2-0.2-0.3c-0.6-0.7-0.9-1.1-1.5-0.9c-0.6,0.2-0.6,0.8-0.6,1.7c0,0.1,0,0.2,0,0.3c0,1.1,0.3,2,0.9,2.8
			c1.1,1.5,1.7,3.1,1.8,4.7c0.2,2.5,1.6,4.1,3.1,5.3c1,0.8,2.2,1.6,3.6,2.4c2.7,1.4,3.9,4,4.9,6.5c0.4,1-0.2,2-0.6,2.7l-0.1,0.2
			c-1.1,1.8-2.6,3.5-4,5.1l-0.1,0.1c-0.4,0.5-0.6,0.8-0.5,1.1c0,0.3,0.2,0.6,0.7,0.8c2,1.4,3.3,3.4,4.3,6.3c0.5,1.6,1.3,3.6,2.8,5.3
			c0.3,0.4,0.6,0.9,0.7,1.6c0.7,4.4,4,7,7,9c0.5,0.3,1.2,0.3,1.8,0.3c1.3,0,2.4,0.5,3.4,1.5c1.7,1.8,3.1,4,4.1,6.5
			c1.2,3,2.9,4.6,5.4,5.2c1.5,0.4,2.7,1.4,3.7,3.1c0.7,1.1,1.3,2.3,1.9,3.5c0.3,0.6,0.6,1.2,0.9,1.8l0.9,1.7c0.3,0,0.5-0.1,0.8-0.2
			c0.1-0.1,0.2-0.1,0.4-0.2C103.7,193.7,104.2,193.6,104.7,193.6z"/>
	</g>
</g>
</svg>
