<?xml version="1.0" encoding="utf-8"?>
<!-- Generator: Adobe Illustrator 24.3.0, SVG Export Plug-In . SVG Version: 6.00 Build 0)  -->
<svg version="1.1" id="Layer_1" xmlns="http://www.w3.org/2000/svg" xmlns:xlink="http://www.w3.org/1999/xlink" x="0px" y="0px"
	 viewBox="0 0 400 300" style="enable-background:new 0 0 400 300;" xml:space="preserve">
<style type="text/css">
	.st0{clip-path:url(#SVGID_2_);}
	.st1{fill:#4891D9;}
	.st2{fill:#FFFFFF;}
	.st3{clip-path:url(#SVGID_4_);}
	.st4{clip-path:url(#SVGID_6_);}
	.st5{fill:none;}
	.st6{fill:none;stroke:#000000;stroke-miterlimit:10;}
	.st7{fill:#C98017;}
	.st8{fill:#FBED60;}
	.st9{fill:#FABA31;}
	.st10{fill:#68C2EE;}
	.st11{fill:#0491BE;}
	.st12{fill:#68C2EF;}
	.st13{fill:#31798F;}
	.st14{fill:#C1BDBE;}
	.st15{fill:#6E6E6E;}
	.st16{fill:#6C6C6C;}
	.st17{fill:#BCBCBC;}
	.st18{fill:#E1E1E1;}
	.st19{fill:#0A0A09;}
	.st20{fill:#F3F2EF;}
</style>
<g>
	<g>
		<g>
			<g>
				<g>
					<defs>
						<path id="SVGID_1_" d="M216,74.6h0.5l0.3,0.3c0.4,0.1,0.7-0.3,1-0.4V73l-0.1-0.1c0-0.1-0.1-0.1-0.1-0.3c0-0.4,0-0.7,0-1
							c0.4-0.1,0.4-0.7,0.8-0.9c0.3,0,0.5,0,0.9,0c0.3,0.1,0.5,0.3,0.8,0.4c0.3,0.1,0.5,0.4,0.8,0.5c0.3,0.1,0.4,0.4,0.7,0.4
							c0.3,0.1,0.5,0.3,0.8,0.5h0.7l0.3,0.3h0.4l0.3,0.3h0.5l0.3,0.3h0.7l0.1,0.1c0.1,0.1,0.5-0.1,0.7,0.1c0.1,0.3,0.4,0.1,0.5,0.1
							c0.1,0,0.3,0,0.3,0c0.1,0.4,0.7,0,0.8,0.3c0.1,0.3,0.4,0,0.7,0.1l0.1,0.1h0.7l0.3,0.3h0.5l0.3,0.3c0.5-0.3,0.9,0.3,1.4,0.3
							c0.3,0.3,0.5,0.1,0.9,0.3l0.3,0.3l0.1-0.1c0-0.4,0-0.9,0-1.3l-0.3-0.3c0-0.5,0-0.5,0.4-1.3c0.3-0.5,0.7-0.7,1-0.9h0.4l0.3-0.3
							h4.9c0.3-0.3,0.1-0.5,0.1-0.8c-0.1-0.1-0.3-0.1-0.3-0.3c0-0.3-0.1-0.5-0.5-0.5c-0.3-0.1-0.5-0.3-0.5-0.7l-0.8-0.8
							c-0.1-0.4-0.3-0.7-0.5-1.2v-0.8l-0.3-0.3v-0.9l-0.3-0.3v-1.2l-0.3-0.3v-4.9l0.1-0.1c0.1-0.3,0-0.7,0.1-0.9
							c0.3,0.1,0.4,0.5,0.8,0.5c0.1,0.1,0.3,0.3,0.4,0.4c0.4,0.9,0.9,1.8,1.4,2.9v0.1c0.3,0.3,0.7,0.7,1,1c0.4,0.1,0.8,0.4,1.2,0.5
							c0.3,0.1,0.4,0.4,0.5,0.7c0.1,0.3,0.4,0.4,0.5,0.7c0.1,0.3,0.1,0.4,0.4,0.5C243,65,243,65,243,65.1c0.7,1.2,0.9,1.6,1.4,2.1
							h0.3l0.4,0.5h0.5l0.3,0.3h0.5l0.3,0.3c0.3,0,0.3-0.1,0.4-0.3h0.7c0.1-0.1,0.1-0.1,0.3-0.3s0.1-0.3,0.3-0.5
							c0.1-0.1,0.1-0.4,0.1-0.5c0.1-0.1,0.1-0.3,0.3-0.3c0-0.3,0-0.5,0-0.8c0-0.1,0-0.1-0.1-0.3c-0.1-0.1-0.1-0.1-0.1-0.1v-0.7
							c-0.4-0.3-0.5-0.8-0.9-1.2c-0.3-0.3-0.3-0.8-0.5-1.2v-1.4l0.3-0.3V60l-0.9-0.9c0-0.1,0-0.3,0.1-0.3c0.3-0.3,0.5-0.5,0.9-0.9
							c0.1-0.1,0-0.3,0.1-0.4h0.7c0.1,0.1,0.1,0.1,0.3,0.3h0.5c0.1,0.1,0.3,0.3,0.5,0.3c0.5,0.5,1,1,1.4,1.4v0.3l1.2,1.2v0.8
							l-0.3,0.3c0.3,0.1,0.3,0.5,0.5,0.8c-0.1,0.3,0.1,0.5,0.3,0.8c0,0.3,0.1,0.7,0,0.9l0.3,0.3v0.7c0.3,0.3,0.1,0.7,0.5,0.8
							c0.3,0.1,0.1,0.5,0.4,0.7c0.3,0,0.3,0.3,0.7,0.3c0.1,0,0.1,0.3,0.4,0.3c0.3,0,0.3-0.3,0.5-0.3h0.1l0.9-0.9
							c0-0.1,0-0.3,0.1-0.3c0.3-0.1,0.1-0.5,0.4-0.7v-0.7l-0.3-0.3v-0.5l0.3-0.3c0-0.1,0-0.3,0-0.4c0.3-0.4,0.3-0.9,0.5-1.4
							c0.1,0,0.3,0,0.3,0c0.3,0.3,0.4,0.5,0.8,0.5c0.1,0,0.3,0.1,0.3,0.3c0,0.4,0.4,0.4,0.4,0.7c0.1,0.3,0.1,0.4,0.4,0.5
							c0.3,0.1,0.1,0.5,0.4,0.7c0.3,0.1,0.3,0.7,0.7,0.8h0.9c0-0.1,0.1-0.1,0.1-0.1c0-0.8,0-1.7,0-2.5l0.5-0.4v-0.4
							c0.1-0.4,0.7-0.3,0.8-0.7l0.3,0.3h0.4l2,1c0.7,0.7,1.3,1.3,2,2c0,0.1,0,0.1,0,0.1c0.1,0.1,0.1,0.3,0.3,0.3c0,0.4,0,0.8,0,1.3
							h10.6c0.1,0.1,0.1,0.1,0.3,0.1c0.4,0.1,0.7,0.3,0.9,0.5c0.3,0.3,0.7,0.3,0.9,0.5c0.1,0.3,0.4,0.1,0.5,0.3s0.4,0.1,0.5,0.1
							s0.1,0.1,0.3,0.3h0.7l0.3,0.3h0.7l0.3,0.3h0.7c0.3,0.1,0.4,0.5,0.7,0.5c0.4,0,0.4,0.5,0.8,0.5c0.1,0.3,0.5,0.1,0.7,0.4
							c0.1,0.3,0.5,0.3,0.8,0.5c0.3,0.3,0.5-0.1,0.7,0.3h0.7l0.3,0.3h1.8l0.3-0.3h0.3c0.4-0.4,0.8-0.8,1.2-1.2h0.3l0.4-0.4
							c0.1-0.1,0.1-0.1,0.1-0.1h2.8c0.1,0.1,0.3,0.3,0.3,0.3h0.4c0.1,0.3,0.5,0.1,0.8,0.3c0.3,0.3,0.7,0.4,0.9,0.5
							c0.5,0.3,0.9,0.5,1.3,0.7c0.3,0.4,0.7,0.7,1,0.9c0.8,0.4,1.2,1,1.8,1.7v0.3l2.9,2.9v0.3l0.7,0.5c0.3-0.1,0.4,0.3,0.7,0.3
							c0.3,0,0.4,0.3,0.8,0.3c0.3,0.3,0.8,0.3,1,0.5c0.4,0.3,0.8,0.3,1,0.7c0.1,0.1,0.5,0.1,0.5,0.4c0.1,0.3,0.5,0.1,0.7,0.4
							c0.3,0,0.4,0.3,0.7,0.3c0.3,0,0.3,0.1,0.4,0.3h1.8l0.3,0.3c0.9,0,1.7,0,2.6,0l0.3,0.3h2.4l0.3,0.3h4.3l0.3-0.3h3.5l0.3-0.3
							h3.3l0.3-0.3h3l0.1-0.1c0.1,0,0.1-0.1,0.3-0.1c0.7,0,1.3,0,2,0l0.3,0.3h0.7l0.4,0.3h0.7l0.3,0.3h0.7l0.3,0.3h0.7l0.3,0.3h0.7
							l0.3,0.3h0.7l0.3,0.3h0.7l0.3,0.3h0.7l0.3,0.3h3.4l0.3,0.3h3.5l0.3,0.3c0.3,0.1,0.7,0,0.9,0.1l0.1,0.1h0.8l0.3,0.3
							c0.1,0,0.4,0,0.5,0c0.3,0,0.3,0.3,0.5,0.3s0.4,0,0.7,0l0.3,0.3h0.7l0.3,0.3h0.7l0.3,0.3h0.7l0.3,0.3h0.7l0.3,0.1
							c0.7,0.3,0.9-0.3,1.4-0.3c0.1-0.1,0.3-0.3,0.5-0.1c0.3,0,0.3-0.3,0.5-0.3c0.4,0,0.4-0.5,0.8-0.5c0.4,0,0.4-0.5,0.8-0.5
							c0.3-0.1,0.4-0.4,0.7-0.5c0.3-0.1,0.5-0.3,0.5-0.8l0.8-0.8c0.7-1.3,1.2-2.4,1.7-3.4c0-0.1,0.1-0.1,0.3-0.3
							c0.1,0,0.3,0,0.3,0.1c0,0.4,0.4,0.5,0.5,0.8c0.1,0.3,0.3,0.5,0.4,0.8c0.1,0.1,0.3,0.3,0.4,0.3c0.4,0.1,0.8,0.3,1,0.5
							c0.3,0.1,0.5,0.4,0.8,0.5c0.3,0.3,0.7,0.5,0.9,0.8c0.5,0.4,0.5,0.9,0.9,1.4c0.1,0.1,0,0.4,0.1,0.5c0.1,0.1,0.1,0.4,0.3,0.5
							c0.1,0.1,0,0.5,0.3,0.8c0.1,0.1,0.1,0.4,0.3,0.5c-0.1,0.3,0.5,0.4,0.3,0.7l0.8,0.8c0.3,0.3,0.5,0.5,0.8,0.8
							c0.5,0,0.5,0.5,0.8,0.5c-0.1,0.3,0.1,0.4,0.3,0.5v0.7l-0.3,0.3v0.9c-0.3,0.1-0.3-0.3-0.5-0.1c-0.3,0.1-0.3-0.3-0.5-0.3
							s-0.3-0.3-0.7-0.1l-0.8,0.9h-0.4l-0.9,0.9h-2.4l-0.3,0.3h-1.4c-0.3,0.3-0.8,0.4-1,0.7v0.3c0.1,0.3,0.5,0,0.7,0.3
							c0.1,0.1,0.4,0.1,0.7,0.3c0.3,0.1,0.4,0,0.7,0.1c0.1,0.1,0.4,0.1,0.5,0.3c0.1,0.1,0.3,0,0.4,0c0.1,0.1,0.1,0.1,0.3,0.3h1.2
							c0.1,0.1,0.1,0.3,0,0.5c-0.1,0.1-0.5,0.4-0.5,0.7c-0.1,0.3-0.3,0.4-0.4,0.5c0,0-0.1,0-0.1,0.1h-0.1h-3.4l-0.3-0.3h-2.1
							c-0.3,0.1-0.5,0.3-0.9,0.4c-0.3,0-0.3,0.3-0.5,0.3c-0.3,0-0.3,0.3-0.5,0.3c-0.3,0.1-0.7,0.3-0.9,0.5c-0.1,0.1-0.5,0.4-0.7,0.7
							c-0.1,0.3-0.3,0.5-0.5,0.8v0.9l0.3,0.3v1.2c-0.3,0.1-0.1,0.4-0.4,0.5s0,0.5-0.3,0.8c-0.3,0.1-0.1,0.5-0.4,0.5v0.9l-0.3,0.3
							v0.9l-0.3,0.3c0,0.3,0,0.7,0,0.9l-0.1,0.1c-0.1,0.3,0,0.5-0.1,0.8l-0.3,0.3v0.9l-0.3,0.3v0.9l-0.3,0.3v0.7
							c-0.1,0.1-0.1,0.1-0.3,0.3v0.5l-0.3,0.3v0.4c-0.1,0.3-0.3,0.5-0.4,0.7c-0.3,0.3,0,0.5-0.1,0.7c-0.3,0.3-0.1,0.5-0.3,0.8
							c-0.1,0.1-0.1,0.4-0.1,0.7l-0.3,0.3c0,0.3,0,0.4-0.1,0.7c-0.1,0.1-0.3,0.5-0.3,0.7c0,0.3-0.3,0.5-0.3,0.8
							c0.1,0.3-0.3,0.4-0.3,0.7s-0.1,0.5-0.3,0.7s0.1,0.4-0.1,0.5c-0.1,0.1-0.1,0.5-0.3,0.5c0,0.3-0.1,0.7-0.3,0.9
							c-0.1,0.3-0.3,0.7-0.5,0.9c-0.1,0.3-0.3,0.7-0.5,0.9c-0.1,0.3-0.3,0.7-0.5,0.9c-0.1,0.3-0.3,0.7-0.5,0.9
							c-0.1,0.3-0.3,0.7-0.5,0.9c0.1,0.3-0.4,0.5-0.3,0.9c-0.1,0.3-0.3,0.5-0.3,0.9c0,0.3-0.3,0.7-0.3,0.9c-0.3,0.1-0.3,0.5-0.5,0.8
							c-0.1,0.3-0.3,0.5-0.4,0.8c-0.1,0.3-0.4,0.5-0.7,0.7h-0.3l-2.1,2.1h-0.3l-1.8,1.8h-0.3l-0.9,0.9c-0.3,0.4-0.7,0.8-1,1
							c-0.5,0.3-0.9,0.7-1.2,1c-0.4,0.4-0.7,0.8-1,1c-0.3,0.1-0.7,0.4-0.9,0.7c-0.3,0.3-0.5,0.5-0.8,0.8v0.5l-0.3,0.3v0.5l-0.3,0.3
							v0.7l-0.3,0.3v0.5l-0.3,0.3c0,0.1,0,0.3,0,0.5s-0.3,0.3-0.3,0.5c0,0.1,0,0.4-0.1,0.5c-0.1,0.1-0.3,0.3-0.1,0.5
							c0,0.1-0.1,0.3-0.3,0.4v0.7l-0.3,0.3v0.5l-0.3,0.3v0.7c-0.1,0.1-0.1,0.1-0.1,0.1c0,0.5-0.4,0.8-0.3,1.3
							c-0.1,0.4-0.3,0.8-0.5,1v0.1v0.7l-0.3,0.3v1.4l0.3,0.3v0.9l0.3,0.3v0.9c0.1,0.1,0.1,0.1,0.3,0.3v0.9l0.3,0.3v0.7l0.3,0.3v0.9
							l0.3,0.3v0.9l0.3,0.3v0.9l0.3,0.3v0.9l0.3,0.4v0.7l0.3,0.3v0.9l0.3,0.3v0.9l0.3,0.3v0.9l0.3,0.3v0.9l0.3,0.3v0.7l0.3,0.3v0.9
							l0.3,0.3v0.9l0.3,0.3v0.9l0.3,0.3c0,0.3,0,0.7,0,0.9l0.1,0.1c0.1,0.3,0,0.5,0.1,0.8c0,0.1,0.1,0.1,0.3,0.3v0.9l0.3,0.3v0.9
							l0.3,0.3v0.9l0.3,0.3v0.7l0.3,0.3c0.1,0.3,0,0.7,0,0.9l0.3,0.3v0.9l0.3,0.3v0.9c0.1,0.1,0.1,0.1,0.3,0.3v0.7l0.3,0.3v0.9
							l0.3,0.3v0.9l0.3,0.3v0.9l0.3,0.3v0.8c0,0.1-0.1,0.1-0.1,0.3c0,0.3-0.4,0.4-0.3,0.8c0.1,0.3-0.3,0.4-0.3,0.7
							c-0.3,0.1-0.3,0.5-0.4,0.7c-0.1,0.3,0,0.7-0.3,0.8c0,0.3-0.4,0.5-0.3,0.9c0,0.1-0.1,0.3-0.3,0.4c-0.1,0.3-0.1,0.5-0.3,0.7
							c-0.3,0.3,0,0.7-0.3,0.9c-0.1,0.1-0.3,0.5-0.3,0.7c0,0.1-0.1,0.1-0.3,0.4v0.9l-0.3,0.3v1.6l-0.3,0.3v1.8l-0.3,0.3
							c-0.1,0.3,0.1,0.3,0.3,0.5v1.3l0.3,0.3v1.6l0.3,0.3v0.9c0.3,0.3,0.3,0.7,0.5,0.8c0,0.3,0.3,0.5,0.4,0.8
							c0.1,0.3,0.3,0.5,0.4,0.8c0.1,0.3,0.3,0.5,0.4,0.8c0.1,0.3,0.1,0.5,0.4,0.8c0.3,0.3,0,0.8,0.4,0.9c0.1,0.7,0.7,1,0.8,1.7
							c0.4,0.1,0,0.7,0.4,0.8c0.3,0.7,0.7,1.3,1,2.1v0.1l0.7,0.8c-0.1,0.4,0.5,0.5,0.5,0.9c0,0.1,0.1,0.1,0.1,0.1
							c0.1,0.1,0.4,0.3,0.5,0.5s0.3,0.5,0.4,0.7c0.3,0.1,0.1,0.5,0.4,0.5v1.6l0.3,0.3v1.4l-0.3,0.3v4.2c0.3,0.4,0.7,0.5,1.2,0.7
							l0.8,0.8v0.7l0.3,0.3v2.4c-0.1,0.1-0.1,0.1-0.1,0.1c0,0.5-0.5,0.9-0.3,1.4l-0.3,0.3v1.2l0.3,0.3v0.5c0.3,0.1,0.4,0.5,0.7,0.7
							c0.5,0.1,1,0.7,1.6,0.7h0.1c0.3,0.1,0.5,0.4,0.9,0.4c0.3,0.1,0.7,0.1,0.9,0.4c0.3,0.1,0.4,0.1,0.7,0.1
							c0.1,0.1,0.3,0.3,0.5,0.3l1.3,1.3v0.7l0.3,0.3v1.2c-0.1,0.1-0.3,0.1-0.3,0.4c0,0.1-0.1,0.3-0.3,0.5c0,0.1-0.3,0.3-0.4,0.5
							c-0.1,0.1-0.3,0.3-0.5,0.3c-0.3,0.5-0.9,0.5-1.3,0.9c-0.3,0.1-0.7-0.1-0.8,0.3c-0.3,0-0.5,0.3-0.9,0.3c-0.3,0-0.5,0.3-0.9,0.5
							h-0.9l-0.3,0.3h-1.3l-0.3,0.3h-1.2l-0.3,0.3h-1.4l-0.3,0.3c-0.5,0.1-0.9,0-1.4,0l-0.3,0.3h-0.9l-0.4,0.4
							c0.1,0.1,0.1,0.1,0.3,0.1l1,1c-0.4,0.4-0.9,0.5-1.7,0.9l-0.9,0.9c0,0.1,0,0.4-0.1,0.5l-0.1,0.1v2.1l0.3,0.3v0.9l0.3,0.3v1.7
							l-1,1c-0.1,0.1-0.3,0.1-0.5,0.3c-0.1,0.1-0.4-0.1-0.5,0.1c-0.1,0.1-0.5,0-0.7,0.1c-0.1,0.1-0.4,0.1-0.5,0.3
							c-0.1,0.3-0.4,0.1-0.7,0.1l-0.3,0.3h-0.3l-0.3,0.3h-0.3c-0.5,0.5-1.2,0.9-1.4,1.8v0.7l-0.3,0.3v0.7l0.3,0.3v1.4l0.1,0.1
							c0,0.1,0,0.1,0.1,0.3c0,0.9,0,1.8,0,2.6l-1,1h-1.2l-0.5,0.7v2.2l0.1,0.3c0,0.3,0.1,0.5,0.1,0.8c0.4,0.1,0,0.7,0.3,0.8
							c0.3,0.1,0,0.5,0.3,0.8c0.1,0.1,0.3,0.5,0.3,0.7c-0.3,0.4-0.5,0.7-0.9,0.8c-0.3,0.1-0.7,0.3-0.8,0.5c-0.4,0.1-0.4-0.3-0.7-0.3
							s-0.4-0.3-0.8-0.3c-0.3,0-0.4-0.3-0.7-0.3c-0.1,0.1-0.3-0.1-0.4-0.1c-0.3,0-0.5-0.4-0.8-0.3c-0.3,0.1-0.4-0.3-0.8-0.3
							c-0.3,0.1-0.3-0.3-0.7-0.3c-0.3,0.1-0.4-0.3-0.5-0.3c-0.3,0-0.4-0.3-0.7-0.3c-0.1,0-0.4,0-0.5-0.1c-0.1-0.1-0.5,0.1-0.7-0.1
							c-0.1-0.3-0.4-0.1-0.7-0.3c-0.1-0.1-0.3,0-0.5,0l-0.3-0.3h-3l-0.1-0.1c-0.1,0-0.1-0.1-0.1-0.1c-0.4,0-0.8,0-1.2,0
							c-0.1-0.3-0.5-0.1-0.7-0.4c-0.4-0.5-0.9-0.9-1.3-1.3c0.1-0.4-0.5-0.5-0.5-0.9c0-0.3-0.5-0.4-0.5-0.8c0-0.1-0.3-0.4-0.5-0.5
							v-0.4l-1.4-1.4c-0.3,0-0.5-0.4-0.9-0.3l-0.3-0.3h-0.5l-0.1-0.1c-0.1,0-0.1-0.1-0.3-0.1c-0.3,0-0.5,0-0.8,0l-0.1,0.1
							c-0.1,0-0.1,0-0.3,0.1c-0.4,0-0.7,0-1,0l-1.2-1.2h-0.4c-0.3,0.1-0.5,0.3-0.7,0.4c-0.4,0.3-0.5,0.7-0.7,0.9s-0.1,0.7-0.5,0.9
							c0,0.3-0.1,0.7-0.3,0.9c-0.1,0.1-0.3,0.3-0.3,0.4c0,0.1-0.1,0.3-0.1,0.4c-0.1,0.1-0.1,0.3-0.1,0.4c-0.1,0.1-0.3,0.3-0.3,0.4
							s-0.3,0.3-0.3,0.4c-0.1,0.3-0.5,0.3-0.8,0.5h-5l-0.3,0.3c-0.3,0-0.4,0-0.7,0.1s-0.7,0.3-0.9,0.5c-0.3,0.1-0.5,0.4-0.8,0.5
							c-0.1,0.1-0.1,0.1-0.3,0.1l-1.6,1.6c-0.1,0.3-0.4,0.5-0.3,0.9c-0.3,0.1-0.1,0.4-0.3,0.5c-0.1,0.1-0.3,0.4-0.5,0.5
							c-0.4,0.1-0.7-0.3-1-0.3c-0.3-0.4-0.7-0.4-0.9-0.7c-0.4,0.1-0.8,0.4-1,0.7s-0.7,0.4-1,0.5c-0.3-0.1-0.4-0.3-0.5-0.4
							c-0.1-0.1-0.4-0.4-0.7-0.5c-0.1-0.1-0.3-0.4-0.4-0.5c-0.1-0.3-0.3-0.4-0.5-0.5c-0.3-0.1-0.1-0.4-0.3-0.7
							c-0.4-0.3-0.4-0.7-0.8-0.9c-0.3-0.3-0.5-0.5-0.9-0.8c-0.3,0.1-0.4-0.4-0.7-0.3c-0.1-0.3-0.5-0.3-0.8-0.5
							c-0.4,0.1-0.5-0.1-0.9-0.3c-0.3-0.1-0.5-0.3-0.8-0.4c-0.3-0.1-0.5,0.1-0.7-0.1c-0.1-0.1-0.4-0.3-0.5-0.3
							c-0.5-0.1-0.9-0.5-1.2-0.8c-0.3-0.3-0.7-0.4-0.9-0.7c-0.4,0-0.5-0.3-0.7-0.5s-0.4-0.5-0.7-0.8c-0.3-0.3-0.5-0.5-0.8-0.8V263
							c-0.3-0.3-0.4-0.5-0.5-0.8c-0.1-0.3-0.4-0.5-0.5-0.8s-0.1-0.5-0.4-0.7s-0.1-0.5-0.4-0.7c0-0.3-0.3-0.5-0.4-0.7l-0.1-0.1
							c0.1-0.3-0.4-0.4-0.3-0.7c-0.1-0.1-0.4-0.3-0.5-0.5c0-0.4-0.4-0.4-0.5-0.7c-0.3-0.7-0.8-1.2-0.9-1.8c-0.1-0.3-0.5-0.5-0.5-0.9
							c-0.3-0.3-0.7-0.5-0.9-0.9c-0.1-0.3-0.4-0.7-0.8-0.9c-0.3-0.3-0.7-0.7-0.9-0.9c-0.3-0.1-0.5-0.4-0.8-0.7
							c-0.3-0.3-0.5-0.5-0.8-0.8c0,0-0.1,0-0.3,0l-1-1c-0.8-0.3-1-1-1.7-1.4h-0.5c-0.1-0.3-0.3-0.4-0.4-0.7
							c-0.1-0.3,0.1-0.5-0.3-0.5v-1.7l-0.3-0.3c-0.1-0.3,0.1-0.4,0.3-0.5v-0.7c0.1-0.3,0.3-0.5,0.5-0.9v-3.1
							c-0.1-0.1-0.3-0.4-0.4-0.7c-0.1-0.3-0.5-0.1-0.7-0.5h-1.4l-0.3-0.3h-2.4c-0.1-0.1-0.1-0.1-0.3-0.3h-2.4l-0.1-0.1l-0.1-0.1
							h-2.6l-0.1-0.1l-0.1-0.1c-0.4,0-0.8,0-1.2,0c-0.5-0.7-1.2-1-1.4-1.8v-0.4l-0.3-0.3v-0.5l-0.3-0.3v-0.4l-0.3-0.3
							c0-0.1,0-0.3,0-0.5c0-0.1,0-0.1,0-0.3c-0.4-0.1-0.1-0.5-0.3-0.8c-0.3-0.3-0.4-0.5-0.4-0.9c0-0.1-0.1-0.1-0.3-0.3h-0.7
							l-0.3,0.3h-0.5l-0.3,0.3H247c-0.3,0.1-0.7,0.3-0.9,0.5c-0.3-0.1-0.5,0.1-0.8,0.3c-0.4,0-0.7,0.1-1,0c-0.3,0.1-0.4,0.4-0.8,0.3
							l-0.3-0.3h-0.9c-0.1-0.4-0.7-0.4-0.9-0.8c-0.3-0.3-0.7-0.5-0.8-0.9c-0.1-0.4-0.5-0.7-0.7-1v-1l-0.1-0.3v-0.4l-0.7-0.7
							c-0.3,0.1-0.4-0.1-0.5-0.3h-0.7l-0.3-0.3H237c-0.1,0-0.1-0.1-0.3-0.1c-0.3-0.4-0.8-0.4-1-0.8c-0.5,0-0.7-0.5-0.9-0.8
							c-0.3-0.3-0.8-0.5-0.8-0.9c0-0.1-0.1-0.1-0.1-0.1c-0.4-0.5-0.9-0.7-1-1.3l-1-1l-1.6-0.8h-1l-0.1,0.1c-0.5-0.4-0.9-0.8-1-1.3
							v-0.4l-0.3-0.3c0-0.3,0-0.4-0.1-0.5c-0.1-0.1-0.3-0.5-0.4-0.8c-0.1-0.1-0.3-0.4-0.4-0.4c-0.4,0-0.4-0.3-0.7-0.5h-0.5l-0.5,0.7
							v1.8c0.1,0.3,0.5,0.3,0.5,0.7c0.3,0.1,0.3,0.5,0.4,0.8c0.1,0.3,0.3,0.5,0.4,0.8c0.1,0.3,0,0.7,0.3,0.8v1l-0.5,0.4
							c0.1,0.3-0.1,0.4-0.4,0.5c-0.1,0.1-0.3,0.4-0.4,0.4l-1.6,0.9h-0.5c-0.1-0.1-0.3-0.3-0.5-0.3c-0.1-0.1-0.4-0.4-0.5-0.7v-0.4
							l-0.3-0.3v-0.5l-0.1-0.1c-0.1-0.3,0-0.5-0.1-0.8l-0.3-0.3v-0.8l-0.3-0.3v-0.1c0-0.3,0-0.5,0-0.8s-0.1-0.5-0.3-0.8
							c-0.1-0.3-0.1-0.5-0.3-0.8c0-0.1-0.3-0.1-0.3-0.4c0-0.3-0.1-0.1-0.3-0.3c-0.3-0.3-0.5-0.5-0.8-0.7h-2.6l-0.3,0.3h-0.8
							c-0.3,0.4-0.9,0.5-1.2,0.9c-0.3,0.4-0.7,0.8-1,1l-0.9,0.9l-1,1l-1,1h-0.3l-0.5,0.5h-0.8l-0.3,0.3h-1.4l-0.3,0.3h-1.3
							c-0.3,0.1-0.4,0.5-0.8,0.5c-0.1,0.1-0.3,0.3-0.5,0.3c-0.1,0.1-0.3,0.3-0.4,0.4l-1.2,1.2h-1.2c-0.1-0.1-0.3-0.4-0.7-0.1
							c-0.3-0.1-0.4-0.4-0.7-0.5c-0.3,0-0.5-0.1-0.7-0.3c-0.3-0.3-0.5,0-0.7-0.1c-0.3-0.3-0.5-0.3-0.8-0.1c-0.1,0.1-0.1,0.4-0.3,0.5
							c-0.4,0.4-0.7,0.9-0.8,1.6c-0.1,0.3-0.4,0.5-0.3,0.9c-0.3,0.1-0.1,0.5-0.4,0.7c-0.3,0.1-0.4,0.5-0.7,0.7
							c-0.1-0.1-0.4,0-0.5,0.3h-1.8l-0.3,0.3h-1.4l-0.3-0.3H189l-0.3-0.3l-0.3,0.3h-0.7c-0.3,0.4-0.7,0.7-0.9,0.9
							c-0.3,0.3-0.5,0.1-0.8,0.5c-0.1,0.3-0.4,0.5-0.7,0.7l-0.5,0.7c-0.7,0.3-1.2,0.5-1.7,0.9c-0.3,0.1-0.5,0.5-0.7,0.8
							c-0.1,0.4-0.5,0.7-0.4,1l-0.3,0.3v0.4c-0.4,0.5-0.5,1-0.9,1.4c-0.4,0.4-0.9,0.5-1.3,0.8h-1.4l-0.3-0.3
							c-0.4,0.1-0.7-0.3-0.9-0.3c-0.1-0.3-0.5-0.3-0.7-0.3l-0.4-0.4l0.9-2v-0.8l0.3-0.3v-1.6l0.3-0.3V231l0.3-0.3c0-0.1,0-0.3,0-0.4
							c0.1-0.3,0.3-0.7,0.5-0.9c-0.1-0.4,0.3-0.5,0.3-0.9c0.4-0.1,0.1-0.7,0.3-0.8c0.3-0.3,0.1-0.5,0.4-0.7c-0.1-0.4,0.3-0.7,0.4-1
							c0-0.1,0.1-0.1,0.1-0.1c-0.1-0.4,0.3-0.5,0.3-0.9c0-0.1,0-0.1,0-0.3l0.3-0.3v-0.7l0.3-0.1v-0.9l0.3-0.3v-0.7
							c0.1-0.4,0.4-0.9,0.7-1.2c0.3-0.4,0.8-0.7,1-1s0.7-0.7,0.9-1c0.1-0.7,0.7-1,0.9-1.7v-5l0.3-0.3v-1.8l0.1-0.1
							c0-0.1,0-0.1,0.1-0.3c0-0.7,0-1.2,0-1.7c-0.3-0.1-0.1-0.5-0.3-0.7c-0.3-0.1-0.1-0.5-0.4-0.7v-0.7l-0.3-0.3v-1.4l0.3-0.3v-0.5
							l0.3-0.3c0-0.3-0.1-0.5,0.3-0.7v-3c0-0.1,0-0.1,0.1-0.1c0.3-0.1,0.1-0.4,0.3-0.7v-0.1c0.3-0.3,0.5-0.4,0.7-0.7
							c0.1-0.3,0.3-0.4,0.5-0.7c0.1-0.3,0.5-0.1,0.7-0.4c0.1-0.3,0.4-0.1,0.5-0.4l0.7-0.7c0.1-0.1,0.3-0.4,0.5-0.5
							c0.1-0.1,0.4-0.4,0.5-0.5v-0.4c0.1-0.1,0.1-0.1,0.1-0.1c0.1-0.3,0-0.7,0.3-0.8v-1l-0.3-0.3v-0.7L189,191v-0.1
							c-0.4-0.1-0.4-0.7-0.7-0.9c-0.3-0.3-0.7-0.7-0.9-0.9c-0.3-0.3-0.4-0.7-0.9-0.7c-0.3-0.4-0.7-0.7-1-0.9c-0.4-0.3-0.7-0.8-1-0.9
							c-0.4-0.1-0.7-0.5-0.9-0.8h-0.3c-0.1,0-0.1,0-0.3,0c0,0-0.1,0-0.1-0.1c-0.3-0.3-0.8-0.3-1-0.7h-1.3l-0.3-0.3h-0.7
							c-0.3,0.1-0.4,0.1-0.7,0.3c-0.3,0.1-0.5,0.1-0.7,0.4c-0.3-0.1-0.4,0.3-0.5,0.4c-0.1,0.1-0.4,0.3-0.5,0.5
							c0.1,0.3-0.3,0.4-0.3,0.7s-0.1,0.4-0.3,0.5c-0.1,0.1-0.1,0.4-0.3,0.5c-0.3,0.1-0.1,0.4-0.1,0.7l-0.3,0.3v1.7l-0.3,0.3
							c-0.1,0.5,0,0.9,0,1.3c-0.3,0.5-0.5,0.9-0.7,1.3c-0.1,0.3-0.3,0.7-0.5,0.9c-0.1,0.1-0.1,0.4-0.1,0.4c-0.3,0.1-0.1,0.5-0.4,0.7
							c-0.4,0.3-0.5,0.8-0.9,1.2c-0.3,0.1-0.5,0.1-0.7,0.4h-1.7l-0.3-0.3h-0.7l-0.3-0.3h-0.9c0.1,0,0,0,0,0
							c-0.3,0.4-0.7,0.5-0.8,0.9c-0.1,0.3-0.4,0.5-0.4,0.8c0,0.3-0.1,0.5-0.3,0.9s-0.3,0.7-0.5,0.9c-0.4,0.1-0.8-0.1-1-0.3
							c-0.3-0.3-0.7-0.5-0.9-0.8c-0.1-0.3-0.3-0.4-0.4-0.7c-0.1-0.4-0.4-0.8-0.7-1c-0.1-0.1-0.1-0.4-0.3-0.5c0-0.3-0.3-0.4-0.4-0.5
							h-0.3c-0.7-0.7-1.3-1.4-2.1-2.1c-0.3-0.3-0.4-0.5-0.5-0.8c-0.3-0.3-0.4-0.5-0.7-0.7c-0.3-0.3-0.5-0.4-0.8-0.5
							c-0.1-0.1-0.4,0-0.5-0.1c-0.1-0.1-0.4,0-0.5-0.3s-0.4,0-0.5-0.1c-0.1-0.1-0.1-0.3-0.4-0.3c-0.1,0-0.3-0.1-0.4-0.3h-0.7
							l-0.3-0.3h-1.3l-0.3-0.3h-0.5l-0.9-0.9v-0.1c-0.1-0.3-0.4-0.5-0.7-0.7c-0.4,0.1-0.5,0.5-0.9,0.7h-0.7c-0.3-0.4-0.7-0.7-1-0.7
							c-0.3,0.1-0.4,0.5-0.5,0.7c-0.1,0.3-0.3,0.5-0.4,0.7h-0.4l-0.3-0.4c0-0.1,0-0.4-0.1-0.7s0.1-0.5-0.3-0.7c0-0.3,0-0.5-0.1-0.8
							l-0.3-0.3v-1.6l-0.3-0.3v-1c-0.5-0.4-0.5-1-1.2-1.3h-0.1c-0.1-0.1-0.1-0.3-0.1-0.3c-0.1-0.1-0.3-0.4-0.5-0.5v-0.5l-0.1-0.1
							c-0.1-0.3,0-0.5,0-0.7l-0.3-0.3v-1.3l0.3-0.3v-1.7l0.3-0.3v-3.8l-0.3-0.3v-1.4c-0.4-0.3-0.5-0.8-0.8-1l-1.3,0.7h-0.9
							c-0.1,0-0.1-0.3-0.4-0.3l-1-1l-0.7,0.3c0-0.3-0.3-0.5-0.4-0.7c-0.1-0.1-0.1-0.4-0.3-0.5c-0.1-0.1,0-0.5-0.3-0.7
							c0-0.5,0-1.2,0-1.7h-0.5c-0.7,0.3-0.7,0.9-1,1.3c0,0.1,0.1,0.4,0,0.5c-0.1,0.1-0.3,0.4-0.3,0.7c-0.1,0.1-0.1,0.3-0.3,0.3
							s-0.3,0-0.3-0.1c-0.3-0.3-0.5-0.5-0.8-0.8c0.1-0.4-0.3-0.7-0.3-0.9l0.3-0.3v-0.7c0.3-0.5,0.4-0.9,0.7-1.3V165
							c0.1-0.3,0.4-0.3,0.3-0.5l-0.1-0.3V163l-0.3-0.3v-0.7l-0.1-0.1c-0.1-0.3,0-0.5-0.1-0.8l-0.3-0.3V160l-0.3-0.3v-1.4l-0.3-0.3
							v-0.9l0.3-0.3v-1.4c0.3-0.3,0.4-0.7,0.7-1h0.9l0.3,0.3h0.5l0.4-0.4v-0.5l-0.9-0.9v-2.2l0.8-0.5c0.1,0,0.3,0.4,0.5,0.3
							c0.3,0,0.5,0.1,0.7,0.3c0.3,0.1,0.5,0.1,0.7,0.4h1.4l0.1-0.1c0.3-0.1,0.5,0,0.9-0.1c0.3-0.3,0.9-0.1,1.3-0.5h0.9l0.3-0.3h1.4
							c0.1,0.3,0.5,0.3,0.8,0.5c0.4,0,0.4,0.4,0.7,0.4c0.4,0.1,0.5,0.4,0.8,0.5c0.3,0.1,0.4,0.3,0.7,0.5h0.7l0.4,0.3h1.2
							c0.3-0.3,0-0.4,0.1-0.7l0.1-0.1c0.1-0.4-0.5-0.5-0.3-0.9c-0.1-0.1-0.1-0.1-0.3-0.3c-0.1-0.3-0.4-0.1-0.5-0.3
							c-0.1-0.1-0.3-0.3-0.4-0.4v-1.4l0.3-0.3v-0.4c0.1-0.3,0.4-0.5,0.7-0.7h1c0.7,0.4,1.2,0.7,1.8,0.9c0.1,0.1,0.3,0.3,0.4,0.3
							s0.3,0.1,0.3-0.1c-0.1-0.3-0.5-0.4-0.4-0.8c-0.3-0.3-0.4-0.5-0.7-0.7c-0.3-0.3-0.7-0.3-0.8-0.7c-0.1-0.3-0.5-0.3-0.7-0.5h-1.4
							l-1,1v0.1c-0.3,0.3-0.4,0.1-0.7,0.1l-0.1-0.3l-0.8-0.8h-1.3l-0.1,0.1c-0.3,0-0.5,0-0.8,0.1c-0.3,0.1-0.5,0.1-0.7,0.1
							c-0.3,0.1-0.5,0.3-0.8,0.3l-0.3-0.3h-4.1c-0.3,0.3-0.7,0.3-0.9,0.5c-0.1,0.3-0.5,0.3-0.8,0.5c-0.3,0.3-0.3,0.7-0.5,0.8h-0.7
							l-0.3-0.3h-0.7l-0.3-0.3c-0.1,0-0.4,0-0.5,0.1s-0.3,0.3-0.5,0.1c-0.3,0-0.3,0.3-0.5,0.3c-0.4-0.1-0.5,0.3-0.9,0.3
							c-0.1,0.3-0.4,0.1-0.5,0.4s-0.5,0-0.7,0.1c-0.1,0-0.1,0.1-0.3,0.1c-0.1-0.1-0.1-0.3-0.1-0.5c0.1-0.4,0.4-0.7,0.5-0.9
							c0.1-0.3,0.4-0.7,0.5-0.9c0.1-0.1,0.3-0.4,0.3-0.7c0.1-0.4,0.4-0.8,0.7-1c0.3-0.3,0.7-0.4,0.9-0.7h0.9
							c0.3-0.3,0.7-0.3,0.9-0.7v-0.5c-0.1-0.1-0.4-0.4-0.5-0.5c-0.3-0.1-0.1-0.5-0.4-0.7s-0.5-0.3-0.5-0.7c0-0.4-0.5-0.4-0.5-0.8
							l-0.5-0.7c-0.1-0.1-0.1-0.5-0.4-0.7c-0.3-0.1-0.1-0.5-0.4-0.7v-0.7l-0.1-0.1c-0.1-0.3,0-0.5-0.1-0.8c-0.3-0.3-0.4-0.5-0.5-0.7
							c-0.1-0.3-0.4-0.5-0.5-0.8c-0.3-0.3-0.4-0.7-0.5-0.9v-2.2c0.5-0.3,0.5-0.9,1-1.2h3.4c0.3-0.1,0.4-0.4,0.5-0.7
							c0.1-0.3,0.5-0.5,0.8-0.8c0.3,0.1,0.3,0.3,0.5,0.4c0.1,0.1,0.4,0.1,0.5,0.3h0.9c0,0,0-0.1,0.1-0.1c0.4-0.3,0.8-0.3,1-0.7
							c0.3-0.4,0.7-0.7,0.9-0.9l0.5-0.5v-0.5l0.1-0.1c0-0.1,0-0.1,0.1-0.3c0-0.4,0-0.7,0-1l-0.3-0.3v-1.3l-0.3-0.3
							c0.1-0.7-0.3-1-0.5-1.7c-0.1-0.3-0.3-0.5-0.5-0.8c-0.4-0.3-0.7-0.7-0.9-0.9c-0.3,0-0.3,0-0.4,0.1c0,0.1,0,0.3,0.1,0.3
							c0.3,0.3,0.7,0.7,0.9,0.9c0.5,0.4,0.7,1,1,1.6c0.1,0.1,0,0.3,0,0.5l-0.4,0.4c-0.4-0.1-0.7,0.4-1.2,0.3
							c-0.3,0.1-0.4,0.4-0.5,0.5c-0.1,0.3-0.1,0.4-0.4,0.5c-0.3,0.1-0.1,0.5-0.4,0.7v1.4l-0.4,0.4h-0.5c-0.7-0.3-0.7-1-1.3-1.4h-0.5
							l-0.3-0.3h-0.7l-0.3-0.3h-0.5l-0.3-0.3h-0.5c-0.3-0.3-0.4-0.5-0.7-0.7c-0.3-0.1-0.5-0.3-0.7-0.5l-0.5-0.8
							c-0.1-0.3-0.4-0.5-0.5-0.8s-0.5-0.4-0.3-0.8c0.4-0.1,0.9,0,1.3-0.1c0.1-0.1-0.1-0.1-0.1-0.4v-0.9l-0.3-0.3v-0.1l0.3-0.3
							c0-0.7,0.1-0.8,1.2-1.8v-0.1v-0.1c0.5-0.7,1.2-1.2,1.7-1.7h0.5l0.9,0.9c0.1-0.1,0.1-0.1,0.1-0.1c0-1.6,0-3.1,0-4.7l-0.3-0.3
							c0-0.3,0-0.5-0.1-0.7c-0.1-0.1,0.1-0.5-0.1-0.7c-0.3-0.1,0-0.5-0.3-0.8c-0.1-0.1-0.1-0.5-0.4-0.5c0.1-0.4-0.4-0.7-0.3-1
							c0-0.3-0.3-0.3-0.3-0.5c0.1-0.3-0.3-0.5-0.3-0.8c0-0.3,0-0.5,0-0.8l-0.3-0.3v-0.9l-0.3-0.3v-0.9l-0.3-0.3
							c0.3-0.1,0.4-0.5,0.7-0.5c0.3,0,0.4-0.5,0.8-0.5s0.4-0.5,0.8-0.5c0.3,0,0.5-0.3,0.8-0.5h0.7l0.3,0.3h0.5l0.1,0.1
							c0.1,0,0.1,0,0.3,0.1c0.3,0,0.5,0,0.8,0c0.1-0.3,0.7-0.4,0.7-0.9c0.1-0.1,0.3-0.3,0.5-0.4c0.4-0.1,0.8-0.4,1-0.7
							c0.5-0.5,0.9-0.9,1.4-1.4h0.9c0.1,0,0.1,0.1,0.1,0.1c0.3,0.3,0.5,0.5,0.9,0.9c0.3,0.4,0.7,0.4,0.9,0.8
							c0.3,0.3,0.5,0.5,0.9,0.9c0.1,0.1,0.4,0,0.5,0.3c0.4-0.3,0.7-0.7,0.9-1v-0.9l-0.5-1l-0.3-0.1c-0.1-0.3,0-0.5-0.1-0.7
							c0.5-0.9,0.5-1,1.4-1.6h5.4l0.3,0.3h0.7l0.3,0.3h2.4l0.3-0.3h0.5l0.3-0.3c0.1,0,0.4,0,0.5-0.1c0.1-0.1,0.3-0.3,0.5-0.3
							c0.3,0,0.3-0.1,0.4-0.1c0.1,0,0.4-0.1,0.5-0.3h1.2l0.3-0.3h1.7c0.1,0.3,0.5,0.4,0.7,0.7c0.1,0.3,0.4,0.5,0.7,0.8
							c0.3,0.3,0.4,0.4,0.7,0.7c0-0.4,0.4-0.5,0.4-0.9c0.3-0.1,0.3-0.5,0.4-0.7c0.1-0.3,0-0.5,0.3-0.8l-0.3-0.3v-0.7l-0.3-0.3
							c0.1-0.4-0.1-0.7-0.4-1c-0.1-0.3-0.5-0.4-0.7-0.8c0-0.3-0.5-0.4-0.5-0.8l-0.5-0.5c-0.1-0.1-0.1-0.5-0.4-0.7s-0.4-0.4-0.5-0.7
							c0-0.1-0.3-0.3-0.4-0.5c-0.1-0.3-0.3-0.5-0.3-0.7s-0.1-0.1-0.1-0.1v-0.9c0.1-0.3,0.3-0.7,0.5-0.9c0.1-0.3,0.3-0.7,0.5-0.9
							c0.3-0.3,0.7-0.3,0.9-0.5c0.3,0.1,0.3-0.1,0.4-0.1c0.4-0.1,0.5,0.1,0.7,0.1c0.4,0.1,0.8,0.3,1,0.5c0.3,0.3,0.7,0.3,0.9,0.5
							c0.3,0.3,0.4,0.5,0.7,0.7c0.4,0.3,0.7,0.7,0.9,0.9v0.3l1.3,1.3c0.1,0,0.3,0,0.3,0.1c0.1,0.3,0.5,0.1,0.7,0.4h0.9
							c0.1-0.1,0.3-0.3,0.5-0.3l0.4-0.4v0l-0.3-0.3v-0.7c-0.3-0.3-0.3-0.7-0.5-0.8c-0.3-0.1-0.3-0.7-0.5-0.8
							c-0.3-0.3-0.5-0.5-0.7-0.7l-0.8-0.8c-0.1-0.3,0.1-0.5,0.3-0.5l0,0c0.3-0.1,0.5-0.3,0.8-0.5h2.9l-0.4-0.3
							c0.1,0,0.1-0.1,0.1-0.1h1.6c0.3-0.3,0.8-0.4,1.2-0.5c0.3-0.3,0.7-0.4,0.7-0.9c0.4-0.1,0-0.7,0.4-0.9v-1.2l0.3-0.3v-0.9
							l0.3-0.3V78c0.1-0.4,0.7-0.3,0.8-0.7h0.7l0.3-0.3h0.8l0.1-0.3h0.7l0.4-0.3c0.1,0,0.3,0.1,0.4,0.3h0.7c0.1,0.1,0.3,0.4,0.5,0.3
							c0.3,0.3,0.7,0.7,0.9,0.9c0.3,0.3,0.7,0.7,0.9,0.9c0.3,0.4,0.7,0.7,0.8,0.9c0.1,0,0.1,0,0.3,0c0.1,0.1,0.1,0.1,0.3,0.3h0.7
							l0.3-0.3h0.3l1.4-1.4c0.3,0.1,0.3-0.1,0.5-0.3c0.1,0.1,0.1,0.1,0.3,0.3c0.4,0.1,0.9,0.3,1.2,0.5c0.3,0.1,0.5,0.1,0.7,0.4
							c0.1,0.3,0.4,0.4,0.7,0.5c0.3,0.1,0.4,0.4,0.7,0.5c0.3,0.3,0.5,0,0.5,0.3h1.2l0.4-0.4c0.1-0.3-0.4-0.4-0.3-0.7
							c-0.3-0.3-0.5-0.4-0.5-0.8c-0.1-0.1-0.4-0.1-0.5-0.3c-0.3,0-0.4-0.3-0.5-0.4v-0.7c0.1,0,0.1-0.1,0.1-0.1c0.5,0,1,0,1.6,0
							c0.1-0.3,0-0.5,0.1-0.9c0-0.1,0.1-0.1,0.3-0.3v-0.9l0.5-0.7c0.4-0.1,0.7,0.1,0.9,0.3s0.5,0.4,0.7,0.7c0,0.4,0.4,0.4,0.5,0.8
							c0,0.3,0.1,0.5,0.3,0.7c0.3,0.3,0.1,0.4,0.1,0.7l0.3,0.3v0.5c0.5,0.4,0.5,1,1,1.3c0.1,0,0.3-0.1,0.4-0.3h0.7
							c0.4-0.4,0.7-0.8,1-1.2c0.1-0.5,0.4-0.9,0.7-1.3c-0.1-0.7,0.5-0.9,0.5-1.6l-0.3-0.3v-0.7c-0.1,0-0.1-0.1-0.1-0.1
							c-0.1-0.3-0.3-0.5-0.4-0.9l-0.9-0.9V72l-0.3-0.3v-2.4l-0.3-0.3v-1c0.1-0.1,0.4-0.3,0.5-0.4c0.1,0,0.4-0.4,0.5-0.4
							c0.3,0,0.4-0.4,0.7-0.3c0.1,0.1,0.3,0.3,0.5,0.4c0.3,0.3,0.5,0.7,0.9,0.8c0.3,0.4,0.7,0.5,0.8,0.9c0,0.1,0.1,0.1,0.1,0.1
							c0.3,0.4,0.8,0.5,0.9,1l0.9,0.9v0.3l0.9,0.9c0,0.1,0,0.1,0,0.3s0.1,0.1,0.1,0.1c0.3-0.1,0.4,0.4,0.8,0.3
							c0.1-0.1,0.3,0.1,0.4,0.1c0.1,0.1,0.4,0.1,0.4,0c0.3-0.3,0.5-0.1,0.9-0.3c0.1,0,0.1-0.1,0.1-0.1h0.7l0.3-0.3h0.7l0.3-0.3h0.8
							l0.1-0.1c0.1-0.1,0.1,0.1,0.3,0.1c0.5,0,1,0.3,1.6,0.7c0.1,0.1,0.4,0.1,0.7,0.3c0.1,0.1,0.3,0.3,0.5,0.3
							C215.6,74.2,215.9,74.5,216,74.6z"/>
					</defs>
					<clipPath id="SVGID_2_">
						<use xlink:href="#SVGID_1_"  style="overflow:visible;"/>
					</clipPath>
					<g class="st0">
						<rect x="21.6" y="53.9" class="st1" width="354.6" height="72.9"/>
						<rect x="21.6" y="126.8" width="354.6" height="72.9"/>
						<rect x="21.6" y="199.7" class="st2" width="354.6" height="72.9"/>
					</g>
				</g>
			</g>
		</g>
	</g>
	<g>
		<g>
			<g>
				<g>
					<defs>
						<path id="SVGID_3_" d="M65.9,213.4l0.3-0.3v-0.8c0.3-0.1,0.3-0.4,0.3-0.7c0.1-0.1,0.4-0.4,0.5-0.7c0.1-0.4,0.5-0.4,0.5-0.8
							c0-0.4,0.4-0.4,0.5-0.7c0-0.4,0.3-0.4,0.5-0.7v-0.4l-1-1c-0.3,0.1-0.3-0.3-0.5-0.3s-0.4-0.3-0.7-0.3c-0.3,0.1-0.3-0.3-0.5-0.3
							c-0.1,0-0.5,0.1-0.7-0.3H64l-0.3-0.3h-0.9l-0.3-0.3h-0.7l-1.2-1.3c0-0.3-0.1-0.5-0.3-0.9c-0.1-0.3-0.4-0.5-0.3-0.9
							c-0.3-0.1-0.3-0.5-0.4-0.7c-0.1-0.1,0-0.7-0.3-0.8c0-0.3-0.5-0.5-0.3-0.8l-1.4-1.4h-1.4l-0.3-0.3H54l-0.1-0.1l-0.1-0.1
							c-0.1,0-0.3,0-0.4,0c-0.3,0-0.3-0.3-0.7-0.3l-1.4-1.4c0.1-0.3-0.3-0.4-0.3-0.7c-0.3-0.7-0.7-1-0.8-1.8c0-0.1-0.1-0.1-0.1-0.1
							v-0.9c0.1-0.1,0.4-0.4,0.7-0.5h0.7l0.3,0.3h0.5l0.3,0.3h0.5c0.1,0.1,0.3,0.3,0.5,0.3c0.1,0,0.1-0.1,0-0.1
							c-0.3-0.1-0.1-0.5-0.4-0.7c-0.1-0.1,0-0.3,0-0.5c-0.4-0.1-0.5-0.7-0.7-0.9c-0.3-0.4-0.4-0.8-0.5-1v-0.8c0.3-0.3,0.8-0.3,1-0.7
							c0.3,0.1,0.3,0.4,0.7,0.5c0.3,0.1,0.5,0.4,0.7,0.7c0.3,0.5,0.5,0.9,1,1.3h0.5l0.5-0.5c0-0.1,0-0.4-0.3-0.5v-0.7l-0.3-0.4
							c0-0.4,0.5-0.5,0.5-0.9s0.5-0.3,0.8-0.5h0.8l0.3,0.3c0-0.1,0.1-0.1,0.1-0.3c-0.1-0.3-0.3-0.7-0.5-0.9v-0.7
							c-0.1-0.1-0.3-0.3-0.3-0.3c0.1-0.4-0.3-0.7-0.3-0.9c-0.1-0.3-0.1-0.5-0.4-0.8c-0.1-0.3-0.3-0.7-0.4-0.9
							c-0.3-0.5-0.5-1-0.9-1.4c0.1-0.3-0.3-0.4-0.3-0.7c0-0.1-0.4-0.3-0.4-0.5c-0.1-0.3-0.3-0.5-0.5-0.7c-0.3-0.1-0.1-0.5-0.4-0.7
							s-0.3-0.4-0.4-0.7c-0.1-0.3-0.3-0.5-0.5-0.8c-0.1-0.3-0.3-0.5-0.4-0.8c-0.1-0.3-0.5-0.4-0.7-0.7c-0.1-0.5-0.5-0.7-0.9-1
							c-0.3-0.3-0.5-0.5-0.8-0.8c-0.3-0.3-0.5-0.4-0.7-0.8c-0.1-0.3-0.5-0.5-0.7-0.8v-0.3c0.1,0,0.1-0.1,0.1-0.1
							c0.8,0.4,1.4,0.8,2.4,1.2h1.3l0.3-0.3c0-0.7,0.4-0.9,0.7-1.6h2.4c0.1,0.1,0.3,0.1,0.4,0.3c0.1,0,0.3,0,0.4,0.1
							c0.1,0.1,0.3,0.3,0.5,0.1c0.3,0.3,0.5,0.5,0.7,0.8c0.3,0.3,0.5,0.5,0.8,0.8c0,0,0,0.1,0.1,0.3c0.4,0.5,0.7,1,0.9,1.6
							c0.4,0.9,0.9,1.7,1.3,2.5c0,0.1,0.1,0.1,0.1,0.1v0.9l0.3,0.3c0.1,0.5,0,0.9,0,1.4c0.1,0.1,0.5,0.1,0.5,0.4l0.7-0.7v-0.7
							l-0.3-0.3v-3.3l0.3-0.3v-0.9c0.3-0.1,0.3-0.4,0.3-0.7c0.1-0.3,0.3-0.4,0.3-0.7l0.9-1c0.1,0,0.3,0,0.4-0.1
							c0.1-0.1,0.3-0.1,0.4-0.1c0.1-0.1,0.3-0.1,0.4-0.1l0.9-1c0-0.4,0.4-0.5,0.3-0.9c0.3-0.3,0.1-0.5,0.5-0.8v-0.5l0.4-0.4h1.2
							c0.3,0.1-0.1,0.5,0.4,0.5v0.8l0.3,0.3v1.6l0.9,0.9c0.1,0,0.3,0.1,0.4,0.3h0.9c0.3-0.1,0-0.5,0.4-0.5v-0.8l0.3-0.3v-3.5
							l0.3-0.3v-1.2l0.7-0.7h0.3l0.9-0.9c0.3-0.1,0.5,0,0.8-0.3h2.1l0.3-0.3h1.8l0.1-0.1c0.1-0.1,0.1-0.1,0.1-0.1h2
							c0.1-0.1,0.3-0.3,0.5-0.3l0.9-0.9h0.3c0.3-0.4,0.7-0.7,1-0.9c0.4-0.3,0.7-0.8,1-0.9c0.4-0.1,0.7-0.5,0.9-0.8h0.5l0.3-0.3h0.5
							l0.3-0.3h0.3c0.3,0.1,0.4,0.4,0.7,0.5c0.1,0.1,0,0.4,0.3,0.5c0.3,0.1,0,0.4,0.1,0.7c0.1,0.1,0.1,0.4,0.3,0.5
							c0.1,0.1,0.1,0.4,0.1,0.5l0.9,0.9h0.1c0.3,0.4,0.3,0.9,0.8,1.2c0.3,0.1,0.4-0.4,0.8-0.3c0.4-0.4,0.8-0.8,1-1l0.1,0.1H94
							c0.1,0,0.1,0,0.1,0.1c0.4,0.5,0.9,0.5,1.4,0.9h0.7c0.1-0.3,0.5-0.3,0.7-0.3c0.4-0.3,0.4-0.8,0.8-0.9c0.4-0.3,0.3-0.7,0.7-0.9
							c0.3-0.3,0.7-0.7,0.9-0.9h0.3l0.3-0.3c0.1,0,0.1,0,0.3,0c0.7,0.4,1.2,0.7,1.8,0.9l0.3-0.3h0.7l0.3-0.3h0.7l0.3-0.3h0.7
							l0.3,0.3h0.7l0.3,0.3c0.5,0.3,0.9,0.5,1.4,0.8c0.1,0,0.3,0.1,0.3,0.1c0.4,0.1,0.7,0.5,1,0.4c0.1,0.1,0.4,0.1,0.5,0.3
							c0.3,0.1,0.5,0.4,0.8,0.5c0.3,0.1,0.4,0.4,0.7,0.4c0.5,0.8,1.3,0.9,2.1,1.3c0.4,0.3,0.9,0.3,1.3,0.5c0.1,0.1,0.4,0.3,0.4,0.4
							c0.1,0.4,0.4,0.5,0.5,0.8c0.1,0.3,0.3,0.4,0.4,0.7c0.1,0.3,0.1,0.4,0.3,0.5c-0.1,0.4,0.3,0.5,0.3,0.9
							c-0.1,0.3,0.3,0.4,0.3,0.7l1.3,1.3c0.5,0.3,1,0.4,1.6,0.9h0.5l0.3,0.3h0.7l0.3,0.3h0.8c0.1,0.4,0.5,0.1,0.8,0.3
							c0.3,0.1,0.5,0.3,0.8,0.4c0.3,0.1,0.4,0.4,0.8,0.5h0.1l1.8,1.8c0.3,0.3,0.5,0.4,0.7,0.7c0.1,0.3,0.4,0.4,0.3,0.7l0.1,0.1v0.7
							l-0.3,0.3v0.8c-0.3-0.1-0.7-0.1-0.9-0.3c-0.3-0.4-0.9-0.4-1-0.9c-0.1-0.1-0.3-0.1-0.5-0.3c-0.3-0.1-0.3-0.4-0.5-0.4
							c-0.3,0-0.3-0.3-0.5-0.3c-0.3,0-0.3,0.3-0.5,0.3s-0.3,0.1-0.5,0.3c0.3,0.1,0.7,0.3,0.9,0.4c0.3,0.3,0.5,0.5,0.8,0.8
							c0,0.3,0.1,0.4,0.3,0.5v0.5c-0.1,0.1-0.3,0.1-0.5-0.1h-1.3c-0.3-0.3-0.7-0.4-1-0.5l-1.4-1.4c0.1-0.3-0.3-0.4-0.3-0.7
							c0-0.3,0-0.5-0.3-0.7c0-0.3-0.1-0.4-0.4-0.5h-0.9l-0.3,0.3c0,0.1,0,0.4-0.1,0.5l-0.3,0.3c0,0.3,0,0.4,0,0.7
							c0.1,0.3-0.4,0.4-0.3,0.8c0.1,0.3-0.3,0.4-0.3,0.7c0,0.3-0.4,0.3-0.3,0.7l-0.9,0.8c-0.3-0.1-0.4,0.3-0.7,0.3
							c-0.3-0.1-0.5-0.3-0.8-0.3c-0.1,0.1,0-0.1-0.1,0c-0.1,0.1-0.1,0.3-0.1,0.4l-0.1,0.1v1.7l0.1,0.1v1.3l-0.4,0.1
							c-0.3,0.3-0.5,0.5-0.8,0.8c-0.3,0.3-0.7,0.5-0.8,0.9c-0.1,0.3-0.3,0.4-0.7,0.5c-0.3,0.1-0.4,0.4-0.7,0.5s-0.4-0.4-0.7-0.3
							c-0.3-0.3-0.5-0.5-0.9-0.8c-0.3-0.1-0.5-0.4-0.8-0.7h-1.2c-0.3,0.1,0,0.5-0.4,0.5c0.5,0.5,0.9,0.9,1.2,1.4l-0.7,0.7
							c0.1,0.4-0.5,0.5-0.5,0.9c0,0.1-0.1,0.1-0.1,0.1c-0.1,0.3-0.7,0.4-0.5,0.8l-0.7,0.8c0,0.4-0.5,0.4-0.5,0.9
							c-0.3,0.4-0.8,0.7-1.2,0.9c-0.3,0.1-0.5,0.3-0.9,0.3c-0.1,0.1-0.3,0.4-0.4,0.4c-0.4,0.1-0.7,0.5-0.9,0.7
							c-0.3,0.1-0.1,0.5-0.4,0.7c-0.3,0.1-0.4,0.3-0.5,0.5c0,0.3-0.3,0.4-0.4,0.5c-0.4,0-0.5,0.3-0.7,0.5h-4.2
							c-0.1,0.3-0.3,0.3-0.5,0.3c-0.1,0.4-0.4,0.8-0.5,1c0.1,0.1,0.4,0,0.5,0.3c0.1,0.3,0.3,0.4,0.5,0.4c0.1,0.3,0.5,0.1,0.7,0.4
							c0.1,0.3,0.4,0.3,0.5,0.4v0.1l-1.7,1.7h-0.1l-0.3,0.3H93l-0.3,0.3h-1.2c-0.1-0.1,0-0.4-0.1-0.5l-0.3-0.3v-0.4l-0.3-0.3v-0.4
							v-0.1c0,0,0-0.1-0.1-0.1l-0.5-0.5c-0.3,0.1-0.4-0.3-0.7-0.3c-0.5,0-0.9-0.4-1.4-0.3c-0.1,0-0.3,0.3-0.5,0.3l-1.4,1.4
							c-0.4,0-0.5-0.3-0.7-0.5c-0.3-0.1-0.1-0.4-0.3-0.5c-0.3-0.1-0.4-0.4-0.7-0.7l-0.3,0.3c-0.1,0.3,0.1,0.5-0.3,0.8v0.7
							c-0.1,0.3-0.4,0.3-0.3,0.5l-0.7,0.5h-0.4c-0.3-0.1,0-0.5-0.4-0.5v-0.9l-0.7-0.5l-0.1,0.1H81l-0.4,0.5h-0.3l-0.9,0.9
							c0.1,0.5-0.5,0.5-0.5,0.8h-0.5c-0.1-0.3-0.7-0.1-0.7-0.5h-0.7c-0.1,0-0.1,0.1-0.1,0.1c-0.1,0.1-0.3,0.3-0.5,0.4
							c-0.3,0.1-0.7,0.3-0.9,0.5c-0.1,0-0.3,0-0.4,0c-0.1,0.4-0.7,0.4-0.9,0.7c-0.3,0.3-0.8,0.4-0.9,0.8c-0.3,0.3-0.5,0.7-0.8,0.9
							c-0.4,0.3-0.4,0.8-0.8,0.9c-0.3,0.3-0.4,0.7-0.7,0.9v4.6l-0.3,0.3v1.2l-0.3,0.3v0.9l-0.3,0.3v0.7l-0.3,0.3
							c0,0.3,0,0.5-0.3,0.7c0.1,0.3-0.4,0.4-0.3,0.8c0.1,0.3-0.4,0.4-0.3,0.8c-0.1,0.5-0.3,0.9-0.5,1.4c-0.3,0.4-0.4,0.9-0.7,1.2
							c-0.1,0.3-0.4,0.5-0.7,0.9v0.9l-0.3,0.3l0.3,0.3v2.1c-0.1,0.1-0.3,0.3-0.3,0.5c-0.5,0.5-0.9,0.9-1.4,1.4
							c-0.3,0.3-0.4,0.5-0.7,0.7c-0.4,0.1-0.5,0.4-0.7,0.7c-0.1,0.3-0.5,0.5-0.8,0.8l-0.7,0.7c-0.3,0.3-0.5,0.4-0.7,0.7
							c-0.3,0.3-0.5,0.1-0.7,0.4c-0.3,0.3-0.4,0.5-0.7,0.7l-0.7,0.7l-0.7,0.7c-0.1,0-0.1,0-0.3,0c-0.1,0.1-0.1,0.1-0.3,0.3h-1.4
							l-0.5-0.5c0-0.4-0.4-0.5-0.5-0.8c0-0.4-0.4-0.4-0.5-0.7c-0.1-0.3-0.1-0.5,0-0.8l0.1-0.1v-0.7l-0.3-0.3c0-0.3-0.1-0.7-0.3-0.9
							c-0.1-0.3-0.3-0.5-0.5-0.5c-0.1,0-0.1-0.1-0.1-0.1l-0.4-0.4v-1l0.3-0.4l0.3,0.3h0.9l0.5-0.7c0-0.1,0.1-0.3,0.3-0.4v-0.7
							l0.3-0.3v-0.7c0.1-0.1,0.1-0.1,0.3-0.3v-0.5c0.1-0.4,0.4-0.8,0.7-1c0-0.4,0.5-0.4,0.5-0.9c0.3-0.3,0.3-0.7,0.5-0.8
							c0.3-0.5,0.5-1,0.9-1.7c0.1-0.3,0.3-0.5,0.3-0.9c0.4-0.3,0.7-0.8,0.8-1.2c0.1-0.1,0.5,0,0.5-0.3c0.4,0,0.5,0.4,0.9,0.3
							l0.4,0.5h0.3l0.3,0.3h0.8c0.4-0.1,0.3-0.7,0.7-0.8L65.9,213.4z"/>
					</defs>
					<clipPath id="SVGID_4_">
						<use xlink:href="#SVGID_3_"  style="overflow:visible;"/>
					</clipPath>
					<g class="st3">
						<rect x="-148.4" y="53.9" class="st1" width="354.6" height="72.9"/>
						<rect x="-148.4" y="126.8" width="354.6" height="72.9"/>
						<rect x="-148.4" y="199.7" class="st2" width="354.6" height="72.9"/>
					</g>
				</g>
			</g>
		</g>
	</g>
	<g>
		<g>
			<g>
				<g>
					<defs>
						<path id="SVGID_5_" d="M91.6,116.2l0.3,0.3h0.7c0.4,0.4,0.9,0.3,1.2,0.5l0.9,0.9c0.1,0.3-0.1,0.4-0.3,0.5c0,0.3,0,0.4-0.1,0.7
							c-0.1,0.1-0.3,0.4-0.3,0.7s-0.3,0.4-0.3,0.7c0,0.3-0.3,0.3-0.3,0.3c-0.1,0.3,0,0.5,0.1,0.7v0.5l0.3,0.3v0.5
							c0.1,0.1,0.3,0.3,0.5,0.5v0.1l1.3,1.3h0.5l0.3-0.3h3l0.1-0.1c0.1,0,0.1-0.1,0.3-0.1c0.4,0,0.7,0,0.9,0
							c1.4,0.8,2.9,1.4,4.2,2.1c0.1,0,0.3,0,0.4,0c0.4,0.3,0.7,0.7,0.9,0.9c0.3,0.4,0.4,0.8,0.5,1v1.6l-0.3,0.3v1.2l0.5,0.9
							l-0.1,0.1c0.3,0.3,0.7,0.5,0.9,0.9c0.3,0.3,0.8,0.5,0.8,0.9c0.3,0.3,0.4,0.7,0.7,0.9c0.3,0.3,0.5,0.7,0.8,1v0.4l0.3,0.3v1.8
							c0.1,0.3,0.4,0.1,0.5,0.1l0.4,0.3v2.4c-0.3,0.3-0.3,0.7-0.5,0.9H110c-0.3,0-0.3-0.5-0.7-0.5c-0.3-0.3-0.4-0.5-0.7-0.7
							c-0.3-0.1-0.5-0.3-0.8-0.5H107l-0.3,0.3l-0.1,0.5l-0.3,0.4l-0.4-0.4c-0.3-0.1-0.5-0.1-0.8,0.1H104l-0.3,0.3h-0.4l-0.1,0.1
							c0,0.4-0.5,0.5-0.5,0.9c0.1,0.3,0.5,0.1,0.7,0.5c0,0.3,0.1,0.4,0.3,0.5v2.1c-0.3,0.4-0.8,0.4-0.9,0.8
							c-0.3,0.4-0.8,0.4-0.9,0.8h-2.4l-0.3-0.3h-0.5c-0.4-0.4-0.5-0.9-0.9-1.3c0.1-0.4,0.4-0.8,0.7-1c0.5-0.7,1.3-0.9,1.7-1.6v-0.7
							l-0.3-0.3h-0.9c-0.4,0.1-0.8,0.4-1,0.7c-0.4,0.3-0.8,0.4-1,0.8c-0.3,0.4-0.7,0.7-0.9,1c0.1,0.3-0.3,0.4-0.3,0.7
							c0,0.3,0,0.5-0.3,0.7c0.1,0.3-0.3,0.4-0.3,0.7c0,0.3-0.3,0.3-0.3,0.5c0.1,0.3-0.1,0.4-0.3,0.7c0,0.3,0,0.5-0.3,0.7v0.7
							l-0.3,0.3v0.5l-0.3,0.3v0.5l-0.3,0.3v0.5l-0.3,0.3v0.7c-0.4,0.7-0.7,1.4-1.2,2c0,0.1,0,0.1,0,0.3c-0.1,0.1-0.4,0.3-0.5,0.5
							c-0.1,0.3-0.5,0.3-0.7,0.4c-0.3,0.1-0.3,0.4-0.5,0.4c-0.1,0.3-0.5,0.3-0.7,0.4c-0.3,0.1-0.4,0.1-0.5,0.4h-1.8l-0.3,0.3h-0.9
							l-0.3-0.3c-0.1-0.1-0.5,0.1-0.7-0.3h-0.8l-0.3-0.3h-0.5c-0.7-0.7-1.3-1.3-2-2.1v-0.9l0.9-0.9c0-0.4,0.3-0.5,0.5-0.8
							c0-0.1,0-0.3,0-0.4c-0.3-0.7-0.7-1.3-0.9-2c-0.1-0.3-0.3-0.4-0.5-0.5c0.1-0.4-0.3-0.7-0.4-1c-0.1-0.3-0.4-0.4-0.4-0.7
							s-0.1-0.5-0.3-0.8c0-0.3,0-0.4,0-0.7l-0.3-0.3v-3.5l-0.3-0.3v-0.9c-0.1,0-0.1-0.1-0.1-0.1c-0.1-0.3-0.3-0.5-0.4-0.9l-0.7-0.7
							v-0.3l-1.2-1.2c0-0.3-0.1-0.4-0.3-0.5c-0.1-0.1-0.3-0.1-0.5-0.3c-0.1-0.1-0.3-0.3-0.4-0.3c-0.4,0-0.5-0.4-0.8-0.5
							c-0.3,0-0.5,0.1-0.7-0.3h-2.6l-0.3,0.3h-0.7l-0.3,0.3h-0.7l-0.3,0.3h-0.5l-0.3,0.3h-1.2l-0.1-0.1c-0.3-0.1-0.5,0-0.7-0.1
							l-0.1-0.1c-0.7-0.4-1.3-0.5-1.8-1c-0.3,0.1-0.4-0.4-0.7-0.3c-0.1-0.3-0.4-0.1-0.5-0.3c-0.1-0.1-0.5-0.1-0.5-0.4
							c-0.1-0.3-0.4-0.1-0.5-0.4c-0.1-0.3-0.4-0.1-0.5-0.3c-0.3-0.1-0.7-0.3-0.9-0.5c-0.3-0.1-0.5-0.4-0.8-0.5
							c-0.1-0.1-0.3-0.1-0.4-0.1c-0.1,0-0.1-0.3-0.1-0.4c-0.3-0.3-0.5-0.4-0.7-0.7V131c0.3-0.1,0.1-0.5,0.3-0.7
							c0.1-0.1,0.1-0.4,0.3-0.5h0.5l0.1-0.1c0.1,0,0.1,0,0.3-0.1h2.6l0.3,0.3h1.3l0.3,0.3h0.9l0.3-0.4h1.4l0.3-0.3h1.4l0.3-0.3h1.7
							l0.1-0.1l0.1-0.1h1.6l0.3-0.3h1.3l0.4-0.3h1.3l0.3-0.3h1.6l0.3-0.3h1.4c0,0,0.1,0,0.1-0.1l0.1-0.3l-0.5-0.3v-0.8
							c0.1-0.1,0.1-0.1,0.3-0.1c0.1,0,0.3-0.1,0.3-0.1l0.9,0.4c0.3,0.1,0.5,0.3,0.9,0.3c0-0.1,0.1-0.1,0.1-0.1c0-1,0-2.2,0-3.4
							l0.9-0.8h1c0.3-0.1,0.5-0.3,0.7-0.4c0.5-0.1,0.9-0.5,0.9-0.9c0.3-0.5,0.7-0.9,0.7-1.6c0-0.1,0.1-0.1,0.1-0.1v-1.8
							c0.1-0.1,0.3-0.1,0.3-0.3s0.1-0.3,0.1-0.4c0.1-0.1,0.1-0.3,0.1-0.4c0.1-0.1,0.4,0,0.5-0.3h1.4l0.3,0.3L91.6,116.2z"/>
					</defs>
					<clipPath id="SVGID_6_">
						<use xlink:href="#SVGID_5_"  style="overflow:visible;"/>
					</clipPath>
					<g class="st4">
						<rect x="-159.9" y="53.9" class="st1" width="354.6" height="72.9"/>
						<rect x="-159.9" y="126.8" width="354.6" height="72.9"/>
						<rect x="-159.9" y="199.7" class="st2" width="354.6" height="72.9"/>
					</g>
				</g>
			</g>
		</g>
	</g>
	<path class="st1" d="M118.9,128.2h-1.2c-0.1-0.1-0.1-0.3-0.3-0.3c-0.3,0-0.5-0.1-0.5-0.4c-0.1-0.1-0.3-0.3-0.3-0.5
		c0-0.3-0.3-0.4-0.3-0.5c0.1-0.4-0.3-0.5-0.3-0.9c0.1-0.4-0.3-0.5-0.3-0.9c0-0.4-0.3-0.7-0.3-0.9c-0.3-0.1-0.1-0.5-0.4-0.7v-1.6l1-1
		c0.1,0,0.3-0.1,0.4-0.3h0.9l0.3-0.3c0.3,0,0.5-0.1,0.7,0.1h1.7l0.3,0.3h0.5l0.3,0.3h0.5l0.3,0.3c0.3,0,0.5-0.1,0.7,0.1
		c0.1,0.3,0.4,0,0.7,0.1c0.3,0.1,0.5,0.1,0.9,0.1c0.1-0.4,0.7,0,0.9-0.4c0-0.1,0.3,0,0.4,0l0.3-0.3h1.4c0.3,0.3,0.5,0.5,0.8,0.8
		c0.3,0.1,0.3,0.5,0.4,0.7c0.1,0.3,0.3,0.4,0.4,0.7c0.1,0.3,0.3,0.5,0.5,0.8c0.1,0.3,0.3,0.4,0.4,0.7v1.6c-0.4,0.1-0.1,0.5-0.3,0.8
		c-0.1,0.3-0.3,0.5-0.5,0.7c-0.7,0-1-0.5-1.8-0.7h-0.7c-0.1,0.1-0.3,0.3-0.3,0.4c-0.1,0.1-0.3,0.1-0.4,0.1c-0.1,0.1-0.3,0.3-0.4,0.4
		c-0.1,0-0.3,0.1-0.4,0.3h-1.2c-0.3-0.1-0.5-0.4-0.8-0.4c-0.4,0-0.5-0.4-0.8-0.5h-0.5l-0.1-0.1c-0.3-0.1-0.5-0.1-0.8,0
		c-0.1,0.3-0.4,0.5-0.3,0.8c-0.1,0.3-0.5-0.1-0.5,0.4h-0.8L118.9,128.2z"/>
	<rect x="45.9" y="-3" class="st5" width="333.5" height="333.5"/>
</g>
<g>
	<g>
		<g>
			<g>
				<g>
					<path id="SVGID_7_" class="st6" d="M217.2,74.2h0.5l0.3,0.3c0.4,0.1,0.7-0.3,1-0.4v-1.4l-0.1-0.1c0-0.1-0.1-0.1-0.1-0.3
						c0-0.4,0-0.7,0-1c0.4-0.1,0.4-0.7,0.8-0.9c0.3,0,0.5,0,0.9,0c0.3,0.1,0.5,0.3,0.8,0.4c0.3,0.1,0.5,0.4,0.8,0.5
						c0.3,0.1,0.4,0.4,0.7,0.4c0.3,0.1,0.5,0.3,0.8,0.5h0.7l0.3,0.3h0.4l0.3,0.3h0.5l0.3,0.3h0.7l0.1,0.1c0.1,0.1,0.5-0.1,0.7,0.1
						c0.1,0.3,0.4,0.1,0.5,0.1c0.1,0,0.3,0,0.3,0c0.1,0.4,0.7,0,0.8,0.3c0.1,0.3,0.4,0,0.7,0.1l0.1,0.1h0.7l0.3,0.3h0.5l0.3,0.3
						c0.5-0.3,0.9,0.3,1.4,0.3c0.3,0.3,0.5,0.1,0.9,0.3l0.3,0.3l0.1-0.1c0-0.4,0-0.9,0-1.3l-0.3-0.3c0-0.5,0-0.5,0.4-1.3
						c0.3-0.5,0.7-0.7,1-0.9h0.4l0.3-0.3h4.9c0.3-0.3,0.1-0.5,0.1-0.8c-0.1-0.1-0.3-0.1-0.3-0.3c0-0.3-0.1-0.5-0.5-0.5
						c-0.3-0.1-0.5-0.3-0.5-0.7l-0.8-0.8c-0.1-0.4-0.3-0.7-0.5-1.2v-0.8l-0.3-0.3v-0.9l-0.3-0.3v-1.2l-0.3-0.3v-4.9l0.1-0.1
						c0.1-0.3,0-0.7,0.1-0.9c0.3,0.1,0.4,0.5,0.8,0.5c0.1,0.1,0.3,0.3,0.4,0.4c0.4,0.9,0.9,1.8,1.4,2.9v0.1c0.3,0.3,0.7,0.7,1,1
						c0.4,0.1,0.8,0.4,1.2,0.5c0.3,0.1,0.4,0.4,0.5,0.7c0.1,0.3,0.4,0.4,0.5,0.7c0.1,0.3,0.1,0.4,0.4,0.5c0.1,0.1,0.1,0.1,0.1,0.3
						c0.7,1.2,0.9,1.6,1.4,2.1h0.3l0.4,0.5h0.5l0.3,0.3h0.5l0.3,0.3c0.3,0,0.3-0.1,0.4-0.3h0.7c0.1-0.1,0.1-0.1,0.3-0.3
						c0.1-0.1,0.1-0.3,0.3-0.5c0.1-0.1,0.1-0.4,0.1-0.5c0.1-0.1,0.1-0.3,0.3-0.3c0-0.3,0-0.5,0-0.8c0-0.1,0-0.1-0.1-0.3
						c-0.1-0.1-0.1-0.1-0.1-0.1v-0.7c-0.4-0.3-0.5-0.8-0.9-1.2c-0.3-0.3-0.3-0.8-0.5-1.2v-1.4l0.3-0.3v-0.5l-0.9-0.9
						c0-0.1,0-0.3,0.1-0.3c0.3-0.3,0.5-0.5,0.9-0.9c0.1-0.1,0-0.3,0.1-0.4h0.7c0.1,0.1,0.1,0.1,0.3,0.3h0.5c0.1,0.1,0.3,0.3,0.5,0.3
						c0.5,0.5,1,1,1.4,1.4v0.3l1.2,1.2v0.8l-0.3,0.3c0.3,0.1,0.3,0.5,0.5,0.8c-0.1,0.3,0.1,0.5,0.3,0.8c0,0.3,0.1,0.7,0,0.9l0.3,0.3
						v0.9c0.3,0.3,0.1,0.7,0.5,0.8s0.1,0.5,0.4,0.7c0.3,0,0.3,0.3,0.7,0.3c0.1,0,0.1,0.3,0.4,0.3s0.3-0.3,0.5-0.3h0.1l0.9-0.9
						c0-0.1,0-0.3,0.1-0.3c0.3-0.1,0.1-0.5,0.4-0.7v-0.7l-0.3-0.3v-0.5l0.3-0.3c0-0.1,0-0.3,0-0.4c0.3-0.4,0.3-0.9,0.5-1.4
						c0.1,0,0.3,0,0.3,0c0.3,0.3,0.4,0.5,0.8,0.5c0.1,0,0.3,0.1,0.3,0.3c0,0.4,0.4,0.4,0.4,0.7c0.1,0.3,0.1,0.4,0.4,0.5
						c0.3,0.1,0.1,0.5,0.4,0.7s0.3,0.7,0.7,0.8h0.9c0-0.1,0.1-0.1,0.1-0.1c0-0.8,0-1.7,0-2.5l0.5-0.4v-0.4c0.1-0.4,0.7-0.3,0.8-0.7
						l0.3,0.3h0.4l2,1c0.7,0.7,1.3,1.3,2,2c0,0.1,0,0.1,0,0.1c0.1,0.1,0.1,0.3,0.3,0.3c0,0.4,0,0.8,0,1.3h10.6
						c0.1,0.1,0.1,0.1,0.3,0.1c0.4,0.1,0.7,0.3,0.9,0.5s0.7,0.3,0.9,0.5c0.1,0.3,0.4,0.1,0.5,0.3c0.1,0.1,0.4,0.1,0.5,0.1
						c0.1,0,0.1,0.1,0.3,0.3h0.7L284,68h0.7l0.3,0.3h0.7c0.3,0.1,0.4,0.5,0.7,0.5c0.4,0,0.4,0.5,0.8,0.5c0.1,0.3,0.5,0.1,0.7,0.4
						s0.5,0.3,0.8,0.5s0.5-0.1,0.7,0.3h0.7l0.3,0.3h1.8l0.3-0.3h0.3c0.4-0.4,0.8-0.8,1.2-1.2h0.3l0.4-0.4c0.1-0.1,0.1-0.1,0.1-0.1
						h2.8c0.1,0.1,0.3,0.3,0.3,0.3h0.4c0.1,0.3,0.5,0.1,0.8,0.3c0.3,0.3,0.7,0.4,0.9,0.5c0.5,0.3,0.9,0.5,1.3,0.7
						c0.3,0.4,0.7,0.7,1,0.9c0.8,0.4,1.2,1,1.8,1.7v0.3l2.9,2.9v0.3l0.7,0.5c0.3-0.1,0.4,0.3,0.7,0.3s0.4,0.3,0.8,0.3
						c0.3,0.3,0.8,0.3,1,0.5c0.4,0.3,0.8,0.3,1,0.7c0.1,0.1,0.5,0.1,0.5,0.4c0.1,0.3,0.5,0.1,0.7,0.4c0.3,0,0.4,0.3,0.7,0.3
						s0.3,0.1,0.4,0.3h1.8l0.3,0.3c0.9,0,1.7,0,2.6,0l0.3,0.3h2.4l0.3,0.3h4.3l0.3-0.3h3.5l0.3-0.3h3.3l0.3-0.3h3l0.1-0.1
						c0.1,0,0.1-0.1,0.3-0.1c0.7,0,1.3,0,2,0l0.3,0.3h0.7l0.4,0.3h0.7l0.3,0.3h0.7l0.3,0.3h0.7l0.3,0.3h0.7l0.3,0.3h0.7l0.3,0.3h0.7
						l0.3,0.3h0.7l0.3,0.3h3.4l0.3,0.3h3.5l0.3,0.3c0.3,0.1,0.7,0,0.9,0.1l0.1,0.1h0.8l0.3,0.3c0.1,0,0.4,0,0.5,0
						c0.3,0,0.3,0.3,0.5,0.3c0.3,0,0.4,0,0.7,0l0.3,0.3h0.7l0.3,0.3h0.7l0.3,0.3h0.7l0.3,0.3h0.7l0.3,0.1c0.7,0.3,0.9-0.3,1.4-0.3
						c0.1-0.1,0.3-0.3,0.5-0.1c0.3,0,0.3-0.3,0.5-0.3c0.4,0,0.4-0.5,0.8-0.5c0.4,0,0.4-0.5,0.8-0.5c0.3-0.1,0.4-0.4,0.7-0.5
						c0.3-0.1,0.5-0.3,0.5-0.8l0.8-0.8c0.7-1.3,1.2-2.4,1.7-3.4c0-0.1,0.1-0.1,0.3-0.3c0.1,0,0.3,0,0.3,0.1c0,0.4,0.4,0.5,0.5,0.8
						c0.1,0.3,0.3,0.5,0.4,0.8c0.1,0.1,0.3,0.3,0.4,0.3c0.4,0.1,0.8,0.3,1,0.5c0.3,0.1,0.5,0.4,0.8,0.5c0.3,0.3,0.7,0.5,0.9,0.8
						c0.5,0.4,0.5,0.9,0.9,1.4c0.1,0.1,0,0.4,0.1,0.5c0.1,0.1,0.1,0.4,0.3,0.5s0,0.5,0.3,0.8c0.1,0.1,0.1,0.4,0.3,0.5
						c-0.1,0.3,0.5,0.4,0.3,0.7l0.8,0.8c0.3,0.3,0.5,0.5,0.8,0.8c0.5,0,0.5,0.5,0.8,0.5c-0.1,0.3,0.1,0.4,0.3,0.5v0.7l-0.3,0.3v0.9
						c-0.3,0.1-0.3-0.3-0.5-0.1c-0.3,0.1-0.3-0.3-0.5-0.3s-0.3-0.3-0.7-0.1l-0.8,0.9h-0.4l-0.9,0.9h-2.4l-0.3,0.3h-1.4
						c-0.3,0.3-0.8,0.4-1,0.7v-0.5c0.1,0.3,0.5,0,0.7,0.3c0.1,0.1,0.4,0.1,0.7,0.3c0.3,0.1,0.4,0,0.7,0.1c0.1,0.1,0.4,0.1,0.5,0.3
						c0.1,0.1,0.3,0,0.4,0c0.1,0.1,0.1,0.1,0.3,0.3h1.2c0.1,0.1,0.1,0.3,0,0.5c-0.1,0.1-0.5,0.4-0.5,0.7c-0.1,0.3-0.3,0.4-0.4,0.5
						c0,0-0.1,0-0.1,0.1h-0.1h-3l-0.3-0.3h-2.1c-0.3,0.1-0.5,0.3-0.9,0.4c-0.3,0-0.3,0.3-0.5,0.3c-0.3,0-0.3,0.3-0.5,0.3
						c-0.3,0.1-0.7,0.3-0.9,0.5c-0.1,0.1-0.5,0.4-0.7,0.7c-0.1,0.3-0.3,0.5-0.5,0.8v0.9l0.3,0.3v1.2c-0.3,0.1-0.1,0.4-0.4,0.5
						c-0.3,0.1,0,0.5-0.3,0.8c-0.3,0.1-0.1,0.5-0.4,0.5v0.9l-0.3,0.3v0.9l-0.3,0.3c0,0.3,0,0.7,0,0.9l-0.1,0.1
						c-0.1,0.3,0,0.5-0.1,0.8l-0.3,0.3v0.9l-0.3,0.3v0.9l-0.3,0.3v0.7c-0.1,0.1-0.1,0.1-0.3,0.3v0.5l-0.3,0.3v0.4
						c-0.1,0.3-0.3,0.5-0.4,0.7c-0.3,0.3,0,0.5-0.1,0.7c-0.3,0.3-0.1,0.5-0.3,0.8c-0.1,0.1-0.1,0.4-0.1,0.7l-0.3,0.3
						c0,0.3,0,0.4-0.1,0.7c-0.1,0.1-0.3,0.5-0.3,0.7c0,0.3-0.3,0.5-0.3,0.8c0.1,0.3-0.3,0.4-0.3,0.7c0,0.3-0.1,0.5-0.3,0.7
						c-0.1,0.1,0.1,0.4-0.1,0.5c-0.1,0.1-0.1,0.5-0.3,0.5c0,0.3-0.1,0.7-0.3,0.9c-0.1,0.3-0.3,0.7-0.5,0.9c-0.1,0.3-0.3,0.7-0.5,0.9
						c-0.1,0.3-0.3,0.7-0.5,0.9c-0.1,0.3-0.3,0.7-0.5,0.9c-0.1,0.3-0.3,0.7-0.5,0.9c0.1,0.3-0.4,0.5-0.3,0.9
						c-0.1,0.3-0.3,0.5-0.3,0.9c0,0.3-0.3,0.7-0.3,0.9c-0.3,0.1-0.3,0.5-0.5,0.8c-0.1,0.3-0.3,0.5-0.4,0.8c-0.1,0.3-0.4,0.5-0.7,0.7
						h0.3l-2.1,2.1h-0.3l-1.8,1.8h-0.3l-0.9,0.9c-0.3,0.4-0.7,0.8-1,1c-0.5,0.3-0.9,0.7-1.2,1c-0.4,0.4-0.7,0.8-1,1
						c-0.3,0.1-0.7,0.4-0.9,0.7c-0.3,0.3-0.5,0.5-0.8,0.8v0.5l-0.3,0.3v0.5l-0.3,0.3v0.7l-0.3,0.3v0.5l-0.3,0.3c0,0.1,0,0.3,0,0.5
						s-0.3,0.3-0.3,0.5c0,0.1,0,0.4-0.1,0.5c-0.1,0.1-0.3,0.3-0.1,0.5c0,0.1-0.1,0.3-0.3,0.4v0.7l-0.3,0.3v0.5l-0.3,0.3v0.7
						c-0.1,0.1-0.1,0.1-0.1,0.1c0,0.5-0.4,0.8-0.3,1.3c-0.1,0.4-0.3,0.8-0.5,1v0.1v0.7l-0.3,0.3v1.4l0.3,0.3v0.9l0.3,0.3v0.9
						c0.1,0.1,0.1,0.1,0.3,0.3v0.9l0.3,0.3v0.7l0.3,0.3v0.9l0.3,0.3v0.9l0.3,0.3v0.9l0.3,0.3v0.9l0.3,0.4v0.7l0.3,0.3v0.9l0.3,0.3
						v0.9l0.3,0.3v0.9l0.3,0.3v0.9l0.3,0.3v0.7l0.3,0.3v0.9l0.3,0.3v0.9l0.3,0.3v0.9l0.3,0.3c0,0.3,0,0.7,0,0.9l0.1,0.1
						c0.1,0.3,0,0.5,0.1,0.8c0,0.1,0.1,0.1,0.3,0.3v0.9l0.3,0.3v0.9l0.3,0.3v0.9l0.3,0.3v0.7l0.3,0.3c0.1,0.3,0,0.7,0,0.9l0.3,0.3
						v0.9l0.3,0.3v0.9c0.1,0.1,0.1,0.1,0.3,0.3v0.7l0.3,0.3v0.9l0.3,0.3v0.9l0.3,0.3v0.9l0.3,0.3v0.8c0,0.1-0.1,0.1-0.1,0.3
						c0,0.3-0.4,0.4-0.3,0.8c0.1,0.3-0.3,0.4-0.3,0.7c-0.3,0.1-0.3,0.5-0.4,0.7c-0.1,0.3,0,0.7-0.3,0.8c0,0.3-0.4,0.5-0.3,0.9
						c0,0.1-0.1,0.3-0.3,0.4c-0.1,0.3-0.1,0.5-0.3,0.7c-0.3,0.3,0,0.7-0.3,0.9c-0.1,0.1-0.3,0.5-0.3,0.7c0,0.1-0.1,0.1-0.3,0.4v0.9
						l-0.3,0.3v1.6l-0.3,0.3v1.8l-0.3,0.3c-0.1,0.3,0.1,0.3,0.3,0.5v1.3l0.3,0.3v1.6l0.3,0.3v0.9c0.3,0.3,0.3,0.7,0.5,0.8
						c0,0.3,0.3,0.5,0.4,0.8c0.1,0.3,0.3,0.5,0.4,0.8s0.3,0.5,0.4,0.8c0.1,0.3,0.1,0.5,0.4,0.8c0.3,0.3,0,0.8,0.4,0.9
						c0.1,0.7,0.7,1,0.8,1.7c0.4,0.1,0,0.7,0.4,0.8c0.3,0.7,0.7,1.3,1,2.1v0.1l0.7,0.8c-0.1,0.4,0.5,0.5,0.5,0.9
						c0,0.1,0.1,0.1,0.1,0.1c0.1,0.1,0.4,0.3,0.5,0.5c0.1,0.3,0.3,0.5,0.4,0.7c0.3,0.1,0.1,0.5,0.4,0.5v1.6l0.3,0.3v1.4l-0.3,0.3
						v4.2c0.3,0.4,0.7,0.5,1.2,0.7l0.8,0.8v0.7l0.3,0.3v2.4c-0.1,0.1-0.1,0.1-0.1,0.1c0,0.5-0.5,0.9-0.3,1.4l-0.3,0.3v1.2l0.3,0.3
						v0.5c0.3,0.1,0.4,0.5,0.7,0.7c0.5,0.1,1,0.7,1.6,0.7h0.1c0.3,0.1,0.5,0.4,0.9,0.4c0.3,0.1,0.7,0.1,0.9,0.4
						c0.3,0.1,0.4,0.1,0.7,0.1c0.1,0.1,0.3,0.3,0.5,0.3l1.3,1.3v0.7l0.3,0.3v1.2c-0.1,0.1-0.3,0.1-0.3,0.4c0,0.1-0.1,0.3-0.3,0.5
						c0,0.1-0.3,0.3-0.4,0.5c-0.1,0.1-0.3,0.3-0.5,0.3c-0.3,0.5-0.9,0.5-1.3,0.9c-0.3,0.1-0.7-0.1-0.8,0.3c-0.3,0-0.5,0.3-0.9,0.3
						c-0.3,0-0.5,0.3-0.9,0.5H353l-0.3,0.3h-1.3l-0.3,0.3H350l-0.3,0.3h-1.4L348,243c-0.5,0.1-0.9,0-1.4,0l-0.3,0.3h-0.9l-0.4,0.4
						c0.1,0.1,0.1,0.1,0.3,0.1l1,1c-0.4,0.4-0.9,0.5-1.7,0.9l-0.9,0.9c0,0.1,0,0.4-0.1,0.5l-0.1,0.1v2.1l0.3,0.3v0.9l0.3,0.3v1.7
						l-1,1c-0.1,0.1-0.3,0.1-0.5,0.3c-0.1,0.1-0.4-0.1-0.5,0.1c-0.1,0.1-0.5,0-0.7,0.1c-0.1,0.1-0.4,0.1-0.5,0.3
						c-0.1,0.3-0.4,0.1-0.7,0.1l-0.3,0.3h-0.5l-0.3,0.3h-0.3c-0.5,0.5-1.2,0.9-1.4,1.8v0.7l-0.3,0.3v0.7l0.3,0.3v1.4l0.1,0.1
						c0,0.1,0,0.1,0.1,0.3c0,0.9,0,1.8,0,2.6l-1,1h-1.2l-0.5,0.7v2.2l0.1,0.3c0,0.3,0.1,0.5,0.1,0.8c0.4,0.1,0,0.7,0.3,0.8
						s0,0.5,0.3,0.8c0.1,0.1,0.3,0.5,0.3,0.7c-0.3,0.4-0.5,0.7-0.9,0.8c-0.3,0.1-0.7,0.3-0.8,0.5c-0.4,0.1-0.4-0.3-0.7-0.3
						s-0.4-0.3-0.8-0.3c-0.3,0-0.4-0.3-0.7-0.3c-0.1,0.1-0.3-0.1-0.4-0.1c-0.3,0-0.5-0.4-0.8-0.3c-0.3,0.1-0.4-0.3-0.8-0.3
						c-0.3,0.1-0.3-0.3-0.7-0.3c-0.3,0.1-0.4-0.3-0.5-0.3c-0.3,0-0.4-0.3-0.7-0.3c-0.1,0-0.4,0-0.5-0.1c-0.1-0.1-0.5,0.1-0.7-0.1
						c-0.1-0.3-0.4-0.1-0.7-0.3c-0.1-0.1-0.3,0-0.5,0l-0.3-0.3h-3l-0.1-0.1c-0.1,0-0.1-0.1-0.1-0.1c-0.4,0-0.8,0-1.2,0
						c-0.1-0.3-0.5-0.1-0.7-0.4c-0.4-0.5-0.9-0.9-1.3-1.3c0.1-0.4-0.5-0.5-0.5-0.9c0-0.3-0.5-0.4-0.5-0.8c0-0.1-0.3-0.4-0.5-0.5
						v-0.4l-1.4-1.4c-0.3,0-0.5-0.4-0.9-0.3l-0.3-0.3h-0.5l-0.1-0.1c-0.1,0-0.1-0.1-0.3-0.1c-0.3,0-0.5,0-0.8,0l-0.1,0.1
						c-0.1,0-0.1,0-0.3,0.1c-0.4,0-0.7,0-1,0l-1.2-1.2h-0.8c-0.3,0.1-0.5,0.3-0.7,0.4c-0.4,0.3-0.5,0.7-0.7,0.9s-0.1,0.7-0.5,0.9
						c0,0.3-0.1,0.7-0.3,0.9c-0.1,0.1-0.3,0.3-0.3,0.4c0,0.1-0.1,0.3-0.1,0.4c-0.1,0.1-0.1,0.3-0.1,0.4c-0.1,0.1-0.3,0.3-0.3,0.4
						c-0.1,0.1-0.3,0.3-0.3,0.4c-0.1,0.3-0.5,0.3-0.8,0.5h-5.2l-0.3,0.3c-0.3,0-0.4,0-0.7,0.1c-0.3,0.1-0.7,0.3-0.9,0.5
						c-0.3,0.1-0.5,0.4-0.8,0.5c-0.1,0.1-0.1,0.1-0.3,0.1l-1.6,1.6c-0.1,0.3-0.4,0.5-0.3,0.9c-0.3,0.1-0.1,0.4-0.3,0.5
						s-0.3,0.4-0.5,0.5c-0.4,0.1-0.7-0.3-1-0.3c-0.3-0.4-0.7-0.4-0.9-0.7c-0.4,0.1-0.8,0.4-1,0.7c-0.3,0.3-0.7,0.4-1,0.5
						c-0.3-0.1-0.4-0.3-0.5-0.4c-0.1-0.1-0.4-0.4-0.7-0.5c-0.1-0.1-0.3-0.4-0.4-0.5c-0.1-0.3-0.3-0.4-0.5-0.5s-0.1-0.4-0.3-0.7
						c-0.4-0.3-0.4-0.7-0.8-0.9c-0.3-0.3-0.5-0.5-0.9-0.8c-0.3,0.1-0.4-0.4-0.7-0.3c-0.1-0.3-0.5-0.3-0.8-0.5
						c-0.4,0.1-0.5-0.1-0.9-0.3c-0.3-0.1-0.5-0.3-0.8-0.4c-0.3-0.1-0.5,0.1-0.7-0.1c-0.1-0.1-0.4-0.3-0.5-0.3
						c-0.5-0.1-0.9-0.5-1.2-0.8c-0.3-0.3-0.7-0.4-0.9-0.7c-0.4,0-0.5-0.3-0.7-0.5c-0.1-0.3-0.4-0.5-0.7-0.8
						c-0.3-0.3-0.5-0.5-0.8-0.8v-0.1c-0.3-0.3-0.4-0.5-0.5-0.8c-0.1-0.3-0.4-0.5-0.5-0.8c-0.1-0.3-0.1-0.5-0.4-0.7s-0.1-0.5-0.4-0.7
						c0-0.3-0.3-0.5-0.4-0.7l-0.1-0.1c0.1-0.3-0.4-0.4-0.3-0.7c-0.1-0.1-0.4-0.3-0.5-0.5c0-0.4-0.4-0.4-0.5-0.7
						c-0.3-0.7-0.8-1.2-0.9-1.8c-0.1-0.3-0.5-0.5-0.5-0.9c-0.3-0.3-0.7-0.5-0.9-0.9c-0.1-0.3-0.4-0.7-0.8-0.9
						c-0.3-0.3-0.7-0.7-0.9-0.9c-0.3-0.1-0.5-0.4-0.8-0.7c-0.3-0.3-0.5-0.5-0.8-0.8c0,0-0.1,0-0.3,0l-1-1c-0.8-0.3-1-1-1.7-1.4h-0.5
						c-0.1-0.3-0.3-0.4-0.4-0.7s0.1-0.5-0.3-0.5v-1.7l-0.3-0.3c-0.1-0.3,0.1-0.4,0.3-0.5v-0.7c0.1-0.3,0.3-0.5,0.5-0.9v-3.1
						c-0.1-0.1-0.3-0.4-0.4-0.7c-0.1-0.3-0.5-0.1-0.7-0.5H263l-0.3-0.3h-2.4c-0.1-0.1-0.1-0.1-0.3-0.3h-2.4l-0.1-0.1l-0.1-0.1h-2.6
						l-0.1-0.1l-0.1-0.1c-0.4,0-0.8,0-1.2,0c-0.5-0.7-1.2-1-1.4-1.8v-0.1l-0.3-0.3v-0.5l-0.3-0.3v-0.4l-0.3-0.3c0-0.1,0-0.3,0-0.5
						c0-0.1,0-0.1,0-0.3c-0.4-0.1-0.1-0.5-0.3-0.8c-0.3-0.3-0.4-0.5-0.4-0.9c0-0.1-0.1-0.1-0.3-0.3h-0.7l-0.3,0.3h-0.5l-0.3,0.3
						h-0.4c-0.3,0.1-0.7,0.3-0.9,0.5c-0.3-0.1-0.5,0.1-0.8,0.3c-0.4,0-0.7,0.1-1,0c-0.3,0.1-0.4,0.4-0.8,0.3l-0.3-0.3h-0.9
						c-0.1-0.4-0.7-0.4-0.9-0.8c-0.3-0.3-0.7-0.5-0.8-0.9c-0.1-0.4-0.5-0.7-0.7-1v-1l-0.1-0.3V227l-0.7-0.7
						c-0.3,0.1-0.4-0.1-0.5-0.3h-0.7l-0.3-0.3h-0.7c-0.1,0-0.1-0.1-0.3-0.1c-0.3-0.4-0.8-0.4-1-0.8c-0.5,0-0.7-0.5-0.9-0.8
						c-0.3-0.3-0.8-0.5-0.8-0.9c0-0.1-0.1-0.1-0.1-0.1c-0.4-0.5-0.9-0.7-1-1.3l-1-1l-1.6-0.8h-1l-0.1,0.1c-0.5-0.4-0.9-0.8-1-1.3
						v-0.4l-0.3-0.3c0-0.3,0-0.4-0.1-0.5c-0.1-0.1-0.3-0.5-0.4-0.8c-0.1-0.1-0.3-0.4-0.4-0.4c-0.4,0-0.4-0.3-0.7-0.5h-0.5l-0.5,0.7
						v1.8c0.1,0.3,0.5,0.3,0.5,0.7c0.3,0.1,0.3,0.5,0.4,0.8c0.1,0.3,0.3,0.5,0.4,0.8c0.1,0.3,0,0.7,0.3,0.8v1l-0.5,0.4
						c0.1,0.3-0.1,0.4-0.4,0.5c-0.1,0.1-0.3,0.4-0.4,0.4l-1.6,0.9h-0.7c-0.1-0.1-0.3-0.3-0.5-0.3c-0.1-0.1-0.4-0.4-0.5-0.7v-0.4
						l-0.3-0.3v-0.5l-0.1-0.1c-0.1-0.3,0-0.5-0.1-0.8l-0.3-0.3v-0.8l-0.3-0.3v-0.1c0-0.3,0-0.5,0-0.8c-0.1-0.3-0.1-0.5-0.3-0.8
						c-0.1-0.3-0.1-0.5-0.3-0.8c0-0.1-0.3-0.1-0.3-0.4s-0.1-0.1-0.3-0.3c-0.3-0.3-0.5-0.5-0.8-0.7h-2.8l-0.3,0.3h-0.8
						c-0.3,0.4-0.9,0.5-1.2,0.9s-0.7,0.8-1,1l-0.9,0.9l-1,1l-1,1H211l-0.5,0.5h-0.8l-0.3,0.3H208l-0.3,0.3h-1.3
						c-0.3,0.1-0.4,0.5-0.8,0.5c-0.1,0.1-0.3,0.3-0.5,0.3c-0.1,0.1-0.3,0.3-0.4,0.4l-1.2,1.2h-1.2c-0.1-0.1-0.3-0.4-0.7-0.1
						c-0.3-0.1-0.4-0.4-0.7-0.5c-0.3,0-0.5-0.1-0.7-0.3c-0.3-0.3-0.5,0-0.7-0.1c-0.3-0.3-0.5-0.3-0.8-0.1c-0.1,0.1-0.1,0.4-0.3,0.5
						c-0.4,0.4-0.7,0.9-0.8,1.6c-0.1,0.3-0.4,0.5-0.3,0.9c-0.3,0.1-0.1,0.5-0.4,0.7c-0.3,0.3-0.4,0.5-0.7,0.7
						c-0.1-0.1-0.4,0-0.5,0.3h-1.8l-0.3,0.3h-0.9l-0.3-0.3h-2.4l-0.3-0.3l-0.3,0.3h-0.7c-0.3,0.4-0.7,0.7-0.9,0.9s-0.5,0.1-0.8,0.5
						c-0.1,0.3-0.4,0.5-0.7,0.7l-0.5,0.7c-0.7,0.3-1.2,0.5-1.7,0.9c-0.3,0.1-0.5,0.5-0.7,0.8c-0.1,0.4-0.5,0.7-0.4,1l-0.3,0.3v0.4
						c-0.4,0.5-0.5,1-0.9,1.4c-0.4,0.4-0.9,0.5-1.3,0.8h-1.4l-0.3-0.3c-0.4,0.1-0.7-0.3-0.9-0.3c-0.1-0.3-0.5-0.3-0.7-0.3l-0.4-0.4
						l0.9-2v-0.8l0.3-0.3v-1.6l0.3-0.3v-0.5l0.3-0.3c0-0.1,0-0.3,0-0.4c0.1-0.3,0.3-0.7,0.5-0.9c-0.1-0.4,0.3-0.5,0.3-0.9
						c0.4-0.1,0.1-0.7,0.3-0.8c0.3-0.3,0.1-0.5,0.4-0.7c-0.1-0.4,0.3-0.7,0.4-1c0-0.1,0.1-0.1,0.1-0.1c-0.1-0.4,0.3-0.5,0.3-0.9
						c0-0.1,0-0.1,0-0.3l0.3-0.3v-0.7l0.3-0.1v-0.9l0.3-0.3v-0.7c0.1-0.4,0.4-0.9,0.7-1.2c0.3-0.4,0.8-0.7,1-1
						c0.3-0.4,0.7-0.7,0.9-1c0.1-0.7,0.7-1,0.9-1.7v-5l0.3-0.3v-1.2l0.1-0.1c0-0.1,0-0.1,0.1-0.3c0-0.7,0-1.2,0-1.7
						c-0.3-0.1-0.1-0.5-0.3-0.7c-0.3-0.1-0.1-0.5-0.4-0.7v-0.7l-0.3-0.3v-1.4l0.3-0.3v-0.5l0.3-0.3c0-0.3-0.1-0.5,0.3-0.7v-2.9
						c0-0.1,0-0.1,0.1-0.1c0.3-0.1,0.1-0.4,0.3-0.7v-0.1c0.3-0.3,0.5-0.4,0.7-0.7c0.1-0.3,0.3-0.4,0.5-0.7c0.1-0.3,0.5-0.1,0.7-0.4
						c0.1-0.3,0.4-0.1,0.5-0.4l0.7-0.7c0.1-0.1,0.3-0.4,0.5-0.5c0.1-0.1,0.4-0.4,0.5-0.5v-0.4c0.1-0.1,0.1-0.1,0.1-0.1
						c0.1-0.3,0-0.7,0.3-0.8v-1l-0.3-0.3v-0.7l-0.3-0.3v-0.1c-0.4-0.1-0.4-0.7-0.7-0.9c-0.3-0.3-0.7-0.7-0.9-0.9
						c-0.3-0.3-0.4-0.7-0.9-0.7c-0.3-0.4-0.7-0.7-1-0.9c-0.4-0.3-0.7-0.8-1-0.9c-0.4-0.1-0.7-0.5-0.9-0.8h-0.3c-0.1,0-0.1,0-0.3,0
						c0,0-0.1,0-0.1-0.1c-0.3-0.3-0.8-0.3-1-0.7h-1.3l-0.3-0.3H181c-0.3,0.1-0.4,0.1-0.7,0.3c-0.3,0.1-0.5,0.1-0.7,0.4
						c-0.3-0.1-0.4,0.3-0.5,0.4c-0.1,0.1-0.4,0.3-0.5,0.5c0.1,0.3-0.3,0.4-0.3,0.7c0,0.3-0.1,0.4-0.3,0.5c-0.1,0.1-0.1,0.4-0.3,0.5
						c-0.3,0.1-0.1,0.4-0.1,0.7l-0.3,0.3v1.7l-0.3,0.3c-0.1,0.5,0,0.9,0,1.3c-0.3,0.5-0.5,0.9-0.7,1.3c-0.1,0.3-0.3,0.7-0.5,0.9
						c-0.1,0.1-0.1,0.4-0.1,0.4c-0.3,0.1-0.1,0.5-0.4,0.7c-0.4,0.3-0.5,0.8-0.9,1.2c-0.3,0.1-0.5,0.1-0.7,0.4h-1.4l-0.3-0.3h-0.7
						l-0.3-0.3h-0.9c0.1,0,0,0,0,0c-0.3,0.4-0.7,0.5-0.8,0.9c-0.1,0.3-0.4,0.5-0.4,0.8c0,0.3-0.1,0.5-0.3,0.9
						c-0.1,0.4-0.3,0.7-0.5,0.9c-0.4,0.1-0.8-0.1-1-0.3c-0.3-0.3-0.7-0.5-0.9-0.8c-0.1-0.3-0.3-0.4-0.4-0.7c-0.1-0.4-0.4-0.8-0.7-1
						c-0.1-0.1-0.1-0.4-0.3-0.5c0-0.3-0.3-0.4-0.4-0.5h-0.3c-0.7-0.7-1.3-1.4-2.1-2.1c-0.3-0.3-0.4-0.5-0.5-0.8
						c-0.3-0.3-0.4-0.5-0.7-0.7c-0.3-0.3-0.5-0.4-0.8-0.5c-0.1-0.1-0.4,0-0.5-0.1c-0.1-0.1-0.4,0-0.5-0.3c-0.1-0.3-0.4,0-0.5-0.1
						c-0.1-0.1-0.1-0.3-0.4-0.3c-0.1,0-0.3-0.1-0.4-0.3h-0.7l-0.3-0.3h-1.3l-0.3-0.3H155l-0.9-0.9v-0.1c-0.1-0.3-0.4-0.5-0.7-0.7
						c-0.4,0.1-0.5,0.5-0.9,0.7h-0.7c-0.3-0.4-0.7-0.7-1-0.7c-0.3,0.1-0.4,0.5-0.5,0.7c-0.1,0.3-0.3,0.5-0.4,0.7h-0.4l-0.3-0.4
						c0-0.1,0-0.4-0.1-0.7s0.1-0.5-0.3-0.7c0-0.3,0-0.5-0.1-0.8l-0.3-0.3v-1.6l-0.3-0.3v-1c-0.5-0.4-0.5-1-1.2-1.3h-0.1
						c-0.1-0.1-0.1-0.3-0.1-0.3c-0.1-0.1-0.3-0.4-0.5-0.5v-0.5l-0.1-0.1c-0.1-0.3,0-0.5,0-0.7l-0.3-0.3v-0.9l0.3-0.3v-1.7l0.3-0.3
						v-3.8l-0.3-0.3v-2.2c-0.4-0.3-0.5-0.8-0.8-1l-1.3,0.7h-0.9c-0.1,0-0.1-0.3-0.4-0.3l-1-1l-0.4-0.1c0-0.3-0.3-0.5-0.4-0.7
						c-0.1-0.1-0.1-0.4-0.3-0.5c-0.1-0.1,0-0.5-0.3-0.7c0-0.5,0-1.2,0-1.7h-0.5c-0.7,0.3-0.7,0.9-1,1.3c0,0.1,0.1,0.4,0,0.5
						c-0.1,0.1-0.3,0.4-0.3,0.7c-0.1,0.1-0.1,0.3-0.3,0.3s-0.3,0-0.3-0.1c-0.3-0.3-0.5-0.5-0.8-0.8c0.1-0.4-0.3-0.7-0.3-0.9l0.3-0.3
						v-0.7c0.3-0.5,0.4-0.9,0.7-1.3v-0.5c0.1-0.3,0.4-0.3,0.3-0.5l-0.1-0.3v-1.2l-0.3-0.3v-0.7l-0.1-0.1c-0.1-0.3,0-0.5-0.1-0.8
						l-0.3-0.3v-0.9l-0.3-0.3v-1.4l-0.3-0.3v-0.9l0.3-0.3v-1.4c0.3-0.3,0.4-0.7,0.7-1h0.9l0.3,0.3h0.5l0.4-0.4v-0.5l-0.9-0.9V150
						l0.8-0.5c0.1,0,0.3,0.4,0.5,0.3c0.3,0,0.5,0.1,0.7,0.3c0.3,0.1,0.5,0.1,0.7,0.4h1.4l0.1-0.1c0.3-0.1,0.5,0,0.9-0.1
						c0.3-0.3,0.9-0.1,1.3-0.5h0.9l0.3-0.3h1.4c0.1,0.3,0.5,0.3,0.8,0.5c0.4,0,0.4,0.4,0.7,0.4c0.4,0.1,0.5,0.4,0.8,0.5
						c0.3,0.1,0.4,0.3,0.7,0.5h0.7l0.4,0.3h1.2c0.3-0.3,0-0.4,0.1-0.7l0.1-0.1c0.1-0.4-0.5-0.5-0.3-0.9c-0.1-0.1-0.1-0.1-0.3-0.3
						c-0.1-0.3-0.4-0.1-0.5-0.3s-0.3-0.3-0.4-0.4v-1.4l0.3-0.3v-0.4c0.1-0.3,0.4-0.5,0.7-0.7h1c0.7,0.4,1.2,0.7,1.8,0.9
						c0.1,0.1,0.3,0.3,0.4,0.3c0.1,0,0.3,0.1,0.3-0.1c-0.1-0.3-0.5-0.4-0.4-0.8c-0.3-0.3-0.4-0.5-0.7-0.7c-0.3-0.3-0.7-0.3-0.8-0.7
						c-0.1-0.3-0.5-0.3-0.7-0.5h-2.6l-1,1v0.1c-0.3,0.3-0.4,0.1-0.7,0.1l-0.1-0.3l-0.8-0.8h-1.3L147,145c-0.3,0-0.5,0-0.8,0.1
						s-0.5,0.1-0.7,0.1c-0.3,0.1-0.5,0.3-0.8,0.3l-0.3-0.3h-3.9c-0.3,0.3-0.7,0.3-0.9,0.5c-0.1,0.3-0.5,0.3-0.8,0.5
						c-0.3,0.3-0.3,0.7-0.5,0.8h-0.7l-0.3-0.3h-0.7l-0.3-0.3c-0.1,0-0.4,0-0.5,0.1s-0.3,0.3-0.5,0.1c-0.3,0-0.3,0.3-0.5,0.3
						c-0.4-0.1-0.5,0.3-0.9,0.3c-0.1,0.3-0.4,0.1-0.5,0.4s-0.5,0-0.7,0.1c-0.1,0-0.1,0.1-0.3,0.1c-0.1-0.1-0.1-0.3-0.1-0.5
						c0.1-0.4,0.4-0.7,0.5-0.9c0.3-0.3,0.4-0.7,0.5-0.9c0.1-0.1,0.3-0.4,0.3-0.7c0.1-0.4,0.4-0.8,0.7-1c0.3-0.3,0.7-0.4,0.9-0.7h0.9
						c0.3-0.3,0.7-0.3,0.9-0.7v-0.5c-0.1-0.1-0.4-0.4-0.5-0.5c-0.3-0.1-0.1-0.5-0.4-0.7c-0.3-0.1-0.5-0.3-0.5-0.7
						c0-0.4-0.5-0.4-0.5-0.8l-0.5-0.7c-0.1-0.1-0.1-0.5-0.4-0.7c-0.3-0.1-0.1-0.5-0.4-0.7v-0.7l-0.1-0.1c-0.1-0.3,0-0.5-0.1-0.8
						c-0.3-0.3-0.4-0.5-0.5-0.7c-0.1-0.3-0.4-0.5-0.5-0.8c-0.3-0.3-0.4-0.7-0.5-0.9v-2.2c0.5-0.3,0.5-0.9,1-1.2h3.4
						c0.3-0.1,0.4-0.4,0.5-0.7c0.1-0.3,0.5-0.5,0.8-0.8c0.3,0.1,0.3,0.3,0.5,0.4c0.3,0.1,0.4,0.1,0.5,0.3h0.9c0,0,0-0.1,0.1-0.1
						c0.4-0.3,0.8-0.3,1-0.7s0.7-0.7,0.9-0.9l0.5-0.5v-0.5l0.1-0.1c0-0.1,0-0.1,0.1-0.3c0-0.4,0-0.7,0-1l-0.3-0.3v-1.3l-0.3-0.3
						c0.1-0.7-0.3-1-0.5-1.7c-0.1-0.3-0.3-0.5-0.5-0.8c-0.4-0.3-0.7-0.7-0.9-0.9c-0.3,0-0.3,0-0.4,0.1c0,0.1,0,0.3,0.1,0.3
						c0.3,0.3,0.7,0.7,0.9,0.9c0.5,0.4,0.7,1,1,1.6c0.1,0.1,0,0.3,0,0.5l-0.4,0.4c-0.4-0.1-0.7,0.4-1.2,0.3
						c-0.3,0.1-0.4,0.4-0.5,0.5c-0.1,0.3-0.1,0.4-0.4,0.5c-0.3,0.1-0.1,0.5-0.4,0.7v1.4l-0.4,0.4h-0.5c-0.7-0.3-0.7-1-1.3-1.4h-0.5
						l-0.3-0.3h-0.7l-0.3-0.3h-0.5l-0.3-0.3H134c-0.3-0.3-0.4-0.5-0.7-0.7c-0.3-0.1-0.5-0.3-0.7-0.5l-0.5-0.8
						c-0.1-0.3-0.4-0.5-0.5-0.8c-0.1-0.3-0.5-0.4-0.3-0.8c0.4-0.1,0.9,0,1.3-0.1c0.1-0.1-0.1-0.1-0.1-0.4v-0.8l-0.3-0.3v-0.1
						l0.3-0.3c0-0.7,0.1-0.8,1.2-1.8v-0.1v-0.1c0.5-0.7,1.2-1.2,1.7-1.7h0.5l0.9,0.9c0.1-0.1,0.1-0.1,0.1-0.1c0-1.6,0-3.1,0-4.7
						l-0.3-0.3c0-0.3,0-0.5-0.1-0.7c-0.1-0.1,0.1-0.5-0.1-0.7s0-0.5-0.3-0.8c-0.1-0.1-0.1-0.5-0.4-0.5c0.1-0.4-0.4-0.7-0.3-1
						c0-0.3-0.3-0.3-0.3-0.5c0.1-0.3-0.3-0.5-0.3-0.8c0-0.3,0-0.5,0-0.8l-0.3-0.3v-0.9l-0.3-0.3v-0.9l-0.3-0.3
						c0.3-0.1,0.4-0.5,0.7-0.5s0.4-0.5,0.8-0.5s0.4-0.5,0.8-0.5c0.3,0,0.5-0.3,0.8-0.5h0.7l0.3,0.3h0.5l0.1,0.1c0.1,0,0.1,0,0.3,0.1
						c0.3,0,0.5,0,0.8,0c0.1-0.3,0.7-0.4,0.7-0.9c0.1-0.1,0.3-0.3,0.5-0.4c0.4-0.1,0.8-0.4,1-0.7c0.5-0.5,0.9-0.9,1.4-1.4h0.9
						c0.1,0,0.1,0.1,0.1,0.1c0.3,0.3,0.5,0.5,0.9,0.9c0.3,0.4,0.7,0.4,0.9,0.8c0.3,0.3,0.5,0.5,0.9,0.9c0.1,0.1,0.4,0,0.5,0.3
						c0.4-0.3,0.7-0.7,0.9-1v-0.9l-0.5-1l-0.3-0.1c-0.1-0.3,0-0.5-0.1-0.7c0.5-0.9,0.5-1,1.4-1.6h5.4l0.3,0.3h0.7l0.3,0.3h2.4
						l0.3-0.3h0.5l0.3-0.3c0.1,0,0.4,0,0.5-0.1c0.1-0.1,0.3-0.3,0.5-0.3s0.3-0.1,0.4-0.1c0.1,0,0.4-0.1,0.5-0.3h1.2l0.3-0.3h1.7
						c0.1,0.3,0.5,0.4,0.7,0.7c0.1,0.4,0.4,0.5,0.7,0.8c0.3,0.3,0.4,0.4,0.7,0.7c0-0.4,0.4-0.5,0.4-0.9c0.3-0.1,0.3-0.5,0.4-0.7
						c0.1-0.1,0-0.5,0.3-0.8l-0.3-0.3v-0.7l-0.3-0.3c0.1-0.4-0.1-0.7-0.4-1c-0.1-0.3-0.5-0.4-0.7-0.8c0-0.3-0.5-0.4-0.5-0.8
						l-0.5-0.5c-0.1-0.1-0.1-0.5-0.4-0.7c-0.3-0.1-0.4-0.4-0.5-0.7c0-0.1-0.3-0.3-0.4-0.5c-0.1-0.3-0.3-0.5-0.3-0.7
						c0-0.1-0.1-0.1-0.1-0.1v-0.9c0.1-0.3,0.3-0.7,0.5-0.9c0.1-0.3,0.3-0.7,0.5-0.9c0.3-0.3,0.7-0.3,0.9-0.5
						c0.3,0.1,0.3-0.1,0.4-0.1c0.4-0.1,0.5,0.1,0.7,0.1c0.4,0.1,0.8,0.3,1,0.5c0.3,0.3,0.7,0.3,0.9,0.5c0.3,0.3,0.4,0.5,0.7,0.7
						c0.4,0.3,0.7,0.7,0.9,0.9v0.5L171,89c0.1,0,0.3,0,0.3,0.1c0.1,0.3,0.5,0.1,0.7,0.4h0.9c0.1-0.1,0.3-0.3,0.5-0.3l0.4-0.4v-0.3
						l-0.3-0.3v-0.7c-0.3-0.3-0.3-0.7-0.5-0.8c-0.3-0.1-0.3-0.7-0.5-0.8c-0.3-0.3-0.5-0.5-0.7-0.7l-0.8-0.8
						c-0.1-0.3,0.1-0.5,0.3-0.5l0,0c0.3-0.1,0.5-0.3,0.8-0.5h2.9l0.1-0.1c0.1,0,0.1-0.1,0.1-0.1h1.6c0.3-0.3,0.8-0.4,1.2-0.5
						c0.3-0.3,0.7-0.4,0.7-0.9c0.4-0.1,0-0.7,0.4-0.9v-1.2l0.3-0.3v-0.9l0.3-0.3v-0.7c0.1-0.4,0.7-0.3,0.8-0.7h0.7l0.3-0.3h0.8
						l0.1-0.3h0.7l0.4-0.3c0.1,0,0.3,0.1,0.4,0.3h0.7c0.1,0.1,0.3,0.4,0.5,0.3c0.3,0.3,0.7,0.7,0.9,0.9c0.3,0.3,0.7,0.7,0.9,0.9
						c0.3,0.4,0.7,0.7,0.8,0.9c0.1,0,0.1,0,0.3,0c0.1,0.1,0.1,0.1,0.3,0.3h0.7l0.3-0.3h0.3l1.4-1.4c0.3,0.1,0.3-0.1,0.5-0.3
						c0.1,0.1,0.1,0.1,0.3,0.3c0.4,0.1,0.9,0.3,1.2,0.5c0.3,0.1,0.5,0.1,0.7,0.4c0.1,0.3,0.4,0.4,0.7,0.5c0.3,0.1,0.4,0.4,0.7,0.5
						c0.3,0.1,0.5,0,0.5,0.3h1.2l0.4-0.4c0.1-0.3-0.4-0.4-0.3-0.7c-0.3-0.3-0.5-0.4-0.5-0.8c-0.1-0.1-0.4-0.1-0.5-0.3
						c-0.3,0-0.4-0.3-0.5-0.4v-0.7c0.1,0,0.1-0.1,0.1-0.1c0.5,0,1,0,1.6,0c0.1-0.3,0-0.5,0.1-0.9c0-0.1,0.1-0.1,0.3-0.3V75l0.5-0.7
						c0.4-0.1,0.7,0.1,0.9,0.3c0.3,0.1,0.5,0.4,0.7,0.7c0,0.4,0.4,0.4,0.5,0.8c0,0.3,0.1,0.5,0.3,0.7c0.3,0.3,0.1,0.4,0.1,0.7
						l0.3,0.3v0.5c0.5,0.4,0.5,1,1,1.3c0.1,0,0.3-0.1,0.4-0.3h0.7c0.4-0.4,0.7-0.8,1-1.2c0.1-0.5,0.4-0.9,0.7-1.3
						c-0.1-0.7,0.5-0.9,0.5-1.6l-0.3-0.3v-0.7c-0.1,0-0.1-0.1-0.1-0.1c-0.1-0.3-0.3-0.5-0.4-0.9l-0.9-0.9v-0.5l-0.3-0.3v-2.4
						l-0.3-0.3v-1c0.1-0.1,0.4-0.3,0.5-0.4c0.1,0,0.4-0.4,0.5-0.4c0.3,0,0.4-0.4,0.7-0.3c0.1,0.1,0.3,0.3,0.5,0.4
						c0.3,0.3,0.5,0.7,0.9,0.8c0.3,0.4,0.7,0.5,0.8,0.9c0,0.1,0.1,0.1,0.1,0.1c0.3,0.4,0.8,0.5,0.9,1l0.9,0.9v0.3l0.9,0.9
						c0,0.1,0,0.1,0,0.3s0.1,0.1,0.1,0.1c0.3-0.1,0.4,0.4,0.8,0.3c0.1-0.1,0.3,0.1,0.4,0.1c0.1,0.1,0.4,0.1,0.4,0
						c0.3-0.3,0.5-0.1,0.9-0.3c0.1,0,0.1-0.1,0.1-0.1h0.7l0.3-0.3h0.7l0.3-0.3h0.8l0.1-0.1c0.1-0.1,0.1,0.1,0.3,0.1
						c0.5,0,1,0.3,1.6,0.7c0.1,0.1,0.4,0.1,0.7,0.3c0.1,0.1,0.3,0.3,0.5,0.3C216.8,73.8,217.1,74.1,217.2,74.2z"/>
				</g>
			</g>
		</g>
	</g>
	<g>
		<g>
			<g>
				<g>
					<path id="SVGID_9_" class="st6" d="M67.1,213.1l0.3-0.3v-0.8c0.3-0.1,0.3-0.4,0.3-0.7c0.1-0.1,0.4-0.4,0.5-0.7
						c0.1-0.4,0.5-0.4,0.5-0.8c0-0.4,0.4-0.4,0.5-0.7c0-0.4,0.3-0.4,0.5-0.7v-0.3l-1-1c-0.3,0.1-0.3-0.3-0.5-0.3
						c-0.3,0-0.4-0.3-0.7-0.3c-0.3,0.1-0.3-0.3-0.5-0.3c-0.1,0-0.5,0.1-0.7-0.3h-1.2l-0.3-0.3H64l-0.3-0.3h-0.5l-1.2-1.3
						c0-0.3-0.1-0.5-0.3-0.9c-0.1-0.3-0.4-0.5-0.3-0.9c-0.3-0.1-0.3-0.5-0.4-0.7c-0.1-0.1,0-0.7-0.3-0.8c0-0.3-0.5-0.5-0.3-0.8
						l-1.4-1.4h-1.4l-0.3-0.3h-2.1l-0.1-0.1l-0.1-0.1c-0.1,0-0.3,0-0.4,0c-0.3,0-0.3-0.3-0.7-0.3l-1.4-1.4c0.1-0.3-0.3-0.4-0.3-0.7
						c-0.3-0.7-0.7-1-0.8-1.8c0-0.1-0.1-0.1-0.1-0.1v-0.9c0.1-0.1,0.4-0.4,0.7-0.5h0.7l0.3,0.3h0.5l0.3,0.3h0.5
						c0.1,0.1,0.3,0.3,0.5,0.3c0.1,0,0.1-0.1,0-0.1c-0.3-0.1-0.1-0.5-0.4-0.7c-0.1-0.1,0-0.3,0-0.5c-0.4-0.1-0.5-0.7-0.7-0.9
						c-0.3-0.4-0.4-0.8-0.5-1v-0.8c0.3-0.3,0.8-0.3,1-0.7c0.3,0.1,0.3,0.4,0.7,0.5c0.4,0.1,0.5,0.4,0.7,0.7c0.3,0.5,0.5,0.9,1,1.3
						h0.5l0.5-0.5c0-0.1,0-0.4-0.3-0.5v-0.7l-0.3-0.4c0-0.4,0.5-0.5,0.5-0.9s0.5-0.3,0.8-0.5h1l0.3,0.3c0-0.1,0.1-0.1,0.1-0.3
						c-0.1-0.3-0.3-0.7-0.5-0.9v-0.7c-0.1-0.1-0.3-0.3-0.3-0.3c0.1-0.4-0.3-0.7-0.3-0.9c-0.1-0.3-0.1-0.5-0.4-0.8
						c-0.1-0.3-0.3-0.7-0.4-0.9c-0.3-0.5-0.5-1-0.9-1.4c0.1-0.3-0.3-0.4-0.3-0.7c0-0.1-0.4-0.3-0.4-0.5c-0.1-0.3-0.3-0.5-0.5-0.7
						c-0.3-0.1-0.1-0.5-0.4-0.7c-0.3-0.1-0.3-0.4-0.4-0.7s-0.3-0.5-0.5-0.8c-0.1-0.3-0.3-0.5-0.4-0.8c-0.1-0.3-0.5-0.4-0.7-0.7
						c-0.1-0.5-0.5-0.7-0.9-1c-0.3-0.3-0.5-0.5-0.8-0.8c-0.3-0.3-0.5-0.4-0.7-0.8c-0.1-0.3-0.5-0.5-0.7-0.8v-0.3
						c0.1,0,0.1-0.1,0.1-0.1c0.8,0.4,1.4,0.8,2.4,1.2h1.3l0.3-0.3c0-0.7,0.4-0.9,0.7-1.6h2.4c0.1,0.1,0.3,0.1,0.4,0.3
						c0.1,0,0.3,0,0.4,0.1c0.1,0.1,0.3,0.3,0.5,0.1c0.3,0.3,0.5,0.5,0.7,0.8c0.3,0.3,0.5,0.5,0.8,0.8c0,0,0,0.1,0.1,0.3
						c0.4,0.5,0.7,1,0.9,1.6c0.4,0.9,0.9,1.7,1.3,2.5c0,0.1,0.1,0.1,0.1,0.1v0.9l0.3,0.3c0.1,0.5,0,0.9,0,1.4
						c0.1,0.1,0.5,0.1,0.5,0.4l0.7-0.7v-0.7l-0.3-0.3v-3.3l0.3-0.3v-0.9c0.3-0.1,0.3-0.4,0.3-0.7c0.1-0.3,0.3-0.4,0.3-0.7l0.9-1
						c0.1,0,0.3,0,0.4-0.1c0.1-0.1,0.3-0.1,0.4-0.1c0.1-0.1,0.3-0.1,0.4-0.1l0.9-1c0-0.4,0.4-0.5,0.3-0.9c0.3-0.3,0.1-0.5,0.5-0.8
						v-0.5l0.4-0.4h1.2c0.3,0.1-0.1,0.5,0.4,0.5v0.8l0.3,0.3v1.6l0.9,0.9c0.1,0,0.3,0.1,0.4,0.3h0.9c0.3-0.1,0-0.5,0.4-0.5v-0.8
						l0.1-0.4v-3.5l0.3-0.3v-1.2l0.7-0.7h0.3l0.9-0.9c0.3-0.1,0.5,0,0.8-0.3h2.1l0.3-0.3h1.8l0.1-0.1c0.1-0.1,0.1-0.1,0.1-0.1h1.8
						c0.1-0.1,0.3-0.3,0.5-0.3l0.9-0.9h0.3c0.3-0.4,0.7-0.7,1-0.9c0.4-0.3,0.7-0.8,1-0.9c0.4-0.1,0.7-0.5,0.9-0.8h0.5l0.3-0.3h0.5
						l0.3-0.3h0.4c0.3,0.1,0.4,0.4,0.7,0.5c0.1,0.1,0,0.4,0.3,0.5c0.1,0.1,0,0.4,0.1,0.7c0.1,0.1,0.1,0.4,0.3,0.5
						c0.1,0.1,0.1,0.4,0.1,0.5l0.9,0.9H92c0.3,0.4,0.3,0.9,0.8,1.2c0.3,0.1,0.4-0.4,0.8-0.3c0.4-0.4,0.8-0.8,1-1l0.1,0.1h0.7
						c0.1,0,0.1,0,0.1,0.1c0.4,0.5,0.9,0.5,1.4,0.9h0.7c0.1-0.3,0.5-0.3,0.7-0.3c0.4-0.3,0.4-0.8,0.8-0.9c0.4-0.3,0.3-0.7,0.7-0.9
						c0.3-0.3,0.7-0.7,0.9-0.9h0.3l0.3-0.3c0.1,0,0.1,0,0.3,0c0.7,0.4,1.2,0.7,1.8,0.9l0.3-0.3h0.7l0.3-0.3h0.7l0.3-0.3h0.7l0.3,0.3
						h0.7l0.3,0.3c0.5,0.3,0.9,0.5,1.4,0.8c0.1,0,0.3,0.1,0.3,0.1c0.4,0.1,0.7,0.5,1,0.4c0.1,0.1,0.4,0.1,0.5,0.3
						c0.3,0.1,0.5,0.4,0.8,0.5c0.3,0.1,0.4,0.4,0.7,0.4c0.5,0.8,1.3,0.9,2.1,1.3c0.4,0.3,0.9,0.3,1.3,0.5c0.1,0.1,0.4,0.3,0.4,0.4
						c0.1,0.4,0.4,0.5,0.5,0.8c0.1,0.3,0.3,0.4,0.4,0.7c0.1,0.3,0.1,0.4,0.3,0.5c-0.1,0.4,0.3,0.5,0.3,0.9c-0.1,0.3,0.3,0.4,0.3,0.7
						l1.3,1.3c0.5,0.3,1,0.4,1.6,0.9h0.5l0.3,0.3h0.7l0.3,0.3h0.8c0.1,0.4,0.5,0.1,0.8,0.3c0.3,0.1,0.5,0.3,0.8,0.4
						c0.3,0.1,0.4,0.4,0.8,0.5h0.1l1.8,1.8c0.3,0.3,0.5,0.4,0.7,0.7c0.1,0.3,0.4,0.4,0.3,0.7l0.1,0.1v0.7l-0.3,0.3v0.8
						c-0.3-0.1-0.7-0.1-0.9-0.3c-0.3-0.4-0.9-0.4-1-0.9c-0.1-0.1-0.3-0.1-0.5-0.3c-0.1-0.1-0.3-0.4-0.5-0.4c-0.3,0-0.3-0.3-0.5-0.3
						s-0.3,0.3-0.5,0.3c-0.3,0-0.3,0.1-0.5,0.3c0.3,0.1,0.7,0.3,0.9,0.4c0.3,0.3,0.5,0.5,0.8,0.8c0,0.3,0.1,0.4,0.3,0.5v0.5
						c-0.1,0.1-0.3,0.1-0.5-0.1h-1.3c-0.3-0.3-0.7-0.4-1-0.5l-1.4-1.4c0.1-0.3-0.3-0.4-0.3-0.7c0-0.3,0-0.5-0.3-0.7
						c0-0.3-0.1-0.4-0.4-0.5h-0.9l-0.3,0.3c0,0.1,0,0.4-0.1,0.5l-0.3,0.3c0,0.3,0,0.4,0,0.7c0.1,0.3-0.4,0.4-0.3,0.8
						c0.1,0.3-0.3,0.4-0.3,0.7c0,0.3-0.4,0.3-0.3,0.7l-0.9,0.8c-0.3-0.1-0.4,0.3-0.7,0.3c-0.3-0.1-0.5-0.3-0.8-0.3
						c-0.1,0.1,0-0.1-0.1,0c-0.1,0.1-0.1,0.3-0.1,0.4l-0.1,0.1v1.7l0.1,0.1v1.3l-0.4,0.1c-0.3,0.3-0.5,0.5-0.8,0.8
						c-0.3,0.3-0.7,0.5-0.8,0.9c-0.1,0.3-0.3,0.4-0.7,0.5c-0.3,0.1-0.4,0.4-0.7,0.5c-0.3,0.1-0.4-0.4-0.7-0.3
						c-0.3-0.3-0.5-0.5-0.9-0.8c-0.3-0.1-0.5-0.4-0.8-0.7h-1.2c-0.3,0.1,0,0.5-0.4,0.5c0.5,0.5,0.9,0.9,1.2,1.4l-0.7,0.7
						c0.1,0.4-0.5,0.5-0.5,0.9c0,0.1-0.1,0.1-0.1,0.1c-0.1,0.3-0.7,0.4-0.5,0.8l-0.7,0.8c0,0.4-0.5,0.4-0.5,0.9
						c-0.3,0.4-0.8,0.7-1.2,0.9c-0.3,0.1-0.5,0.3-0.9,0.3c-0.1,0.1-0.3,0.4-0.4,0.4c-0.4,0.1-0.7,0.5-0.9,0.7
						c-0.3,0.1-0.1,0.5-0.4,0.7c-0.3,0.1-0.4,0.3-0.5,0.5c0,0.3-0.3,0.4-0.4,0.5c-0.4,0-0.5,0.3-0.7,0.5h-4.2
						c-0.1,0.3-0.3,0.3-0.5,0.3c-0.1,0.4-0.4,0.8-0.5,1c0.1,0.1,0.4,0,0.5,0.3c0.1,0.3,0.3,0.4,0.5,0.4c0.1,0.3,0.5,0.1,0.7,0.4
						c0.1,0.3,0.4,0.3,0.5,0.4v0.1l-1.7,1.7h-0.1l-0.3,0.3h-1.2l-0.3,0.3H93c-0.1-0.1,0-0.4-0.1-0.5l-0.3-0.3V200l-0.3-0.3v-0.4
						v-0.1c0,0,0-0.1-0.1-0.1l-0.5-0.5c-0.3,0.1-0.4-0.3-0.7-0.3c-0.5,0-0.9-0.4-1.4-0.3c-0.1,0-0.3,0.3-0.5,0.3l-1.4,1.4
						c-0.4,0-0.5-0.3-0.7-0.5c-0.3-0.1-0.1-0.4-0.3-0.5c-0.3-0.1-0.4-0.4-0.7-0.7l-0.3,0.3c-0.1,0.3,0.1,0.5-0.3,0.8v0.7
						c-0.1,0.3-0.4,0.3-0.3,0.5l-0.7,0.5h-0.4c-0.3-0.1,0-0.5-0.4-0.5v-0.9l-0.7-0.5L83,199h-0.5l-0.4,0.5h-0.3l-0.9,0.9
						c0.1,0.5-0.5,0.5-0.5,0.8h-0.5c-0.1-0.3-0.7-0.1-0.7-0.5h-0.7c-0.1,0-0.1,0.1-0.1,0.1c-0.1,0.1-0.3,0.3-0.5,0.4
						c-0.3,0.1-0.7,0.3-0.9,0.5c-0.1,0-0.3,0-0.4,0c-0.1,0.4-0.7,0.4-0.9,0.7c-0.3,0.3-0.8,0.4-0.9,0.8c-0.3,0.3-0.5,0.7-0.8,0.9
						c-0.4,0.3-0.4,0.8-0.8,0.9c-0.3,0.3-0.4,0.7-0.7,0.9v4.6l-0.3,0.3v1.2l-0.3,0.3v0.9l-0.3,0.3v0.7l-0.3,0.3c0,0.3,0,0.5-0.3,0.7
						c0.1,0.3-0.4,0.4-0.3,0.8c0.1,0.3-0.4,0.4-0.3,0.8c-0.1,0.5-0.3,0.9-0.5,1.4c-0.3,0.4-0.4,0.9-0.7,1.2
						c-0.1,0.3-0.4,0.5-0.7,0.9v0.9l-0.3,0.3l0.3,0.3v2.1c-0.1,0.1-0.3,0.3-0.3,0.5c-0.5,0.5-0.9,0.9-1.4,1.4
						c-0.3,0.3-0.4,0.5-0.7,0.7c-0.4,0.1-0.5,0.4-0.7,0.7c-0.1,0.3-0.5,0.5-0.8,0.8l-0.7,0.7c-0.3,0.3-0.5,0.4-0.7,0.7
						c-0.3,0.3-0.5,0.1-0.7,0.4c-0.3,0.3-0.4,0.5-0.7,0.7l-0.7,0.7l-0.7,0.7c-0.1,0-0.1,0-0.3,0c-0.1,0.1-0.1,0.1-0.3,0.3h-1.4
						l-0.5-0.5c0-0.4-0.4-0.5-0.5-0.8c0-0.4-0.4-0.4-0.5-0.7s-0.1-0.5,0-0.8l0.1-0.1v-0.7l-0.3-0.3c0-0.3-0.1-0.7-0.3-0.9
						c-0.1-0.3-0.3-0.5-0.5-0.5c-0.1,0-0.1-0.1-0.1-0.1l-0.4-0.4v-1l0.3-0.4l0.3,0.3h0.9l0.5-0.7c0-0.1,0.1-0.3,0.3-0.4v-0.8
						l0.3-0.3v-0.7c0.1-0.1,0.1-0.1,0.3-0.3v-0.4c0.1-0.4,0.4-0.8,0.7-1c0-0.4,0.5-0.4,0.5-0.9c0.3-0.3,0.3-0.7,0.5-0.8
						c0.3-0.5,0.5-1,0.9-1.7c0.1-0.3,0.3-0.5,0.3-0.9c0.4-0.3,0.7-0.8,0.8-1.2c0.1-0.1,0.5,0,0.5-0.3c0.4,0,0.5,0.4,0.9,0.3l0.4,0.5
						h0.3l0.3,0.3h0.8c0.4-0.1,0.3-0.7,0.7-0.8L67.1,213.1z"/>
				</g>
			</g>
		</g>
	</g>
	<g>
		<g>
			<g>
				<g>
					<path id="SVGID_11_" class="st6" d="M92.8,115.9l0.3,0.3h0.7c0.4,0.4,0.9,0.3,1.2,0.5l0.9,0.9c0.1,0.3-0.1,0.4-0.3,0.5
						c0,0.3,0,0.4-0.1,0.7c-0.1,0.1-0.3,0.4-0.3,0.7c0,0.3-0.3,0.4-0.3,0.7c0,0.3-0.3,0.3-0.3,0.3c-0.1,0.3,0,0.5,0.1,0.7v0.5
						l0.3,0.3v0.5c0.1,0.1,0.3,0.3,0.5,0.5v0.1l1.3,1.3h0.5l0.3-0.3h3l0.1-0.1c0.1,0,0.1-0.1,0.3-0.1c0.4,0,0.7,0,0.9,0
						c1.4,0.8,2.9,1.4,4.2,2.1c0.1,0,0.3,0,0.4,0c0.4,0.3,0.7,0.7,0.9,0.9c0.3,0.4,0.4,0.8,0.5,1v1.6l-0.3,0.3v1.2l0.5,0.9l-0.1,0.1
						c0.3,0.3,0.7,0.5,0.9,0.9c0.3,0.3,0.8,0.5,0.8,0.9c0.3,0.3,0.4,0.7,0.7,0.9c0.3,0.3,0.5,0.7,0.8,1v0.4l0.3,0.3v1.8
						c0.1,0.3,0.4,0.1,0.5,0.1l0.4,0.3v2.4c-0.3,0.3-0.3,0.7-0.5,0.9h-0.8c-0.3,0-0.3-0.5-0.7-0.5c-0.3-0.3-0.4-0.5-0.7-0.7
						s-0.5-0.3-0.8-0.5h-0.9l-0.3,0.3l-0.1,0.5l-0.3,0.4l-0.4-0.4c-0.3-0.1-0.5-0.1-0.8,0.1h-1.2l-0.3,0.3h-0.4l-0.1,0.1
						c0,0.4-0.5,0.5-0.5,0.9c0.1,0.3,0.5,0.1,0.7,0.5c0,0.3,0.1,0.4,0.3,0.5v2.1c-0.3,0.4-0.8,0.4-0.9,0.8c-0.3,0.4-0.8,0.4-0.9,0.8
						h-2.4l-0.3-0.3h-0.4c-0.4-0.4-0.5-0.9-0.9-1.3c0.1-0.4,0.4-0.8,0.7-1c0.5-0.7,1.3-0.9,1.7-1.6v-0.7l-0.3-0.3h-0.9
						c-0.4,0.1-0.8,0.4-1,0.7c-0.4,0.3-0.8,0.4-1,0.8c-0.3,0.4-0.7,0.7-0.9,1c0.1,0.3-0.3,0.4-0.3,0.7s0,0.5-0.3,0.7
						c0.1,0.3-0.3,0.4-0.3,0.7s-0.3,0.3-0.3,0.5s-0.1,0.4-0.3,0.7s0,0.5-0.3,0.7v0.7l-0.3,0.3v0.5l-0.3,0.3v0.5l-0.3,0.3v0.5
						l-0.3,0.3v0.7c-0.4,0.7-0.7,1.4-1.2,2c0,0.1,0,0.1,0,0.3c-0.1,0.1-0.4,0.3-0.5,0.5c-0.1,0.3-0.5,0.3-0.7,0.4
						c-0.3,0.1-0.3,0.4-0.5,0.4c-0.1,0.3-0.5,0.3-0.7,0.4c-0.3,0.1-0.4,0.1-0.5,0.4h-1.8l-0.3,0.3h-0.9l-0.3-0.3
						c-0.1-0.1-0.5,0.1-0.7-0.3h-0.8l-0.3-0.3H85c-0.7-0.7-1.3-1.3-2-2.1v-0.5l0.9-0.9c0-0.4,0.3-0.5,0.5-0.8c0-0.1,0-0.3,0-0.4
						c-0.3-0.7-0.7-1.3-0.9-2c-0.1-0.3-0.3-0.4-0.5-0.5c0.1-0.4-0.3-0.7-0.4-1c-0.1-0.3-0.4-0.4-0.4-0.7s-0.1-0.5-0.3-0.8
						c0-0.3,0-0.4,0-0.7l-0.3-0.3v-3.5l-0.3-0.3v-0.9c-0.1,0-0.1-0.1-0.1-0.1c-0.1-0.3-0.3-0.5-0.4-0.9l-0.9-0.9v-0.3l-1.2-1.2
						c0-0.3-0.1-0.4-0.3-0.5c-0.1-0.1-0.3-0.1-0.5-0.3s-0.3-0.3-0.4-0.3c-0.4,0-0.5-0.4-0.8-0.5c-0.3,0-0.5,0.1-0.7-0.3h-2.6
						l-0.3,0.3h-0.7l-0.3,0.3h-0.7l-0.3,0.3h-0.5l-0.3,0.3h-0.9l-0.1-0.1c-0.3-0.1-0.5,0-0.7-0.1l-0.1-0.1c-0.7-0.4-1.3-0.5-1.8-1
						c-0.3,0.1-0.4-0.4-0.7-0.3c-0.1-0.3-0.4-0.1-0.5-0.3c-0.1-0.1-0.5-0.1-0.5-0.4c-0.1-0.3-0.4-0.1-0.5-0.4
						c-0.1-0.1-0.4-0.1-0.5-0.3c-0.3-0.1-0.7-0.3-0.9-0.5c-0.3-0.1-0.5-0.4-0.8-0.5c-0.1-0.1-0.3-0.1-0.4-0.1
						c-0.1,0-0.1-0.3-0.1-0.4c-0.3-0.3-0.5-0.4-0.7-0.7v-0.5c0.3-0.1,0.1-0.5,0.3-0.7c0.1-0.1,0.1-0.4,0.3-0.5h0.5l0.1-0.1
						c0.1,0,0.1,0,0.3-0.1h2.6l0.3,0.3H67l0.3,0.3h0.9l0.3-0.3h1.4l0.3-0.3h1.4l0.3-0.3h1.7l0.1-0.1l0.1-0.1h1.6l0.3-0.3H77l0.4-0.3
						h1.3l0.3-0.3h1.3l0.3-0.3h1.4c0,0,0.1,0,0.1-0.1l0.1-0.3l-0.5-0.3v-0.8c0.1-0.1,0.1-0.1,0.3-0.1s0.3-0.1,0.3-0.1l0.9,0.4
						c0.3,0.1,0.5,0.3,0.9,0.3c0-0.1,0.1-0.1,0.1-0.1c0-1,0-2.2,0-3.4l0.9-0.8h1c0.3-0.1,0.5-0.3,0.7-0.4c0.5-0.1,0.9-0.5,0.9-0.9
						c0.3-0.5,0.7-0.9,0.7-1.6c0-0.1,0.1-0.1,0.1-0.1v-1.8c0.1-0.1,0.3-0.1,0.3-0.3c0-0.1,0.1-0.3,0.1-0.4c0.1-0.1,0.1-0.3,0.1-0.4
						c0.1-0.1,0.4,0,0.5-0.3H91l0.3,0.3L92.8,115.9z"/>
				</g>
			</g>
		</g>
	</g>
	<path class="st6" d="M120.1,127.8h-1.2c-0.1-0.1-0.1-0.3-0.3-0.3c-0.3,0-0.5-0.1-0.5-0.4c-0.1-0.1-0.3-0.3-0.3-0.5
		c0-0.3-0.3-0.4-0.3-0.5c0.1-0.4-0.3-0.5-0.3-0.9c0.1-0.4-0.3-0.5-0.3-0.9c0-0.4-0.3-0.7-0.3-0.9c-0.3-0.1-0.1-0.5-0.4-0.7v-1.6l1-1
		c0.1,0,0.3-0.1,0.4-0.3h0.9l0.3-0.3c0.3,0,0.5-0.1,0.7,0.1h1.7l0.3,0.3h0.5l0.3,0.3h0.5l0.3,0.3c0.3,0,0.5-0.1,0.7,0.1
		c0.1,0.3,0.4,0,0.7,0.1c0.3,0.1,0.5,0.1,0.9,0.1c0.1-0.4,0.7,0,0.9-0.4c0-0.1,0.3,0,0.4,0l0.3-0.3h1.4c0.3,0.3,0.5,0.5,0.8,0.8
		c0.3,0.1,0.3,0.5,0.4,0.7c0.1,0.1,0.3,0.4,0.4,0.7c0.1,0.3,0.3,0.5,0.5,0.8c0.1,0.3,0.3,0.4,0.4,0.7v1.6c-0.4,0.1-0.1,0.5-0.3,0.8
		c-0.1,0.3-0.3,0.5-0.5,0.7c-0.7,0-1-0.5-1.8-0.7h-0.7c-0.1,0.1-0.3,0.3-0.3,0.4c-0.1,0.1-0.3,0.1-0.4,0.1s-0.3,0.3-0.4,0.4
		c-0.1,0.1-0.3,0.1-0.4,0.3h-1.4c-0.3-0.1-0.5-0.4-0.8-0.4c-0.4,0-0.5-0.4-0.8-0.5h-0.5l-0.1-0.1c-0.3-0.1-0.5-0.1-0.8,0
		c-0.1,0.3-0.4,0.5-0.3,0.8c-0.1,0.3-0.5-0.1-0.5,0.4h-0.8L120.1,127.8z"/>
</g>
<rect y="16.6" class="st5" width="400" height="300"/>
<g>
	
		<ellipse transform="matrix(0.6003 -0.7998 0.7998 0.6003 17.7902 249.0985)" class="st7" cx="258.1" cy="106.8" rx="19.2" ry="35"/>
	<ellipse transform="matrix(0.6165 -0.7874 0.7874 0.6165 17.9622 244.9304)" class="st8" cx="260.4" cy="104" rx="17" ry="35"/>
	<ellipse transform="matrix(0.6165 -0.7874 0.7874 0.6165 17.9622 244.9304)" class="st9" cx="260.4" cy="104" rx="13.6" ry="28"/>
	<path class="st7" d="M250.8,102.1c-0.4,1.8,1.8,4.6,4.6,6.4c1.8,1.1,3.6,1.5,4.7,1.1l0.6-0.2l0.7,0.7c0.7,0.7,1.6,1.4,2.5,1.9
		c2.9,1.8,5.5,1.7,5.8-0.1l0.1-0.6l3,1.9c0.6,0.4,1.2,0.4,1.3,0c0.1-0.4-0.4-1-1-1.4l-3-1.9l0.5-2.4l3,1.9c0.6,0.4,1.2,0.4,1.2,0
		c-0.1-0.6-0.5-1.1-1-1.4l-3-1.9l0.4-1.9c0.1-0.4-0.4-1-1-1.4c-0.6-0.4-1.2-0.4-1.2,0l-0.4,1.9l-14.2-8.5l0.4-1.9
		c0.1-0.4-0.4-1-1-1.4c-0.6-0.4-1.2-0.4-1.2,0l-0.4,1.9l-3-1.9c-0.6-0.4-1.2-0.4-1.3,0c-0.1,0.4,0.4,1,1,1.4l3,1.9l-0.5,2.5l-3-1.9
		c-0.6-0.4-1.2-0.4-1.2,0c0.1,0.6,0.5,1.1,1,1.4l3,1.9L250.8,102.1z M268.3,106.4l-0.8,4.4c-0.2,1-1.7,1-3.3,0.1
		c-1.7-0.9-2.9-2.7-2.7-3.7l0.8-4.4L268.3,106.4z M254.1,97.7l5.9,3.6l-1,5.7c-0.2,1-1.7,1-3.3,0.1s-2.9-2.6-2.7-3.7L254.1,97.7z"/>
</g>
<g>
	
		<ellipse transform="matrix(0.5509 -0.8346 0.8346 0.5509 -77.4024 269.7758)" class="st10" cx="212" cy="206.8" rx="55" ry="26.6"/>
	
		<ellipse transform="matrix(0.5509 -0.8346 0.8346 0.5509 -76.0194 266.0028)" class="st11" cx="209.1" cy="203.6" rx="53.9" ry="24.7"/>
	
		<ellipse transform="matrix(0.5509 -0.8346 0.8346 0.5509 -76.0194 266.0028)" class="st12" cx="209.1" cy="203.6" rx="43.2" ry="19.8"/>
	<path class="st13" d="M214.9,195.5l7.6-9.3c-1.1-0.7-2-1.2-2.9-2c-0.5-0.4-1,0-1.6,0.9c-2.6,2.9-5,5.9-7.5,9
		c-1.6,2-2.7,2.7-4.1,2.8c-1.7,0.1-2,0.2-3.4,3.2l2.5-0.2c-2.6,3.3-5.2,6-7.6,9.2l10.3,6.8c0.2,0.1,0.5,0.1,0.9-0.4
		c1.2-1.4,2.5-2.8,3.9-4.3l-7.1-4.7c1.5-1.7,2.8-3.2,4.1-4.9c1.6-2.1,2.8-2.9,4.2-2.9c1.7,0,1.8-0.2,3.4-3.2L214.9,195.5z"/>
</g>
<g>
	<ellipse class="st14" cx="75.3" cy="221.3" rx="47.5" ry="54.6"/>
	<ellipse class="st15" cx="69.5" cy="219.5" rx="45.8" ry="52.9"/>
	<ellipse class="st14" cx="69.5" cy="219.5" rx="36.7" ry="42.4"/>
	<path class="st15" d="M77.5,195c4.9,0,8.7,4.1,8.9,10c0.2,5.4-3.4,9.9-7.7,10.5c-0.6,0.1-1.3,0.2-1.9,0.1c-2-0.2-3.7,1.2-3.9,3.2
		v0.6c0,2.4,1.5,4.1,3.6,4c4.4-0.2,8.2,3,9.2,7.9c1,3.8-0.2,7.7-3,10.4c-2.3,2.6-6.2,3.2-9.2,1.5c-3.4-1.6-5.1-4.7-5.4-8.9
		c-0.1-2,0.3-4,1.1-5.8c0.7-1.5,0.4-3.3-0.8-4.5c-1-1.1-2.5-1.3-3.8-0.6c-0.5,0.4-1,0.8-1.3,1.4c-2.3,3.7-5.4,5.2-9.2,4.3
		s-6.2-3.8-7-8.3c-1.2-6.3,3.7-12.6,9.3-12.1c3.6,0.3,6.2,2.4,7.8,6.2c0.5,1.6,2.2,2.5,3.8,2.1c0.1,0,0.1,0,0.2-0.1
		c0.2-0.1,0.3-0.1,0.5-0.2c1.8-1.1,2.5-3.5,1.5-5.4c-0.9-1.7-1.5-3.6-1.6-5.5C68.4,199.7,72.3,195.1,77.5,195z"/>
</g>
<g>
	<path class="st16" d="M331.3,14.3c1.9,0.5,3.9,1.1,5.7,1.9l0.4,0.1c0.2,0.2,0.5,0.4,0.8,0.5l0.2,0.1c0.4,0.8,1.6,1.2,2.4,1.9
		c0.5,0.4,0.4,0.9,1.2,1c0.5,1.1,1.5,2.3,2,3.6c-0.1,0.1,0,0.2,0.1,0.3h0.1c0.1,0.8,0.2,1.6,0.5,2.4c0,0-0.4,0.1-0.1,0.2
		c-0.1,2-0.6,4-1.4,5.9c-1,1.2-1.7,3.1-3,4.3c-9.8,12.7-43.3,19.2-51.8,4.3c0.1-0.2-0.3-0.2-0.3-0.5s0.2-0.4-0.1-0.5
		c-0.9-0.9-0.5-3.5-0.8-4.4c0.1-0.3,0.1-0.6,0-0.9c0.2-0.5,0.2-1.1,0.6-1.5c0.3-1.2,0.7-2.3,1.2-3.4c0.3-0.3,0.5-0.6,0.7-1
		c1.4-2,3-3.7,4.9-5.2c0.1-0.4,0.8-0.4,0.7-0.9c0.1,0.1,0.2,0,0.3-0.1v-0.1c2.1-1.4,4.7-2.9,7-4.3c0.2,0,0.5-0.1,0.6-0.3
		c3.9-1.5,8-2.8,12.1-3.7c0.5,0.1,1.1,0,1.5-0.3c1.2,0,2.4-0.1,3.6-0.4c0.2,0,0.4,0.2,0.5-0.1c1.1,0.3,2.5-0.1,3.7,0.1
		c0.3-0.3,0.7,0.2,1-0.2c0.2,0.1,0.2-0.1,0.4-0.1c0.1,0.5,0.5,0.2,0.8,0.2C328.1,14.1,329.6,13.7,331.3,14.3z M338.4,32.5
		c5.6-9.3-3.9-15.2-11.8-16.1c-20-2.1-39.9,12.3-33.6,22.9c3,5.9,11,6.8,17.1,7.1c10.6-0.7,22.1-4.3,28.2-13.5L338.4,32.5z"/>
	<path class="st17" d="M338.3,32.9c-6.1,9.3-17.7,12.8-28.2,13.5c-6-0.3-14.1-1.2-17.1-7.1c-0.5-3,0.1-6,1.7-8.6
		c5.1-6.8,12-9.3,19.1-11.5c3.5-0.2,7.4-1.3,11-0.6c7.5,0.1,17,5.2,13.6,13.8C338.2,32.4,337.9,32.8,338.3,32.9z M316.4,25.8
		C316.7,25.9,316.6,25.3,316.4,25.8c-4.3,0.2-8.5,0.7-12.9,1.1l5.4,6.7c0.4-1.6,0.6-3.4,0.9-4.9C312.1,27.8,314.2,26.9,316.4,25.8z
		 M320.7,25.2c-3.1,0.9-6.3,2.7-9.5,3.9c-0.3,0.9-0.5,1.9-0.6,2.9c-0.3,1.2-0.5,2.4-0.7,3.6c0.2,0.2,0.4-0.1,0.6,0
		c6.3-0.3,12.9-0.5,19.3-1.1C326.9,31.5,324,27.8,320.7,25.2z"/>
	<path class="st17" d="M345.3,27.5l-0.1,0.2c0,1.2,0.2,2.4,0.6,3.6c-0.2,0.5,0.1,1.1-0.2,1.6c0.1,1.9-1,3.7-1.6,5.6
		c-1.5,2-3.1,4-4.9,5.8c-0.1,0-0.2,0-0.2,0.1v0.1c-1.2,0.6-2.4,2.1-3.8,2.7c-1.2,0.9-2.8,1.2-3.6,2.3c-0.1-0.1-0.2,0-0.3,0.1v0.1
		c-0.4-0.2-0.8,0-1,0.4c-0.1,0-0.2,0-0.3,0.2c-0.4-0.2-0.8,0-1,0.4c-0.1-0.1-0.2,0-0.3,0.2c-0.1-0.1-0.2,0-0.3,0.1v0.1
		c-0.3-0.1-0.5,0-0.7,0.2l0,0c-0.5-0.1-0.6,0-0.8,0.5c-3.2,0.7-6.6,1.9-10,2.5c-0.8,0.1-2.5-0.1-3.1,0.5c-1.5-0.3-3.4,0.3-5.1-0.1
		c-0.4,0.3-0.8-0.2-1.1,0.1c-4-0.5-8.1-1.1-11.6-3c-1.2-0.6-2.4-1.8-3.7-2.4c0-0.5-0.5-0.7-1-1.2c-1.5-2.1-2.4-4.6-2.6-7.2
		c9.4,15.6,43.1,7.4,51.7-4.5c1.3-1.1,2.1-2.9,3-4.3c0.8-1.9,1.3-3.9,1.4-5.9c0.5,0.3,0.3,0.9,0.4,1.3L345.3,27.5z"/>
	<path class="st18" d="M338.4,32.5c3.4-9-6.6-13.6-13.6-13.8c-3.6-0.7-7.4,0.4-11,0.6c-7.6,2.2-14.4,5.2-19.1,11.5
		c-1,1.8-1.7,3.8-2,5.8c-0.1,1,0.5,1.7,0.2,2.8c-2.5-3.9-0.6-8.5,2.1-11.9c7.9-9.1,21.7-12,31.5-11C337.3,17.8,343.1,25,338.4,32.5z
		"/>
	<path class="st18" d="M338.3,32.9c-0.1,0-0.2-0.2-0.2-0.3s0.2-0.2,0.3-0.2L338.3,32.9z"/>
	<path class="st16" d="M320.8,25.2c3.2,2.6,6,6.2,9.2,9.2c-6.2,0.6-12.9,0.8-19.3,1.1c2-1.7,5.4-3,7.9-4.3
		C319.3,29.3,320,27.3,320.8,25.2z"/>
	<path class="st19" d="M320.8,25.2c-0.7,2-1.5,3.9-2.2,6.1c-2.5,1.3-5.7,2.5-7.9,4.3c-0.2-0.1-0.4,0.3-0.6,0
		c0.2-1.2,0.4-2.4,0.7-3.6c0.1-1,0.3-2,0.6-2.9C314.4,28,317.7,26.1,320.8,25.2z"/>
	<path class="st16" d="M316.4,25.9l-6.6,2.8c-0.3,1.4-0.5,3.2-0.9,4.9l-5.4-6.7C307.9,26.6,312.1,26,316.4,25.9z"/>
</g>
<path class="st20" d="M62.2,18.3c7.2,7,7.3,18.5,0.3,25.7l0,0l-0.3,0.3c-7.2,7.2-18.9,7.3-26.1,0.1S28.8,25.5,36,18.3
	s18.9-7.3,26.1-0.1L62.2,18.3z M56.2,38.3c1.9-1.8,2.9-4.4,2.9-7c0.1-2.6-1-5.1-2.9-6.9c-1.9-1.9-4.4-2.9-7.1-2.8
	c-5.3-0.1-9.7,4.2-9.8,9.5v0.2c0,2.6,1,5.1,2.8,7s4.3,2.9,6.9,2.9C51.7,41.3,54.3,40.2,56.2,38.3z M98.4,20.6L50.7,94.7
	c-0.8,1.5-2.4,2.5-4.1,2.4c-2.7-0.1-4.9-2.3-5-5c0.1-1,0.4-2,0.9-2.9L90.3,15c0.8-1.5,2.4-2.5,4.1-2.4c1.4,0,2.7,0.5,3.6,1.5
	c1,0.9,1.5,2.3,1.4,3.6C99.3,18.7,99,19.7,98.4,20.6L98.4,20.6z M78.6,91.7c-7.2-7.2-7.2-18.8,0-26l0.1-0.1
	c3.4-3.4,8.1-5.3,12.9-5.4c10.2-0.1,18.4,8.1,18.5,18.3S102,96.9,91.8,97C86.9,97.2,82.1,95.2,78.6,91.7z M84.6,71.7
	c-3.9,3.7-4,9.8-0.3,13.7l0.1,0.1l0.2,0.2c3.8,3.8,9.9,3.9,13.7,0.1c2-1.9,3-4.6,2.9-7.4c-0.2-5.2-4.4-9.4-9.6-9.6
	C89,68.8,86.5,69.9,84.6,71.7L84.6,71.7z"/>
</svg>
