<?xml version="1.0" encoding="utf-8"?>
<!-- Generator: Adobe Illustrator 24.3.0, SVG Export Plug-In . SVG Version: 6.00 Build 0)  -->
<svg version="1.1" id="Layer_1" xmlns="http://www.w3.org/2000/svg" xmlns:xlink="http://www.w3.org/1999/xlink" x="0px" y="0px"
	 viewBox="0 0 400 300" style="enable-background:new 0 0 400 300;" xml:space="preserve">
<style type="text/css">
	.st0{fill:none;}
	.st1{fill:#F3F2EF;}
	.st2{fill:#C98017;}
	.st3{fill:#FBED60;}
	.st4{fill:#FABA31;}
	.st5{fill:#68C2EE;}
	.st6{fill:#0491BE;}
	.st7{fill:#68C2EF;}
	.st8{fill:#31798F;}
	.st9{fill:#C1BDBE;}
	.st10{fill:#6E6E6E;}
	.st11{fill:#6C6C6C;}
	.st12{fill:#BCBCBC;}
	.st13{fill:#E1E1E1;}
	.st14{fill:#0A0A09;}
	.st15{clip-path:url(#SVGID_2_);}
	.st16{fill:#019147;}
	.st17{fill:#FFFFFF;}
	.st18{fill:#CE2B36;}
	.st19{fill:none;stroke:#000000;stroke-miterlimit:10;}
</style>
<rect y="16.6" class="st0" width="400" height="300"/>
<path class="st1" d="M331.2,35.8c7.8,7.6,7.9,20.1,0.3,27.9l0,0l-0.3,0.3c-7.8,7.8-20.5,7.9-28.3,0.1s-7.9-20.5-0.1-28.3
	c7.8-7.8,20.5-7.9,28.3-0.1L331.2,35.8z M324.7,57.5c2.1-2,3.1-4.8,3.1-7.6c0.1-2.8-1.1-5.5-3.1-7.5c-2.1-2.1-4.8-3.1-7.7-3
	c-5.8-0.1-10.5,4.6-10.6,10.3v0.2c0,2.8,1.1,5.5,3,7.6c2,2.1,4.7,3.1,7.5,3.1C319.8,60.8,322.6,59.6,324.7,57.5z M370.5,38.3
	l-51.8,80.4c-0.9,1.6-2.6,2.7-4.4,2.6c-2.9-0.1-5.3-2.5-5.4-5.4c0.1-1.1,0.4-2.2,1-3.1l51.9-80.5c0.9-1.6,2.6-2.7,4.4-2.6
	c1.5,0,2.9,0.5,3.9,1.6c1.1,1,1.6,2.5,1.5,3.9C371.4,36.2,371.1,37.3,370.5,38.3L370.5,38.3z M349,115.4c-7.8-7.8-7.8-20.4,0-28.2
	l0.1-0.1c3.7-3.7,8.8-5.8,14-5.9c11.1-0.1,20,8.8,20.1,19.9c0.1,11.1-8.8,20-19.9,20.1C358,121.4,352.8,119.2,349,115.4z
	 M355.5,93.7c-4.2,4-4.3,10.6-0.3,14.9l0.1,0.1l0.2,0.2c4.1,4.1,10.7,4.2,14.9,0.1c2.2-2.1,3.3-5,3.1-8c-0.2-5.6-4.8-10.2-10.4-10.4
	C360.3,90.6,357.6,91.8,355.5,93.7L355.5,93.7z"/>
<g>
	<ellipse transform="matrix(0.4618 -0.887 0.887 0.4618 -32.3966 85.5821)" class="st2" cx="54.3" cy="69.5" rx="50" ry="27.5"/>
	<ellipse transform="matrix(0.4798 -0.8774 0.8774 0.4798 -32.5792 78.7981)" class="st3" cx="50.2" cy="66.9" rx="50" ry="24.3"/>
	<ellipse transform="matrix(0.4798 -0.8774 0.8774 0.4798 -32.5792 78.7981)" class="st4" cx="50.2" cy="66.9" rx="40" ry="19.5"/>
	<path class="st2" d="M49.6,80.9c2.6,0.2,6-3.6,7.9-8c1.1-2.8,1.3-5.4,0.5-6.9l-0.4-0.8l0.9-1.1c0.9-1.1,1.6-2.5,2.1-4
		c1.8-4.5,1.1-8.1-1.5-8.2l-0.9,0l2-4.7c0.4-1,0.3-1.8-0.3-1.8c-0.5,0-1.3,0.8-1.7,1.7l-2,4.7l-3.6-0.1l2-4.7c0.4-1,0.3-1.8-0.3-1.7
		c-0.9,0.3-1.4,0.9-1.7,1.7l-2,4.7l-2.7-0.1c-0.5,0-1.3,0.8-1.7,1.7c-0.4,1-0.3,1.8,0.3,1.7l2.7,0.1l-8.7,22l-2.7-0.1
		c-0.5,0-1.3,0.8-1.7,1.7c-0.4,1-0.3,1.8,0.3,1.7l2.7,0.1l-2,4.7c-0.4,1-0.3,1.8,0.3,1.8c0.5,0,1.3-0.8,1.7-1.7l2-4.7l3.6,0.1
		l-2,4.7c-0.4,1-0.3,1.8,0.3,1.7c0.9-0.3,1.4-0.9,1.7-1.7l2-4.7L49.6,80.9z M51.4,55.1l6.4,0.1c1.4,0.1,1.8,2.2,0.9,4.6
		c-0.9,2.6-3.1,4.7-4.6,4.7l-6.4-0.1L51.4,55.1z M42.6,77.1l3.7-9.2l8.3,0.1c1.4,0.1,1.8,2.2,0.9,4.6c-0.9,2.4-3,4.7-4.6,4.7
		L42.6,77.1z"/>
</g>
<g>
	
		<ellipse transform="matrix(0.5509 -0.8346 0.8346 0.5509 -113.5843 141.4019)" class="st5" cx="74.6" cy="176.2" rx="22.9" ry="47.3"/>
	
		<ellipse transform="matrix(0.5509 -0.8346 0.8346 0.5509 -110.3043 142.6272)" class="st6" cx="77.4" cy="173.8" rx="21.2" ry="46.3"/>
	
		<ellipse transform="matrix(0.5509 -0.8346 0.8346 0.5509 -110.3043 142.6272)" class="st7" cx="77.4" cy="173.8" rx="17.1" ry="37.1"/>
	<path class="st8" d="M84.3,178.8l8,6.5c0.6-1,1.1-1.7,1.7-2.5c0.4-0.4,0-0.9-0.8-1.3c-2.5-2.2-5.1-4.3-7.8-6.4
		c-1.7-1.3-2.3-2.3-2.4-3.5c-0.1-1.4-0.2-1.7-2.8-2.9l0.2,2.1c-2.9-2.2-5.2-4.5-7.9-6.5l-5.8,8.8c-0.1,0.2-0.1,0.4,0.4,0.8
		c1.2,1.1,2.4,2.1,3.7,3.4l4-6.1c1.4,1.2,2.8,2.4,4.2,3.5c1.8,1.3,2.5,2.4,2.5,3.6c0,1.4,0.2,1.5,2.8,2.9L84.3,178.8z"/>
</g>
<g>
	<ellipse class="st9" cx="363.7" cy="254.5" rx="19.6" ry="22.6"/>
	<ellipse class="st10" cx="361.3" cy="253.8" rx="18.9" ry="21.8"/>
	<ellipse class="st9" cx="361.3" cy="253.8" rx="15.2" ry="17.5"/>
	<path class="st10" d="M364.6,243.7c2,0,3.6,1.7,3.7,4.1c0.1,2.2-1.4,4.1-3.2,4.3c-0.3,0.1-0.5,0.1-0.8,0.1
		c-0.8-0.1-1.6,0.5-1.6,1.3v0.3c0,1,0.6,1.7,1.5,1.7c1.8-0.1,3.4,1.2,3.8,3.3c0.4,1.6-0.1,3.2-1.2,4.3c-0.9,1.1-2.5,1.3-3.8,0.6
		c-1.4-0.7-2.1-2-2.2-3.7c-0.1-0.8,0.1-1.7,0.5-2.4c0.3-0.6,0.2-1.3-0.3-1.9c-0.4-0.5-1-0.5-1.6-0.3c-0.2,0.2-0.4,0.3-0.5,0.6
		c-0.9,1.6-2.2,2.2-3.8,1.8c-1.6-0.4-2.5-1.6-2.9-3.4c-0.5-2.6,1.6-5.2,3.8-5c1.5,0.1,2.5,1,3.2,2.5c0.2,0.7,0.9,1,1.6,0.9
		c0.1,0,0.1,0,0.1-0.1c0.1-0.1,0.1-0.1,0.2-0.1c0.7-0.5,1-1.4,0.6-2.2c-0.4-0.7-0.6-1.5-0.7-2.3
		C360.9,245.6,362.5,243.7,364.6,243.7z"/>
</g>
<g>
	<path class="st11" d="M100.6,234c2.3,0.2,4.7,0.4,6.9,0.9l0.5,0c0.3,0.2,0.7,0.4,1,0.4l0.2,0.1c0.6,0.9,2.1,1,3.2,1.6
		c0.7,0.4,0.7,0.9,1.6,0.9c0.8,1.1,2.2,2.3,3.1,3.7c-0.1,0.1,0,0.3,0.2,0.4l0.1,0c0.3,0.9,0.6,1.8,1.1,2.6c0,0-0.4,0.2-0.1,0.2
		c0.3,2.3,0.2,4.7-0.3,7.1c-0.9,1.6-1.3,3.9-2.5,5.5c-8.4,16.7-45.1,31.7-58.1,16.6c0.1-0.2-0.4-0.2-0.4-0.5
		c-0.1-0.3,0.1-0.5-0.2-0.5c-1.3-0.8-1.3-3.9-1.9-4.9c0.1-0.4,0-0.7-0.2-1c0.1-0.6,0-1.3,0.3-1.8c0.1-1.4,0.3-2.8,0.6-4.2
		c0.2-0.4,0.4-0.8,0.6-1.3c1.1-2.6,2.6-4.9,4.4-7c0-0.5,0.9-0.6,0.6-1.1c0.1,0.1,0.3,0,0.4-0.2l0-0.1c2.1-2.1,4.7-4.3,7-6.5
		c0.3,0,0.5-0.2,0.6-0.5c4.2-2.6,8.5-5,13-7c0.5,0,1.3-0.2,1.7-0.7c1.3-0.3,2.7-0.6,4-1.3c0.3,0,0.5,0.1,0.5-0.2
		c1.3,0.1,2.9-0.7,4.2-0.7c0.2-0.4,0.9,0.1,1.1-0.5c0.2,0.1,0.2-0.2,0.4-0.2c0.2,0.5,0.6,0.1,0.9,0C96.9,234.5,98.6,233.7,100.6,234
		z M112.8,253.2c4.3-11.8-7.9-16.4-17.1-15.7c-23.3,2.1-42.7,23-33.2,33.7c4.8,6,14.1,5.3,21.1,4.2c11.9-3.2,24.3-9.9,29.1-21.7
		L112.8,253.2z"/>
	<path class="st12" d="M112.7,253.7c-4.9,12-17.3,18.6-29.1,21.7c-6.9,1-16.3,1.8-21.1-4.2c-1.2-3.3-1.3-6.9,0-10.2
		c4.3-8.9,11.6-13.3,19.2-17.4c4-1,8.2-3.1,12.4-3.2c8.5-1.6,20.5,2.2,18.6,12.7C112.6,253.2,112.3,253.7,112.7,253.7z M86.2,250.5
		C86.6,250.6,86.3,249.9,86.2,250.5c-4.9,1.2-9.5,2.7-14.4,4.2l7.6,6.4c0.1-1.9-0.1-4,0-5.8C81.8,253.8,83.9,252.3,86.2,250.5z
		 M91,248.9c-3.3,1.8-6.5,4.5-9.9,6.6c-0.2,1.1-0.2,2.3,0,3.4c-0.1,1.4,0,2.9,0,4.2c0.3,0.2,0.4-0.2,0.7-0.2
		c7.2-1.8,14.6-3.4,21.8-5.6C99.5,254.7,95.3,251.1,91,248.9z"/>
	<path class="st12" d="M119.6,246l-0.1,0.2c0.3,1.3,0.8,2.7,1.5,4c-0.1,0.6,0.4,1.2,0.2,1.8c0.6,2.1-0.3,4.5-0.6,6.7
		c-1.3,2.6-2.6,5.3-4.3,7.7c-0.1,0-0.3,0-0.2,0.2l0,0.1c-1.2,0.9-2.3,3-3.7,3.9c-1.2,1.3-2.9,2-3.6,3.5c-0.1-0.1-0.3,0-0.4,0.2
		l0,0.1c-0.5-0.1-0.9,0.2-1,0.6c-0.1,0-0.3,0-0.3,0.3c-0.5-0.1-0.9,0.2-1,0.6c-0.1-0.1-0.3,0-0.3,0.3c-0.1-0.1-0.3,0-0.4,0.2l0,0.1
		c-0.4-0.1-0.6,0.1-0.7,0.4l0,0c-0.5,0-0.7,0.2-0.8,0.8c-3.5,1.5-7.1,3.7-10.8,5.1c-0.9,0.3-2.9,0.4-3.5,1.3c-1.7,0-3.8,1.1-5.8,1
		c-0.4,0.4-0.9,0-1.2,0.4c-4.7,0.4-9.5,0.5-13.9-0.8c-1.5-0.4-3.1-1.6-4.8-1.9c-0.1-0.6-0.7-0.7-1.4-1.2c-2.2-2.1-3.8-4.7-4.6-7.6
		c14.2,15.7,50.8-1.2,58-16.8c1.2-1.6,1.8-3.8,2.5-5.5c0.5-2.4,0.6-4.7,0.3-7.1C119.5,244.7,119.3,245.5,119.6,246L119.6,246z"/>
	<path class="st13" d="M112.8,253.2c1.9-11-10.6-14.1-18.6-12.7c-4.2,0-8.3,2.1-12.4,3.2c-8.1,4.2-15.3,9.2-19.2,17.4
		c-0.7,2.3-1.1,4.7-1,7c0.1,1.2,1,1.8,0.8,3.1c-3.7-3.9-2.6-9.6-0.3-14c7-12.2,22-18.6,33.5-19.6
		C108.2,236.7,116.5,243.6,112.8,253.2z"/>
	<path class="st13" d="M112.7,253.7c-0.1,0-0.3-0.2-0.3-0.3c0-0.1,0.2-0.3,0.3-0.3L112.7,253.7z"/>
	<path class="st11" d="M91.1,248.8c4.2,2.3,8.3,5.7,12.6,8.4c-6.9,2.1-14.5,3.8-21.8,5.6c1.9-2.4,5.4-4.6,8.1-6.7
		C90.3,253.9,90.7,251.5,91.1,248.8z"/>
	<path class="st14" d="M91.1,248.8c-0.4,2.4-0.9,4.8-1.1,7.4c-2.6,2-5.9,4.1-8.1,6.7c-0.2-0.1-0.4,0.4-0.7,0.2c0-1.5-0.1-2.8,0-4.2
		c-0.1-1.2-0.1-2.3,0-3.4C84.4,253.5,87.7,250.6,91.1,248.8z"/>
	<path class="st11" d="M86.2,250.7l-6.9,4.7c0,1.7,0.2,3.8,0,5.8l-7.6-6.4C76.7,253.4,81.3,251.7,86.2,250.7z"/>
</g>
<g>
	<g>
		<defs>
			<path id="SVGID_1_" d="M245.8,33.3c1.4,0,2.4,0.6,3.6,0.9c1.7,0.5,2,1.5,1.2,3.1c-0.4,0.7-0.9,1.2-1.5,1.7
				c-0.4,0.3-0.9,0.6-0.9,1.3c2.2,0.1,2.6,0.8,2,3.1c-0.6,2.2-0.6,2.3,1.5,3.1c2.1,0.8,3.1,2.8,4.3,4.4c0.3,0.4,0.1,1-0.2,1.4
				c-0.8,1.3-3.5,2.1-4.7,1.3c-1.4-0.9-0.3-1.5,0.3-2.2c-0.7-1.3-1.6-2.3-3-3.1c-0.5,1.5-1.6,2.4-3,2.8c-1,0.3-1.7,0.1-1.8-1.1
				c-0.1-0.8-2.1-1.9-3.2-1.7c-1.2,0.2-0.9,1.1-0.9,1.9c0.1,1.3-0.4,1.8-1.7,2.1c-2.9,0.7-5.3,2.4-8,3.8c-1.2,0.6-2.3,1.2-3.5,1.8
				c-0.9,0.4-1.8,0.9-2.3,1.8c-0.3,0.5-0.7,1-1.3,0.6c-0.7-0.4-0.5-1-0.2-1.6c0.4-0.7,0.9-1.4,1.3-2.2c-1,0.5-1.1,0.9-2.4,3
				c-0.9,1.5-0.2,2.4,0.6,3.5c1.1,1.5,2.3,3.1,3.4,4.6c0.4,0.5,0.8,0.9,1.4,1.2c1.5,0.6,1.7,1.7,1.3,3c-0.3,0.8-0.5,1.5-0.9,2.2
				c-1,1.7-2.2,2.3-4.1,2c-0.6,0.7-0.4,1.5-0.4,2.3c0.2,1.8,0.4,3.6,0.6,5.4c0.4,5.6,3.4,9.7,7.5,13.2c0.2,0.2,0.4,0.3,0.6,0.4
				c3.7,0.7,6.1,3.6,8.8,5.8c2.3,1.9,4.4,3.9,7.4,4.6c1.2,0.3,2.1,1.3,2.4,2.5c0.6,2.6,1.7,5,2.7,7.5c1.8,4.3,2.4,8.9,4,13.2
				c1.1,2.9,2.6,5.4,4.7,7.6c2.3,2.4,4.6,4.7,7.1,6.9c0.5,0.4,1,0.8,1.7,1c0.7,0.2,1.3,0.6,1.5,1.4c0.4,1.8,1.7,2.5,3.2,3.1
				c1.3,0.5,2.6,1,3.7,1.9c0.8,0.6,1.8,1,2.8,1c4.6,0.1,9.1-0.1,13.6-0.4c0.8-0.1,1.6-0.1,2.4-0.1c1.7,0,2.9,0.7,3.5,2.3
				c0.7,1.7,0.7,3.3-0.8,4.7c-1,1-2.3,1.6-3.5,2.4c-1.3,0.8-1.5,1.8-0.7,3c0.5,0.7,1.1,1.2,1.9,1.6c6.8,3.5,13.7,6.8,20.9,9.4
				c1.7,0.6,3.3,1.6,4.5,2.9c3.1,3.4,7,5.2,11.2,6.8c1.8,0.7,3.3,1.5,4,3.5c0.4,1.2,1.7,2,2.7,2.8c2.8,2.3,5.3,4.7,6.5,8.3
				c0.5,1.5,0.5,2.8-0.6,4c-1.1,1.3-1.4,2.8-1.4,4.5c0,2.1-0.8,2.6-2.7,1.9c-0.6-0.2-1.2-0.4-1.9-0.6c-2.8-0.8-4.6-3.1-4.8-6
				c-0.1-1.6-0.7-3.1-1.6-4.5c-0.5-0.7-1.1-1.1-2-1.2c-1.7-0.2-3.4-0.6-5.1-0.5c-2.8,0.1-4.8-1.5-6.9-2.9c-0.8-0.5-0.5-1.3-0.3-2
				c-2.4-1-3.5-0.6-5.2,1.8c-1.1,1.6-2,3.4-3,5c-1.5,2.5-2.9,4.9-3.4,7.7c-0.1,0.8-0.7,1.4-1,2.2c-1,2.1,0.1,4.2,2.4,4.2
				c1.4,0.1,2.5,0.7,3.5,1.5c1.5,1.2,3,2.3,4.8,3.1c1.9,0.9,2,1.4,1.8,3.6c-0.3,2.5-0.6,5.1,0.4,7.6c0.3,0.9,0.2,1.9,0,2.8
				c-0.5,1.9-1.2,2.2-3,1.5c-0.6-0.3-1.3-0.4-1.9-0.3c-2.6,0.5-4.8,1.7-6.6,3.6c-0.6,0.6-0.7,1.4-0.5,2.2c0.3,1.2,0.4,2.5,0.5,3.7
				c0.2,2.9-0.7,4.6-3.3,5.7c-2.9,1.3-4.6,3.5-5.3,6.6c-0.7,3.1-1.7,3.9-4.9,3.9c-1.1,0-2.2,0-3.3,0c-2.5-0.1-3.9-1.8-3.7-4.3
				c0.1-0.6,0.2-1.3-0.2-2.2c-1.6,3.6-4.3,6.2-6,9.4c-0.3,0.6-0.5,1.2-0.5,1.9c-0.2,1.8-0.6,3.5-1.8,4.9c-0.5,0.6-0.7,1.3-0.6,2.1
				c0.2,2.8,1,5.4,3.3,7.2c1.2,1,1.2,3.4,0,4.6c-0.6,0.5-1.3,0.8-1.8,1.4c-1.1,1.1-1.8,2.4-1.2,4.1c0.3,0.9,0.8,1.9-0.1,2.6
				c-1,0.8-1.8,0.2-2.7-0.4c-1-0.7-2.3-0.9-3.5-0.6c-1,0.2-2,0-2.9-0.4c-2.7-1.2-5.3-2.5-6.8-5.3c-0.8-1.5-2.1-2.5-3.5-3.4
				c-1.1-0.7-2.2-0.9-3.6-0.7c-3.2,0.5-5.7-1.2-7.9-3.1c-0.8-0.7-1.7-1.3-2.8-1.7c-1.2-0.5-2.4-1.1-3.4-1.9
				c-2.1-1.9-4.3-3.3-6.9-4.3c-1.1-0.4-2-0.7-3.1-0.6c-4,0.5-8-2-8-5.8c0-3.1,0.4-6.4,3.4-8.5c0.3-0.2,0.6-0.4,0.9-0.6
				c2.5-1.6,2.5-1.6,4.6,0.5c0.8,0.8,1.5,1.4,2.6,0.6c0.4-0.3,0.8-0.4,0.7-1c-0.1-1.2,0.6-1.8,1.5-2.2c1.4-0.8,3-1,4.7-0.9
				c0.9,0,1.4,0.6,1.6,1.4c0.3,1,1,1.6,1.8,2.1c0.8,0.5,1.7,0.9,2.5,1.4c2,1.1,4,1.5,6.1,0.1c0.8-0.5,1.7-0.5,2.6-0.4
				c5,0.7,9.9,0.3,14.2-2.7c1.6-1.1,3.5-0.8,5.2-0.2c1,0.4,1.9,0.3,2.8-0.2c2-1,4-2,6.1-3c1.4-0.7,2.8-0.9,4.1,0.1
				c0.8,0.6,1.4,0.2,2-0.4c1.3-1.5,1.8-3.3,2.1-5.2c0.1-0.7-0.4-1.2-1-1.5c-1.2-0.6-1-1.4-0.3-2.2c1.4-1.4,3-2.6,5.1-2.5
				c0.8,0,1.6,0,2-1c0.3-0.9,0.6-1.9-0.1-2.7c-2.3-2.5-2.6-5.6-2.9-8.7c-0.2-2.4-1-4.5-2.3-6.6c-1.5-2.3-2.7-4.8-2.9-7.6
				c-0.1-1.9-0.8-3.6-1.9-5.2c-1.1-1.6-2.2-1.8-3.6-0.4c-1.1,1.1-2.1,1.1-3.3,0.1c-2.2-1.9-4.3-3.9-7-5.1c-1.2-0.5-1.8-1.8-1.2-3
				c1.1-2.1,0.2-3.7-0.7-5.5c-0.2-0.4-0.4-0.7-0.6-1c-1.4-2.3-2-2.4-4.4-1.3c-1.8,0.8-3.8,0.6-5.6,1.3c-0.9,0.3-1.3-0.5-1-1.4
				c0.2-0.6,0.8-1,1.3-1.4c1.5-1.2,1.4-1.5-0.1-2.7c-0.9-0.6-1.7-1-2.9-0.8c-2.5,0.4-3,0-4.1-2.2c-1.4-2.7-2.8-5.3-4.6-7.7
				c-0.9-1.1-1.8-1.8-3.3-1.4c-1.7,0.4-3.4-0.3-5-0.8c-1.3-0.4-2.4-0.2-3.6,0.4c-2,1.1-3,0.7-4.2-1.2c-1-1.6-2.4-2.8-4.3-3.3
				c-2.4-0.6-4.2-1.9-5.7-3.9c-1.2-1.7-2.7-3.1-4.3-4.4c-0.9-0.7-1.6-1.6-2-2.7c-0.9-2.7-3.1-4.2-5.6-5c-1.6-0.5-2.7-1.4-3.1-2.9
				c-1-3.8-3.8-5.6-7.1-7c-1.1-0.5-2.1-0.6-3.1,0.3c-0.9,0.8-2.2,0.4-2.9-0.7c-0.7-1-0.4-1.8,0.6-2.4c0.8-0.5,0.8-1.1,0.4-1.8
				c-1.4-2.2-2.9-4.2-5.2-5.5c-1.4-0.7-2.6-1.7-2.6-3.5c0-0.7-0.5-1-1.1-1.2c-2.5-0.7-3.9-2.8-3.6-5.3c0.4-3.1-0.5-5.8-2.5-8.1
				c-1.8-2.1-2.5-4.4-2.7-7c-0.1-1.1-0.2-2.2-0.3-3.3c-0.4-3.8-2.3-6.2-6-7.3c-4-1.2-7.6-3.3-10.9-6c-1.5-1.2-3.1-2-4.9-2.5
				c-2-0.5-4-1-5.9-1.6c-1-0.3-1.9-0.1-2.9,0.4c-2.1,1.2-4,2.4-4.7,5c-0.2,0.6-0.6,1.3-1.2,1.4c-2.3,0.5-3,2.4-3.6,4.2
				c-0.7,2-2,3.4-3.8,4.2c-2.9,1.3-5.8,2.6-9.2,2.5c-0.8,0-1.7-0.1-1.9-1.1c-0.2-1.1-1.1-2.2,0-3.4c1-1.1,1.9-2.2,2.8-3.3
				c0.6-0.7,0.8-1.5,0.1-2.4c-0.7-0.9-1.3-0.3-2-0.1c-0.9,0.3-1.8,0.8-2.8,0.6c-3.9-1-7.5-2.5-9.8-5.8c-1.8-2.6-2.7-5.6-0.5-8.6
				c0.7-0.9,1.2-2,1.8-3c1-1.8,0.6-2.9-1.4-3.2c-1.9-0.3-3.1-1.4-4-3c-0.8-1.4-1.5-2.9-2.3-4.4c-0.5-1-0.1-1.5,0.8-1.8
				c1.5-0.4,2.8-1,4.5-0.9c1.8,0.1,3.5-1.1,4.9-2.4c0.9-0.9,0.6-4-0.4-4.8c-2.5-2.1-3.7-5.3-5.6-7.9c-1.6-2.2-0.2-4.5,2.5-4.9
				c0.8-0.1,1.3-0.5,1.6-1.1c0.5-0.9,1.2-1.1,2-0.4c1,0.9,2,0.8,3.1,0.3c0.8-0.4,1.7-0.7,2.6-0.6c0.8,0.1,1.4-0.3,1.9-0.7
				c1.8-1.3,3.6-1.3,5.4,0c1,0.7,1.9,0.9,2.6-0.5c0.2-0.3,0.6-0.6,0.9-0.7c2.6-0.7,3.5-2.8,4-5.1c0.5-2.6,2-4.7,3.2-6.9
				c0.6-1.1,2-1.5,3.3-1.6c0.9,0,1.4,0.6,1.4,1.5c0,1,0,2.1-0.1,3.1c-0.4,2.7,2.3,5.6,5,5.5c2-0.1,3.1,1.2,2.8,3.1
				c-0.1,0.3-0.3,0.8,0,1c1,0.8,1.4,1.8,1.7,2.9c0.1,0.3,0.3,0.7,0.7,0.6c0.1,0,0.3-0.1,0.3-0.2c0.2-0.4-0.1-0.7-0.4-0.9
				c-1.1-0.8-1.1-1.8-0.7-3c0.7-1.9,1.6-3.7,3.1-5c1.4-1.3,2-2.9,2.4-4.7c0.1-0.5-0.1-1-0.3-1.4c-0.8-1.6-0.3-2.9,1.2-3.6
				c1.7-0.8,3.3-0.2,3.9,1.6c0.2,0.6,0.2,1.3,0.3,1.9c0.4,2.2,2.6,3,4.3,1.6c0.9-0.7,1.8-1.2,2.9-1.6c1.9-0.6,2.9-0.1,3.4,1.9
				c0.2,0.6,0.1,1.3,0.6,1.8c0.2,0.2,0.4,0.5,0.8,0.4c0.3-0.1,0.5-0.4,0.5-0.7c0-1.2,0-2.3-1.1-3.1c-1.8-1.4-2-2.3-1-4.4
				c0.6-1.5,1.7-2.6,3.2-3.2c1-0.4,2-0.3,2.2,1c0.3,1.2,1.3,1.3,2.1,1.3c1.1-0.1,0.7-1.1,0.7-1.8c-0.2-1.6-0.4-3.3-0.2-4.9
				c0.1-1.3,0.4-2.5,2.3-2.2c0.6,0.1,1.3-0.1,1.9-0.2c1.5-0.4,2.7,0.2,3.5,1.4c0.9,1.3,2.1,1.5,3.4,1.2c1.2-0.2,1.4-1.3,1.5-2.3
				c0.1-1.3,0.9-2.2,2.1-2.8c3.7-1.6,7.5-2.4,11.5-1.3c0.8,0.2,1.5,0.2,2.2-0.1c2.1-0.8,4.2-1.6,6.3-2.4c0.7-0.3,1.6-0.7,2.1,0.3
				c0.5,0.9,0.2,1.7-0.5,2.5c-1.2,1.2-1.2,1.7,0.3,2.7c1.2,0.8,2,2,2.6,3.2c1,2.1,2.5,3.3,4.8,3.5c3.9,0.3,7.5,2,11.4,2.4
				c2.3,0.2,4.7,0.5,7,0.8c1,0.1,2.1,0.4,3.1,0.7c1.7,0.5,2,1.6,1.1,3.1c-0.7,1.1-1.8,1.6-2.8,2.2C246.9,31.3,246.4,31.8,245.8,33.3
				z"/>
		</defs>
		<clipPath id="SVGID_2_">
			<use xlink:href="#SVGID_1_"  style="overflow:visible;"/>
		</clipPath>
		<g class="st15">
			<rect x="107.9" y="-7.9" class="st16" width="82.6" height="305.5"/>
			<rect x="190.5" y="-7.9" class="st17" width="82.6" height="305.5"/>
			<rect x="273.1" y="-7.9" class="st18" width="82.6" height="305.5"/>
		</g>
	</g>
	<path class="st16" d="M147.1,231.4c-0.8,0.7-0.8,2.1-2,1.9c-1.2-0.2-1.4-1.4-1.8-2.4c-0.6-1.4-0.6-2.7,1.2-3.4
		c-0.8-1.3-1.4-2.4-0.1-3.6c0.2-0.2,0.1-0.6-0.1-0.8c-0.9-1.1-0.7-2.4-0.4-3.6c0.6-2.3,1.3-4.5,0.8-6.9c-0.2-0.9,0.4-1.5,1.3-1.8
		c0.8-0.2,1.1-0.7,0.9-1.4c-0.2-0.8-0.9-0.6-1.5-0.6c-1.7,0.2-1.9-0.1-1.7-1.8c0.4-2.5,1.6-4.7,1.5-7.3c-0.2-3.2-1.5-5.9-3-8.6
		c-0.4-0.7-0.9-0.8-1.6-0.3c-1,0.7-2,0.2-1.8-1c0.4-2.5-0.2-5.2,0.8-7.7c0.3-0.7,0.3-1.7,1.3-1.9c0.9-0.2,1.3,0.6,1.8,1.2
		c1.5,1.7,4.2,2,5.9,0.5c0.9-0.7,1.8-1.3,2.9-1.5c0.8-0.2,1.4-0.6,1.8-1.3c1.2-2,2.8-3.5,4.7-4.7c0.7-0.4,1.1-1,1.4-1.7
		c0.5-1.1,1.4-1.4,2.5-1c2.1,0.8,4.1,1.7,5.9,2.9c1.5,1,2.1,2.5,2.6,4.1c0.1,0.2,0.1,0.6,0,0.7c-1.3,1.2-0.2,2.1,0.3,3.1
		c1,1.9,1.8,3.9,2,6.1c0,0.5,0.2,1,0.5,1.4c1.3,2.1,0.9,4.5-0.8,6.2c-2.4,2.2-2.5,3.2-1,6.1c0.5,1,0.9,2,0.7,3
		c-0.9,4.5-0.5,9.1-1.4,13.6c-0.6,2.7-1.1,5.4-1.5,8.1c-0.2,1.6-1.5,2.3-3.1,1.9c-0.9-0.2-1.5-0.7-2.2-1.3c-1.4-1.2-3.1-1.4-4.9-1.7
		c-0.6-0.1-1,0.2-0.9,0.9c0,0.6,0,1.3,0.2,1.9c0.4,2.7-0.9,5.1-3.4,6.2c-0.6,0.3-1.3,0.3-1.9,0.1c-0.8-0.3-1.5-0.4-2.3-0.2
		c-1.1,0.3-1.6-0.5-2.1-1.3C147.9,232.8,147.5,232.2,147.1,231.4z"/>
	<g>
		<path class="st19" d="M245.8,33.3c1.4,0,2.4,0.6,3.6,0.9c1.7,0.5,2,1.5,1.2,3.1c-0.4,0.7-0.9,1.2-1.5,1.7
			c-0.4,0.3-0.9,0.6-0.9,1.3c2.2,0.1,2.6,0.8,2,3.1c-0.6,2.2-0.6,2.3,1.5,3.1c2.1,0.8,3.1,2.8,4.3,4.4c0.3,0.4,0.1,1-0.2,1.4
			c-0.8,1.3-3.5,2.1-4.7,1.3c-1.4-0.9-0.3-1.5,0.3-2.2c-0.7-1.3-1.6-2.3-3-3.1c-0.5,1.5-1.6,2.4-3,2.8c-1,0.3-1.7,0.1-1.8-1.1
			c-0.1-0.8-2.1-1.9-3.2-1.7c-1.2,0.2-0.9,1.1-0.9,1.9c0.1,1.3-0.4,1.8-1.7,2.1c-2.9,0.7-5.3,2.4-8,3.8c-1.2,0.6-2.3,1.2-3.5,1.8
			c-0.9,0.4-1.8,0.9-2.3,1.8c-0.3,0.5-0.7,1-1.3,0.6c-0.7-0.4-0.5-1-0.2-1.6c0.4-0.7,0.9-1.4,1.3-2.2c-1,0.5-1.1,0.9-2.4,3
			c-0.9,1.5-0.2,2.4,0.6,3.5c1.1,1.5,2.3,3.1,3.4,4.6c0.4,0.5,0.8,0.9,1.4,1.2c1.5,0.6,1.7,1.7,1.3,3c-0.3,0.8-0.5,1.5-0.9,2.2
			c-1,1.7-2.2,2.3-4.1,2c-0.6,0.7-0.4,1.5-0.4,2.3c0.2,1.8,0.4,3.6,0.6,5.4c0.4,5.6,3.4,9.7,7.5,13.2c0.2,0.2,0.4,0.3,0.6,0.4
			c3.7,0.7,6.1,3.6,8.8,5.8c2.3,1.9,4.4,3.9,7.4,4.6c1.2,0.3,2.1,1.3,2.4,2.5c0.6,2.6,1.7,5,2.7,7.5c1.8,4.3,2.4,8.9,4,13.2
			c1.1,2.9,2.6,5.4,4.7,7.6c2.3,2.4,4.6,4.7,7.1,6.9c0.5,0.4,1,0.8,1.7,1c0.7,0.2,1.3,0.6,1.5,1.4c0.4,1.8,1.7,2.5,3.2,3.1
			c1.3,0.5,2.6,1,3.7,1.9c0.8,0.6,1.8,1,2.8,1c4.6,0.1,9.1-0.1,13.6-0.4c0.8-0.1,1.6-0.1,2.4-0.1c1.7,0,2.9,0.7,3.5,2.3
			c0.7,1.7,0.7,3.3-0.8,4.7c-1,1-2.3,1.6-3.5,2.4c-1.3,0.8-1.5,1.8-0.7,3c0.5,0.7,1.1,1.2,1.9,1.6c6.8,3.5,13.7,6.8,20.9,9.4
			c1.7,0.6,3.3,1.6,4.5,2.9c3.1,3.4,7,5.2,11.2,6.8c1.8,0.7,3.3,1.5,4,3.5c0.4,1.2,1.7,2,2.7,2.8c2.8,2.3,5.3,4.7,6.5,8.3
			c0.5,1.5,0.5,2.8-0.6,4c-1.1,1.3-1.4,2.8-1.4,4.5c0,2.1-0.8,2.6-2.7,1.9c-0.6-0.2-1.2-0.4-1.9-0.6c-2.8-0.8-4.6-3.1-4.8-6
			c-0.1-1.6-0.7-3.1-1.6-4.5c-0.5-0.7-1.1-1.1-2-1.2c-1.7-0.2-3.4-0.6-5.1-0.5c-2.8,0.1-4.8-1.5-6.9-2.9c-0.8-0.5-0.5-1.3-0.3-2
			c-2.4-1-3.5-0.6-5.2,1.8c-1.1,1.6-2,3.4-3,5c-1.5,2.5-2.9,4.9-3.4,7.7c-0.1,0.8-0.7,1.4-1,2.2c-1,2.1,0.1,4.2,2.4,4.2
			c1.4,0.1,2.5,0.7,3.5,1.5c1.5,1.2,3,2.3,4.8,3.1c1.9,0.9,2,1.4,1.8,3.6c-0.3,2.5-0.6,5.1,0.4,7.6c0.3,0.9,0.2,1.9,0,2.8
			c-0.5,1.9-1.2,2.2-3,1.5c-0.6-0.3-1.3-0.4-1.9-0.3c-2.6,0.5-4.8,1.7-6.6,3.6c-0.6,0.6-0.7,1.4-0.5,2.2c0.3,1.2,0.4,2.5,0.5,3.7
			c0.2,2.9-0.7,4.6-3.3,5.7c-2.9,1.3-4.6,3.5-5.3,6.6c-0.7,3.1-1.7,3.9-4.9,3.9c-1.1,0-2.2,0-3.3,0c-2.5-0.1-3.9-1.8-3.7-4.3
			c0.1-0.6,0.2-1.3-0.2-2.2c-1.6,3.6-4.3,6.2-6,9.4c-0.3,0.6-0.5,1.2-0.5,1.9c-0.2,1.8-0.6,3.5-1.8,4.9c-0.5,0.6-0.7,1.3-0.6,2.1
			c0.2,2.8,1,5.4,3.3,7.2c1.2,1,1.2,3.4,0,4.6c-0.6,0.5-1.3,0.8-1.8,1.4c-1.1,1.1-1.8,2.4-1.2,4.1c0.3,0.9,0.8,1.9-0.1,2.6
			c-1,0.8-1.8,0.2-2.7-0.4c-1-0.7-2.3-0.9-3.5-0.6c-1,0.2-2,0-2.9-0.4c-2.7-1.2-5.3-2.5-6.8-5.3c-0.8-1.5-2.1-2.5-3.5-3.4
			c-1.1-0.7-2.2-0.9-3.6-0.7c-3.2,0.5-5.7-1.2-7.9-3.1c-0.8-0.7-1.7-1.3-2.8-1.7c-1.2-0.5-2.4-1.1-3.4-1.9c-2.1-1.9-4.3-3.3-6.9-4.3
			c-1.1-0.4-2-0.7-3.1-0.6c-4,0.5-8-2-8-5.8c0-3.1,0.4-6.4,3.4-8.5c0.3-0.2,0.6-0.4,0.9-0.6c2.5-1.6,2.5-1.6,4.6,0.5
			c0.8,0.8,1.5,1.4,2.6,0.6c0.4-0.3,0.8-0.4,0.7-1c-0.1-1.2,0.6-1.8,1.5-2.2c1.4-0.8,3-1,4.7-0.9c0.9,0,1.4,0.6,1.6,1.4
			c0.3,1,1,1.6,1.8,2.1c0.8,0.5,1.7,0.9,2.5,1.4c2,1.1,4,1.5,6.1,0.1c0.8-0.5,1.7-0.5,2.6-0.4c5,0.7,9.9,0.3,14.2-2.7
			c1.6-1.1,3.5-0.8,5.2-0.2c1,0.4,1.9,0.3,2.8-0.2c2-1,4-2,6.1-3c1.4-0.7,2.8-0.9,4.1,0.1c0.8,0.6,1.4,0.2,2-0.4
			c1.3-1.5,1.8-3.3,2.1-5.2c0.1-0.7-0.4-1.2-1-1.5c-1.2-0.6-1-1.4-0.3-2.2c1.4-1.4,3-2.6,5.1-2.5c0.8,0,1.6,0,2-1
			c0.3-0.9,0.6-1.9-0.1-2.7c-2.3-2.5-2.6-5.6-2.9-8.7c-0.2-2.4-1-4.5-2.3-6.6c-1.5-2.3-2.7-4.8-2.9-7.6c-0.1-1.9-0.8-3.6-1.9-5.2
			c-1.1-1.6-2.2-1.8-3.6-0.4c-1.1,1.1-2.1,1.1-3.3,0.1c-2.2-1.9-4.3-3.9-7-5.1c-1.2-0.5-1.8-1.8-1.2-3c1.1-2.1,0.2-3.7-0.7-5.5
			c-0.2-0.4-0.4-0.7-0.6-1c-1.4-2.3-2-2.4-4.4-1.3c-1.8,0.8-3.8,0.6-5.6,1.3c-0.9,0.3-1.3-0.5-1-1.4c0.2-0.6,0.8-1,1.3-1.4
			c1.5-1.2,1.4-1.5-0.1-2.7c-0.9-0.6-1.7-1-2.9-0.8c-2.5,0.4-3,0-4.1-2.2c-1.4-2.7-2.8-5.3-4.6-7.7c-0.9-1.1-1.8-1.8-3.3-1.4
			c-1.7,0.4-3.4-0.3-5-0.8c-1.3-0.4-2.4-0.2-3.6,0.4c-2,1.1-3,0.7-4.2-1.2c-1-1.6-2.4-2.8-4.3-3.3c-2.4-0.6-4.2-1.9-5.7-3.9
			c-1.2-1.7-2.7-3.1-4.3-4.4c-0.9-0.7-1.6-1.6-2-2.7c-0.9-2.7-3.1-4.2-5.6-5c-1.6-0.5-2.7-1.4-3.1-2.9c-1-3.8-3.8-5.6-7.1-7
			c-1.1-0.5-2.1-0.6-3.1,0.3c-0.9,0.8-2.2,0.4-2.9-0.7c-0.7-1-0.4-1.8,0.6-2.4c0.8-0.5,0.8-1.1,0.4-1.8c-1.4-2.2-2.9-4.2-5.2-5.5
			c-1.4-0.7-2.6-1.7-2.6-3.5c0-0.7-0.5-1-1.1-1.2c-2.5-0.7-3.9-2.8-3.6-5.3c0.4-3.1-0.5-5.8-2.5-8.1c-1.8-2.1-2.5-4.4-2.7-7
			c-0.1-1.1-0.2-2.2-0.3-3.3c-0.4-3.8-2.3-6.2-6-7.3c-4-1.2-7.6-3.3-10.9-6c-1.5-1.2-3.1-2-4.9-2.5c-2-0.5-4-1-5.9-1.6
			c-1-0.3-1.9-0.1-2.9,0.4c-2.1,1.2-4,2.4-4.7,5c-0.2,0.6-0.6,1.3-1.2,1.4c-2.3,0.5-3,2.4-3.6,4.2c-0.7,2-2,3.4-3.8,4.2
			c-2.9,1.3-5.8,2.6-9.2,2.5c-0.8,0-1.7-0.1-1.9-1.1c-0.2-1.1-1.1-2.2,0-3.4c1-1.1,1.9-2.2,2.8-3.3c0.6-0.7,0.8-1.5,0.1-2.4
			c-0.7-0.9-1.3-0.3-2-0.1c-0.9,0.3-1.8,0.8-2.8,0.6c-3.9-1-7.5-2.5-9.8-5.8c-1.8-2.6-2.7-5.6-0.5-8.6c0.7-0.9,1.2-2,1.8-3
			c1-1.8,0.6-2.9-1.4-3.2c-1.9-0.3-3.1-1.4-4-3c-0.8-1.4-1.5-2.9-2.3-4.4c-0.5-1-0.1-1.5,0.8-1.8c1.5-0.4,2.8-1,4.5-0.9
			c1.8,0.1,3.5-1.1,4.9-2.4c0.9-0.9,0.6-4-0.4-4.8c-2.5-2.1-3.7-5.3-5.6-7.9c-1.6-2.2-0.2-4.5,2.5-4.9c0.8-0.1,1.3-0.5,1.6-1.1
			c0.5-0.9,1.2-1.1,2-0.4c1,0.9,2,0.8,3.1,0.3c0.8-0.4,1.7-0.7,2.6-0.6c0.8,0.1,1.4-0.3,1.9-0.7c1.8-1.3,3.6-1.3,5.4,0
			c1,0.7,1.9,0.9,2.6-0.5c0.2-0.3,0.6-0.6,0.9-0.7c2.6-0.7,3.5-2.8,4-5.1c0.5-2.6,2-4.7,3.2-6.9c0.6-1.1,2-1.5,3.3-1.6
			c0.9,0,1.4,0.6,1.4,1.5c0,1,0,2.1-0.1,3.1c-0.4,2.7,2.3,5.6,5,5.5c2-0.1,3.1,1.2,2.8,3.1c-0.1,0.3-0.3,0.8,0,1
			c1,0.8,1.4,1.8,1.7,2.9c0.1,0.3,0.3,0.7,0.7,0.6c0.1,0,0.3-0.1,0.3-0.2c0.2-0.4-0.1-0.7-0.4-0.9c-1.1-0.8-1.1-1.8-0.7-3
			c0.7-1.9,1.6-3.7,3.1-5c1.4-1.3,2-2.9,2.4-4.7c0.1-0.5-0.1-1-0.3-1.4c-0.8-1.6-0.3-2.9,1.2-3.6c1.7-0.8,3.3-0.2,3.9,1.6
			c0.2,0.6,0.2,1.3,0.3,1.9c0.4,2.2,2.6,3,4.3,1.6c0.9-0.7,1.8-1.2,2.9-1.6c1.9-0.6,2.9-0.1,3.4,1.9c0.2,0.6,0.1,1.3,0.6,1.8
			c0.2,0.2,0.4,0.5,0.8,0.4c0.3-0.1,0.5-0.4,0.5-0.7c0-1.2,0-2.3-1.1-3.1c-1.8-1.4-2-2.3-1-4.4c0.6-1.5,1.7-2.6,3.2-3.2
			c1-0.4,2-0.3,2.2,1c0.3,1.2,1.3,1.3,2.1,1.3c1.1-0.1,0.7-1.1,0.7-1.8c-0.2-1.6-0.4-3.3-0.2-4.9c0.1-1.3,0.4-2.5,2.3-2.2
			c0.6,0.1,1.3-0.1,1.9-0.2c1.5-0.4,2.7,0.2,3.5,1.4c0.9,1.3,2.1,1.5,3.4,1.2c1.2-0.2,1.4-1.3,1.5-2.3c0.1-1.3,0.9-2.2,2.1-2.8
			c3.7-1.6,7.5-2.4,11.5-1.3c0.8,0.2,1.5,0.2,2.2-0.1c2.1-0.8,4.2-1.6,6.3-2.4c0.7-0.3,1.6-0.7,2.1,0.3c0.5,0.9,0.2,1.7-0.5,2.5
			c-1.2,1.2-1.2,1.7,0.3,2.7c1.2,0.8,2,2,2.6,3.2c1,2.1,2.5,3.3,4.8,3.5c3.9,0.3,7.5,2,11.4,2.4c2.3,0.2,4.7,0.5,7,0.8
			c1,0.1,2.1,0.4,3.1,0.7c1.7,0.5,2,1.6,1.1,3.1c-0.7,1.1-1.8,1.6-2.8,2.2C246.9,31.3,246.4,31.8,245.8,33.3z"/>
		<path class="st19" d="M147.1,231.4c-0.8,0.7-0.8,2.1-2,1.9c-1.2-0.2-1.4-1.4-1.8-2.4c-0.6-1.4-0.6-2.7,1.2-3.4
			c-0.8-1.3-1.4-2.4-0.1-3.6c0.2-0.2,0.1-0.6-0.1-0.8c-0.9-1.1-0.7-2.4-0.4-3.6c0.6-2.3,1.3-4.5,0.8-6.9c-0.2-0.9,0.4-1.5,1.3-1.8
			c0.8-0.2,1.1-0.7,0.9-1.4c-0.2-0.8-0.9-0.6-1.5-0.6c-1.7,0.2-1.9-0.1-1.7-1.8c0.4-2.5,1.6-4.7,1.5-7.3c-0.2-3.2-1.5-5.9-3-8.6
			c-0.4-0.7-0.9-0.8-1.6-0.3c-1,0.7-2,0.2-1.8-1c0.4-2.5-0.2-5.2,0.8-7.7c0.3-0.7,0.3-1.7,1.3-1.9c0.9-0.2,1.3,0.6,1.8,1.2
			c1.5,1.7,4.2,2,5.9,0.5c0.9-0.7,1.8-1.3,2.9-1.5c0.8-0.2,1.4-0.6,1.8-1.3c1.2-2,2.8-3.5,4.7-4.7c0.7-0.4,1.1-1,1.4-1.7
			c0.5-1.1,1.4-1.4,2.5-1c2.1,0.8,4.1,1.7,5.9,2.9c1.5,1,2.1,2.5,2.6,4.1c0.1,0.2,0.1,0.6,0,0.7c-1.3,1.2-0.2,2.1,0.3,3.1
			c1,1.9,1.8,3.9,2,6.1c0,0.5,0.2,1,0.5,1.4c1.3,2.1,0.9,4.5-0.8,6.2c-2.4,2.2-2.5,3.2-1,6.1c0.5,1,0.9,2,0.7,3
			c-0.9,4.5-0.5,9.1-1.4,13.6c-0.6,2.7-1.1,5.4-1.5,8.1c-0.2,1.6-1.5,2.3-3.1,1.9c-0.9-0.2-1.5-0.7-2.2-1.3
			c-1.4-1.2-3.1-1.4-4.9-1.7c-0.6-0.1-1,0.2-0.9,0.9c0,0.6,0,1.3,0.2,1.9c0.4,2.7-0.9,5.1-3.4,6.2c-0.6,0.3-1.3,0.3-1.9,0.1
			c-0.8-0.3-1.5-0.4-2.3-0.2c-1.1,0.3-1.6-0.5-2.1-1.3C147.9,232.8,147.5,232.2,147.1,231.4z"/>
	</g>
</g>
</svg>
