<?xml version="1.0" encoding="utf-8"?>
<!-- Generator: Adobe Illustrator 24.3.0, SVG Export Plug-In . SVG Version: 6.00 Build 0)  -->
<svg version="1.1" id="Layer_1" xmlns="http://www.w3.org/2000/svg" xmlns:xlink="http://www.w3.org/1999/xlink" x="0px" y="0px"
	 viewBox="0 0 414 300" style="enable-background:new 0 0 414 300;" xml:space="preserve">
<style type="text/css">
	.st0{fill:none;}
	.st1{fill:#F3F2EF;}
	.st2{fill:#C98017;}
	.st3{fill:#FBED60;}
	.st4{fill:#FABA31;}
	.st5{fill:#68C2EE;}
	.st6{fill:#0491BE;}
	.st7{fill:#68C2EF;}
	.st8{fill:#31798F;}
	.st9{fill:#C1BDBE;}
	.st10{fill:#6E6E6E;}
	.st11{fill:#6C6C6C;}
	.st12{fill:#BCBCBC;}
	.st13{fill:#E1E1E1;}
	.st14{fill:#0A0A09;}
	.st15{clip-path:url(#SVGID_2_);fill:#002B7F;}
	.st16{clip-path:url(#SVGID_4_);fill:#CE1126;}
	.st17{fill:#FFD83D;}
</style>
<rect y="16.6" class="st0" width="400" height="300"/>
<path class="st1" d="M312.6,108.5c5.3,5.1,5.3,13.5,0.2,18.8l0,0l-0.2,0.2c-5.3,5.3-13.8,5.3-19.1,0.1c-5.3-5.3-5.3-13.8-0.1-19.1
	C298.7,103.2,307.2,103.2,312.6,108.5L312.6,108.5z M308.2,123.1c1.4-1.3,2.1-3.2,2.1-5.1c0.1-1.9-0.7-3.7-2.1-5
	c-1.4-1.4-3.2-2.1-5.2-2c-3.9-0.1-7.1,3.1-7.2,6.9v0.1c0,1.9,0.7,3.7,2,5.1c1.3,1.4,3.1,2.1,5,2.1
	C304.9,125.3,306.8,124.5,308.2,123.1z M339,110.2l-34.9,54.1c-0.6,1.1-1.8,1.8-3,1.8c-2-0.1-3.6-1.7-3.7-3.7
	c0.1-0.7,0.3-1.5,0.7-2.1l34.9-54.2c0.6-1.1,1.8-1.8,3-1.8c1,0,2,0.4,2.6,1.1c0.7,0.7,1.1,1.7,1,2.6
	C339.7,108.8,339.5,109.5,339,110.2L339,110.2z M324.6,162.1c-5.3-5.3-5.3-13.7,0-19l0.1-0.1c2.5-2.5,5.9-3.9,9.4-3.9
	c7.5-0.1,13.4,5.9,13.5,13.4s-5.9,13.4-13.4,13.5C330.6,166.2,327.1,164.7,324.6,162.1z M328.9,147.5c-2.8,2.7-2.9,7.2-0.2,10
	l0.1,0.1l0.1,0.1c2.8,2.8,7.2,2.8,10,0.1c1.5-1.4,2.2-3.4,2.1-5.4c-0.1-3.8-3.2-6.9-7-7C332.2,145.4,330.3,146.2,328.9,147.5
	L328.9,147.5z"/>
<g>
	
		<ellipse transform="matrix(0.2051 -0.9787 0.9787 0.2051 188.946 323.5177)" class="st2" cx="293.6" cy="45.4" rx="27.2" ry="49.6"/>
	
		<ellipse transform="matrix(0.225 -0.9744 0.9744 0.225 188.8703 318.8589)" class="st3" cx="294.9" cy="40.7" rx="24.1" ry="49.6"/>
	
		<ellipse transform="matrix(0.225 -0.9744 0.9744 0.225 188.8703 318.8589)" class="st4" cx="294.9" cy="40.7" rx="19.3" ry="39.7"/>
	<path class="st2" d="M281.4,44c0.6,2.6,5.1,4.8,9.8,5.4c3,0.3,5.5-0.3,6.7-1.4l0.7-0.6l1.3,0.4c1.3,0.4,2.8,0.9,4.4,1
		c4.8,0.6,8.1-1.1,7.4-3.5l-0.3-0.9l5,0.7c1,0.1,1.8-0.1,1.7-0.9c-0.1-0.6-1.1-1-2.1-1.1l-5-0.7l-0.9-3.4l5,0.7
		c1,0.1,1.8-0.1,1.6-0.7c-0.4-0.7-1.3-1.1-2.1-1.1l-5-0.7l-0.7-2.8c-0.1-0.6-1.1-1-2.1-1.1c-1-0.1-1.8,0.1-1.6,0.7l0.6,2.7
		l-23.4-2.4l-0.4-2.7c-0.1-0.6-1.1-1-2.1-1.1c-1-0.1-1.8,0.1-1.6,0.7l0.6,2.7l-5-0.7c-1-0.1-1.8,0.1-1.7,0.9c0.1,0.6,1.1,1,2.1,1.1
		l5,0.7l0.9,3.5l-5-0.7c-1-0.1-1.8,0.1-1.6,0.7c0.4,0.7,1.3,1.1,2.1,1.1l5,0.7L281.4,44z M306.5,38.8l1.6,6.1
		c0.3,1.4-1.6,2.3-4.1,2.1c-2.7-0.1-5.4-1.7-5.7-3.1l-1.6-6.1L306.5,38.8z M283.2,36.2l9.8,1.1l2.1,7.9c0.3,1.4-1.6,2.3-4.1,2.1
		s-5.2-1.6-5.7-3.1L283.2,36.2z"/>
</g>
<g>
	
		<ellipse transform="matrix(0.7396 -0.6731 0.6731 0.7396 -62.3027 293.3477)" class="st5" cx="347.9" cy="227.2" rx="59.5" ry="28.7"/>
	
		<ellipse transform="matrix(0.7396 -0.6731 0.6731 0.7396 -60.124 290.8922)" class="st6" cx="345.8" cy="223.1" rx="58.2" ry="26.7"/>
	
		<ellipse transform="matrix(0.7396 -0.6731 0.6731 0.7396 -60.124 290.8922)" class="st7" cx="345.8" cy="223.1" rx="46.7" ry="21.4"/>
	<path class="st8" d="M354.1,216.2l10.4-7.7c-1-1-1.8-1.8-2.5-2.9c-0.4-0.6-1-0.2-1.9,0.6c-3.5,2.4-6.8,4.8-10.2,7.4
		c-2.2,1.7-3.6,2.1-5,1.8c-1.8-0.3-2.1-0.3-4.4,2.5l2.7,0.4c-3.6,2.8-7.1,4.9-10.4,7.6l9,9.9c0.2,0.1,0.4,0.2,1-0.2
		c1.7-1.1,3.4-2.2,5.3-3.5l-6.2-6.8c2-1.3,3.8-2.6,5.6-4c2.2-1.8,3.7-2.2,5.2-1.9c1.8,0.4,1.9,0.2,4.4-2.5L354.1,216.2z"/>
</g>
<g>
	<ellipse class="st9" cx="72.8" cy="97.9" rx="43.8" ry="50.4"/>
	<ellipse class="st10" cx="67.5" cy="96.1" rx="42.3" ry="48.8"/>
	<ellipse class="st9" cx="67.5" cy="96.1" rx="33.9" ry="39.1"/>
	<path class="st10" d="M74.9,73.6c4.5,0,8,3.8,8.2,9.3c0.2,5-3.1,9.1-7.1,9.7c-0.6,0.1-1.2,0.2-1.7,0.1c-1.9-0.2-3.5,1.2-3.6,3v0.6
		c0,2.2,1.4,3.8,3.4,3.7c4-0.2,7.5,2.8,8.4,7.3c0.9,3.5-0.2,7.1-2.8,9.6c-2.1,2.4-5.7,3-8.4,1.4c-3.1-1.5-4.7-4.4-5-8.2
		c-0.1-1.9,0.2-3.7,1-5.3c0.7-1.4,0.3-3-0.7-4.2c-0.9-1-2.3-1.2-3.5-0.6c-0.5,0.3-0.9,0.7-1.2,1.3c-2.1,3.5-5,4.9-8.4,3.9
		c-3.5-0.8-5.7-3.5-6.5-7.6c-1.2-5.8,3.5-11.7,8.6-11.2c3.4,0.2,5.7,2.2,7.2,5.7c0.5,1.5,2.1,2.3,3.5,2c0.1,0,0.1,0,0.2-0.1
		c0.2-0.1,0.2-0.1,0.5-0.2c1.6-1,2.3-3.2,1.4-5c-0.8-1.6-1.4-3.4-1.5-5.1C66.4,77.8,70,73.7,74.9,73.6z"/>
</g>
<g>
	<path class="st11" d="M71.1,223.5c2.3,0.6,4.6,1.3,6.8,2.3l0.5,0.1c0.2,0.2,0.6,0.5,1,0.6l0.2,0.1c0.5,1,1.9,1.4,2.9,2.3
		c0.6,0.5,0.5,1.1,1.4,1.2c0.6,1.3,1.8,2.7,2.4,4.3c-0.1,0.1,0,0.2,0.1,0.4h0.1c0.1,1,0.2,1.9,0.6,2.9c0,0-0.5,0.1-0.1,0.2
		c-0.1,2.4-0.7,4.8-1.7,7c-1.2,1.4-2,3.7-3.6,5.1C70,265,30.1,272.7,20,255c0.1-0.2-0.4-0.2-0.4-0.6s0.2-0.5-0.1-0.6
		c-1.1-1.1-0.6-4.2-1-5.2c0.1-0.4,0.1-0.7,0-1.1c0.2-0.6,0.2-1.3,0.7-1.8c0.4-1.4,0.8-2.7,1.4-4c0.4-0.4,0.6-0.7,0.8-1.2
		c1.7-2.4,3.6-4.4,5.8-6.2c0.1-0.5,1-0.5,0.8-1.1c0.1,0.1,0.2,0,0.4-0.1V233c2.5-1.7,5.6-3.4,8.3-5.1c0.2,0,0.6-0.1,0.7-0.4
		c4.6-1.8,9.5-3.3,14.4-4.4c0.6,0.1,1.3,0,1.8-0.4c1.4,0,2.9-0.1,4.3-0.5c0.2,0,0.5,0.2,0.6-0.1c1.3,0.4,3-0.1,4.4,0.1
		c0.4-0.4,0.8,0.2,1.2-0.2c0.2,0.1,0.2-0.1,0.5-0.1c0.1,0.6,0.6,0.2,1,0.2C67.2,223.3,69,222.8,71.1,223.5z M79.5,245.2
		c6.7-11.1-4.6-18.1-14-19.1c-23.8-2.5-47.4,14.6-40,27.2c3.6,7,13.1,8.1,20.3,8.4c12.6-0.8,26.3-5.1,33.5-16.1L79.5,245.2z"/>
	<path class="st12" d="M79.4,245.6c-7.3,11.1-21,15.2-33.5,16.1c-7.1-0.4-16.8-1.4-20.3-8.4c-0.6-3.6,0.1-7.1,2-10.2
		c6.1-8.1,14.3-11.1,22.7-13.7c4.2-0.2,8.8-1.5,13.1-0.7c8.9,0.1,20.2,6.2,16.2,16.4C79.3,245,78.9,245.5,79.4,245.6z M53.3,237.2
		C53.7,237.3,53.6,236.6,53.3,237.2c-5.1,0.2-10.1,0.8-15.3,1.3l6.4,8c0.5-1.9,0.7-4,1.1-5.8C48.2,239.6,50.7,238.5,53.3,237.2z
		 M58.4,236.5c-3.7,1.1-7.5,3.2-11.3,4.6c-0.4,1.1-0.6,2.3-0.7,3.4c-0.4,1.4-0.6,2.9-0.8,4.3c0.2,0.2,0.5-0.1,0.7,0
		c7.5-0.4,15.3-0.6,23-1.3C65.8,244,62.4,239.6,58.4,236.5z"/>
	<path class="st12" d="M87.7,239.2l-0.1,0.2c0,1.4,0.2,2.9,0.7,4.3c-0.2,0.6,0.1,1.3-0.2,1.9c0.1,2.3-1.2,4.4-1.9,6.7
		c-1.8,2.4-3.7,4.8-5.8,6.9c-0.1,0-0.2,0-0.2,0.1v0.1c-1.4,0.7-2.9,2.5-4.5,3.2c-1.4,1.1-3.3,1.4-4.3,2.7c-0.1-0.1-0.2,0-0.4,0.1
		v0.1c-0.5-0.2-1,0-1.2,0.5c-0.1,0-0.2,0-0.4,0.2c-0.5-0.2-1,0-1.2,0.5c-0.1-0.1-0.2,0-0.4,0.2c-0.1-0.1-0.2,0-0.4,0.1v0.1
		c-0.4-0.1-0.6,0-0.8,0.2l0,0c-0.6-0.1-0.7,0-1,0.6c-3.8,0.8-7.8,2.3-11.9,3c-1,0.1-3-0.1-3.7,0.6c-1.8-0.4-4,0.4-6.1-0.1
		c-0.5,0.4-1-0.2-1.3,0.1c-4.8-0.6-9.6-1.3-13.8-3.6c-1.4-0.7-2.9-2.1-4.4-2.9c0-0.6-0.6-0.8-1.2-1.4c-1.8-2.5-2.9-5.5-3.1-8.6
		c11.2,18.6,51.3,8.8,61.5-5.4c1.5-1.3,2.5-3.4,3.6-5.1c1-2.3,1.5-4.6,1.7-7c0.6,0.4,0.4,1.1,0.5,1.5L87.7,239.2z"/>
	<path class="st13" d="M79.5,245.2c4-10.7-7.8-16.2-16.2-16.4c-4.3-0.8-8.8,0.5-13.1,0.7c-9,2.6-17.1,6.2-22.7,13.7
		c-1.2,2.1-2,4.5-2.4,6.9c-0.1,1.2,0.6,2,0.2,3.3c-3-4.6-0.7-10.1,2.5-14.2c9.4-10.8,25.8-14.3,37.5-13.1
		C78.2,227.7,85.1,236.2,79.5,245.2z"/>
	<path class="st13" d="M79.4,245.6c-0.1,0-0.2-0.2-0.2-0.4s0.2-0.2,0.4-0.2L79.4,245.6z"/>
	<path class="st11" d="M58.6,236.5c3.8,3.1,7.1,7.4,10.9,10.9c-7.4,0.7-15.3,1-23,1.3c2.4-2,6.4-3.6,9.4-5.1
		C56.8,241.3,57.6,239,58.6,236.5z"/>
	<path class="st14" d="M58.6,236.5c-0.8,2.4-1.8,4.6-2.6,7.3c-3,1.5-6.8,3-9.4,5.1c-0.2-0.1-0.5,0.4-0.7,0c0.2-1.4,0.5-2.9,0.8-4.3
		c0.1-1.2,0.4-2.4,0.7-3.4C51,239.8,54.9,237.5,58.6,236.5z"/>
	<path class="st11" d="M53.3,237.3l-7.8,3.3c-0.4,1.7-0.6,3.8-1.1,5.8l-6.4-8C43.2,238.1,48.2,237.4,53.3,237.3z"/>
</g>
<g>
	<g>
		<g>
			<defs>
				<path id="SVGID_1_" d="M253.8,225.5c-0.6,4.3-2.8,6.6-7.4,6.3c-1.2-0.1-2.1,0.5-2.5,1.5c-1.6,3.4-4.1,4.3-7.5,2.7
					c-1.5,1.6-2.1,3.6-1.2,4.9c2.8,3.6,1.2,6.8,0.1,10.3c-0.9,2.8-1.8,4.4-5.7,5.1c-3.9,0.8-7.9,3.6-11.7,6c-3.1,2-6.1,3.3-10,3
					c-3.9-0.3-7.8,0.9-11.4,2.9c-4.9,2.6-6.6,1.7-7.7-3.9c-0.5-2.5-0.6-5-2.5-7.1c-5.2-5.6-7.4-6.2-14.8-3.9
					c-5.2,1.6-10.8,2-14.9,6.4c-1.2,1.3-4.4,1.3-6.5,0.9c-2.5-0.4-3.9,0.6-5.1,2.6c-7.3-6.2-6.6,3.3-10,4.9
					c-2.8-1.4-2.5-4.1-3.1-6.6c-2.1-0.3-3.2,1-4.4,2.7c-2.2-3.3-2.6-6.8-3.3-10.3c-0.6-2.9,1.5-4.5,3.8-5.6
					c9.1-4.4,16.7-11.1,24.8-17c7.9-5.8,10.1-13.6,9.2-22.3c-1.2-11.5-3.6-22.9-5.7-34.3c-1.2-6.7-4.4-12.5-7.8-18.4
					c-12-20.9-17.5-42.6-4.4-65.4c2.1-3.6,3.4-7.6,3.9-11.8c0.4-4.7,2.2-9,4.8-13c6.9-10.6,12.7-21.8,16.7-33.9
					c1.5-4.5,2.7-9,2.3-13.7c0.4,0,0.7,0,1,0c2.1,1.9,5.8,3.6,6,5.8c0.6,4.9,4.2,6.2,7.2,8.7c4.4,3.6,8.7,7.3,11.9,12.2
					c2.6,3.9,2.8,7.1-0.6,10.6c-3.9,4-6.3,8.9-7.8,13.8c1.7,3.3,4.3,0,6.3,1.7c4,3.3,8.3,6.1,11.3,10.6c7.2,10.9,7.2,14.6-0.9,25.3
					c-1.5,2-0.9,3.9-0.9,5.9c0.3,6.2,1.3,12.6-5.5,16.4c-0.5,0.3-0.8,1.2-0.2,2c2,1.1,4.2,0.6,6.4,0.3c1.5-0.2,3.1-1.6,4.4-0.3
					c6,6,15.1,8.7,17.7,18.6c2.5,9.3,5.8,9.9,13.5,4.2c0.2-0.1,0.7-0.1,1.3-0.1c0.5,2.7,3.3,4.4,2.8,7.7c-1.2,6.6-1.5,12.9,5.5,16.9
					c0.9,0.5,1.8,1.2,1.7,3.1c-1.1,1.5-2.2,3.8-3.9,5.2c-4.2,3.4-2.8,9.1-5.5,13.1c-0.5,0.7,0,2.3,1.1,2.5c4.7,1.2,6,5.8,9.2,8.4
					C253.8,215.8,253.8,220.6,253.8,225.5z"/>
			</defs>
			<clipPath id="SVGID_2_">
				<use xlink:href="#SVGID_1_"  style="overflow:visible;"/>
			</clipPath>
			<rect x="87.2" y="15.8" class="st15" width="427.4" height="256.4"/>
		</g>
	</g>
	<g>
		<g>
			<defs>
				<path id="SVGID_3_" d="M253.8,225.5c-0.6,4.3-2.8,6.6-7.4,6.3c-1.2-0.1-2.1,0.5-2.5,1.5c-1.6,3.4-4.1,4.3-7.5,2.7
					c-1.5,1.6-2.1,3.6-1.2,4.9c2.8,3.6,1.2,6.8,0.1,10.3c-0.9,2.8-1.8,4.4-5.7,5.1c-3.9,0.8-7.9,3.6-11.7,6c-3.1,2-6.1,3.3-10,3
					c-3.9-0.3-7.8,0.9-11.4,2.9c-4.9,2.6-6.6,1.7-7.7-3.9c-0.5-2.5-0.6-5-2.5-7.1c-5.2-5.6-7.4-6.2-14.8-3.9
					c-5.2,1.6-10.8,2-14.9,6.4c-1.2,1.3-4.4,1.3-6.5,0.9c-2.5-0.4-3.9,0.6-5.1,2.6c-7.3-6.2-6.6,3.3-10,4.9
					c-2.8-1.4-2.5-4.1-3.1-6.6c-2.1-0.3-3.2,1-4.4,2.7c-2.2-3.3-2.6-6.8-3.3-10.3c-0.6-2.9,1.5-4.5,3.8-5.6
					c9.1-4.4,16.7-11.1,24.8-17c7.9-5.8,10.1-13.6,9.2-22.3c-1.2-11.5-3.6-22.9-5.7-34.3c-1.2-6.7-4.4-12.5-7.8-18.4
					c-12-20.9-17.5-42.6-4.4-65.4c2.1-3.6,3.4-7.6,3.9-11.8c0.4-4.7,2.2-9,4.8-13c6.9-10.6,12.7-21.8,16.7-33.9
					c1.5-4.5,2.7-9,2.3-13.7c0.4,0,0.7,0,1,0c2.1,1.9,5.8,3.6,6,5.8c0.6,4.9,4.2,6.2,7.2,8.7c4.4,3.6,8.7,7.3,11.9,12.2
					c2.6,3.9,2.8,7.1-0.6,10.6c-3.9,4-6.3,8.9-7.8,13.8c1.7,3.3,4.3,0,6.3,1.7c4,3.3,8.3,6.1,11.3,10.6c7.2,10.9,7.2,14.6-0.9,25.3
					c-1.5,2-0.9,3.9-0.9,5.9c0.3,6.2,1.3,12.6-5.5,16.4c-0.5,0.3-0.8,1.2-0.2,2c2,1.1,4.2,0.6,6.4,0.3c1.5-0.2,3.1-1.6,4.4-0.3
					c6,6,15.1,8.7,17.7,18.6c2.5,9.3,5.8,9.9,13.5,4.2c0.2-0.1,0.7-0.1,1.3-0.1c0.5,2.7,3.3,4.4,2.8,7.7c-1.2,6.6-1.5,12.9,5.5,16.9
					c0.9,0.5,1.8,1.2,1.7,3.1c-1.1,1.5-2.2,3.8-3.9,5.2c-4.2,3.4-2.8,9.1-5.5,13.1c-0.5,0.7,0,2.3,1.1,2.5c4.7,1.2,6,5.8,9.2,8.4
					C253.8,215.8,253.8,220.6,253.8,225.5z"/>
			</defs>
			<clipPath id="SVGID_4_">
				<use xlink:href="#SVGID_3_"  style="overflow:visible;"/>
			</clipPath>
			<rect x="87.2" y="144" class="st16" width="427.4" height="128.3"/>
		</g>
	</g>
</g>
<g>
	<path d="M172.7,18.5c2.1,1.9,5.8,3.6,6,5.8c0.6,4.9,4.2,6.2,7.2,8.7c4.4,3.6,8.7,7.3,11.9,12.2c2.6,3.9,2.8,7.1-0.6,10.6
		c-3.9,4-6.3,8.9-7.8,13.8c0.7,1.2,1.4,1.5,2.2,1.5c0.9,0,1.8-0.4,2.7-0.4c0.5,0,0.9,0.1,1.4,0.5c4,3.3,8.3,6.1,11.3,10.6
		c7.2,10.9,7.2,14.6-0.9,25.3c-1.5,2-0.9,3.9-0.9,5.9c0.3,6.2,1.3,12.6-5.5,16.4c-0.5,0.3-0.8,1.2-0.2,2c0.9,0.5,1.9,0.7,2.9,0.7
		c1.2,0,2.3-0.2,3.5-0.4c1-0.1,2.1-0.9,3.1-0.9c0.4,0,0.9,0.1,1.3,0.5c6,6,15.1,8.7,17.7,18.6c1.5,5.5,3.1,7.9,5.8,7.9
		c2,0,4.4-1.3,7.6-3.6c0.1-0.1,0.4-0.1,0.6-0.1c0.1,0,0.1,0,0.1,0c0.1,0,0.4,0,0.6,0c0.5,2.7,3.3,4.4,2.8,7.7
		c-1.2,6.6-1.5,12.9,5.5,16.9c0.9,0.5,1.8,1.2,1.7,3.1c-1.1,1.5-2.2,3.8-3.9,5.2c-4.2,3.4-2.8,9.1-5.5,13.1c-0.5,0.7,0,2.3,1.1,2.5
		c4.7,1.2,6,5.8,9.2,8.4c0,4.9,0,9.7,0,14.6c-0.6,4-2.6,6.3-6.6,6.3c-0.3,0-0.5,0-0.8,0c-0.1,0-0.1,0-0.2,0c-1.1,0-1.9,0.6-2.3,1.5
		c-1.1,2.3-2.6,3.5-4.5,3.5c-0.9,0-1.9-0.3-3-0.7c-1.5,1.6-2.1,3.6-1.2,4.9c2.8,3.6,1.2,6.8,0.1,10.3c-0.9,2.8-1.8,4.4-5.7,5.1
		c-3.9,0.8-7.9,3.6-11.7,6c-2.8,1.7-5.5,3.1-9,3.1c-0.4,0-0.7,0-1.1-0.1c-0.4,0-0.7-0.1-1.2-0.1c-3.5,0-7.1,1.2-10.3,3
		c-1.7,0.9-3.1,1.4-4.1,1.4c-2,0-2.9-1.7-3.6-5.3c-0.5-2.5-0.6-5-2.5-7.1c-3.3-3.6-5.5-5.2-8.6-5.2c-1.7,0-3.6,0.4-6.3,1.2
		c-5.2,1.6-10.8,2-14.9,6.4c-0.8,0.9-2.5,1.2-4.1,1.2c-0.9,0-1.7-0.1-2.4-0.2c-0.4-0.1-0.7-0.1-1-0.1c-1.9,0-3,0.9-4.1,2.7
		c-1.7-1.5-3.1-2.1-4.1-2.1c-3.1,0-3.3,5.8-6,7c-2.8-1.4-2.5-4.1-3.1-6.6c-0.2,0-0.4-0.1-0.6-0.1c-1.7,0-2.8,1.2-3.8,2.8
		c-2.2-3.3-2.6-6.8-3.3-10.3c-0.6-2.9,1.5-4.5,3.8-5.6c9.1-4.4,16.7-11.1,24.8-17c7.9-5.8,10.1-13.6,9.2-22.3
		c-1.2-11.5-3.6-22.9-5.7-34.3c-1.2-6.7-4.4-12.5-7.8-18.4c-12-20.9-17.5-42.6-4.4-65.4c2.1-3.6,3.4-7.6,3.9-11.8
		c0.4-4.7,2.2-9,4.8-13c6.9-10.6,12.7-21.8,16.7-33.9c1.5-4.5,2.7-9,2.3-13.7C171.9,18.5,172.3,18.5,172.7,18.5 M173.2,17.1h-0.6
		h-0.9h-1.5l0.1,1.5c0.3,4.7-0.9,9.1-2.3,13.1c-3.9,11.4-9.3,22.4-16.6,33.6c-2.9,4.5-4.6,9-5,13.7c-0.4,3.9-1.6,7.6-3.6,11.2
		c-6.4,11.1-8.9,22.3-7.5,34.3c1.2,10,5,20.7,11.9,32.5c3.3,5.8,6.4,11.5,7.6,18c0.4,2.3,0.9,4.6,1.2,6.8c1.7,9,3.4,18.2,4.4,27.4
		s-1.8,16.1-8.6,21c-2.1,1.5-4.2,3.1-6.3,4.7c-5.8,4.4-11.7,9-18.3,12.2c-3.6,1.7-5.2,4.1-4.6,7.2c0.1,0.4,0.1,0.7,0.2,1.2
		c0.6,3.2,1.2,6.6,3.3,9.8l1.2,1.7l1.2-1.7c0.8-1.1,1.4-1.7,2-2c0,0.1,0,0.2,0.1,0.3c0.4,2,0.8,4.7,3.6,6l0.6,0.3l0.7-0.3
		c1.7-0.7,2.5-2.5,3.3-4.1s1.4-2.7,2.1-2.7c0.4,0,1.3,0.2,3.1,1.7l1.3,1.1l0.9-1.4c1.1-1.7,1.8-2,2.8-2c0.2,0,0.5,0,0.8,0.1
		c0.9,0.1,1.7,0.2,2.6,0.2c2.4,0,4.1-0.5,5.2-1.6c2.9-3.1,6.6-4,10.6-5c1.2-0.3,2.5-0.7,3.7-1c2.7-0.8,4.4-1.2,5.8-1.2
		c2.5,0,4.2,1.1,7.5,4.7c1.4,1.5,1.6,3.2,2,5.2c0.1,0.4,0.1,0.9,0.2,1.2c0.4,2.1,1.2,6.5,5,6.5c1.2,0,2.8-0.5,4.8-1.6
		c3.4-1.8,6.6-2.8,9.6-2.8c0.4,0,0.7,0,1,0.1c0.4,0,0.8,0.1,1.2,0.1c3.7,0,6.6-1.3,9.8-3.3c0.6-0.4,1.2-0.7,1.8-1.2
		c3.1-2,6.4-4.1,9.4-4.7c4.4-0.9,5.7-2.7,6.8-6.1c0.1-0.4,0.2-0.8,0.4-1.2c1-3.1,2.2-6.7-0.7-10.4c-0.4-0.4-0.1-1.3,0.4-2.3
		c0.9,0.3,1.7,0.4,2.5,0.4c1.7,0,4.1-0.7,5.8-4.3c0.2-0.4,0.6-0.7,1-0.7h0.1c0.3,0,0.6,0,0.9,0c3.2,0,7.2-1.3,8.1-7.6v-0.1v-0.1V211
		v-0.7l-0.5-0.4c-1-0.9-1.9-2-2.8-3.2c-1.7-2.2-3.6-4.7-7.1-5.6c-0.1,0-0.2-0.3-0.2-0.4c1.2-1.9,1.7-4.1,2.1-6.1
		c0.5-2.6,1-4.9,3.1-6.6c1.5-1.2,2.4-2.8,3.3-4.1c0.3-0.5,0.7-1,0.9-1.4l0.3-0.4v-0.4c0-2.9-1.7-3.9-2.5-4.4
		c-5.8-3.3-6.1-8.1-4.8-15.4c0.4-2.5-0.7-4.4-1.6-5.8c-0.5-0.8-1-1.6-1.2-2.4l-0.2-1.3l-1.3,0.1c-0.1,0-0.4,0-0.4,0h-0.1h-0.1
		c-0.4,0-0.9,0-1.5,0.4c-3.1,2.3-5.3,3.3-6.8,3.3c-1.2,0-2.8-0.8-4.4-6.8c-1.9-7.3-7.1-10.8-11.9-14.3c-2.2-1.6-4.3-3.1-6.1-4.8
		c-0.7-0.7-1.4-0.9-2.3-0.9c-0.8,0-1.6,0.3-2.3,0.5c-0.4,0.1-0.8,0.3-1.1,0.4c-0.2,0-0.4,0.1-0.7,0.1c-0.9,0.1-1.8,0.3-2.6,0.3
		c-0.6,0-1.1-0.1-1.6-0.2c6.7-3.9,6.3-10.3,6-16c0-0.5-0.1-1-0.1-1.5c0-0.4-0.1-0.7-0.1-1.1c-0.1-1.5-0.2-2.7,0.7-3.9
		c8.4-11.1,8.5-15.4,0.9-26.9c-2.4-3.6-5.8-6.3-8.9-8.7c-0.9-0.7-1.7-1.4-2.6-2.1c-0.7-0.5-1.5-0.8-2.3-0.8c-0.6,0-1.2,0.1-1.7,0.2
		c-0.4,0.1-0.7,0.1-1,0.1c-0.1,0-0.4,0-0.6-0.3c1.7-5.1,4.1-9.3,7.3-12.5c3.7-3.9,3.9-7.6,0.7-12.4c-3.4-5.1-7.9-9-12.2-12.4
		c-0.7-0.6-1.4-1-2-1.5c-2.3-1.7-4.2-3-4.6-6.2c-0.3-2.1-2.3-3.6-4.4-5c-0.8-0.6-1.5-1.1-2.2-1.7L173.2,17.1L173.2,17.1z"/>
</g>
<g id="half">
	<g>
		<path class="st17" d="M173,86l-0.5,17.6h-17.9c-2.2-4.3-4-7.9-4-12.8c0-4.1,3.2-7.4,7.9-7.4C163.4,83.4,168.8,85.1,173,86z"/>
	</g>
	<g>
		<g>
			<path class="st17" d="M152.7,86.8V97"/>
			<path d="M152.7,97.4c-0.2,0-0.4-0.1-0.4-0.4V86.8c0-0.2,0.1-0.4,0.4-0.4c0.2,0,0.4,0.1,0.4,0.4V97
				C153,97.1,152.9,97.4,152.7,97.4z"/>
		</g>
		<g>
			<path class="st17" d="M154.1,85.8v13.5"/>
			<path d="M154.1,99.7c-0.2,0-0.4-0.1-0.4-0.4V85.8c0-0.2,0.1-0.4,0.4-0.4c0.2,0,0.4,0.1,0.4,0.4v13.5
				C154.5,99.5,154.3,99.7,154.1,99.7z"/>
		</g>
		<g>
			<path class="st17" d="M155.6,85.1v16.2"/>
			<path d="M155.6,101.6c-0.2,0-0.4-0.1-0.4-0.4V85.1c0-0.2,0.1-0.4,0.4-0.4c0.2,0,0.4,0.1,0.4,0.4v16.2
				C155.9,101.4,155.7,101.6,155.6,101.6z"/>
		</g>
		<g>
			<path class="st17" d="M157,84.7v12.7"/>
			<path d="M157,97.7c-0.2,0-0.4-0.1-0.4-0.4V84.7c0-0.2,0.1-0.4,0.4-0.4s0.4,0.1,0.4,0.4v12.7C157.3,97.6,157.2,97.7,157,97.7z"/>
		</g>
		<g>
			<path class="st17" d="M158.4,84.6v12.8"/>
			<path d="M158.4,97.8c-0.2,0-0.4-0.1-0.4-0.4V84.6c0-0.2,0.1-0.4,0.4-0.4s0.4,0.1,0.4,0.4v12.8C158.8,97.6,158.6,97.8,158.4,97.8z
				"/>
		</g>
		<g>
			<path class="st17" d="M159.9,84.2v13.2"/>
			<path d="M159.9,97.8c-0.2,0-0.4-0.1-0.4-0.4V84.2c0-0.2,0.1-0.4,0.4-0.4c0.2,0,0.4,0.1,0.4,0.4v13.2
				C160.2,97.6,160.1,97.8,159.9,97.8z"/>
		</g>
		<g>
			<path class="st17" d="M161.3,84.2v13.2"/>
			<path d="M161.3,97.8c-0.2,0-0.4-0.1-0.4-0.4V84.2c0-0.2,0.1-0.4,0.4-0.4c0.2,0,0.4,0.1,0.4,0.4v13.2
				C161.7,97.6,161.5,97.8,161.3,97.8z"/>
		</g>
		<g>
			<path class="st17" d="M162.7,84.3v13.2"/>
			<path d="M162.7,97.9c-0.2,0-0.4-0.1-0.4-0.4V84.3c0-0.2,0.1-0.4,0.4-0.4s0.4,0.1,0.4,0.4v13.2C163.1,97.7,162.9,97.9,162.7,97.9z
				"/>
		</g>
		<g>
			<path class="st17" d="M164.2,84.5v13.2"/>
			<path d="M164.2,98c-0.2,0-0.4-0.1-0.4-0.4V84.4c0-0.2,0.1-0.4,0.4-0.4c0.2,0,0.4,0.1,0.4,0.4v13.2C164.5,97.9,164.4,98,164.2,98z
				"/>
		</g>
		<g>
			<path class="st17" d="M165.6,85.3v13.2"/>
			<path d="M165.6,98.9c-0.2,0-0.4-0.1-0.4-0.4V85.3c0-0.2,0.1-0.4,0.4-0.4c0.2,0,0.4,0.1,0.4,0.4v13.2
				C166,98.7,165.8,98.9,165.6,98.9z"/>
		</g>
		<g>
			<path class="st17" d="M167.1,85.4v14.9"/>
			<path d="M167.1,100.7c-0.2,0-0.4-0.1-0.4-0.4V85.4c0-0.2,0.1-0.4,0.4-0.4s0.4,0.1,0.4,0.4v14.9
				C167.4,100.6,167.2,100.7,167.1,100.7z"/>
		</g>
		<g>
			<path class="st17" d="M168.5,85.4v13.2"/>
			<path d="M168.5,99c-0.2,0-0.4-0.1-0.4-0.4V85.4c0-0.2,0.1-0.4,0.4-0.4c0.2,0,0.4,0.1,0.4,0.4v13.2C168.8,98.9,168.7,99,168.5,99z
				"/>
		</g>
		<g>
			<path class="st17" d="M169.9,85.4v13.2"/>
			<path d="M169.9,99c-0.2,0-0.4-0.1-0.4-0.4V85.4c0-0.2,0.1-0.4,0.4-0.4c0.2,0,0.4,0.1,0.4,0.4v13.2C170.3,98.9,170.1,99,169.9,99z
				"/>
		</g>
		<g>
			<path d="M161.7,84.8c3.1,0.5,9.7,3.6,9,7.9c-1.1,6-4.6,3.6-9.2,2.7l-3.5,1.2c-1.2,1.3-3.1,2.5-4.4,0.9h-2v8.2h22.9V85.9
				L161.7,84.8z"/>
			<path d="M174.4,105.9h-22.9c-0.2,0-0.4-0.1-0.4-0.4v-8.1c0-0.2,0.1-0.4,0.4-0.4h2c0.1,0,0.2,0.1,0.3,0.1c0.3,0.4,0.7,0.6,1.1,0.6
				c1,0.1,2.1-0.9,2.7-1.5c0.1-0.1,0.1-0.1,0.1-0.1l3.5-1.2c0.1,0,0.1,0,0.1,0c0.9,0.1,1.7,0.4,2.5,0.6c1.9,0.5,3.6,0.9,4.7,0.2
				c0.8-0.5,1.3-1.5,1.6-3.3c0.1-0.9-0.1-2-0.7-2.9c-1.7-2.4-5.7-4.1-7.9-4.5c-0.2,0-0.3-0.2-0.3-0.4s0.2-0.4,0.4-0.3l12.7,1.2
				c0.2,0,0.3,0.1,0.3,0.4v19.6C174.8,105.7,174.6,105.9,174.4,105.9z M151.9,105.1h22.2V86.3l-9.1-0.8c2,0.9,4,2.2,5.2,3.8
				c0.8,1.1,1.1,2.3,0.9,3.4c-0.4,2-0.9,3.1-1.9,3.7c-1.4,0.9-3.1,0.4-5.2-0.1c-0.8-0.2-1.6-0.4-2.4-0.6l-3.3,1.1
				c-0.8,0.8-2,1.7-3.2,1.7c-0.6,0-1.1-0.3-1.5-0.7h-1.5v7.4h-0.2V105.1z"/>
		</g>
	</g>
	<g>
		<circle class="st17" cx="171.9" cy="83.4" r="1.4"/>
		<path d="M171.9,85.2c-1,0-1.9-0.9-1.9-1.9s0.9-1.9,1.9-1.9s1.9,0.9,1.9,1.9C173.8,84.4,173,85.2,171.9,85.2z M171.9,82.4
			c-0.5,0-0.9,0.4-0.9,0.9s0.4,0.9,0.9,0.9s0.9-0.4,0.9-0.9C172.9,82.9,172.5,82.4,171.9,82.4z"/>
	</g>
	<g>
		<circle class="st17" cx="168.8" cy="82.6" r="1.4"/>
		<path d="M168.8,84.5c-1,0-1.9-0.9-1.9-1.9s0.9-1.9,1.9-1.9s1.9,0.9,1.9,1.9C170.7,83.7,169.8,84.5,168.8,84.5z M168.8,81.7
			c-0.5,0-0.9,0.4-0.9,0.9s0.4,0.9,0.9,0.9s0.9-0.4,0.9-0.9C169.8,82.1,169.3,81.7,168.8,81.7z"/>
	</g>
	<g>
		<circle class="st17" cx="165.6" cy="81.8" r="1.4"/>
		<path d="M165.6,83.7c-1,0-1.9-0.9-1.9-1.9s0.9-1.9,1.9-1.9s1.9,0.9,1.9,1.9C167.5,82.9,166.7,83.7,165.6,83.7z M165.6,80.9
			c-0.5,0-0.9,0.4-0.9,0.9s0.4,0.9,0.9,0.9s0.9-0.4,0.9-0.9C166.6,81.3,166.1,80.9,165.6,80.9z"/>
	</g>
	<g>
		<circle class="st17" cx="162.5" cy="81.3" r="1.4"/>
		<path d="M162.5,83.2c-1,0-1.9-0.9-1.9-1.9s0.9-1.9,1.9-1.9s1.9,0.9,1.9,1.9C164.3,82.3,163.5,83.2,162.5,83.2z M162.5,80.4
			c-0.5,0-0.9,0.4-0.9,0.9s0.4,0.9,0.9,0.9s0.9-0.4,0.9-0.9S163,80.4,162.5,80.4z"/>
	</g>
	<g>
		<circle class="st17" cx="159.3" cy="81" r="1.4"/>
		<path d="M159.3,82.8c-1,0-1.9-0.9-1.9-1.9s0.9-1.9,1.9-1.9s1.9,0.9,1.9,1.9C161.2,82,160.3,82.8,159.3,82.8z M159.3,80
			c-0.5,0-0.9,0.4-0.9,0.9s0.4,0.9,0.9,0.9s0.9-0.4,0.9-0.9C160.2,80.5,159.8,80,159.3,80z"/>
	</g>
	<g>
		<circle class="st17" cx="156.2" cy="81.1" r="1.4"/>
		<path d="M156.2,83c-1,0-1.9-0.9-1.9-1.9s0.9-1.9,1.9-1.9s1.9,0.9,1.9,1.9C158,82.1,157.2,83,156.2,83z M156.2,80.3
			c-0.5,0-0.9,0.4-0.9,0.9s0.4,0.9,0.9,0.9s0.9-0.4,0.9-0.9S156.7,80.3,156.2,80.3z"/>
	</g>
	<g>
		<circle class="st17" cx="153.2" cy="82.1" r="1.4"/>
		<path d="M153.2,84c-1,0-1.9-0.9-1.9-1.9s0.9-1.9,1.9-1.9s1.9,0.9,1.9,1.9S154.2,84,153.2,84z M153.2,81.3c-0.5,0-0.9,0.4-0.9,0.9
			s0.4,0.9,0.9,0.9s0.9-0.4,0.9-0.9C154,81.6,153.7,81.3,153.2,81.3z"/>
	</g>
	<g>
		<circle class="st17" cx="150.6" cy="84" r="1.4"/>
		<path d="M150.6,85.9c-1,0-1.9-0.9-1.9-1.9s0.9-1.9,1.9-1.9s1.9,0.8,1.9,1.9S151.7,85.9,150.6,85.9z M150.6,83.1
			c-0.5,0-0.9,0.4-0.9,0.9s0.4,0.9,0.9,0.9s0.9-0.4,0.9-0.9C151.6,83.5,151.1,83.1,150.6,83.1z"/>
	</g>
	<g>
		<circle class="st17" cx="148.9" cy="86.6" r="1.4"/>
		<path d="M148.9,88.5c-1,0-1.9-0.9-1.9-1.9s0.9-1.9,1.9-1.9s1.9,0.9,1.9,1.9C150.8,87.6,149.9,88.5,148.9,88.5z M148.9,85.6
			c-0.5,0-0.9,0.4-0.9,0.9s0.4,0.9,0.9,0.9s0.9-0.4,0.9-0.9S149.4,85.6,148.9,85.6z"/>
	</g>
	<g>
		<circle class="st17" cx="148" cy="89.6" r="1.4"/>
		<path d="M148,91.5c-1,0-1.9-0.9-1.9-1.9s0.9-1.9,1.9-1.9s1.9,0.9,1.9,1.9C149.9,90.7,149,91.5,148,91.5z M148,88.7
			c-0.5,0-0.9,0.4-0.9,0.9s0.4,0.9,0.9,0.9s0.9-0.4,0.9-0.9S148.5,88.7,148,88.7z"/>
	</g>
	<g>
		<circle class="st17" cx="148.1" cy="92.8" r="1.4"/>
		<path d="M148.1,94.7c-1,0-1.9-0.9-1.9-1.9s0.9-1.9,1.9-1.9s1.9,0.9,1.9,1.9C149.9,93.8,149.1,94.7,148.1,94.7z M148.1,91.8
			c-0.5,0-0.9,0.4-0.9,0.9s0.4,0.9,0.9,0.9s0.9-0.4,0.9-0.9C149,92.3,148.6,91.8,148.1,91.8z"/>
	</g>
	<g>
		<circle class="st17" cx="148.7" cy="95.8" r="1.4"/>
		<path d="M148.7,97.7c-1,0-1.9-0.9-1.9-1.9s0.9-1.9,1.9-1.9s1.9,0.9,1.9,1.9C150.5,96.8,149.7,97.7,148.7,97.7z M148.7,95
			c-0.5,0-0.9,0.4-0.9,0.9s0.4,0.9,0.9,0.9s0.9-0.4,0.9-0.9S149.2,95,148.7,95z"/>
	</g>
	<g>
		<path class="st17" d="M172.6,85.2l-0.1,1.8c-3.5-0.5-8.4-2.5-13-2.5c-4.2,0-7.5,1.7-7.5,6c0,4.2,1.7,8,4.1,11.9l-2.5,1.2
			c-2.2-4.3-4-7.9-4-12.8c0-4.1,3.2-8.2,8.8-8.2C163.4,82.6,168.5,84.3,172.6,85.2z"/>
		<path d="M153.7,104.1c-0.1,0-0.4-0.1-0.4-0.3c-2.1-4.1-4.1-7.9-4.1-13c0-4.2,3.3-8.7,9.3-8.7c3.9,0,7.7,1,11.1,1.8
			c1.1,0.3,2.1,0.5,3.1,0.7c0.2,0.1,0.4,0.3,0.4,0.5l-0.2,1.9c0,0.1-0.1,0.3-0.1,0.4c-0.1,0.1-0.2,0.1-0.4,0.1
			c-1.2-0.2-2.7-0.6-4.2-0.9c-2.7-0.8-5.8-1.6-8.7-1.6c-2.6,0-7.1,0.7-7.1,5.5c0,4.4,2,8.4,4.1,11.6c0.1,0.1,0.1,0.3,0.1,0.4
			c-0.1,0.1-0.1,0.2-0.2,0.3l-2.5,1.2C153.8,104.1,153.7,104.1,153.7,104.1z M158.4,83.1c-5.4,0-8.3,3.9-8.3,7.7
			c0,4.7,1.8,8.4,3.8,12.2l1.5-0.7c-1.9-3.3-3.9-7.3-3.9-11.7c0-4.1,2.9-6.5,8-6.5c3,0,6.1,0.8,8.9,1.5c1.3,0.4,2.5,0.7,3.6,0.9
			l0.1-0.9c-0.9-0.2-1.7-0.4-2.7-0.7C166,84,162.1,83.1,158.4,83.1z"/>
	</g>
</g>
<g id="half_1_">
	<g>
		<path class="st17" d="M191.2,83.4c4.7,0,7.9,3.3,7.9,7.4c0,4.9-1.8,8.6-4,12.8h-17.9L176.7,86C180.8,85.1,186.2,83.4,191.2,83.4z"
			/>
	</g>
	<g>
		<g>
			<path class="st17" d="M196.9,97V86.8"/>
			<path d="M196.9,97.4c0.2,0,0.4-0.1,0.4-0.4V86.8c0-0.2-0.1-0.4-0.4-0.4c-0.2,0-0.4,0.1-0.4,0.4V97
				C196.5,97.1,196.7,97.4,196.9,97.4z"/>
		</g>
		<g>
			<path class="st17" d="M195.5,99.3V85.8"/>
			<path d="M195.5,99.7c0.2,0,0.4-0.1,0.4-0.4V85.8c0-0.2-0.1-0.4-0.4-0.4s-0.4,0.1-0.4,0.4v13.5C195.2,99.5,195.3,99.7,195.5,99.7z
				"/>
		</g>
		<g>
			<path class="st17" d="M194.1,101.2V85.1"/>
			<path d="M194.1,101.6c0.2,0,0.4-0.1,0.4-0.4V85.1c0-0.2-0.1-0.4-0.4-0.4s-0.4,0.1-0.4,0.4v16.2
				C193.7,101.4,193.9,101.6,194.1,101.6z"/>
		</g>
		<g>
			<path class="st17" d="M192.6,97.4V84.7"/>
			<path d="M192.6,97.7c0.2,0,0.4-0.1,0.4-0.4V84.7c0-0.2-0.1-0.4-0.4-0.4c-0.2,0-0.4,0.1-0.4,0.4v12.7
				C192.3,97.6,192.4,97.7,192.6,97.7z"/>
		</g>
		<g>
			<path class="st17" d="M191.2,97.4V84.6"/>
			<path d="M191.2,97.8c0.2,0,0.4-0.1,0.4-0.4V84.6c0-0.2-0.1-0.4-0.4-0.4c-0.2,0-0.4,0.1-0.4,0.4v12.8
				C190.8,97.6,191,97.8,191.2,97.8z"/>
		</g>
		<g>
			<path class="st17" d="M189.8,97.4V84.2"/>
			<path d="M189.8,97.8c0.2,0,0.4-0.1,0.4-0.4V84.2c0-0.2-0.1-0.4-0.4-0.4c-0.2,0-0.4,0.1-0.4,0.4v13.2
				C189.4,97.6,189.6,97.8,189.8,97.8z"/>
		</g>
		<g>
			<path class="st17" d="M188.3,97.4V84.2"/>
			<path d="M188.3,97.8c0.2,0,0.4-0.1,0.4-0.4V84.2c0-0.2-0.1-0.4-0.4-0.4c-0.2,0-0.4,0.1-0.4,0.4v13.2
				C188,97.6,188.1,97.8,188.3,97.8z"/>
		</g>
		<g>
			<path class="st17" d="M186.9,97.6V84.3"/>
			<path d="M186.9,97.9c0.2,0,0.4-0.1,0.4-0.4V84.3c0-0.2-0.1-0.4-0.4-0.4s-0.4,0.2-0.4,0.4v13.2C186.5,97.7,186.6,97.9,186.9,97.9z
				"/>
		</g>
		<g>
			<path class="st17" d="M185.4,97.6V84.4"/>
			<path d="M185.4,98c0.2,0,0.4-0.1,0.4-0.4V84.4c0-0.2-0.1-0.4-0.4-0.4c-0.2,0-0.4,0.1-0.4,0.4v13.2C185,97.9,185.3,98,185.4,98z"
				/>
		</g>
		<g>
			<path class="st17" d="M184,98.5V85.3"/>
			<path d="M184,98.9c0.2,0,0.4-0.1,0.4-0.4V85.3c0-0.2-0.1-0.4-0.4-0.4c-0.2,0-0.4,0.1-0.4,0.4v13.2
				C183.7,98.7,183.8,98.9,184,98.9z"/>
		</g>
		<g>
			<path class="st17" d="M182.6,100.3V85.4"/>
			<path d="M182.6,100.7c0.2,0,0.4-0.1,0.4-0.4V85.4c0-0.2-0.1-0.4-0.4-0.4s-0.4,0.1-0.4,0.4v14.9
				C182.2,100.6,182.4,100.7,182.6,100.7z"/>
		</g>
		<g>
			<path class="st17" d="M181.1,98.7V85.4"/>
			<path d="M181.1,99c0.2,0,0.4-0.1,0.4-0.4V85.4c0-0.2-0.1-0.4-0.4-0.4s-0.4,0.1-0.4,0.4v13.2C180.8,98.9,180.9,99,181.1,99z"/>
		</g>
		<g>
			<path class="st17" d="M179.7,98.7V85.4"/>
			<path d="M179.7,99c0.2,0,0.4-0.1,0.4-0.4V85.4c0-0.2-0.1-0.4-0.4-0.4c-0.2,0-0.4,0.1-0.4,0.4v13.2C179.3,98.9,179.5,99,179.7,99z
				"/>
		</g>
		<g>
			<path d="M175.1,85.9v19.6H198v-8.1h-2c-1.2,1.5-3.1,0.4-4.4-0.9l-3.5-1.2c-4.7,0.9-8.2,3.3-9.2-2.7c-0.7-4.2,5.9-7.4,9-7.9
				L175.1,85.9z"/>
			<path d="M174.8,105.5V85.9c0-0.2,0.1-0.4,0.3-0.4l12.7-1.2c0.2,0,0.4,0.1,0.4,0.3c0,0.2-0.1,0.4-0.3,0.4
				c-2.3,0.4-6.2,2.1-7.9,4.5c-0.7,0.9-0.9,2-0.7,2.9c0.3,1.7,0.8,2.8,1.6,3.3c1.1,0.7,2.7,0.3,4.7-0.2c0.8-0.2,1.7-0.4,2.5-0.6
				c0.1,0,0.1,0,0.1,0l3.5,1.2c0.1,0,0.1,0.1,0.1,0.1c0.6,0.6,1.7,1.6,2.7,1.5c0.4,0,0.8-0.2,1.1-0.6c0.1-0.1,0.1-0.1,0.3-0.1h2
				c0.2,0,0.4,0.1,0.4,0.4v8.1c0,0.2-0.1,0.4-0.4,0.4h-22.8C174.9,105.9,174.8,105.7,174.8,105.5z M197.7,97.7h-1.5
				c-0.4,0.4-0.9,0.7-1.5,0.7c-1.2,0.1-2.4-0.9-3.2-1.7l-3.3-1.1c-0.9,0.1-1.7,0.4-2.4,0.6c-2,0.5-3.9,1-5.2,0.1
				c-0.9-0.6-1.6-1.8-1.9-3.7c-0.2-1.2,0.1-2.3,0.9-3.4c1.2-1.6,3.2-2.9,5.2-3.8l-9.1,0.8v18.9h22.2v-7.4H197.7z"/>
		</g>
	</g>
	<g>
		<circle class="st17" cx="177.6" cy="83.4" r="1.4"/>
		<path d="M175.8,83.4c0-1,0.9-1.9,1.9-1.9s1.9,0.9,1.9,1.9s-0.9,1.9-1.9,1.9S175.8,84.4,175.8,83.4z M176.8,83.4
			c0,0.5,0.4,0.9,0.9,0.9s0.9-0.4,0.9-0.9s-0.4-0.9-0.9-0.9C177.1,82.4,176.8,82.9,176.8,83.4z"/>
	</g>
	<g>
		<circle class="st17" cx="180.8" cy="82.6" r="1.4"/>
		<path d="M178.9,82.6c0-1,0.9-1.9,1.9-1.9s1.9,0.9,1.9,1.9s-0.9,1.9-1.9,1.9S178.9,83.7,178.9,82.6z M179.9,82.6
			c0,0.5,0.4,0.9,0.9,0.9s0.9-0.4,0.9-0.9s-0.4-0.9-0.9-0.9C180.2,81.7,179.9,82.1,179.9,82.6z"/>
	</g>
	<g>
		<circle class="st17" cx="184" cy="81.8" r="1.4"/>
		<path d="M182.1,81.8c0-1,0.9-1.9,1.9-1.9s1.9,0.9,1.9,1.9s-0.9,1.9-1.9,1.9S182.1,82.9,182.1,81.8z M183,81.8
			c0,0.5,0.4,0.9,0.9,0.9s0.9-0.4,0.9-0.9s-0.4-0.9-0.9-0.9S183,81.3,183,81.8z"/>
	</g>
	<g>
		<circle class="st17" cx="187.2" cy="81.3" r="1.4"/>
		<path d="M185.3,81.3c0-1,0.9-1.9,1.9-1.9s1.9,0.9,1.9,1.9s-0.9,1.9-1.9,1.9C186.1,83.2,185.3,82.3,185.3,81.3z M186.2,81.3
			c0,0.5,0.4,0.9,0.9,0.9s0.9-0.4,0.9-0.9s-0.4-0.9-0.9-0.9S186.2,80.8,186.2,81.3z"/>
	</g>
	<g>
		<circle class="st17" cx="190.4" cy="81" r="1.4"/>
		<path d="M188.5,81c0-1,0.9-1.9,1.9-1.9s1.9,0.9,1.9,1.9s-0.9,1.9-1.9,1.9C189.3,82.8,188.5,82,188.5,81z M189.4,81
			c0,0.5,0.4,0.9,0.9,0.9s0.9-0.4,0.9-0.9s-0.4-0.9-0.9-0.9S189.4,80.5,189.4,81z"/>
	</g>
	<g>
		<circle class="st17" cx="193.5" cy="81.1" r="1.4"/>
		<path d="M191.6,81.1c0-1,0.9-1.9,1.9-1.9s1.9,0.9,1.9,1.9s-0.9,1.9-1.9,1.9S191.6,82.1,191.6,81.1z M192.5,81.1
			c0,0.5,0.4,0.9,0.9,0.9s0.9-0.4,0.9-0.9s-0.4-0.9-0.9-0.9C193,80.3,192.5,80.6,192.5,81.1z"/>
	</g>
	<g>
		<circle class="st17" cx="196.5" cy="82.1" r="1.4"/>
		<path d="M194.6,82.1c0-1,0.9-1.9,1.9-1.9s1.9,0.9,1.9,1.9s-0.9,1.9-1.9,1.9S194.6,83.2,194.6,82.1z M195.5,82.1
			c0,0.5,0.4,0.9,0.9,0.9s0.9-0.4,0.9-0.9s-0.4-0.9-0.9-0.9S195.5,81.6,195.5,82.1z"/>
	</g>
	<g>
		<circle class="st17" cx="199" cy="84" r="1.4"/>
		<path d="M197.1,84c0-1,0.9-1.9,1.9-1.9s1.9,0.9,1.9,1.9s-0.9,1.9-1.9,1.9C197.9,85.9,197.1,85.1,197.1,84z M198,84
			c0,0.5,0.4,0.9,0.9,0.9s0.9-0.4,0.9-0.9s-0.4-0.9-0.9-0.9S198,83.5,198,84z"/>
	</g>
	<g>
		<circle class="st17" cx="200.8" cy="86.6" r="1.4"/>
		<path d="M198.9,86.6c0-1,0.9-1.9,1.9-1.9s1.9,0.9,1.9,1.9s-0.9,1.9-1.9,1.9S198.9,87.6,198.9,86.6z M199.8,86.6
			c0,0.5,0.4,0.9,0.9,0.9s0.9-0.4,0.9-0.9s-0.4-0.9-0.9-0.9S199.8,86.1,199.8,86.6z"/>
	</g>
	<g>
		<circle class="st17" cx="201.6" cy="89.6" r="1.4"/>
		<path d="M199.8,89.6c0-1,0.9-1.9,1.9-1.9s1.9,0.9,1.9,1.9s-0.9,1.9-1.9,1.9C200.6,91.5,199.8,90.7,199.8,89.6z M200.7,89.6
			c0,0.5,0.4,0.9,0.9,0.9s0.9-0.4,0.9-0.9s-0.4-0.9-0.9-0.9S200.7,89.1,200.7,89.6z"/>
	</g>
	<g>
		<circle class="st17" cx="201.6" cy="92.8" r="1.4"/>
		<path d="M199.7,92.8c0-1,0.9-1.9,1.9-1.9s1.9,0.9,1.9,1.9s-0.9,1.9-1.9,1.9C200.6,94.7,199.7,93.8,199.7,92.8z M200.6,92.8
			c0,0.5,0.4,0.9,0.9,0.9s0.9-0.4,0.9-0.9s-0.4-0.9-0.9-0.9C201.1,91.8,200.6,92.3,200.6,92.8z"/>
	</g>
	<g>
		<circle class="st17" cx="201" cy="95.8" r="1.4"/>
		<path d="M199.1,95.8c0-1,0.9-1.9,1.9-1.9s1.9,0.9,1.9,1.9s-0.9,1.9-1.9,1.9C199.9,97.7,199.1,96.8,199.1,95.8z M200,95.8
			c0,0.5,0.4,0.9,0.9,0.9s0.9-0.4,0.9-0.9s-0.4-0.9-0.9-0.9C200.5,95,200,95.3,200,95.8z"/>
	</g>
	<g>
		<path class="st17" d="M191.2,82.6c5.6,0,8.8,4.1,8.8,8.2c0,4.9-1.8,8.6-4,12.8l-2.5-1.2c2.4-3.9,4.1-7.7,4.1-11.9
			c0-4.3-3.3-6-7.5-6c-4.6,0-9.5,2-13,2.5l-0.1-1.8C181.2,84.3,186.2,82.6,191.2,82.6z"/>
		<path d="M195.7,104.1l-2.5-1.2c-0.1-0.1-0.2-0.1-0.2-0.3c-0.1-0.1,0-0.3,0.1-0.4c2-3.3,4.1-7.3,4.1-11.6c0-4.8-4.4-5.5-7.1-5.5
			c-2.9,0-6,0.8-8.7,1.5c-1.5,0.4-3,0.8-4.2,0.9c-0.1,0-0.3,0-0.4-0.1c-0.1-0.1-0.1-0.2-0.1-0.4l-0.1-1.8c0-0.2,0.1-0.4,0.4-0.5
			c0.9-0.2,2-0.5,3.1-0.7c3.4-0.9,7.4-1.8,11.1-1.8c6,0,9.3,4.4,9.3,8.7c0,5.2-2,9-4.1,13c-0.1,0.1-0.2,0.3-0.4,0.3
			C195.9,104.1,195.8,104.1,195.7,104.1z M180.2,84.9c-0.9,0.2-1.8,0.4-2.7,0.7l0.1,0.9c1.1-0.2,2.3-0.5,3.6-0.9
			c2.8-0.7,5.9-1.5,8.9-1.5c5.1,0,8,2.3,8,6.5c0,4.4-2,8.4-3.9,11.7l1.5,0.7c2-3.8,3.8-7.5,3.8-12.2c0-3.7-2.9-7.7-8.3-7.7
			C187.4,83.1,183.6,84,180.2,84.9z"/>
	</g>
</g>
<g>
	<path class="st17" d="M174.6,66.5l-1.5,2.7l1.5,2.7l1.5-2.7L174.6,66.5z M174.6,73.3l-1.5,2.7l1.5,2.7l1.5-2.7L174.6,73.3z"/>
	<path d="M174.6,79.3L174.6,79.3c-0.1,0-0.4-0.1-0.4-0.2l-1.5-2.7c-0.1-0.1-0.1-0.3,0-0.4l1.5-2.7c0.1-0.3,0.7-0.3,0.9,0l1.4,2.7
		c0.1,0.1,0.1,0.3,0,0.4l-1.5,2.7C174.9,79.2,174.7,79.3,174.6,79.3z M173.6,76.1l0.9,1.7l0.9-1.7l-0.9-1.7L173.6,76.1z M174.6,72.4
		L174.6,72.4c-0.1,0-0.4-0.1-0.4-0.2l-1.5-2.7c-0.1-0.1-0.1-0.3,0-0.4l1.5-2.7c0.1-0.3,0.7-0.3,0.9,0l1.4,2.6c0.1,0.1,0.1,0.3,0,0.4
		l-1.5,2.7C174.9,72.3,174.7,72.4,174.6,72.4z M173.6,69.2l0.9,1.7l0.9-1.7l-0.9-1.7L173.6,69.2z"/>
</g>
<g>
	<path class="st17" d="M169.3,72.6l2.3,1.5l2.3-1.5l-2.3-1.5L169.3,72.6z M175.1,72.6l2.3,1.5l2.3-1.5l-2.3-1.5L175.1,72.6z"/>
	<path d="M171.7,74.6c-0.1,0-0.1,0-0.3-0.1L169,73c-0.1-0.1-0.2-0.2-0.2-0.4s0.1-0.3,0.2-0.4l2.3-1.5c0.1-0.1,0.4-0.1,0.5,0l2.3,1.5
		c0.1,0.1,0.2,0.2,0.2,0.4s-0.1,0.3-0.2,0.4l-2.3,1.5C171.8,74.6,171.7,74.6,171.7,74.6z M170.3,72.6l1.4,0.9l1.4-0.9l-1.4-0.9
		L170.3,72.6z M177.4,74.6c-0.1,0-0.1,0-0.3-0.1l-2.2-1.5c-0.1-0.1-0.2-0.2-0.2-0.4s0.1-0.3,0.2-0.4l2.3-1.5c0.1-0.1,0.4-0.1,0.5,0
		l2.3,1.5c0.1,0.1,0.2,0.2,0.2,0.4s-0.1,0.3-0.2,0.4l-2.3,1.5C177.6,74.6,177.6,74.6,177.4,74.6z M176,72.6l1.4,0.9l1.4-0.9
		l-1.4-0.9L176,72.6z"/>
</g>
<g>
	<circle class="st17" cx="174.6" cy="72.7" r="1.1"/>
	<path d="M174.6,74.3c-0.9,0-1.6-0.7-1.6-1.6s0.7-1.6,1.6-1.6c0.9,0,1.6,0.7,1.6,1.6C176.1,73.6,175.4,74.3,174.6,74.3z M174.6,72
		c-0.4,0-0.7,0.3-0.7,0.7c0,0.4,0.3,0.7,0.7,0.7s0.7-0.3,0.7-0.7C175.1,72.3,174.9,72,174.6,72z"/>
</g>
<g>
	<circle class="st17" cx="174.6" cy="79.7" r="3"/>
	<path d="M174.6,83.2c-1.9,0-3.4-1.5-3.4-3.4s1.5-3.4,3.4-3.4c1.9,0,3.4,1.5,3.4,3.4C178,81.6,176.5,83.2,174.6,83.2z M174.6,77.2
		c-1.4,0-2.5,1.1-2.5,2.5s1.1,2.5,2.5,2.5c1.4,0,2.5-1.1,2.5-2.5C177,78.3,175.9,77.2,174.6,77.2z"/>
</g>
<g>
	<path d="M171.7,80.8c-0.1,0-0.3-0.1-0.4-0.3c0-0.2,0.1-0.4,0.3-0.4c2-0.3,3.9-0.3,5.8,0c0.2,0,0.4,0.2,0.3,0.4
		c0,0.2-0.2,0.3-0.4,0.3C175.5,80.5,173.6,80.5,171.7,80.8L171.7,80.8z M177.4,79.3C177.3,79.3,177.3,79.3,177.4,79.3
		c-0.7-0.1-1.5-0.2-2.1-0.2c-0.2,0-0.4-0.1-0.4-0.4v-1.9c0-0.2,0.1-0.4,0.4-0.4c0.2,0,0.4,0.1,0.4,0.4v1.5c0.6,0.1,1.2,0.1,1.8,0.2
		c0.2,0,0.4,0.2,0.3,0.4C177.7,79.2,177.6,79.3,177.4,79.3z M171.7,79.3c-0.1,0-0.3-0.1-0.4-0.3c0-0.2,0.1-0.4,0.3-0.4
		c0.6-0.1,1.2-0.1,1.8-0.2v-0.1c0-0.4,0-0.8,0-1.4c0-0.2,0.1-0.4,0.4-0.4c0.2,0,0.4,0.1,0.4,0.4c0,0.6,0,1,0,1.5v0.4
		c0,0.2-0.1,0.4-0.4,0.4C173.1,79.1,172.5,79.2,171.7,79.3L171.7,79.3z"/>
</g>
<g>
	<path class="st17" d="M171.7,84.7c-0.3,4.8-0.9,9.8-2.7,13.3l3.1-1.2c1.1-4.1,1.3-9.2,1.6-11.7L171.7,84.7z M177.4,84.7l-2,0.3
		c0.3,2.5,0.6,7.7,1.6,11.7l3.1,1.2C178.3,94.4,177.7,89.5,177.4,84.7z"/>
	<path d="M180.2,98.4c-0.1,0-0.1,0-0.1,0l-3.1-1.2c-0.1-0.1-0.2-0.1-0.3-0.3c-0.8-3-1.1-6.6-1.4-9.2c-0.1-1-0.1-1.9-0.3-2.5
		c0-0.3,0.1-0.5,0.4-0.5l2-0.3c0.1,0,0.3,0,0.4,0.1c0.1,0.1,0.1,0.2,0.1,0.4c0.3,4.4,0.8,9.5,2.7,13.1c0.1,0.1,0.1,0.4-0.1,0.5
		C180.4,98.4,180.2,98.4,180.2,98.4z M177.5,96.4l1.7,0.7c-1.5-3.5-2-7.9-2.2-11.8l-0.9,0.1c0.1,0.6,0.1,1.3,0.2,2.1
		C176.5,90.1,176.8,93.5,177.5,96.4z M169,98.4c-0.1,0-0.3-0.1-0.4-0.1c-0.1-0.1-0.1-0.4-0.1-0.5c1.9-3.6,2.4-8.7,2.7-13.1
		c0-0.1,0.1-0.3,0.1-0.4c0.1-0.1,0.2-0.1,0.4-0.1l2,0.3c0.2,0.1,0.4,0.3,0.4,0.5c-0.1,0.7-0.1,1.5-0.3,2.5c-0.2,2.6-0.6,6.3-1.4,9.2
		c-0.1,0.1-0.1,0.3-0.3,0.3L169,98.4L169,98.4z M172.1,85.3c-0.2,4-0.7,8.4-2.2,11.8l1.7-0.7c0.7-2.8,1-6.3,1.3-8.9
		c0.1-0.8,0.1-1.5,0.2-2.1L172.1,85.3z"/>
</g>
<g>
	<path class="st17" d="M174.6,95.1c-3.6,0-6.3,1.7-6.5,6.1c-0.9-1.6-4.7-6.5-8.2-5.8c-2.1,0.4-3.9,3.3-3.6,6.6
		c-1.7-4.9-6.8-5.8-10.5-2.8c3.3,2.7,4.7,10.7,7.5,14.1h21.3h21.3c2.8-3.5,4.2-11.4,7.5-14.1c-3.7-2.9-8.7-2.1-10.5,2.8
		c0.3-3.3-1.5-6.2-3.6-6.6c-3.5-0.7-7.3,4.3-8.2,5.8C180.8,96.8,178.2,95.1,174.6,95.1z"/>
	<path d="M195.8,113.7h-42.6c-0.1,0-0.3-0.1-0.4-0.1c-1.2-1.6-2.3-4-3.3-6.5c-1.2-3-2.5-6.1-4.2-7.6c-0.1-0.1-0.1-0.2-0.1-0.4
		c0-0.1,0.1-0.3,0.1-0.4c2-1.6,4.5-2.2,6.7-1.5c1.5,0.4,2.8,1.4,3.6,2.8c0.4-2.5,2-4.7,3.9-5.1c3.2-0.6,6.4,2.8,7.9,4.9
		c0.6-3.3,3-5.2,6.8-5.2s6.3,1.8,6.8,5.2c1.5-2.1,4.7-5.5,7.9-4.9c2,0.4,3.6,2.5,3.9,5.1c0.9-1.4,2.2-2.3,3.6-2.8
		c2.2-0.7,4.7-0.1,6.7,1.5c0.1,0.1,0.1,0.2,0.1,0.4s-0.1,0.3-0.1,0.4c-1.7,1.5-3,4.5-4.2,7.6c-1,2.5-2,4.9-3.3,6.5
		C196,113.7,196,113.7,195.8,113.7z M153.5,112.8h42.1c1.1-1.5,2-3.7,3-6c1.2-2.9,2.3-5.8,4-7.5c-1.7-1.2-3.6-1.5-5.4-1
		s-3.2,2-3.9,4c-0.1,0.2-0.3,0.4-0.6,0.3c-0.2-0.1-0.4-0.3-0.4-0.5c0.3-3.2-1.5-5.8-3.3-6.1c-3.1-0.6-6.7,3.9-7.6,5.6
		c-0.1,0.2-0.3,0.3-0.5,0.2c-0.2-0.1-0.4-0.2-0.4-0.4c-0.1-3.7-2.2-5.6-6-5.6c-3.9,0-5.9,1.9-6,5.6c0,0.2-0.1,0.4-0.4,0.4
		c-0.2,0.1-0.4-0.1-0.5-0.2c-0.9-1.7-4.6-6.2-7.6-5.6c-1.7,0.4-3.6,2.9-3.2,6.1c0,0.2-0.1,0.4-0.4,0.5c-0.2,0.1-0.5-0.1-0.6-0.3
		c-0.7-2-2.1-3.5-3.9-4c-1.7-0.5-3.7-0.1-5.4,1c1.7,1.7,2.9,4.7,4,7.5C151.5,109.1,152.4,111.3,153.5,112.8z"/>
</g>
<g>
	<g>
		<path d="M195.7,113.3c0,1.6-9.5,3.3-21.2,3.3s-21.2-1.7-21.2-3.3c0-1.6,9.5-2.4,21.2-2.4S195.7,111.7,195.7,113.3z"/>
		<path d="M174.6,116.9c-10.4,0-21.5-1.5-21.5-3.6c0-2.4,13.5-2.8,21.5-2.8s21.5,0.4,21.5,2.8C196.1,115.5,185,116.9,174.6,116.9z
			 M174.6,111.3c-15.7,0-20.8,1.4-20.8,2c0,1,8.1,2.9,20.8,2.9s20.8-2,20.8-2.9C195.4,112.6,190.3,111.3,174.6,111.3z"/>
	</g>
	<g>
		<circle class="st17" cx="174.6" cy="83.7" r="1"/>
		<path d="M174.6,85.1c-0.7,0-1.4-0.6-1.4-1.4c0-0.7,0.6-1.4,1.4-1.4s1.4,0.6,1.4,1.4C175.9,84.5,175.3,85.1,174.6,85.1z
			 M174.6,83.2c-0.4,0-0.7,0.3-0.7,0.7s0.3,0.7,0.7,0.7s0.7-0.3,0.7-0.7C175.1,83.5,174.9,83.2,174.6,83.2z"/>
	</g>
	<g>
		<circle class="st17" cx="174.6" cy="85.9" r="1"/>
		<path d="M174.6,87.3c-0.8,0-1.4-0.7-1.4-1.4s0.7-1.4,1.4-1.4c0.7,0,1.4,0.7,1.4,1.4S175.3,87.3,174.6,87.3z M174.6,85.2
			c-0.4,0-0.7,0.3-0.7,0.7s0.3,0.7,0.7,0.7s0.7-0.3,0.7-0.7S174.9,85.2,174.6,85.2z"/>
	</g>
	<g>
		<circle class="st17" cx="174.6" cy="88.2" r="1.2"/>
		<path d="M174.6,89.7c-0.8,0-1.5-0.7-1.5-1.5s0.7-1.5,1.5-1.5s1.5,0.7,1.5,1.5C176,89.1,175.4,89.7,174.6,89.7z M174.6,87.4
			c-0.4,0-0.8,0.4-0.8,0.8s0.4,0.8,0.8,0.8c0.4,0,0.8-0.4,0.8-0.8C175.3,87.7,175,87.4,174.6,87.4z"/>
	</g>
	<g>
		<circle class="st17" cx="174.6" cy="90.8" r="1.3"/>
		<path d="M174.6,92.4c-0.9,0-1.7-0.7-1.7-1.7s0.7-1.7,1.7-1.7s1.7,0.7,1.7,1.7S175.4,92.4,174.6,92.4z M174.6,89.8
			c-0.5,0-0.9,0.4-0.9,0.9s0.4,0.9,0.9,0.9s0.9-0.4,0.9-0.9C175.5,90.2,175.1,89.8,174.6,89.8z"/>
	</g>
	<g>
		<circle class="st17" cx="174.6" cy="93.6" r="1.5"/>
		<path d="M174.6,95.4c-1,0-1.8-0.8-1.8-1.8s0.8-1.8,1.8-1.8s1.8,0.8,1.8,1.8S175.5,95.4,174.6,95.4z M174.6,92.6
			c-0.6,0-1.1,0.5-1.1,1.1s0.5,1.1,1.1,1.1c0.6,0,1.1-0.5,1.1-1.1S175.1,92.6,174.6,92.6z"/>
	</g>
	<g>
		<path d="M174,96.4c-0.1,0-0.3,0.1-0.3,0.4c0.1,0.3,0.1,0.9,0.1,1.2c0.1,0.4,0.3,0.3,0.4,0c0.1-0.3,0.1-0.5,0.1-1.2
			C174.3,96.6,174.1,96.4,174,96.4z M175.1,96.4c-0.1,0-0.3,0.1-0.3,0.4c0,0.6,0,0.8,0.1,1.2c0.1,0.4,0.3,0.4,0.4,0
			c0.1-0.4,0.1-0.9,0.1-1.2C175.4,96.6,175.3,96.4,175.1,96.4z M173,96.6c-0.1,0-0.3,0.1-0.3,0.3c0,0.3,0.1,0.6,0.1,1s0.4,0.3,0.4,0
			c0-0.2,0.1-0.6,0-1.1C173.2,96.6,173.1,96.6,173,96.6L173,96.6z M176.1,96.6c-0.1,0-0.1,0.1-0.2,0.3c0,0.5,0,0.9,0,1.1
			s0.4,0.4,0.4,0s0.1-0.7,0.1-1C176.5,96.7,176.2,96.6,176.1,96.6L176.1,96.6z M171.7,97.1c-0.1,0-0.2,0.2-0.2,0.4
			c0.1,0.4,0.1,0.7,0.1,1.1c0,0.3,0.3,0.2,0.3,0s0.1-0.7,0.1-1.1C171.9,97.1,171.9,97,171.7,97.1z M177.3,97.1
			c-0.1,0-0.1,0.1-0.1,0.4c0,0.4,0,0.9,0.1,1.1c0,0.2,0.3,0.4,0.3,0s0.1-0.7,0.1-1.1c0.1-0.1-0.1-0.4-0.2-0.4
			C177.3,97.1,177.3,97.1,177.3,97.1z M160.6,97.1c-0.1,0-0.3,0.2-0.1,0.4c0.1,0.4,0.4,0.6,0.5,1c0.1,0.4,0.4,0.1,0.3-0.1
			c-0.1-0.2-0.1-0.5-0.4-1.1C160.8,97.2,160.7,97.1,160.6,97.1z M188.5,97.1c-0.1,0-0.2,0.1-0.3,0.3c-0.2,0.5-0.3,0.8-0.4,1.1
			c-0.1,0.2,0.1,0.5,0.3,0.1c0.1-0.4,0.4-0.7,0.5-1C188.8,97.3,188.6,97.1,188.5,97.1z M161.8,97.1c-0.1,0-0.2,0.1-0.1,0.4
			c0.1,0.4,0.4,0.7,0.5,1.1c0.1,0.3,0.4,0.2,0.3-0.1c-0.1-0.3-0.1-0.4-0.3-1C162,97.1,161.8,97.1,161.8,97.1z M187.2,97.1
			c-0.1,0-0.2,0.1-0.3,0.3c-0.2,0.6-0.2,0.7-0.3,1s0.2,0.4,0.3,0.1c0.1-0.4,0.4-0.7,0.5-1.1C187.5,97.3,187.4,97.1,187.2,97.1
			C187.3,97.1,187.3,97.1,187.2,97.1z M163.1,97.4c-0.1,0-0.3,0.2-0.1,0.5c0.1,0.4,0.3,0.7,0.4,1.1c0.1,0.4,0.4,0.3,0.4,0.1
			c-0.1-0.2-0.1-0.7-0.3-1.3C163.4,97.5,163.3,97.4,163.1,97.4z M185.9,97.4c-0.1,0-0.2,0.1-0.3,0.4c-0.2,0.7-0.3,1-0.3,1.3
			c-0.1,0.2,0.2,0.4,0.4-0.1c0.1-0.4,0.4-0.7,0.4-1.1C186.2,97.6,186.1,97.4,185.9,97.4z M159.6,97.6c-0.1,0-0.3,0.3-0.2,0.4
			c0.1,0.3,0.3,0.4,0.4,0.7c0.1,0.4,0.3,0.1,0.3-0.1c-0.1-0.2-0.1-0.4-0.2-0.8C159.9,97.6,159.7,97.6,159.6,97.6z M189.4,97.6
			c-0.1,0-0.2,0.1-0.2,0.3c-0.1,0.3-0.1,0.6-0.2,0.8c-0.1,0.2,0.1,0.5,0.3,0.1c0.1-0.4,0.2-0.4,0.4-0.7
			C189.7,97.9,189.6,97.6,189.4,97.6z M170.5,98.4c-0.1,0-0.4,0.2-0.3,0.4c0.1,0.4,0.2,0.6,0.4,1c0.1,0.4,0.4,0.2,0.4-0.1
			c0-0.2-0.1-0.6-0.1-1.1C170.7,98.4,170.6,98.4,170.5,98.4z M178.6,98.4c-0.1,0-0.2,0.1-0.2,0.3c-0.1,0.5-0.1,0.9-0.1,1.1
			s0.2,0.4,0.4,0.1c0.1-0.4,0.2-0.7,0.4-1C178.9,98.6,178.7,98.4,178.6,98.4z M174.6,98.7c-0.2,0-0.2,0.3-0.2,0.5
			c0,0.7-0.3,1.5-0.6,1.7c-0.3,0.4-0.7,0.3-1,0.1c-0.4-0.2-0.6-0.3-0.9-0.6c-0.4-0.3-0.7-0.1-0.2,0.5c1.3,1.8,2.7,3.4,2.7,6.5
			c0,0.4,0.1,0.5,0.2,0.5c0.1,0,0.2-0.1,0.2-0.5c0-3.1,1.4-4.6,2.7-6.5c0.4-0.7,0.1-0.8-0.2-0.5c-0.4,0.3-0.6,0.4-0.9,0.6
			c-0.4,0.2-0.7,0.3-1-0.1s-0.6-1-0.6-1.7C174.8,99,174.7,98.7,174.6,98.7z M164.6,98.2C164.6,98.2,164.5,98.2,164.6,98.2
			c-0.1,0-0.1,0.1-0.1,0.3c0.1,0.3,0.2,0.8,0.3,1.1c0.1,0.3,0.4,0.2,0.3-0.1c-0.1-0.4-0.1-0.4-0.1-0.9
			C164.9,98.4,164.7,98.2,164.6,98.2z M184.5,98.2c-0.1,0-0.3,0.1-0.4,0.4c-0.1,0.4-0.1,0.5-0.1,0.9c-0.1,0.4,0.2,0.4,0.3,0.1
			c0.1-0.3,0.3-0.8,0.3-1.1C184.7,98.4,184.6,98.3,184.5,98.2L184.5,98.2z M158.7,98.4c-0.1,0-0.3,0.2-0.1,0.5
			c0.2,0.3,0.5,0.7,0.7,0.9s0.4,0.1,0.2-0.2c-0.1-0.3-0.2-0.7-0.4-1.1C158.9,98.4,158.8,98.4,158.7,98.4z M190.4,98.4
			c-0.1,0-0.2,0.1-0.3,0.2c-0.2,0.4-0.3,0.7-0.4,1.1c-0.1,0.3,0.1,0.4,0.2,0.2c0.1-0.2,0.4-0.7,0.7-0.9
			C190.7,98.6,190.6,98.4,190.4,98.4z M149.7,99.3c-0.2,0-0.2,0.4-0.1,0.6c0.3,0.3,0.4,0.5,0.7,0.8c0.2,0.2,0.3-0.1,0.2-0.3
			c-0.1-0.2-0.3-0.4-0.5-0.8C150,99.4,149.8,99.3,149.7,99.3z M199.3,99.3c-0.1,0-0.2,0.1-0.3,0.3c-0.2,0.4-0.4,0.6-0.5,0.8
			c-0.1,0.2-0.1,0.5,0.2,0.3c0.3-0.3,0.5-0.4,0.7-0.8C199.6,99.6,199.5,99.3,199.3,99.3z M151.1,99.6c-0.1,0-0.2,0.1-0.1,0.4
			c0.1,0.4,0.4,0.8,0.5,1.1c0.1,0.3,0.6,0.4,0.4-0.1c-0.1-0.4-0.2-0.7-0.4-1.1C151.5,99.7,151.3,99.6,151.1,99.6z M197.9,99.6
			c-0.1,0-0.4,0.1-0.4,0.3c-0.1,0.4-0.2,0.7-0.4,1.1c-0.1,0.4,0.3,0.4,0.4,0.1c0.1-0.3,0.4-0.7,0.5-1.1
			C198.1,99.7,198.1,99.6,197.9,99.6z M148.4,99.7c-0.2,0-0.2,0.2-0.1,0.4c0.3,0.2,0.6,0.4,0.9,0.7c0.4,0.3,0.5,0,0.3-0.2
			s-0.4-0.4-0.9-0.7C148.6,99.7,148.5,99.7,148.4,99.7z M200.7,99.7c-0.1,0-0.1,0-0.3,0.1c-0.4,0.2-0.7,0.4-0.9,0.7
			c-0.2,0.2-0.1,0.5,0.3,0.2c0.3-0.2,0.6-0.4,0.9-0.7C200.9,99.9,200.9,99.7,200.7,99.7z M169.8,99.9c-0.1,0-0.2,0.1-0.1,0.4
			c0.1,0.3,0.2,0.7,0.3,1c0.1,0.4,0.4,0.4,0.4,0c-0.1-0.3-0.1-0.7-0.2-1.1C170,100,169.9,99.9,169.8,99.9L169.8,99.9z M179.3,99.9
			c-0.1,0-0.1,0.1-0.2,0.3c-0.1,0.4-0.1,0.8-0.2,1.1c-0.1,0.3,0.3,0.3,0.4,0c0.1-0.4,0.1-0.7,0.3-1
			C179.6,100.1,179.4,99.9,179.3,99.9L179.3,99.9z M161.2,99.3c-0.1,0-0.1,0.2-0.1,0.4c0.4,1.5,0.5,2.2,0.4,2.5
			c-0.1,0.3-0.3,0.4-0.5,0.3s-0.6-0.3-0.8-0.4s-0.5,0-0.1,0.3c1.7,1.4,2.9,3,3.3,4.9c0.1,0.4,0.4,0.4,0.3,0
			c-0.4-2.5-0.4-4.4,0.1-5.8c0.2-0.5,0-0.9-0.4-0.1c-0.2,0.5-0.6,0.7-0.9,0.3c-0.3-0.4-0.9-1.6-1.1-2.2
			C161.5,99.5,161.4,99.3,161.2,99.3C161.3,99.3,161.2,99.3,161.2,99.3z M187.7,99.3c-0.1,0-0.1,0.1-0.2,0.3
			c-0.2,0.5-0.8,1.7-1.1,2.2c-0.3,0.4-0.7,0.2-0.9-0.3c-0.4-0.8-0.6-0.3-0.4,0.1c0.6,1.2,0.5,3.3,0.1,5.8c-0.1,0.4,0.1,0.4,0.3,0
			c0.4-2,1.7-3.6,3.3-4.9c0.4-0.3,0.1-0.4-0.1-0.3s-0.5,0.4-0.8,0.4c-0.3,0.1-0.4,0.1-0.5-0.3c-0.1-0.4,0.1-1.1,0.4-2.5
			C188,99.5,187.9,99.3,187.7,99.3C187.8,99.3,187.8,99.3,187.7,99.3z M152.7,100c-0.1,0-0.3,0.1-0.2,0.4c0.1,0.4,0.4,0.8,0.4,1
			c0.1,0.2,0.4,0.1,0.3-0.2c-0.1-0.4-0.1-0.5-0.1-0.9C153,100.1,152.8,100,152.7,100z M196.4,100c-0.1,0-0.4,0.1-0.4,0.3
			c-0.1,0.4-0.1,0.6-0.1,0.9c-0.1,0.3,0.2,0.4,0.3,0.2c0.1-0.2,0.3-0.7,0.4-1C196.7,100.1,196.5,100,196.4,100z M158,99.5
			c-0.1,0-0.2,0.4-0.1,0.6c0.2,0.2,0.5,0.6,0.8,0.9c0.2,0.3,0.4,0,0.2-0.2c-0.1-0.2-0.4-0.5-0.7-1.1C158.1,99.6,158,99.5,158,99.5z
			 M191.1,99.5c-0.1,0-0.1,0.1-0.2,0.2c-0.4,0.6-0.6,0.9-0.7,1.1c-0.1,0.2,0,0.5,0.2,0.2c0.3-0.4,0.6-0.7,0.8-0.9
			C191.3,100,191.3,99.5,191.1,99.5z M153.9,100.6c-0.1,0-0.2,0.1-0.1,0.3c0.1,0.3,0.1,0.6,0.2,0.9c0.1,0.3,0.3,0.2,0.3,0
			c0-0.3-0.1-0.6-0.1-0.9C154.1,100.8,154,100.6,153.9,100.6z M195.2,100.6c-0.1,0-0.2,0.1-0.3,0.3c-0.1,0.3-0.1,0.6-0.1,0.9
			s0.2,0.4,0.3,0c0.1-0.3,0.1-0.6,0.2-0.9C195.4,100.7,195.3,100.6,195.2,100.6z M157.6,101.1c-0.1,0-0.4,0.2-0.1,0.4
			c0.3,0.4,0.7,0.7,0.8,0.9c0.1,0.1,0.4,0.1,0.2-0.2c-0.2-0.4-0.5-0.7-0.7-1C157.8,101.1,157.7,101,157.6,101.1z M191.5,101.1
			c-0.1,0-0.1,0.1-0.2,0.1c-0.1,0.2-0.4,0.7-0.7,1c-0.2,0.4,0.1,0.4,0.2,0.2c0.1-0.1,0.5-0.4,0.8-0.9
			C191.8,101.2,191.7,101.1,191.5,101.1C191.5,101,191.5,101.1,191.5,101.1z M151.7,102.2c-0.1,0-0.2,0.1,0,0.4
			c0.4,0.6,0.9,1.5,0.9,1.8c0,0.4-0.1,0.4-0.3,0.4c-0.5,0-0.8-0.4-1.2-0.5c-0.4-0.1-0.5,0.1-0.2,0.4c1.7,1.2,3.4,2.6,4.1,3.9
			c0.3,0.5,0.7,0.7,0.4,0.2c-0.7-1.5-0.8-2.8-0.7-3.6c0.1-0.8,0.4-1.3,0.3-1.7c0-0.4-0.3-0.4-0.4,0c-0.1,0.3-0.2,0.7-0.3,0.8
			c-0.1,0.1-0.4,0.2-0.8-0.3c-0.4-0.5-1.2-1.4-1.5-1.7C151.9,102.3,151.9,102.2,151.7,102.2z M197.3,102.2c-0.1,0-0.2,0.1-0.3,0.1
			c-0.3,0.2-1.2,1.2-1.5,1.7c-0.4,0.5-0.7,0.4-0.8,0.3s-0.2-0.5-0.3-0.8c-0.1-0.4-0.4-0.4-0.4,0s0.1,0.9,0.3,1.7
			c0.1,0.8,0,2-0.7,3.6c-0.2,0.5,0.1,0.3,0.4-0.2c0.7-1.2,2.4-2.7,4.1-3.9c0.4-0.2,0.3-0.5-0.2-0.4c-0.4,0.1-0.7,0.5-1.2,0.5
			c-0.1,0-0.4,0-0.3-0.4c0-0.4,0.5-1.2,0.9-1.8C197.5,102.3,197.5,102.2,197.3,102.2z"/>
	</g>
	<g>
		<path class="st17" d="M154.3,111.5l0.6,1.7 M155.4,111.1l0.5,1.7 M156.7,111l0.4,1.8 M157.8,110.7l0.4,1.8 M159.2,110.6l0.3,1.8
			 M160.7,110.6l0.3,1.8 M162.3,110.1l0.2,1.8 M163.7,110.2l0.2,1.8 M165.1,109.9l0.2,1.8 M166.4,109.8l0.1,1.8 M167.9,109.8
			l0.1,1.8 M169.3,109.7l0.1,1.8 M170.7,109.7l0.1,1.8 M172.5,109.6l0.1,1.8 M194.8,111.5l-0.6,1.7 M193.6,111.1l-0.5,1.7
			 M192.5,111l-0.4,1.8 M191.3,110.7l-0.4,1.8 M189.9,110.6l-0.3,1.8 M188.3,110.6l-0.3,1.8 M186.8,110.1l-0.2,1.8 M185.4,110.2
			l-0.2,1.8 M184,109.9l-0.2,1.8 M182.6,109.8l-0.1,1.8 M181.1,109.8l-0.1,1.8 M179.8,109.7l-0.1,1.8 M178.4,109.7l-0.1,1.8
			 M176.7,109.6l-0.1,1.8 M174.6,109.5v2"/>
		<path d="M194.2,113.6L194.2,113.6c-0.3-0.1-0.4-0.3-0.3-0.4l0.6-1.7c0.1-0.2,0.3-0.3,0.4-0.2c0.2,0.1,0.3,0.3,0.2,0.4l-0.6,1.7
			C194.5,113.4,194.4,113.6,194.2,113.6z M154.8,113.6c-0.1,0-0.3-0.1-0.4-0.2l-0.6-1.7c-0.1-0.2,0.1-0.4,0.2-0.4
			c0.2-0.1,0.4,0.1,0.4,0.2l0.6,1.7C155.2,113.4,155.1,113.5,154.8,113.6L154.8,113.6z M193.2,113.2L193.2,113.2
			c-0.3-0.1-0.4-0.2-0.3-0.4l0.5-1.7c0.1-0.2,0.2-0.3,0.4-0.2c0.2,0.1,0.3,0.2,0.2,0.4l-0.5,1.7
			C193.5,113.2,193.3,113.2,193.2,113.2z M155.9,113.2c-0.1,0-0.3-0.1-0.4-0.3l-0.5-1.7c-0.1-0.2,0.1-0.4,0.2-0.4
			c0.2-0.1,0.4,0.1,0.4,0.2l0.5,1.7C156.2,112.9,156.1,113.1,155.9,113.2L155.9,113.2z M192.1,113.1
			C192.1,113.1,192,113.1,192.1,113.1c-0.3-0.1-0.4-0.2-0.4-0.4l0.4-1.8c0.1-0.2,0.2-0.3,0.4-0.3c0.2,0.1,0.3,0.2,0.3,0.4l-0.4,1.8
			C192.4,113,192.3,113.1,192.1,113.1z M157,113.1c-0.1,0-0.3-0.1-0.4-0.3l-0.4-1.8c-0.1-0.2,0.1-0.4,0.3-0.4c0.2,0,0.4,0.1,0.4,0.3
			l0.4,1.8C157.4,112.9,157.2,113.1,157,113.1L157,113.1z M190.9,112.9L190.9,112.9c-0.3-0.1-0.4-0.2-0.4-0.4l0.4-1.8
			c0.1-0.2,0.2-0.3,0.4-0.3c0.2,0.1,0.3,0.2,0.3,0.4l-0.4,1.8C191.3,112.7,191.1,112.9,190.9,112.9z M158.1,112.9
			c-0.1,0-0.3-0.1-0.4-0.3l-0.4-1.8c-0.1-0.2,0.1-0.4,0.3-0.4c0.2-0.1,0.4,0.1,0.4,0.3l0.4,1.8C158.5,112.6,158.4,112.8,158.1,112.9
			C158.2,112.9,158.1,112.9,158.1,112.9z M189.6,112.7L189.6,112.7c-0.2,0-0.4-0.2-0.4-0.4l0.3-1.8c0-0.2,0.2-0.4,0.4-0.3
			c0.2,0,0.4,0.2,0.3,0.4l-0.3,1.8C189.9,112.6,189.7,112.7,189.6,112.7z M159.5,112.7c-0.1,0-0.3-0.1-0.4-0.3l-0.3-1.8
			c0-0.2,0.1-0.4,0.3-0.4s0.4,0.1,0.4,0.3l0.3,1.8C159.9,112.5,159.8,112.7,159.5,112.7C159.6,112.7,159.5,112.7,159.5,112.7z
			 M188,112.7L188,112.7c-0.3-0.1-0.4-0.2-0.4-0.4l0.3-1.8c0-0.2,0.2-0.4,0.4-0.3c0.2,0,0.3,0.2,0.3,0.4l-0.3,1.8
			C188.3,112.6,188.2,112.7,188,112.7z M161.1,112.7c-0.1,0-0.3-0.1-0.4-0.3l-0.3-1.8c0-0.2,0.1-0.4,0.3-0.4c0.2,0,0.4,0.1,0.4,0.3
			l0.3,1.8C161.5,112.5,161.3,112.7,161.1,112.7L161.1,112.7z M185.1,112.4L185.1,112.4c-0.2,0-0.4-0.2-0.4-0.4l0.2-1.8
			c0-0.2,0.2-0.4,0.4-0.3c0.2,0,0.4,0.2,0.3,0.4l-0.2,1.8C185.5,112.2,185.3,112.4,185.1,112.4z M163.9,112.4
			c-0.1,0-0.4-0.1-0.4-0.3l-0.2-1.8c0-0.2,0.1-0.4,0.3-0.4c0.2,0,0.4,0.1,0.4,0.3l0.2,1.8C164.3,112.1,164.2,112.3,163.9,112.4
			L163.9,112.4z M186.6,112.2L186.6,112.2c-0.2,0-0.4-0.2-0.4-0.4l0.2-1.8c0-0.2,0.2-0.4,0.4-0.3c0.2,0,0.4,0.2,0.3,0.4l-0.2,1.8
			C186.9,112.1,186.7,112.2,186.6,112.2z M162.5,112.2c-0.1,0-0.4-0.1-0.4-0.3l-0.2-1.8c0-0.2,0.1-0.4,0.3-0.4s0.4,0.1,0.4,0.3
			l0.2,1.8C162.8,112.1,162.8,112.2,162.5,112.2C162.6,112.2,162.5,112.2,162.5,112.2z M165.3,112.1c-0.1,0-0.4-0.1-0.4-0.3
			l-0.2-1.8c0-0.2,0.1-0.4,0.3-0.4s0.4,0.1,0.4,0.3l0.2,1.8C165.7,111.9,165.5,112.1,165.3,112.1L165.3,112.1z M183.8,112.1
			C183.7,112.1,183.7,112.1,183.8,112.1c-0.2,0-0.4-0.2-0.4-0.4l0.2-1.8c0-0.2,0.2-0.4,0.4-0.3c0.2,0,0.4,0.2,0.3,0.4l-0.2,1.8
			C184.1,112,184,112.1,183.8,112.1z M181,112L181,112c-0.2,0-0.4-0.2-0.4-0.4l0.1-1.8c0-0.2,0.2-0.4,0.4-0.4s0.4,0.2,0.4,0.4
			l-0.1,1.8C181.4,111.8,181.3,112,181,112z M168,112c-0.2,0-0.4-0.1-0.4-0.4l-0.1-1.8c0-0.2,0.1-0.4,0.4-0.4c0.2,0,0.4,0.1,0.4,0.4
			l0.1,1.8C168.4,111.8,168.2,112,168,112L168,112z M182.5,112L182.5,112c-0.2,0-0.4-0.2-0.4-0.4l0.1-1.8c0-0.2,0.2-0.4,0.4-0.4
			s0.4,0.2,0.4,0.4l-0.1,1.8C182.9,111.8,182.7,112,182.5,112z M166.6,112c-0.2,0-0.4-0.1-0.4-0.4l-0.1-1.8c0-0.2,0.1-0.4,0.4-0.4
			c0.2,0,0.4,0.1,0.4,0.4l0.1,1.8C166.9,111.8,166.8,112,166.6,112L166.6,112z M179.7,111.9L179.7,111.9c-0.2,0-0.4-0.1-0.4-0.4
			l0.1-1.8c0-0.2,0.1-0.4,0.4-0.4c0.2,0,0.4,0.1,0.4,0.4l-0.1,1.8C180.1,111.8,179.9,111.9,179.7,111.9z M169.3,111.9
			c-0.2,0-0.4-0.1-0.4-0.4l-0.1-1.8c0-0.2,0.1-0.4,0.4-0.4s0.4,0.1,0.4,0.4l0.1,1.8C169.7,111.8,169.5,111.9,169.3,111.9
			C169.4,111.9,169.3,111.9,169.3,111.9z M174.6,111.8c-0.2,0-0.4-0.1-0.4-0.4v-2c0-0.2,0.1-0.4,0.4-0.4s0.4,0.1,0.4,0.4v2
			C174.9,111.7,174.7,111.8,174.6,111.8z M178.3,111.8L178.3,111.8c-0.2,0-0.4-0.1-0.4-0.4l0.1-1.8c0-0.2,0.1-0.4,0.4-0.4
			s0.4,0.1,0.4,0.4l-0.1,1.8C178.6,111.7,178.4,111.8,178.3,111.8z M170.8,111.8c-0.2,0-0.4-0.1-0.4-0.4l-0.1-1.8
			c0-0.2,0.1-0.4,0.4-0.4c0.2,0,0.4,0.1,0.4,0.4l0.1,1.8C171.1,111.6,171,111.8,170.8,111.8C170.9,111.8,170.8,111.8,170.8,111.8z
			 M176.6,111.8C176.5,111.8,176.5,111.8,176.6,111.8c-0.2,0-0.4-0.1-0.4-0.4l0.1-1.8c0-0.2,0.1-0.4,0.4-0.4s0.4,0.1,0.4,0.4
			l-0.1,1.8C176.9,111.6,176.8,111.8,176.6,111.8z M172.5,111.8c-0.2,0-0.4-0.1-0.4-0.4l-0.1-1.8c0-0.2,0.1-0.4,0.4-0.4
			s0.4,0.1,0.4,0.4l0.1,1.8C172.9,111.6,172.7,111.8,172.5,111.8L172.5,111.8z"/>
	</g>
</g>
</svg>
