<?xml version="1.0" encoding="utf-8"?>
<!-- Generator: Adobe Illustrator 24.3.0, SVG Export Plug-In . SVG Version: 6.00 Build 0)  -->
<svg version="1.1" id="Layer_1" xmlns="http://www.w3.org/2000/svg" xmlns:xlink="http://www.w3.org/1999/xlink" x="0px" y="0px"
	 viewBox="0 0 400 300" style="enable-background:new 0 0 400 300;" xml:space="preserve">
<style type="text/css">
	.st0{clip-path:url(#SVGID_2_);}
	.st1{fill:#FDBA0B;}
	.st2{fill:#006A42;}
	.st3{fill:#C22229;}
	.st4{fill:none;}
	.st5{fill:#C98017;}
	.st6{fill:#FBED60;}
	.st7{fill:#FABA31;}
	.st8{fill:#68C2EE;}
	.st9{fill:#0491BE;}
	.st10{fill:#68C2EF;}
	.st11{fill:#31798F;}
	.st12{fill:#C1BDBE;}
	.st13{fill:#6E6E6E;}
	.st14{fill:#6C6C6C;}
	.st15{fill:#BCBCBC;}
	.st16{fill:#E1E1E1;}
	.st17{fill:#0A0A09;}
	.st18{fill:#F3F2EF;}
</style>
<g>
	<g>
		<g>
			<defs>
				<path id="SVGID_1_" d="M63.9,141.5c-1.9,0.9-3,2.9-5.1,3.2c-0.6-0.7-1.2-1.8-0.3-2.5c1.6-1.2,0.6-2.5,0.1-3.3
					c-0.9-1.1-1.3-2.3-1.3-3.6c-1.1,0.4-1.5,1.5-2.6,0.7c1.5-3.6,3.1-7.5,1.9-11.6c-0.7-2.9-1.7-5.8-2.8-8.6
					c-0.5-1.5-0.7-3.3-1.8-4.5c-0.7,0.1-0.7,0.6-0.6,1c0.1,3.7-0.5,7.5-0.9,11.2c-0.1,1.1-0.3,2.1-0.6,3.2c-0.5,1.1-0.3,2.3,0.5,3.2
					c-1,2.3-2.7,4.4-2.8,6.9c0.1,0.5-0.1,1-0.5,1.3c-1.2,0.7-2,1.9-2.3,3.3c-0.1,0.5-0.5,0.9-1.1,0.7s-0.9-0.5-0.7-1.1
					c0-0.1,0-0.2,0.1-0.3c0.2-0.9,0.5-1.6,1-2.3c3-5.3,3.9-11.3,5.3-17.3c1.7-7.7,0.9-15.1-0.4-22.7c-1-5.6-1.7-11.3-0.5-16.9
					c0.4-2.7,0.4-5.3,0-7.9c-0.2-1.3,0.1-2,1.4-2.2c1.5-0.3,2.8-1.4,4.4-0.2c0.4,0.2,0.9,0.1,1.1-0.3c0-0.1,0.1-0.1,0.1-0.2
					c0.5-1.8,2.1-3.4,1.4-5.5c-0.3-0.7,0-1.7,0.7-2c0.1-0.1,0.2-0.1,0.4-0.1c0.9-0.3,1.5-1,1.8-1.7c1-2.2,3-3.7,5.3-4.3
					c1.8-0.4,3.3-1.7,3.9-3.4c0.4-1.1,0.9-1.9,2.3-1.7c0.6,0.1,1.2-0.6,1.6-1.2c1.3-1.7,2.9-2.1,4.7-1.2c1.8,1,3.2,0.9,4.7-0.9
					c1.2-1.4,3.1-2,4.3-3.5c0.2-0.2,0.4-0.3,0.7-0.3c2.2,1.4,3.9-0.9,6-0.9c0.9,0,1-0.7,1.2-1.3c0.6-1.6,1.3-3.2,3.5-2.3
					c0.3,0,0.5,0,0.9-0.2c2.9-1.4,6.3-0.9,8.5,1.5c0.4,0.3,1,0.4,1.4,0.2c1.3-0.5,2.8-0.3,3.9,0.4c0.9,0.6,1.9-0.4,2.9-0.6
					c1.1-0.2,2.1-0.2,3.2,0.2c1.7,0.7,3.6,1.2,5.4,1.2c1.2,0,2.1,0.6,2.8,1.6c1.8,2,2.6,2.1,4.6,0.5c0.7-0.5,1.7-0.6,2.6-0.3
					c1.6,0.3,3.3,0.3,5,0c1.4-0.3,2.5-0.6,2.8-2.3c0.1-0.9,0.7-1.9,2-1.6c1.6,0.3,2.7,1.8,2.5,3.4c-0.1,1.2,0.1,2.3,0.5,3.4
					c0.6,1.8,2.6,1.9,3.8,2.5c1.3,0.5,2.7-1.1,3.7-2.1c0.7-0.7-0.3-1.7,0-2.8c2.8-0.5,5.5-1.1,8.4-1.4c1.7-0.2,3.4,0.4,4.5,1.8
					c2.2,2.2,5.8,2.7,8.4,1.1c2.3-1.6,5.1-1.6,7.8-2c1-0.1,1.4,0.4,1.1,1.5c-0.5,0.9-0.5,2-0.1,3c2.2-2.5,4.8-2.1,7.4-1
					c0.5,0.2,1.2,0.3,1.8,0.2c1.9-0.2,3.5,0.2,3.9,2.2c0.6,2.6,3.6,2.7,4.8,4.6c0.4,0.7,2,0.6,2.9-0.2c1-1,2.1-1.6,3.4-1.9
					c0.7-0.2,1.5-0.6,1.9-1.3c0.6-1,1.9-0.7,2.6,0.3c0.5,0.9,1,1.6,2.1,1.2c0.3-0.1,0.7,0,1,0.3c1.5,1.8,3,1.3,4.5,0.2
					c0.4-0.4,1.1-0.7,1.6-0.9c1.9-0.2,2.9-1.1,2.6-3.1c0-0.5,0.2-1,0.6-1.3c0.2-0.2,0.4-0.4,0.6-0.5c1.7-0.6,0.5-3.1,1.9-3.5
					c1.4-0.4,3-0.2,3.2-2.2c0.1-0.5,1-0.5,1.5-0.5c1.3,0,2.6,0.3,3.5-1.1c0.5-0.7,1.6,0.9,2.6-0.2c0.2-0.6-0.3-1.8,0.6-2.5
					c0.4-0.3,1.1-0.4,1.5-0.2c0.5,0.2,0.9,0.9,0.6,1.4c-0.5,2.1,1,3.5,1.9,5c0.6,1,1.3,1.8,1.1,2.8c-0.7,3,1.5,4.6,3,6.5
					c0.9,1,1.5,2.2,1.7,3.5c0.6,5.2,3.8,6.9,8.5,4.4c0.7,0.2,1,1,1.4,1.5c1.3,1.4,2.5,2.9,4.7,1.5c0.7-0.6,1.8-0.5,2.5,0.2
					c0.1,0.1,0.1,0.1,0.1,0.2c1.7-1.1,3.7,1.8,5.4-0.6c0.4-0.6,1.3-0.7,1.8-0.3c0.2,0.1,0.3,0.3,0.4,0.5c1.9,2.6,3,2.8,5.5,0.9
					c0.1-0.1,0.2,0,0.6,0c-0.1,1.6,1.6,2.8,0.6,4.6c-0.1,0.2,0.2,0.9,0.4,0.9c1.5,0.3,2.5,1.9,3.9,2.2c2.5,0.5,3.2,2.2,3.7,4.2
					c0.2,0.9,0.6,1.3,1.5,1.5c2,0.3,3.7,1.5,5.5,2.3c2.1,1,2.8,2.6,3.8,4.2c1.4,2.1,2.7,4.3,5.3,5.2c1.7,0.5,2.6,2.1,3,4.2
					c0.6,3,1.8,5.9,5.1,7c0.2,0.1,0.5,0.1,0.5,0.3c1.6,4.1,6.4,2.6,9,5.1c1,1,3.3,0.4,5.2,0.5c0.2,2.9,0.7,5.8,0.2,8.5
					c-0.4,1.9-1.7,3.6-3.5,4.5c-1.4,0.7-1.8,1.7-1.1,3c1.4,2.5,0.3,5.2,1,7.8c0.4,1.9-1.3,2.6-2.5,3.1c-1.3,0.5-1.9,1.5-3.1,2.8
					c2.8,0.6,5.2,1.2,7.7,1.7c0.4,0.1,0.5-0.4,0.9-0.5c1.5-0.9,3-1.5,4.5-0.1c0.7,0.5,1.7,0.6,2.6,0.4c1.5,0,3,0.1,3.7,1.7
					c0.7,1.9-0.9,2.7-2,3.5c-0.5,0.4-1.2,0.7-1.8,1.1c-0.6,0.3-1.2,0.7-1.1,1.4c0.1,1.9-0.5,3.2-2.6,3.3c-0.3,1.4,1.1,1.4,1.3,2.2
					c-2.2,2.3-5.3,1.8-8,2.5c-0.1,0-0.3,0-0.4-0.1c-2.5-0.7-2.5-0.7-3.8,1.6c-1.3-1.3-3.4,0.1-4.7-1.5c-0.3-0.2-0.6-0.2-1,0
					c-1.5,1.8-4.2,1.7-5.6,3.3c0,1,0.7,1.3,1.1,1.9c0.3,0.6,0.6,1,0.3,1.3c-1.5,1.7-1.9,3.9-2.7,6c-0.5,1.3-1.9,1.4-3,1.5
					c-1.7,0.1-2.6,1.3-3.5,2.5c-1.2,1.3-2.2,2.3-3.9,0.9c-0.1-0.1-0.2-0.2-0.3-0.2c-1.1-0.4-6.9,2.5-7.1,3.5
					c-0.2,1.2-0.7,2.2-1.6,3.1c-1.2,1.2-2.5,2.1-2.3,3.9c0,0.4-0.4,0.6-0.7,1c-1,0.6-1.4,1.8-1,2.9c0.6,2.9,0.6,5.9-0.2,8.6
					c-0.1,0.6,0,1.4,0.2,2c0.3,1.4,0.7,2.7,1,4.1c0.5,2.6,0,4.9-2.6,6.3c-1.2,0.7-2,1.9-2.3,3.3c-0.4,1.2-0.5,2.7-1.9,3.3
					c-0.5,0.2-0.3,0.5-0.1,1.1c1.2,2.8-0.4,5-1.9,6.8c-1,1.1-1,2.6-2.2,3.4c1.1,1.5,2.9,2.1,4.6,1.5c3-0.9,4.2,1.2,3.7,3.5
					c2.1,0.1,2.5,2.1,3.7,3.4c-2.7,2.2,1.3,4.3-0.2,6.6c-0.9,0-2.1,1-3.3-0.3c-1.1,1.3-1.9,2.6-3.6,3c-1.3-2.3-5.8-0.1-6.2-4.3
					c0.9-1.1,3.3-1.6,1.9-3.8c0.3-0.9,1.2,0.1,1.5-0.6c-0.7-2.3-2.6-4.1-3.8-6c-2.8,0.7-5.4,1.8-7.9,3.3c-1.3,0.6-2.9,0.4-4.1-0.5
					c-0.4,1.2-1.1,1.7-2.3,0.7c-0.9,4.5-4.4,6.7-6.9,9.7c-1.2,1.4-4.5,1.4-5.2-0.2c-1-1.9-2.1-1.5-3.4-1c-0.7,0.2-1.4,0.7-2,1
					c-0.7,0.2-1.5,0.5-2.2,0.6c0.1,1.8-1.3,2-2.6,2.2c-0.3,1.1,0.3,1.5,0.9,2.1c0.5,0.6,1.1,1,1.1,1.5c0.1,1.9,0.3,3.7,3.3,3.2
					c-2.2,0.7-2.2,3.7-4.7,3.5c-2.1-0.1-2.1,3.7-4.9,2.5c-0.7-1.4,1.2-2.8-0.1-4.2c-4.2,0.6-7.9,3.2-10,6.8
					c-1.7,2.8-4.1,3.4-6.8,3.2c-2.1-0.1-3-1.9-4.3-3.2c-0.4-0.4-0.5-1.2-1.2-1c-1.7,0.6-1.8-0.7-2.6-1.8c-1.5,1.1-3.4,1.1-5.1,2.2
					s-3.8,1.1-5.9,1.3c-0.6,0.1-1-0.4-1-1.1c0-1.5-1-2.1-2.3-2.2c-0.6,1.4-1.5,2-3.2,1.2c-1-0.5-2.3,1-2.2,2.2
					c0.1,0.6,0.6,1.4-0.3,1.8c-1,0.4-1.1-0.6-1.5-1.2c-1.1-1.3-2.2-2.1-3.9-1.5c-1.3,0.4-2.9-0.3-3.8,1.1c-0.7-1-1.8-1.6-3.1-1.8
					c-2.7-0.3-4.2-3.9-2.6-6c1.3-1.6,1.6-3.8,0.7-5.8c-0.9-1.7-1.3-3.6-1.5-5.5c-0.1-1.2-0.9-2.1-1.9-2.6c-1.1-0.4-1.9-1.3-2.3-2.5
					c-1.5-2.7-3.3-4.7-6.6-4.7c-1.3,0.1-2.5-0.7-3-1.9c-0.6-1.5-3-1-3.3-3c-1.7,0.5-3.3,1.8-5-0.2c0.7-1.4,0.2-2.6-1.4-3.2
					c-0.3-0.2-0.9-0.4-1-0.7c-0.9-4.2-4.8-2.5-7.1-3.6c-0.9-0.4-1.3,0.7-1.5,1.5s-0.7,1.6-1.7,1.6s-1.3-1.1-1.5-1.8
					c-0.6-2-0.9-4.1-2.9-5.4c-0.4-0.3-0.4-1-0.4-1.5c-0.2-1.6,0.1-3.3-0.9-4.9c-0.1-0.3-0.1-0.6,0-1c1-1.3,1.5-2.6,0.5-4.2
					c-0.5-0.9,0.9-1.3,1.2-1.9c1.3-1.8,1.6-4.3,0.9-6.3c-0.5-2.6,0.9-5.1,3.2-6.1c0.7-0.2,0.4-1.1,0.9-1.3c0.5-0.2,1.2-0.3,1.7-0.4
					c0.2-0.9,0.5-1.6,1.1-2.3c1.4-1.7,0-3.5-0.7-5.2c-0.3-0.5-0.5-1.2-0.4-1.9c0.4-2.1-0.3-2.9-2.6-2.6c-1.1-1-2-2.1-2.8-3.3
					c-0.7-1.5-1.9-2.7-3.4-3.5l-1.1,1.7c-0.5-2.9-3.3-4.5-3.1-7.5c0.1-1.8-1.5-1.9-2.5-1.2c-3.1,2.6-6.2,1.5-9.5,0.5
					c-3.3-1-6.5,0-9.7,0.1c-0.6,0.1-1.2,0.5-1.3,1.2c-0.2,1-1.2,1.6-2.2,1.4c-0.1,0-0.1,0-0.2-0.1c-1.3-0.3-2.6-0.9-2.7-2.5
					c0-0.4-0.1-0.9-0.1-1.3c0-1.5-0.9-1.7-1.9-1.3c-3.1,1.5-5.4-0.3-7.8-1.8c-0.3-0.2-0.6-0.7-1-0.9c-3.6-0.2-5.4-3.2-8-5
					c-1.9-1.4-4.2-3.1-7-1.5c-1.2,0.6-3.3-1.4-3.9-3.5C66.4,144.8,65.3,142.9,63.9,141.5z"/>
			</defs>
			<clipPath id="SVGID_2_">
				<use xlink:href="#SVGID_1_"  style="overflow:visible;"/>
			</clipPath>
			<g class="st0">
				<rect x="4.1" y="37.3" class="st1" width="345" height="75.8"/>
				<rect x="4.1" y="113.2" class="st2" width="345" height="75.9"/>
				<rect x="4.1" y="189" class="st3" width="345" height="75.9"/>
			</g>
		</g>
	</g>
	<rect x="40.9" class="st4" width="299.7" height="299.7"/>
	<path d="M240.7,37.3c0.2,0,0.4,0,0.6,0.2c0.5,0.2,0.9,0.9,0.6,1.4c-0.5,2.1,1,3.5,1.9,5c0.6,1,1.3,1.8,1.1,2.8
		c-0.7,3,1.5,4.6,3,6.5c0.9,1,1.5,2.2,1.7,3.5c0.4,3.6,2.1,5.5,4.7,5.5c1.4-0.1,2.7-0.4,3.9-1.2c0.7,0.2,1,1,1.4,1.5
		c1,1,1.8,2,3.1,2c0.5,0,1.1-0.2,1.5-0.5c0.4-0.2,0.9-0.3,1.3-0.4c0.5,0,1.1,0.3,1.3,0.9c0.2-0.1,0.5-0.2,0.9-0.2
		c1,0,1.9,0.6,2.9,0.6c0.7,0,1.4-0.4,1.7-1c0.2-0.3,0.6-0.5,1.1-0.5c0.5,0,1,0.3,1.2,0.7c1.1,1.5,1.9,2.1,2.8,2.1
		c1-0.1,1.9-0.5,2.7-1.3h0.1c0,0,0.2,0,0.4,0c-0.1,1.6,1.6,2.8,0.6,4.6c-0.1,0.2,0.2,0.9,0.4,0.9c1.5,0.3,2.5,1.9,3.9,2.2
		c2.5,0.5,3.2,2.2,3.7,4.2c0.2,0.9,0.6,1.3,1.5,1.5c2,0.3,3.7,1.5,5.5,2.3c2.1,1,2.8,2.6,3.8,4.2c1.4,2.1,2.7,4.3,5.3,5.2
		c1.7,0.5,2.6,2.2,3,4.2c0.6,3,1.8,5.9,5.1,7c0.2,0.1,0.5,0.1,0.5,0.3c1.6,4.1,6.4,2.6,9,5.1c0.6,0.5,1.5,0.7,2.2,0.6h2.1
		c0.3,0,0.5,0,0.9,0c0.2,2.9,0.7,5.8,0.2,8.5c-0.4,1.9-1.7,3.6-3.5,4.5c-1.4,0.7-1.8,1.7-1.1,3c1.4,2.6,0.3,5.2,1,7.8
		c0.4,1.9-1.3,2.6-2.5,3.1c-1.3,0.5-1.9,1.5-3.1,2.8c2.8,0.6,5.2,1.2,7.7,1.7h0.1c0.3,0,0.5-0.4,0.7-0.5c0.7-0.5,1.7-0.9,2.6-1
		c0.7,0,1.4,0.3,1.9,0.9c0.4,0.3,1.1,0.5,1.7,0.5c0.3,0,0.6,0,1,0h0.4c1.4,0,2.7,0.2,3.3,1.7c0.7,1.9-0.9,2.7-2,3.5
		c-0.5,0.4-1.2,0.7-1.8,1.1c-0.6,0.3-1.2,0.7-1.1,1.4c0.1,1.9-0.5,3.2-2.6,3.3c-0.3,1.4,1.1,1.4,1.3,2.2c-2.2,2.3-5.3,1.8-8,2.5
		c-0.1,0-0.3,0-0.4-0.1c-0.6-0.2-1.2-0.3-1.8-0.4c-0.7,0-1.1,0.5-2,2c-1.3-1.3-3.4,0.1-4.7-1.5c-0.1-0.1-0.3-0.2-0.5-0.1
		c-0.2,0-0.3,0-0.4,0.1c-1.5,1.8-4.2,1.7-5.6,3.3c0,1,0.7,1.3,1.1,1.9c0.3,0.6,0.6,1,0.3,1.3c-1.5,1.7-1.9,3.9-2.7,6
		c-0.5,1.3-1.9,1.4-3,1.5c-1.7,0.1-2.6,1.3-3.5,2.5c-0.7,0.9-1.5,1.6-2.3,1.6c-0.6,0-1.2-0.3-1.6-0.7c-0.1-0.1-0.2-0.2-0.3-0.2
		s-0.2,0-0.3,0c-1.6,0-6.7,2.6-6.8,3.5c-0.2,1.2-0.7,2.2-1.6,3.1c-1.2,1.2-2.5,2.1-2.3,3.9c0,0.4-0.4,0.6-0.7,1
		c-1,0.6-1.4,1.8-1,2.9c0.6,2.9,0.6,6-0.2,8.8c-0.1,0.6,0,1.4,0.2,2c0.3,1.4,0.7,2.7,1,4.1c0.5,2.6,0,4.9-2.6,6.3
		c-1.2,0.7-2,1.9-2.3,3.3c-0.4,1.2-0.5,2.7-1.9,3.3c-0.5,0.2-0.3,0.5-0.1,1.1c1.2,2.8-0.4,5-1.9,6.8c-1,1.1-1,2.6-2.2,3.4
		c0.7,1.1,2,1.7,3.3,1.7c0.4,0,0.9-0.1,1.3-0.2c0.4-0.1,0.9-0.2,1.3-0.2c2,0,2.8,1.7,2.5,3.6c2.1,0.1,2.6,2.1,3.7,3.4
		c-2.7,2.2,1.3,4.3-0.2,6.6c-0.5,0-1.2,0.3-1.8,0.3c-0.5,0-1.1-0.2-1.5-0.6c-1.1,1.3-1.9,2.6-3.6,3c-1.3-2.3-5.8-0.1-6.2-4.3
		c0.9-1.1,3.3-1.6,1.9-3.8c0.1-0.2,0.3-0.3,0.5-0.3h0.5c0.2,0,0.4-0.1,0.4-0.3c-0.7-2.3-2.6-4.1-3.8-6c-2.8,0.7-5.4,1.8-7.9,3.3
		c-0.4,0.3-1,0.4-1.5,0.4c-1,0-1.8-0.3-2.6-1c-0.2,0.7-0.6,1.2-1.2,1.2c-0.4,0-0.9-0.2-1.2-0.5c-0.9,4.5-4.4,6.7-6.9,9.7
		c-0.6,0.6-1.6,1.1-2.6,1c-1.1,0.1-2-0.3-2.6-1.2c-0.5-1.1-1.1-1.4-1.8-1.4c-0.5,0-1.2,0.2-1.7,0.4c-0.7,0.2-1.4,0.7-2,1
		c-0.7,0.2-1.5,0.5-2.2,0.6c0.1,1.8-1.3,2-2.6,2.2c-0.3,1.1,0.3,1.5,0.9,2.1s1.1,1,1.1,1.5c0.1,1.7,0.2,3.3,2.3,3.3
		c0.3,0,0.6,0,1-0.1c-2.1,0.7-2.2,3.5-4.5,3.5H236c-1.7,0-2,2.8-3.7,2.8c-0.3,0-0.6-0.1-1-0.2c-0.7-1.4,1.2-2.8-0.1-4.2
		c-4.2,0.6-7.9,3.2-10,6.8c-1.2,2.1-3.5,3.4-6,3.2c-0.3,0-0.5,0-0.9,0c-2.1-0.1-3-1.9-4.3-3.2c-0.3-0.3-0.5-1-1-1
		c-0.1,0-0.2,0-0.2,0.1c-0.2,0.1-0.5,0.2-0.7,0.1c-1,0-1.2-1.2-1.8-1.9c-1.5,1.1-3.4,1.1-5.1,2.2s-3.8,1.1-5.9,1.3h-0.5
		c-0.6,0-1-0.4-1-1.1c0-1.5-1-2.1-2.3-2.2c-0.4,1-1.1,1.6-1.9,1.6c-0.4,0-1-0.1-1.3-0.4c-0.1-0.1-0.3-0.1-0.4-0.1
		c-1.1,0.2-1.9,1.3-1.8,2.3c0.1,0.6,0.6,1.4-0.3,1.8c-0.1,0.1-0.3,0.1-0.4,0.1c-0.6,0-0.7-0.9-1.1-1.3c-0.6-1-1.7-1.6-2.8-1.7
		c-0.3,0-0.7,0.1-1.1,0.2c-1.3,0.4-2.9-0.3-3.8,1.1c-0.7-1-1.8-1.6-3.1-1.8c-2.7-0.3-4.2-3.9-2.6-6c1.3-1.6,1.6-3.8,0.7-5.8
		c-0.9-1.7-1.3-3.6-1.5-5.5c-0.1-1.2-0.9-2.1-1.9-2.6c-1.1-0.4-1.9-1.3-2.3-2.5c-1.5-2.7-3.3-4.7-6.6-4.7h-0.1
		c-1.3,0-2.3-0.7-2.8-1.9c-0.6-1.5-3-1-3.3-3c-1,0.4-1.9,0.7-3,0.9c-0.9,0-1.6-0.4-2-1.2c0.7-1.4,0.2-2.6-1.4-3.2
		c-0.3-0.2-0.9-0.4-1-0.7c-0.9-4.2-4.8-2.5-7.1-3.6c-0.1-0.1-0.2-0.1-0.3-0.1c-0.6,0-1,1-1.2,1.6c-0.2,0.6-0.6,1.6-1.6,1.6h-0.4
		c-1-0.1-1.3-1.1-1.5-1.8c-0.6-2-0.9-4.1-2.9-5.4c-0.4-0.3-0.4-1-0.4-1.5c-0.2-1.6,0.1-3.3-0.9-4.9c-0.1-0.3-0.1-0.6,0-1
		c1-1.3,1.5-2.6,0.5-4.2c-0.5-0.9,0.9-1.3,1.2-1.9c1.3-1.9,1.6-4.3,0.9-6.4c-0.5-2.6,0.9-5.1,3.2-6.1c0.7-0.2,0.4-1.1,0.9-1.3
		c0.5-0.2,1.2-0.3,1.7-0.4c0.2-0.9,0.5-1.6,1.1-2.3c1.4-1.7,0-3.5-0.7-5.2c-0.3-0.5-0.5-1.2-0.4-1.9c0.4-1.8-0.1-2.7-1.6-2.7
		c-0.3,0-0.6,0-0.9,0.1c-1.1-1-2-2.1-2.8-3.3c-0.7-1.5-1.9-2.7-3.4-3.5l-1.1,1.7c-0.5-2.9-3.3-4.5-3.1-7.5c0.1-1.2-0.5-1.6-1.3-1.6
		c-0.4,0-0.9,0.2-1.3,0.4c-1.2,1.1-2.8,1.6-4.4,1.6c-1.7-0.1-3.5-0.4-5.1-1.1c-1.1-0.3-2.1-0.5-3.2-0.4c-2.2,0-4.4,0.5-6.5,0.5
		c-0.6,0.1-1.2,0.5-1.4,1.2c-0.2,0.9-1,1.4-1.8,1.5c-0.2,0-0.4,0-0.6-0.1c-1.3-0.3-2.6-0.9-2.7-2.5c0-0.4-0.1-0.9-0.1-1.3
		c0-1.1-0.4-1.5-1.1-1.5c-0.3,0-0.6,0.1-0.9,0.2c-0.7,0.3-1.5,0.5-2.3,0.5c-2,0-3.7-1.2-5.5-2.3c-0.3-0.2-0.6-0.7-1-0.9
		c-3.6-0.2-5.4-3.2-8-5c-1.4-1-2.9-2.1-4.7-2.1c-0.7,0-1.6,0.2-2.2,0.6c-0.1,0.1-0.3,0.1-0.5,0.1c-1.2,0-2.9-1.8-3.5-3.6
		c-0.7-1.9-1.9-3.7-3.3-5.2c-1.9,0.9-3,2.9-5.1,3.2c-0.6-0.7-1.2-1.8-0.3-2.5c1.6-1.2,0.6-2.5,0.1-3.3c-0.9-1.1-1.3-2.3-1.4-3.6
		c-0.7,0.3-1.3,1.1-1.9,1.1c-0.2,0-0.5-0.1-0.6-0.2c1.5-3.6,3.1-7.5,1.9-11.6c-0.7-2.9-1.7-5.8-2.8-8.6c-0.5-1.5-0.7-3.2-1.8-4.5
		c-0.7,0.1-0.7,0.6-0.6,1c0.1,3.7-0.5,7.5-0.9,11.2c-0.1,1.1-0.3,2.1-0.6,3.2c-0.5,1.1-0.3,2.3,0.5,3.2c-1,2.3-2.7,4.4-2.8,6.9
		c0.1,0.5-0.1,1-0.5,1.3c-1.2,0.7-2,1.9-2.3,3.3c-0.1,0.4-0.4,0.7-0.9,0.7c-0.1,0-0.2,0-0.2,0c-0.5-0.1-0.9-0.5-0.7-1.1
		c0-0.1,0-0.2,0.1-0.3c0.2-0.9,0.5-1.6,1-2.3c3-5.3,3.9-11.3,5.3-17.3c1.7-7.7,0.9-15.1-0.4-22.7c-1-5.6-1.7-11.3-0.5-16.9
		c0.4-2.7,0.4-5.3,0-7.9c-0.2-1.3,0.1-2,1.4-2.2c1-0.3,1.9-0.6,2.9-0.7c0.5,0,1.1,0.2,1.5,0.5c0.1,0.1,0.3,0.1,0.4,0.1
		c0.3,0,0.5-0.1,0.6-0.4c0-0.1,0.1-0.1,0.1-0.2c0.5-1.8,2.1-3.4,1.4-5.5c-0.4-0.7-0.2-1.7,0.5-2.1c0.2-0.1,0.3-0.2,0.5-0.2
		c0.9-0.3,1.5-0.9,1.8-1.7c1-2.2,3-3.7,5.3-4.3c1.8-0.4,3.3-1.7,3.9-3.4c0.4-1,0.9-1.8,1.9-1.8c0.1,0,0.3,0,0.4,0h0.4
		c0.6,0,1.1-0.6,1.5-1.2c0.6-1,1.7-1.6,2.8-1.6c0.6,0,1.3,0.2,1.9,0.5c0.6,0.4,1.3,0.6,2,0.6c1.1-0.1,2-0.6,2.7-1.5
		c1.2-1.4,3.1-2,4.3-3.5c0.2-0.2,0.4-0.3,0.6-0.3h0.1c0.4,0.3,1,0.4,1.5,0.4c1.5,0,2.9-1.3,4.4-1.3l0,0c0.9,0,1-0.7,1.2-1.3
		c0.5-1.3,1.1-2.7,2.5-2.7c0.4,0,0.7,0.1,1.2,0.2h0.1c0.2,0,0.4-0.1,0.6-0.2c1.1-0.4,2.2-0.7,3.3-0.7c1.9,0,3.7,0.7,5.1,2.1
		c0.2,0.2,0.5,0.3,0.7,0.3c0.2,0,0.4,0,0.6-0.1c0.5-0.2,1.2-0.3,1.8-0.3c0.7,0,1.5,0.2,2.1,0.7c0.2,0.1,0.4,0.2,0.6,0.2
		c0.7,0,1.5-0.7,2.2-0.9c0.4-0.1,1-0.1,1.5-0.1c0.6,0,1.2,0.1,1.8,0.3c1.7,0.7,3.5,1.2,5.3,1.2h0.2c1.1,0.1,2.1,0.6,2.8,1.6
		c1,1.1,1.6,1.6,2.5,1.6c0.9-0.1,1.6-0.5,2.2-1.1c0.4-0.3,1-0.5,1.5-0.5c0.4,0,0.7,0.1,1.2,0.2c0.9,0.2,1.7,0.3,2.6,0.3
		c0.7,0,1.6-0.1,2.3-0.2c1.4-0.3,2.5-0.6,2.8-2.3c0-0.9,0.7-1.5,1.5-1.6c0.2,0,0.3,0,0.5,0.1c1.6,0.3,2.7,1.8,2.5,3.4
		c-0.1,1.2,0.1,2.3,0.5,3.4c0.6,1.8,2.6,1.9,3.8,2.5c0.2,0.1,0.3,0.1,0.5,0.1c1.1,0,2.3-1.3,3.3-2.2c0.7-0.7-0.3-1.7,0-2.8
		c2.8-0.5,5.5-1.1,8.4-1.4c0.2,0,0.4,0,0.6,0c1.5,0,2.9,0.6,3.8,1.8c1.3,1.4,3.1,2.1,4.9,2c1.3,0,2.5-0.3,3.5-1
		c2.3-1.6,5.1-1.6,7.8-2c0.1,0,0.2,0,0.2,0c0.7,0,1.2,0.5,0.9,1.5c-0.5,0.9-0.5,2-0.1,3c1-1.2,2.3-1.8,3.8-1.8
		c1.3,0.1,2.5,0.3,3.5,0.9c0.4,0.2,1,0.3,1.5,0.3c0.1,0,0.2,0,0.4,0c0.3,0,0.5,0,0.9,0c1.5-0.2,2.9,0.7,3.2,2.2
		c0.6,2.6,3.6,2.7,4.8,4.6c0.3,0.3,0.7,0.5,1.2,0.5c0.6,0,1.3-0.2,1.7-0.6c1-1,2.1-1.6,3.4-1.9c0.7-0.2,1.5-0.6,1.9-1.3
		c0.2-0.4,0.6-0.6,1.1-0.6c0.6,0,1.2,0.4,1.5,1c0.4,0.6,0.7,1.3,1.5,1.3c0.2,0,0.4,0,0.6-0.1c0.1,0,0.1,0,0.2,0
		c0.3,0,0.5,0.1,0.7,0.3c0.4,0.7,1.3,1.2,2.1,1.3c0.9-0.1,1.7-0.4,2.5-1.1c0.4-0.4,1.1-0.7,1.6-0.9c1.9-0.2,2.9-1.1,2.6-3.1
		c0-0.5,0.2-1,0.6-1.3c0.2-0.2,0.4-0.4,0.6-0.5c1.7-0.6,0.5-3.1,1.9-3.5c1.4-0.4,3-0.2,3.2-2.2c0.1-0.4,0.5-0.5,1.1-0.5h0.4h1.2
		c1,0.1,1.8-0.3,2.3-1.1c0.1-0.1,0.2-0.2,0.4-0.2c0.4,0,1,0.4,1.4,0.4c0.3,0,0.5-0.1,0.7-0.3c0.2-0.6-0.3-1.8,0.6-2.5
		c0.3-0.2,0.6-0.4,1-0.4 M240.7,36.2c-0.6,0-1.2,0.2-1.6,0.5l0,0c-0.9,0.5-1.3,1.5-1.3,2.5c-0.3-0.1-0.6-0.2-1-0.2
		c-0.5,0-1.2,0.3-1.5,0.7l0,0c-0.3,0.4-0.5,0.5-1.3,0.5h-0.5c-0.2,0-0.4,0-0.6,0h-0.4c-1.8,0-2.2,1-2.3,1.6V42
		c-0.1,0.6-0.1,0.6-1.2,0.9c-0.4,0.1-0.7,0.1-1.2,0.3l0,0c-1.1,0.4-1.7,1.5-1.7,2.7c-0.1,0.7-0.1,0.9-0.2,0.9h-0.1l-0.1,0.1
		c-0.3,0.2-0.6,0.4-0.9,0.7c-0.7,0.5-1.1,1.4-1,2.3V50c0.1,0.4,0.1,0.7-0.1,1.2c-0.1,0.2-0.4,0.4-1.4,0.5h-0.1
		c-0.7,0.2-1.4,0.5-1.9,1c-0.1,0.1-0.1,0.1-0.2,0.2l0,0c-0.4,0.4-1.1,0.6-1.6,0.7c-0.1,0-0.5,0-1.1-0.7c-0.4-0.5-1.1-0.9-1.7-0.9
		c-0.2,0-0.4,0-0.6,0.1H215h-0.1h-0.1c-0.1-0.2-0.3-0.3-0.4-0.5l-0.1-0.1c-0.5-0.9-1.5-1.5-2.6-1.5c-0.9,0-1.7,0.4-2.1,1.2l0,0
		c-0.2,0.4-0.4,0.4-1.1,0.7l-0.2,0.1l-0.1,0.1c-1.4,0.4-2.7,1.2-3.7,2.2c-0.2,0.2-0.4,0.3-0.7,0.3h-0.1c-0.7-0.9-1.6-1.6-2.6-2.1
		c-1.2-0.6-1.8-1.1-2-1.9c-0.4-2-2.3-3.4-4.4-3.2c-0.3,0-0.6,0-1,0.1h-0.2c-0.3,0-0.6-0.1-1-0.2c-1.3-0.6-2.7-1-4.1-1
		c-0.9,0-1.7,0.2-2.6,0.5c0.3-0.7,0.2-1.6-0.2-2.2c-0.4-0.5-1.1-1-1.8-0.9c-0.1,0-0.3,0-0.4,0c-0.4,0.1-1,0.1-1.4,0.2
		c-2.3,0.2-4.8,0.5-6.9,2c-0.9,0.5-1.8,0.7-2.8,0.7c-1.5,0.1-3-0.5-3.9-1.6c-1.3-1.7-3.4-2.6-5.5-2.3c-2,0.2-4.2,0.6-6.1,1
		c-0.9,0.2-1.6,0.3-2.5,0.4l-0.7,0.1l-0.2,0.7c-0.2,0.7-0.2,1.5,0.1,2.1c0,0.1,0.1,0.2,0.1,0.3c-1.1,1.2-1.8,1.7-2.2,1.8
		c-0.4-0.2-0.9-0.3-1.2-0.4c-1.2-0.3-1.7-0.5-1.9-1.2v-0.1c-0.3-0.9-0.5-1.8-0.4-2.7l0,0c0.3-2.2-1.2-4.4-3.4-4.8
		c-0.3-0.1-0.5-0.1-0.9-0.1c-1.5,0.1-2.7,1.2-2.9,2.7c-0.1,0.7-0.4,1-1.7,1.3c-0.7,0.2-1.4,0.2-2.1,0.2s-1.6-0.1-2.3-0.2
		c-0.4-0.1-1-0.2-1.4-0.2c-0.9,0-1.6,0.2-2.2,0.7c-0.4,0.4-1,0.6-1.5,0.9c-0.2,0-0.7-0.4-1.5-1.2c-0.9-1.2-2.2-1.9-3.7-2H124
		c-1.7-0.1-3.3-0.4-4.9-1.1c-0.7-0.3-1.5-0.4-2.2-0.4c-0.5,0-1.1,0.1-1.6,0.2h-0.3c-0.5,0.1-1,0.3-1.4,0.5c-0.2,0.1-0.4,0.2-0.6,0.2
		c-0.9-0.6-1.8-1-2.9-0.9c-0.7,0-1.4,0.1-2.1,0.3c-0.1,0-0.2,0-0.2,0.1c-1.6-1.6-3.7-2.5-6-2.5c-1.3,0-2.7,0.3-3.8,0.9l0,0l0,0l0,0
		c-0.4-0.1-1-0.2-1.4-0.2c-2.2,0-3,1.9-3.5,3.3v0.1c0,0.1-0.1,0.2-0.1,0.3c0,0,0,0.1-0.1,0.1c-0.9,0.1-1.8,0.3-2.6,0.7
		c-0.5,0.3-1.1,0.5-1.6,0.5c-0.3,0-0.5-0.1-0.9-0.2h-0.1h-0.1c-0.2-0.1-0.4-0.1-0.6-0.2c-0.6,0-1.3,0.3-1.6,0.9
		c-0.5,0.6-1.2,1.2-1.9,1.6c-0.9,0.5-1.6,1.2-2.3,1.9c-0.9,1-1.3,1.1-1.6,1.1c-0.5,0-1-0.2-1.4-0.5c-0.7-0.4-1.6-0.7-2.5-0.7
		c-1.6,0-3,0.9-3.9,2.1l0,0l-0.1,0.1c-0.1,0.2-0.3,0.4-0.4,0.5h-0.4c-1.5,0.1-2.8,1.1-3.2,2.6v0.1c-0.5,0.6-1.6,1.6-3,1.9h-0.1
		c-2.8,0.5-5,2.5-6.2,4.9v0.1c-0.2,0.4-0.5,0.9-1,1c-0.9,0.2-1.5,0.7-1.9,1.4c-0.3,0.7-0.4,1.6-0.1,2.3l0,0c0.3,0.9-0.1,1.7-0.6,2.9
		c-0.2,0.4-0.4,0.9-0.5,1.3c-0.5-0.2-1.1-0.3-1.6-0.3c-0.7,0-1.5,0.2-2.2,0.5c-0.3,0.1-0.6,0.2-1,0.3c-1.9,0.4-2.7,1.7-2.5,3.7
		c0.4,2.5,0.4,5,0,7.5c-1.3,6.2-0.4,12.3,0.5,17.5c1.3,7,2.1,14.6,0.4,22.3c-0.2,0.7-0.3,1.5-0.5,2.3c-1.1,5.2-2.1,10-4.6,14.6v0.1
		c-0.4,0.9-0.9,1.7-1.1,2.6c-0.4,1.2,0.2,2.5,1.4,2.9c0.1,0,0.2,0.1,0.3,0.1l0,0c0.2,0,0.3,0.1,0.5,0.1c1,0,1.8-0.7,2-1.7
		c0.2-1.1,0.9-1.9,1.8-2.6c0.9-0.4,1.3-1.4,1.3-2.3c0.1-1.5,0.6-3,1.5-4.3c0.4-0.7,0.9-1.5,1.2-2.3l0.3-0.7l-0.5-0.6
		c-0.5-0.5-0.6-1.2-0.3-1.8v-0.1c0.4-1.2,0.6-2.3,0.7-3.5s0.2-2.3,0.3-3.5c0.2-1.4,0.3-2.8,0.4-4.2l0.1,0.3c1.1,2.8,2,5.6,2.8,8.5
		c1.1,3.8-0.4,7.4-1.9,10.8l-0.4,1l0.9,0.6c0.4,0.3,1,0.4,1.5,0.4c0.3,0,0.6-0.1,0.9-0.2c0.3,0.7,0.6,1.6,1.2,2.2h-0.1
		c0.6,1.1,0.5,1.1,0.1,1.4l0,0c-0.5,0.4-0.9,1-0.9,1.6c0,1,0.3,1.9,1.1,2.7l0.5,0.5l0.7-0.1c1.4-0.3,2.7-1.1,3.7-2
		c0.3-0.3,0.6-0.5,1-0.9c1,1.2,1.8,2.6,2.3,4.1c0.7,2.1,2.8,4.5,4.7,4.5c0.4,0,0.7-0.1,1.2-0.3c0.5-0.3,1.1-0.4,1.7-0.5
		c1.4,0,2.7,1,3.9,1.9c0.6,0.5,1.4,1.1,1.9,1.7c1.6,1.5,3.5,3.3,6.3,3.6c0.2,0.2,0.4,0.4,0.6,0.6l0.4,0.3c1.7,1.1,3.5,2.2,5.6,2.2
		c1,0,1.9-0.2,2.9-0.6c0,0,0,0,0.1,0v0.1c0,0.4,0,0.7,0,1.2c0,0.1,0,0.2,0,0.3c0.2,2.7,2.6,3.3,3.6,3.6h0.1c0.3,0.1,0.6,0.1,1,0.1
		c1.4,0,2.7-1,3.1-2.2l0,0c0-0.1,0.1-0.2,0.2-0.3c1.1,0,2-0.1,3.1-0.3c1.1-0.1,2.2-0.2,3.3-0.2c1,0,1.9,0.1,2.8,0.4l0.2,0.1
		c1.7,0.6,3.5,1,5.3,1.1c1.9,0,3.7-0.6,5.1-1.8c0.1-0.1,0.2-0.1,0.3-0.1v0.2c0,1.8,0.6,3.6,1.7,5c0.6,0.9,1.1,1.8,1.4,2.9l0.6,3.3
		l1.7-2.8l0.3-0.5c0.7,0.6,1.4,1.4,1.9,2.3l0,0c0.5,1,1.3,1.8,2.1,2.6c0.3,0.3,0.6,0.6,0.9,1l0.4,0.5l0.7-0.1c0.2,0,0.4-0.1,0.7-0.1
		c0.1,0,0.3,0,0.4,0.1c0.1,0.3,0,0.6-0.1,1c-0.1,0.9,0,1.8,0.4,2.6l0.1,0.1c0.1,0.3,0.3,0.6,0.4,1c0.7,1.5,1,2.2,0.4,2.9
		c-0.4,0.5-0.9,1.3-1.1,1.9c-0.4,0-1,0.2-1.3,0.4c-0.5,0.3-0.9,0.7-1,1.3c-2.9,1.4-4.5,4.5-3.7,7.6c0.6,1.7,0.4,3.7-0.6,5.2l0,0
		c-0.1,0.1-0.2,0.2-0.3,0.3c-0.4,0.4-1.8,1.5-0.9,3c0.5,1,0.4,1.5-0.4,2.7l-0.1,0.1v0.1c-0.3,0.6-0.3,1.5,0,2.1l0,0l0,0
		c0.4,1,0.6,1.9,0.5,2.9c0,0.4,0,1,0.1,1.5c0,0.1,0,0.2,0,0.3c0,0.9,0.3,1.6,1,2.1c1.3,0.9,1.6,2.2,2.1,3.8c0.1,0.3,0.2,0.5,0.2,0.9
		c0.2,0.9,0.7,2.6,2.7,2.8h0.2c1.9,0,2.6-1.8,2.8-2.5l0.1-0.1c0-0.1,0.1-0.3,0.2-0.4c0.9,0.3,1.8,0.4,2.8,0.5c2,0.1,2.9,0.3,3.3,2
		c0.3,0.7,0.9,1.4,1.7,1.7h0.1c0.4,0.2,0.9,0.4,0.9,0.6c0,0.3,0,0.5-0.2,0.7l-0.3,0.7l0.5,0.6c0.7,1,1.8,1.6,3,1.6
		c0.7,0,1.6-0.2,2.2-0.5c0.5,0.6,1.2,1.1,1.9,1.3c0.3,0.1,0.6,0.3,0.9,0.5c0.6,1.6,2.2,2.7,4.1,2.7h0.2c2.3,0,3.9,1.2,5.5,4.1
		c0.5,1.4,1.7,2.5,3.1,3c0.5,0.2,1,0.6,1.1,1.3c0.1,1.8,0.4,3.6,1.2,5.2c0.1,0.2,0.2,0.5,0.3,0.9c0.6,1.5,0.4,3.2-0.5,4.5
		c-1.6,2.3-1,5.6,1.4,7.2c0.6,0.4,1.3,0.7,2,0.9c0.9,0.1,1.7,0.5,2.2,1.3l1.1,1.2l1-1.3c0.3-0.4,0.5-0.4,1.5-0.4
		c0.6,0,1.3,0,1.8-0.2c0.2-0.1,0.4-0.1,0.6-0.1c0.5,0,1.2,0.3,1.8,1.2c0,0,0.1,0.1,0.1,0.2c0.2,1,1.1,1.6,2,1.6c0.3,0,0.6-0.1,1-0.2
		c0.6-0.2,1.2-0.9,1.4-1.5c0.1-0.4,0-0.9-0.1-1.3c0-0.1-0.1-0.2-0.1-0.3c0-0.4,0.2-0.7,0.5-1c0.5,0.3,1.2,0.4,1.8,0.4
		c1.1,0,1.9-0.5,2.6-1.4c0.3,0.1,0.5,0.4,0.4,0.9c-0.1,1.2,0.9,2.2,2,2.3h0.1h0.2l1.2-0.1c1.9,0,3.7-0.4,5.3-1.5
		c0.7-0.5,1.5-0.9,2.3-1.1c0.4-0.1,1-0.3,1.4-0.5c0.3,1,1.2,1.6,2.1,1.7c0.2,0,0.4,0,0.6-0.1c0.1,0.2,0.2,0.3,0.4,0.4
		c0.3,0.3,0.5,0.6,0.9,1c1,1.2,2.1,2.6,4.3,2.7c0.3,0,0.6,0,1,0c2.9,0.1,5.6-1.4,7-3.8c1.7-3,4.6-5.2,8-6c0,0.1-0.1,0.3-0.1,0.4
		c-0.4,0.9-0.4,1.9,0,2.9l0.2,0.4l0.4,0.2c0.5,0.2,1,0.3,1.5,0.3c1.3-0.1,2.3-0.9,3-1.9c0.2-0.3,0.6-0.9,0.9-0.9h0.3
		c1.5-0.1,2.8-1,3.5-2.2c0.5-0.7,0.9-1.2,1.4-1.4l-0.6-2.5c-0.2,0-0.5,0.1-0.7,0.1c-0.6,0-1,0-1.1-2c-0.1-0.7-0.5-1.4-1.1-1.9
		c-0.1-0.1-0.2-0.2-0.3-0.3l0,0c-0.1-0.1-0.1-0.1-0.2-0.2l-0.1-0.1c1.2-0.2,2-1.2,2.2-2.2c0.5-0.1,1-0.3,1.5-0.5
		c0.4-0.1,0.7-0.3,1.1-0.5c0.3-0.2,0.6-0.3,1-0.4l0,0c0.4-0.2,0.9-0.3,1.2-0.3c0.1,0,0.3,0,0.6,0.6c0.7,1.3,2.2,2,3.7,1.9
		c1.4,0,2.7-0.4,3.6-1.5c0.6-0.7,1.4-1.5,2.1-2.2c1.8-1.9,3.7-3.7,4.7-6.5c0.1,0,0.2,0,0.3,0c0.6,0,1.3-0.3,1.6-0.7
		c0.6,0.3,1.3,0.4,2,0.4s1.5-0.2,2.1-0.5l0,0c2.1-1.3,4.4-2.2,6.7-3c0.2,0.3,0.5,0.6,0.7,1c0.7,0.9,1.4,1.7,1.9,2.7
		c-0.4,0.2-0.7,0.5-1,1l-0.2,0.6l0.3,0.5c0.3,0.5,0.3,0.6-0.6,1.3c-0.4,0.3-0.9,0.6-1.2,1.2l-0.3,0.4l0.1,0.4c0.3,3.4,3,3.8,4.5,4.1
		c1.1,0.2,1.6,0.3,1.9,0.7l0.4,0.9l1-0.2c1.5-0.4,2.7-1.3,3.6-2.5c0.4,0.2,0.9,0.2,1.2,0.2c0.4,0,1-0.1,1.4-0.2
		c0.1,0,0.4-0.1,0.4-0.1h0.6l0.3-0.5c0.7-1.4,0.7-3-0.1-4.4c-0.5-1.3-0.6-1.5,0.1-2l1.1-0.9l-1-1c-0.3-0.3-0.5-0.7-0.9-1.2
		c-0.5-1.1-1.5-1.9-2.6-2.5c0-1-0.3-1.9-1-2.7c-0.7-0.9-1.8-1.3-2.9-1.3c-0.5,0-1.2,0.1-1.7,0.2c-0.3,0.1-0.6,0.1-1,0.1
		c-0.5,0-1.1-0.2-1.5-0.5c0.3-0.4,0.5-0.9,0.7-1.4c0.2-0.4,0.4-0.9,0.6-1.2l0,0c1.3-1.5,3.6-4.4,2.2-7.9c1-0.7,1.5-1.9,1.7-3.1
		c0.1-0.2,0.1-0.4,0.2-0.6c0.2-1.1,0.9-2,1.7-2.6c2.8-1.5,3.8-4.1,3.2-7.6c-0.1-1-0.4-1.8-0.6-2.7c-0.1-0.5-0.2-1-0.4-1.5
		c0-0.1-0.1-0.2-0.1-0.3c-0.1-0.3-0.2-0.7-0.1-1.1c0.9-3.1,1-6.4,0.2-9.5c-0.2-1,0.1-1.3,0.5-1.5c0,0,0.1,0,0.1-0.1
		c0.7-0.3,1.2-1.1,1.2-1.9v-0.1c-0.1-1,0.5-1.6,1.5-2.6l0.4-0.4c1.1-1,1.7-2.2,2-3.6c1.6-1.2,3.5-2.1,5.4-2.7c0.6,0.6,1.5,1,2.3,1
		c1.4-0.1,2.6-0.9,3.3-2l0,0c0.1-0.1,0.1-0.2,0.2-0.3c1-1.1,1.5-1.6,2.5-1.7s3.3-0.3,4.1-2.3c0.2-0.6,0.5-1.3,0.6-1.9
		c0.3-1.4,1-2.7,1.8-3.7l0,0c0.5-0.9,0.5-1.9-0.1-2.7l-0.1-0.1l0,0c-0.1-0.2-0.3-0.4-0.5-0.6l-0.1-0.1c0.5-0.3,1.1-0.5,1.7-0.7
		c1.1-0.3,2-0.9,3-1.6c0.9,0.6,1.9,1,3,0.9c0.6,0,1.1,0,1.3,0.2l1.2,1.2l0.9-1.4c0.3-0.5,0.6-1,1-1.4c0.4,0.1,1,0.2,1.4,0.3
		c0.3,0.1,0.5,0.1,0.9,0.1h0.1h0.1c0.7-0.2,1.5-0.3,2.3-0.3c2.1-0.2,4.5-0.4,6.4-2.5l0.5-0.5l-0.1-0.6c-0.1-0.4-0.3-0.7-0.6-1.1
		c0.3-0.2,0.6-0.4,1-0.7c0.7-1,1.2-2.2,1-3.4c0.1-0.1,0.3-0.2,0.4-0.2c0.6-0.3,1.3-0.6,1.9-1.1l0,0c0.1-0.1,0.3-0.2,0.4-0.3
		c1.1-0.7,3.1-2,2.1-4.7l0,0c-1-2.6-3.5-2.6-4.5-2.6h-1.3c-0.4,0-0.6,0-0.9-0.1c-0.7-0.7-1.7-1.2-2.8-1.2c-1.2,0.1-2.2,0.4-3.2,1.1
		c-0.1,0.1-0.3,0.2-0.4,0.3l-5.1-1.1c0.3-0.3,0.7-0.6,1.1-0.7l0.2-0.1c1.1-0.4,3.7-1.5,3.1-4.5c-0.1-1-0.2-1.9-0.1-2.9
		c0.2-1.8-0.1-3.6-0.9-5.3c-0.1-0.2-0.2-0.4-0.2-0.6c0,0,0.1-0.3,0.7-0.6c2.1-1.1,3.7-3.1,4.2-5.4c0.3-2.5,0.3-5,0-7.5
		c0-0.4-0.1-1-0.1-1.4l-0.1-1.1l-1.1-0.1c-0.3,0-0.6,0-1,0c-0.4,0-0.7,0-1.1,0s-0.6,0-1,0c-1.1,0-1.3-0.2-1.3-0.2
		c-1.3-1.2-2.9-1.9-4.7-2.1c-2-0.5-3.4-0.9-4.1-2.6c-0.2-0.5-0.7-0.9-1.3-1h-0.1c-2.3-0.7-3.6-2.6-4.3-6.1c-0.2-1.1-0.9-4.2-3.8-5.1
		c-2.1-0.7-3.2-2.3-4.5-4.4l-0.2-0.3l-0.5-0.7c-0.9-1.7-2.2-3.1-3.9-3.9c-0.5-0.2-1-0.5-1.5-0.7c-1.4-0.7-2.9-1.4-4.4-1.7
		c-0.2,0-0.3-0.1-0.4-0.5c-0.5-1.5-1.3-4.4-4.8-5l0,0c-0.5-0.1-1-0.4-1.4-0.9c-0.5-0.4-1.1-0.7-1.7-1.1c0.2-1.1,0.1-2.1-0.4-3.1
		c-0.2-0.3-0.3-0.7-0.3-1.2l0.1-1.4h-1.6c-0.1,0-0.1,0-0.2,0c-0.3,0-0.5,0.1-0.9,0.2H279c-0.5,0.5-1.2,0.9-1.9,1
		c-0.2,0-0.7-0.2-1.8-1.6l0,0c-0.5-0.7-1.4-1.2-2.2-1.3c-0.9,0-1.6,0.4-2.1,1.2l0,0c-0.3,0.4-0.4,0.4-0.6,0.4
		c-0.3,0-0.7-0.1-1.1-0.2c-0.5-0.2-1.2-0.3-1.8-0.3c-0.1,0-0.3,0-0.4,0c-0.5-0.4-1.1-0.6-1.7-0.6c-0.6,0-1.4,0.2-1.9,0.5
		c-0.3,0.2-0.6,0.3-1,0.3c-0.5,0-1.1-0.5-1.9-1.4l-0.2-0.2c-0.1-0.1-0.2-0.2-0.2-0.3c-0.4-0.7-1-1.3-1.8-1.5l-0.4-0.1l-0.4,0.2
		c-1,0.6-2.1,1-3.3,1c-1.9,0-3-1.5-3.4-4.4c-0.2-1.5-1-3-1.9-4.2c-0.3-0.4-0.6-0.7-1-1.2c-1.4-1.6-2.1-2.6-1.8-4.3l0,0
		c0.2-1.4-0.2-2.7-1.2-3.7l-0.1-0.2c-0.1-0.2-0.3-0.4-0.5-0.6c-1-1.3-1.5-2.1-1.3-3.2l0,0c0.3-1.2-0.2-2.3-1.3-2.8
		C241.6,36.2,241.1,36.1,240.7,36.2L240.7,36.2z"/>
</g>
<rect y="16.6" class="st4" width="400" height="300"/>
<g>
	
		<ellipse transform="matrix(0.6003 -0.7998 0.7998 0.6003 -69.3176 225.6753)" class="st5" cx="191.1" cy="182.2" rx="26.1" ry="47.6"/>
	
		<ellipse transform="matrix(0.6165 -0.7874 0.7874 0.6165 -66.0398 221.3912)" class="st6" cx="194.2" cy="178.5" rx="23" ry="47.5"/>
	
		<ellipse transform="matrix(0.6165 -0.7874 0.7874 0.6165 -66.0398 221.3912)" class="st7" cx="194.2" cy="178.5" rx="18.5" ry="38"/>
	<path class="st5" d="M181.2,175.9c-0.5,2.4,2.4,6.3,6.3,8.7c2.4,1.5,4.9,2,6.4,1.5l0.8-0.3l1,1c1,1,2.1,1.9,3.4,2.6
		c3.9,2.4,7.4,2.3,7.9-0.1l0.1-0.8l4,2.5c0.9,0.5,1.6,0.5,1.8,0c0.1-0.5-0.5-1.4-1.4-1.9l-4-2.5l0.6-3.3l4,2.5
		c0.9,0.5,1.6,0.5,1.6,0c-0.1-0.8-0.6-1.5-1.4-1.9l-4-2.5l0.5-2.5c0.1-0.5-0.5-1.4-1.4-1.9c-0.9-0.5-1.6-0.5-1.6,0l-0.5,2.5
		l-19.3-11.6l0.5-2.5c0.1-0.5-0.5-1.4-1.4-1.9c-0.9-0.5-1.6-0.5-1.6,0l-0.5,2.5l-4-2.5c-0.9-0.5-1.6-0.5-1.8,0
		c-0.1,0.5,0.5,1.4,1.4,1.9l4,2.5l-0.6,3.4l-4-2.5c-0.9-0.5-1.6-0.5-1.6,0c0.1,0.8,0.6,1.5,1.4,1.9l4,2.5L181.2,175.9z M205,181.7
		l-1.1,6c-0.3,1.4-2.3,1.4-4.5,0.1c-2.3-1.3-3.9-3.7-3.7-5l1.1-6L205,181.7z M185.7,170l8.1,4.9l-1.4,7.8c-0.3,1.4-2.3,1.4-4.5,0.1
		s-3.9-3.5-3.7-5L185.7,170z"/>
</g>
<g>
	
		<ellipse transform="matrix(0.5509 -0.8346 0.8346 0.5509 23.7548 266.5287)" class="st8" cx="259.5" cy="111.2" rx="40.6" ry="19.6"/>
	
		<ellipse transform="matrix(0.5509 -0.8346 0.8346 0.5509 24.7749 263.7458)" class="st9" cx="257.4" cy="108.9" rx="39.7" ry="18.2"/>
	
		<ellipse transform="matrix(0.5509 -0.8346 0.8346 0.5509 24.7749 263.7458)" class="st10" cx="257.4" cy="108.9" rx="31.9" ry="14.6"/>
	<path class="st11" d="M261.7,102.9l5.6-6.9c-0.8-0.5-1.4-0.9-2.2-1.4c-0.4-0.3-0.7,0-1.2,0.6c-1.9,2.2-3.7,4.3-5.5,6.6
		c-1.2,1.4-2,2-3,2.1c-1.3,0.1-1.4,0.2-2.5,2.4l1.8-0.2c-1.9,2.4-3.8,4.4-5.6,6.8l7.6,5c0.2,0.1,0.4,0.1,0.6-0.3
		c0.9-1,1.8-2.1,2.9-3.2l-5.3-3.4c1.1-1.3,2.1-2.4,3-3.6c1.2-1.5,2.1-2.2,3.1-2.2c1.3,0,1.4-0.2,2.5-2.4L261.7,102.9z"/>
</g>
<g>
	<ellipse class="st12" cx="88.4" cy="225" rx="47.5" ry="54.6"/>
	<ellipse class="st13" cx="82.6" cy="223.2" rx="45.8" ry="52.9"/>
	<ellipse class="st12" cx="82.6" cy="223.2" rx="36.7" ry="42.4"/>
	<path class="st13" d="M90.6,198.7c4.9,0,8.7,4.1,8.9,10c0.2,5.4-3.4,9.9-7.7,10.5c-0.6,0.1-1.3,0.2-1.9,0.1c-2-0.2-3.7,1.2-3.9,3.2
		v0.6c0,2.4,1.5,4.1,3.6,4c4.4-0.2,8.2,3,9.2,7.9c1,3.8-0.2,7.7-3,10.4c-2.3,2.6-6.2,3.2-9.2,1.5c-3.4-1.6-5.1-4.7-5.4-8.9
		c-0.1-2,0.3-4,1.1-5.8c0.7-1.5,0.4-3.3-0.8-4.5c-1-1.1-2.5-1.3-3.8-0.6c-0.5,0.4-1,0.8-1.3,1.4c-2.3,3.7-5.4,5.2-9.2,4.3
		s-6.2-3.8-7-8.3c-1.2-6.3,3.7-12.6,9.3-12.1c3.6,0.3,6.2,2.4,7.8,6.2c0.5,1.6,2.2,2.5,3.8,2.1c0.1,0,0.1,0,0.2-0.1
		c0.2-0.1,0.3-0.1,0.5-0.2c1.8-1.1,2.5-3.5,1.5-5.4c-0.9-1.7-1.5-3.6-1.6-5.5C81.5,203.4,85.4,198.8,90.6,198.7z"/>
</g>
<g>
	<path class="st14" d="M331.3,14.3c1.9,0.5,3.9,1.1,5.7,1.9l0.4,0.1c0.2,0.2,0.5,0.4,0.8,0.5l0.2,0.1c0.4,0.8,1.6,1.2,2.4,1.9
		c0.5,0.4,0.4,0.9,1.2,1c0.5,1.1,1.5,2.3,2,3.6c-0.1,0.1,0,0.2,0.1,0.3h0.1c0.1,0.8,0.2,1.6,0.5,2.4c0,0-0.4,0.1-0.1,0.2
		c-0.1,2-0.6,4-1.4,5.9c-1,1.2-1.7,3.1-3,4.3c-9.8,12.7-43.3,19.2-51.8,4.3c0.1-0.2-0.3-0.2-0.3-0.5s0.2-0.4-0.1-0.5
		c-0.9-0.9-0.5-3.5-0.8-4.4c0.1-0.3,0.1-0.6,0-0.9c0.2-0.5,0.2-1.1,0.6-1.5c0.3-1.2,0.7-2.3,1.2-3.4c0.3-0.3,0.5-0.6,0.7-1
		c1.4-2,3-3.7,4.9-5.2c0.1-0.4,0.8-0.4,0.7-0.9c0.1,0.1,0.2,0,0.3-0.1v-0.1c2.1-1.4,4.7-2.9,7-4.3c0.2,0,0.5-0.1,0.6-0.3
		c3.9-1.5,8-2.8,12.1-3.7c0.5,0.1,1.1,0,1.5-0.3c1.2,0,2.4-0.1,3.6-0.4c0.2,0,0.4,0.2,0.5-0.1c1.1,0.3,2.5-0.1,3.7,0.1
		c0.3-0.3,0.7,0.2,1-0.2c0.2,0.1,0.2-0.1,0.4-0.1c0.1,0.5,0.5,0.2,0.8,0.2C328.1,14.1,329.6,13.7,331.3,14.3z M338.4,32.5
		c5.6-9.3-3.9-15.2-11.8-16.1c-20-2.1-39.9,12.3-33.6,22.9c3,5.9,11,6.8,17.1,7.1c10.6-0.7,22.1-4.3,28.2-13.5L338.4,32.5z"/>
	<path class="st15" d="M338.3,32.9c-6.1,9.3-17.7,12.8-28.2,13.5c-6-0.3-14.1-1.2-17.1-7.1c-0.5-3,0.1-6,1.7-8.6
		c5.1-6.8,12-9.3,19.1-11.5c3.5-0.2,7.4-1.3,11-0.6c7.5,0.1,17,5.2,13.6,13.8C338.2,32.4,337.9,32.8,338.3,32.9z M316.4,25.8
		C316.7,25.9,316.6,25.3,316.4,25.8c-4.3,0.2-8.5,0.7-12.9,1.1l5.4,6.7c0.4-1.6,0.6-3.4,0.9-4.9C312.1,27.8,314.2,26.9,316.4,25.8z
		 M320.7,25.2c-3.1,0.9-6.3,2.7-9.5,3.9c-0.3,0.9-0.5,1.9-0.6,2.9c-0.3,1.2-0.5,2.4-0.7,3.6c0.2,0.2,0.4-0.1,0.6,0
		c6.3-0.3,12.9-0.5,19.3-1.1C326.9,31.5,324,27.8,320.7,25.2z"/>
	<path class="st15" d="M345.3,27.5l-0.1,0.2c0,1.2,0.2,2.4,0.6,3.6c-0.2,0.5,0.1,1.1-0.2,1.6c0.1,1.9-1,3.7-1.6,5.6
		c-1.5,2-3.1,4-4.9,5.8c-0.1,0-0.2,0-0.2,0.1v0.1c-1.2,0.6-2.4,2.1-3.8,2.7c-1.2,0.9-2.8,1.2-3.6,2.3c-0.1-0.1-0.2,0-0.3,0.1v0.1
		c-0.4-0.2-0.8,0-1,0.4c-0.1,0-0.2,0-0.3,0.2c-0.4-0.2-0.8,0-1,0.4c-0.1-0.1-0.2,0-0.3,0.2c-0.1-0.1-0.2,0-0.3,0.1v0.1
		c-0.3-0.1-0.5,0-0.7,0.2l0,0c-0.5-0.1-0.6,0-0.8,0.5c-3.2,0.7-6.6,1.9-10,2.5c-0.8,0.1-2.5-0.1-3.1,0.5c-1.5-0.3-3.4,0.3-5.1-0.1
		c-0.4,0.3-0.8-0.2-1.1,0.1c-4-0.5-8.1-1.1-11.6-3c-1.2-0.6-2.4-1.8-3.7-2.4c0-0.5-0.5-0.7-1-1.2c-1.5-2.1-2.4-4.6-2.6-7.2
		c9.4,15.6,43.1,7.4,51.7-4.5c1.3-1.1,2.1-2.9,3-4.3c0.8-1.9,1.3-3.9,1.4-5.9c0.5,0.3,0.3,0.9,0.4,1.3L345.3,27.5z"/>
	<path class="st16" d="M338.4,32.5c3.4-9-6.6-13.6-13.6-13.8c-3.6-0.7-7.4,0.4-11,0.6c-7.6,2.2-14.4,5.2-19.1,11.5
		c-1,1.8-1.7,3.8-2,5.8c-0.1,1,0.5,1.7,0.2,2.8c-2.5-3.9-0.6-8.5,2.1-11.9c7.9-9.1,21.7-12,31.5-11C337.3,17.8,343.1,25,338.4,32.5z
		"/>
	<path class="st16" d="M338.3,32.9c-0.1,0-0.2-0.2-0.2-0.3s0.2-0.2,0.3-0.2L338.3,32.9z"/>
	<path class="st14" d="M320.8,25.2c3.2,2.6,6,6.2,9.2,9.2c-6.2,0.6-12.9,0.8-19.3,1.1c2-1.7,5.4-3,7.9-4.3
		C319.3,29.3,320,27.3,320.8,25.2z"/>
	<path class="st17" d="M320.8,25.2c-0.7,2-1.5,3.9-2.2,6.1c-2.5,1.3-5.7,2.5-7.9,4.3c-0.2-0.1-0.4,0.3-0.6,0
		c0.2-1.2,0.4-2.4,0.7-3.6c0.1-1,0.3-2,0.6-2.9C314.4,28,317.7,26.1,320.8,25.2z"/>
	<path class="st14" d="M316.4,25.9l-6.6,2.8c-0.3,1.4-0.5,3.2-0.9,4.9l-5.4-6.7C307.9,26.6,312.1,26,316.4,25.9z"/>
</g>
<path class="st18" d="M337.1,197.3c7.2,7,7.3,18.5,0.3,25.7l0,0l-0.3,0.3c-7.2,7.2-18.9,7.3-26.1,0.1s-7.3-18.9-0.1-26.1
	c7.2-7.2,18.9-7.3,26.1-0.1L337.1,197.3z M331.1,217.3c1.9-1.8,2.9-4.4,2.9-7c0.1-2.6-1-5.1-2.9-6.9c-1.9-1.9-4.4-2.9-7.1-2.8
	c-5.3-0.1-9.7,4.2-9.8,9.5v0.2c0,2.6,1,5.1,2.8,7s4.3,2.9,6.9,2.9C326.6,220.3,329.2,219.2,331.1,217.3z M373.3,199.6l-47.7,74.1
	c-0.8,1.5-2.4,2.5-4.1,2.4c-2.7-0.1-4.9-2.3-5-5c0.1-1,0.4-2,0.9-2.9l47.8-74.2c0.8-1.5,2.4-2.5,4.1-2.4c1.4,0,2.7,0.5,3.6,1.5
	c1,0.9,1.5,2.3,1.4,3.6C374.2,197.7,373.9,198.7,373.3,199.6L373.3,199.6z M353.5,270.7c-7.2-7.2-7.2-18.8,0-26l0.1-0.1
	c3.4-3.4,8.1-5.3,12.9-5.4c10.2-0.1,18.4,8.1,18.5,18.3s-8.1,18.4-18.3,18.5C361.8,276.2,357,274.2,353.5,270.7z M359.5,250.7
	c-3.9,3.7-4,9.8-0.3,13.7l0.1,0.1l0.2,0.2c3.8,3.8,9.9,3.9,13.7,0.1c2-1.9,3-4.6,2.9-7.4c-0.2-5.2-4.4-9.4-9.6-9.6
	C363.9,247.8,361.4,248.9,359.5,250.7L359.5,250.7z"/>
</svg>
