<?xml version="1.0" encoding="utf-8"?>
<!-- Generator: Adobe Illustrator 24.3.0, SVG Export Plug-In . SVG Version: 6.00 Build 0)  -->
<svg version="1.1" id="Layer_1" xmlns="http://www.w3.org/2000/svg" xmlns:xlink="http://www.w3.org/1999/xlink" x="0px" y="0px"
	 viewBox="0 0 400 300" style="enable-background:new 0 0 400 300;" xml:space="preserve">
<style type="text/css">
	.st0{fill:none;}
	.st1{fill:#F3F2EF;}
	.st2{fill:#C98017;}
	.st3{fill:#FBED60;}
	.st4{fill:#FABA31;}
	.st5{fill:#68C2EE;}
	.st6{fill:#0491BE;}
	.st7{fill:#68C2EF;}
	.st8{fill:#31798F;}
	.st9{fill:#C1BDBE;}
	.st10{fill:#6E6E6E;}
	.st11{fill:#6C6C6C;}
	.st12{fill:#BCBCBC;}
	.st13{fill:#E1E1E1;}
	.st14{fill:#0A0A09;}
	.st15{clip-path:url(#SVGID_2_);}
	.st16{fill:#AD2132;}
	.st17{fill:#175092;}
	.st18{fill:#FEFEFE;}
	.st19{fill:#D8E9FB;}
	.st20{fill:#396394;}
	.st21{fill:#A94451;}
	.st22{fill:#FEE0E4;}
	.st23{fill:none;stroke:#000000;stroke-miterlimit:10;}
</style>
<rect y="16.6" class="st0" width="400" height="300"/>
<path class="st1" d="M352.5,70.9c4.6,4.5,4.7,11.8,0.2,16.4l0,0l-0.2,0.2c-4.6,4.6-12.1,4.7-16.7,0.1c-4.6-4.6-4.7-12.1-0.1-16.7
	C340.4,66.3,347.9,66.2,352.5,70.9L352.5,70.9z M348.7,83.7c1.2-1.2,1.9-2.8,1.9-4.5c0.1-1.7-0.6-3.3-1.9-4.4
	c-1.2-1.2-2.8-1.9-4.5-1.8c-3.4-0.1-6.2,2.7-6.3,6.1v0.1c0,1.7,0.6,3.3,1.8,4.5c1.2,1.2,2.8,1.9,4.4,1.9
	C345.8,85.6,347.5,84.9,348.7,83.7z M375.7,72.4l-30.5,47.4c-0.5,1-1.5,1.6-2.6,1.5c-1.7-0.1-3.1-1.5-3.2-3.2
	c0.1-0.6,0.3-1.3,0.6-1.9l30.6-47.5c0.5-1,1.5-1.6,2.6-1.5c0.9,0,1.7,0.3,2.3,1c0.6,0.6,1,1.5,0.9,2.3
	C376.2,71.2,376.1,71.8,375.7,72.4L375.7,72.4z M363,117.9c-4.6-4.6-4.6-12,0-16.6l0.1-0.1c2.2-2.2,5.2-3.4,8.3-3.5
	c6.5-0.1,11.8,5.2,11.8,11.7c0.1,6.5-5.2,11.8-11.7,11.8C368.3,121.4,365.2,120.1,363,117.9z M366.8,105.1c-2.5,2.4-2.6,6.3-0.2,8.8
	l0.1,0.1l0.1,0.1c2.4,2.4,6.3,2.5,8.8,0.1c1.3-1.2,1.9-2.9,1.9-4.7c-0.1-3.3-2.8-6-6.1-6.1C369.7,103.2,368.1,103.9,366.8,105.1
	L366.8,105.1z"/>
<g>
	<ellipse transform="matrix(0.6517 -0.7585 0.7585 0.6517 -168.3496 133.377)" class="st2" cx="61" cy="250" rx="27.5" ry="50"/>
	<ellipse transform="matrix(0.667 -0.7451 0.7451 0.667 -162.1858 130.1824)" class="st3" cx="64.5" cy="246.5" rx="24.3" ry="50"/>
	<ellipse transform="matrix(0.667 -0.7451 0.7451 0.667 -162.1858 130.1824)" class="st4" cx="64.5" cy="246.5" rx="19.5" ry="40"/>
	<path class="st2" d="M51,242.8c-0.8,2.5,2.2,6.7,6,9.5c2.5,1.7,5,2.5,6.6,2l0.9-0.3l0.9,1.1c0.9,1.1,2.1,2.1,3.4,3
		c4,2.8,7.7,2.9,8.3,0.4l0.2-0.9l4.1,3c0.9,0.6,1.7,0.7,1.9,0.2s-0.5-1.5-1.3-2.1l-4.1-3l1-3.5l4.1,3c0.9,0.6,1.7,0.7,1.8,0.1
		c-0.1-0.9-0.6-1.6-1.3-2.1l-4.1-3l0.7-2.7c0.2-0.5-0.5-1.5-1.3-2.1c-0.9-0.6-1.7-0.7-1.8-0.1l-0.7,2.7l-19.4-13.5l0.7-2.7
		c0.2-0.5-0.5-1.5-1.3-2.1c-0.9-0.6-1.7-0.7-1.8-0.1l-0.7,2.7l-4.1-3c-0.9-0.6-1.7-0.7-1.9-0.2c-0.2,0.5,0.5,1.5,1.3,2.1l4.1,3
		l-1,3.5l-4.1-3c-0.9-0.6-1.7-0.7-1.8-0.1c0.1,0.9,0.6,1.6,1.3,2.1l4.1,3L51,242.8z M75.7,250.5l-1.6,6.2c-0.4,1.4-2.5,1.3-4.7-0.1
		c-2.4-1.4-3.9-4.1-3.5-5.6l1.6-6.2L75.7,250.5z M56.3,236.8l8.1,5.7l-2,8.1c-0.4,1.4-2.5,1.3-4.7-0.1c-2.1-1.4-3.9-4-3.5-5.6
		L56.3,236.8z"/>
</g>
<g>
	
		<ellipse transform="matrix(0.5509 -0.8346 0.8346 0.5509 -26.2756 388.2291)" class="st5" cx="347.6" cy="218.5" rx="53" ry="25.6"/>
	
		<ellipse transform="matrix(0.5509 -0.8346 0.8346 0.5509 -24.903 384.5548)" class="st6" cx="344.9" cy="215.4" rx="51.9" ry="23.8"/>
	
		<ellipse transform="matrix(0.5509 -0.8346 0.8346 0.5509 -24.903 384.5548)" class="st7" cx="344.9" cy="215.4" rx="41.6" ry="19.1"/>
	<path class="st8" d="M350.5,207.7l7.3-9c-1.1-0.7-1.9-1.2-2.8-1.9c-0.5-0.4-1,0-1.5,0.9c-2.5,2.8-4.8,5.7-7.2,8.7
		c-1.5,1.9-2.6,2.6-3.9,2.7c-1.6,0.1-1.9,0.2-3.3,3.1l2.4-0.2c-2.5,3.2-5,5.8-7.3,8.9l9.9,6.5c0.2,0.1,0.5,0.1,0.9-0.4
		c1.2-1.3,2.4-2.7,3.8-4.1l-6.8-4.5c1.4-1.6,2.7-3.1,3.9-4.7c1.5-2,2.7-2.8,4-2.8c1.6,0,1.7-0.2,3.3-3.1L350.5,207.7z"/>
</g>
<g>
	<ellipse class="st9" cx="78.1" cy="91.1" rx="53.3" ry="61.3"/>
	<ellipse class="st10" cx="71.5" cy="89" rx="51.5" ry="59.4"/>
	<ellipse class="st9" cx="71.5" cy="89" rx="41.2" ry="47.6"/>
	<path class="st10" d="M80.5,61.5c5.5,0,9.7,4.6,10,11.3c0.3,6-3.8,11.1-8.6,11.8c-0.7,0.1-1.4,0.3-2.1,0.1
		c-2.3-0.3-4.2,1.4-4.4,3.7v0.7c0,2.7,1.7,4.6,4.1,4.5c4.9-0.3,9.1,3.4,10.3,8.9c1.1,4.2-0.3,8.6-3.4,11.7c-2.5,3-6.9,3.7-10.3,1.7
		c-3.8-1.8-5.8-5.3-6-10c-0.1-2.3,0.3-4.5,1.3-6.5c0.8-1.7,0.4-3.7-0.8-5.1c-1.1-1.3-2.8-1.4-4.2-0.7c-0.6,0.4-1.1,0.8-1.4,1.5
		c-2.5,4.2-6,5.9-10.3,4.8c-4.2-1-6.9-4.2-7.9-9.3c-1.4-7,4.2-14.2,10.4-13.6c4.1,0.3,6.9,2.7,8.7,6.9c0.6,1.8,2.5,2.8,4.2,2.4
		c0.1,0,0.1,0,0.3-0.1c0.3-0.1,0.3-0.1,0.6-0.3c2-1.3,2.8-3.9,1.7-6c-1-2-1.7-4.1-1.8-6.2C70.4,66.8,74.8,61.7,80.5,61.5z"/>
</g>
<g>
	<path class="st11" d="M168.2,252.4c1.7,1.1,3.5,2.2,4.9,3.5l0.4,0.2c0.1,0.3,0.4,0.6,0.6,0.7l0.1,0.1c0.1,0.9,1.2,1.6,1.8,2.5
		c0.4,0.6,0.1,1,0.8,1.3c0.1,1.2,0.8,2.7,0.9,4.1c-0.1,0.1-0.1,0.2,0,0.4h0.1c-0.1,0.8-0.3,1.6-0.2,2.5c0,0-0.4,0-0.1,0.1
		c-0.7,1.9-1.8,3.7-3.1,5.3c-1.3,0.8-2.5,2.5-4.2,3.2c-13.2,9.4-47.5,5.9-51.3-10.9c0.1-0.1-0.2-0.3-0.1-0.6
		c0.1-0.3,0.3-0.4,0.1-0.5c-0.6-1.1,0.6-3.5,0.5-4.5c0.2-0.3,0.3-0.6,0.3-0.8c0.4-0.4,0.5-1,1-1.3c0.6-1.1,1.3-2,2.2-3
		c0.4-0.2,0.6-0.4,1-0.8c1.9-1.6,4-2.7,6.3-3.6c0.2-0.4,0.9-0.1,0.9-0.6c0.1,0.1,0.2,0.1,0.4,0v-0.1c2.5-0.7,5.4-1.4,8-2.1
		c0.2,0.1,0.5,0.1,0.6-0.1c4.2-0.3,8.5-0.4,12.8-0.1c0.4,0.2,1.1,0.4,1.6,0.1c1.1,0.4,2.3,0.6,3.6,0.6c0.2,0.1,0.4,0.3,0.5,0.1
		c1,0.6,2.5,0.6,3.5,1.2c0.4-0.2,0.6,0.4,1.1,0.1c0.1,0.1,0.2-0.1,0.4,0c-0.1,0.5,0.4,0.4,0.7,0.4
		C165.2,251.3,166.7,251.3,168.2,252.4z M169.7,272.1c8.1-7.3,0.6-15.8-6.7-19c-18.7-7.9-42.1,0.2-39.2,12.3
		c1.2,6.6,8.7,9.8,14.5,11.9c10.4,2.4,22.7,2.3,31.2-4.8L169.7,272.1z"/>
	<path class="st12" d="M169.5,272.4c-8.6,7.2-20.8,7.2-31.2,4.8c-5.7-2-13.3-5.3-14.5-11.9c0.4-3,1.8-5.8,4.2-7.8
		c6.9-5.1,14.3-5.5,21.8-5.6c3.5,0.8,7.6,0.9,10.8,2.6c7.2,2.3,14.9,10,9.1,17.3C169.6,272,169.1,272.2,169.5,272.4z M150.4,259.2
		C150.7,259.4,150.8,258.8,150.4,259.2c-4.2-1.1-8.4-1.8-12.8-2.7l3.2,8c0.8-1.4,1.6-3.1,2.3-4.4C145.7,259.9,148,259.6,150.4,259.2
		z M154.7,259.9c-3.2,0-6.8,0.8-10.3,1c-0.6,0.8-1.1,1.7-1.4,2.6c-0.6,1.1-1.2,2.2-1.7,3.2c0.1,0.3,0.4,0,0.6,0.1
		c6.2,1.6,12.6,3.3,19,4.6C158.9,267.8,157.2,263.3,154.7,259.9z"/>
	<path class="st12" d="M177.9,269.3l-0.1,0.1c-0.4,1.1-0.5,2.4-0.5,3.7c-0.4,0.4-0.2,1.1-0.6,1.5c-0.4,1.8-2,3.3-3.2,4.9
		c-2,1.5-4.2,3-6.4,4.2c-0.1,0-0.2-0.1-0.2,0.1v0.1c-1.3,0.2-3,1.3-4.4,1.5c-1.4,0.5-3,0.4-4.2,1.2c-0.1-0.1-0.2-0.1-0.4,0v0.1
		c-0.4-0.3-0.8-0.2-1.1,0.1c-0.1,0-0.2-0.1-0.4,0.1c-0.4-0.3-0.8-0.2-1.1,0.1c-0.1-0.1-0.2-0.1-0.4,0.1c-0.1-0.1-0.2-0.1-0.4,0v0.1
		c-0.3-0.2-0.5-0.1-0.7,0l0,0c-0.4-0.2-0.6-0.1-0.9,0.3c-3.3-0.3-6.9-0.1-10.4-0.5c-0.8-0.1-2.4-0.8-3.2-0.4
		c-1.3-0.7-3.4-0.7-4.9-1.6c-0.5,0.1-0.7-0.4-1.1-0.2c-3.7-1.6-7.5-3.5-10.3-6.3c-1-0.9-1.8-2.5-2.9-3.4c0.1-0.5-0.3-0.8-0.6-1.5
		c-0.8-2.5-1-5.2-0.4-7.7c4.5,17.9,39.5,19.8,51.3,10.7c1.6-0.7,2.9-2.2,4.2-3.2c1.3-1.6,2.4-3.4,3.1-5.3
		C178.3,268.3,177.9,268.8,177.9,269.3L177.9,269.3z"/>
	<path class="st13" d="M169.7,272.1c5.9-7.7-2.4-15.1-9.1-17.3c-3.2-1.7-7.3-1.8-10.8-2.6c-8-0.1-15.5,0.8-21.8,5.6
		c-1.5,1.5-2.8,3.2-3.6,5c-0.4,0.9,0,1.8-0.6,2.8c-1.3-4.5,1.9-8.4,5.5-10.9c10.3-6.5,24.5-5.3,33.7-1.4
		C172.9,257.6,176.5,266.2,169.7,272.1z"/>
	<path class="st13" d="M169.5,272.4c-0.1,0-0.1-0.3-0.1-0.4c0-0.1,0.3-0.1,0.4-0.1L169.5,272.4z"/>
	<path class="st11" d="M154.9,259.9c2.3,3.5,4,7.8,6.2,11.6c-6.1-1.2-12.7-3-19-4.6c2.4-1.1,6.1-1.3,8.9-1.8
		C152.2,263.4,153.5,261.7,154.9,259.9z"/>
	<path class="st14" d="M154.9,259.9c-1.3,1.7-2.6,3.3-3.9,5.2c-2.8,0.5-6.2,0.8-8.9,1.8c-0.1-0.1-0.5,0.1-0.6-0.1
		c0.6-1.1,1.1-2.2,1.7-3.2c0.4-0.9,0.8-1.8,1.4-2.6C147.8,260.7,151.6,259.9,154.9,259.9z"/>
	<path class="st11" d="M150.4,259.3l-7.2,0.8c-0.7,1.3-1.4,3-2.3,4.4l-3.2-8C142,257.5,146.2,258.1,150.4,259.3z"/>
</g>
<g>
	<g>
		<g>
			<defs>
				<path id="SVGID_1_" d="M303.3,42.5c-0.5,3.4-0.5,3.4,2.4,4.6c0.8,0.3,1.6,0.7,2.4,1c1.3,0.5,2.7,0.8,2.6,2.7
					c-0.1,1.4,0.3,2.7-0.5,4.1c-1,1.6-1.7,3.4-0.6,5.5c0.4,0.7,0.2,1.8,0.3,2.7c0.3,3.6,0.4,7.1-1,10.6c-1.3,3.3-2.2,6.8-4.8,9.4
					c-1.2,1.3-1.4,2.8-1.6,4.4c-0.5,5.2-1,10.3-1.5,15.5c0,0.4-0.2,0.8-0.3,1.5c-1.9-1.8-4.1-1.5-6.2-1.4c-1.1,0-1.9-0.8-3-0.9
					c-1.8-0.1-3.5-0.3-5.3-0.5c-0.7-0.1-1.2,0.1-1.7,0.6c-0.2,0.2-0.4,0.5-0.7,0.7c-2.6,1.5-2,3.8-1.6,6c0.1,0.9,1.2,0.8,1.8,1.5
					c-0.9,0.6-1.7,1.2-2.6,1.7c-0.8,0.4-1,1-0.9,1.9c0.1,1,0.2,2,0.3,3c0,0.5,0.3,0.9,0.7,1.2c1,0.8,2.1,1.5,3,2.4
					c0.7,0.6,1.6,0.5,2.3,0.3c1.5-0.4,2.9-0.2,4.2,0.6c0.4,0.3,0.9,0.5,1.4,0.7c2.7,1.3,2.7,1.3,4.2-1.3c0.5,0.3,0.7,0.8,0.9,1.2
					c0.8,1.5,1.8,2.8,3.5,3.4c0.7,0.2,0.8,0.8,0.9,1.5c0.4,2.4-0.2,4.5-1.9,6.3c-1,1-1,2.1-0.4,3.3c0.6,1.3,1.1,2.6,1.6,4
					c-0.1,0.1-0.2,0.3-0.3,0.3c-2.6,0.5-4.2,1.9-4.9,4.4c-0.3,0.9-1.1,0.9-1.8,0.8c-1.5-0.2-2.2,0.5-2.6,2c-1.1,3.8-1.2,3.8-5.2,3.8
					c-2.5,0-2.6,0-2.7,2.4c-0.1,1.5-1.2,1.5-2,1.7c-1.6,0.3-1.6,1.3-1.4,2.5c0.1,0.6,0.3,1.1,0.9,1.1c2.3,0.1,3.8,1.7,5.4,3
					c0.7,0.6,1.4,1.2,2,1.7c-0.1,0.6-0.5,0.9-0.9,1.2c-0.8,0.7-1.2,1.6-1.1,2.7c0.1,1.2-0.4,1.9-1.5,2.2c-0.5,0.2-1,0.4-1.4,0.6
					c-1,0.7-1.9,0.6-2.8-0.3c-0.6-0.6-1.2-0.6-2-0.2c-2.9,1.4-5.8,2.7-8.6,4.2c-1.5,0.8-3,1.1-4.6,0.5c-1-0.4-1.6-0.2-1.8,1
					c-0.1,0.6,0,1.5-0.9,1.6c-0.9,0.1-1.2-0.4-1.4-1.2c-0.2-0.8-1-0.5-1.5-0.4c-1.4,0.3-2.4,0-2.7-1.5c-0.1-0.6-0.6-0.8-1.2-0.7
					c-0.6,0.1-1.1,0.1-1.7,0.2c-1.3,0.2-2.2-0.2-3-1.3c-1.3-1.9-1.5-1.8-3.9-0.6c0.8,1.4,1.7,2.9,2.6,4.5c-1.8-0.4-3.4-0.7-5-1
					c-0.6-0.1-1.2-0.3-1.6,0.2c-1.4,1.8-3.1,2.9-5.8,2.4c0.6,1.8,1,3.3,1.5,4.8c0.5,1.3,0.6,2.3-0.7,3.2c-0.2,0.1-0.4,0.4-0.4,0.8
					c0.9,0.6,2,0.7,3,1c0.7,0.2,1,0.5,1,1.3c-0.1,0.9,0,1.9-0.2,2.8c-0.2,1.2,0.3,1.7,1.4,1.9c3.1,0.5,3.1,0.5,3,3.6
					c-0.1,1.3,0.2,2.4,1,3.4c1.3,1.8,2.3,3.7,3.7,5.4c1.4,1.8,1.8,3.6,1.8,5.8c-0.1,2.8-0.1,5.5,0.2,8.3c0.1,0.7-0.3,1.3-0.6,1.8
					c-2.1,3.2-4.1,6.5-6.3,9.7c-1.5,2.2-0.9,4.6-1.3,7c1.8,0.1,3.1-0.8,4.6-0.8c0.3,0.7-1.3,2,0.9,2c-3.3,2.4-6.4,4.7-9.5,6.9
					c-1,0.7-1.9,1.4-1.9,2.8c0,0.6-0.3,1-1,1.2c-0.7,0.2-1.2-0.2-1.6-0.7c-0.5-0.7-0.9-1.6-2.1-0.9c-1.7,0.9-1.8,0.8-1.2,2.7
					c0.5,1.9,1.1,3.7,1.6,5.6c1.4,0.2,2.2-1.3,3.6-0.9c1.1,0.4,2.3,0.5,3.5,0.8c0.1,1.1,0,2.1-0.2,3c-0.2,1,0.1,1.6,1.1,1.7
					c1.8,0.1,2.2,1.1,2,2.7c-0.1,0.8,0,1.6,0.9,2c-0.7,1.4-1.4,2.5-3.2,1.9c-0.8-0.3-1,0.3-1.1,1c-0.1,0.8,0.2,1.6-0.3,2.4
					c-0.5-0.1-0.9-0.2-1.3-0.3c-0.9,1.3-0.6,2.3,0.8,2.9c1,0.4,1.2,1.1,0.7,2.1c-1.7,0.2-3.4,0.4-5.1,0.6c-0.4-0.5-0.1-1.1-0.5-1.4
					c-0.4-0.2-0.8,0.1-1.2,0.2c-0.7,0.2-1.3,0.7-2,0c-0.1-0.1-0.2-0.1-0.3-0.1c-1.6,1.1-2.6,0-3.8-0.9c-0.7-0.6-1.5-0.4-1.9,0.6
					c-0.2,0.5-0.3,1.3-1.3,1.2c-1.8-0.1-1.9-0.2-1.4-1.9c0-0.1,0.1-0.2,0.1-0.3c0.5-2.6,1-2-1.4-3.5c-1.7-1-2.3-2.5-1.9-4.4
					c0.1-0.6,0.5-0.6,0.9-0.7c1-0.3,1.7-0.8,1.7-1.9c0-0.8,0.6-1.1,1.3-1c1,0.1,1.5-0.4,1.8-1.2c0.5-1.1,1.2-2.3,1.7-3.4
					c-0.8-0.5-1.7-0.1-2.6-0.5c2-2,1.9-4.7,2.3-7.2c0.1-0.4,0.1-1,0.4-1c1.5-0.5,1.4-1.9,1.5-3.1c0.2-1.2,1.4-0.4,1.9-1.1
					c0-0.8-0.8-1.2-1-1.9c0.2-0.5,0.7-0.7,1.1-1.1c0.4-0.4,1.3-0.6,0.9-1.4c-0.4-0.8-0.8-2-2.1-1.9c-1.3,0.1-2.2-0.4-2.8-1.5
					c-0.6-0.9-1.5-1.1-2.5-0.9c-0.6,0.1-1.2,0.1-1.7,0.2c-1.2,0.4-1.9-0.1-2.3-1.2c-0.2-0.5-0.5-0.8-1-0.9c-0.4-0.1-0.8-0.3-1.2-0.4
					c-2.4-0.3-3.4-1.6-3.3-4c0.1-1-2.3-3.6-3.2-3.7c-0.3,0-0.6,0.1-0.9,0.2c-0.8,0.3-1.5,0.6-2.2,0.9c-1.8,0.8-3.5,1.4-5.6,1.2
					c-1.8-0.2-3.8,0.4-5.6,0.8c-1.1,0.2-1.4-0.2-1.5-1.1c0-0.6-0.1-1.2,0-1.9c0.1-1.4-0.5-2-1.8-1.7c-2.6,0.5-4-0.6-4.6-3.1
					c-0.1-0.5-0.3-0.9-0.6-1.3c-1.4-2-1.5-4.1-0.2-6.2c0.4-0.7,0.2-1.2-0.3-1.8c-0.9-1-1.8-2-2.7-3c-0.3-0.4-0.6-1-1.3-0.6
					c-0.7,0.4-1.8,0.5-1.6,1.6c0.5,2.7-1.1,4.1-2.9,5.6c-0.5,0.4-1,0.9-1.7,1.4c-2.1-3.1-5.1-2-8-1.8c0.4-0.8,0.4-0.8,1.2-0.7
					c1.2,0.2,1.9-0.1,2-1.4c0-0.2,0.1-0.5,0.2-0.7c0.9-3.4,0.7-3.7-2.6-5.1c-0.8-0.3-1.1,0.1-1.6,0.5c-1.7,1.8-3.5,3.5-5.2,5.3
					c-0.6,0.6-1.1,0.8-2,0.7c-1.6-0.3-3.2-0.4-4.8-0.5c-0.9-0.1-1.2-0.5-1.2-1.4c0-1.1,0.1-2.2-0.2-3.3c-1,0-1.7,0.5-2.4,0.8
					c-2,0.8-4,1.7-6,2.6c-0.6,0.2-1.1,0.5-0.8,1.2c0.6,1.5,0.8,3.4,2.6,4.2c0.5,0.2,0.5,0.6,0.5,1.1c-0.1,0.5-0.3,0.9-0.8,1
					c-1.1,0.2-2.2,0.4-3.4,0.6c-0.4,0.1-0.8,0-0.9-0.4c-0.3-1.3-1.3-1.4-2.3-1.3c-1.8,0.2-3.3-0.2-4.1-2.1c-0.4-0.9-3-1.3-4.2-0.5
					c-2.3,1.6-3.9-0.2-5.8-0.8c-0.1,0-0.3-0.3-0.3-0.4c-0.5-2.2-2.5-2.6-4.1-3.5c-1.1-0.6-3.2,0.4-3.7,1.5c-0.1,0.1-0.1,0.3-0.2,0.4
					c-0.6,2.9-2.6,3.9-5.3,4c-0.8,0-1.3-0.1-1.7-0.7c-0.5-0.6-1-1.2-1.9-1.3c-2.2-0.4-3.5-2.1-3.5-4.3c-0.9-0.2-1.6,0.1-2.3,0.8
					c-1.2,1.3-4.1,1.6-5.6,0.5c-1.4-1.1-2.8-2.1-3.7-3.9c-0.8-1.7-2.7-2.7-3.9-4.4c2.5-1.5,4.9-3.1,7.4-4.5c1-0.6,3.2,0.3,3.9,1.3
					c1,1.4,1.9,2.8,2.9,4.2c1,1.4,2.1,1.3,3-0.1c0.5-0.7,1-1,1.9-0.9c2.2,0.2,4.4,0.2,6.6,0.3c0.6,0,1.1-0.4,1.6-0.6
					c1.1,0.6,2.1,1.3,3.6,1.4c1.7,0.2,3.1,1.5,4.6,2.5c0.5,0.3,0.3,1,0.2,1.5c-0.2,1.3,0.3,2.1,1.4,2.7c0.3,0.2,0.6,0.4,0.8,0.6
					c1.6,1.6,3.2,2.2,5.4,0.8c1.2-0.8,2.9,0,4.3-0.5c0.7-0.3,1.8,0.1,1.9-0.9c0.1-1.3,0.6-2.7-0.7-3.7c-1.3-1.1-2.6-2.4-4.6-2.1
					c-0.2,0-0.6-0.1-0.8-0.3c-1.4-1.3-3.1-1.5-4.9-1.3c-0.5,0.1-1-0.1-1.4-0.5c-1.6-1.5-2.7-3.4-4.9-4.1c0-0.6,0.4-0.6,0.7-0.8
					c0.1-0.1,0.3-0.1,0.4-0.1c1.6,0.2,2.5-2,4.1-1.4c1.4,0.5,2.8,1.2,4.3,1.3c0.4,0,0.7,0.2,1.2-0.1c0-1-0.1-1.9-1.5-1.9
					c-2,0-2.2-0.2-2.4-2.5c1.4-0.2,2.8-1,4,0.5c0.3,0.4,0.8,0.5,1.3,0.4c3-0.4,6.1-0.3,9-1.5c1-0.4,1.6-0.9,2-1.8
					c0.8-2.2,1.5-2.5,3.8-2c1.3,0.2,2.5,0.5,3.8,0.8c1.4,0.4,2.7,0.1,4-0.2c1.9-0.5,2.5-1.8,3.1-3.5c-1.7,0.1-3.2,0.7-4.6,1.2
					c-1.4,0.4-2.6,0.5-3.7-0.5c-0.9-0.8-2.1-0.8-3.3-0.7c-1.1,0.1-2.1-0.2-3.1-0.7c-2.2-1.2-4.6-2-6.5-3.6c-3.7-3-8.2-4.5-12.4-6.8
					c0.5-1.3,0.3-2.4-0.6-3.5c-0.5-0.5,0-1,0.2-1.4c0.2-0.5,0.4-1,0.6-1.4c-0.5-0.8-1.8-0.3-2-1.2c-0.2-1.2-0.5-2.5-0.3-3.7
					c0.1-0.7,1-1.5,2.3-0.9c-1.5,0.8-0.8,1.7-0.3,2.6c0.3,0.6,0.8,1,1.5,0.8c1.4-0.4,0.5-1.6,0.8-2.2c0.4-0.8,1-0.3,1.4-0.9
					c-0.4-0.6-0.8-1.2-1.1-1.7c4.1-4.3,7.6-8.9,11.6-13.1c3.1-3.3,5.3-7.2,7.3-11.2c2-3.9,3.9-7.7,6-11.5c1.6-3,1.8-6.4,2.9-9.5
					c2.5-7.9,2.9-16.1,3.2-24.2c0-0.8,0.3-1.5,0.6-2.3c2.4-4.6,3.9-9.5,4.2-14.6c0.1-1.2,0.2-2.4,0.3-3.6c1.4-0.5,2.7,0,4,0.2
					c0.6,0.1,0.4,0.7,0.4,1.1c-0.1,1.1-0.5,2.1,0.3,3.2c1.2,1.5,2.6,2.4,4.5,2.6c0.5,0,0.8,0,1.1-0.4c0.5-0.6,1.2-1.1,1.7-1.7
					c1.1-1.5,2.5-1.9,4.3-1.8c1.3,0,2,0.4,2.5,1.6c0.4,1,0.8,1.9,1.5,2.8c1.8,2.4,2.1,5.1,1.4,7.8c-0.5,2.1,0.4,3.5,1.6,4.9
					c0.8,0.9,1.7,0.5,2.3,0c1.7-1.3,3.5-0.4,5.2-0.2c0.4,0,0.6,0.4,0.7,0.8c0.3,0.7,0.4,1.4,0.8,2c0.7,1.2,0.4,2.2-0.7,3.1
					c-0.3-0.2-0.7-0.4-1-0.6c-0.4,0.2-0.5,0.5-0.6,0.9c-0.6,3.7-3.9,3.8-6.5,4.9c-0.7,0.3-1.3-0.5-1.8-0.9c-1.2-0.9-3.8-0.8-4.9,0.1
					c-0.5,0.4-0.2,0.9-0.2,1.3c0.3,3,1,5.8,2.8,8.3c1,1.4,1,2.7,0,4c-0.4,0.5-0.6,1.2-0.9,1.8c-0.8,1.8-0.3,2.8,1.6,3.4
					c-2.1,2.1-3.5,5-6.8,5.7c1.4,2,3,3.2,5.4,3.2c1.3,0,2.5,0.5,3.4,1.4c2,1.9,4.3,2.5,6.9,1.3c0.7-0.3,1.2-0.2,1.7,0.4
					c1.6,1.9,3.4,3.5,6,3.8c0.3,0,0.6,0.2,0.8,0.4c1,1.4,2.3,0.9,3.7,0.8c3.9-0.4,6.7-2.2,7.9-6.1c0.2-0.6,0.5-1,1.1-1.2
					c0.6-0.2,1.1-0.7,1.3-1.4c0.1-0.7,0.7-0.9,1.3-1.2c2.4-1.2,4.8-2.5,7.2-3.7c0.7-0.4,1.2-0.8,1.6-1.5c1.5-2.4,3-4.8,3.9-7.6
					c0.5-1.7,0.7-3.3,0.3-5c-0.3-1.4-0.6-2.8-0.7-4.2c-0.1-1.1-0.7-1.4-1.7-1.4c-2.7,0-5.4,0-8.1,0c-0.9,0-1.5-0.3-2.1-0.9
					c-3.7-4-3.5-4.3-3.3-9.7c0.2-3.6,2-6.1,3.9-8.7c0.7-1,2.2-0.9,3.1-1.8c-0.4-0.5-0.9-0.4-1.4-0.5c-0.8-0.1-1.8,0.2-2-1
					c0-0.2-0.4-0.2-0.6-0.2c-1.1,0.2-2.1,0.4-3.2,0.7c-0.8,0.2-0.5,1-1,1.6c-1.6-0.4-3.2-0.8-4.7-1.3c-1.4-0.4-2.7-0.7-4.2-0.7
					c-1.6,0-3.2-2-2.9-3.3c0.2-0.6,0.4-1.1,1.2-1.1c0.9,0,1.1-0.5,1.1-1.3c-0.2-1.7,0-3.3,0.6-4.9c0.3-0.7,0-1.2-0.2-1.8
					c-1-2.5-1.9-5-2.9-7.4c0.6-0.5,1.1,0.3,1.6-0.3c0,0,0.1-0.1,0.1-0.1c-1-1.9-0.4-3.3,1.1-4.6c0.6-0.5,0.6-1.3,0.4-2
					c-0.9-3.8,0.4-6.6,3.7-8.6c1.3-0.8,2.4-2,3.6-3c0.3-0.2,0.6-0.5,0.7-0.9c0.2-0.6-0.1-1.4,0.8-1.7c1.8-0.5,3.2-2,5.2-1.6
					c0.8,0.2,1.5,0,2.1-0.4c3.1-1.8,6.1-3.6,9.2-5.5c0.6-0.4,1.3-0.8,2-0.5c1.5,0.5,2.9,0.1,4.3-0.5c1.1-0.4,2.3-0.7,3.3-1.2
					c2.1-1.1,4.1-0.6,6.2,0.2c0.8,0.3,0.9,0.8,1,1.4c0.1,0.8,0.3,1.7,0.3,2.5c0,1.4,0.6,1.7,1.8,1.5c0.7-0.1,1.5-0.2,2.3-0.3
					c0.7-0.1,1.3-0.3,1.3-1.2c0-0.8-0.3-1.2-1.2-1.3c-0.6,0-1.5,0.1-1.5-0.6c-0.1-1.1-0.1-2.2,0.3-3.2c0.1-0.3,0.6-0.2,0.9-0.2
					c1.1,0.1,2.3,0.2,3.3,0.8c0.9,0.6,1.8,0.7,2.8,0.2c1.2-0.5,2.5-0.8,3.6-1.4c2.3-1.1,4.6-1.2,7-0.4c1.2,0.4,2.4,0.3,3.5-0.3
					c1.9-1,3.9-1.6,5.7-2.7c2.4-1.4,4.9-0.5,7.4-0.5c1,1.5,3.7,1.3,3.5,3.9c-0.1,1.5,0.6,3.1,0.8,4.6c0.2,1.3,0.8,2,1.8,2.7
					C296.3,40.8,299,43.6,303.3,42.5z"/>
			</defs>
			<clipPath id="SVGID_2_">
				<use xlink:href="#SVGID_1_"  style="overflow:visible;"/>
			</clipPath>
			<g class="st15">
				<path class="st16" d="M-35.8,103.4c0-29.3,0-58.6,0-87.9c182.9,0,365.7,0,548.6,0c0,29.4,0,58.8,0,88.2c-0.3,0-0.6,0-0.9,0
					c-0.5-0.1-0.9-0.2-1.4-0.2c-11.5,0-23.1,0-34.6,0c-6.2,0-12.4,0-18.6,0c-0.5,0-1,0-1.6,0c-145.3,0-290.5,0-435.8,0
					c-0.5,0-1,0-1.6,0c-6.2,0-12.4,0-18.6,0C-12,103.4-23.9,103.4-35.8,103.4z"/>
				<path class="st17" d="M512.8,191.8c0,29.4,0,58.8,0,88.2c-182.9,0-365.7,0-548.6,0c0-29.3,0-58.6,0-87.9c182,0,364,0,545.9,0
					c0.5,0,1,0,1.6,0c0.2-0.1,0.4-0.1,0.5-0.2C512.5,191.8,512.7,191.8,512.8,191.8z"/>
				<path class="st18" d="M512.8,191.8c-0.2,0-0.4,0-0.6,0c-0.6-0.1-1.2-0.2-1.8-0.2c-182.1,0-364.2,0-546.3,0c0-29.2,0-58.5,0-87.7
					c5.6,0,11.2,0,16.9,0c6.2,0,12.4,0,18.6,0c0.6,0,1.1,0,1.7,0c163.3,0,326.7,0,490,0c0.6,0,1.1,0,1.7,0c5.8,0,11.7,0,17.5,0
					c0.5,0,0.9-0.1,1.4-0.2l0-0.1l-0.1,0c0.3,0,0.6,0,0.9,0C512.8,133,512.8,162.4,512.8,191.8z"/>
				<path class="st19" d="M-35.8,191.6c182.1,0,364.2,0,546.3,0c0.6,0,1.2,0.2,1.8,0.2c-0.2,0.1-0.4,0.1-0.5,0.2
					c-0.6-0.1-1.3-0.2-1.9-0.2c-181.9,0-363.7,0-545.6,0C-35.8,191.7-35.8,191.6-35.8,191.6z"/>
				<path class="st20" d="M-35.8,191.8c181.9,0,363.7,0,545.6,0c0.6,0,1.3,0.1,1.9,0.2c-0.5,0-1,0-1.6,0c-182,0-364,0-545.9,0
					C-35.8,191.9-35.8,191.9-35.8,191.8z"/>
				<path class="st21" d="M-35.8,103.4c11.9,0,23.8,0,35.7,0c0,0.1,0,0.1,0,0.2c-0.1,0-0.2,0.1-0.3,0.1c-6.2,0-12.4,0-18.6,0
					c-5.6,0-11.2,0-16.9,0C-35.8,103.5-35.8,103.5-35.8,103.4z"/>
				<path class="st22" d="M-35.8,103.6c5.6,0,11.2,0,16.9,0c0,0.1,0,0.1,0,0.2c-5.6,0-11.2,0-16.9,0
					C-35.8,103.8-35.8,103.7-35.8,103.6z"/>
				<path class="st21" d="M18.5,103.4c0.5,0,1,0,1.6,0c145.3,0,290.5,0,435.8,0c0.5,0,1,0,1.6,0c0,0.1,0,0.1,0,0.2
					c-0.6,0-1.1,0-1.7,0c-145.2,0-290.3,0-435.5,0c-0.6,0-1.1,0-1.7,0C18.5,103.5,18.5,103.5,18.5,103.4z"/>
				<path class="st21" d="M476,103.4c11.5,0,23.1,0,34.6,0c0.5,0,0.9,0.1,1.4,0.2l0.1,0l0,0.1c-6.3,0-12.6,0-18.9,0
					c-0.6,0-1.2,0-1.8,0c-5.1,0-10.2,0-15.3,0C476,103.5,476,103.5,476,103.4z"/>
				<path class="st21" d="M18.5,103.4c0,0.1,0,0.1,0,0.2c-6.2,0-12.4,0-18.6,0c0-0.1,0-0.1,0-0.2C6.1,103.4,12.3,103.4,18.5,103.4z"
					/>
				<path class="st21" d="M476,103.4c0,0.1,0,0.1,0,0.2c-6.2,0-12.4,0-18.6,0c0-0.1,0-0.1,0-0.2C463.6,103.4,469.8,103.4,476,103.4z
					"/>
				<path class="st22" d="M457.4,103.6c6.2,0,12.4,0,18.6,0c5.1,0,10.2,0,15.3,0c0.6,0,1.2,0,1.8,0c0,0.1,0,0.1,0,0.2
					c-0.6,0-1.1,0-1.7,0c-163.3,0-326.7,0-490,0c-0.6,0-1.1,0-1.7,0c0-0.1,0-0.1,0-0.2c0.1,0,0.2-0.1,0.3-0.1c6.2,0,12.4,0,18.6,0
					c0.6,0,1.1,0,1.7,0c145.2,0,290.3,0,435.5,0C456.3,103.6,456.8,103.6,457.4,103.6z"/>
				<path class="st22" d="M493.1,103.8c0-0.1,0-0.1,0-0.2c6.3,0,12.6,0,18.9,0c-0.5,0.1-0.9,0.2-1.4,0.2
					C504.8,103.8,499,103.8,493.1,103.8z"/>
				<path class="st22" d="M-0.3,103.7c0,0.1,0,0.1,0,0.2c-6.2,0-12.4,0-18.6,0c0-0.1,0-0.1,0-0.2C-12.7,103.7-6.5,103.7-0.3,103.7z"
					/>
			</g>
		</g>
		<path class="st18" d="M191.3,129.1c-0.2-1.2,0.5-2,1.7-2.7c5.1-3.2,10.2-6.5,15.3-9.8c0.7-0.5,1-1,1-1.9c0-1.6,0.9-2.6,2.4-2.5
			c1.3,0.1,2-0.9,2.7-1.6c0.9-1,2-1.8,3.4-1.6c0.2,0,0.4,0,0.6-0.1c1.5-1.5,3-0.5,4.6-0.1c2.1,0.6,4.3,0.8,6.4,1.3
			c1.7,0.3,2.8,2.2,2.8,3.9c0.1,3.7-2,6.2-4,8.9c-0.7,1-2,1.6-3.4,1.7c-1.1,0-2,0.4-2.8,1.2c-0.8,0.8-1.8,1.4-2.6,2.2
			c-0.7,0.7-1.5,1-2.6,1c-1.7,0-2.7,1.3-2.3,2.9c0.4,1.3-0.5,2.3-0.8,3.4c-0.3,1.5-1.5,1.5-2.6,1.7c-1.3,0.3-2.7,0.5-4,0.9
			c-1,0.3-1.6,0-2.3-0.6c-1.6-1.5-3.2-2.9-4.7-4.3c-0.7-0.7-1.5-1.1-2.5-1.2c-1.7-0.1-3.3-0.8-5.1-0.2
			C191.8,131.7,191.2,130.7,191.3,129.1z"/>
		<path class="st17" d="M97.7,232.5c-1.8,0.3-3.4,0.2-4.8-0.2c-1.5-0.4-2.8-1.7-3.4-3.2c-0.7-1.5-1.1-3.1-0.1-4.8
			c0.4-0.6,0.4-1.3,0.2-2.1c-0.5-1.8,0.1-2.8,2-2.8c2.1,0,3.8-0.8,5.6-1.6c0.7-0.3,1.3-0.2,1.9,0.1c1.2,0.7,2.4,1.3,3.6,2
			c1.1,0.6,2.1,1.1,3.4,0.7c0.4-0.1,0.8-0.1,1,0.3c1.6,2.3,4.1,2.2,6.5,2.7c0.3,0.1,0.6,0,0.8,0.1c1.9,0.7,3.6,0.4,4.9-1.3
			c0.7-0.9,1.7-0.9,2.7-0.8c1.1,0.1,1.6-0.3,1.6-1.4c0-0.3,0-0.7,0.1-1c0.1-0.6-0.3-1.5,0.7-1.6c0.9-0.1,1.9-0.3,2.4,0.9
			c0.6,1.5,1.6,2.4,3.2,2.7c0.9,0.2,1.5,0.9,2.1,1.4c1.3,1.3,2.8,1,4.3,0.7c0.3-0.7-0.1-1.2-0.3-1.7c-0.1-0.4-0.3-0.9,0.1-1.2
			c0.5-0.3,0.7,0.2,1,0.4c1,1,1,1.8,0.4,3.2c-1.4,3.2-4.2,4.5-6.8,6.2c-1.4,0.9-2.8,1.7-4.5,1.4c-0.9-0.1-1.6,0.4-1.9,1.2
			c-1.2,2.8-3.3,3.1-6,2.5c-1.2-0.3-2.5-0.5-3.8-0.6c-1-0.1-1.5-0.6-1.3-1.6c0.3-1.5-0.5-2.2-1.8-2.7c-2.7-1-5.3-2-7.9-3.2
			c-1.2-0.6-2.3-0.6-3.5,0c-0.5,0.3-1.1,0.5-1.7,0.7c-0.8,0.3-1.2,0.7-1,1.7C97.7,230.6,97.6,231.5,97.7,232.5z"/>
		<path class="st18" d="M118.2,182.8c-0.5-0.8-0.6-1.5-0.7-2.3c-0.2-0.9,0.8-2.1,1.6-1.8c1.3,0.5,2.2-0.1,3.2-0.6
			c0.5-0.3,1.1-0.5,1.7-0.8c0.9-0.4,1.9-1.1,2.1,0.7c0,0.3,0.5,0.5,0.8,0.7c2.6,1.7,5.3,3.4,7.9,5.1c0.2,0.1,0.4,0.4,0.6,0.3
			c1.9-0.2,2.5,1.4,3.5,2.4c0.7,0.7,1.3,1.5,2.1,2.1c1.7,1.3,3.6,1.8,5.8,1.2c0.4-0.1,0.8-0.2,1.7,0.2c-1.9,0.4-1.3,2.6-2.8,3.1
			c-1.4,0.5-2.9,0.9-4.4,1.2c-0.5,0.1-0.9-0.2-1.3-0.4c-1.5-0.6-2.7-1.8-4.4-2c-0.5,0-0.8-0.7-1-1.1c-0.6-1.1-1.4-1.5-2.7-1.4
			c-0.9,0.1-2.1,0.5-2.7-0.3c-0.9-1.1-1.8-2.3-2.2-3.8c-0.3-1.2-0.2-2.5-0.8-3.6c-0.4-0.7-0.9-1.1-1.8-1.1c-1.8,0-3.6,0.1-5.1,1.4
			C119,182.5,118.6,182.6,118.2,182.8z"/>
		<path class="st17" d="M123.5,198.4c-0.4-1.7-1.5-2.1-3-1.9c-0.8,0.1-1.1-0.4-1.3-1c-0.5-1.6-1.1-3.1-3.2-3.1
			c-0.2,0-0.5-0.3-0.6-0.5c-0.7-1.6-1.6-1.2-2.7-0.5c-1.3,0.9-2.7,1.6-4.4,1.3c-0.4-0.1-0.7-0.1-1-0.4c-0.9-1.1,0.1-4,1.4-4.4
			c2.5-0.7,5-1,7.7-0.9c2.3,0.1,4.4,1.1,6.6,0.9c0.7-0.1,1.3,0.2,1.5,1c0.6,2.6,2.6,3.7,5,4.2c0.5,0.1,1,0.3,1.4,0.5
			c0.1,1.5-1,2-1.9,2.5C127.3,197,125.5,197.7,123.5,198.4z"/>
		<path class="st16" d="M174.5,54c1.1,1,1.9,1.8,2.8,2.6c0.4,0.4,0.5,0.8,0.4,1.4c-0.3,1.6-0.2,3.4-0.8,4.9c-0.7,2-1.6,4.1-4.1,4.6
			c-0.8,0.2-1.2,1-1.5,1.6c-1,2-2.7,2.1-4.5,2.2c-0.8-3.1-0.5-5.8,1.5-8.4C170.5,60.1,172.4,57,174.5,54z"/>
		<path class="st16" d="M193.1,38.2c-0.2-0.4-0.4-0.6-0.5-0.9c-0.2-0.3-0.3-0.7-0.5-1.1c1.8-1.2,3.1-2.8,5.6-2.8
			c3.3,0,6.2-1.5,9.3-2.5c1.9-0.6,3.8-1.3,5.7-1.9c0.9-0.3,1.8-0.4,2.8-0.2c0,0.6-0.5,0.7-0.8,0.9c-1,0.6-2.1,1.1-3.1,1.7
			c-1.4,0.8-2.7,1.5-4.4,0.9c-0.8-0.3-1.6,0-2.4,0.5c-1.8,1-3.5,2.2-5.5,2.7C197,36,195.1,37,193.1,38.2z"/>
		<path class="st17" d="M119.3,203.1c-1,0.5-1.8,1.3-2.9,0.3c-0.3-0.2-0.6-0.3-1-0.2c-2.2,0.4-4.6-0.2-6.6,1.7
			c-0.7-1.7-2.3-2.3-3.4-3.5c0.4-1,1-1.4,2.1-1c2.1,0.7,4.2,0.3,6.3-0.1C117.6,199.5,117.6,199.6,119.3,203.1z"/>
		<path class="st16" d="M238.5,27.1c-0.1,0.7-0.6,0.8-1,0.8c-2.6,0.5-5.1,1-7.7,1.6c-0.4,0.1-0.8,0.1-1.3,0
			c-2.4-0.7-4.6-0.6-6.8,0.9c-0.8,0.6-2.5,0-3-0.8c-0.6-0.9,0-2.1,1.1-2.1c4.7-0.1,9.4-0.2,14.1-0.3C235.5,27.2,237,26.9,238.5,27.1
			z"/>
		<path class="st16" d="M248.5,27.9c-0.8-1.4,0-3.5,1.3-3.6c3.3-0.5,6.5-0.8,9.8-1.1c0.1,0.4,0,0.6-0.3,0.7c-2.9,0.8-5.3,2.9-8.5,3
			C249.9,26.8,249,26.8,248.5,27.9z"/>
		<path class="st16" d="M188.6,42.5c-2.3,0.5-4,1.6-5.8,2.5c-0.6,0.3-0.9,1-1.3,1.5c-1.2,1.4-2.4,3.1-4.1,4c-0.5,0.3-1.3,0-2,0
			c-0.3-0.5-0.3-1,0.3-1.2c2.9-1,4.7-3.4,6.8-5.2c1.5-1.3,3.4-1.6,5.2-2.1C187.9,41.9,188.1,42.1,188.6,42.5z"/>
	</g>
	<g>
		<path class="st23" d="M303.3,42.5c-0.5,3.4-0.5,3.4,2.4,4.6c0.8,0.3,1.6,0.7,2.4,1c1.3,0.5,2.7,0.8,2.6,2.7
			c-0.1,1.4,0.3,2.7-0.5,4.1c-1,1.6-1.7,3.4-0.6,5.5c0.4,0.7,0.2,1.8,0.3,2.7c0.3,3.6,0.4,7.1-1,10.6c-1.3,3.3-2.2,6.8-4.8,9.4
			c-1.2,1.3-1.4,2.8-1.6,4.4c-0.5,5.2-1,10.3-1.5,15.5c0,0.4-0.2,0.8-0.3,1.5c-1.9-1.8-4.1-1.5-6.2-1.4c-1.1,0-1.9-0.8-3-0.9
			c-1.8-0.1-3.5-0.3-5.3-0.5c-0.7-0.1-1.2,0.1-1.7,0.6c-0.2,0.2-0.4,0.5-0.7,0.7c-2.6,1.5-2,3.8-1.6,6c0.1,0.9,1.2,0.8,1.8,1.5
			c-0.9,0.6-1.7,1.2-2.6,1.7c-0.8,0.4-1,1-0.9,1.9c0.1,1,0.2,2,0.3,3c0,0.5,0.3,0.9,0.7,1.2c1,0.8,2.1,1.5,3,2.4
			c0.7,0.6,1.6,0.5,2.3,0.3c1.5-0.4,2.9-0.2,4.2,0.6c0.4,0.3,0.9,0.5,1.4,0.7c2.7,1.3,2.7,1.3,4.2-1.3c0.5,0.3,0.7,0.8,0.9,1.2
			c0.8,1.5,1.8,2.8,3.5,3.4c0.7,0.2,0.8,0.8,0.9,1.5c0.4,2.4-0.2,4.5-1.9,6.3c-1,1-1,2.1-0.4,3.3c0.6,1.3,1.1,2.6,1.6,4
			c-0.1,0.1-0.2,0.3-0.3,0.3c-2.6,0.5-4.2,1.9-4.9,4.4c-0.3,0.9-1.1,0.9-1.8,0.8c-1.5-0.2-2.2,0.5-2.6,2c-1.1,3.8-1.2,3.8-5.2,3.8
			c-2.5,0-2.6,0-2.7,2.4c-0.1,1.5-1.2,1.5-2,1.7c-1.6,0.3-1.6,1.3-1.4,2.5c0.1,0.6,0.3,1.1,0.9,1.1c2.3,0.1,3.8,1.7,5.4,3
			c0.7,0.6,1.4,1.2,2,1.7c-0.1,0.6-0.5,0.9-0.9,1.2c-0.8,0.7-1.2,1.6-1.1,2.7c0.1,1.2-0.4,1.9-1.5,2.2c-0.5,0.2-1,0.4-1.4,0.6
			c-1,0.7-1.9,0.6-2.8-0.3c-0.6-0.6-1.2-0.6-2-0.2c-2.9,1.4-5.8,2.7-8.6,4.2c-1.5,0.8-3,1.1-4.6,0.5c-1-0.4-1.6-0.2-1.8,1
			c-0.1,0.6,0,1.5-0.9,1.6c-0.9,0.1-1.2-0.4-1.4-1.2c-0.2-0.8-1-0.5-1.5-0.4c-1.4,0.3-2.4,0-2.7-1.5c-0.1-0.6-0.6-0.8-1.2-0.7
			c-0.6,0.1-1.1,0.1-1.7,0.2c-1.3,0.2-2.2-0.2-3-1.3c-1.3-1.9-1.5-1.8-3.9-0.6c0.8,1.4,1.7,2.9,2.6,4.5c-1.8-0.4-3.4-0.7-5-1
			c-0.6-0.1-1.2-0.3-1.6,0.2c-1.4,1.8-3.1,2.9-5.8,2.4c0.6,1.8,1,3.3,1.5,4.8c0.5,1.3,0.6,2.3-0.7,3.2c-0.2,0.1-0.4,0.4-0.4,0.8
			c0.9,0.6,2,0.7,3,1c0.7,0.2,1,0.5,1,1.3c-0.1,0.9,0,1.9-0.2,2.8c-0.2,1.2,0.3,1.7,1.4,1.9c3.1,0.5,3.1,0.5,3,3.6
			c-0.1,1.3,0.2,2.4,1,3.4c1.3,1.8,2.3,3.7,3.7,5.4c1.4,1.8,1.8,3.6,1.8,5.8c-0.1,2.8-0.1,5.5,0.2,8.3c0.1,0.7-0.3,1.3-0.6,1.8
			c-2.1,3.2-4.1,6.5-6.3,9.7c-1.5,2.2-0.9,4.6-1.3,7c1.8,0.1,3.1-0.8,4.6-0.8c0.3,0.7-1.3,2,0.9,2c-3.3,2.4-6.4,4.7-9.5,6.9
			c-1,0.7-1.9,1.4-1.9,2.8c0,0.6-0.3,1-1,1.2c-0.7,0.2-1.2-0.2-1.6-0.7c-0.5-0.7-0.9-1.6-2.1-0.9c-1.7,0.9-1.8,0.8-1.2,2.7
			c0.5,1.9,1.1,3.7,1.6,5.6c1.4,0.2,2.2-1.3,3.6-0.9c1.1,0.4,2.3,0.5,3.5,0.8c0.1,1.1,0,2.1-0.2,3c-0.2,1,0.1,1.6,1.1,1.7
			c1.8,0.1,2.2,1.1,2,2.7c-0.1,0.8,0,1.6,0.9,2c-0.7,1.4-1.4,2.5-3.2,1.9c-0.8-0.3-1,0.3-1.1,1c-0.1,0.8,0.2,1.6-0.3,2.4
			c-0.5-0.1-0.9-0.2-1.3-0.3c-0.9,1.3-0.6,2.3,0.8,2.9c1,0.4,1.2,1.1,0.7,2.1c-1.7,0.2-3.4,0.4-5.1,0.6c-0.4-0.5-0.1-1.1-0.5-1.4
			c-0.4-0.2-0.8,0.1-1.2,0.2c-0.7,0.2-1.3,0.7-2,0c-0.1-0.1-0.2-0.1-0.3-0.1c-1.6,1.1-2.6,0-3.8-0.9c-0.7-0.6-1.5-0.4-1.9,0.6
			c-0.2,0.5-0.3,1.3-1.3,1.2c-1.8-0.1-1.9-0.2-1.4-1.9c0-0.1,0.1-0.2,0.1-0.3c0.5-2.6,1-2-1.4-3.5c-1.7-1-2.3-2.5-1.9-4.4
			c0.1-0.6,0.5-0.6,0.9-0.7c1-0.3,1.7-0.8,1.7-1.9c0-0.8,0.6-1.1,1.3-1c1,0.1,1.5-0.4,1.8-1.2c0.5-1.1,1.2-2.3,1.7-3.4
			c-0.8-0.5-1.7-0.1-2.6-0.5c2-2,1.9-4.7,2.3-7.2c0.1-0.4,0.1-1,0.4-1c1.5-0.5,1.4-1.9,1.5-3.1c0.2-1.2,1.4-0.4,1.9-1.1
			c0-0.8-0.8-1.2-1-1.9c0.2-0.5,0.7-0.7,1.1-1.1c0.4-0.4,1.3-0.6,0.9-1.4c-0.4-0.8-0.8-2-2.1-1.9c-1.3,0.1-2.2-0.4-2.8-1.5
			c-0.6-0.9-1.5-1.1-2.5-0.9c-0.6,0.1-1.2,0.1-1.7,0.2c-1.2,0.4-1.9-0.1-2.3-1.2c-0.2-0.5-0.5-0.8-1-0.9c-0.4-0.1-0.8-0.3-1.2-0.4
			c-2.4-0.3-3.4-1.6-3.3-4c0.1-1-2.3-3.6-3.2-3.7c-0.3,0-0.6,0.1-0.9,0.2c-0.8,0.3-1.5,0.6-2.2,0.9c-1.8,0.8-3.5,1.4-5.6,1.2
			c-1.8-0.2-3.8,0.4-5.6,0.8c-1.1,0.2-1.4-0.2-1.5-1.1c0-0.6-0.1-1.2,0-1.9c0.1-1.4-0.5-2-1.8-1.7c-2.6,0.5-4-0.6-4.6-3.1
			c-0.1-0.5-0.3-0.9-0.6-1.3c-1.4-2-1.5-4.1-0.2-6.2c0.4-0.7,0.2-1.2-0.3-1.8c-0.9-1-1.8-2-2.7-3c-0.3-0.4-0.6-1-1.3-0.6
			c-0.7,0.4-1.8,0.5-1.6,1.6c0.5,2.7-1.1,4.1-2.9,5.6c-0.5,0.4-1,0.9-1.7,1.4c-2.1-3.1-5.1-2-8-1.8c0.4-0.8,0.4-0.8,1.2-0.7
			c1.2,0.2,1.9-0.1,2-1.4c0-0.2,0.1-0.5,0.2-0.7c0.9-3.4,0.7-3.7-2.6-5.1c-0.8-0.3-1.1,0.1-1.6,0.5c-1.7,1.8-3.5,3.5-5.2,5.3
			c-0.6,0.6-1.1,0.8-2,0.7c-1.6-0.3-3.2-0.4-4.8-0.5c-0.9-0.1-1.2-0.5-1.2-1.4c0-1.1,0.1-2.2-0.2-3.3c-1,0-1.7,0.5-2.4,0.8
			c-2,0.8-4,1.7-6,2.6c-0.6,0.2-1.1,0.5-0.8,1.2c0.6,1.5,0.8,3.4,2.6,4.2c0.5,0.2,0.5,0.6,0.5,1.1c-0.1,0.5-0.3,0.9-0.8,1
			c-1.1,0.2-2.2,0.4-3.4,0.6c-0.4,0.1-0.8,0-0.9-0.4c-0.3-1.3-1.3-1.4-2.3-1.3c-1.8,0.2-3.3-0.2-4.1-2.1c-0.4-0.9-3-1.3-4.2-0.5
			c-2.3,1.6-3.9-0.2-5.8-0.8c-0.1,0-0.3-0.3-0.3-0.4c-0.5-2.2-2.5-2.6-4.1-3.5c-1.1-0.6-3.2,0.4-3.7,1.5c-0.1,0.1-0.1,0.3-0.2,0.4
			c-0.6,2.9-2.6,3.9-5.3,4c-0.8,0-1.3-0.1-1.7-0.7c-0.5-0.6-1-1.2-1.9-1.3c-2.2-0.4-3.5-2.1-3.5-4.3c-0.9-0.2-1.6,0.1-2.3,0.8
			c-1.2,1.3-4.1,1.6-5.6,0.5c-1.4-1.1-2.8-2.1-3.7-3.9c-0.8-1.7-2.7-2.7-3.9-4.4c2.5-1.5,4.9-3.1,7.4-4.5c1-0.6,3.2,0.3,3.9,1.3
			c1,1.4,1.9,2.8,2.9,4.2c1,1.4,2.1,1.3,3-0.1c0.5-0.7,1-1,1.9-0.9c2.2,0.2,4.4,0.2,6.6,0.3c0.6,0,1.1-0.4,1.6-0.6
			c1.1,0.6,2.1,1.3,3.6,1.4c1.7,0.2,3.1,1.5,4.6,2.5c0.5,0.3,0.3,1,0.2,1.5c-0.2,1.3,0.3,2.1,1.4,2.7c0.3,0.2,0.6,0.4,0.8,0.6
			c1.6,1.6,3.2,2.2,5.4,0.8c1.2-0.8,2.9,0,4.3-0.5c0.7-0.3,1.8,0.1,1.9-0.9c0.1-1.3,0.6-2.7-0.7-3.7c-1.3-1.1-2.6-2.4-4.6-2.1
			c-0.2,0-0.6-0.1-0.8-0.3c-1.4-1.3-3.1-1.5-4.9-1.3c-0.5,0.1-1-0.1-1.4-0.5c-1.6-1.5-2.7-3.4-4.9-4.1c0-0.6,0.4-0.6,0.7-0.8
			c0.1-0.1,0.3-0.1,0.4-0.1c1.6,0.2,2.5-2,4.1-1.4c1.4,0.5,2.8,1.2,4.3,1.3c0.4,0,0.7,0.2,1.2-0.1c0-1-0.1-1.9-1.5-1.9
			c-2,0-2.2-0.2-2.4-2.5c1.4-0.2,2.8-1,4,0.5c0.3,0.4,0.8,0.5,1.3,0.4c3-0.4,6.1-0.3,9-1.5c1-0.4,1.6-0.9,2-1.8
			c0.8-2.2,1.5-2.5,3.8-2c1.3,0.2,2.5,0.5,3.8,0.8c1.4,0.4,2.7,0.1,4-0.2c1.9-0.5,2.5-1.8,3.1-3.5c-1.7,0.1-3.2,0.7-4.6,1.2
			c-1.4,0.4-2.6,0.5-3.7-0.5c-0.9-0.8-2.1-0.8-3.3-0.7c-1.1,0.1-2.1-0.2-3.1-0.7c-2.2-1.2-4.6-2-6.5-3.6c-3.7-3-8.2-4.5-12.4-6.8
			c0.5-1.3,0.3-2.4-0.6-3.5c-0.5-0.5,0-1,0.2-1.4c0.2-0.5,0.4-1,0.6-1.4c-0.5-0.8-1.8-0.3-2-1.2c-0.2-1.2-0.5-2.5-0.3-3.7
			c0.1-0.7,1-1.5,2.3-0.9c-1.5,0.8-0.8,1.7-0.3,2.6c0.3,0.6,0.8,1,1.5,0.8c1.4-0.4,0.5-1.6,0.8-2.2c0.4-0.8,1-0.3,1.4-0.9
			c-0.4-0.6-0.8-1.2-1.1-1.7c4.1-4.3,7.6-8.9,11.6-13.1c3.1-3.3,5.3-7.2,7.3-11.2c2-3.9,3.9-7.7,6-11.5c1.6-3,1.8-6.4,2.9-9.5
			c2.5-7.9,2.9-16.1,3.2-24.2c0-0.8,0.3-1.5,0.6-2.3c2.4-4.6,3.9-9.5,4.2-14.6c0.1-1.2,0.2-2.4,0.3-3.6c1.4-0.5,2.7,0,4,0.2
			c0.6,0.1,0.4,0.7,0.4,1.1c-0.1,1.1-0.5,2.1,0.3,3.2c1.2,1.5,2.6,2.4,4.5,2.6c0.5,0,0.8,0,1.1-0.4c0.5-0.6,1.2-1.1,1.7-1.7
			c1.1-1.5,2.5-1.9,4.3-1.8c1.3,0,2,0.4,2.5,1.6c0.4,1,0.8,1.9,1.5,2.8c1.8,2.4,2.1,5.1,1.4,7.8c-0.5,2.1,0.4,3.5,1.6,4.9
			c0.8,0.9,1.7,0.5,2.3,0c1.7-1.3,3.5-0.4,5.2-0.2c0.4,0,0.6,0.4,0.7,0.8c0.3,0.7,0.4,1.4,0.8,2c0.7,1.2,0.4,2.2-0.7,3.1
			c-0.3-0.2-0.7-0.4-1-0.6c-0.4,0.2-0.5,0.5-0.6,0.9c-0.6,3.7-3.9,3.8-6.5,4.9c-0.7,0.3-1.3-0.5-1.8-0.9c-1.2-0.9-3.8-0.8-4.9,0.1
			c-0.5,0.4-0.2,0.9-0.2,1.3c0.3,3,1,5.8,2.8,8.3c1,1.4,1,2.7,0,4c-0.4,0.5-0.6,1.2-0.9,1.8c-0.8,1.8-0.3,2.8,1.6,3.4
			c-2.1,2.1-3.5,5-6.8,5.7c1.4,2,3,3.2,5.4,3.2c1.3,0,2.5,0.5,3.4,1.4c2,1.9,4.3,2.5,6.9,1.3c0.7-0.3,1.2-0.2,1.7,0.4
			c1.6,1.9,3.4,3.5,6,3.8c0.3,0,0.6,0.2,0.8,0.4c1,1.4,2.3,0.9,3.7,0.8c3.9-0.4,6.7-2.2,7.9-6.1c0.2-0.6,0.5-1,1.1-1.2
			c0.6-0.2,1.1-0.7,1.3-1.4c0.1-0.7,0.7-0.9,1.3-1.2c2.4-1.2,4.8-2.5,7.2-3.7c0.7-0.4,1.2-0.8,1.6-1.5c1.5-2.4,3-4.8,3.9-7.6
			c0.5-1.7,0.7-3.3,0.3-5c-0.3-1.4-0.6-2.8-0.7-4.2c-0.1-1.1-0.7-1.4-1.7-1.4c-2.7,0-5.4,0-8.1,0c-0.9,0-1.5-0.3-2.1-0.9
			c-3.7-4-3.5-4.3-3.3-9.7c0.2-3.6,2-6.1,3.9-8.7c0.7-1,2.2-0.9,3.1-1.8c-0.4-0.5-0.9-0.4-1.4-0.5c-0.8-0.1-1.8,0.2-2-1
			c0-0.2-0.4-0.2-0.6-0.2c-1.1,0.2-2.1,0.4-3.2,0.7c-0.8,0.2-0.5,1-1,1.6c-1.6-0.4-3.2-0.8-4.7-1.3c-1.4-0.4-2.7-0.7-4.2-0.7
			c-1.6,0-3.2-2-2.9-3.3c0.2-0.6,0.4-1.1,1.2-1.1c0.9,0,1.1-0.5,1.1-1.3c-0.2-1.7,0-3.3,0.6-4.9c0.3-0.7,0-1.2-0.2-1.8
			c-1-2.5-1.9-5-2.9-7.4c0.6-0.5,1.1,0.3,1.6-0.3c0,0,0.1-0.1,0.1-0.1c-1-1.9-0.4-3.3,1.1-4.6c0.6-0.5,0.6-1.3,0.4-2
			c-0.9-3.8,0.4-6.6,3.7-8.6c1.3-0.8,2.4-2,3.6-3c0.3-0.2,0.6-0.5,0.7-0.9c0.2-0.6-0.1-1.4,0.8-1.7c1.8-0.5,3.2-2,5.2-1.6
			c0.8,0.2,1.5,0,2.1-0.4c3.1-1.8,6.1-3.6,9.2-5.5c0.6-0.4,1.3-0.8,2-0.5c1.5,0.5,2.9,0.1,4.3-0.5c1.1-0.4,2.3-0.7,3.3-1.2
			c2.1-1.1,4.1-0.6,6.2,0.2c0.8,0.3,0.9,0.8,1,1.4c0.1,0.8,0.3,1.7,0.3,2.5c0,1.4,0.6,1.7,1.8,1.5c0.7-0.1,1.5-0.2,2.3-0.3
			c0.7-0.1,1.3-0.3,1.3-1.2c0-0.8-0.3-1.2-1.2-1.3c-0.6,0-1.5,0.1-1.5-0.6c-0.1-1.1-0.1-2.2,0.3-3.2c0.1-0.3,0.6-0.2,0.9-0.2
			c1.1,0.1,2.3,0.2,3.3,0.8c0.9,0.6,1.8,0.7,2.8,0.2c1.2-0.5,2.5-0.8,3.6-1.4c2.3-1.1,4.6-1.2,7-0.4c1.2,0.4,2.4,0.3,3.5-0.3
			c1.9-1,3.9-1.6,5.7-2.7c2.4-1.4,4.9-0.5,7.4-0.5c1,1.5,3.7,1.3,3.5,3.9c-0.1,1.5,0.6,3.1,0.8,4.6c0.2,1.3,0.8,2,1.8,2.7
			C296.3,40.8,299,43.6,303.3,42.5z"/>
		<path class="st23" d="M191.3,129.1c-0.2-1.2,0.5-2,1.7-2.7c5.1-3.2,10.2-6.5,15.3-9.8c0.7-0.5,1-1,1-1.9c0-1.6,0.9-2.6,2.4-2.5
			c1.3,0.1,2-0.9,2.7-1.6c0.9-1,2-1.8,3.4-1.6c0.2,0,0.4,0,0.6-0.1c1.5-1.5,3-0.5,4.6-0.1c2.1,0.6,4.3,0.8,6.4,1.3
			c1.7,0.3,2.8,2.2,2.8,3.9c0.1,3.7-2,6.2-4,8.9c-0.7,1-2,1.6-3.4,1.7c-1.1,0-2,0.4-2.8,1.2c-0.8,0.8-1.8,1.4-2.6,2.2
			c-0.7,0.7-1.5,1-2.6,1c-1.7,0-2.7,1.3-2.3,2.9c0.4,1.3-0.5,2.3-0.8,3.4c-0.3,1.5-1.5,1.5-2.6,1.7c-1.3,0.3-2.7,0.5-4,0.9
			c-1,0.3-1.6,0-2.3-0.6c-1.6-1.5-3.2-2.9-4.7-4.3c-0.7-0.7-1.5-1.1-2.5-1.2c-1.7-0.1-3.3-0.8-5.1-0.2
			C191.8,131.7,191.2,130.7,191.3,129.1z"/>
		<path class="st23" d="M97.7,232.5c-1.8,0.3-3.4,0.2-4.8-0.2c-1.5-0.4-2.8-1.7-3.4-3.2c-0.7-1.5-1.1-3.1-0.1-4.8
			c0.4-0.6,0.4-1.3,0.2-2.1c-0.5-1.8,0.1-2.8,2-2.8c2.1,0,3.8-0.8,5.6-1.6c0.7-0.3,1.3-0.2,1.9,0.1c1.2,0.7,2.4,1.3,3.6,2
			c1.1,0.6,2.1,1.1,3.4,0.7c0.4-0.1,0.8-0.1,1,0.3c1.6,2.3,4.1,2.2,6.5,2.7c0.3,0.1,0.6,0,0.8,0.1c1.9,0.7,3.6,0.4,4.9-1.3
			c0.7-0.9,1.7-0.9,2.7-0.8c1.1,0.1,1.6-0.3,1.6-1.4c0-0.3,0-0.7,0.1-1c0.1-0.6-0.3-1.5,0.7-1.6c0.9-0.1,1.9-0.3,2.4,0.9
			c0.6,1.5,1.6,2.4,3.2,2.7c0.9,0.2,1.5,0.9,2.1,1.4c1.3,1.3,2.8,1,4.3,0.7c0.3-0.7-0.1-1.2-0.3-1.7c-0.1-0.4-0.3-0.9,0.1-1.2
			c0.5-0.3,0.7,0.2,1,0.4c1,1,1,1.8,0.4,3.2c-1.4,3.2-4.2,4.5-6.8,6.2c-1.4,0.9-2.8,1.7-4.5,1.4c-0.9-0.1-1.6,0.4-1.9,1.2
			c-1.2,2.8-3.3,3.1-6,2.5c-1.2-0.3-2.5-0.5-3.8-0.6c-1-0.1-1.5-0.6-1.3-1.6c0.3-1.5-0.5-2.2-1.8-2.7c-2.7-1-5.3-2-7.9-3.2
			c-1.2-0.6-2.3-0.6-3.5,0c-0.5,0.3-1.1,0.5-1.7,0.7c-0.8,0.3-1.2,0.7-1,1.7C97.7,230.6,97.6,231.5,97.7,232.5z"/>
		<path class="st23" d="M118.2,182.8c-0.5-0.8-0.6-1.5-0.7-2.3c-0.2-0.9,0.8-2.1,1.6-1.8c1.3,0.5,2.2-0.1,3.2-0.6
			c0.5-0.3,1.1-0.5,1.7-0.8c0.9-0.4,1.9-1.1,2.1,0.7c0,0.3,0.5,0.5,0.8,0.7c2.6,1.7,5.3,3.4,7.9,5.1c0.2,0.1,0.4,0.4,0.6,0.3
			c1.9-0.2,2.5,1.4,3.5,2.4c0.7,0.7,1.3,1.5,2.1,2.1c1.7,1.3,3.6,1.8,5.8,1.2c0.4-0.1,0.8-0.2,1.7,0.2c-1.9,0.4-1.3,2.6-2.8,3.1
			c-1.4,0.5-2.9,0.9-4.4,1.2c-0.5,0.1-0.9-0.2-1.3-0.4c-1.5-0.6-2.7-1.8-4.4-2c-0.5,0-0.8-0.7-1-1.1c-0.6-1.1-1.4-1.5-2.7-1.4
			c-0.9,0.1-2.1,0.5-2.7-0.3c-0.9-1.1-1.8-2.3-2.2-3.8c-0.3-1.2-0.2-2.5-0.8-3.6c-0.4-0.7-0.9-1.1-1.8-1.1c-1.8,0-3.6,0.1-5.1,1.4
			C119,182.5,118.6,182.6,118.2,182.8z"/>
		<path class="st23" d="M123.5,198.4c-0.4-1.7-1.5-2.1-3-1.9c-0.8,0.1-1.1-0.4-1.3-1c-0.5-1.6-1.1-3.1-3.2-3.1
			c-0.2,0-0.5-0.3-0.6-0.5c-0.7-1.6-1.6-1.2-2.7-0.5c-1.3,0.9-2.7,1.6-4.4,1.3c-0.4-0.1-0.7-0.1-1-0.4c-0.9-1.1,0.1-4,1.4-4.4
			c2.5-0.7,5-1,7.7-0.9c2.3,0.1,4.4,1.1,6.6,0.9c0.7-0.1,1.3,0.2,1.5,1c0.6,2.6,2.6,3.7,5,4.2c0.5,0.1,1,0.3,1.4,0.5
			c0.1,1.5-1,2-1.9,2.5C127.3,197,125.5,197.7,123.5,198.4z"/>
		<path class="st23" d="M174.5,54c1.1,1,1.9,1.8,2.8,2.6c0.4,0.4,0.5,0.8,0.4,1.4c-0.3,1.6-0.2,3.4-0.8,4.9c-0.7,2-1.6,4.1-4.1,4.6
			c-0.8,0.2-1.2,1-1.5,1.6c-1,2-2.7,2.1-4.5,2.2c-0.8-3.1-0.5-5.8,1.5-8.4C170.5,60.1,172.4,57,174.5,54z"/>
		<path class="st23" d="M193.1,38.2c-0.2-0.4-0.4-0.6-0.5-0.9c-0.2-0.3-0.3-0.7-0.5-1.1c1.8-1.2,3.1-2.8,5.6-2.8
			c3.3,0,6.2-1.5,9.3-2.5c1.9-0.6,3.8-1.3,5.7-1.9c0.9-0.3,1.8-0.4,2.8-0.2c0,0.6-0.5,0.7-0.8,0.9c-1,0.6-2.1,1.1-3.1,1.7
			c-1.4,0.8-2.7,1.5-4.4,0.9c-0.8-0.3-1.6,0-2.4,0.5c-1.8,1-3.5,2.2-5.5,2.7C197,36,195.1,37,193.1,38.2z"/>
		<path class="st23" d="M119.3,203.1c-1,0.5-1.8,1.3-2.9,0.3c-0.3-0.2-0.6-0.3-1-0.2c-2.2,0.4-4.6-0.2-6.6,1.7
			c-0.7-1.7-2.3-2.3-3.4-3.5c0.4-1,1-1.4,2.1-1c2.1,0.7,4.2,0.3,6.3-0.1C117.6,199.5,117.6,199.6,119.3,203.1z"/>
		<path class="st23" d="M238.5,27.1c-0.1,0.7-0.6,0.8-1,0.8c-2.6,0.5-5.1,1-7.7,1.6c-0.4,0.1-0.8,0.1-1.3,0
			c-2.4-0.7-4.6-0.6-6.8,0.9c-0.8,0.6-2.5,0-3-0.8c-0.6-0.9,0-2.1,1.1-2.1c4.7-0.1,9.4-0.2,14.1-0.3C235.5,27.2,237,26.9,238.5,27.1
			z"/>
		<path class="st23" d="M248.5,27.9c-0.8-1.4,0-3.5,1.3-3.6c3.3-0.5,6.5-0.8,9.8-1.1c0.1,0.4,0,0.6-0.3,0.7c-2.9,0.8-5.3,2.9-8.5,3
			C249.9,26.8,249,26.8,248.5,27.9z"/>
		<path class="st23" d="M188.6,42.5c-2.3,0.5-4,1.6-5.8,2.5c-0.6,0.3-0.9,1-1.3,1.5c-1.2,1.4-2.4,3.1-4.1,4c-0.5,0.3-1.3,0-2,0
			c-0.3-0.5-0.3-1,0.3-1.2c2.9-1,4.7-3.4,6.8-5.2c1.5-1.3,3.4-1.6,5.2-2.1C187.9,41.9,188.1,42.1,188.6,42.5z"/>
	</g>
</g>
</svg>
