<?xml version="1.0" encoding="utf-8"?>
<!-- Generator: Adobe Illustrator 24.3.0, SVG Export Plug-In . SVG Version: 6.00 Build 0)  -->
<svg version="1.1" id="Layer_1" xmlns="http://www.w3.org/2000/svg" xmlns:xlink="http://www.w3.org/1999/xlink" x="0px" y="0px"
	 viewBox="0 0 400 300" style="enable-background:new 0 0 400 300;" xml:space="preserve">
<style type="text/css">
	.st0{clip-path:url(#SVGID_2_);}
	.st1{fill:#FEFEFE;}
	.st2{fill:#DB143C;}
	.st3{fill:none;}
	.st4{fill:#C98017;}
	.st5{fill:#FBED60;}
	.st6{fill:#FABA31;}
	.st7{fill:#68C2EE;}
	.st8{fill:#0491BE;}
	.st9{fill:#68C2EF;}
	.st10{fill:#31798F;}
	.st11{fill:#C1BDBE;}
	.st12{fill:#6E6E6E;}
	.st13{fill:#6C6C6C;}
	.st14{fill:#BCBCBC;}
	.st15{fill:#E1E1E1;}
	.st16{fill:#0A0A09;}
	.st17{fill:#F3F2EF;}
</style>
<g>
	<g>
		<defs>
			<path id="SVGID_1_" d="M76.6,211.4c0.7-1.5,1.3-2.8,1.8-4.2c1.4-3.2,2.9-6.4,3.2-10c0.3-4.1-0.7-7.4-4.3-9.7
				c-1.2-0.7-2-1.8-2.9-2.8c-0.3-0.3-0.4-0.6-0.4-1c0-0.3,0-0.6-0.1-0.9c-2.6-10-2.1-7.2,0.2-17.5c0.8-3.8,0.4-7.2-2.8-9.8
				c-1.3-1-1.4-2.5-1.1-4c0.1-0.4,0.2-0.9,0.4-1.3c1.8-4.1,0.2-6.3-3.2-9c-1.8-1.4-3.6-2.7-5.5-3.8c-1.1-0.7-1.7-1.6-2.4-2.6
				c-1.6-2.2-0.5-4,0.7-5.8c0.8-1.1,1.8-2.2,2.7-3.2c3.1-3.2,3.5-7,2.4-11c-1-3.7-2-7.4-3-11.1c-0.1-0.4-0.4-0.9-0.1-1.5l8.2,3
				c-0.1-1.7-0.1-3.3-0.2-4.9c-0.1-1.4-1.3-1.8-2.4-2.2c-1.8-0.7-3.7-0.7-5.6-1c-2-0.2-2.3-0.9-1.5-3c1.3,0.1,2.6,0.1,3.8,0.3
				c1.8,0.3,3.4,0,5.1-0.4c4-0.9,7.9-2.2,11.8-3.7c7.5-3.1,15.4-5,23.3-6.4c5.1-0.9,9.6-2.9,13.2-6.7c0.7-0.6,1.4-1.2,2.2-1.7
				c3.5-2.6,7.7-3.6,11.7-5c4.5-1.5,8.9-3.1,13.4-4.3c6.3-1.7,12.8-2.8,19.3-3.3c4.2-0.3,8.2,0.7,12.2,1.5c0.2,0,0.5,0.1,0.7,0.3
				c1.7,1.5,3.4,3,5,4.6c-3-0.5-5.4-2.9-8.7-3.2c2.1,4.1,3.7,8.3,7.5,11.1c2.2,1.7,4.8,2.3,7.4,2.5c2.9,0.2,5.8-0.5,8.5-1.5
				c4.7-1.6,9.5-1.9,14.4-1.6c25.2,1.4,50.4,2.5,75.7,3.2c1.1,0,2.2,0,3.1-0.7c1.2-0.9,2.9-0.9,4.1,0c3.5,2.5,7.6,4,11,6.7
				c1.5,1.1,2.6,2.7,2.7,4.5c0.4,5.8,2.8,10.9,4.5,16.3c2,6.5,4.3,12.9,6.3,19.5c1,3.2,1.5,6.5,1.3,9.9c-0.1,3.6-1.9,5.9-5.3,7.2
				c-2.3,0.8-4.6,1.6-6.7,2.8c-3.2,1.8-5.5,4.4-7.1,7.6c-1,1.9-0.1,3.9,2,4.8c1.7,0.7,3.4,1.3,5.1,2c2,0.8,3.5,2,4,4.5
				c0.4,2.2,0.7,4.2,0,6.4c-0.4,1.1-0.4,2.3-0.8,3.4c-1.6,4.3-0.8,8.3,1.2,12.3c0.5,1.1,0.4,2.3,0.3,3.4c-0.1,1.9,0.4,3.7,1.7,5.1
				c3.3,3.5,5.4,7.7,7.3,11.9c0.5,1.2,1.3,2.3,2.3,3.1c0.7,0.5,1,1.4,0.2,1.9c-1.8,1.3-1.4,3-1.3,4.7c0.1,1.4,0.8,2.7,1.2,4
				c0.9,3.2-0.2,6-2.9,7.8c-2.4,1.6-5.1,2.4-7.6,3.9c-2.2,1.3-4.2,2.9-6,4.8c-5.5,5.9-10.9,11.8-16.3,17.8c-1.8,1.9-3.3,4-4.5,6.2
				c-1.2,2.4-1.2,4.8-0.7,7.3c0.6,3,1.3,6,1.9,8.9c0.2,1.3,0.9,2.5,1.9,3.3c0.6,0.4,1.3,0.9,0.8,1.9c-0.5,1-1.3,1.1-2.2,0.8
				c-6.1-1.7-12-3.8-17.3-7.2c-5-3.3-10.2-6.1-15.7-8.4c-0.6-0.3-1.3-0.4-2-0.3c-2.8,0.3-5.6,0.6-8.4,0.7c-1.3,0-2.6,0.6-3.4,1.7
				c-1.8,2.5-4.2,2.4-6.7,1.7c-0.4-0.1-0.7-0.3-1.1-0.4c-4.1-2.2-8.2-1.8-12.3,0c-2.2,0.9-3.9,2.7-4.6,5c-0.2,0.4-0.4,0.9-0.6,1.3
				c-1.7-0.7-3.5-0.5-5.3-0.4c-1.5,0-1.5-0.5-1.9-1.8c-0.7-2.4-0.4-5.5-3.6-6.8c-2.3-0.9-3.2-3.5-4.8-5.1c-0.9-0.9-1.9-1.1-2.9-0.6
				c-1.2,0.6-2.3,1.4-3.3,2.3c-0.7,0.6-1.2,1.4-1.7,2.2c-0.8,1.5-2,2.1-3.7,2c-1.2-0.1-2-0.5-2.4-1.7c-0.4-1.3-1-2.3-2.5-2.5
				c-0.7-0.1-0.8-0.6-0.8-1.2c-0.1-1.4-0.7-2.7-1.7-3.8c-1.5-1.8-2.8-3.8-3.9-6c-1.1-2.3-3.2-4.1-5.7-4.8c-3-1-5.9-2.1-8.3-4.3
				c-0.9-0.8-1.8-0.7-2.7,0.1c-2.3,2.1-3.1,2.3-6.2-0.4c-1.8-1.5-3-3.5-4.6-5.4c0.9-0.4,1.8-0.6,2.4-1.1c0.9-0.7,1.4-1.8,1.2-2.9
				c-0.2-1.4-1-1.9-2.1-1.2c-2.7,1.7-5.1,0.6-7.5-0.6c-1.8-0.9-3.5-2.1-5.2-3.1c-2-1.1-4.3-1.6-6.5-1.4c-0.3,0-0.6,0.1-0.8,0.4
				c1.2,1.3,1.2,2.9,1.1,4.6c0,0.8,0.7,1.6-0.2,2.4c-1.8,1.6-3.1,3.8-5.7,4.3c-1.6,0.3-3.2-0.3-4.2-1.5c-2.6-2.8-5.1-5.7-7.7-8.5
				c-1-1.1-0.9-2.7,0.2-3.7c0,0,0.1-0.1,0.1-0.1c0.7-0.6,1.7-0.9,2.3-1.7c1.2-1.5,0.8-3.2,0-4.5c-0.7-1.1-2.2-0.9-3.4-0.7
				c-1.8,0.3-3.5,0.7-5.3,0.9c-0.7,0.1-1.3,0-1.7-0.5c-2.7-3.1-6.7-3.9-10.3-5.4c-1.3-0.5-2.6-0.8-3.9-1.1c-1.8-0.4-3.2-1.7-3.6-3.4
				c-0.1-0.3-0.2-0.5-0.3-0.8c-0.5-3-3-3.9-5.3-5.1c-0.5-0.2-0.7,0-1,0.3c-0.8,0.8-1.7,1.5-2.1,2.6C80.6,210.4,78.9,211,76.6,211.4z
				"/>
		</defs>
		<clipPath id="SVGID_2_">
			<use xlink:href="#SVGID_1_"  style="overflow:visible;"/>
		</clipPath>
		<g class="st0">
			<ellipse class="st1" cx="173.3" cy="118.3" rx="240.3" ry="78.2"/>
			<ellipse class="st2" cx="173.3" cy="228.9" rx="240.3" ry="78.2"/>
		</g>
	</g>
	<path d="M289.7,285.2c-0.3,0-0.7-0.1-1-0.2c-5.9-1.7-12-3.7-17.6-7.3c-4.9-3.3-10.1-6-15.6-8.3c-0.5-0.2-1-0.3-1.5-0.3
		c-2.7,0.3-5.6,0.6-8.4,0.7c-1,0-2,0.5-2.7,1.3c-2.2,3.1-5.2,2.8-7.8,2.1c-0.4-0.1-0.9-0.3-1.3-0.5c-3.5-1.9-7.3-1.8-11.5,0
		c-1.9,0.8-3.4,2.4-4.1,4.4c-0.1,0.3-0.3,0.7-0.4,1l-0.2,0.4c-0.2,0.4-0.8,0.6-1.2,0.4c-1.2-0.5-2.6-0.4-4-0.4l-0.8,0
		c-2.1,0-2.4-1.1-2.7-2.2l-0.1-0.3c-0.2-0.6-0.3-1.2-0.4-1.9c-0.4-2.2-0.7-3.5-2.6-4.3c-1.8-0.7-2.8-2.2-3.7-3.5
		c-0.4-0.7-0.9-1.3-1.5-1.9c-0.6-0.6-1.2-0.7-1.8-0.4c-1.1,0.6-2.2,1.3-3.1,2.2c-0.6,0.6-1.1,1.2-1.5,1.9c-0.9,1.7-2.7,2.7-4.6,2.5
		c-1.7-0.1-2.8-0.9-3.3-2.4c-0.4-1.2-0.8-1.7-1.7-1.8c-0.7-0.1-1.6-0.5-1.7-2c-0.1-1.2-0.6-2.3-1.5-3.2c-1.6-1.9-2.9-3.9-4-6.2
		c-1-2.1-2.9-3.7-5.1-4.4c-2.8-0.9-6.1-2.1-8.7-4.5c-0.3-0.3-0.7-0.5-1.4,0.1c-2.7,2.4-4,2.6-7.5-0.4c-1.2-1.1-2.3-2.4-3.3-3.7
		c-0.4-0.6-0.9-1.2-1.4-1.7c-0.3-0.4-0.3-1,0.1-1.3c0.1-0.1,0.2-0.1,0.2-0.1c0.3-0.1,0.5-0.2,0.7-0.3c0.5-0.2,1-0.4,1.5-0.7
		c0.7-0.4,1-1.2,0.8-2c0-0.2-0.1-0.5-0.2-0.7c-0.1,0-0.3,0.1-0.4,0.2c-3.2,2-6.1,0.6-8.5-0.5c-1.2-0.6-2.4-1.3-3.5-2
		c-0.6-0.4-1.2-0.7-1.8-1.1c-1.6-0.9-3.5-1.4-5.4-1.3c0.6,1.3,0.6,2.8,0.5,4.1c0,0.2,0,0.3,0.1,0.4c0.4,0.9,0.1,2-0.7,2.7
		c-0.4,0.4-0.8,0.8-1.3,1.3c-1.2,1.3-2.7,2.9-4.9,3.2c-1.9,0.3-3.8-0.4-5-1.8c-2.6-2.8-5.1-5.7-7.7-8.5c-0.6-0.7-1-1.6-0.9-2.6
		c0.1-1,0.5-1.9,1.3-2.6c0.4-0.3,0.7-0.6,1.1-0.8c0.4-0.2,0.8-0.5,1.1-0.8c0.3-0.3,1.1-1.4-0.1-3.4c-0.3-0.5-1.4-0.4-2.5-0.2
		c-0.6,0.1-1.3,0.2-1.9,0.3c-1.1,0.3-2.3,0.4-3.5,0.6c-0.9,0.2-1.9-0.2-2.5-0.8c-1.9-2.2-4.5-3.1-7.3-4.1c-0.9-0.3-1.8-0.6-2.6-1
		c-1-0.4-2-0.7-3-0.9l-0.8-0.2c-2.1-0.4-3.7-2-4.3-4l-0.1-0.2c-0.1-0.2-0.2-0.5-0.2-0.7c-0.4-2.2-2.1-3.1-4.1-4l-0.5-0.3l0,0
		l-0.4,0.4c-0.6,0.5-1.1,1.1-1.4,1.8c-0.9,2.7-3.3,3.4-5.4,3.8c-0.5,0.1-1-0.2-1.1-0.8c0-0.2,0-0.4,0.1-0.6l2-4.5
		c1.4-3.1,2.7-6,2.9-9.3c0.3-4.1-0.9-7-3.9-8.8c-0.9-0.6-1.7-1.4-2.4-2.2c-0.2-0.2-0.4-0.5-0.7-0.7c-0.5-0.5-0.7-1.1-0.7-1.8
		c0-0.2,0-0.4-0.1-0.5l-0.3-1c-1.9-7.1-1.9-7.3-0.7-12.2c0.3-1.2,0.7-2.7,1.1-4.7c0.9-4.1,0.1-6.8-2.5-8.9c-1.4-1.1-1.9-2.7-1.5-4.9
		c0.1-0.5,0.2-1,0.4-1.5c1.5-3.5,0.4-5.2-2.9-7.9c-1.7-1.3-3.5-2.6-5.3-3.7c-1.1-0.7-2-1.7-2.6-2.8c-2.2-3.1-0.4-5.7,0.6-7
		c0.9-1.2,1.8-2.3,2.8-3.3c2.6-2.6,3.3-5.8,2.2-10.1c-0.6-2.3-1.2-4.6-1.9-6.9c-0.4-1.4-0.8-2.8-1.2-4.2c0-0.1,0-0.1-0.1-0.2
		c-0.3-0.6-0.3-1.3,0-1.9c0.2-0.5,0.7-0.7,1.2-0.5l6.9,2.6v-0.1c0-1.1-0.1-2.2-0.2-3.3c-0.1-0.7-0.6-1-1.8-1.4
		c-1.3-0.4-2.7-0.7-4.1-0.8c-0.4,0-0.9-0.1-1.3-0.1c-0.9-0.1-1.9-0.3-2.5-1.2s-0.2-2,0.2-3.1c0.1-0.4,0.5-0.6,1-0.6l1.2,0.1
		c0.9,0,1.9,0.1,2.8,0.3c1.6,0.3,3.2,0,4.7-0.4c4.4-1.1,8.1-2.2,11.6-3.6c6.6-2.7,13.9-4.7,23.5-6.4c5.3-1,9.4-3.1,12.7-6.4
		c0.5-0.5,1.1-1,1.8-1.4l0.5-0.4c3.1-2.3,6.6-3.4,10-4.5c0.7-0.2,1.3-0.4,2-0.6c1.1-0.4,2.2-0.7,3.3-1.1c3.3-1.1,6.7-2.3,10.1-3.2
		c6.4-1.7,12.9-2.8,19.5-3.3c3.5-0.2,6.9,0.4,10.2,1c0.7,0.1,1.5,0.3,2.2,0.4c0.4,0.1,0.8,0.2,1.1,0.5c1.9,1.7,3.5,3.1,5.1,4.7
		c0.4,0.4,0.4,1,0,1.4c-0.2,0.2-0.5,0.3-0.8,0.3c-1.4-0.3-2.8-0.9-4.1-1.6c-0.9-0.5-1.8-0.9-2.7-1.2c0,0,0,0.1,0.1,0.1
		c1.7,3.4,3.3,6.7,6.2,8.9c1.8,1.4,4.1,2.1,6.9,2.3c2.9,0.2,5.8-0.6,8.2-1.4c4.2-1.5,8.8-2,14.8-1.6c30.6,1.7,53.9,2.6,75.6,3.2
		c1.1,0,1.8-0.1,2.5-0.5c1.5-1.2,3.7-1.2,5.2,0c1.6,1.1,3.3,2.1,5,2.9c2.1,1.1,4.2,2.3,6.1,3.8c1.9,1.4,2.9,3.2,3.1,5.2
		c0.3,4,1.6,7.9,2.9,11.6c0.5,1.5,1,3,1.5,4.5c1.1,3.5,2.2,7.1,3.4,10.5c1,3,2,6,2.9,8.9c1,3.3,1.5,6.7,1.4,10.2
		c-0.2,4-2.1,6.7-5.9,8l-1.1,0.4c-1.9,0.6-3.7,1.4-5.5,2.3c-2.8,1.5-5,3.9-6.7,7.2c-0.3,0.6-0.4,1.2-0.2,1.8
		c0.3,0.8,0.9,1.4,1.7,1.6c0.9,0.4,1.8,0.7,2.8,1.1c0.8,0.3,1.6,0.6,2.3,0.9c1.8,0.7,3.9,2,4.6,5.2c0.5,2.5,0.7,4.6,0,6.9
		c-0.1,0.5-0.3,1-0.3,1.5c-0.1,0.7-0.3,1.3-0.5,2c-1.3,3.6-1,7.2,1.2,11.5c0.6,1.2,0.5,2.4,0.4,3.5v0.4c-0.1,1.9,0.4,3.3,1.4,4.4
		c3.3,3.5,5.4,7.6,7.5,12.2c0.5,1.2,1.1,2.1,2,2.7c0.7,0.4,1.1,1.1,1.1,1.9c0,0.7-0.3,1.3-0.9,1.6c-1.1,0.7-1,1.6-0.9,3.2
		c0,0.2,0,0.5,0,0.7c0.1,0.8,0.3,1.6,0.7,2.3c0.2,0.5,0.4,1,0.5,1.5c1,3.5-0.1,6.7-3.3,8.9c-1.4,0.9-2.9,1.7-4.5,2.3
		c-1.1,0.5-2.2,1-3.2,1.6c-2.1,1.3-4.1,2.8-5.7,4.7c-5.9,6.3-11.2,12.1-16.3,17.8c-1.7,1.8-3.1,3.8-4.3,6c-1,2-1.2,4-0.6,6.7
		c0.2,1,0.4,2,0.6,3c0.4,2,0.9,4,1.3,6c0.1,1.1,0.7,2,1.6,2.7c0.7,0.5,1.9,1.4,1.1,3.1C291.7,284.6,290.8,285.2,289.7,285.2z
		 M254.3,267.2c0.7,0,1.3,0.2,2,0.4c5.6,2.3,10.9,5.2,15.9,8.5c5.3,3.4,11.4,5.5,17.1,7.1c0.7,0.2,0.9,0,1.1-0.3
		c0-0.1,0.1-0.1,0.1-0.2c-0.1-0.2-0.3-0.3-0.5-0.4c-1.3-1-2.2-2.4-2.4-4c-0.4-2-0.8-4-1.2-5.9c-0.2-1-0.4-2-0.7-3
		c-0.7-3.1-0.4-5.6,0.7-8c1.2-2.3,2.8-4.5,4.6-6.5c5.1-5.7,10.4-11.5,16.3-17.8c1.8-2,3.9-3.7,6.2-5c1.1-0.6,2.2-1.2,3.4-1.6
		c1.5-0.6,2.9-1.3,4.2-2.2c2.4-1.6,3.3-4,2.5-6.7c-0.1-0.4-0.3-0.9-0.5-1.3c-0.4-0.9-0.7-1.9-0.8-2.9c0-0.2,0-0.4,0-0.7
		c-0.1-1.6-0.3-3.5,1.8-4.9c0.1-0.1,0-0.2-0.2-0.4c-1.2-0.9-2.1-2.1-2.6-3.5c-2.1-4.4-4-8.4-7.1-11.7c-1.4-1.5-2-3.5-1.9-5.8V190
		c0.1-0.9,0.1-1.8-0.3-2.6c-2.4-4.8-2.8-9-1.2-13c0.2-0.5,0.3-1.1,0.4-1.6c0.1-0.6,0.2-1.1,0.4-1.7c0.6-1.9,0.4-3.6,0-5.9
		c-0.4-1.8-1.4-2.9-3.4-3.8c-0.8-0.3-1.5-0.6-2.3-0.9c-1-0.4-1.9-0.7-2.8-1.1c-1.3-0.5-2.3-1.5-2.7-2.7c-0.4-1.1-0.3-2.3,0.2-3.4
		c1.9-3.7,4.3-6.3,7.5-8c1.8-0.9,3.8-1.7,5.7-2.4l1.1-0.4c3-1.1,4.5-3.1,4.6-6.3c0.1-3.2-0.3-6.5-1.3-9.6c-0.9-3-1.9-6-2.9-8.9
		c-1.1-3.4-2.3-7-3.4-10.6c-0.4-1.5-1-3-1.5-4.5c-1.3-3.8-2.7-7.8-3-12.1c-0.1-1.7-1.3-3-2.3-3.8c-1.8-1.3-3.8-2.5-5.8-3.6
		c-1.8-0.9-3.5-1.9-5.2-3.1c-0.9-0.7-2.1-0.7-2.9,0c-1.1,0.8-2.4,0.9-3.6,0.9c-21.7-0.5-45.1-1.5-75.7-3.2
		c-5.8-0.3-10.1,0.2-14.1,1.5c-2.6,0.9-5.6,1.7-8.9,1.5c-3.2-0.2-5.8-1.1-7.9-2.7c-3.4-2.5-5.1-6.1-6.8-9.6
		c-0.3-0.6-0.6-1.2-0.9-1.8c-0.2-0.3-0.1-0.7,0.1-1c0.2-0.3,0.5-0.5,0.9-0.4c1.5,0.1,2.9,0.6,4.2,1.2l-1.2-1l0,0c0,0-0.1,0-0.2-0.1
		c-0.8-0.1-1.5-0.3-2.3-0.4c-3.3-0.6-6.4-1.2-9.7-1c-6.5,0.5-12.9,1.6-19.1,3.3c-3.4,0.9-6.7,2.1-10,3.2c-1.1,0.4-2.2,0.8-3.3,1.1
		l-2,0.6c-3.4,1.1-6.6,2.1-9.4,4.2l-0.5,0.4c-0.5,0.4-1,0.8-1.5,1.2c-3.5,3.7-8,5.9-13.7,7c-9.5,1.7-16.7,3.7-23.1,6.4
		c-3.7,1.5-7.4,2.6-11.9,3.7c-1.7,0.4-3.5,0.8-5.5,0.4c-0.8-0.1-1.7-0.2-2.5-0.2l-0.4,0c-0.2,0.6-0.1,0.8-0.1,0.8s0.1,0.2,1.1,0.3
		c0.4,0.1,0.8,0.1,1.2,0.1c1.5,0.1,3.1,0.4,4.5,0.9c1.1,0.4,2.8,1.1,3,3c0.1,1.1,0.1,2.2,0.2,3.4l0.1,1.5c0,0.5-0.4,1-0.9,1
		c-0.1,0-0.3,0-0.4-0.1l-6.8-2.5c0.4,1.3,0.7,2.7,1.1,4c0.6,2.3,1.3,4.6,1.9,6.9c1.3,4.9,0.4,8.8-2.7,11.9c-1,1-1.8,2-2.7,3.1
		c-1.3,1.9-1.8,3.1-0.7,4.7c0.7,1.1,1.3,1.8,2.1,2.4c1.9,1.2,3.8,2.5,5.6,3.9c3.1,2.5,5.6,5.2,3.4,10.1c-0.1,0.3-0.2,0.7-0.3,1
		c-0.3,1.5,0,2.4,0.8,3.1c4.2,3.4,3.8,7.8,3.2,10.8c-0.4,2-0.8,3.6-1.1,4.8c-1.1,4.5-1.1,4.5,0.7,11.2l0.3,1
		c0.1,0.4,0.2,0.8,0.1,1.2c0,0.1,0,0.1,0.1,0.3c0.3,0.3,0.5,0.5,0.7,0.8c0.6,0.7,1.3,1.3,2,1.9c3.6,2.3,5.2,5.7,4.8,10.6
		c-0.3,3.6-1.7,6.8-3.1,9.9l-1.2,2.8c1-0.3,1.8-1.1,2.1-2c0.4-1,1-1.9,1.9-2.5l0.4-0.4c0.5-0.6,1.4-0.8,2.1-0.5l0.7,0.3
		c2.2,1,4.6,2.2,5.1,5.5c0,0.1,0.1,0.2,0.1,0.3c0,0.1,0.1,0.2,0.1,0.4c0.4,1.4,1.5,2.5,3,2.8l0.8,0.2c1.1,0.2,2.2,0.5,3.3,1
		c0.8,0.3,1.7,0.7,2.5,1c2.9,1,5.9,2.1,8.1,4.7c0.1,0.1,0.2,0.2,0.9,0.2c1.1-0.1,2.2-0.3,3.3-0.5c0.6-0.1,1.3-0.3,2-0.4
		c1.1-0.2,3.4-0.5,4.4,1.1c1.2,2,1.2,4-0.1,5.6c-0.4,0.5-1,0.9-1.6,1.3c-0.3,0.2-0.6,0.4-0.8,0.6c-0.4,0.3-0.6,0.8-0.7,1.3
		c0,0.4,0.1,0.9,0.4,1.2c2.5,2.8,5.1,5.7,7.7,8.5c0.8,1,2.1,1.4,3.3,1.2c1.6-0.3,2.6-1.4,3.8-2.7c0.4-0.5,0.9-1,1.4-1.4
		c0.2-0.2,0.2-0.2,0.1-0.7c-0.1-0.3-0.2-0.7-0.2-1c0.1-1.7,0-2.9-0.9-3.9c-0.3-0.3-0.3-0.8-0.1-1.2c0.3-0.5,0.9-0.8,1.5-0.8
		c2.8-0.2,5.1,0.3,7.1,1.5c0.6,0.4,1.2,0.7,1.8,1.1c1.1,0.7,2.2,1.4,3.3,1.9c2.6,1.3,4.5,2,6.6,0.6c1-0.6,1.8-0.5,2.2-0.3
		s1.1,0.8,1.3,2.1c0.3,1.5-0.3,3-1.6,3.8c-0.4,0.3-0.9,0.6-1.4,0.8l0.6,0.8c0.9,1.2,2,2.4,3.1,3.4c2.7,2.4,3,2.1,4.9,0.4
		c1.3-1.2,2.8-1.2,4-0.1c2.3,2.2,5.2,3.2,7.9,4.1c2.7,0.8,5,2.8,6.2,5.3c1,2.1,2.2,4,3.7,5.8c1.1,1.2,1.8,2.7,2,4.3
		c0,0.1,0,0.2,0.1,0.3c2.1,0.2,2.9,1.8,3.3,3c0.2,0.6,0.5,1,1.6,1c1.3,0.1,2.1-0.3,2.8-1.5c0.5-0.9,1.1-1.7,1.9-2.4
		c1.1-1,2.2-1.8,3.5-2.5c1.4-0.7,2.8-0.4,4,0.8c0.6,0.7,1.2,1.4,1.7,2.1c0.8,1.2,1.6,2.3,2.8,2.8c2.9,1.2,3.4,3.7,3.8,5.7
		c0.1,0.6,0.2,1.1,0.4,1.7l0.1,0.3c0.1,0.3,0.2,0.5,0.3,0.8l0,0c0.2,0.1,0.4,0.1,0.6,0l0.8,0c1.3-0.1,2.7,0,4,0.3
		c0.1-0.1,0.1-0.3,0.2-0.4c0.8-2.5,2.7-4.5,5.1-5.5c4.8-2.2,9.1-2.1,13.1,0c0.3,0.1,0.6,0.3,0.9,0.4c2.4,0.7,4.3,0.7,5.7-1.3
		c0.9-1.3,2.3-2,4.1-2.1c2.8-0.1,5.6-0.4,8.4-0.7C254,267.2,254.2,267.2,254.3,267.2L254.3,267.2z"/>
</g>
<rect y="16.6" class="st3" width="400" height="300"/>
<g>
	
		<ellipse transform="matrix(0.6003 -0.7998 0.7998 0.6003 -175.0822 146.3255)" class="st4" cx="58.9" cy="248.3" rx="19.2" ry="35"/>
	<ellipse transform="matrix(0.6165 -0.7874 0.7874 0.6165 -169.927 142.3385)" class="st5" cx="61.1" cy="245.6" rx="17" ry="35"/>
	
		<ellipse transform="matrix(0.6165 -0.7874 0.7874 0.6165 -169.927 142.3385)" class="st6" cx="61.1" cy="245.6" rx="13.6" ry="28"/>
	<path class="st4" d="M51.5,243.7c-0.4,1.8,1.8,4.6,4.6,6.4c1.8,1.1,3.6,1.5,4.7,1.1l0.6-0.2l0.7,0.7c0.7,0.7,1.6,1.4,2.5,1.9
		c2.9,1.8,5.5,1.7,5.8-0.1l0.1-0.6l3,1.9c0.6,0.4,1.2,0.4,1.3,0c0.1-0.4-0.4-1-1-1.4l-3-1.9l0.5-2.4l3,1.9c0.6,0.4,1.2,0.4,1.2,0
		c-0.1-0.6-0.5-1.1-1-1.4l-3-1.9l0.4-1.9c0.1-0.4-0.4-1-1-1.4c-0.6-0.4-1.2-0.4-1.2,0l-0.4,1.9l-14.2-8.5l0.4-1.9
		c0.1-0.4-0.4-1-1-1.4c-0.6-0.4-1.2-0.4-1.2,0l-0.4,1.9l-3-1.9c-0.6-0.4-1.2-0.4-1.3,0c-0.1,0.4,0.4,1,1,1.4l3,1.9l-0.5,2.5l-3-1.9
		c-0.6-0.4-1.2-0.4-1.2,0c0.1,0.6,0.5,1.1,1,1.4l3,1.9L51.5,243.7z M69.1,247.9l-0.8,4.4c-0.2,1-1.7,1-3.3,0.1
		c-1.7-0.9-2.9-2.7-2.7-3.7l0.8-4.4L69.1,247.9z M54.9,239.3l5.9,3.6l-1,5.7c-0.2,1-1.7,1-3.3,0.1s-2.9-2.6-2.7-3.7L54.9,239.3z"/>
</g>
<g>
	
		<ellipse transform="matrix(0.5509 -0.8346 0.8346 0.5509 -53.4191 235.9013)" class="st7" cx="192.5" cy="167.6" rx="55" ry="26.6"/>
	
		<ellipse transform="matrix(0.5509 -0.8346 0.8346 0.5509 -52.0361 232.1283)" class="st8" cx="189.7" cy="164.4" rx="53.9" ry="24.7"/>
	
		<ellipse transform="matrix(0.5509 -0.8346 0.8346 0.5509 -52.0361 232.1283)" class="st9" cx="189.7" cy="164.4" rx="43.2" ry="19.8"/>
	<path class="st10" d="M195.5,156.3l7.6-9.3c-1.1-0.7-2-1.2-2.9-2c-0.5-0.4-1,0-1.6,0.9c-2.6,2.9-5,5.9-7.5,9
		c-1.6,2-2.7,2.7-4.1,2.8c-1.7,0.1-2,0.2-3.4,3.2l2.5-0.2c-2.6,3.3-5.2,6-7.6,9.2l10.3,6.8c0.2,0.1,0.5,0.1,0.9-0.4
		c1.2-1.4,2.5-2.8,3.9-4.3l-7.1-4.7c1.5-1.7,2.8-3.2,4.1-4.9c1.6-2.1,2.8-2.9,4.2-2.9c1.7,0,1.8-0.2,3.4-3.2L195.5,156.3z"/>
</g>
<g>
	<ellipse class="st11" cx="330.8" cy="228.3" rx="47.5" ry="54.6"/>
	<ellipse class="st12" cx="325" cy="226.5" rx="45.8" ry="52.9"/>
	<ellipse class="st11" cx="325" cy="226.5" rx="36.7" ry="42.4"/>
	<path class="st12" d="M333,202c4.9,0,8.7,4.1,8.9,10c0.2,5.4-3.4,9.9-7.7,10.5c-0.6,0.1-1.3,0.2-1.9,0.1c-2-0.2-3.7,1.2-3.9,3.2
		v0.6c0,2.4,1.5,4.1,3.6,4c4.4-0.2,8.2,3,9.2,7.9c1,3.8-0.2,7.7-3,10.4c-2.3,2.6-6.2,3.2-9.2,1.5c-3.4-1.6-5.1-4.7-5.4-8.9
		c-0.1-2,0.3-4,1.1-5.8c0.7-1.5,0.4-3.3-0.8-4.5c-1-1.1-2.5-1.3-3.8-0.6c-0.5,0.4-1,0.8-1.3,1.4c-2.3,3.7-5.4,5.2-9.2,4.3
		s-6.2-3.8-7-8.3c-1.2-6.3,3.7-12.6,9.3-12.1c3.6,0.3,6.2,2.4,7.8,6.2c0.5,1.6,2.2,2.5,3.8,2.1c0.1,0,0.1,0,0.2-0.1
		c0.2-0.1,0.3-0.1,0.5-0.2c1.8-1.1,2.5-3.5,1.5-5.4c-0.9-1.7-1.5-3.6-1.6-5.5C323.9,206.7,327.8,202.1,333,202z"/>
</g>
<g>
	<path class="st13" d="M247.2,23.4c1.9,0.5,3.9,1.1,5.7,1.9l0.4,0.1c0.2,0.2,0.5,0.4,0.8,0.5l0.2,0.1c0.4,0.8,1.6,1.2,2.4,1.9
		c0.5,0.4,0.4,0.9,1.2,1c0.5,1.1,1.5,2.3,2,3.6c-0.1,0.1,0,0.2,0.1,0.3h0.1c0.1,0.8,0.2,1.6,0.5,2.4c0,0-0.4,0.1-0.1,0.2
		c-0.1,2-0.6,4-1.4,5.9c-1,1.2-1.7,3.1-3,4.3c-9.8,12.7-43.3,19.2-51.8,4.3c0.1-0.2-0.3-0.2-0.3-0.5s0.2-0.4-0.1-0.5
		c-0.9-0.9-0.5-3.5-0.8-4.4c0.1-0.3,0.1-0.6,0-0.9c0.2-0.5,0.2-1.1,0.6-1.5c0.3-1.2,0.7-2.3,1.2-3.4c0.3-0.3,0.5-0.6,0.7-1
		c1.4-2,3-3.7,4.9-5.2c0.1-0.4,0.8-0.4,0.7-0.9c0.1,0.1,0.2,0,0.3-0.1v-0.1c2.1-1.4,4.7-2.9,7-4.3c0.2,0,0.5-0.1,0.6-0.3
		c3.9-1.5,8-2.8,12.1-3.7c0.5,0.1,1.1,0,1.5-0.3c1.2,0,2.4-0.1,3.6-0.4c0.2,0,0.4,0.2,0.5-0.1c1.1,0.3,2.5-0.1,3.7,0.1
		c0.3-0.3,0.7,0.2,1-0.2c0.2,0.1,0.2-0.1,0.4-0.1c0.1,0.5,0.5,0.2,0.8,0.2C244,23.2,245.5,22.8,247.2,23.4z M254.3,41.6
		c5.6-9.3-3.9-15.2-11.8-16.1c-20-2.1-39.9,12.3-33.6,22.9c3,5.9,11,6.8,17.1,7.1c10.6-0.7,22.1-4.3,28.2-13.5L254.3,41.6z"/>
	<path class="st14" d="M254.2,42c-6.1,9.3-17.7,12.8-28.2,13.5c-6-0.3-14.1-1.2-17.1-7.1c-0.5-3,0.1-6,1.7-8.6
		c5.1-6.8,12-9.3,19.1-11.5c3.5-0.2,7.4-1.3,11-0.6c7.5,0.1,17,5.2,13.6,13.8C254.1,41.5,253.8,41.9,254.2,42z M232.3,34.9
		C232.6,35,232.5,34.4,232.3,34.9c-4.3,0.2-8.5,0.7-12.9,1.1l5.4,6.7c0.4-1.6,0.6-3.4,0.9-4.9C228,36.9,230.1,36,232.3,34.9z
		 M236.6,34.3c-3.1,0.9-6.3,2.7-9.5,3.9c-0.3,0.9-0.5,1.9-0.6,2.9c-0.3,1.2-0.5,2.4-0.7,3.6c0.2,0.2,0.4-0.1,0.6,0
		c6.3-0.3,12.9-0.5,19.3-1.1C242.8,40.6,239.9,36.9,236.6,34.3z"/>
	<path class="st14" d="M261.2,36.6l-0.1,0.2c0,1.2,0.2,2.4,0.6,3.6c-0.2,0.5,0.1,1.1-0.2,1.6c0.1,1.9-1,3.7-1.6,5.6
		c-1.5,2-3.1,4-4.9,5.8c-0.1,0-0.2,0-0.2,0.1v0.1c-1.2,0.6-2.4,2.1-3.8,2.7c-1.2,0.9-2.8,1.2-3.6,2.3c-0.1-0.1-0.2,0-0.3,0.1v0.1
		c-0.4-0.2-0.8,0-1,0.4c-0.1,0-0.2,0-0.3,0.2c-0.4-0.2-0.8,0-1,0.4c-0.1-0.1-0.2,0-0.3,0.2c-0.1-0.1-0.2,0-0.3,0.1v0.1
		c-0.3-0.1-0.5,0-0.7,0.2l0,0c-0.5-0.1-0.6,0-0.8,0.5c-3.2,0.7-6.6,1.9-10,2.5c-0.8,0.1-2.5-0.1-3.1,0.5c-1.5-0.3-3.4,0.3-5.1-0.1
		c-0.4,0.3-0.8-0.2-1.1,0.1c-4-0.5-8.1-1.1-11.6-3c-1.2-0.6-2.4-1.8-3.7-2.4c0-0.5-0.5-0.7-1-1.2c-1.5-2.1-2.4-4.6-2.6-7.2
		c9.4,15.6,43.1,7.4,51.7-4.5c1.3-1.1,2.1-2.9,3-4.3c0.8-1.9,1.3-3.9,1.4-5.9c0.5,0.3,0.3,0.9,0.4,1.3L261.2,36.6z"/>
	<path class="st15" d="M254.3,41.6c3.4-9-6.6-13.6-13.6-13.8c-3.6-0.7-7.4,0.4-11,0.6c-7.6,2.2-14.4,5.2-19.1,11.5
		c-1,1.8-1.7,3.8-2,5.8c-0.1,1,0.5,1.7,0.2,2.8c-2.5-3.9-0.6-8.5,2.1-11.9c7.9-9.1,21.7-12,31.5-11C253.2,26.9,259,34.1,254.3,41.6z
		"/>
	<path class="st15" d="M254.2,42c-0.1,0-0.2-0.2-0.2-0.3s0.2-0.2,0.3-0.2L254.2,42z"/>
	<path class="st13" d="M236.7,34.3c3.2,2.6,6,6.2,9.2,9.2c-6.2,0.6-12.9,0.8-19.3,1.1c2-1.7,5.4-3,7.9-4.3
		C235.2,38.4,235.9,36.4,236.7,34.3z"/>
	<path class="st16" d="M236.7,34.3c-0.7,2-1.5,3.9-2.2,6.1c-2.5,1.3-5.7,2.5-7.9,4.3c-0.2-0.1-0.4,0.3-0.6,0
		c0.2-1.2,0.4-2.4,0.7-3.6c0.1-1,0.3-2,0.6-2.9C230.3,37.1,233.6,35.2,236.7,34.3z"/>
	<path class="st13" d="M232.3,35l-6.6,2.8c-0.3,1.4-0.5,3.2-0.9,4.9l-5.4-6.7C223.8,35.7,228,35.1,232.3,35z"/>
</g>
<path class="st17" d="M341.8,18.2c7.2,7,7.3,18.5,0.3,25.7l0,0l-0.3,0.3c-7.2,7.2-18.9,7.3-26.1,0.1c-7.2-7.2-7.3-18.9-0.1-26.1
	c7.2-7.2,18.9-7.3,26.1-0.1L341.8,18.2z M335.8,38.2c1.9-1.8,2.9-4.4,2.9-7c0.1-2.6-1-5.1-2.9-6.9c-1.9-1.9-4.4-2.9-7.1-2.8
	c-5.3-0.1-9.7,4.2-9.8,9.5v0.2c0,2.6,1,5.1,2.8,7c1.8,1.9,4.3,2.9,6.9,2.9C331.3,41.2,333.9,40.1,335.8,38.2z M378,20.5l-47.7,74.1
	c-0.8,1.5-2.4,2.5-4.1,2.4c-2.7-0.1-4.9-2.3-5-5c0.1-1,0.4-2,0.9-2.9l47.8-74.2c0.8-1.5,2.4-2.5,4.1-2.4c1.4,0,2.7,0.5,3.6,1.5
	c1,0.9,1.5,2.3,1.4,3.6C378.9,18.6,378.6,19.6,378,20.5L378,20.5z M358.2,91.6c-7.2-7.2-7.2-18.8,0-26l0.1-0.1
	c3.4-3.4,8.1-5.3,12.9-5.4c10.2-0.1,18.4,8.1,18.5,18.3s-8.1,18.4-18.3,18.5C366.5,97.1,361.7,95.1,358.2,91.6z M364.2,71.6
	c-3.9,3.7-4,9.8-0.3,13.7l0.1,0.1l0.2,0.2c3.8,3.8,9.9,3.9,13.7,0.1c2-1.9,3-4.6,2.9-7.4c-0.2-5.2-4.4-9.4-9.6-9.6
	C368.6,68.7,366.1,69.8,364.2,71.6L364.2,71.6z"/>
</svg>
