<?xml version="1.0" encoding="utf-8"?>
<!-- Generator: Adobe Illustrator 24.3.0, SVG Export Plug-In . SVG Version: 6.00 Build 0)  -->
<svg version="1.1" id="Layer_1" xmlns="http://www.w3.org/2000/svg" xmlns:xlink="http://www.w3.org/1999/xlink" x="0px" y="0px"
	 viewBox="0 0 400 300" style="enable-background:new 0 0 400 300;" xml:space="preserve">
<style type="text/css">
	.st0{clip-path:url(#SVGID_2_);}
	.st1{fill:#DB2F1E;}
	.st2{fill:#FFFFFF;}
	.st3{fill:none;}
	.st4{clip-path:url(#SVGID_4_);}
	.st5{fill:#C98017;}
	.st6{fill:#FBED60;}
	.st7{fill:#FABA31;}
	.st8{fill:#68C2EE;}
	.st9{fill:#0491BE;}
	.st10{fill:#68C2EF;}
	.st11{fill:#31798F;}
	.st12{fill:#C1BDBE;}
	.st13{fill:#6E6E6E;}
	.st14{fill:#6C6C6C;}
	.st15{fill:#BCBCBC;}
	.st16{fill:#E1E1E1;}
	.st17{fill:#0A0A09;}
	.st18{fill:#F3F2EF;}
</style>
<g>
	<g>
		<g>
			<g>
				<g>
					<defs>
						<path id="SVGID_1_" d="M363,174.7c-0.9-0.4-1.7-1-2.4,0.1c-1.1,1.9-2.7,2.6-5.1,2.1c0.7,2-0.3,3.1-1.6,4.4
							c-1.9,1.7-2.7,4.3-1.9,6.8c0.6,1.9,0.9,3.7,1,5.6c0.1,2.4,1.3,3,3.3,1.6c0.9-0.7,1.6-0.6,2.1,0.3c0.4,0.6,0.9,1,1.1,1.6
							c1.7,2.6,1.6,3.1-1.3,4.4c-0.9,0.4-1.6,0.9-1,1.9c0.6,1,0,1.4-0.7,2c-2.1,1.3-2.1,2.6,0,3.8c0.6,0.3,1.1,0.6,1.7,0.9
							c1.3,0.4,2.1,1,2,2.7c-0.1,1.4,1.4,1.7,2,2.7c-1,3.6-1.1,3.8-5,4c-1.1,0-1.9,0.6-2.6,1.3c-0.9,0.7-1.9,1.3-2.8,0.6
							c-1.1-0.7-1.1-2-0.9-3.1c0.7-2.6,0.6-3-2.1-3.6c-2.7-0.6-2.8-0.9-2.4-3.7c0.1-0.6-0.1-1-0.6-1.4c-1.1-0.7-1.6-1.6-0.1-2.7
							c-1.6-0.6-3-1.4-4.1-2.6c-0.6,2-1.4,1.7-2.6,0.9c-2-1.3-3.7-1-5.3,1c-1.6,2-3,2.4-5,1.7c-3-1.1-4.3-0.3-4.6,3.1
							c0,0.4,0,0.7-0.1,1.1c-0.3,1.7-1.1,2.3-2.6,1.3c-0.9-0.6-1.4-0.6-2.3-0.1c-0.4,0.1-0.9,0.3-1.3,0.1c-2.3-0.6-4.6-1-6.8-1.1
							c-2-0.1-2.6-2.1-2.6-3.8c-0.1-1.4-0.6-2.3-2-2.7c-1-0.3-1.4-0.9-0.7-1.9c0.7-1,0.4-2-0.3-2.8c-2.1-2.4-3-5.6-2.6-8.7
							c0.1-1-0.1-2.1-1-2.7c-0.9,0.6-0.9,1.7-1.3,2.6c-0.3,0.6-0.6,1.1-1.1,1.1c-0.7,0.1-1.1-0.4-1.6-1c-0.1-0.3-0.3-0.6-0.4-0.9
							c-0.6-1-0.7-2.6-2.4-2.4c-1.9,0.1-3.6,0.9-4.8,2.3c-0.4,0.6-0.1,1.1,0.1,1.7c0.6,1.3,0.3,2.3-0.7,3.1
							c-1.4,1.1-1.3,2.3,0.1,3.3c1.4,1,1.9,2.3,1.4,3.8c-0.3,1.1-0.1,2.6,0.6,3.6c0.7,1.3,0.7,2.8,0,4.1c-1,2-0.7,4.6-2.7,6.1
							c0.6,3.1-1.4,4.3-3.7,5.6c-0.7,0.4-0.6,1.3-0.6,2c0,1.4-0.6,2.1-2,2c-1.6-0.3-2.1,0.6-2.4,1.9c-0.4,2.1-1.3,3.7-3.6,4.3
							c-1.3,0.3-1.3,1.6-0.7,2.7c1,2.4,0.7,3.4-1.9,4.1c-2.7,0.9-3.6,2.3-3.3,5c0.1,2.3,0.4,4.6-0.7,6.7c-0.3,0.4-0.3,1.3,0.1,1.4
							c2.1,0.6,2.4,3,3.8,4.1c1.7,1.3,1.9,2.1,0.7,4c-1,1.4-1.9,3-3,4.4c-0.7,1-1.7,1.9-3.1,0.7c-0.1-0.1-0.4-0.3-0.6-0.1
							c-1.6,1.4-3.6,0-5.3,0.9c-0.7,0.3-1.4,0.6-2-0.4c1.1-0.9,2.4-1.6,2.7-3.3c-1.7-0.4-2.3-1.4-1.6-3.1c0.3-0.7,0.1-1.6-0.1-2.3
							c-0.7-1.7-1.4-3.3-2.4-4.8c-0.9-1.7-2.3-2.8-4.1-3.3c-0.9-0.1-1.6-0.6-2.3-1.1c-1.1-0.9-1.3-2.3,0-3c1.3-0.9,1.7-1.9,1-3.1
							c0.4-0.6,0.9-0.6,1.3-0.7c1-0.3,1.1-0.9,0.6-1.6c-1.6-1.7-2.4-4.3-5.6-3.8c-1.1,0.1-1.7-1-2.1-1.9c-0.9-0.1-1.3,0.4-1.7,1
							c-1.4,1.4-3,1.4-3.7-0.4c-0.7-1.4-1.6-1.9-3.1-1.9c-1.3,0.1-2.3-0.6-3.1-1.4c-0.9-0.9-1.1-1.7-0.1-2.7c1-1,0.7-1.7-0.4-2.3
							c-1-0.4-1.7-1.1-2.1-2.1c-0.7-1.9-2.1-2.4-4-2.6c-1.3,0-2.4-0.3-2.4-2.1c0-1.4-1.9-0.9-2.3-2c1.4-1.1,0.7-2.6,0.1-3.8
							c-1.1-2.1-0.7-4,1-5.4c4.3-3.8,3-8,0.6-13.1c-0.3-0.7-1.1-1.1-1.9-1c-3,0.4-5.8,1.1-8.1,3c-1.9,1.6-2,2.7-0.7,4.7
							c0.9,1.4,0.4,2.4-1,2.7c-3,0.6-4,3.4-6,5.1c-0.7,0.6-0.9,1.4-0.9,2.3c0,1.4-0.7,1.9-2.1,2c-1.1,0-2.3,0.1-3.4,0.4
							c-3.1,0.9-4.3,3.6-2,5.8c1.7,1.9,1.9,4.4,3.4,6.3c0.1,0.3,0.3,0.6,0.1,1c0.1,3-3.6,7.5-6.5,7.8c-2.1,0.1-3.4,1.1-3.7,3.3
							c-0.3,1.6-0.4,3.1-0.7,4.6c-0.6,3-1.7,4-4.8,4c-3.3,0-5.7,1.9-6.4,5.1c-0.1,0.9-0.4,1.7-0.7,2.6c-0.7,1.7-2,2.1-3.6,1.1
							c-0.6-0.3-1.1-0.9-1.6-0.6c-1.9,1.1-3,0.3-4.1-1.1c-0.6-0.7-1.4-0.1-2.1,0.3c-0.7,0.6-1.6,1-2.6,0.3c-1-0.7-0.6-1.4-0.1-2.3
							c0.3-0.6,0-1-0.4-1.3c-0.9-0.6-1.7-0.9-2.4-1.6c-0.4-0.4-1,0-1.3,0.4c-1.9,1.4-2.8,1.1-4-0.9c-0.3-0.4-0.6-0.9-0.9-1.3
							c-1-1-2.7-0.7-2.8,0.6c-0.3,2.6-1.6,3.4-4,3.4c-0.7,0-1.3,0.4-1.6,1c-1.7,3-4.6,4-7.5,5.1c-1,0.4-1.7,0-2.1-0.9
							c-1-1.4-2.1-1.4-3.6-0.9c-2.3,1-4.6,2.3-6.5,3.7c-1,0.7-1.6,1.9-2.1,3c-0.9,1.9-1.9,2-2.8,0.3c-1-1.4-1.7-1.7-2.8-0.1
							c-1,1.4-2.6,1.1-3-0.6c-0.4-1.7-1.9-2.7-2.6-4c-1.6-2.4-3.6-5-2.7-8.3c0.3-1.3-0.1-2.3-1.1-2.8c-1.6-0.9-2.7-2.4-3-4.1
							c-0.1-0.6-0.3-1.1-0.6-1.7c-0.9-1.9-1.7-2-3.4-0.9c-0.7,0.4-1.3,1.1-2.1,1.3c-0.6,0.1-1,0-1.4-0.4c-0.3-0.4-0.4-1,0-1.3
							c2-1.6,0.3-2.6-0.6-3.6c0-0.1,0-0.3,0.1-0.4c0.7-0.7,2.1-1,1.7-2.3c-0.4-1.4-1.7-1.4-2.8-1.7c-1.1-0.3-2.3-0.4-3.4-0.7
							c-1.7-0.6-2-1.7-0.7-3c0.6-0.6,0.9-1.3,0.7-2.1c-0.7-3,0.1-5.4,2.6-7.4c1.9-1.6,1.9-3.1,0.1-5c-0.4-0.4-0.9-0.7-1.3-1.1
							c-1-0.9-2.1-1.9-1.4-3.4c-2.3-1.3-2.6-2.7-0.9-4.4c1.4-1.4,1.4-3.4,1.7-5.3c0.1-1-0.7-1.1-1.6-1.4c-5.8-1.4-11.7-2.3-17.7-2.7
							c-2.8-0.3-5.6,0.4-8.1,1.9c-3.6,2.1-7.5,3.8-11.5,5c-2,0.6-3.7,1.6-5.1,3c-1.1,1.1-1.7,2.8-1.7,4.4c0,0.6,0,1.4,0.7,1.4
							c1.6,0.3,1.4,1.3,1.3,2.3c-0.3,2,0.6,2.8,2.6,2.3c0.4,0,0.9,0,1.3,0.1c0.6,1-0.1,1.4-0.7,1.9c-3.1,2.3-6,4.6-7.3,8.4
							c-0.3,0.7-0.9,1.1-1.7,1.1c-1.6,0-2.6,0.9-3.4,2c-1.6,2-2.6,2-4.6,0.4c-0.6-0.6-1.4-0.6-2.1-0.3c-3.1,1.6-3.3,1.6-7.1,1.3
							c0-0.1-0.1-0.3-0.1-0.3c0.9-2.3,1.4-4.4-0.3-6.5c-0.3-0.3-0.1-0.7,0.1-1.1c1-1.9,2.1-3.4,3.6-4.8c0.3,0.3,0.7,0.3,0.9,0.6
							c1.1,1.7,2.1,1.9,3.4,0.1c0.6-0.7,1.4-0.7,2.3-0.7c1.4-0.1,1.9-0.9,0.9-1.9c-0.9-0.9-0.7-1.7-0.3-2.6c1.1-2.4,2.4-4.7,3.4-7.3
							c1.1-2.6,0.1-4.8-2.7-5.4c-2.1-0.4-3.6-1.1-3.3-3.6c0-0.6-0.1-1.1-0.6-1.6c-1.7-1.7-1-3.4,0.3-4.8c1.7-1.9,3.6-3.7,3.1-6.7
							c0.9-0.1,1.4-0.1,2.1-0.3c0.7-0.1,1.1-0.7,1.3-1.3c0.1-0.6-0.1-1.1-0.7-1.4c-1.7-1.1-1.7-1.9,0-3.1c2.6-2.3,5.3-4.4,7.8-6.7
							c1.6-1.3,3-2.7,4.1-4.4c1.1-1.7,2.7-2.7,4.7-2.4c1.3,0.1,2.3-0.6,2.4-1.7c0.3-1.9,1.6-2.8,3.3-3.6c0.9-0.3,1.6-0.7,2.1-1.4
							c0.4-0.6,0.7-1.3,0-1.9c-1.7-1.1-1-2.7-0.6-4.1c0.3-0.6,0.6-1.1,1-1.7c1.3-2,1.4-3.8,0.3-6c-1.9-3.3-1.6-4.4,1.3-6.8
							c1.1-1,2.1-2.7,4.3-1.7c0.4,0.1,1-0.1,1.1-0.6c1-1.6,2.7-1.9,4.4-2.1c2.1-0.3,4-1,5.1-3.1c0.4-1,1.4-1.3,2.4-1.4
							s1.7-0.4,1.3-1.9c-0.6-1.6,0.3-2.6,1.9-2.6c1.1-0.1,2-0.6,2.1-1.9c0.1-0.6,0.1-1.1,0.9-1.1c1.9,0.3,2.1-1.1,2.7-2.3
							c0.9-1.4,1.6-3.1,3.6-3.4c0.7-0.1,1.1-0.7,0.4-1.4c-1.3-1.1-0.4-2,0.6-2.6c1.1-0.7,2.3-1.3,3.6-1.6c2.1-0.6,3.1-2,3.4-4
							c0.1-1,0.3-2.1,0.6-3.1c0.4-1.7,1.3-3,3.4-2.8c0.9,0,1.9-0.3,1.7-1.4c-0.4-2,0.3-3.1,2.3-3.4c-0.7-2.3-2-3-4.1-2.7
							c-2.3,0.4-4.4,0.6-6.7,0.9c-1,0.1-2,0.1-2.6-1c-0.6-1.1,0.4-1.6,1-2.1c0.7-0.7,1.1-1.6,1.3-2.6c0.1-0.9,0.3-1.7,1.6-2
							c1-0.1,0.3-1.4,0.9-2c2.7,0.4,3.4,0.3,4.4-1.4c0.6-1,0.7-1.9-0.1-2.6c-0.7-0.7-1.3-1.6-0.9-2.6c0.6-1,1.6-1.7,2.7-1.9
							c1.3-0.1,2.6,0,3.6,1.1c1,1,2.1,1.3,3.4,0.6c2.3-1.4,4.6-1.7,7-0.3c0.6,0.3,1.4,0,2,0.6c-0.3,1.1-1.4,0.6-2.1,1.3
							c0.3,0.9,0.6,2-0.1,3c-0.3,0.6,0.1,1,0.6,1.4c1,1,2.3,1.7,3.6,2.4c0.1,0.1,0.4,0.3,0.6,0.1c1.1-1.6,3.3-0.1,4.4-1.3
							c0.7-0.7,1.6-0.6,2.4-0.6c1.9,0,3.8,0.3,5.6-0.4c1.1-0.3,1.9-1.3,2-2.4c0.3-1.3-0.4-2-1.4-2.4c0.3-1.7,0.9-2.6,2.7-1.9
							c1.3,0.4,2.7,0.4,3.7-1c0.7-1.1,2.3,0.1,3-1.3c-0.6-0.6-1.4-0.6-2.1-0.9c-1-0.6-1-1.1-0.1-1.9c2.7-2,5.4-4.3,8.4-6
							c0.6,0.1,0.9,1,1.7,0.9c1.4-1.7,3.3-1.9,5.6-1.6c-1,1.1-1.3,2.3-0.4,3.6c0.4,0.7-0.1,1.4-1,1.6c-0.7,0.1-1.6,0.1-2.4,0.3
							c-0.1,1.1,0.6,1.7,1.4,2c2.6,0.9,6.7,0.7,8.7-2.4c1.7-2.8,5-3.8,8.3-2.8c1.1,0.3,1.1,1.1,1.3,2.1c0.1,2.6,1.6,3.6,3.8,2.1
							c1-0.6,2-0.6,3-0.6c1.4,0,2.8,0.3,3.8-1.3c0.4-0.6,1.3-0.4,2-0.4c1,0,2,0,2.4-0.9c1.7-3.1,4.7-4.7,7.5-6.7l0,0
							c3.7,0.1,6.3,2.1,8.5,5c0.4,0.6,0.6,1.1,0.9,1.7c0.9,1.4,1.9,1.6,3,0.1c1-1.4,2-0.6,2.8-0.1c1.4,0.9,2.7,1,3.8,0
							c0.1-1-0.6-1.1-1.1-1.4c-1.7-0.7-1.1-1.9-0.3-2.7c2.4-2.6,5-2.7,7.8-0.7c1.9,1.3,2.7,1,3.1-1.1c0.1-0.7,0.4-1.4,1-2l1.3,1.4
							c1.1-0.7,0.7-1.6,0.1-2.3c-0.6-0.7-1.1-1.3-2.1-0.7c-0.7,0.4-1.4,0.9-2.4,0.6c-1.7-0.4-3.1-0.3-3.8,1.6c-1.1-0.6-2-1.3-3-0.3
							c-0.4,0.4-0.9,0-1.3-0.4c-1.1-1.6-2.7-2-4.8-1.9c0.7-1.7,0.3-4,2.6-5c0.9-0.3,1.3-1.1,0.7-1.9c-1.7-2.3-0.1-3.6,1.3-5
							c0.4-0.3,0.7-0.6,1.1-0.9c2.3,1.6,7.1,0.4,8.5-1.9c0.4-0.9,1-1.9,2.1-1.4c1.1,0.6,0.6,1.7,0.1,2.7l1.9,1.6
							c1-0.7,0.4-1.7,0.7-2.4c0.1-0.7,0.3-1.4,1.1-1.7c0.7-0.1,1.4,0.3,1.9,0.9c0.1,0.1,0.3,0.3,0.3,0.4c0.6,2.6,2.4,3.4,4.7,3.6
							c0,1.1-0.6,1.7-1.1,2.3c-1.3,1.3-1,3.3,0.6,4.8c1.4,1.4,2.7,1.4,4.1,0c0-0.4-0.4-0.4-0.7-0.6c-0.7-0.3-1.7-0.6-1.4-1.7
							c0.1-1,0.6-1.7,1.9-1.4c0.1,0,0.4,0,0.6-0.1c2.6-1.1,2.6-1.1,3.3,1.7c0.1,0.7,0.9,1,1.6,1c1.7,0,2.4,0.6,1.4,2.3
							c-1,1.7,0.1,2.6,1.1,3.6c1.1,1,2,0.6,3.1-0.1c3.8-2.6,8-2.7,12.4-2.4c1,0.1,1.6,1,2.1,1.9c0.6,1.1,1.6,1.7,2.7,1
							c1-0.6,1.9,0.1,2.8,0c2-0.1,4,0.4,6-0.6c0.7-0.3,1.4,0.1,1.9,0.7c0.6,0.6,1.1,1.3,1.6,2c1.1,2,2.7,3,5.1,2.6
							c1.4-0.3,3,0.1,4.1,1.1c2.4,2,5.1,3.6,7.8,5.1c1.4,0.9,2.3,2,2.4,3.7c0,2,1.3,3.6,2.1,5.4c0.6,1,1.6,0.7,2.4,0.7
							c2.7,0,2.8,0.1,2.3,2.7c-0.4,1.7-0.3,3.1,1,4.4c1.3,1.4,0.7,2.6-1,3c-3.3,0.6-4.7,3-5.4,5.7c-0.7,2.6-1.7,5-3,7.4
							c-2.8,5.4-3.8,11-1.9,16.9c0.4,1.1,0.3,2-0.7,2.7c-0.4,0.3-1,0.6-1,1.3c0.3,0.9,1.1,0.7,1.7,1c1.6,0.6,3.1,0.3,4.7,1.3
							c1.1,0.7,2.7,0.1,3.4-1.4c1.3,1.3,2.6,1.6,4,0.4c0.6-0.6,1.6-0.6,2.3-0.1c2,1.1,4.1,1.1,6.3,1.1c1.1,0,2.3,0.1,3.1,1.1
							c0.7,0.7,1.7,0.9,2.7,1c1.9,0.1,3.3,0.7,3.6,2.8c0.1,0.7,0.9,1.1,1.1,1.9c-0.3,0.6-0.4,1.1-0.9,1.7c-1.7,2-0.7,4-0.1,5.8
							c0.3,0.9,1.3,0.9,2,0.4c1.3-0.6,2.3-0.3,3.1,0.7c1.3,1.3,2.6,1.9,4.3,0.4c1-0.7,2-0.6,2.1,1.1c0,1.3,0.6,2.4,2,2.6
							c1.6,0.1,2.1,0.9,1.9,2.6c2.1-0.3,4.4,0.3,5.7-2c0.4-0.7,1.1-0.7,1.9-0.9c2.3-0.3,3-1.1,3.1-3.4c0-0.6,0-1.1,0-1.7
							c0.1-1.1,0.6-1.9,2-1.9c4.3-0.1,5-0.9,5.4-5c0.1-1.7,1.1-2.1,2.6-2.3c1.4-0.1,2.7,0.3,2.7,1.9c0,3.4,2.3,4.3,5,5
							c2.3,0.6,2.4,0.9,1.1,3c-0.7,1.3-1.1,2.6-0.6,4c1,2.1,0.6,4-0.7,5.7s-2.1,3.4-0.9,5.7c0.7,1.1,0,2.4-1.1,3.1
							c-1,0.7-1.4,1.4-0.6,2.6c0.9,1.3,0.1,2.6-0.4,3.7c-0.6,1-1.1,1.9-1.1,3c-0.1,2.1,1.1,3.1,3,2.1c1.1-0.6,2-1,2.1,0.7
							c0.1,0.9,0.9,0.9,1.4,1.1c1.1,0.3,1.4,1,1,2.1c-0.7,1.4-0.9,3-0.7,4.6c0,0.9-0.1,1.7-1,2.1s-1.7,0.1-2.3-0.6c-1-1-2-1.6-3,0
							c-0.3,0.6-1,0.4-1.4,0c-1-0.9-1.6-0.7-2.4,0.3c-1.4,1.7-4.3,1-5-1c-0.3-0.7-0.9-1.3-1.6-1.6c-2.4-0.7-2.4-0.7-1.6-3.3
							c0.1-0.3,0.1-0.7,0.1-1.1c0-0.6-0.4-1.1-1-1.4C364.2,173.1,363.9,174.4,363,174.7z"/>
					</defs>
					<clipPath id="SVGID_2_">
						<use xlink:href="#SVGID_1_"  style="overflow:visible;"/>
					</clipPath>
					<g class="st0">
						<rect x="28.1" y="24.4" class="st1" width="357.4" height="253.2"/>
						<rect x="187.2" y="84.9" class="st2" width="34.9" height="102.6"/>
						<rect x="153.4" y="118.8" class="st2" width="102.6" height="34.9"/>
					</g>
				</g>
			</g>
		</g>
	</g>
	<rect x="26.7" y="-27.1" class="st3" width="363" height="363"/>
	<g>
		<g>
			<g>
				<g>
					<defs>
						<path id="SVGID_3_" d="M363,174.7c-0.9-0.4-1.7-1-2.4,0.1c-1.1,1.9-2.7,2.6-5.1,2.1c0.7,2-0.3,3.1-1.6,4.4
							c-1.9,1.7-2.7,4.3-1.9,6.8c0.6,1.9,0.9,3.7,1,5.6c0.1,2.4,1.3,3,3.3,1.6c0.9-0.7,1.6-0.6,2.1,0.3c0.4,0.6,0.9,1,1.1,1.6
							c1.7,2.6,1.6,3.1-1.3,4.4c-0.9,0.4-1.6,0.9-1,1.9c0.6,1,0,1.4-0.7,2c-2.1,1.3-2.1,2.6,0,3.8c0.6,0.3,1.1,0.6,1.7,0.9
							c1.3,0.4,2.1,1,2,2.7c-0.1,1.4,1.4,1.7,2,2.7c-1,3.6-1.1,3.8-5,4c-1.1,0-1.9,0.6-2.6,1.3c-0.9,0.7-1.9,1.3-2.8,0.6
							c-1.1-0.7-1.1-2-0.9-3.1c0.7-2.6,0.6-3-2.1-3.6c-2.7-0.6-2.8-0.9-2.4-3.7c0.1-0.6-0.1-1-0.6-1.4c-1.1-0.7-1.6-1.6-0.1-2.7
							c-1.6-0.6-3-1.4-4.1-2.6c-0.6,2-1.4,1.7-2.6,0.9c-2-1.3-3.7-1-5.3,1c-1.6,2-3,2.4-5,1.7c-3-1.1-4.3-0.3-4.6,3.1
							c0,0.4,0,0.7-0.1,1.1c-0.3,1.7-1.1,2.3-2.6,1.3c-0.9-0.6-1.4-0.6-2.3-0.1c-0.4,0.1-0.9,0.3-1.3,0.1c-2.3-0.6-4.6-1-6.8-1.1
							c-2-0.1-2.6-2.1-2.6-3.8c-0.1-1.4-0.6-2.3-2-2.7c-1-0.3-1.4-0.9-0.7-1.9c0.7-1,0.4-2-0.3-2.8c-2.1-2.4-3-5.6-2.6-8.7
							c0.1-1-0.1-2.1-1-2.7c-0.9,0.6-0.9,1.7-1.3,2.6c-0.3,0.6-0.6,1.1-1.1,1.1c-0.7,0.1-1.1-0.4-1.6-1c-0.1-0.3-0.3-0.6-0.4-0.9
							c-0.6-1-0.7-2.6-2.4-2.4c-1.9,0.1-3.6,0.9-4.8,2.3c-0.4,0.6-0.1,1.1,0.1,1.7c0.6,1.3,0.3,2.3-0.7,3.1
							c-1.4,1.1-1.3,2.3,0.1,3.3c1.4,1,1.9,2.3,1.4,3.8c-0.3,1.1-0.1,2.6,0.6,3.6c0.7,1.3,0.7,2.8,0,4.1c-1,2-0.7,4.6-2.7,6.1
							c0.6,3.1-1.4,4.3-3.7,5.6c-0.7,0.4-0.6,1.3-0.6,2c0,1.4-0.6,2.1-2,2c-1.6-0.3-2.1,0.6-2.4,1.9c-0.4,2.1-1.3,3.7-3.6,4.3
							c-1.3,0.3-1.3,1.6-0.7,2.7c1,2.4,0.7,3.4-1.9,4.1c-2.7,0.9-3.6,2.3-3.3,5c0.1,2.3,0.4,4.6-0.7,6.7c-0.3,0.4-0.3,1.3,0.1,1.4
							c2.1,0.6,2.4,3,3.8,4.1c1.7,1.3,1.9,2.1,0.7,4c-1,1.4-1.9,3-3,4.4c-0.7,1-1.7,1.9-3.1,0.7c-0.1-0.1-0.4-0.3-0.6-0.1
							c-1.6,1.4-3.6,0-5.3,0.9c-0.7,0.3-1.4,0.6-2-0.4c1.1-0.9,2.4-1.6,2.7-3.3c-1.7-0.4-2.3-1.4-1.6-3.1c0.3-0.7,0.1-1.6-0.1-2.3
							c-0.7-1.7-1.4-3.3-2.4-4.8c-0.9-1.7-2.3-2.8-4.1-3.3c-0.9-0.1-1.6-0.6-2.3-1.1c-1.1-0.9-1.3-2.3,0-3c1.3-0.9,1.7-1.9,1-3.1
							c0.4-0.6,0.9-0.6,1.3-0.7c1-0.3,1.1-0.9,0.6-1.6c-1.6-1.7-2.4-4.3-5.6-3.8c-1.1,0.1-1.7-1-2.1-1.9c-0.9-0.1-1.3,0.4-1.7,1
							c-1.4,1.4-3,1.4-3.7-0.4c-0.7-1.4-1.6-1.9-3.1-1.9c-1.3,0.1-2.3-0.6-3.1-1.4c-0.9-0.9-1.1-1.7-0.1-2.7c1-1,0.7-1.7-0.4-2.3
							c-1-0.4-1.7-1.1-2.1-2.1c-0.7-1.9-2.1-2.4-4-2.6c-1.3,0-2.4-0.3-2.4-2.1c0-1.4-1.9-0.9-2.3-2c1.4-1.1,0.7-2.6,0.1-3.8
							c-1.1-2.1-0.7-4,1-5.4c4.3-3.8,3-8,0.6-13.1c-0.3-0.7-1.1-1.1-1.9-1c-3,0.4-5.8,1.1-8.1,3c-1.9,1.6-2,2.7-0.7,4.7
							c0.9,1.4,0.4,2.4-1,2.7c-3,0.6-4,3.4-6,5.1c-0.7,0.6-0.9,1.4-0.9,2.3c0,1.4-0.7,1.9-2.1,2c-1.1,0-2.3,0.1-3.4,0.4
							c-3.1,0.9-4.3,3.6-2,5.8c1.7,1.9,1.9,4.4,3.4,6.3c0.1,0.3,0.3,0.6,0.1,1c0.1,3-3.6,7.5-6.5,7.8c-2.1,0.1-3.4,1.1-3.7,3.3
							c-0.3,1.6-0.4,3.1-0.7,4.6c-0.6,3-1.7,4-4.8,4c-3.3,0-5.7,1.9-6.4,5.1c-0.1,0.9-0.4,1.7-0.7,2.6c-0.7,1.7-2,2.1-3.6,1.1
							c-0.6-0.3-1.1-0.9-1.6-0.6c-1.9,1.1-3,0.3-4.1-1.1c-0.6-0.7-1.4-0.1-2.1,0.3c-0.7,0.6-1.6,1-2.6,0.3c-1-0.7-0.6-1.4-0.1-2.3
							c0.3-0.6,0-1-0.4-1.3c-0.9-0.6-1.7-0.9-2.4-1.6c-0.4-0.4-1,0-1.3,0.4c-1.9,1.4-2.8,1.1-4-0.9c-0.3-0.4-0.6-0.9-0.9-1.3
							c-1-1-2.7-0.7-2.8,0.6c-0.3,2.6-1.6,3.4-4,3.4c-0.7,0-1.3,0.4-1.6,1c-1.7,3-4.6,4-7.5,5.1c-1,0.4-1.7,0-2.1-0.9
							c-1-1.4-2.1-1.4-3.6-0.9c-2.3,1-4.6,2.3-6.5,3.7c-1,0.7-1.6,1.9-2.1,3c-0.9,1.9-1.9,2-2.8,0.3c-1-1.4-1.7-1.7-2.8-0.1
							c-1,1.4-2.6,1.1-3-0.6c-0.4-1.7-1.9-2.7-2.6-4c-1.6-2.4-3.6-5-2.7-8.3c0.3-1.3-0.1-2.3-1.1-2.8c-1.6-0.9-2.7-2.4-3-4.1
							c-0.1-0.6-0.3-1.1-0.6-1.7c-0.9-1.9-1.7-2-3.4-0.9c-0.7,0.4-1.3,1.1-2.1,1.3c-0.6,0.1-1,0-1.4-0.4c-0.3-0.4-0.4-1,0-1.3
							c2-1.6,0.3-2.6-0.6-3.6c0-0.1,0-0.3,0.1-0.4c0.7-0.7,2.1-1,1.7-2.3c-0.4-1.4-1.7-1.4-2.8-1.7c-1.1-0.3-2.3-0.4-3.4-0.7
							c-1.7-0.6-2-1.7-0.7-3c0.6-0.6,0.9-1.3,0.7-2.1c-0.7-3,0.1-5.4,2.6-7.4c1.9-1.6,1.9-3.1,0.1-5c-0.4-0.4-0.9-0.7-1.3-1.1
							c-1-0.9-2.1-1.9-1.4-3.4c-2.3-1.3-2.6-2.7-0.9-4.4c1.4-1.4,1.4-3.4,1.7-5.3c0.1-1-0.7-1.1-1.6-1.4c-5.8-1.4-11.7-2.3-17.7-2.7
							c-2.8-0.3-5.6,0.4-8.1,1.9c-3.6,2.1-7.5,3.8-11.5,5c-2,0.6-3.7,1.6-5.1,3c-1.1,1.1-1.7,2.8-1.7,4.4c0,0.6,0,1.4,0.7,1.4
							c1.6,0.3,1.4,1.3,1.3,2.3c-0.3,2,0.6,2.8,2.6,2.3c0.4,0,0.9,0,1.3,0.1c0.6,1-0.1,1.4-0.7,1.9c-3.1,2.3-6,4.6-7.3,8.4
							c-0.3,0.7-0.9,1.1-1.7,1.1c-1.6,0-2.6,0.9-3.4,2c-1.6,2-2.6,2-4.6,0.4c-0.6-0.6-1.4-0.6-2.1-0.3c-3.1,1.6-3.3,1.6-7.1,1.3
							c0-0.1-0.1-0.3-0.1-0.3c0.9-2.3,1.4-4.4-0.3-6.5c-0.3-0.3-0.1-0.7,0.1-1.1c1-1.9,2.1-3.4,3.6-4.8c0.3,0.3,0.7,0.3,0.9,0.6
							c1.1,1.7,2.1,1.9,3.4,0.1c0.6-0.7,1.4-0.7,2.3-0.7c1.4-0.1,1.9-0.9,0.9-1.9c-0.9-0.9-0.7-1.7-0.3-2.6c1.1-2.4,2.4-4.7,3.4-7.3
							c1.1-2.6,0.1-4.8-2.7-5.4c-2.1-0.4-3.6-1.1-3.3-3.6c0-0.6-0.1-1.1-0.6-1.6c-1.7-1.7-1-3.4,0.3-4.8c1.7-1.9,3.6-3.7,3.1-6.7
							c0.9-0.1,1.4-0.1,2.1-0.3c0.7-0.1,1.1-0.7,1.3-1.3c0.1-0.6-0.1-1.1-0.7-1.4c-1.7-1.1-1.7-1.9,0-3.1c2.6-2.3,5.3-4.4,7.8-6.7
							c1.6-1.3,3-2.7,4.1-4.4c1.1-1.7,2.7-2.7,4.7-2.4c1.3,0.1,2.3-0.6,2.4-1.7c0.3-1.9,1.6-2.8,3.3-3.6c0.9-0.3,1.6-0.7,2.1-1.4
							c0.4-0.6,0.7-1.3,0-1.9c-1.7-1.1-1-2.7-0.6-4.1c0.3-0.6,0.6-1.1,1-1.7c1.3-2,1.4-3.8,0.3-6c-1.9-3.3-1.6-4.4,1.3-6.8
							c1.1-1,2.1-2.7,4.3-1.7c0.4,0.1,1-0.1,1.1-0.6c1-1.6,2.7-1.9,4.4-2.1c2.1-0.3,4-1,5.1-3.1c0.4-1,1.4-1.3,2.4-1.4
							s1.7-0.4,1.3-1.9c-0.6-1.6,0.3-2.6,1.9-2.6c1.1-0.1,2-0.6,2.1-1.9c0.1-0.6,0.1-1.1,0.9-1.1c1.9,0.3,2.1-1.1,2.7-2.3
							c0.9-1.4,1.6-3.1,3.6-3.4c0.7-0.1,1.1-0.7,0.4-1.4c-1.3-1.1-0.4-2,0.6-2.6c1.1-0.7,2.3-1.3,3.6-1.6c2.1-0.6,3.1-2,3.4-4
							c0.1-1,0.3-2.1,0.6-3.1c0.4-1.7,1.3-3,3.4-2.8c0.9,0,1.9-0.3,1.7-1.4c-0.4-2,0.3-3.1,2.3-3.4c-0.7-2.3-2-3-4.1-2.7
							c-2.3,0.4-4.4,0.6-6.7,0.9c-1,0.1-2,0.1-2.6-1c-0.6-1.1,0.4-1.6,1-2.1c0.7-0.7,1.1-1.6,1.3-2.6c0.1-0.9,0.3-1.7,1.6-2
							c1-0.1,0.3-1.4,0.9-2c2.7,0.4,3.4,0.3,4.4-1.4c0.6-1,0.7-1.9-0.1-2.6c-0.7-0.7-1.3-1.6-0.9-2.6c0.6-1,1.6-1.7,2.7-1.9
							c1.3-0.1,2.6,0,3.6,1.1c1,1,2.1,1.3,3.4,0.6c2.3-1.4,4.6-1.7,7-0.3c0.6,0.3,1.4,0,2,0.6c-0.3,1.1-1.4,0.6-2.1,1.3
							c0.3,0.9,0.6,2-0.1,3c-0.3,0.6,0.1,1,0.6,1.4c1,1,2.3,1.7,3.6,2.4c0.1,0.1,0.4,0.3,0.6,0.1c1.1-1.6,3.3-0.1,4.4-1.3
							c0.7-0.7,1.6-0.6,2.4-0.6c1.9,0,3.8,0.3,5.6-0.4c1.1-0.3,1.9-1.3,2-2.4c0.3-1.3-0.4-2-1.4-2.4c0.3-1.7,0.9-2.6,2.7-1.9
							c1.3,0.4,2.7,0.4,3.7-1c0.7-1.1,2.3,0.1,3-1.3c-0.6-0.6-1.4-0.6-2.1-0.9c-1-0.6-1-1.1-0.1-1.9c2.7-2,5.4-4.3,8.4-6
							c0.6,0.1,0.9,1,1.7,0.9c1.4-1.7,3.3-1.9,5.6-1.6c-1,1.1-1.3,2.3-0.4,3.6c0.4,0.7-0.1,1.4-1,1.6c-0.7,0.1-1.6,0.1-2.4,0.3
							c-0.1,1.1,0.6,1.7,1.4,2c2.6,0.9,6.7,0.7,8.7-2.4c1.7-2.8,5-3.8,8.3-2.8c1.1,0.3,1.1,1.1,1.3,2.1c0.1,2.6,1.6,3.6,3.8,2.1
							c1-0.6,2-0.6,3-0.6c1.4,0,2.8,0.3,3.8-1.3c0.4-0.6,1.3-0.4,2-0.4c1,0,2,0,2.4-0.9c1.7-3.1,4.7-4.7,7.5-6.7l0,0
							c3.7,0.1,6.3,2.1,8.5,5c0.4,0.6,0.6,1.1,0.9,1.7c0.9,1.4,1.9,1.6,3,0.1c1-1.4,2-0.6,2.8-0.1c1.4,0.9,2.7,1,3.8,0
							c0.1-1-0.6-1.1-1.1-1.4c-1.7-0.7-1.1-1.9-0.3-2.7c2.4-2.6,5-2.7,7.8-0.7c1.9,1.3,2.7,1,3.1-1.1c0.1-0.7,0.4-1.4,1-2l1.3,1.4
							c1.1-0.7,0.7-1.6,0.1-2.3c-0.6-0.7-1.1-1.3-2.1-0.7c-0.7,0.4-1.4,0.9-2.4,0.6c-1.7-0.4-3.1-0.3-3.8,1.6c-1.1-0.6-2-1.3-3-0.3
							c-0.4,0.4-0.9,0-1.3-0.4c-1.1-1.6-2.7-2-4.8-1.9c0.7-1.7,0.3-4,2.6-5c0.9-0.3,1.3-1.1,0.7-1.9c-1.7-2.3-0.1-3.6,1.3-5
							c0.4-0.3,0.7-0.6,1.1-0.9c2.3,1.6,7.1,0.4,8.5-1.9c0.4-0.9,1-1.9,2.1-1.4c1.1,0.6,0.6,1.7,0.1,2.7l1.9,1.6
							c1-0.7,0.4-1.7,0.7-2.4c0.1-0.7,0.3-1.4,1.1-1.7c0.7-0.1,1.4,0.3,1.9,0.9c0.1,0.1,0.3,0.3,0.3,0.4c0.6,2.6,2.4,3.4,4.7,3.6
							c0,1.1-0.6,1.7-1.1,2.3c-1.3,1.3-1,3.3,0.6,4.8c1.4,1.4,2.7,1.4,4.1,0c0-0.4-0.4-0.4-0.7-0.6c-0.7-0.3-1.7-0.6-1.4-1.7
							c0.1-1,0.6-1.7,1.9-1.4c0.1,0,0.4,0,0.6-0.1c2.6-1.1,2.6-1.1,3.3,1.7c0.1,0.7,0.9,1,1.6,1c1.7,0,2.4,0.6,1.4,2.3
							c-1,1.7,0.1,2.6,1.1,3.6c1.1,1,2,0.6,3.1-0.1c3.8-2.6,8-2.7,12.4-2.4c1,0.1,1.6,1,2.1,1.9c0.6,1.1,1.6,1.7,2.7,1
							c1-0.6,1.9,0.1,2.8,0c2-0.1,4,0.4,6-0.6c0.7-0.3,1.4,0.1,1.9,0.7c0.6,0.6,1.1,1.3,1.6,2c1.1,2,2.7,3,5.1,2.6
							c1.4-0.3,3,0.1,4.1,1.1c2.4,2,5.1,3.6,7.8,5.1c1.4,0.9,2.3,2,2.4,3.7c0,2,1.3,3.6,2.1,5.4c0.6,1,1.6,0.7,2.4,0.7
							c2.7,0,2.8,0.1,2.3,2.7c-0.4,1.7-0.3,3.1,1,4.4c1.3,1.4,0.7,2.6-1,3c-3.3,0.6-4.7,3-5.4,5.7c-0.7,2.6-1.7,5-3,7.4
							c-2.8,5.4-3.8,11-1.9,16.9c0.4,1.1,0.3,2-0.7,2.7c-0.4,0.3-1,0.6-1,1.3c0.3,0.9,1.1,0.7,1.7,1c1.6,0.6,3.1,0.3,4.7,1.3
							c1.1,0.7,2.7,0.1,3.4-1.4c1.3,1.3,2.6,1.6,4,0.4c0.6-0.6,1.6-0.6,2.3-0.1c2,1.1,4.1,1.1,6.3,1.1c1.1,0,2.3,0.1,3.1,1.1
							c0.7,0.7,1.7,0.9,2.7,1c1.9,0.1,3.3,0.7,3.6,2.8c0.1,0.7,0.9,1.1,1.1,1.9c-0.3,0.6-0.4,1.1-0.9,1.7c-1.7,2-0.7,4-0.1,5.8
							c0.3,0.9,1.3,0.9,2,0.4c1.3-0.6,2.3-0.3,3.1,0.7c1.3,1.3,2.6,1.9,4.3,0.4c1-0.7,2-0.6,2.1,1.1c0,1.3,0.6,2.4,2,2.6
							c1.6,0.1,2.1,0.9,1.9,2.6c2.1-0.3,4.4,0.3,5.7-2c0.4-0.7,1.1-0.7,1.9-0.9c2.3-0.3,3-1.1,3.1-3.4c0-0.6,0-1.1,0-1.7
							c0.1-1.1,0.6-1.9,2-1.9c4.3-0.1,5-0.9,5.4-5c0.1-1.7,1.1-2.1,2.6-2.3c1.4-0.1,2.7,0.3,2.7,1.9c0,3.4,2.3,4.3,5,5
							c2.3,0.6,2.4,0.9,1.1,3c-0.7,1.3-1.1,2.6-0.6,4c1,2.1,0.6,4-0.7,5.7s-2.1,3.4-0.9,5.7c0.7,1.1,0,2.4-1.1,3.1
							c-1,0.7-1.4,1.4-0.6,2.6c0.9,1.3,0.1,2.6-0.4,3.7c-0.6,1-1.1,1.9-1.1,3c-0.1,2.1,1.1,3.1,3,2.1c1.1-0.6,2-1,2.1,0.7
							c0.1,0.9,0.9,0.9,1.4,1.1c1.1,0.3,1.4,1,1,2.1c-0.7,1.4-0.9,3-0.7,4.6c0,0.9-0.1,1.7-1,2.1s-1.7,0.1-2.3-0.6c-1-1-2-1.6-3,0
							c-0.3,0.6-1,0.4-1.4,0c-1-0.9-1.6-0.7-2.4,0.3c-1.4,1.7-4.3,1-5-1c-0.3-0.7-0.9-1.3-1.6-1.6c-2.4-0.7-2.4-0.7-1.6-3.3
							c0.1-0.3,0.1-0.7,0.1-1.1c0-0.6-0.4-1.1-1-1.4C364.2,173.1,363.9,174.4,363,174.7z"/>
					</defs>
					<clipPath id="SVGID_4_">
						<use xlink:href="#SVGID_3_"  style="overflow:visible;"/>
					</clipPath>
					<g class="st4">
						<g>
							<rect x="186.2" y="83.9" class="st2" width="36.9" height="104.6"/>
							<path class="st2" d="M222.1,84.9v102.6h-34.9V84.9H222.1 M224.1,82.9h-2h-34.9h-2v2v102.6v2h2h34.9h2v-2V84.9V82.9
								L224.1,82.9z"/>
						</g>
						<g>
							<rect x="152.4" y="117.8" class="st2" width="104.6" height="36.9"/>
							<path class="st2" d="M256,118.8v34.9H153.4v-34.9H256 M257.9,116.8H256H153.4h-2v2v34.9v2h2H256h2v-2v-34.9v-2H257.9z"/>
						</g>
					</g>
				</g>
			</g>
		</g>
	</g>
	<g>
		<path d="M237.1,41.9c0.1,0,0.4,0,0.6,0.1c1.1,0.6,0.6,1.7,0.1,2.7l1.9,1.6c1-0.7,0.4-1.7,0.7-2.4c0.1-0.7,0.3-1.4,1.1-1.7
			c0.1,0,0.3,0,0.3,0c0.6,0,1.1,0.4,1.6,0.9c0.1,0.1,0.3,0.3,0.3,0.4c0.6,2.6,2.4,3.4,4.7,3.6c0,1.1-0.6,1.7-1.1,2.3
			c-1.3,1.3-1,3.3,0.6,4.8c0.7,0.7,1.4,1.1,2.1,1.1s1.3-0.3,2.1-1c0-0.4-0.4-0.4-0.7-0.6c-0.7-0.3-1.7-0.6-1.4-1.7
			c0.1-0.9,0.4-1.6,1.3-1.6c0.1,0,0.3,0,0.6,0.1c0.1,0,0.4,0,0.6-0.1c1-0.4,1.6-0.7,2-0.7c0.7,0,0.9,0.7,1.1,2.4
			c0.1,0.7,0.9,1,1.6,1h0.1c1.6,0,2.3,0.7,1.3,2.3c-0.9,1.7,0.1,2.6,1.1,3.6c0.4,0.4,0.9,0.6,1.3,0.6c0.6,0,1.1-0.3,1.9-0.7
			c3-2,6.1-2.6,9.4-2.6c1,0,2,0,3,0.1c1,0.1,1.6,1,2.1,1.9c0.4,0.9,1,1.3,1.7,1.3c0.3,0,0.6-0.1,1-0.3c0.3-0.1,0.6-0.1,0.9-0.1
			c0.6,0,1.1,0.3,1.9,0.3h0.1c0.3,0,0.6,0,0.9,0c0.7,0,1.4,0,2.3,0c1,0,2-0.1,2.8-0.6c0.1-0.1,0.3-0.1,0.4-0.1
			c0.6,0,1.1,0.4,1.4,0.9c0.6,0.6,1.1,1.3,1.6,2c1,1.7,2.1,2.7,4,2.7c0.3,0,0.7,0,1.1-0.1c0.3,0,0.6-0.1,1-0.1
			c1.1,0,2.3,0.4,3.3,1.1c2.4,2,5.1,3.6,7.8,5.1c1.4,0.9,2.3,2,2.4,3.7c0,2,1.3,3.6,2.1,5.4c0.3,0.7,1,0.7,1.6,0.7
			c0.3,0,0.6,0,0.7,0h0.1c2.7,0,2.8,0.1,2.3,2.7c-0.4,1.7-0.3,3.1,1,4.4c1.3,1.3,0.7,2.6-1,3c-3.3,0.6-4.7,3-5.4,5.7
			c-0.7,2.6-1.7,5-3,7.4c-2.8,5.4-3.8,11-1.9,16.9c0.4,1.1,0.3,2-0.7,2.7c-0.4,0.3-1,0.6-1,1.3c0.3,0.9,1.1,0.7,1.7,1
			c1.6,0.6,3.1,0.3,4.7,1.3c0.3,0.1,0.7,0.3,1,0.3c0.9,0,1.9-0.6,2.4-1.9c0.7,0.7,1.4,1.1,2.3,1.1c0.6,0,1.1-0.3,1.9-0.7
			c0.3-0.3,0.7-0.4,1.1-0.4c0.3,0,0.7,0.1,1,0.3c2,1.1,4.1,1.1,6.3,1.1c1.1,0,2.3,0.1,3.1,1.1c0.7,0.7,1.7,0.9,2.7,1
			c1.9,0.1,3.3,0.7,3.6,2.8c0.1,0.7,0.9,1.1,1.1,1.9c-0.3,0.6-0.4,1.1-0.9,1.7c-1.7,2-0.7,4-0.1,5.8c0.1,0.6,0.6,0.7,1,0.7
			c0.3,0,0.7-0.1,1-0.3c0.4-0.1,0.9-0.3,1.1-0.3c0.7,0,1.4,0.4,2,1c0.7,0.7,1.6,1.1,2.4,1.1c0.6,0,1.1-0.3,1.9-0.7
			c0.3-0.3,0.7-0.4,1-0.4c0.6,0,1,0.4,1,1.6c0,1.3,0.6,2.4,2,2.6c1.6,0.1,2.1,0.9,1.9,2.6c2.1-0.3,4.4,0.3,5.7-2
			c0.4-0.7,1.1-0.7,1.9-0.9c2.3-0.3,3-1.1,3.1-3.4c0-0.6,0-1.1,0-1.7c0.1-1.1,0.6-1.9,2-1.9c4.3-0.1,5-0.9,5.4-5
			c0.1-1.7,1.1-2.1,2.6-2.3c0.1,0,0.4,0,0.6,0c1.1,0,2.1,0.6,2.1,1.9c0,3.4,2.3,4.3,5,5c2.3,0.6,2.4,0.9,1.1,3
			c-0.7,1.3-1.1,2.6-0.6,4c1,2.1,0.6,4-0.7,5.7c-1.3,1.7-2.1,3.4-0.9,5.7c0.7,1.1,0,2.4-1.1,3.1c-1,0.7-1.4,1.4-0.6,2.6
			c0.9,1.3,0.1,2.6-0.4,3.7c-0.6,1-1.1,1.9-1.1,3c-0.1,1.6,0.6,2.6,1.7,2.6c0.4,0,0.9-0.1,1.4-0.4c0.6-0.3,1-0.4,1.3-0.4
			c0.4,0,0.7,0.3,0.9,1.3c0.1,0.9,0.9,0.9,1.4,1.1c1.1,0.3,1.4,1,1,2.1c-0.7,1.4-0.9,3-0.7,4.6c0,0.9-0.1,1.7-1,2.1
			c-0.3,0.1-0.6,0.1-0.7,0.1c-0.6,0-1-0.3-1.4-0.7c-0.6-0.6-1.1-1-1.7-1c-0.4,0-0.9,0.3-1.4,1c-0.1,0.3-0.4,0.3-0.6,0.3
			c-0.3,0-0.6-0.1-0.7-0.3c-0.4-0.3-0.7-0.6-1.1-0.6c-0.4,0-0.9,0.3-1.3,0.9c-0.6,0.7-1.3,1-2.1,1c-1.1,0-2.4-0.7-2.8-2
			c-0.3-0.7-0.9-1.3-1.6-1.6c-2.4-0.7-2.4-0.7-1.6-3.3c0.1-0.3,0.1-0.7,0.1-1.1c0-0.6-0.4-1.1-1-1.4c-0.1,0-0.1,0-0.3,0
			c-1.1,0-1.4,1.1-2.3,1.4c-0.4-0.3-1-0.6-1.4-0.6c-0.3,0-0.7,0.1-0.9,0.6c-0.9,1.6-2.1,2.3-3.8,2.3c-0.4,0-0.9,0-1.3-0.1
			c0.7,2-0.3,3.1-1.6,4.4c-1.9,1.7-2.7,4.3-1.9,6.8c0.6,1.9,0.9,3.7,1,5.6c0,1.6,0.6,2.3,1.4,2.3c0.6,0,1.1-0.3,1.9-0.7
			c0.4-0.3,0.7-0.4,1-0.4c0.4,0,0.7,0.3,1.1,0.7c0.4,0.6,0.9,1,1.1,1.6c1.7,2.6,1.6,3.1-1.3,4.4c-0.9,0.4-1.6,0.9-1,1.9
			c0.6,1,0,1.4-0.7,2c-2.1,1.3-2.1,2.6,0,3.8c0.6,0.3,1.1,0.6,1.7,0.9c1.3,0.4,2.1,1,2,2.7c-0.1,1.4,1.4,1.7,2,2.7
			c-1,3.6-1.1,3.8-5,4c-1.1,0-1.9,0.6-2.6,1.3c-0.6,0.4-1.1,0.9-1.9,0.9c-0.3,0-0.6-0.1-1-0.3c-1.1-0.7-1.1-2-0.9-3.1
			c0.7-2.6,0.6-3-2.1-3.6c-2.7-0.6-2.8-0.9-2.4-3.7c0.1-0.6-0.1-1-0.6-1.4c-1.1-0.7-1.6-1.6-0.1-2.7c-1.6-0.6-3-1.4-4.1-2.6
			c-0.3,1.1-0.7,1.4-1.1,1.4s-0.9-0.3-1.4-0.6c-0.9-0.6-1.6-0.7-2.3-0.7c-1,0-2,0.6-3,1.7c-1,1.3-2.1,2-3.3,2c-0.6,0-1-0.1-1.7-0.3
			c-0.9-0.3-1.6-0.6-2.1-0.6c-1.6,0-2.3,1.1-2.4,3.6c0,0.4,0,0.7-0.1,1.1c-0.1,1.1-0.7,1.7-1.4,1.7c-0.3,0-0.7-0.1-1.1-0.4
			s-0.9-0.4-1.3-0.4c-0.3,0-0.7,0.1-1,0.3c-0.3,0.1-0.6,0.1-0.9,0.1c-0.1,0-0.3,0-0.6-0.1c-2.3-0.6-4.6-1-6.8-1.1
			c-2-0.1-2.6-2.1-2.6-3.8c-0.1-1.4-0.6-2.3-2-2.7c-1-0.3-1.4-0.9-0.7-1.9c0.7-1,0.4-2-0.3-2.8c-2.1-2.4-3-5.6-2.6-8.7
			c0.1-1-0.1-2.1-1-2.7c-0.9,0.6-0.9,1.7-1.3,2.6c-0.3,0.6-0.6,1.1-1.1,1.1h-0.1c-0.7,0-1-0.6-1.4-1c-0.1-0.3-0.3-0.6-0.4-0.9
			c-0.6-1-0.7-2.4-2.1-2.4c-0.1,0-0.1,0-0.3,0c-1.9,0.1-3.6,0.9-4.8,2.3c-0.4,0.6-0.1,1.1,0.1,1.7c0.6,1.3,0.3,2.3-0.7,3.1
			c-1.4,1.1-1.3,2.3,0.1,3.3c1.4,1,1.9,2.3,1.4,3.8c-0.3,1.1-0.1,2.6,0.6,3.6c0.7,1.3,0.7,2.8,0,4.1c-1,2-0.7,4.6-2.7,6.1
			c0.6,3.1-1.4,4.3-3.7,5.6c-0.7,0.4-0.6,1.3-0.6,2c0,1.1-0.4,2-1.6,2c-0.1,0-0.3,0-0.4,0s-0.3,0-0.4,0c-1.1,0-1.7,0.9-2,1.9
			c-0.4,2.1-1.3,3.7-3.6,4.3c-1.3,0.3-1.3,1.6-0.7,2.7c1,2.4,0.7,3.4-1.9,4.1c-2.7,0.9-3.6,2.3-3.3,5c0.1,2.3,0.4,4.6-0.7,6.7
			c-0.3,0.4-0.3,1.3,0.1,1.4c2.1,0.6,2.4,3,3.8,4.1c1.7,1.3,1.9,2.1,0.7,4c-1,1.4-1.9,3-3,4.4c-0.6,0.7-1.1,1.3-1.9,1.3
			c-0.4,0-0.7-0.1-1.3-0.6c-0.1-0.1-0.3-0.3-0.4-0.3l0,0c-0.6,0.6-1.3,0.7-2,0.7s-1.4-0.1-2-0.1c-0.4,0-0.9,0.1-1.3,0.3
			c-0.3,0.1-0.7,0.3-1,0.3c-0.4,0-0.7-0.1-1-0.7c1.1-0.9,2.4-1.6,2.7-3.3c-1.7-0.4-2.3-1.4-1.6-3.1c0.3-0.7,0.1-1.6-0.1-2.3
			c-0.7-1.7-1.4-3.3-2.4-4.8c-0.9-1.7-2.3-2.8-4.1-3.3c-0.9-0.1-1.6-0.6-2.3-1.1c-1.1-0.9-1.3-2.3,0-3c1.3-0.9,1.7-1.9,1-3.1
			c0.4-0.6,0.9-0.6,1.3-0.7c1-0.3,1.1-0.9,0.6-1.6c-1.4-1.6-2.3-4-5-4c-0.1,0-0.3,0-0.6,0H251c-1,0-1.6-1-2-1.9h-0.1
			c-0.7,0-1.1,0.6-1.6,1c-0.7,0.7-1.3,1-2,1c-0.7,0-1.4-0.4-1.9-1.4c-0.6-1.3-1.4-1.9-2.7-1.9c-0.1,0-0.3,0-0.4,0s-0.1,0-0.3,0
			c-1.1,0-2-0.6-2.8-1.4s-1.1-1.7-0.1-2.7s0.7-1.7-0.4-2.3c-1-0.4-1.7-1.1-2.1-2.1c-0.7-1.9-2.1-2.4-4-2.6c-1.3,0-2.4-0.3-2.4-2.1
			c0-1.4-1.9-0.9-2.3-2c1.4-1.1,0.7-2.6,0.1-3.8c-1.1-2.1-0.7-4,1-5.4c4.3-3.8,3-8,0.6-13.1c-0.3-0.7-0.9-1.1-1.6-1.1
			c-0.1,0-0.1,0-0.3,0c-3,0.4-5.8,1.1-8.1,3c-1.9,1.6-2,2.7-0.7,4.7c0.9,1.4,0.4,2.4-1,2.7c-3,0.6-4,3.4-6,5.1
			c-0.7,0.6-0.9,1.4-0.9,2.3c0,1.4-0.7,1.9-2.1,2c-1.1,0-2.3,0.1-3.4,0.4c-3.1,0.9-4.3,3.6-2,5.8c1.7,1.9,1.9,4.4,3.4,6.3
			c0.1,0.3,0.3,0.6,0.1,1c0.1,3-3.6,7.5-6.5,7.8c-2.1,0.1-3.4,1.1-3.7,3.3c-0.3,1.6-0.4,3.1-0.7,4.6c-0.6,3-1.7,4-4.8,4
			c-3.3,0-5.7,1.9-6.4,5.1c-0.1,0.9-0.4,1.7-0.7,2.6c-0.4,1.1-1.1,1.7-2,1.7c-0.4,0-1-0.1-1.6-0.6c-0.4-0.3-0.9-0.7-1.3-0.7
			c-0.1,0-0.1,0-0.3,0.1c-0.6,0.4-1.1,0.6-1.6,0.6c-1,0-1.7-0.7-2.6-1.7c-0.1-0.3-0.4-0.3-0.7-0.3c-0.4,0-1,0.3-1.4,0.6
			c-0.6,0.3-1,0.7-1.6,0.7c-0.3,0-0.6-0.1-0.9-0.3c-0.9-0.7-0.6-1.4-0.1-2.3c0.3-0.6,0-1-0.4-1.3c-0.9-0.6-1.7-0.9-2.4-1.6
			c-0.1-0.1-0.3-0.1-0.4-0.1c-0.3,0-0.7,0.3-1,0.6c-0.7,0.6-1.4,0.9-2,0.9c-0.7,0-1.4-0.6-2.1-1.7c-0.3-0.4-0.6-0.9-0.9-1.3
			c-0.4-0.4-1-0.6-1.4-0.6c-0.7,0-1.4,0.4-1.4,1.3c-0.3,2.6-1.6,3.4-3.8,3.4h-0.1c-0.7,0-1.3,0.4-1.6,1c-1.7,3-4.6,4-7.5,5.1
			c-0.3,0.1-0.4,0.1-0.7,0.1c-0.6,0-1.1-0.4-1.4-1c-0.6-0.9-1.3-1.1-2-1.1c-0.4,0-1,0.1-1.6,0.3c-2.3,1-4.6,2.3-6.5,3.7
			c-1,0.7-1.6,1.9-2.1,3c-0.4,1-1,1.4-1.4,1.4s-1-0.4-1.4-1.1c-0.6-0.7-1-1.1-1.4-1.1c-0.4,0-0.9,0.3-1.4,1.1c-0.4,0.6-1,1-1.4,1
			c-0.7,0-1.3-0.6-1.6-1.6c-0.4-1.7-1.9-2.7-2.6-4c-1.6-2.4-3.6-5-2.7-8.3c0.3-1.3-0.1-2.3-1.1-2.8c-1.6-0.9-2.7-2.4-3-4.1
			c-0.1-0.6-0.3-1.1-0.6-1.7c-0.6-1-1-1.6-1.7-1.6c-0.4,0-1,0.3-1.7,0.7s-1.3,1.1-2.1,1.3c-0.1,0-0.3,0-0.3,0c-0.4,0-0.7-0.1-1-0.4
			c-0.3-0.4-0.4-1,0-1.3c2-1.6,0.3-2.6-0.6-3.6c0-0.1,0-0.3,0.1-0.4c0.7-0.7,2.1-1,1.7-2.3c-0.4-1.4-1.7-1.4-2.8-1.7
			s-2.3-0.4-3.4-0.7c-1.7-0.6-2-1.7-0.7-3c0.6-0.6,0.9-1.3,0.7-2.1c-0.7-3,0.1-5.4,2.6-7.4c1.9-1.6,1.9-3.1,0.1-5
			c-0.4-0.4-0.9-0.7-1.3-1.1c-1-0.9-2.1-1.9-1.4-3.4c-2.3-1.3-2.6-2.7-0.9-4.4c1.4-1.4,1.4-3.4,1.7-5.3c0.1-1-0.7-1.1-1.6-1.4
			c-5.8-1.4-11.7-2.3-17.7-2.7c-0.4,0-0.7,0-1.1,0c-2.4,0-4.8,0.6-6.8,1.9c-3.6,2.1-7.5,3.8-11.5,5c-2,0.6-3.7,1.6-5.1,3
			c-1.1,1.1-1.7,2.8-1.7,4.4c0,0.6,0,1.4,0.7,1.4c1.6,0.3,1.4,1.3,1.3,2.3c-0.1,1.7,0.3,2.4,1.6,2.4c0.3,0,0.6,0,1-0.1
			c0.1,0,0.3,0,0.3,0c0.3,0,0.6,0,1,0.1c0.6,1-0.1,1.4-0.7,1.9c-3.1,2.3-6,4.6-7.3,8.4c-0.3,0.7-0.9,1.1-1.6,1.1c0,0,0,0-0.1,0
			c-1.6,0-2.6,0.9-3.4,2c-0.9,1-1.4,1.6-2.3,1.6c-0.6,0-1.3-0.4-2.3-1.1c-0.3-0.3-0.7-0.4-1.3-0.4c-0.3,0-0.6,0.1-0.9,0.1
			c-2.3,1.1-3,1.4-4.4,1.4c-0.7,0-1.6-0.1-2.7-0.1c0-0.1-0.1-0.3-0.1-0.3c0.9-2.3,1.4-4.4-0.3-6.5c-0.3-0.3-0.1-0.7,0.1-1.1
			c1-1.9,2.1-3.4,3.6-4.8c0.3,0.3,0.7,0.3,0.9,0.6c0.6,0.9,1.1,1.4,1.9,1.4c0.6,0,1.1-0.3,1.7-1.1c0.6-0.7,1.4-0.7,2.3-0.7
			c1.4-0.1,1.9-0.9,0.9-1.9c-0.9-0.9-0.7-1.7-0.3-2.6c1.1-2.4,2.4-4.7,3.4-7.3c1.1-2.6,0.1-4.8-2.7-5.4c-2.1-0.4-3.6-1.1-3.3-3.6
			c0-0.6-0.1-1.1-0.6-1.6c-1.7-1.7-1-3.4,0.3-4.8c1.7-1.9,3.6-3.7,3.1-6.7c0.9-0.1,1.4-0.1,2.1-0.3c0.7-0.1,1.1-0.7,1.3-1.3
			c0.1-0.6-0.1-1.1-0.7-1.4c-1.7-1.1-1.7-1.9,0-3.1c2.6-2.3,5.3-4.4,7.8-6.7c1.6-1.3,3-2.7,4.1-4.4c1.1-1.6,2.4-2.6,4.3-2.6
			c0.1,0,0.3,0,0.6,0c0.1,0,0.1,0,0.3,0c1.1,0,2-0.7,2.1-1.7c0.3-1.9,1.6-2.8,3.3-3.6c0.9-0.3,1.6-0.7,2.1-1.4
			c0.4-0.6,0.7-1.3,0-1.9c-1.7-1.1-1-2.7-0.6-4.1c0.3-0.6,0.6-1.1,1-1.7c1.3-2,1.4-3.8,0.3-6c-1.9-3.3-1.6-4.4,1.3-6.8
			c1-0.7,1.7-2,3-2c0.3,0,0.7,0.1,1.1,0.3c0.1,0,0.1,0,0.3,0c0.3,0,0.7-0.3,1-0.6c1-1.6,2.7-1.9,4.4-2.1c2.1-0.3,4-1,5.1-3.1
			c0.4-1,1.4-1.3,2.4-1.4s1.7-0.4,1.3-1.9c-0.6-1.6,0.3-2.6,1.9-2.6c1.1-0.1,2-0.6,2.1-1.9c0.1-0.6,0.1-1.1,0.7-1.1H96
			c0.1,0,0.3,0,0.4,0c1.4,0,1.7-1.3,2.3-2.3c0.9-1.4,1.6-3.1,3.6-3.4c0.7-0.1,1.1-0.7,0.4-1.4c-1.3-1.1-0.4-2,0.6-2.6
			c1.1-0.7,2.3-1.3,3.6-1.6c2.1-0.6,3.1-2,3.4-4c0.1-1,0.3-2.1,0.6-3.1c0.4-1.7,1.1-2.8,3.1-2.8c0.1,0,0.1,0,0.3,0h0.1
			c0.9,0,1.7-0.3,1.6-1.4c-0.4-2,0.3-3.1,2.3-3.4c-0.6-1.9-1.6-2.7-3.1-2.7c-0.3,0-0.6,0-1,0.1c-2.3,0.4-4.4,0.6-6.7,0.9
			c-0.3,0-0.4,0-0.7,0c-0.7,0-1.4-0.1-1.9-1c-0.6-1.1,0.4-1.6,1-2.1c0.7-0.7,1.1-1.6,1.3-2.6c0.1-0.9,0.3-1.7,1.6-2
			c1-0.1,0.3-1.4,0.9-2c0.7,0.1,1.4,0.1,1.9,0.1c1.3,0,1.7-0.4,2.6-1.7c0.6-1,0.7-1.9-0.1-2.6c-0.7-0.7-1.3-1.6-0.9-2.6
			c0.6-1,1.6-1.7,2.7-1.9c0.3,0,0.6,0,0.7,0c1,0,2,0.3,2.8,1.1c0.6,0.7,1.3,1,2,1c0.4,0,0.9-0.1,1.3-0.4c1.3-0.7,2.6-1.1,3.8-1.1
			c1,0,2.1,0.3,3.1,0.9c0.6,0.3,1.4,0,2,0.6c-0.3,1.1-1.4,0.6-2.1,1.3c0.3,0.9,0.6,2-0.1,3c-0.3,0.6,0.1,1,0.6,1.4
			c1,1,2.3,1.7,3.6,2.4c0.1,0.1,0.4,0.1,0.4,0.1l0,0c0.6-0.7,1.3-0.7,2-0.7c0.1,0,0.4,0,0.6,0c0.7,0,1.3-0.1,1.9-0.6
			c0.6-0.6,1.1-0.6,1.7-0.6c0.3,0,0.4,0,0.7,0c0.7,0,1.6,0,2.3,0c1.1,0,2.3-0.1,3.4-0.4c1.1-0.3,1.9-1.3,2-2.4
			c0.3-1.3-0.4-2-1.4-2.4c0.1-1.3,0.6-2.1,1.7-2.1c0.3,0,0.7,0.1,1,0.1c0.4,0.1,1,0.3,1.4,0.3c0.9,0,1.7-0.3,2.3-1.3
			c0.7-1.1,2.3,0.1,3-1.3c-0.6-0.6-1.4-0.6-2.1-0.9c-1-0.6-1-1.1-0.1-1.9c2.7-2,5.4-4.3,8.4-6c0.6,0.1,0.7,0.9,1.6,0.9h0.1
			c1-1.3,2.4-1.7,4-1.7c0.6,0,1,0,1.6,0.1c-1,1.1-1.3,2.3-0.4,3.6c0.4,0.7-0.1,1.4-1,1.6c-0.7,0.1-1.6,0.1-2.4,0.3
			c-0.1,1.1,0.6,1.7,1.4,2c0.9,0.3,1.9,0.4,2.8,0.4c2.1,0,4.6-0.7,5.8-2.8c1.3-2.1,3.4-3.3,5.8-3.3c0.7,0,1.6,0.1,2.4,0.3
			c1.1,0.3,1.1,1.1,1.3,2.1c0,1.7,0.7,2.7,2,2.7c0.6,0,1.1-0.1,1.9-0.7c0.9-0.6,1.7-0.6,2.6-0.6c0.1,0,0.3,0,0.3,0
			c0.1,0,0.3,0,0.4,0s0.3,0,0.6,0c1.1,0,2.1-0.1,3-1.3c0.3-0.3,0.6-0.4,1-0.4c0.3,0,0.7,0,1,0c1,0,2,0,2.4-0.9
			c1.7-3.1,4.7-4.7,7.5-6.7l0,0c3.7,0.1,6.3,2.1,8.5,5c0.4,0.6,0.6,1.1,0.9,1.7c0.4,0.7,1,1.1,1.4,1.1s1-0.3,1.4-1
			c0.4-0.6,0.9-0.7,1.3-0.7c0.6,0,1.1,0.4,1.7,0.7c0.7,0.4,1.4,0.7,2.1,0.7c0.6,0,1.1-0.3,1.9-0.7c0.1-1-0.6-1.1-1.1-1.4
			c-1.7-0.7-1.1-1.9-0.3-2.7c1.3-1.4,2.7-2.1,4.1-2.1c1.1,0,2.4,0.4,3.7,1.4c0.7,0.6,1.3,0.7,1.9,0.7c0.7,0,1.1-0.6,1.4-2
			c0.1-0.7,0.4-1.4,1-2l1.3,1.4c1.1-0.7,0.7-1.6,0.1-2.3c-0.3-0.6-0.9-1-1.4-1c-0.3,0-0.6,0.1-0.7,0.3c-0.6,0.4-1.1,0.7-1.9,0.7
			c-0.1,0-0.3,0-0.6-0.1c-0.4-0.1-1-0.1-1.4-0.1c-1,0-2,0.4-2.6,1.9c-0.7-0.4-1.3-0.9-1.9-0.9c-0.3,0-0.7,0.1-1.1,0.6
			c-0.1,0.1-0.3,0.1-0.4,0.1c-0.3,0-0.6-0.3-0.9-0.7c-1.1-1.6-2.6-1.9-4.6-1.9c-0.1,0-0.1,0-0.3,0c0.7-1.7,0.3-4,2.6-5
			c0.9-0.3,1.3-1.1,0.7-1.9c-1.7-2.3-0.1-3.6,1.3-5c0.4-0.3,0.7-0.6,1.1-0.9c0.7,0.6,1.7,0.7,2.8,0.7c2.3,0,4.7-1,5.7-2.6
			C235.9,42.8,236.2,41.9,237.1,41.9 M237.1,40.3c-1.7,0-2.4,1.4-2.8,2.3v0.1c-0.6,1-2.6,1.9-4.3,1.9c-0.9,0-1.6-0.1-2-0.4l-0.9-0.6
			l-0.9,0.6c-0.6,0.3-1,0.7-1.4,1h-0.1l0,0c-0.1,0.1-0.1,0.1-0.3,0.3c-1.1,1.1-3.4,3.3-1.4,6.3c-2.3,1-2.7,3-3,4.4
			c-0.1,0.4-0.1,0.9-0.3,1.3l-0.9,2.1h2.3c0.1,0,0.1,0,0.3,0c1.7,0,2.6,0.3,3.3,1.3c0.3,0.4,0.6,0.7,0.9,0.9c-0.4,0.3-1,0.7-1.4,1.1
			c-0.4,0.4-1.6,1.6-1.3,3c0,0.3,0.1,0.6,0.3,0.7c-0.6-0.3-1.3-0.7-2.1-0.7c-0.7,0-1.7,0.3-2.6,1.4c0,0.1-0.1,0.1-0.1,0.1
			c0-0.1-0.1-0.1-0.1-0.3l0,0l0,0c-0.1-0.1-0.1-0.3-0.1-0.4c-0.1-0.4-0.3-0.9-0.7-1.3c-1.9-2.3-4.8-5.4-9.7-5.6l0,0l0,0l0,0h-0.4
			l-0.4,0.3c-0.4,0.3-0.9,0.6-1.4,0.9c-2.6,1.7-5,3.3-6.7,6.3c-0.1,0.1-0.7,0.1-1.1,0.1c-0.1,0-0.3,0-0.3,0c-0.1,0-0.4,0-0.6,0
			c-1,0-1.9,0.4-2.3,1.1l0,0l0,0c-0.3,0.4-0.6,0.6-1.7,0.6h-0.3h-0.4c-0.1,0-0.3,0-0.4,0h-0.1h-0.1c-0.9,0-2.1,0-3.4,0.9
			c-0.6,0.4-1,0.4-1,0.4c-0.1,0-0.4-0.6-0.4-1.3c0-1-0.1-2.8-2.3-3.6c-1-0.3-1.9-0.4-2.8-0.4c-3,0-5.6,1.4-7.1,4
			c-1.1,1.9-3.3,2.1-4.4,2.1c-0.1,0-0.3,0-0.6,0c0.6-0.3,0.9-0.7,1.1-1.1c0.3-0.7,0.3-1.6-0.1-2.3c-0.3-0.6-0.4-1,0.3-1.9l2-2.1
			l-3-0.4c-0.7-0.1-1.3-0.1-1.9-0.1c-1.7,0-3.1,0.4-4.3,1.4c-0.3-0.3-0.7-0.4-1.1-0.6l-0.6-0.1l-0.4,0.3c-2.3,1.1-4.1,2.7-6.1,4.1
			c-0.9,0.6-1.7,1.3-2.6,1.9l0,0l0,0c-1.1,0.9-1.3,1.7-1.3,2.3c0,0.4,0.1,1,0.7,1.6c-0.1,0.1-0.3,0.3-0.6,0.6
			c-0.3,0.4-0.6,0.6-1,0.6c-0.3,0-0.6-0.1-0.9-0.1l0,0l0,0c-0.6-0.1-1-0.3-1.6-0.3c-1.3,0-2.8,0.6-3.3,3.4l-0.1,1.1l1.1,0.4
			c0.7,0.3,0.6,0.4,0.6,0.7l0,0l0,0c-0.1,0.6-0.4,1-0.9,1.1l0,0l0,0c-0.7,0.3-1.6,0.4-2.8,0.4c-0.4,0-0.9,0-1.4,0
			c-0.3,0-0.6,0-0.9,0l0,0l0,0c-0.1,0-0.1,0-0.3,0s-0.3,0-0.3,0c-0.6,0-1.7,0-2.7,1l0,0l0,0c0,0-0.1,0.1-0.7,0.1c-0.1,0-0.1,0-0.3,0
			s-0.3,0-0.3,0c-0.4,0-1.4,0-2.3,0.6c-1.3-0.7-2.1-1.4-2.8-2.1l0,0c0.3-0.7,0.3-1.4,0.3-2.1c0.7-0.1,1.6-0.7,1.9-2l0.1-0.9
			l-0.7-0.6c-0.7-0.6-1.6-0.7-2-0.7c-0.1,0-0.3,0-0.3,0c-1.3-0.7-2.6-1.1-4-1.1c-1.6,0-3,0.4-4.6,1.4c-0.1,0.1-0.3,0.1-0.6,0.1
			s-0.7-0.3-0.9-0.6c-1-1.1-2.4-1.6-4-1.6c-0.3,0-0.6,0-1,0c-1.7,0.1-3.1,1.1-3.8,2.7l0,0l0,0c-0.6,1-0.7,2.7,1.1,4.4
			c0.1,0.1,0.1,0.1,0.1,0.1s0,0.1-0.3,0.4c-0.6,1-0.7,1-1.1,1c-0.3,0-0.9,0-1.7-0.1l-0.9-0.1l-0.4,0.6c-0.4,0.6-0.6,1.1-0.6,1.7
			c-1.7,0.6-2,2.1-2.1,2.8v0.1c-0.1,0.7-0.4,1.3-1,1.7c-0.1,0.1-0.1,0.1-0.3,0.3c-0.6,0.4-1.9,1.7-1,3.6c0.4,0.9,1.3,1.9,3.3,1.9
			c0.3,0,0.6,0,0.9-0.1c0.4,0,0.9-0.1,1.3-0.1c1.9-0.1,3.7-0.4,5.6-0.7c0.3,0,0.6-0.1,0.7-0.1c0.3,0,0.7,0,1,0.3
			c-0.4,0.3-0.9,0.7-1.1,1.1c-0.6,0.9-0.7,1.9-0.6,3c-0.1,0-0.3,0-0.3,0c-1.7,0-3.8,0.7-4.6,4c-0.1,0.7-0.3,1.4-0.4,2.1
			c0,0.3-0.1,0.7-0.1,1l0,0l0,0c-0.3,1.6-1,2.4-2.3,2.7l0,0l0,0c-1.4,0.4-2.7,1-4,1.9c-0.4,0.3-1.7,1-1.9,2.6c0,0.4,0,1,0.3,1.6
			c-1.9,0.7-2.7,2.3-3.4,3.6c-0.1,0.1-0.1,0.3-0.3,0.4c-0.1,0.3-0.3,0.6-0.3,0.7c-0.1,0.3-0.3,0.7-0.4,0.9c0,0,0,0-0.1,0
			c-0.1,0-0.1,0-0.3,0l0,0l0,0c-0.1,0-0.1,0-0.3,0c-0.9,0-2,0.4-2.3,2.6l0,0l0,0c0,0.3,0,0.4-0.7,0.4c-1.7,0.1-2.6,0.9-3,1.6
			c-0.4,0.6-0.7,1.6-0.3,3c-0.7,0.1-2.7,0.4-3.6,2.3c-0.7,1.4-2,1.9-3.8,2.1c-1.6,0.3-3.8,0.6-5.3,2.6c-0.4-0.1-0.9-0.1-1.1-0.1
			c-1.7,0-2.7,1-3.4,1.9c-0.1,0.1-0.4,0.4-0.6,0.6c-3.4,3-3.8,5-1.7,8.8c0.9,1.6,0.7,2.8-0.1,4.4c-0.6,0.7-0.9,1.4-1.1,2v0.1v0.1
			c0,0.1-0.1,0.3-0.1,0.4c-0.4,1.3-1.1,3.6,0.9,5.3c-0.3,0.3-0.7,0.6-1.3,0.7l0,0l0,0c-2.4,0.9-3.8,2.4-4.3,4.7
			c-0.1,0.4-0.3,0.6-0.6,0.6H63c-0.1,0-0.4,0-0.7,0c-2.1,0-4,1-5.6,3.1c-1,1.4-2.3,2.8-3.8,4.1c-1.3,1.1-2.6,2.3-4,3.3
			c-1.3,1.1-2.7,2.3-4,3.4c-1,0.9-1.9,1.7-1.7,3c0,1.3,1,2.1,1.9,2.7l0,0c-0.4,0.1-0.9,0.1-1.4,0.1c-0.1,0-0.3,0-0.4,0l-1.7,0.1
			l0.3,1.7c0.3,2-0.7,3.4-2.6,5.3l-0.1,0.1c-3,3.1-1.6,5.7-0.3,7l0,0l0,0c0.1,0.1,0.1,0.3,0.1,0.3c-0.6,4.3,3.3,5,4.6,5.3
			c0.6,0.1,1.4,0.4,1.7,1c0.3,0.6,0.3,1.3-0.1,2.1c-0.7,1.7-1.6,3.4-2.4,5c-0.3,0.7-0.7,1.4-1.1,2.3c-0.3,0.6-1,2.1,0,3.7
			c-0.9,0.1-1.9,0.3-2.7,1.4l0,0l0,0c-0.1,0.3-0.3,0.4-0.4,0.4c-0.1-0.1-0.3-0.3-0.4-0.6c-0.3-0.6-0.7-0.7-1-1
			c-0.1,0-0.1-0.1-0.1-0.1l-1.3-0.6l-0.9,1c-1.6,1.7-2.8,3.4-3.8,5.3c-0.7,1.4-0.3,2.3,0,2.7l0,0l0,0c1.1,1.3,0.9,2.7,0,5l0,0
			c-0.1,0.4-0.1,1,0.3,1.6l0.3,0.7l0.9,0.1c1.1,0.1,2.1,0.1,2.8,0.1c1.9,0,3-0.6,5.1-1.6c0.1,0,0.1,0,0.1,0c0.1,0,0.1,0,0.1,0.1l0,0
			h0.1c0.9,0.7,2,1.4,3.3,1.4c1.6,0,2.6-1.1,3.4-2.1c0.9-1,1.4-1.4,2.1-1.4h0.1c1.4,0,2.6-0.9,3-2.1c1.1-3.4,3.8-5.6,6.7-7.5
			l0.1-0.1c0.6-0.4,2.1-1.6,1.1-3.7l-0.3-0.7l-0.7-0.1c-0.4-0.1-0.9-0.1-1.1-0.1c-0.1,0-0.3,0-0.4,0h-0.1h-0.1
			c-0.3,0.1-0.6,0.1-0.6,0.1l0,0c0-0.1,0-0.3,0-0.7c0.1-0.9,0.3-3.1-2-4l0,0c0-1.3,0.4-2.4,1.3-3.4c1.1-1.3,2.7-2.1,4.4-2.6l0,0l0,0
			c4.1-1.1,8.1-3,12-5.1c1.9-1.1,4-1.7,6.1-1.7c0.3,0,0.7,0,1,0c6,0.4,11.8,1.3,17.4,2.7c0.1,0,0.1,0,0.3,0.1c0,0.1-0.1,0.4-0.1,0.6
			c-0.1,1.3-0.3,2.4-1.1,3.3c-1.4,1.4-1.6,2.7-1.4,3.6c0.1,1,0.7,1.9,1.7,2.7c-0.1,1.9,1.3,3.1,2.1,3.8l0,0c0.1,0.1,0.3,0.3,0.4,0.4
			c0.3,0.3,0.6,0.4,0.7,0.7c0.6,0.6,0.9,1.1,0.9,1.4s-0.3,0.7-0.9,1.1c-2.8,2.4-4,5.4-3.1,9l0,0l0,0c0,0.1,0.1,0.3-0.1,0.6h-0.1l0,0
			c-1.3,1.3-1.4,2.4-1.1,3.3c0.1,0.7,0.7,1.7,2.4,2.4c0.9,0.3,1.7,0.4,2.4,0.6c0.4,0.1,0.7,0.1,1.1,0.3c0.1,0,0.3,0.1,0.4,0.1
			c0.9,0.1,1.1,0.3,1.1,0.4c-0.1,0.1-0.1,0.1-0.3,0.1c-0.3,0.1-0.7,0.4-1,0.7c-0.4,0.4-0.4,0.9-0.6,1l0,0l-0.1,0.9l0.6,0.6
			c0.1,0.1,0.3,0.3,0.6,0.6c0.1,0.1,0.3,0.3,0.4,0.6c0,0-0.1,0.1-0.3,0.1c-0.4,0.3-0.7,0.9-0.9,1.4c-0.1,0.7,0.1,1.4,0.6,2l0,0l0,0
			c0.6,0.6,1.4,1,2.3,1c0.3,0,0.6,0,0.7-0.1c1-0.3,1.6-0.7,2.1-1.1c0.1-0.1,0.3-0.3,0.4-0.3l0,0l0,0c0.3-0.3,0.6-0.3,0.7-0.4
			c0.1,0.1,0.3,0.3,0.4,0.7v0.1v0.1c0.1,0.3,0.3,0.7,0.4,1.1c0.3,2.3,1.7,4.1,3.7,5.3c0.4,0.3,0.6,0.4,0.3,1c-1,3.6,0.9,6.4,2.3,8.7
			c0.1,0.3,0.3,0.6,0.4,0.7c0.3,0.6,0.7,1.1,1.1,1.6c0.6,0.7,1,1.3,1.3,2c0.4,1.6,1.7,2.7,3,2.7c1,0,2.1-0.6,2.7-1.7l0.1-0.1
			l0.1,0.1c0.7,1.3,1.7,1.9,2.7,1.9c1.1,0,2.1-0.7,2.8-2.3l0,0l0,0c0.6-1.1,0.9-1.9,1.6-2.4c1.9-1.4,4-2.6,6.3-3.6
			c0.4-0.1,0.7-0.3,1-0.3c0.1,0,0.3,0,0.7,0.6c0.7,1.1,1.7,1.7,2.7,1.7c0.4,0,0.9-0.1,1.3-0.3l0.6-0.1c2.8-1.1,6-2.4,7.7-5.7v-0.1
			v-0.1l0.1-0.1h0.1c3.1,0,5-1.6,5.3-4.7c0,0,0.1,0,0.1,0.1c0.3,0.3,0.4,0.7,0.6,1l0,0l0,0c0.6,1.1,1.7,2.6,3.4,2.6
			c1.1,0,2.1-0.7,2.8-1.1c0.4,0.3,1,0.6,1.4,0.9c0.1,0,0.1,0.1,0.3,0.1c-0.9,1.9-0.1,3,0.9,3.7c0.6,0.4,1.1,0.6,1.9,0.6
			c1,0,1.9-0.6,2.4-1l0,0l0,0c0.1-0.1,0.3-0.1,0.3-0.1c0.7,0.9,1.9,2,3.4,2c0.6,0,1.3-0.1,1.9-0.4l0,0c0.1,0.1,0.3,0.1,0.4,0.3
			c0.9,0.6,1.7,0.7,2.4,0.7c0.9,0,2.4-0.3,3.4-2.6l0,0l0,0c0.3-0.9,0.6-1.7,0.7-2.8c0.6-2.6,2.4-3.8,5-3.8c3.8,0,5.6-1.4,6.3-5.1
			c0.3-1.1,0.4-2.4,0.6-3.7c0-0.3,0.1-0.7,0.1-1c0.1-1.3,0.7-1.9,2.3-1.9c3.7-0.3,8.3-5.4,8.1-9.3c0-0.6-0.1-1.1-0.4-1.7l1-0.4
			l-0.1-0.1c-0.6-0.7-1-1.6-1.4-2.6c-0.4-1.1-1-2.6-2.1-3.7l0,0l0,0c-0.3-0.3-0.9-1-0.7-1.9c0.1-0.7,0.9-1.1,2-1.4
			c1-0.3,2.1-0.4,3.1-0.4l0,0l0,0c3-0.1,3.6-2,3.6-3.6c0-0.7,0.1-1,0.3-1.1l0,0l0,0c0.7-0.7,1.4-1.4,2-2.3c1.1-1.4,1.9-2.3,3.3-2.6
			l0,0l0,0c1.1-0.3,2-0.9,2.4-1.9c0.4-1,0.3-2.1-0.4-3.3c-0.9-1.4-0.7-1.7,0.4-2.7c2.1-1.7,5-2.3,7.3-2.7l0,0l0,0l0,0
			c0.1,0,0.1,0,0.1,0.1l0,0l0,0c2.6,5.6,3.1,8.4-0.1,11.4c-2.3,2-2.7,4.7-1.3,7.4c0.7,1.4,0.6,1.7,0.3,2l-0.9,0.7l0.4,1
			c0.6,1.1,1.6,1.6,2.1,1.7l0,0c0.1,1.6,0.9,3.1,4,3.3c1.7,0,2.3,0.6,2.6,1.6c0.6,1.3,1.6,2.4,2.7,3c-0.7,0.9-1.7,2.6,0.4,4.7
			c1.3,1.3,2.6,1.9,3.8,1.9c0.1,0,0.3,0,0.4,0s0.1,0,0.3,0c0.6,0,0.9,0.1,1.3,0.9c0.7,1.4,1.9,2.3,3.1,2.3c1,0,2.1-0.6,3-1.4l0,0
			c0.6,0.7,1.4,1.4,2.6,1.4c0.1,0,0.3,0,0.3,0c0.1,0,0.3,0,0.3,0c1.1,0,1.7,0.7,2.7,2c0.1,0.3,0.3,0.4,0.6,0.7
			c-0.4,0.1-0.9,0.4-1.3,1l-0.6,0.7l0.4,0.9c0.1,0.3,0.3,0.6-0.6,1.1c-1,0.7-1.6,1.7-1.6,2.7c0,1.1,0.6,2.1,1.6,2.8
			c0.9,0.7,1.9,1.1,2.8,1.4c1.3,0.3,2.4,1.3,3.1,2.6l0,0l0,0c0.9,1.4,1.6,3,2.3,4.7c0.1,0.3,0.3,0.9,0.3,1l0,0l0,0
			c-0.6,1.3-0.6,2.3-0.1,3.3c0.3,0.6,0.6,0.9,1.1,1.3c-0.3,0.3-0.6,0.6-1,0.9c-0.1,0.1-0.3,0.3-0.6,0.4l-1,0.9l0.6,1.1
			c0.7,1.4,1.9,1.6,2.4,1.6c0.7,0,1.1-0.3,1.7-0.4c0.1-0.1,0.3-0.1,0.6-0.1s0.6,0,0.9,0c0.3,0,0.7,0.1,1.1,0.1c0.7,0,1.4-0.1,2-0.4
			c0.6,0.3,1.1,0.6,1.7,0.6c1.6,0,2.6-1.3,3-1.9c1-1.3,1.9-2.7,2.7-4l0.3-0.4c1.6-2.6,1.3-4.3-1.1-6c-0.4-0.3-0.7-0.7-1-1.4
			c-0.6-0.9-1.1-2-2.4-2.6c1.1-2.3,0.9-4.7,0.7-6.8v-0.3c-0.1-2,0.3-2.7,2.1-3.4c1.1-0.3,2.4-1,3.1-2.1c0.6-1.3,0.3-2.7-0.3-4
			c-0.1-0.3-0.1-0.6-0.1-0.7c3.1-0.9,4.1-3.4,4.7-5.4c0.1-0.7,0.3-0.7,0.4-0.7s0.1,0,0.3,0c0.3,0,0.4,0,0.7,0c1.4,0,3.1-1,3.1-3.6
			c0-0.1,0-0.1,0-0.1c0-0.1,0-0.3,0-0.4c2-1.1,4.7-2.7,4.4-6.3c1.1-1.1,1.6-2.7,1.9-4c0.1-0.7,0.3-1.4,0.6-2c1-1.7,1-3.8,0-5.6l0,0
			l0,0c-0.4-0.7-0.6-1.6-0.3-2.4c0.6-2.3-0.1-4.1-2.1-5.6c-0.3-0.1-0.4-0.3-0.4-0.4c0-0.1,0.1-0.3,0.4-0.4c1.6-1.3,2-3.1,1.1-5l0,0
			l0,0c0-0.1-0.1-0.1-0.1-0.1c0.9-0.9,2.1-1.4,3.6-1.6l0,0l0,0l0,0c0.1,0.1,0.3,0.6,0.4,0.9c0.1,0.3,0.3,0.6,0.3,0.7l0,0l0,0
			c0.1,0.1,0.1,0.3,0.1,0.4c0.1,0.1,0.1,0.3,0.3,0.4l0,0l0,0c0.3,0.4,1.1,1.7,2.7,1.7c0.1,0,0.1,0,0.3,0l0,0l0,0
			c0.7-0.1,1.1-0.4,1.6-0.7c0,3,1.1,5.7,3,8c0.4,0.6,0.3,0.9,0.1,1c-0.7,1.1-0.6,2-0.4,2.6c0.1,0.6,0.7,1.3,2.1,1.7
			c0.6,0.1,0.7,0.1,0.9,1.3c0.1,3.1,1.7,5.1,4,5.4l0,0l0,0c2.3,0.1,4.4,0.4,6.5,1c0.3,0.1,0.6,0.1,0.9,0.1c0.6,0,1-0.1,1.4-0.3h0.1
			h0.1c0.1-0.1,0.3-0.1,0.3-0.1s0.1,0,0.4,0.1c0.7,0.4,1.4,0.7,2,0.7s2.6-0.3,3-3l0,0l0,0c0-0.4,0.1-0.9,0.1-1.3
			c0.1-1.1,0.3-1.7,0.4-1.9s0.1-0.1,0.4-0.1s0.7,0.1,1.6,0.4c0.7,0.3,1.4,0.4,2.1,0.4c1.7,0,3.1-0.9,4.6-2.6
			c0.9-1.1,1.6-1.1,1.7-1.1c0.4,0,0.9,0.1,1.4,0.6c0.7,0.4,1.4,0.9,2.3,0.9c0.6,0,1.1-0.1,1.7-0.6c0.4,0.3,0.9,0.6,1.3,0.9
			c-0.1,0.3-0.1,0.6-0.1,0.7c0,1.3,1,2.1,1.6,2.4c-0.3,1.6-0.3,2.7,0.3,3.7c0.7,1.1,2.1,1.4,3.4,1.7c0.7,0.1,1,0.3,1.3,0.3
			c0,0.1-0.1,0.6-0.3,1.3c-0.6,2.1-0.1,3.8,1.4,4.8c0.6,0.4,1.1,0.6,1.9,0.6c1.1,0,2.1-0.6,2.8-1.3l0,0l0,0c0.7-0.6,1-0.9,1.6-0.9
			c2.1-0.1,3.4-0.1,4.4-1c1-0.9,1.4-2.1,2-4.1l0.1-0.7l-0.4-0.6c-0.4-0.6-0.9-1-1.3-1.3c-0.1-0.1-0.4-0.3-0.6-0.4l0,0
			c0.3-3-2.1-4-3-4.3l0,0l0,0c-0.6-0.1-1-0.3-1.4-0.6l0,0l0,0c-0.4-0.3-0.7-0.4-0.7-0.6c0.1-0.1,0.3-0.3,0.7-0.6l0,0l0,0
			c1.6-1,2.1-2.3,1.4-3.7c0,0,0,0,0.1,0c1.4-0.7,2.8-1.3,3.3-2.7c0.4-1.4-0.4-2.7-1.3-4l0,0l0,0c-0.1-0.3-0.4-0.6-0.6-0.7
			c-0.1-0.3-0.4-0.6-0.6-0.7l0,0l0,0c-0.7-0.9-1.4-1.3-2.3-1.3c-0.7,0-1.3,0.3-2,0.7c-0.3,0.3-0.6,0.3-0.7,0.4
			c0-0.1-0.1-0.4-0.1-0.7c-0.1-2-0.4-4-1-6c-0.6-1.9,0-3.8,1.4-5.1l0,0l0,0c0.7-0.7,2-2,2.3-3.8c1.9-0.1,3.4-1,4.6-2.7
			c0.1,0,0.1,0.1,0.1,0.1c0.1,0,0.3,0.1,0.3,0.1l0.6,0.3l0.6-0.3c0.7-0.3,1.1-0.7,1.4-1l0,0v0.1c-0.6,1.6-0.9,2.6-0.3,3.6
			c0.6,1,1.6,1.3,2.8,1.7l0,0l0,0c0.3,0.1,0.4,0.3,0.6,0.4l0,0l0,0c0.7,1.9,2.4,3,4.4,3c1.3,0,2.6-0.6,3.3-1.6l0,0l0,0l0.1-0.1l0,0
			c0.6,0.4,1.1,0.7,1.9,0.7s1.4-0.4,1.9-1c0-0.1,0.1-0.1,0.1-0.1c0.1,0.1,0.3,0.1,0.6,0.4c0.7,0.7,1.7,1.1,2.6,1.1
			c0.6,0,1-0.1,1.6-0.4c1.9-1,1.9-3,1.9-3.6c-0.1-1.4,0-2.7,0.6-3.7l0,0l0,0c0.6-1.1,0.4-2.1,0.3-2.7c-0.3-0.6-0.7-1.3-2.1-1.7
			c-0.1,0-0.1-0.1-0.3-0.1h-0.1c-0.3-2.1-1.7-2.3-2.3-2.3c-0.7,0-1.3,0.3-2,0.7c-0.4,0.1-0.6,0.1-0.7,0.1l0,0c0-0.1-0.1-0.3-0.1-0.9
			c0-0.6,0.4-1.1,0.7-1.9c0.1-0.1,0.1-0.3,0.3-0.6l0,0l0,0l0,0c0.6-1.3,1.6-3.1,0.3-5.1l0,0l0,0c0-0.1-0.1-0.1-0.1-0.1
			s0.1-0.1,0.3-0.3c2-1.3,2.7-3.4,1.7-5.3c-0.7-1.3-0.6-2.3,0.7-4c1.7-2.3,2.1-4.8,1-7.3c-0.3-0.7-0.3-1.4,0.4-2.7
			c0.7-1.1,1.3-2.3,0.7-3.6c-0.6-1.1-1.7-1.4-3-1.7c-3-0.7-3.7-1.4-3.7-3.4c0-2-1.4-3.4-3.7-3.4c-0.3,0-0.6,0-0.7,0
			c-0.9,0.1-3.6,0.6-3.8,3.7c-0.1,1.1-0.3,2.6-0.7,3c-0.4,0.4-1.9,0.6-3.1,0.6c-2.1,0-3.4,1.1-3.6,3.3c-0.1,0.6,0,1,0,1.4
			c0,0.1,0,0.3,0,0.4c-0.1,1.6-0.3,1.7-1.7,1.9l0,0l0,0h0.3c-0.7,0.1-2.1,0.3-2.8,1.7c-0.6,1-1.1,1-2.8,1.1
			c-0.1-0.4-0.3-0.9-0.6-1.1c-0.6-0.7-1.4-1.1-2.6-1.3l0,0l0,0c-0.1,0-0.6,0-0.6-1c0-2.1-1.4-3-2.6-3c-0.7,0-1.4,0.3-2,0.7l0,0l0,0
			c-0.3,0.1-0.6,0.4-0.9,0.4s-0.7-0.3-1.3-0.9c-1-1-2-1.4-3.1-1.4c-0.6,0-1.3,0.1-1.9,0.4c0-0.1-0.1-0.3-0.1-0.4
			c-0.6-1.9-0.7-2.6,0-3.4l0,0l0,0c0.4-0.6,0.7-1,0.9-1.6c0.1-0.1,0.1-0.3,0.1-0.4l0.3-0.7l-0.6-1c-0.3-0.4-0.6-0.9-0.7-1
			c-0.1-0.1-0.3-0.3-0.3-0.3c-0.3-1.7-1.3-3.8-5-4.1l0,0c-0.7,0-1.4-0.1-1.6-0.4c-1.3-1.6-3-1.7-4.3-1.7h-0.4c-1.9,0-3.6,0-5.1-1
			c-0.6-0.3-1.1-0.6-1.9-0.6s-1.6,0.3-2.1,0.7c-0.3,0.1-0.6,0.3-0.9,0.3c-0.4,0-0.7-0.3-1.1-0.7l-1.6-1.7l-1,2.1
			c-0.3,0.6-0.7,0.9-1,0.9c-0.1,0-0.1,0-0.1-0.1l0,0l0,0c-1.1-0.7-2.4-1-3.6-1.1c-0.6-0.1-1-0.1-1.4-0.3c0.9-0.7,1.7-2.1,0.9-4.1
			c-1.7-5.1-1.1-10.2,1.7-15.7c1.3-2.4,2.3-5,3-7.7c0.7-2.8,2-4.3,4.1-4.6l0,0l0,0c2-0.3,2.7-1.4,3-2.1c0.3-0.6,0.3-2-1-3.4
			c-0.7-0.9-1-1.7-0.6-3l0,0l0,0c0.3-1.3,0.6-2.6-0.3-3.6c-0.7-1-2.1-1-3.6-1c-0.1,0-0.1,0-0.3,0c-0.1,0-0.3,0-0.4,0s-0.1,0-0.3,0
			c-0.1,0-0.1,0-0.1,0c-0.1-0.4-0.4-0.7-0.6-1.1c-0.7-1.3-1.3-2.3-1.3-3.6c0-2.1-1.1-3.8-3.1-5.1c-2.6-1.4-5.1-3-7.5-5
			c-1.1-1-2.7-1.6-4.3-1.6c-0.4,0-0.9,0-1.1,0.1c-0.3,0-0.6,0.1-0.9,0.1c-0.7,0-1.7-0.3-2.6-1.9l0,0l0,0c-0.6-0.9-1.1-1.6-1.9-2.3
			c-0.6-0.6-1.4-1.3-2.6-1.3c-0.4,0-0.7,0.1-1.1,0.3c-0.6,0.3-1.3,0.4-2.3,0.4c-0.3,0-0.7,0-1,0c-0.4,0-0.7,0-1.1,0
			c-0.3,0-0.7,0-1,0l0,0c-0.1,0-0.3,0-0.6-0.1c-0.3-0.1-0.7-0.1-1.1-0.1c-0.6,0-1.1,0.1-1.6,0.3c-0.1,0.1-0.3,0.1-0.3,0.1
			s-0.1-0.1-0.4-0.4c-0.6-1-1.4-2.6-3.3-2.7c-1.1-0.1-2.1-0.1-3-0.1c-4.3,0-7.5,0.9-10.2,2.7c-0.6,0.4-0.9,0.6-1,0.6
			c0,0-0.1,0-0.1-0.1l-0.1-0.1c-1-1-1-1.1-0.7-1.6c0.7-1.3,0.7-2.3,0.3-3.3c-0.6-0.9-1.6-1.3-3-1.3h-0.1l0,0
			c-0.4-1.9-0.9-3.4-2.7-3.4c-0.7,0-1.4,0.3-2.6,0.9c-0.1,0-0.3,0-0.6,0c-0.9,0-2.4,0.3-2.8,2.7c0,0.1,0,0.3-0.1,0.4
			c-0.1-0.3-0.3-0.6-0.3-0.9c0-0.3,0.1-0.6,0.3-0.7l0,0l0,0c0.6-0.6,1.6-1.6,1.6-3.4v-1.4l-1.4-0.1c-2.4-0.1-3.1-1-3.4-2.3
			c-0.1-0.6-0.4-1-0.6-1.1l0,0l0,0v-0.1c-0.3-0.3-1.3-1.4-2.7-1.4c-0.1,0-0.4,0-0.6,0.1l0,0l0,0c-0.7,0.1-1.3,0.6-1.6,1
			c-0.3-0.4-0.6-0.7-1.3-1.1C237.9,40.5,237.5,40.3,237.1,40.3L237.1,40.3z M231.9,60.8c0.3-0.4,0.6-0.4,0.9-0.4s0.6,0,1,0.1
			c0.3,0.1,0.6,0.1,1,0.1c0.1,0,0.3,0,0.4,0c-0.1,0.3-0.3,0.7-0.3,1.1c0,0.3-0.1,0.4-0.1,0.6c-0.1-0.1-0.3-0.1-0.6-0.4
			C233.2,61.5,232.5,61.1,231.9,60.8L231.9,60.8z"/>
	</g>
</g>
<rect y="16.6" class="st3" width="400" height="300"/>
<g>
	
		<ellipse transform="matrix(0.6003 -0.7998 0.7998 0.6003 4.1153 136.6859)" class="st5" cx="138.8" cy="64.2" rx="20.7" ry="37.8"/>
	
		<ellipse transform="matrix(0.6165 -0.7874 0.7874 0.6165 5.8827 134.7427)" class="st6" cx="141.3" cy="61.3" rx="18.3" ry="37.7"/>
	
		<ellipse transform="matrix(0.6165 -0.7874 0.7874 0.6165 5.8827 134.7427)" class="st7" cx="141.3" cy="61.3" rx="14.7" ry="30.2"/>
	<path class="st5" d="M130.9,59.2c-0.4,1.9,1.9,5,5,6.9c1.9,1.2,3.9,1.6,5.1,1.2l0.6-0.2l0.8,0.8c0.8,0.8,1.7,1.5,2.7,2.1
		c3.1,1.9,5.9,1.8,6.3-0.1l0.1-0.6l3.2,2c0.7,0.4,1.3,0.4,1.4,0s-0.4-1.1-1.1-1.5l-3.2-2l0.5-2.6l3.2,2c0.7,0.4,1.3,0.4,1.3,0
		c-0.1-0.6-0.5-1.2-1.1-1.5l-3.2-2l0.4-2c0.1-0.4-0.4-1.1-1.1-1.5s-1.3-0.4-1.3,0l-0.4,2L134.8,53l0.4-2c0.1-0.4-0.4-1.1-1.1-1.5
		s-1.3-0.4-1.3,0l-0.4,2l-3.2-2c-0.7-0.4-1.3-0.4-1.4,0s0.4,1.1,1.1,1.5l3.2,2l-0.5,2.7l-3.2-2c-0.7-0.4-1.3-0.4-1.3,0
		c0.1,0.6,0.5,1.2,1.1,1.5l3.2,2C131.4,57.2,130.9,59.2,130.9,59.2z M149.8,63.8l-0.9,4.8c-0.2,1.1-1.8,1.1-3.6,0.1s-3.1-2.9-2.9-4
		l0.9-4.8L149.8,63.8z M134.5,54.5l6.4,3.9l-1.1,6.2c-0.2,1.1-1.8,1.1-3.6,0.1c-1.8-1-3.1-2.8-2.9-4L134.5,54.5z"/>
</g>
<g>
	
		<ellipse transform="matrix(0.5509 -0.8346 0.8346 0.5509 21.3648 324.1646)" class="st8" cx="311.9" cy="142.2" rx="44.8" ry="21.7"/>
	
		<ellipse transform="matrix(0.5509 -0.8346 0.8346 0.5509 22.509 321.0934)" class="st9" cx="309.6" cy="139.6" rx="43.9" ry="20.1"/>
	
		<ellipse transform="matrix(0.5509 -0.8346 0.8346 0.5509 22.509 321.0934)" class="st10" cx="309.6" cy="139.6" rx="35.2" ry="16.1"/>
	<path class="st11" d="M314.3,133l6.2-7.6c-0.9-0.6-1.6-1-2.4-1.6c-0.4-0.3-0.8,0-1.3,0.7c-2.1,2.4-4.1,4.8-6.1,7.3
		c-1.3,1.6-2.2,2.2-3.3,2.3c-1.4,0.1-1.6,0.2-2.8,2.6l2-0.2c-2.1,2.7-4.2,4.9-6.2,7.5l8.4,5.5c0.2,0.1,0.4,0.1,0.7-0.3
		c1-1.1,2-2.3,3.2-3.5l-5.8-3.8c1.2-1.4,2.3-2.6,3.3-4c1.3-1.7,2.3-2.4,3.4-2.4c1.4,0,1.5-0.2,2.8-2.6L314.3,133z"/>
</g>
<g>
	<ellipse class="st12" cx="124.9" cy="221.3" rx="47.5" ry="54.6"/>
	<ellipse class="st13" cx="119.1" cy="219.5" rx="45.8" ry="52.9"/>
	<ellipse class="st12" cx="119.1" cy="219.5" rx="36.7" ry="42.4"/>
	<path class="st13" d="M127.1,195c4.9,0,8.7,4.1,8.9,10c0.2,5.4-3.4,9.9-7.7,10.5c-0.6,0.1-1.3,0.2-1.9,0.1c-2-0.2-3.7,1.2-3.9,3.2
		v0.6c0,2.4,1.5,4.1,3.6,4c4.4-0.2,8.2,3,9.2,7.9c1,3.8-0.2,7.7-3,10.4c-2.3,2.6-6.2,3.2-9.2,1.5c-3.4-1.6-5.1-4.7-5.4-8.9
		c-0.1-2,0.3-4,1.1-5.8c0.7-1.5,0.4-3.3-0.8-4.5c-1-1.1-2.5-1.3-3.8-0.6c-0.5,0.4-1,0.8-1.3,1.4c-2.3,3.7-5.4,5.2-9.2,4.3
		s-6.2-3.8-7-8.3c-1.2-6.3,3.7-12.6,9.3-12.1c3.6,0.3,6.2,2.4,7.8,6.2c0.5,1.6,2.2,2.5,3.8,2.1c0.1,0,0.1,0,0.2-0.1
		c0.2-0.1,0.3-0.1,0.5-0.2c1.8-1.1,2.5-3.5,1.5-5.4c-0.9-1.7-1.5-3.6-1.6-5.5C118,199.7,121.9,195.1,127.1,195z"/>
</g>
<g>
	<path class="st14" d="M296.8,22.3c1.9,0.5,3.9,1.1,5.7,1.9l0.4,0.1c0.2,0.2,0.5,0.4,0.8,0.5l0.2,0.1c0.4,0.8,1.6,1.2,2.4,1.9
		c0.5,0.4,0.4,0.9,1.2,1c0.5,1.1,1.5,2.3,2,3.6c-0.1,0.1,0,0.2,0.1,0.3h0.1c0.1,0.8,0.2,1.6,0.5,2.4c0,0-0.4,0.1-0.1,0.2
		c-0.1,2-0.6,4-1.4,5.9c-1,1.2-1.7,3.1-3,4.3c-9.8,12.7-43.3,19.2-51.8,4.3c0.1-0.2-0.3-0.2-0.3-0.5s0.2-0.4-0.1-0.5
		c-0.9-0.9-0.5-3.5-0.8-4.4c0.1-0.3,0.1-0.6,0-0.9c0.2-0.5,0.2-1.1,0.6-1.5c0.3-1.2,0.7-2.3,1.2-3.4c0.3-0.3,0.5-0.6,0.7-1
		c1.4-2,3-3.7,4.9-5.2c0.1-0.4,0.8-0.4,0.7-0.9c0.1,0.1,0.2,0,0.3-0.1v-0.1c2.1-1.4,4.7-2.9,7-4.3c0.2,0,0.5-0.1,0.6-0.3
		c3.9-1.5,8-2.8,12.1-3.7c0.5,0.1,1.1,0,1.5-0.3c1.2,0,2.4-0.1,3.6-0.4c0.2,0,0.4,0.2,0.5-0.1c1.1,0.3,2.5-0.1,3.7,0.1
		c0.3-0.3,0.7,0.2,1-0.2c0.2,0.1,0.2-0.1,0.4-0.1c0.1,0.5,0.5,0.2,0.8,0.2C293.6,22.1,295.1,21.7,296.8,22.3z M303.9,40.5
		c5.6-9.3-3.9-15.2-11.8-16.1c-20-2.1-39.9,12.3-33.6,22.9c3,5.9,11,6.8,17.1,7.1c10.6-0.7,22.1-4.3,28.2-13.5L303.9,40.5z"/>
	<path class="st15" d="M303.8,40.9c-6.1,9.3-17.7,12.8-28.2,13.5c-6-0.3-14.1-1.2-17.1-7.1c-0.5-3,0.1-6,1.7-8.6
		c5.1-6.8,12-9.3,19.1-11.5c3.5-0.2,7.4-1.3,11-0.6c7.5,0.1,17,5.2,13.6,13.8C303.7,40.4,303.4,40.8,303.8,40.9z M281.9,33.8
		C282.2,33.9,282.1,33.3,281.9,33.8c-4.3,0.2-8.5,0.7-12.9,1.1l5.4,6.7c0.4-1.6,0.6-3.4,0.9-4.9C277.6,35.8,279.7,34.9,281.9,33.8z
		 M286.2,33.2c-3.1,0.9-6.3,2.7-9.5,3.9c-0.3,0.9-0.5,1.9-0.6,2.9c-0.3,1.2-0.5,2.4-0.7,3.6c0.2,0.2,0.4-0.1,0.6,0
		c6.3-0.3,12.9-0.5,19.3-1.1C292.4,39.5,289.5,35.8,286.2,33.2z"/>
	<path class="st15" d="M310.8,35.5l-0.1,0.2c0,1.2,0.2,2.4,0.6,3.6c-0.2,0.5,0.1,1.1-0.2,1.6c0.1,1.9-1,3.7-1.6,5.6
		c-1.5,2-3.1,4-4.9,5.8c-0.1,0-0.2,0-0.2,0.1v0.1c-1.2,0.6-2.4,2.1-3.8,2.7c-1.2,0.9-2.8,1.2-3.6,2.3c-0.1-0.1-0.2,0-0.3,0.1v0.1
		c-0.4-0.2-0.8,0-1,0.4c-0.1,0-0.2,0-0.3,0.2c-0.4-0.2-0.8,0-1,0.4c-0.1-0.1-0.2,0-0.3,0.2c-0.1-0.1-0.2,0-0.3,0.1v0.1
		c-0.3-0.1-0.5,0-0.7,0.2l0,0c-0.5-0.1-0.6,0-0.8,0.5c-3.2,0.7-6.6,1.9-10,2.5c-0.8,0.1-2.5-0.1-3.1,0.5c-1.5-0.3-3.4,0.3-5.1-0.1
		c-0.4,0.3-0.8-0.2-1.1,0.1c-4-0.5-8.1-1.1-11.6-3c-1.2-0.6-2.4-1.8-3.7-2.4c0-0.5-0.5-0.7-1-1.2c-1.5-2.1-2.4-4.6-2.6-7.2
		c9.4,15.6,43.1,7.4,51.7-4.5c1.3-1.1,2.1-2.9,3-4.3c0.8-1.9,1.3-3.9,1.4-5.9c0.5,0.3,0.3,0.9,0.4,1.3L310.8,35.5z"/>
	<path class="st16" d="M303.9,40.5c3.4-9-6.6-13.6-13.6-13.8c-3.6-0.7-7.4,0.4-11,0.6c-7.6,2.2-14.4,5.2-19.1,11.5
		c-1,1.8-1.7,3.8-2,5.8c-0.1,1,0.5,1.7,0.2,2.8c-2.5-3.9-0.6-8.5,2.1-11.9c7.9-9.1,21.7-12,31.5-11C302.8,25.8,308.6,33,303.9,40.5z
		"/>
	<path class="st16" d="M303.8,40.9c-0.1,0-0.2-0.2-0.2-0.3s0.2-0.2,0.3-0.2L303.8,40.9z"/>
	<path class="st14" d="M286.3,33.2c3.2,2.6,6,6.2,9.2,9.2c-6.2,0.6-12.9,0.8-19.3,1.1c2-1.7,5.4-3,7.9-4.3
		C284.8,37.3,285.5,35.3,286.3,33.2z"/>
	<path class="st17" d="M286.3,33.2c-0.7,2-1.5,3.9-2.2,6.1c-2.5,1.3-5.7,2.5-7.9,4.3c-0.2-0.1-0.4,0.3-0.6,0
		c0.2-1.2,0.4-2.4,0.7-3.6c0.1-1,0.3-2,0.6-2.9C279.9,36,283.2,34.1,286.3,33.2z"/>
	<path class="st14" d="M281.9,33.9l-6.6,2.8c-0.3,1.4-0.5,3.2-0.9,4.9l-5.4-6.7C273.4,34.6,277.6,34,281.9,33.9z"/>
</g>
<path class="st18" d="M47.3,18.1c7.2,7,7.3,18.5,0.3,25.7l0,0l-0.3,0.3c-7.2,7.2-18.9,7.3-26.1,0.1C14,37,13.9,25.3,21.1,18.1
	S40,10.8,47.2,18L47.3,18.1z M41.3,38.1c1.9-1.8,2.9-4.4,2.9-7c0.1-2.6-1-5.1-2.9-6.9c-1.9-1.9-4.4-2.9-7.1-2.8
	c-5.3-0.1-9.7,4.2-9.8,9.5v0.2c0,2.6,1,5.1,2.8,7s4.3,2.9,6.9,2.9C36.8,41.1,39.4,40,41.3,38.1z M83.5,20.4L35.8,94.5
	C35,96,33.4,97,31.7,96.9c-2.7-0.1-4.9-2.3-5-5c0.1-1,0.4-2,0.9-2.9l47.8-74.2c0.8-1.5,2.4-2.5,4.1-2.4c1.4,0,2.7,0.5,3.6,1.5
	c1,0.9,1.5,2.3,1.4,3.6C84.4,18.5,84.1,19.5,83.5,20.4L83.5,20.4z M63.7,91.5c-7.2-7.2-7.2-18.8,0-26l0.1-0.1
	c3.4-3.4,8.1-5.3,12.9-5.4c10.2-0.1,18.4,8.1,18.5,18.3s-8.1,18.4-18.3,18.5C72,97,67.2,95,63.7,91.5z M69.7,71.5
	c-3.9,3.7-4,9.8-0.3,13.7l0.1,0.1l0.2,0.2c3.8,3.8,9.9,3.9,13.7,0.1c2-1.9,3-4.6,2.9-7.4c-0.2-5.2-4.4-9.4-9.6-9.6
	C74.1,68.6,71.6,69.7,69.7,71.5L69.7,71.5z"/>
</svg>
