<?xml version="1.0" encoding="utf-8"?>
<!-- Generator: Adobe Illustrator 22.0.1, SVG Export Plug-In . SVG Version: 6.00 Build 0)  -->
<svg version="1.1" id="Layer_1" xmlns="http://www.w3.org/2000/svg" xmlns:xlink="http://www.w3.org/1999/xlink" x="0px" y="0px"
	 viewBox="0 0 67.2 12.9" style="enable-background:new 0 0 67.2 12.9;" xml:space="preserve">
<style type="text/css">
	.st0{fill:#FFD600;}
</style>
<g>
	<g>
		<path class="st0" d="M39.8,5.3L37,8.1l0.7,3.9c0,0,0,0.1,0,0.1c0,0.2-0.1,0.4-0.3,0.4c-0.1,0-0.1,0-0.2,0l-3.5-1.8l-3.5,1.9
			c0,0-0.1,0-0.2,0c-0.1,0-0.1,0-0.2-0.1c-0.1-0.1-0.2-0.2-0.1-0.3l0.7-3.9l-2.8-2.8c-0.1-0.1-0.1-0.2-0.1-0.4
			c0-0.1,0.2-0.2,0.3-0.2l3.9-0.6l1.7-3.6c0.1-0.1,0.2-0.2,0.3-0.2s0.3,0.1,0.3,0.2l1.8,3.6l3.9,0.6c0.1,0,0.2,0.1,0.3,0.2
			C39.9,5.1,39.9,5.2,39.8,5.3z"/>
	</g>
	<g>
		<path class="st0" d="M26.8,5.3L24,8.1l0.7,3.9c0,0,0,0.1,0,0.1c0,0.2-0.1,0.4-0.3,0.4c-0.1,0-0.1,0-0.2,0l-3.5-1.8l-3.5,1.9
			c0,0-0.1,0-0.2,0c-0.1,0-0.1,0-0.2-0.1c-0.1-0.1-0.2-0.2-0.1-0.3l0.7-3.9l-2.8-2.8c-0.1-0.1-0.1-0.2-0.1-0.4
			c0-0.1,0.2-0.2,0.3-0.2l3.9-0.6l1.7-3.6c0.1-0.1,0.2-0.2,0.3-0.2s0.3,0.1,0.3,0.2l1.8,3.6l3.9,0.6c0.1,0,0.2,0.1,0.3,0.2
			C26.9,5.1,26.9,5.2,26.8,5.3z"/>
	</g>
	<g>
		<path class="st0" d="M65.8,5.3L63,8.1l0.7,3.9c0,0,0,0.1,0,0.1c0,0.2-0.1,0.4-0.3,0.4c-0.1,0-0.1,0-0.2,0l-3.5-1.8l-3.5,1.9
			c0,0-0.1,0-0.2,0c-0.1,0-0.1,0-0.2-0.1c-0.1-0.1-0.2-0.2-0.1-0.3l0.7-3.9l-2.8-2.8c-0.1-0.1-0.1-0.2-0.1-0.4
			c0-0.1,0.2-0.2,0.3-0.2l3.9-0.6l1.7-3.6c0.1-0.1,0.2-0.2,0.3-0.2s0.3,0.1,0.3,0.2l1.8,3.6l3.9,0.6c0.1,0,0.2,0.1,0.3,0.2
			C65.9,5.1,65.9,5.2,65.8,5.3z"/>
	</g>
	<g>
		<path class="st0" d="M52.8,5.3L50,8.1l0.7,3.9c0,0,0,0.1,0,0.1c0,0.2-0.1,0.4-0.3,0.4c-0.1,0-0.1,0-0.2,0l-3.5-1.8l-3.5,1.9
			c0,0-0.1,0-0.2,0c-0.1,0-0.1,0-0.2-0.1c-0.1-0.1-0.2-0.2-0.1-0.3l0.7-3.9l-2.8-2.8c-0.1-0.1-0.1-0.2-0.1-0.4
			c0-0.1,0.2-0.2,0.3-0.2l3.9-0.6l1.7-3.6c0.1-0.1,0.2-0.2,0.3-0.2s0.3,0.1,0.3,0.2l1.8,3.6l3.9,0.6c0.1,0,0.2,0.1,0.3,0.2
			C52.9,5.1,52.9,5.2,52.8,5.3z"/>
	</g>
	<g>
		<path class="st0" d="M13.8,5.3L11,8.1l0.7,3.9c0,0,0,0.1,0,0.1c0,0.2-0.1,0.4-0.3,0.4c-0.1,0-0.1,0-0.2,0l-3.5-1.8l-3.5,1.9
			c0,0-0.1,0-0.2,0c-0.1,0-0.1,0-0.2-0.1c-0.1-0.1-0.2-0.2-0.1-0.3l0.7-3.9L1.4,5.4C1.3,5.3,1.3,5.1,1.3,5c0-0.1,0.2-0.2,0.3-0.2
			l3.9-0.6l1.7-3.6c0.1-0.1,0.2-0.2,0.3-0.2s0.3,0.1,0.3,0.2l1.8,3.6l3.9,0.6c0.1,0,0.2,0.1,0.3,0.2C13.9,5.1,13.9,5.2,13.8,5.3z"/>
	</g>
</g>
<g>
</g>
<g>
</g>
<g>
</g>
<g>
</g>
<g>
</g>
<g>
</g>
<g>
</g>
<g>
</g>
<g>
</g>
<g>
</g>
<g>
</g>
<g>
</g>
<g>
</g>
<g>
</g>
<g>
</g>
</svg>
