<svg xmlns="http://www.w3.org/2000/svg" viewBox="0 0 70.99 76.8"><defs><style>.a{fill:#bfa161;}</style></defs><path class="a" d="M71,13.86C71,10.4,69.67,8,66.93,6.55a8.69,8.69,0,0,0-4.15-.77c-1.72,0-3.45,0-5.23,0H55.76V5.2c0-.75,0-1.46,0-2.17a2.91,2.91,0,0,0-2.89-3h0A2.94,2.94,0,0,0,50,3c0,.38,0,.75,0,1.13a9.52,9.52,0,0,1,0,1.52H21c0-.2,0-.39,0-.58,0-.79,0-1.54,0-2.29A2.86,2.86,0,0,0,18,0a2.89,2.89,0,0,0-2.77,3c0,.7,0,1.41,0,2.18v.61H13.11c-1.84,0-3.62,0-5.39,0C3,5.87,0,8.88,0,13.65v55c0,5.28,2.92,8.19,8.22,8.19H62.66c5.37,0,8.32-3,8.33-8.37V29.15Q71,21.5,71,13.86Zm-55.76.42a2.89,2.89,0,1,0,5.78,0c0-.59,0-1.18,0-1.77,0-.3,0-.59,0-.88H49.92a8.57,8.57,0,0,1,0,1.53c0,.36,0,.72,0,1.09.1,1.9,1.2,3.08,2.88,3.08h0a2.9,2.9,0,0,0,2.86-3.16c0-.66,0-1.32,0-2v-.56a3.57,3.57,0,0,1,1.09-.05l.6,0c2.25,0,4.24,0,6.09,0,.71,0,1.56.26,1.58,1.37,0,2.51,0,5,0,7.57v2.53H5.85V20.57c0-2.65,0-5.14,0-7.7a1.19,1.19,0,0,1,1.28-1.23c2,0,4,0,6.07,0h2v.51C15.22,12.86,15.21,13.57,15.23,14.28ZM5.83,29.53a1.49,1.49,0,0,1,0-.48H65.15a2.24,2.24,0,0,1,0,.53c0,.13,0,.25,0,.37q0,18.55,0,37.11v1.61c0,1.92-.33,2.26-2.25,2.26H8.05c-1.86,0-2.21-.34-2.21-2.17q0-19.43,0-38.85C5.85,29.78,5.84,29.66,5.83,29.53Z"/><polygon class="a" points="35.5 33.88 40.18 43.38 50.66 44.9 43.08 52.29 44.87 62.72 35.5 57.8 26.13 62.72 27.92 52.29 20.33 44.9 30.81 43.38 35.5 33.88"/></svg>