<?xml version="1.0" encoding="utf-8"?>
<!-- Generator: Adobe Illustrator 24.3.0, SVG Export Plug-In . SVG Version: 6.00 Build 0)  -->
<svg version="1.1" id="Layer_1" xmlns="http://www.w3.org/2000/svg" xmlns:xlink="http://www.w3.org/1999/xlink" x="0px" y="0px"
	 viewBox="0 0 400 300" style="enable-background:new 0 0 400 300;" xml:space="preserve">
<style type="text/css">
	.st0{fill:#FFFFFF;stroke:#EAEAEA;stroke-miterlimit:10;}
	.st1{fill:#666666;}
	.st2{fill:none;stroke:#DCF1F4;stroke-width:2.8346;stroke-miterlimit:10;}
	.st3{fill:#66CC00;}
	.st4{fill:#C98017;}
	.st5{fill:#F3A61A;}
	.st6{fill:none;stroke:#BFA161;stroke-miterlimit:10;}
	.st7{fill:none;}
	.st8{fill:#F3F2EF;}
	.st9{fill:#FAC742;}
	.st10{fill:#E0AA2F;}
	.st11{fill:#3D3C3E;}
	.st12{fill:#F9DEC3;}
	.st13{fill:#DBBFA7;}
	.st14{fill:#FADFC4;}
	.st15{fill:#E2C8B4;}
</style>
<g>
	<g>
		
			<rect x="187.7" y="62.4" transform="matrix(0.9867 -0.1625 0.1625 0.9867 -24.1421 45.796)" class="st0" width="160.3" height="216.1"/>
		<path class="st1" d="M225.8,99.2l66.4-10.9c1.1-0.2,1.8-1.2,1.7-2.3l-0.2-1.2c-0.2-1.1-1.2-1.8-2.3-1.7l-66.4,10.9
			c-1.1,0.2-1.8,1.2-1.7,2.3l0.2,1.2C223.7,98.7,224.7,99.4,225.8,99.2z"/>
		<path class="st1" d="M226.4,107.8l80.1-13.2c0.7-0.1,1.1-0.8,1-1.4l-0.1-0.7c-0.1-0.7-0.8-1.1-1.4-1l-80.1,13.2
			c-0.7,0.1-1.1,0.8-1,1.4l0.1,0.7C225.1,107.4,225.7,107.9,226.4,107.8z"/>
		<path class="st1" d="M227.6,114.9l80.1-13.2c0.7-0.1,1.1-0.8,1-1.4l-0.1-0.7c-0.1-0.7-0.8-1.1-1.4-1l-80.1,13.2
			c-0.7,0.1-1.1,0.8-1,1.4l0.1,0.7C226.3,114.6,226.9,115,227.6,114.9z"/>
		<path class="st1" d="M231,131l66.4-10.9c1.1-0.2,1.8-1.2,1.7-2.3l-0.2-1.2c-0.2-1.1-1.2-1.8-2.3-1.7l-66.4,10.9
			c-1.1,0.2-1.8,1.2-1.7,2.3l0.2,1.2C228.9,130.4,229.9,131.2,231,131z"/>
		<path class="st1" d="M231.7,139.5l80.1-13.2c0.7-0.1,1.1-0.8,1-1.4l-0.1-0.7c-0.1-0.7-0.8-1.1-1.4-1l-80.1,13.2
			c-0.7,0.1-1.1,0.8-1,1.4l0.1,0.7C230.4,139.2,231,139.6,231.7,139.5z"/>
		<path class="st1" d="M232.9,146.7l80.1-13.2c0.7-0.1,1.1-0.8,1-1.4l-0.1-0.7c-0.1-0.7-0.8-1.1-1.4-1l-80.1,13.2
			c-0.7,0.1-1.1,0.8-1,1.4l0.1,0.7C231.5,146.3,232.2,146.8,232.9,146.7z"/>
		<path class="st2" d="M213.5,117.2l-20.3,3.3c-1,0.2-1.9-0.5-2-1.5l-2.8-17.2c-0.2-1,0.5-1.9,1.5-2l20.3-3.3c1-0.2,1.9,0.5,2,1.5
			l2.8,17.2C215.1,116.2,214.5,117.1,213.5,117.2z"/>
		<g>
			<g>
				<path class="st3" d="M196.3,109.8c-0.3-0.2-0.3-0.5-0.1-0.8l0.7-0.9c0.2-0.3,0.5-0.3,0.8-0.1l2.9,2l4.4-6.1
					c0.2-0.3,0.5-0.3,0.8-0.1l0.9,0.7c0.3,0.2,0.3,0.5,0.1,0.8l-5.4,7.5c-0.2,0.3-0.5,0.3-0.8,0.1L196.3,109.8z"/>
			</g>
		</g>
		<path class="st2" d="M218.7,149l-20.3,3.3c-1,0.2-1.9-0.5-2-1.5l-2.8-17.2c-0.2-1,0.5-1.9,1.5-2l20.3-3.3c1-0.2,1.9,0.5,2,1.5
			l2.8,17.2C220.4,147.9,219.7,148.8,218.7,149z"/>
		<g>
			<g>
				<path class="st3" d="M201.5,141.6c-0.3-0.2-0.3-0.5-0.1-0.8l0.7-0.9c0.2-0.3,0.5-0.3,0.8-0.1l2.9,2l4.4-6.1
					c0.2-0.3,0.5-0.3,0.8-0.1l0.9,0.7c0.3,0.2,0.3,0.5,0.1,0.8l-5.4,7.5c-0.2,0.3-0.5,0.3-0.8,0.1L201.5,141.6z"/>
			</g>
		</g>
		<path class="st1" d="M236.5,164.1l66.4-10.9c1.1-0.2,1.8-1.2,1.7-2.3l-0.2-1.2c-0.2-1.1-1.2-1.8-2.3-1.7L235.7,159
			c-1.1,0.2-1.8,1.2-1.7,2.3l0.2,1.2C234.4,163.5,235.4,164.3,236.5,164.1z"/>
		<path class="st1" d="M237.1,172.6l80.1-13.2c0.7-0.1,1.1-0.8,1-1.4l-0.1-0.7c-0.1-0.7-0.8-1.1-1.4-1l-80.1,13.2
			c-0.7,0.1-1.1,0.8-1,1.4l0.1,0.7C235.8,172.3,236.5,172.7,237.1,172.6z"/>
		<path class="st1" d="M238.3,179.8l80.1-13.2c0.7-0.1,1.1-0.8,1-1.4l-0.1-0.7c-0.1-0.7-0.8-1.1-1.4-1l-80.1,13.2
			c-0.7,0.1-1.1,0.8-1,1.4l0.1,0.7C237,179.4,237.7,179.9,238.3,179.8z"/>
		<path class="st2" d="M224.2,182.1l-20.3,3.3c-1,0.2-1.9-0.5-2-1.5l-2.8-17.2c-0.2-1,0.5-1.9,1.5-2l20.3-3.3c1-0.2,1.9,0.5,2,1.5
			l2.8,17.2C225.8,181,225.2,181.9,224.2,182.1z"/>
		<g>
			<g>
				<path class="st3" d="M207,174.7c-0.3-0.2-0.3-0.5-0.1-0.8l0.7-0.9c0.2-0.3,0.5-0.3,0.8-0.1l2.9,2l4.4-6.1
					c0.2-0.3,0.5-0.3,0.8-0.1l0.9,0.7c0.3,0.2,0.3,0.5,0.1,0.8l-5.4,7.5c-0.2,0.3-0.5,0.3-0.8,0.1L207,174.7z"/>
			</g>
		</g>
		<path class="st1" d="M241.1,197.4l66.4-10.9c1.1-0.2,1.8-1.2,1.7-2.3l-0.2-1.2c-0.2-1.1-1.2-1.8-2.3-1.7l-66.4,10.9
			c-1.1,0.2-1.8,1.2-1.7,2.3l0.2,1.2C239,196.8,240,197.5,241.1,197.4z"/>
		<path class="st1" d="M241.7,205.9l80.1-13.2c0.7-0.1,1.1-0.8,1-1.4l-0.1-0.7c-0.1-0.7-0.8-1.1-1.4-1l-80.1,13.2
			c-0.7,0.1-1.1,0.8-1,1.4l0.1,0.7C240.4,205.6,241.1,206,241.7,205.9z"/>
		<path class="st1" d="M242.9,213.1l80.1-13.2c0.7-0.1,1.1-0.8,1-1.4l-0.1-0.7c-0.1-0.7-0.8-1.1-1.4-1l-80.1,13.2
			c-0.7,0.1-1.1,0.8-1,1.4l0.1,0.7C241.6,212.7,242.2,213.2,242.9,213.1z"/>
		<path class="st2" d="M228.8,215.4l-20.3,3.3c-1,0.2-1.9-0.5-2-1.5l-2.8-17.2c-0.2-1,0.5-1.9,1.5-2l20.3-3.3c1-0.2,1.9,0.5,2,1.5
			l2.8,17.2C230.4,214.3,229.8,215.2,228.8,215.4z"/>
		<g>
			<g>
				<path class="st3" d="M211.6,208c-0.3-0.2-0.3-0.5-0.1-0.8l0.7-0.9c0.2-0.3,0.5-0.3,0.8-0.1l2.9,2l4.4-6.1
					c0.2-0.3,0.5-0.3,0.8-0.1l0.9,0.7c0.3,0.2,0.3,0.5,0.1,0.8l-5.4,7.5c-0.2,0.3-0.5,0.3-0.8,0.1L211.6,208z"/>
			</g>
		</g>
	</g>
	<g>
		<g>
			<path class="st3" d="M300.6,237c0.9,2.2,1.3,4.6,1.2,7.1c-0.3,10-8.6,17.8-18.5,17.6c-10-0.3-17.9-8.6-17.6-18.5
				c0.3-10,8.6-17.8,18.5-17.6c3.4,0.1,6.6,1.1,9.3,2.9c0.2-0.3,0.4-0.6,0.6-0.8c-2.9-1.9-6.2-3-9.9-3.1
				c-10.5-0.3-19.3,8.1-19.6,18.6c-0.3,10.5,8.1,19.3,18.6,19.6s19.3-8.1,19.6-18.6c0.1-2.7-0.4-5.2-1.4-7.6
				C301.2,236.7,300.9,236.9,300.6,237z"/>
		</g>
		<path class="st3" d="M272.2,244.1l12.4,8.8c0.1,0.1,0.3,0.1,0.5,0.1c0.2,0,0.3-0.1,0.4-0.3l15.7-21.8c0.1-0.1,0.1-0.3,0.1-0.5
			c0-0.2-0.1-0.3-0.3-0.4l-2.7-1.9c-0.1-0.1-0.3-0.1-0.5-0.1c-0.2,0-0.3,0.1-0.4,0.3L284,246.9l-9.1-6.5c-0.3-0.2-0.7-0.1-0.9,0.1
			l-1.9,2.7C271.9,243.5,271.9,243.9,272.2,244.1z"/>
	</g>
</g>
<path class="st4" d="M118.2,179.5c0.4-5.5,3.1-10,6.5-14.2c4.3-5.4,9.3-10,15.7-12.8c2.1-0.9,4.5-1.4,6.9-1.7c2.4-0.3,4.5,0.7,5.7,3
	c0.2,0.4,0.5,0.9,0.9,1.2c3.5,2.7,4.3,4.6,3.1,9c-2.4,8.4-8,14.6-14.6,19.9c-3.6,2.8-7.5,5.2-12,6c-3.2,0.6-6.2,0.2-7.9-3.1
	c-0.2-0.4-0.6-0.9-1-1C118.8,184.4,118.1,182.2,118.2,179.5z M119.7,179.3c0.2,3.7,1.7,5.3,5.4,5c1.6-0.1,3.3-0.4,4.7-1.2
	c3.9-2.4,7.9-4.7,11.3-7.7c5.2-4.6,9.4-10.1,10.8-17.3c0.7-3.5-1.1-5.8-4.6-5.6c-1.7,0.1-3.4,0.4-4.9,1
	c-9.7,4.3-16.7,11.4-21.1,20.9C120.4,176,120.1,177.7,119.7,179.3z"/>
<path class="st5" d="M164.5,203.1c-1,2.8-1.9,5.4-2.9,7.9c-0.2,0.5-1.1,1-1.5,0.9c-2.6-0.6-5.3-1-7.7-2.1c-2.4-1.1-2.3-3.2,0-4.7
	C156,202.9,160.1,202.7,164.5,203.1z"/>
<path class="st5" d="M119.7,179.3c0.5-1.6,0.7-3.3,1.4-4.9c4.5-9.6,11.5-16.6,21.1-20.9c1.5-0.7,3.3-1,4.9-1
	c3.5-0.1,5.3,2.2,4.6,5.6c-1.4,7.1-5.5,12.7-10.8,17.3c-3.4,3-7.4,5.3-11.3,7.7c-1.3,0.8-3.1,1-4.7,1.2
	C121.4,184.7,119.9,183.1,119.7,179.3z"/>
<g>
	<path class="st4" d="M86,146.8c-11.5,0-20.4-6.4-22.9-16.7c-1.3-5.6-0.4-11,2.3-16.1c6.2-11.6,18.3-19.2,31-16.3
		c13.8,3.2,21.3,17.6,17.3,30.8C109.4,139.3,98.1,146.7,86,146.8z"/>
</g>
<path class="st4" d="M151.7,201.2c3.4-1.7,6.9-1.6,10.5-1c4.6,0.7,9,2.1,12.8,4.9c1.3,0.9,2.4,2.2,3.3,3.4c1,1.3,1.1,2.9,0.2,4.4
	c-0.2,0.3-0.3,0.6-0.4,0.9c-0.4,3-1.2,4.1-4.2,4.9c-5.7,1.5-11.2,0.3-16.6-1.8c-2.9-1.1-5.6-2.6-7.6-5c-1.4-1.7-2.2-3.5-0.8-5.7
	c0.2-0.3,0.3-0.6,0.3-1C149.1,203.3,150.1,202.1,151.7,201.2z M152.4,202.1c-2.1,1.4-2.5,2.8-1.1,4.8c0.6,0.9,1.4,1.8,2.3,2.3
	c2.7,1.5,5.5,3,8.4,4c4.5,1.5,9.1,2.1,13.8,0.4c2.3-0.8,3-2.6,1.7-4.6c-0.6-1-1.4-1.9-2.3-2.5c-5.8-4.2-12.3-5.9-19.4-5.3
	C154.5,201.4,153.5,201.8,152.4,202.1z"/>
<path class="st5" d="M152.4,202.1c1.1-0.3,2.2-0.7,3.3-0.8c7.1-0.6,13.6,1.1,19.4,5.3c0.9,0.7,1.7,1.6,2.3,2.5
	c1.3,2,0.5,3.8-1.7,4.6c-4.6,1.6-9.3,1.1-13.8-0.4c-2.9-1-5.6-2.5-8.4-4c-0.9-0.5-1.6-1.4-2.3-2.3
	C149.8,204.9,150.2,203.5,152.4,202.1z"/>
<g>
	<path class="st5" d="M82.8,143.1c-10.6,0-18.9-6.1-21.1-15.6c-1.2-5-0.5-10.1,2.1-15c4.7-9,14.4-14.8,24.6-14.8
		c1.9,0,3.9,0.2,5.7,0.6c6.2,1.4,11.1,5.1,13.8,10.4c2.8,5.3,3,11.5,0.6,17.4C104.5,136.1,94,143.1,82.8,143.1L82.8,143.1z"/>
	<path class="st4" d="M88.4,98.2c1.9,0,3.7,0.2,5.6,0.6c12.5,2.9,18.9,15.2,14,27.1c-4,9.8-14.2,16.6-25.2,16.7c0,0-0.1,0-0.1,0
		c-10.4,0-18.4-5.9-20.6-15.2c-1.2-5.1-0.3-10.1,2.1-14.7C69,103.8,78.7,98.2,88.4,98.2 M88.5,97.2L88.5,97.2
		c-10.4,0-20.2,5.9-25.1,15c-2.7,5.1-3.4,10.2-2.2,15.4c2.3,9.7,10.8,16,21.6,16l0.1,0c11.3,0,22-7.2,26.1-17.3
		c2.5-6.1,2.3-12.4-0.6-17.8c-2.8-5.4-7.8-9.2-14.1-10.6C92.4,97.4,90.4,97.2,88.5,97.2L88.5,97.2z"/>
</g>
<path class="st6" d="M94.2,125.9"/>
<g>
	<path class="st4" d="M87.7,131.7c2.9,0.9,6.1-0.7,7.1-3.6c0.6-1.8,0.2-3.8-1-5.3l-0.6-0.7l0.7-0.7c0.7-0.6,1.3-1.5,1.6-2.4
		c0.9-2.9-0.7-6.1-3.6-7.1l-1-0.3l1-3.1c0.2-0.6-0.1-1.3-0.8-1.5c-0.6-0.2-1.3,0.1-1.5,0.8l-1,3.1l-4-1.3l1-3.1
		c0.2-0.6-0.1-1.3-0.8-1.5c-0.6-0.2-1.3,0.1-1.5,0.8l-1,3.1l-3.1-1c-0.6-0.2-1.3,0.1-1.5,0.8s0.1,1.3,0.8,1.5l3.1,1l-4.7,14.5
		l-3.1-1c-0.6-0.2-1.3,0.1-1.5,0.8c-0.2,0.6,0.1,1.3,0.8,1.5l3.1,1l-1,3.1c-0.2,0.6,0.1,1.3,0.8,1.5c0.6,0.2,1.3-0.1,1.5-0.8l1-3.1
		l4,1.3l-1,3.1c-0.2,0.6,0.1,1.3,0.8,1.5s1.3-0.1,1.5-0.8l1-3.1L87.7,131.7C87.7,131.7,87.7,131.7,87.7,131.7z M83.8,111.8l7.3,2.3
		c1.7,0.5,2.6,2.4,2.1,4.1c-0.5,1.7-2.4,2.6-4.1,2.1l-7.3-2.3L83.8,111.8z M79.1,126.4l2-6.1l9.4,3c1.7,0.5,2.6,2.4,2.1,4.1
		c-0.5,1.7-2.4,2.6-4.1,2.1L79.1,126.4z"/>
</g>
<g>
	<g>
		<path class="st4" d="M130.2,177.5c1.1,1.1,3.6,0.2,5.7-1.9c1.3-1.3,2.1-2.9,2.2-4.2l0-0.6l0.7-0.4c0.7-0.4,1.4-1,2.1-1.6
			c2-2.1,2.8-4.7,1.6-5.8l-0.4-0.3l2.1-2.2c0.4-0.5,0.6-1,0.4-1.2c-0.2-0.2-0.8,0-1.2,0.4l-2.1,2.2l-1.5-1.4l2.1-2.2
			c0.4-0.5,0.6-1,0.4-1.2s-0.8,0-1.2,0.4l-2.1,2.2l-1.2-1.1c-0.2-0.2-0.8,0-1.2,0.4s-0.6,1-0.4,1.2l1.2,1.1l-10,10.5l-1.2-1.1
			c-0.2-0.2-0.8,0-1.2,0.4c-0.4,0.5-0.6,1-0.4,1.2l1.2,1.1l-2.1,2.2c-0.4,0.5-0.6,1-0.4,1.2c0.2,0.2,0.8,0,1.2-0.4l2.1-2.2l1.5,1.4
			l-2.1,2.2c-0.4,0.5-0.6,1-0.4,1.2s0.8,0,1.2-0.4l2.1-2.2L130.2,177.5C130.2,177.5,130.2,177.5,130.2,177.5z M138.2,162.1l2.7,2.6
			c0.6,0.6,0.2,2.1-0.9,3.3c-1.2,1.2-2.6,1.7-3.3,1.1l-2.7-2.6L138.2,162.1z M128.2,172.5l4.2-4.4l3.5,3.4c0.6,0.6,0.2,2.1-0.9,3.3
			s-2.6,1.7-3.3,1.1L128.2,172.5z"/>
	</g>
	
		<rect x="127" y="152.4" transform="matrix(0.7241 0.6896 -0.6896 0.7241 153.383 -46.4851)" class="st7" width="15.5" height="32.2"/>
</g>
<g>
	<g>
		<path class="st4" d="M170.9,209c0.4-0.9-0.6-2.3-2.3-3.1c-1.1-0.5-2.2-0.7-3-0.4l-0.4,0.1l-0.4-0.4c-0.4-0.4-0.9-0.7-1.4-0.9
			c-1.7-0.8-3.5-0.7-3.9,0.3l-0.1,0.3l-1.8-0.8c-0.4-0.2-0.7-0.1-0.8,0.1s0.1,0.5,0.5,0.7l1.8,0.8l-0.6,1.3l-1.8-0.8
			c-0.4-0.2-0.7-0.1-0.8,0.1s0.1,0.5,0.5,0.7l1.8,0.8l-0.4,1c-0.1,0.2,0.1,0.5,0.5,0.7c0.4,0.2,0.7,0.1,0.8-0.1l0.4-1l8.4,3.9
			l-0.4,1c-0.1,0.2,0.1,0.5,0.5,0.7c0.4,0.2,0.7,0.1,0.8-0.1l0.4-1l1.8,0.8c0.4,0.2,0.7,0.1,0.8-0.1c0.1-0.2-0.1-0.5-0.5-0.7
			l-1.8-0.8l0.6-1.3l1.8,0.8c0.4,0.2,0.7,0.1,0.8-0.1c0.1-0.2-0.1-0.5-0.5-0.7l-1.8-0.8L170.9,209C170.9,209,170.9,209,170.9,209z
			 M159.8,207.4l1.1-2.3c0.2-0.5,1.2-0.6,2.2-0.2c1,0.5,1.6,1.3,1.3,1.8l-1.1,2.3L159.8,207.4z M168.2,211.3l-3.6-1.6l1.4-3
			c0.2-0.5,1.2-0.6,2.2-0.2c1,0.5,1.6,1.3,1.3,1.8L168.2,211.3z"/>
	</g>
	
		<rect x="159.2" y="197.8" transform="matrix(0.4189 -0.908 0.908 0.4189 -93.4398 270.2078)" class="st7" width="10.4" height="20.7"/>
</g>
<path class="st8" d="M35.3,247.6c-0.1-0.4-0.4-0.9-0.7-1.5c-0.2-0.4-0.5-0.8-0.8-1.2c-0.2-0.2-0.3-0.5-0.5-0.7
	c1.1-1.2,2.3-2.3,3.5-3.5c0.2-0.2,0.3-0.4,0.5-0.6c0.2-0.2,0.3-0.4,0.5-0.6c0.5-0.5,1-1,1.3-1.6l0,0c0,0,13.6-13.9,22.3-36.4
	c0.1-0.3,0.3-0.5,0.4-0.8c0-0.1,0-0.1,0-0.2c2.2-5.9,4.1-12.3,5.3-19.2c-0.1-0.9,0.2-1.7,0.4-2.6c0.1-1.1,0.3-2.2,0.4-3.3
	c0.7,0,1.2,0.5,1.8,0.7c1.6,0.6,3,0.6,4.5-0.5c1.5-1.1,2-2.4,2-4.2c1,0,1.8,0.3,2.7,0.5c15.1,3.4,29,0.8,41.9-7.8c3-2,5.6-4.4,8.1-7
	c9-9.6,13.8-21.1,14.2-34.3c0.2-5.9-0.6-11.7-2.4-17.2c-1-2.9-2.2-5.8-3.7-8.6c-1.2-2.2-2.6-4.3-4-6.4c-1.5-2.2-3.4-4.1-5.3-6.1
	c-2.5-2.6-5.3-4.8-8.3-6.7c-6.7-4.4-14.1-6.9-22-8.1c-0.5,0-1.1,0.1-1.5-0.3c-0.1,0.2-0.3,0.2-0.4,0.1c-0.5,0.1-1,0-1.5,0
	c-6.4-0.4-12.6,0.4-18.6,2.4c-7.2,2.3-13.6,6-19.3,11.1c-4.5,4.1-8.1,8.8-10.9,14.2c-3.4,6.4-5.3,13.3-5.9,20.5
	c-0.4,4.8,0,9.5,1,14.2c1.1,5.3,2.9,10.3,5.6,15c0.6,1,1.2,2,1.8,3c2,3.1,4.4,6,7.1,8.6c1.3,1.3,2.8,2.6,4.3,3.8
	c-0.2,0.2-0.3,0.3-0.4,0.4c-3.5,1.9-3.1,6.9,0.8,8.4c0.4,0.2,0.9,0.3,1.1,0.7c-1.2,1-2.1,2.2-3.1,3.3c-0.7,0.8-1.3,1.5-2,2.3
	c-1.4,1.8-2.8,3.6-4.3,5.4c0,0-2.3,3.2-5.4,8.1c0,0,0,0,0,0c0,0.1-0.1,0.1-0.1,0.2c-5.7,9.2-13.9,24.2-14.4,36.2
	c-0.5,2.5-1,5.1-1.5,7.7c-0.1,0.5-0.1,1-0.3,1.5c0,1.8-0.4,3.6-0.6,5.4c-0.8,0-1.4-0.1-2.1-0.1c-0.2,0-0.3,0-0.5,0.1
	c0,0-0.1,0.1-0.2,0.1c-2.1,0.8-2.8,1.6-2.7,3.2c0.1,1.5,1,2.6,2,3.5c0.5,0.5,1.1,0.9,1.6,1.3c0.5,0.2,1.1,0.5,1.6,0.7
	c1.7,0.5,3.4,0.6,5.1,0.1C35.1,249.9,35.7,249,35.3,247.6z M61,155.8c-1.2-1-2.3-2-3.2-3.3l0,0c-0.1,0-0.2-0.1-0.3-0.1
	s-0.1-0.2-0.2-0.3c-1.4-1.6-2.8-3.2-3.9-4.9c-3.5-5-5.8-10.6-7-16.6c-0.4-2-0.6-4-0.8-6.1C44.8,111.4,49,100,57.9,90.2
	c1.1-1.2,2.1-2.3,3.4-3.2c0-0.1,0.1-0.2,0.2-0.3c0.1-0.1,0.2-0.1,0.3-0.1c0.1-0.1,0.3-0.2,0.4-0.3c0-0.2,0.2-0.3,0.3-0.3
	c0.8-0.7,1.6-1.4,2.5-1.9c0,0,0,0,0,0c0,0,0,0,0,0c0.1-0.1,0.2-0.2,0.3-0.3c0.1-0.1,0.2-0.1,0.4-0.1c5.7-3.9,11.9-6.4,18.7-7.3
	c13.4-1.9,25.5,1.5,36.1,10c1.2,1,2.3,2.1,3.4,3.2l0,0c0.1,0,0.2,0,0.3,0.1c0.1,0.2,0.3,0.3,0.4,0.5c0.1,0.1,0.2,0.2,0.2,0.3
	c0.7,0.7,1.4,1.5,2.1,2.2c0.5,0.6,1.1,1.3,1.5,2c0,0,0,0,0,0c0.1,0,0.1,0.1,0.1,0.1c0.3,0.3,0.5,0.6,0.6,1c0.1,0,0.1,0,0.1,0.1
	c0,0,0,0.1,0,0.1c3.3,4.7,5.5,9.9,6.7,15.6c0,0.2,0.1,0.4,0.1,0.6c2.4,12.3,0.4,23.5-5.9,33.5c-1.2,2-2.6,3.9-4.2,5.8
	c-1.6,2-3.5,3.7-5.5,5.3c0,0,0,0.1-0.1,0.1c0,0,0,0-0.1,0c-0.9,0.7-1.7,1.3-2.6,2c-0.1,0-0.1,0.1-0.2,0.1
	c-8.6,5.9-18.1,8.7-28.5,8.1c-1.2-0.1-2.4-0.2-3.6-0.3C76.2,165.7,68.1,162,61,155.8z"/>
<g>
	<path class="st9" d="M193.1,41c4-1.2,8-2.5,12.1-3.7c4.4-1.3,8.8-2.5,13.1-3.8c3.5-1,6.9-2.1,10.4-3.2c2.4-0.7,4.9-1.4,7.3-2.1
		c0.8-0.1,1.5-0.1,2.1-0.7c2.4-0.7,4.9-1.3,7.3-2c0.2,0.6,0.4,1.3,0.5,1.9c-5.3,1.6-10.6,3.3-15.9,4.8c-1.6,0.5-1.8,1.2-1.3,2.6
		c0.5,1.4,0.9,2.9,1.3,4.3c-0.3,0.9,0,1.9,0.2,2.7c1.2,5,2.4,10,3.7,15c0.4,1.4,0,1.8-1.2,1.9c-1.7,0.2-3.3,0.3-5,0.4
		c-5.9,0.5-11.8,1.1-17.8,1.7c-4.1,0.4-8.2,0.9-12.2,1.3c-7.4,0.7-14.8,1.4-22.3,2.1c-1.3-3.8-2.6-7.7-3.4-11.6
		c-0.6-3,0.5-5.1,3.4-6.1c4-1.4,8.1-2.5,12.1-3.7C189.5,42.2,191.3,41.6,193.1,41z"/>
	<path class="st10" d="M175.5,64.2c7.4-0.7,14.8-1.3,22.3-2.1c4.1-0.4,8.2-0.9,12.2-1.3c5.9-0.6,11.8-1.1,17.8-1.7
		c1.7-0.2,3.3-0.3,5-0.4c1.2-0.1,1.6-0.5,1.2-1.9c-1.4-5-2.5-10-3.7-15c-0.2-0.9-0.5-1.8-0.2-2.7c2,6.5,3.9,12.9,5.9,19.4
		c0.6,2.1,1.2,4.2,1.7,6.3c-0.7,0.2-1.3,0.4-2,0.5c-18.5,3.1-37.1,6.3-55.6,9.4c-0.6,0.1-1.3,0.1-1.9,0.2c-0.1-3.1-1.6-5.9-2.2-8.8
		C175.9,65.4,175.7,64.8,175.5,64.2z"/>
	<path class="st11" d="M237.5,19.8c2.4-1.5,4.9-1.6,7.4-0.1c1.5,1.3,2.2,3,2.7,4.9c0.2,0.7,0.5,1.5,0.7,2.2c0.5,1.7,1,3.4,1.5,5
		c0.1,0.3,0.2,0.7,0.3,1c0.6,1.9,1.2,3.8,1.8,5.8c0.1,0.4,0.2,0.9,0.3,1.3c-0.1,2.5-0.9,3.9-2.8,4.5c-2,0.6-3.4,0-5-2.1
		c-0.1-0.3-0.2-0.7-0.4-1c-0.5-1.9-1.1-3.8-1.6-5.7c-0.1-0.2-0.2-0.5-0.3-0.7c-0.1-0.2-0.1-0.5-0.2-0.7c-0.2-0.6-0.3-1.1-0.5-1.7
		c0,0,0.1-0.1,0-0.1c0-0.1-0.1-0.2-0.2-0.2c-0.6-1.8,0.8-1.4,1.8-1.7c1.1,3.3,2.1,6.6,3.1,9.8c0.2,1.4,0.7,2.6,2.4,2.1
		c1.4-0.4,1.7-1.4,1-2.7c-1-4.2-2.3-8.2-3.6-12.3c-0.2-0.6-0.4-1.3-0.5-1.9c-0.2-0.8-0.4-1.6-0.7-2.3c-0.9-2-2.9-2.8-4.9-2
		c-1.8,0.7-2.8,2.7-2.3,4.7c0.2,0.6,0.4,1.1,0.5,1.6c-0.6,0.6-1.4,0.6-2.1,0.7c-0.6-1.7-1-3.3-0.6-5.1
		C235.9,21.8,236.6,20.7,237.5,19.8z"/>
	<path class="st9" d="M333,36.5c1.7,5.5,3.3,11.1,5,16.6c0.5,1.6,0.4,3.2-0.2,4.7c-0.8,0.8-1.5,1.7-2.3,2.5
		c-1.1,0.5-1.7,1.7-2.7,2.3c-0.6-3.6-1.3-7.3-1.9-10.9c-0.1-0.7-0.1-1.4-0.6-1.9c-1.9-0.1-49.1,4.5-53.9,4.7c0-0.1-0.1-0.3-0.1-0.4
		c-0.2-0.5-0.3-1.1-0.5-1.6c0.1-0.3,0.1-0.5-0.2-0.7c-0.5-1.7-1.1-3.4-1.6-5.1c-2.4-8-4.8-16.1-7.2-24.1c-0.2-0.7-0.4-1.3-1.4-1
		c-5.6,1.7-11.3,3.4-16.9,5.2c-0.2-0.7-0.5-1.5-0.7-2.2c2.4-0.7,4.9-1.3,7.3-2.1c5.6-1.7,11.2-3.4,16.8-5.2c3.4-1,6.8-1.9,10.2-2.9
		c7.6-2.3,15.2-4.6,22.8-6.8c4.4-1.3,8.8-2.6,13.2-3.8c3.4-1,5.9,1.7,6.6,4.1c0.8,2.8,1.7,5.7,2.5,8.5C328.9,23,330.9,29.8,333,36.5
		z"/>
	<path class="st12" d="M239.7,57.9c-1.2,0.2-2.5,0.4-3.7,0.6c-2-6.5-3.9-12.9-5.9-19.4c-0.4-1.4-0.8-2.9-1.3-4.3
		c-0.5-1.4-0.3-2.2,1.3-2.6c5.3-1.5,10.6-3.2,15.9-4.8c1.4,4,2.7,8.1,3.6,12.3c-1.1,0.2-2.3,0.4-3.4,0.6c-1-3.2-2-6.4-3.1-9.8
		c-1,0.3-2.4,0-1.8,1.7c0,0,0,0.1,0,0.1c0,0.1,0.1,0.2,0.1,0.2c0.2,0.6,0.3,1.1,0.5,1.7c-2.8,1-5.8,1.5-8.8,3
		c1.4,0.6,2.3,0.2,3.2-0.1c1.9-0.5,3.8-1.4,5.8-1.5l0.1,0l0.1,0c0.5,1.9,1.1,3.8,1.6,5.7c-2.5,0.3-4.9,1.4-7.3,2
		c-0.5,0.1-1.2,0.2-0.9,0.9c0.2,0.7,0.8,0.3,1.3,0.2c2.4-0.7,4.8-1.7,7.3-2.1c1.6,2.1,3,2.7,5,2.1c1.8-0.6,2.7-1.9,2.8-4.5
		c4.2-1.3,8.4-2.6,12.5-3.9c0.6-0.2,1.5-0.1,1.2-1.4c-4.8,1.4-9.4,2.7-14.1,4c-0.6-1.9-1.2-3.8-1.8-5.8c4.8-1.2,9.5-2.6,14.4-4.4
		c-1-0.9-1.5-0.5-2.1-0.3c-4.2,1.2-8.4,2.5-12.6,3.7c-0.5-1.7-1-3.4-1.5-5c5.6-1.7,11.3-3.4,16.9-5.2c1-0.3,1.2,0.3,1.4,1
		c2.4,8,4.8,16.1,7.2,24.1c0.5,1.7,1.1,3.4,1.6,5.1c0.1,0.2,0.1,0.4,0.2,0.7c0.2,0.5,0.3,1.1,0.5,1.6c-3.5,0.9-7.1,0.9-10.6,1.3
		c-5.6,0.6-11.3,1.1-16.9,1.6c-1.8,0.2-3.6,0.3-5.3,0.5c0.2-0.1,0.4-0.3,0.6-0.4c8.2-2.5,16.4-4.9,24.6-7.4c0.7-0.2,1.6-0.3,1.8-1.2
		c-0.5-0.4-0.9-0.2-1.3-0.1c-9.3,2.8-18.7,5.6-28,8.5C240.3,57.1,239.8,57.2,239.7,57.9z M268.3,42.4c-1.5-1-29.7,7.4-30.4,9.1
		C248.1,48.5,258.2,45.5,268.3,42.4z"/>
	<path class="st13" d="M249.8,31.8c4.2-1.2,8.4-2.4,12.6-3.7c0.6-0.2,1.1-0.6,2.1,0.3c-4.9,1.8-9.6,3.2-14.4,4.4
		C250,32.5,249.9,32.2,249.8,31.8z"/>
	<path class="st13" d="M251.9,38.6c4.7-1.3,9.4-2.7,14.1-4c0.2,1.3-0.6,1.2-1.2,1.4c-4.2,1.3-8.4,2.6-12.5,3.9
		C252.1,39.5,252,39,251.9,38.6z"/>
	<path class="st13" d="M242.3,35.6c-2,0.1-3.9,1-5.8,1.5c-0.9,0.2-1.8,0.7-3.2,0.1c3.1-1.5,6-2,8.8-3c0.1,0.2,0.1,0.5,0.2,0.7
		C242.2,35.1,242.2,35.4,242.3,35.6z"/>
	<path class="st13" d="M244.5,42.3c-2.5,0.4-4.9,1.4-7.3,2.1c-0.5,0.1-1.1,0.5-1.3-0.2c-0.2-0.7,0.5-0.8,0.9-0.9
		c2.5-0.6,4.8-1.6,7.3-2C244.2,41.6,244.3,41.9,244.5,42.3z"/>
	<path class="st13" d="M239.7,57.9c0.1-0.6,0.6-0.7,1.2-0.9c9.3-2.8,18.7-5.6,28-8.5c0.4-0.1,0.8-0.3,1.3,0.1c-0.2,1-1,1-1.8,1.2
		c-8.2,2.5-16.4,4.9-24.6,7.4c-0.2,0.1-0.4,0.2-0.6,0.4C242.1,57.7,240.9,57.8,239.7,57.9z"/>
	<path class="st13" d="M268.3,42.4c-10.1,3-20.3,6.1-30.4,9.1C238.7,49.8,266.8,41.4,268.3,42.4z"/>
	<path class="st9" d="M365.6,161.3c3.7,0.4,5.8,2.4,6.4,6.1c0.2,1.3,0.8,2.5,1.2,3.8c0.4,1.2,0.7,2.5,1.1,3.7c1.8,6,3.5,12,5.3,17.9
		c2,6.6,4,13.2,5.9,19.8c0.9,3-0.7,5.8-3.8,6.8c-5.7,1.8-11.5,3.5-17.2,5.2c-1.6,0.5-3.2,1-4.9,1.6c-4.4-26.1-8.9-52.3-13.3-78.4
		c0-0.2,0-0.5,0-0.7c0.9,2.8,1.9,5.7,2.8,8.5c0.6,1.8,1.7,3,3.5,3.4C356.9,159.9,361.2,160.8,365.6,161.3z"/>
	<path class="st14" d="M352.7,117.3c0.9,4.7,2.7,9.2,4,13.9c0.2,0.7,0.4,1.5,0.6,2.2c0.6,1.1,0.5,2.4,1.2,3.4c1,4.6,2.6,9,3.9,13.5
		c0.2,0.8,0.5,1.7,0.7,2.5c0.4,1.1,0.8,2.2,1.2,3.4c0.3,1,0.5,2.1,0.8,3.1c-2.6-0.4-5.2-0.9-7.8-1.3c-2.3-0.4-3.8-1.7-4.5-3.9
		c-2.7-9-5.4-18-8.1-26.9c-1.2-4-2.2-8.1-3.8-12.1c-2.1-12.6-4.3-25.2-6.4-37.8c-0.8-4.8-1.6-9.6-2.4-14.5c1-0.8,2.1-1.6,3.1-2.4
		c1.6,4,2.5,8.1,3.8,12.2c0.3,0.8,0.5,1.7,0.8,2.5c0.3,1.1,0.6,2.3,0.9,3.4c1.6,5.3,3.2,10.7,4.9,16c0.3,1.1,0.6,2.3,1,3.4
		c1.6,5.3,3.2,10.7,4.8,16C351.9,115,352.1,116.3,352.7,117.3z"/>
	<path class="st15" d="M341,115c1.5,3.9,2.5,8,3.8,12.1c2.7,9,5.4,18,8.1,26.9c0.7,2.3,2.2,3.5,4.5,3.9c2.6,0.5,5.2,0.9,7.8,1.3
		c0.1,0.7,0.3,1.3,0.4,2c-4.4-0.5-8.7-1.5-12.9-2.4c-1.8-0.4-2.9-1.6-3.5-3.4c-0.9-2.8-1.8-5.7-2.8-8.5
		C344.6,136.3,342.8,125.7,341,115z"/>
	<polygon class="st10" points="177,68.6 191,72.8 323.5,50.4 175.2,63.5 	"/>
</g>
</svg>
