<?xml version="1.0" encoding="utf-8"?>
<!-- Generator: Adobe Illustrator 24.3.0, SVG Export Plug-In . SVG Version: 6.00 Build 0)  -->
<svg version="1.1" id="Layer_1" xmlns="http://www.w3.org/2000/svg" xmlns:xlink="http://www.w3.org/1999/xlink" x="0px" y="0px"
	 viewBox="0 0 400 300" style="enable-background:new 0 0 400 300;" xml:space="preserve">
<style type="text/css">
	.st0{clip-path:url(#SVGID_2_);}
	.st1{clip-path:url(#SVGID_2_);fill:#DD0000;}
	.st2{clip-path:url(#SVGID_2_);fill:#FFCE00;}
	.st3{fill:none;}
	.st4{fill:#F3F2EF;}
	.st5{fill:#C98017;}
	.st6{fill:#FBED60;}
	.st7{fill:#FABA31;}
	.st8{fill:#68C2EE;}
	.st9{fill:#0491BE;}
	.st10{fill:#68C2EF;}
	.st11{fill:#31798F;}
	.st12{fill:#C1BDBE;}
	.st13{fill:#6E6E6E;}
	.st14{fill:#6C6C6C;}
	.st15{fill:#BCBCBC;}
	.st16{fill:#E1E1E1;}
	.st17{fill:#0A0A09;}
</style>
<g>
	<g>
		<defs>
			<path id="SVGID_1_" d="M94.7,5.5c0.6,0,1.2,0,1.8,0c4.1,1.1,8.1,2.1,11.7,4.5c0.8,0.6,2.1,0.5,2.8-0.2c2.3-2.5,4.4-1.5,6.6,0
				c0.8,0.5,1.8,0.9,2.7,1.2c1.3,0.3,1.9,1.2,2.2,2.4c0.9,3.1,1.4,6.2-2.6,8.6c3.3,0.4,6.8-0.6,6.4,3.9c3.6-2.4,3.5-2.3,7.2,0
				c2.6,1.6,5.3,3.2,8.4,0.7c1.1-0.9,2.7-0.9,4.3-0.9c-0.3,1.4-0.9,2.6-0.7,3.9c0.3,2.4-0.9,3.9-2.9,5c-1.2,0.7-2.3,1.5-3.5,2.3
				c-0.6,0.4-1.1,1.3-0.3,1.7c1.6,0.9,2.2,2.3,2.4,4c3.6-3.4,3.6-3.4,8.1-1.3c1.5,0.7,3.2,0.7,4.7,1.1c2.6-6.5,5.9-8.7,12.9-8.4
				c1.3,0.1,1.7-0.5,2.1-1.5c0.6-1.5,1.5-3.1,3.3-3.1c1.9,0.1,3-0.7,4.1-2c1.4-1.5,3-3,5.2-2c1.5,0.7,2.3,0.4,3.3-0.7
				c0.8-1,2-1.5,2.7,0.2c2,4.5,6.2,7,9.5,10.4c1.1-0.6,2-1.2,2.9-1.7c1.7-0.9,3.5-1,5,0.3c1.7,1.4,3.6,2.6,5.4,3.9
				c1.6,1.1,2.9,2.5,3.1,4.7c-2,0.1-3.6,1.1-5.4,1.5c-1.4,0.3-1.4,1.2-0.5,2c1,0.8,2,1.7,3.4,1.9c3.3,0.5,3.8,0.9,4.4,4.2
				c0.6,3.5,1.6,6.9,2.8,10.2c0.6,1.7,0.6,3.4,0.1,5.2c-0.8,2.8-2.6,5.2-3.5,8c-1.6,4.4-0.9,6.7,2.2,8.9c1.9,1.4,3.6,3.1,5.5,4.6
				c1.7,1.3,2.1,2.8,1.3,4.8c-1.1,2.7-0.7,5.3,1.3,7.5c2.7,3.1,3.6,9.9,1.2,13.3c-1.6,2.4-1.2,4.2,0.1,6.3c1.4,2.2,2.8,4.4,2.8,7.2
				c0,1,0.8,1.4,1.6,1.7c2.4,0.8,3.7,2.6,4.2,5.1c0.5,2.6,0.9,5.3,0.6,8c-0.3,2.9-0.9,5.8-2.6,8.3c-1.2,1.9-2.6,2-4.1,0.3
				c-0.6-0.6-1.1-1.3-1.4-2.1c-1.1-3.1-2.4-4-5.6-3.8c-2,0.1-3,1.9-1.8,3.5c1.1,1.3,0.5,1.9-0.4,2.8c-2.4,2.3-5.8,2.6-8.5,4.4
				c-1.7,1.2-3.7,1.8-5.8,1.9c-1,0-2,0.2-2.4,1.4c-0.5,1.4-1.6,2.1-2.8,2.5c-3.7,1.4-6.8,3.5-9.3,6.5c-0.7,0.9-1.5,1.2-2.6,0.8
				c-2.2-0.8-4.2-0.2-6.1,0.9c-3.7,2.1-6.8,5-9.7,8c-1.8,1.8-1.8,3.1,0.1,4.9c1.6,1.5,3.2,2.8,4.9,4.2c1.3,1.1,1.8,2.4,0.6,3.8
				c-1.8,2-1.4,4.1-0.1,6.1c2.2,3.6,4.5,7.1,6.8,10.7c0.8,1.2,1.8,2.3,3.3,2.2c2.3-0.2,3.6,1,4.5,2.9c1.1,2.3,2.7,4.1,5.3,4.8
				c0.8,0.2,1.5,0.8,1.9,1.6c1.4,2.9,3.8,4.2,6.9,4.8c2.9,0.6,4.6,2.7,4.8,5.7c0.1,1.1,0.1,2.3,0,3.4c-0.2,3.2-0.9,3.7-3.8,2.5
				c-2.7-1.1-5.3,0.7-5.2,3.6c0.2,4.4-1,6.2-5.2,7.3c-3.8,1-6.9,3.1-9.8,5.7c-1.2,1.1-1.3,2.2-0.3,3.4c1,1.2,2.2,2.4,3.2,3.6
				c1.5,1.9,2.5,4,1.5,6.4c-0.7,1.6-0.4,2.4,1.1,3.3c2.6,1.6,2.9,5.7,0.6,7.7c-1.3-1.5-3.6-1.9-4.2-4.3c-0.7-2.7-1.3-3-4.1-2.4
				c-1.5,0.4-3,0.4-4.5-0.2c-1.4-0.6-2.8-1.2-4.2-1.8c-1.4-0.5-2.8-0.5-3.1,1.2c-0.4,2.4-1.9,2.6-3.8,2.6c-4.7,0-9.5,0.5-13.3,3.5
				c-3.1,2.5-6.4,3.8-10.1,4.4c-1.3,0.2-2,0.2-2.5-1.1c-0.6-1.4-1.9-2.1-3.1-2.9c-2.7-1.7-5.9-1-8.7-1.9c-1.7-0.5-2.4,0.2-2.2,1.8
				c0.4,3.4-0.7,6.2-3.1,8.5c-0.3,0-0.6,0-0.9,0c-0.2-2-0.5-4-3.1-4.1c-1.3-3.2-4.8-3.9-7-6.1c-1.2-1.2-2.1-1-3,0.3
				c-1,1.6-2.3,1.5-3.8,0.7c-1-0.6-2-1.2-2.9-1.8c-2.9-1.8-6.1-3.5-9.4-3.2c-3.1,0.2-5.1-0.8-7-2.9c-2.3-2.5-4.7-2.9-7.2-1.5
				c-2.5,1.4-3.1,3.1-2.4,6.4c-0.5,0.4-1.1,0.5-1.5,0.2c-1.8-1.5-3.4-0.6-5.1,0.3c-2.1,1-4.2,1.4-6.3,0c-0.5-0.3-1.1-0.5-1.7-0.1
				c-2.4,1.6-4-0.5-5.8-1.5c-1.5-0.8-0.8-2.4-0.5-3.8c0.1-0.4,0.2-0.7,0.3-1.1c0.9-4.2,2.9-8.3,1.9-12.8c-0.3-1.2,0.5-2.4,1.2-3.4
				c2.7-3.8,4.2-8,4.9-12.5c0.4-2.3,1.4-4.3,3.4-5.5c3.8-2.2,4.3-6.4,6.8-9.8c-4.6-1.3-8.4-3.5-12.9-3.5c-2.1,0-3.4-1-4.2-2.9
				c-0.8-2.3-1.7-2.7-3.8-1.5c-2.8,1.7-5.3,1.3-7.8-0.6c-1.5-1.2-3.3-1.7-5.2-0.8c-0.6,0.3-1.2,0.5-1.7-0.1c-1-1.2-2.4-2.3-2.7-3.9
				c-0.4-2.4-1.6-4.2-3.3-5.9c-1.9-1.9-2-3.7-0.7-6c0.8-1.3,1.6-2.6,2.4-3.9c1-1.7,0.4-2.7-1.3-3.3c-1.3-0.4-2.7-0.9-3.5-2.1
				c-4.3-6.2-5.2-11.1,1.6-15.1c0.2-0.1,0.4-0.3,0.6-0.4c2.5-2,2.6-5.2,0.1-7.3c-0.5-0.5-1.1-0.8-1.6-1.3c-0.6-0.5-1-1.1-0.5-1.8
				c1.1-1.4,0.3-2.1-0.7-2.9c-0.8-0.7-1.3-1.7-2.1-2.5c-1.4-1.5-1.7-3-0.2-4.7c1.1-1.3,0.7-2.4-0.4-3.6c-2.1-2.1-1.8-4,0.8-5.6
				c0.5-0.3,0.9-0.5,1.4-0.8c1.2-0.7,1.6-1.8,0.7-2.9c-1.1-1.4-0.6-2.3,0.4-3.4c1.8-2.3,2.9-4.8,1.8-7.7c-1.1-2.7-1.6-5.6-3.3-8
				c-1.3-1.9-0.5-3.5,1.8-4.1c1.1-0.3,2.1,0,3.1,0.4c2.1,0.8,4.2,0.6,6.3-0.2c1.4-0.5,2.7-1,4.2-1c1.8,0,2.4-1.5,2.9-2.8
				c0.6-1.4-0.5-1.9-1.5-2.5c-0.3-0.2-0.6-0.5-0.7-1.2c1.8-1.3,3.7-2.8,5.6-4.3c2.1-1.6,3.4-5.4,2.5-7.8c-0.9-2.5-3.3-2-5.3-2.3
				c-0.5-0.1-0.9,0-1.4-0.2c-0.5-0.2-0.9-0.5-1-1.2c-0.5-2.8,2.1-5.5,4.8-5c3.7,0.7,3,0.1,3.4-2.7c0.4-2.9,0.8-5.6,3-7.8
				c0.5-0.5,0.7-1.2,0.6-1.9c-0.6-3.5,0.4-6.8,1.5-10.1c0.2-0.7,0.8-1.4,0.3-2.2c-0.8-0.5-1.6-0.2-2.4-0.3c-1-0.1-1.6-0.5-1.8-1.5
				c-0.3-2.3-1-4.6,1.6-6.2c0.6-0.4,0.8-1.1,1.1-1.7c1.5-3.3,2.4-3.9,5.9-3.3c2.9,0.4,5.7,0.1,8.4-0.4c2.6-0.5,4.7,0.4,6.2,2.5
				c1.4,2,1.3,4-0.6,5.6c0.2,1.1,1.1,1.2,1.7,1.6c1,0.6,2,1.4,3.1,0.2c0.9-1,0.5-2-0.3-2.9c-1.1-1.3-0.6-2.4,0.6-3.4
				c1.9,1.1,3.4,2.8,5.4,3.5c0.6-0.6,0.5-1.2,0.2-1.6c-1.8-3.4-0.8-6.5,0.8-9.6c0.7-1.3,1.3-1.7,2.6-0.8c1.3,1,2.9,1.3,4.6,1.2
				c2.3-0.2,4.5-1.3,6.9-1.2c-1.5-1.4-3.5-0.8-5.1-1.5c-1.8-0.7-2.4-2.5-1.8-4.5c0.7-0.5,1.4,0.7,2.2-0.1c0.4-1.3,0.5-2.7-0.8-3.7
				c-0.9-0.7-2.6-0.5-2.9-1.9c-0.2-1.3,1.2-2,1.6-3.2c0-0.1-0.1-0.3-0.1-0.5c-1.9-0.6-4.1,0.4-6-0.5c0.1-3.6,0.7-4.2,4-4.1
				c0.7,0,1.4,0.1,2.1-0.1c2.5-0.6,3.7-3.6,1.9-5c-2.8-2.1-4.6-4.6-5.3-8c-0.1-0.4-0.4-0.9-0.7-1.2C93,8,93.5,6.8,94.7,5.5z
				 M204.7,35.5c-1.3,3.4,1.4,4.6,5,3.4c-0.4-0.9-0.3-2.6-1.7-2C206.2,37.7,205.7,36.6,204.7,35.5z M116.2,55
				c-3.4-1.7-4.7-5.2-6.8-7.9C110.7,50.6,111.8,54.2,116.2,55z"/>
		</defs>
		<clipPath id="SVGID_2_">
			<use xlink:href="#SVGID_1_"  style="overflow:visible;"/>
		</clipPath>
		<rect x="14.6" y="-11.4" class="st0" width="272.1" height="101.4"/>
		<rect x="14.6" y="90" class="st1" width="272.1" height="101.4"/>
		<rect x="14.6" y="191.3" class="st2" width="272.1" height="101.4"/>
	</g>
	<path class="st3" d="M202.7,27.3c-3-1.7-3.6-1.6-6,0.6c-1.5,1.4-4.2,1.4-5.6-0.1c-0.6-0.7-0.6-1.4,0-2.1c0.6-0.8,0.6-1.4,0-2.2
		c-1.3-1.9-0.3-4.2,2-4.8c-1-3.5-0.8-3.7,2.2-4.9c0.6,3.4,0.9,3.7,4.4,3.8c0.7,0,1.4-0.2,1.8,0.6c0.4,0.8-0.1,1.3-0.6,1.8
		c-1.8,1.5-1.3,2.6,0.5,3.7C202.6,24.5,203.9,25.3,202.7,27.3z"/>
	<path class="st3" d="M147.9,24.9c-1.5-0.3-2.2-1.6-3.1-2.7c-0.4-0.5,0.1-1.2,0.6-1.5c1.4-0.9,2.6-0.3,3.8,0.5
		c0.9,0.6,1.6,1.5,1.3,2.7C150.2,25.1,148.8,24.3,147.9,24.9z"/>
	<path class="st3" d="M183.6,23.3c-2.6-0.1-5,0.8-7.3,1.6c-0.6-1.2-0.6-1.9-0.2-2.9c2.5,0.2,4.9,0.5,7.4,0.7
		C183.6,23,183.6,23.2,183.6,23.3z"/>
	<path class="st3" d="M91.3,13.6c-0.9-0.4-2.4-0.2-2.3-1.7c0.1-1.2,1.3-1.2,2.4-1.3c1.2,0,1.8,0.6,1.7,1.7
		C93.1,13.4,92.4,13.8,91.3,13.6z"/>
	<g>
		<g>
			<path d="M96.6,5.5c4.1,1.1,8.1,2.1,11.7,4.5c0.4,0.3,0.8,0.4,1.3,0.4c0.6,0,1.1-0.2,1.5-0.6c1-1.1,2-1.5,2.9-1.5
				c1.2,0,2.4,0.7,3.7,1.5c0.8,0.5,1.8,0.9,2.7,1.2c1.3,0.3,1.9,1.2,2.2,2.4c0.9,3.1,1.4,6.2-2.6,8.6c3.3,0.4,6.8-0.6,6.4,3.9
				c1.8-1.2,2.7-1.7,3.5-1.7c0.9,0,1.8,0.6,3.7,1.7c1.6,1,3.3,2,5.1,2c1.1,0,2.2-0.4,3.4-1.3c1.1-0.9,2.7-0.9,4.3-0.9
				c-0.3,1.4-0.9,2.6-0.7,3.9c0.3,2.4-0.9,3.9-2.9,5c-1.2,0.7-2.3,1.5-3.5,2.3c-0.6,0.4-1.1,1.3-0.3,1.7c1.6,0.9,2.2,2.3,2.4,4
				c2-1.9,2.9-2.7,4-2.7c0.9,0,2,0.5,4,1.4c1.5,0.7,3.2,0.7,4.7,1.1c2.4-6.2,5.6-8.5,11.8-8.5c0.4,0,0.7,0,1.1,0c0.1,0,0.1,0,0.2,0
				c1.2,0,1.6-0.6,2-1.5c0.6-1.5,1.5-3.1,3.2-3.1c0,0,0.1,0,0.1,0c0.1,0,0.1,0,0.2,0c1.7,0,2.8-0.8,3.9-2c1-1.2,2.3-2.3,3.8-2.3
				c0.4,0,0.9,0.1,1.4,0.3c0.6,0.3,1,0.4,1.4,0.4c0.7,0,1.3-0.4,1.9-1.1c0.4-0.5,1-0.9,1.5-0.9c0.4,0,0.9,0.3,1.2,1.1
				c2,4.5,6.2,7,9.5,10.4c1.1-0.6,2-1.2,2.9-1.7c0.8-0.4,1.7-0.7,2.5-0.7c0.9,0,1.7,0.3,2.5,0.9c1.7,1.4,3.6,2.6,5.4,3.9
				c1.6,1.1,2.9,2.5,3.1,4.7c-2,0.1-3.6,1.1-5.4,1.5c-1.4,0.3-1.4,1.2-0.5,2c1,0.8,2,1.7,3.4,1.9c3.3,0.5,3.8,0.9,4.4,4.2
				c0.6,3.5,1.6,6.9,2.8,10.2c0.6,1.7,0.6,3.4,0.1,5.2c-0.8,2.8-2.6,5.2-3.5,8c-1.6,4.4-0.9,6.7,2.2,8.9c1.9,1.4,3.6,3.1,5.5,4.6
				c1.7,1.3,2.1,2.8,1.3,4.8c-1.1,2.7-0.7,5.3,1.3,7.5c2.7,3.1,3.6,9.9,1.2,13.3c-1.6,2.4-1.2,4.2,0.1,6.3c1.4,2.2,2.8,4.4,2.8,7.2
				c0,1,0.8,1.4,1.6,1.7c2.4,0.8,3.7,2.6,4.2,5.1c0.5,2.6,0.9,5.3,0.6,8c-0.3,2.9-0.9,5.8-2.6,8.3c-0.6,1-1.3,1.5-2.1,1.5
				c-0.6,0-1.3-0.4-2-1.2c-0.6-0.6-1.1-1.3-1.4-2.1c-1-2.8-2.2-3.8-4.9-3.8c-0.2,0-0.5,0-0.7,0c-2,0.1-3,1.9-1.8,3.5
				c1.1,1.3,0.5,1.9-0.4,2.8c-2.4,2.3-5.8,2.6-8.5,4.4c-1.7,1.2-3.7,1.8-5.8,1.9c-1,0-2,0.2-2.4,1.4c-0.5,1.4-1.6,2.1-2.8,2.5
				c-3.7,1.4-6.8,3.5-9.3,6.5c-0.5,0.6-1.1,1-1.8,1c-0.3,0-0.5-0.1-0.8-0.2c-0.7-0.3-1.4-0.4-2-0.4c-1.4,0-2.8,0.5-4.1,1.3
				c-3.7,2.1-6.8,5-9.7,8c-1.8,1.8-1.8,3.1,0.1,4.9c1.6,1.5,3.2,2.8,4.9,4.2c1.3,1.1,1.8,2.4,0.6,3.8c-1.8,2-1.4,4.1-0.1,6.1
				c2.2,3.6,4.5,7.1,6.8,10.7c0.7,1.1,1.7,2.2,3.1,2.2c0.1,0,0.2,0,0.2,0c0.2,0,0.3,0,0.5,0c2,0,3.2,1.1,4,2.9
				c1.1,2.3,2.7,4.1,5.3,4.8c0.8,0.2,1.5,0.8,1.9,1.6c1.4,2.9,3.8,4.2,6.9,4.8c2.9,0.6,4.6,2.7,4.8,5.7c0.1,1.1,0.1,2.3,0,3.4
				c-0.1,2.2-0.5,3.1-1.6,3.1c-0.5,0-1.3-0.2-2.2-0.6c-0.6-0.2-1.1-0.3-1.6-0.3c-2,0-3.7,1.6-3.6,4c0.2,4.4-1,6.2-5.2,7.3
				c-3.8,1-6.9,3.1-9.8,5.7c-1.2,1.1-1.3,2.2-0.3,3.4c1,1.2,2.2,2.4,3.2,3.6c1.5,1.9,2.5,4,1.5,6.4c-0.7,1.6-0.4,2.4,1.1,3.3
				c2.6,1.6,2.9,5.7,0.6,7.7c-1.3-1.5-3.6-1.9-4.2-4.3c-0.5-2-1-2.7-2.2-2.7c-0.5,0-1.1,0.1-1.9,0.3c-0.7,0.2-1.4,0.3-2.1,0.3
				c-0.8,0-1.6-0.1-2.4-0.4c-1.4-0.6-2.8-1.2-4.2-1.8c-0.5-0.2-1-0.3-1.5-0.3c-0.8,0-1.5,0.4-1.7,1.5c-0.4,2.4-1.9,2.6-3.8,2.6
				c-4.7,0-9.5,0.5-13.3,3.5c-3.1,2.5-6.4,3.8-10.1,4.4c-0.4,0.1-0.7,0.1-1,0.1c-0.7,0-1.2-0.3-1.6-1.2c-0.6-1.4-1.9-2.1-3.1-2.9
				c-2.7-1.7-5.9-1-8.7-1.9c-0.4-0.1-0.7-0.2-1-0.2c-1,0-1.3,0.7-1.2,1.9c0.4,3.4-0.7,6.2-3.1,8.5c-0.3,0-0.6,0-0.9,0
				c-0.2-2-0.5-4-3.1-4.1c-1.3-3.2-4.8-3.9-7-6.1c-0.5-0.5-1-0.8-1.5-0.8c-0.5,0-1,0.4-1.5,1.1c-0.6,0.9-1.3,1.2-2,1.2
				c-0.6,0-1.2-0.2-1.8-0.6c-1-0.6-2-1.2-2.9-1.8c-2.7-1.7-5.7-3.3-8.8-3.3c-0.2,0-0.4,0-0.6,0c-0.3,0-0.5,0-0.8,0
				c-2.7,0-4.5-1-6.2-2.9c-1.4-1.5-2.9-2.3-4.4-2.3c-0.9,0-1.9,0.3-2.8,0.8c-2.5,1.4-3.1,3.1-2.4,6.4c-0.3,0.2-0.6,0.4-0.9,0.4
				c-0.2,0-0.4-0.1-0.6-0.2c-0.7-0.6-1.4-0.8-2-0.8c-1,0-2,0.6-3.1,1.1c-1.1,0.5-2.2,0.9-3.4,0.9c-1,0-2-0.3-3-1
				c-0.3-0.2-0.6-0.3-1-0.3c-0.3,0-0.5,0.1-0.8,0.2c-0.6,0.4-1.2,0.6-1.7,0.6c-1.5,0-2.8-1.3-4-2c-1.5-0.8-0.8-2.4-0.5-3.8
				c0.1-0.4,0.2-0.7,0.3-1.1c0.9-4.2,2.9-8.3,1.9-12.8c-0.3-1.2,0.5-2.4,1.2-3.4c2.7-3.8,4.2-8,4.9-12.5c0.4-2.3,1.4-4.3,3.4-5.5
				c3.8-2.2,4.3-6.4,6.8-9.8c-4.6-1.3-8.4-3.5-12.9-3.5c0,0,0,0,0,0c0,0,0,0,0,0c-2.1,0-3.4-1-4.2-2.9c-0.5-1.4-1.1-2.2-2-2.2
				c-0.5,0-1.1,0.2-1.8,0.7c-1.2,0.8-2.4,1.1-3.5,1.1c-1.5,0-2.9-0.6-4.3-1.7c-1-0.8-2.1-1.2-3.2-1.2c-0.6,0-1.3,0.1-1.9,0.5
				c-0.3,0.1-0.6,0.3-0.9,0.3c-0.3,0-0.5-0.1-0.7-0.4c-1-1.2-2.4-2.3-2.7-3.9c-0.4-2.4-1.6-4.2-3.3-5.9c-1.9-1.9-2-3.7-0.7-6
				c0.8-1.3,1.6-2.6,2.4-3.9c1-1.7,0.4-2.7-1.3-3.3c-1.3-0.4-2.7-0.9-3.5-2.1c-4.3-6.2-5.2-11.1,1.6-15.1c0.2-0.1,0.4-0.3,0.6-0.4
				c2.5-2,2.6-5.2,0.1-7.3c-0.5-0.5-1.1-0.8-1.6-1.3c-0.6-0.5-1-1.1-0.5-1.8c1.1-1.4,0.3-2.1-0.7-2.9c-0.8-0.7-1.3-1.7-2.1-2.5
				c-1.4-1.5-1.7-3-0.2-4.7c1.1-1.3,0.7-2.4-0.4-3.6c-2.1-2.1-1.8-4,0.8-5.6c0.5-0.3,0.9-0.5,1.4-0.8c1.2-0.7,1.6-1.8,0.7-2.9
				c-1.1-1.4-0.6-2.3,0.4-3.4c1.8-2.3,2.9-4.8,1.8-7.7c-1.1-2.7-1.6-5.6-3.3-8c-1.3-1.9-0.5-3.5,1.8-4.1c0.3-0.1,0.6-0.1,0.9-0.1
				c0.8,0,1.5,0.2,2.2,0.5c1,0.3,1.9,0.5,2.9,0.5c1.1,0,2.3-0.2,3.4-0.7c1.4-0.5,2.7-1,4.2-1c1.8,0,2.4-1.5,2.9-2.8
				c0.6-1.4-0.5-1.9-1.5-2.5c-0.3-0.2-0.6-0.5-0.7-1.2c1.8-1.3,3.7-2.8,5.6-4.3c2.1-1.6,3.4-5.4,2.5-7.8c-0.9-2.5-3.3-2-5.3-2.3
				c-0.5-0.1-0.9,0-1.4-0.2c-0.5-0.2-0.9-0.5-1-1.2c-0.4-2.5,1.7-5,4.1-5c0.2,0,0.4,0,0.7,0.1c0.9,0.2,1.5,0.3,2,0.3
				c1.4,0,1.1-0.9,1.4-3c0.4-2.9,0.8-5.6,3-7.8c0.5-0.5,0.7-1.2,0.6-1.9c-0.6-3.5,0.4-6.8,1.5-10.1c0.2-0.7,0.8-1.4,0.3-2.2
				c-0.4-0.3-0.8-0.3-1.2-0.3c-0.4,0-0.7,0.1-1.1,0.1c-0.1,0-0.1,0-0.2,0c-1-0.1-1.6-0.5-1.8-1.5c-0.3-2.3-1-4.6,1.6-6.2
				c0.6-0.4,0.8-1.1,1.1-1.7c1.2-2.6,2-3.5,4-3.5c0.5,0,1.1,0.1,1.9,0.2c1,0.1,1.9,0.2,2.9,0.2c1.9,0,3.7-0.3,5.6-0.6
				c0.5-0.1,1-0.1,1.4-0.1c2,0,3.6,0.9,4.8,2.6c1.4,2,1.3,4-0.6,5.6c0.2,1.1,1.1,1.2,1.7,1.6c0.6,0.4,1.2,0.8,1.9,0.8
				c0.4,0,0.8-0.2,1.2-0.6c0.9-1,0.5-2-0.3-2.9c-1.1-1.3-0.6-2.4,0.6-3.4c1.9,1.1,3.4,2.8,5.4,3.5c0.6-0.6,0.5-1.2,0.2-1.6
				c-1.8-3.4-0.8-6.5,0.8-9.6c0.4-0.8,0.8-1.3,1.4-1.3c0.3,0,0.7,0.2,1.2,0.5c1.1,0.9,2.4,1.2,3.8,1.2c0.2,0,0.5,0,0.8,0
				c2.2-0.2,4.3-1.2,6.6-1.2c0.1,0,0.2,0,0.3,0c-1.5-1.4-3.5-0.8-5.1-1.5c-1.8-0.7-2.4-2.5-1.8-4.5c0.1-0.1,0.3-0.1,0.4-0.1
				c0.4,0,0.8,0.3,1.2,0.3c0.2,0,0.4-0.1,0.6-0.3c0.4-1.3,0.5-2.7-0.8-3.7c-0.9-0.7-2.6-0.5-2.9-1.9c-0.2-1.3,1.2-2,1.6-3.2
				c0-0.1-0.1-0.3-0.1-0.5c-0.5-0.2-1-0.2-1.6-0.2c-0.8,0-1.6,0.1-2.4,0.1c-0.7,0-1.4-0.1-2-0.4c0.1-3.4,0.7-4.1,3.5-4.1
				c0.1,0,0.3,0,0.5,0c0.3,0,0.6,0,0.9,0c0.4,0,0.8,0,1.2-0.1c2.5-0.6,3.7-3.6,1.9-5c-2.8-2.1-4.6-4.6-5.3-8
				c-0.1-0.4-0.4-0.9-0.7-1.2C93,8,93.5,6.8,94.7,5.5C95.4,5.5,96,5.5,96.6,5.5 M207.2,39.4c0.8,0,1.6-0.2,2.5-0.5
				c-0.4-0.7-0.3-2.1-1.2-2.1c-0.1,0-0.3,0-0.5,0.1c-0.4,0.2-0.8,0.3-1.1,0.3c-1,0-1.5-0.8-2.2-1.6C203.7,38.1,205,39.4,207.2,39.4
				 M116.2,55c-3.4-1.7-4.7-5.2-6.8-7.9C110.7,50.6,111.8,54.2,116.2,55 M96.9,3.5h-0.3h-1.8h-0.8l-0.6,0.6
				c-0.5,0.4-1.8,1.8-1.8,3.6c0.1,1.2,0.6,2.2,1.8,3.1c0,0,0,0,0,0.1c0.7,3.7,2.7,6.7,6,9.2c0.1,0.1,0.1,0.1,0.1,0.3
				c-0.1,0.4-0.5,1-1.2,1.1c-0.2,0.1-0.5,0.1-0.7,0.1c-0.2,0-0.4,0-0.5,0l-0.3,0c-0.2,0-0.3,0-0.5,0c-4.4,0-5.4,2.1-5.5,6L90.6,29
				l1.2,0.6c1.1,0.5,2.2,0.6,2.9,0.6c0.3,0,0.6,0,0.8,0c-0.3,0.6-0.4,1.3-0.3,2.1c0.4,2.2,2.2,2.7,3.1,3c0.2,0.1,0.5,0.1,0.6,0.2
				c0,0,0,0,0,0c-0.5,0-1,0.2-1.4,0.5l-0.5,0.4L96.8,37c-0.7,2.3-0.2,4.4,1.3,5.8c0,0,0,0,0,0c-1.1,0-1.9-0.3-2.6-0.8
				c-0.8-0.6-1.6-0.9-2.4-0.9c-2,0-2.9,1.8-3.2,2.4c-1.2,2.4-2.3,5.2-1.9,8.2c-0.6-0.4-1.2-0.9-1.8-1.2l-1.2-0.7l-1.1,0.9
				c-0.3,0.3-0.6,0.5-0.8,0.8c-0.2-0.5-0.5-1-0.9-1.5c-1.6-2.3-3.9-3.5-6.4-3.5c-0.6,0-1.2,0.1-1.8,0.2c-2,0.4-3.7,0.6-5.2,0.6
				c-0.9,0-1.7-0.1-2.6-0.2c-0.9-0.1-1.6-0.2-2.2-0.2c-3.3,0-4.6,2.1-5.8,4.7c-0.1,0.1-0.1,0.3-0.2,0.4c-0.1,0.1-0.1,0.4-0.2,0.4
				c-3.4,2.1-2.9,5.4-2.5,7.5c0,0.2,0.1,0.4,0.1,0.6c0.3,1.8,1.7,3.1,3.6,3.2c0.1,0,0.2,0,0.3,0c0,0,0,0,0,0
				c-1.2,3.5-2.2,7-1.6,10.9c0,0.1,0,0.1-0.1,0.2c-2.6,2.6-3.1,5.9-3.5,8.8l0,0.1c-0.1,0.5-0.1,0.9-0.1,1.2
				c-0.4-0.1-0.7-0.1-0.9-0.2c-0.3-0.1-0.7-0.1-1-0.1c-1.7,0-3.4,0.8-4.6,2.2c-1.2,1.5-1.8,3.3-1.5,5.1c0.2,1.3,1.1,2.3,2.3,2.7
				c0.5,0.2,1,0.2,1.4,0.2c0.1,0,0.2,0,0.3,0c0.5,0.1,0.9,0.1,1.3,0.1c1.9,0.1,2.1,0.3,2.3,0.9c0.6,1.6-0.3,4.4-1.8,5.5
				c-1.3,1-2.7,2-4,3l-1.6,1.2l-0.9,0.7l0.1,1.1c0.1,1.3,0.7,2.2,1.6,2.8l0.2,0.1c0.1,0.1,0.2,0.1,0.3,0.2c-0.5,1.2-0.7,1.3-1,1.3
				c-1.8,0-3.4,0.5-4.9,1.1c-0.9,0.3-1.8,0.5-2.7,0.5c-0.8,0-1.5-0.1-2.2-0.4c-0.8-0.3-1.8-0.6-2.9-0.6c-0.5,0-1,0.1-1.4,0.2
				c-1.8,0.4-3.2,1.5-3.7,2.9c-0.5,1.4-0.2,2.9,0.8,4.3c1,1.4,1.6,3.1,2.2,4.9c0.3,0.9,0.6,1.8,0.9,2.7c0.7,1.8,0.3,3.5-1.5,5.7
				c-0.7,0.9-2.5,3.1-0.5,5.8c0,0,0,0,0,0c-0.2,0.1-0.3,0.2-0.5,0.3c-0.3,0.2-0.6,0.3-1,0.5c-1.8,1.2-2.8,2.6-3,4.2
				c-0.2,1.6,0.5,3.1,1.9,4.6c0.3,0.3,0.5,0.6,0.5,0.6c0,0-0.1,0.1-0.2,0.2c-1.2,1.3-2.7,4.1,0.2,7.3c0.2,0.2,0.4,0.5,0.6,0.8
				c0.4,0.6,1,1.3,1.7,1.9c0.1,0.1,0.2,0.2,0.3,0.3c-0.8,1.1-1,2.8,0.8,4.4c0.3,0.3,0.6,0.5,0.9,0.7c0.3,0.2,0.5,0.4,0.7,0.5
				c0.7,0.6,1.1,1.4,1.1,2.2c0,0.8-0.4,1.5-1.2,2.1c-0.1,0.1-0.2,0.2-0.3,0.2c-3.3,1.9-5.2,4.2-5.7,6.9c-0.7,3.2,0.4,6.6,3.5,11.1
				c1.2,1.7,2.9,2.3,4.4,2.8l0.1,0c0.2,0.1,0.3,0.1,0.4,0.2c0,0.1-0.1,0.1-0.1,0.2c-0.3,0.5-0.7,1.1-1,1.6c-0.5,0.8-1,1.6-1.4,2.3
				c-1.8,3.2-1.5,6,1,8.5c1.6,1.5,2.4,3,2.7,4.8c0.3,1.8,1.5,3,2.4,4c0.3,0.3,0.5,0.5,0.7,0.8c0.6,0.7,1.4,1.1,2.3,1.1
				c0.7,0,1.3-0.2,1.8-0.5c0.4-0.2,0.7-0.3,1.1-0.3c0.6,0,1.3,0.3,2,0.8c1.8,1.4,3.7,2.1,5.5,2.1c1.5,0,3-0.5,4.6-1.4
				c0.2-0.1,0.4-0.2,0.5-0.3c0.1,0.2,0.2,0.4,0.3,0.8c1,2.8,3.1,4.2,6,4.2c2.7,0,5.3,0.9,8,1.9c0.6,0.2,1.2,0.5,1.9,0.7
				c-0.3,0.6-0.6,1.2-0.9,1.8c-1.1,2.2-2,4-3.9,5.2c-2.4,1.4-3.9,3.8-4.4,6.9c-0.7,4.5-2.2,8.3-4.5,11.7c-0.6,0.9-2,2.8-1.5,5
				c0.6,2.8-0.2,5.5-1,8.3c-0.3,1.2-0.7,2.4-0.9,3.6c0,0.2-0.1,0.4-0.1,0.6c0,0.2-0.1,0.4-0.1,0.5c0,0.2-0.1,0.4-0.1,0.6
				c-0.3,1.2-1,3.9,1.6,5.4c0.3,0.2,0.6,0.4,1,0.6c1,0.7,2.3,1.6,4.1,1.6c0.9,0,1.7-0.2,2.5-0.7c1.2,0.8,2.5,1.2,3.9,1.2
				c1.3,0,2.7-0.4,4.2-1.1l0.4-0.2c0.7-0.3,1.4-0.7,1.8-0.7c0.1,0,0.3,0,0.7,0.3c0.5,0.4,1.2,0.7,1.9,0.7c0.8,0,1.6-0.3,2.2-0.8
				l0.9-0.8l-0.3-1.2c-0.6-2.8-0.1-3.4,1.4-4.2c0.7-0.4,1.3-0.6,1.9-0.6c0.9,0,1.9,0.5,2.9,1.6c1.6,1.7,3.8,3.6,7.7,3.6
				c0.3,0,0.6,0,0.9,0c0.2,0,0.3,0,0.5,0c2.7,0,5.4,1.5,7.7,3c0.9,0.6,1.9,1.2,3,1.8c1,0.6,1.9,0.9,2.8,0.9c1,0,2.4-0.4,3.6-2.1
				c1,0.9,2,1.6,3.1,2.3c1.5,0.9,2.8,1.7,3.4,3.1l0.5,1.2l1.2,0.1c0.8,0.1,1,0.1,1.3,2.4l0.2,1.8l1.8,0h0.9h0.8l0.6-0.6
				c2.8-2.7,4.1-6,3.8-9.6c1.2,0.3,2.3,0.4,3.5,0.5c1.7,0.1,3.1,0.3,4.3,1l0.2,0.1c1.1,0.7,1.8,1.2,2.2,1.9c0.8,2,2.3,2.4,3.4,2.4
				c0.5,0,0.9-0.1,1.3-0.1c4.4-0.7,7.9-2.3,11.1-4.8c3.4-2.7,7.8-3.1,12-3.1c1.6,0,4.9,0,5.7-4c0.1,0,0.3,0.1,0.5,0.1
				c0.7,0.3,1.4,0.6,2.1,0.9c0.7,0.3,1.4,0.6,2.1,0.9c1,0.4,2.1,0.6,3.2,0.6c0.8,0,1.7-0.1,2.5-0.3c0.2-0.1,0.9-0.2,1.3-0.2
				c0.1,0.2,0.2,0.5,0.4,1.2c0.6,2.3,2.2,3.4,3.4,4.2c0.5,0.3,1,0.6,1.3,1l1.3,1.4l1.5-1.3c1.6-1.4,2.5-3.5,2.3-5.7
				c-0.2-2.2-1.3-4.1-3.1-5.2c-0.3-0.2-0.4-0.3-0.5-0.3c0-0.1,0.1-0.2,0.2-0.4c1.8-4-0.9-7.3-1.7-8.4c-0.6-0.8-1.3-1.6-2-2.3
				c-0.4-0.5-0.8-0.9-1.2-1.4c-0.1-0.1-0.2-0.2-0.2-0.3c0-0.1,0.1-0.2,0.3-0.3c3.1-2.8,5.9-4.5,9-5.3c5-1.4,6.9-4,6.7-9.3
				c0-0.6,0.1-1.1,0.5-1.4c0.3-0.3,0.7-0.5,1.1-0.5c0.3,0,0.6,0.1,0.9,0.2c1.3,0.5,2.2,0.8,3,0.8c3.3,0,3.5-3.6,3.6-5
				c0.1-1.1,0.1-2.4,0-3.7c-0.4-4-2.8-6.8-6.4-7.5c-2.8-0.5-4.4-1.7-5.5-3.7c-0.6-1.3-1.7-2.2-3.1-2.6c-1.7-0.5-3-1.7-4-3.8
				c-0.5-1-2-4-5.8-4c-0.2,0-0.4,0-0.6,0c0,0-0.1,0-0.1,0c-0.2,0-0.6,0-1.4-1.2c-2.7-4.3-4.8-7.6-6.8-10.7c-1.2-1.8-0.9-2.8,0-3.8
				c1.1-1.3,1.2-2.5,1.2-3.2c-0.1-1.2-0.8-2.4-2-3.4c-1.6-1.3-3.2-2.7-4.8-4.1c-0.8-0.7-0.8-1-0.8-1c0,0,0-0.3,0.7-1
				c2.9-2.9,5.9-5.7,9.3-7.7c1.3-0.7,2.2-1,3.1-1c0.4,0,0.9,0.1,1.3,0.2c0.5,0.2,1,0.3,1.5,0.3c1.2,0,2.4-0.6,3.3-1.7
				c2.2-2.6,5-4.6,8.5-5.9c1.3-0.5,3.2-1.5,4-3.7c0.1,0,0.3,0,0.6-0.1c2.5-0.1,4.8-0.8,6.9-2.2c1-0.6,2.1-1.1,3.3-1.6
				c1.8-0.7,3.8-1.5,5.5-3.1c0.8-0.7,2.9-2.7,0.6-5.5c0-0.1-0.1-0.1-0.1-0.1c0.1,0,0.2-0.1,0.4-0.1c0.2,0,0.4,0,0.6,0
				c1.7,0,2.3,0.3,3,2.5c0.4,1.2,1.1,2,1.7,2.8c1.1,1.2,2.3,1.8,3.5,1.8c1,0,2.5-0.4,3.8-2.4c1.6-2.5,2.5-5.4,2.9-9.2
				c0.3-2.9-0.1-5.9-0.6-8.5c-0.6-3.3-2.5-5.6-5.5-6.6c-0.1,0-0.2-0.1-0.3-0.1c-0.1-3.1-1.7-5.6-3-7.7l-0.1-0.2
				c-1.1-1.8-1.1-2.7-0.2-4.1c3-4.4,1.7-12.2-1.4-15.7c-1.4-1.7-1.7-3.4-0.9-5.5c1.1-2.8,0.5-5.2-2-7.1c-0.8-0.6-1.5-1.3-2.3-2
				c-1-0.9-2.1-1.9-3.2-2.7c-2.1-1.5-2.9-2.8-1.5-6.6c0.4-1.1,0.9-2.1,1.5-3.2c0.8-1.5,1.6-3.1,2.1-4.9c0.6-2.3,0.6-4.3-0.2-6.4
				c-1.2-3.4-2.1-6.6-2.7-9.8c-0.7-4.1-1.9-5.2-6-5.8c-0.4-0.1-0.7-0.2-1-0.4c0.2-0.1,0.4-0.1,0.6-0.2c1-0.4,1.8-0.7,2.7-0.7
				l2.1-0.1l-0.2-2.1c-0.3-3.2-2.2-4.9-3.9-6.1c-0.6-0.4-1.3-0.9-1.9-1.3c-1.2-0.8-2.3-1.6-3.4-2.5c-1.1-0.9-2.4-1.4-3.8-1.4
				c-1.1,0-2.2,0.3-3.4,0.9c-0.6,0.3-1.2,0.6-1.7,1c-0.7-0.6-1.4-1.3-2.1-1.9c-2.4-2.1-4.6-4.1-5.9-6.9c-0.9-2-2.4-2.3-3.1-2.3
				c-1.1,0-2.1,0.6-3,1.6c-0.2,0.2-0.3,0.4-0.4,0.4c-0.1,0-0.2-0.1-0.5-0.2c-0.7-0.3-1.5-0.5-2.2-0.5c-2.5,0-4.3,2-5.3,3
				c-0.9,1-1.5,1.3-2.4,1.3l-0.1,0c-0.1,0-0.1,0-0.2,0c-3.3,0-4.6,3.1-5.1,4.3c-0.1,0.1-0.1,0.2-0.1,0.3c0,0,0,0,0,0l-0.1,0
				c-0.4,0-0.8,0-1.2,0c-6.5,0-10.3,2.4-13,8.2c-1-0.2-1.9-0.3-2.7-0.6l-0.3-0.1c-2-0.9-3.3-1.5-4.6-1.5c-1.2,0-2.1,0.4-3.1,1.2
				c-0.2-0.4-0.5-0.8-0.9-1.2c0.8-0.6,1.6-1.1,2.4-1.5c2.9-1.7,4.2-4.1,3.8-7c-0.1-0.6,0.1-1.3,0.4-2.1c0.1-0.4,0.2-0.7,0.3-1.1
				l0.6-2.5l-2.6,0c-1.8,0-3.9,0-5.6,1.3c-1,0.8-1.7,0.9-2.1,0.9c-1.2,0-2.7-0.9-4-1.7l-0.4-0.2c-1.8-1.1-2.9-1.8-4.3-1.8
				c-0.7,0-1.4,0.2-2.1,0.5c-0.2-0.3-0.4-0.6-0.6-0.9c-0.8-0.9-1.8-1.3-2.9-1.5c1.4-2.7,0.6-5.6,0.1-7.4c-0.6-2-1.8-3.3-3.6-3.8
				c-0.8-0.2-1.6-0.5-2.1-0.9c-1.4-1-3-1.8-4.8-1.8c-1.6,0-3.1,0.7-4.4,2.1c0,0,0,0,0,0c0,0,0,0-0.1,0c-0.1,0-0.1,0-0.2,0
				c-3.7-2.5-7.7-3.5-11.6-4.6l-0.6-0.2L96.9,3.5L96.9,3.5z M82.6,56.6C82.6,56.6,82.6,56.6,82.6,56.6
				C82.6,56.6,82.6,56.6,82.6,56.6L82.6,56.6C82.6,56.6,82.6,56.6,82.6,56.6L82.6,56.6z"/>
		</g>
		<g>
			<path d="M202.7,27.3c-3-1.7-3.6-1.6-6,0.6c-1.5,1.4-4.2,1.4-5.6-0.1c-0.6-0.7-0.6-1.4,0-2.1c0.6-0.8,0.6-1.4,0-2.2
				c-1.3-1.9-0.3-4.2,2-4.8c-1-3.5-0.8-3.7,2.2-4.9c0.6,3.4,0.9,3.7,4.4,3.8c0.7,0,1.4-0.2,1.8,0.6c0.4,0.8-0.1,1.3-0.6,1.8
				c-1.8,1.5-1.3,2.6,0.5,3.7C202.6,24.5,203.9,25.3,202.7,27.3z"/>
		</g>
		<g>
			<path d="M147.9,24.9c-1.5-0.3-2.2-1.6-3.1-2.7c-0.4-0.5,0.1-1.2,0.6-1.5c1.4-0.9,2.6-0.3,3.8,0.5c0.9,0.6,1.6,1.5,1.3,2.7
				C150.2,25.1,148.8,24.3,147.9,24.9z"/>
		</g>
		<g>
			<path d="M183.6,23.6c-2.6-0.1-5,0.6-7.3,1.4c-0.6-1-0.6-1.6-0.2-2.4c2.5,0.2,4.9,0.4,7.4,0.6C183.6,23.3,183.6,23.5,183.6,23.6z"
				/>
		</g>
		<g>
			<path d="M91.3,13.6c-0.9-0.4-2.4-0.2-2.3-1.7c0.1-1.2,1.3-1.2,2.4-1.3c1.2,0,1.8,0.6,1.7,1.7C93.1,13.4,92.4,13.8,91.3,13.6z"/>
		</g>
	</g>
</g>
<rect y="16.6" class="st3" width="400" height="300"/>
<path class="st4" d="M326.9,117.9c5.1,4.9,5.1,13.1,0.2,18.1l0,0l-0.2,0.2c-5.1,5.1-13.3,5.1-18.4,0.1c-5.1-5.1-5.1-13.3-0.1-18.4
	C313.5,112.8,321.8,112.8,326.9,117.9L326.9,117.9z M322.7,132c1.3-1.3,2-3.1,2-4.9c0.1-1.8-0.7-3.6-2-4.9c-1.3-1.3-3.1-2-5-2
	c-3.7-0.1-6.8,3-6.9,6.7v0.1c0,1.8,0.7,3.6,2,4.9c1.3,1.3,3,2,4.9,2C319.5,134.2,321.3,133.4,322.7,132z M352.4,119.5l-33.7,52.3
	c-0.6,1.1-1.7,1.8-2.9,1.7c-1.9-0.1-3.5-1.6-3.5-3.5c0.1-0.7,0.3-1.4,0.6-2l33.7-52.3c0.6-1.1,1.7-1.8,2.9-1.7c1,0,1.9,0.4,2.5,1.1
	c0.7,0.6,1.1,1.6,1,2.5C353.1,118.2,352.9,118.9,352.4,119.5L352.4,119.5z M338.5,169.7c-5.1-5.1-5.1-13.3,0-18.3l0.1-0.1
	c2.4-2.4,5.7-3.7,9.1-3.8c7.2-0.1,13,5.7,13.1,12.9c0.1,7.2-5.7,13-12.9,13.1C344.3,173.6,340.9,172.2,338.5,169.7z M342.7,155.6
	c-2.8,2.6-2.8,6.9-0.2,9.7l0.1,0.1l0.1,0.1c2.7,2.7,7,2.8,9.7,0.1c1.4-1.3,2.1-3.2,2-5.2c-0.1-3.7-3.1-6.6-6.8-6.8
	C345.8,153.6,344,154.3,342.7,155.6L342.7,155.6z"/>
<g>
	<ellipse transform="matrix(0.2051 -0.9787 0.9787 0.2051 179.243 327.1605)" class="st5" cx="291" cy="53.2" rx="28.8" ry="52.4"/>
	<ellipse transform="matrix(0.225 -0.9744 0.9744 0.225 179.57 322.2176)" class="st6" cx="292.3" cy="48.2" rx="25.5" ry="52.4"/>
	<ellipse transform="matrix(0.225 -0.9744 0.9744 0.225 179.57 322.2176)" class="st7" cx="292.3" cy="48.2" rx="20.4" ry="41.9"/>
	<path class="st5" d="M278.1,51.8c0.6,2.7,5.4,5.1,10.3,5.7c3.1,0.3,5.8-0.3,7-1.5l0.7-0.6l1.3,0.4c1.3,0.4,3,0.9,4.6,1
		c5.1,0.6,8.5-1.2,7.8-3.7l-0.3-0.9L315,53c1,0.1,1.9-0.1,1.8-0.9c-0.1-0.6-1.2-1-2.2-1.2l-5.2-0.7l-0.9-3.6l5.2,0.7
		c1,0.1,1.9-0.1,1.6-0.7c-0.4-0.7-1.3-1.2-2.2-1.2l-5.2-0.7l-0.7-3c-0.1-0.6-1.2-1-2.2-1.2s-1.9,0.1-1.6,0.7l0.6,2.8L279,41.4
		l-0.4-2.8c-0.1-0.6-1.2-1-2.2-1.2s-1.9,0.1-1.6,0.7l0.6,2.8l-5.2-0.7c-1-0.1-1.9,0.1-1.8,0.9c0.1,0.6,1.2,1,2.2,1.2l5.2,0.7
		l0.9,3.7l-5.2-0.7c-1-0.1-1.9,0.1-1.6,0.7c0.4,0.7,1.3,1.2,2.2,1.2l5.2,0.7L278.1,51.8z M304.7,46.2l1.6,6.4
		c0.3,1.5-1.6,2.4-4.3,2.2c-2.8-0.1-5.7-1.8-6-3.3l-1.6-6.4L304.7,46.2z M279.9,43.5l10.3,1.2l2.2,8.4c0.3,1.5-1.6,2.4-4.3,2.2
		c-2.7-0.1-5.5-1.6-6-3.3L279.9,43.5z"/>
</g>
<g>
	<ellipse transform="matrix(0.7396 -0.6731 0.6731 0.7396 -75.2074 283.7088)" class="st8" cx="329" cy="239" rx="41.8" ry="20.2"/>
	
		<ellipse transform="matrix(0.7396 -0.6731 0.6731 0.7396 -73.6764 281.9833)" class="st9" cx="327.6" cy="236.2" rx="40.9" ry="18.8"/>
	
		<ellipse transform="matrix(0.7396 -0.6731 0.6731 0.7396 -73.6764 281.9833)" class="st10" cx="327.6" cy="236.2" rx="32.8" ry="15.1"/>
	<path class="st11" d="M333.4,231.3l7.3-5.4c-0.7-0.7-1.3-1.3-1.7-2.1c-0.3-0.4-0.7-0.2-1.3,0.4c-2.4,1.7-4.8,3.4-7.2,5.2
		c-1.6,1.2-2.5,1.5-3.5,1.3c-1.3-0.2-1.5-0.2-3.1,1.7l1.9,0.3c-2.5,2-5,3.5-7.3,5.4l6.3,6.9c0.2,0.1,0.3,0.2,0.7-0.2
		c1.2-0.8,2.4-1.6,3.7-2.4l-4.3-4.8c1.4-0.9,2.7-1.8,3.9-2.8c1.6-1.3,2.6-1.6,3.6-1.3c1.3,0.3,1.3,0.2,3.1-1.7L333.4,231.3z"/>
</g>
<g>
	<ellipse class="st12" cx="183" cy="100.6" rx="31.2" ry="35.9"/>
	<ellipse class="st13" cx="179.2" cy="99.4" rx="30.1" ry="34.7"/>
	<ellipse class="st12" cx="179.2" cy="99.4" rx="24.1" ry="27.8"/>
	<path class="st13" d="M184.4,83.4c3.2,0,5.7,2.7,5.8,6.6c0.2,3.5-2.2,6.5-5,6.9c-0.4,0.1-0.8,0.2-1.2,0.1c-1.3-0.2-2.5,0.8-2.5,2.1
		v0.4c0,1.6,1,2.7,2.4,2.6c2.9-0.2,5.3,2,6,5.2c0.7,2.5-0.2,5-2,6.8c-1.5,1.7-4,2.1-6,1c-2.2-1.1-3.4-3.1-3.5-5.8
		c-0.1-1.3,0.2-2.6,0.7-3.8c0.5-1,0.2-2.1-0.5-3c-0.7-0.7-1.6-0.8-2.5-0.4c-0.3,0.2-0.7,0.5-0.8,0.9c-1.5,2.5-3.5,3.5-6,2.8
		c-2.5-0.6-4-2.5-4.6-5.4c-0.8-4.1,2.5-8.3,6.1-8c2.4,0.2,4,1.6,5.1,4c0.3,1.1,1.5,1.6,2.5,1.4c0.1,0,0.1,0,0.2-0.1
		c0.2-0.1,0.2-0.1,0.3-0.2c1.2-0.7,1.6-2.3,1-3.5c-0.6-1.2-1-2.4-1.1-3.6C178.4,86.4,181,83.5,184.4,83.4z"/>
</g>
<g>
	<path class="st14" d="M253.7,166.2c2.3,0.6,4.6,1.3,6.8,2.3l0.5,0.1c0.2,0.2,0.6,0.5,1,0.6l0.2,0.1c0.5,1,1.9,1.4,2.9,2.3
		c0.6,0.5,0.5,1.1,1.4,1.2c0.6,1.3,1.8,2.7,2.4,4.3c-0.1,0.1,0,0.2,0.1,0.4h0.1c0.1,1,0.2,1.9,0.6,2.9c0,0-0.5,0.1-0.1,0.2
		c-0.1,2.4-0.7,4.8-1.7,7c-1.2,1.4-2,3.7-3.6,5.1c-11.7,15-51.6,22.7-61.7,5c0.1-0.2-0.4-0.2-0.4-0.6s0.2-0.5-0.1-0.6
		c-1.1-1.1-0.6-4.2-1-5.2c0.1-0.4,0.1-0.7,0-1.1c0.2-0.6,0.2-1.3,0.7-1.8c0.4-1.4,0.8-2.7,1.4-4c0.4-0.4,0.6-0.7,0.8-1.2
		c1.7-2.4,3.6-4.4,5.8-6.2c0.1-0.5,1-0.5,0.8-1.1c0.1,0.1,0.2,0,0.4-0.1v-0.1c2.5-1.7,5.6-3.4,8.3-5.1c0.2,0,0.6-0.1,0.7-0.4
		c4.6-1.8,9.5-3.3,14.4-4.4c0.6,0.1,1.3,0,1.8-0.4c1.4,0,2.9-0.1,4.3-0.5c0.2,0,0.5,0.2,0.6-0.1c1.3,0.4,3-0.1,4.4,0.1
		c0.4-0.4,0.8,0.2,1.2-0.2c0.2,0.1,0.2-0.1,0.5-0.1c0.1,0.6,0.6,0.2,1,0.2C249.8,166,251.6,165.5,253.7,166.2z M262.1,187.9
		c6.7-11.1-4.6-18.1-14-19.1c-23.8-2.5-47.4,14.6-40,27.2c3.6,7,13.1,8.1,20.3,8.4c12.6-0.8,26.3-5.1,33.5-16.1L262.1,187.9z"/>
	<path class="st15" d="M262,188.3c-7.3,11.1-21,15.2-33.5,16.1c-7.1-0.4-16.8-1.4-20.3-8.4c-0.6-3.6,0.1-7.1,2-10.2
		c6.1-8.1,14.3-11.1,22.7-13.7c4.2-0.2,8.8-1.5,13.1-0.7c8.9,0.1,20.2,6.2,16.2,16.4C261.9,187.7,261.5,188.2,262,188.3z
		 M235.9,179.9C236.3,180,236.2,179.3,235.9,179.9c-5.1,0.2-10.1,0.8-15.3,1.3l6.4,8c0.5-1.9,0.7-4,1.1-5.8
		C230.8,182.3,233.3,181.2,235.9,179.9z M241,179.2c-3.7,1.1-7.5,3.2-11.3,4.6c-0.4,1.1-0.6,2.3-0.7,3.4c-0.4,1.4-0.6,2.9-0.8,4.3
		c0.2,0.2,0.5-0.1,0.7,0c7.5-0.4,15.3-0.6,23-1.3C248.4,186.7,245,182.3,241,179.2z"/>
	<path class="st15" d="M270.3,181.9l-0.1,0.2c0,1.4,0.2,2.9,0.7,4.3c-0.2,0.6,0.1,1.3-0.2,1.9c0.1,2.3-1.2,4.4-1.9,6.7
		c-1.8,2.4-3.7,4.8-5.8,6.9c-0.1,0-0.2,0-0.2,0.1v0.1c-1.4,0.7-2.9,2.5-4.5,3.2c-1.4,1.1-3.3,1.4-4.3,2.7c-0.1-0.1-0.2,0-0.4,0.1
		v0.1c-0.5-0.2-1,0-1.2,0.5c-0.1,0-0.2,0-0.4,0.2c-0.5-0.2-1,0-1.2,0.5c-0.1-0.1-0.2,0-0.4,0.2c-0.1-0.1-0.2,0-0.4,0.1v0.1
		c-0.4-0.1-0.6,0-0.8,0.2l0,0c-0.6-0.1-0.7,0-1,0.6c-3.8,0.8-7.8,2.3-11.9,3c-1,0.1-3-0.1-3.7,0.6c-1.8-0.4-4,0.4-6.1-0.1
		c-0.5,0.4-1-0.2-1.3,0.1c-4.8-0.6-9.6-1.3-13.8-3.6c-1.4-0.7-2.9-2.1-4.4-2.9c0-0.6-0.6-0.8-1.2-1.4c-1.8-2.5-2.9-5.5-3.1-8.6
		c11.2,18.6,51.3,8.8,61.5-5.4c1.5-1.3,2.5-3.4,3.6-5.1c1-2.3,1.5-4.6,1.7-7c0.6,0.4,0.4,1.1,0.5,1.5L270.3,181.9z"/>
	<path class="st16" d="M262.1,187.9c4-10.7-7.8-16.2-16.2-16.4c-4.3-0.8-8.8,0.5-13.1,0.7c-9,2.6-17.1,6.2-22.7,13.7
		c-1.2,2.1-2,4.5-2.4,6.9c-0.1,1.2,0.6,2,0.2,3.3c-3-4.6-0.7-10.1,2.5-14.2c9.4-10.8,25.8-14.3,37.5-13.1
		C260.8,170.4,267.7,178.9,262.1,187.9z"/>
	<path class="st16" d="M262,188.3c-0.1,0-0.2-0.2-0.2-0.4s0.2-0.2,0.4-0.2L262,188.3z"/>
	<path class="st14" d="M241.2,179.2c3.8,3.1,7.1,7.4,10.9,10.9c-7.4,0.7-15.3,1-23,1.3c2.4-2,6.4-3.6,9.4-5.1
		C239.4,184,240.2,181.7,241.2,179.2z"/>
	<path class="st17" d="M241.2,179.2c-0.8,2.4-1.8,4.6-2.6,7.3c-3,1.5-6.8,3-9.4,5.1c-0.2-0.1-0.5,0.4-0.7,0c0.2-1.4,0.5-2.9,0.8-4.3
		c0.1-1.2,0.4-2.4,0.7-3.4C233.6,182.5,237.5,180.2,241.2,179.2z"/>
	<path class="st14" d="M235.9,180l-7.8,3.3c-0.4,1.7-0.6,3.8-1.1,5.8l-6.4-8C225.8,180.8,230.8,180.1,235.9,180z"/>
</g>
</svg>
