<?xml version="1.0" encoding="utf-8"?>
<!-- Generator: Adobe Illustrator 24.3.0, SVG Export Plug-In . SVG Version: 6.00 Build 0)  -->
<svg version="1.1" id="Layer_1" xmlns="http://www.w3.org/2000/svg" xmlns:xlink="http://www.w3.org/1999/xlink" x="0px" y="0px"
	 viewBox="0 0 310.7 380" style="enable-background:new 0 0 310.7 380;" xml:space="preserve">
<style type="text/css">
	.st0{clip-path:url(#SVGID_2_);}
	.st1{clip-path:url(#SVGID_2_);fill:#DD0000;}
	.st2{clip-path:url(#SVGID_2_);fill:#FFCE00;}
	.st3{fill:none;}
</style>
<g>
	<defs>
		<path id="SVGID_1_" d="M99,21.2c0.8,0,1.5,0,2.3,0c5.1,1.3,10.1,2.6,14.6,5.6c1,0.7,2.6,0.7,3.5-0.3c2.8-3.1,5.5-1.8,8.3,0
			c1,0.7,2.2,1.2,3.4,1.5c1.6,0.4,2.3,1.5,2.7,3c1.1,3.9,1.7,7.7-3.2,10.7c4.2,0.6,8.5-0.8,8,4.9c4.5-3,4.4-2.8,9,0
			c3.3,2,6.6,4,10.5,0.9c1.3-1.1,3.4-1.1,5.4-1.1c-0.4,1.7-1.1,3.2-0.9,4.9c0.4,3-1.1,4.9-3.6,6.3c-1.5,0.9-2.9,1.8-4.3,2.8
			c-0.8,0.5-1.4,1.6-0.4,2.1c2,1.1,2.7,2.8,3,5c4.5-4.3,4.4-4.2,10.1-1.7c1.8,0.8,4,0.9,5.9,1.3c3.2-8.1,7.4-10.9,16.2-10.6
			c1.6,0.1,2.2-0.6,2.7-1.9c0.8-1.9,1.9-3.9,4.2-3.8c2.3,0.1,3.7-0.9,5.1-2.5c1.7-1.9,3.7-3.8,6.5-2.5c1.9,0.9,2.9,0.5,4.1-0.9
			c1-1.2,2.4-1.8,3.4,0.2c2.5,5.7,7.7,8.8,11.9,13c1.3-0.8,2.5-1.5,3.7-2.1c2.1-1.1,4.4-1.2,6.2,0.4c2.1,1.8,4.5,3.2,6.8,4.8
			c1.9,1.4,3.6,3.1,3.8,5.8c-2.5,0.1-4.5,1.4-6.7,1.8c-1.7,0.4-1.7,1.5-0.6,2.4c1.2,1,2.5,2.1,4.2,2.4c4.1,0.6,4.7,1.1,5.5,5.2
			c0.8,4.3,2,8.6,3.5,12.7c0.8,2.2,0.8,4.2,0.2,6.5c-1,3.6-3.2,6.5-4.4,10c-2,5.4-1.1,8.4,2.8,11.1c2.4,1.7,4.5,3.9,6.8,5.7
			c2.1,1.6,2.7,3.4,1.7,6c-1.4,3.4-0.8,6.6,1.6,9.4c3.4,3.9,4.4,12.4,1.6,16.6c-2,3-1.5,5.3,0.1,7.9c1.7,2.8,3.5,5.5,3.5,9
			c0,1.3,1,1.8,2,2.1c3,1,4.6,3.3,5.2,6.3c0.6,3.3,1.1,6.6,0.8,10c-0.3,3.7-1.2,7.2-3.2,10.3c-1.5,2.4-3.3,2.5-5.1,0.4
			c-0.7-0.8-1.3-1.6-1.7-2.6c-1.3-3.8-3-5-7-4.7c-2.5,0.1-3.8,2.4-2.2,4.4c1.3,1.6,0.7,2.4-0.5,3.5c-3,2.9-7.3,3.3-10.6,5.5
			c-2.2,1.4-4.6,2.3-7.3,2.3c-1.2,0-2.5,0.3-3,1.7c-0.6,1.7-2,2.6-3.5,3.2c-4.6,1.8-8.5,4.4-11.7,8.1c-0.9,1.1-1.9,1.5-3.3,1
			c-2.8-1-5.2-0.2-7.7,1.2c-4.7,2.6-8.5,6.3-12.2,10c-2.2,2.2-2.2,3.9,0.2,6.1c2,1.8,4,3.6,6.1,5.3c1.7,1.4,2.2,3,0.7,4.7
			c-2.2,2.6-1.8,5.1-0.2,7.7c2.8,4.5,5.6,8.9,8.5,13.4c1,1.5,2.2,2.8,4.1,2.7c2.9-0.2,4.4,1.2,5.6,3.6c1.4,2.9,3.4,5.1,6.6,6
			c1.1,0.3,1.9,1,2.4,2c1.8,3.6,4.7,5.2,8.6,6c3.6,0.7,5.7,3.4,6,7.1c0.1,1.4,0.1,2.9,0,4.3c-0.2,4-1.1,4.6-4.7,3.1
			c-3.4-1.4-6.7,0.9-6.5,4.5c0.2,5.5-1.2,7.7-6.5,9.1c-4.8,1.3-8.7,3.9-12.3,7.2c-1.5,1.4-1.7,2.7-0.4,4.2c1.3,1.5,2.7,3,4,4.5
			c1.9,2.3,3.2,5,1.8,7.9c-0.9,2-0.5,3,1.4,4.1c3.3,2.1,3.6,7.1,0.7,9.7c-1.7-1.8-4.5-2.4-5.2-5.4c-0.8-3.4-1.7-3.8-5.1-3
			c-1.9,0.4-3.8,0.5-5.6-0.2c-1.8-0.7-3.5-1.5-5.3-2.2c-1.7-0.7-3.5-0.7-3.9,1.5c-0.5,2.9-2.3,3.2-4.8,3.2c-5.9,0-11.9,0.6-16.6,4.4
			c-3.8,3.1-8,4.7-12.7,5.5c-1.6,0.3-2.5,0.2-3.2-1.3c-0.7-1.8-2.3-2.7-3.9-3.7c-3.4-2.1-7.3-1.2-10.9-2.3c-2.1-0.7-3,0.2-2.7,2.2
			c0.5,4.2-0.9,7.7-3.9,10.6c-0.4,0-0.8,0-1.2,0c-0.3-2.5-0.6-5-3.9-5.2c-1.6-4-6-4.9-8.7-7.7c-1.5-1.5-2.6-1.3-3.7,0.4
			c-1.3,1.9-2.9,1.9-4.7,0.8c-1.2-0.7-2.4-1.5-3.7-2.3c-3.6-2.3-7.6-4.3-11.8-4.1c-3.9,0.3-6.3-1.1-8.8-3.6c-2.9-3.1-5.8-3.6-9-1.8
			c-3.1,1.7-3.9,3.8-3,8c-0.6,0.5-1.4,0.6-1.9,0.2c-2.3-1.9-4.3-0.7-6.3,0.3c-2.6,1.3-5.3,1.8-7.9-0.1c-0.6-0.4-1.4-0.6-2.2-0.1
			c-3,2-5.1-0.6-7.2-1.8c-1.9-1-0.9-3.1-0.6-4.7c0.1-0.5,0.2-0.9,0.3-1.4c1.1-5.3,3.7-10.3,2.4-16c-0.3-1.5,0.6-3,1.5-4.3
			c3.3-4.7,5.2-10,6.1-15.6c0.4-2.9,1.8-5.4,4.3-6.8c4.7-2.8,5.4-8,8.5-12.3c-5.7-1.6-10.5-4.4-16.1-4.4c-2.6,0-4.3-1.2-5.2-3.7
			c-1.1-2.8-2.2-3.4-4.7-1.9c-3.6,2.2-6.6,1.7-9.8-0.7c-1.9-1.4-4.1-2.1-6.5-1c-0.7,0.3-1.5,0.6-2.1-0.1c-1.3-1.5-3-2.9-3.4-4.9
			c-0.5-3-2-5.3-4.1-7.4c-2.4-2.3-2.5-4.6-0.8-7.5c1-1.7,2-3.3,3-4.9c1.3-2.1,0.5-3.4-1.7-4.2c-1.6-0.5-3.3-1.1-4.4-2.6
			c-5.4-7.8-6.5-13.9,2-18.9c0.2-0.1,0.5-0.3,0.7-0.5c3.1-2.5,3.2-6.5,0.2-9.2c-0.6-0.6-1.4-1-2-1.6c-0.7-0.6-1.3-1.4-0.6-2.2
			c1.4-1.7,0.4-2.6-0.9-3.7c-1-0.8-1.7-2.1-2.6-3.1c-1.7-1.9-2.1-3.8-0.3-5.9c1.4-1.6,0.9-3-0.5-4.5c-2.6-2.6-2.2-5,0.9-7
			c0.6-0.4,1.2-0.6,1.8-1c1.5-0.9,2-2.2,0.9-3.6c-1.4-1.7-0.7-2.8,0.4-4.3c2.2-2.8,3.6-6,2.2-9.6c-1.3-3.3-2-7-4.2-10
			c-1.7-2.4-0.7-4.4,2.2-5.1c1.4-0.3,2.7,0,3.9,0.4c2.6,0.9,5.3,0.8,7.9-0.2c1.7-0.7,3.4-1.2,5.3-1.2c2.3,0,3-1.9,3.7-3.5
			c0.7-1.7-0.7-2.4-1.8-3.1c-0.4-0.3-0.7-0.6-0.8-1.5c2.2-1.7,4.6-3.5,7.1-5.3c2.7-2,4.2-6.7,3.1-9.8c-1.2-3.1-4.1-2.6-6.6-2.9
			c-0.6-0.1-1.2,0-1.7-0.2c-0.6-0.2-1.1-0.7-1.2-1.4c-0.6-3.5,2.6-6.9,6-6.2c4.6,0.9,3.7,0.1,4.2-3.4c0.5-3.6,1-7,3.7-9.7
			c0.7-0.7,0.9-1.5,0.8-2.4c-0.7-4.4,0.5-8.5,1.9-12.6c0.3-0.8,1-1.7,0.3-2.7c-0.9-0.7-2-0.3-3.1-0.3c-1.3-0.1-2-0.7-2.2-1.8
			c-0.4-2.8-1.3-5.8,2-7.7c0.8-0.5,1-1.4,1.4-2.1c1.9-4.1,3-4.9,7.3-4.2c3.6,0.6,7.1,0.2,10.5-0.5c3.3-0.6,5.9,0.5,7.8,3.1
			c1.8,2.5,1.7,5-0.7,7c0.3,1.3,1.3,1.5,2.1,2c1.2,0.7,2.5,1.7,3.8,0.2c1.1-1.3,0.6-2.5-0.3-3.6c-1.3-1.6-0.7-3,0.8-4.2
			c2.4,1.3,4.3,3.5,6.8,4.3c0.7-0.8,0.6-1.5,0.3-2c-2.3-4.2-1-8.1,1-12c0.8-1.6,1.7-2.2,3.3-0.9c1.7,1.3,3.7,1.6,5.7,1.4
			c2.9-0.2,5.6-1.6,8.7-1.5c-1.9-1.8-4.4-1-6.4-1.9c-2.2-0.9-3.1-3.1-2.3-5.7c0.9-0.7,1.8,0.8,2.8-0.1c0.6-1.6,0.7-3.3-1-4.6
			c-1.2-0.9-3.3-0.6-3.6-2.4c-0.3-1.6,1.5-2.5,2-4c0-0.2-0.1-0.4-0.1-0.6c-2.4-0.8-5.1,0.5-7.5-0.6c0.2-4.5,0.9-5.2,5-5.1
			c0.9,0,1.8,0.1,2.6-0.1c3.2-0.8,4.7-4.5,2.4-6.2c-3.5-2.6-5.7-5.8-6.6-10.1c-0.1-0.5-0.4-1.1-0.9-1.5C96.8,24.2,97.4,22.7,99,21.2
			z M236.4,58.7c-1.7,4.3,1.8,5.7,6.2,4.2c-0.5-1.1-0.4-3.3-2.1-2.5C238.3,61.3,237.7,60,236.4,58.7z M125.8,83
			c-4.2-2.1-5.8-6.4-8.5-9.9C118.9,77.5,120.3,82,125.8,83z"/>
	</defs>
	<clipPath id="SVGID_2_">
		<use xlink:href="#SVGID_1_"  style="overflow:visible;"/>
	</clipPath>
	<rect x="-1.2" class="st0" width="340.1" height="126.7"/>
	<rect x="-1.2" y="126.7" class="st1" width="340.1" height="126.7"/>
	<rect x="-1.2" y="253.3" class="st2" width="340.1" height="126.7"/>
</g>
<path class="st3" d="M233.9,48.3c-3.7-2.1-4.5-2-7.5,0.8c-1.9,1.8-5.2,1.7-7-0.1c-0.8-0.9-0.7-1.7,0-2.6c0.8-1,0.7-1.7,0-2.8
	c-1.6-2.4-0.4-5.3,2.5-6c-1.2-4.3-1.1-4.6,2.8-6.1c0.7,4.2,1.2,4.6,5.5,4.7c0.8,0,1.8-0.2,2.3,0.8c0.5,1-0.1,1.7-0.8,2.2
	c-2.3,1.9-1.7,3.3,0.6,4.6C233.7,44.8,235.4,45.9,233.9,48.3z"/>
<path class="st3" d="M165.4,45.3c-1.9-0.3-2.8-2-3.8-3.4c-0.5-0.7,0.1-1.5,0.8-1.9c1.7-1.1,3.3-0.3,4.8,0.6c1.2,0.8,2,1.9,1.6,3.4
	C168.3,45.6,166.5,44.6,165.4,45.3z"/>
<path class="st3" d="M210.1,43.4c-3.2-0.1-6.2,1-9.1,2.1c-0.8-1.4-0.7-2.4-0.2-3.6c3.1,0.3,6.2,0.6,9.2,0.8
	C210,42.9,210.1,43.2,210.1,43.4z"/>
<path class="st3" d="M94.6,31.3c-1.1-0.5-3-0.2-2.8-2.1c0.1-1.5,1.7-1.6,3-1.6c1.4,0,2.2,0.8,2.2,2.1C96.9,31,96,31.5,94.6,31.3z"/>
<g>
	<g>
		<path d="M101.3,21.2c5.1,1.3,10.1,2.6,14.6,5.6c0.5,0.3,1,0.5,1.6,0.5c0.7,0,1.4-0.3,1.9-0.8c1.2-1.4,2.5-1.9,3.7-1.9
			c1.5,0,3,0.8,4.6,1.9c1,0.7,2.2,1.2,3.4,1.5c1.6,0.4,2.3,1.5,2.7,3c1.1,3.9,1.7,7.7-3.2,10.7c4.2,0.6,8.5-0.8,8,4.9
			c2.2-1.5,3.3-2.2,4.4-2.2c1.1,0,2.3,0.7,4.6,2.1c2,1.2,4.1,2.5,6.3,2.5c1.3,0,2.7-0.4,4.2-1.6c1.3-1.1,3.4-1.1,5.4-1.1
			c-0.4,1.7-1.1,3.2-0.9,4.9c0.4,3-1.1,4.9-3.6,6.3c-1.5,0.9-2.9,1.8-4.3,2.8c-0.8,0.5-1.4,1.6-0.4,2.1c2,1.1,2.7,2.8,3,5
			c2.5-2.4,3.6-3.4,5-3.4c1.2,0,2.5,0.6,5,1.8c1.8,0.8,4,0.9,5.9,1.3c3-7.7,7-10.6,14.8-10.6c0.5,0,0.9,0,1.4,0c0.1,0,0.1,0,0.2,0
			c1.5,0,2-0.7,2.5-1.9c0.8-1.9,1.8-3.8,4-3.8c0,0,0.1,0,0.1,0c0.1,0,0.2,0,0.3,0c2.2,0,3.5-1,4.9-2.5c1.3-1.5,2.8-2.9,4.7-2.9
			c0.5,0,1.1,0.1,1.7,0.4c0.7,0.3,1.3,0.5,1.8,0.5c0.9,0,1.6-0.5,2.3-1.4c0.5-0.7,1.2-1.1,1.8-1.1c0.6,0,1.1,0.4,1.5,1.3
			c2.5,5.7,7.7,8.8,11.9,13c1.3-0.8,2.5-1.5,3.7-2.1c1-0.5,2.1-0.8,3.1-0.8c1.1,0,2.2,0.4,3.1,1.2c2.1,1.8,4.5,3.2,6.8,4.8
			c1.9,1.4,3.6,3.1,3.8,5.8c-2.5,0.1-4.5,1.4-6.7,1.8c-1.7,0.4-1.7,1.5-0.6,2.4c1.2,1,2.5,2.1,4.2,2.4c4.1,0.6,4.7,1.1,5.5,5.2
			c0.8,4.3,2,8.6,3.5,12.7c0.8,2.2,0.8,4.2,0.2,6.5c-1,3.6-3.2,6.5-4.4,10c-2,5.4-1.1,8.4,2.8,11.1c2.4,1.7,4.5,3.9,6.8,5.7
			c2.1,1.6,2.7,3.4,1.7,6c-1.4,3.4-0.8,6.6,1.6,9.4c3.4,3.9,4.4,12.4,1.6,16.6c-2,3-1.5,5.3,0.1,7.9c1.7,2.8,3.5,5.5,3.5,9
			c0,1.3,1,1.8,2,2.1c3,1,4.6,3.3,5.2,6.3c0.6,3.3,1.1,6.6,0.8,10c-0.3,3.7-1.2,7.2-3.2,10.3c-0.8,1.2-1.7,1.9-2.6,1.9
			c-0.8,0-1.7-0.5-2.5-1.5c-0.7-0.8-1.3-1.6-1.7-2.6c-1.2-3.5-2.8-4.8-6.2-4.8c-0.3,0-0.6,0-0.9,0c-2.5,0.1-3.8,2.4-2.2,4.4
			c1.3,1.6,0.7,2.4-0.5,3.5c-3,2.9-7.3,3.3-10.6,5.5c-2.2,1.4-4.6,2.3-7.3,2.3c-1.2,0-2.5,0.3-3,1.7c-0.6,1.7-2,2.6-3.5,3.2
			c-4.6,1.8-8.5,4.4-11.7,8.1c-0.7,0.8-1.4,1.2-2.2,1.2c-0.3,0-0.7-0.1-1-0.2c-0.9-0.3-1.7-0.5-2.5-0.5c-1.8,0-3.5,0.7-5.1,1.6
			c-4.7,2.6-8.5,6.3-12.2,10c-2.2,2.2-2.2,3.9,0.2,6.1c2,1.8,4,3.6,6.1,5.3c1.7,1.4,2.2,3,0.7,4.7c-2.2,2.6-1.8,5.1-0.2,7.7
			c2.8,4.5,5.6,8.9,8.5,13.4c0.9,1.4,2.1,2.7,3.8,2.7c0.1,0,0.2,0,0.3,0c0.2,0,0.4,0,0.6,0c2.5,0,4,1.4,5,3.6c1.4,2.9,3.4,5.1,6.6,6
			c1.1,0.3,1.9,1,2.4,2c1.8,3.6,4.7,5.2,8.6,6c3.6,0.7,5.7,3.4,6,7.1c0.1,1.4,0.1,2.9,0,4.3c-0.2,2.7-0.6,3.8-1.9,3.8
			c-0.7,0-1.6-0.3-2.8-0.8c-0.7-0.3-1.4-0.4-2-0.4c-2.6,0-4.6,2-4.5,4.9c0.2,5.5-1.2,7.7-6.5,9.1c-4.8,1.3-8.7,3.9-12.3,7.2
			c-1.5,1.4-1.7,2.7-0.4,4.2c1.3,1.5,2.7,3,4,4.5c1.9,2.3,3.2,5,1.8,7.9c-0.9,2-0.5,3,1.4,4.1c3.3,2.1,3.6,7.1,0.7,9.7
			c-1.7-1.8-4.5-2.4-5.2-5.4c-0.6-2.5-1.2-3.4-2.8-3.4c-0.6,0-1.4,0.1-2.3,0.4c-0.9,0.2-1.7,0.3-2.6,0.3c-1,0-2-0.2-3.1-0.6
			c-1.8-0.7-3.5-1.5-5.3-2.2c-0.6-0.2-1.2-0.4-1.8-0.4c-1,0-1.8,0.5-2.1,1.8c-0.5,2.9-2.3,3.2-4.8,3.2c-5.9,0-11.9,0.6-16.6,4.4
			c-3.8,3.1-8,4.7-12.7,5.5c-0.5,0.1-0.8,0.1-1.2,0.1c-0.9,0-1.5-0.3-2-1.4c-0.7-1.8-2.3-2.7-3.9-3.7c-3.4-2.1-7.3-1.2-10.9-2.3
			c-0.5-0.1-0.9-0.2-1.2-0.2c-1.2,0-1.7,0.9-1.5,2.4c0.5,4.2-0.9,7.7-3.9,10.6c-0.4,0-0.8,0-1.2,0c-0.3-2.5-0.6-5-3.9-5.2
			c-1.6-4-6-4.9-8.7-7.7c-0.7-0.7-1.3-1-1.8-1c-0.7,0-1.3,0.5-1.9,1.4c-0.7,1.1-1.6,1.6-2.5,1.6c-0.7,0-1.5-0.3-2.2-0.7
			c-1.2-0.7-2.4-1.5-3.7-2.3c-3.4-2.1-7.1-4.1-11-4.1c-0.3,0-0.5,0-0.8,0c-0.3,0-0.7,0-1,0c-3.4,0-5.6-1.3-7.8-3.7
			c-1.8-1.9-3.6-2.8-5.5-2.8c-1.1,0-2.3,0.3-3.5,1c-3.1,1.7-3.9,3.8-3,8c-0.3,0.3-0.8,0.5-1.2,0.5c-0.3,0-0.5-0.1-0.7-0.2
			c-0.9-0.7-1.7-1-2.5-1c-1.3,0-2.6,0.7-3.8,1.3c-1.4,0.7-2.8,1.1-4.2,1.1c-1.2,0-2.5-0.4-3.7-1.2c-0.4-0.3-0.8-0.4-1.2-0.4
			c-0.3,0-0.6,0.1-1,0.3c-0.8,0.5-1.5,0.7-2.2,0.7c-1.9,0-3.4-1.6-5.1-2.5c-1.9-1-0.9-3.1-0.6-4.7c0.1-0.5,0.2-0.9,0.3-1.4
			c1.1-5.3,3.7-10.3,2.4-16c-0.3-1.5,0.6-3,1.5-4.3c3.3-4.7,5.2-10,6.1-15.6c0.4-2.9,1.8-5.4,4.3-6.8c4.7-2.8,5.4-8,8.5-12.3
			c-5.7-1.6-10.5-4.4-16.1-4.4c0,0,0,0,0,0c0,0,0,0,0,0c-2.6,0-4.3-1.2-5.2-3.7c-0.7-1.8-1.4-2.7-2.5-2.7c-0.6,0-1.3,0.3-2.3,0.8
			c-1.5,0.9-3,1.4-4.4,1.4c-1.8,0-3.6-0.7-5.4-2.1c-1.2-0.9-2.6-1.5-4.1-1.5c-0.8,0-1.6,0.2-2.4,0.6c-0.4,0.2-0.8,0.3-1.2,0.3
			c-0.3,0-0.6-0.1-0.9-0.5c-1.3-1.5-3-2.9-3.4-4.9c-0.5-3-2-5.3-4.1-7.4c-2.4-2.3-2.5-4.6-0.8-7.5c1-1.7,2-3.3,3-4.9
			c1.3-2.1,0.5-3.4-1.7-4.2c-1.6-0.5-3.3-1.1-4.4-2.6c-5.4-7.8-6.5-13.9,2-18.9c0.2-0.1,0.5-0.3,0.7-0.5c3.1-2.5,3.2-6.5,0.2-9.2
			c-0.6-0.6-1.4-1-2-1.6c-0.7-0.6-1.3-1.4-0.6-2.2c1.4-1.7,0.4-2.6-0.9-3.7c-1-0.8-1.7-2.1-2.6-3.1c-1.7-1.9-2.1-3.8-0.3-5.9
			c1.4-1.6,0.9-3-0.5-4.5c-2.6-2.6-2.2-5,0.9-7c0.6-0.4,1.2-0.6,1.8-1c1.5-0.9,2-2.2,0.9-3.6c-1.4-1.7-0.7-2.8,0.4-4.3
			c2.2-2.8,3.6-6,2.2-9.6c-1.3-3.3-2-7-4.2-10c-1.7-2.4-0.7-4.4,2.2-5.1c0.4-0.1,0.8-0.1,1.2-0.1c0.9,0,1.9,0.3,2.8,0.6
			c1.2,0.4,2.4,0.6,3.6,0.6c1.4,0,2.8-0.3,4.2-0.8c1.7-0.7,3.4-1.2,5.3-1.2c2.3,0,3-1.9,3.7-3.5c0.7-1.7-0.7-2.4-1.8-3.1
			c-0.4-0.3-0.7-0.6-0.8-1.5c2.2-1.7,4.6-3.5,7.1-5.3c2.7-2,4.2-6.7,3.1-9.8c-1.2-3.1-4.1-2.6-6.6-2.9c-0.6-0.1-1.2,0-1.7-0.2
			c-0.6-0.2-1.1-0.7-1.2-1.4c-0.5-3.2,2.1-6.3,5.1-6.3c0.3,0,0.6,0,0.8,0.1c1.1,0.2,1.9,0.3,2.5,0.3c1.8,0,1.4-1.1,1.8-3.7
			c0.5-3.6,1-7,3.7-9.7c0.7-0.7,0.9-1.5,0.8-2.4c-0.7-4.4,0.5-8.5,1.9-12.6c0.3-0.8,1-1.7,0.3-2.7c-0.5-0.3-0.9-0.4-1.4-0.4
			c-0.5,0-0.9,0.1-1.4,0.1c-0.1,0-0.2,0-0.2,0c-1.3-0.1-2-0.7-2.2-1.8c-0.4-2.8-1.3-5.8,2-7.7c0.8-0.5,1-1.4,1.4-2.1
			c1.5-3.3,2.5-4.4,5-4.4c0.7,0,1.4,0.1,2.3,0.2c1.2,0.2,2.4,0.3,3.6,0.3c2.3,0,4.7-0.3,7-0.8c0.6-0.1,1.2-0.2,1.8-0.2
			c2.5,0,4.5,1.1,6,3.3c1.8,2.5,1.7,5-0.7,7c0.3,1.3,1.3,1.5,2.1,2c0.8,0.5,1.5,1,2.3,1c0.5,0,1-0.2,1.5-0.8
			c1.1-1.3,0.6-2.5-0.3-3.6c-1.3-1.6-0.7-3,0.8-4.2c2.4,1.3,4.3,3.5,6.8,4.3c0.7-0.8,0.6-1.5,0.3-2c-2.3-4.2-1-8.1,1-12
			c0.5-1,1-1.6,1.8-1.6c0.4,0,0.9,0.2,1.5,0.7c1.4,1.1,3.1,1.5,4.8,1.5c0.3,0,0.6,0,0.9,0c2.8-0.2,5.4-1.5,8.3-1.5
			c0.1,0,0.2,0,0.4,0c-1.9-1.8-4.4-1-6.4-1.9c-2.2-0.9-3.1-3.1-2.3-5.7c0.2-0.1,0.3-0.2,0.5-0.2c0.5,0,1,0.4,1.5,0.4
			c0.2,0,0.5-0.1,0.7-0.3c0.6-1.6,0.7-3.3-1-4.6c-1.2-0.9-3.3-0.6-3.6-2.4c-0.3-1.6,1.5-2.5,2-4c0-0.2-0.1-0.4-0.1-0.6
			c-0.6-0.2-1.3-0.3-2-0.3c-1,0-2,0.1-3,0.1c-0.9,0-1.7-0.1-2.5-0.5c0.2-4.3,0.8-5.2,4.4-5.2c0.2,0,0.4,0,0.6,0c0.4,0,0.7,0,1.1,0
			c0.5,0,1,0,1.5-0.1c3.2-0.8,4.7-4.5,2.4-6.2c-3.5-2.6-5.7-5.8-6.6-10.1c-0.1-0.5-0.4-1.1-0.9-1.5c-2.1-1.7-1.5-3.2,0.1-4.7
			C99.8,21.2,100.5,21.2,101.3,21.2 M239.5,63.4c0.9,0,2-0.2,3.2-0.6c-0.4-0.9-0.4-2.7-1.5-2.7c-0.2,0-0.4,0.1-0.7,0.2
			c-0.5,0.2-1,0.3-1.3,0.3c-1.2,0-1.8-1-2.8-2C235.2,61.8,236.8,63.4,239.5,63.4 M125.8,83c-4.2-2.1-5.8-6.4-8.5-9.9
			C118.9,77.5,120.3,82,125.8,83 M101.6,19.2h-0.3H99h-0.8l-0.6,0.6c-0.5,0.5-2.1,2.1-2,4.2c0.1,1.3,0.8,2.5,2.1,3.6
			c0,0,0.1,0.2,0.1,0.3c0.9,4.5,3.3,8.2,7.3,11.3c0.2,0.2,0.4,0.4,0.3,0.9c-0.1,0.7-0.8,1.5-1.9,1.8c-0.3,0.1-0.7,0.1-1,0.1
			c-0.2,0-0.5,0-0.7,0l-0.4,0c-0.2,0-0.4,0-0.6,0c-5.2,0-6.2,2.4-6.4,7.1l-0.1,1.3l1.2,0.6c1.3,0.6,2.5,0.7,3.4,0.7
			c0.6,0,1.1,0,1.6-0.1c0.1,0,0.2,0,0.3,0c-0.5,0.8-1,1.8-0.8,3.1c0.4,2.4,2.4,3,3.5,3.4c0.3,0.1,0.7,0.2,0.9,0.3
			c0.3,0.2,0.5,0.4,0.6,1c-0.2,0-0.4-0.1-0.6-0.1c-0.6,0-1.2,0.2-1.7,0.6l-0.5,0.4l-0.2,0.6c-0.9,3.1,0,6,2.4,7.5
			c-0.2,0-0.4,0-0.6,0.1c-0.3,0-0.5,0-0.8,0c-1.5,0-2.6-0.4-3.6-1.1c-1-0.7-1.9-1.1-2.7-1.1c-2.1,0-3.2,2-3.5,2.7
			C91.4,72.3,90,76,91.1,80c-0.1-0.1-0.3-0.2-0.4-0.3c-0.9-0.7-1.8-1.4-2.9-2L86.6,77l-1.1,0.9c-0.7,0.6-1.1,1.1-1.5,1.6
			c-0.3-0.9-0.7-1.8-1.3-2.6c-1.9-2.7-4.6-4.1-7.6-4.1c-0.7,0-1.4,0.1-2.1,0.2c-2.6,0.5-4.7,0.7-6.6,0.7c-1.1,0-2.2-0.1-3.3-0.2
			c-1.1-0.2-1.9-0.2-2.7-0.2c-3.9,0-5.3,2.4-6.8,5.5c-0.1,0.2-0.2,0.4-0.2,0.5c-0.1,0.3-0.3,0.7-0.4,0.7c-4.1,2.5-3.4,6.4-3,9
			c0,0.3,0.1,0.5,0.1,0.8c0.3,2.1,1.8,3.4,4.1,3.5c0.1,0,0.2,0,0.4,0c0.3,0,0.5,0,0.8,0c-0.1,0.1-0.1,0.3-0.2,0.4
			c-1.5,4.4-2.8,8.8-2,13.6c0,0.2,0,0.4-0.2,0.6c-3.1,3.1-3.7,7-4.2,10.8l0,0.1c-0.1,0.6-0.1,1.2-0.2,1.6c0,0.1,0,0.2,0,0.4
			c-0.5-0.1-1.2-0.2-1.7-0.3c-0.4-0.1-0.8-0.1-1.2-0.1c-2,0-4,1-5.4,2.6c-1.5,1.7-2.1,3.9-1.7,6c0.2,1.5,1.2,2.5,2.6,3
			c0.6,0.2,1.2,0.2,1.6,0.2c0.2,0,0.3,0,0.5,0c0.5,0.1,1.1,0.1,1.6,0.1c2.3,0.1,2.9,0.3,3.4,1.5c0.8,2.2-0.4,6-2.4,7.5
			c-1.7,1.3-3.4,2.6-5,3.8l-2.1,1.5l-0.9,0.7l0.1,1.1c0.1,1.4,0.7,2.4,1.8,3.1l0.3,0.2c0.2,0.1,0.5,0.3,0.7,0.5l-0.1,0.2
			c-0.7,1.8-1,2.1-1.8,2.1c-2.2,0-4.2,0.7-6,1.4c-1.2,0.5-2.4,0.7-3.5,0.7c-1,0-2-0.2-2.9-0.5c-1-0.3-2.1-0.7-3.4-0.7
			c-0.6,0-1.1,0.1-1.6,0.2c-2.1,0.5-3.6,1.7-4.3,3.3c-0.6,1.5-0.3,3.3,0.9,4.9c1.3,1.9,2,4,2.8,6.3c0.4,1.1,0.7,2.2,1.2,3.3
			c0.9,2.4,0.3,4.8-1.9,7.6c-0.9,1.1-2.9,3.7-0.4,6.8c0.1,0.1,0.1,0.2,0.2,0.2c-0.1,0.1-0.2,0.2-0.5,0.4c-0.2,0.1-0.4,0.2-0.7,0.4
			c-0.4,0.2-0.8,0.4-1.2,0.6c-2.1,1.4-3.3,3-3.5,4.8c-0.2,1.8,0.6,3.6,2.3,5.3c1.1,1.1,0.9,1.3,0.5,1.8c-1.6,1.9-2.9,4.9,0.3,8.5
			c0.3,0.3,0.5,0.7,0.8,1.1c0.5,0.7,1.1,1.6,2,2.2c0.2,0.1,0.5,0.4,0.8,0.7c0,0.1-0.1,0.1-0.1,0.2c-1,1.2-1.3,3.2,0.8,5
			c0.4,0.3,0.8,0.6,1.1,0.9c0.3,0.2,0.6,0.5,0.9,0.7c1,0.9,1.6,2,1.6,3.1c0,1.1-0.6,2.2-1.7,3c-0.2,0.1-0.3,0.3-0.5,0.3
			c-4,2.3-6.2,5.1-7,8.3c-0.8,3.8,0.5,7.9,4.3,13.5c1.4,2,3.5,2.7,5.2,3.3l0.2,0.1c0.6,0.2,0.8,0.4,0.9,0.5c0,0.1-0.1,0.3-0.3,0.8
			c-0.4,0.7-0.8,1.3-1.2,2c-0.6,0.9-1.2,1.9-1.8,2.9c-2.2,3.8-1.8,7,1.2,10c2,2,3.1,4,3.6,6.3c0.4,2.1,1.7,3.5,2.9,4.8
			c0.3,0.4,0.6,0.7,0.9,1c0.6,0.8,1.5,1.2,2.5,1.2c0.8,0,1.4-0.3,2-0.5c0.5-0.3,1-0.4,1.6-0.4c0.9,0,1.8,0.4,2.8,1.1
			c2.2,1.7,4.4,2.5,6.6,2.5c1.8,0,3.6-0.6,5.5-1.7c0.6-0.4,1-0.5,1.1-0.5c0.1,0.1,0.4,0.5,0.7,1.4c1.2,3.2,3.7,5,7.1,5
			c3.5,0,6.7,1.2,10.2,2.5c0.9,0.3,1.9,0.7,2.9,1c-0.5,0.9-1,1.9-1.4,2.8c-1.4,2.8-2.5,5.2-5.1,6.7c-2.9,1.7-4.7,4.6-5.3,8.3
			c-0.9,5.7-2.8,10.5-5.8,14.8c-0.8,1.2-2.3,3.3-1.8,5.8c0.8,3.6-0.2,7-1.2,10.7c-0.4,1.5-0.9,3-1.2,4.5c-0.1,0.2-0.1,0.5-0.2,0.7
			c-0.1,0.2-0.1,0.4-0.2,0.7c-0.1,0.2-0.1,0.5-0.2,0.7c-0.4,1.5-1.2,4.5,1.7,6.2c0.4,0.2,0.8,0.5,1.2,0.8c1.2,0.9,2.8,2,4.8,2
			c1.1,0,2.1-0.3,3.2-1c0,0,0,0,0,0c1.5,1,3.1,1.6,4.8,1.6c1.6,0,3.2-0.4,5.1-1.3l0.4-0.2c0.9-0.5,1.8-0.9,2.5-0.9
			c0.3,0,0.7,0.1,1.2,0.5c0.5,0.5,1.2,0.7,2,0.7c0.9,0,1.8-0.3,2.5-0.9l0.9-0.8l-0.3-1.2c-0.8-3.6-0.1-4.6,2-5.8
			c0.9-0.5,1.8-0.8,2.6-0.8c1.3,0,2.7,0.7,4,2.2c2.8,3,5.6,4.3,9.2,4.3c0.4,0,0.7,0,1.1,0c0.2,0,0.4,0,0.6,0c3.5,0,7,1.9,9.9,3.8
			c1.1,0.7,2.4,1.5,3.7,2.3c1.2,0.7,2.2,1,3.3,1c1.2,0,2.8-0.4,4.2-2.5c0.1-0.2,0.2-0.3,0.3-0.4c0.1,0.1,0.2,0.2,0.3,0.3
			c1.2,1.2,2.5,2,3.9,2.8c2,1.2,3.6,2.2,4.4,4.2l0.5,1.2l1.2,0.1c1.4,0.1,1.7,0.5,2,3.4l0.2,1.8l1.8,0h1.2h0.8l0.6-0.6
			c3.6-3.5,5.1-7.6,4.5-12.3c0,0,0-0.1,0-0.1c0,0,0.1,0,0.2,0c1.6,0.5,3.2,0.6,4.8,0.8c2.1,0.2,4,0.3,5.6,1.3l0.2,0.1
			c1.5,0.9,2.4,1.5,2.9,2.6c0.7,1.8,2,2.7,3.8,2.7c0.5,0,1.1-0.1,1.5-0.2c5.4-0.9,9.7-2.8,13.6-5.9c4.3-3.5,9.9-4,15.4-4
			c2,0,5.9,0,6.7-4.8c0-0.1,0-0.2,0.1-0.2c0,0,0,0,0.1,0c0.2,0,0.5,0,1.1,0.3c0.9,0.3,1.8,0.7,2.7,1.1c0.8,0.4,1.7,0.7,2.6,1.1
			c1.2,0.5,2.5,0.7,3.8,0.7c1,0,2-0.1,3.1-0.4c0.6-0.1,1.4-0.3,1.9-0.3c0.1,0,0.2,0,0.2,0c0.1,0.1,0.3,0.5,0.6,1.8
			c0.7,2.7,2.5,3.9,4,4.9c0.6,0.4,1.2,0.8,1.7,1.3l1.3,1.4l1.5-1.3c1.9-1.6,2.9-4.1,2.7-6.7c-0.2-2.6-1.5-4.8-3.6-6.1
			c-0.7-0.5-0.9-0.7-0.9-0.7c0,0,0,0,0,0c0,0,0-0.2,0.3-0.9c2.1-4.7-1.1-8.7-2.1-10c-0.8-1-1.7-1.9-2.5-2.9c-0.5-0.6-1-1.1-1.5-1.7
			c-0.5-0.6-0.6-0.7,0.2-1.4c4-3.6,7.5-5.7,11.5-6.7c6.1-1.6,8.3-4.7,8-11.1c0-0.9,0.2-1.6,0.7-2.1c0.4-0.5,1.1-0.7,1.8-0.7
			c0.4,0,0.8,0.1,1.3,0.3c1.6,0.6,2.6,0.9,3.5,0.9c3.6,0,3.9-4,3.9-5.7c0.1-1.4,0.1-3,0-4.6c-0.5-4.8-3.2-8.1-7.6-8.9
			c-3.7-0.7-5.8-2.2-7.2-4.9c-0.7-1.4-2-2.5-3.6-3c-2.3-0.7-4-2.3-5.4-5c-0.6-1.2-2.3-4.7-6.8-4.7c-0.2,0-0.5,0-0.7,0
			c0,0-0.1,0-0.1,0c-0.5,0-1.1-0.2-2.2-1.8c-3.4-5.3-6-9.5-8.4-13.3c-1.6-2.6-1.2-4,0-5.3c1-1.2,1.5-2.4,1.4-3.7
			c-0.1-1.4-0.9-2.7-2.3-3.9c-2-1.6-4.1-3.4-6-5.2c-1-1-1.2-1.5-1.2-1.6c0-0.2,0.1-0.6,1.1-1.6c3.7-3.7,7.4-7.2,11.7-9.7
			c1.7-0.9,3-1.4,4.2-1.4c0.6,0,1.2,0.1,1.8,0.3c0.6,0.2,1.2,0.3,1.7,0.3c1.4,0,2.7-0.7,3.8-2c2.8-3.4,6.4-5.8,10.8-7.6
			c1.6-0.6,3.8-1.7,4.7-4.4c0-0.2,0.1-0.3,1.2-0.3c3-0.1,5.8-1,8.4-2.7c1.2-0.8,2.7-1.4,4.2-2c2.3-0.9,4.6-1.8,6.7-3.7
			c1.1-1,3.3-3.1,0.7-6.2c-0.1-0.1-0.3-0.4-0.2-0.6c0.1-0.2,0.4-0.4,1-0.5c0.3,0,0.5,0,0.8,0c2.4,0,3.3,0.5,4.3,3.4
			c0.5,1.4,1.3,2.4,2.1,3.3c1.3,1.4,2.6,2.1,4,2.1c1.1,0,2.8-0.5,4.3-2.8c1.9-3,3.1-6.6,3.5-11.2c0.3-3.4-0.1-6.7-0.8-10.5
			c-0.7-3.9-3-6.6-6.5-7.9c-0.4-0.1-0.6-0.2-0.7-0.3c-0.1-3.9-1.9-6.8-3.7-9.7l-0.2-0.3c-1.5-2.4-1.5-3.8-0.2-5.7
			c3.6-5.3,2-14.7-1.7-19c-1.9-2.2-2.3-4.6-1.3-7.3c1.4-3.4,0.6-6.1-2.3-8.3c-1-0.8-1.9-1.6-2.9-2.5c-1.3-1.1-2.6-2.3-4-3.3
			c-2.8-2-3.9-3.8-2-8.8c0.5-1.4,1.2-2.7,1.9-4.1c1-1.9,2-3.8,2.6-6c0.8-2.7,0.7-5.2-0.2-7.7c-1.6-4.3-2.7-8.3-3.4-12.4
			c-0.9-4.9-2.1-6.1-7.1-6.8c-0.8-0.1-1.5-0.6-2.3-1.2c0.6-0.2,1.1-0.4,1.7-0.6c1.2-0.4,2.4-0.9,3.6-0.9l2.1-0.1l-0.2-2.1
			c-0.3-3.7-2.7-5.9-4.6-7.3c-0.8-0.6-1.6-1.1-2.4-1.6c-1.5-1-2.9-2-4.3-3.1c-1.3-1.1-2.8-1.6-4.4-1.6c-1.3,0-2.6,0.3-4,1
			c-0.8,0.4-1.6,0.9-2.4,1.4c-0.9-0.9-1.9-1.7-2.9-2.6c-3-2.7-5.9-5.2-7.5-8.7c-1-2.2-2.5-2.5-3.4-2.5c-1.2,0-2.3,0.6-3.4,1.8
			c-0.2,0.3-0.6,0.7-0.8,0.7c-0.1,0-0.4,0-0.9-0.3c-0.9-0.4-1.7-0.6-2.6-0.6c-3,0-5.1,2.3-6.2,3.6c-1.3,1.4-2.1,1.9-3.4,1.9
			c-0.1,0-0.1,0-0.2,0c-0.1,0-0.1,0-0.2,0c-3.8,0-5.3,3.5-5.9,5.1c-0.2,0.5-0.3,0.6-0.3,0.6c0,0,0,0,0,0c0,0-0.1,0-0.3,0l-0.1,0
			c-0.5,0-1,0-1.5,0c-8.1,0-12.7,2.9-16,10.3c-0.1,0-0.2,0-0.3-0.1c-1.3-0.2-2.5-0.4-3.5-0.9l-0.3-0.1c-2.5-1.1-4-1.8-5.5-1.8
			c-1.5,0-2.7,0.6-4,1.8c-0.4-0.8-1-1.6-1.8-2.3c1.2-0.8,2.4-1.6,3.5-2.3c3.5-2,5-4.8,4.5-8.3c-0.1-0.8,0.2-1.8,0.5-2.8
			c0.1-0.4,0.3-0.9,0.4-1.3l0.6-2.5l-2.6,0c-2.2,0-4.7,0-6.6,1.6c-1,0.8-2,1.2-3,1.2c-1.7,0-3.5-1.1-5.3-2.2l-0.4-0.3
			c-2.2-1.3-3.6-2.2-5.2-2.2c-1,0-1.8,0.3-2.8,0.8c-0.2-0.5-0.5-1-0.9-1.4c-1.1-1.2-2.5-1.6-4.1-1.8c2.2-3.4,1.1-7.2,0.5-9.6
			c-0.2-0.9-1-3.6-4.2-4.4c-1.1-0.3-2.1-0.7-2.8-1.2c-1.6-1.1-3.5-2.2-5.7-2.2c-1.9,0-3.6,0.9-5.1,2.5c-0.1,0.1-0.2,0.1-0.4,0.1
			c-0.2,0-0.4,0-0.5-0.1c-4.5-3-9.5-4.4-14.4-5.7l-0.8-0.2L101.6,19.2L101.6,19.2z M83.1,85.1c0.3-0.4,0.5-0.8,0.7-1.2
			c0.2,0.4,0.5,0.8,0.7,1c0.5,0.6,0.5,0.8,0.5,0.8c0,0,0,0.1-0.1,0.2c0,0-0.1,0.1-0.1,0.1c-0.2-0.1-0.6-0.3-0.9-0.5l-0.3-0.2
			C83.4,85.3,83.3,85.2,83.1,85.1L83.1,85.1z"/>
	</g>
	<g>
		<path d="M233.9,48.3c-3.7-2.1-4.5-2-7.5,0.8c-1.9,1.8-5.2,1.7-7-0.1c-0.8-0.9-0.7-1.7,0-2.6c0.8-1,0.7-1.7,0-2.8
			c-1.6-2.4-0.4-5.3,2.5-6c-1.2-4.3-1.1-4.6,2.8-6.1c0.7,4.2,1.2,4.6,5.5,4.7c0.8,0,1.8-0.2,2.3,0.8c0.5,1-0.1,1.7-0.8,2.2
			c-2.3,1.9-1.7,3.3,0.6,4.6C233.7,44.8,235.4,45.9,233.9,48.3z"/>
	</g>
	<g>
		<path d="M165.4,45.3c-1.9-0.3-2.8-2-3.8-3.4c-0.5-0.7,0.1-1.5,0.8-1.9c1.7-1.1,3.3-0.3,4.8,0.6c1.2,0.8,2,1.9,1.6,3.4
			C168.3,45.6,166.5,44.6,165.4,45.3z"/>
	</g>
	<g>
		<path d="M210.1,43.8c-3.2-0.1-6.2,0.8-9.1,1.7c-0.8-1.2-0.7-2-0.2-3c3.1,0.2,6.2,0.5,9.2,0.7C210,43.4,210.1,43.6,210.1,43.8z"/>
	</g>
	<g>
		<path d="M94.6,31.3c-1.1-0.5-3-0.2-2.8-2.1c0.1-1.5,1.7-1.6,3-1.6c1.4,0,2.2,0.8,2.2,2.1C96.9,31,96,31.5,94.6,31.3z"/>
	</g>
</g>
</svg>
