<?xml version="1.0" encoding="utf-8"?>
<!-- Generator: Adobe Illustrator 24.3.0, SVG Export Plug-In . SVG Version: 6.00 Build 0)  -->
<svg version="1.1" id="Layer_1" xmlns="http://www.w3.org/2000/svg" xmlns:xlink="http://www.w3.org/1999/xlink" x="0px" y="0px"
	 viewBox="0 0 528 380" style="enable-background:new 0 0 528 380;" xml:space="preserve">
<style type="text/css">
	.st0{clip-path:url(#SVGID_2_);fill:#FFFFFF;}
	.st1{clip-path:url(#SVGID_2_);fill:#00966E;}
	.st2{clip-path:url(#SVGID_2_);fill:#D62612;}
</style>
<g>
	<defs>
		<path id="SVGID_1_" d="M162.3,313.1c-1.8-0.5-3.4-1-5-1.3c-2.3-0.4-3.6,0.6-3.6,3.1c0,1.4,0.7,3.5-0.8,4.1c-2.4,1-5.5,2.3-7.5,1.5
			c-5.4-2.2-9,1.2-13.1,3.1c-1.1,0.5-1.9,1.4-3.2,1.3c-2.8-0.3-5.3,0.2-7.5,2.2c-1.6,1.4-3.6,0.6-5.4-0.3c-4.8-2.3-9.5-3-14.3,0.3
			c-1.3,0.9-2.6,0.9-4.1-0.2c-3-2.2-6.3-1.3-7.3,2.2c-1,3.6-3.5,4.6-6.4,4.4c-5-0.3-9.9-1.2-14.9-1.9c0.9-9.2,1.6-17.7,0-26.3
			c-0.3-1.9,0-3.8,1.6-5.2c1.7-1.6,2.8-3.7,3.4-5.9c0.8-2.5,0.7-5-2.5-5.9c-1.5-0.5-2.3-1.5-2.7-2.8c-1.9-5.7-5.3-11.1-5.6-17.3
			c-0.2-4.7-3.2-6.8-6.9-7.7c-6.3-1.4-12.1-4-16.4-8.5c-5.5-5.8-10.4-12.3-15.5-20.1c8.4,1.1,8.2-6.8,12.6-9.8
			c3.7-2.5,2.6-8.5-1.2-11.3c-3.9-2.9-5.6-6.2-3.9-11.1c1-2.9,0.2-6.2,2.3-8.9c1-1.2-0.2-2.3-0.8-3.3c-3.2-5.8-2-9.3,4.1-11.7
			c3.1-1.2,6.1-2.3,9.8-1.2c4.4,1.3,6.9-0.5,8.1-5c0.8-3,1.5-5.8,5.1-6.6c0.1,0,0.3-0.1,0.3-0.2c4.4-4.9,9.2-9.5,11.4-15.9
			c1-3,0.4-4.8-3-5.8c-4.3-1.3-6.8-4.9-8.4-8.8c-2.1-5-5.6-8-10.5-10.5c-8.2-4-15.7-9-15.5-19.9c0.1-3.4-0.3-6.9-4.1-8.6
			c-0.3-0.2-0.7-0.5-0.8-0.9c-1.6-6.1-5.7-11.6-3.6-18.5C27.6,70,28.3,66,28.7,62c0.3-3.1,1.7-4.9,4.7-5.1c2.3-0.2,4.2-0.8,5.2-3.2
			c0.1-0.2,0.3-0.6,0.5-0.6c6-0.9,4.8-5.7,5.1-9.5c0.2-2.1,0.9-3.9,2.2-5.6c2.7-3.4,4.3-3.7,7.9-1.3c2.8,1.9,5.6,3.8,8.4,5.8
			c3.2,2.3,6.5,4.4,10.5,5c2.3,0.3,4.1,1.6,4.1,4.3c0,2.6-1.2,4.4-3.6,5.3c-0.3,0.1-0.5,0.2-0.8,0.3c-7.4,2.6-8.9,4.5-9.4,12.4
			c-0.2,3.5,1.6,5.9,5.2,5.8c7.1-0.1,14-0.5,20.9-2.9c9-3.1,18.1-3.6,26.7,1.4c3,1.7,6,2.4,9.4,1.3c2.3-0.8,4.4-0.1,6.6,0.7
			c14,4.8,27.9,9.8,43.2,7.6c1.6-0.2,2.9-0.8,4-1.8c3.3-2.8,6.9-2.9,10.7-1.2c0.7,0.3,1.6,0.5,2.3,0.9c7.9,4,16.3,4.9,24.9,3.6
			c3.3-0.5,6.5,0,9.5,1.4c2.3,1,4.6,1.7,7.1,1.7c6,0,11.5,1.4,16.2,5.4c1.3,1.1,3.1,1.8,4.6,1.3c6.2-2.5,13.7-0.7,19.1-5.8
			c0.3-0.3,0.7-0.6,1.1-0.6c10.1-0.6,13.9-9,19.4-15.4c1-1.1,2.1-2.1,3.3-3c3-2.3,6.1-4.4,8-8c1.6-3,4.6-4.2,7.8-5.5
			c9.8-4,20.3-4.6,30.5-6.7c7.1-1.5,14.1-3,20.9-6.4c5.1-2.5,11.2-4.4,17.3-0.7c3,1.8,6.9,2.2,10.5,3c1.6,0.4,2.8,0.9,3,2.8
			c0.1,1.7,1.5,2.5,2.8,3.2c1.7,0.9,3.3,1.8,4.4,3.5c0.7,1.1,1.9,1.6,3.1,1.6c4.7,0,9.5,0.5,14.2-0.6c2.9-0.7,4.5,0.1,6,2.6
			c3.3,5.6,4.3,5.8,10,2.8c1.3-0.7,2.7-1.3,4.1-1.8c2.6-0.9,4.5,0,5.4,2.7c0.9,2.7,1.8,5.4,2.4,8.2c0.7,3.2,2.7,5.1,5.5,6.6
			c11.5,6,23.6,9.5,36.8,8.6c2.7-0.2,3.6,1,3.5,3.6c-0.1,5.4-0.2,10.6,1.6,16c1.4,4.2-1.1,8.7-4.6,12c-2,1.9-3.9,3.7-5.2,6.2
			c-1.7-0.1-3-0.9-4.1-1.9c-3.5-2.9-7.1-3.7-11.3-1.6c-0.9,0.5-2.1,0.5-3.2,0.5c-6.7,0.1-8.4,1.3-10.9,7.6c-0.2,0.4-0.3,0.8-0.4,1.1
			c-2,5.7-3.4,11.8-11.6,12.1c4,5.8,0.4,10.4-0.9,15.1c-0.7,2.6-1.2,4.9-0.7,7.5c0.9,4.8,0.7,9.6-0.2,14.5c-0.6,3,0.4,6.2,0.5,9.3
			c0,4.4-1,5.2-5.4,4.8c-0.7-0.1-1.3-0.2-2-0.3c-5.3-0.5-6,0.1-5.9,5.4c-4.4,1.3-9,2.8-5.7,9c-3.3,1.7-6.8-0.3-9.4,1.8
			c-2.5,2-1.1,6.3-4.9,7.8c1.5,1.3,2.6,2.2,3.9,3.3c2.8-2.9,6.2-0.8,9.4-1.7c0.8,1.8,1.1,3.9,4,3.6c2-0.2,2,2.1,2,3.7
			c0,2.6-0.1,4.8,3.6,5c2,0.1,2,2.4,1.1,3.5c-2.5,3-0.9,5.3,1.1,7.1c4.7,4.4,7.5,10.5,12.8,14.5c2.4,1.8,3.5,5.1,4.3,8.2
			c0.5,2.2-0.1,3.9-2.9,3.4c-2.4-0.4-4.8,0.2-7.2-0.7c-4.5-1.7-5.4-0.9-5.9,4.5c-7.3-3.8-14-3.5-19.5,3.9
			c-4.4-5.5-12.1-7.2-15.3-14.1c-1.1-2.4-3.1-4.1-5.7-5c-1.8-0.7-3.6-0.9-4.8,0.8c-2.3,3.3-5.1,2.5-7.9,1.2
			c-2.8-1.3-4.6-0.8-6.6,1.7c-4.3,5.5-9.8,7.8-17.2,8.3c-4,0.3-8.1,0.4-12.2,0.8c-2.7,0.2-4.7,2.2-4.6,5.6c0.1,7.8-1.9,9.6-9.6,9.6
			c-6.4,0-8.2,2.1-8.2,9.6c-1.4,1.3-2.7,0.7-4.1,0c-1.5-0.8-2.2-3.3-4.3-2.5c-3.5,1.3-7.6,0.9-10.6,3.7c-2,1.9-1.7,5,0.9,7
			c3.7,2.8,6.6,10,5.8,14.8c-0.1,0.6-0.2,1.4,0,2c1.6,6.4-1,10.8-7.3,12.3c-4,0.9-7.2,3.8-11.5,3.9c-1,0-2.4,0.8-3.1,0
			c-3.9-4.5-7.6-0.9-11.4,0c-0.8,0.2-1.6,1.1-2.2,0.9c-10.7-3.3-19.1,4.1-28.8,5.8c-3.5,0.6-6.1,0.2-8.1-2.8
			c-2.4-3.5-5.9-5.4-9.8-6.8c-3.8-1.4-7.6-3.1-11.3-4.8c-4.5-2.1-6-1.7-8.6,2.5c-1.3,2-2.8,1.1-3.6-0.1c-2.6-3.9-6.4-5.4-10.7-6.7
			c-3.4-1-4.3-4.7-5.1-7.7c-1.5-5.6-2.1-5.9-7.3-3c-3.3,1.8-7.1,1.5-10.7,1.6c-0.4,0-1-0.4-1.3-0.8
			C166.9,308.1,166.6,308.1,162.3,313.1z"/>
	</defs>
	<clipPath id="SVGID_2_">
		<use xlink:href="#SVGID_1_"  style="overflow:visible;"/>
	</clipPath>
	<rect x="19" y="-21" class="st0" width="487" height="126.5"/>
	<rect x="19" y="105.5" class="st1" width="487" height="126.5"/>
	<rect x="19" y="229.5" class="st2" width="473" height="126.5"/>
</g>
<g>
	<g>
		<path d="M50.6,35.1c1.1,0,2.2,0.5,3.7,1.5c2.8,1.9,5.6,3.8,8.4,5.8c3.2,2.3,6.5,4.4,10.5,5c2.3,0.3,4.1,1.6,4.1,4.3
			c0,2.6-1.2,4.4-3.6,5.3c-0.3,0.1-0.5,0.2-0.8,0.3c-7.4,2.6-8.9,4.5-9.4,12.4c-0.2,3.5,1.6,5.8,5.1,5.8c0,0,0.1,0,0.1,0
			c7.1-0.1,14-0.5,20.9-2.9c4.2-1.5,8.5-2.3,12.7-2.3c4.8,0,9.5,1.1,14,3.8c2,1.2,4,1.8,6.1,1.8c1.1,0,2.1-0.2,3.2-0.5
			c0.7-0.2,1.4-0.3,2.1-0.3c1.5,0,3,0.5,4.6,1c11.6,4,23.1,8.1,35.4,8.1c2.6,0,5.1-0.2,7.7-0.6c1.6-0.2,2.9-0.8,4-1.8
			c1.9-1.6,3.9-2.3,5.9-2.3c1.5,0,3.1,0.4,4.7,1.1c0.7,0.3,1.6,0.5,2.3,0.9c5.7,2.9,11.6,4.2,17.7,4.2c2.4,0,4.8-0.2,7.3-0.6
			c0.8-0.1,1.7-0.2,2.5-0.2c2.4,0,4.7,0.5,7,1.6c2.3,1,4.6,1.7,7.1,1.7c6,0,11.5,1.4,16.2,5.4c1,0.8,2.3,1.5,3.5,1.5
			c0.4,0,0.8-0.1,1.1-0.2c6.2-2.5,13.7-0.7,19.1-5.8c0.3-0.3,0.7-0.6,1.1-0.6c10.1-0.6,13.9-9,19.4-15.4c1-1.1,2.1-2.1,3.3-3
			c3-2.3,6.1-4.4,8-8c1.6-3,4.6-4.2,7.8-5.5c9.8-4,20.3-4.6,30.5-6.7c7.1-1.5,14.1-3,20.9-6.4c3-1.5,6.4-2.8,10-2.8
			c2.4,0,4.9,0.6,7.3,2.1c3,1.8,6.9,2.2,10.5,3c1.6,0.4,2.8,0.9,3,2.8c0.1,1.7,1.5,2.5,2.8,3.2c1.7,0.9,3.3,1.8,4.4,3.5
			c0.7,1.1,1.9,1.6,3.1,1.6c2.2,0,4.4,0.1,6.7,0.1c2.5,0,5.1-0.1,7.5-0.8c0.7-0.2,1.3-0.2,1.8-0.2c1.8,0,3,0.9,4.2,2.9
			c1.9,3.3,3.1,4.7,4.9,4.7c1.3,0,2.8-0.7,5.1-1.9c1.3-0.7,2.7-1.3,4.1-1.8c0.7-0.2,1.3-0.3,1.8-0.3c1.7,0,2.9,1,3.6,3
			c0.9,2.7,1.8,5.4,2.4,8.2c0.7,3.2,2.7,5.1,5.5,6.6c10.3,5.4,21,8.7,32.5,8.7c1.4,0,2.8-0.1,4.3-0.2c0.2,0,0.4,0,0.5,0
			c2.3,0,3,1.2,3,3.6c-0.1,5.4-0.2,10.6,1.6,16c1.4,4.2-1.1,8.7-4.6,12c-2,1.9-3.9,3.7-5.2,6.2c-1.7-0.1-3-0.9-4.1-1.9
			c-2.1-1.8-4.4-2.8-6.7-2.8c-1.5,0-3,0.4-4.6,1.2c-0.9,0.5-2.1,0.5-3.2,0.5c-6.7,0.1-8.4,1.3-10.9,7.6c-0.2,0.4-0.3,0.8-0.4,1.1
			c-2,5.7-3.4,11.8-11.6,12.1c4,5.8,0.4,10.4-0.9,15.1c-0.7,2.6-1.2,4.9-0.7,7.5c0.9,4.8,0.7,9.6-0.2,14.5c-0.6,3,0.4,6.2,0.5,9.3
			c0,3.7-0.7,4.9-3.6,4.9c-0.5,0-1.1,0-1.8-0.1c-0.7-0.1-1.3-0.2-2-0.3c-0.9-0.1-1.7-0.1-2.3-0.1c-3.2,0-3.6,1.2-3.5,5.6
			c-4.4,1.3-9,2.8-5.7,9c-1.3,0.6-2.6,0.7-3.8,0.7c-0.6,0-1.1,0-1.6,0c-1.4,0-2.8,0.1-3.9,1.1c-2.5,2-1.1,6.3-4.9,7.8
			c1.5,1.3,2.6,2.2,3.9,3.3c1.3-1.3,2.7-1.6,4.2-1.6c1.1,0,2.2,0.2,3.3,0.2c0.7,0,1.4-0.1,2-0.2c0.8,1.7,1.1,3.6,3.5,3.6
			c0.2,0,0.3,0,0.5,0c0.1,0,0.1,0,0.2,0c1.8,0,1.8,2.2,1.8,3.7c0,2.6-0.1,4.8,3.6,5c2,0.1,2,2.4,1.1,3.5c-2.5,3-0.9,5.3,1.1,7.1
			c4.7,4.4,7.5,10.5,12.8,14.5c2.4,1.8,3.5,5.1,4.3,8.2c0.5,1.9,0,3.5-2,3.5c-0.3,0-0.6,0-0.9-0.1c-2.4-0.4-4.8,0.2-7.2-0.7
			c-1.3-0.5-2.4-0.8-3.2-0.8c-1.8,0-2.4,1.5-2.8,5.3c-3-1.5-5.8-2.4-8.5-2.4c-4,0-7.7,1.9-11,6.4c-4.4-5.5-12.1-7.2-15.3-14.1
			c-1.1-2.4-3.1-4.1-5.7-5c-0.8-0.3-1.5-0.5-2.3-0.5c-1,0-1.9,0.4-2.5,1.3c-1.2,1.7-2.5,2.3-3.9,2.3c-1.3,0-2.6-0.5-4-1.2
			c-1-0.5-1.9-0.7-2.7-0.7c-1.4,0-2.6,0.8-3.9,2.4c-4.3,5.5-9.8,7.8-17.2,8.3c-4,0.3-8.1,0.4-12.2,0.8c-2.7,0.2-4.7,2.2-4.6,5.6
			c0.1,7.7-1.8,9.6-9.3,9.6c-0.1,0-0.2,0-0.3,0c-0.1,0-0.1,0-0.2,0c-6.2,0-8,2.2-8,9.6c-0.6,0.6-1.2,0.8-1.7,0.8
			c-0.8,0-1.6-0.4-2.3-0.8c-1.3-0.7-2-2.6-3.5-2.6c-0.2,0-0.5,0-0.8,0.2c-3.5,1.3-7.6,0.9-10.6,3.7c-2,1.9-1.7,5,0.9,7
			c3.7,2.8,6.6,10,5.8,14.8c-0.1,0.6-0.2,1.4,0,2c1.6,6.4-1,10.8-7.3,12.3c-4,0.9-7.2,3.8-11.5,3.9c-0.7,0-1.5,0.4-2.2,0.4
			c-0.4,0-0.7-0.1-0.9-0.4c-1.4-1.6-2.8-2.2-4.2-2.2c-2.4,0-4.8,1.6-7.2,2.2c-0.7,0.2-1.5,0.9-2,0.9c-0.1,0-0.1,0-0.2,0
			c-1.9-0.6-3.7-0.8-5.5-0.8c-8.2,0-15.4,5.3-23.3,6.7c-0.9,0.2-1.7,0.2-2.5,0.2c-2.3,0-4.1-0.8-5.7-3.1c-2.4-3.5-5.9-5.4-9.8-6.8
			c-3.8-1.4-7.6-3.1-11.3-4.8c-1.7-0.8-3-1.2-4.1-1.2c-1.7,0-2.9,1.1-4.6,3.7c-0.5,0.9-1.1,1.2-1.7,1.2c-0.8,0-1.5-0.6-1.9-1.3
			c-2.6-3.9-6.4-5.4-10.7-6.7c-3.4-1-4.3-4.7-5.1-7.7c-0.9-3.4-1.5-4.8-2.9-4.8c-1,0-2.3,0.7-4.4,1.8c-3.3,1.8-7.1,1.5-10.7,1.6
			c0,0,0,0,0,0c-0.4,0-0.9-0.4-1.3-0.8c-2-2.1-3.1-3.1-4.2-3.1c-1.2,0-2.4,1.3-4.6,3.9c-1.8-0.5-3.4-1-5-1.3
			c-0.3-0.1-0.6-0.1-0.9-0.1c-1.8,0-2.7,1-2.7,3.2c0,1.4,0.7,3.5-0.8,4.1c-1.9,0.8-4.2,1.8-6.1,1.8c-0.5,0-1-0.1-1.4-0.2
			c-1.2-0.5-2.4-0.7-3.5-0.7c-3.6,0-6.5,2.3-9.6,3.8c-1,0.5-1.8,1.3-3,1.3c-0.1,0-0.2,0-0.3,0c-0.5-0.1-1-0.1-1.4-0.1
			c-2.2,0-4.2,0.6-6.1,2.3c-0.6,0.5-1.3,0.8-2,0.8c-1.1,0-2.3-0.5-3.3-1c-2.5-1.2-4.9-1.9-7.4-1.9c-2.3,0-4.6,0.7-6.9,2.2
			c-0.6,0.4-1.2,0.6-1.8,0.6c-0.7,0-1.5-0.3-2.3-0.9c-1.1-0.8-2.2-1.2-3.3-1.2c-1.8,0-3.4,1.2-4,3.4c-0.9,3.3-3.1,4.5-5.7,4.5
			c-0.2,0-0.4,0-0.6,0c-5-0.3-9.9-1.2-14.9-1.9c0.9-9.2,1.6-17.7,0-26.3c-0.3-1.9,0-3.8,1.6-5.2c1.7-1.6,2.8-3.7,3.4-5.9
			c0.8-2.5,0.7-5-2.5-5.9c-1.5-0.5-2.3-1.5-2.7-2.8c-1.9-5.7-5.3-11.1-5.6-17.3c-0.2-4.7-3.2-6.8-6.9-7.7c-6.3-1.4-12.1-4-16.4-8.5
			c-5.5-5.8-10.4-12.3-15.5-20.1c0.6,0.1,1.1,0.1,1.6,0.1c6.8,0,6.9-7.1,11.1-10c3.7-2.5,2.6-8.5-1.2-11.3
			c-3.9-2.9-5.6-6.2-3.9-11.1c1-2.9,0.2-6.2,2.3-8.9c1-1.2-0.2-2.3-0.8-3.3c-3.2-5.8-2-9.3,4.1-11.7c2.2-0.9,4.4-1.7,6.8-1.7
			c1,0,2,0.1,3,0.4c1,0.3,1.8,0.4,2.6,0.4c2.8,0,4.5-1.9,5.5-5.4c0.8-3,1.5-5.8,5.1-6.6c0.1,0,0.3-0.1,0.3-0.2
			c4.4-4.9,9.2-9.5,11.4-15.9c1-3,0.4-4.8-3-5.8c-4.3-1.3-6.8-4.9-8.4-8.8c-2.1-5-5.6-8-10.5-10.5c-8.2-4-15.7-9-15.5-19.9
			c0.1-3.4-0.3-6.9-4.1-8.6c-0.3-0.2-0.7-0.5-0.8-0.9c-1.6-6.1-5.7-11.6-3.6-18.5C27.6,70,28.3,66,28.7,62c0.3-3.1,1.7-4.9,4.7-5.1
			c2.3-0.2,4.2-0.8,5.2-3.2c0.1-0.2,0.3-0.6,0.5-0.6c6-0.9,4.8-5.7,5.1-9.5c0.2-2.1,0.9-3.9,2.2-5.6C48,36,49.2,35.1,50.6,35.1
			 M50.6,33.1c-2.5,0-4.2,1.7-5.7,3.6c-1.5,1.9-2.4,4.1-2.6,6.6c-0.1,0.8-0.1,1.5-0.1,2.2c-0.1,3.8-0.3,5.1-3.3,5.5
			c-1.3,0.2-1.9,1.4-2.1,1.8c-0.4,1.1-1.1,1.7-3.5,1.9c-3.8,0.3-6,2.7-6.5,6.9c-0.5,4.6-1.2,8.3-2.2,11.6
			c-1.7,5.6,0.2,10.4,1.9,14.6c0.7,1.7,1.3,3.3,1.7,4.9c0.2,0.9,1,1.8,1.9,2.2c2.2,1,3,2.9,2.9,6.8c-0.3,11.8,7.8,17.4,16.6,21.8
			c4.9,2.4,7.8,5.2,9.6,9.5c1.5,3.5,4.1,8.3,9.7,9.9c1,0.3,1.7,0.7,1.9,1.1c0.2,0.4,0.1,1.1-0.2,2.2c-1.7,5.1-5.3,9-9.1,13.1
			c-0.6,0.6-1.1,1.2-1.7,1.8c-4.4,1.2-5.3,4.9-6.2,7.9l0,0.1c-0.9,3.5-2.3,3.9-3.6,3.9c-0.6,0-1.3-0.1-2-0.3
			c-1.2-0.3-2.4-0.5-3.6-0.5c-2.7,0-5.1,0.9-7.5,1.8c-3.6,1.4-5.7,3.3-6.6,5.7c-0.9,2.5-0.4,5.4,1.5,8.9c0.2,0.3,0.4,0.6,0.5,0.8
			c0.1,0.1,0.2,0.3,0.3,0.5c-1.5,2.1-1.8,4.3-2,6.3c-0.1,1.1-0.2,2.1-0.5,3c-2.4,7.1,1.5,11,4.6,13.4c1.6,1.2,2.7,3.3,2.7,5.3
			c0,0.9-0.3,2-1.4,2.8c-1.9,1.3-3.1,3.3-4.1,5.1c-1.7,2.9-2.8,4.5-5.8,4.5c-0.4,0-0.8,0-1.3-0.1l-4.4-0.6l2.4,3.7
			c5.9,9,10.7,15.1,15.8,20.4c4.1,4.3,10,7.3,17.4,9c3.6,0.8,5.2,2.6,5.4,5.8c0.2,4.6,1.9,8.6,3.6,12.6c0.8,1.8,1.5,3.5,2.1,5.3
			c0.9,2.6,2.7,3.6,4.1,4.1c0.7,0.2,1.1,0.5,1.3,0.8c0.3,0.5,0.2,1.4-0.1,2.6c-0.7,2.3-1.6,3.9-2.9,5.1c-1.9,1.8-2.7,4.2-2.2,7.1
			c1.5,8.4,0.8,17,0,25.8l-0.2,1.9l1.9,0.3c1.5,0.2,3,0.4,4.4,0.6c3.5,0.5,7,1.1,10.6,1.3c0.3,0,0.5,0,0.8,0c3.9,0,6.6-2.1,7.7-5.9
			c0.2-0.7,0.7-1.9,2.1-1.9c0.7,0,1.4,0.3,2.1,0.8c1.1,0.8,2.3,1.3,3.4,1.3c1,0,2-0.3,3-1c1.8-1.3,3.7-1.9,5.7-1.9
			c1.9,0,4.1,0.6,6.5,1.7c1.3,0.6,2.7,1.2,4.2,1.2c1.3,0,2.4-0.4,3.4-1.2c1.4-1.2,2.9-1.8,4.8-1.8c0.4,0,0.8,0,1.2,0.1
			c0.2,0,0.3,0,0.5,0c1.4,0,2.4-0.6,3.1-1.1c0.3-0.2,0.5-0.3,0.7-0.4c0.9-0.4,1.8-0.9,2.6-1.4c2.1-1.2,4-2.3,6.2-2.3
			c0.9,0,1.8,0.2,2.7,0.6c0.6,0.3,1.4,0.4,2.2,0.4c2.2,0,4.6-1,6.6-1.8l0.3-0.1c2.5-1,2.3-3.8,2.1-5.1c0-0.3-0.1-0.6-0.1-0.9
			c0-0.7,0.1-1.1,0.2-1.1c0,0,0.1-0.1,0.5-0.1c0.2,0,0.4,0,0.6,0.1c1,0.2,1.9,0.4,3,0.8c0.6,0.2,1.1,0.3,1.7,0.5l1.2,0.3l0.8-1
			c0.9-1.1,2.5-2.9,3.1-3.2c0.5,0.2,1.9,1.6,2.8,2.5c0.9,0.9,1.8,1.4,2.7,1.4h0l0.1,0c0.6,0,1.2,0,1.8,0c3.3,0,6.6-0.1,9.8-1.8
			c0.7-0.4,2.5-1.4,3.3-1.6c0.4,0.6,0.9,2.6,1.1,3.3l0.1,0.2c0.9,3.2,2.1,7.7,6.5,8.9c4.3,1.2,7.5,2.6,9.6,5.8
			c0.9,1.4,2.2,2.2,3.6,2.2c0.8,0,2.2-0.3,3.4-2.1c1.6-2.6,2.3-2.8,2.9-2.8c0.7,0,1.7,0.3,3.3,1c3.8,1.7,7.5,3.4,11.4,4.8
			c3.1,1.1,6.6,2.8,8.8,6c1.8,2.7,4.2,3.9,7.3,3.9c0.8,0,1.8-0.1,2.8-0.3c3.6-0.6,6.9-2,10.2-3.3c4.3-1.7,8.4-3.4,12.8-3.4
			c1.7,0,3.3,0.2,4.9,0.7c0.2,0.1,0.5,0.1,0.7,0.1c0.9,0,1.5-0.4,2.1-0.8c0.1-0.1,0.4-0.2,0.5-0.3c1-0.2,2.1-0.7,3.1-1.1
			c1.3-0.5,2.5-1,3.6-1c0.7,0,1.6,0.2,2.7,1.5c0.4,0.5,1.2,1.1,2.4,1.1c0.6,0,1.1-0.1,1.6-0.2c0.2-0.1,0.5-0.1,0.6-0.1
			c2.9-0.1,5.3-1.2,7.6-2.3c1.5-0.7,2.8-1.3,4.3-1.7c3.6-0.8,6.2-2.5,7.8-5.1c1.6-2.6,1.9-5.9,1-9.6c-0.1-0.3,0-1,0.1-1.2
			c0.9-5.5-2.2-13.5-6.6-16.7c-0.9-0.6-1.4-1.5-1.4-2.3c0-0.6,0.2-1.2,0.7-1.6c1.5-1.4,3.5-1.8,5.8-2.3c1.4-0.3,2.8-0.5,4.1-1.1
			c0,0,0,0,0,0c0.2,0.1,0.5,0.5,0.7,0.7c0.5,0.5,1.1,1.2,1.9,1.7c1,0.5,2,1,3.3,1c1.2,0,2.2-0.4,3.1-1.3l0.6-0.6l0-0.9
			c0-3.3,0.4-5.3,1.2-6.3c0.5-0.6,1.5-1.3,4.8-1.3l0.2,0l0.3,0c3.3,0,6.7-0.3,8.9-2.5c2.2-2.2,2.4-5.7,2.4-9.2c0-2.2,1-3.4,2.8-3.6
			c2.5-0.2,5.1-0.4,7.5-0.5c1.5-0.1,3.1-0.2,4.6-0.3c8.3-0.6,14.2-3.4,18.6-9.1c1.1-1.4,1.8-1.6,2.3-1.6c0.5,0,1.1,0.2,1.8,0.5
			c1.4,0.7,3.1,1.3,4.8,1.3c2.2,0,4.1-1.1,5.6-3.2c0.2-0.3,0.5-0.5,0.9-0.5c0.4,0,0.9,0.1,1.6,0.4c2.2,0.8,3.7,2.2,4.6,4
			c2.1,4.5,5.7,6.9,9.2,9.3c2.4,1.6,4.7,3.1,6.3,5.2l1.6,2l1.5-2.1c2.7-3.7,5.8-5.6,9.4-5.6c2.3,0,4.8,0.7,7.6,2.2l2.6,1.4l0.3-3
			c0.2-2.5,0.5-3.3,0.7-3.5c0,0,0,0,0.1,0c0.5,0,1.3,0.2,2.5,0.7c1.8,0.7,3.5,0.7,5,0.7c0.9,0,1.8,0,2.6,0.2
			c0.4,0.1,0.9,0.1,1.2,0.1c1.8,0,2.8-0.8,3.3-1.5c0.6-0.8,1.2-2.2,0.6-4.5c-0.8-3.3-2.1-7-5-9.3c-2.8-2.1-4.8-4.8-7-7.7
			c-1.7-2.3-3.5-4.7-5.7-6.7c-2.2-2-2-3-0.9-4.4c1.1-1.3,1.3-3.2,0.7-4.6c-0.6-1.3-1.7-2.1-3.2-2.1c-1.6-0.1-1.7-0.1-1.7-2.9l0-0.1
			c0-1.3,0-3.4-1.3-4.7c-0.7-0.7-1.5-1-2.5-1c-0.1,0-0.3,0-0.4,0c-0.1,0-0.2,0-0.3,0c-0.6,0-0.7,0-1.3-1.6c-0.1-0.3-0.2-0.6-0.4-0.9
			l-0.7-1.6l-1.7,0.5c-0.4,0.1-0.9,0.2-1.5,0.2c-0.5,0-1,0-1.5-0.1c-0.6,0-1.1-0.1-1.7-0.1c-1.1,0-2.6,0.1-4.1,1l-0.7-0.6
			c1.1-1.2,1.5-2.7,1.8-3.9c0.3-1.2,0.6-2,1.2-2.5c0.7-0.5,1.5-0.6,2.7-0.6c0.3,0,0.5,0,0.8,0c0.3,0,0.6,0,0.9,0
			c1.4,0,3.1-0.1,4.7-1l1.8-0.9l-0.9-1.8c-0.6-1.1-1.1-2.5-0.7-3.5c0.5-1.3,3.2-2.1,5.3-2.7l1.5-0.4l0-1.5c-0.1-2.6,0.1-3.2,0.3-3.4
			c0,0,0,0,0,0c0,0,0.3-0.1,1.3-0.1c0.5,0,1.2,0,2.2,0.1c0.3,0,0.6,0.1,0.9,0.1c0.4,0.1,0.7,0.1,1.1,0.1c0.8,0.1,1.5,0.1,2,0.1
			c1.2,0,2.9-0.1,4.1-1.4c1.3-1.3,1.5-3.1,1.5-5.5c0-1.3-0.2-2.6-0.3-3.9c-0.2-1.8-0.4-3.5-0.2-5c1-5.5,1.1-10.5,0.2-15.2
			c-0.4-2.1-0.1-4,0.7-6.6c0.3-0.9,0.6-1.9,1-2.9c1.2-3.1,2.7-6.9,1.1-11.1c6.5-1.6,8.5-7.2,10-11.9c0.1-0.4,0.3-0.8,0.4-1.2
			c0.1-0.4,0.3-0.7,0.4-1.1c2.2-5.6,3.1-6.2,9-6.3l0.1,0c1.2,0,2.6-0.1,3.9-0.7c1.3-0.6,2.5-1,3.7-1c1.8,0,3.6,0.8,5.4,2.3
			c1.2,1,2.9,2.2,5.3,2.3l1.3,0.1l0.6-1.2c1.1-2.2,2.9-3.9,4.7-5.6c4.7-4.4,6.6-9.6,5.1-14c-1.7-5.2-1.6-10.3-1.5-15.3
			c0-1.2-0.1-3-1.3-4.3c-0.9-0.9-2.1-1.3-3.7-1.3c-0.2,0-0.4,0-0.7,0c-1.4,0.1-2.7,0.1-4.1,0.1c-10.3,0-20.6-2.8-31.6-8.5
			c-2.7-1.4-4-2.9-4.5-5.2c-0.6-2.6-1.4-5.2-2.3-7.7l-0.2-0.7c-0.9-2.8-2.9-4.4-5.5-4.4c-0.8,0-1.6,0.1-2.5,0.4
			c-1.6,0.6-3.2,1.3-4.3,1.9c-1.6,0.8-3.3,1.7-4.2,1.7c-0.6,0-1.3-0.6-3.2-3.7c-1-1.7-2.6-3.9-5.9-3.9c-0.7,0-1.5,0.1-2.3,0.3
			c-2,0.5-4.2,0.7-7.1,0.7c-1.2,0-2.4,0-3.6-0.1c-1,0-2-0.1-3-0.1c-1.1,0-1.3-0.4-1.5-0.6c-1.3-2.1-3.3-3.2-5.2-4.2
			c-1.4-0.7-1.7-1.1-1.7-1.6c-0.3-3.5-3.2-4.2-4.5-4.6c-1-0.2-2-0.4-3-0.6c-2.6-0.5-5-1-7-2.2c-2.6-1.6-5.4-2.4-8.4-2.4
			c-4.4,0-8.3,1.7-10.9,3c-6.3,3.1-12.9,4.7-20.4,6.2c-3.1,0.6-6.2,1.2-9.3,1.7c-7.1,1.2-14.5,2.4-21.5,5.2c-3,1.2-6.8,2.7-8.8,6.4
			c-1.6,2.9-4.1,4.8-6.8,6.9l-0.6,0.4c-1.1,0.8-2.5,1.9-3.6,3.3c-1.2,1.4-2.3,2.8-3.3,4.2c-3.9,5.2-7.6,10.1-14.6,10.4
			c-1,0.1-1.8,0.6-2.3,1.1c-2.9,2.7-6.6,3.2-10.5,3.7c-2.6,0.3-5.3,0.7-7.9,1.7c-0.1,0-0.2,0.1-0.4,0.1c-0.6,0-1.5-0.4-2.2-1
			c-4.6-3.9-10.4-5.9-17.5-5.9c-1.9,0-4-0.5-6.3-1.5c-2.6-1.2-5.2-1.7-7.8-1.7c-0.9,0-1.9,0.1-2.8,0.2c-2.4,0.4-4.7,0.6-7,0.6
			c-6,0-11.6-1.3-16.8-4c-0.5-0.3-1.1-0.4-1.5-0.6c-0.3-0.1-0.6-0.2-0.8-0.3c-1.9-0.9-3.8-1.3-5.5-1.3c-2.6,0-5,0.9-7.2,2.8
			c-0.9,0.7-1.9,1.2-3,1.3c-2.4,0.4-4.9,0.5-7.5,0.5c-11.6,0-22.9-3.9-33.8-7.7l-1-0.3c-1.6-0.6-3.4-1.2-5.2-1.2
			c-0.9,0-1.8,0.1-2.7,0.4c-0.9,0.3-1.8,0.4-2.6,0.4c-1.6,0-3.3-0.5-5.1-1.5c-4.6-2.7-9.7-4-15-4c-4.2,0-8.6,0.8-13.3,2.5
			c-6.2,2.2-12.6,2.7-20.2,2.8l-0.1,0c-1.1,0-1.9-0.3-2.4-0.8c-0.7-0.8-0.8-2-0.7-2.9c0.5-7,1.4-8.3,8.1-10.6
			c0.2-0.1,0.4-0.1,0.6-0.2l0.2-0.1c3.2-1.2,5-3.7,5-7.2c0-3.3-2.2-5.7-5.8-6.2c-3.6-0.6-6.7-2.5-9.7-4.7c-3.1-2.2-6.1-4.2-8.5-5.8
			C53.5,33.7,52,33.1,50.6,33.1L50.6,33.1z"/>
	</g>
</g>
</svg>
