<?xml version="1.0" encoding="utf-8"?>
<!-- Generator: Adobe Illustrator 24.3.0, SVG Export Plug-In . SVG Version: 6.00 Build 0)  -->
<svg version="1.1" id="Layer_1" xmlns="http://www.w3.org/2000/svg" xmlns:xlink="http://www.w3.org/1999/xlink" x="0px" y="0px"
	 viewBox="0 0 259 380" style="enable-background:new 0 0 259 380;" xml:space="preserve">
<style type="text/css">
	.st0{clip-path:url(#SVGID_2_);fill:#002B7F;}
	.st1{clip-path:url(#SVGID_2_);fill:#CE1126;}
	.st2{fill:#FFD83D;}
</style>
<g>
	<defs>
		<path id="SVGID_1_" d="M226.8,301.8c-0.8,5.9-3.9,9.1-10.2,8.7c-1.6-0.1-2.9,0.7-3.5,2.1c-2.2,4.7-5.7,5.9-10.3,3.7
			c-2,2.2-2.9,4.9-1.6,6.7c3.8,4.9,1.6,9.4,0.1,14.1c-1.2,3.9-2.5,6-7.8,7c-5.4,1.1-10.9,5-16.1,8.2c-4.3,2.7-8.4,4.6-13.8,4.1
			c-5.4-0.4-10.7,1.3-15.7,4c-6.7,3.6-9.1,2.4-10.6-5.4c-0.7-3.5-0.8-6.9-3.5-9.8c-7.1-7.7-10.2-8.5-20.4-5.4
			c-7.1,2.2-14.8,2.7-20.5,8.8c-1.6,1.8-6,1.8-8.9,1.3c-3.4-0.5-5.3,0.8-7,3.6c-10-8.5-9,4.5-13.8,6.7c-3.8-1.9-3.5-5.7-4.3-9
			c-2.9-0.4-4.4,1.4-6,3.7c-3-4.5-3.6-9.4-4.5-14.2c-0.8-4,2.1-6.2,5.2-7.7c12.5-6.1,22.9-15.2,34.1-23.3
			c10.9-7.9,13.9-18.7,12.6-30.6c-1.7-15.8-5-31.5-7.8-47.1c-1.7-9.2-6-17.2-10.7-25.3c-16.5-28.7-24.1-58.5-6-89.8
			c2.9-4.9,4.7-10.4,5.3-16.2c0.6-6.5,3-12.4,6.6-17.9c9.5-14.6,17.4-30,23-46.6c2.1-6.2,3.7-12.3,3.2-18.8c0.5,0,1,0,1.4,0
			c2.9,2.6,8,5,8.3,7.9c0.8,6.8,5.8,8.5,9.9,11.9c6,4.9,11.9,10,16.4,16.7c3.6,5.4,3.9,9.7-0.8,14.5c-5.3,5.5-8.7,12.2-10.7,18.9
			c2.3,4.5,5.9,0,8.6,2.3c5.5,4.5,11.4,8.4,15.5,14.5c9.9,15,9.9,20-1.2,34.7c-2.1,2.7-1.3,5.4-1.2,8.1c0.4,8.5,1.8,17.3-7.6,22.5
			c-0.7,0.4-1.1,1.6-0.3,2.8c2.7,1.5,5.8,0.8,8.8,0.4c2-0.3,4.3-2.2,6.1-0.4c8.3,8.2,20.8,11.9,24.3,25.5
			c3.4,12.8,7.9,13.6,18.6,5.8c0.3-0.2,0.9-0.1,1.8-0.2c0.7,3.7,4.6,6.1,3.8,10.6c-1.7,9-2,17.7,7.5,23.2c1.2,0.7,2.5,1.6,2.4,4.2
			c-1.5,2-3,5.2-5.4,7.2c-5.8,4.7-3.8,12.5-7.5,18c-0.7,1,0,3.2,1.5,3.5c6.4,1.6,8.3,8,12.7,11.6
			C226.8,288.5,226.8,295.1,226.8,301.8z"/>
	</defs>
	<clipPath id="SVGID_2_">
		<use xlink:href="#SVGID_1_"  style="overflow:visible;"/>
	</clipPath>
	<rect x="-2" y="13.7" class="st0" width="587.2" height="352.3"/>
	<rect x="-2" y="189.9" class="st1" width="587.2" height="176.2"/>
</g>
<g>
	<path d="M115.4,17.5c2.9,2.6,8,5,8.3,7.9c0.8,6.8,5.8,8.5,9.9,11.9c6,4.9,11.9,10,16.4,16.7c3.6,5.4,3.9,9.7-0.8,14.5
		c-5.3,5.5-8.7,12.2-10.7,18.9c0.9,1.7,1.9,2.1,3,2.1c1.2,0,2.5-0.5,3.7-0.5c0.7,0,1.3,0.2,1.9,0.7c5.5,4.5,11.4,8.4,15.5,14.5
		c9.9,15,9.9,20-1.2,34.7c-2.1,2.7-1.3,5.4-1.2,8.1c0.4,8.5,1.8,17.3-7.6,22.5c-0.7,0.4-1.1,1.6-0.3,2.8c1.3,0.7,2.6,1,4,1
		c1.6,0,3.2-0.3,4.8-0.5c1.4-0.2,2.9-1.2,4.3-1.2c0.6,0,1.2,0.2,1.8,0.7c8.3,8.2,20.8,11.9,24.3,25.5c2,7.5,4.3,10.8,8,10.8
		c2.7,0,6.1-1.8,10.5-5c0.2-0.1,0.5-0.1,0.8-0.1c0.1,0,0.1,0,0.2,0c0.2,0,0.5,0,0.8,0c0.7,3.7,4.6,6.1,3.8,10.6
		c-1.7,9-2,17.7,7.5,23.2c1.2,0.7,2.5,1.6,2.4,4.2c-1.5,2-3,5.2-5.4,7.2c-5.8,4.7-3.8,12.5-7.5,18c-0.7,1,0,3.2,1.5,3.5
		c6.4,1.6,8.3,8,12.7,11.6c0,6.7,0,13.3,0,20c-0.8,5.5-3.6,8.7-9.1,8.7c-0.4,0-0.7,0-1.1,0c-0.1,0-0.2,0-0.3,0
		c-1.5,0-2.6,0.8-3.2,2.1c-1.5,3.2-3.6,4.8-6.2,4.8c-1.2,0-2.6-0.4-4.1-1c-2,2.2-2.9,4.9-1.6,6.7c3.8,4.9,1.6,9.4,0.1,14.1
		c-1.2,3.9-2.5,6-7.8,7c-5.4,1.1-10.9,5-16.1,8.2c-3.9,2.4-7.6,4.2-12.4,4.2c-0.5,0-1,0-1.5-0.1c-0.5,0-1-0.1-1.6-0.1
		c-4.8,0-9.7,1.7-14.1,4.1c-2.4,1.3-4.2,1.9-5.6,1.9c-2.7,0-4-2.3-4.9-7.3c-0.7-3.5-0.8-6.9-3.5-9.8c-4.6-5-7.5-7.1-11.8-7.1
		c-2.3,0-5,0.6-8.6,1.7c-7.1,2.2-14.8,2.7-20.5,8.8c-1.1,1.2-3.4,1.6-5.6,1.6c-1.2,0-2.3-0.1-3.3-0.3c-0.5-0.1-1-0.1-1.4-0.1
		c-2.6,0-4.1,1.3-5.6,3.7c-2.4-2.1-4.2-2.9-5.6-2.9c-4.3,0-4.6,7.9-8.3,9.6c-3.8-1.9-3.5-5.7-4.3-9c-0.3,0-0.5-0.1-0.8-0.1
		c-2.4,0-3.8,1.7-5.2,3.8c-3-4.5-3.6-9.4-4.5-14.2c-0.8-4,2.1-6.2,5.2-7.7c12.5-6.1,22.9-15.2,34.1-23.3
		c10.9-7.9,13.9-18.7,12.6-30.6c-1.7-15.8-5-31.5-7.8-47.1c-1.7-9.2-6-17.2-10.7-25.3c-16.5-28.7-24.1-58.5-6-89.8
		c2.9-4.9,4.7-10.4,5.3-16.2c0.6-6.5,3-12.4,6.6-17.9c9.5-14.6,17.4-30,23-46.6c2.1-6.2,3.7-12.3,3.2-18.8
		C114.4,17.5,114.9,17.5,115.4,17.5 M116.1,15.5h-0.8H114h-2.1l0.1,2.1c0.4,6.4-1.2,12.5-3.1,18c-5.3,15.7-12.8,30.8-22.8,46.1
		c-4,6.2-6.3,12.3-6.9,18.8c-0.5,5.3-2.2,10.5-5,15.4C65.4,131.1,62,146.5,63.9,163c1.6,13.8,6.9,28.4,16.3,44.7
		c4.6,8,8.8,15.8,10.5,24.7c0.6,3.1,1.2,6.3,1.7,9.4c2.3,12.3,4.7,25,6,37.6c1.4,12.6-2.5,22.1-11.8,28.8c-2.9,2.1-5.8,4.3-8.6,6.4
		c-7.9,6-16.1,12.3-25.2,16.7c-5,2.4-7.1,5.7-6.3,9.9c0.1,0.5,0.2,1,0.3,1.6c0.8,4.4,1.7,9,4.5,13.4l1.6,2.4l1.7-2.4
		c1.1-1.5,1.9-2.4,2.8-2.8c0,0.1,0,0.3,0.1,0.4c0.5,2.8,1.1,6.4,5,8.3l0.8,0.4l0.9-0.4c2.3-1,3.5-3.5,4.5-5.7
		c1.1-2.2,1.9-3.7,2.9-3.7c0.6,0,1.8,0.3,4.3,2.4l1.8,1.5l1.2-1.9c1.5-2.3,2.5-2.7,3.9-2.7c0.3,0,0.7,0,1.1,0.1
		c1.2,0.2,2.4,0.3,3.6,0.3c3.3,0,5.7-0.7,7.1-2.2c4-4.2,9.1-5.5,14.5-6.9c1.7-0.4,3.4-0.9,5.1-1.4c3.7-1.1,6.1-1.6,8-1.6
		c3.4,0,5.8,1.5,10.3,6.5c1.9,2,2.2,4.4,2.7,7.1c0.1,0.6,0.2,1.2,0.3,1.7c0.6,2.9,1.7,8.9,6.9,8.9c1.7,0,3.8-0.7,6.6-2.2
		c4.7-2.5,9.1-3.8,13.2-3.8c0.5,0,0.9,0,1.4,0.1c0.5,0,1.1,0.1,1.6,0.1c5.1,0,9.1-1.8,13.4-4.5c0.8-0.5,1.7-1,2.5-1.6
		c4.3-2.7,8.8-5.6,12.9-6.4c6-1.2,7.8-3.7,9.3-8.4c0.2-0.5,0.3-1.1,0.5-1.6c1.4-4.3,3-9.2-1-14.3c-0.5-0.6-0.2-1.8,0.6-3.1
		c1.2,0.4,2.3,0.6,3.4,0.6c2.4,0,5.7-1,8-5.9c0.3-0.6,0.8-0.9,1.4-0.9c0,0,0.1,0,0.1,0c0.4,0,0.8,0,1.2,0c4.4,0,9.9-1.8,11.1-10.5
		l0-0.1v-0.1v-20v-0.9l-0.7-0.6c-1.4-1.2-2.6-2.7-3.8-4.4c-2.3-3-4.9-6.5-9.7-7.7c-0.1,0-0.3-0.4-0.3-0.6c1.7-2.6,2.3-5.6,2.9-8.4
		c0.7-3.6,1.4-6.8,4.2-9c2-1.6,3.3-3.8,4.5-5.7c0.4-0.7,0.9-1.4,1.2-1.9l0.4-0.5l0-0.6c0-4-2.3-5.3-3.4-6
		c-7.9-4.5-8.4-11.1-6.6-21.1c0.6-3.5-0.9-6-2.2-8c-0.7-1.1-1.4-2.2-1.6-3.3l-0.3-1.8l-1.8,0.1c-0.2,0-0.5,0-0.6,0l-0.1,0l-0.1,0
		c-0.5,0-1.3,0-2,0.5c-4.3,3.2-7.3,4.6-9.4,4.6c-1.7,0-3.9-1.1-6.1-9.4c-2.6-10-9.7-14.9-16.4-19.7c-3-2.2-5.9-4.2-8.4-6.6
		c-0.9-0.9-1.9-1.3-3.2-1.3c-1.1,0-2.2,0.4-3.1,0.7c-0.6,0.2-1.1,0.4-1.5,0.5c-0.3,0-0.6,0.1-0.9,0.1c-1.3,0.2-2.5,0.4-3.6,0.4
		c-0.8,0-1.5-0.1-2.2-0.3c9.2-5.4,8.7-14.2,8.2-22c0-0.7-0.1-1.4-0.1-2c0-0.5-0.1-1-0.1-1.5c-0.2-2.1-0.3-3.7,0.9-5.3
		c11.5-15.3,11.7-21.2,1.3-37c-3.3-5-7.9-8.6-12.2-12c-1.2-0.9-2.4-1.9-3.6-2.9c-0.9-0.7-2-1.1-3.2-1.1c-0.8,0-1.6,0.2-2.3,0.3
		c-0.5,0.1-1,0.2-1.4,0.2c-0.2,0-0.5,0-0.8-0.4c2.3-7,5.7-12.8,10-17.2c5.1-5.3,5.4-10.5,1-17c-4.7-7-10.9-12.3-16.8-17.1
		c-0.9-0.8-1.9-1.4-2.8-2.1c-3.2-2.3-5.8-4.1-6.3-8.5c-0.4-2.9-3.2-4.9-6-6.9c-1.1-0.8-2.1-1.5-3-2.3L116.1,15.5L116.1,15.5z"/>
</g>
<g id="half">
	<g>
		<path class="st2" d="M115.8,110.2l-0.7,24.2H90.5c-3-5.9-5.5-10.9-5.5-17.6c0-5.7,4.4-10.1,10.9-10.1
			C102.6,106.6,110.1,108.9,115.8,110.2z"/>
	</g>
	<g>
		<g>
			<path class="st2" d="M87.9,111.3v14"/>
			<path d="M87.9,125.8c-0.3,0-0.5-0.2-0.5-0.5v-14c0-0.3,0.2-0.5,0.5-0.5c0.3,0,0.5,0.2,0.5,0.5v14
				C88.4,125.5,88.2,125.8,87.9,125.8z"/>
		</g>
		<g>
			<path class="st2" d="M89.9,109.9v18.6"/>
			<path d="M89.9,129c-0.3,0-0.5-0.2-0.5-0.5v-18.6c0-0.3,0.2-0.5,0.5-0.5c0.3,0,0.5,0.2,0.5,0.5v18.6C90.4,128.7,90.2,129,89.9,129
				z"/>
		</g>
		<g>
			<path class="st2" d="M91.9,108.9v22.2"/>
			<path d="M91.9,131.6c-0.3,0-0.5-0.2-0.5-0.5v-22.2c0-0.3,0.2-0.5,0.5-0.5c0.3,0,0.5,0.2,0.5,0.5v22.2
				C92.4,131.3,92.1,131.6,91.9,131.6z"/>
		</g>
		<g>
			<path class="st2" d="M93.8,108.4v17.4"/>
			<path d="M93.8,126.3c-0.3,0-0.5-0.2-0.5-0.5v-17.4c0-0.3,0.2-0.5,0.5-0.5c0.3,0,0.5,0.2,0.5,0.5v17.4
				C94.3,126.1,94.1,126.3,93.8,126.3z"/>
		</g>
		<g>
			<path class="st2" d="M95.8,108.3v17.6"/>
			<path d="M95.8,126.4c-0.3,0-0.5-0.2-0.5-0.5v-17.6c0-0.3,0.2-0.5,0.5-0.5c0.3,0,0.5,0.2,0.5,0.5v17.6
				C96.3,126.2,96.1,126.4,95.8,126.4z"/>
		</g>
		<g>
			<path class="st2" d="M97.8,107.7v18.2"/>
			<path d="M97.8,126.4c-0.3,0-0.5-0.2-0.5-0.5v-18.2c0-0.3,0.2-0.5,0.5-0.5s0.5,0.2,0.5,0.5v18.2C98.3,126.2,98.1,126.4,97.8,126.4
				z"/>
		</g>
		<g>
			<path class="st2" d="M99.8,107.7v18.2"/>
			<path d="M99.8,126.4c-0.3,0-0.5-0.2-0.5-0.5v-18.2c0-0.3,0.2-0.5,0.5-0.5s0.5,0.2,0.5,0.5v18.2C100.3,126.2,100,126.4,99.8,126.4
				z"/>
		</g>
		<g>
			<path class="st2" d="M101.7,107.9v18.2"/>
			<path d="M101.7,126.6c-0.3,0-0.5-0.2-0.5-0.5v-18.2c0-0.3,0.2-0.5,0.5-0.5c0.3,0,0.5,0.2,0.5,0.5v18.2
				C102.2,126.3,102,126.6,101.7,126.6z"/>
		</g>
		<g>
			<path class="st2" d="M103.7,108.1v18.2"/>
			<path d="M103.7,126.7c-0.3,0-0.5-0.2-0.5-0.5v-18.2c0-0.3,0.2-0.5,0.5-0.5c0.3,0,0.5,0.2,0.5,0.5v18.2
				C104.2,126.5,104,126.7,103.7,126.7z"/>
		</g>
		<g>
			<path class="st2" d="M105.7,109.2v18.2"/>
			<path d="M105.7,127.9c-0.3,0-0.5-0.2-0.5-0.5v-18.2c0-0.3,0.2-0.5,0.5-0.5c0.3,0,0.5,0.2,0.5,0.5v18.2
				C106.2,127.7,106,127.9,105.7,127.9z"/>
		</g>
		<g>
			<path class="st2" d="M107.7,109.4v20.5"/>
			<path d="M107.7,130.4c-0.3,0-0.5-0.2-0.5-0.5v-20.5c0-0.3,0.2-0.5,0.5-0.5s0.5,0.2,0.5,0.5v20.5
				C108.2,130.2,107.9,130.4,107.7,130.4z"/>
		</g>
		<g>
			<path class="st2" d="M109.6,109.4v18.2"/>
			<path d="M109.6,128.1c-0.3,0-0.5-0.2-0.5-0.5v-18.2c0-0.3,0.2-0.5,0.5-0.5s0.5,0.2,0.5,0.5v18.2
				C110.1,127.9,109.9,128.1,109.6,128.1z"/>
		</g>
		<g>
			<path class="st2" d="M111.6,109.4v18.2"/>
			<path d="M111.6,128.1c-0.3,0-0.5-0.2-0.5-0.5v-18.2c0-0.3,0.2-0.5,0.5-0.5s0.5,0.2,0.5,0.5v18.2
				C112.1,127.9,111.9,128.1,111.6,128.1z"/>
		</g>
		<g>
			<path d="M100.3,108.5c4.2,0.7,13.3,5,12.3,10.8c-1.5,8.2-6.3,4.9-12.6,3.7l-4.8,1.6c-1.7,1.8-4.3,3.4-6,1.2h-2.8V137h31.5v-26.9
				L100.3,108.5z"/>
			<path d="M117.8,137.5H86.3c-0.3,0-0.5-0.2-0.5-0.5v-11.1c0-0.3,0.2-0.5,0.5-0.5h2.8c0.1,0,0.3,0.1,0.4,0.2
				c0.4,0.5,0.9,0.8,1.5,0.8c1.4,0.1,2.9-1.3,3.7-2.1c0.1-0.1,0.1-0.1,0.2-0.1l4.8-1.6c0.1,0,0.2,0,0.2,0c1.2,0.2,2.4,0.5,3.5,0.8
				c2.6,0.7,4.9,1.3,6.4,0.3c1.1-0.7,1.8-2.1,2.2-4.5c0.2-1.3-0.1-2.7-1-4c-2.3-3.3-7.8-5.7-10.8-6.2c-0.3,0-0.4-0.3-0.4-0.6
				c0-0.3,0.3-0.5,0.5-0.4l17.5,1.6c0.3,0,0.4,0.2,0.4,0.5V137C118.3,137.2,118.1,137.5,117.8,137.5z M86.8,136.5h30.5v-25.9
				l-12.5-1.1c2.7,1.2,5.5,3,7.1,5.2c1.1,1.5,1.5,3.1,1.2,4.7c-0.5,2.7-1.3,4.3-2.6,5.1c-1.9,1.2-4.3,0.5-7.1-0.2
				c-1.1-0.3-2.2-0.6-3.3-0.8l-4.6,1.5c-1.1,1.1-2.8,2.4-4.4,2.3c-0.8,0-1.5-0.4-2-1h-2.1V136.5z"/>
		</g>
	</g>
	<g>
		<circle class="st2" cx="114.4" cy="106.6" r="1.9"/>
		<path d="M114.4,109.1c-1.4,0-2.6-1.2-2.6-2.6c0-1.4,1.2-2.6,2.6-2.6s2.6,1.2,2.6,2.6C117,108,115.8,109.1,114.4,109.1z
			 M114.4,105.3c-0.7,0-1.3,0.6-1.3,1.3c0,0.7,0.6,1.3,1.3,1.3s1.3-0.6,1.3-1.3C115.7,105.9,115.1,105.3,114.4,105.3z"/>
	</g>
	<g>
		<circle class="st2" cx="110.1" cy="105.5" r="1.9"/>
		<path d="M110.1,108.1c-1.4,0-2.6-1.2-2.6-2.6c0-1.4,1.2-2.6,2.6-2.6c1.4,0,2.6,1.2,2.6,2.6C112.7,107,111.5,108.1,110.1,108.1z
			 M110.1,104.3c-0.7,0-1.3,0.6-1.3,1.3c0,0.7,0.6,1.3,1.3,1.3c0.7,0,1.3-0.6,1.3-1.3C111.4,104.8,110.8,104.3,110.1,104.3z"/>
	</g>
	<g>
		<circle class="st2" cx="105.7" cy="104.4" r="1.9"/>
		<path d="M105.7,107c-1.4,0-2.6-1.2-2.6-2.6c0-1.4,1.2-2.6,2.6-2.6c1.4,0,2.6,1.2,2.6,2.6C108.3,105.9,107.2,107,105.7,107z
			 M105.7,103.2c-0.7,0-1.3,0.6-1.3,1.3s0.6,1.3,1.3,1.3c0.7,0,1.3-0.6,1.3-1.3S106.4,103.2,105.7,103.2z"/>
	</g>
	<g>
		<circle class="st2" cx="101.4" cy="103.7" r="1.9"/>
		<path d="M101.4,106.3c-1.4,0-2.6-1.2-2.6-2.6c0-1.4,1.2-2.6,2.6-2.6s2.6,1.2,2.6,2.6C103.9,105.1,102.8,106.3,101.4,106.3z
			 M101.4,102.5c-0.7,0-1.3,0.6-1.3,1.3s0.6,1.3,1.3,1.3c0.7,0,1.3-0.6,1.3-1.3S102.1,102.5,101.4,102.5z"/>
	</g>
	<g>
		<circle class="st2" cx="97" cy="103.3" r="1.9"/>
		<path d="M97,105.8c-1.4,0-2.6-1.2-2.6-2.6c0-1.4,1.2-2.6,2.6-2.6c1.4,0,2.6,1.2,2.6,2.6C99.6,104.7,98.4,105.8,97,105.8z M97,102
			c-0.7,0-1.3,0.6-1.3,1.3s0.6,1.3,1.3,1.3c0.7,0,1.3-0.6,1.3-1.3S97.7,102,97,102z"/>
	</g>
	<g>
		<circle class="st2" cx="92.7" cy="103.5" r="1.9"/>
		<path d="M92.7,106.1c-1.4,0-2.6-1.2-2.6-2.6c0-1.4,1.2-2.6,2.6-2.6c1.4,0,2.6,1.2,2.6,2.6C95.3,104.9,94.1,106.1,92.7,106.1z
			 M92.7,102.3c-0.7,0-1.3,0.6-1.3,1.3s0.6,1.3,1.3,1.3c0.7,0,1.3-0.6,1.3-1.3S93.4,102.3,92.7,102.3z"/>
	</g>
	<g>
		<circle class="st2" cx="88.6" cy="104.9" r="1.9"/>
		<path d="M88.6,107.5c-1.4,0-2.6-1.2-2.6-2.6c0-1.4,1.2-2.6,2.6-2.6s2.6,1.2,2.6,2.6C91.2,106.3,90,107.5,88.6,107.5z M88.6,103.7
			c-0.7,0-1.3,0.6-1.3,1.3c0,0.7,0.6,1.3,1.3,1.3s1.3-0.6,1.3-1.3C89.8,104.2,89.3,103.7,88.6,103.7z"/>
	</g>
	<g>
		<circle class="st2" cx="85.1" cy="107.5" r="1.9"/>
		<path d="M85.1,110c-1.4,0-2.6-1.2-2.6-2.6c0-1.4,1.2-2.6,2.6-2.6c1.4,0,2.6,1.2,2.6,2.6C87.7,108.9,86.6,110,85.1,110z
			 M85.1,106.2c-0.7,0-1.3,0.6-1.3,1.3s0.6,1.3,1.3,1.3c0.7,0,1.3-0.6,1.3-1.3S85.8,106.2,85.1,106.2z"/>
	</g>
	<g>
		<circle class="st2" cx="82.7" cy="111" r="1.9"/>
		<path d="M82.7,113.6c-1.4,0-2.6-1.2-2.6-2.6c0-1.4,1.2-2.6,2.6-2.6c1.4,0,2.6,1.2,2.6,2.6C85.3,112.4,84.1,113.6,82.7,113.6z
			 M82.7,109.7c-0.7,0-1.3,0.6-1.3,1.3s0.6,1.3,1.3,1.3c0.7,0,1.3-0.6,1.3-1.3S83.4,109.7,82.7,109.7z"/>
	</g>
	<g>
		<circle class="st2" cx="81.5" cy="115.2" r="1.9"/>
		<path d="M81.5,117.7c-1.4,0-2.6-1.2-2.6-2.6c0-1.4,1.2-2.6,2.6-2.6c1.4,0,2.6,1.2,2.6,2.6C84.1,116.6,82.9,117.7,81.5,117.7z
			 M81.5,113.9c-0.7,0-1.3,0.6-1.3,1.3s0.6,1.3,1.3,1.3c0.7,0,1.3-0.6,1.3-1.3S82.2,113.9,81.5,113.9z"/>
	</g>
	<g>
		<circle class="st2" cx="81.6" cy="119.5" r="1.9"/>
		<path d="M81.6,122.1c-1.4,0-2.6-1.2-2.6-2.6c0-1.4,1.2-2.6,2.6-2.6c1.4,0,2.6,1.2,2.6,2.6C84.1,120.9,83,122.1,81.6,122.1z
			 M81.6,118.2c-0.7,0-1.3,0.6-1.3,1.3s0.6,1.3,1.3,1.3c0.7,0,1.3-0.6,1.3-1.3S82.3,118.2,81.6,118.2z"/>
	</g>
	<g>
		<circle class="st2" cx="82.4" cy="123.7" r="1.9"/>
		<path d="M82.4,126.3c-1.4,0-2.6-1.2-2.6-2.6c0-1.4,1.2-2.6,2.6-2.6c1.4,0,2.6,1.2,2.6,2.6C85,125.1,83.8,126.3,82.4,126.3z
			 M82.4,122.5c-0.7,0-1.3,0.6-1.3,1.3s0.6,1.3,1.3,1.3c0.7,0,1.3-0.6,1.3-1.3S83.1,122.5,82.4,122.5z"/>
	</g>
	<g>
		<path class="st2" d="M115.3,109.1l-0.2,2.5c-4.8-0.7-11.5-3.4-17.8-3.4c-5.8,0-10.3,2.3-10.3,8.2c0,5.8,2.4,11,5.7,16.4l-3.4,1.6
			c-3-5.9-5.5-10.9-5.5-17.6c0-5.7,4.4-11.2,12.1-11.2C102.6,105.5,109.6,107.8,115.3,109.1z"/>
		<path d="M89.3,135.1c-0.2,0-0.5-0.1-0.6-0.4c-2.9-5.6-5.6-10.9-5.6-17.9c0-5.8,4.5-11.9,12.8-11.9c5.3,0,10.6,1.4,15.3,2.5
			c1.5,0.4,2.9,0.7,4.2,1c0.3,0.1,0.5,0.4,0.5,0.7l-0.2,2.5c0,0.2-0.1,0.4-0.2,0.5c-0.1,0.1-0.3,0.2-0.5,0.1
			c-1.7-0.3-3.7-0.8-5.8-1.3c-3.7-1-7.9-2.1-11.9-2.1c-3.6,0-9.7,1-9.7,7.5c0,6,2.8,11.5,5.6,16c0.1,0.2,0.1,0.4,0.1,0.5
			c-0.1,0.2-0.2,0.3-0.3,0.4l-3.4,1.6C89.5,135,89.4,135.1,89.3,135.1z M95.8,106.2c-7.4,0-11.4,5.4-11.4,10.6
			c0,6.5,2.5,11.5,5.2,16.8l2.1-1c-2.7-4.6-5.4-10-5.4-16.1c0-5.6,4-8.9,11-8.9c4.1,0,8.4,1.1,12.2,2.1c1.8,0.5,3.5,0.9,5,1.2
			l0.1-1.2c-1.2-0.3-2.4-0.6-3.7-0.9C106.2,107.5,100.9,106.2,95.8,106.2z"/>
	</g>
</g>
<g id="half_1_">
	<g>
		<path class="st2" d="M140.8,106.6c6.4,0,10.9,4.5,10.9,10.1c0,6.8-2.5,11.8-5.5,17.6h-24.6l-0.7-24.2
			C126.5,108.9,134,106.6,140.8,106.6z"/>
	</g>
	<g>
		<g>
			<path class="st2" d="M148.7,125.3v-14"/>
			<path d="M148.7,125.8c0.3,0,0.5-0.2,0.5-0.5v-14c0-0.3-0.2-0.5-0.5-0.5s-0.5,0.2-0.5,0.5v14C148.2,125.5,148.4,125.8,148.7,125.8
				z"/>
		</g>
		<g>
			<path class="st2" d="M146.7,128.5v-18.6"/>
			<path d="M146.7,129c0.3,0,0.5-0.2,0.5-0.5v-18.6c0-0.3-0.2-0.5-0.5-0.5c-0.3,0-0.5,0.2-0.5,0.5v18.6
				C146.3,128.7,146.5,129,146.7,129z"/>
		</g>
		<g>
			<path class="st2" d="M144.8,131.1v-22.2"/>
			<path d="M144.8,131.6c0.3,0,0.5-0.2,0.5-0.5v-22.2c0-0.3-0.2-0.5-0.5-0.5c-0.3,0-0.5,0.2-0.5,0.5v22.2
				C144.3,131.3,144.5,131.6,144.8,131.6z"/>
		</g>
		<g>
			<path class="st2" d="M142.8,125.8v-17.4"/>
			<path d="M142.8,126.3c0.3,0,0.5-0.2,0.5-0.5v-17.4c0-0.3-0.2-0.5-0.5-0.5c-0.3,0-0.5,0.2-0.5,0.5v17.4
				C142.3,126.1,142.5,126.3,142.8,126.3z"/>
		</g>
		<g>
			<path class="st2" d="M140.8,125.9v-17.6"/>
			<path d="M140.8,126.4c0.3,0,0.5-0.2,0.5-0.5v-17.6c0-0.3-0.2-0.5-0.5-0.5c-0.3,0-0.5,0.2-0.5,0.5v17.6
				C140.3,126.2,140.6,126.4,140.8,126.4z"/>
		</g>
		<g>
			<path class="st2" d="M138.9,125.9v-18.2"/>
			<path d="M138.9,126.4c0.3,0,0.5-0.2,0.5-0.5v-18.2c0-0.3-0.2-0.5-0.5-0.5s-0.5,0.2-0.5,0.5v18.2
				C138.4,126.2,138.6,126.4,138.9,126.4z"/>
		</g>
		<g>
			<path class="st2" d="M136.9,125.9v-18.2"/>
			<path d="M136.9,126.4c0.3,0,0.5-0.2,0.5-0.5v-18.2c0-0.3-0.2-0.5-0.5-0.5c-0.3,0-0.5,0.2-0.5,0.5v18.2
				C136.4,126.2,136.6,126.4,136.9,126.4z"/>
		</g>
		<g>
			<path class="st2" d="M134.9,126.1v-18.2"/>
			<path d="M134.9,126.6c0.3,0,0.5-0.2,0.5-0.5v-18.2c0-0.3-0.2-0.5-0.5-0.5c-0.3,0-0.5,0.2-0.5,0.5v18.2
				C134.4,126.3,134.6,126.6,134.9,126.6z"/>
		</g>
		<g>
			<path class="st2" d="M132.9,126.2v-18.2"/>
			<path d="M132.9,126.7c0.3,0,0.5-0.2,0.5-0.5v-18.2c0-0.3-0.2-0.5-0.5-0.5c-0.3,0-0.5,0.2-0.5,0.5v18.2
				C132.4,126.5,132.7,126.7,132.9,126.7z"/>
		</g>
		<g>
			<path class="st2" d="M131,127.4v-18.2"/>
			<path d="M131,127.9c0.3,0,0.5-0.2,0.5-0.5v-18.2c0-0.3-0.2-0.5-0.5-0.5c-0.3,0-0.5,0.2-0.5,0.5v18.2
				C130.5,127.7,130.7,127.9,131,127.9z"/>
		</g>
		<g>
			<path class="st2" d="M129,129.9v-20.5"/>
			<path d="M129,130.4c0.3,0,0.5-0.2,0.5-0.5v-20.5c0-0.3-0.2-0.5-0.5-0.5s-0.5,0.2-0.5,0.5v20.5C128.5,130.2,128.7,130.4,129,130.4
				z"/>
		</g>
		<g>
			<path class="st2" d="M127,127.6v-18.2"/>
			<path d="M127,128.1c0.3,0,0.5-0.2,0.5-0.5v-18.2c0-0.3-0.2-0.5-0.5-0.5s-0.5,0.2-0.5,0.5v18.2C126.5,127.9,126.7,128.1,127,128.1
				z"/>
		</g>
		<g>
			<path class="st2" d="M125,127.6v-18.2"/>
			<path d="M125,128.1c0.3,0,0.5-0.2,0.5-0.5v-18.2c0-0.3-0.2-0.5-0.5-0.5s-0.5,0.2-0.5,0.5v18.2C124.5,127.9,124.8,128.1,125,128.1
				z"/>
		</g>
		<g>
			<path d="M118.8,110.1V137h31.5v-11.1h-2.8c-1.7,2.1-4.2,0.5-6-1.2l-4.8-1.6c-6.4,1.2-11.2,4.5-12.6-3.7
				c-1-5.8,8.1-10.1,12.3-10.8L118.8,110.1z"/>
			<path d="M118.3,137v-26.9c0-0.3,0.2-0.5,0.4-0.5l17.5-1.6c0.3,0,0.5,0.2,0.5,0.4c0,0.3-0.1,0.5-0.4,0.6
				c-3.1,0.5-8.5,2.9-10.8,6.2c-0.9,1.3-1.3,2.7-1,4c0.4,2.3,1.1,3.8,2.2,4.5c1.5,0.9,3.7,0.4,6.4-0.3c1.1-0.3,2.3-0.6,3.5-0.8
				c0.1,0,0.2,0,0.2,0l4.8,1.6c0.1,0,0.1,0.1,0.2,0.1c0.8,0.8,2.3,2.2,3.7,2.1c0.6,0,1.1-0.3,1.5-0.8c0.1-0.1,0.2-0.2,0.4-0.2h2.8
				c0.3,0,0.5,0.2,0.5,0.5V137c0,0.3-0.2,0.5-0.5,0.5h-31.5C118.5,137.5,118.3,137.2,118.3,137z M149.8,126.3h-2.1
				c-0.6,0.6-1.3,1-2,1c-1.6,0.1-3.3-1.2-4.4-2.3l-4.6-1.5c-1.2,0.2-2.3,0.5-3.3,0.8c-2.8,0.7-5.3,1.4-7.1,0.2
				c-1.3-0.8-2.2-2.5-2.6-5.1c-0.3-1.6,0.1-3.2,1.2-4.7c1.6-2.2,4.4-4,7.1-5.2l-12.5,1.1v25.9h30.5V126.3z"/>
		</g>
	</g>
	<g>
		<circle class="st2" cx="122.2" cy="106.6" r="1.9"/>
		<path d="M119.7,106.6c0-1.4,1.2-2.6,2.6-2.6s2.6,1.2,2.6,2.6c0,1.4-1.2,2.6-2.6,2.6S119.7,108,119.7,106.6z M121,106.6
			c0,0.7,0.6,1.3,1.3,1.3c0.7,0,1.3-0.6,1.3-1.3c0-0.7-0.6-1.3-1.3-1.3C121.5,105.3,121,105.9,121,106.6z"/>
	</g>
	<g>
		<circle class="st2" cx="126.5" cy="105.5" r="1.9"/>
		<path d="M124,105.5c0-1.4,1.2-2.6,2.6-2.6s2.6,1.2,2.6,2.6c0,1.4-1.2,2.6-2.6,2.6S124,107,124,105.5z M125.3,105.5
			c0,0.7,0.6,1.3,1.3,1.3c0.7,0,1.3-0.6,1.3-1.3c0-0.7-0.6-1.3-1.3-1.3C125.8,104.3,125.3,104.8,125.3,105.5z"/>
	</g>
	<g>
		<circle class="st2" cx="130.9" cy="104.4" r="1.9"/>
		<path d="M128.3,104.4c0-1.4,1.2-2.6,2.6-2.6s2.6,1.2,2.6,2.6c0,1.4-1.2,2.6-2.6,2.6S128.3,105.9,128.3,104.4z M129.6,104.4
			c0,0.7,0.6,1.3,1.3,1.3c0.7,0,1.3-0.6,1.3-1.3s-0.6-1.3-1.3-1.3C130.2,103.2,129.6,103.7,129.6,104.4z"/>
	</g>
	<g>
		<circle class="st2" cx="135.3" cy="103.7" r="1.9"/>
		<path d="M132.7,103.7c0-1.4,1.2-2.6,2.6-2.6s2.6,1.2,2.6,2.6c0,1.4-1.2,2.6-2.6,2.6S132.7,105.1,132.7,103.7z M134,103.7
			c0,0.7,0.6,1.3,1.3,1.3c0.7,0,1.3-0.6,1.3-1.3s-0.6-1.3-1.3-1.3C134.6,102.5,134,103,134,103.7z"/>
	</g>
	<g>
		<circle class="st2" cx="139.7" cy="103.3" r="1.9"/>
		<path d="M137.1,103.3c0-1.4,1.2-2.6,2.6-2.6c1.4,0,2.6,1.2,2.6,2.6c0,1.4-1.2,2.6-2.6,2.6C138.2,105.8,137.1,104.7,137.1,103.3z
			 M138.4,103.3c0,0.7,0.6,1.3,1.3,1.3c0.7,0,1.3-0.6,1.3-1.3s-0.6-1.3-1.3-1.3C139,102,138.4,102.6,138.4,103.3z"/>
	</g>
	<g>
		<circle class="st2" cx="144" cy="103.5" r="1.9"/>
		<path d="M141.4,103.5c0-1.4,1.2-2.6,2.6-2.6s2.6,1.2,2.6,2.6c0,1.4-1.2,2.6-2.6,2.6S141.4,104.9,141.4,103.5z M142.7,103.5
			c0,0.7,0.6,1.3,1.3,1.3c0.7,0,1.3-0.6,1.3-1.3s-0.6-1.3-1.3-1.3C143.3,102.3,142.7,102.8,142.7,103.5z"/>
	</g>
	<g>
		<circle class="st2" cx="148.1" cy="104.9" r="1.9"/>
		<path d="M145.5,104.9c0-1.4,1.2-2.6,2.6-2.6s2.6,1.2,2.6,2.6c0,1.4-1.2,2.6-2.6,2.6S145.5,106.3,145.5,104.9z M146.8,104.9
			c0,0.7,0.6,1.3,1.3,1.3s1.3-0.6,1.3-1.3c0-0.7-0.6-1.3-1.3-1.3S146.8,104.2,146.8,104.9z"/>
	</g>
	<g>
		<circle class="st2" cx="151.5" cy="107.5" r="1.9"/>
		<path d="M148.9,107.5c0-1.4,1.2-2.6,2.6-2.6c1.4,0,2.6,1.2,2.6,2.6c0,1.4-1.2,2.6-2.6,2.6C150.1,110,148.9,108.9,148.9,107.5z
			 M150.2,107.5c0,0.7,0.6,1.3,1.3,1.3c0.7,0,1.3-0.6,1.3-1.3s-0.6-1.3-1.3-1.3C150.8,106.2,150.2,106.8,150.2,107.5z"/>
	</g>
	<g>
		<circle class="st2" cx="154" cy="111" r="1.9"/>
		<path d="M151.4,111c0-1.4,1.2-2.6,2.6-2.6s2.6,1.2,2.6,2.6c0,1.4-1.2,2.6-2.6,2.6S151.4,112.4,151.4,111z M152.7,111
			c0,0.7,0.6,1.3,1.3,1.3c0.7,0,1.3-0.6,1.3-1.3s-0.6-1.3-1.3-1.3C153.3,109.7,152.7,110.3,152.7,111z"/>
	</g>
	<g>
		<circle class="st2" cx="155.1" cy="115.2" r="1.9"/>
		<path d="M152.6,115.2c0-1.4,1.2-2.6,2.6-2.6c1.4,0,2.6,1.2,2.6,2.6c0,1.4-1.2,2.6-2.6,2.6C153.7,117.7,152.6,116.6,152.6,115.2z
			 M153.9,115.2c0,0.7,0.6,1.3,1.3,1.3c0.7,0,1.3-0.6,1.3-1.3s-0.6-1.3-1.3-1.3C154.4,113.9,153.9,114.5,153.9,115.2z"/>
	</g>
	<g>
		<circle class="st2" cx="155.1" cy="119.5" r="1.9"/>
		<path d="M152.5,119.5c0-1.4,1.2-2.6,2.6-2.6c1.4,0,2.6,1.2,2.6,2.6c0,1.4-1.2,2.6-2.6,2.6C153.7,122.1,152.5,120.9,152.5,119.5z
			 M153.8,119.5c0,0.7,0.6,1.3,1.3,1.3c0.7,0,1.3-0.6,1.3-1.3s-0.6-1.3-1.3-1.3C154.4,118.2,153.8,118.8,153.8,119.5z"/>
	</g>
	<g>
		<circle class="st2" cx="154.3" cy="123.7" r="1.9"/>
		<path d="M151.7,123.7c0-1.4,1.2-2.6,2.6-2.6c1.4,0,2.6,1.2,2.6,2.6c0,1.4-1.2,2.6-2.6,2.6C152.8,126.3,151.7,125.1,151.7,123.7z
			 M153,123.7c0,0.7,0.6,1.3,1.3,1.3c0.7,0,1.3-0.6,1.3-1.3s-0.6-1.3-1.3-1.3C153.6,122.5,153,123,153,123.7z"/>
	</g>
	<g>
		<path class="st2" d="M140.8,105.5c7.7,0,12.1,5.6,12.1,11.2c0,6.8-2.5,11.8-5.5,17.6l-3.4-1.6c3.3-5.3,5.7-10.6,5.7-16.4
			c0-5.9-4.5-8.2-10.3-8.2c-6.3,0-13,2.7-17.8,3.4l-0.2-2.5C127.1,107.8,134,105.5,140.8,105.5z"/>
		<path d="M147.1,135l-3.4-1.6c-0.2-0.1-0.3-0.2-0.3-0.4c-0.1-0.2,0-0.4,0.1-0.5c2.8-4.6,5.6-10,5.6-16c0-6.6-6.1-7.5-9.7-7.5
			c-4,0-8.2,1.1-11.9,2.1c-2.1,0.5-4.1,1.1-5.8,1.3c-0.2,0-0.4,0-0.5-0.1c-0.1-0.1-0.2-0.3-0.2-0.5l-0.2-2.5c0-0.3,0.2-0.6,0.5-0.7
			c1.3-0.3,2.7-0.7,4.2-1c4.7-1.2,10.1-2.5,15.3-2.5c8.3,0,12.8,6.1,12.8,11.9c0,7.1-2.7,12.3-5.6,17.9c-0.1,0.2-0.3,0.4-0.6,0.4
			C147.3,135.1,147.2,135,147.1,135z M125.8,108.7c-1.3,0.3-2.5,0.6-3.7,0.9l0.1,1.2c1.5-0.3,3.2-0.7,5-1.2c3.8-1,8.1-2.1,12.2-2.1
			c7,0,11,3.2,11,8.9c0,6.1-2.7,11.5-5.4,16.1l2.1,1c2.7-5.2,5.2-10.3,5.2-16.8c0-5.1-4-10.6-11.4-10.6
			C135.7,106.2,130.4,107.5,125.8,108.7z"/>
	</g>
</g>
<g>
	<path class="st2" d="M118,83.4l-2,3.7l2,3.7l2-3.7L118,83.4z M118,92.8l-2,3.7l2,3.7l2-3.7L118,92.8z"/>
	<path d="M118,101L118,101c-0.2,0-0.5-0.1-0.6-0.3l-2-3.7c-0.1-0.2-0.1-0.4,0-0.6l2-3.7c0.2-0.4,0.9-0.4,1.2,0l2,3.7
		c0.1,0.2,0.1,0.4,0,0.6l-2,3.7C118.4,100.8,118.2,101,118,101z M116.7,96.6l1.2,2.3l1.3-2.3l-1.3-2.3L116.7,96.6z M118,91.5
		L118,91.5c-0.2,0-0.5-0.1-0.6-0.3l-2-3.7c-0.1-0.2-0.1-0.4,0-0.6l2-3.7c0.2-0.4,0.9-0.4,1.2,0l2,3.7c0.1,0.2,0.1,0.4,0,0.6l-2,3.7
		C118.4,91.4,118.2,91.5,118,91.5z M116.7,87.1l1.2,2.3l1.3-2.3l-1.3-2.3L116.7,87.1z"/>
</g>
<g>
	<path class="st2" d="M110.8,91.8l3.2,2l3.1-2l-3.1-2L110.8,91.8z M118.8,91.8l3.1,2l3.2-2l-3.2-2L118.8,91.8z"/>
	<path d="M114,94.5c-0.1,0-0.2,0-0.4-0.1l-3.2-2c-0.2-0.1-0.3-0.3-0.3-0.6s0.1-0.4,0.3-0.6l3.2-2c0.2-0.1,0.5-0.1,0.7,0l3.1,2
		c0.2,0.1,0.3,0.3,0.3,0.6s-0.1,0.4-0.3,0.6l-3.1,2C114.2,94.5,114.1,94.5,114,94.5z M112.1,91.8l1.9,1.2l1.9-1.2l-1.9-1.2
		L112.1,91.8z M121.9,94.5c-0.1,0-0.2,0-0.4-0.1l-3.1-2c-0.2-0.1-0.3-0.3-0.3-0.6s0.1-0.4,0.3-0.6l3.1-2c0.2-0.1,0.5-0.1,0.7,0
		l3.2,2c0.2,0.1,0.3,0.3,0.3,0.6s-0.1,0.4-0.3,0.6l-3.2,2C122.2,94.5,122.1,94.5,121.9,94.5z M120,91.8l1.9,1.2l1.9-1.2l-1.9-1.2
		L120,91.8z"/>
</g>
<g>
	<circle class="st2" cx="118" cy="91.9" r="1.5"/>
	<path d="M118,94.1c-1.2,0-2.2-1-2.2-2.2c0-1.2,1-2.2,2.2-2.2s2.2,1,2.2,2.2C120.1,93.1,119.2,94.1,118,94.1z M118,91
		c-0.5,0-0.9,0.4-0.9,0.9c0,0.5,0.4,0.9,0.9,0.9s0.9-0.4,0.9-0.9C118.8,91.4,118.4,91,118,91z"/>
</g>
<g>
	<circle class="st2" cx="118" cy="101.5" r="4.1"/>
	<path d="M118,106.3c-2.6,0-4.7-2.1-4.7-4.7c0-2.6,2.1-4.7,4.7-4.7s4.7,2.1,4.7,4.7C122.7,104.1,120.6,106.3,118,106.3z M118,98.1
		c-1.9,0-3.4,1.5-3.4,3.4s1.5,3.4,3.4,3.4s3.4-1.5,3.4-3.4S119.8,98.1,118,98.1z"/>
</g>
<g>
	<path d="M114,103c-0.2,0-0.4-0.2-0.5-0.4c0-0.3,0.1-0.5,0.4-0.6c2.7-0.4,5.4-0.4,8,0c0.3,0,0.5,0.3,0.4,0.6c0,0.3-0.3,0.4-0.6,0.4
		C119.3,102.6,116.7,102.6,114,103C114.1,103,114.1,103,114,103z M121.9,101C121.8,101,121.8,101,121.9,101c-1-0.2-2-0.3-2.9-0.3
		c-0.3,0-0.5-0.2-0.5-0.5v-2.6c0-0.3,0.2-0.5,0.5-0.5c0.3,0,0.5,0.2,0.5,0.5v2.1c0.8,0.1,1.7,0.1,2.5,0.3c0.3,0,0.5,0.3,0.4,0.6
		C122.3,100.8,122.1,101,121.9,101z M114,101c-0.2,0-0.4-0.2-0.5-0.4c0-0.3,0.1-0.5,0.4-0.6c0.8-0.1,1.6-0.2,2.5-0.3l0-0.2
		c0-0.5,0-1.1,0-1.9c0-0.3,0.2-0.5,0.5-0.5s0.5,0.2,0.5,0.5c0,0.8,0,1.4,0,2l0,0.6c0,0.3-0.2,0.5-0.5,0.5
		C116,100.7,115.1,100.8,114,101C114.1,101,114.1,101,114,101z"/>
</g>
<g>
	<path class="st2" d="M114,108.4c-0.4,6.6-1.2,13.4-3.7,18.3l4.2-1.7c1.5-5.6,1.8-12.7,2.2-16.1L114,108.4z M121.9,108.4l-2.7,0.4
		c0.4,3.4,0.8,10.6,2.2,16.1l4.2,1.7C123.1,121.8,122.3,115,121.9,108.4z"/>
	<path d="M125.7,127.3c-0.1,0-0.2,0-0.2,0l-4.2-1.7c-0.2-0.1-0.3-0.2-0.4-0.4c-1.1-4.1-1.5-9.1-1.9-12.7c-0.1-1.4-0.2-2.6-0.4-3.5
		c0-0.4,0.2-0.7,0.5-0.7l2.7-0.4c0.2,0,0.4,0,0.5,0.1c0.1,0.1,0.2,0.3,0.2,0.5c0.4,6.1,1.1,13,3.7,18c0.1,0.2,0.1,0.5-0.1,0.7
		C126,127.2,125.8,127.3,125.7,127.3z M122,124.5l2.3,0.9c-2-4.8-2.7-10.8-3-16.2l-1.3,0.2c0.1,0.8,0.2,1.8,0.3,2.9
		C120.6,115.8,121,120.5,122,124.5z M110.3,127.3c-0.2,0-0.4-0.1-0.5-0.2c-0.2-0.2-0.2-0.5-0.1-0.7c2.6-4.9,3.3-11.9,3.7-18
		c0-0.2,0.1-0.4,0.2-0.5c0.1-0.1,0.3-0.2,0.5-0.1l2.7,0.4c0.3,0.1,0.6,0.4,0.5,0.7c-0.1,0.9-0.2,2.1-0.4,3.5
		c-0.3,3.6-0.8,8.6-1.9,12.7c-0.1,0.2-0.2,0.4-0.4,0.4l-4.2,1.7C110.4,127.3,110.3,127.3,110.3,127.3z M114.6,109.2
		c-0.3,5.5-1,11.5-3,16.2l2.3-0.9c1-3.9,1.4-8.7,1.8-12.2c0.1-1.1,0.2-2.1,0.3-2.9L114.6,109.2z"/>
</g>
<g>
	<path class="st2" d="M118,122.7c-5,0-8.7,2.4-8.9,8.4c-1.2-2.2-6.4-8.9-11.2-8c-2.9,0.5-5.4,4.5-5,9.1c-2.4-6.8-9.3-8-14.4-3.9
		c4.5,3.7,6.5,14.7,10.3,19.4H118h29.2c3.8-4.8,5.8-15.7,10.3-19.4c-5.1-4-12-2.9-14.4,3.9c0.4-4.6-2.1-8.5-5-9.1
		c-4.8-0.9-10,5.9-11.2,8C126.6,125.1,123,122.7,118,122.7z"/>
	<path d="M147.2,148.3H88.7c-0.2,0-0.4-0.1-0.5-0.2c-1.7-2.2-3.1-5.5-4.5-8.9c-1.7-4.1-3.4-8.4-5.8-10.4c-0.2-0.1-0.2-0.3-0.2-0.5
		c0-0.2,0.1-0.4,0.2-0.5c2.8-2.2,6.2-3,9.2-2.1c2.1,0.6,3.8,1.9,5,3.8c0.5-3.5,2.7-6.5,5.4-7c4.4-0.8,8.8,3.9,10.9,6.8
		c0.8-4.6,4.1-7.1,9.4-7.1c5.3,0,8.6,2.5,9.4,7.1c2.1-2.9,6.5-7.6,10.9-6.8c2.7,0.5,4.9,3.5,5.4,7c1.2-1.9,3-3.2,5-3.9
		c3-0.9,6.4-0.1,9.2,2.1c0.2,0.1,0.2,0.3,0.2,0.5c0,0.2-0.1,0.4-0.2,0.5c-2.4,2-4.1,6.2-5.8,10.4c-1.4,3.5-2.7,6.8-4.5,8.9
		C147.5,148.2,147.4,148.3,147.2,148.3z M89.1,147h57.8c1.5-2,2.8-5.1,4.1-8.3c1.6-4,3.2-8,5.5-10.3c-2.3-1.6-5-2.1-7.4-1.4
		c-2.5,0.7-4.4,2.7-5.4,5.5c-0.1,0.3-0.4,0.5-0.8,0.4c-0.3-0.1-0.5-0.4-0.5-0.7c0.4-4.4-2-7.9-4.5-8.4c-4.2-0.8-9.2,5.4-10.5,7.7
		c-0.1,0.3-0.4,0.4-0.7,0.3c-0.3-0.1-0.5-0.3-0.5-0.6c-0.2-5.1-3-7.7-8.3-7.7c-5.3,0-8.1,2.6-8.2,7.7c0,0.3-0.2,0.5-0.5,0.6
		c-0.3,0.1-0.6-0.1-0.7-0.3c-1.3-2.3-6.3-8.5-10.5-7.7c-2.4,0.5-4.9,4-4.4,8.4c0,0.3-0.2,0.6-0.5,0.7c-0.3,0.1-0.7-0.1-0.8-0.4
		c-1-2.8-2.9-4.8-5.4-5.5c-2.4-0.7-5.1-0.2-7.4,1.4c2.3,2.3,4,6.4,5.5,10.3C86.3,141.9,87.5,145,89.1,147z"/>
</g>
<g>
	<g>
		<path d="M147.1,147.7c0,2.2-13,4.5-29.1,4.5s-29.1-2.4-29.1-4.5c0-2.2,13-3.3,29.1-3.3S147.1,145.5,147.1,147.7z"/>
		<path d="M118,152.7c-14.3,0-29.6-2-29.6-5c0-3.3,18.6-3.8,29.6-3.8s29.6,0.5,29.6,3.8C147.6,150.7,132.3,152.7,118,152.7z
			 M118,144.9c-21.6,0-28.6,1.9-28.6,2.8c0,1.4,11.1,4,28.6,4s28.6-2.7,28.6-4C146.6,146.7,139.6,144.9,118,144.9z"/>
	</g>
	<g>
		<circle class="st2" cx="118" cy="107.1" r="1.4"/>
		<path d="M118,109c-1,0-1.9-0.8-1.9-1.9c0-1,0.8-1.9,1.9-1.9s1.9,0.8,1.9,1.9C119.8,108.2,119,109,118,109z M118,106.3
			c-0.5,0-0.9,0.4-0.9,0.9c0,0.5,0.4,0.9,0.9,0.9s0.9-0.4,0.9-0.9C118.8,106.7,118.4,106.3,118,106.3z"/>
	</g>
	<g>
		<circle class="st2" cx="118" cy="110.1" r="1.4"/>
		<path d="M118,112c-1.1,0-1.9-0.9-1.9-1.9s0.9-1.9,1.9-1.9s1.9,0.9,1.9,1.9S119,112,118,112z M118,109.1c-0.5,0-1,0.4-1,1
			s0.4,1,1,1s1-0.4,1-1S118.5,109.1,118,109.1z"/>
	</g>
	<g>
		<circle class="st2" cx="118" cy="113.2" r="1.6"/>
		<path d="M118,115.3c-1.1,0-2.1-0.9-2.1-2.1c0-1.1,0.9-2.1,2.1-2.1s2.1,0.9,2.1,2.1C120,114.4,119.1,115.3,118,115.3z M118,112.1
			c-0.6,0-1.1,0.5-1.1,1.1c0,0.6,0.5,1.1,1.1,1.1s1.1-0.5,1.1-1.1C119,112.6,118.6,112.1,118,112.1z"/>
	</g>
	<g>
		<circle class="st2" cx="118" cy="116.8" r="1.8"/>
		<path d="M118,119c-1.3,0-2.3-1-2.3-2.3c0-1.3,1-2.3,2.3-2.3s2.3,1,2.3,2.3C120.3,118,119.2,119,118,119z M118,115.4
			c-0.7,0-1.3,0.6-1.3,1.3c0,0.7,0.6,1.3,1.3,1.3s1.3-0.6,1.3-1.3C119.3,116,118.7,115.4,118,115.4z"/>
	</g>
	<g>
		<circle class="st2" cx="118" cy="120.7" r="2"/>
		<path d="M118,123.1c-1.4,0-2.5-1.1-2.5-2.5s1.1-2.5,2.5-2.5c1.4,0,2.5,1.1,2.5,2.5S119.3,123.1,118,123.1z M118,119.2
			c-0.8,0-1.5,0.7-1.5,1.5s0.7,1.5,1.5,1.5s1.5-0.7,1.5-1.5S118.8,119.2,118,119.2z"/>
	</g>
	<g>
		<path d="M117.2,124.5c-0.2,0-0.4,0.2-0.4,0.5c0.1,0.4,0.1,1.2,0.2,1.7c0.1,0.6,0.4,0.4,0.5,0c0.1-0.4,0.1-0.7,0.1-1.6
			C117.6,124.7,117.4,124.5,117.2,124.5z M118.7,124.5c-0.2,0-0.4,0.2-0.4,0.6c0,0.8,0,1.1,0.1,1.6c0.1,0.5,0.4,0.6,0.5,0
			c0.1-0.5,0.2-1.3,0.2-1.7C119.2,124.7,119,124.5,118.7,124.5z M115.8,124.7c-0.2,0-0.4,0.2-0.4,0.4c0,0.4,0.1,0.8,0.2,1.4
			c0,0.6,0.5,0.4,0.5,0c0-0.3,0.1-0.8,0-1.5C116.1,124.8,116,124.7,115.8,124.7C115.8,124.7,115.8,124.7,115.8,124.7z M120.1,124.7
			c-0.1,0-0.2,0.1-0.3,0.4c0,0.7,0,1.2,0,1.5c0,0.3,0.5,0.6,0.5,0c0-0.6,0.1-1,0.2-1.4C120.6,124.9,120.3,124.7,120.1,124.7
			C120.1,124.7,120.1,124.7,120.1,124.7z M114.1,125.4c-0.2,0-0.3,0.3-0.3,0.5c0.1,0.5,0.2,1,0.2,1.5c0,0.4,0.4,0.3,0.4,0
			c0-0.3,0.1-0.9,0.1-1.5C114.4,125.5,114.3,125.3,114.1,125.4z M121.7,125.4c-0.1,0-0.2,0.2-0.2,0.5c0,0.6,0,1.2,0.1,1.5
			c0,0.3,0.4,0.5,0.4,0c0-0.5,0.1-1,0.2-1.5c0.1-0.2-0.1-0.5-0.3-0.5C121.8,125.4,121.8,125.4,121.7,125.4z M98.8,125.4
			c-0.2,0-0.4,0.3-0.2,0.6c0.2,0.5,0.5,0.8,0.7,1.4c0.2,0.5,0.5,0.2,0.4-0.2c-0.1-0.3-0.2-0.7-0.5-1.5
			C99.1,125.6,98.9,125.4,98.8,125.4z M137.1,125.4c-0.1,0-0.3,0.1-0.4,0.4c-0.3,0.7-0.4,1.1-0.5,1.5c-0.1,0.3,0.2,0.7,0.4,0.2
			c0.2-0.6,0.5-0.9,0.7-1.4C137.5,125.7,137.3,125.4,137.1,125.4z M100.4,125.5c-0.2,0-0.3,0.2-0.2,0.5c0.2,0.5,0.5,1,0.7,1.5
			c0.2,0.4,0.6,0.3,0.4-0.1c-0.1-0.4-0.2-0.6-0.4-1.4C100.7,125.5,100.5,125.4,100.4,125.5z M135.4,125.5c-0.1,0-0.3,0.2-0.4,0.4
			c-0.3,0.8-0.3,1-0.4,1.4c-0.1,0.4,0.3,0.5,0.4,0.1c0.2-0.5,0.5-1,0.7-1.5c0.1-0.2,0-0.4-0.2-0.5
			C135.5,125.5,135.5,125.5,135.4,125.5z M102.3,125.8c-0.2,0-0.4,0.3-0.2,0.7c0.2,0.5,0.4,0.9,0.6,1.5c0.2,0.5,0.6,0.4,0.5,0.1
			c-0.1-0.3-0.2-0.9-0.4-1.8C102.6,126,102.5,125.8,102.3,125.8z M133.6,125.8c-0.2,0-0.3,0.1-0.4,0.5c-0.3,0.9-0.4,1.4-0.4,1.8
			c-0.1,0.3,0.3,0.5,0.5-0.1c0.2-0.5,0.5-1,0.6-1.5C134,126.2,133.8,125.9,133.6,125.8z M97.5,126.1c-0.2,0-0.4,0.4-0.3,0.6
			c0.2,0.4,0.4,0.6,0.6,1c0.2,0.5,0.4,0.1,0.4-0.2c-0.1-0.3-0.2-0.6-0.3-1.1C97.8,126.2,97.6,126.1,97.5,126.1z M138.4,126.1
			c-0.1,0-0.3,0.1-0.3,0.4c-0.1,0.4-0.2,0.8-0.3,1.1c-0.1,0.3,0.1,0.7,0.4,0.2c0.2-0.5,0.3-0.6,0.6-1
			C138.8,126.5,138.6,126.1,138.4,126.1z M112.4,127.2c-0.2,0-0.5,0.3-0.4,0.6c0.1,0.5,0.3,0.8,0.5,1.4c0.1,0.5,0.5,0.3,0.5-0.1
			c0-0.3-0.1-0.8-0.2-1.5C112.7,127.3,112.6,127.2,112.4,127.2z M123.5,127.2c-0.1,0-0.3,0.1-0.3,0.4c-0.1,0.7-0.2,1.2-0.2,1.5
			c0,0.3,0.3,0.6,0.5,0.1c0.1-0.6,0.3-1,0.5-1.4C123.9,127.5,123.7,127.2,123.5,127.2z M118,127.7c-0.3,0-0.3,0.4-0.3,0.7
			c0,1-0.4,2-0.8,2.4c-0.4,0.5-0.9,0.4-1.4,0.1c-0.5-0.3-0.8-0.4-1.3-0.8c-0.5-0.4-0.9-0.2-0.3,0.7c1.8,2.5,3.7,4.7,3.7,8.9
			c0,0.5,0.1,0.7,0.3,0.7s0.3-0.2,0.3-0.7c0-4.2,1.9-6.3,3.7-8.9c0.6-0.9,0.2-1.1-0.3-0.7c-0.5,0.4-0.8,0.6-1.3,0.8
			c-0.5,0.3-1,0.4-1.4-0.1c-0.4-0.5-0.8-1.4-0.8-2.4C118.3,128,118.2,127.7,118,127.7z M104.3,127C104.3,127,104.2,127,104.3,127
			c-0.2,0-0.2,0.2-0.2,0.4c0.1,0.4,0.3,1.1,0.4,1.5c0.1,0.4,0.6,0.3,0.4-0.2c-0.1-0.5-0.1-0.6-0.2-1.2
			C104.7,127.2,104.5,127,104.3,127z M131.6,127c-0.2,0-0.4,0.2-0.5,0.5c-0.1,0.6-0.1,0.7-0.2,1.2c-0.1,0.5,0.3,0.6,0.4,0.2
			c0.1-0.4,0.4-1.1,0.4-1.5C131.9,127.2,131.8,127.1,131.6,127C131.7,127,131.7,127,131.6,127z M96.2,127.2c-0.2,0-0.4,0.3-0.2,0.7
			c0.2,0.4,0.7,1,0.9,1.3c0.2,0.3,0.5,0.1,0.3-0.3c-0.2-0.4-0.3-0.9-0.6-1.5C96.5,127.3,96.3,127.2,96.2,127.2z M139.8,127.2
			c-0.1,0-0.3,0.1-0.4,0.3c-0.3,0.6-0.4,1-0.6,1.5c-0.2,0.4,0.1,0.6,0.3,0.3s0.6-0.9,0.9-1.3C140.1,127.5,140,127.2,139.8,127.2z
			 M83.9,128.5c-0.3,0-0.3,0.5-0.1,0.8c0.4,0.4,0.6,0.7,1,1.1c0.3,0.3,0.4-0.1,0.3-0.4c-0.2-0.3-0.4-0.6-0.7-1.1
			C84.2,128.6,84,128.5,83.9,128.5z M152,128.5c-0.1,0-0.3,0.1-0.4,0.4c-0.3,0.5-0.6,0.8-0.7,1.1s-0.1,0.7,0.3,0.4
			c0.4-0.4,0.7-0.6,1-1.1C152.4,128.9,152.3,128.5,152,128.5z M85.8,128.9c-0.2,0-0.3,0.2-0.2,0.5c0.2,0.5,0.5,1.1,0.7,1.5
			c0.2,0.4,0.8,0.5,0.5-0.1c-0.2-0.6-0.3-0.9-0.5-1.5C86.3,129,86,128.9,85.8,128.9z M150.1,128.9c-0.2,0-0.5,0.1-0.6,0.4
			c-0.2,0.6-0.3,0.9-0.5,1.5c-0.2,0.6,0.4,0.5,0.5,0.1c0.2-0.4,0.5-1,0.7-1.5C150.4,129,150.3,128.9,150.1,128.9z M82.1,129
			c-0.3,0-0.3,0.3-0.1,0.5c0.4,0.3,0.8,0.5,1.2,0.9c0.5,0.4,0.7,0,0.4-0.3c-0.3-0.3-0.5-0.6-1.2-1C82.3,129,82.2,129,82.1,129z
			 M153.9,129c-0.1,0-0.2,0-0.4,0.1c-0.6,0.3-0.9,0.6-1.2,1c-0.3,0.3-0.1,0.7,0.4,0.3c0.4-0.3,0.8-0.6,1.2-0.9
			C154.2,129.3,154.2,129,153.9,129z M111.4,129.3c-0.2,0-0.3,0.2-0.2,0.5c0.1,0.4,0.3,0.9,0.4,1.4c0.1,0.5,0.6,0.5,0.5,0
			c-0.1-0.4-0.1-0.9-0.3-1.5C111.7,129.4,111.6,129.3,111.4,129.3C111.4,129.3,111.4,129.3,111.4,129.3z M124.5,129.3
			c-0.1,0-0.2,0.1-0.3,0.4c-0.1,0.6-0.2,1.1-0.3,1.5c-0.1,0.4,0.4,0.4,0.5,0c0.1-0.5,0.2-0.9,0.4-1.4
			C124.9,129.5,124.7,129.3,124.5,129.3C124.5,129.3,124.5,129.3,124.5,129.3z M99.7,128.5c-0.1,0-0.2,0.3-0.1,0.6
			c0.5,2,0.7,3,0.6,3.5c-0.1,0.5-0.4,0.5-0.7,0.4s-0.8-0.4-1.1-0.6c-0.3-0.2-0.7,0-0.2,0.4c2.3,1.9,4,4.1,4.6,6.8
			c0.1,0.5,0.5,0.6,0.4,0c-0.5-3.4-0.6-6.1,0.2-7.9c0.3-0.7,0-1.3-0.5-0.2c-0.3,0.7-0.8,1-1.3,0.4c-0.4-0.6-1.3-2.2-1.5-3
			C100,128.7,99.9,128.5,99.7,128.5C99.8,128.5,99.7,128.5,99.7,128.5z M136.1,128.5c-0.1,0-0.2,0.1-0.3,0.4c-0.3,0.7-1.1,2.4-1.5,3
			c-0.4,0.6-0.9,0.3-1.3-0.4c-0.5-1.1-0.8-0.4-0.5,0.2c0.8,1.7,0.7,4.5,0.2,7.9c-0.1,0.6,0.2,0.5,0.4,0c0.6-2.7,2.3-4.9,4.6-6.8
			c0.5-0.4,0.1-0.6-0.2-0.4c-0.3,0.2-0.7,0.5-1.1,0.6c-0.4,0.2-0.6,0.1-0.7-0.4c-0.1-0.5,0.1-1.5,0.6-3.5
			C136.4,128.8,136.3,128.5,136.1,128.5C136.2,128.5,136.2,128.5,136.1,128.5z M87.9,129.4c-0.2,0-0.4,0.2-0.3,0.5
			c0.2,0.5,0.5,1.1,0.6,1.4c0.1,0.3,0.5,0.2,0.4-0.3s-0.1-0.7-0.2-1.2C88.4,129.6,88.1,129.4,87.9,129.4z M148,129.4
			c-0.2,0-0.5,0.1-0.5,0.4c-0.1,0.5-0.1,0.8-0.2,1.2s0.3,0.6,0.4,0.3c0.1-0.3,0.4-0.9,0.6-1.4C148.4,129.6,148.2,129.4,148,129.4z
			 M95.2,128.8c-0.2,0-0.3,0.6-0.1,0.8c0.3,0.3,0.7,0.8,1.1,1.2c0.3,0.4,0.5,0,0.3-0.3c-0.2-0.3-0.5-0.7-1-1.5
			C95.4,128.9,95.3,128.8,95.2,128.8z M140.7,128.8c-0.1,0-0.2,0.1-0.3,0.3c-0.5,0.8-0.8,1.2-1,1.5c-0.2,0.3,0,0.7,0.3,0.3
			c0.4-0.5,0.8-0.9,1.1-1.2C141,129.4,141,128.7,140.7,128.8z M89.6,130.3c-0.2,0-0.3,0.1-0.2,0.4c0.1,0.4,0.2,0.8,0.3,1.2
			c0.1,0.4,0.4,0.3,0.4,0c0-0.4-0.1-0.8-0.1-1.2C89.9,130.5,89.7,130.3,89.6,130.3z M146.3,130.3c-0.2,0-0.3,0.1-0.4,0.4
			c-0.1,0.4-0.1,0.8-0.1,1.2c0,0.4,0.3,0.5,0.4,0c0.1-0.4,0.2-0.8,0.3-1.2C146.6,130.4,146.5,130.3,146.3,130.3z M94.7,130.9
			c-0.2,0-0.5,0.3-0.2,0.6c0.4,0.6,0.9,1,1.1,1.2c0.2,0.2,0.6,0.1,0.3-0.3c-0.3-0.5-0.7-1-0.9-1.4C94.9,130.9,94.8,130.8,94.7,130.9
			z M141.2,130.9c-0.1,0-0.2,0.1-0.3,0.2c-0.2,0.3-0.6,0.9-0.9,1.4c-0.3,0.5,0.2,0.5,0.3,0.3c0.2-0.2,0.7-0.6,1.1-1.2
			C141.7,131.1,141.5,130.9,141.2,130.9C141.2,130.8,141.2,130.9,141.2,130.9z M86.6,132.5c-0.2,0-0.3,0.1,0,0.5
			c0.6,0.8,1.2,2,1.3,2.5c0,0.5-0.2,0.5-0.4,0.5c-0.7,0-1.1-0.5-1.7-0.7c-0.6-0.2-0.7,0.2-0.3,0.5c2.4,1.7,4.7,3.6,5.7,5.4
			c0.4,0.7,0.9,1,0.6,0.3c-0.9-2.1-1.1-3.8-0.9-4.9c0.2-1.1,0.5-1.8,0.4-2.4c0-0.6-0.4-0.6-0.5,0c-0.1,0.4-0.3,0.9-0.4,1.1
			c-0.1,0.2-0.6,0.3-1.1-0.4s-1.7-1.9-2.1-2.3C86.9,132.6,86.8,132.5,86.6,132.5z M149.3,132.5c-0.1,0-0.3,0.1-0.4,0.2
			c-0.4,0.3-1.7,1.6-2.1,2.3c-0.5,0.7-1,0.6-1.1,0.4c-0.1-0.2-0.3-0.7-0.4-1.1c-0.1-0.6-0.5-0.6-0.5,0c0,0.6,0.2,1.3,0.4,2.4
			c0.2,1.1,0,2.8-0.9,4.9c-0.3,0.7,0.2,0.4,0.6-0.3c0.9-1.7,3.3-3.7,5.7-5.4c0.5-0.3,0.4-0.7-0.3-0.5c-0.6,0.1-1,0.7-1.7,0.7
			c-0.2,0-0.5,0-0.4-0.5c0-0.5,0.7-1.7,1.3-2.5C149.5,132.6,149.5,132.5,149.3,132.5z"/>
	</g>
	<g>
		<path class="st2" d="M90.1,145.2l0.8,2.4 M91.7,144.7l0.7,2.4 M93.4,144.5l0.5,2.5 M94.9,144.1l0.5,2.5 M96.9,144l0.4,2.5 M99,144
			l0.4,2.5 M101.1,143.3l0.3,2.5 M103.1,143.4l0.3,2.5 M105,143.1l0.3,2.5 M106.8,142.9l0.2,2.5 M108.9,142.9l0.1,2.5 M110.7,142.8
			l0.1,2.5 M112.7,142.7l0.1,2.5 M115.1,142.6l0.1,2.5 M145.8,145.2l-0.8,2.4 M144.2,144.7l-0.7,2.4 M142.6,144.5l-0.5,2.5
			 M141,144.1l-0.5,2.5 M139,144l-0.4,2.5 M136.9,144l-0.4,2.5 M134.8,143.3l-0.3,2.5 M132.9,143.4l-0.3,2.5 M131,143.1l-0.3,2.5
			 M129.1,142.9l-0.2,2.5 M127,142.9l-0.1,2.5 M125.2,142.8l-0.1,2.5 M123.2,142.7l-0.1,2.5 M120.9,142.6l-0.1,2.5 M118,142.5v2.8"
			/>
		<path d="M145,148.1c0,0-0.1,0-0.1,0c-0.3-0.1-0.4-0.4-0.3-0.6l0.8-2.4c0.1-0.3,0.4-0.4,0.6-0.3c0.3,0.1,0.4,0.4,0.3,0.6l-0.8,2.4
			C145.4,147.9,145.3,148.1,145,148.1z M90.9,148.1c-0.2,0-0.4-0.1-0.5-0.3l-0.8-2.4c-0.1-0.3,0.1-0.5,0.3-0.6
			c0.3-0.1,0.5,0.1,0.6,0.3l0.8,2.4c0.1,0.3-0.1,0.5-0.3,0.6C91,148.1,90.9,148.1,90.9,148.1z M143.6,147.6c0,0-0.1,0-0.1,0
			c-0.3-0.1-0.4-0.3-0.3-0.6l0.7-2.4c0.1-0.3,0.3-0.4,0.6-0.3c0.3,0.1,0.4,0.3,0.3,0.6l-0.7,2.4C144,147.5,143.8,147.6,143.6,147.6z
			 M92.3,147.6c-0.2,0-0.4-0.1-0.5-0.4l-0.7-2.4c-0.1-0.3,0.1-0.5,0.3-0.6c0.3-0.1,0.5,0.1,0.6,0.3l0.7,2.4c0.1,0.3-0.1,0.5-0.3,0.6
			C92.4,147.6,92.4,147.6,92.3,147.6z M142.1,147.4C142.1,147.4,142,147.4,142.1,147.4c-0.4-0.1-0.5-0.3-0.5-0.6l0.5-2.5
			c0.1-0.3,0.3-0.4,0.6-0.4c0.3,0.1,0.4,0.3,0.4,0.6l-0.5,2.5C142.5,147.3,142.3,147.4,142.1,147.4z M93.8,147.4
			c-0.2,0-0.4-0.2-0.5-0.4l-0.5-2.5c-0.1-0.3,0.1-0.5,0.4-0.6c0.3,0,0.5,0.1,0.6,0.4l0.5,2.5C94.4,147.1,94.2,147.4,93.8,147.4
			C93.9,147.4,93.8,147.4,93.8,147.4z M140.5,147.1C140.5,147.1,140.4,147.1,140.5,147.1c-0.4-0.1-0.5-0.3-0.5-0.6l0.5-2.5
			c0.1-0.3,0.3-0.4,0.6-0.4c0.3,0.1,0.4,0.3,0.4,0.6l-0.5,2.5C141,146.9,140.7,147.1,140.5,147.1z M95.4,147.1
			c-0.2,0-0.4-0.2-0.5-0.4l-0.5-2.5c-0.1-0.3,0.1-0.5,0.4-0.6c0.3-0.1,0.5,0.1,0.6,0.4l0.5,2.5C95.9,146.8,95.8,147,95.4,147.1
			C95.5,147.1,95.4,147.1,95.4,147.1z M138.6,146.9C138.6,146.9,138.6,146.9,138.6,146.9c-0.3,0-0.5-0.3-0.5-0.6l0.4-2.5
			c0-0.3,0.3-0.5,0.6-0.4c0.3,0,0.5,0.3,0.4,0.6l-0.4,2.5C139.1,146.7,138.8,146.9,138.6,146.9z M97.3,146.9c-0.2,0-0.4-0.2-0.5-0.4
			l-0.4-2.5c0-0.3,0.1-0.5,0.4-0.6c0.3,0,0.5,0.1,0.6,0.4l0.4,2.5C97.8,146.6,97.7,146.9,97.3,146.9
			C97.4,146.9,97.3,146.9,97.3,146.9z M136.5,146.9C136.4,146.9,136.4,146.9,136.5,146.9c-0.4-0.1-0.5-0.3-0.5-0.6l0.4-2.5
			c0-0.3,0.3-0.5,0.6-0.4c0.3,0,0.4,0.3,0.4,0.6l-0.4,2.5C136.9,146.8,136.7,146.9,136.5,146.9z M99.5,146.9c-0.2,0-0.4-0.2-0.5-0.4
			l-0.4-2.5c0-0.3,0.1-0.5,0.4-0.6c0.3,0,0.5,0.1,0.6,0.4l0.4,2.5C100,146.6,99.8,146.9,99.5,146.9
			C99.5,146.9,99.5,146.9,99.5,146.9z M132.5,146.4C132.5,146.4,132.5,146.4,132.5,146.4c-0.3,0-0.5-0.3-0.5-0.6l0.3-2.5
			c0-0.3,0.3-0.5,0.6-0.4c0.3,0,0.5,0.3,0.4,0.6l-0.3,2.5C133,146.2,132.8,146.4,132.5,146.4z M103.4,146.4c-0.2,0-0.5-0.2-0.5-0.4
			l-0.3-2.5c0-0.3,0.2-0.5,0.4-0.6c0.3,0,0.5,0.2,0.6,0.4l0.3,2.5C103.9,146.1,103.7,146.3,103.4,146.4
			C103.4,146.4,103.4,146.4,103.4,146.4z M134.5,146.2C134.5,146.2,134.5,146.2,134.5,146.2c-0.3,0-0.5-0.3-0.5-0.6l0.3-2.5
			c0-0.3,0.3-0.5,0.6-0.4c0.3,0,0.5,0.3,0.4,0.6l-0.3,2.5C135,146.1,134.7,146.2,134.5,146.2z M101.4,146.2c-0.2,0-0.5-0.2-0.5-0.4
			l-0.3-2.5c0-0.3,0.2-0.5,0.4-0.6c0.3,0,0.5,0.2,0.6,0.4l0.3,2.5C101.9,146,101.8,146.2,101.4,146.2
			C101.5,146.2,101.4,146.2,101.4,146.2z M105.3,146.1c-0.2,0-0.5-0.2-0.5-0.4l-0.3-2.5c0-0.3,0.2-0.5,0.4-0.6
			c0.3,0,0.5,0.2,0.6,0.4l0.3,2.5C105.8,145.8,105.6,146.1,105.3,146.1C105.3,146.1,105.3,146.1,105.3,146.1z M130.7,146.1
			C130.6,146.1,130.6,146.1,130.7,146.1c-0.3,0-0.5-0.3-0.5-0.6l0.3-2.5c0-0.3,0.3-0.5,0.6-0.4c0.3,0,0.5,0.3,0.4,0.6l-0.3,2.5
			C131.1,145.9,130.9,146.1,130.7,146.1z M126.9,145.9C126.9,145.9,126.9,145.9,126.9,145.9c-0.3,0-0.5-0.3-0.5-0.5l0.1-2.5
			c0-0.3,0.3-0.5,0.5-0.5c0.3,0,0.5,0.3,0.5,0.5l-0.1,2.5C127.4,145.7,127.2,145.9,126.9,145.9z M109,145.9c-0.3,0-0.5-0.2-0.5-0.5
			l-0.1-2.5c0-0.3,0.2-0.5,0.5-0.5c0.3,0,0.5,0.2,0.5,0.5l0.1,2.5C109.5,145.7,109.3,145.9,109,145.9C109,145.9,109,145.9,109,145.9
			z M128.9,145.9C128.9,145.9,128.9,145.9,128.9,145.9c-0.3,0-0.5-0.3-0.5-0.5l0.2-2.5c0-0.3,0.3-0.5,0.5-0.5c0.3,0,0.5,0.3,0.5,0.5
			l-0.2,2.5C129.4,145.7,129.2,145.9,128.9,145.9z M107,145.9c-0.3,0-0.5-0.2-0.5-0.5l-0.2-2.5c0-0.3,0.2-0.5,0.5-0.5
			c0.3,0,0.5,0.2,0.5,0.5l0.2,2.5C107.5,145.7,107.3,145.9,107,145.9C107,145.9,107,145.9,107,145.9z M125.1,145.8
			C125.1,145.8,125.1,145.8,125.1,145.8c-0.3,0-0.5-0.2-0.5-0.5l0.1-2.5c0-0.3,0.2-0.5,0.5-0.5c0.3,0,0.5,0.2,0.5,0.5l-0.1,2.5
			C125.6,145.6,125.3,145.8,125.1,145.8z M110.8,145.8c-0.3,0-0.5-0.2-0.5-0.5l-0.1-2.5c0-0.3,0.2-0.5,0.5-0.5
			c0.3,0,0.5,0.2,0.5,0.5l0.1,2.5C111.3,145.6,111.1,145.8,110.8,145.8C110.9,145.8,110.8,145.8,110.8,145.8z M118,145.7
			c-0.3,0-0.5-0.2-0.5-0.5v-2.8c0-0.3,0.2-0.5,0.5-0.5s0.5,0.2,0.5,0.5v2.8C118.5,145.5,118.2,145.7,118,145.7z M123.1,145.7
			C123.1,145.7,123.1,145.7,123.1,145.7c-0.3,0-0.5-0.2-0.5-0.5l0.1-2.5c0-0.3,0.2-0.5,0.5-0.5c0.3,0,0.5,0.2,0.5,0.5l-0.1,2.5
			C123.6,145.5,123.3,145.7,123.1,145.7z M112.8,145.7c-0.3,0-0.5-0.2-0.5-0.5l-0.1-2.5c0-0.3,0.2-0.5,0.5-0.5
			c0.3,0,0.5,0.2,0.5,0.5l0.1,2.5C113.3,145.4,113.1,145.7,112.8,145.7C112.9,145.7,112.8,145.7,112.8,145.7z M120.8,145.6
			C120.7,145.6,120.7,145.6,120.8,145.6c-0.3,0-0.5-0.2-0.5-0.5l0.1-2.5c0-0.3,0.2-0.5,0.5-0.5c0.3,0,0.5,0.2,0.5,0.5l-0.1,2.5
			C121.2,145.4,121,145.6,120.8,145.6z M115.2,145.6c-0.3,0-0.5-0.2-0.5-0.5l-0.1-2.5c0-0.3,0.2-0.5,0.5-0.5c0.3,0,0.5,0.2,0.5,0.5
			l0.1,2.5C115.7,145.4,115.5,145.6,115.2,145.6C115.2,145.6,115.2,145.6,115.2,145.6z"/>
	</g>
</g>
</svg>
