<svg xmlns="http://www.w3.org/2000/svg" viewBox="0 0 685.1 451.4"><defs><style>.a{fill:#bfae95;}.b,.q{fill:none;}.b{stroke:#fff;stroke-miterlimit:10;opacity:0.55;}.c{fill:#c2c8de;}.d{fill:#edeef0;}.e{fill:#342d59;}.f{fill:#000ceb;}.g{fill:#d9d5e3;}.h{opacity:0.57;}.i{fill:#c98017;}.j{fill:#fbed60;}.k{fill:#faba31;}.l{opacity:0.47;}.m{fill:#f9e799;}.n{fill:#c27402;}.o{fill:#fcd822;}.p{fill:#fff;opacity:0.33;}.q{stroke:#b8b8b8;}.q,.t{stroke-linecap:round;stroke-linejoin:round;}.r{fill:#a3a3a3;}.s{fill:#707070;}.t{fill:#1a2e35;stroke:#1a2e35;}</style></defs><rect class="a" width="685.1" height="451.4"/><path class="b" d="M505.61,31.18a1.34,1.34,0,0,1,1.1.37,1.92,1.92,0,0,1,1.11,2.4c-.92,3.69,1.66,6.08,3.32,8.66,1.1,1.66,2.21,3.14,1.84,4.8-1.29,5.16,2.58,7.92,5.16,11.24a12.51,12.51,0,0,1,3,6.09c.74,6.26,3.69,9.58,8.12,9.58a15.36,15.36,0,0,0,6.82-2c1.29.36,1.66,1.65,2.39,2.58,1.66,1.66,3.14,3.5,5.35,3.5a4.43,4.43,0,0,0,2.58-.92,10.26,10.26,0,0,1,2.21-.74,2.38,2.38,0,0,1,2.21,1.47,3.58,3.58,0,0,1,1.48-.36c1.66,0,3.32,1.1,5,1.1a3.51,3.51,0,0,0,2.95-1.66,2.27,2.27,0,0,1,3.87.37c1.84,2.58,3.32,3.69,4.79,3.69a7.78,7.78,0,0,0,4.61-2.21h.92c-.18,2.76,2.77,4.79,1.11,7.92-.19.37.37,1.48.74,1.48,2.58.55,4.24,3.32,6.82,3.87,4.24.92,5.53,3.87,6.45,7.19a3.14,3.14,0,0,0,2.58,2.58c3.5.55,6.45,2.58,9.59,4.06,3.68,1.66,4.79,4.42,6.63,7.19,2.4,3.68,4.61,7.37,9.22,9,3,.92,4.43,3.87,5.16,7.19,1.11,5.16,3.14,10.14,8.85,12.17.37.18.93.18.93.55,2.76,7,11.06,4.43,15.48,8.85a5.09,5.09,0,0,0,3.87,1.11H657c.37,5,1.29,9.95.37,14.74a11.26,11.26,0,0,1-6.08,7.75c-2.4,1.29-3.13,2.95-1.84,5.16,2.39,4.42.55,9,1.66,13.46.73,3.32-2.22,4.42-4.25,5.34-2.21.93-3.31,2.58-5.34,4.8,4.79,1.1,9,2,13.27,2.95h.19c.55,0,.92-.74,1.29-.92a9.85,9.85,0,0,1,4.42-1.66A4.62,4.62,0,0,1,664,205.4a5.12,5.12,0,0,0,2.95.92h2.4c2.39,0,4.61.37,5.71,3,1.29,3.32-1.47,4.61-3.5,6.09a17.61,17.61,0,0,1-3.14,1.84c-1.1.55-2,1.29-1.84,2.4.19,3.31-.92,5.53-4.42,5.71-.56,2.4,1.84,2.4,2.21,3.87-3.87,4.06-9.22,3.14-13.83,4.24a1.15,1.15,0,0,1-.74-.18,19.46,19.46,0,0,0-3.13-.74c-1.29,0-1.84.92-3.5,3.5-2.21-2.21-5.9.19-8.11-2.58a.82.82,0,0,0-.93-.18c-.36,0-.55,0-.73.18-2.58,3.14-7.19,3-9.77,5.72,0,1.66,1.29,2.21,1.84,3.32s1.11,1.66.55,2.21c-2.58,3-3.32,6.82-4.61,10.32-.92,2.22-3.31,2.4-5.16,2.58-3,.19-4.42,2.22-6.08,4.24-1.29,1.48-2.58,2.77-4.06,2.77a3.9,3.9,0,0,1-2.76-1.29c-.19-.19-.37-.37-.56-.37h-.55c-2.76,0-11.61,4.42-11.8,6.08a10,10,0,0,1-2.76,5.35c-2,2-4.24,3.69-4.06,6.82,0,.74-.74,1.11-1.29,1.66a4.13,4.13,0,0,0-1.66,5,30.64,30.64,0,0,1-.37,15.3,7.64,7.64,0,0,0,.37,3.5c.55,2.4,1.29,4.61,1.66,7,.92,4.42,0,8.48-4.42,10.88a9.19,9.19,0,0,0-4.06,5.71c-.74,2-.92,4.61-3.32,5.72-.92.36-.55.92-.18,1.84,2,4.79-.74,8.66-3.32,11.8-1.66,1.84-1.66,4.42-3.87,5.9a7.08,7.08,0,0,0,5.71,2.95,9.37,9.37,0,0,0,2.21-.37,9,9,0,0,1,2.22-.37c3.5,0,4.79,2.95,4.24,6.27,3.68.18,4.42,3.68,6.45,5.9-4.61,3.87,2.21,7.37-.37,11.43-.92,0-2,.55-3.13.55a3.6,3.6,0,0,1-2.58-1.11c-1.85,2.22-3.32,4.43-6.27,5.17-2.21-4.06-10-.19-10.7-7.38,1.48-1.84,5.72-2.76,3.32-6.64a1,1,0,0,1,.93-.55h.92c.37,0,.73-.18.73-.55-1.29-4.06-4.42-7-6.63-10.33a52.67,52.67,0,0,0-13.65,5.72,4.22,4.22,0,0,1-2.58.74,6.62,6.62,0,0,1-4.42-1.66c-.37,1.29-1.11,2-2,2a3,3,0,0,1-2-.93c-1.47,7.75-7.56,11.62-12,16.78a5.57,5.57,0,0,1-4.42,1.66,4.53,4.53,0,0,1-4.43-2c-.92-1.84-1.84-2.39-3.13-2.39a8.63,8.63,0,0,0-2.95.73c-1.29.37-2.4,1.29-3.51,1.66a31.26,31.26,0,0,1-3.87,1.11c.19,3.13-2.21,3.5-4.42,3.87-.55,1.84.55,2.58,1.47,3.69s1.85,1.66,1.85,2.58c.18,2.95.37,5.71,4.05,5.71a5.2,5.2,0,0,0,1.66-.18c-3.69,1.29-3.87,6.08-7.74,6.08h-.55c-2.95,0-3.51,4.8-6.46,4.8a5.59,5.59,0,0,1-1.66-.37c-1.29-2.4,2-4.8-.18-7.19a24.64,24.64,0,0,0-17.33,11.8,10.77,10.77,0,0,1-10.32,5.53h-1.48c-3.69-.19-5.16-3.32-7.37-5.53-.56-.56-.92-1.66-1.66-1.66-.19,0-.37,0-.37.18a1.62,1.62,0,0,1-1.29.19c-1.66,0-2-2-3.14-3.32-2.58,1.84-5.89,1.84-8.84,3.87s-6.64,1.84-10.14,2.21h-.93c-1.1,0-1.66-.74-1.66-1.84,0-2.58-1.65-3.69-4.05-3.87-.74,1.65-1.84,2.76-3.32,2.76a3.17,3.17,0,0,1-2.21-.74,1.14,1.14,0,0,0-.74-.18,4,4,0,0,0-3.13,4.05c.18,1.11,1.1,2.4-.56,3.14a1.11,1.11,0,0,1-.73.18c-1.11,0-1.29-1.47-1.85-2.21a5.22,5.22,0,0,0-6.63-2.58c-2.22.74-5-.55-6.64,1.84a8.38,8.38,0,0,0-5.35-3.13c-4.61-.55-7.19-6.82-4.42-10.32a9.74,9.74,0,0,0,1.29-10,28.36,28.36,0,0,1-2.58-9.59,5.27,5.27,0,0,0-3.32-4.42,7.12,7.12,0,0,1-4.06-4.24c-2.58-4.61-5.71-8.11-11.43-8.11h-.18a5,5,0,0,1-4.79-3.32c-1.11-2.58-5.17-1.66-5.72-5.16a16.7,16.7,0,0,1-5.16,1.47,3.94,3.94,0,0,1-3.5-2c1.29-2.39.36-4.42-2.4-5.53-.55-.37-1.48-.73-1.66-1.29-1.47-7.19-8.3-4.24-12.35-6.27a.69.69,0,0,0-.55-.18c-1.11,0-1.66,1.66-2,2.77s-1.11,2.76-2.77,2.76h-.74c-1.65-.18-2.21-1.84-2.58-3.13-1.1-3.51-1.47-7-5-9.41-.74-.55-.74-1.65-.74-2.58-.37-2.76.18-5.71-1.48-8.48a2.62,2.62,0,0,1,0-1.66c1.66-2.21,2.58-4.42.93-7.19-.93-1.47,1.47-2.21,2-3.31a12.45,12.45,0,0,0,1.48-11.07,9.31,9.31,0,0,1,5.53-10.5c1.29-.37.74-1.85,1.47-2.22a16.94,16.94,0,0,1,2.95-.73,11.56,11.56,0,0,1,1.85-4.06c2.39-2.95,0-6.08-1.29-9a4.89,4.89,0,0,1-.74-3.32c.74-3.14-.19-4.61-2.77-4.61a3.66,3.66,0,0,0-1.47.18,28.21,28.21,0,0,1-4.79-5.71,14.46,14.46,0,0,0-5.9-6.08l-1.85,2.94c-.92-5-5.71-7.74-5.34-12.9.18-2-.93-2.77-2.22-2.77a5.26,5.26,0,0,0-2.21.74,11.22,11.22,0,0,1-7.56,2.77,29.24,29.24,0,0,1-8.85-1.85,14.25,14.25,0,0,0-5.53-.73c-3.87,0-7.56.92-11.24.92a3,3,0,0,0-2.4,2,3.57,3.57,0,0,1-3.13,2.58,2.29,2.29,0,0,1-1.11-.19c-2.21-.55-4.42-1.47-4.61-4.24,0-.73-.18-1.47-.18-2.21,0-1.84-.74-2.58-1.85-2.58a3.39,3.39,0,0,0-1.47.37A10.09,10.09,0,0,1,249,243c-3.5,0-6.45-2-9.58-4.06-.56-.36-1.11-1.29-1.66-1.47-6.27-.37-9.41-5.53-13.83-8.67-2.4-1.66-5-3.68-8.11-3.68a7.3,7.3,0,0,0-3.87,1.1,1.36,1.36,0,0,1-.92.19c-2,0-5-3.14-6.09-6.27a29,29,0,0,0-5.71-9c-3.32,1.47-5.17,5-8.85,5.53-1.11-1.29-2-3.14-.56-4.24,2.77-2,1.11-4.24.19-5.72a11.46,11.46,0,0,1-2.4-6.27c-1.29.56-2.21,1.85-3.32,1.85a2,2,0,0,1-1.1-.37c2.58-6.27,5.34-12.91,3.32-20.1a154.75,154.75,0,0,0-4.8-14.93c-.92-2.58-1.29-5.53-3.13-7.74a1.18,1.18,0,0,0-1.11,1.66c.19,6.45-.92,12.9-1.47,19.35a29.94,29.94,0,0,1-1.11,5.53,4.8,4.8,0,0,0,.92,5.54c-1.66,4-4.61,7.55-4.79,12a2.11,2.11,0,0,1-.92,2.21,9.25,9.25,0,0,0-4.06,5.72,1.57,1.57,0,0,1-1.47,1.29h-.37a1.53,1.53,0,0,1-1.29-1.85.68.68,0,0,1,.18-.55,15.55,15.55,0,0,1,1.66-4.06c5.16-9.21,6.82-19.54,9.22-29.86,3-13.28,1.47-26.18-.74-39.27-1.66-9.77-3-19.54-.92-29.31a42.18,42.18,0,0,0,0-13.64c-.37-2.22.18-3.51,2.4-3.88a25.46,25.46,0,0,1,5-1.29,4.44,4.44,0,0,1,2.59.92,1.06,1.06,0,0,0,.73.19,1,1,0,0,0,1.11-.74c0-.18.18-.18.18-.37.93-3.13,3.69-5.9,2.4-9.58a2.69,2.69,0,0,1,.92-3.69c.37-.19.56-.37.92-.37a5,5,0,0,0,3.14-3,12.93,12.93,0,0,1,9.22-7.37,9.62,9.62,0,0,0,6.82-5.9c.73-1.66,1.47-3.14,3.32-3.14h1.47c1.11,0,1.84-1.1,2.58-2a6,6,0,0,1,4.79-2.77,7.52,7.52,0,0,1,3.32.92,6.09,6.09,0,0,0,3.51,1.11,6.55,6.55,0,0,0,4.6-2.58c2-2.4,5.35-3.51,7.38-6.09a1.59,1.59,0,0,1,1.11-.55H240a4.26,4.26,0,0,0,2.58.74c2.58,0,5-2.21,7.56-2.21h0c1.47,0,1.66-1.3,2-2.22.92-2.21,1.84-4.61,4.24-4.61a8.13,8.13,0,0,1,2,.37h.18a2.56,2.56,0,0,0,1.11-.37,16.17,16.17,0,0,1,5.71-1.29,12.41,12.41,0,0,1,8.85,3.69,2,2,0,0,0,1.29.55,2.4,2.4,0,0,0,1.11-.18,8.54,8.54,0,0,1,3.13-.55,5.61,5.61,0,0,1,3.69,1.29,2.71,2.71,0,0,0,1.1.37c1.29,0,2.58-1.3,3.88-1.48a11.53,11.53,0,0,1,2.58-.18,9.35,9.35,0,0,1,3.13.55,23.08,23.08,0,0,0,9.22,2h.37A6.49,6.49,0,0,1,308.53,43c1.66,1.85,2.77,2.77,4.24,2.77a7.53,7.53,0,0,0,3.87-1.85,4.43,4.43,0,0,1,2.58-.92,8,8,0,0,1,2,.37,18.16,18.16,0,0,0,4.43.55,30.77,30.77,0,0,0,4.05-.36c2.4-.56,4.24-1.11,4.79-4.06a3,3,0,0,1,2.59-2.77,1.63,1.63,0,0,1,.92.19,5.3,5.3,0,0,1,4.24,5.9,12.73,12.73,0,0,0,.92,5.9c1.11,3.13,4.42,3.32,6.64,4.24a1.67,1.67,0,0,0,.92.18c1.84,0,4.05-2.21,5.71-3.87,1.29-1.29-.55-3,0-4.79,4.8-.92,9.59-1.85,14.57-2.4h1.1a8.51,8.51,0,0,1,6.64,3.13,10.77,10.77,0,0,0,8.48,3.51A11.64,11.64,0,0,0,393.33,47c4.06-2.77,8.85-2.77,13.46-3.5h.37c1.29,0,2,.92,1.48,2.58a5.62,5.62,0,0,0-.19,5.16,8.49,8.49,0,0,1,6.64-3.14,16.52,16.52,0,0,1,6.08,1.48,5.88,5.88,0,0,0,2.58.55H426A4.92,4.92,0,0,1,431.5,54c1.1,4.43,6.26,4.61,8.29,7.93a3,3,0,0,0,2,.92,4.21,4.21,0,0,0,2.95-1.1,12.58,12.58,0,0,1,5.9-3.32A6,6,0,0,0,454,56.26a2,2,0,0,1,1.84-1.11,3.12,3.12,0,0,1,2.58,1.66C459.15,57.92,459.7,59,461,59a2.4,2.4,0,0,0,1.11-.18h.37a1.67,1.67,0,0,1,1.29.55,4.88,4.88,0,0,0,3.69,2.21,7.87,7.87,0,0,0,4.24-1.84,5.8,5.8,0,0,1,2.76-1.48c3.32-.36,5-1.84,4.43-5.34a2.61,2.61,0,0,1,1.1-2.21,5.07,5.07,0,0,1,1.11-.93c3-1.1.92-5.34,3.32-6.08s5.16-.37,5.53-3.87c.18-.74.92-.92,1.84-.92h2.77a4.33,4.33,0,0,0,4.05-1.85,1,1,0,0,1,.74-.37c.74,0,1.66.74,2.4.74A1.67,1.67,0,0,0,503,36.9c.37-1.11-.56-3.14,1.1-4.24a3.35,3.35,0,0,1,1.66-.74"/><polygon class="c" points="25.66 87.75 21.48 90.28 44.54 311.71 48.37 310.11 25.66 87.75"/><path class="c" d="M157.36,298.24l-18,52.37,41.75-8.9s-7.41-5.18-6.42-13.09,11.12-32.11,11.12-32.11Z"/><path class="d" d="M174.65,328.62c1-7.9,11.12-32.11,11.12-32.11l-20,1.21c-1.59,4.61-10.69,29.77-11.13,36.83a13.24,13.24,0,0,0,5.22,11.68l21.21-4.52S173.66,336.53,174.65,328.62Z"/><polygon class="e" points="25.66 87.75 48.37 310.11 306.28 286.11 283.57 117.74 25.66 87.75"/><polygon class="f" points="34.66 96.75 56.51 300.25 298.14 279.26 278.86 125.88 34.66 96.75"/><polygon class="c" points="44.54 311.71 305.07 287.48 306.28 286.11 48.37 310.11 44.54 311.71"/><path class="c" d="M124.9,372s5.47-5.22,10.82-7.64,27.89-10.95,53.61-13S275.91,348.15,280,348s8.79-.51,9.3-1.91.73-7.62.73-7.62l-18,6.67-1.8-1.73s-19.86-1.91-56.28,1S155.33,353,140.43,357.7,124.9,372,124.9,372Z"/><path class="g" d="M103.26,362l23,7.9s8.65-12.59,50.64-19.26S272,345.17,272,345.17l18-6.67s-68.92-3.95-113.63,2S108.94,355.05,103.26,362Z"/><path class="c" d="M103.26,362s-7.41,9.14-5.44,9.88,24.46,1,26.19.25a4.06,4.06,0,0,0,2.22-2.23Z"/><g class="h"><ellipse class="i" cx="186.52" cy="235.32" rx="21.58" ry="39.42" transform="translate(-111.55 199.03) rotate(-44.66)"/><ellipse class="j" cx="189.62" cy="232.69" rx="19.12" ry="39.38" transform="translate(-108.09 194.37) rotate(-43.49)"/><ellipse class="k" cx="189.62" cy="232.69" rx="15.32" ry="31.55" transform="translate(-108.09 194.37) rotate(-43.49)"/><path class="i" d="M179.13,229c-.67,1.92,1.14,5.47,4.05,7.88,1.8,1.51,3.71,2.28,5.06,2.06l.67-.12.69,1a14.37,14.37,0,0,0,2.43,2.62c2.92,2.41,5.84,2.79,6.51.85l.22-.64,3.05,2.48c.62.5,1.25.59,1.38.2s-.25-1.17-.87-1.68l-3-2.48.92-2.64,3,2.47c.62.52,1.25.6,1.38.21s-.24-1.17-.86-1.69l-3-2.47.71-2c.14-.41-.25-1.17-.87-1.69s-1.25-.59-1.39-.2l-.7,2-14.41-11.91.71-2c.14-.41-.26-1.17-.88-1.69s-1.24-.59-1.38-.2l-.71,2-3-2.48c-.63-.5-1.25-.59-1.4-.2s.25,1.17.87,1.68l3,2.48-.92,2.65-3-2.47c-.62-.52-1.24-.6-1.38-.21s.24,1.17.87,1.69l3,2.47-.71,2ZM198,236.55l-1.67,4.8c-.39,1.12-2.06.9-3.74-.48s-2.72-3.44-2.36-4.54l1.67-4.8Zm-14.41-11.9,6.07,5-2.14,6.17c-.39,1.11-2.07.9-3.74-.49s-2.72-3.43-2.36-4.53Z"/></g><g class="l"><path class="i" d="M325.21,164.23c.58,1.58,1.13,3.2,1.64,4.74a83,83,0,0,1,3.27,14.28,60.84,60.84,0,0,1,.57,15c-.74,6.65-2.14,13.49-5.58,19.66a10.53,10.53,0,0,0-2.4,3.43c-1.26.58-2,1.78-3,2.58-.55-.08-.38.42-.47.69a58.12,58.12,0,0,0-8.15,3.72c-.85-.21-1.58.94-2.76.73,30.22-21.79,2.66-92.7-27.17-101.52-4.14-2.94-12.56-1.07-12.8-2.28,1.88-.67,4.26-2,6.46-2.65l.08-.55.37.05c4.35-.73,9.59-1.27,13.95.56a52.07,52.07,0,0,1,11.62,6.19c7.47,5.63,13.2,13.25,17.87,21.31A95.89,95.89,0,0,1,325.21,164.23Z"/><path class="k" d="M315.29,192c-1.48-19-12.24-47.69-33.41-56-17.44-4.14-24.58,14.61-23,29.89.19,16,10.3,40.87,26.78,51.13,5.06,4.14,12.39,5.08,18.54,3.86.16-.6.41,0,.38.05C313.77,214.49,315.24,202.39,315.29,192Zm-17.77,2.12a6.53,6.53,0,0,1-4.68,3.44c-.84.19-1.28,1.15-2.25,1.09-1.55.07-2.93-1.14-4.17-1.28l-.47,3.16a14.73,14.73,0,0,1-3.22,1.22c-1.38-.26-2.35-1.87-3.41-2.53l.42-2.83c-1.06.3-1.91,1-2.77.72a16.81,16.81,0,0,1-3.07-1.92l1-6.86-6.11-4.79c-.19-1.32.67-2.46.94-3.73.22-.22.46,0,.7,0,.09-.22-.12-.33-.23-.55l2.7-1.36,1.19.18c.53-5.6,2.37-11.26,2-16.71-.77-1.62-2.64-2.64-3.89-3.43l.57-3.81c.24-.23.5,0,.73,0a.22.22,0,0,0,0-.14,1.92,1.92,0,0,0,1.06-.3c.41-.25.68-.68,1.2-.72a2.25,2.25,0,0,1,1.34.66l1.63,1.19a.59.59,0,0,0,.82-.12l.06-.1a1.3,1.3,0,0,0,.25.1c.26-.83,0-2.13.7-2.17l.08-.52a12.36,12.36,0,0,0,2.76-1.34,17.2,17.2,0,0,1,3.14,2.57l-.41,2.79a2.92,2.92,0,0,0,2.14-.78l1.47.22a24.24,24.24,0,0,0,2.86,2.45,46.29,46.29,0,0,0-1.28,6.28c4.7,4.48,7.8,8.76,6,16.11l-2.16,1.38C296.48,186.2,299.21,187.12,297.52,194.13Z"/><path class="m" d="M281.88,136c-18.58-4.2-24.42,16.23-23,29.87.38,19.15,12.62,42.6,26.78,51.13,5.16,4.22,12.31,5,18.55,3.86-2,2.07-5.29,2.07-8,2.46-3.15-.23-7-.4-9.69-2.45-7.87-3.19-13.71-10.33-18.88-16.84.05-.84-.13-1.08-.95-1.28a.91.91,0,0,0-.51-1.19l-.07,0c0-.25-.05-.4-.31-.43a.32.32,0,0,0-.32-.42c.18-.81-.34-1.23-.89-1.65a.31.31,0,0,0-.18-.41.34.34,0,0,0-.14,0c.18-.8-.34-1.23-.88-1.65a.34.34,0,0,0-.32-.43c-5.13-10.67-8.68-22.46-8.91-34.5C254.05,144.39,264.37,128.4,281.88,136Z"/><path class="n" d="M282.73,201.79c-1.17-.17-2.17-1.64-3.42-2.53l1-6.44c-1-.35-1.28-1.49-2.43-1.58l-.88,5.93a17.52,17.52,0,0,1-3.07-1.92l1-6.86-6.1-4.84c-.19-1.32.67-2.46.94-3.73.22-.22.46,0,.7,0,.8.29,2.15,2.34,3.25,1,.62-6.41,2.67-13,2.4-19.47a9.69,9.69,0,0,0-3.89-3.43l.57-3.81c.24-.23.5,0,.73,0,2,1.24,3.66,3,5.79,4.44.58-1.94.08-4.7,1.27-6,.9.74,2,1.14,2.79,2.19l-.91,6.1,2.32,1.58.85-5.74c1.43.32,2.07,1.49,3.12,2.08a57.23,57.23,0,0,1-.63,6.91c4.45,3.33,7.51,9.36,6.1,15.06a5.53,5.53,0,0,1-2,1.94c-.31,0-.6-.23-.93.06,3.3,4.08,4.45,10.15,1.59,14.84-.84.19-1.27,1.15-2.25,1.09-1.39.14-2.64-1.06-4.17-1.28-.3-.9-1.88-1.72-3.12-2C282.79,197.29,283.12,199.7,282.73,201.79Zm5.45-26.48c.51-2.52-1.81-5.5-3.95-6.66-1-.54-.92-2.91-2.66-2.51l-1,6.92c1.27,2.33,3.54,3.35,5.77,4.64.54-.23,1.16-.24,1.59-.78Zm-.13,13.63c1.92-2.27-3.11-8.78-5.47-9.16a3.65,3.65,0,0,0-2.4-1.48l-1.19,8c2.24,2,4.83,4.36,8.26,4.4l.61-.45Z"/><path class="m" d="M292.84,197.57c2.75-4.52,1.85-10.59-1.59-14.84.33-.29.62,0,.93-.06a5.53,5.53,0,0,0,2-1.94c1.34-5.6-1.46-11.64-6.11-15.06a51.75,51.75,0,0,0,.64-6.91c-1.05-.59-1.69-1.76-3.12-2.08l-.86,5.74-2.31-1.58.91-6.1c-.76-1.05-1.9-1.45-2.79-2.19l.09-.6a13.29,13.29,0,0,0,2.76-1.34,17.2,17.2,0,0,1,3.14,2.57l-.41,2.79a2.92,2.92,0,0,0,2.14-.78l1.49.22a24.24,24.24,0,0,0,2.86,2.45,49.56,49.56,0,0,0-1.28,6.28c5.29,4.83,7.69,9.5,6,16.11l-2.16,1.38c2.31,5.66,3.74,7.11,2.38,12.48A6.69,6.69,0,0,1,292.84,197.57Z"/><path class="m" d="M282.73,201.79c.4-2,0-4.22.57-6.36.84.19,2.71.89,3.11,2l-.47,3.16A14.85,14.85,0,0,1,282.73,201.79Z"/><path class="m" d="M277,197.11l.88-5.94c1.15.09,1.47,1.23,2.43,1.58l-.54,3.61C278.93,196.53,278,197.43,277,197.11Z"/><path class="m" d="M274.11,178.1l-.41,2.76c-1,1.13-2-.35-3.26-1,.09-.22-.11-.33-.23-.55l2.71-1.36Z"/><path class="m" d="M288.06,188.9l-.19,1.29-.61.45c-3.12,0-5.92-2.24-8.26-4.39l1.19-8a3.68,3.68,0,0,1,2.4,1.48l-.68,4.55A65.8,65.8,0,0,0,288.06,188.9Z"/><path class="m" d="M288.18,175.31l-.25,1.66c-.41.48-1.08.49-1.59.77-2-1.19-4.49-2.25-5.77-4.64l1-6.92c1.57-.51,1.47,1.7,2.66,2.52l-.44,2.91A25.72,25.72,0,0,0,288.18,175.31Z"/><path class="o" d="M288.06,188.9a65.8,65.8,0,0,1-6.15-4.62l.68-4.55C285.25,180.21,290,187.23,288.06,188.9Z"/><path class="o" d="M288.18,175.31a24.88,24.88,0,0,1-4.38-3.75l.43-2.91C286.19,169.69,288.68,172.53,288.18,175.31Z"/><path class="j" d="M321.18,201.56a82.93,82.93,0,0,0-4.48-29.64,93.6,93.6,0,0,0-14-27.36A56.18,56.18,0,0,0,289,131.41c-7-4.61-17.8-8.46-25.91-4.29a21.1,21.1,0,0,0-6,4.61,33.44,33.44,0,0,0-7.06,13.45c-2.45,8.5-2.14,18.14-.58,26.77.12.65.27,1.29.4,1.91.26,1.48.58,2.94.89,4.39a85.68,85.68,0,0,0,13.09,29.63,79.64,79.64,0,0,0,9.89,11.79l.17.5c.14.46,2.05,1.5,2.48,2a14.18,14.18,0,0,0,2.58,2.25,58.87,58.87,0,0,0,6.69,4.23A25.7,25.7,0,0,0,305,230.84c.87-.68,2.06-.7,2.88-1.47,0-.26.17-.36.43-.31.45.07,2-1.53,2.37-1.84a23.51,23.51,0,0,0,2.19-2.16C318.57,218.69,320.76,209.93,321.18,201.56ZM263,196.51H263l-.08-.07-.34-.63c-.14-.34-.25-.7-.31-.84-5.85-13.44-10.46-28.71-6.88-43.39a28.35,28.35,0,0,1,4.91-10.75c4.47-5.61,11.3-8.33,20.56-4.29l.83.13c18.58,9.09,28.07,29.81,31.81,49.33.9,11.44,1.13,26.45-9.19,33.5-6.21,4.87-14,4.13-21.59-.47a45.27,45.27,0,0,1-7.07-5.74,61.41,61.41,0,0,1-4.25-4.44c-.65-.78-1.28-1.59-1.92-2.38-.29-.36-.72-.77-1.12-1.18l-.77-1.06a.35.35,0,0,0-.06-.14l0,.09A73.88,73.88,0,0,1,263,196.51Z"/><path class="m" d="M275.17,152.36l-2.4,1.79s1.28-.23,3.72,2.19,2.83,2.21,2.83,2.21l.58-3.87s-.28.64-.7.38S275.77,152.4,275.17,152.36Z"/></g><path class="p" d="M505.61,31.18a1.34,1.34,0,0,1,1.1.37,1.92,1.92,0,0,1,1.11,2.4c-.92,3.69,1.66,6.08,3.32,8.66,1.1,1.66,2.21,3.14,1.84,4.8-1.29,5.16,2.58,7.92,5.16,11.24a12.51,12.51,0,0,1,3,6.09c.74,6.26,3.69,9.58,8.12,9.58a15.36,15.36,0,0,0,6.82-2c1.29.36,1.66,1.65,2.39,2.58,1.66,1.66,3.14,3.5,5.35,3.5a4.43,4.43,0,0,0,2.58-.92,10.26,10.26,0,0,1,2.21-.74,2.38,2.38,0,0,1,2.21,1.47,3.58,3.58,0,0,1,1.48-.36c1.66,0,3.32,1.1,5,1.1a3.51,3.51,0,0,0,2.95-1.66,2.27,2.27,0,0,1,3.87.37c1.84,2.58,3.32,3.69,4.79,3.69a7.78,7.78,0,0,0,4.61-2.21h.92c-.18,2.76,2.77,4.79,1.11,7.92-.19.37.37,1.48.74,1.48,2.58.55,4.24,3.32,6.82,3.87,4.24.92,5.53,3.87,6.45,7.19a3.14,3.14,0,0,0,2.58,2.58c3.5.55,6.45,2.58,9.59,4.06,3.68,1.66,4.79,4.42,6.63,7.19,2.4,3.68,4.61,7.37,9.22,9,3,.92,4.43,3.87,5.16,7.19,1.11,5.16,3.14,10.14,8.85,12.17.37.18.93.18.93.55,2.76,7,11.06,4.43,15.48,8.85a5.09,5.09,0,0,0,3.87,1.11H657c.37,5,1.29,9.95.37,14.74a11.26,11.26,0,0,1-6.08,7.75c-2.4,1.29-3.13,2.95-1.84,5.16,2.39,4.42.55,9,1.66,13.46.73,3.32-2.22,4.42-4.25,5.34-2.21.93-3.31,2.58-5.34,4.8,4.79,1.1,9,2,13.27,2.95h.19c.55,0,.92-.74,1.29-.92a9.85,9.85,0,0,1,4.42-1.66A4.62,4.62,0,0,1,664,205.4a5.12,5.12,0,0,0,2.95.92h2.4c2.39,0,4.61.37,5.71,3,1.29,3.32-1.47,4.61-3.5,6.09a17.61,17.61,0,0,1-3.14,1.84c-1.1.55-2,1.29-1.84,2.4.19,3.31-.92,5.53-4.42,5.71-.56,2.4,1.84,2.4,2.21,3.87-3.87,4.06-9.22,3.14-13.83,4.24a1.15,1.15,0,0,1-.74-.18,19.46,19.46,0,0,0-3.13-.74c-1.29,0-1.84.92-3.5,3.5-2.21-2.21-5.9.19-8.11-2.58a.82.82,0,0,0-.93-.18c-.36,0-.55,0-.73.18-2.58,3.14-7.19,3-9.77,5.72,0,1.66,1.29,2.21,1.84,3.32s1.11,1.66.55,2.21c-2.58,3-3.32,6.82-4.61,10.32-.92,2.22-3.31,2.4-5.16,2.58-3,.19-4.42,2.22-6.08,4.24-1.29,1.48-2.58,2.77-4.06,2.77a3.9,3.9,0,0,1-2.76-1.29c-.19-.19-.37-.37-.56-.37h-.55c-2.76,0-11.61,4.42-11.8,6.08a10,10,0,0,1-2.76,5.35c-2,2-4.24,3.69-4.06,6.82,0,.74-.74,1.11-1.29,1.66a4.13,4.13,0,0,0-1.66,5,30.64,30.64,0,0,1-.37,15.3,7.64,7.64,0,0,0,.37,3.5c.55,2.4,1.29,4.61,1.66,7,.92,4.42,0,8.48-4.42,10.88a9.19,9.19,0,0,0-4.06,5.71c-.74,2-.92,4.61-3.32,5.72-.92.36-.55.92-.18,1.84,2,4.79-.74,8.66-3.32,11.8-1.66,1.84-1.66,4.42-3.87,5.9a7.08,7.08,0,0,0,5.71,2.95,9.37,9.37,0,0,0,2.21-.37,9,9,0,0,1,2.22-.37c3.5,0,4.79,2.95,4.24,6.27,3.68.18,4.42,3.68,6.45,5.9-4.61,3.87,2.21,7.37-.37,11.43-.92,0-2,.55-3.13.55a3.6,3.6,0,0,1-2.58-1.11c-1.85,2.22-3.32,4.43-6.27,5.17-2.21-4.06-10-.19-10.7-7.38,1.48-1.84,5.72-2.76,3.32-6.64a1,1,0,0,1,.93-.55h.92c.37,0,.73-.18.73-.55-1.29-4.06-4.42-7-6.63-10.33a52.67,52.67,0,0,0-13.65,5.72,4.22,4.22,0,0,1-2.58.74,6.62,6.62,0,0,1-4.42-1.66c-.37,1.29-1.11,2-2,2a3,3,0,0,1-2-.93c-1.47,7.75-7.56,11.62-12,16.78a5.57,5.57,0,0,1-4.42,1.66,4.53,4.53,0,0,1-4.43-2c-.92-1.84-1.84-2.39-3.13-2.39a8.63,8.63,0,0,0-2.95.73c-1.29.37-2.4,1.29-3.51,1.66a31.26,31.26,0,0,1-3.87,1.11c.19,3.13-2.21,3.5-4.42,3.87-.55,1.84.55,2.58,1.47,3.69s1.85,1.66,1.85,2.58c.18,2.95.37,5.71,4.05,5.71a5.2,5.2,0,0,0,1.66-.18c-3.69,1.29-3.87,6.08-7.74,6.08h-.55c-2.95,0-3.51,4.8-6.46,4.8a5.59,5.59,0,0,1-1.66-.37c-1.29-2.4,2-4.8-.18-7.19a24.64,24.64,0,0,0-17.33,11.8,10.77,10.77,0,0,1-10.32,5.53h-1.48c-3.69-.19-5.16-3.32-7.37-5.53-.56-.56-.92-1.66-1.66-1.66-.19,0-.37,0-.37.18a1.62,1.62,0,0,1-1.29.19c-1.66,0-2-2-3.14-3.32-2.58,1.84-5.89,1.84-8.84,3.87s-6.64,1.84-10.14,2.21h-.93c-1.1,0-1.66-.74-1.66-1.84,0-2.58-1.65-3.69-4.05-3.87-.74,1.65-1.84,2.76-3.32,2.76a3.17,3.17,0,0,1-2.21-.74,1.14,1.14,0,0,0-.74-.18,4,4,0,0,0-3.13,4.05c.18,1.11,1.1,2.4-.56,3.14a1.11,1.11,0,0,1-.73.18c-1.11,0-1.29-1.47-1.85-2.21a5.22,5.22,0,0,0-6.63-2.58c-2.22.74-5-.55-6.64,1.84a8.38,8.38,0,0,0-5.35-3.13c-4.61-.55-7.19-6.82-4.42-10.32a9.74,9.74,0,0,0,1.29-10,28.36,28.36,0,0,1-2.58-9.59,5.27,5.27,0,0,0-3.32-4.42,7.12,7.12,0,0,1-4.06-4.24c-2.58-4.61-5.71-8.11-11.43-8.11h-.18a5,5,0,0,1-4.79-3.32c-1.11-2.58-5.17-1.66-5.72-5.16a16.7,16.7,0,0,1-5.16,1.47,3.94,3.94,0,0,1-3.5-2c1.29-2.39.36-4.42-2.4-5.53-.55-.37-1.48-.73-1.66-1.29-1.47-7.19-8.3-4.24-12.35-6.27a.69.69,0,0,0-.55-.18c-1.11,0-1.66,1.66-2,2.77s-1.11,2.76-2.77,2.76h-.74c-1.65-.18-2.21-1.84-2.58-3.13-1.1-3.51-1.47-7-5-9.41-.74-.55-.74-1.65-.74-2.58-.37-2.76.18-5.71-1.48-8.48a2.62,2.62,0,0,1,0-1.66c1.66-2.21,2.58-4.42.93-7.19-.93-1.47,1.47-2.21,2-3.31a12.45,12.45,0,0,0,1.48-11.07,9.31,9.31,0,0,1,5.53-10.5c1.29-.37.74-1.85,1.47-2.22a16.94,16.94,0,0,1,2.95-.73,11.56,11.56,0,0,1,1.85-4.06c2.39-2.95,0-6.08-1.29-9a4.89,4.89,0,0,1-.74-3.32c.74-3.14-.19-4.61-2.77-4.61a3.66,3.66,0,0,0-1.47.18,28.21,28.21,0,0,1-4.79-5.71,14.46,14.46,0,0,0-5.9-6.08l-1.85,2.94c-.92-5-5.71-7.74-5.34-12.9.18-2-.93-2.77-2.22-2.77a5.26,5.26,0,0,0-2.21.74,11.22,11.22,0,0,1-7.56,2.77,29.24,29.24,0,0,1-8.85-1.85,14.25,14.25,0,0,0-5.53-.73c-3.87,0-7.56.92-11.24.92a3,3,0,0,0-2.4,2,3.57,3.57,0,0,1-3.13,2.58,2.29,2.29,0,0,1-1.11-.19c-2.21-.55-4.42-1.47-4.61-4.24,0-.73-.18-1.47-.18-2.21,0-1.84-.74-2.58-1.85-2.58a3.39,3.39,0,0,0-1.47.37A10.09,10.09,0,0,1,249,243c-3.5,0-6.45-2-9.58-4.06-.56-.36-1.11-1.29-1.66-1.47-6.27-.37-9.41-5.53-13.83-8.67-2.4-1.66-5-3.68-8.11-3.68a7.3,7.3,0,0,0-3.87,1.1,1.36,1.36,0,0,1-.92.19c-2,0-5-3.14-6.09-6.27a29,29,0,0,0-5.71-9c-3.32,1.47-5.17,5-8.85,5.53-1.11-1.29-2-3.14-.56-4.24,2.77-2,1.11-4.24.19-5.72a11.46,11.46,0,0,1-2.4-6.27c-1.29.56-2.21,1.85-3.32,1.85a2,2,0,0,1-1.1-.37c2.58-6.27,5.34-12.91,3.32-20.1a154.75,154.75,0,0,0-4.8-14.93c-.92-2.58-1.29-5.53-3.13-7.74a1.18,1.18,0,0,0-1.11,1.66c.19,6.45-.92,12.9-1.47,19.35a29.94,29.94,0,0,1-1.11,5.53,4.8,4.8,0,0,0,.92,5.54c-1.66,4-4.61,7.55-4.79,12a2.11,2.11,0,0,1-.92,2.21,9.25,9.25,0,0,0-4.06,5.72,1.57,1.57,0,0,1-1.47,1.29h-.37a1.53,1.53,0,0,1-1.29-1.85.68.68,0,0,1,.18-.55,15.55,15.55,0,0,1,1.66-4.06c5.16-9.21,6.82-19.54,9.22-29.86,3-13.28,1.47-26.18-.74-39.27-1.66-9.77-3-19.54-.92-29.31a42.18,42.18,0,0,0,0-13.64c-.37-2.22.18-3.51,2.4-3.88a25.46,25.46,0,0,1,5-1.29,4.44,4.44,0,0,1,2.59.92,1.06,1.06,0,0,0,.73.19,1,1,0,0,0,1.11-.74c0-.18.18-.18.18-.37.93-3.13,3.69-5.9,2.4-9.58a2.69,2.69,0,0,1,.92-3.69c.37-.19.56-.37.92-.37a5,5,0,0,0,3.14-3,12.93,12.93,0,0,1,9.22-7.37,9.62,9.62,0,0,0,6.82-5.9c.73-1.66,1.47-3.14,3.32-3.14h1.47c1.11,0,1.84-1.1,2.58-2a6,6,0,0,1,4.79-2.77,7.52,7.52,0,0,1,3.32.92,6.09,6.09,0,0,0,3.51,1.11,6.55,6.55,0,0,0,4.6-2.58c2-2.4,5.35-3.51,7.38-6.09a1.59,1.59,0,0,1,1.11-.55H240a4.26,4.26,0,0,0,2.58.74c2.58,0,5-2.21,7.56-2.21h0c1.47,0,1.66-1.3,2-2.22.92-2.21,1.84-4.61,4.24-4.61a8.13,8.13,0,0,1,2,.37h.18a2.56,2.56,0,0,0,1.11-.37,16.17,16.17,0,0,1,5.71-1.29,12.41,12.41,0,0,1,8.85,3.69,2,2,0,0,0,1.29.55,2.4,2.4,0,0,0,1.11-.18,8.54,8.54,0,0,1,3.13-.55,5.61,5.61,0,0,1,3.69,1.29,2.71,2.71,0,0,0,1.1.37c1.29,0,2.58-1.3,3.88-1.48a11.53,11.53,0,0,1,2.58-.18,9.35,9.35,0,0,1,3.13.55,23.08,23.08,0,0,0,9.22,2h.37A6.49,6.49,0,0,1,308.53,43c1.66,1.85,2.77,2.77,4.24,2.77a7.53,7.53,0,0,0,3.87-1.85,4.43,4.43,0,0,1,2.58-.92,8,8,0,0,1,2,.37,18.16,18.16,0,0,0,4.43.55,30.77,30.77,0,0,0,4.05-.36c2.4-.56,4.24-1.11,4.79-4.06a3,3,0,0,1,2.59-2.77,1.63,1.63,0,0,1,.92.19,5.3,5.3,0,0,1,4.24,5.9,12.73,12.73,0,0,0,.92,5.9c1.11,3.13,4.42,3.32,6.64,4.24a1.67,1.67,0,0,0,.92.18c1.84,0,4.05-2.21,5.71-3.87,1.29-1.29-.55-3,0-4.79,4.8-.92,9.59-1.85,14.57-2.4h1.1a8.51,8.51,0,0,1,6.64,3.13,10.77,10.77,0,0,0,8.48,3.51A11.64,11.64,0,0,0,393.33,47c4.06-2.77,8.85-2.77,13.46-3.5h.37c1.29,0,2,.92,1.48,2.58a5.62,5.62,0,0,0-.19,5.16,8.49,8.49,0,0,1,6.64-3.14,16.52,16.52,0,0,1,6.08,1.48,5.88,5.88,0,0,0,2.58.55H426A4.92,4.92,0,0,1,431.5,54c1.1,4.43,6.26,4.61,8.29,7.93a3,3,0,0,0,2,.92,4.21,4.21,0,0,0,2.95-1.1,12.58,12.58,0,0,1,5.9-3.32A6,6,0,0,0,454,56.26a2,2,0,0,1,1.84-1.11,3.12,3.12,0,0,1,2.58,1.66C459.15,57.92,459.7,59,461,59a2.4,2.4,0,0,0,1.11-.18h.37a1.67,1.67,0,0,1,1.29.55,4.88,4.88,0,0,0,3.69,2.21,7.87,7.87,0,0,0,4.24-1.84,5.8,5.8,0,0,1,2.76-1.48c3.32-.36,5-1.84,4.43-5.34a2.61,2.61,0,0,1,1.1-2.21,5.07,5.07,0,0,1,1.11-.93c3-1.1.92-5.34,3.32-6.08s5.16-.37,5.53-3.87c.18-.74.92-.92,1.84-.92h2.77a4.33,4.33,0,0,0,4.05-1.85,1,1,0,0,1,.74-.37c.74,0,1.66.74,2.4.74A1.67,1.67,0,0,0,503,36.9c.37-1.11-.56-3.14,1.1-4.24a3.35,3.35,0,0,1,1.66-.74"/><ellipse class="i" cx="395.36" cy="101.93" rx="65.29" ry="62.92" transform="translate(162.94 437.61) rotate(-69.76)"/><circle class="j" cx="391.16" cy="98.13" r="63.18"/><circle class="k" cx="391.16" cy="98.13" r="50.62"/><path class="i" d="M388.94,121.08a11.25,11.25,0,0,0,17.47-12.77l-.67-1.84,1.78-.74a11.19,11.19,0,0,0,2.56-19.27l-1.61-1.24,4-5.12a2.41,2.41,0,0,0-3.82-2.94l-4,5.11L398,77.08l4-5.11a2.41,2.41,0,0,0-3.81-3l-4,5.11-5.12-4A2.41,2.41,0,0,0,386.08,74l5.11,4-18.81,24.25-5.11-4a2.41,2.41,0,0,0-2.95,3.81l5.11,4-4,5.11a2.41,2.41,0,1,0,3.8,3l4-5.12,6.71,5.19L376,119.25a2.41,2.41,0,0,0,3.81,3l3.95-5.11,5.12,4ZM395,80.9l12.13,9.4a6.47,6.47,0,0,1-7.81,10.31l-.11-.09L387.1,91.13Zm-18.8,24.24,7.91-10.23L399.78,107A6.47,6.47,0,0,1,392,117.34l-.12-.09Z"/><path class="d" d="M183.2,385.05s45.26,11.87,49.4,11.59,188.77-39.46,190.15-40.29,3.59-5.24,3.59-5.24l-6.63-2.49S359,336.76,356,337.31s-199.54,30.91-201.47,32.84-4.69,3.86-3.86,4.69S183.2,385.05,183.2,385.05Z"/><polyline class="q" points="162.22 373.19 227.02 388.35 419.11 349.4"/><polyline class="q" points="230.54 389.99 233.35 391.87 423.61 352.22"/><polyline class="q" points="173.91 373.33 176.29 371.16 224.46 382.88 224.67 386.35"/><polyline class="q" points="224.46 382.88 233.1 381.59 235.79 384.89"/><polyline class="q" points="236.61 384.38 237.44 381.49 244.77 379.73 247.24 382.52 248.28 379.42 265.82 375.92 268.4 379.01"/><polyline class="q" points="271.09 377.77 272.43 374.99 278.83 373.33 281.51 376.22"/><polyline class="q" points="282.54 375.81 283.37 372.61 288.43 371.58 291.11 373.54 292.66 370.75 298.34 369.82 300.3 371.48"/><polyline class="q" points="176.29 371.16 184.07 370.03 186.45 370.86 187.38 368.9 189.44 368.69 193.06 368.69 195.74 368.07 197.91 366.73 203.38 366.73 207.81 366.63 208.74 365.49 215.25 364.56 219.58 365.28 221.75 362.6 228.25 362.29 230.52 362.39 232.07 361.26 248.9 358.68 252.3 359.09 254.06 357.13 269.33 355.27 275.42 356.2 276.66 357.75"/><line class="q" x1="264.69" y1="360.64" x2="275.11" y2="358.47"/><polyline class="q" points="277.59 358.37 291.73 362.01 281.92 364.35 267.89 361.46"/><line class="q" x1="281.92" y1="364.35" x2="281.92" y2="369.41"/><polyline class="q" points="298.34 369.82 289.36 367.76 283.78 368.38 283.06 370.03"/><polyline class="q" points="288.43 371.58 278.42 369.41 274.9 370.86 274.39 371.68"/><line class="q" x1="283.37" y1="372.61" x2="277.8" y2="371.37"/><line class="q" x1="292.66" y1="370.75" x2="285.95" y2="369.52"/><polyline class="q" points="272.43 374.99 263.86 372.1 270.88 371.06 278 372.61"/><polygon class="q" points="263.14 367.76 269.85 369.82 276.76 368.28 270.36 366.21 263.14 367.76"/><polyline class="q" points="263.14 367.76 260.76 370.34 263.65 371.37"/><line class="q" x1="276.76" y1="368.28" x2="278.41" y2="369.41"/><line class="q" x1="265.82" y1="375.91" x2="222.68" y2="366.01"/><line class="q" x1="188.62" y1="371.48" x2="231.24" y2="381.28"/><line class="q" x1="189.96" y1="369.93" x2="236.1" y2="380.77"/><line class="q" x1="196.67" y1="369" x2="243.11" y2="379.11"/><polyline class="q" points="207.61 367.35 244.66 375.61 253.13 373.95"/><polyline class="q" points="284.63 368.37 286.4 364.59 308.16 360.26 314.75 361.86 401.17 346.29 409.38 347.7 412.31 350.44"/><polyline class="q" points="409.38 347.7 324.11 364.98 325.05 367.72"/><polyline class="q" points="328.55 359.51 336.48 362.06 338.65 364.32"/><polyline class="q" points="340.07 357.24 349.13 359.98 350.83 361.96"/><polyline class="q" points="386.06 349.21 393.7 351.01 395.5 352.52"/><polyline class="q" points="395.97 347.51 402.3 349.4 403.53 351.01"/><polyline class="q" points="295.31 368.29 297.19 366.21 305.32 368.57 320.8 365.64 312.97 363.1"/><line class="q" x1="320.8" y1="365.65" x2="322.03" y2="368.29"/><line class="q" x1="324.11" y1="364.98" x2="317.59" y2="362.81"/><line class="q" x1="297.2" y1="366.21" x2="310.89" y2="363.57"/><line class="q" x1="287.09" y1="365.08" x2="292.1" y2="366.59"/><polyline class="q" points="206.38 370.83 207.59 369.23 211.6 368.33"/><polyline class="q" points="216.21 373.34 217.21 371.74 220.82 370.63"/><polyline class="q" points="227.44 375.05 228.45 374.04 233.06 373.24"/><line class="q" x1="212.9" y1="379.66" x2="216.91" y2="378.45"/><line class="q" x1="205.08" y1="377.65" x2="207.79" y2="376.65"/><line class="q" x1="185.42" y1="372.64" x2="190.14" y2="372.24"/><line class="q" x1="192.74" y1="374.44" x2="197.66" y2="373.84"/><polyline class="q" points="231.56 368.02 233.86 366.02 239.28 367.42 239.28 368.63"/><polyline class="q" points="240.08 367.52 245.9 366.22 248 367.72 249.31 365.12 255.42 363.81 257.83 366.12 259.23 363.51 265.45 362.51 267.86 364.71"/><polyline class="q" points="235.97 365.32 259.03 360.9 263.35 361.81"/><line class="q" x1="245.9" y1="366.22" x2="241.58" y2="364.51"/><line class="q" x1="249.31" y1="365.12" x2="245.29" y2="364.01"/><line class="q" x1="259.23" y1="363.51" x2="253.92" y2="362.41"/><line class="q" x1="230.52" y1="362.39" x2="239.08" y2="364.62"/><line class="q" x1="232.76" y1="361.51" x2="242.49" y2="364.11"/><line class="q" x1="240.38" y1="360.5" x2="248.7" y2="363.01"/><polyline class="q" points="243.49 359.8 251.51 362.71 255.42 363.81"/><line class="q" x1="253.22" y1="359.5" x2="257.03" y2="360.6"/><polyline class="q" points="254.06 357.13 262.44 358.9 263.05 361"/><line class="q" x1="271.57" y1="354.49" x2="363.23" y2="339.54"/><line class="q" x1="279.63" y1="357.24" x2="373.02" y2="341.45"/><line class="q" x1="286.78" y1="359.77" x2="383.15" y2="342.94"/><line class="q" x1="310.61" y1="359.48" x2="393.13" y2="344.73"/><line class="q" x1="349.76" y1="341.61" x2="387.36" y2="348.47"/><line class="q" x1="359.01" y1="340.32" x2="392.83" y2="347.18"/><line class="q" x1="373.33" y1="351.36" x2="344.29" y2="343.1"/><line class="q" x1="363.89" y1="353.15" x2="337.53" y2="344.89"/><line class="q" x1="349.26" y1="355.93" x2="323.9" y2="346.58"/><line class="q" x1="341.21" y1="357.42" x2="316.54" y2="347.98"/><line class="q" x1="332.06" y1="359.12" x2="308.09" y2="349.27"/><line class="q" x1="321.91" y1="360.71" x2="299.14" y2="350.56"/><line class="q" x1="308.78" y1="360.81" x2="289.89" y2="352.05"/><line class="q" x1="299.93" y1="361.9" x2="281.33" y2="353.35"/><line class="q" x1="210.82" y1="363.39" x2="213.01" y2="360.91"/><line class="q" x1="220.66" y1="359.61" x2="224.94" y2="361.2"/><line class="q" x1="229.81" y1="358.32" x2="234.39" y2="359.81"/><line class="q" x1="240.75" y1="356.23" x2="246.52" y2="358.22"/><line class="q" x1="251.5" y1="354.44" x2="257.76" y2="355.93"/><line class="q" x1="260.25" y1="352.95" x2="266.61" y2="354.94"/><line class="q" x1="269.8" y1="351.36" x2="274.77" y2="352.85"/><line class="q" x1="291.68" y1="347.98" x2="295.85" y2="349.27"/><line class="q" x1="300.43" y1="346.48" x2="305.2" y2="347.68"/><line class="q" x1="308.19" y1="345.09" x2="312.96" y2="345.99"/><line class="q" x1="319.03" y1="343.6" x2="324.1" y2="345.09"/><line class="q" x1="328.78" y1="342.11" x2="334.54" y2="343.3"/><line class="q" x1="336.04" y1="340.72" x2="341.81" y2="342.11"/><line class="q" x1="344.19" y1="339.52" x2="349.07" y2="340.81"/><path class="r" d="M188.44,389.47s-9.94-13-26.22-16.28-25.11,2.48-33.12,6.89-15.73,8-14.9,11.32a12,12,0,0,0,6.07,7.45c2.48,1.11,26.49,9.66,37.81,10.77s24.84-1.94,29-6.08S188.44,389.47,188.44,389.47Z"/><path class="s" d="M185.94,386.67c-3.91-4-12.23-11.15-23.72-13.48-16.28-3.32-25.11,2.48-33.12,6.89-1.52.84-3,1.65-4.48,2.44,1.71-.4,13.48-3,19.11.05,6.07,3.31,17.11,8,29,8C179.45,390.57,183.6,388.61,185.94,386.67Z"/><path class="t" d="M189.22,398.38A31.61,31.61,0,0,1,171.33,403c-15.73-.55-22.08-10.76-32-16.28s-25.11,4.69-25.11,4.69a12,12,0,0,0,6.07,7.45c2.48,1.11,26.49,9.66,37.81,10.77s24.84-1.94,29-6.08A8.63,8.63,0,0,0,189.22,398.38Z"/></svg>