<svg xmlns="http://www.w3.org/2000/svg" viewBox="0 0 685.1 451.4"><defs><style>.a{fill:#bfae95;}.b{fill:#a3a3a3;}.c{fill:#707070;}.d{fill:#1a2e35;stroke:#1a2e35;}.d,.j{stroke-linecap:round;stroke-linejoin:round;}.e{fill:#c2c8de;}.f{fill:#edeef0;}.g{fill:#342d59;}.h{fill:#000ceb;}.i{fill:#d9d5e3;}.j{fill:none;stroke:#b8b8b8;}.k{opacity:0.3;}.l{fill:#fff;}.m{opacity:0.55;}.n{opacity:0.57;}.o{fill:#c98017;}.p{fill:#fbed60;}.q{fill:#faba31;}.r{opacity:0.47;}.s{fill:#f9e799;}.t{fill:#c27402;}.u{fill:#fcd822;}</style></defs><rect class="a" width="685.1" height="451.4"/><path class="b" d="M188.44,389.47s-9.94-13-26.22-16.28-25.11,2.48-33.12,6.89-15.73,8-14.9,11.32a12,12,0,0,0,6.07,7.45c2.48,1.11,26.49,9.66,37.81,10.77s24.84-1.94,29-6.08S188.44,389.47,188.44,389.47Z"/><path class="c" d="M185.94,386.67c-3.91-4-12.23-11.15-23.72-13.48-16.28-3.32-25.11,2.48-33.12,6.89-1.52.84-3,1.65-4.48,2.44,1.71-.4,13.48-3,19.11.05,6.07,3.31,17.11,8,29,8C179.45,390.57,183.6,388.61,185.94,386.67Z"/><path class="d" d="M189.22,398.38A31.61,31.61,0,0,1,171.33,403c-15.73-.55-22.08-10.76-32-16.28s-25.11,4.69-25.11,4.69a12,12,0,0,0,6.07,7.45c2.48,1.11,26.49,9.66,37.81,10.77s24.84-1.94,29-6.08A8.63,8.63,0,0,0,189.22,398.38Z"/><polygon class="e" points="25.66 87.75 21.48 90.28 44.54 311.71 48.37 310.11 25.66 87.75"/><path class="e" d="M157.36,298.24l-18,52.37,41.75-8.9s-7.41-5.18-6.42-13.09,11.12-32.11,11.12-32.11Z"/><path class="f" d="M174.65,328.62c1-7.9,11.12-32.11,11.12-32.11l-20,1.21c-1.59,4.61-10.69,29.77-11.13,36.83a13.24,13.24,0,0,0,5.22,11.68l21.21-4.52S173.66,336.53,174.65,328.62Z"/><polygon class="g" points="25.66 87.75 48.37 310.11 306.28 286.11 283.57 117.74 25.66 87.75"/><polygon class="h" points="34.66 96.75 56.51 300.25 298.14 279.26 278.86 125.88 34.66 96.75"/><polygon class="e" points="44.54 311.71 305.07 287.48 306.28 286.11 48.37 310.11 44.54 311.71"/><path class="e" d="M124.9,372s5.47-5.22,10.82-7.64,27.89-10.95,53.61-13S275.91,348.15,280,348s8.79-.51,9.3-1.91.73-7.62.73-7.62l-18,6.67-1.8-1.73s-19.86-1.91-56.28,1S155.33,353,140.43,357.7,124.9,372,124.9,372Z"/><path class="i" d="M103.26,362l23,7.9s8.65-12.59,50.64-19.26S272,345.17,272,345.17l18-6.67s-68.92-3.95-113.63,2S108.94,355.05,103.26,362Z"/><path class="e" d="M103.26,362s-7.41,9.14-5.44,9.88,24.46,1,26.19.25a4.06,4.06,0,0,0,2.22-2.23Z"/><path class="f" d="M183.2,385.05s45.26,11.87,49.4,11.59,188.77-39.46,190.15-40.29,3.59-5.24,3.59-5.24l-6.63-2.49S359,336.76,356,337.31s-199.54,30.91-201.47,32.84-4.69,3.86-3.86,4.69S183.2,385.05,183.2,385.05Z"/><polyline class="j" points="162.22 373.19 227.02 388.35 419.11 349.4"/><polyline class="j" points="230.54 389.99 233.35 391.87 423.61 352.22"/><polyline class="j" points="173.91 373.33 176.29 371.16 224.46 382.88 224.67 386.35"/><polyline class="j" points="224.46 382.88 233.1 381.59 235.79 384.89"/><polyline class="j" points="236.61 384.38 237.44 381.49 244.77 379.73 247.24 382.52 248.28 379.42 265.82 375.92 268.4 379.01"/><polyline class="j" points="271.09 377.77 272.43 374.99 278.83 373.33 281.51 376.22"/><polyline class="j" points="282.54 375.81 283.37 372.61 288.43 371.58 291.11 373.54 292.66 370.75 298.34 369.82 300.3 371.48"/><polyline class="j" points="176.29 371.16 184.07 370.03 186.45 370.86 187.38 368.9 189.44 368.69 193.06 368.69 195.74 368.07 197.91 366.73 203.38 366.73 207.81 366.63 208.74 365.49 215.25 364.56 219.58 365.28 221.75 362.6 228.25 362.29 230.52 362.39 232.07 361.26 248.9 358.68 252.3 359.09 254.06 357.13 269.33 355.27 275.42 356.2 276.66 357.75"/><line class="j" x1="264.69" y1="360.64" x2="275.11" y2="358.47"/><polyline class="j" points="277.59 358.37 291.73 362.01 281.92 364.35 267.89 361.46"/><line class="j" x1="281.92" y1="364.35" x2="281.92" y2="369.41"/><polyline class="j" points="298.34 369.82 289.36 367.76 283.78 368.38 283.06 370.03"/><polyline class="j" points="288.43 371.58 278.42 369.41 274.9 370.86 274.39 371.68"/><line class="j" x1="283.37" y1="372.61" x2="277.8" y2="371.37"/><line class="j" x1="292.66" y1="370.75" x2="285.95" y2="369.52"/><polyline class="j" points="272.43 374.99 263.86 372.1 270.88 371.06 278 372.61"/><polygon class="j" points="263.14 367.76 269.85 369.82 276.76 368.28 270.36 366.21 263.14 367.76"/><polyline class="j" points="263.14 367.76 260.76 370.34 263.65 371.37"/><line class="j" x1="276.76" y1="368.28" x2="278.41" y2="369.41"/><line class="j" x1="265.82" y1="375.91" x2="222.68" y2="366.01"/><line class="j" x1="188.62" y1="371.48" x2="231.24" y2="381.28"/><line class="j" x1="189.96" y1="369.93" x2="236.1" y2="380.77"/><line class="j" x1="196.67" y1="369" x2="243.11" y2="379.11"/><polyline class="j" points="207.61 367.35 244.66 375.61 253.13 373.95"/><polyline class="j" points="284.63 368.37 286.4 364.59 308.16 360.26 314.75 361.86 401.17 346.29 409.38 347.7 412.31 350.44"/><polyline class="j" points="409.38 347.7 324.11 364.98 325.05 367.72"/><polyline class="j" points="328.55 359.51 336.48 362.06 338.65 364.32"/><polyline class="j" points="340.07 357.24 349.13 359.98 350.83 361.96"/><polyline class="j" points="386.06 349.21 393.7 351.01 395.5 352.52"/><polyline class="j" points="395.97 347.51 402.3 349.4 403.53 351.01"/><polyline class="j" points="295.31 368.29 297.19 366.21 305.32 368.57 320.8 365.64 312.97 363.1"/><line class="j" x1="320.8" y1="365.65" x2="322.03" y2="368.29"/><line class="j" x1="324.11" y1="364.98" x2="317.59" y2="362.81"/><line class="j" x1="297.2" y1="366.21" x2="310.89" y2="363.57"/><line class="j" x1="287.09" y1="365.08" x2="292.1" y2="366.59"/><polyline class="j" points="206.38 370.83 207.59 369.23 211.6 368.33"/><polyline class="j" points="216.21 373.34 217.21 371.74 220.82 370.63"/><polyline class="j" points="227.44 375.05 228.45 374.04 233.06 373.24"/><line class="j" x1="212.9" y1="379.66" x2="216.91" y2="378.45"/><line class="j" x1="205.08" y1="377.65" x2="207.79" y2="376.65"/><line class="j" x1="185.42" y1="372.64" x2="190.14" y2="372.24"/><line class="j" x1="192.74" y1="374.44" x2="197.66" y2="373.84"/><polyline class="j" points="231.56 368.02 233.86 366.02 239.28 367.42 239.28 368.63"/><polyline class="j" points="240.08 367.52 245.9 366.22 248 367.72 249.31 365.12 255.42 363.81 257.83 366.12 259.23 363.51 265.45 362.51 267.86 364.71"/><polyline class="j" points="235.97 365.32 259.03 360.9 263.35 361.81"/><line class="j" x1="245.9" y1="366.22" x2="241.58" y2="364.51"/><line class="j" x1="249.31" y1="365.12" x2="245.29" y2="364.01"/><line class="j" x1="259.23" y1="363.51" x2="253.92" y2="362.41"/><line class="j" x1="230.52" y1="362.39" x2="239.08" y2="364.62"/><line class="j" x1="232.76" y1="361.51" x2="242.49" y2="364.11"/><line class="j" x1="240.38" y1="360.5" x2="248.7" y2="363.01"/><polyline class="j" points="243.49 359.8 251.51 362.71 255.42 363.81"/><line class="j" x1="253.22" y1="359.5" x2="257.03" y2="360.6"/><polyline class="j" points="254.06 357.13 262.44 358.9 263.05 361"/><line class="j" x1="271.57" y1="354.49" x2="363.23" y2="339.54"/><line class="j" x1="279.63" y1="357.24" x2="373.02" y2="341.45"/><line class="j" x1="286.78" y1="359.77" x2="383.15" y2="342.94"/><line class="j" x1="310.61" y1="359.48" x2="393.13" y2="344.73"/><line class="j" x1="349.76" y1="341.61" x2="387.36" y2="348.47"/><line class="j" x1="359.01" y1="340.32" x2="392.83" y2="347.18"/><line class="j" x1="373.33" y1="351.36" x2="344.29" y2="343.1"/><line class="j" x1="363.89" y1="353.15" x2="337.53" y2="344.89"/><line class="j" x1="349.26" y1="355.93" x2="323.9" y2="346.58"/><line class="j" x1="341.21" y1="357.42" x2="316.54" y2="347.98"/><line class="j" x1="332.06" y1="359.12" x2="308.09" y2="349.27"/><line class="j" x1="321.91" y1="360.71" x2="299.14" y2="350.56"/><line class="j" x1="308.78" y1="360.81" x2="289.89" y2="352.05"/><line class="j" x1="299.93" y1="361.9" x2="281.33" y2="353.35"/><line class="j" x1="210.82" y1="363.39" x2="213.01" y2="360.91"/><line class="j" x1="220.66" y1="359.61" x2="224.94" y2="361.2"/><line class="j" x1="229.81" y1="358.32" x2="234.39" y2="359.81"/><line class="j" x1="240.75" y1="356.23" x2="246.52" y2="358.22"/><line class="j" x1="251.5" y1="354.44" x2="257.76" y2="355.93"/><line class="j" x1="260.25" y1="352.95" x2="266.61" y2="354.94"/><line class="j" x1="269.8" y1="351.36" x2="274.77" y2="352.85"/><line class="j" x1="291.68" y1="347.98" x2="295.85" y2="349.27"/><line class="j" x1="300.43" y1="346.48" x2="305.2" y2="347.68"/><line class="j" x1="308.19" y1="345.09" x2="312.96" y2="345.99"/><line class="j" x1="319.03" y1="343.6" x2="324.1" y2="345.09"/><line class="j" x1="328.78" y1="342.11" x2="334.54" y2="343.3"/><line class="j" x1="336.04" y1="340.72" x2="341.81" y2="342.11"/><line class="j" x1="344.19" y1="339.52" x2="349.07" y2="340.81"/><g class="k"><path class="l" d="M465.38,223.41a33,33,0,0,0-4.2-3.06,2.6,2.6,0,0,1-1.34-2.49c-.19-2.29-.57-4.58-.76-7.07-2.3.57-4.4,1-6.5,1.34-.58.19-.58.57-.58,1-.38,2.3-.95,4.59-1.33,7.27H443.4c-.38,0-.57-.19-.76-.58-4.4-5.54-8.6-11.08-13-16.62a.6.6,0,0,0-.19-.39c4.59-1.33,9.36-2.86,14.14-4.2-.95-1.91-1.72-3.63-2.67-5.35a41.84,41.84,0,0,1,6.88.38,1.69,1.69,0,0,0,1.91-1.15c1.53-2.86,3.06-5.54,4.59-8.22a7,7,0,0,1,1.33-1.91,8.69,8.69,0,0,1,2.3,1.15c1.53.95,3.25.95,5,1.34.57.19.76-.39,1-.77,1-1.72,1.72-3.25,2.68-5,1.72.58,3.25,1,4.78,1.53a1.49,1.49,0,0,0,1.91-.38c1.72-1.53,5.92-1.91,7.84-.76,2.1,1.33,4.39,2.67,6.49,4,.77.38,1,.76.77,1.53s-.19,1.53-.38,2.29c-.77,2.49-.19,5,.19,7.65a1.85,1.85,0,0,0,1.34,1.53l1.14.57c2.3.57,2.68,2.1,2.68,4,0,.77-.38,1-.77,1.34-2.29,1.91-4.39,3.82-6.69,5.93,3.25,2.48,6.69.57,10.33.38-.39,4.78-.58,9.56-1,14.53-2.87.19-5.73.57-8.6.57a2.71,2.71,0,0,0-2.87,1.72c-.57,1.53-1.53,2.67-2.1,4.2a1.89,1.89,0,0,1-1.53,1.15,5.24,5.24,0,0,1-5.16-1.34c-1.15-1-2.29-1.72-3.63-2.67a17.08,17.08,0,0,1-1.91,3.05c-2.11-.57-4-1.14-6.12-1.72C464,226.46,464.62,224.94,465.38,223.41Z"/><path class="l" d="M550.44,36.48l3.44,2.29a13.77,13.77,0,0,1,5,9.37,1.4,1.4,0,0,0,.38,1.14,13.32,13.32,0,0,0,2.87-3.63,1.9,1.9,0,0,1,1.53-1.15,59.78,59.78,0,0,1,11.66-.19A75.9,75.9,0,0,1,590,46c4,1,4.21,1.15,2.49,5a23.14,23.14,0,0,1-8.6,10.13c-7.08,4.59-13.77,9.56-20.65,14.34-.57.38-1.53.76-1.14,1.72.38.76,1.14.76,1.91.76a10.64,10.64,0,0,1,3.44.38c.95.2,1.34.77.57,1.72a32,32,0,0,1-3.63,3.64c-1.15,1-2.48.76-3.82,0-1.91-1.15-2.87-1-4.59.38a6.51,6.51,0,0,0-2.1,3.44c-.38,1.34,0,1.91,1.34,2.1a19.34,19.34,0,0,0,5.73-.19,8.66,8.66,0,0,1,3.82.19,3,3,0,0,0,2.49-.38,21.1,21.1,0,0,0,6.31-3.63,3.51,3.51,0,0,1,3.63-.38c1.72.76,3.25,1.72,4.78,2.48a9,9,0,0,0,4.58,1,67.73,67.73,0,0,1,13.76,1.91A33.74,33.74,0,0,1,611.6,95c1.34,1,2.68,1.91,2.68,4a4.37,4.37,0,0,1-2.87,4.2c-2.1,1-4.2,2.49-4.4,5-.38,7.26-4.77,12.23-9,17.39a204.18,204.18,0,0,1-15.48,16.06,28,28,0,0,0-3.06,3.44,5.45,5.45,0,0,1,4.4,3.63,11.45,11.45,0,0,1,1,5.74c-.19,1.91-1.14,2.48-3.06,1.91A36.27,36.27,0,0,1,577,154c-2.11-1.14-2.68-1-3.44,1.34s-1,2.3-3.25,1.91a35.07,35.07,0,0,0-6.31-.19c-1.91.19-2.87,1-2.87,2.1,0,1.53,1.15,2.68,3.06,2.87,3.06.38,5.92-.38,8.79-1,3.25-.58,6.69-.77,10.13-1.15,2.68-.38,4.59,1.15,5.93,3.06,1.91,2.86,2.67,6.11,3.63,9.36,1.34,4.78,3.63,8.8,8.22,11.09a2.33,2.33,0,0,1,1.34,3.06,113.91,113.91,0,0,0-2.49,29,32.33,32.33,0,0,0,1.72,9.56c1.15,3.05,3.06,5.16,6.69,5.35,4.78.38,8,3.06,10.32,7.07l3.44,6.31a7.82,7.82,0,0,0,2.3,2.67c2.1,1.72,4.39,3.25,6.3,5.16a10.51,10.51,0,0,1,1.15,1.53,1.74,1.74,0,0,1-.38,2.68,16.1,16.1,0,0,1-2.3,1.53c-2.48,1.72-2.86,3.06-1.52,5.73l5.16,9.18a17.92,17.92,0,0,1,1.91,4.39c.57,1.91.19,2.49-1.72,3.06-.58.19-1.34.19-1.91.38-1,.19-1.34.77-1,1.72a33.93,33.93,0,0,0,1.72,3.83,57.69,57.69,0,0,1,4.78,12.42,14.87,14.87,0,0,1,.38,2.87c.19,2.86-.76,4-3.63,5-1.53.57-3.06.95-4.59,1.53-1.72.76-2.29,1.72-1.72,3.44a8.21,8.21,0,0,0,7.27,5.92v-1.15a5.73,5.73,0,0,1,4.58-5.73c3.06-1,6.31-.38,9.37.38,7.45,1.91,14.33,5.16,19.68,10.9,4.4,4.78,6.5,10.13,4.21,16.63a36.73,36.73,0,0,1-4,8.22A64.07,64.07,0,0,1,658.43,358a1.81,1.81,0,0,1-2.1.57c-1.72-.38-3.25-.77-5.35-1.34,1.33,1.72,2.29,3.25,3.63,5-2.49,1.53-4.4,3.63-7.65,2.87-1.91-.38-4,0-5.92,0,1.72.95,3.63,1.14,5.35,1.91-1.15,2.29-2.49,4.59-3.63,6.88a1.3,1.3,0,0,1-1.34.57,72.3,72.3,0,0,0-11.28.58,1.44,1.44,0,0,0-1.34.57,18.16,18.16,0,0,0,5.55,1c1.33.19,3.25-.39,4.2.38,1,.95,1,2.67,1.34,4,.38,1.15.57,2.3,1,3.63,5-.76,9.94-1.53,15.1-2.29-1,4.59-1.72,9.17-2.67,13.76-2.68.38-5.35.57-8,1a2.66,2.66,0,0,0-1.91,1l-4.4,5h-.19c-.76-.57-1-2.1-2.1-2.1-1,0-1.91.76-2.87,1.15-4.78,2.1-9.36,4-14.14,6.11a1.71,1.71,0,0,1-2.1-.19c-2.3-1.53-4.78-3.06-7.08-4.59a4,4,0,0,0-3.24-.76c-5,.38-10.14.76-15.1,1.15a4.42,4.42,0,0,1-3.64-1.15c-4.77-3.44-9.55-6.88-14.71-10.51.57,2.67,1.33,5.16,1.91,7.83-6.12-.38-12.23-.57-18.35-.95-.38,1.15,0,2.1-.19,3.06-.19,2.67-.58,3.05-3.06,2.48-8-2.1-16.06-4.39-24.08-6.69-4-1.15-8.22-2.48-12.24-3.63-.57.38-.57,1-1,1.53-2.87,5.54-5.35,11.28-8.6,16.63-.77,1.34-1.53,1.53-2.87.76-8-4-16.06-8-24.27-11.66a6.93,6.93,0,0,0-2.11-.76c-.95,2.1-2.1,4-3.05,5.92a15.62,15.62,0,0,0-4-1.91c-2.29-.57-3.25,0-4,2.11-1.15,3.63-3.63,6.11-6.69,8.41-.38-5.55-4.59-6.89-8.79-8.22a20.78,20.78,0,0,0-3.44-.58c-.2-1.53-.2-2.86-.39-4.58,2.11-.2,4-.58,6.12-.58a80.22,80.22,0,0,1,9.56,0c.95,0,1.33-.19,1.52-1.14a6.37,6.37,0,0,1,4.78-5.17,3.67,3.67,0,0,0,2.87-2.86c.19-.58.57-1,.76-1.53.58-1.53,1.73-1.72,3.06-1.15a2.08,2.08,0,0,0,2.49-.38c2.67-2.1,5.35-4,8.22-6.12a1.31,1.31,0,0,0,.57-1.72c-.38-1.33-.76-2.67-1.15-4-.57-1.15-.19-1.91.77-2.68,1.14-.76,1.91-1.91,3.06-2.86a12.85,12.85,0,0,1,1.14,2.29,2.85,2.85,0,0,0,3.44,2.1,2.1,2.1,0,0,0,2.3-1.53c1.14-2.1,2.29-4,3.44-5.92.38-.77.76-1,1.72-.77,3.25.19,6.3-.19,9.55-.19a4.31,4.31,0,0,1,2.11.58c3.05,1.91,5.92,3.82,9,5.73a2.53,2.53,0,0,0,2.29.38c2.11-.57,4.4-.95,6.5-1.34a1.84,1.84,0,0,0,1.15-.95c1.15-2.87,1.91-5.74,4.78-7.65a35.76,35.76,0,0,0,4.2-3.44c-2.1-1.72-4.39-2.1-6.88-2.67-.57-.19-.76.38-1.15.57a45.31,45.31,0,0,0-4,4.4c-1.72,2.29-4.4,1.53-6.69,2.1-.19,0-.38-.19-.57-.38-1.91-1.53-3.63-3.06-5.55-4.59-.57-.38-.57-1-.76-1.53-.76-2.29-1.34-4.4-2.1-6.69-.58-1.72-3.82-2.68-5.16-1.34-1.91,1.72-3.83,2.3-7.27,1.91-.38-3.05-.76-6.3-.95-9.55,0-1-.38-1.53-1.34-1.34h-1c-3.63-.57-6.68.19-8.6,3.63a1.29,1.29,0,0,1-1.14.77,59,59,0,0,0-5.93-.39,1.31,1.31,0,0,1-1.15-.76c-.38-.77-.95-1.53-1.33-2.3a6.79,6.79,0,0,0-3.63-3.63c-.77-.19-1-.76-1-1.53.38-3.63.76-7.07,1-10.89,3.24.57,6.3.76,9.55,1.53,2.68.57,4.78.38,6.12-2.3,1.53-3.05,4-3.63,7.07-2.67,1.72.57,3.25,0,4.78-1.34,4-3.63,8-7.07,12-10.7a2.26,2.26,0,0,0,1-2.1c-.2-3.45-.2-6.89-.2-10.14a2.47,2.47,0,0,0-.76-1.91c-1.53-1.91-3.06-3.82-4.59-5.92-3.06,2.1-5.92,4.2-9,6.5-.76-2.11-1.72-4-2.48-6.12,5.73-1.91,9-6.5,12.42-11.09-1.53-3.05-3.06-6.11-4.78-9.36,1.53-1.53,3.25-3.06,5-4.59l7.84,8.41c-.58,1.34-1.15,2.68-1.91,4.21a43.16,43.16,0,0,0,5,0c1.53-.39,2.11-2.3,3.64-3.25,1,1.14,1.72,2.29,2.67,3.44,1.72,2.1,3.63,2.29,5.55.19,1.52-1.72,5.35-1.72,6.88-.19l.57,1.14c.57,1.53,1.15,2.87,1.72,4.59,1-1.14,1.91-2.1,2.68-3.06a45.1,45.1,0,0,0-2.49-3.82c.77-.76,1.72-1.53,2.68-2.48,2.1,2.67,4,5.16,6.11,8,1-1.14,1.91-2.1,2.87-3.25-2.48-1.72-5-3.63-7.26-5.16a4.77,4.77,0,0,1-1.53-2.29c-1.15-3.25-.19-5.35,2.67-6.69a8.33,8.33,0,0,0,2.11-1.53c1.53-1.15,1.53-2.67,0-3.82h-.2c-3.63-2.68-3.63-2.68-2.1-7.26,2.1.38,4,.57,6.12.95.76-1.34,1.15-2.48,0-3.63-.57-.57-.38-1.15,0-1.72.76-.76,1.34-1.72,2.1-2.49a2.66,2.66,0,0,0,.57-3.44,6.9,6.9,0,0,0-.57-1.33c-1.34,1.53-2.48,2.67-3.44,4a2.65,2.65,0,0,1-3.82,1.15,13.18,13.18,0,0,0-1.53-.58c0-2.29.38-4.39.19-6.69-1.72.39-3.25,2.68-4.78-.38a9.26,9.26,0,0,0,.58-7.83,26.65,26.65,0,0,0-3.83-7.27c2.3-2.86,4.59-5.73,6.5-8.6A15.62,15.62,0,0,0,551,212.7c.57-1.91,1.91-2.48,3.82-2.48a25.78,25.78,0,0,1,5.36.19c.19-.57.57-1.34.95-2.29-3.25,0-6.11-.2-8.79-1.72a17.31,17.31,0,0,1-2.29,2.86c-1,.77-1.92,1-2.87,0a2.76,2.76,0,0,0-2.68-.57,15.08,15.08,0,0,0-4.78,2.87c-1.52,1.33-3.63,1.14-5.35,1.53-.38,0-.57-.58-.76-.77-1.72-2.1-3.25-4.2-5-6.31a10.11,10.11,0,0,0-1.34-1.53,20.65,20.65,0,0,0,0,3.44c.77,2.87-.38,4.78-2.48,6.69-1.15-1.72-2.49-3.63-3.64-5.35s-2.29-3.44-3.63-5.35l-2.1,2.68a74.88,74.88,0,0,1-7.45-6.12,11.15,11.15,0,0,1,3.44-.76,1.31,1.31,0,0,0,1.33-1.34c-.19-3.63,1.72-6.5,3.83-9.37A60.59,60.59,0,0,1,525,178.87a24.28,24.28,0,0,1,2.48-2.1c-1.53-3.06-2.87-5.73-4.2-8.22a3.69,3.69,0,0,1-.19-2.87c.95-2.86,1.72-5.54,2.67-8.6,2.49.38,4.78.58,7.07,1v-.19a3.54,3.54,0,0,0-1.33-.39c-3.06-1.14-4.59-3.44-5-6.69-.2-2.48-.2-5-.2-7.83-4.77,2.87-9.55,5.73-14.14,8.6a14.13,14.13,0,0,1,1,8.41c-.19.76-.19,1.34-1,1.72-2.87,1.15-4,3.44-4.59,6.31-.95,3.44-2.29,6.88-3.44,10.32-.19.38-.19.76-.57.95-2.1,1.15-4.4,2.3-7.07,1.72-1.72-.38-1.91-2.67-.58-4a20.74,20.74,0,0,0,4.78-7.26,2.74,2.74,0,0,0,.38-1.15c.39-4.4,2.68-7.64,6.69-9.94-1.14-1-2.1-1.72-3.24-2.67,1.72-1.92,3.24-3.44,5.16-5.36a13.11,13.11,0,0,1-6.12.39,50.23,50.23,0,0,1,5.16-3.06,3.59,3.59,0,0,0,2.1-3.63c.19-2.49.39-5,.39-7.46a1.35,1.35,0,0,1,.57-1.14c.57-.39.95-1,1.53-1.34a13.93,13.93,0,0,0,4.39-6.12,4.5,4.5,0,0,1,1.92-2.29c1.52-1,2.86-1.91,4.2-2.87,1.91-1.34,1.91-1.34,1-3.63-4.4,2.48-8.8,4.78-11.47,9.17-1.72,2.87-4,5.36-7.46,6.12a19.67,19.67,0,0,1-8.79.76,5.62,5.62,0,0,1-4-2.48c-.58-1-.38-1.72.76-1.91a18.6,18.6,0,0,1,4.59-.19,5.93,5.93,0,0,0,5.73-4.78c.19-1.53-.19-2.3-1.72-2.68-.95-.19-1.91-.38-2.67-.57a6.37,6.37,0,0,1-1.72-.77,1.53,1.53,0,0,1-.77-1.72c0-.76.77-.95,1.34-1.14,1-.38,2.1,0,3.25-.19-.19-1.15-.19-2.3-.38-3.44-.19-1.53.38-2.11,1.91-2.11a14.84,14.84,0,0,1,5,1.34c.95.38,2.1.77,3.06,1.15a1.17,1.17,0,0,0,1.33-.19.93.93,0,0,0-.19-1.34,22.18,22.18,0,0,0-1.91-2.68c-2.29-3-.95-6.5,2.68-7.26a3.2,3.2,0,0,1,2.86.76c2.68,2.3,5.36,2.11,8-.19.77-.76,1-1.33,0-2.29-1.14-1.15-2.67-1.72-3.82-2.68-1-.57-2.29-1.14-1.91-2.48s1.72-1,2.87-.77c1.14,0,2.29.2,3.44.2.76,0,1.14-.2,1.33-1,.58-4,1-8-.19-12a6.91,6.91,0,0,0-1.34-2.29c-2.1-3.64-3.82-7.27-4-11.66a3.26,3.26,0,0,1,.19-1.34c.38-1.34,1.34-1.53,2.1-.38a25.09,25.09,0,0,1,1.92,2.86,4.58,4.58,0,0,0,2.86,2.11c.58-.58.19-1.34,0-1.92a9.55,9.55,0,0,1-.57-4.58,1.67,1.67,0,0,1,1-1.72c.77-.19,1.15.38,1.73.76l2.48,2.49a2,2,0,0,0,2.68.19c1.14-.58,1.33-1.34.57-2.49a13.14,13.14,0,0,0-1.72-1.53c-2.29-1.91-2.49-3.82-.57-6.3,1.52.95,3,2.1,4.77,3.24,0-2.86-.38-5.54-.57-8.41,1.53.2,2.29,1.15,3.25,2.11a12.66,12.66,0,0,0,9.17,3.25,2.28,2.28,0,0,0,2.11-.77c-.19-.95-1-1.34-1.72-1.72l-5.74-2.87A7.76,7.76,0,0,1,542,51.19c-1.15-1.14-1-2.48.38-3.44a4.51,4.51,0,0,1,1.91-1,3.09,3.09,0,0,0,2.49-2.3c.57-1.91,1.14-4,1.72-5.92a3.57,3.57,0,0,1,1.33-2.3C549.48,36.48,549.86,36.48,550.44,36.48Z"/></g><g class="m"><path class="l" d="M478,179.78a5.19,5.19,0,0,1,2.5.51c1.06.67,2.18,1.36,3.27,2s2.18,1.33,3.23,2l0,0,.05,0,.28.17a1.07,1.07,0,0,1,0,.23,10.34,10.34,0,0,0-.21,1.26,10.12,10.12,0,0,1-.17,1,15.3,15.3,0,0,0,0,6.93c.06.37.11.74.17,1.12v.1a2.81,2.81,0,0,0,1.95,2.22l.34.18.72.35.09.05.11,0c1.47.37,1.92,1.08,1.92,3,0,.2,0,.2-.25.42l-.19.18c-2.3,1.92-4.39,3.82-6.69,5.93l-.88.81,1,.72a7.06,7.06,0,0,0,4.46,1.47,19.37,19.37,0,0,0,3.57-.45c.6-.12,1.2-.23,1.81-.32-.16,2.09-.28,4.19-.4,6.24s-.25,4.13-.4,6.24l-2,.17c-1.85.17-3.77.34-5.64.34a3.72,3.72,0,0,0-3.8,2.37,14.41,14.41,0,0,1-1,2,14.44,14.44,0,0,0-1.1,2.19c-.19.38-.29.44-.81.57a7,7,0,0,1-1.36.15,3.88,3.88,0,0,1-2.89-1.21l0,0,0,0c-.92-.76-1.84-1.41-2.81-2.09l-.88-.63-.95-.68-.53,1.05a15.82,15.82,0,0,1-1.4,2.36l-2.4-.68-1.95-.55.32-.78c.43-1,.83-2,1.3-2.9l.35-.69-.6-.51a34,34,0,0,0-4.34-3.16,1.61,1.61,0,0,1-.85-1.63v-.08c-.1-1.1-.23-2.17-.36-3.3s-.31-2.47-.41-3.77l-.09-1.18-1.15.29c-2.26.57-4.38,1-6.43,1.33h-.07l-.07,0A1.76,1.76,0,0,0,451,213c-.15.91-.33,1.82-.53,2.78-.23,1.14-.46,2.31-.66,3.57h-6.27v0l0-.1-.07-.08c-2.19-2.76-4.38-5.58-6.49-8.3-1.91-2.47-3.88-5-5.87-7.52,1.46-.43,2.93-.88,4.41-1.33,2.75-.83,5.59-1.69,8.39-2.48l1.17-.32-.54-1.09c-.33-.65-.63-1.27-.92-1.88s-.67-1.39-1-2.07c1.12,0,2.24.13,3.42.26l1.75.17h.08a2.68,2.68,0,0,0,2.82-1.72c1.51-2.84,3.05-5.54,4.55-8.15v-.05a6.66,6.66,0,0,1,.75-1.21,5.46,5.46,0,0,1,.73.42c.24.15.49.31.77.45a9.81,9.81,0,0,0,3.86,1.19c.47.08.9.15,1.34.24a1.58,1.58,0,0,0,.47.07,1.8,1.8,0,0,0,1.58-1.24l0-.07c.48-.87.91-1.69,1.35-2.5.3-.58.61-1.16.93-1.75l1.27.39c.91.27,1.78.53,2.63.85a2.45,2.45,0,0,0,3-.57,6.8,6.8,0,0,1,4.12-1.16m0-1a7.7,7.7,0,0,0-4.8,1.43,1.65,1.65,0,0,1-1.16.58,1.62,1.62,0,0,1-.75-.2c-1.53-.57-3.06-1-4.78-1.53-1,1.72-1.72,3.25-2.68,5-.16.33-.33.8-.74.8l-.21,0c-1.72-.39-3.44-.39-5-1.34a8.69,8.69,0,0,0-2.3-1.15,7,7,0,0,0-1.33,1.91c-1.53,2.68-3.06,5.36-4.59,8.22a1.69,1.69,0,0,1-1.91,1.15c-1.86-.16-3.71-.44-5.57-.44-.44,0-.87,0-1.31.06.95,1.72,1.72,3.44,2.67,5.35-4.78,1.34-9.55,2.87-14.14,4.2a.6.6,0,0,1,.19.39c4.4,5.54,8.6,11.08,13,16.62.19.39.38.58.76.58h7.27c.38-2.68.95-5,1.33-7.27,0-.38,0-.76.58-1,2.1-.38,4.2-.77,6.5-1.34.19,2.49.57,4.78.76,7.07a2.6,2.6,0,0,0,1.34,2.49,33,33,0,0,1,4.2,3.06c-.76,1.53-1.34,3.05-2.1,4.77,2.1.58,4,1.15,6.12,1.72a17.08,17.08,0,0,0,1.91-3.05c1.34,1,2.48,1.72,3.63,2.67a4.85,4.85,0,0,0,3.6,1.51,7.83,7.83,0,0,0,1.56-.17,1.89,1.89,0,0,0,1.53-1.15c.57-1.53,1.53-2.67,2.1-4.2a2.71,2.71,0,0,1,2.87-1.72c2.87,0,5.73-.38,8.6-.57.38-5,.57-9.75,1-14.53-2.23.12-4.39.88-6.47.88a6.07,6.07,0,0,1-3.86-1.26c2.3-2.11,4.4-4,6.69-5.93.39-.38.77-.57.77-1.34,0-1.91-.38-3.44-2.68-4l-1.14-.57a1.85,1.85,0,0,1-1.34-1.53c-.38-2.68-1-5.16-.19-7.65.19-.76.19-1.53.38-2.29s0-1.15-.77-1.53c-2.1-1.34-4.39-2.68-6.49-4a6.08,6.08,0,0,0-3-.67Z"/><path class="l" d="M550.06,37.47h.07l1.47,1,1.67,1.12a12.79,12.79,0,0,1,4.58,8.62,2.34,2.34,0,0,0,.67,1.8l.65.64.7-.58a14.23,14.23,0,0,0,3.1-3.9v0c.21-.41.29-.48.83-.61a37.82,37.82,0,0,1,5.64-.37c2,0,4,.1,5.79.19A74.55,74.55,0,0,1,589.77,47a8.91,8.91,0,0,1,2.74.89,9.15,9.15,0,0,1-.93,2.69,22.3,22.3,0,0,1-8.24,9.7c-4.73,3.07-9.36,6.36-13.84,9.54-2.23,1.59-4.54,3.23-6.81,4.81l-.23.14a2.21,2.21,0,0,0-1.29,2.78v0l0,0A2.77,2.77,0,0,0,564,79a9.75,9.75,0,0,1,3.12.33l.06,0,.06,0h.07l-.06.07a31.54,31.54,0,0,1-3.51,3.52,1.65,1.65,0,0,1-1.09.41,3.31,3.31,0,0,1-1.58-.5,4.23,4.23,0,0,0-5.71.45l0,0-.05,0a7.52,7.52,0,0,0-2.37,3.94,2.34,2.34,0,0,0,2.15,3.3,9.84,9.84,0,0,0,1.94.18,23.31,23.31,0,0,0,2.93-.24l1.17-.13a10,10,0,0,1,1.45-.12,7,7,0,0,1,1.88.26,2.52,2.52,0,0,0,1.06.22,5.05,5.05,0,0,0,2.16-.61,21.8,21.8,0,0,0,6.51-3.75,2.77,2.77,0,0,1,1.54-.53,2.69,2.69,0,0,1,1.1.25c1,.45,2,1,2.89,1.48.6.33,1.21.67,1.82,1a10,10,0,0,0,5.06,1.08,67.82,67.82,0,0,1,13.53,1.88c4.27,1,7.77,2.13,10.93,4.24,1.4,1,2.26,1.69,2.26,3.2a3.39,3.39,0,0,1-2.28,3.29c-3.12,1.42-4.8,3.37-5,5.83-.35,6.53-4.09,11.11-8.06,16l-.7.85a202,202,0,0,1-15.38,16,15.34,15.34,0,0,0-2.22,2.41c-.29.35-.59.73-.93,1.12l-1.15,1.35,1.75.29a4.44,4.44,0,0,1,3.64,3.05,10.37,10.37,0,0,1,.88,5.23c-.13,1.22-.5,1.22-.83,1.22a3.56,3.56,0,0,1-.92-.16,22.76,22.76,0,0,1-3.32-1.55c-.45-.23-.89-.47-1.3-.67a5,5,0,0,0-2.32-.81c-1.64,0-2.21,1.69-2.54,2.71a6.69,6.69,0,0,1-.59,1.4h-.18a10.25,10.25,0,0,1-1.37-.17h-.07c-1.49-.14-3-.28-4.55-.28-.69,0-1.33,0-2,.09-3.4.34-3.77,2.28-3.77,3.09,0,2.08,1.59,3.63,3.94,3.86a13.48,13.48,0,0,0,1.82.11,29.6,29.6,0,0,0,6.1-.83l1.17-.24c2.15-.38,4.37-.59,6.71-.8,1.12-.11,2.23-.21,3.38-.34a5.31,5.31,0,0,1,.68-.05c1.62,0,3,.88,4.28,2.67a27.25,27.25,0,0,1,3.13,7.8c.12.43.24.86.37,1.28,1.63,5.83,4.4,9.55,8.73,11.71l0,0h0c.54.23,1.12.65.77,1.86v.06a115.76,115.76,0,0,0-2.51,29.33,33.9,33.9,0,0,0,1.78,9.85c1.45,3.84,3.92,5.8,7.55,6,4.08.32,7.19,2.47,9.52,6.55l1.94,3.56L621,244.3a8.82,8.82,0,0,0,2.55,3c.72.58,1.46,1.15,2.17,1.7a39.11,39.11,0,0,1,4.07,3.39,9.9,9.9,0,0,1,1,1.38l0,0,0,0a.9.9,0,0,1,.25.63,1.15,1.15,0,0,1-.45.62,15.32,15.32,0,0,1-2.14,1.43l-.07,0-.05,0c-2.91,2-3.41,3.9-1.84,7l5.17,9.18a17.49,17.49,0,0,1,1.82,4.19c.39,1.3.41,1.37-1.08,1.82a4.33,4.33,0,0,1-.78.15,5.81,5.81,0,0,0-1.07.22,2.26,2.26,0,0,0-1.62,1.08,2.29,2.29,0,0,0,0,1.93,14.84,14.84,0,0,0,1.08,2.5c.23.45.47.92.69,1.43a57.36,57.36,0,0,1,4.7,12.19,14.34,14.34,0,0,1,.36,2.67v.06c.16,2.34-.42,3.12-3,4-.74.28-1.47.51-2.24.75s-1.56.48-2.35.78h0c-2.24,1-3,2.52-2.28,4.64a9.17,9.17,0,0,0,8.12,6.64l1.11.11v-2.26A4.76,4.76,0,0,1,639,311a10.42,10.42,0,0,1,3.19-.46,23.71,23.71,0,0,1,5.63.85c8.23,2.11,14.51,5.58,19.2,10.6s6,10.06,4,15.64a35.28,35.28,0,0,1-3.92,8,62,62,0,0,1-9.41,11.66l-.05.05,0,.06a.62.62,0,0,1-.55.28,2.22,2.22,0,0,1-.54-.09c-1.69-.37-3.23-.76-5.3-1.32l-2.9-.79,1.85,2.36c.65.85,1.23,1.66,1.78,2.45.38.54.77,1.09,1.19,1.66l-.59.41c-1.44,1-2.69,1.87-4.26,1.87a4.81,4.81,0,0,1-1.15-.14,10.85,10.85,0,0,0-2.16-.19c-.7,0-1.41,0-2.09.09s-1.28.08-1.87.08h-3.86l3.37,1.87a14.84,14.84,0,0,0,3.25,1.22c.41.12.8.23,1.19.36-.42.81-.87,1.63-1.3,2.42-.6,1.12-1.22,2.27-1.8,3.41l0,.06a2.37,2.37,0,0,1-.42,0,74,74,0,0,0-11.36.58,2.33,2.33,0,0,0-2.09,1l-.66,1,1.09.48a13.79,13.79,0,0,0,4.74.94l1.06.1a6.86,6.86,0,0,0,.83.05c.32,0,.65,0,1,0l.89,0a2.05,2.05,0,0,1,1,.16,4.86,4.86,0,0,1,.75,2.2,13.26,13.26,0,0,0,.3,1.38c.2.61.35,1.24.51,1.9s.26,1.09.43,1.69l.25.85.87-.14c4.43-.68,9-1.38,13.68-2.08-.37,1.84-.72,3.69-1.06,5.5-.38,2-.77,4.11-1.19,6.17-1.09.14-2.2.26-3.28.37-1.3.14-2.65.29-4,.48a3.68,3.68,0,0,0-2.54,1.25l0,0,0,0-2.2,2.49-1.49,1.69a2.63,2.63,0,0,0-2.25-1.65,5.07,5.07,0,0,0-2.38.8,9,9,0,0,1-.89.43c-2.38,1.05-4.76,2.07-7.06,3.06s-4.69,2-7.13,3.08a1.17,1.17,0,0,1-.5.16s-.21,0-.55-.26h0l0,0c-1.15-.77-2.37-1.55-3.55-2.3s-2.36-1.51-3.49-2.26a4.79,4.79,0,0,0-3-1,5.82,5.82,0,0,0-.92.08l-7.49.57-7.57.57H592l-.51,0a3.57,3.57,0,0,1-2.34-1l0,0,0,0c-4.7-3.39-9.56-6.88-14.73-10.52l-2.09-1.47.54,2.5c.29,1.36.63,2.68,1,4,.22.84.45,1.71.66,2.59-2.63-.16-5.28-.28-7.86-.4-3-.14-6.11-.29-9.16-.48l-.77-.05-.24.73a5.69,5.69,0,0,0-.21,2.2,4,4,0,0,1,0,1l0,.06v.07a4.3,4.3,0,0,1-.3,1.75.61.61,0,0,1-.24,0,5.82,5.82,0,0,1-1.27-.2c-8-2.1-16.17-4.43-24.06-6.68-2-.57-4.08-1.2-6.1-1.81S520,393.7,518,393.13l-.45-.13-.38.26a2.76,2.76,0,0,0-1,1.35,3.15,3.15,0,0,1-.22.45l0,.05,0,.05c-1,1.86-1.89,3.76-2.79,5.61-1.79,3.65-3.64,7.43-5.79,11-.27.47-.5.71-.68.71a1.82,1.82,0,0,1-.82-.32h-.05c-7.88-3.94-16-8-24.25-11.65a7.94,7.94,0,0,0-2.33-.85l-.81-.2-.35.75c-.56,1.25-1.21,2.44-1.83,3.6l-.72,1.35a12.77,12.77,0,0,0-3.37-1.49,7,7,0,0,0-1.68-.24c-2.16,0-3,1.59-3.53,3a14.7,14.7,0,0,1-5,6.87c-1.15-4.76-5.41-6.11-9.21-7.32a11.54,11.54,0,0,0-2.5-.47l-.34,0c-.05-.49-.08-1-.11-1.48s-.06-.87-.1-1.33l1.17-.15a31.39,31.39,0,0,1,3.86-.32h.06c1.59-.09,3.21-.14,4.79-.14s3.14.05,4.64.14h.07a2.19,2.19,0,0,0,2.5-1.94,5.36,5.36,0,0,1,4.05-4.4,4.68,4.68,0,0,0,3.58-3.55,2.74,2.74,0,0,1,.28-.53,4.74,4.74,0,0,0,.46-.93c.3-.8.67-.8.86-.8a2.38,2.38,0,0,1,.89.23,3.91,3.91,0,0,0,1.42.32,3.24,3.24,0,0,0,2.06-.84c2.09-1.65,4.17-3.17,6.38-4.78l1.82-1.33a2.29,2.29,0,0,0,.93-2.79l-.57-2-.58-2,0-.08,0-.09c-.26-.51-.29-.81.46-1.42a10.83,10.83,0,0,0,1.86-1.69l.36-.38a4.09,4.09,0,0,1,.42.93v.08a3.72,3.72,0,0,0,3.79,2.82,5.07,5.07,0,0,0,.66,0,3.05,3.05,0,0,0,3.15-2.12c1.13-2.06,2.28-4,3.38-5.82l0,0,0,0a2,2,0,0,1,.16-.28h.08a2.3,2.3,0,0,1,.39.05l.07,0h.07c.63,0,1.28.06,2,.06,1.29,0,2.58-.07,3.82-.13s2.52-.12,3.8-.12a3.41,3.41,0,0,1,1.62.45c1.51.94,3,1.9,4.44,2.83s2.94,1.9,4.47,2.86a3.35,3.35,0,0,0,2,.67,4.66,4.66,0,0,0,1.11-.15c1.78-.49,3.7-.84,5.57-1.17l.84-.15h.07l.07,0a2.8,2.8,0,0,0,1.66-1.35l.06-.08,0-.1.45-1.17c.93-2.43,1.74-4.54,3.93-6a24.26,24.26,0,0,0,3.3-2.63l1-.9.91-.78-.92-.75a14.6,14.6,0,0,0-6.58-2.72l-.68-.15a1.59,1.59,0,0,0-.48-.07,1.79,1.79,0,0,0-1.29.63s-.08.07-.08.09l-.15.07-.11.11a44.18,44.18,0,0,0-4.11,4.51c-.88,1.17-2,1.3-3.8,1.43a14.4,14.4,0,0,0-1.93.21l0,0,0,0,0,0c-.94-.76-1.86-1.53-2.75-2.28s-1.82-1.54-2.79-2.31l0,0,0,0c-.1-.07-.14-.15-.24-.55,0-.15-.08-.31-.13-.47-.38-1.13-.72-2.24-1-3.32s-.68-2.21-1.06-3.37c-.58-1.72-2.67-2.65-4.35-2.65a3.41,3.41,0,0,0-2.45.9,6.33,6.33,0,0,1-4.72,1.76c-.3,0-.62,0-1,0-.33-2.66-.67-5.68-.85-8.66,0-1.73-1-2.35-2-2.35a2.15,2.15,0,0,0-.43,0h-.79a13.54,13.54,0,0,0-2.13-.17,8,8,0,0,0-7.44,4.35c0,.08-.11.2-.23.21-1.85-.18-4-.38-5.95-.38-.13,0-.21-.13-.25-.21-.21-.42-.47-.83-.72-1.23s-.45-.72-.6-1a7.7,7.7,0,0,0-4.14-4.14l-.08,0-.08,0c-.12,0-.2-.05-.2-.51l.09-.81c.31-3,.62-5.86.8-9,.92.14,1.83.26,2.71.38a56.51,56.51,0,0,1,5.7,1,11.44,11.44,0,0,0,2.35.28,5.07,5.07,0,0,0,4.87-3.11,3.94,3.94,0,0,1,3.7-2.54,7.15,7.15,0,0,1,2.16.37,5.25,5.25,0,0,0,1.63.27,6.25,6.25,0,0,0,4.14-1.82c2-1.81,4-3.6,6-5.34s4-3.52,6-5.33a3.25,3.25,0,0,0,1.32-2.87V309c-.19-3.41-.19-6.8-.19-10.08a3.44,3.44,0,0,0-1-2.57c-1.49-1.86-3-3.78-4.53-5.85l-.57-.79-.8.55c-2.43,1.67-4.85,3.42-8,5.74-.26-.64-.52-1.26-.78-1.87s-.59-1.37-.87-2.07c5.21-2.1,8.41-6.37,11.51-10.51l.42-.57.37-.49-.28-.55c-1.4-2.81-2.85-5.71-4.44-8.73,1.16-1.13,2.42-2.26,3.67-3.38l3.26,3.49L520.4,275c-.48,1.11-1,2.27-1.63,3.55l-.72,1.45h1.62c.56,0,1.13,0,1.69,0s1.14,0,1.69,0a14.37,14.37,0,0,0,1.71-.09h.12a5,5,0,0,0,2.54-2c.23-.29.46-.57.7-.82l.68.91c.43.57.88,1.17,1.37,1.75a4.2,4.2,0,0,0,7.06.22,3.89,3.89,0,0,1,2.81-1,4,4,0,0,1,2.51.74l.27.52.2.42c.19.49.37,1,.56,1.44.37,1,.76,1.94,1.13,3.06l.57,1.7,1.15-1.38c.44-.53.88-1,1.31-1.49s1-1.06,1.38-1.58l.42-.53-.34-.59c-.6-1-1.21-2-2-3.2l.54-.49.71-.64c2.08,2.66,3.73,4.83,5.42,7.14l.75,1,.82-1q.71-.83,1.41-1.59c.47-.52,1-1.07,1.46-1.66l.7-.84-.9-.62c-1.08-.75-2.18-1.55-3.25-2.32-1.39-1-2.71-2-4-2.83a3.9,3.9,0,0,1-1.17-1.81c-.94-2.68-.3-4.31,2.18-5.46a9.77,9.77,0,0,0,2.31-1.67,3.15,3.15,0,0,0,0-5.38l-.27-.2h-.2c-1.41-1-2.19-1.65-2.35-2.19a6.5,6.5,0,0,1,.6-2.94l2.24.33c1,.14,2,.29,3,.48l.7.12.35-.61c.55-1,1.7-3-.16-4.84l-.07-.07a.73.73,0,0,1,.14-.31,15.07,15.07,0,0,0,1.06-1.26,11.29,11.29,0,0,1,1-1.15,3.66,3.66,0,0,0,.78-4.54v0a1.21,1.21,0,0,1-.1-.29,4.17,4.17,0,0,0-.54-1.16l-.72-1.08-.86,1-1.14,1.27a30.66,30.66,0,0,0-2.36,2.82l0,0,0,0c-.58.93-1,1.06-1.43,1.06a2.79,2.79,0,0,1-1.09-.28c-.28-.13-.61-.26-1-.39,0-.65.07-1.29.11-1.92a27,27,0,0,0,.07-4.14l-.1-1.14-1.12.25a6.3,6.3,0,0,0-1.63.69,3.16,3.16,0,0,1-1.14.47c-.22,0-.46-.28-.65-.57a10.4,10.4,0,0,0,.38-8.17,27.93,27.93,0,0,0-3.51-6.9c2.12-2.65,4.27-5.38,6.1-8.11.15-.26.31-.51.48-.76A11,11,0,0,0,552,213c.39-1.29,1.16-1.77,2.86-1.77h.11a12.68,12.68,0,0,1,1.41-.07,33.22,33.22,0,0,1,3.46.24l.28,0,.79.08.25-.75c.1-.28.26-.65.44-1.07s.33-.74.5-1.17l.55-1.37h-1.48c-3.49,0-6-.26-8.29-1.59l-.75-.43-.53.67c-.28.35-.53.71-.77,1.06a7.57,7.57,0,0,1-1.37,1.65,1.62,1.62,0,0,1-.89.43c-.07,0-.29,0-.64-.35a3.32,3.32,0,0,0-2.44-1,5.39,5.39,0,0,0-1.14.13h-.09a13.83,13.83,0,0,0-4.53,2.6l-.57.43,0,0,0,0a5.9,5.9,0,0,1-3.31,1.06c-.37,0-.76.09-1.14.16a2,2,0,0,0-.26-.36c-.84-1-1.66-2.08-2.45-3.1s-1.61-2.09-2.47-3.14a10.37,10.37,0,0,0-1.43-1.64l-1.71-1.71v2.41c0,.45,0,.88,0,1.29a9.14,9.14,0,0,0,.06,2.35v.06a4.67,4.67,0,0,1-1.36,4.88c-.37-.56-.76-1.12-1.14-1.68-.62-.91-1.24-1.81-1.81-2.67-1.13-1.7-2.3-3.45-3.65-5.37l-.76-1.1-.84,1-1.06,1.34-.43.56-.56-.42c-1.61-1.22-3.27-2.48-4.79-3.85l.77-.1.83-.12a2.3,2.3,0,0,0,2.24-2.33v-.05c-.17-3.26,1.55-5.88,3.65-8.75a59.41,59.41,0,0,1,8.29-10,24.17,24.17,0,0,1,2.38-2l.67-.5-.37-.75c-1.54-3.06-2.86-5.71-4.19-8.19a2.75,2.75,0,0,1-.18-2.08V166c.62-1.85,1.15-3.59,1.71-5.44.23-.77.47-1.56.72-2.36l2.56.32c1.26.16,2.45.3,3.65.5l1.16.2v-2l-.55-.28a4.82,4.82,0,0,0-1.57-.48c-2.51-1-3.84-2.83-4.19-5.77-.19-2.45-.19-4.91-.19-7.76v-1.77l-1.51.91c-4.7,2.82-9.56,5.74-14.16,8.61l-.73.46.34.78a13.13,13.13,0,0,1,.91,7.78c0,.13-.06.25-.09.37-.12.55-.15.59-.31.68-3.6,1.46-4.65,4.49-5.15,7-.63,2.26-1.44,4.56-2.22,6.79-.4,1.13-.8,2.26-1.18,3.39-.06.13-.1.26-.15.38l0,.11a10.92,10.92,0,0,1-5.1,1.72,6.24,6.24,0,0,1-1.22-.13.77.77,0,0,1-.61-.59,1.87,1.87,0,0,1,.53-1.74,21.87,21.87,0,0,0,5-7.56,3.62,3.62,0,0,0,.46-1.51c.36-4,2.38-6.94,6.19-9.12l1.25-.71-1.11-.93c-.57-.48-1.1-.91-1.63-1.34l-.81-.67c1.43-1.55,2.78-2.89,4.42-4.54l2.67-2.66-3.64,1a15.07,15.07,0,0,1-2.64.5,20.93,20.93,0,0,1,2.4-1.32,4.55,4.55,0,0,0,2.65-4.48c.19-2.45.39-5,.39-7.5a.72.72,0,0,1,0-.15h0l.2-.22a6.88,6.88,0,0,0,.83-.74,4.83,4.83,0,0,1,.61-.54l0,0,0,0a14.85,14.85,0,0,0,4.69-6.52,3.45,3.45,0,0,1,1.52-1.81c1.55-1,2.92-2,4.24-2.9,2.31-1.61,2.44-2.11,1.31-4.84l-.43-1-1,.56-.77.43c-4.13,2.33-8.4,4.73-11.06,9.1-2,3.26-4.12,5.06-6.85,5.66a24.25,24.25,0,0,1-6.06,1,11.42,11.42,0,0,1-2.26-.21,4.74,4.74,0,0,1-3.38-2,1.11,1.11,0,0,1-.15-.35l.23-.06h.07a8.11,8.11,0,0,1,2.06-.21l1.11,0,1.18,0a6.88,6.88,0,0,0,6.71-5.57v-.09a3,3,0,0,0-2.52-3.78c-.91-.18-1.86-.37-2.59-.55a5.76,5.76,0,0,1-1.45-.64c-.44-.29-.38-.52-.35-.64l0-.13v-.07a3.65,3.65,0,0,1,.53-.2l.13,0H499a1.94,1.94,0,0,1,.76-.11l.6,0,.74,0a5.37,5.37,0,0,0,.94-.07l1-.16-.16-1c-.09-.53-.14-1.07-.19-1.64a17.52,17.52,0,0,0-.19-1.76c-.08-.66,0-.81.05-.82s.15-.16.87-.16a11.69,11.69,0,0,1,4,1l.61.23c.48.19,1,.39,1.56.58l1.46.55a2.2,2.2,0,0,0,.95.21,2.06,2.06,0,0,0,1.5-.61,1.89,1.89,0,0,0-.1-2.65,24.36,24.36,0,0,0-1.91-2.67,3.72,3.72,0,0,1-.74-3.54,3.61,3.61,0,0,1,2.78-2.13,3.46,3.46,0,0,1,.59-.06,2.12,2.12,0,0,1,1.46.59,6.91,6.91,0,0,0,4.5,1.87,7.45,7.45,0,0,0,4.83-2.06l0,0,0,0a2.32,2.32,0,0,0,0-3.71,12.07,12.07,0,0,0-2.37-1.72,12.15,12.15,0,0,1-1.52-1l-.06,0-.07,0-.34-.21c-1.07-.61-1.22-.81-1.12-1.15.06-.19.07-.24.41-.24a6.87,6.87,0,0,1,1,.13l.33.06h.17c.53,0,1.06,0,1.63.1s1.19.1,1.81.1a2.1,2.1,0,0,0,2.3-1.72l0,0v0c.57-3.94,1-8.15-.21-12.42a7.65,7.65,0,0,0-1.47-2.61c-2.19-3.78-3.68-7.13-3.85-11.1a2.83,2.83,0,0,1,.09-.89l0-.09,0-.09a2.51,2.51,0,0,1,.13-.33,1.86,1.86,0,0,1,.18.23l0,0,0,0A22.07,22.07,0,0,1,524,71.78l0,.06,0,0a5.51,5.51,0,0,0,3.51,2.47l.5.07.35-.36a2.45,2.45,0,0,0,.31-2.74l-.08-.23a8.62,8.62,0,0,1-.52-4.11v-.12c0-.48.08-.63.27-.76a1.91,1.91,0,0,1,.38.28l.38.29,1.18,1.18,1.24,1.24a2.88,2.88,0,0,0,2.07.9,3.47,3.47,0,0,0,1.8-.54,2.65,2.65,0,0,0,1.48-1.61,2.78,2.78,0,0,0-.56-2.3l-.05-.09-.07-.07a14.45,14.45,0,0,0-1.83-1.62c-1.62-1.36-1.9-2.51-.91-4.14.62.41,1.25.85,1.9,1.3s1.35.94,2.06,1.42l1.55,1V61.51c0-1.92-.17-3.79-.33-5.6l-.12-1.33a7.66,7.66,0,0,1,1.1,1c.11.1.21.21.35.35,2.58,2.4,5.71,3.52,9.85,3.52a3.21,3.21,0,0,0,2.91-1.17l.27-.36L553,57.5a3.51,3.51,0,0,0-2.26-2.42L545,52.21l0,0h0a7.39,7.39,0,0,1-2.15-1.69,1.34,1.34,0,0,1-.45-.94,1.45,1.45,0,0,1,.68-1l.23-.16a4.52,4.52,0,0,1,1.13-.63h.14a4.07,4.07,0,0,0,3.3-3c.29-1,.58-2,.87-3s.57-2,.85-2.94l0,0v0a2.88,2.88,0,0,1,.55-1.3m-.2-1.19c-.11.06-.15.1-.15.13l.15-.13Zm-.15.13a3.57,3.57,0,0,0-1.18,2.17c-.58,1.91-1.15,4-1.72,5.92a3.09,3.09,0,0,1-2.49,2.3,4.51,4.51,0,0,0-1.91,1c-1.34,1-1.53,2.3-.38,3.44a7.76,7.76,0,0,0,2.48,1.91L550.25,56c.76.38,1.53.77,1.72,1.72a2.28,2.28,0,0,1-2.11.77,12.66,12.66,0,0,1-9.17-3.25c-1-1-1.72-1.91-3.25-2.11.19,2.87.57,5.55.57,8.41-1.72-1.14-3.25-2.29-4.77-3.24-1.92,2.48-1.72,4.39.57,6.3a13.14,13.14,0,0,1,1.72,1.53c.76,1.15.57,1.91-.57,2.49a2.67,2.67,0,0,1-1.32.41,1.88,1.88,0,0,1-1.36-.6l-2.48-2.49c-.5-.33-.85-.8-1.43-.8a1,1,0,0,0-.29,0,1.66,1.66,0,0,0-1,1.72,9.55,9.55,0,0,0,.57,4.58c.19.58.58,1.34,0,1.92a4.58,4.58,0,0,1-2.86-2.11,25.09,25.09,0,0,0-1.92-2.86,1.38,1.38,0,0,0-1.06-.76c-.43,0-.83.39-1,1.14a3.26,3.26,0,0,0-.19,1.34c.19,4.39,1.91,8,4,11.66A6.91,6.91,0,0,1,526,84.07c1.15,4,.77,8,.19,12-.19.76-.57,1-1.33,1-1.15,0-2.3-.2-3.44-.2a10.14,10.14,0,0,0-1.5-.2,1.25,1.25,0,0,0-1.37,1c-.38,1.34,1,1.91,1.91,2.48,1.15,1,2.68,1.53,3.82,2.68,1,1,.77,1.53,0,2.29a6.45,6.45,0,0,1-4.18,1.82,5.93,5.93,0,0,1-3.85-1.63,3.19,3.19,0,0,0-2.11-.83,5.23,5.23,0,0,0-.75.07c-3.63.76-5,4.21-2.68,7.26a22.18,22.18,0,0,1,1.91,2.68.93.93,0,0,1,.19,1.34,1.1,1.1,0,0,1-.79.31,1.19,1.19,0,0,1-.54-.12c-1-.38-2.11-.77-3.06-1.15a14.84,14.84,0,0,0-5-1.34c-1.53,0-2.1.58-1.91,2.11.19,1.14.19,2.29.38,3.44a5.11,5.11,0,0,1-.78,0c-.46,0-.91,0-1.34,0a3,3,0,0,0-1.13.18c-.57.19-1.34.38-1.34,1.14a1.53,1.53,0,0,0,.77,1.72,6.37,6.37,0,0,0,1.72.77c.76.19,1.72.38,2.67.57,1.53.38,1.91,1.15,1.72,2.68a5.93,5.93,0,0,1-5.73,4.78c-.77,0-1.53-.05-2.29-.05a9.47,9.47,0,0,0-2.3.24c-1.14.19-1.34.95-.76,1.91a5.62,5.62,0,0,0,4,2.48,12.06,12.06,0,0,0,2.48.24,24.72,24.72,0,0,0,6.31-1c3.44-.76,5.74-3.25,7.46-6.12,2.67-4.39,7.07-6.69,11.47-9.17.95,2.29.95,2.29-1,3.63-1.34,1-2.68,1.91-4.2,2.87a4.5,4.5,0,0,0-1.92,2.29,13.93,13.93,0,0,1-4.39,6.12c-.58.38-1,.95-1.53,1.34a1.35,1.35,0,0,0-.57,1.14c0,2.49-.2,5-.39,7.46a3.59,3.59,0,0,1-2.1,3.63,50.23,50.23,0,0,0-5.16,3.06,12.9,12.9,0,0,0,6.12-.39c-1.92,1.92-3.44,3.44-5.16,5.36,1.14.95,2.1,1.72,3.24,2.67-4,2.3-6.3,5.54-6.69,9.94a2.74,2.74,0,0,1-.38,1.15A20.74,20.74,0,0,1,496,177c-1.33,1.34-1.14,3.63.58,4a6.53,6.53,0,0,0,1.43.16,11.9,11.9,0,0,0,5.64-1.88c.38-.19.38-.57.57-.95,1.15-3.44,2.49-6.88,3.44-10.32.58-2.87,1.72-5.16,4.59-6.31.77-.38.77-1,1-1.72a14.13,14.13,0,0,0-1-8.41c4.59-2.87,9.37-5.73,14.14-8.6,0,2.87,0,5.35.2,7.84.38,3.24,1.91,5.54,5,6.68a3.54,3.54,0,0,1,1.33.39V158c-2.29-.38-4.58-.58-7.07-1-.95,3.06-1.72,5.74-2.67,8.6a3.69,3.69,0,0,0,.19,2.87c1.33,2.49,2.67,5.16,4.2,8.22a24.28,24.28,0,0,0-2.48,2.1A60.59,60.59,0,0,0,516.61,189c-2.11,2.87-4,5.74-3.83,9.37a1.31,1.31,0,0,1-1.33,1.34,11.15,11.15,0,0,0-3.44.76,74.88,74.88,0,0,0,7.45,6.12l2.1-2.68c1.34,1.91,2.49,3.63,3.63,5.35s2.49,3.63,3.64,5.35c2.1-1.91,3.25-3.82,2.48-6.69a20.65,20.65,0,0,1,0-3.44,10.11,10.11,0,0,1,1.34,1.53c1.72,2.11,3.25,4.21,5,6.31.19.19.38.77.76.77,1.72-.39,3.83-.2,5.35-1.53a15.08,15.08,0,0,1,4.78-2.87,5.23,5.23,0,0,1,1-.11,2.33,2.33,0,0,1,1.73.68,1.91,1.91,0,0,0,1.35.65,2.47,2.47,0,0,0,1.52-.65,17.31,17.31,0,0,0,2.29-2.86c2.68,1.52,5.54,1.72,8.79,1.72-.38.95-.76,1.72-.95,2.29a37.84,37.84,0,0,0-3.84-.27,12.9,12.9,0,0,0-1.52.08c-1.91,0-3.25.57-3.82,2.48a15.62,15.62,0,0,1-1.72,3.06c-1.91,2.87-4.2,5.74-6.5,8.6a26.65,26.65,0,0,1,3.83,7.27,9.26,9.26,0,0,1-.58,7.83c.59,1.19,1.19,1.57,1.79,1.57,1,0,1.94-.95,3-1.19.19,2.3-.19,4.4-.19,6.69a13.18,13.18,0,0,1,1.53.58,3.89,3.89,0,0,0,1.54.38A2.68,2.68,0,0,0,556,246c1-1.34,2.1-2.48,3.44-4a6.9,6.9,0,0,1,.57,1.33,2.66,2.66,0,0,1-.57,3.44c-.76.77-1.34,1.73-2.1,2.49-.38.57-.57,1.15,0,1.72,1.15,1.15.76,2.29,0,3.63-2.1-.38-4-.57-6.12-.95-1.53,4.58-1.53,4.58,2.1,7.26h.2c1.53,1.15,1.53,2.67,0,3.82a8.33,8.33,0,0,1-2.11,1.53c-2.86,1.34-3.82,3.44-2.67,6.69a4.77,4.77,0,0,0,1.53,2.29c2.29,1.53,4.78,3.44,7.26,5.16-1,1.15-1.91,2.11-2.87,3.25-2.1-2.86-4-5.35-6.11-8-1,1-1.91,1.72-2.68,2.48a45.1,45.1,0,0,1,2.49,3.82c-.77,1-1.72,1.92-2.68,3.06-.57-1.72-1.15-3.06-1.72-4.59l-.57-1.14a4.85,4.85,0,0,0-3.33-1.13,4.78,4.78,0,0,0-3.55,1.32,3.24,3.24,0,0,1-5.55-.19c-1-1.15-1.72-2.3-2.67-3.44-1.53,1-2.11,2.86-3.64,3.25a13.59,13.59,0,0,1-1.58.08c-1.09,0-2.24-.08-3.38-.08.76-1.53,1.33-2.87,1.91-4.21l-7.84-8.41c-1.72,1.53-3.44,3.06-5,4.59,1.72,3.25,3.25,6.31,4.78,9.36-3.44,4.59-6.69,9.18-12.43,11.09.77,2.1,1.73,4,2.49,6.12,3.06-2.3,5.92-4.4,9-6.5,1.53,2.1,3.06,4,4.59,5.92a2.47,2.47,0,0,1,.76,1.91c0,3.25,0,6.69.2,10.14a2.26,2.26,0,0,1-1,2.1c-4,3.63-8,7.07-12,10.7a5.31,5.31,0,0,1-3.47,1.56,4.14,4.14,0,0,1-1.31-.22,8.21,8.21,0,0,0-2.48-.42,4.9,4.9,0,0,0-4.59,3.09,4.09,4.09,0,0,1-4,2.56,10.56,10.56,0,0,1-2.14-.26c-3.25-.77-6.31-1-9.55-1.53-.2,3.82-.58,7.26-1,10.89,0,.77.19,1.34,1,1.53a6.79,6.79,0,0,1,3.63,3.63c.38.77.95,1.53,1.33,2.3a1.31,1.31,0,0,0,1.15.76,59,59,0,0,1,5.93.39,1.29,1.29,0,0,0,1.14-.77,6.94,6.94,0,0,1,6.55-3.8,13.28,13.28,0,0,1,2,.17h1a1.42,1.42,0,0,1,.34,0c.71,0,1,.54,1,1.38.19,3.25.57,6.5.95,9.55a16,16,0,0,0,1.86.12,7.34,7.34,0,0,0,5.41-2,2.44,2.44,0,0,1,1.76-.63,3.66,3.66,0,0,1,3.4,2c.76,2.29,1.34,4.4,2.1,6.69.19.57.19,1.15.76,1.53,1.92,1.53,3.64,3.06,5.55,4.59.19.19.38.38.57.38,2.29-.57,5,.19,6.69-2.1a45.31,45.31,0,0,1,4-4.4c.33-.16.52-.61.93-.61a.6.6,0,0,1,.22,0c2.49.57,4.78.95,6.88,2.67a35.76,35.76,0,0,1-4.2,3.44c-2.87,1.91-3.63,4.78-4.78,7.65a1.84,1.84,0,0,1-1.15.95c-2.1.39-4.39.77-6.5,1.34a3.48,3.48,0,0,1-.84.12,2.36,2.36,0,0,1-1.45-.5c-3.06-1.91-5.93-3.82-9-5.73a4.31,4.31,0,0,0-2.11-.58c-2.6,0-5.07.25-7.62.25-.64,0-1.28,0-1.93-.06a3.59,3.59,0,0,0-.59-.07c-.55,0-.84.25-1.13.84-1.15,1.91-2.3,3.82-3.44,5.92a2.1,2.1,0,0,1-2.3,1.53,4.22,4.22,0,0,1-.6,0,2.75,2.75,0,0,1-2.84-2.14,12.85,12.85,0,0,0-1.14-2.29c-1.15.95-1.92,2.1-3.06,2.86-1,.77-1.34,1.53-.77,2.68l1.15,4a1.31,1.31,0,0,1-.57,1.72c-2.87,2.11-5.55,4-8.22,6.12a2.27,2.27,0,0,1-1.44.63,2.84,2.84,0,0,1-1-.25A3.25,3.25,0,0,0,476,389a1.89,1.89,0,0,0-1.8,1.45c-.19.57-.57,1-.76,1.53a3.67,3.67,0,0,1-2.87,2.86,6.37,6.37,0,0,0-4.78,5.17c-.19,1-.57,1.14-1.52,1.14-1.53-.09-3.11-.14-4.71-.14s-3.23.05-4.85.14c-2.1,0-4,.38-6.12.58.19,1.72.19,3.05.39,4.58a20.78,20.78,0,0,1,3.44.58c4.2,1.33,8.41,2.67,8.79,8.22,3.06-2.3,5.54-4.78,6.69-8.41.58-1.6,1.27-2.32,2.57-2.32a5.88,5.88,0,0,1,1.44.21,15.62,15.62,0,0,1,4,1.91c1-1.91,2.1-3.82,3.05-5.92a6.93,6.93,0,0,1,2.11.76C489.27,405,497.3,409,505.33,413a2.75,2.75,0,0,0,1.32.45c.61,0,1.08-.39,1.55-1.21,3.25-5.35,5.73-11.09,8.6-16.63.38-.57.38-1.15,1-1.53,4,1.15,8.22,2.48,12.24,3.63,8,2.3,16,4.59,24.08,6.69a6.92,6.92,0,0,0,1.52.23c1.15,0,1.4-.72,1.54-2.71.19-1-.19-1.91.19-3.06,6.12.38,12.23.57,18.35.95-.58-2.67-1.34-5.16-1.91-7.83,5.16,3.63,9.94,7.07,14.71,10.51a4.54,4.54,0,0,0,3,1.19,5.07,5.07,0,0,0,.66,0c5-.39,10.13-.77,15.1-1.15a4.4,4.4,0,0,1,.8-.07,3.84,3.84,0,0,1,2.44.83c2.3,1.53,4.78,3.06,7.08,4.59a1.87,1.87,0,0,0,1.15.46,2.15,2.15,0,0,0,1-.27c4.78-2.1,9.36-4,14.14-6.11,1-.39,1.91-1.15,2.87-1.15,1.15,0,1.34,1.53,2.1,2.1h.19l4.4-5a2.66,2.66,0,0,1,1.91-1c2.68-.39,5.35-.58,8-1,1-4.59,1.72-9.17,2.67-13.76-5.16.76-10.13,1.53-15.1,2.29-.38-1.33-.57-2.48-1-3.63-.38-1.34-.38-3.06-1.34-4a2.63,2.63,0,0,0-1.65-.41c-.61,0-1.27.07-1.87.07a4.88,4.88,0,0,1-.68,0,18.16,18.16,0,0,1-5.55-1,1.44,1.44,0,0,1,1.34-.57,72.3,72.3,0,0,1,11.28-.58,1.3,1.3,0,0,0,1.34-.57c1.14-2.29,2.48-4.59,3.63-6.88-1.72-.77-3.63-1-5.35-1.91,1.27,0,2.63-.17,4-.17a9.79,9.79,0,0,1,2,.17,6,6,0,0,0,1.35.16c2.47,0,4.18-1.72,6.3-3-1.34-1.72-2.3-3.25-3.63-5,2.1.57,3.63,1,5.35,1.34a3.32,3.32,0,0,0,.75.11,1.59,1.59,0,0,0,1.35-.68A64.07,64.07,0,0,0,668,346.12a36.73,36.73,0,0,0,4-8.22c2.29-6.5.19-11.85-4.21-16.63-5.35-5.74-12.23-9-19.68-10.9a24.53,24.53,0,0,0-5.88-.88,11.51,11.51,0,0,0-3.49.5,5.73,5.73,0,0,0-4.58,5.73v1.15a8.21,8.21,0,0,1-7.27-5.92c-.57-1.72,0-2.68,1.72-3.44,1.53-.58,3.06-1,4.59-1.53,2.87-1,3.82-2.11,3.63-5a14.87,14.87,0,0,0-.38-2.87,57.69,57.69,0,0,0-4.78-12.42,33.93,33.93,0,0,1-1.72-3.83c-.38-.95,0-1.53,1-1.72.57-.19,1.33-.19,1.91-.38,1.91-.57,2.29-1.15,1.72-3.06a17.92,17.92,0,0,0-1.91-4.39l-5.16-9.18c-1.34-2.67-1-4,1.52-5.73a16.1,16.1,0,0,0,2.3-1.53,1.74,1.74,0,0,0,.38-2.68,10.51,10.51,0,0,0-1.15-1.53c-1.91-1.91-4.2-3.44-6.3-5.16a7.82,7.82,0,0,1-2.3-2.67l-3.44-6.31c-2.29-4-5.54-6.69-10.32-7.07-3.63-.19-5.54-2.3-6.69-5.35a32.33,32.33,0,0,1-1.72-9.56,113.91,113.91,0,0,1,2.49-29,2.33,2.33,0,0,0-1.34-3.06c-4.59-2.29-6.88-6.31-8.22-11.09-1-3.25-1.72-6.5-3.63-9.36-1.2-1.71-2.86-3.12-5.11-3.12a5.76,5.76,0,0,0-.82.06c-3.44.38-6.88.57-10.13,1.15a36.55,36.55,0,0,1-7.09,1.05,14,14,0,0,1-1.7-.1c-1.91-.19-3.06-1.34-3.06-2.87,0-1.14,1-1.91,2.87-2.1.61-.05,1.23-.08,1.85-.08,1.48,0,3,.14,4.46.27a10.41,10.41,0,0,0,1.53.19c.92,0,1.17-.47,1.72-2.1.46-1.41.86-2,1.59-2A4.43,4.43,0,0,1,577,154a36.27,36.27,0,0,0,4.77,2.3,4.4,4.4,0,0,0,1.24.21c1.1,0,1.68-.68,1.82-2.12a11.45,11.45,0,0,0-1-5.74,5.45,5.45,0,0,0-4.4-3.63,28,28,0,0,1,3.06-3.44A204.18,204.18,0,0,0,598,125.54c4.21-5.16,8.6-10.13,9-17.39.2-2.48,2.3-4,4.4-5a4.37,4.37,0,0,0,2.87-4.2c0-2.11-1.34-3.06-2.68-4a33.74,33.74,0,0,0-11.28-4.39,67.73,67.73,0,0,0-13.76-1.91,9,9,0,0,1-4.58-1c-1.53-.76-3.06-1.72-4.78-2.48a3.77,3.77,0,0,0-1.51-.34,3.71,3.71,0,0,0-2.12.72,21.1,21.1,0,0,1-6.31,3.63,4.23,4.23,0,0,1-1.78.54,1.63,1.63,0,0,1-.71-.16,8.06,8.06,0,0,0-2.23-.32,11.1,11.1,0,0,0-1.59.13c-1.32.13-2.64.36-4,.36a8.85,8.85,0,0,1-1.77-.17c-1.34-.19-1.72-.76-1.34-2.1a6.51,6.51,0,0,1,2.1-3.44,4.1,4.1,0,0,1,2.46-1.14,4.24,4.24,0,0,1,2.13.76,4.29,4.29,0,0,0,2.09.64,2.64,2.64,0,0,0,1.73-.64A32,32,0,0,0,568,80.05c.77-1,.38-1.52-.57-1.72A10.64,10.64,0,0,0,564,78c-.77,0-1.53,0-1.91-.76-.39-1,.57-1.34,1.14-1.72,6.88-4.78,13.57-9.75,20.65-14.34A23.14,23.14,0,0,0,592.49,51c1.72-3.82,1.53-4-2.49-5a75.9,75.9,0,0,0-14.71-1.72c-1.92-.09-3.87-.19-5.83-.19a40.3,40.3,0,0,0-5.83.38,1.9,1.9,0,0,0-1.53,1.15,13.32,13.32,0,0,1-2.87,3.63,1.4,1.4,0,0,1-.38-1.14,13.77,13.77,0,0,0-5-9.37l-3.44-2.29c-.41,0-.72,0-.73-.07Z"/></g><g class="n"><ellipse class="o" cx="186.52" cy="235.32" rx="21.58" ry="39.42" transform="translate(-111.55 199.03) rotate(-44.66)"/><ellipse class="p" cx="189.62" cy="232.69" rx="19.12" ry="39.38" transform="translate(-108.09 194.37) rotate(-43.49)"/><ellipse class="q" cx="189.62" cy="232.69" rx="15.32" ry="31.55" transform="translate(-108.09 194.37) rotate(-43.49)"/><path class="o" d="M179.13,229c-.67,1.92,1.14,5.47,4.05,7.88,1.8,1.51,3.71,2.28,5.06,2.06l.67-.12.69,1a14.37,14.37,0,0,0,2.43,2.62c2.92,2.41,5.84,2.79,6.51.85l.22-.64,3.05,2.48c.62.5,1.25.59,1.38.2s-.25-1.17-.87-1.68l-3-2.48.92-2.64,3,2.47c.62.52,1.25.6,1.38.21s-.24-1.17-.86-1.69l-3-2.47.71-2c.14-.41-.25-1.17-.87-1.69s-1.25-.59-1.39-.2l-.7,2-14.41-11.91.71-2c.14-.41-.26-1.17-.88-1.69s-1.24-.59-1.38-.2l-.71,2-3-2.48c-.63-.5-1.25-.59-1.4-.2s.25,1.17.87,1.68l3,2.48-.92,2.65-3-2.47c-.62-.52-1.24-.6-1.38-.21s.24,1.17.87,1.69l3,2.47-.71,2ZM198,236.55l-1.67,4.8c-.39,1.12-2.06.9-3.74-.48s-2.72-3.44-2.36-4.54l1.67-4.8Zm-14.41-11.9,6.07,5-2.14,6.17c-.39,1.11-2.07.9-3.74-.49s-2.72-3.43-2.36-4.53Z"/></g><ellipse class="o" cx="395.36" cy="101.93" rx="65.29" ry="62.92" transform="translate(162.94 437.61) rotate(-69.76)"/><circle class="p" cx="391.16" cy="98.13" r="63.18"/><circle class="q" cx="391.16" cy="98.13" r="50.62"/><path class="o" d="M388.94,121.08a11.25,11.25,0,0,0,17.47-12.77l-.67-1.84,1.78-.74a11.19,11.19,0,0,0,2.56-19.27l-1.61-1.24,4-5.12a2.41,2.41,0,0,0-3.82-2.94l-4,5.11L398,77.08l4-5.11a2.41,2.41,0,0,0-3.81-3l-4,5.11-5.12-4A2.41,2.41,0,0,0,386.08,74l5.11,4-18.81,24.25-5.11-4a2.41,2.41,0,0,0-2.95,3.81l5.11,4-4,5.11a2.41,2.41,0,1,0,3.8,3l4-5.12,6.71,5.19L376,119.25a2.41,2.41,0,0,0,3.81,3l3.95-5.11,5.12,4ZM395,80.9l12.13,9.4a6.47,6.47,0,0,1-7.81,10.31l-.11-.09L387.1,91.13Zm-18.8,24.24,7.91-10.23L399.78,107A6.47,6.47,0,0,1,392,117.34l-.12-.09Z"/><g class="r"><path class="o" d="M325.21,164.23c.58,1.58,1.13,3.2,1.64,4.74a83,83,0,0,1,3.27,14.28,60.84,60.84,0,0,1,.57,15c-.74,6.65-2.14,13.49-5.58,19.66a10.53,10.53,0,0,0-2.4,3.43c-1.26.58-2,1.78-3,2.58-.55-.08-.38.42-.47.69a58.12,58.12,0,0,0-8.15,3.72c-.85-.21-1.58.94-2.76.73,30.22-21.79,2.66-92.7-27.17-101.52-4.14-2.94-12.56-1.07-12.8-2.28,1.88-.67,4.26-2,6.46-2.65l.08-.55.37.05c4.35-.73,9.59-1.27,13.95.56a52.07,52.07,0,0,1,11.62,6.19c7.47,5.63,13.2,13.25,17.87,21.31A95.89,95.89,0,0,1,325.21,164.23Z"/><path class="q" d="M315.29,192c-1.48-19-12.24-47.69-33.41-56-17.44-4.14-24.58,14.61-23,29.89.19,16,10.3,40.87,26.78,51.13,5.06,4.14,12.39,5.08,18.54,3.86.16-.6.41,0,.38.05C313.77,214.49,315.24,202.39,315.29,192Zm-17.77,2.12a6.53,6.53,0,0,1-4.68,3.44c-.84.19-1.28,1.15-2.25,1.09-1.55.07-2.93-1.14-4.17-1.28l-.47,3.16a14.73,14.73,0,0,1-3.22,1.22c-1.38-.26-2.35-1.87-3.41-2.53l.42-2.83c-1.06.3-1.91,1-2.77.72a16.81,16.81,0,0,1-3.07-1.92l1-6.86-6.11-4.79c-.19-1.32.67-2.46.94-3.73.22-.22.46,0,.7,0,.09-.22-.12-.33-.23-.55l2.7-1.36,1.19.18c.53-5.6,2.37-11.26,2-16.71-.77-1.62-2.64-2.64-3.89-3.43l.57-3.81c.24-.23.5,0,.73,0a.22.22,0,0,0,0-.14,1.92,1.92,0,0,0,1.06-.3c.41-.25.68-.68,1.2-.72a2.25,2.25,0,0,1,1.34.66l1.63,1.19a.59.59,0,0,0,.82-.12l.06-.1a1.3,1.3,0,0,0,.25.1c.26-.83,0-2.13.7-2.17l.08-.52a12.36,12.36,0,0,0,2.76-1.34,17.2,17.2,0,0,1,3.14,2.57l-.41,2.79a2.92,2.92,0,0,0,2.14-.78l1.47.22a24.24,24.24,0,0,0,2.86,2.45,46.29,46.29,0,0,0-1.28,6.28c4.7,4.48,7.8,8.76,6,16.11l-2.16,1.38C296.48,186.2,299.21,187.12,297.52,194.13Z"/><path class="s" d="M281.88,136c-18.58-4.2-24.42,16.23-23,29.87.38,19.15,12.62,42.6,26.78,51.13,5.16,4.22,12.31,5,18.55,3.86-2,2.07-5.29,2.07-8,2.46-3.15-.23-7-.4-9.69-2.45-7.87-3.19-13.71-10.33-18.88-16.84.05-.84-.13-1.08-.95-1.28a.91.91,0,0,0-.51-1.19l-.07,0c0-.25-.05-.4-.31-.43a.32.32,0,0,0-.32-.42c.18-.81-.34-1.23-.89-1.65a.31.31,0,0,0-.18-.41.34.34,0,0,0-.14,0c.18-.8-.34-1.23-.88-1.65a.34.34,0,0,0-.32-.43c-5.13-10.67-8.68-22.46-8.91-34.5C254.05,144.39,264.37,128.4,281.88,136Z"/><path class="t" d="M282.73,201.79c-1.17-.17-2.17-1.64-3.42-2.53l1-6.44c-1-.35-1.28-1.49-2.43-1.58l-.88,5.93a17.52,17.52,0,0,1-3.07-1.92l1-6.86-6.1-4.84c-.19-1.32.67-2.46.94-3.73.22-.22.46,0,.7,0,.8.29,2.15,2.34,3.25,1,.62-6.41,2.67-13,2.4-19.47a9.69,9.69,0,0,0-3.89-3.43l.57-3.81c.24-.23.5,0,.73,0,2,1.24,3.66,3,5.79,4.44.58-1.94.08-4.7,1.27-6,.9.74,2,1.14,2.79,2.19l-.91,6.1,2.32,1.58.85-5.74c1.43.32,2.07,1.49,3.12,2.08a57.23,57.23,0,0,1-.63,6.91c4.45,3.33,7.51,9.36,6.1,15.06a5.53,5.53,0,0,1-2,1.94c-.31,0-.6-.23-.93.06,3.3,4.08,4.45,10.15,1.59,14.84-.84.19-1.27,1.15-2.25,1.09-1.39.14-2.64-1.06-4.17-1.28-.3-.9-1.88-1.72-3.12-2C282.79,197.29,283.12,199.7,282.73,201.79Zm5.45-26.48c.51-2.52-1.81-5.5-3.95-6.66-1-.54-.92-2.91-2.66-2.51l-1,6.92c1.27,2.33,3.54,3.35,5.77,4.64.54-.23,1.16-.24,1.59-.78Zm-.13,13.63c1.92-2.27-3.11-8.78-5.47-9.16a3.65,3.65,0,0,0-2.4-1.48l-1.19,8c2.24,2,4.83,4.36,8.26,4.4l.61-.45Z"/><path class="s" d="M292.84,197.57c2.75-4.52,1.85-10.59-1.59-14.84.33-.29.62,0,.93-.06a5.53,5.53,0,0,0,2-1.94c1.34-5.6-1.46-11.64-6.11-15.06a51.75,51.75,0,0,0,.64-6.91c-1.05-.59-1.69-1.76-3.12-2.08l-.86,5.74-2.31-1.58.91-6.1c-.76-1.05-1.9-1.45-2.79-2.19l.09-.6a13.29,13.29,0,0,0,2.76-1.34,17.2,17.2,0,0,1,3.14,2.57l-.41,2.79a2.92,2.92,0,0,0,2.14-.78l1.49.22a24.24,24.24,0,0,0,2.86,2.45,49.56,49.56,0,0,0-1.28,6.28c5.29,4.83,7.69,9.5,6,16.11l-2.16,1.38c2.31,5.66,3.74,7.11,2.38,12.48A6.69,6.69,0,0,1,292.84,197.57Z"/><path class="s" d="M282.73,201.79c.4-2,0-4.22.57-6.36.84.19,2.71.89,3.11,2l-.47,3.16A14.85,14.85,0,0,1,282.73,201.79Z"/><path class="s" d="M277,197.11l.88-5.94c1.15.09,1.47,1.23,2.43,1.58l-.54,3.61C278.93,196.53,278,197.43,277,197.11Z"/><path class="s" d="M274.11,178.1l-.41,2.76c-1,1.13-2-.35-3.26-1,.09-.22-.11-.33-.23-.55l2.71-1.36Z"/><path class="s" d="M288.06,188.9l-.19,1.29-.61.45c-3.12,0-5.92-2.24-8.26-4.39l1.19-8a3.68,3.68,0,0,1,2.4,1.48l-.68,4.55A65.8,65.8,0,0,0,288.06,188.9Z"/><path class="s" d="M288.18,175.31l-.25,1.66c-.41.48-1.08.49-1.59.77-2-1.19-4.49-2.25-5.77-4.64l1-6.92c1.57-.51,1.47,1.7,2.66,2.52l-.44,2.91A25.72,25.72,0,0,0,288.18,175.31Z"/><path class="u" d="M288.06,188.9a65.8,65.8,0,0,1-6.15-4.62l.68-4.55C285.25,180.21,290,187.23,288.06,188.9Z"/><path class="u" d="M288.18,175.31a24.88,24.88,0,0,1-4.38-3.75l.43-2.91C286.19,169.69,288.68,172.53,288.18,175.31Z"/><path class="p" d="M321.18,201.56a82.93,82.93,0,0,0-4.48-29.64,93.6,93.6,0,0,0-14-27.36A56.18,56.18,0,0,0,289,131.41c-7-4.61-17.8-8.46-25.91-4.29a21.1,21.1,0,0,0-6,4.61,33.44,33.44,0,0,0-7.06,13.45c-2.45,8.5-2.14,18.14-.58,26.77.12.65.27,1.29.4,1.91.26,1.48.58,2.94.89,4.39a85.68,85.68,0,0,0,13.09,29.63,79.64,79.64,0,0,0,9.89,11.79l.17.5c.14.46,2.05,1.5,2.48,2a14.18,14.18,0,0,0,2.58,2.25,58.87,58.87,0,0,0,6.69,4.23A25.7,25.7,0,0,0,305,230.84c.87-.68,2.06-.7,2.88-1.47,0-.26.17-.36.43-.31.45.07,2-1.53,2.37-1.84a23.51,23.51,0,0,0,2.19-2.16C318.57,218.69,320.76,209.93,321.18,201.56ZM263,196.51H263l-.08-.07-.34-.63c-.14-.34-.25-.7-.31-.84-5.85-13.44-10.46-28.71-6.88-43.39a28.35,28.35,0,0,1,4.91-10.75c4.47-5.61,11.3-8.33,20.56-4.29l.83.13c18.58,9.09,28.07,29.81,31.81,49.33.9,11.44,1.13,26.45-9.19,33.5-6.21,4.87-14,4.13-21.59-.47a45.27,45.27,0,0,1-7.07-5.74,61.41,61.41,0,0,1-4.25-4.44c-.65-.78-1.28-1.59-1.92-2.38-.29-.36-.72-.77-1.12-1.18l-.77-1.06a.35.35,0,0,0-.06-.14l0,.09A73.88,73.88,0,0,1,263,196.51Z"/><path class="s" d="M275.17,152.36l-2.4,1.79s1.28-.23,3.72,2.19,2.83,2.21,2.83,2.21l.58-3.87s-.28.64-.7.38S275.77,152.4,275.17,152.36Z"/></g></svg>