<?xml version="1.0" encoding="utf-8"?>
<!-- Generator: Adobe Illustrator 24.3.0, SVG Export Plug-In . SVG Version: 6.00 Build 0)  -->
<svg version="1.1" id="Layer_1" xmlns="http://www.w3.org/2000/svg" xmlns:xlink="http://www.w3.org/1999/xlink" x="0px" y="0px"
	 viewBox="0 0 400 300" style="enable-background:new 0 0 400 300;" xml:space="preserve">
<style type="text/css">
	.st0{clip-path:url(#SVGID_3_);}
	.st1{clip-path:url(#SVGID_5_);}
	.st2{fill:#DA000C;}
	.st3{clip-path:url(#SVGID_7_);}
	.st4{fill:#FFFFFF;}
	.st5{fill:#F8D80E;}
	.st6{fill:none;}
	.st7{clip-path:url(#SVGID_9_);fill:#FFFFFF;}
	.st8{fill:#F3F2EF;}
	.st9{fill:#C98017;}
	.st10{fill:#FBED60;}
	.st11{fill:#FABA31;}
	.st12{fill:#68C2EE;}
	.st13{fill:#0491BE;}
	.st14{fill:#68C2EF;}
	.st15{fill:#31798F;}
	.st16{fill:#C1BDBE;}
	.st17{fill:#6E6E6E;}
	.st18{fill:#6C6C6C;}
	.st19{fill:#BCBCBC;}
	.st20{fill:#E1E1E1;}
	.st21{fill:#0A0A09;}
</style>
<g>
	<g>
		<g>
			<g>
				<defs>
					<path id="SVGID_2_" d="M198,218.4c-1.1-3-3.9-4.8-5.6-7.8c1.5-0.6,2.4,0.4,3.5,0.6c1.9,0.5,2.7-0.2,2.8-2.1
						c0.1-1.9-1.5-4-3.4-4.6c-1.1-0.4-1.6,0.5-2.2,1c-1.8,1.3-2.5,1.2-3-1c-1-4.5-2.5-8.6-5.9-11.9c-1.7-1.7-2.8-4.1-4.2-6.1
						c-1.2-1.6-2.4-2.9-4.2-3.8c-0.6-0.2-1.2-0.7-1.6-1.5c-1.9-5-5.9-8.6-9-12.8c-6.7-9.1-13.3-17.9-20.1-26.9
						c-0.8-1.2-0.7-1.8,0.7-2.7c2.8,3.6,5.7,7.3,8.5,11c8,10.4,16.1,21,24.1,31.4c1.2,1.5,3.2,1.8,4,0.4c1.3-2.4,3.6-3.4,5.7-4.8
						c2.7-2.1,2.8-2.1,1.7-5.2c-2.1-5.8-4-11.8-6.2-17.6c-0.6-1.8-0.2-2.8,1.3-3.5c1.6-0.7,3-1.5,4.6-2.2c0.8-0.4,1.6-0.7,1.5-1.8
						s-0.2-2.2-1.3-2.7c-0.5-0.2-1.1-0.4-1.3-0.6c-1.6-2.8-3.8-1.6-5.9-1.1c-1.2,0.2-2.8,1.3-3.4-0.2c-0.6-1.7,1.3-2.1,2.5-2.4
						c2.2-0.8,4.4-1.5,6.9-2.2c-2.2-8.7-5.9-16.7-10.3-24.4c-1.1,0.2-2.2,0.7-3,1.3c1,2.3,1.9,4.6,2.9,6.8c0.4,1,1,2.1,0,2.9
						c-1,1-2.2,0.4-3.2,0s-1.6-1.3-1.8-2.4c-1-4.1-2.1-8.4-3.2-12.5c-0.1-0.6-0.2-1.1,0-1.7c0.1,0,0.4-0.1,0.4,0
						c1.7,2.2,3.6,2.7,6.1,1.2c0.7-0.5,1.5,0,2.1,0.6c0.5,0.5,0.8,1.1,1.8,1v-2.9c-1.7-0.5-3.4-0.1-5-0.2c-2.2-0.1-3.5-1.1-3.9-3.4
						c-0.6-4.1-2.7-7.4-5.2-10.4c-1.9-2.3-4.2-4.1-7-5.2c-2.2-0.8-3-2.3-2.9-4.7c0.2-4.2,0.1-8.5,0-12.7c0-1.9,0.7-2.7,2.5-2.9
						c0.7-0.1,1.6-0.2,2.3-0.5c0.8-0.2,1.7-0.2,2.1-1.2c0.1-0.6-0.2-0.8-0.6-1.2c-0.8-1-1.6,0-2.3,0.2c-1.7-1.8-1-4.4-1.8-6.4
						c-0.6-0.4-1.2-0.2-1.9-0.1c-0.6,1.7,0.1,3.5-0.4,5.2c-1.1-0.2-1.1-0.2-1.7-5l-2.3,0.2c0,0.6,0,1.3-0.1,1.9
						c-0.2,1.2,0.7,3-1.7,3.2c-3,0.1-3.8-0.2-4.2-2.8c-0.1-0.8-0.4-1.7-0.5-2.4c-0.6-0.2-1.3-0.4-2.1-0.1c-1.6,1.3,1.2,4.2-2.2,5.1
						v-4.1c-0.7-0.5-1.3-0.4-2.2,0c-0.5,7.3-0.2,14.7-0.4,21.9c-0.7,0.7-1.5,0.4-2.2,0.5V56.4c3.5,0.5,2.9-2.3,3.5-4.1
						c0.5-0.5,1.1-0.2,1.6-0.2c9.3,0,18.7-0.2,28,0.5c4.8,0.5,9.8,1.3,13.3,5.6c1.6,1.9,3.6,3.5,5.6,5.5c0.8-1,1.8-1.8,3.2-1.9
						c0.6,0,1.3-0.5,1.3-1.2c-0.1-1.8,0.8-2.2,2.7-1.8c0-4.1-0.5-8-0.8-12.2l-30,1.1v-8.5c1.7,0.1,3.5,0.2,5.3,0.2
						c2.7,0,3.6-0.7,4.4-3.3c0.2-1,0.7-1.8,1.8-2.1c1.1,0.6,0.5,1.5,0.2,2.3c-0.2,1.6,0.1,2.4,1.9,2.3c8.1-0.6,16.4-0.4,24.5-0.6
						c1,0,2.1,0.2,2.5-1.1c0.4-1.2-0.1-2.2-1-3c-2.4-2.4-2.5-2.4-1-5.6c0.6-1.3,0.6-2.3-0.2-3.5c-1.1-1.5-2.2-3-2.7-4.7
						c0.6-0.8,1.5-0.5,2.2-0.6c9.3-0.1,18.5-0.7,27.9-0.5c1,0,1.9,0.2,2.9,0.6c8.7,3.9,17.4,7.8,26.2,11.6c1.2,0.6,1.8,1.1,1.5,2.7
						c-0.6,2.7-0.8,5.5-1.2,8.2l2.3,1.5c-2.2,0.2-2.7,1.6-3,3.2c-0.5,2.5-1,5-1.6,7.5c-0.4,1.8-0.1,3.4,1.8,4.1
						c0.5,0.2,1.1,0.4,1.3,1c-0.4,1.3-1.2,0.5-1.8,0.2c-1.7-0.6-2.3-0.2-2.3,1.7c0,2.9-0.5,5.8-0.1,8.7c0.2,1.6,1,2.4,2.3,2.5
						c2.2,0.1,2.9,1.3,3.3,3.4c1.2,7,1,13.9-2.2,20.5c-1.6,3.3-2.1,7-4,10.4c-1.7-1.1-2.7-0.5-3.2,1.2c-0.5,1.6-1.2,3.2-1.6,4.8
						c-0.4,1.3-0.2,2.7,0.7,4c1.6,2.2,2.2,4.6,1.2,7.4c-0.5,1.2-1.2,2.5,0.5,3.6c0.6,0.5,0.2,1.2-0.2,1.7c-0.8,0.7-1.1,1.9-0.4,2.9
						c1.3,1.9,0.7,3.8-0.1,5.6c-0.5,1.1-0.8,2.1,0,3.2c0.1,0.2,0.2,0.5,0.2,0.8c-1.1,2.3-0.4,5-1.6,7.4c-2.3,4.2-4.1,9.2-3.2,13.8
						c1,5.1,0,10.9,4.5,15.3c3,2.9,2.8,6.4,0.4,9.8c-0.8,1.2-0.5,2.8-0.1,4.1c0.5,2.1,0.2,4.1-0.7,5.9c-1.2,2.4-2.2,5-3.8,7.1
						c-1.7,2.4-2.3,5.1-2.5,8c-0.1,1.7-0.2,3.5-0.6,5.2c-0.8,4.1-0.5,8.1,1.5,11.9c0.5,1,0,1.7-0.2,2.4c-1.3,3.4-2.7,6.9-4.2,10.2
						c-1.3,2.8-1.7,5.7-1.6,8.7c0.2,3.6-0.5,7-3.2,9.8c-1.1,1.1-1.7,2.7-2.4,4c-1.9,2.9-2.4,5.9-1.3,9.3c0.2,0.7,0.4,1.6,0.4,2.3
						c0,0.8-0.1,1.7-1.3,1.8c-1.3,0.2-2.4,1-3.4,2.1c-0.8,1.1-2.2,1.6-3.4,1.2c-5.1-1.6-9.9-3.6-14.1-7.1c-4.4-3.6-4.1-8.5-4.1-13.3
						c0-3.6,0.8-7.1,2.9-10.3c0.8-1.2,1-2.9,0.2-4.2c-0.7-1.5-1.6-2.9-2.4-4.2c-0.7-1.2-1.3-2.5-1.3-4c0-4.1-1.3-7.9-3.3-11.5
						c-0.4-0.6-0.8-1.3-0.6-2.2C204.4,221.3,202.1,218.5,198,218.4z"/>
				</defs>
				<clipPath id="SVGID_3_">
					<use xlink:href="#SVGID_2_"  style="overflow:visible;"/>
				</clipPath>
				<g class="st0">
					<g>
						<g>
							<g>
								<g>
									<defs>
										<rect id="SVGID_4_" x="128.3" y="88.3" width="186.4" height="93.2"/>
									</defs>
									<clipPath id="SVGID_5_">
										<use xlink:href="#SVGID_4_"  style="overflow:visible;"/>
									</clipPath>
									<g class="st1">
										<rect x="128.3" y="88.3" class="st2" width="186.4" height="193.1"/>
									</g>
								</g>
							</g>
						</g>
						<g>
							<g>
								<g>
									<defs>
										<rect id="SVGID_6_" x="128.3" y="88.3" width="186.4" height="93.2"/>
									</defs>
									<clipPath id="SVGID_7_">
										<use xlink:href="#SVGID_6_"  style="overflow:visible;"/>
									</clipPath>
									<g class="st3">
										<rect x="128.3" y="88.3" class="st4" width="186.4" height="62.4"/>
									</g>
								</g>
							</g>
						</g>
					</g>
					<g>
						<rect x="199.8" y="130.6" width="23.3" height="16"/>
					</g>
					<g>
						<polyline class="st2" points="211.9,144.2 197.8,144.2 194.6,146.3 194.6,148.5 211.9,148.5 						"/>
					</g>
					<g>
						<polygon points="212.2,148.7 194.4,148.7 194.4,146.2 197.6,144 212.2,144 212.2,144.5 197.8,144.5 194.7,146.4 194.7,148.4 
							212.2,148.4 						"/>
					</g>
					<g>
						<path class="st2" d="M206,135c2.1,0,3.8,1.7,3.8,3.8v5.5h2.7v-20.4h-14.7v20.4h4.6v-5.3C202.2,136.9,203.9,135,206,135
							L206,135z"/>
					</g>
					<g>
						<path d="M212.5,144.5h-3v-5.6c0-1.9-1.6-3.6-3.5-3.6c-1.9,0-3.5,1.7-3.5,3.6v5.6h-5v-20.8h15V144.5z M209.9,144h2.3v-19.9H198
							v20h4.1v-5.2c0-2.2,1.8-4,3.9-4c2.2,0,3.9,1.8,3.9,4V144z"/>
					</g>
					<g>
						<rect x="202.7" y="110.1" width="6.8" height="12.4"/>
					</g>
					<g>
						<path class="st2" d="M209.5,120.5h-5.9v-2.1h-4.4v2.1h-2.9v-2.1h-1.7v3.8h14.9 M196.3,122.2H209v1.7h-12.7V122.2z"/>
					</g>
					<g>
						<path d="M209.3,124h-13.2v-1.6h-1.7v-4.2h2.2v2.1h2.5v-2.1h4.7v2.1h5.9v0.4h-6.3v-2.1h-3.9v2.1h-3.4v-2.1h-1.3v3.4h1.3l0,0
							h13.2l0,0h0.5v0.4h-0.5v1.7H209.3z M196.5,123.6h12.4v-1.2h-12.4V123.6z"/>
					</g>
					<g>
						<path class="st2" d="M201.4,105.6v12.8h2.2v-3.5c0-1.3,1-2.4,2.3-2.4h0.1c1.3,0,2.4,1.1,2.4,2.4v3.5h2.1v-12.8H201.4
							L201.4,105.6z"/>
					</g>
					<g>
						<path d="M203.8,118.7h-2.7v-13.3h9.6v13.2h-2.5v-3.8c0-1.2-1-2.3-2.3-2.3h-0.1c-1.2,0.1-2.1,1-2.1,2.3v3.9H203.8z
							 M201.5,118.2h1.8v-3.3c0-1.5,1-2.5,2.4-2.7h0.1c1.5,0,2.7,1.2,2.7,2.7v3.3h1.7v-12.5h-8.7V118.2z"/>
					</g>
					<g>
						<rect x="200.5" y="103.9" class="st2" width="10.7" height="1.7"/>
					</g>
					<g>
						<path d="M211.5,105.8h-11v-2.2h11V105.8z M200.8,105.3H211V104h-10.2V105.3z"/>
					</g>
					<g>
						<path class="st2" d="M199.2,100.5v3.4h12.7v-3.4H210v1.7h-2.4v-1.7h-3.6v1.7h-2.4v-1.7H199.2z"/>
					</g>
					<g>
						<path d="M212.2,146.5h-17.8v-0.4h17.8V146.5z M212.2,104.1H199v-3.8h2.8v1.7h1.9v-1.7h4v1.7h1.9v-1.7h2.4v3.8H212.2z
							 M199.3,103.7h12.4v-2.9h-1.6v1.7h-2.8v-1.7h-3.2v1.7h-2.8v-1.7h-1.9v2.9H199.3z"/>
					</g>
					<g>
						<polyline class="st2" points="223.3,145.3 211.5,145.3 207.9,147 207.9,149.6 223.3,149.6 						"/>
					</g>
					<g>
						<polygon points="223.4,149.8 207.7,149.8 207.7,146.9 211.5,145.1 223.4,145.1 223.4,145.6 211.6,145.6 208.1,147.2 
							208.1,149.5 223.4,149.5 						"/>
					</g>
					<g>
						<rect x="207.9" y="146.9" width="15.8" height="0.4"/>
					</g>
					<g>
						<rect x="219.8" y="130.6" width="23.3" height="16"/>
					</g>
					<g>
						<polyline class="st2" points="231,144.2 245.3,144.2 248.4,146.3 248.4,148.5 231,148.5 						"/>
					</g>
					<g>
						<polygon points="248.5,148.7 230.8,148.7 230.8,148.4 248.2,148.4 248.2,146.4 245.1,144.5 230.8,144.5 230.8,144 245.3,144 
							248.5,146.2 						"/>
					</g>
					<g>
						<path class="st2" d="M236.9,135c-2.1,0-3.8,1.7-3.8,3.8v5.5h-2.7v-20.4h14.7v20.4h-4.6v-5.3C240.7,136.9,239,135,236.9,135
							L236.9,135z"/>
					</g>
					<g>
						<path d="M245.4,144.5h-5v-5.6c0-1-0.4-1.8-1.1-2.5c-0.7-0.7-1.6-1.1-2.4-1.1c-1.9,0-3.5,1.6-3.5,3.6v5.6h-3.2v-20.8h15v20.8
							H245.4z M240.9,144h4.1v-19.9h-14.2v20h2.3v-5.2c0-2.2,1.8-4,3.9-4c1,0,2.1,0.4,2.8,1.2c0.7,0.7,1.2,1.8,1.2,2.9v5H240.9z"/>
					</g>
					<g>
						<rect x="233.5" y="110.1" width="6.8" height="12.4"/>
					</g>
					<g>
						<path class="st2" d="M233.5,120.5h5.9v-2.1h4.4v2.1h2.9v-2.1h1.7v3.8h-14.9 M246.6,122.2h-12.7v1.7h12.7V122.2z"/>
					</g>
					<g>
						<path d="M246.8,124h-13.1v-1.6h-0.5v-0.4h0.5l0,0H247l0,0h1.3v-3.4H247v2.1h-3.5v-2.1h-3.9v2.1h-6.3v-0.4h5.9v-2.1h4.7v2.1
							h2.5v-2.1h2.2v4.2H247v1.5H246.8z M234.1,123.6h12.4v-1.2h-12.4V123.6z"/>
					</g>
					<g>
						<path class="st2" d="M241.6,105.6v12.8h-2.2v-3.5c0-1.3-1-2.4-2.3-2.4H237c-1.3,0-2.4,1.1-2.4,2.4v3.5h-2.1v-12.8H241.6
							L241.6,105.6z"/>
					</g>
					<g>
						<path d="M241.7,118.7h-2.7v-3.8c0-1.2-0.8-2.2-2.1-2.3h-0.1c-1.2,0-2.3,1-2.3,2.3v3.8h-2.5v-13.2h9.6v13.2H241.7z
							 M239.6,118.2h1.8v-12.5h-8.7v12.5h1.7v-3.3c0-1.5,1.2-2.7,2.7-2.7h0.1c1.5,0.1,2.4,1.2,2.4,2.7V118.2z"/>
					</g>
					<g>
						<rect x="231.7" y="103.9" class="st2" width="10.7" height="1.7"/>
					</g>
					<g>
						<path d="M242.6,105.8h-11v-2.2h11V105.8z M231.9,105.3h10.2V104h-10.2V105.3z"/>
					</g>
					<g>
						<path class="st2" d="M243.8,100.5v3.4H231v-3.4h1.9v1.7h2.4v-1.7h3.6v1.7h2.4v-1.7H243.8z"/>
					</g>
					<g>
						<path d="M248.5,146.5h-17.8v-0.4h17.8V146.5z M243.9,104.1h-13.2v-3.8h2.4v1.7h1.9v-1.7h4v1.7h1.9v-1.7h2.8v3.8H243.9z
							 M231.2,103.7h12.4v-2.9h-1.9v1.7h-2.8v-1.7h-3.2v1.7h-2.8v-1.7h-1.6v2.9H231.2z"/>
					</g>
					<g>
						<polyline class="st2" points="219.7,145.3 231.4,145.3 235,147 235,149.6 219.7,149.6 						"/>
					</g>
					<g>
						<polygon points="235.2,149.8 219.4,149.8 219.4,149.5 234.8,149.5 234.8,147.2 231.4,145.6 219.4,145.6 219.4,145.1 
							231.6,145.1 235.2,146.9 						"/>
					</g>
					<g>
						<rect x="219.3" y="146.9" width="15.8" height="0.4"/>
					</g>
					<g>
						<path class="st5" d="M227.7,142.9c-1,0.4-1.8,0.8-2.7,1.3c-1.1,0.6-2.2,1.3-3.3,2.2c-0.4,0.2-0.7,0.5-1,0.8
							c-0.4,0.4-0.7,0.7-0.7,1.2c0,0.2,0.4-0.2,0.5-0.2c0.4-0.2,0.7-0.2,1.2-0.1c0.5-0.5,1.1-0.8,1.6-1.2c1.1-0.8,2.3-1.6,3.5-2.2
							c0.5-0.2,0.8-0.5,1.3-0.6C228.1,143.6,227.9,143.3,227.7,142.9L227.7,142.9z"/>
					</g>
					<g>
						<path d="M220.2,148.7C220.2,148.7,220.1,148.7,220.2,148.7c-0.1,0-0.2-0.1-0.2-0.2c0-0.5,0.2-1,0.7-1.5c0.2-0.4,0.7-0.6,1-0.8
							c1-0.7,1.9-1.5,3.3-2.2c0.1-0.1,0.2-0.1,0.4-0.2c0.7-0.4,1.5-0.8,2.3-1.1h0.1v0.1c0.1,0.5,0.2,0.8,0.4,1.2v0.1h-0.1
							c-0.4,0.1-0.6,0.2-1,0.4c-0.1,0-0.2,0.1-0.4,0.1c-1.2,0.7-2.4,1.5-3.4,2.2c-0.2,0.1-0.4,0.4-0.6,0.5c-0.4,0.2-0.6,0.5-1,0.7
							l-0.1,0.1h-0.1c-0.4-0.1-0.7,0-1.1,0.1l0,0l0,0c0,0-0.1,0.1-0.2,0.1C220.3,148.7,220.3,148.7,220.2,148.7z M220.3,148.5
							L220.3,148.5L220.3,148.5z M227.7,143c-0.7,0.2-1.5,0.6-2.1,1.1c-0.1,0.1-0.2,0.1-0.4,0.2c-1.2,0.7-2.3,1.5-3.3,2.2
							c-0.4,0.2-0.7,0.5-1,0.8c-0.4,0.4-0.6,0.6-0.6,0.8c0.1-0.1,0.2-0.1,0.2-0.2c0.4-0.2,0.7-0.2,1.1-0.2c0.2-0.2,0.6-0.5,1-0.7
							c0.2-0.1,0.5-0.2,0.6-0.5c1-0.7,2.2-1.5,3.5-2.2c0.1,0,0.2-0.1,0.4-0.1c0.2-0.1,0.5-0.2,0.8-0.4
							C227.8,143.6,227.7,143.4,227.7,143z"/>
					</g>
					<g>
						<path d="M223.1,147.2c-0.1,0-0.2-0.1-0.2-0.2v-1.5c0-0.1,0.1-0.2,0.2-0.2c0.1,0,0.2,0.1,0.2,0.2v1.5
							C223.2,147,223.2,147.2,223.1,147.2z M223.9,146.5c-0.1,0-0.2-0.1-0.2-0.2v-1.5c0-0.1,0.1-0.2,0.2-0.2c0.1,0,0.2,0.1,0.2,0.2
							v1.5C224.2,146.4,224.1,146.5,223.9,146.5z M224.8,146.1c-0.1,0-0.2-0.1-0.2-0.2v-1.5c0-0.1,0.1-0.2,0.2-0.2
							c0.1,0,0.2,0.1,0.2,0.2v1.5C225,145.9,224.9,146.1,224.8,146.1z M225.8,145.5c-0.1,0-0.2-0.1-0.2-0.2v-1.5
							c0-0.1,0.1-0.2,0.2-0.2c0.1,0,0.2,0.1,0.2,0.2v1.5C225.9,145.5,225.9,145.5,225.8,145.5z"/>
					</g>
					<g>
						<path class="st5" d="M215.2,142.9c-0.1,0.4-0.2,0.8-0.5,1.2c2.1,0.7,4,1.8,5.8,2.9c0.6,0.5,1.2,0.8,1.7,1.5
							c0.1,0.2-0.1,0.6-0.5,0.5c-0.2-0.1-0.5-0.2-0.8,0c-0.4,0.1-0.7,0.7-0.1,1c0.8,0.6,2.2,0.4,2.7-0.6c0.2-0.5,0.2-1.2-0.1-1.6
							c-0.7-0.8-1.7-1.5-2.7-2.1C218.8,144.5,217.1,143.6,215.2,142.9L215.2,142.9z"/>
					</g>
					<g>
						<path d="M221.9,150.4c-0.4,0-0.8-0.1-1.1-0.4c-0.4-0.1-0.4-0.4-0.5-0.5c0-0.4,0.2-0.6,0.6-0.7c0.4-0.2,0.6-0.1,0.8,0h0.1
							c0.1,0,0.2,0,0.2-0.1v-0.1c-0.4-0.5-0.8-0.7-1.3-1.1c-0.1-0.1-0.2-0.1-0.4-0.2c-1.9-1.2-3.9-2.2-5.7-2.9h-0.1l0.5-1.5h0.1
							c1.7,0.6,3.5,1.6,5.5,2.7l0.2,0.1c0.8,0.6,1.8,1.1,2.5,1.9c0.4,0.4,0.5,1.1,0.2,1.7c-0.2,0.5-0.6,0.8-1.1,1
							C222.4,150.3,222.1,150.4,221.9,150.4z M221.4,149c-0.1,0-0.1,0-0.2,0.1l0,0c-0.2,0.1-0.4,0.4-0.4,0.5c0,0.1,0.1,0.1,0.2,0.2
							l0,0c0.4,0.2,1,0.4,1.5,0.2c0.5-0.1,0.7-0.4,1-0.8c0.1-0.2,0.4-1-0.1-1.5c-0.7-0.7-1.6-1.3-2.4-1.9l-0.2-0.1
							c-1.8-1.1-3.5-1.9-5.2-2.5l-0.4,0.8c1.8,0.7,3.8,1.7,5.7,2.9c0.1,0.1,0.2,0.1,0.4,0.2c0.5,0.4,1,0.7,1.5,1.2l0,0
							c0.1,0.1,0,0.4-0.1,0.5c-0.1,0.1-0.4,0.2-0.6,0.1h-0.1C221.6,149,221.5,149,221.4,149z"/>
					</g>
					<g>
						<line class="st6" x1="220.8" y1="145.8" x2="220.7" y2="147"/>
					</g>
					<g>
						<path d="M220.7,147.3L220.7,147.3c-0.1,0-0.2-0.1-0.2-0.2l0.1-1.2c0-0.1,0.1-0.2,0.2-0.2c0.1,0,0.2,0.1,0.2,0.2l-0.1,1.2
							C220.8,147.2,220.8,147.3,220.7,147.3z"/>
					</g>
					<g>
						<line class="st6" x1="221.8" y1="146.4" x2="221.4" y2="147.6"/>
					</g>
					<g>
						<path d="M221.4,147.8L221.4,147.8c-0.1,0-0.2-0.1-0.2-0.2l0.4-1.2c0-0.1,0.1-0.1,0.2-0.1c0.1,0,0.1,0.1,0.1,0.2l-0.4,1.2
							C221.6,147.8,221.5,147.8,221.4,147.8z"/>
					</g>
					<g>
						<line class="st6" x1="222.8" y1="147.3" x2="222.2" y2="148.1"/>
					</g>
					<g>
						<path d="M222.2,148.4h-0.1c-0.1-0.1-0.1-0.2,0-0.2l0.6-1c0.1-0.1,0.2-0.1,0.2,0c0.1,0.1,0.1,0.2,0,0.2l-0.6,1
							C222.4,148.4,222.2,148.4,222.2,148.4z"/>
					</g>
					<g>
						<line class="st6" x1="223.2" y1="149.5" x2="222.2" y2="149"/>
					</g>
					<g>
						<path d="M223.2,149.7C223.1,149.7,223.1,149.7,223.2,149.7l-1.1-0.5c-0.1,0-0.1-0.2-0.1-0.2c0-0.1,0.2-0.1,0.2-0.1l1,0.5
							c0.1,0,0.1,0.2,0.1,0.2C223.3,149.7,223.2,149.7,223.2,149.7z"/>
					</g>
					<g>
						<line class="st6" x1="223.4" y1="148.5" x2="222.4" y2="148.6"/>
					</g>
					<g>
						<path d="M222.4,148.8c-0.1,0-0.2-0.1-0.2-0.2c0-0.1,0.1-0.2,0.2-0.2l1.1-0.1c0.1,0,0.2,0.1,0.2,0.2s-0.1,0.2-0.2,0.2
							L222.4,148.8L222.4,148.8z"/>
					</g>
					<g>
						<line class="st6" x1="222.1" y1="150.1" x2="222" y2="149.1"/>
					</g>
					<g>
						<path d="M222.1,150.3c-0.1,0-0.2-0.1-0.2-0.2l-0.1-1c0-0.1,0.1-0.2,0.2-0.2c0.1,0,0.2,0.1,0.2,0.2l0.1,1
							C222.2,150.2,222.2,150.3,222.1,150.3L222.1,150.3z"/>
					</g>
					<g>
						<line class="st6" x1="221.6" y1="149" x2="220.8" y2="149.6"/>
					</g>
					<g>
						<path d="M220.8,149.8c-0.1,0-0.1,0-0.1-0.1c-0.1-0.1,0-0.2,0-0.2l0.8-0.6c0.1-0.1,0.2,0,0.2,0c0.1,0.1,0,0.2,0,0.2l-0.8,0.6
							C220.9,149.8,220.8,149.8,220.8,149.8z M219.6,146.7c-0.1,0-0.2-0.1-0.2-0.2v-1.3c0-0.1,0.1-0.2,0.2-0.2s0.2,0.1,0.2,0.2v1.3
							C219.8,146.5,219.7,146.7,219.6,146.7z M218.5,145.9c-0.1,0-0.2-0.1-0.2-0.2v-1.2c0-0.1,0.1-0.2,0.2-0.2s0.2,0.1,0.2,0.2v1.2
							C218.7,145.8,218.6,145.9,218.5,145.9z M217.4,145.2c-0.1,0-0.2-0.1-0.2-0.2v-1.1c0-0.1,0.1-0.2,0.2-0.2s0.2,0.1,0.2,0.2v1.1
							C217.5,145.2,217.5,145.2,217.4,145.2z"/>
					</g>
					<g>
						<path class="st5" d="M214.1,171v2.9h1.8v-1.3h2.4v1.5h1.9v-2.9h-6.2V171z M214.1,175.1v2.9h6.3v-2.9h-1.9v1.5h-2.4v-1.5H214.1
							z"/>
					</g>
					<g>
						<path d="M220.5,178.3h-6.7v-3.4h2.3v1.5h2.1v-1.5h2.4v3.4H220.5z M214.4,177.8h5.8v-2.5h-1.6v1.5h-2.9v-1.5h-1.3V177.8z
							 M220.5,174.2h-2.4v-1.5h-2.1v1.5h-2.3v-3.4h6.7v3.4H220.5z M218.6,173.8h1.6v-2.5h-5.8v2.5h1.5v-1.5h2.9v1.5H218.6z"/>
					</g>
					<g>
						<rect x="220.4" y="158.8" class="st5" width="1.8" height="21.2"/>
					</g>
					<g>
						<path d="M222.5,180.1h-2.2v-21.6h2.2V180.1z M220.7,179.7h1.3V159h-1.3V179.7z"/>
					</g>
					<g>
						<rect x="220.4" y="160.6" class="st5" width="1.8" height="18.2"/>
					</g>
					<g>
						<path d="M222.5,179h-2.2v-18.7h2.2V179z M220.7,178.5h1.3v-17.8h-1.3V178.5z"/>
					</g>
					<g>
						<path class="st5" d="M221.3,153.6l3.9,2.3l-3.9,2.3l-3.9-2.3L221.3,153.6z M216.1,155h-1v1.6h1l5.2,3l5.2-3h1V155h-1l-5.2-3
							L216.1,155z"/>
					</g>
					<g>
						<path d="M221.3,159.9l-5.2-3h-1.2v-2.1h1.2l5.2-3l5.2,3h1.2v2.1h-1.2L221.3,159.9z M215.3,156.4h0.8l5.1,2.9l5.1-2.9h0.8v-1.2
							h-0.7l-5.1-2.9l-5.1,2.9h-0.8v1.2H215.3z M221.3,158.3l-4.2-2.5l4.2-2.5l4.2,2.5L221.3,158.3z M217.9,155.9l3.4,1.9l3.4-1.9
							l-3.4-1.9L217.9,155.9z"/>
					</g>
					<g>
						<path class="st5" d="M221.3,148c-0.8,0.1-1.6,1-1.5,1.8c0,1.3,0,2.7,0,4.1c0,0.8,0.8,1.7,1.7,1.7c0.7,0,1.5-0.4,1.7-1
							c-0.2-0.1-0.4-0.2-0.6-0.4c-0.1,0.5-0.6,0.7-1.1,0.6c-0.6,0-1.1-0.6-1.1-1.2c0-1.3,0-2.7,0-4.1c0-0.6,0.6-1,1.1-1
							c0.2,0,0.6,0.2,0.7,0c0.2-0.2-0.1-0.6-0.4-0.7C221.6,148,221.4,148.1,221.3,148L221.3,148z M223.3,149.5
							c-0.1,0.2-0.5,0.5-0.7,0.6v2.8c0.2,0.1,0.5,0.2,0.7,0.5c0-1.2,0-2.3,0-3.5C223.3,149.6,223.3,149.6,223.3,149.5L223.3,149.5z"
							/>
					</g>
					<g>
						<path d="M221.6,155.9h-0.1l0,0c-1,0-1.8-0.8-1.9-1.8v-4.1c0-1,0.7-1.9,1.7-2.1l0,0l0,0c0.1,0,0.2,0,0.4,0c0.1,0,0.1,0,0.2,0
							h0.1l0.1,0.1c0.2,0.1,0.6,0.5,0.4,1c-0.1,0.4-0.5,0.2-0.6,0.1h-0.1l0,0l0,0c-0.2,0-0.5,0-0.6,0.2c-0.1,0.1-0.2,0.4-0.2,0.6v4
							c0,0.2,0.1,0.5,0.2,0.7c0.1,0.1,0.4,0.2,0.5,0.2c0.4,0,0.7-0.2,0.8-0.5l0.1-0.2l0.2,0.1c0.1,0.1,0.2,0.1,0.4,0.2
							c0.1,0,0.1,0.1,0.2,0.1l0.1,0.1l-0.1,0.1C223.1,155.5,222.4,155.9,221.6,155.9z M221.3,148.2c-0.8,0.1-1.3,1-1.3,1.7v4.1
							c0,0.7,0.7,1.5,1.5,1.5c0.6,0,1.2-0.2,1.5-0.7l0,0c-0.1,0-0.1-0.1-0.2-0.1c-0.2,0.4-0.7,0.6-1.2,0.6c-0.2,0-0.6-0.1-0.8-0.4
							c-0.2-0.2-0.4-0.6-0.4-1.1v-4c0-0.4,0.1-0.6,0.5-0.8c0.2-0.2,0.6-0.4,0.8-0.2c0.1,0,0.2,0,0.4,0h0.1l0,0l0,0
							c0-0.1,0-0.1-0.2-0.4h-0.1C221.5,148.2,221.4,148.2,221.3,148.2z M223.6,153.6l-0.4-0.2c-0.1-0.1-0.2-0.1-0.4-0.2
							c-0.1-0.1-0.2-0.1-0.4-0.2l-0.1-0.1v-3l0.1-0.1c0.2-0.1,0.5-0.2,0.6-0.5l0.2-0.4l0.2,0.4c0,0.1,0,0.2,0,0.4L223.6,153.6
							L223.6,153.6z M222.8,152.7c0.1,0,0.1,0.1,0.2,0.1l0,0v-2.8c-0.1,0.1-0.2,0.1-0.2,0.2V152.7z"/>
					</g>
					<g>
						<rect x="215.9" y="102.2" width="10.7" height="19.4"/>
					</g>
					<g>
						<path class="st2" d="M215.2,102.2v16.2h3.4v-4.8c0-1.1,0.7-2.7,2.9-2.7c2.2,0,2.9,1.6,2.9,2.7v4.8h3.4v-16.2H215.2z
							 M220.9,104h1.1v5.6h-1.1V104z M217.9,105.1h1.1v4.1h-1.1V105.1z M223.9,105.1h1.1v4.1h-1.1V105.1z"/>
					</g>
					<g>
						<path d="M227.9,118.7h-3.9v-5c0-0.8-0.6-2.4-2.7-2.4c-2.1,0-2.7,1.6-2.7,2.4v5H215v-16.6h13L227.9,118.7L227.9,118.7z
							 M224.5,118.2h3v-15.8h-12.1v15.8h2.9v-4.6c0-1.1,0.6-2.9,3.2-2.9c2.4,0,3.2,1.8,3.2,2.9v4.6H224.5z M222.2,109.8h-1.5v-5.9
							h1.5V109.8z M221.1,109.3h0.6v-5.1h-0.6V109.3z M225.3,109.5h-1.5V105h1.5V109.5z M224.2,109h0.6v-3.6h-0.6V109z M219.2,109.5
							h-1.5V105h1.5V109.5z M218.1,109h0.6v-3.6h-0.6V109z"/>
					</g>
					<g>
						<rect x="214" y="99.9" class="st2" width="14.9" height="2.3"/>
					</g>
					<g>
						<path d="M229.1,102.4h-15.3v-2.7h15.3V102.4z M214.2,102h14.4V100h-14.4V102z"/>
					</g>
					<g>
						<path class="st2" d="M212.7,97.2v2.7h17.7v-2.7h-2.2v1.5h-2.5v-1.5h-2.9v1.5h-2.5v-1.5h-2.9v1.5h-2.5v-1.5H212.7z"/>
					</g>
					<g>
						<path d="M230.5,100.1h-18.1V97h2.7v1.5h2.1V97h3.3v1.5h2.1V97h3.3v1.5h2.1V97h2.7L230.5,100.1L230.5,100.1z M212.8,99.7h17.3
							v-2.2h-1.8v1.5h-2.9v-1.5H223v1.5h-2.9v-1.5h-2.4v1.5h-2.9v-1.5h-1.8v2.2H212.8z"/>
					</g>
					<g>
						<rect x="209.4" y="123.9" class="st2" width="24.2" height="1.7"/>
					</g>
					<g>
						<path d="M233.7,125.8h-24.6v-2.1h24.6V125.8z M209.6,125.3h23.7v-1.2h-23.7V125.3z"/>
					</g>
					<g>
						<path class="st2" d="M208.4,118.4v5.5h26.2v-5.5h-2.4v2.1h-3.3v-2.1h-4.5v2.1h-5.8v-2.1h-4.5v2.1h-3.3v-2.1H208.4z"/>
					</g>
					<g>
						<path d="M234.7,124.1h-26.5v-5.8h2.9v2.1h2.9v-2.1h4.8v2.1h5.3v-2.1h4.8v2.1h2.9v-2.1h2.9v5.8H234.7z M208.5,123.6h25.8v-5
							h-2.1v2.1h-3.8v-2.1h-4v2.1h-6.2v-2.1h-4v2.1h-3.8v-2.1h-2.1C208.5,118.7,208.5,123.6,208.5,123.6z"/>
					</g>
					<g>
						<path class="st2" d="M211.6,125.6v19.8h4.6v-7.4c0-3.5,2.3-5.1,5.2-5.1c2.8,0,5.2,1.7,5.2,5.1v7.4h4.6v-19.8H211.6z"/>
					</g>
					<g>
						<path d="M231.4,145.6h-4.6c-0.1,0-0.2-0.1-0.2-0.2v-7.4c0-3.6-2.7-5-5.1-5c-3.2,0-5.1,1.8-5.1,5v7.4c0,0.1-0.1,0.2-0.2,0.2
							h-4.6c-0.1,0-0.2-0.1-0.2-0.2v-19.8c0-0.1,0.1-0.2,0.2-0.2h19.9c0.1,0,0.2,0.1,0.2,0.2v19.8
							C231.6,145.5,231.6,145.6,231.4,145.6z M227,145.1h4.2v-19.4h-19.4v19.4h4.2v-7.1c0-3.3,2.1-5.3,5.5-5.3
							c3.3,0,5.5,2.1,5.5,5.3V145.1z"/>
					</g>
					<g>
						<rect x="128.3" y="178.8" class="st2" width="186.4" height="103.5"/>
					</g>
				</g>
			</g>
			<g>
				<defs>
					<path id="SVGID_8_" d="M198,218.4c-1.1-3-3.9-4.8-5.6-7.8c1.5-0.6,2.4,0.4,3.5,0.6c1.9,0.5,2.7-0.2,2.8-2.1
						c0.1-1.9-1.5-4-3.4-4.6c-1.1-0.4-1.6,0.5-2.2,1c-1.8,1.3-2.5,1.2-3-1c-1-4.5-2.5-8.6-5.9-11.9c-1.7-1.7-2.8-4.1-4.2-6.1
						c-1.2-1.6-2.4-2.9-4.2-3.8c-0.6-0.2-1.2-0.7-1.6-1.5c-1.9-5-5.9-8.6-9-12.8c-6.7-9.1-13.3-17.9-20.1-26.9
						c-0.8-1.2-0.7-1.8,0.7-2.7c2.8,3.6,5.7,7.3,8.5,11c8,10.4,16.1,21,24.1,31.4c1.2,1.5,3.2,1.8,4,0.4c1.3-2.4,3.6-3.4,5.7-4.8
						c2.7-2.1,2.8-2.1,1.7-5.2c-2.1-5.8-4-11.8-6.2-17.6c-0.6-1.8-0.2-2.8,1.3-3.5c1.6-0.7,3-1.5,4.6-2.2c0.8-0.4,1.6-0.7,1.5-1.8
						s-0.2-2.2-1.3-2.7c-0.5-0.2-1.1-0.4-1.3-0.6c-1.6-2.8-3.8-1.6-5.9-1.1c-1.2,0.2-2.8,1.3-3.4-0.2c-0.6-1.7,1.3-2.1,2.5-2.4
						c2.2-0.8,4.4-1.5,6.9-2.2c-2.2-8.7-5.9-16.7-10.3-24.4c-1.1,0.2-2.2,0.7-3,1.3c1,2.3,1.9,4.6,2.9,6.8c0.4,1,1,2.1,0,2.9
						c-1,1-2.2,0.4-3.2,0s-1.6-1.3-1.8-2.4c-1-4.1-2.1-8.4-3.2-12.5c-0.1-0.6-0.2-1.1,0-1.7c0.1,0,0.4-0.1,0.4,0
						c1.7,2.2,3.6,2.7,6.1,1.2c0.7-0.5,1.5,0,2.1,0.6c0.5,0.5,0.8,1.1,1.8,1v-2.9c-1.7-0.5-3.4-0.1-5-0.2c-2.2-0.1-3.5-1.1-3.9-3.4
						c-0.6-4.1-2.7-7.4-5.2-10.4c-1.9-2.3-4.2-4.1-7-5.2c-2.2-0.8-3-2.3-2.9-4.7c0.2-4.2,0.1-8.5,0-12.7c0-1.9,0.7-2.7,2.5-2.9
						c0.7-0.1,1.6-0.2,2.3-0.5c0.8-0.2,1.7-0.2,2.1-1.2c0.1-0.6-0.2-0.8-0.6-1.2c-0.8-1-1.6,0-2.3,0.2c-1.7-1.8-1-4.4-1.8-6.4
						c-0.6-0.4-1.2-0.2-1.9-0.1c-0.6,1.7,0.1,3.5-0.4,5.2c-1.1-0.2-1.1-0.2-1.7-5l-2.3,0.2c0,0.6,0,1.3-0.1,1.9
						c-0.2,1.2,0.7,3-1.7,3.2c-3,0.1-3.8-0.2-4.2-2.8c-0.1-0.8-0.4-1.7-0.5-2.4c-0.6-0.2-1.3-0.4-2.1-0.1c-1.6,1.3,1.2,4.2-2.2,5.1
						v-4.1c-0.7-0.5-1.3-0.4-2.2,0c-0.5,7.3-0.2,14.7-0.4,21.9c-0.7,0.7-1.5,0.4-2.2,0.5V56.4c3.5,0.5,2.9-2.3,3.5-4.1
						c0.5-0.5,1.1-0.2,1.6-0.2c9.3,0,18.7-0.2,28,0.5c4.8,0.5,9.8,1.3,13.3,5.6c1.6,1.9,3.6,3.5,5.6,5.5c0.8-1,1.8-1.8,3.2-1.9
						c0.6,0,1.3-0.5,1.3-1.2c-0.1-1.8,0.8-2.2,2.7-1.8c0-4.1-0.5-8-0.8-12.2l-30,1.1v-8.5c1.7,0.1,3.5,0.2,5.3,0.2
						c2.7,0,3.6-0.7,4.4-3.3c0.2-1,0.7-1.8,1.8-2.1c1.1,0.6,0.5,1.5,0.2,2.3c-0.2,1.6,0.1,2.4,1.9,2.3c8.1-0.6,16.4-0.4,24.5-0.6
						c1,0,2.1,0.2,2.5-1.1c0.4-1.2-0.1-2.2-1-3c-2.4-2.4-2.5-2.4-1-5.6c0.6-1.3,0.6-2.3-0.2-3.5c-1.1-1.5-2.2-3-2.7-4.7
						c0.6-0.8,1.5-0.5,2.2-0.6c9.3-0.1,18.5-0.7,27.9-0.5c1,0,1.9,0.2,2.9,0.6c8.7,3.9,17.4,7.8,26.2,11.6c1.2,0.6,1.8,1.1,1.5,2.7
						c-0.6,2.7-0.8,5.5-1.2,8.2l2.3,1.5c-2.2,0.2-2.7,1.6-3,3.2c-0.5,2.5-1,5-1.6,7.5c-0.4,1.8-0.1,3.4,1.8,4.1
						c0.5,0.2,1.1,0.4,1.3,1c-0.4,1.3-1.2,0.5-1.8,0.2c-1.7-0.6-2.3-0.2-2.3,1.7c0,2.9-0.5,5.8-0.1,8.7c0.2,1.6,1,2.4,2.3,2.5
						c2.2,0.1,2.9,1.3,3.3,3.4c1.2,7,1,13.9-2.2,20.5c-1.6,3.3-2.1,7-4,10.4c-1.7-1.1-2.7-0.5-3.2,1.2c-0.5,1.6-1.2,3.2-1.6,4.8
						c-0.4,1.3-0.2,2.7,0.7,4c1.6,2.2,2.2,4.6,1.2,7.4c-0.5,1.2-1.2,2.5,0.5,3.6c0.6,0.5,0.2,1.2-0.2,1.7c-0.8,0.7-1.1,1.9-0.4,2.9
						c1.3,1.9,0.7,3.8-0.1,5.6c-0.5,1.1-0.8,2.1,0,3.2c0.1,0.2,0.2,0.5,0.2,0.8c-1.1,2.3-0.4,5-1.6,7.4c-2.3,4.2-4.1,9.2-3.2,13.8
						c1,5.1,0,10.9,4.5,15.3c3,2.9,2.8,6.4,0.4,9.8c-0.8,1.2-0.5,2.8-0.1,4.1c0.5,2.1,0.2,4.1-0.7,5.9c-1.2,2.4-2.2,5-3.8,7.1
						c-1.7,2.4-2.3,5.1-2.5,8c-0.1,1.7-0.2,3.5-0.6,5.2c-0.8,4.1-0.5,8.1,1.5,11.9c0.5,1,0,1.7-0.2,2.4c-1.3,3.4-2.7,6.9-4.2,10.2
						c-1.3,2.8-1.7,5.7-1.6,8.7c0.2,3.6-0.5,7-3.2,9.8c-1.1,1.1-1.7,2.7-2.4,4c-1.9,2.9-2.4,5.9-1.3,9.3c0.2,0.7,0.4,1.6,0.4,2.3
						c0,0.8-0.1,1.7-1.3,1.8c-1.3,0.2-2.4,1-3.4,2.1c-0.8,1.1-2.2,1.6-3.4,1.2c-5.1-1.6-9.9-3.6-14.1-7.1c-4.4-3.6-4.1-8.5-4.1-13.3
						c0-3.6,0.8-7.1,2.9-10.3c0.8-1.2,1-2.9,0.2-4.2c-0.7-1.5-1.6-2.9-2.4-4.2c-0.7-1.2-1.3-2.5-1.3-4c0-4.1-1.3-7.9-3.3-11.5
						c-0.4-0.6-0.8-1.3-0.6-2.2C204.4,221.3,202.1,218.5,198,218.4z"/>
				</defs>
				<clipPath id="SVGID_9_">
					<use xlink:href="#SVGID_8_"  style="overflow:visible;"/>
				</clipPath>
				<rect x="60" y="13.5" class="st7" width="235.1" height="79.2"/>
			</g>
		</g>
	</g>
	<g>
		<g id="SVGID_1_">
			<g>
				<path d="M226.6,18.8c1.3,0,2.7,0,4.1,0c1,0,1.9,0.2,2.9,0.6c8.7,3.9,17.4,7.8,26.2,11.6c1.2,0.6,1.8,1.1,1.5,2.7
					c-0.6,2.7-0.8,5.5-1.2,8.2l2.3,1.5c-2.2,0.2-2.7,1.6-3,3.2c-0.5,2.5-1,5-1.6,7.5c-0.4,1.8-0.1,3.4,1.8,4.1
					c0.5,0.2,1.1,0.4,1.3,1c-0.1,0.6-0.5,0.7-0.7,0.7c-0.4,0-0.7-0.4-1.1-0.5c-0.5-0.1-0.8-0.2-1.2-0.2c-0.8,0-1.2,0.6-1.2,1.9
					c0,2.9-0.5,5.8-0.1,8.7c0.2,1.6,1,2.4,2.3,2.5c2.2,0.1,2.9,1.3,3.3,3.4c1.2,7,1,13.9-2.2,20.5c-1.6,3.3-2.1,7-4,10.4
					c-0.6-0.4-1.1-0.5-1.5-0.5c-0.8,0-1.3,0.6-1.7,1.7c-0.5,1.6-1.2,3.2-1.6,4.8c-0.4,1.3-0.2,2.7,0.7,4c1.6,2.2,2.2,4.6,1.2,7.4
					c-0.5,1.2-1.2,2.5,0.5,3.6c0.6,0.5,0.2,1.2-0.2,1.7c-0.8,0.7-1.1,1.9-0.4,2.9c1.3,1.9,0.7,3.8-0.1,5.6c-0.5,1.1-0.8,2.1,0,3.2
					c0.1,0.2,0.2,0.5,0.2,0.8c-1.1,2.3-0.4,5-1.6,7.4c-2.3,4.2-4.1,9.2-3.2,13.8c1,5.1,0,10.9,4.5,15.3c3,2.9,2.8,6.4,0.4,9.8
					c-0.8,1.2-0.5,2.8-0.1,4.1c0.5,2.1,0.2,4.1-0.7,5.9c-1.2,2.4-2.2,5-3.8,7.1c-1.7,2.4-2.3,5.1-2.5,8c-0.1,1.7-0.2,3.5-0.6,5.2
					c-0.8,4.1-0.5,8.1,1.5,11.9c0.5,1,0,1.7-0.2,2.4c-1.3,3.4-2.7,6.9-4.2,10.2c-1.3,2.8-1.7,5.7-1.6,8.7c0.2,3.6-0.5,7-3.2,9.8
					c-1.1,1.1-1.7,2.7-2.4,4c-1.9,2.9-2.4,5.9-1.3,9.3c0.2,0.7,0.4,1.6,0.4,2.3c0,0.8-0.1,1.7-1.3,1.8c-1.3,0.2-2.4,1-3.4,2.1
					c-0.7,0.8-1.6,1.3-2.5,1.3c-0.2,0-0.6,0-0.8-0.1c-5.1-1.6-9.9-3.6-14.1-7.1c-4.4-3.6-4.1-8.5-4.1-13.3c0-3.6,0.8-7.1,2.9-10.3
					c0.8-1.2,1-2.9,0.2-4.2c-0.7-1.5-1.6-2.9-2.4-4.2c-0.7-1.2-1.3-2.5-1.3-4c0-4.1-1.3-7.9-3.3-11.5c-0.4-0.6-0.8-1.3-0.6-2.2
					c0.7-4-1.6-6.8-5.7-6.9c-1.1-3-3.9-4.8-5.6-7.8c0.4-0.1,0.6-0.1,1-0.1c1,0,1.7,0.6,2.7,0.8c0.4,0.1,0.7,0.1,1,0.1
					c1.2,0,1.7-0.7,1.8-2.2c0.1-1.9-1.5-4-3.4-4.6c-0.1,0-0.4,0-0.5,0c-0.7,0-1.2,0.6-1.7,1c-0.7,0.6-1.3,0.8-1.8,0.8
					c-0.6,0-1-0.6-1.2-1.8c-1-4.5-2.5-8.6-5.9-11.9c-1.7-1.7-2.8-4.1-4.2-6.1c-1.2-1.6-2.4-2.9-4.2-3.8c-0.6-0.2-1.2-0.7-1.6-1.5
					c-1.9-5-5.9-8.6-9-12.8c-6.7-9.1-13.3-17.9-20.1-26.9c-0.8-1.2-0.7-1.8,0.7-2.7c2.8,3.6,5.7,7.3,8.5,11
					c8,10.4,16.1,21,24.1,31.4c0.6,0.8,1.6,1.3,2.3,1.3c0.6,0,1.2-0.4,1.6-1c1.3-2.4,3.6-3.4,5.7-4.8c2.7-2.1,2.8-2.1,1.7-5.2
					c-2.1-5.8-4-11.8-6.2-17.6c-0.6-1.8-0.2-2.8,1.3-3.5c1.6-0.7,3-1.5,4.6-2.2c0.8-0.4,1.6-0.7,1.5-1.8c-0.1-1.1-0.2-2.2-1.3-2.7
					c-0.5-0.2-1.1-0.4-1.3-0.6c-0.7-1.3-1.7-1.8-2.7-1.8c-1.1,0-2.2,0.5-3.3,0.7c-0.7,0.1-1.6,0.6-2.2,0.6c-0.5,0-0.8-0.2-1.1-0.8
					c-0.6-1.7,1.3-2.1,2.5-2.4c2.2-0.8,4.4-1.5,6.9-2.2c-2.2-8.7-5.9-16.7-10.3-24.4c-1.1,0.2-2.2,0.7-3,1.3c1,2.3,1.9,4.6,2.9,6.8
					c0.4,1,1,2.1,0,2.9c-0.4,0.4-0.8,0.5-1.2,0.5c-0.6,0-1.3-0.2-1.9-0.6c-1-0.4-1.6-1.3-1.8-2.4c-1-4.1-2.1-8.4-3.2-12.5
					c-0.1-0.6-0.2-1.1,0-1.7c0.1,0,0.2,0,0.4,0l0,0c1,1.3,2.2,2.1,3.5,2.1c0.8,0,1.7-0.2,2.5-0.7c0.2-0.1,0.5-0.1,0.6-0.1
					c0.5,0,1.1,0.4,1.5,0.8c0.4,0.5,0.7,1,1.6,1c0.1,0,0.2,0,0.4,0v-2.9c-0.6-0.2-1.3-0.2-1.9-0.2c-0.7,0-1.6,0-2.3,0
					c-0.2,0-0.5,0-0.7,0c-2.2-0.1-3.5-1.1-3.9-3.4c-0.6-4.1-2.7-7.4-5.2-10.4c-1.9-2.3-4.2-4.1-7-5.2c-2.2-0.8-3-2.3-2.9-4.7
					c0.2-4.2,0.1-8.5,0-12.7c0-1.9,0.7-2.7,2.5-2.9c0.7-0.1,1.6-0.2,2.3-0.5c0.8-0.2,1.7-0.2,2.1-1.2c0.1-0.6-0.2-0.8-0.6-1.2
					c-0.2-0.2-0.5-0.4-0.7-0.4c-0.5,0-1,0.5-1.6,0.6c-1.7-1.8-1-4.4-1.8-6.4c-0.4-0.1-0.6-0.2-1-0.2s-0.6,0-1.1,0.1
					c-0.6,1.7,0.1,3.5-0.4,5.2c-1.1-0.2-1.1-0.2-1.7-5l-2.3,0.2c0,0.6,0,1.3-0.1,1.9c-0.2,1.2,0.7,3-1.7,3.2c-0.4,0-0.7,0-1,0
					c-2.3,0-2.8-0.6-3.3-2.9c-0.1-0.8-0.4-1.7-0.5-2.4c-0.4-0.1-0.8-0.2-1.2-0.2c-0.2,0-0.6,0-0.8,0.1c-1.6,1.3,1.2,4.2-2.2,5.1V60
					c-0.4-0.2-0.7-0.4-1.1-0.4s-0.7,0.1-1.2,0.2c-0.5,7.3-0.2,14.7-0.4,21.9c-0.4,0.4-0.7,0.5-1.1,0.5c-0.2,0-0.6,0-0.8,0h-0.1V56.4
					c0.2,0,0.6,0,0.8,0c2.7,0,2.2-2.4,2.8-4.1c0.2-0.2,0.6-0.2,0.8-0.2s0.5,0,0.7,0c3.9,0,7.6,0,11.5,0c5.6,0,11,0.1,16.6,0.6
					c4.8,0.5,9.8,1.3,13.3,5.6c1.6,1.9,3.6,3.5,5.6,5.5c0.8-1,1.8-1.8,3.2-1.9c0.6,0,1.3-0.5,1.3-1.2c-0.1-1.5,0.6-1.9,1.7-1.9
					c0.2,0,0.6,0,1,0.1c0-4.1-0.5-8-0.8-12.2l-30,1.1v-8.5c1.7,0.1,3.5,0.2,5.3,0.2h0.1c2.5,0,3.5-0.7,4.1-3.3
					c0.2-1,0.7-1.8,1.8-2.1c1.1,0.6,0.5,1.5,0.2,2.3c-0.2,1.5,0,2.3,1.7,2.3c0.1,0,0.2,0,0.2,0c8.1-0.6,16.4-0.4,24.5-0.6h0.1
					c0.1,0,0.4,0,0.6,0c0.7,0,1.5-0.1,1.8-1.1c0.4-1.2-0.1-2.2-1-3c-2.4-2.4-2.5-2.4-1-5.6c0.6-1.3,0.6-2.3-0.2-3.5
					c-1.1-1.5-2.2-3-2.7-4.7c0.4-0.5,0.8-0.6,1.3-0.6c0.2,0,0.6,0,0.7,0h0.1C210.7,19.2,218.7,18.8,226.6,18.8 M226.6,17.6
					c-4.6,0-9.3,0.1-13.9,0.2c-3.3,0.1-6.7,0.2-9.9,0.2l0,0l0,0c-0.1,0-0.2,0-0.4,0s-0.2,0-0.5,0c-0.4,0-1.5,0-2.2,1
					c-0.2,0.2-0.2,0.6-0.2,1c0.5,1.9,1.6,3.5,2.8,5.2c0.6,0.8,0.6,1.3,0.1,2.3c-0.8,1.6-1.3,2.7-1.2,3.8c0.2,1.1,1,1.8,2.3,3.2
					c0.8,0.8,0.8,1.5,0.7,1.9c0,0.2-0.1,0.2-0.7,0.2c-0.1,0-0.1,0-0.2,0s-0.2,0-0.2,0s-0.1,0-0.2,0c-3.2,0.1-6.3,0.1-9.5,0.1
					c-5,0-10.1,0.1-15,0.5c-0.1,0-0.1,0-0.2,0c-0.4,0-0.5,0-0.5-0.1c0,0-0.1-0.2,0-0.8c0-0.1,0-0.2,0.1-0.4c0.2-0.6,0.7-2.2-1-3.2
					c-0.1-0.1-0.4-0.1-0.6-0.1c-0.1,0-0.2,0-0.2,0c-1.8,0.5-2.4,1.8-2.7,2.9l0,0c-0.6,2.1-1.1,2.4-3,2.4H170c-1.2,0-2.5-0.1-3.8-0.1
					c-0.5,0-1.1,0-1.6-0.1l0,0c-0.2,0-0.6,0.1-0.8,0.4c-0.2,0.2-0.4,0.5-0.4,0.8v8.5c0,0.4,0.1,0.6,0.4,0.8c0.2,0.2,0.5,0.4,0.8,0.4
					l0,0l29-1.1c0,0.6,0.1,1.1,0.1,1.6c0.2,2.8,0.6,5.5,0.6,8.2c-0.8,0-1.6,0.2-1.9,0.8c-0.5,0.6-0.7,1.3-0.7,2.3h-0.1
					c-1.3,0-2.4,0.7-3.2,1.5c-0.4-0.4-0.7-0.6-1.1-1c-1.3-1.2-2.5-2.3-3.5-3.5c-3.9-4.7-9.3-5.6-14.1-6.1
					c-5.9-0.5-11.8-0.6-16.6-0.6c-2.2,0-4.4,0-6.5,0c-1.7,0-3.3,0-5,0c0,0-0.1,0-0.2,0s-0.2,0-0.5,0s-1,0-1.7,0.6
					c-0.1,0.1-0.2,0.2-0.2,0.5c-0.1,0.5-0.2,1.1-0.4,1.6c-0.2,1.7-0.5,1.8-1.3,1.8c-0.2,0-0.4,0-0.6,0h-0.1c-0.2,0-0.6,0.1-0.7,0.2
					c-0.2,0.2-0.4,0.6-0.4,0.8v25.3c0,0.4,0.1,0.6,0.4,0.8c0.2,0.2,0.5,0.4,0.7,0.4c0,0,0,0,0.1,0l0,0c0.1,0,0.2,0,0.4,0
					c0.1,0,0.4,0,0.5,0c0.7,0,1.5-0.2,1.9-0.8c0.2-0.2,0.4-0.5,0.4-0.8c0-2.2,0-4.4,0-6.5c0-4.5,0-9.1,0.2-13.7v2.5
					c0,0.4,0.1,0.7,0.5,0.8c0.2,0.1,0.5,0.2,0.7,0.2c0.1,0,0.1,0,0.2,0c3-0.7,2.8-2.9,2.7-4.1c0-0.6-0.1-0.8,0-1.1h0.1
					c0,0,0.1,0,0.2,0c0,0.1,0,0.2,0.1,0.4c0.1,0.5,0.1,1,0.2,1.3c0.5,2.9,1.6,3.8,4.4,3.8c0.2,0,0.6,0,1.1,0
					c2.9-0.1,2.9-2.4,2.8-3.4c0-0.2,0-0.6,0-0.7l0,0c0-0.4,0.1-0.6,0.1-1.1h0.2c0.2,1.8,0.4,2.7,0.6,3.3c0.5,1.2,1.2,1.5,1.9,1.6
					c0,0,0.1,0,0.2,0c0.5,0,1-0.4,1.1-0.8c0.4-1,0.2-2.1,0.1-2.9c0-0.6-0.1-1.1,0-1.6c0,0,0,0,0.1,0l0,0c0.1,0.5,0.2,1.1,0.2,1.7
					c0.1,1.5,0.4,3.2,1.6,4.6c0.2,0.2,0.6,0.4,0.8,0.4c0.1,0,0.2,0,0.4,0c0.4-0.1,0.6-0.2,0.8-0.4c0.1,0,0.2-0.1,0.2-0.1l0.1,0.1
					l0.1,0.1c-0.4,0.4-0.5,0.4-1,0.5c-0.1,0-0.2,0-0.5,0.1c-0.7,0.2-1.3,0.4-2.1,0.5c-2.4,0.2-3.6,1.7-3.5,4.1
					c0.1,4.1,0.2,8.5,0,12.7c-0.1,2.9,1.1,4.8,3.6,5.8c2.4,1,4.6,2.5,6.7,4.8c2.9,3.4,4.5,6.5,5,9.9c0.4,2.4,1.7,3.8,4.1,4.2
					c-0.2,0-0.4,0-0.6,0c-1,0-1.7-0.5-2.5-1.6c0,0,0-0.1-0.1-0.1c-0.2-0.2-0.6-0.4-0.8-0.4c-0.1,0-0.2,0-0.4,0l0,0
					c-0.4,0-0.7,0.2-1,0.6c-0.5,1-0.2,1.8-0.1,2.4c1.1,4.1,2.2,8.4,3.2,12.5c0.4,1.6,1.2,2.7,2.5,3.3h0.1c0.6,0.2,1.3,0.6,2.2,0.6
					c0.7,0,1.5-0.2,2.1-0.8c1.5-1.3,0.7-3,0.4-4c0-0.1,0-0.1-0.1-0.2l-2.4-5.9c0.4-0.1,0.7-0.4,1.1-0.5c4.6,8.1,7.5,15.3,9.5,22.2
					c-0.2,0.1-0.6,0.1-0.8,0.2c-1.7,0.6-3.4,1.1-5.1,1.7c-0.1,0-0.2,0.1-0.5,0.1c-1,0.4-2.2,0.7-2.7,1.8c-0.2,0.4-0.4,1.1-0.1,1.9
					l0,0c0.4,1.1,1.2,1.7,2.2,1.7c0.6,0,1.2-0.2,1.8-0.5c0.2-0.1,0.5-0.1,0.6-0.2c0.4-0.1,0.7-0.2,1-0.2c0.7-0.2,1.5-0.5,1.9-0.5
					s1.1,0.1,1.7,1.2l0,0c0.4,0.6,1,0.8,1.5,1c0.1,0,0.2,0.1,0.4,0.1c0.5,0.2,0.6,0.6,0.7,1.7l0,0c0,0.1,0,0.1,0,0.1
					c0,0.1-0.5,0.2-0.7,0.4h-0.1c-1.1,0.5-2.3,1.1-3.3,1.6c-0.5,0.2-0.8,0.4-1.3,0.6c-2.2,1.1-2.8,2.7-1.9,5
					c1.7,4.5,3.3,9.1,4.7,13.4c0.5,1.3,1,2.8,1.5,4.1c0.4,1.1,0.7,2.1,0.6,2.3c-0.1,0.4-0.8,0.8-1.8,1.6c-0.5,0.4-1,0.7-1.6,1.1
					c-1.7,1.1-3.4,2.2-4.5,4.2c-0.1,0.2-0.4,0.4-0.6,0.4c-0.5,0-1.1-0.4-1.5-0.8c-8-10.4-16.2-21.1-24.1-31.4
					c-2.1-2.7-4.1-5.3-6.1-8c-0.8-1.1-1.6-2.1-2.4-3c-0.2-0.2-0.6-0.5-1-0.5c-0.1,0-0.4,0-0.5,0.1c-0.7,0.4-1.6,1-1.8,1.9
					s0.4,1.8,0.7,2.4c6.2,8.2,13.3,17.6,20.1,26.9c1,1.3,2.1,2.5,3,3.8c2.3,2.8,4.6,5.5,5.8,8.7c0,0,0,0,0,0.1
					c0.5,1,1.2,1.7,2.2,2.1c1.3,0.6,2.5,1.7,3.9,3.4c0.5,0.7,1,1.5,1.5,2.2c0.8,1.3,1.7,2.8,2.9,4c2.8,2.7,4.5,6.1,5.7,11.4
					c0.1,0.7,0.6,2.8,2.3,2.8c0.7,0,1.5-0.4,2.4-1.1c0.2-0.1,0.4-0.4,0.5-0.5c0.2-0.2,0.4-0.4,0.5-0.4h0.1c1.5,0.4,2.7,2.1,2.5,3.4
					c-0.1,1.1-0.4,1.1-0.7,1.1c-0.2,0-0.5,0-0.7-0.1c-0.2,0-0.5-0.1-0.7-0.2c-0.6-0.2-1.2-0.6-2.1-0.6c-0.5,0-0.8,0.1-1.3,0.2
					c-0.4,0.1-0.6,0.4-0.6,0.7c-0.1,0.4-0.1,0.6,0.1,1c0.7,1.3,1.7,2.4,2.7,3.5c1.2,1.3,2.3,2.5,2.8,4.1c0.1,0.5,0.6,0.7,1.1,0.7
					c1.7,0,3,0.6,3.8,1.6c0.8,1,1.1,2.3,0.7,4c-0.2,1.2,0.2,2.1,0.6,2.8c0,0,0,0.1,0.1,0.1c2.2,4,3.2,7.4,3.2,10.9
					c0,1.8,0.7,3.4,1.5,4.6l0.1,0.2c0.7,1.2,1.6,2.5,2.2,3.9l0,0c0.5,1,0.5,2.2-0.1,3l0,0c-2.1,3.2-3,6.8-3,10.9v0.6
					c0,4.8,0,9.8,4.6,13.6c4.7,4,10.3,6.1,14.5,7.4l0,0c0.4,0.1,0.7,0.1,1.2,0.1c1.3,0,2.5-0.6,3.5-1.7c0.8-1,1.7-1.5,2.7-1.7
					c1.6-0.2,2.3-1.2,2.3-2.9c0-0.8-0.1-1.8-0.4-2.7l0,0c-1-2.9-0.6-5.6,1.2-8.4c0.4-0.5,0.6-1,0.8-1.6c0.5-0.8,1-1.7,1.5-2.3
					c2.7-2.8,3.8-6.3,3.4-10.7c-0.2-3,0.2-5.7,1.5-8.1c1.6-3.4,3-6.9,4.4-10.2c0-0.1,0-0.1,0.1-0.2c0.4-0.7,0.7-1.8,0.1-3.2
					c-1.8-3.4-2.3-7-1.3-11.1c0.4-1.5,0.4-2.9,0.5-4.2c0-0.4,0-0.7,0.1-1.1c0.2-3.3,1-5.5,2.3-7.4c1.2-1.7,2.1-3.5,2.9-5.3
					c0.2-0.6,0.6-1.3,1-1.9c1.1-2.1,1.3-4.5,0.8-6.8l0,0c-0.2-1.2-0.6-2.3,0-3.2c2.9-4.1,2.8-8.2-0.5-11.4c-3-2.9-3.3-6.4-3.6-10.3
					c-0.1-1.5-0.2-2.9-0.5-4.4c-0.7-3.6,0.2-8,3-13.1c0.7-1.5,0.8-2.9,1-4.2c0.1-1.1,0.1-2.2,0.6-3.2c0-0.1,0.1-0.1,0.1-0.2
					c0.1-0.6,0-1.2-0.4-1.7l0,0c-0.4-0.5-0.4-0.8,0.1-1.9c1-2.1,1.7-4.2,0-6.8l0,0c-0.2-0.5-0.2-1.1,0.2-1.3l0,0
					c0.4-0.4,1.1-1.2,1-2.1c0-0.6-0.4-1.1-0.8-1.3l0,0c-0.6-0.5-0.7-0.6-0.2-1.9c0-0.1,0.1-0.2,0.1-0.5c1-2.9,0.5-5.8-1.5-8.5
					c-0.7-1-0.8-1.8-0.6-3c0.2-1.1,0.6-2.1,1-3.2c0.2-0.6,0.4-1.1,0.6-1.7c0.1-0.2,0.4-0.8,0.6-0.8c0.1,0,0.4,0,0.8,0.4
					c0.1,0.1,0.4,0.1,0.6,0.1c0.1,0,0.2,0,0.2,0c0.4-0.1,0.6-0.2,0.7-0.6c1.1-1.9,1.7-4,2.4-5.9c0.5-1.6,1-3,1.7-4.5
					c3-6.2,3.8-13.1,2.3-21.2c-0.4-1.9-1.1-4.1-4.2-4.4c-0.6,0-1.1-0.2-1.3-1.6c-0.2-1.8-0.1-3.6,0-5.6c0-1,0.1-1.9,0.1-2.9
					c0-0.5,0-0.6,0.1-0.7c0.1,0,0.4,0,0.7,0.1c0,0,0.1,0,0.2,0.1c0.4,0.1,0.7,0.5,1.3,0.5c0.4,0,1.3-0.1,1.8-1.6
					c0.1-0.2,0-0.6,0-0.8c-0.5-1-1.3-1.3-1.8-1.6h-0.1l0,0c-1.1-0.4-1.6-1-1.1-2.8l0.1-0.4c0.5-2.3,1.1-4.7,1.5-7.1
					c0.2-1.7,0.7-2.2,1.9-2.3c0.5,0,0.8-0.4,1-0.8s-0.1-1-0.5-1.2l-1.7-1.1c0.1-0.6,0.1-1.2,0.2-1.7c0.2-1.9,0.5-3.9,0.8-5.7
					c0.6-2.4-0.7-3.3-2.2-3.9c-8.7-3.9-17.6-7.8-26.2-11.6c-1.1-0.5-2.2-0.7-3.4-0.7C229.4,17.6,228.1,17.6,226.6,17.6L226.6,17.6z
					 M179.1,108.4L179.1,108.4L179.1,108.4L179.1,108.4L179.1,108.4z"/>
			</g>
		</g>
	</g>
</g>
<rect y="16.6" class="st6" width="400" height="300"/>
<path class="st8" d="M299,68.5c7.2,7,7.3,18.5,0.3,25.7l0,0l-0.3,0.3c-7.2,7.2-18.9,7.3-26.1,0.1c-7.2-7.2-7.3-18.9-0.1-26.1
	c7.2-7.2,18.9-7.3,26.1-0.1L299,68.5z M293,88.5c1.9-1.8,2.9-4.4,2.9-7c0.1-2.6-1-5.1-2.9-6.9c-1.9-1.9-4.4-2.9-7.1-2.8
	c-5.3-0.1-9.7,4.2-9.8,9.5v0.2c0,2.6,1,5.1,2.8,7s4.3,2.9,6.9,2.9C288.5,91.5,291.1,90.4,293,88.5z M335.2,70.8l-47.7,74.1
	c-0.8,1.5-2.4,2.5-4.1,2.4c-2.7-0.1-4.9-2.3-5-5c0.1-1,0.4-2,0.9-2.9l47.8-74.2c0.8-1.5,2.4-2.5,4.1-2.4c1.4,0,2.7,0.5,3.6,1.5
	c1,0.9,1.5,2.3,1.4,3.6C336.1,68.9,335.8,69.9,335.2,70.8L335.2,70.8z M315.4,141.9c-7.2-7.2-7.2-18.8,0-26l0.1-0.1
	c3.4-3.4,8.1-5.3,12.9-5.4c10.2-0.1,18.4,8.1,18.5,18.3s-8.1,18.4-18.3,18.5C323.7,147.4,318.9,145.4,315.4,141.9z M321.4,121.9
	c-3.9,3.7-4,9.8-0.3,13.7l0.1,0.1l0.2,0.2c3.8,3.8,9.9,3.9,13.7,0.1c2-1.9,3-4.6,2.9-7.4c-0.2-5.2-4.4-9.4-9.6-9.6
	C325.8,119,323.3,120.1,321.4,121.9L321.4,121.9z"/>
<g>
	<ellipse transform="matrix(0.2051 -0.9787 0.9787 0.2051 5.333 110.663)" class="st9" cx="70.8" cy="52" rx="25.7" ry="46.8"/>
	<ellipse transform="matrix(0.225 -0.9744 0.9744 0.225 9.4672 107.0716)" class="st10" cx="72" cy="47.6" rx="22.7" ry="46.8"/>
	<ellipse transform="matrix(0.225 -0.9744 0.9744 0.225 9.4672 107.0716)" class="st11" cx="72" cy="47.6" rx="18.2" ry="37.4"/>
	<path class="st9" d="M59.3,50.7c0.5,2.4,4.8,4.5,9.2,5.1c2.8,0.3,5.2-0.2,6.3-1.3l0.6-0.6l1.2,0.5c1.2,0.5,2.7,0.8,4.1,0.9
		c4.5,0.5,7.6-1.1,7-3.4l-0.2-0.8l4.7,0.6c1,0.1,1.7-0.2,1.6-0.7c-0.1-0.5-1.1-1-2-1.1l-4.7-0.6L86.3,46l4.7,0.6
		c1,0.1,1.7-0.2,1.5-0.7c-0.5-0.7-1.2-1-2-1.1l-4.7-0.6l-0.6-2.5c-0.1-0.5-1.1-1-2-1.1c-1-0.1-1.7,0.2-1.5,0.7l0.6,2.5l-22-2.3
		L59.7,39c-0.1-0.5-1.1-1-2-1.1c-1-0.1-1.7,0.2-1.5,0.7l0.6,2.5l-4.7-0.6c-1-0.1-1.7,0.2-1.6,0.7s1.1,1,2,1.1l4.7,0.6l0.8,3.3
		l-4.7-0.6c-1-0.1-1.7,0.2-1.5,0.7c0.5,0.7,1.2,1,2,1.1l4.7,0.6L59.3,50.7z M83,45.8l1.5,5.8c0.3,1.3-1.5,2.2-3.9,2
		c-2.6-0.1-5-1.6-5.4-3l-1.5-5.8L83,45.8z M60.9,43.4l9.2,1l2,7.5c0.3,1.3-1.5,2.2-3.9,2s-5-1.5-5.4-3L60.9,43.4z"/>
</g>
<g>
	
		<ellipse transform="matrix(0.5509 -0.8346 0.8346 0.5509 -40.865 349.5875)" class="st12" cx="304.4" cy="212.8" rx="53" ry="25.6"/>
	
		<ellipse transform="matrix(0.5509 -0.8346 0.8346 0.5509 -39.518 345.9294)" class="st13" cx="301.7" cy="209.7" rx="51.9" ry="23.8"/>
	
		<ellipse transform="matrix(0.5509 -0.8346 0.8346 0.5509 -39.518 345.9294)" class="st14" cx="301.7" cy="209.7" rx="41.6" ry="19.1"/>
	<path class="st15" d="M307.3,201.9l7.3-9c-1.1-0.7-1.9-1.2-2.8-1.9c-0.5-0.4-1,0-1.5,0.9c-2.5,2.8-4.8,5.7-7.2,8.7
		c-1.5,1.9-2.6,2.6-3.9,2.7c-1.6,0.1-1.9,0.2-3.3,3.1l2.4-0.2c-2.5,3.2-5,5.8-7.3,8.9l9.9,6.5c0.2,0.1,0.5,0.1,0.9-0.4
		c1.2-1.3,2.4-2.7,3.8-4.1l-6.8-4.5c1.4-1.6,2.7-3.1,3.9-4.7c1.5-2,2.7-2.8,4-2.8c1.6,0,1.7-0.2,3.3-3.1L307.3,201.9z"/>
</g>
<g>
	<ellipse class="st16" cx="90.3" cy="147.4" rx="37.9" ry="43.6"/>
	<ellipse class="st17" cx="85.6" cy="145.9" rx="36.6" ry="42.2"/>
	<ellipse class="st16" cx="85.6" cy="145.9" rx="29.3" ry="33.8"/>
	<path class="st17" d="M92,126.4c3.9,0,6.9,3.3,7.1,8c0.2,4.3-2.7,7.9-6.1,8.4c-0.5,0.1-1,0.2-1.5,0.1c-1.6-0.2-3,1-3.1,2.6v0.5
		c0,1.9,1.2,3.3,2.9,3.2c3.5-0.2,6.5,2.4,7.3,6.3c0.8,3-0.2,6.1-2.4,8.3c-1.8,2.1-4.9,2.6-7.3,1.2c-2.7-1.3-4.1-3.8-4.3-7.1
		c-0.1-1.6,0.2-3.2,0.9-4.6c0.6-1.2,0.3-2.6-0.6-3.6c-0.8-0.9-2-1-3-0.5c-0.4,0.3-0.8,0.6-1,1.1c-1.8,3-4.3,4.2-7.3,3.4
		c-3-0.7-4.9-3-5.6-6.6c-1-5,3-10.1,7.4-9.7c2.9,0.2,4.9,1.9,6.2,4.9c0.4,1.3,1.8,2,3,1.7c0.1,0,0.1,0,0.2-0.1
		c0.2-0.1,0.2-0.1,0.4-0.2c1.4-0.9,2-2.8,1.2-4.3c-0.7-1.4-1.2-2.9-1.3-4.4C84.8,130.1,87.9,126.5,92,126.4z"/>
</g>
<g>
	<path class="st18" d="M169.5,228.7c2.4,1.5,4.9,3.1,7,5l0.5,0.3c0.2,0.4,0.5,0.8,0.9,1l0.2,0.2c0.2,1.3,1.7,2.3,2.5,3.6
		c0.5,0.8,0.2,1.4,1.2,1.9c0.2,1.7,1.1,3.8,1.3,5.8c-0.2,0.1-0.1,0.3,0,0.5l0.1,0c-0.2,1.1-0.4,2.3-0.3,3.5c0,0-0.6,0-0.2,0.2
		c-1,2.7-2.5,5.2-4.4,7.5c-1.9,1.2-3.6,3.5-5.9,4.6c-18.7,13.3-67.3,8.4-72.7-15.5c0.2-0.2-0.3-0.4-0.2-0.8s0.4-0.5,0.1-0.7
		c-0.9-1.6,0.8-5,0.7-6.4c0.3-0.4,0.4-0.8,0.4-1.2c0.5-0.6,0.7-1.4,1.4-1.8c0.9-1.5,1.9-2.9,3.1-4.2c0.5-0.3,0.9-0.6,1.4-1.1
		c2.7-2.2,5.6-3.8,8.9-5.1c0.3-0.5,1.3-0.2,1.3-0.9c0.1,0.2,0.3,0.1,0.5,0l0-0.1c3.5-1,7.6-2,11.4-3c0.3,0.1,0.7,0.1,0.9-0.2
		c6-0.4,12.1-0.5,18.1-0.1c0.6,0.3,1.5,0.5,2.2,0.2c1.6,0.5,3.3,0.9,5.1,0.9c0.3,0.1,0.5,0.4,0.7,0.1c1.4,0.9,3.5,0.9,5,1.7
		c0.5-0.3,0.9,0.6,1.5,0.1c0.2,0.2,0.3-0.1,0.6,0c-0.1,0.7,0.6,0.5,1,0.6C165.2,227.1,167.4,227.2,169.5,228.7z M171.6,256.6
		c11.5-10.4,0.9-22.4-9.5-26.9c-26.5-11.2-59.7,0.3-55.5,17.5c1.7,9.3,12.3,13.9,20.5,16.8c14.8,3.4,32.1,3.3,44.2-6.8L171.6,256.6z
		"/>
	<path class="st19" d="M171.3,257.1c-12.2,10.2-29.5,10.2-44.2,6.8c-8.1-2.9-18.8-7.5-20.5-16.8c0.6-4.3,2.6-8.2,5.9-11.1
		c9.8-7.2,20.3-7.8,30.9-7.9c4.9,1.2,10.7,1.3,15.3,3.7c10.2,3.2,21.1,14.2,12.9,24.5C171.4,256.4,170.8,256.8,171.3,257.1z
		 M144.3,238.3C144.7,238.6,144.8,237.7,144.3,238.3c-6-1.5-11.9-2.6-18.1-3.8l4.6,11.4c1.2-2,2.2-4.4,3.3-6.3
		C137.6,239.3,140.8,238.9,144.3,238.3z M150.4,239.3c-4.6,0-9.7,1.1-14.6,1.4c-0.8,1.1-1.5,2.4-2,3.7c-0.9,1.5-1.7,3.1-2.4,4.6
		c0.2,0.4,0.6,0,0.8,0.2c8.8,2.2,17.9,4.7,26.9,6.5C156.3,250.5,153.9,244.2,150.4,239.3z"/>
	<path class="st19" d="M183.2,252.6l-0.2,0.2c-0.5,1.6-0.7,3.4-0.7,5.2c-0.5,0.6-0.3,1.5-0.9,2.1c-0.6,2.6-2.9,4.7-4.5,7
		c-2.9,2.1-5.9,4.2-9.1,5.9c-0.1,0-0.3-0.1-0.3,0.1l0,0.1c-1.9,0.3-4.2,1.9-6.3,2.1c-2,0.7-4.3,0.5-5.9,1.7c-0.1-0.2-0.3-0.1-0.5,0
		l0,0.1c-0.5-0.4-1.1-0.3-1.5,0.1c-0.1,0-0.3-0.1-0.5,0.1c-0.5-0.4-1.1-0.3-1.5,0.1c-0.1-0.2-0.3-0.1-0.5,0.1
		c-0.1-0.2-0.3-0.1-0.5,0l0,0.1c-0.4-0.3-0.7-0.2-1,0l0,0c-0.6-0.3-0.8-0.2-1.3,0.4c-4.7-0.4-9.8-0.1-14.7-0.7
		c-1.1-0.2-3.4-1.2-4.5-0.6c-1.9-1-4.8-1-6.9-2.2c-0.7,0.2-1-0.6-1.5-0.3c-5.3-2.3-10.6-4.9-14.6-8.9c-1.4-1.3-2.5-3.5-4.1-4.8
		c0.2-0.7-0.4-1.2-0.9-2.1c-1.2-3.5-1.4-7.3-0.6-10.9c6.4,25.3,56,28,72.7,15.2c2.2-1,4.1-3.1,5.9-4.6c1.9-2.3,3.4-4.8,4.4-7.5
		c0.6,0.6,0,1.4,0,1.9L183.2,252.6z"/>
	<path class="st20" d="M171.6,256.6c8.4-10.9-3.4-21.4-12.9-24.5c-4.6-2.4-10.3-2.5-15.3-3.7c-11.3-0.1-21.9,1.2-30.9,7.9
		c-2.1,2.1-3.9,4.5-5.1,7.1c-0.6,1.3,0,2.5-0.9,3.9c-1.8-6.4,2.7-11.9,7.8-15.4c14.6-9.2,34.7-7.5,47.7-2
		C176.2,236,181.2,248.3,171.6,256.6z"/>
	<path class="st20" d="M171.3,257.1c-0.1,0-0.2-0.4-0.1-0.5c0-0.1,0.4-0.2,0.5-0.1L171.3,257.1z"/>
	<path class="st18" d="M150.6,239.3c3.3,4.9,5.7,11,8.8,16.4c-8.7-1.7-18-4.2-26.9-6.5c3.4-1.5,8.6-1.9,12.6-2.6
		C146.8,244.3,148.6,241.9,150.6,239.3z"/>
	<path class="st21" d="M150.6,239.3c-1.8,2.4-3.7,4.7-5.5,7.4c-4,0.7-8.8,1.1-12.6,2.6c-0.2-0.2-0.7,0.2-0.8-0.2
		c0.8-1.6,1.5-3.1,2.4-4.6c0.6-1.3,1.2-2.6,2-3.7C140.6,240.5,145.9,239.3,150.6,239.3z"/>
	<path class="st18" d="M144.2,238.5l-10.2,1.1c-1,1.8-2,4.2-3.3,6.3l-4.6-11.4C132.3,235.9,138.3,236.8,144.2,238.5z"/>
</g>
</svg>
