<?xml version="1.0" encoding="utf-8"?>
<!-- Generator: Adobe Illustrator 24.3.0, SVG Export Plug-In . SVG Version: 6.00 Build 0)  -->
<svg version="1.1" id="Layer_1" xmlns="http://www.w3.org/2000/svg" xmlns:xlink="http://www.w3.org/1999/xlink" x="0px" y="0px"
	 viewBox="0 0 400 300" style="enable-background:new 0 0 400 300;" xml:space="preserve">
<style type="text/css">
	.st0{fill:none;}
	.st1{fill:#F3F2EF;}
	.st2{clip-path:url(#SVGID_2_);fill:#169A62;}
	.st3{clip-path:url(#SVGID_4_);fill:#FFFFFF;}
	.st4{clip-path:url(#SVGID_6_);fill:#FF873E;}
	.st5{fill:none;stroke:#000000;stroke-miterlimit:10;}
	.st6{fill:#C98017;}
	.st7{fill:#FBED60;}
	.st8{fill:#FABA31;}
	.st9{fill:#68C2EE;}
	.st10{fill:#0491BE;}
	.st11{fill:#68C2EF;}
	.st12{fill:#31798F;}
	.st13{fill:#C1BDBE;}
	.st14{fill:#6E6E6E;}
	.st15{fill:#6C6C6C;}
	.st16{fill:#BCBCBC;}
	.st17{fill:#E1E1E1;}
	.st18{fill:#0A0A09;}
</style>
<rect y="16.6" class="st0" width="400" height="300"/>
<path class="st1" d="M337.1,19.8c7.2,7,7.3,18.5,0.3,25.7l0,0l-0.3,0.3c-7.2,7.2-18.9,7.3-26.1,0.1s-7.3-18.9-0.1-26.1
	c7.2-7.2,18.9-7.3,26.1-0.1L337.1,19.8z M331.1,39.8c1.9-1.8,2.9-4.4,2.9-7c0.1-2.6-1-5.1-2.9-6.9c-1.9-1.9-4.4-2.9-7.1-2.8
	c-5.3-0.1-9.7,4.2-9.8,9.5v0.2c0,2.6,1,5.1,2.8,7s4.3,2.9,6.9,2.9C326.6,42.8,329.2,41.7,331.1,39.8z M373.3,22.1l-47.7,74.1
	c-0.8,1.5-2.4,2.5-4.1,2.4c-2.7-0.1-4.9-2.3-5-5c0.1-1,0.4-2,0.9-2.9l47.8-74.2c0.8-1.5,2.4-2.5,4.1-2.4c1.4,0,2.7,0.5,3.6,1.5
	c1,0.9,1.5,2.3,1.4,3.6C374.2,20.2,373.9,21.2,373.3,22.1L373.3,22.1z M353.5,93.2c-7.2-7.2-7.2-18.8,0-26l0.1-0.1
	c3.4-3.4,8.1-5.3,12.9-5.4c10.2-0.1,18.4,8.1,18.5,18.3s-8.1,18.4-18.3,18.5C361.8,98.7,357,96.7,353.5,93.2z M359.5,73.2
	c-3.9,3.7-4,9.8-0.3,13.7l0.1,0.1l0.2,0.2c3.8,3.8,9.9,3.9,13.7,0.1c2-1.9,3-4.6,2.9-7.4c-0.2-5.2-4.4-9.4-9.6-9.6
	C363.9,70.3,361.4,71.4,359.5,73.2L359.5,73.2z"/>
<g>
	<g>
		<g>
			<defs>
				<path id="SVGID_1_" d="M169.6,274.8c0.8,2.3,0.8,2.3-0.8,2.8c0.1-1.8-1-2.2-2.6-2.6c-1.2-0.3-1.8-1.2-1.8-2.3c0-0.6,0-1.4-1-1.3
					c-0.9,0.1-0.6,0.9-0.5,1.6c0.3,1.7,1.2,2.8,2.8,3.4c1.2,0.4,1.8,0.9,0.4,1.8c-1,0.6-0.5,1.9-0.8,2.8c-0.5,0.1-0.6-0.3-0.6-0.5
					c-0.3-1.6-1.3-1.9-2.6-2.1c-1-0.1-1.8-0.4-1.8-1.8c-1.7,1.6-3-1.2-4.7,0c0.3,1.6,1.8,1.2,2.6,1.9c-0.3,0.9-0.5,1.8-0.8,2.8
					c-0.3,0.6-1.7,0.9-2.2,0.3c-1.3-1.7-3.5-2.3-4.7-4.3c-0.5-0.9-1.6-0.5-1.4,0.4c0.1,1.4-0.8,2.2-1.4,3.2
					c-0.5,0.8-2.5,0.6-2.6-0.1c-0.4-1.4-1.8-1.7-2.5-3c-2.8,4.3-3.9-0.1-5.6-1.2c-0.6,0.8-0.1,1.3,0.1,1.8c0.1,0.4,0.6,0.8,0.3,1.3
					c-0.3,0.4-0.6,0.4-1,0.3c-0.6-0.1-0.5-0.8-0.6-1.2c0-0.1-0.1-0.4-0.4-0.6c-1.2,0.9-1.7,2.2-3,2.8c-1.2,0.5-1.7,0.5-2.5-0.4
					c-0.6-0.8-1.2-1.8-2.2,0c-0.4,0.8-1.7,1.4-3,0.3c1.4-1.4,3.5-2.3,3.9-4.9c-1.9,0.6-3.4,1.4-4.8,2.2c0.1-1,1-1,1.4-1.6
					c0.4-0.4,0.8-1.2,0.1-1.3c-1.2-0.1-1.7-1-2.5-1.4c-0.8,0.5-0.1,1.3-0.8,1.8c-1.3-0.1-2.7,1-3.7-0.9c-1.2,1.3-2.7,0.8-3.9,1.4
					c-1.6-2.2-1.9-2.2-4.3-0.8c-0.8,0.5-1.4,1.2-2.5,1c-0.5-0.4,0-1-0.5-1.3c-1.4-0.6-1.2,2.3-2.8,1.4c0.1-0.8,1.8-1.2,0.1-2.1
					c1.4-1,2.8-1.7,4.5-1.6c2.7,0.1,5-0.6,7.1-2.3c0.6-0.5,1.3-0.8,2.1-0.8s1.6-0.1,1.8-1c-1.3-0.9-4.8-1-5.8-0.1
					c-1.3,1.2-2.8,1.6-4.5,1.3c-1.7-0.3-3.2-0.1-4.9-0.1c1.7-0.1,3-0.9,4-2.2c0.1-0.3,0.5-0.3,0.9-0.3c3.2-0.3,6.5-0.9,9.6-1.4
					c1.7-0.3,3.4-0.5,4.9-0.9c0.9-0.1,2.3-2.5,1.9-3.2c-0.5-1.3-1.4,0-2.2-0.3c-0.5-0.3-0.5-1-0.6-1.6c-0.1-0.5-0.3-1-0.9-1.2
					c-0.6,0-1.2,0.4-1.3,1c-0.3,1.3-0.9,1.9-2.2,1.8c-0.3,0-0.5,0.1-0.8,0.3c-2.7,1.4-3.2,1.3-5.4-0.9c-1.7,1.6-3.6,1-5.7,0.5
					c-1.7-0.4-3.5-0.5-5,0.9c-0.5,0.5-1,0.6-1.8,0.4c-0.1-0.1-0.5-0.1-0.6,0c-1.7,1.2-3.1,0-4.5-0.6c-0.9-0.4-1.9-0.3-3,0.1
					c0-0.6,0.3-1,0.8-1c0.6,0,1.4-0.1,2.1,0c1.6,0.3,2.2-0.4,2.5-1.8c-0.3-0.5-1.2-0.6-1.2-1.3c0.4-0.4,0.8-0.3,1,0
					c1.4,0.9,2.7,0.6,4.1,0c1.7-0.6,1.8-1.3,0.8-2.8c1.3-0.9,2.8-0.3,4.1-1c1.3,3,2.1,0,3-0.3c1,0.1,1.2,1.8,2.2,1
					c0.9-0.6-0.5-1.4-0.1-2.3c1.4,0.4,2.3-0.6,3.1-1.4c1-1.2,2.3-1.2,3.5-0.8c2.2,0.6,3.9-0.6,6.3-0.8c-0.6-0.5-0.8-0.6-0.9-0.6
					c-1.8-0.1-3.5,0-5.3-0.5c-1.6-0.4-3.6,0.5-5.4,1.2c-1.2,0.4-2.7-0.4-3.2,1.2c-0.5,0-0.6-0.3-0.9-0.5c-0.8-1-1.3-1.2-2.6-0.4
					c-1.8,1-4.1,1-6.2,1.6c-3,0.8-4.3-1.6-6.5-3c1.7-0.4,2.1-1.4,2.3-2.7c0.3-1.4-0.1-2.2-1.6-2.3s-2.6,0.4-3.4,1.6
					s-1.8,1.3-3.1,0.8c-0.1-1,0.9-1.4,1.2-2.2s0.4-1.4-0.6-1.7c-0.6-0.1-1.3-0.3-1-1.2c0.3-0.9,0.5-1.8,1.8-1.6s2.6,0.3,3.9,0
					c0.6-0.1,1.3-0.3,1.4-0.9c0.3-1.8,1.6-1.9,2.8-2.1c0.4,0,0.9,0,1-0.6c-1.4-1.3-3.5,0.8-4.9-0.6c1.4-1.9,3.7-1.7,5.6-2.5
					c1.9-0.8,3.9-0.3,5.7-0.8c0.1,0,0.4,0,0.5,0c3.5,1.6,5.8-1,8.4-2.5c0.8-0.4,1.2-0.8,2.2-0.5c1.3,0.4,2.8-0.4,3.9,0.6
					c0.9-0.4,0.1-1.3,0.9-1.6c0.5-0.1,0.6-0.5,0.5-1c-0.3-0.5-0.6-0.6-1-0.5c-1.4,0.4-2.5-0.3-3.5-1c-1-0.6-2.2-0.4-3.2-0.1
					c-0.8,0.3-1,0.8-0.9,1.6c0.1,0.4,0.5,0.9-0.1,1.3c-0.1,0-0.3,0-0.3-0.1c-0.1-2.1-1.3-3-3.4-2.7c-0.9,0.1-1.9-0.3-2.7,0
					c-2.8,0.9-4.7-0.5-6.5-2.3c-1.3-1.3-1.7-1.3-2.7-0.8c0,1,1.3,0.6,1.6,1.4c-1.4,0.5-1.8,0.3-2.7-1c-0.6-1-0.8-1.2-1.9-0.8
					c-0.3,0.6,0.6,0.8,0.8,1.7c-1.7-0.9-3.7,0.6-4.9-1.7c0.6-2.3,1.7-4.3,3.9-6.1c0,1.7,0.4,2.8,2.3,2.6c-0.4-1.4,1.6-1.9,0.6-3.7
					c2.5,0.8,3.9-1,5.7-1.3c1.2-0.3,2.5,0,3.6-0.5c0.4-0.1,0.6,0.4,0.8,0.9c0,0.5,0,1,0,1.4c-0.4,0.5-0.8,0.4-1.2,0.4
					c-0.6,0-1.2,0.3-1,0.9c0.1,0.6,0.8,0.8,1.3,0.6c1.8-0.6,3.9,0.3,5.6-1.3c0.5-0.5,0.9,0,1.2,0.6c1.2,2.7,3,4.1,6.1,4
					c1.3-0.1,2.6,0,3.7,0.5c0.6,0.4,1.7,0.6,2.2-0.3c0.5-0.9-0.3-1.6-0.9-2.1c-0.8-0.6-2.2-0.3-2.6-1.3c-0.3-0.9,1-1.6,1-2.6
					c0.1-1.4,0.5-2.6,1.2-3.7c0.5-0.9,0-1.6-0.9-1.6c-1-0.1-1.7-0.8-2.5-1.3c-0.4-0.3-0.6-0.6-0.5-1.3c0.3-0.6,0.8-0.6,1.3-0.6
					c0.3,0,0.6,0.1,0.9,0.3c2.5,1,4.5,0.8,6.5-1c0.5-0.4,1.2-0.5,1.8-0.5c2.2-0.1,2.6-0.4,3.1-2.6c0.3-1.2,0.6-2.1,1.7-2.8
					c0.8-0.5,1.6-0.6,2.5-0.1c1.6,0.9,3.2,1.4,4.8,2.1c0.1,0,0.3,0.1,0.3,0.1c1.7-0.9,3.4,0.1,5,0c0.6,1.3,2.3,2.2,4,1.8
					c3-0.6,5.9-0.8,9-0.5c2.2,0.1,4.3,0.3,6.2-1c0.3-0.3,0.8-0.4,1-0.3c1.9,0.5,4.1,0.4,6.1,0.9c1.8,0.5,3.9,0.4,5.2,2.2
					c0.3,0.4,1.3,0.5,2.2-0.3c-2.1-0.8-2.8-3.2-5.4-3c-0.8,0.1-1.7,0-2.1-0.8c-1-1.6-2.5-1.9-4.1-1.8c-0.4,0-0.9,0.1-1.2-0.3
					c0-0.6,0.6-0.5,0.8-1c-0.1-0.4-1-0.6-0.3-1.3c0.4-0.3,0.5-0.6,0.4-1c-0.3-0.9,0.1-1.4,0.8-1.8c0.5-0.3,0.9-1,0.5-1.6
					c-0.5-0.6-1-0.1-1.4,0.3c-0.5,0.4-1,1-1.7,0.8c-1.4-0.4-1.9,0.4-2.6,1.4c-1.8,2.6-4.1,4.4-6.6,6.3c-0.5,0.4-1.2,0.4-1.8,0.1
					c-1.6-0.8-3-1.2-4.3,0.6c-0.3,0.3-0.8,0.4-1.2,0.5c-0.6,0.1-1.4,0.1-1.6-0.6c-0.1-0.8,0.4-1,1-1c0.3,0,0.6,0,0.9-0.1
					c0.4-0.1,0.6-0.4,0.6-0.8c-0.1-0.4-0.4-0.5-0.6-0.6c-0.8-0.1-1.4-0.3-2.2,0.1c-2.2,0.9-3.4,0.8-4.9-1c-1.2-1.3-2.8-2.2-2.8-4.3
					c0-0.4-0.3-0.5-0.6-0.5c-0.3,0-0.5,0.1-0.6,0.4c-0.3,0.6,0.4,1.6-0.8,1.9c-1.3,0.4-2.7,0.8-4.1,0.1c-1-0.4-1.8-0.5-2.2,0.8
					c-0.1,0.4-0.6,0.6-1,0.6c-1.9,0.1-3.7,0.8-5.6-0.4c-0.5-0.4-1-0.3-1.7,0.1c-0.8,0.5-1.6,0-2.5-0.1c1.4-1.2,2.8-2.2,4.9-1.8
					c0.4,0.1,0.8,0,1-0.1c1.6-1.3,3.6-1.4,5.3-2.6c0.6-0.5,1.4-0.9,2.5-0.8c0.8,0,1.3-0.4,1.7-1c0.5-0.8,1.2-1.3,1.8-1.9
					c1-1,1.9-1.3,3.2-0.6c1.8,0.8,3.5-0.4,3.6-2.3c0-0.4,0-0.9,0.4-0.9c1.9-0.5,2.3-2.3,3.2-3.7c0.6-1,1.3-1.7,2.5-1.8
					c1-0.3,2.1-0.6,2.6-1.8c0.5-1,0.1-1.8-1.2-1.9c-1-0.1-2.1,0.1-3.4-0.9c1.8-0.3,2.5-1.4,3.4-2.6c0.5-0.5,0.9-1,1.2-1.8
					c0.3-1.4,1.6-2.1,2.7-2.6c2.2-0.8,3.5-2.3,4.4-4.4c0.5-1.2,1-1.2,1.9-0.5c1,0.8,1.9,1.6,2.8,2.5c1.4,1.3,2.2,1.2,3.2-0.5
					c0.9-1.4,1.6-0.5,2.2,0.1c0.8,0.8,1.6,1.7,2.7,0.8c0.4-0.8-0.5-0.8-0.5-1.4c1.7,0,1.4,1.9,2.6,2.5c1-0.9,0-2.5,0.8-3.4
					c0.8-1,2.5-0.4,3.4-1.6c-1.3-1.9-3.4,0-4.9-0.9c1-0.8,1.2-2.2,2.5-2.5c0.4-0.1,0.5-0.4,0.4-0.8c0-0.4-0.3-0.6-0.6-0.6
					c-2.2-0.1-4.1-1-6.3-0.9c-2.1,0.1-4.1,0-6.2-0.8c-2.1-0.8-4.4-0.5-6.6-0.8c-0.9-0.1-1.9,0-2.8,0c-2.7-0.1-3.2-0.8-3-3.5
					c0-0.1,0-0.3,0-0.3c0-0.6,0.4-1.6-0.4-1.8c-0.9-0.3-1,0.6-1.4,1.2c-0.4,0.5-0.5,1.3-1.4,1c-0.4-0.6,0.1-1.2,0.4-1.6
					c0.4-0.5,0.9-1.2,0.9-1.8c0-1.3,0.5-2.1,1.9-2.3c0.4,0,0.8-0.4,0.6-0.8c-0.5-1.2,0.1-1.9,0.9-2.7c-1.9-0.5-2.2-0.4-2.6,1.3
					c-0.1,0.5,0.1,1.2-0.6,1.3c-0.3,0-0.6,0-0.8-0.3c-0.4-0.5,0-1,0.1-1.4c0.1-0.3,0.3-0.4,0.3-0.6c0.1-0.5,0.4-1.2-0.3-1.6
					c-0.5-0.4-1,0-1.4,0.4c-1.2,0.9-2.3,1.8-3.5,2.7c-1.3,1-2.6,1.3-3.9,0.1c-0.9-0.8-2.1-1-3.1-1.7c0.6-1.8,1.4-3.4,3.7-3.4
					c0.8,0,1.7-0.1,2.2-0.9c0.3-0.4,0.6-0.9,0.3-1.4s-0.9-0.1-1.3,0c-0.5,0.1-1,0.5-1.7,0c0-1,1.4-0.8,1.4-2.1
					c-1.3,0.3-2.7,0-3.7,1.2c-1.4,1.8-2.8,1.8-4.3,0c-0.3-0.4-0.5-0.6-0.6-1c-0.4-1.2-1.2-1.6-2.3-1.6c-0.4,0-0.9,0-1.3-0.1
					c-0.8-0.3-1.4-0.6-2.3-1c1.2-0.9,1.9-1.9,3.4-0.9c0.5,0.4,1.2,1,1.8,0.4c0.8-0.6,0-1.3-0.3-1.9c-0.1-0.1-0.1-0.3-0.1-0.6
					c0.9,0.1,1.2,1,1.7,1.4c0.4,0.3,0.6,0.4,1,0c0.3-0.4,0.3-0.6,0-1c-0.4-0.4-0.8-0.8-1.2-1.2c-1-0.6-1.7-1.6-1.7-2.8
					c0-0.8-0.5-1.3-1.2-1.7c-0.5-0.4-1.2-0.6-1.2-1.6c1.6-0.6,2.2,1.3,3.5,1.3c0.9-0.8-0.4-1.3-0.1-2.1c1.3,0.4,2.5,1,3.2,2.2
					c0.3,0.4,0.6,0.8,0.9,1c0.5,0.4,1,0.9,1.7,0.1c0.5-0.6,0.3-1.2-0.3-1.7c-0.8-0.6-1.2-1.4-1.3-2.5c0.5-0.4,0.8,0,1,0.1
					c1.4,0.6,2.8,1.4,4.7,1.3c1.4-0.1,2.8,0.5,4,1.6c1,0.9,2.3,1.4,3.6,1.6c0.9,0.1,1.8,0.1,2.2-1.3c-3.7,0-6.5-1.9-8.5-4.7
					c-0.8-0.9-0.6-4,0.3-4.8c0.5-0.5,1-1,1-1.9c0.1-1.4,1.2-1.4,2.2-1.4c0.1,0,0.5,0.3,0.6,0.3c2.6-1.3,4.4,2.1,7,0.9
					c0.8-0.3,1.6,0.1,2.2,0.6c0.9,0.5,1.8,0.6,2.7,0.3c1.2-0.5,1.6-1.2,0.8-2.2c-0.8-1-0.6-1.8,0.5-2.5c0.9-0.5,1-1.4,0.9-2.5
					c-0.1-1-0.9-1.2-1.7-1.3c-1.3-0.1-2.5-0.9-3.5-1.6c-1.7-0.9-3.4-1-5-0.3c-1.3,0.6-3,1.3-4,0c-1-1.2,0.1-2.7,0.8-4
					c0.6-1.2,1.4-1.9,2.8-1.3c1,0.4,1.7,1,1,2.2c-0.3,0.6-0.4,1.2,0.3,1.6c0.9,0.4,1-0.4,1.3-1c0.9-2.1,0.6-3-1.4-4.4
					c1-1.7-0.3-2.8-0.9-4c-0.6-1.3-0.6-1.6,0.9-1.8c1.2-0.1,3-3.1,2.6-4.1c-0.3-0.6-0.6-0.9-1.2-0.3c-0.6,0.8-1.6,1-2.2,1.9
					c-0.4,0.6-1.2,1.2-2.1,0.6c-0.9-0.6-0.4-1.6-0.4-2.3c0-0.9,0.9-0.8,1.4-0.8c0.5,0,1.2,0.1,1.4-0.5c0.3-0.5,0-0.9-0.4-1.3
					c-0.3-0.3-0.4-0.5-0.5-0.9c1.2-0.6,1.3-1.9,1.9-2.8c0.5-0.9,1.2-1.4,2.1-1.4c1-0.1,1.4-0.6,1.6-1.7c0.1-1.6,1-2.1,2.3-1.2
					c0.8,0.5,1.4,1.2,2.1,1.7c0.4,0.3,0.9,0.6,1.3,0.1c0.5-0.5,0-1-0.4-1.4s-0.9-0.8-1.4-1.2c-0.4-0.5,0.5-0.4,0.4-0.9
					c-0.6-0.4-1.3-0.8-1.9-1.3c-0.4-0.3-0.8-0.6-0.4-1.2c0.4-0.5,3.1-0.8,3.6-0.4c0.5,0.5,1,1,1.6,1.6c1.2,1,2.3,2.1,4.1,1.4
					c0.9-0.4,1.6,0.4,2.2,1c0.9,1.2,1.7,1.8,3.2,1c0.8-0.4,3.5,1.2,3.7,2.1c0.3,0.8,0.6,1.3,1.3,0.8c1.9-1.9,3.2-0.3,4.8,0.6
					c-0.5,1-1.6,1.8-0.9,3c0.9,0.3,1-0.9,1.8-0.6c-0.3,1-1.6,1.4-1.8,2.3c0.4,0.8,1.3,0.4,1.8,0.8c-0.1,1-1.4,0.5-1.4,1.7
					c3.7,0.3,1.7,3.4,2.3,5.2c0.5,0.1,0.8-0.1,0.9-0.4c1-3.4,3.9-5.3,5.9-7.9c0.3-0.4,0.8-0.5,1.2-0.4c1.6,0.4,3.4,0.3,4.4,2.1
					c0.8,1.4,2.1,3,3.7,2.7c1.9-0.3,3.5,0.8,5.3,0.5c0.9-0.1,1.3,0.4,1.6,1.2c0.6,1.6,1.6,3,1.8,4.8c0.9-0.4,1.6-0.8,2.2-0.3
					c0.4,0.3,0.9,0.3,1-0.3s-0.1-0.8-0.5-1c-1.7-0.8-2.2-2.2-2.5-3.9c0.8-0.6,1.4-0.3,1.9,0.1c0.5,0.3,1,0.5,1.6,0.8
					c0.5,0.1,1,0.1,1.4-0.4c0.4-0.6-0.1-0.9-0.5-1.3c-0.6-0.8-1.9-1-2.1-2.3c0.6-0.4,0.8,0.1,1,0.4c0.4,0.5,0.9,0.6,1.4,0.1
					c0.5-0.6,0.1-1-0.3-1.6c-0.6-0.6-1.6-0.8-2.3-0.9c-1.4-0.3-2.3-1-3.1-2.5c1.8-0.3,3.5-0.8,5.2-0.8c2.3,0,3.6-1,4.3-3.1
					c0.3-0.6,0.4-1.6,1.4-1.7c0.4,1.3,1.3,1,2.5,1.2c2.8,0.3,5.7-1.2,8.5-0.3c0-0.3,0-0.4,0-0.4c-0.4-0.6-1.6-0.6-1.6-1.6
					c0-1,1.2-0.8,1.7-1.3c0.8-1,1.4-2.3,2.8-2.7c0.6-0.3,1.3-0.4,1.9-0.6c1-0.4,1.8-1.8,1.6-2.8c-0.1-0.5-0.4-0.6-0.9-0.6
					c-1.7,0-3.2,0.1-4.8,0.8c-0.5,0.3-1.2,0.3-1.8,0.4c0-0.9,1.3-1.3,0.5-2.1c-0.8-0.6-1.7-0.5-2.6-0.3c-0.9,0.3-1.7,1-2.5,1.6
					c-1,0.8-2.1,1.6-3.9,1.8c1.3-1.7,3.5-1.4,4.4-3.2c-0.9-0.4-0.9-1.6-1.7-1.9c-1,0.6-1.2,2.1-2.2,2.6c-0.8-0.4-0.5-0.8-0.3-1.3
					c0.1-0.4,0.3-0.8,0-1c-0.4-0.4-0.6-0.1-1,0c-1.6,0.6-2.8,0.5-3.7-1c-0.6-0.9-1.3-1-2.2,0c-1.2-2.5-4.9-3.2-4-7
					c1.2,0,1.7-0.8,2.3-1.8c1.6-2.5,5.8-3,7.9-0.9c2.1,1.9,3.2,2.6,5,2.3c-0.1-1-1-1.3-1.7-1.8c-0.3-0.3-0.9-0.5-0.6-1.2
					c0-0.1,0.3-0.3,0.5-0.4c0.6-0.1,0.9,0.4,1.2,0.6c0.4,0.4,0.6,0.9,1,1.3c0.3,0.3,0.5,0.4,0.9,0.3c0.4-0.1,0.4-0.6,0.4-0.9
					c-0.3-1.6-1-2.7-2.7-3.4c-0.6-0.3-1.6-0.4-1.8-1.4c1.3,1,2.7-0.3,4.3,0.5c1.2,0.6,2.8,0.6,4.4,1.4c1.8,1,3.5,0,4.1-1.6
					c-0.9-0.4-1.8,0.1-2.6,0.1c-0.6,0-1.4,0.1-1.7-0.6c-0.3-0.9,0.6-0.8,1.2-1c0.9-0.4,1.3-1,0.8-1.9c-0.5-1-1.3-0.5-1.9-0.1
					c-0.3,0.1-0.5,0.4-0.8,0.5c-1.8-1.4-1.9-1.7-1-3.5c1,0.3,2.3,1,3-0.3c0.6-1.2-0.6-1.8-1.4-2.6c-0.4-0.5-0.9-0.9-0.4-1.8
					c1.4,0.4,2.5,0.3,3-1.4c0.3-0.8,0.9-0.8,1.6-0.1c1,1,1.7,0.9,2.2-0.3c0.4-0.8,0.5-1.6,0.4-2.3c-0.3-1.9,0.8-3.4,1.6-4.9
					c0.4-0.8,1.2-0.9,1.7-0.4c0.8,0.6,1.6,1,2.5,1.4c0.4,0.1,0.6,0.4,0.9,0.9c0.9,1.7,1,1.7,2.2,0.3c0.5-0.6,1-1,1.9-1
					c1.6,0,2.7-0.6,3.4-2.1c0.1-0.4,0.5-0.8,0.9-1c0.5-0.4,1.3-0.5,1.8,0.1c0.5,0.5,0,1-0.4,1.4s-0.6,0.8-0.5,1.3
					c0.3,0.5,0.8,0.5,1.3,0.5c1.2-0.3,1.6,0.8,1.9,1.6c0.5,0.8-0.1,1.2-0.5,1.7c-0.1,0.3-0.4,0.4-0.3,0.8c1.3,0.6,2.2-0.1,2.8-1
					c0.6-0.8,1.4-1.6,0.1-2.6c-0.8-0.6-0.6-1.6-0.3-2.5c1.6,0.6,2.3-0.6,3.2-1.8c0.6,1.3-0.3,1.9-0.6,2.5c-1.3,1.7-1.3,2.3,0.5,3.6
					c2.1,1.6,2.1,1.6,1.2,4.1c-0.3,0.6-0.6,1.3,0.1,1.9c3.1-1.6,3.6-6.6,1.7-9.3c-1.4,0.6-0.4,1.9-0.8,3c-0.4,0-0.5-0.4-0.8-0.5
					c-0.6-0.5-1.8-0.6-1.4-1.8c0.3-0.9,2.1-1.8,3.1-1.6c0.8,0.1,1.3,0,1.7-0.5c0.5-0.5,1.2-0.9,1.8-0.4c0.6,0.5,0.5,1.3,0.4,1.9
					c-0.1,0.5-0.4,1-0.5,1.6c-0.6,1.4-0.5,2.7,0.8,3.7c1.2,1,1.2,2.7,1.9,4c0.4,0.6-1.2,2.6-2.1,2.6c-0.6,0-1.3,0.1-1.6,0.6
					c-0.5,0.8-1.2,1.3-2.2,1.4c-0.5,0-0.6,0.4-0.6,0.9c1,0.8,2.1,0,3.2-0.1c-0.6,1.4-1.9,2.1-3,2.5c-1.3,0.5-2.1,1.7-3.2,2.3
					c-0.3,0.1-0.4,0.5-0.3,0.9c0.1,0.3,0.4,0.4,0.6,0.4c1.2,0.1,2.2-0.4,3-1.2c1-1,2.2-2.1,3.9-2.1c0.4,0,0.6-0.1,0.8-0.5
					c0.4-0.8,1-0.8,1.8-0.6c1.4,0.3,2.2-0.4,1.8-1.7c-0.5-1.7-0.4-3.2,0.4-4.9c0.4-0.9,0.1-1.9-0.4-2.7c-0.4-0.6-0.6-1.3-0.9-2.1
					c-0.5-1.3-0.3-2.5,1-3.2c0.8-0.5,1.3-1,1-2.1c-0.3-1,0.4-1.3,1.2-0.8c1.6,0.9,3,0.6,4.4-0.1c0.6-0.4,1.3-0.8,2.1,0.1
					c-1,0.4-1.3,0.8-0.4,1.6c0.4,0.3,0.6,0.5,1,0.6c0.6,0.3,1.4,0.8,2.1,0.1c0.6-0.8-0.3-1.4-0.6-1.8c-0.8-0.9-1.3-1.8-1.3-3
					c0-1-0.6-1.8-0.9-2.7c3.4,1.6,5.6,3.7,7.1,6.9c1,2.1,2.7,3.2,4.5,4.4c1.2,0.6,2.2,1.3,3.1,2.2c0.8,0.8,0.6,1.3-0.4,1.6
					c-3.4,0.9-6.6,2.6-10,3.6c-2.2,0.6-4.5,1.6-5.3,3.6c-0.9,2.5-3.1,3.6-4.1,5.8c-0.8,1.8-2.5,2.8-4.5,2.7
					c-1.7-0.1-2.3,0.5-2.6,2.3c-0.1,2.1-1.4,3.9-3.1,5c-2.8,2.1-3,1.9-4,5.3c-1-0.3-2.1-0.5-3.1-0.9c-0.5-0.1-1-0.3-1.4,0
					c-1.4,1.3-3.6,0.5-5.2,2.5c0-1.6-1-2.2-1.4-3.2c-0.4-1-1.9-0.9-2.5,0c-0.5,1-1.3,1.8-2.3,2.3c-1.2,0.6-1.2,1.4,0,2.3
					c0.1,0.1,0.3,0.1,0.3,0.1c0.5,1.3,1,2.3,2.8,2.7c0.9,0.1,1.7,1.4,3,1.3c0.4,0,0.8,0.1,0.8,0.6s-0.3,0.8-0.8,0.8
					c-2.5,0.5-4.7,1.4-6.3,3.4c-0.6,0.6-2.7,0.1-3.5-0.9c-1.4-1.7-3.9-1.4-5,0.5c-0.5,0.9-0.9,2.3-2.5,1.3c-0.4-0.3-0.8,0.1-0.9,0.5
					c-0.3,0.5-0.6,0.5-1.2,0.6c-1.6,0.3-1.9,1.2-1.4,2.8c0.6,2.2,1.9,4,3.1,5.7c1.3,1.7,2.2,3.2,2.5,5.3c0.1,0.9,1.2,0.9,1.8,1.2
					c0.9,0.3,1.2,0.8,1.2,1.6c0,1.2,0,2.2-0.3,3.4c-0.4,1.7,0,2.2,1.7,2.5c1.7,0.3,3.2,1.2,4.8,1.8c0.9,0.4,1.8,1.7,2.1,3.1
					c0.1,1.2,0.5,2.2,1.7,2.6c0.6,0.3,0.4,0.9,0.9,1.3c0.9-0.3,1.9-0.8,2.7,0.5c0.4,0.5,1,0.1,1.4-0.3c0.6-0.5,1.3-1,2.2-0.4
					c0.8,0.5,1.4,1.2,0.9,2.3c1,0.3,1.8,0.5,2.6,0.8c0.6-0.5,0.5-1,0.5-1.7c0-0.5,0.1-0.9,0.8-1c0.3,0,0.6,0,0.8,0.3
					c0.3,0.5-0.3,0.8-0.5,1c-0.3,0.3-0.4,0.5-0.3,0.9c0.5,0.5,1.3,0.4,1.4-0.1c0.5-1.3,2.3-2.2,1.3-3.7c0.8-1.3,1.9-1.4,3.2-1.3
					c1.3,0.1,2.3-0.1,2.1-1.8v-0.1c0.9-1.4,0.4-2.5-0.9-3.4c-0.1-0.1-0.3-0.3-0.3-0.4c0,0,0-0.1-0.1-0.3c0.5-0.8,1.6-1.2,1.7-2.3
					c0-0.1,0.3-0.4,0.5-0.4c2.5-0.3,4-2.1,5.6-3.7c0.9-1,3-0.6,3.5,0.6c0.6,1.7,1.8,3.1,2.5,4.8c0.8,1.7,0.6,3.5-0.5,4.9
					c-0.4,0.4-0.5,1,0,1.3c1.8,0.8,1.6,2.5,1.7,3.7c0.3,1.8,1.7,2.5,2.6,3.7c0.1,0.3,0.5,0.1,0.8,0c1.7-0.5,2.6-0.1,3,1.4
					c0.3,0.8,0.4,1.8-0.3,2.5c-1.2,1.3-1.6,2.8-2.2,4.4c-0.8,1.6,0.3,3,2.1,3.1c2.1,0.1,4.3,0.5,6.3-0.3c0.3-0.1,0.6,0,0.9,0.3
					c1.4,1.6,2.7,1.6,4.3-0.3c0.4-0.4,0.4-0.8,0.8-1.4c0.6,0.4,1,1.4,1.9,0.8c0,0,0.4,0.1,0.5,0.4c0.8,1.6,2.3,2.7,2.8,4.4
					c0.3,0.9,1.2,1.6,1.8,2.2c0.5,0.5,1,1,0.6,1.8c-0.4,0.9-1.3,0.9-2.1,0.8c-1.4-0.3-2.7-1-3.6-2.3c-1.3-1.6-3-2.5-4.8-3
					c-0.4-0.1-0.9-0.3-1.2,0.3c-0.4,0.5,0,1,0.4,1.2c1.8,0.8,1.3,1.6,0.3,2.8c-1.6,1.9-1.4,4.3-0.6,6.6c0.3,0.9,1,1.4,1.8,1.7
					c1.3,0.4,1.6,1.2,1.2,2.3c-0.4,1.2-0.8,2.5-0.1,3.7c0.1,0.4,0,0.8-0.3,1c-1,1.2-1,2.5-0.9,3.9c0.1,1.6,0,3-0.3,4.5
					c-0.3,1-0.3,2.1,0.8,3c0.5,0.4,0.5,1,0.6,1.7c0.3,1.2,0.9,2.1,1.8,2.7c1.6,1.2,1.8,2.2,1,4c-0.4,0.9-0.8,1-1.6,0.6
					c-0.4-0.1-0.6-0.4-1-0.5c-0.5-0.1-1-0.1-1.2,0.4c-0.3,0.6,0.1,0.9,0.6,1c0.4,0.1,0.9,0.3,1.2,0.8c-0.9,0.4-1.8,0.1-2.7,0.1
					c-0.6,0-1,0.3-1.3,0.8c-0.1,0.6,0.4,0.8,0.8,1c1.2,0.5,1.7,1.3,1.3,2.6c-0.3,1,0.1,1.8,1.2,2.3c1.4,0.8,1.6,1.7,0.9,3
					c-0.8-0.4-1-1.2-1.6-1.8c-0.8-1-1.6-1.6-2.6-0.4c-0.6,0.8-1.3,0.5-2.1,0.5c-0.6,0-1.4-0.3-2.3,0.1c1.4,1.8,1.6,4.3,3.7,5.6
					c1,0.5,1.6,1.3,0.8,2.5c-0.3,0.4-0.3,0.9-0.1,1.4c0,3,0.1,6.1,0.9,9c0.5,2.1-0.4,3.7-1.2,5.6c-0.9,1.9-1.6,3.7-0.4,5.9
					c0.5,1-0.1,2.1-0.8,3c-0.8,1.2-1.7,2.2-2.2,3.5c-0.3,0.8-1,1.2-1.7,1.7c-0.9,0.6-1.8,1.3-2.7,1.9c-1.2,0.9-1.8,2.1-1.7,3.5
					c0.1,1.8-0.6,3.1-2.1,4.1c-2.8,2.1-4,5-3.7,8.4c0.1,3-1.3,4.9-3.5,6.6c-0.8,0.6-1.7,1.2-2.5,1.7c-2.5,1.7-4.1,3.9-4.5,6.9
					c0,0.3-0.1,0.4-0.1,0.6c0,0-0.1,0-0.3,0.1c-0.6-0.6-1.6-1.3-2.6-1.2c-0.9,0.1-0.8-0.6-1-1.2c-0.1-0.4-0.3-0.9-0.9-0.8
					c-0.6,0.1-0.6,0.6-0.6,1.2c0,0.6,0.1,1.3,0.5,1.8c0.4,0.8,0.9,1.6,0.6,2.6c-0.1,0.3,0,0.6,0.1,0.8c1.6,1.2,1.7,3.2,3.2,4.5
					c0.9,0.8,1.2,1.6,0,2.3c-0.4,0.3-0.8,0.5-0.9,0.9c-0.5,1.8-1.9,1.3-2.7,0.6c-1.8-1.4-3.9-1.6-5.9-1.4c-1.7,0.1-3-0.4-3.6-2.1
					c-0.6-1.7-1.9-2.2-3.7-2.2c-0.9,0-1.8,0.3-2.6-0.6c0.3-0.8,1-0.9,1.4-1.4c0.3-0.4,0.5-0.8,0.1-1.2c-0.4-0.5-0.8-0.3-1.2,0
					c-0.3,0.3-0.6,0.5-1,0.5c-1.8,0-2.6,1-2.7,2.7c0,0.1,0,0.4-0.1,0.5c-1.3,1.7-3.2,2.5-4.5,4.3c-0.4-0.8-0.1-0.9,0.1-1.2
					c1.7-1.7,2.2-3.7,1.3-5.9c-0.3-0.8-0.8-1.6-1.7-1.6c-0.9,0-0.9,0.9-1.2,1.6c-0.3,0.8-0.5,1.7-0.6,2.5c-0.4,1.8-2.1,3-3.7,2.5
					c-0.5-0.1-0.9-0.3-1.4-0.3c0.8-2.1,0.5-2.7-1-3.1c-0.9-0.1-1.4,0.3-2.1,0.8c-1.3,1-2.5,1.6-4,0.4c-1.3-0.9-3-0.9-4.5-1
					c-2.3-0.1-4.5-0.9-6.9,0.3c-1,0.5-2.6-0.3-3.6,0.8c-0.5-0.5-0.3-1.6-1.3-1.4c-1,0.1-2.1,0.1-2.7,1c-0.4,0.5-0.3,1.2,0.3,1.4
					c1.2,0.8,1.9,2.5,3.9,2.1c-1.6,0.5-2.3,1.6-3,2.8c-0.6,1.3-2.6,1.6-3.5,1c-1.7-0.8-2.5,0-3.4,1c-0.1,0.3-0.4,0.4-0.8,0.6
					c-0.8-1.3-1.9-1.3-3.1-1c-0.6-0.9-0.4-2.3-1.7-2.8c-0.8,0.5-0.4,1.3-0.8,1.9c-0.4,0.9-0.9,1.7-1.8,1.8c-1.6,0.3-1.3,0.9-0.6,1.8
					c0.1,0.3,0.1,0.5,0.3,0.8c-0.6,0.5-1.3,0.4-2.1,0.3c-0.6-0.1-1.3-0.3-1.9-0.4c-2.2-0.3-3.4,0.6-3.4,2.8
					c-1.4,0.5-2.7,0.6-4.1-0.1c-0.5-0.3-1.3-0.5-1.7-0.1c-1,1.2-2.1,0.5-3.2,0.1c-0.5-0.1-0.8-0.4-0.8-0.9c-0.1-0.5,0.1-0.9,0.6-1.2
					c0.8-0.4,1.4-0.6,2.2-0.9c1.4-0.5,1.4-0.6,0.5-1.8c1.3-1.9,1.3-1.9-1-2.3c-1.6-0.3-3.5-0.3-3.5-2.5c-1.2-0.4-1.4,1.3-2.5,0.8
					c-0.6-0.4-1.3-1-1.8-1.6c-0.4-0.3-0.6-0.5-1.2-0.3c-0.5,0.3-0.3,0.8-0.1,1.2c0.1,1.2,0.6,1.9,1.8,2.1c0.9,0.1,1.2,0.6,1,1.4
					c-0.3,0.8,0.1,1.3,0.4,1.9c0.1,0.3,0.4,0.6,0.1,1c-0.4,0.4-0.6,0.1-1,0c-0.5-0.1-0.9-0.5-1.6-0.3c0.8,1.2,2.5,0.9,3.2,2.1
					c-0.6,0.9-1.4,1.7-1.4,2.8c0,0.8-2.8,2.1-4,2.1C172.4,276.5,170.9,276.1,169.6,274.8z"/>
			</defs>
			<clipPath id="SVGID_2_">
				<use xlink:href="#SVGID_1_"  style="overflow:visible;"/>
			</clipPath>
			<rect x="79.4" y="7.6" class="st2" width="80.3" height="320.2"/>
		</g>
		<g>
			<defs>
				<path id="SVGID_3_" d="M169.6,274.8c0.8,2.3,0.8,2.3-0.8,2.8c0.1-1.8-1-2.2-2.6-2.6c-1.2-0.3-1.8-1.2-1.8-2.3c0-0.6,0-1.4-1-1.3
					c-0.9,0.1-0.6,0.9-0.5,1.6c0.3,1.7,1.2,2.8,2.8,3.4c1.2,0.4,1.8,0.9,0.4,1.8c-1,0.6-0.5,1.9-0.8,2.8c-0.5,0.1-0.6-0.3-0.6-0.5
					c-0.3-1.6-1.3-1.9-2.6-2.1c-1-0.1-1.8-0.4-1.8-1.8c-1.7,1.6-3-1.2-4.7,0c0.3,1.6,1.8,1.2,2.6,1.9c-0.3,0.9-0.5,1.8-0.8,2.8
					c-0.3,0.6-1.7,0.9-2.2,0.3c-1.3-1.7-3.5-2.3-4.7-4.3c-0.5-0.9-1.6-0.5-1.4,0.4c0.1,1.4-0.8,2.2-1.4,3.2
					c-0.5,0.8-2.5,0.6-2.6-0.1c-0.4-1.4-1.8-1.7-2.5-3c-2.8,4.3-3.9-0.1-5.6-1.2c-0.6,0.8-0.1,1.3,0.1,1.8c0.1,0.4,0.6,0.8,0.3,1.3
					c-0.3,0.4-0.6,0.4-1,0.3c-0.6-0.1-0.5-0.8-0.6-1.2c0-0.1-0.1-0.4-0.4-0.6c-1.2,0.9-1.7,2.2-3,2.8c-1.2,0.5-1.7,0.5-2.5-0.4
					c-0.6-0.8-1.2-1.8-2.2,0c-0.4,0.8-1.7,1.4-3,0.3c1.4-1.4,3.5-2.3,3.9-4.9c-1.9,0.6-3.4,1.4-4.8,2.2c0.1-1,1-1,1.4-1.6
					c0.4-0.4,0.8-1.2,0.1-1.3c-1.2-0.1-1.7-1-2.5-1.4c-0.8,0.5-0.1,1.3-0.8,1.8c-1.3-0.1-2.7,1-3.7-0.9c-1.2,1.3-2.7,0.8-3.9,1.4
					c-1.6-2.2-1.9-2.2-4.3-0.8c-0.8,0.5-1.4,1.2-2.5,1c-0.5-0.4,0-1-0.5-1.3c-1.4-0.6-1.2,2.3-2.8,1.4c0.1-0.8,1.8-1.2,0.1-2.1
					c1.4-1,2.8-1.7,4.5-1.6c2.7,0.1,5-0.6,7.1-2.3c0.6-0.5,1.3-0.8,2.1-0.8s1.6-0.1,1.8-1c-1.3-0.9-4.8-1-5.8-0.1
					c-1.3,1.2-2.8,1.6-4.5,1.3c-1.7-0.3-3.2-0.1-4.9-0.1c1.7-0.1,3-0.9,4-2.2c0.1-0.3,0.5-0.3,0.9-0.3c3.2-0.3,6.5-0.9,9.6-1.4
					c1.7-0.3,3.4-0.5,4.9-0.9c0.9-0.1,2.3-2.5,1.9-3.2c-0.5-1.3-1.4,0-2.2-0.3c-0.5-0.3-0.5-1-0.6-1.6c-0.1-0.5-0.3-1-0.9-1.2
					c-0.6,0-1.2,0.4-1.3,1c-0.3,1.3-0.9,1.9-2.2,1.8c-0.3,0-0.5,0.1-0.8,0.3c-2.7,1.4-3.2,1.3-5.4-0.9c-1.7,1.6-3.6,1-5.7,0.5
					c-1.7-0.4-3.5-0.5-5,0.9c-0.5,0.5-1,0.6-1.8,0.4c-0.1-0.1-0.5-0.1-0.6,0c-1.7,1.2-3.1,0-4.5-0.6c-0.9-0.4-1.9-0.3-3,0.1
					c0-0.6,0.3-1,0.8-1c0.6,0,1.4-0.1,2.1,0c1.6,0.3,2.2-0.4,2.5-1.8c-0.3-0.5-1.2-0.6-1.2-1.3c0.4-0.4,0.8-0.3,1,0
					c1.4,0.9,2.7,0.6,4.1,0c1.7-0.6,1.8-1.3,0.8-2.8c1.3-0.9,2.8-0.3,4.1-1c1.3,3,2.1,0,3-0.3c1,0.1,1.2,1.8,2.2,1
					c0.9-0.6-0.5-1.4-0.1-2.3c1.4,0.4,2.3-0.6,3.1-1.4c1-1.2,2.3-1.2,3.5-0.8c2.2,0.6,3.9-0.6,6.3-0.8c-0.6-0.5-0.8-0.6-0.9-0.6
					c-1.8-0.1-3.5,0-5.3-0.5c-1.6-0.4-3.6,0.5-5.4,1.2c-1.2,0.4-2.7-0.4-3.2,1.2c-0.5,0-0.6-0.3-0.9-0.5c-0.8-1-1.3-1.2-2.6-0.4
					c-1.8,1-4.1,1-6.2,1.6c-3,0.8-4.3-1.6-6.5-3c1.7-0.4,2.1-1.4,2.3-2.7c0.3-1.4-0.1-2.2-1.6-2.3s-2.6,0.4-3.4,1.6
					s-1.8,1.3-3.1,0.8c-0.1-1,0.9-1.4,1.2-2.2s0.4-1.4-0.6-1.7c-0.6-0.1-1.3-0.3-1-1.2c0.3-0.9,0.5-1.8,1.8-1.6s2.6,0.3,3.9,0
					c0.6-0.1,1.3-0.3,1.4-0.9c0.3-1.8,1.6-1.9,2.8-2.1c0.4,0,0.9,0,1-0.6c-1.4-1.3-3.5,0.8-4.9-0.6c1.4-1.9,3.7-1.7,5.6-2.5
					c1.9-0.8,3.9-0.3,5.7-0.8c0.1,0,0.4,0,0.5,0c3.5,1.6,5.8-1,8.4-2.5c0.8-0.4,1.2-0.8,2.2-0.5c1.3,0.4,2.8-0.4,3.9,0.6
					c0.9-0.4,0.1-1.3,0.9-1.6c0.5-0.1,0.6-0.5,0.5-1c-0.3-0.5-0.6-0.6-1-0.5c-1.4,0.4-2.5-0.3-3.5-1c-1-0.6-2.2-0.4-3.2-0.1
					c-0.8,0.3-1,0.8-0.9,1.6c0.1,0.4,0.5,0.9-0.1,1.3c-0.1,0-0.3,0-0.3-0.1c-0.1-2.1-1.3-3-3.4-2.7c-0.9,0.1-1.9-0.3-2.7,0
					c-2.8,0.9-4.7-0.5-6.5-2.3c-1.3-1.3-1.7-1.3-2.7-0.8c0,1,1.3,0.6,1.6,1.4c-1.4,0.5-1.8,0.3-2.7-1c-0.6-1-0.8-1.2-1.9-0.8
					c-0.3,0.6,0.6,0.8,0.8,1.7c-1.7-0.9-3.7,0.6-4.9-1.7c0.6-2.3,1.7-4.3,3.9-6.1c0,1.7,0.4,2.8,2.3,2.6c-0.4-1.4,1.6-1.9,0.6-3.7
					c2.5,0.8,3.9-1,5.7-1.3c1.2-0.3,2.5,0,3.6-0.5c0.4-0.1,0.6,0.4,0.8,0.9c0,0.5,0,1,0,1.4c-0.4,0.5-0.8,0.4-1.2,0.4
					c-0.6,0-1.2,0.3-1,0.9c0.1,0.6,0.8,0.8,1.3,0.6c1.8-0.6,3.9,0.3,5.6-1.3c0.5-0.5,0.9,0,1.2,0.6c1.2,2.7,3,4.1,6.1,4
					c1.3-0.1,2.6,0,3.7,0.5c0.6,0.4,1.7,0.6,2.2-0.3c0.5-0.9-0.3-1.6-0.9-2.1c-0.8-0.6-2.2-0.3-2.6-1.3c-0.3-0.9,1-1.6,1-2.6
					c0.1-1.4,0.5-2.6,1.2-3.7c0.5-0.9,0-1.6-0.9-1.6c-1-0.1-1.7-0.8-2.5-1.3c-0.4-0.3-0.6-0.6-0.5-1.3c0.3-0.6,0.8-0.6,1.3-0.6
					c0.3,0,0.6,0.1,0.9,0.3c2.5,1,4.5,0.8,6.5-1c0.5-0.4,1.2-0.5,1.8-0.5c2.2-0.1,2.6-0.4,3.1-2.6c0.3-1.2,0.6-2.1,1.7-2.8
					c0.8-0.5,1.6-0.6,2.5-0.1c1.6,0.9,3.2,1.4,4.8,2.1c0.1,0,0.3,0.1,0.3,0.1c1.7-0.9,3.4,0.1,5,0c0.6,1.3,2.3,2.2,4,1.8
					c3-0.6,5.9-0.8,9-0.5c2.2,0.1,4.3,0.3,6.2-1c0.3-0.3,0.8-0.4,1-0.3c1.9,0.5,4.1,0.4,6.1,0.9c1.8,0.5,3.9,0.4,5.2,2.2
					c0.3,0.4,1.3,0.5,2.2-0.3c-2.1-0.8-2.8-3.2-5.4-3c-0.8,0.1-1.7,0-2.1-0.8c-1-1.6-2.5-1.9-4.1-1.8c-0.4,0-0.9,0.1-1.2-0.3
					c0-0.6,0.6-0.5,0.8-1c-0.1-0.4-1-0.6-0.3-1.3c0.4-0.3,0.5-0.6,0.4-1c-0.3-0.9,0.1-1.4,0.8-1.8c0.5-0.3,0.9-1,0.5-1.6
					c-0.5-0.6-1-0.1-1.4,0.3c-0.5,0.4-1,1-1.7,0.8c-1.4-0.4-1.9,0.4-2.6,1.4c-1.8,2.6-4.1,4.4-6.6,6.3c-0.5,0.4-1.2,0.4-1.8,0.1
					c-1.6-0.8-3-1.2-4.3,0.6c-0.3,0.3-0.8,0.4-1.2,0.5c-0.6,0.1-1.4,0.1-1.6-0.6c-0.1-0.8,0.4-1,1-1c0.3,0,0.6,0,0.9-0.1
					c0.4-0.1,0.6-0.4,0.6-0.8c-0.1-0.4-0.4-0.5-0.6-0.6c-0.8-0.1-1.4-0.3-2.2,0.1c-2.2,0.9-3.4,0.8-4.9-1c-1.2-1.3-2.8-2.2-2.8-4.3
					c0-0.4-0.3-0.5-0.6-0.5c-0.3,0-0.5,0.1-0.6,0.4c-0.3,0.6,0.4,1.6-0.8,1.9c-1.3,0.4-2.7,0.8-4.1,0.1c-1-0.4-1.8-0.5-2.2,0.8
					c-0.1,0.4-0.6,0.6-1,0.6c-1.9,0.1-3.7,0.8-5.6-0.4c-0.5-0.4-1-0.3-1.7,0.1c-0.8,0.5-1.6,0-2.5-0.1c1.4-1.2,2.8-2.2,4.9-1.8
					c0.4,0.1,0.8,0,1-0.1c1.6-1.3,3.6-1.4,5.3-2.6c0.6-0.5,1.4-0.9,2.5-0.8c0.8,0,1.3-0.4,1.7-1c0.5-0.8,1.2-1.3,1.8-1.9
					c1-1,1.9-1.3,3.2-0.6c1.8,0.8,3.5-0.4,3.6-2.3c0-0.4,0-0.9,0.4-0.9c1.9-0.5,2.3-2.3,3.2-3.7c0.6-1,1.3-1.7,2.5-1.8
					c1-0.3,2.1-0.6,2.6-1.8c0.5-1,0.1-1.8-1.2-1.9c-1-0.1-2.1,0.1-3.4-0.9c1.8-0.3,2.5-1.4,3.4-2.6c0.5-0.5,0.9-1,1.2-1.8
					c0.3-1.4,1.6-2.1,2.7-2.6c2.2-0.8,3.5-2.3,4.4-4.4c0.5-1.2,1-1.2,1.9-0.5c1,0.8,1.9,1.6,2.8,2.5c1.4,1.3,2.2,1.2,3.2-0.5
					c0.9-1.4,1.6-0.5,2.2,0.1c0.8,0.8,1.6,1.7,2.7,0.8c0.4-0.8-0.5-0.8-0.5-1.4c1.7,0,1.4,1.9,2.6,2.5c1-0.9,0-2.5,0.8-3.4
					c0.8-1,2.5-0.4,3.4-1.6c-1.3-1.9-3.4,0-4.9-0.9c1-0.8,1.2-2.2,2.5-2.5c0.4-0.1,0.5-0.4,0.4-0.8c0-0.4-0.3-0.6-0.6-0.6
					c-2.2-0.1-4.1-1-6.3-0.9c-2.1,0.1-4.1,0-6.2-0.8c-2.1-0.8-4.4-0.5-6.6-0.8c-0.9-0.1-1.9,0-2.8,0c-2.7-0.1-3.2-0.8-3-3.5
					c0-0.1,0-0.3,0-0.3c0-0.6,0.4-1.6-0.4-1.8c-0.9-0.3-1,0.6-1.4,1.2c-0.4,0.5-0.5,1.3-1.4,1c-0.4-0.6,0.1-1.2,0.4-1.6
					c0.4-0.5,0.9-1.2,0.9-1.8c0-1.3,0.5-2.1,1.9-2.3c0.4,0,0.8-0.4,0.6-0.8c-0.5-1.2,0.1-1.9,0.9-2.7c-1.9-0.5-2.2-0.4-2.6,1.3
					c-0.1,0.5,0.1,1.2-0.6,1.3c-0.3,0-0.6,0-0.8-0.3c-0.4-0.5,0-1,0.1-1.4c0.1-0.3,0.3-0.4,0.3-0.6c0.1-0.5,0.4-1.2-0.3-1.6
					c-0.5-0.4-1,0-1.4,0.4c-1.2,0.9-2.3,1.8-3.5,2.7c-1.3,1-2.6,1.3-3.9,0.1c-0.9-0.8-2.1-1-3.1-1.7c0.6-1.8,1.4-3.4,3.7-3.4
					c0.8,0,1.7-0.1,2.2-0.9c0.3-0.4,0.6-0.9,0.3-1.4s-0.9-0.1-1.3,0c-0.5,0.1-1,0.5-1.7,0c0-1,1.4-0.8,1.4-2.1
					c-1.3,0.3-2.7,0-3.7,1.2c-1.4,1.8-2.8,1.8-4.3,0c-0.3-0.4-0.5-0.6-0.6-1c-0.4-1.2-1.2-1.6-2.3-1.6c-0.4,0-0.9,0-1.3-0.1
					c-0.8-0.3-1.4-0.6-2.3-1c1.2-0.9,1.9-1.9,3.4-0.9c0.5,0.4,1.2,1,1.8,0.4c0.8-0.6,0-1.3-0.3-1.9c-0.1-0.1-0.1-0.3-0.1-0.6
					c0.9,0.1,1.2,1,1.7,1.4c0.4,0.3,0.6,0.4,1,0c0.3-0.4,0.3-0.6,0-1c-0.4-0.4-0.8-0.8-1.2-1.2c-1-0.6-1.7-1.6-1.7-2.8
					c0-0.8-0.5-1.3-1.2-1.7c-0.5-0.4-1.2-0.6-1.2-1.6c1.6-0.6,2.2,1.3,3.5,1.3c0.9-0.8-0.4-1.3-0.1-2.1c1.3,0.4,2.5,1,3.2,2.2
					c0.3,0.4,0.6,0.8,0.9,1c0.5,0.4,1,0.9,1.7,0.1c0.5-0.6,0.3-1.2-0.3-1.7c-0.8-0.6-1.2-1.4-1.3-2.5c0.5-0.4,0.8,0,1,0.1
					c1.4,0.6,2.8,1.4,4.7,1.3c1.4-0.1,2.8,0.5,4,1.6c1,0.9,2.3,1.4,3.6,1.6c0.9,0.1,1.8,0.1,2.2-1.3c-3.7,0-6.5-1.9-8.5-4.7
					c-0.8-0.9-0.6-4,0.3-4.8c0.5-0.5,1-1,1-1.9c0.1-1.4,1.2-1.4,2.2-1.4c0.1,0,0.5,0.3,0.6,0.3c2.6-1.3,4.4,2.1,7,0.9
					c0.8-0.3,1.6,0.1,2.2,0.6c0.9,0.5,1.8,0.6,2.7,0.3c1.2-0.5,1.6-1.2,0.8-2.2c-0.8-1-0.6-1.8,0.5-2.5c0.9-0.5,1-1.4,0.9-2.5
					c-0.1-1-0.9-1.2-1.7-1.3c-1.3-0.1-2.5-0.9-3.5-1.6c-1.7-0.9-3.4-1-5-0.3c-1.3,0.6-3,1.3-4,0c-1-1.2,0.1-2.7,0.8-4
					c0.6-1.2,1.4-1.9,2.8-1.3c1,0.4,1.7,1,1,2.2c-0.3,0.6-0.4,1.2,0.3,1.6c0.9,0.4,1-0.4,1.3-1c0.9-2.1,0.6-3-1.4-4.4
					c1-1.7-0.3-2.8-0.9-4c-0.6-1.3-0.6-1.6,0.9-1.8c1.2-0.1,3-3.1,2.6-4.1c-0.3-0.6-0.6-0.9-1.2-0.3c-0.6,0.8-1.6,1-2.2,1.9
					c-0.4,0.6-1.2,1.2-2.1,0.6c-0.9-0.6-0.4-1.6-0.4-2.3c0-0.9,0.9-0.8,1.4-0.8c0.5,0,1.2,0.1,1.4-0.5c0.3-0.5,0-0.9-0.4-1.3
					c-0.3-0.3-0.4-0.5-0.5-0.9c1.2-0.6,1.3-1.9,1.9-2.8c0.5-0.9,1.2-1.4,2.1-1.4c1-0.1,1.4-0.6,1.6-1.7c0.1-1.6,1-2.1,2.3-1.2
					c0.8,0.5,1.4,1.2,2.1,1.7c0.4,0.3,0.9,0.6,1.3,0.1c0.5-0.5,0-1-0.4-1.4s-0.9-0.8-1.4-1.2c-0.4-0.5,0.5-0.4,0.4-0.9
					c-0.6-0.4-1.3-0.8-1.9-1.3c-0.4-0.3-0.8-0.6-0.4-1.2c0.4-0.5,3.1-0.8,3.6-0.4c0.5,0.5,1,1,1.6,1.6c1.2,1,2.3,2.1,4.1,1.4
					c0.9-0.4,1.6,0.4,2.2,1c0.9,1.2,1.7,1.8,3.2,1c0.8-0.4,3.5,1.2,3.7,2.1c0.3,0.8,0.6,1.3,1.3,0.8c1.9-1.9,3.2-0.3,4.8,0.6
					c-0.5,1-1.6,1.8-0.9,3c0.9,0.3,1-0.9,1.8-0.6c-0.3,1-1.6,1.4-1.8,2.3c0.4,0.8,1.3,0.4,1.8,0.8c-0.1,1-1.4,0.5-1.4,1.7
					c3.7,0.3,1.7,3.4,2.3,5.2c0.5,0.1,0.8-0.1,0.9-0.4c1-3.4,3.9-5.3,5.9-7.9c0.3-0.4,0.8-0.5,1.2-0.4c1.6,0.4,3.4,0.3,4.4,2.1
					c0.8,1.4,2.1,3,3.7,2.7c1.9-0.3,3.5,0.8,5.3,0.5c0.9-0.1,1.3,0.4,1.6,1.2c0.6,1.6,1.6,3,1.8,4.8c0.9-0.4,1.6-0.8,2.2-0.3
					c0.4,0.3,0.9,0.3,1-0.3s-0.1-0.8-0.5-1c-1.7-0.8-2.2-2.2-2.5-3.9c0.8-0.6,1.4-0.3,1.9,0.1c0.5,0.3,1,0.5,1.6,0.8
					c0.5,0.1,1,0.1,1.4-0.4c0.4-0.6-0.1-0.9-0.5-1.3c-0.6-0.8-1.9-1-2.1-2.3c0.6-0.4,0.8,0.1,1,0.4c0.4,0.5,0.9,0.6,1.4,0.1
					c0.5-0.6,0.1-1-0.3-1.6c-0.6-0.6-1.6-0.8-2.3-0.9c-1.4-0.3-2.3-1-3.1-2.5c1.8-0.3,3.5-0.8,5.2-0.8c2.3,0,3.6-1,4.3-3.1
					c0.3-0.6,0.4-1.6,1.4-1.7c0.4,1.3,1.3,1,2.5,1.2c2.8,0.3,5.7-1.2,8.5-0.3c0-0.3,0-0.4,0-0.4c-0.4-0.6-1.6-0.6-1.6-1.6
					c0-1,1.2-0.8,1.7-1.3c0.8-1,1.4-2.3,2.8-2.7c0.6-0.3,1.3-0.4,1.9-0.6c1-0.4,1.8-1.8,1.6-2.8c-0.1-0.5-0.4-0.6-0.9-0.6
					c-1.7,0-3.2,0.1-4.8,0.8c-0.5,0.3-1.2,0.3-1.8,0.4c0-0.9,1.3-1.3,0.5-2.1c-0.8-0.6-1.7-0.5-2.6-0.3c-0.9,0.3-1.7,1-2.5,1.6
					c-1,0.8-2.1,1.6-3.9,1.8c1.3-1.7,3.5-1.4,4.4-3.2c-0.9-0.4-0.9-1.6-1.7-1.9c-1,0.6-1.2,2.1-2.2,2.6c-0.8-0.4-0.5-0.8-0.3-1.3
					c0.1-0.4,0.3-0.8,0-1c-0.4-0.4-0.6-0.1-1,0c-1.6,0.6-2.8,0.5-3.7-1c-0.6-0.9-1.3-1-2.2,0c-1.2-2.5-4.9-3.2-4-7
					c1.2,0,1.7-0.8,2.3-1.8c1.6-2.5,5.8-3,7.9-0.9c2.1,1.9,3.2,2.6,5,2.3c-0.1-1-1-1.3-1.7-1.8c-0.3-0.3-0.9-0.5-0.6-1.2
					c0-0.1,0.3-0.3,0.5-0.4c0.6-0.1,0.9,0.4,1.2,0.6c0.4,0.4,0.6,0.9,1,1.3c0.3,0.3,0.5,0.4,0.9,0.3c0.4-0.1,0.4-0.6,0.4-0.9
					c-0.3-1.6-1-2.7-2.7-3.4c-0.6-0.3-1.6-0.4-1.8-1.4c1.3,1,2.7-0.3,4.3,0.5c1.2,0.6,2.8,0.6,4.4,1.4c1.8,1,3.5,0,4.1-1.6
					c-0.9-0.4-1.8,0.1-2.6,0.1c-0.6,0-1.4,0.1-1.7-0.6c-0.3-0.9,0.6-0.8,1.2-1c0.9-0.4,1.3-1,0.8-1.9c-0.5-1-1.3-0.5-1.9-0.1
					c-0.3,0.1-0.5,0.4-0.8,0.5c-1.8-1.4-1.9-1.7-1-3.5c1,0.3,2.3,1,3-0.3c0.6-1.2-0.6-1.8-1.4-2.6c-0.4-0.5-0.9-0.9-0.4-1.8
					c1.4,0.4,2.5,0.3,3-1.4c0.3-0.8,0.9-0.8,1.6-0.1c1,1,1.7,0.9,2.2-0.3c0.4-0.8,0.5-1.6,0.4-2.3c-0.3-1.9,0.8-3.4,1.6-4.9
					c0.4-0.8,1.2-0.9,1.7-0.4c0.8,0.6,1.6,1,2.5,1.4c0.4,0.1,0.6,0.4,0.9,0.9c0.9,1.7,1,1.7,2.2,0.3c0.5-0.6,1-1,1.9-1
					c1.6,0,2.7-0.6,3.4-2.1c0.1-0.4,0.5-0.8,0.9-1c0.5-0.4,1.3-0.5,1.8,0.1c0.5,0.5,0,1-0.4,1.4s-0.6,0.8-0.5,1.3
					c0.3,0.5,0.8,0.5,1.3,0.5c1.2-0.3,1.6,0.8,1.9,1.6c0.5,0.8-0.1,1.2-0.5,1.7c-0.1,0.3-0.4,0.4-0.3,0.8c1.3,0.6,2.2-0.1,2.8-1
					c0.6-0.8,1.4-1.6,0.1-2.6c-0.8-0.6-0.6-1.6-0.3-2.5c1.6,0.6,2.3-0.6,3.2-1.8c0.6,1.3-0.3,1.9-0.6,2.5c-1.3,1.7-1.3,2.3,0.5,3.6
					c2.1,1.6,2.1,1.6,1.2,4.1c-0.3,0.6-0.6,1.3,0.1,1.9c3.1-1.6,3.6-6.6,1.7-9.3c-1.4,0.6-0.4,1.9-0.8,3c-0.4,0-0.5-0.4-0.8-0.5
					c-0.6-0.5-1.8-0.6-1.4-1.8c0.3-0.9,2.1-1.8,3.1-1.6c0.8,0.1,1.3,0,1.7-0.5c0.5-0.5,1.2-0.9,1.8-0.4c0.6,0.5,0.5,1.3,0.4,1.9
					c-0.1,0.5-0.4,1-0.5,1.6c-0.6,1.4-0.5,2.7,0.8,3.7c1.2,1,1.2,2.7,1.9,4c0.4,0.6-1.2,2.6-2.1,2.6c-0.6,0-1.3,0.1-1.6,0.6
					c-0.5,0.8-1.2,1.3-2.2,1.4c-0.5,0-0.6,0.4-0.6,0.9c1,0.8,2.1,0,3.2-0.1c-0.6,1.4-1.9,2.1-3,2.5c-1.3,0.5-2.1,1.7-3.2,2.3
					c-0.3,0.1-0.4,0.5-0.3,0.9c0.1,0.3,0.4,0.4,0.6,0.4c1.2,0.1,2.2-0.4,3-1.2c1-1,2.2-2.1,3.9-2.1c0.4,0,0.6-0.1,0.8-0.5
					c0.4-0.8,1-0.8,1.8-0.6c1.4,0.3,2.2-0.4,1.8-1.7c-0.5-1.7-0.4-3.2,0.4-4.9c0.4-0.9,0.1-1.9-0.4-2.7c-0.4-0.6-0.6-1.3-0.9-2.1
					c-0.5-1.3-0.3-2.5,1-3.2c0.8-0.5,1.3-1,1-2.1c-0.3-1,0.4-1.3,1.2-0.8c1.6,0.9,3,0.6,4.4-0.1c0.6-0.4,1.3-0.8,2.1,0.1
					c-1,0.4-1.3,0.8-0.4,1.6c0.4,0.3,0.6,0.5,1,0.6c0.6,0.3,1.4,0.8,2.1,0.1c0.6-0.8-0.3-1.4-0.6-1.8c-0.8-0.9-1.3-1.8-1.3-3
					c0-1-0.6-1.8-0.9-2.7c3.4,1.6,5.6,3.7,7.1,6.9c1,2.1,2.7,3.2,4.5,4.4c1.2,0.6,2.2,1.3,3.1,2.2c0.8,0.8,0.6,1.3-0.4,1.6
					c-3.4,0.9-6.6,2.6-10,3.6c-2.2,0.6-4.5,1.6-5.3,3.6c-0.9,2.5-3.1,3.6-4.1,5.8c-0.8,1.8-2.5,2.8-4.5,2.7
					c-1.7-0.1-2.3,0.5-2.6,2.3c-0.1,2.1-1.4,3.9-3.1,5c-2.8,2.1-3,1.9-4,5.3c-1-0.3-2.1-0.5-3.1-0.9c-0.5-0.1-1-0.3-1.4,0
					c-1.4,1.3-3.6,0.5-5.2,2.5c0-1.6-1-2.2-1.4-3.2c-0.4-1-1.9-0.9-2.5,0c-0.5,1-1.3,1.8-2.3,2.3c-1.2,0.6-1.2,1.4,0,2.3
					c0.1,0.1,0.3,0.1,0.3,0.1c0.5,1.3,1,2.3,2.8,2.7c0.9,0.1,1.7,1.4,3,1.3c0.4,0,0.8,0.1,0.8,0.6s-0.3,0.8-0.8,0.8
					c-2.5,0.5-4.7,1.4-6.3,3.4c-0.6,0.6-2.7,0.1-3.5-0.9c-1.4-1.7-3.9-1.4-5,0.5c-0.5,0.9-0.9,2.3-2.5,1.3c-0.4-0.3-0.8,0.1-0.9,0.5
					c-0.3,0.5-0.6,0.5-1.2,0.6c-1.6,0.3-1.9,1.2-1.4,2.8c0.6,2.2,1.9,4,3.1,5.7c1.3,1.7,2.2,3.2,2.5,5.3c0.1,0.9,1.2,0.9,1.8,1.2
					c0.9,0.3,1.2,0.8,1.2,1.6c0,1.2,0,2.2-0.3,3.4c-0.4,1.7,0,2.2,1.7,2.5c1.7,0.3,3.2,1.2,4.8,1.8c0.9,0.4,1.8,1.7,2.1,3.1
					c0.1,1.2,0.5,2.2,1.7,2.6c0.6,0.3,0.4,0.9,0.9,1.3c0.9-0.3,1.9-0.8,2.7,0.5c0.4,0.5,1,0.1,1.4-0.3c0.6-0.5,1.3-1,2.2-0.4
					c0.8,0.5,1.4,1.2,0.9,2.3c1,0.3,1.8,0.5,2.6,0.8c0.6-0.5,0.5-1,0.5-1.7c0-0.5,0.1-0.9,0.8-1c0.3,0,0.6,0,0.8,0.3
					c0.3,0.5-0.3,0.8-0.5,1c-0.3,0.3-0.4,0.5-0.3,0.9c0.5,0.5,1.3,0.4,1.4-0.1c0.5-1.3,2.3-2.2,1.3-3.7c0.8-1.3,1.9-1.4,3.2-1.3
					c1.3,0.1,2.3-0.1,2.1-1.8v-0.1c0.9-1.4,0.4-2.5-0.9-3.4c-0.1-0.1-0.3-0.3-0.3-0.4c0,0,0-0.1-0.1-0.3c0.5-0.8,1.6-1.2,1.7-2.3
					c0-0.1,0.3-0.4,0.5-0.4c2.5-0.3,4-2.1,5.6-3.7c0.9-1,3-0.6,3.5,0.6c0.6,1.7,1.8,3.1,2.5,4.8c0.8,1.7,0.6,3.5-0.5,4.9
					c-0.4,0.4-0.5,1,0,1.3c1.8,0.8,1.6,2.5,1.7,3.7c0.3,1.8,1.7,2.5,2.6,3.7c0.1,0.3,0.5,0.1,0.8,0c1.7-0.5,2.6-0.1,3,1.4
					c0.3,0.8,0.4,1.8-0.3,2.5c-1.2,1.3-1.6,2.8-2.2,4.4c-0.8,1.6,0.3,3,2.1,3.1c2.1,0.1,4.3,0.5,6.3-0.3c0.3-0.1,0.6,0,0.9,0.3
					c1.4,1.6,2.7,1.6,4.3-0.3c0.4-0.4,0.4-0.8,0.8-1.4c0.6,0.4,1,1.4,1.9,0.8c0,0,0.4,0.1,0.5,0.4c0.8,1.6,2.3,2.7,2.8,4.4
					c0.3,0.9,1.2,1.6,1.8,2.2c0.5,0.5,1,1,0.6,1.8c-0.4,0.9-1.3,0.9-2.1,0.8c-1.4-0.3-2.7-1-3.6-2.3c-1.3-1.6-3-2.5-4.8-3
					c-0.4-0.1-0.9-0.3-1.2,0.3c-0.4,0.5,0,1,0.4,1.2c1.8,0.8,1.3,1.6,0.3,2.8c-1.6,1.9-1.4,4.3-0.6,6.6c0.3,0.9,1,1.4,1.8,1.7
					c1.3,0.4,1.6,1.2,1.2,2.3c-0.4,1.2-0.8,2.5-0.1,3.7c0.1,0.4,0,0.8-0.3,1c-1,1.2-1,2.5-0.9,3.9c0.1,1.6,0,3-0.3,4.5
					c-0.3,1-0.3,2.1,0.8,3c0.5,0.4,0.5,1,0.6,1.7c0.3,1.2,0.9,2.1,1.8,2.7c1.6,1.2,1.8,2.2,1,4c-0.4,0.9-0.8,1-1.6,0.6
					c-0.4-0.1-0.6-0.4-1-0.5c-0.5-0.1-1-0.1-1.2,0.4c-0.3,0.6,0.1,0.9,0.6,1c0.4,0.1,0.9,0.3,1.2,0.8c-0.9,0.4-1.8,0.1-2.7,0.1
					c-0.6,0-1,0.3-1.3,0.8c-0.1,0.6,0.4,0.8,0.8,1c1.2,0.5,1.7,1.3,1.3,2.6c-0.3,1,0.1,1.8,1.2,2.3c1.4,0.8,1.6,1.7,0.9,3
					c-0.8-0.4-1-1.2-1.6-1.8c-0.8-1-1.6-1.6-2.6-0.4c-0.6,0.8-1.3,0.5-2.1,0.5c-0.6,0-1.4-0.3-2.3,0.1c1.4,1.8,1.6,4.3,3.7,5.6
					c1,0.5,1.6,1.3,0.8,2.5c-0.3,0.4-0.3,0.9-0.1,1.4c0,3,0.1,6.1,0.9,9c0.5,2.1-0.4,3.7-1.2,5.6c-0.9,1.9-1.6,3.7-0.4,5.9
					c0.5,1-0.1,2.1-0.8,3c-0.8,1.2-1.7,2.2-2.2,3.5c-0.3,0.8-1,1.2-1.7,1.7c-0.9,0.6-1.8,1.3-2.7,1.9c-1.2,0.9-1.8,2.1-1.7,3.5
					c0.1,1.8-0.6,3.1-2.1,4.1c-2.8,2.1-4,5-3.7,8.4c0.1,3-1.3,4.9-3.5,6.6c-0.8,0.6-1.7,1.2-2.5,1.7c-2.5,1.7-4.1,3.9-4.5,6.9
					c0,0.3-0.1,0.4-0.1,0.6c0,0-0.1,0-0.3,0.1c-0.6-0.6-1.6-1.3-2.6-1.2c-0.9,0.1-0.8-0.6-1-1.2c-0.1-0.4-0.3-0.9-0.9-0.8
					c-0.6,0.1-0.6,0.6-0.6,1.2c0,0.6,0.1,1.3,0.5,1.8c0.4,0.8,0.9,1.6,0.6,2.6c-0.1,0.3,0,0.6,0.1,0.8c1.6,1.2,1.7,3.2,3.2,4.5
					c0.9,0.8,1.2,1.6,0,2.3c-0.4,0.3-0.8,0.5-0.9,0.9c-0.5,1.8-1.9,1.3-2.7,0.6c-1.8-1.4-3.9-1.6-5.9-1.4c-1.7,0.1-3-0.4-3.6-2.1
					c-0.6-1.7-1.9-2.2-3.7-2.2c-0.9,0-1.8,0.3-2.6-0.6c0.3-0.8,1-0.9,1.4-1.4c0.3-0.4,0.5-0.8,0.1-1.2c-0.4-0.5-0.8-0.3-1.2,0
					c-0.3,0.3-0.6,0.5-1,0.5c-1.8,0-2.6,1-2.7,2.7c0,0.1,0,0.4-0.1,0.5c-1.3,1.7-3.2,2.5-4.5,4.3c-0.4-0.8-0.1-0.9,0.1-1.2
					c1.7-1.7,2.2-3.7,1.3-5.9c-0.3-0.8-0.8-1.6-1.7-1.6c-0.9,0-0.9,0.9-1.2,1.6c-0.3,0.8-0.5,1.7-0.6,2.5c-0.4,1.8-2.1,3-3.7,2.5
					c-0.5-0.1-0.9-0.3-1.4-0.3c0.8-2.1,0.5-2.7-1-3.1c-0.9-0.1-1.4,0.3-2.1,0.8c-1.3,1-2.5,1.6-4,0.4c-1.3-0.9-3-0.9-4.5-1
					c-2.3-0.1-4.5-0.9-6.9,0.3c-1,0.5-2.6-0.3-3.6,0.8c-0.5-0.5-0.3-1.6-1.3-1.4c-1,0.1-2.1,0.1-2.7,1c-0.4,0.5-0.3,1.2,0.3,1.4
					c1.2,0.8,1.9,2.5,3.9,2.1c-1.6,0.5-2.3,1.6-3,2.8c-0.6,1.3-2.6,1.6-3.5,1c-1.7-0.8-2.5,0-3.4,1c-0.1,0.3-0.4,0.4-0.8,0.6
					c-0.8-1.3-1.9-1.3-3.1-1c-0.6-0.9-0.4-2.3-1.7-2.8c-0.8,0.5-0.4,1.3-0.8,1.9c-0.4,0.9-0.9,1.7-1.8,1.8c-1.6,0.3-1.3,0.9-0.6,1.8
					c0.1,0.3,0.1,0.5,0.3,0.8c-0.6,0.5-1.3,0.4-2.1,0.3c-0.6-0.1-1.3-0.3-1.9-0.4c-2.2-0.3-3.4,0.6-3.4,2.8
					c-1.4,0.5-2.7,0.6-4.1-0.1c-0.5-0.3-1.3-0.5-1.7-0.1c-1,1.2-2.1,0.5-3.2,0.1c-0.5-0.1-0.8-0.4-0.8-0.9c-0.1-0.5,0.1-0.9,0.6-1.2
					c0.8-0.4,1.4-0.6,2.2-0.9c1.4-0.5,1.4-0.6,0.5-1.8c1.3-1.9,1.3-1.9-1-2.3c-1.6-0.3-3.5-0.3-3.5-2.5c-1.2-0.4-1.4,1.3-2.5,0.8
					c-0.6-0.4-1.3-1-1.8-1.6c-0.4-0.3-0.6-0.5-1.2-0.3c-0.5,0.3-0.3,0.8-0.1,1.2c0.1,1.2,0.6,1.9,1.8,2.1c0.9,0.1,1.2,0.6,1,1.4
					c-0.3,0.8,0.1,1.3,0.4,1.9c0.1,0.3,0.4,0.6,0.1,1c-0.4,0.4-0.6,0.1-1,0c-0.5-0.1-0.9-0.5-1.6-0.3c0.8,1.2,2.5,0.9,3.2,2.1
					c-0.6,0.9-1.4,1.7-1.4,2.8c0,0.8-2.8,2.1-4,2.1C172.4,276.5,170.9,276.1,169.6,274.8z"/>
			</defs>
			<clipPath id="SVGID_4_">
				<use xlink:href="#SVGID_3_"  style="overflow:visible;"/>
			</clipPath>
			<rect x="159.7" y="7.6" class="st3" width="80.3" height="320.2"/>
		</g>
		<g>
			<defs>
				<path id="SVGID_5_" d="M169.6,274.8c0.8,2.3,0.8,2.3-0.8,2.8c0.1-1.8-1-2.2-2.6-2.6c-1.2-0.3-1.8-1.2-1.8-2.3c0-0.6,0-1.4-1-1.3
					c-0.9,0.1-0.6,0.9-0.5,1.6c0.3,1.7,1.2,2.8,2.8,3.4c1.2,0.4,1.8,0.9,0.4,1.8c-1,0.6-0.5,1.9-0.8,2.8c-0.5,0.1-0.6-0.3-0.6-0.5
					c-0.3-1.6-1.3-1.9-2.6-2.1c-1-0.1-1.8-0.4-1.8-1.8c-1.7,1.6-3-1.2-4.7,0c0.3,1.6,1.8,1.2,2.6,1.9c-0.3,0.9-0.5,1.8-0.8,2.8
					c-0.3,0.6-1.7,0.9-2.2,0.3c-1.3-1.7-3.5-2.3-4.7-4.3c-0.5-0.9-1.6-0.5-1.4,0.4c0.1,1.4-0.8,2.2-1.4,3.2
					c-0.5,0.8-2.5,0.6-2.6-0.1c-0.4-1.4-1.8-1.7-2.5-3c-2.8,4.3-3.9-0.1-5.6-1.2c-0.6,0.8-0.1,1.3,0.1,1.8c0.1,0.4,0.6,0.8,0.3,1.3
					c-0.3,0.4-0.6,0.4-1,0.3c-0.6-0.1-0.5-0.8-0.6-1.2c0-0.1-0.1-0.4-0.4-0.6c-1.2,0.9-1.7,2.2-3,2.8c-1.2,0.5-1.7,0.5-2.5-0.4
					c-0.6-0.8-1.2-1.8-2.2,0c-0.4,0.8-1.7,1.4-3,0.3c1.4-1.4,3.5-2.3,3.9-4.9c-1.9,0.6-3.4,1.4-4.8,2.2c0.1-1,1-1,1.4-1.6
					c0.4-0.4,0.8-1.2,0.1-1.3c-1.2-0.1-1.7-1-2.5-1.4c-0.8,0.5-0.1,1.3-0.8,1.8c-1.3-0.1-2.7,1-3.7-0.9c-1.2,1.3-2.7,0.8-3.9,1.4
					c-1.6-2.2-1.9-2.2-4.3-0.8c-0.8,0.5-1.4,1.2-2.5,1c-0.5-0.4,0-1-0.5-1.3c-1.4-0.6-1.2,2.3-2.8,1.4c0.1-0.8,1.8-1.2,0.1-2.1
					c1.4-1,2.8-1.7,4.5-1.6c2.7,0.1,5-0.6,7.1-2.3c0.6-0.5,1.3-0.8,2.1-0.8s1.6-0.1,1.8-1c-1.3-0.9-4.8-1-5.8-0.1
					c-1.3,1.2-2.8,1.6-4.5,1.3c-1.7-0.3-3.2-0.1-4.9-0.1c1.7-0.1,3-0.9,4-2.2c0.1-0.3,0.5-0.3,0.9-0.3c3.2-0.3,6.5-0.9,9.6-1.4
					c1.7-0.3,3.4-0.5,4.9-0.9c0.9-0.1,2.3-2.5,1.9-3.2c-0.5-1.3-1.4,0-2.2-0.3c-0.5-0.3-0.5-1-0.6-1.6c-0.1-0.5-0.3-1-0.9-1.2
					c-0.6,0-1.2,0.4-1.3,1c-0.3,1.3-0.9,1.9-2.2,1.8c-0.3,0-0.5,0.1-0.8,0.3c-2.7,1.4-3.2,1.3-5.4-0.9c-1.7,1.6-3.6,1-5.7,0.5
					c-1.7-0.4-3.5-0.5-5,0.9c-0.5,0.5-1,0.6-1.8,0.4c-0.1-0.1-0.5-0.1-0.6,0c-1.7,1.2-3.1,0-4.5-0.6c-0.9-0.4-1.9-0.3-3,0.1
					c0-0.6,0.3-1,0.8-1c0.6,0,1.4-0.1,2.1,0c1.6,0.3,2.2-0.4,2.5-1.8c-0.3-0.5-1.2-0.6-1.2-1.3c0.4-0.4,0.8-0.3,1,0
					c1.4,0.9,2.7,0.6,4.1,0c1.7-0.6,1.8-1.3,0.8-2.8c1.3-0.9,2.8-0.3,4.1-1c1.3,3,2.1,0,3-0.3c1,0.1,1.2,1.8,2.2,1
					c0.9-0.6-0.5-1.4-0.1-2.3c1.4,0.4,2.3-0.6,3.1-1.4c1-1.2,2.3-1.2,3.5-0.8c2.2,0.6,3.9-0.6,6.3-0.8c-0.6-0.5-0.8-0.6-0.9-0.6
					c-1.8-0.1-3.5,0-5.3-0.5c-1.6-0.4-3.6,0.5-5.4,1.2c-1.2,0.4-2.7-0.4-3.2,1.2c-0.5,0-0.6-0.3-0.9-0.5c-0.8-1-1.3-1.2-2.6-0.4
					c-1.8,1-4.1,1-6.2,1.6c-3,0.8-4.3-1.6-6.5-3c1.7-0.4,2.1-1.4,2.3-2.7c0.3-1.4-0.1-2.2-1.6-2.3s-2.6,0.4-3.4,1.6
					s-1.8,1.3-3.1,0.8c-0.1-1,0.9-1.4,1.2-2.2s0.4-1.4-0.6-1.7c-0.6-0.1-1.3-0.3-1-1.2c0.3-0.9,0.5-1.8,1.8-1.6s2.6,0.3,3.9,0
					c0.6-0.1,1.3-0.3,1.4-0.9c0.3-1.8,1.6-1.9,2.8-2.1c0.4,0,0.9,0,1-0.6c-1.4-1.3-3.5,0.8-4.9-0.6c1.4-1.9,3.7-1.7,5.6-2.5
					c1.9-0.8,3.9-0.3,5.7-0.8c0.1,0,0.4,0,0.5,0c3.5,1.6,5.8-1,8.4-2.5c0.8-0.4,1.2-0.8,2.2-0.5c1.3,0.4,2.8-0.4,3.9,0.6
					c0.9-0.4,0.1-1.3,0.9-1.6c0.5-0.1,0.6-0.5,0.5-1c-0.3-0.5-0.6-0.6-1-0.5c-1.4,0.4-2.5-0.3-3.5-1c-1-0.6-2.2-0.4-3.2-0.1
					c-0.8,0.3-1,0.8-0.9,1.6c0.1,0.4,0.5,0.9-0.1,1.3c-0.1,0-0.3,0-0.3-0.1c-0.1-2.1-1.3-3-3.4-2.7c-0.9,0.1-1.9-0.3-2.7,0
					c-2.8,0.9-4.7-0.5-6.5-2.3c-1.3-1.3-1.7-1.3-2.7-0.8c0,1,1.3,0.6,1.6,1.4c-1.4,0.5-1.8,0.3-2.7-1c-0.6-1-0.8-1.2-1.9-0.8
					c-0.3,0.6,0.6,0.8,0.8,1.7c-1.7-0.9-3.7,0.6-4.9-1.7c0.6-2.3,1.7-4.3,3.9-6.1c0,1.7,0.4,2.8,2.3,2.6c-0.4-1.4,1.6-1.9,0.6-3.7
					c2.5,0.8,3.9-1,5.7-1.3c1.2-0.3,2.5,0,3.6-0.5c0.4-0.1,0.6,0.4,0.8,0.9c0,0.5,0,1,0,1.4c-0.4,0.5-0.8,0.4-1.2,0.4
					c-0.6,0-1.2,0.3-1,0.9c0.1,0.6,0.8,0.8,1.3,0.6c1.8-0.6,3.9,0.3,5.6-1.3c0.5-0.5,0.9,0,1.2,0.6c1.2,2.7,3,4.1,6.1,4
					c1.3-0.1,2.6,0,3.7,0.5c0.6,0.4,1.7,0.6,2.2-0.3c0.5-0.9-0.3-1.6-0.9-2.1c-0.8-0.6-2.2-0.3-2.6-1.3c-0.3-0.9,1-1.6,1-2.6
					c0.1-1.4,0.5-2.6,1.2-3.7c0.5-0.9,0-1.6-0.9-1.6c-1-0.1-1.7-0.8-2.5-1.3c-0.4-0.3-0.6-0.6-0.5-1.3c0.3-0.6,0.8-0.6,1.3-0.6
					c0.3,0,0.6,0.1,0.9,0.3c2.5,1,4.5,0.8,6.5-1c0.5-0.4,1.2-0.5,1.8-0.5c2.2-0.1,2.6-0.4,3.1-2.6c0.3-1.2,0.6-2.1,1.7-2.8
					c0.8-0.5,1.6-0.6,2.5-0.1c1.6,0.9,3.2,1.4,4.8,2.1c0.1,0,0.3,0.1,0.3,0.1c1.7-0.9,3.4,0.1,5,0c0.6,1.3,2.3,2.2,4,1.8
					c3-0.6,5.9-0.8,9-0.5c2.2,0.1,4.3,0.3,6.2-1c0.3-0.3,0.8-0.4,1-0.3c1.9,0.5,4.1,0.4,6.1,0.9c1.8,0.5,3.9,0.4,5.2,2.2
					c0.3,0.4,1.3,0.5,2.2-0.3c-2.1-0.8-2.8-3.2-5.4-3c-0.8,0.1-1.7,0-2.1-0.8c-1-1.6-2.5-1.9-4.1-1.8c-0.4,0-0.9,0.1-1.2-0.3
					c0-0.6,0.6-0.5,0.8-1c-0.1-0.4-1-0.6-0.3-1.3c0.4-0.3,0.5-0.6,0.4-1c-0.3-0.9,0.1-1.4,0.8-1.8c0.5-0.3,0.9-1,0.5-1.6
					c-0.5-0.6-1-0.1-1.4,0.3c-0.5,0.4-1,1-1.7,0.8c-1.4-0.4-1.9,0.4-2.6,1.4c-1.8,2.6-4.1,4.4-6.6,6.3c-0.5,0.4-1.2,0.4-1.8,0.1
					c-1.6-0.8-3-1.2-4.3,0.6c-0.3,0.3-0.8,0.4-1.2,0.5c-0.6,0.1-1.4,0.1-1.6-0.6c-0.1-0.8,0.4-1,1-1c0.3,0,0.6,0,0.9-0.1
					c0.4-0.1,0.6-0.4,0.6-0.8c-0.1-0.4-0.4-0.5-0.6-0.6c-0.8-0.1-1.4-0.3-2.2,0.1c-2.2,0.9-3.4,0.8-4.9-1c-1.2-1.3-2.8-2.2-2.8-4.3
					c0-0.4-0.3-0.5-0.6-0.5c-0.3,0-0.5,0.1-0.6,0.4c-0.3,0.6,0.4,1.6-0.8,1.9c-1.3,0.4-2.7,0.8-4.1,0.1c-1-0.4-1.8-0.5-2.2,0.8
					c-0.1,0.4-0.6,0.6-1,0.6c-1.9,0.1-3.7,0.8-5.6-0.4c-0.5-0.4-1-0.3-1.7,0.1c-0.8,0.5-1.6,0-2.5-0.1c1.4-1.2,2.8-2.2,4.9-1.8
					c0.4,0.1,0.8,0,1-0.1c1.6-1.3,3.6-1.4,5.3-2.6c0.6-0.5,1.4-0.9,2.5-0.8c0.8,0,1.3-0.4,1.7-1c0.5-0.8,1.2-1.3,1.8-1.9
					c1-1,1.9-1.3,3.2-0.6c1.8,0.8,3.5-0.4,3.6-2.3c0-0.4,0-0.9,0.4-0.9c1.9-0.5,2.3-2.3,3.2-3.7c0.6-1,1.3-1.7,2.5-1.8
					c1-0.3,2.1-0.6,2.6-1.8c0.5-1,0.1-1.8-1.2-1.9c-1-0.1-2.1,0.1-3.4-0.9c1.8-0.3,2.5-1.4,3.4-2.6c0.5-0.5,0.9-1,1.2-1.8
					c0.3-1.4,1.6-2.1,2.7-2.6c2.2-0.8,3.5-2.3,4.4-4.4c0.5-1.2,1-1.2,1.9-0.5c1,0.8,1.9,1.6,2.8,2.5c1.4,1.3,2.2,1.2,3.2-0.5
					c0.9-1.4,1.6-0.5,2.2,0.1c0.8,0.8,1.6,1.7,2.7,0.8c0.4-0.8-0.5-0.8-0.5-1.4c1.7,0,1.4,1.9,2.6,2.5c1-0.9,0-2.5,0.8-3.4
					c0.8-1,2.5-0.4,3.4-1.6c-1.3-1.9-3.4,0-4.9-0.9c1-0.8,1.2-2.2,2.5-2.5c0.4-0.1,0.5-0.4,0.4-0.8c0-0.4-0.3-0.6-0.6-0.6
					c-2.2-0.1-4.1-1-6.3-0.9c-2.1,0.1-4.1,0-6.2-0.8c-2.1-0.8-4.4-0.5-6.6-0.8c-0.9-0.1-1.9,0-2.8,0c-2.7-0.1-3.2-0.8-3-3.5
					c0-0.1,0-0.3,0-0.3c0-0.6,0.4-1.6-0.4-1.8c-0.9-0.3-1,0.6-1.4,1.2c-0.4,0.5-0.5,1.3-1.4,1c-0.4-0.6,0.1-1.2,0.4-1.6
					c0.4-0.5,0.9-1.2,0.9-1.8c0-1.3,0.5-2.1,1.9-2.3c0.4,0,0.8-0.4,0.6-0.8c-0.5-1.2,0.1-1.9,0.9-2.7c-1.9-0.5-2.2-0.4-2.6,1.3
					c-0.1,0.5,0.1,1.2-0.6,1.3c-0.3,0-0.6,0-0.8-0.3c-0.4-0.5,0-1,0.1-1.4c0.1-0.3,0.3-0.4,0.3-0.6c0.1-0.5,0.4-1.2-0.3-1.6
					c-0.5-0.4-1,0-1.4,0.4c-1.2,0.9-2.3,1.8-3.5,2.7c-1.3,1-2.6,1.3-3.9,0.1c-0.9-0.8-2.1-1-3.1-1.7c0.6-1.8,1.4-3.4,3.7-3.4
					c0.8,0,1.7-0.1,2.2-0.9c0.3-0.4,0.6-0.9,0.3-1.4s-0.9-0.1-1.3,0c-0.5,0.1-1,0.5-1.7,0c0-1,1.4-0.8,1.4-2.1
					c-1.3,0.3-2.7,0-3.7,1.2c-1.4,1.8-2.8,1.8-4.3,0c-0.3-0.4-0.5-0.6-0.6-1c-0.4-1.2-1.2-1.6-2.3-1.6c-0.4,0-0.9,0-1.3-0.1
					c-0.8-0.3-1.4-0.6-2.3-1c1.2-0.9,1.9-1.9,3.4-0.9c0.5,0.4,1.2,1,1.8,0.4c0.8-0.6,0-1.3-0.3-1.9c-0.1-0.1-0.1-0.3-0.1-0.6
					c0.9,0.1,1.2,1,1.7,1.4c0.4,0.3,0.6,0.4,1,0c0.3-0.4,0.3-0.6,0-1c-0.4-0.4-0.8-0.8-1.2-1.2c-1-0.6-1.7-1.6-1.7-2.8
					c0-0.8-0.5-1.3-1.2-1.7c-0.5-0.4-1.2-0.6-1.2-1.6c1.6-0.6,2.2,1.3,3.5,1.3c0.9-0.8-0.4-1.3-0.1-2.1c1.3,0.4,2.5,1,3.2,2.2
					c0.3,0.4,0.6,0.8,0.9,1c0.5,0.4,1,0.9,1.7,0.1c0.5-0.6,0.3-1.2-0.3-1.7c-0.8-0.6-1.2-1.4-1.3-2.5c0.5-0.4,0.8,0,1,0.1
					c1.4,0.6,2.8,1.4,4.7,1.3c1.4-0.1,2.8,0.5,4,1.6c1,0.9,2.3,1.4,3.6,1.6c0.9,0.1,1.8,0.1,2.2-1.3c-3.7,0-6.5-1.9-8.5-4.7
					c-0.8-0.9-0.6-4,0.3-4.8c0.5-0.5,1-1,1-1.9c0.1-1.4,1.2-1.4,2.2-1.4c0.1,0,0.5,0.3,0.6,0.3c2.6-1.3,4.4,2.1,7,0.9
					c0.8-0.3,1.6,0.1,2.2,0.6c0.9,0.5,1.8,0.6,2.7,0.3c1.2-0.5,1.6-1.2,0.8-2.2c-0.8-1-0.6-1.8,0.5-2.5c0.9-0.5,1-1.4,0.9-2.5
					c-0.1-1-0.9-1.2-1.7-1.3c-1.3-0.1-2.5-0.9-3.5-1.6c-1.7-0.9-3.4-1-5-0.3c-1.3,0.6-3,1.3-4,0c-1-1.2,0.1-2.7,0.8-4
					c0.6-1.2,1.4-1.9,2.8-1.3c1,0.4,1.7,1,1,2.2c-0.3,0.6-0.4,1.2,0.3,1.6c0.9,0.4,1-0.4,1.3-1c0.9-2.1,0.6-3-1.4-4.4
					c1-1.7-0.3-2.8-0.9-4c-0.6-1.3-0.6-1.6,0.9-1.8c1.2-0.1,3-3.1,2.6-4.1c-0.3-0.6-0.6-0.9-1.2-0.3c-0.6,0.8-1.6,1-2.2,1.9
					c-0.4,0.6-1.2,1.2-2.1,0.6c-0.9-0.6-0.4-1.6-0.4-2.3c0-0.9,0.9-0.8,1.4-0.8c0.5,0,1.2,0.1,1.4-0.5c0.3-0.5,0-0.9-0.4-1.3
					c-0.3-0.3-0.4-0.5-0.5-0.9c1.2-0.6,1.3-1.9,1.9-2.8c0.5-0.9,1.2-1.4,2.1-1.4c1-0.1,1.4-0.6,1.6-1.7c0.1-1.6,1-2.1,2.3-1.2
					c0.8,0.5,1.4,1.2,2.1,1.7c0.4,0.3,0.9,0.6,1.3,0.1c0.5-0.5,0-1-0.4-1.4s-0.9-0.8-1.4-1.2c-0.4-0.5,0.5-0.4,0.4-0.9
					c-0.6-0.4-1.3-0.8-1.9-1.3c-0.4-0.3-0.8-0.6-0.4-1.2c0.4-0.5,3.1-0.8,3.6-0.4c0.5,0.5,1,1,1.6,1.6c1.2,1,2.3,2.1,4.1,1.4
					c0.9-0.4,1.6,0.4,2.2,1c0.9,1.2,1.7,1.8,3.2,1c0.8-0.4,3.5,1.2,3.7,2.1c0.3,0.8,0.6,1.3,1.3,0.8c1.9-1.9,3.2-0.3,4.8,0.6
					c-0.5,1-1.6,1.8-0.9,3c0.9,0.3,1-0.9,1.8-0.6c-0.3,1-1.6,1.4-1.8,2.3c0.4,0.8,1.3,0.4,1.8,0.8c-0.1,1-1.4,0.5-1.4,1.7
					c3.7,0.3,1.7,3.4,2.3,5.2c0.5,0.1,0.8-0.1,0.9-0.4c1-3.4,3.9-5.3,5.9-7.9c0.3-0.4,0.8-0.5,1.2-0.4c1.6,0.4,3.4,0.3,4.4,2.1
					c0.8,1.4,2.1,3,3.7,2.7c1.9-0.3,3.5,0.8,5.3,0.5c0.9-0.1,1.3,0.4,1.6,1.2c0.6,1.6,1.6,3,1.8,4.8c0.9-0.4,1.6-0.8,2.2-0.3
					c0.4,0.3,0.9,0.3,1-0.3s-0.1-0.8-0.5-1c-1.7-0.8-2.2-2.2-2.5-3.9c0.8-0.6,1.4-0.3,1.9,0.1c0.5,0.3,1,0.5,1.6,0.8
					c0.5,0.1,1,0.1,1.4-0.4c0.4-0.6-0.1-0.9-0.5-1.3c-0.6-0.8-1.9-1-2.1-2.3c0.6-0.4,0.8,0.1,1,0.4c0.4,0.5,0.9,0.6,1.4,0.1
					c0.5-0.6,0.1-1-0.3-1.6c-0.6-0.6-1.6-0.8-2.3-0.9c-1.4-0.3-2.3-1-3.1-2.5c1.8-0.3,3.5-0.8,5.2-0.8c2.3,0,3.6-1,4.3-3.1
					c0.3-0.6,0.4-1.6,1.4-1.7c0.4,1.3,1.3,1,2.5,1.2c2.8,0.3,5.7-1.2,8.5-0.3c0-0.3,0-0.4,0-0.4c-0.4-0.6-1.6-0.6-1.6-1.6
					c0-1,1.2-0.8,1.7-1.3c0.8-1,1.4-2.3,2.8-2.7c0.6-0.3,1.3-0.4,1.9-0.6c1-0.4,1.8-1.8,1.6-2.8c-0.1-0.5-0.4-0.6-0.9-0.6
					c-1.7,0-3.2,0.1-4.8,0.8c-0.5,0.3-1.2,0.3-1.8,0.4c0-0.9,1.3-1.3,0.5-2.1c-0.8-0.6-1.7-0.5-2.6-0.3c-0.9,0.3-1.7,1-2.5,1.6
					c-1,0.8-2.1,1.6-3.9,1.8c1.3-1.7,3.5-1.4,4.4-3.2c-0.9-0.4-0.9-1.6-1.7-1.9c-1,0.6-1.2,2.1-2.2,2.6c-0.8-0.4-0.5-0.8-0.3-1.3
					c0.1-0.4,0.3-0.8,0-1c-0.4-0.4-0.6-0.1-1,0c-1.6,0.6-2.8,0.5-3.7-1c-0.6-0.9-1.3-1-2.2,0c-1.2-2.5-4.9-3.2-4-7
					c1.2,0,1.7-0.8,2.3-1.8c1.6-2.5,5.8-3,7.9-0.9c2.1,1.9,3.2,2.6,5,2.3c-0.1-1-1-1.3-1.7-1.8c-0.3-0.3-0.9-0.5-0.6-1.2
					c0-0.1,0.3-0.3,0.5-0.4c0.6-0.1,0.9,0.4,1.2,0.6c0.4,0.4,0.6,0.9,1,1.3c0.3,0.3,0.5,0.4,0.9,0.3c0.4-0.1,0.4-0.6,0.4-0.9
					c-0.3-1.6-1-2.7-2.7-3.4c-0.6-0.3-1.6-0.4-1.8-1.4c1.3,1,2.7-0.3,4.3,0.5c1.2,0.6,2.8,0.6,4.4,1.4c1.8,1,3.5,0,4.1-1.6
					c-0.9-0.4-1.8,0.1-2.6,0.1c-0.6,0-1.4,0.1-1.7-0.6c-0.3-0.9,0.6-0.8,1.2-1c0.9-0.4,1.3-1,0.8-1.9c-0.5-1-1.3-0.5-1.9-0.1
					c-0.3,0.1-0.5,0.4-0.8,0.5c-1.8-1.4-1.9-1.7-1-3.5c1,0.3,2.3,1,3-0.3c0.6-1.2-0.6-1.8-1.4-2.6c-0.4-0.5-0.9-0.9-0.4-1.8
					c1.4,0.4,2.5,0.3,3-1.4c0.3-0.8,0.9-0.8,1.6-0.1c1,1,1.7,0.9,2.2-0.3c0.4-0.8,0.5-1.6,0.4-2.3c-0.3-1.9,0.8-3.4,1.6-4.9
					c0.4-0.8,1.2-0.9,1.7-0.4c0.8,0.6,1.6,1,2.5,1.4c0.4,0.1,0.6,0.4,0.9,0.9c0.9,1.7,1,1.7,2.2,0.3c0.5-0.6,1-1,1.9-1
					c1.6,0,2.7-0.6,3.4-2.1c0.1-0.4,0.5-0.8,0.9-1c0.5-0.4,1.3-0.5,1.8,0.1c0.5,0.5,0,1-0.4,1.4s-0.6,0.8-0.5,1.3
					c0.3,0.5,0.8,0.5,1.3,0.5c1.2-0.3,1.6,0.8,1.9,1.6c0.5,0.8-0.1,1.2-0.5,1.7c-0.1,0.3-0.4,0.4-0.3,0.8c1.3,0.6,2.2-0.1,2.8-1
					c0.6-0.8,1.4-1.6,0.1-2.6c-0.8-0.6-0.6-1.6-0.3-2.5c1.6,0.6,2.3-0.6,3.2-1.8c0.6,1.3-0.3,1.9-0.6,2.5c-1.3,1.7-1.3,2.3,0.5,3.6
					c2.1,1.6,2.1,1.6,1.2,4.1c-0.3,0.6-0.6,1.3,0.1,1.9c3.1-1.6,3.6-6.6,1.7-9.3c-1.4,0.6-0.4,1.9-0.8,3c-0.4,0-0.5-0.4-0.8-0.5
					c-0.6-0.5-1.8-0.6-1.4-1.8c0.3-0.9,2.1-1.8,3.1-1.6c0.8,0.1,1.3,0,1.7-0.5c0.5-0.5,1.2-0.9,1.8-0.4c0.6,0.5,0.5,1.3,0.4,1.9
					c-0.1,0.5-0.4,1-0.5,1.6c-0.6,1.4-0.5,2.7,0.8,3.7c1.2,1,1.2,2.7,1.9,4c0.4,0.6-1.2,2.6-2.1,2.6c-0.6,0-1.3,0.1-1.6,0.6
					c-0.5,0.8-1.2,1.3-2.2,1.4c-0.5,0-0.6,0.4-0.6,0.9c1,0.8,2.1,0,3.2-0.1c-0.6,1.4-1.9,2.1-3,2.5c-1.3,0.5-2.1,1.7-3.2,2.3
					c-0.3,0.1-0.4,0.5-0.3,0.9c0.1,0.3,0.4,0.4,0.6,0.4c1.2,0.1,2.2-0.4,3-1.2c1-1,2.2-2.1,3.9-2.1c0.4,0,0.6-0.1,0.8-0.5
					c0.4-0.8,1-0.8,1.8-0.6c1.4,0.3,2.2-0.4,1.8-1.7c-0.5-1.7-0.4-3.2,0.4-4.9c0.4-0.9,0.1-1.9-0.4-2.7c-0.4-0.6-0.6-1.3-0.9-2.1
					c-0.5-1.3-0.3-2.5,1-3.2c0.8-0.5,1.3-1,1-2.1c-0.3-1,0.4-1.3,1.2-0.8c1.6,0.9,3,0.6,4.4-0.1c0.6-0.4,1.3-0.8,2.1,0.1
					c-1,0.4-1.3,0.8-0.4,1.6c0.4,0.3,0.6,0.5,1,0.6c0.6,0.3,1.4,0.8,2.1,0.1c0.6-0.8-0.3-1.4-0.6-1.8c-0.8-0.9-1.3-1.8-1.3-3
					c0-1-0.6-1.8-0.9-2.7c3.4,1.6,5.6,3.7,7.1,6.9c1,2.1,2.7,3.2,4.5,4.4c1.2,0.6,2.2,1.3,3.1,2.2c0.8,0.8,0.6,1.3-0.4,1.6
					c-3.4,0.9-6.6,2.6-10,3.6c-2.2,0.6-4.5,1.6-5.3,3.6c-0.9,2.5-3.1,3.6-4.1,5.8c-0.8,1.8-2.5,2.8-4.5,2.7
					c-1.7-0.1-2.3,0.5-2.6,2.3c-0.1,2.1-1.4,3.9-3.1,5c-2.8,2.1-3,1.9-4,5.3c-1-0.3-2.1-0.5-3.1-0.9c-0.5-0.1-1-0.3-1.4,0
					c-1.4,1.3-3.6,0.5-5.2,2.5c0-1.6-1-2.2-1.4-3.2c-0.4-1-1.9-0.9-2.5,0c-0.5,1-1.3,1.8-2.3,2.3c-1.2,0.6-1.2,1.4,0,2.3
					c0.1,0.1,0.3,0.1,0.3,0.1c0.5,1.3,1,2.3,2.8,2.7c0.9,0.1,1.7,1.4,3,1.3c0.4,0,0.8,0.1,0.8,0.6s-0.3,0.8-0.8,0.8
					c-2.5,0.5-4.7,1.4-6.3,3.4c-0.6,0.6-2.7,0.1-3.5-0.9c-1.4-1.7-3.9-1.4-5,0.5c-0.5,0.9-0.9,2.3-2.5,1.3c-0.4-0.3-0.8,0.1-0.9,0.5
					c-0.3,0.5-0.6,0.5-1.2,0.6c-1.6,0.3-1.9,1.2-1.4,2.8c0.6,2.2,1.9,4,3.1,5.7c1.3,1.7,2.2,3.2,2.5,5.3c0.1,0.9,1.2,0.9,1.8,1.2
					c0.9,0.3,1.2,0.8,1.2,1.6c0,1.2,0,2.2-0.3,3.4c-0.4,1.7,0,2.2,1.7,2.5c1.7,0.3,3.2,1.2,4.8,1.8c0.9,0.4,1.8,1.7,2.1,3.1
					c0.1,1.2,0.5,2.2,1.7,2.6c0.6,0.3,0.4,0.9,0.9,1.3c0.9-0.3,1.9-0.8,2.7,0.5c0.4,0.5,1,0.1,1.4-0.3c0.6-0.5,1.3-1,2.2-0.4
					c0.8,0.5,1.4,1.2,0.9,2.3c1,0.3,1.8,0.5,2.6,0.8c0.6-0.5,0.5-1,0.5-1.7c0-0.5,0.1-0.9,0.8-1c0.3,0,0.6,0,0.8,0.3
					c0.3,0.5-0.3,0.8-0.5,1c-0.3,0.3-0.4,0.5-0.3,0.9c0.5,0.5,1.3,0.4,1.4-0.1c0.5-1.3,2.3-2.2,1.3-3.7c0.8-1.3,1.9-1.4,3.2-1.3
					c1.3,0.1,2.3-0.1,2.1-1.8v-0.1c0.9-1.4,0.4-2.5-0.9-3.4c-0.1-0.1-0.3-0.3-0.3-0.4c0,0,0-0.1-0.1-0.3c0.5-0.8,1.6-1.2,1.7-2.3
					c0-0.1,0.3-0.4,0.5-0.4c2.5-0.3,4-2.1,5.6-3.7c0.9-1,3-0.6,3.5,0.6c0.6,1.7,1.8,3.1,2.5,4.8c0.8,1.7,0.6,3.5-0.5,4.9
					c-0.4,0.4-0.5,1,0,1.3c1.8,0.8,1.6,2.5,1.7,3.7c0.3,1.8,1.7,2.5,2.6,3.7c0.1,0.3,0.5,0.1,0.8,0c1.7-0.5,2.6-0.1,3,1.4
					c0.3,0.8,0.4,1.8-0.3,2.5c-1.2,1.3-1.6,2.8-2.2,4.4c-0.8,1.6,0.3,3,2.1,3.1c2.1,0.1,4.3,0.5,6.3-0.3c0.3-0.1,0.6,0,0.9,0.3
					c1.4,1.6,2.7,1.6,4.3-0.3c0.4-0.4,0.4-0.8,0.8-1.4c0.6,0.4,1,1.4,1.9,0.8c0,0,0.4,0.1,0.5,0.4c0.8,1.6,2.3,2.7,2.8,4.4
					c0.3,0.9,1.2,1.6,1.8,2.2c0.5,0.5,1,1,0.6,1.8c-0.4,0.9-1.3,0.9-2.1,0.8c-1.4-0.3-2.7-1-3.6-2.3c-1.3-1.6-3-2.5-4.8-3
					c-0.4-0.1-0.9-0.3-1.2,0.3c-0.4,0.5,0,1,0.4,1.2c1.8,0.8,1.3,1.6,0.3,2.8c-1.6,1.9-1.4,4.3-0.6,6.6c0.3,0.9,1,1.4,1.8,1.7
					c1.3,0.4,1.6,1.2,1.2,2.3c-0.4,1.2-0.8,2.5-0.1,3.7c0.1,0.4,0,0.8-0.3,1c-1,1.2-1,2.5-0.9,3.9c0.1,1.6,0,3-0.3,4.5
					c-0.3,1-0.3,2.1,0.8,3c0.5,0.4,0.5,1,0.6,1.7c0.3,1.2,0.9,2.1,1.8,2.7c1.6,1.2,1.8,2.2,1,4c-0.4,0.9-0.8,1-1.6,0.6
					c-0.4-0.1-0.6-0.4-1-0.5c-0.5-0.1-1-0.1-1.2,0.4c-0.3,0.6,0.1,0.9,0.6,1c0.4,0.1,0.9,0.3,1.2,0.8c-0.9,0.4-1.8,0.1-2.7,0.1
					c-0.6,0-1,0.3-1.3,0.8c-0.1,0.6,0.4,0.8,0.8,1c1.2,0.5,1.7,1.3,1.3,2.6c-0.3,1,0.1,1.8,1.2,2.3c1.4,0.8,1.6,1.7,0.9,3
					c-0.8-0.4-1-1.2-1.6-1.8c-0.8-1-1.6-1.6-2.6-0.4c-0.6,0.8-1.3,0.5-2.1,0.5c-0.6,0-1.4-0.3-2.3,0.1c1.4,1.8,1.6,4.3,3.7,5.6
					c1,0.5,1.6,1.3,0.8,2.5c-0.3,0.4-0.3,0.9-0.1,1.4c0,3,0.1,6.1,0.9,9c0.5,2.1-0.4,3.7-1.2,5.6c-0.9,1.9-1.6,3.7-0.4,5.9
					c0.5,1-0.1,2.1-0.8,3c-0.8,1.2-1.7,2.2-2.2,3.5c-0.3,0.8-1,1.2-1.7,1.7c-0.9,0.6-1.8,1.3-2.7,1.9c-1.2,0.9-1.8,2.1-1.7,3.5
					c0.1,1.8-0.6,3.1-2.1,4.1c-2.8,2.1-4,5-3.7,8.4c0.1,3-1.3,4.9-3.5,6.6c-0.8,0.6-1.7,1.2-2.5,1.7c-2.5,1.7-4.1,3.9-4.5,6.9
					c0,0.3-0.1,0.4-0.1,0.6c0,0-0.1,0-0.3,0.1c-0.6-0.6-1.6-1.3-2.6-1.2c-0.9,0.1-0.8-0.6-1-1.2c-0.1-0.4-0.3-0.9-0.9-0.8
					c-0.6,0.1-0.6,0.6-0.6,1.2c0,0.6,0.1,1.3,0.5,1.8c0.4,0.8,0.9,1.6,0.6,2.6c-0.1,0.3,0,0.6,0.1,0.8c1.6,1.2,1.7,3.2,3.2,4.5
					c0.9,0.8,1.2,1.6,0,2.3c-0.4,0.3-0.8,0.5-0.9,0.9c-0.5,1.8-1.9,1.3-2.7,0.6c-1.8-1.4-3.9-1.6-5.9-1.4c-1.7,0.1-3-0.4-3.6-2.1
					c-0.6-1.7-1.9-2.2-3.7-2.2c-0.9,0-1.8,0.3-2.6-0.6c0.3-0.8,1-0.9,1.4-1.4c0.3-0.4,0.5-0.8,0.1-1.2c-0.4-0.5-0.8-0.3-1.2,0
					c-0.3,0.3-0.6,0.5-1,0.5c-1.8,0-2.6,1-2.7,2.7c0,0.1,0,0.4-0.1,0.5c-1.3,1.7-3.2,2.5-4.5,4.3c-0.4-0.8-0.1-0.9,0.1-1.2
					c1.7-1.7,2.2-3.7,1.3-5.9c-0.3-0.8-0.8-1.6-1.7-1.6c-0.9,0-0.9,0.9-1.2,1.6c-0.3,0.8-0.5,1.7-0.6,2.5c-0.4,1.8-2.1,3-3.7,2.5
					c-0.5-0.1-0.9-0.3-1.4-0.3c0.8-2.1,0.5-2.7-1-3.1c-0.9-0.1-1.4,0.3-2.1,0.8c-1.3,1-2.5,1.6-4,0.4c-1.3-0.9-3-0.9-4.5-1
					c-2.3-0.1-4.5-0.9-6.9,0.3c-1,0.5-2.6-0.3-3.6,0.8c-0.5-0.5-0.3-1.6-1.3-1.4c-1,0.1-2.1,0.1-2.7,1c-0.4,0.5-0.3,1.2,0.3,1.4
					c1.2,0.8,1.9,2.5,3.9,2.1c-1.6,0.5-2.3,1.6-3,2.8c-0.6,1.3-2.6,1.6-3.5,1c-1.7-0.8-2.5,0-3.4,1c-0.1,0.3-0.4,0.4-0.8,0.6
					c-0.8-1.3-1.9-1.3-3.1-1c-0.6-0.9-0.4-2.3-1.7-2.8c-0.8,0.5-0.4,1.3-0.8,1.9c-0.4,0.9-0.9,1.7-1.8,1.8c-1.6,0.3-1.3,0.9-0.6,1.8
					c0.1,0.3,0.1,0.5,0.3,0.8c-0.6,0.5-1.3,0.4-2.1,0.3c-0.6-0.1-1.3-0.3-1.9-0.4c-2.2-0.3-3.4,0.6-3.4,2.8
					c-1.4,0.5-2.7,0.6-4.1-0.1c-0.5-0.3-1.3-0.5-1.7-0.1c-1,1.2-2.1,0.5-3.2,0.1c-0.5-0.1-0.8-0.4-0.8-0.9c-0.1-0.5,0.1-0.9,0.6-1.2
					c0.8-0.4,1.4-0.6,2.2-0.9c1.4-0.5,1.4-0.6,0.5-1.8c1.3-1.9,1.3-1.9-1-2.3c-1.6-0.3-3.5-0.3-3.5-2.5c-1.2-0.4-1.4,1.3-2.5,0.8
					c-0.6-0.4-1.3-1-1.8-1.6c-0.4-0.3-0.6-0.5-1.2-0.3c-0.5,0.3-0.3,0.8-0.1,1.2c0.1,1.2,0.6,1.9,1.8,2.1c0.9,0.1,1.2,0.6,1,1.4
					c-0.3,0.8,0.1,1.3,0.4,1.9c0.1,0.3,0.4,0.6,0.1,1c-0.4,0.4-0.6,0.1-1,0c-0.5-0.1-0.9-0.5-1.6-0.3c0.8,1.2,2.5,0.9,3.2,2.1
					c-0.6,0.9-1.4,1.7-1.4,2.8c0,0.8-2.8,2.1-4,2.1C172.4,276.5,170.9,276.1,169.6,274.8z"/>
			</defs>
			<clipPath id="SVGID_6_">
				<use xlink:href="#SVGID_5_"  style="overflow:visible;"/>
			</clipPath>
			<rect x="240.1" y="7.6" class="st4" width="80.3" height="320.2"/>
		</g>
	</g>
	<path class="st5" d="M169.6,274.8c0.8,2.3,0.8,2.3-0.8,2.8c0.1-1.8-1-2.2-2.6-2.6c-1.2-0.3-1.8-1.2-1.8-2.3c0-0.6,0-1.4-1-1.3
		c-0.9,0.1-0.6,0.9-0.5,1.6c0.3,1.7,1.2,2.8,2.8,3.4c1.2,0.4,1.8,0.9,0.4,1.8c-1,0.6-0.5,1.9-0.8,2.8c-0.5,0.1-0.6-0.3-0.6-0.5
		c-0.3-1.6-1.3-1.9-2.6-2.1c-1-0.1-1.8-0.4-1.8-1.8c-1.7,1.6-3-1.2-4.7,0c0.3,1.6,1.8,1.2,2.6,1.9c-0.3,0.9-0.5,1.8-0.8,2.8
		c-0.3,0.6-1.7,0.9-2.2,0.3c-1.3-1.7-3.5-2.3-4.7-4.3c-0.5-0.9-1.6-0.5-1.4,0.4c0.1,1.4-0.8,2.2-1.4,3.2c-0.5,0.8-2.5,0.6-2.6-0.1
		c-0.4-1.4-1.8-1.7-2.5-3c-2.8,4.3-3.9-0.1-5.6-1.2c-0.6,0.8-0.1,1.3,0.1,1.8c0.1,0.4,0.6,0.8,0.3,1.3c-0.3,0.4-0.6,0.4-1,0.3
		c-0.6-0.1-0.5-0.8-0.6-1.2c0-0.1-0.1-0.4-0.4-0.6c-1.2,0.9-1.7,2.2-3,2.8c-1.2,0.5-1.7,0.5-2.5-0.4c-0.6-0.8-1.2-1.8-2.2,0
		c-0.4,0.8-1.7,1.4-3,0.3c1.4-1.4,3.5-2.3,3.9-4.9c-1.9,0.6-3.4,1.4-4.8,2.2c0.1-1,1-1,1.4-1.6c0.4-0.4,0.8-1.2,0.1-1.3
		c-1.2-0.1-1.7-1-2.5-1.4c-0.8,0.5-0.1,1.3-0.8,1.8c-1.3-0.1-2.7,1-3.7-0.9c-1.2,1.3-2.7,0.8-3.9,1.4c-1.6-2.2-1.9-2.2-4.3-0.8
		c-0.8,0.5-1.4,1.2-2.5,1c-0.5-0.4,0-1-0.5-1.3c-1.4-0.6-1.2,2.3-2.8,1.4c0.1-0.8,1.8-1.2,0.1-2.1c1.4-1,2.8-1.7,4.5-1.6
		c2.7,0.1,5-0.6,7.1-2.3c0.6-0.5,1.3-0.8,2.1-0.8s1.6-0.1,1.8-1c-1.3-0.9-4.8-1-5.8-0.1c-1.3,1.2-2.8,1.6-4.5,1.3
		c-1.7-0.3-3.2-0.1-4.9-0.1c1.7-0.1,3-0.9,4-2.2c0.1-0.3,0.5-0.3,0.9-0.3c3.2-0.3,6.5-0.9,9.6-1.4c1.7-0.3,3.4-0.5,4.9-0.9
		c0.9-0.1,2.3-2.5,1.9-3.2c-0.5-1.3-1.4,0-2.2-0.3c-0.5-0.3-0.5-1-0.6-1.6c-0.1-0.5-0.3-1-0.9-1.2c-0.6,0-1.2,0.4-1.3,1
		c-0.3,1.3-0.9,1.9-2.2,1.8c-0.3,0-0.5,0.1-0.8,0.3c-2.7,1.4-3.2,1.3-5.4-0.9c-1.7,1.6-3.6,1-5.7,0.5c-1.7-0.4-3.5-0.5-5,0.9
		c-0.5,0.5-1,0.6-1.8,0.4c-0.1-0.1-0.5-0.1-0.6,0c-1.7,1.2-3.1,0-4.5-0.6c-0.9-0.4-1.9-0.3-3,0.1c0-0.6,0.3-1,0.8-1
		c0.6,0,1.4-0.1,2.1,0c1.6,0.3,2.2-0.4,2.5-1.8c-0.3-0.5-1.2-0.6-1.2-1.3c0.4-0.4,0.8-0.3,1,0c1.4,0.9,2.7,0.6,4.1,0
		c1.7-0.6,1.8-1.3,0.8-2.8c1.3-0.9,2.8-0.3,4.1-1c1.3,3,2.1,0,3-0.3c1,0.1,1.2,1.8,2.2,1c0.9-0.6-0.5-1.4-0.1-2.3
		c1.4,0.4,2.3-0.6,3.1-1.4c1-1.2,2.3-1.2,3.5-0.8c2.2,0.6,3.9-0.6,6.3-0.8c-0.6-0.5-0.8-0.6-0.9-0.6c-1.8-0.1-3.5,0-5.3-0.5
		c-1.6-0.4-3.6,0.5-5.4,1.2c-1.2,0.4-2.7-0.4-3.2,1.2c-0.5,0-0.6-0.3-0.9-0.5c-0.8-1-1.3-1.2-2.6-0.4c-1.8,1-4.1,1-6.2,1.6
		c-3,0.8-4.3-1.6-6.5-3c1.7-0.4,2.1-1.4,2.3-2.7c0.3-1.4-0.1-2.2-1.6-2.3s-2.6,0.4-3.4,1.6s-1.8,1.3-3.1,0.8c-0.1-1,0.9-1.4,1.2-2.2
		s0.4-1.4-0.6-1.7c-0.6-0.1-1.3-0.3-1-1.2c0.3-0.9,0.5-1.8,1.8-1.6s2.6,0.3,3.9,0c0.6-0.1,1.3-0.3,1.4-0.9c0.3-1.8,1.6-1.9,2.8-2.1
		c0.4,0,0.9,0,1-0.6c-1.4-1.3-3.5,0.8-4.9-0.6c1.4-1.9,3.7-1.7,5.6-2.5c1.9-0.8,3.9-0.3,5.7-0.8c0.1,0,0.4,0,0.5,0
		c3.5,1.6,5.8-1,8.4-2.5c0.8-0.4,1.2-0.8,2.2-0.5c1.3,0.4,2.8-0.4,3.9,0.6c0.9-0.4,0.1-1.3,0.9-1.6c0.5-0.1,0.6-0.5,0.5-1
		c-0.3-0.5-0.6-0.6-1-0.5c-1.4,0.4-2.5-0.3-3.5-1c-1-0.6-2.2-0.4-3.2-0.1c-0.8,0.3-1,0.8-0.9,1.6c0.1,0.4,0.5,0.9-0.1,1.3
		c-0.1,0-0.3,0-0.3-0.1c-0.1-2.1-1.3-3-3.4-2.7c-0.9,0.1-1.9-0.3-2.7,0c-2.8,0.9-4.7-0.5-6.5-2.3c-1.3-1.3-1.7-1.3-2.7-0.8
		c0,1,1.3,0.6,1.6,1.4c-1.4,0.5-1.8,0.3-2.7-1c-0.6-1-0.8-1.2-1.9-0.8c-0.3,0.6,0.6,0.8,0.8,1.7c-1.7-0.9-3.7,0.6-4.9-1.7
		c0.6-2.3,1.7-4.3,3.9-6.1c0,1.7,0.4,2.8,2.3,2.6c-0.4-1.4,1.6-1.9,0.6-3.7c2.5,0.8,3.9-1,5.7-1.3c1.2-0.3,2.5,0,3.6-0.5
		c0.4-0.1,0.6,0.4,0.8,0.9c0,0.5,0,1,0,1.4c-0.4,0.5-0.8,0.4-1.2,0.4c-0.6,0-1.2,0.3-1,0.9c0.1,0.6,0.8,0.8,1.3,0.6
		c1.8-0.6,3.9,0.3,5.6-1.3c0.5-0.5,0.9,0,1.2,0.6c1.2,2.7,3,4.1,6.1,4c1.3-0.1,2.6,0,3.7,0.5c0.6,0.4,1.7,0.6,2.2-0.3
		c0.5-0.9-0.3-1.6-0.9-2.1c-0.8-0.6-2.2-0.3-2.6-1.3c-0.3-0.9,1-1.6,1-2.6c0.1-1.4,0.5-2.6,1.2-3.7c0.5-0.9,0-1.6-0.9-1.6
		c-1-0.1-1.7-0.8-2.5-1.3c-0.4-0.3-0.6-0.6-0.5-1.3c0.3-0.6,0.8-0.6,1.3-0.6c0.3,0,0.6,0.1,0.9,0.3c2.5,1,4.5,0.8,6.5-1
		c0.5-0.4,1.2-0.5,1.8-0.5c2.2-0.1,2.6-0.4,3.1-2.6c0.3-1.2,0.6-2.1,1.7-2.8c0.8-0.5,1.6-0.6,2.5-0.1c1.6,0.9,3.2,1.4,4.8,2.1
		c0.1,0,0.3,0.1,0.3,0.1c1.7-0.9,3.4,0.1,5,0c0.6,1.3,2.3,2.2,4,1.8c3-0.6,5.9-0.8,9-0.5c2.2,0.1,4.3,0.3,6.2-1
		c0.3-0.3,0.8-0.4,1-0.3c1.9,0.5,4.1,0.4,6.1,0.9c1.8,0.5,3.9,0.4,5.2,2.2c0.3,0.4,1.3,0.5,2.2-0.3c-2.1-0.8-2.8-3.2-5.4-3
		c-0.8,0.1-1.7,0-2.1-0.8c-1-1.6-2.5-1.9-4.1-1.8c-0.4,0-0.9,0.1-1.2-0.3c0-0.6,0.6-0.5,0.8-1c-0.1-0.4-1-0.6-0.3-1.3
		c0.4-0.3,0.5-0.6,0.4-1c-0.3-0.9,0.1-1.4,0.8-1.8c0.5-0.3,0.9-1,0.5-1.6c-0.5-0.6-1-0.1-1.4,0.3c-0.5,0.4-1,1-1.7,0.8
		c-1.4-0.4-1.9,0.4-2.6,1.4c-1.8,2.6-4.1,4.4-6.6,6.3c-0.5,0.4-1.2,0.4-1.8,0.1c-1.6-0.8-3-1.2-4.3,0.6c-0.3,0.3-0.8,0.4-1.2,0.5
		c-0.6,0.1-1.4,0.1-1.6-0.6c-0.1-0.8,0.4-1,1-1c0.3,0,0.6,0,0.9-0.1c0.4-0.1,0.6-0.4,0.6-0.8c-0.1-0.4-0.4-0.5-0.6-0.6
		c-0.8-0.1-1.4-0.3-2.2,0.1c-2.2,0.9-3.4,0.8-4.9-1c-1.2-1.3-2.8-2.2-2.8-4.3c0-0.4-0.3-0.5-0.6-0.5c-0.3,0-0.5,0.1-0.6,0.4
		c-0.3,0.6,0.4,1.6-0.8,1.9c-1.3,0.4-2.7,0.8-4.1,0.1c-1-0.4-1.8-0.5-2.2,0.8c-0.1,0.4-0.6,0.6-1,0.6c-1.9,0.1-3.7,0.8-5.6-0.4
		c-0.5-0.4-1-0.3-1.7,0.1c-0.8,0.5-1.6,0-2.5-0.1c1.4-1.2,2.8-2.2,4.9-1.8c0.4,0.1,0.8,0,1-0.1c1.6-1.3,3.6-1.4,5.3-2.6
		c0.6-0.5,1.4-0.9,2.5-0.8c0.8,0,1.3-0.4,1.7-1c0.5-0.8,1.2-1.3,1.8-1.9c1-1,1.9-1.3,3.2-0.6c1.8,0.8,3.5-0.4,3.6-2.3
		c0-0.4,0-0.9,0.4-0.9c1.9-0.5,2.3-2.3,3.2-3.7c0.6-1,1.3-1.7,2.5-1.8c1-0.3,2.1-0.6,2.6-1.8c0.5-1,0.1-1.8-1.2-1.9
		c-1-0.1-2.1,0.1-3.4-0.9c1.8-0.3,2.5-1.4,3.4-2.6c0.5-0.5,0.9-1,1.2-1.8c0.3-1.4,1.6-2.1,2.7-2.6c2.2-0.8,3.5-2.3,4.4-4.4
		c0.5-1.2,1-1.2,1.9-0.5c1,0.8,1.9,1.6,2.8,2.5c1.4,1.3,2.2,1.2,3.2-0.5c0.9-1.4,1.6-0.5,2.2,0.1c0.8,0.8,1.6,1.7,2.7,0.8
		c0.4-0.8-0.5-0.8-0.5-1.4c1.7,0,1.4,1.9,2.6,2.5c1-0.9,0-2.5,0.8-3.4c0.8-1,2.5-0.4,3.4-1.6c-1.3-1.9-3.4,0-4.9-0.9
		c1-0.8,1.2-2.2,2.5-2.5c0.4-0.1,0.5-0.4,0.4-0.8c0-0.4-0.3-0.6-0.6-0.6c-2.2-0.1-4.1-1-6.3-0.9c-2.1,0.1-4.1,0-6.2-0.8
		c-2.1-0.8-4.4-0.5-6.6-0.8c-0.9-0.1-1.9,0-2.8,0c-2.7-0.1-3.2-0.8-3-3.5c0-0.1,0-0.3,0-0.3c0-0.6,0.4-1.6-0.4-1.8
		c-0.9-0.3-1,0.6-1.4,1.2c-0.4,0.5-0.5,1.3-1.4,1c-0.4-0.6,0.1-1.2,0.4-1.6c0.4-0.5,0.9-1.2,0.9-1.8c0-1.3,0.5-2.1,1.9-2.3
		c0.4,0,0.8-0.4,0.6-0.8c-0.5-1.2,0.1-1.9,0.9-2.7c-1.9-0.5-2.2-0.4-2.6,1.3c-0.1,0.5,0.1,1.2-0.6,1.3c-0.3,0-0.6,0-0.8-0.3
		c-0.4-0.5,0-1,0.1-1.4c0.1-0.3,0.3-0.4,0.3-0.6c0.1-0.5,0.4-1.2-0.3-1.6c-0.5-0.4-1,0-1.4,0.4c-1.2,0.9-2.3,1.8-3.5,2.7
		c-1.3,1-2.6,1.3-3.9,0.1c-0.9-0.8-2.1-1-3.1-1.7c0.6-1.8,1.4-3.4,3.7-3.4c0.8,0,1.7-0.1,2.2-0.9c0.3-0.4,0.6-0.9,0.3-1.4
		s-0.9-0.1-1.3,0c-0.5,0.1-1,0.5-1.7,0c0-1,1.4-0.8,1.4-2.1c-1.3,0.3-2.7,0-3.7,1.2c-1.4,1.8-2.8,1.8-4.3,0c-0.3-0.4-0.5-0.6-0.6-1
		c-0.4-1.2-1.2-1.6-2.3-1.6c-0.4,0-0.9,0-1.3-0.1c-0.8-0.3-1.4-0.6-2.3-1c1.2-0.9,1.9-1.9,3.4-0.9c0.5,0.4,1.2,1,1.8,0.4
		c0.8-0.6,0-1.3-0.3-1.9c-0.1-0.1-0.1-0.3-0.1-0.6c0.9,0.1,1.2,1,1.7,1.4c0.4,0.3,0.6,0.4,1,0c0.3-0.4,0.3-0.6,0-1
		c-0.4-0.4-0.8-0.8-1.2-1.2c-1-0.6-1.7-1.6-1.7-2.8c0-0.8-0.5-1.3-1.2-1.7c-0.5-0.4-1.2-0.6-1.2-1.6c1.6-0.6,2.2,1.3,3.5,1.3
		c0.9-0.8-0.4-1.3-0.1-2.1c1.3,0.4,2.5,1,3.2,2.2c0.3,0.4,0.6,0.8,0.9,1c0.5,0.4,1,0.9,1.7,0.1c0.5-0.6,0.3-1.2-0.3-1.7
		c-0.8-0.6-1.2-1.4-1.3-2.5c0.5-0.4,0.8,0,1,0.1c1.4,0.6,2.8,1.4,4.7,1.3c1.4-0.1,2.8,0.5,4,1.6c1,0.9,2.3,1.4,3.6,1.6
		c0.9,0.1,1.8,0.1,2.2-1.3c-3.7,0-6.5-1.9-8.5-4.7c-0.8-0.9-0.6-4,0.3-4.8c0.5-0.5,1-1,1-1.9c0.1-1.4,1.2-1.4,2.2-1.4
		c0.1,0,0.5,0.3,0.6,0.3c2.6-1.3,4.4,2.1,7,0.9c0.8-0.3,1.6,0.1,2.2,0.6c0.9,0.5,1.8,0.6,2.7,0.3c1.2-0.5,1.6-1.2,0.8-2.2
		c-0.8-1-0.6-1.8,0.5-2.5c0.9-0.5,1-1.4,0.9-2.5c-0.1-1-0.9-1.2-1.7-1.3c-1.3-0.1-2.5-0.9-3.5-1.6c-1.7-0.9-3.4-1-5-0.3
		c-1.3,0.6-3,1.3-4,0c-1-1.2,0.1-2.7,0.8-4c0.6-1.2,1.4-1.9,2.8-1.3c1,0.4,1.7,1,1,2.2c-0.3,0.6-0.4,1.2,0.3,1.6
		c0.9,0.4,1-0.4,1.3-1c0.9-2.1,0.6-3-1.4-4.4c1-1.7-0.3-2.8-0.9-4c-0.6-1.3-0.6-1.6,0.9-1.8c1.2-0.1,3-3.1,2.6-4.1
		c-0.3-0.6-0.6-0.9-1.2-0.3c-0.6,0.8-1.6,1-2.2,1.9c-0.4,0.6-1.2,1.2-2.1,0.6c-0.9-0.6-0.4-1.6-0.4-2.3c0-0.9,0.9-0.8,1.4-0.8
		c0.5,0,1.2,0.1,1.4-0.5c0.3-0.5,0-0.9-0.4-1.3c-0.3-0.3-0.4-0.5-0.5-0.9c1.2-0.6,1.3-1.9,1.9-2.8c0.5-0.9,1.2-1.4,2.1-1.4
		c1-0.1,1.4-0.6,1.6-1.7c0.1-1.6,1-2.1,2.3-1.2c0.8,0.5,1.4,1.2,2.1,1.7c0.4,0.3,0.9,0.6,1.3,0.1c0.5-0.5,0-1-0.4-1.4
		s-0.9-0.8-1.4-1.2c-0.4-0.5,0.5-0.4,0.4-0.9c-0.6-0.4-1.3-0.8-1.9-1.3c-0.4-0.3-0.8-0.6-0.4-1.2c0.4-0.5,3.1-0.8,3.6-0.4
		c0.5,0.5,1,1,1.6,1.6c1.2,1,2.3,2.1,4.1,1.4c0.9-0.4,1.6,0.4,2.2,1c0.9,1.2,1.7,1.8,3.2,1c0.8-0.4,3.5,1.2,3.7,2.1
		c0.3,0.8,0.6,1.3,1.3,0.8c1.9-1.9,3.2-0.3,4.8,0.6c-0.5,1-1.6,1.8-0.9,3c0.9,0.3,1-0.9,1.8-0.6c-0.3,1-1.6,1.4-1.8,2.3
		c0.4,0.8,1.3,0.4,1.8,0.8c-0.1,1-1.4,0.5-1.4,1.7c3.7,0.3,1.7,3.4,2.3,5.2c0.5,0.1,0.8-0.1,0.9-0.4c1-3.4,3.9-5.3,5.9-7.9
		c0.3-0.4,0.8-0.5,1.2-0.4c1.6,0.4,3.4,0.3,4.4,2.1c0.8,1.4,2.1,3,3.7,2.7c1.9-0.3,3.5,0.8,5.3,0.5c0.9-0.1,1.3,0.4,1.6,1.2
		c0.6,1.6,1.6,3,1.8,4.8c0.9-0.4,1.6-0.8,2.2-0.3c0.4,0.3,0.9,0.3,1-0.3s-0.1-0.8-0.5-1c-1.7-0.8-2.2-2.2-2.5-3.9
		c0.8-0.6,1.4-0.3,1.9,0.1c0.5,0.3,1,0.5,1.6,0.8c0.5,0.1,1,0.1,1.4-0.4c0.4-0.6-0.1-0.9-0.5-1.3c-0.6-0.8-1.9-1-2.1-2.3
		c0.6-0.4,0.8,0.1,1,0.4c0.4,0.5,0.9,0.6,1.4,0.1c0.5-0.6,0.1-1-0.3-1.6c-0.6-0.6-1.6-0.8-2.3-0.9c-1.4-0.3-2.3-1-3.1-2.5
		c1.8-0.3,3.5-0.8,5.2-0.8c2.3,0,3.6-1,4.3-3.1c0.3-0.6,0.4-1.6,1.4-1.7c0.4,1.3,1.3,1,2.5,1.2c2.8,0.3,5.7-1.2,8.5-0.3
		c0-0.3,0-0.4,0-0.4c-0.4-0.6-1.6-0.6-1.6-1.6c0-1,1.2-0.8,1.7-1.3c0.8-1,1.4-2.3,2.8-2.7c0.6-0.3,1.3-0.4,1.9-0.6
		c1-0.4,1.8-1.8,1.6-2.8c-0.1-0.5-0.4-0.6-0.9-0.6c-1.7,0-3.2,0.1-4.8,0.8c-0.5,0.3-1.2,0.3-1.8,0.4c0-0.9,1.3-1.3,0.5-2.1
		c-0.8-0.6-1.7-0.5-2.6-0.3c-0.9,0.3-1.7,1-2.5,1.6c-1,0.8-2.1,1.6-3.9,1.8c1.3-1.7,3.5-1.4,4.4-3.2c-0.9-0.4-0.9-1.6-1.7-1.9
		c-1,0.6-1.2,2.1-2.2,2.6c-0.8-0.4-0.5-0.8-0.3-1.3c0.1-0.4,0.3-0.8,0-1c-0.4-0.4-0.6-0.1-1,0c-1.6,0.6-2.8,0.5-3.7-1
		c-0.6-0.9-1.3-1-2.2,0c-1.2-2.5-4.9-3.2-4-7c1.2,0,1.7-0.8,2.3-1.8c1.6-2.5,5.8-3,7.9-0.9c2.1,1.9,3.2,2.6,5,2.3
		c-0.1-1-1-1.3-1.7-1.8c-0.3-0.3-0.9-0.5-0.6-1.2c0-0.1,0.3-0.3,0.5-0.4c0.6-0.1,0.9,0.4,1.2,0.6c0.4,0.4,0.6,0.9,1,1.3
		c0.3,0.3,0.5,0.4,0.9,0.3c0.4-0.1,0.4-0.6,0.4-0.9c-0.3-1.6-1-2.7-2.7-3.4c-0.6-0.3-1.6-0.4-1.8-1.4c1.3,1,2.7-0.3,4.3,0.5
		c1.2,0.6,2.8,0.6,4.4,1.4c1.8,1,3.5,0,4.1-1.6c-0.9-0.4-1.8,0.1-2.6,0.1c-0.6,0-1.4,0.1-1.7-0.6c-0.3-0.9,0.6-0.8,1.2-1
		c0.9-0.4,1.3-1,0.8-1.9c-0.5-1-1.3-0.5-1.9-0.1c-0.3,0.1-0.5,0.4-0.8,0.5c-1.8-1.4-1.9-1.7-1-3.5c1,0.3,2.3,1,3-0.3
		c0.6-1.2-0.6-1.8-1.4-2.6c-0.4-0.5-0.9-0.9-0.4-1.8c1.4,0.4,2.5,0.3,3-1.4c0.3-0.8,0.9-0.8,1.6-0.1c1,1,1.7,0.9,2.2-0.3
		c0.4-0.8,0.5-1.6,0.4-2.3c-0.3-1.9,0.8-3.4,1.6-4.9c0.4-0.8,1.2-0.9,1.7-0.4c0.8,0.6,1.6,1,2.5,1.4c0.4,0.1,0.6,0.4,0.9,0.9
		c0.9,1.7,1,1.7,2.2,0.3c0.5-0.6,1-1,1.9-1c1.6,0,2.7-0.6,3.4-2.1c0.1-0.4,0.5-0.8,0.9-1c0.5-0.4,1.3-0.5,1.8,0.1
		c0.5,0.5,0,1-0.4,1.4s-0.6,0.8-0.5,1.3c0.3,0.5,0.8,0.5,1.3,0.5c1.2-0.3,1.6,0.8,1.9,1.6c0.5,0.8-0.1,1.2-0.5,1.7
		c-0.1,0.3-0.4,0.4-0.3,0.8c1.3,0.6,2.2-0.1,2.8-1c0.6-0.8,1.4-1.6,0.1-2.6c-0.8-0.6-0.6-1.6-0.3-2.5c1.6,0.6,2.3-0.6,3.2-1.8
		c0.6,1.3-0.3,1.9-0.6,2.5c-1.3,1.7-1.3,2.3,0.5,3.6c2.1,1.6,2.1,1.6,1.2,4.1c-0.3,0.6-0.6,1.3,0.1,1.9c3.1-1.6,3.6-6.6,1.7-9.3
		c-1.4,0.6-0.4,1.9-0.8,3c-0.4,0-0.5-0.4-0.8-0.5c-0.6-0.5-1.8-0.6-1.4-1.8c0.3-0.9,2.1-1.8,3.1-1.6c0.8,0.1,1.3,0,1.7-0.5
		c0.5-0.5,1.2-0.9,1.8-0.4c0.6,0.5,0.5,1.3,0.4,1.9c-0.1,0.5-0.4,1-0.5,1.6c-0.6,1.4-0.5,2.7,0.8,3.7c1.2,1,1.2,2.7,1.9,4
		c0.4,0.6-1.2,2.6-2.1,2.6c-0.6,0-1.3,0.1-1.6,0.6c-0.5,0.8-1.2,1.3-2.2,1.4c-0.5,0-0.6,0.4-0.6,0.9c1,0.8,2.1,0,3.2-0.1
		c-0.6,1.4-1.9,2.1-3,2.5c-1.3,0.5-2.1,1.7-3.2,2.3c-0.3,0.1-0.4,0.5-0.3,0.9c0.1,0.3,0.4,0.4,0.6,0.4c1.2,0.1,2.2-0.4,3-1.2
		c1-1,2.2-2.1,3.9-2.1c0.4,0,0.6-0.1,0.8-0.5c0.4-0.8,1-0.8,1.8-0.6c1.4,0.3,2.2-0.4,1.8-1.7c-0.5-1.7-0.4-3.2,0.4-4.9
		c0.4-0.9,0.1-1.9-0.4-2.7c-0.4-0.6-0.6-1.3-0.9-2.1c-0.5-1.3-0.3-2.5,1-3.2c0.8-0.5,1.3-1,1-2.1c-0.3-1,0.4-1.3,1.2-0.8
		c1.6,0.9,3,0.6,4.4-0.1c0.6-0.4,1.3-0.8,2.1,0.1c-1,0.4-1.3,0.8-0.4,1.6c0.4,0.3,0.6,0.5,1,0.6c0.6,0.3,1.4,0.8,2.1,0.1
		c0.6-0.8-0.3-1.4-0.6-1.8c-0.8-0.9-1.3-1.8-1.3-3c0-1-0.6-1.8-0.9-2.7c3.4,1.6,5.6,3.7,7.1,6.9c1,2.1,2.7,3.2,4.5,4.4
		c1.2,0.6,2.2,1.3,3.1,2.2c0.8,0.8,0.6,1.3-0.4,1.6c-3.4,0.9-6.6,2.6-10,3.6c-2.2,0.6-4.5,1.6-5.3,3.6c-0.9,2.5-3.1,3.6-4.1,5.8
		c-0.8,1.8-2.5,2.8-4.5,2.7c-1.7-0.1-2.3,0.5-2.6,2.3c-0.1,2.1-1.4,3.9-3.1,5c-2.8,2.1-3,1.9-4,5.3c-1-0.3-2.1-0.5-3.1-0.9
		c-0.5-0.1-1-0.3-1.4,0c-1.4,1.3-3.6,0.5-5.2,2.5c0-1.6-1-2.2-1.4-3.2c-0.4-1-1.9-0.9-2.5,0c-0.5,1-1.3,1.8-2.3,2.3
		c-1.2,0.6-1.2,1.4,0,2.3c0.1,0.1,0.3,0.1,0.3,0.1c0.5,1.3,1,2.3,2.8,2.7c0.9,0.1,1.7,1.4,3,1.3c0.4,0,0.8,0.1,0.8,0.6
		s-0.3,0.8-0.8,0.8c-2.5,0.5-4.7,1.4-6.3,3.4c-0.6,0.6-2.7,0.1-3.5-0.9c-1.4-1.7-3.9-1.4-5,0.5c-0.5,0.9-0.9,2.3-2.5,1.3
		c-0.4-0.3-0.8,0.1-0.9,0.5c-0.3,0.5-0.6,0.5-1.2,0.6c-1.6,0.3-1.9,1.2-1.4,2.8c0.6,2.2,1.9,4,3.1,5.7c1.3,1.7,2.2,3.2,2.5,5.3
		c0.1,0.9,1.2,0.9,1.8,1.2c0.9,0.3,1.2,0.8,1.2,1.6c0,1.2,0,2.2-0.3,3.4c-0.4,1.7,0,2.2,1.7,2.5c1.7,0.3,3.2,1.2,4.8,1.8
		c0.9,0.4,1.8,1.7,2.1,3.1c0.1,1.2,0.5,2.2,1.7,2.6c0.6,0.3,0.4,0.9,0.9,1.3c0.9-0.3,1.9-0.8,2.7,0.5c0.4,0.5,1,0.1,1.4-0.3
		c0.6-0.5,1.3-1,2.2-0.4c0.8,0.5,1.4,1.2,0.9,2.3c1,0.3,1.8,0.5,2.6,0.8c0.6-0.5,0.5-1,0.5-1.7c0-0.5,0.1-0.9,0.8-1
		c0.3,0,0.6,0,0.8,0.3c0.3,0.5-0.3,0.8-0.5,1c-0.3,0.3-0.4,0.5-0.3,0.9c0.5,0.5,1.3,0.4,1.4-0.1c0.5-1.3,2.3-2.2,1.3-3.7
		c0.8-1.3,1.9-1.4,3.2-1.3c1.3,0.1,2.3-0.1,2.1-1.8v-0.1c0.9-1.4,0.4-2.5-0.9-3.4c-0.1-0.1-0.3-0.3-0.3-0.4c0,0,0-0.1-0.1-0.3
		c0.5-0.8,1.6-1.2,1.7-2.3c0-0.1,0.3-0.4,0.5-0.4c2.5-0.3,4-2.1,5.6-3.7c0.9-1,3-0.6,3.5,0.6c0.6,1.7,1.8,3.1,2.5,4.8
		c0.8,1.7,0.6,3.5-0.5,4.9c-0.4,0.4-0.5,1,0,1.3c1.8,0.8,1.6,2.5,1.7,3.7c0.3,1.8,1.7,2.5,2.6,3.7c0.1,0.3,0.5,0.1,0.8,0
		c1.7-0.5,2.6-0.1,3,1.4c0.3,0.8,0.4,1.8-0.3,2.5c-1.2,1.3-1.6,2.8-2.2,4.4c-0.8,1.6,0.3,3,2.1,3.1c2.1,0.1,4.3,0.5,6.3-0.3
		c0.3-0.1,0.6,0,0.9,0.3c1.4,1.6,2.7,1.6,4.3-0.3c0.4-0.4,0.4-0.8,0.8-1.4c0.6,0.4,1,1.4,1.9,0.8c0,0,0.4,0.1,0.5,0.4
		c0.8,1.6,2.3,2.7,2.8,4.4c0.3,0.9,1.2,1.6,1.8,2.2c0.5,0.5,1,1,0.6,1.8c-0.4,0.9-1.3,0.9-2.1,0.8c-1.4-0.3-2.7-1-3.6-2.3
		c-1.3-1.6-3-2.5-4.8-3c-0.4-0.1-0.9-0.3-1.2,0.3c-0.4,0.5,0,1,0.4,1.2c1.8,0.8,1.3,1.6,0.3,2.8c-1.6,1.9-1.4,4.3-0.6,6.6
		c0.3,0.9,1,1.4,1.8,1.7c1.3,0.4,1.6,1.2,1.2,2.3c-0.4,1.2-0.8,2.5-0.1,3.7c0.1,0.4,0,0.8-0.3,1c-1,1.2-1,2.5-0.9,3.9
		c0.1,1.6,0,3-0.3,4.5c-0.3,1-0.3,2.1,0.8,3c0.5,0.4,0.5,1,0.6,1.7c0.3,1.2,0.9,2.1,1.8,2.7c1.6,1.2,1.8,2.2,1,4
		c-0.4,0.9-0.8,1-1.6,0.6c-0.4-0.1-0.6-0.4-1-0.5c-0.5-0.1-1-0.1-1.2,0.4c-0.3,0.6,0.1,0.9,0.6,1c0.4,0.1,0.9,0.3,1.2,0.8
		c-0.9,0.4-1.8,0.1-2.7,0.1c-0.6,0-1,0.3-1.3,0.8c-0.1,0.6,0.4,0.8,0.8,1c1.2,0.5,1.7,1.3,1.3,2.6c-0.3,1,0.1,1.8,1.2,2.3
		c1.4,0.8,1.6,1.7,0.9,3c-0.8-0.4-1-1.2-1.6-1.8c-0.8-1-1.6-1.6-2.6-0.4c-0.6,0.8-1.3,0.5-2.1,0.5c-0.6,0-1.4-0.3-2.3,0.1
		c1.4,1.8,1.6,4.3,3.7,5.6c1,0.5,1.6,1.3,0.8,2.5c-0.3,0.4-0.3,0.9-0.1,1.4c0,3,0.1,6.1,0.9,9c0.5,2.1-0.4,3.7-1.2,5.6
		c-0.9,1.9-1.6,3.7-0.4,5.9c0.5,1-0.1,2.1-0.8,3c-0.8,1.2-1.7,2.2-2.2,3.5c-0.3,0.8-1,1.2-1.7,1.7c-0.9,0.6-1.8,1.3-2.7,1.9
		c-1.2,0.9-1.8,2.1-1.7,3.5c0.1,1.8-0.6,3.1-2.1,4.1c-2.8,2.1-4,5-3.7,8.4c0.1,3-1.3,4.9-3.5,6.6c-0.8,0.6-1.7,1.2-2.5,1.7
		c-2.5,1.7-4.1,3.9-4.5,6.9c0,0.3-0.1,0.4-0.1,0.6c0,0-0.1,0-0.3,0.1c-0.6-0.6-1.6-1.3-2.6-1.2c-0.9,0.1-0.8-0.6-1-1.2
		c-0.1-0.4-0.3-0.9-0.9-0.8c-0.6,0.1-0.6,0.6-0.6,1.2c0,0.6,0.1,1.3,0.5,1.8c0.4,0.8,0.9,1.6,0.6,2.6c-0.1,0.3,0,0.6,0.1,0.8
		c1.6,1.2,1.7,3.2,3.2,4.5c0.9,0.8,1.2,1.6,0,2.3c-0.4,0.3-0.8,0.5-0.9,0.9c-0.5,1.8-1.9,1.3-2.7,0.6c-1.8-1.4-3.9-1.6-5.9-1.4
		c-1.7,0.1-3-0.4-3.6-2.1c-0.6-1.7-1.9-2.2-3.7-2.2c-0.9,0-1.8,0.3-2.6-0.6c0.3-0.8,1-0.9,1.4-1.4c0.3-0.4,0.5-0.8,0.1-1.2
		c-0.4-0.5-0.8-0.3-1.2,0c-0.3,0.3-0.6,0.5-1,0.5c-1.8,0-2.6,1-2.7,2.7c0,0.1,0,0.4-0.1,0.5c-1.3,1.7-3.2,2.5-4.5,4.3
		c-0.4-0.8-0.1-0.9,0.1-1.2c1.7-1.7,2.2-3.7,1.3-5.9c-0.3-0.8-0.8-1.6-1.7-1.6c-0.9,0-0.9,0.9-1.2,1.6c-0.3,0.8-0.5,1.7-0.6,2.5
		c-0.4,1.8-2.1,3-3.7,2.5c-0.5-0.1-0.9-0.3-1.4-0.3c0.8-2.1,0.5-2.7-1-3.1c-0.9-0.1-1.4,0.3-2.1,0.8c-1.3,1-2.5,1.6-4,0.4
		c-1.3-0.9-3-0.9-4.5-1c-2.3-0.1-4.5-0.9-6.9,0.3c-1,0.5-2.6-0.3-3.6,0.8c-0.5-0.5-0.3-1.6-1.3-1.4c-1,0.1-2.1,0.1-2.7,1
		c-0.4,0.5-0.3,1.2,0.3,1.4c1.2,0.8,1.9,2.5,3.9,2.1c-1.6,0.5-2.3,1.6-3,2.8c-0.6,1.3-2.6,1.6-3.5,1c-1.7-0.8-2.5,0-3.4,1
		c-0.1,0.3-0.4,0.4-0.8,0.6c-0.8-1.3-1.9-1.3-3.1-1c-0.6-0.9-0.4-2.3-1.7-2.8c-0.8,0.5-0.4,1.3-0.8,1.9c-0.4,0.9-0.9,1.7-1.8,1.8
		c-1.6,0.3-1.3,0.9-0.6,1.8c0.1,0.3,0.1,0.5,0.3,0.8c-0.6,0.5-1.3,0.4-2.1,0.3c-0.6-0.1-1.3-0.3-1.9-0.4c-2.2-0.3-3.4,0.6-3.4,2.8
		c-1.4,0.5-2.7,0.6-4.1-0.1c-0.5-0.3-1.3-0.5-1.7-0.1c-1,1.2-2.1,0.5-3.2,0.1c-0.5-0.1-0.8-0.4-0.8-0.9c-0.1-0.5,0.1-0.9,0.6-1.2
		c0.8-0.4,1.4-0.6,2.2-0.9c1.4-0.5,1.4-0.6,0.5-1.8c1.3-1.9,1.3-1.9-1-2.3c-1.6-0.3-3.5-0.3-3.5-2.5c-1.2-0.4-1.4,1.3-2.5,0.8
		c-0.6-0.4-1.3-1-1.8-1.6c-0.4-0.3-0.6-0.5-1.2-0.3c-0.5,0.3-0.3,0.8-0.1,1.2c0.1,1.2,0.6,1.9,1.8,2.1c0.9,0.1,1.2,0.6,1,1.4
		c-0.3,0.8,0.1,1.3,0.4,1.9c0.1,0.3,0.4,0.6,0.1,1c-0.4,0.4-0.6,0.1-1,0c-0.5-0.1-0.9-0.5-1.6-0.3c0.8,1.2,2.5,0.9,3.2,2.1
		c-0.6,0.9-1.4,1.7-1.4,2.8c0,0.8-2.8,2.1-4,2.1C172.4,276.5,170.9,276.1,169.6,274.8z"/>
</g>
<g>
	
		<ellipse transform="matrix(0.6003 -0.7998 0.7998 0.6003 -108.3851 133.304)" class="st6" cx="79.2" cy="175.1" rx="19.2" ry="35"/>
	<ellipse transform="matrix(0.6165 -0.7874 0.7874 0.6165 -104.5551 130.2577)" class="st7" cx="81.4" cy="172.5" rx="17" ry="35"/>
	
		<ellipse transform="matrix(0.6165 -0.7874 0.7874 0.6165 -104.5551 130.2577)" class="st8" cx="81.4" cy="172.5" rx="13.6" ry="28"/>
	<path class="st6" d="M71.8,170.5c-0.4,1.8,1.8,4.6,4.6,6.4c1.8,1.1,3.6,1.5,4.7,1.1l0.6-0.2l0.7,0.7c0.7,0.7,1.6,1.4,2.5,1.9
		c2.9,1.8,5.5,1.7,5.8-0.1l0.1-0.6l3,1.9c0.6,0.4,1.2,0.4,1.3,0c0.1-0.4-0.4-1-1-1.4l-3-1.9l0.5-2.4l3,1.9c0.6,0.4,1.2,0.4,1.2,0
		c-0.1-0.6-0.5-1.1-1-1.4l-3-1.9l0.4-1.9c0.1-0.4-0.4-1-1-1.4s-1.2-0.4-1.2,0l-0.4,1.9l-14.2-8.5l0.4-1.9c0.1-0.4-0.4-1-1-1.4
		s-1.2-0.4-1.2,0l-0.4,1.9l-3-1.9c-0.6-0.4-1.2-0.4-1.3,0s0.4,1,1,1.4l3,1.9l-0.5,2.5l-3-1.9c-0.6-0.4-1.2-0.4-1.2,0
		c0.1,0.6,0.5,1.1,1,1.4l3,1.9L71.8,170.5z M89.4,174.7l-0.8,4.4c-0.2,1-1.7,1-3.3,0.1c-1.7-0.9-2.9-2.7-2.7-3.7l0.8-4.4L89.4,174.7
		z M75.2,166.1l5.9,3.6l-1,5.7c-0.2,1-1.7,1-3.3,0.1s-2.9-2.6-2.7-3.7L75.2,166.1z"/>
</g>
<g>
	
		<ellipse transform="matrix(0.5509 -0.8346 0.8346 0.5509 -46.9652 382.3588)" class="st9" cx="331.8" cy="234.8" rx="55" ry="26.6"/>
	
		<ellipse transform="matrix(0.5509 -0.8346 0.8346 0.5509 -45.5664 378.56)" class="st10" cx="329" cy="231.6" rx="53.9" ry="24.7"/>
	
		<ellipse transform="matrix(0.5509 -0.8346 0.8346 0.5509 -45.5664 378.56)" class="st11" cx="329" cy="231.6" rx="43.2" ry="19.8"/>
	<path class="st12" d="M334.8,223.5l7.6-9.3c-1.1-0.7-2-1.2-2.9-2c-0.5-0.4-1,0-1.6,0.9c-2.6,2.9-5,5.9-7.5,9
		c-1.6,2-2.7,2.7-4.1,2.8c-1.7,0.1-2,0.2-3.4,3.2l2.5-0.2c-2.6,3.3-5.2,6-7.6,9.2l10.3,6.8c0.2,0.1,0.5,0.1,0.9-0.4
		c1.2-1.4,2.5-2.8,3.9-4.3l-7.1-4.7c1.5-1.7,2.8-3.2,4.1-4.9c1.6-2.1,2.8-2.9,4.2-2.9c1.7,0,1.8-0.2,3.4-3.2L334.8,223.5z"/>
</g>
<g>
	<ellipse class="st13" cx="91.5" cy="68.7" rx="47.5" ry="54.6"/>
	<ellipse class="st14" cx="85.7" cy="66.9" rx="45.8" ry="52.9"/>
	<ellipse class="st13" cx="85.7" cy="66.9" rx="36.7" ry="42.4"/>
	<path class="st14" d="M93.7,42.4c4.9,0,8.7,4.1,8.9,10c0.2,5.4-3.4,9.9-7.7,10.5C94.3,63,93.6,63.1,93,63c-2-0.2-3.7,1.2-3.9,3.2
		v0.6c0,2.4,1.5,4.1,3.6,4c4.4-0.2,8.2,3,9.2,7.9c1,3.8-0.2,7.7-3,10.4c-2.3,2.6-6.2,3.2-9.2,1.5c-3.4-1.6-5.1-4.7-5.4-8.9
		c-0.1-2,0.3-4,1.1-5.8c0.7-1.5,0.4-3.3-0.8-4.5c-1-1.1-2.5-1.3-3.8-0.6c-0.5,0.4-1,0.8-1.3,1.4c-2.3,3.7-5.4,5.2-9.2,4.3
		s-6.2-3.8-7-8.3c-1.2-6.3,3.7-12.6,9.3-12.1c3.6,0.3,6.2,2.4,7.8,6.2c0.5,1.6,2.2,2.5,3.8,2.1c0.1,0,0.1,0,0.2-0.1
		c0.2-0.1,0.3-0.1,0.5-0.2c1.8-1.1,2.5-3.5,1.5-5.4c-0.9-1.7-1.5-3.6-1.6-5.5C84.6,47.1,88.5,42.5,93.7,42.4z"/>
</g>
<g>
	<path class="st15" d="M244.1,117.9c1.9,0.5,3.9,1.1,5.7,1.9l0.4,0.1c0.2,0.2,0.5,0.4,0.8,0.5l0.2,0.1c0.4,0.8,1.6,1.2,2.4,1.9
		c0.5,0.4,0.4,0.9,1.2,1c0.5,1.1,1.5,2.3,2,3.6c-0.1,0.1,0,0.2,0.1,0.3h0.1c0.1,0.8,0.2,1.6,0.5,2.4c0,0-0.4,0.1-0.1,0.2
		c-0.1,2-0.6,4-1.4,5.9c-1,1.2-1.7,3.1-3,4.3c-9.8,12.7-43.3,19.2-51.8,4.3c0.1-0.2-0.3-0.2-0.3-0.5c0-0.3,0.2-0.4-0.1-0.5
		c-0.9-0.9-0.5-3.5-0.8-4.4c0.1-0.3,0.1-0.6,0-0.9c0.2-0.5,0.2-1.1,0.6-1.5c0.3-1.2,0.7-2.3,1.2-3.4c0.3-0.3,0.5-0.6,0.7-1
		c1.4-2,3-3.7,4.9-5.2c0.1-0.4,0.8-0.4,0.7-0.9c0.1,0.1,0.2,0,0.3-0.1v-0.1c2.1-1.4,4.7-2.9,7-4.3c0.2,0,0.5-0.1,0.6-0.3
		c3.9-1.5,8-2.8,12.1-3.7c0.5,0.1,1.1,0,1.5-0.3c1.2,0,2.4-0.1,3.6-0.4c0.2,0,0.4,0.2,0.5-0.1c1.1,0.3,2.5-0.1,3.7,0.1
		c0.3-0.3,0.7,0.2,1-0.2c0.2,0.1,0.2-0.1,0.4-0.1c0.1,0.5,0.5,0.2,0.8,0.2C240.9,117.7,242.4,117.3,244.1,117.9z M251.2,136.1
		c5.6-9.3-3.9-15.2-11.8-16.1c-20-2.1-39.9,12.3-33.6,22.9c3,5.9,11,6.8,17.1,7.1c10.6-0.7,22.1-4.3,28.2-13.5L251.2,136.1z"/>
	<path class="st16" d="M251.1,136.5c-6.1,9.3-17.7,12.8-28.2,13.5c-6-0.3-14.1-1.2-17.1-7.1c-0.5-3,0.1-6,1.7-8.6
		c5.1-6.8,12-9.3,19.1-11.5c3.5-0.2,7.4-1.3,11-0.6c7.5,0.1,17,5.2,13.6,13.8C251,136,250.7,136.4,251.1,136.5z M229.2,129.4
		C229.5,129.5,229.4,128.9,229.2,129.4c-4.3,0.2-8.5,0.7-12.9,1.1l5.4,6.7c0.4-1.6,0.6-3.4,0.9-4.9
		C224.9,131.4,227,130.5,229.2,129.4z M233.5,128.8c-3.1,0.9-6.3,2.7-9.5,3.9c-0.3,0.9-0.5,1.9-0.6,2.9c-0.3,1.2-0.5,2.4-0.7,3.6
		c0.2,0.2,0.4-0.1,0.6,0c6.3-0.3,12.9-0.5,19.3-1.1C239.7,135.1,236.8,131.4,233.5,128.8z"/>
	<path class="st16" d="M258.1,131.1l-0.1,0.2c0,1.2,0.2,2.4,0.6,3.6c-0.2,0.5,0.1,1.1-0.2,1.6c0.1,1.9-1,3.7-1.6,5.6
		c-1.5,2-3.1,4-4.9,5.8c-0.1,0-0.2,0-0.2,0.1v0.1c-1.2,0.6-2.4,2.1-3.8,2.7c-1.2,0.9-2.8,1.2-3.6,2.3c-0.1-0.1-0.2,0-0.3,0.1v0.1
		c-0.4-0.2-0.8,0-1,0.4c-0.1,0-0.2,0-0.3,0.2c-0.4-0.2-0.8,0-1,0.4c-0.1-0.1-0.2,0-0.3,0.2c-0.1-0.1-0.2,0-0.3,0.1v0.1
		c-0.3-0.1-0.5,0-0.7,0.2l0,0c-0.5-0.1-0.6,0-0.8,0.5c-3.2,0.7-6.6,1.9-10,2.5c-0.8,0.1-2.5-0.1-3.1,0.5c-1.5-0.3-3.4,0.3-5.1-0.1
		c-0.4,0.3-0.8-0.2-1.1,0.1c-4-0.5-8.1-1.1-11.6-3c-1.2-0.6-2.4-1.8-3.7-2.4c0-0.5-0.5-0.7-1-1.2c-1.5-2.1-2.4-4.6-2.6-7.2
		c9.4,15.6,43.1,7.4,51.7-4.5c1.3-1.1,2.1-2.9,3-4.3c0.8-1.9,1.3-3.9,1.4-5.9c0.5,0.3,0.3,0.9,0.4,1.3L258.1,131.1z"/>
	<path class="st17" d="M251.2,136.1c3.4-9-6.6-13.6-13.6-13.8c-3.6-0.7-7.4,0.4-11,0.6c-7.6,2.2-14.4,5.2-19.1,11.5
		c-1,1.8-1.7,3.8-2,5.8c-0.1,1,0.5,1.7,0.2,2.8c-2.5-3.9-0.6-8.5,2.1-11.9c7.9-9.1,21.7-12,31.5-11
		C250.1,121.4,255.9,128.6,251.2,136.1z"/>
	<path class="st17" d="M251.1,136.5c-0.1,0-0.2-0.2-0.2-0.3c0-0.1,0.2-0.2,0.3-0.2L251.1,136.5z"/>
	<path class="st15" d="M233.6,128.8c3.2,2.6,6,6.2,9.2,9.2c-6.2,0.6-12.9,0.8-19.3,1.1c2-1.7,5.4-3,7.9-4.3
		C232.1,132.9,232.8,130.9,233.6,128.8z"/>
	<path class="st18" d="M233.6,128.8c-0.7,2-1.5,3.9-2.2,6.1c-2.5,1.3-5.7,2.5-7.9,4.3c-0.2-0.1-0.4,0.3-0.6,0
		c0.2-1.2,0.4-2.4,0.7-3.6c0.1-1,0.3-2,0.6-2.9C227.2,131.6,230.5,129.7,233.6,128.8z"/>
	<path class="st15" d="M229.2,129.5l-6.6,2.8c-0.3,1.4-0.5,3.2-0.9,4.9l-5.4-6.7C220.7,130.2,224.9,129.6,229.2,129.5z"/>
</g>
</svg>
