<?xml version="1.0" encoding="UTF-8"?>
<svg xmlns="http://www.w3.org/2000/svg" xmlns:xlink="http://www.w3.org/1999/xlink" version="1.1" id="Layer_1" x="0px" y="0px" viewBox="0 0 400 300" style="enable-background:new 0 0 400 300;" xml:space="preserve">
<style type="text/css">
	.st0{fill:none;}
	.st1{fill:#65A9C2;}
	.st2{fill:#549EBB;}
	.st3{fill:#7DB5CC;}
	.st4{fill:#495963;}
	.st5{fill:#E2E3E4;}
	.st6{fill:#2C3745;}
	.st7{fill:none;stroke:#2C3745;stroke-width:2;stroke-miterlimit:10;}
	.st8{fill:url(#SVGID_1_);}
	.st9{fill:#B65BE9;}
	.st10{fill:#55399D;}
	.st11{fill:#54389D;}
	.st12{fill:#4C4464;}
	.st13{fill:#4C4463;}
	.st14{fill:#381B84;}
	.st15{fill:#434066;}
	.st16{fill:#4A4469;}
	.st17{fill:#3E3D61;}
	.st18{fill:#4C4569;}
	.st19{fill:#404061;}
	.st20{fill:#342E59;}
	.st21{fill:#9091A0;}
	.st22{fill:#D29B5B;}
	.st23{fill:#A58C6E;}
	.st24{fill:#B58652;}
	.st25{fill:#B48552;}
	.st26{fill:#1584E7;}
	.st27{fill:#F7E00D;}
	.st28{fill:#006633;}
	.st29{fill:#2FAC66;}
	.st30{fill:#BFD9DB;}
	.st31{fill:#364151;}
	.st32{fill:#85A8AE;}
	.st33{fill:#313C4D;}
	.st34{fill:#344050;}
	.st35{fill:#F3F2EF;}
</style>
<rect x="-40.5" class="st0" width="443.1" height="300"></rect>
<path class="st1" d="M202.8,241.6c-0.2,0.1-0.3-0.2-0.3-0.6c0.1-1,0.2-2,0.3-3l6.7-70.6l-2.9-0.3c-2.4,25.3-4.8,50.6-7.2,75.9  c-0.1,0.9-0.6,2.3,0,2.9c0.2,0,0.4,0.2,0.5,0C200.7,244,202.1,244.3,202.8,241.6z"></path>
<polygon class="st2" points="157.8,187.1 162.1,185.1 157.3,235.7 121.9,209.1 152.1,190.6 "></polygon>
<polygon class="st3" points="157,238.6 168.4,239.6 174,180.4 168.3,179.9 162.1,185.1 "></polygon>
<polygon class="st2" points="203.1,165.9 206.2,170.8 198.7,250.6 167.5,249 173.8,183.2 "></polygon>
<polygon class="st2" points="239.6,153.5 244,157.4 237.4,223.3 203.1,238.2 209.5,163.7 "></polygon>
<rect x="210" y="188.3" transform="matrix(9.462945e-02 -0.9955 0.9955 9.462945e-02 30.2747 415.6923)" class="st3" width="67.3" height="5.7"></rect>
<rect x="243.5" y="186.1" transform="matrix(9.462945e-02 -0.9955 0.9955 9.462945e-02 46.448 440.4828)" class="st3" width="43.8" height="17.3"></rect>
<rect x="224.4" y="190.5" transform="matrix(9.462945e-02 -0.9955 0.9955 9.462945e-02 32.9745 428.3625)" class="st2" width="55.1" height="11.1"></rect>
<path class="st4" d="M309.9,195.7c-0.9,1-2,1.8-3.3,2.4c-1.5,0.7-2.9,1.6-4.4,2.2c-1.5,0.6-3.1,1.5-4.7,2.2  c-1.9,0.8-3.8,1.7-5.7,2.6l-4.7,2.2c-1.5,0.7-3.1,1.3-4.6,2.1c-1,0.5-2.1,0.9-3.1,1.4c-3.1,1.6-6.3,2.9-9.4,4.4  c-1.7,0.8-3.5,1.6-5.2,2.4c-2.3,1-4.5,2-6.7,3.1c-0.9,0.5-2,0.9-3,1.3c-1.7,0.7-3.3,1.6-5,2.3s-3.2,1.5-4.8,2.3  c-1.8,0.8-3.7,1.6-5.5,2.5c-1.4,0.7-2.9,1.3-4.3,2c-3.2,1.5-6.4,2.9-9.6,4.4c-1.7,0.8-3.5,1.6-5.2,2.4c-2.3,1-4.5,2-6.7,3.1  c-0.9,0.5-2,0.9-3,1.3c-1.5,0.7-3.1,1.3-4.6,2.1c-1.1,0.6-2.2,0.9-3.2,1.5c-3,1.7-6.2,2.8-9.3,4.4c-1.7,0.8-3.4,1.6-5.1,2.3  c-1.7,0.7-3.4,1.7-5.1,2.4c-0.9,0.4-1.8,0.9-2.8,1.3c-1,0.3-2.1,1-3.2,1.4c-1.8,0.7-3.8,1-5.7,0.8c-1.1-0.1-2.2-0.2-3.3-0.3  c-1.7-0.2-3.3-0.8-4.8-1.7c-1.6-1-3.2-2.2-4.8-3.3c-1.6-1.1-3.2-2.2-4.7-3.3c-1.6-1.1-3.4-2.4-5.1-3.6c-0.8-0.6-1.7-1.1-2.4-1.7  c-2.3-1.7-4.6-3.2-6.8-5c-0.8-0.6-1.6-1.1-2.4-1.6c-1.8-1.2-3.6-2.4-5.3-3.7c-2.1-1.6-4.3-3.1-6.4-4.6c-1.5-1.1-3.1-2.3-4.7-3.4  c-1.5-1-3-2.1-4.5-3.2c-0.8-0.6-1.6-1.2-2.5-1.7c-2.4-1.5-4.5-3.3-6.9-4.9c-1.4-0.8-2.4-2.1-2.9-3.7c-0.1-0.3-0.1-0.7-0.1-1.1  l0.2-1.7c0.1-0.1,0.3-0.2,0.3-0.3c0.5-1.1,1.4-2,2.6-2.4c0.9-0.4,1.9-0.8,2.9-1.2c2.3-1.1,4.6-2.2,6.8-3.3c1.1-0.5,2.2-0.9,3.2-1.5  c1.3-0.8,2.7-1.4,4.2-2c1.8-0.6,3.4-1.5,5.1-2.3c1.7-0.8,3.5-1.6,5.3-2.4c1.1-0.6,2.2-1.1,3.4-1.4c1.7-1.2,3.7-1.7,5.5-2.6  c1.4-0.7,2.9-1.4,4.3-2c2.3-1,4.6-2.2,6.8-3.3c1.7-0.8,3.4-1.4,5-2.3c0.4-0.3,0.8-0.4,1.3-0.4c0.6,0.2,0,1,0.5,1.3c-0.3,1,0.1,2,0,3  c0,0.7-0.3,1.4-0.9,1.9c0.2,0.7-0.3,1.3-0.5,2l-0.6-0.1c0-0.2,0-0.3-0.2-0.3c-0.2,0-0.1,0.2-0.1,0.2c-0.2,0-0.6-0.2-0.7,0.3  c-0.6,0-1.2,0.2-1.7,0.5c-1.3,0.6-2.6,1.5-4,1.9s-2.3,1.2-3.6,1.6c-0.8,0.2-1.6,0.6-2.1,1.3c-0.3-0.1-0.7,0-1,0.1  c-1.3,0.7-2.8,1.3-4.1,2c-0.7,0.3-1.3,0.6-1.8,1.1c-0.5-0.2-0.9,0.2-1.3,0.4c-1.4,0.6-2.8,1.3-4.2,2c-0.1,0.1-0.3,0.1-0.3,0.4  c-0.2,0-0.5-0.1-0.7,0.1c-0.2,0.2-0.4,0.1-0.6,0.2l0,0.5c-0.3,0.1-0.8-0.4-1,0.2c-0.4-0.1-0.9,0.1-1,0.5c0,0,0,0,0,0  c-0.9,0.1-1.8,0.5-2.6,0.9c-1.2,0.5-2.3,1.2-3.5,1.6c-0.4,0.2-0.9,0.5-1.2,0.8c0.2,0.3,0.4,0.2,0.6,0.2c1.8,1.4,3.9,2.7,5.7,4.3  c0.7,0.6,1.7,1.1,2.4,1.7c1.2,1,2.5,1.9,3.9,2.8c1.2,0.7,2.1,1.7,3.3,2.3c1.1,0.7,2.2,1.5,3.2,2.3c2.3,1.7,4.8,3.1,7.1,4.9  c2.5,1.9,5.2,3.7,7.7,5.6c0.1,0.1,0.2,0.1,0.3,0.1c2.1,1.3,3.9,3,6.1,4.1c1.4,1.2,2.8,2.3,4.4,3.3l1.8,1.3c1.4,0.9,2.8,1.8,4.1,2.9  c1.5,1.1,3,2.2,4.5,3.4c0.5,0.4,1,0.6,1.5,0.9c0.5,0.3,1.1,0.5,1.3,1.1c0.8,0,1.2-0.5,1.8-0.8c2.2-1,4.5-2,6.7-3.1  c1.4-0.6,2.6-1.3,4-1.9c0.7-0.2,1.3-0.5,1.9-0.8c0.6-0.4,1.2-0.7,1.8-0.9c0.7-0.2,1.3-0.5,1.8-1.1c0.2,0,0.4,0.1,0.5,0  c0.7-0.8,2.1-0.6,2.6-1.7c0.5,0.1,1,0.1,1.5-0.2c2.4-1.2,4.8-2.3,7.2-3.4c2.4-1.1,4.7-2,7-3.2c1.8-1,3.9-1.6,5.8-2.8  c0.9-0.6,1.9-1,3-1.2c0.4,0,0.5-0.4,0.9-0.6c2.2-0.9,4.2-2,6.3-2.9c1.1-0.4,2.2-0.9,3.1-1.6c0.2,0,0.4,0.1,0.6,0  c1.5-0.7,3-1.5,4.6-2.1c0.4-0.1,0.8-0.4,0.9-0.8c0.3,0,0.6,0.2,0.8,0.1c1.4-0.9,3.1-1.4,4.5-2.2c1.1-0.6,2.2-1.1,3.4-1.5  c0.9-0.4,1.8-0.8,2.7-1.3c2-0.9,4.1-1.8,6.2-2.8c1.9-1,3.8-1.8,5.8-2.6c1.4-0.5,2.6-1.3,4-1.8c0.7-0.2,1.3-0.5,1.8-0.9  c0.1,0,0.2,0.1,0.3,0c1.3-0.8,2.8-1.1,4-2c0.3-0.2,0.7-0.3,1.1-0.4c1.8-0.7,3.5-1.5,5.2-2.4c0.9-0.4,1.8-0.8,2.8-1.3l5-2.3  c0,0,0-0.1,0-0.2c0.2,0,0.3,0,0.3-0.2c0-0.2-0.2-0.1-0.2-0.1c-0.5-0.8-1.1-1.4-1.9-1.8c-1.2-0.8-2.3-1.7-3.5-2.5  c-1.4-0.9-2.7-2-4.1-2.9c-1.1-0.6-2.2-1.4-3.1-2.3c-0.2-0.3-0.6-0.1-0.9-0.2c-0.3-0.7-1-1.2-1.8-1.1c-0.3-0.7-0.8-1.3-1.5-1.6  c-0.6-0.3-1.1-0.6-1.5-1.1c-0.2-0.3-0.6-0.1-0.9-0.2c-0.3-0.9-1.2-1.5-2.1-1.5c-0.1-0.4-0.3-0.5-0.7-0.7c-0.9-0.5-1.8-1.3-2.4-2.1  l-1.1-0.1c-0.5-0.8-1.3-1.4-2.1-1.8c-0.5-0.2-0.9-0.5-1.2-0.9c-0.5-0.7-1.3-1.1-2.1-1c0.2-0.9-0.7-1-1.2-1.4  c-0.1-0.1-0.4-0.1-0.6-0.1c0-0.5-0.4-0.3-0.6-0.4c-0.3-0.8-1-1.3-1.8-1.4h-0.3c0-0.5-0.4-0.3-0.6-0.4c0-0.2-0.1-0.3-0.3-0.4  c0-0.1,0-0.3-0.2-0.3c0,0-0.1,0-0.1,0c0.1-1.3,0.2-2.5,0.4-3.8c0.1-0.9-0.1-1.8-0.4-2.6c0.1-0.3,0-0.6,0.2-0.9  c0.8-1.3,1.3-2.8,1.6-4.3c0.2-0.8,0.5-1.6,0.7-2.4c0.3-0.9,0.8-1.8,0.7-2.9c0.3-0.1,0.4-0.4,0.7-0.4c0.5,0.3,1,0.6,1.5,0.9  c1.6,1.3,3.3,2.4,4.9,3.5c1.1,0.8,2.3,1.5,3.4,2.4c1.5,1.1,3,2.3,4.6,3.3c0.9,0.6,1.8,1.2,2.7,1.8c2.1,1.8,4.5,3.3,6.8,4.9  c1.7,1.2,3.2,2.6,5.1,3.5c2.2,1.9,4.7,3.3,7,5.1c1.2,0.9,2.6,1.7,3.9,2.8c1.7,1.4,3.5,2.5,5.3,3.8c0.9,0.8,1.9,1.5,3.1,2  c0.5,0.8,1.5,1,2.1,1.8c0.8,0.9,1.3,1.9,1.7,3l-0.2,1.8C309.8,194.8,310.2,195.4,309.9,195.7z M134.4,231.2c0.5,0.6,1.1,1.2,1.7,1.8  c0.5,0.4,1.1,0.8,1.8,1c1.5,0.6,3,1.3,4.6,1.3c1.8-0.1,3.8,0,5.5-0.9c0.8-0.4,1.6-1,2.2-1.7c0.7-0.9,0.8-2.2,0.2-3.1  c-0.7-1.2-1.8-2.1-3-2.7c-1.2-0.6-2.6-0.9-4-1c-0.6,0-1.3-0.1-1.9-0.2c-1.3-0.2-2.5-0.1-3.7,0.5c-1.2,0.5-2.7,1-3.2,2.5  c0,0.1-0.2,0.2-0.3,0.3C133.9,229.7,134.5,230.5,134.4,231.2z M266.5,170.6c2.9,2,5.7,4.2,8.7,6.1c0.1,0.1,0.3,0,0.4,0  c0.3-0.3,0.3-0.8,0-1.1c0,0-0.1-0.1-0.2-0.1c-1.2-0.9-2.5-1.8-3.7-2.6c-1.2-0.9-2.3-1.5-3.4-2.4c-0.5-0.5-1.2-0.7-1.8-0.5  L266.5,170.6z M280.7,182.5c-0.1,0.3,0.1,0.6,0.4,0.8c1.1,0.5,2.1,1,3.1-0.2l-0.3-1l-2-0.2L280.7,182.5z M271.2,169.5  c0.1-0.2,0.5-0.2,0.5-0.6c0-0.3-0.3-0.4-0.4-0.6c-0.6-0.1-1.2-0.3-1.5,0.5C270,169.6,270.6,169.6,271.2,169.5L271.2,169.5z"></path>
<path class="st5" d="M309.8,201.9c-0.1,0.1-0.3,0.2-0.4,0.3c-1.2,1.5-2.9,2.7-4.8,3.3c-0.9,0.4-1.8,0.7-2.6,1.1  c-0.8,0.4-1.8,0.8-2.7,1.3c-1.6,0.8-3.2,1.5-4.8,2.3c-1.6,0.8-3.5,1.6-5.3,2.4c-1.1,0.6-2.4,1-3.5,1.6c-2.6,1.3-5.3,2.4-7.9,3.7  c-1.4,0.6-2.8,1.2-4.2,1.9c-1,0.6-2.2,0.8-3.1,1.5c-0.1,0.1-0.3,0-0.5,0c-0.6,0.5-1.3,0.9-2,1.1c-0.9,0.4-1.8,0.8-2.7,1.3  c-1.4,0.8-2.8,1.5-4.3,2c-1.8,0.6-3.4,1.6-5.1,2.3c-2.5,1.1-4.9,2.3-7.4,3.4c-1.6,0.7-3.2,1.6-4.9,2.2c-1.7,0.6-3,1.6-4.6,2.1  c-0.3,0.5-0.9,0.2-1.2,0.5c-1.2,1-2.7,1.3-4,2c-1.3,0.7-2.5,1.1-3.8,1.8c-1.7,0.9-3.4,1.6-5.1,2.4l-5.1,2.3c-2,0.9-4,1.7-5.9,2.8  c-1.3,0.7-2.9,1.1-4.2,1.9c-0.8,0.5-1.8,0.7-2.5,1.3c-0.4,0.3-0.9,0.4-1.3,0.2c-0.6,0.6-1.3,1-2,1.2c-0.3,0.1-0.6,0.2-0.8,0.3  c-1.9,0.9-3.8,2-5.8,2.8s-3.5,1.9-5.4,2.4c-2.2,1.5-4.8,2.2-7.1,3.4c-1,0.5-2.1,0.9-3.1,1.5s-2.2,0.8-3.3,1.4  c-0.5,0.4-1.1,0.6-1.7,0.8c-2,0.5-4,0.7-6.1,0.7c-1.8,0-3.5-0.8-5.1-0.8c-0.5-0.3-1-0.6-1.5-0.8c-0.7-0.2-1.3-0.5-1.8-0.9  c-1.7-1.2-3.3-2.5-5.1-3.6c-0.5-0.4-1.1-0.8-1.6-1.1c-0.8-0.5-1.3-1.4-2.3-1.5c-0.1-0.2,0-0.5-0.2-0.6c-0.5,0-1-0.2-1.3-0.6  c-1-1.1-2.2-2-3.4-2.6c-1.1-0.6-2-1.4-3-2.1c-0.7-0.4-1.4-0.8-2-1.3c-0.7-0.7-1.5-1.3-2.4-1.7c-0.4-0.2-0.8-0.5-1.2-0.8  c-1.7-1.5-3.6-2.6-5.4-4c-0.6-0.5-1.2-1-1.8-1.4c-0.6-0.4-1.3-0.8-1.9-1c0,0-0.1-0.1-0.1-0.1c-1.4-1.2-3-2.3-4.5-3.4  c-1-0.7-2-1.4-3-2.2c-0.6-0.6-1.3-1.1-2.1-1.4c-0.6-0.3-1.2-0.7-1.7-1.1c-0.8-0.6-1.6-1.2-2.4-1.8c-1.3-0.9-2.6-1.8-3.9-2.7  c-0.9-0.6-1.6-1.3-2.5-1.8s-1.5-1.5-2.6-1.7c-1.3-1.2-2.9-2-3.9-3.7c0-0.3,0-0.5-0.1-0.8c-0.2-0.4-0.3-0.8-0.3-1.3  c0.2-2,0.4-4.1,0.6-6.2c0-0.2,0-0.4,0.4-0.4c0,0.4,0,0.7,0.1,1.1c0.5,1.5,1.5,2.9,2.9,3.7c2.4,1.5,4.5,3.3,6.9,4.9  c0.9,0.5,1.7,1,2.5,1.7c1.4,1.1,2.9,2.2,4.5,3.2c1.6,1.1,3.2,2.2,4.7,3.4c2.1,1.6,4.3,3,6.4,4.6c1.7,1.3,3.5,2.5,5.3,3.7  c0.8,0.5,1.7,1.1,2.4,1.6c2.2,1.7,4.6,3.3,6.8,5c0.8,0.6,1.7,1.1,2.4,1.7c1.7,1.3,3.4,2.4,5.1,3.6c1.7,1.2,3.2,2.2,4.7,3.3  c1.6,1.1,3.1,2.3,4.8,3.3c1.4,0.9,3.1,1.5,4.8,1.7c1.1,0.1,2.2,0.2,3.3,0.3c2,0.2,3.9-0.1,5.7-0.8c1.1-0.4,2.2-1,3.2-1.4  c1.1-0.4,1.8-0.9,2.8-1.3c1.7-0.7,3.4-1.7,5.1-2.4s3.5-1.5,5.1-2.3c3.1-1.5,6.3-2.7,9.3-4.4c1-0.6,2.2-0.9,3.2-1.5  c1.5-0.8,3.1-1.4,4.6-2.1c1-0.5,2-0.8,3-1.3c2.2-1.1,4.5-2.1,6.7-3.1c1.8-0.8,3.5-1.6,5.2-2.4c3.2-1.5,6.4-3,9.6-4.4  c1.4-0.7,2.9-1.3,4.3-2c1.8-0.9,3.7-1.7,5.5-2.5c1.6-0.7,3.2-1.5,4.8-2.3s3.3-1.6,5-2.3c1-0.4,2-0.8,3-1.3c2.2-1.1,4.5-2.2,6.7-3.1  c1.8-0.8,3.5-1.6,5.2-2.4c3.1-1.5,6.3-2.8,9.4-4.4c1-0.5,2.1-0.9,3.1-1.4c1.5-0.8,3.1-1.4,4.6-2.1l4.7-2.2c1.8-0.9,3.8-1.8,5.7-2.6  c1.6-0.7,3.1-1.5,4.7-2.2s2.9-1.4,4.4-2.2c1.2-0.6,2.3-1.4,3.2-2.4c0.3-0.3-0.1-0.9,0.6-0.9C310.3,197.1,310,199.5,309.8,201.9z   M139.1,242.6l0.2-1.7c-3.4-2.8-7.2-5.2-11-7.9c-0.2,0.9-0.2,1.7-0.3,2.6l10.6,7.5L139.1,242.6z M273.9,217l0.8,0.6  c2-0.9,4.1-1.8,6.1-2.9c0.9-0.4,1.8-0.8,2.7-1.1c0.8-0.2,1.4-0.8,1.6-1.6c-0.2-0.2-0.3-0.5-0.5-0.5c-0.2,0-0.4-0.4-0.7-0.4l-9.7,4.4  C274,215.9,273.8,216.5,273.9,217L273.9,217z M271.9,217.4c-0.3-0.2-0.7-0.2-0.8-0.6c-3.4,1.8-6.9,3-10.2,4.9l-0.1,1.2l1,0.6  l9.9-4.5L271.9,217.4z M295.9,206.9l-0.4-0.5l-1.1-0.1l-4.3,2c-0.1,0.5-1,1,0,1.7l1.2,0.1c1.4-1,3.3-1.2,4.6-2.6L295.9,206.9z"></path>
<path class="st2" d="M203.1,238.2c0.5,0.1,1,0.1,1.5-0.2c2.4-1.2,4.8-2.3,7.2-3.4s4.7-2,7-3.2c1.8-1,3.9-1.6,5.8-2.8  c0.9-0.6,1.9-1,3-1.2c0.4,0,0.5-0.4,0.9-0.6c2.2-0.9,4.2-2,6.3-2.9c1.1-0.4,2.2-0.9,3.1-1.6l0.4-4.4c-0.6-0.1-1.1,0.4-1.7,0.5  c-0.3-0.1-0.5-0.5-0.9-0.4c-0.6,0-1.1-0.1-1.6-0.5c-1.1-0.9-2.4-1.5-3.6-2.4c-0.6-0.5-1.3-0.9-1.8-1.4c-0.6-0.5-1.7-0.7-2-1.6  c-0.1-0.1-0.1-0.1-0.2-0.2c-1.2-0.6-2.2-1.3-3.1-2.2c-0.3-0.3-0.7-0.5-1.1-0.7c-1.3-0.5-2.1-1.5-3.3-2.3c-1.1-0.4-2.4,0.7-3.7,0.4  c-2.2,0.8-4.5,0.4-6.7,0.6c-0.9,0-1.8-0.1-2.7-0.2l-2.8,29.2c0,0.4-0.1,0.8-0.1,1.3C202.8,238.1,202.9,238.2,203.1,238.2  C203.1,238.2,203.1,238.2,203.1,238.2z"></path>
<path class="st2" d="M274.9,186.2l-1.8,20c0.1,0,0.2,0.1,0.3,0c1.3-0.8,2.8-1.1,4-2c0.3-0.2,0.7-0.3,1.1-0.4  c1.8-0.7,3.5-1.5,5.2-2.4c0.9-0.4,1.8-0.8,2.8-1.3l5-2.3c0,0,0-0.1,0-0.2v-0.3c-0.8-0.1-1.6-0.4-2.1-1c-1.7-1.2-3.3-2.4-5-3.6  c-0.9-0.6-1.8-1.3-2.8-1.9c-1.2-0.8-2.4-1.7-3.6-2.6v-0.4c-0.9,0.1-1.3-0.6-1.8-1.1C275.6,186.7,275.2,186.5,274.9,186.2z"></path>
<path class="st6" d="M134.6,228.6c0.5-1.5,2-2,3.2-2.5c1.2-0.5,2.4-0.7,3.7-0.5c0.6,0.1,1.3,0.2,1.9,0.2c1.4,0.1,2.7,0.4,4,1  c1.3,0.6,2.3,1.5,3,2.7c0.6,1,0.5,2.3-0.2,3.1c-0.6,0.7-1.4,1.3-2.2,1.7c-1.8,0.9-3.7,0.9-5.5,0.9c-1.6,0.1-3.1-0.7-4.6-1.3  c-0.6-0.3-1.2-0.6-1.8-1c-0.6-0.5-1.2-1.1-1.7-1.8c0.1-0.8-0.4-1.5-0.1-2.3C134.4,228.9,134.6,228.8,134.6,228.6z M143.6,234.5  c1.4,0,2.9-0.3,4.2-0.9c0.7-0.4,1.3-1.1,1.5-1.8l0.2-1.6c-0.4-0.2-0.4-0.9-0.8-1.2c-0.6-0.4-0.8-1.2-1.6-1.4  c-1.3-0.2-2.5-1.1-3.9-1.1c-1.3,0-2.6,0-3.9,0c-0.6,0.1-1.2,0.4-1.7,0.8c-0.7,0.4-1.4,0.9-1.8,1.6c-0.3,0.4-0.3,0.9-0.2,1.4  c0.3,1.4,1.4,2.6,2.8,3.1c0.5,0.2,0.8,0.6,1.3,0.8L143.6,234.5z"></path>
<path class="st6" d="M277.9,187.8v0.4c1.2,0.9,2.4,1.8,3.6,2.6c0.9,0.6,1.8,1.3,2.8,1.9c1.7,1.2,3.4,2.4,5,3.6  c0.6,0.6,1.3,0.9,2.1,1c-0.5-0.8-1.1-1.4-1.9-1.8c-1.2-0.8-2.3-1.7-3.5-2.5c-1.4-0.9-2.7-2-4.1-2.9c-1.1-0.6-2.2-1.4-3.1-2.3  C278.5,187.7,278.2,187.9,277.9,187.8z"></path>
<path class="st6" d="M281.8,181.8l-1.1,0.6c-0.1,0.3,0.1,0.6,0.4,0.8c1.1,0.5,2.1,1,3.1-0.2l-0.3-1L281.8,181.8z"></path>
<path class="st6" d="M265.9,179.3c1,1.3,2.2,2.3,3.7,2.9c0.1,0.1,0.3,0,0.5,0.1c-0.1-0.4-0.3-0.5-0.7-0.7c-0.9-0.5-1.8-1.3-2.4-2.1  L265.9,179.3z"></path>
<path class="st6" d="M274.9,186.2c0.3,0.3,0.8,0.5,1.2,0.4c-0.3-0.7-0.8-1.3-1.5-1.6c-0.6-0.3-1.1-0.6-1.5-1.1  c-0.2-0.3-0.6-0.1-0.9-0.2l0,0.5C273.1,184.8,274,185.5,274.9,186.2z"></path>
<path class="st6" d="M269.8,168.8c0.3,0.8,0.9,0.7,1.4,0.7c0.1-0.2,0.5-0.2,0.5-0.6c0-0.3-0.3-0.4-0.4-0.6  C270.7,168.3,270.1,168,269.8,168.8z"></path>
<path class="st6" d="M270.1,182.3v0.5c0.7,0.3,1.2,1.1,2.1,1C271.9,182.9,271.1,182.3,270.1,182.3z"></path>
<path class="st6" d="M276.1,186.7c0.5,0.5,0.9,1.2,1.8,1.1C277.6,187.1,276.9,186.6,276.1,186.7z"></path>
<path class="st6" d="M291.4,197.4v0.3c0.2,0,0.3,0,0.3-0.2C291.6,197.3,291.5,197.4,291.4,197.4z"></path>
<path class="st4" d="M138.5,243l0.6-0.5l0.2-1.7c-3.4-2.8-7.2-5.2-11-7.9c-0.2,0.9-0.2,1.7-0.3,2.6L138.5,243z"></path>
<path class="st6" d="M274.3,215.5c-0.3,0.4-0.5,0.9-0.4,1.5l0.8,0.6c2-0.9,4.1-1.8,6.1-2.9c0.9-0.4,1.8-0.8,2.7-1.1  c0.8-0.2,1.4-0.8,1.6-1.6c-0.2-0.2-0.3-0.5-0.5-0.5c-0.2,0-0.4-0.4-0.7-0.4L274.3,215.5z"></path>
<path class="st6" d="M271.7,218.9c0.1-0.6,0.1-1,0.1-1.5c-0.3-0.2-0.7-0.2-0.8-0.6c-3.4,1.8-6.9,3-10.2,4.9l-0.1,1.2l1,0.6  L271.7,218.9z"></path>
<path class="st6" d="M295.9,207.5c0-0.1,0-0.4,0.1-0.6l-0.4-0.5l-1.1-0.1l-4.3,2c-0.1,0.5-1,1,0,1.7l1.2,0.1  C292.8,209.1,294.6,208.9,295.9,207.5z"></path>
<path class="st4" d="M139.7,234.1l4,0.4c1.4,0,2.9-0.3,4.2-0.9c0.7-0.4,1.3-1.1,1.5-1.8l0.2-1.6c-0.4-0.2-0.4-0.9-0.8-1.2  c-0.6-0.4-0.8-1.2-1.6-1.4c-1.3-0.2-2.5-1.1-3.9-1.1c-1.3,0-2.6,0-3.9,0c-0.6,0.1-1.2,0.4-1.7,0.8c-0.7,0.4-1.4,0.9-1.8,1.6  c-0.3,0.4-0.3,0.9-0.2,1.4c0.3,1.4,1.4,2.6,2.8,3.1C138.9,233.5,139.2,233.9,139.7,234.1z"></path>
<path class="st2" d="M235.1,214.4c-0.1-1.2-0.5-2.3-1.2-3.3c-0.7-1.4-1.2-2.9-1.9-4.3c-0.8-1.6-1.2-3.2-2.1-4.7  c-0.3-0.1-0.5,0-0.7,0.1c-1.4,1.3-3.2,1.8-4.8,2.8c-0.8-0.1-1.2,0.3-1.7,1c1,0.2,1.4,1.2,2.4,1.3c0.1,0,0.3,0.2,0.3,0.3  c0.3,0.7,1.1,0.6,1.6,1.1c0.5,0.4,0.9,0.7,1.4,1.1c0.5,0.4,1,0.8,1.5,1.2c0.5,0.4,1.2,0.5,1.6,1.1c0.3,0.4,1,0.5,1.5,0.9  s0.9,1.1,1.5,1.3c0.5,0.2,0.2,0.6,0.6,0.7C235.1,214.9,235,214.6,235.1,214.4z"></path>
<path class="st4" d="M146.2,191.4l13.6-8.3l78.2-35.7c0,0,8.4-4,20.8,6.6c12.4,10.7-8.1,14-8.1,14l-16.8-11l-78.8,35.6L146.2,191.4z  "></path>
<polyline class="st7" points="287.4,195.1 233.9,157 124.5,207.4 "></polyline>
<path class="st4" d="M265,163.8c-0.8-0.6-26.3-7.3-26.3-7.3l3.6,6.1l50.2,35.3l2.2-4.1l-27.3-18.1l-10.3-8.6L265,163.8z"></path>
<linearGradient id="SVGID_1_" gradientUnits="userSpaceOnUse" x1="199.7523" y1="53.6277" x2="199.7523" y2="302" gradientTransform="matrix(1 0 0 -1 0 302)">
	<stop offset="0" style="stop-color:#F3F2EF"></stop>
	<stop offset="0.11" style="stop-color:#F3F2EF;stop-opacity:0.78"></stop>
	<stop offset="0.23" style="stop-color:#F3F2EF;stop-opacity:0.58"></stop>
	<stop offset="0.36" style="stop-color:#F3F2EF;stop-opacity:0.4"></stop>
	<stop offset="0.48" style="stop-color:#F3F2EF;stop-opacity:0.26"></stop>
	<stop offset="0.61" style="stop-color:#F3F2EF;stop-opacity:0.14"></stop>
	<stop offset="0.74" style="stop-color:#F3F2EF;stop-opacity:6.000000e-02"></stop>
	<stop offset="0.87" style="stop-color:#F3F2EF;stop-opacity:2.000000e-02"></stop>
	<stop offset="1" style="stop-color:#F3F2EF;stop-opacity:0"></stop>
</linearGradient>
<polygon class="st8" points="125.5,208.2 -3.1,0 402.6,0 291.8,198.1 181.8,248.4 "></polygon>
<path class="st9" d="M78,98.9c-0.2-4.7,1.9-9.2,5.6-12.1c2.7-2.3,5.5-3.8,9.5-2.7c0.9-11.7,1.8-23.1,2.6-34.4c2-2.4,4.4-3.3,6.6-4.6  c6.6-4.2,13.3-8.3,20-12.4c0.8-0.5,1.6-1.4,2.7-0.5c-0.9,2.1-0.6,4.4-0.8,6.6c-0.7,9.1-1.3,18.3-1.9,27.4c-0.4,2.8-1.8,5.2-3.4,7.5  l-1.3,1.6l-4.7,3.3c-0.6-0.1-1.1,0.2-1.4,0.7v-0.1c-0.8-0.3-1.7-0.3-2.4,0.2l0,0l-0.7-0.4c-1.2-0.6-2.2-1.6-2.8-2.8  c0.2-8.8,6.2-14.8,15-14.9c0.4-1.6,0.5-3.3,0.4-5c0.5-1.2,0.6-2.6,0.2-3.9c0.8-2.5,0.7-5,0.7-7.6c-1.4,0.1-2.4,0.9-3.4,1.6  c-5.2,3.2-10.3,6.3-15.4,9.5c-2.1,1.3-4.6,2.3-6.1,4.5c-1.1,9.3-1.6,18.7-2.2,28.1c-0.3,2.8-1.7,5.2-3.2,7.6l-3.9,3.8l-4.5,1.8  l-2.1,0C79.5,101.3,78.8,100.1,78,98.9z"></path>
<path class="st10" d="M122.2,66.4c0.6-9.1,1.3-18.3,1.9-27.4c0.2-2.2-0.1-4.5,0.8-6.6l5.5,3.7c-0.4,5.2-0.7,10.4-1.2,15.6  c-0.5,5.8-0.6,11.6-1.5,17.4C125.4,69.5,124.2,67.2,122.2,66.4z"></path>
<path class="st11" d="M94.7,88.5c0.6-9.4,1.1-18.7,2.2-28.1c2.3,0.5,3.9,2,5.8,3.2c-0.4,1.3-0.5,2.7-0.4,4c-0.5,3.1-0.7,6.2-0.6,9.4  c-0.5,3.8-0.8,7.6-0.9,11.5l-0.5,2.9C98.3,90.6,97.1,88.3,94.7,88.5z"></path>
<path class="st12" d="M98.7,98.5c-1,0.6-1.3,2.1-2.5,2.4c-0.7-1.1,1-1.9,0.4-2.8c-1.2-1.5-3.1-2.3-5-2c1.4-2.4,2.9-4.7,3.2-7.6  c2.4-0.2,3.7,2.1,5.6,2.9c0.1,0.1,0.2,0.3,0.3,0.4C100.3,94.2,99.6,96.4,98.7,98.5z"></path>
<path class="st13" d="M126.1,76.4l-0.8,0.3c-1.8-1.6-4-2.6-6.4-2.8c1.5-2.3,3-4.7,3.4-7.5c1.9,0.8,3.1,3.1,5.6,2.8  C128.3,71.8,127,74.1,126.1,76.4z"></path>
<path class="st14" d="M102.7,63.6c-1.8-1.2-3.6-2.7-5.8-3.2c1.5-2.2,4-3.1,6.1-4.5c5.1-3.2,10.3-6.4,15.4-9.5c1-0.6,2-1.5,3.4-1.6  c0,2.6,0.1,5.1-0.7,7.6L102.7,63.6z"></path>
<path class="st15" d="M112.8,82.6l-0.9-1.1l-0.4-2.1v0.1c0.7,0.3,1-0.2,1.4-0.7l4.7-3.3c1.8,1.3,3.8,2.3,5,4.3  c-2.4,2.4-5.2,3.9-8.7,3.4l0.2-0.2l-0.1-0.6l-0.5,0.2L112.8,82.6z"></path>
<path class="st16" d="M91.5,96.1c1.9-0.2,3.8,0.5,5,2c0.6,0.9-1.1,1.8-0.4,2.8c-0.9,1.5-2.2,2.6-3.8,3.2c-0.1-1.3-1.2-1.9-1.8-3  c-1.1-0.1-2.1-0.5-2.9-1.2L91.5,96.1z"></path>
<path class="st17" d="M87.6,99.9c0.8,0.7,1.9,1.1,2.9,1.2c0.5,1.1,1.7,1.7,1.8,3c-0.8,0.8-1.9,1.2-3,1.2c-0.3-0.3-0.8-0.3-1.2,0.1  l0,0l-5.1-3.7L87.6,99.9z"></path>
<path class="st18" d="M122.6,79.8c-1.2-2-3.2-3-5-4.3l1.3-1.6c2.4,0.2,4.6,1.2,6.4,2.8C124.9,78.1,123.6,78.8,122.6,79.8z"></path>
<path class="st19" d="M83.1,101.8l5.1,3.7c-3.3,0.5-4.9-2.3-7.3-3.6L83.1,101.8z"></path>
<path class="st20" d="M111.5,79.4l0.4,2.2c-1-0.5-2-1.2-2.8-2C109.8,79.1,110.7,79.1,111.5,79.4z"></path>
<path class="st20" d="M112.9,78.8c-0.3,0.5-0.7,0.9-1.4,0.7C111.8,79,112.3,78.7,112.9,78.8z"></path>
<path class="st21" d="M109.1,79.5c-0.6,0.5-0.7,0-0.7-0.4L109.1,79.5z"></path>
<path class="st19" d="M88.2,105.4c0.3-0.3,0.8-0.4,1.2-0.1C89,105.6,88.5,105.6,88.2,105.4z"></path>
<path class="st20" d="M114.1,82.9l-0.6-0.3l0.5-0.2L114.1,82.9z"></path>
<path class="st22" d="M209.5,42.2c0.5-0.2,1-0.4,1.6-0.6l92.9-28c0.5-0.2,1.1-0.3,1.6-0.4c-1.2,2.3-2.4,4.5-3.6,6.8  c-0.4,0.8-0.7,1.6-1.1,2.4c-0.3,0.1-0.7,0.3-1,0.4l-80.4,24.2c-0.4,0.1-0.8,0.2-1.2,0.3c-0.3-0.3-0.6-0.6-0.9-0.8  C214.7,45.1,212.1,43.7,209.5,42.2z"></path>
<path class="st22" d="M230,120.1c-0.2-0.5-0.4-1-0.6-1.6L208,47.3c-0.1-0.5-0.2-1-0.4-1.5c2.6,1.4,5.2,2.8,7.9,4.1  c0.4,0.2,0.8,0.3,1.2,0.3c0.2,0.5,0.4,0.9,0.5,1.5c5,16.7,10.1,33.4,15.1,50.2c0.1,0.5,0.3,0.9,0.5,1.4l2.3,7.7l-0.1,0.3  c-0.2,0.4-0.5,0.7-0.7,1.1C232.8,114.9,231.4,117.5,230,120.1z"></path>
<path class="st22" d="M324.7,66.8c-1-0.3-1.9-0.6-2.9-0.8c-1.5-0.3-2.9-1-4-2.2c-0.7-0.7-1.5-1.3-2.3-1.9l-0.1-0.1l-11-36.5  c-0.1-0.4-0.2-0.7-0.3-1.1c0.2-0.4,0.5-0.7,0.7-1.1c1.4-2.6,2.9-5.3,4.3-7.9c0.2,0.4,0.3,0.8,0.5,1.2l14.9,49.3  C324.5,66.1,324.6,66.5,324.7,66.8z"></path>
<path class="st23" d="M309.1,15.2c-1.4,2.6-2.9,5.3-4.3,7.9c-0.2,0.4-0.5,0.7-0.7,1.1l-0.8-2.3l-2.4,0.6c0.4-0.8,0.7-1.6,1.1-2.4  c1.2-2.3,2.4-4.5,3.6-6.8C307,13.1,308.5,13.9,309.1,15.2z"></path>
<path class="st24" d="M216.7,50.3c-0.4-0.1-0.8-0.2-1.2-0.3c-2.6-1.4-5.2-2.8-7.9-4.1c-0.2-1.5,0.6-2.9,1.9-3.6  c2.6,1.4,5.2,2.8,7.8,4.3c0.3,0.2,0.6,0.5,0.9,0.8l-2.1,0.8L216.7,50.3z"></path>
<path class="st25" d="M238.2,112.8c-1.4,2.6-2.8,5.3-4.2,7.9c-0.2,0.4-0.4,0.8-0.5,1.2c-1.4,0.2-2.9-0.5-3.5-1.8  c1.4-2.6,2.8-5.2,4.2-7.8c0.2-0.4,0.5-0.7,0.7-1.1h0.2l0.8,2.3L238.2,112.8z"></path>
<path class="st22" d="M331.4,89.5c-0.1-0.5-0.2-1.1-0.4-1.6c-7.1-23.7-14.3-47.5-21.5-71.2c-0.1-0.5-0.4-1-0.5-1.5  c-1.4,2.6-2.8,5.2-4.3,7.8c-0.2,0.3-0.5,0.6-0.8,0.9c0.1,0.5,0.2,1,0.4,1.5c5,16.8,10.1,33.5,15.1,50.3c0.1,0.5,0.2,0.9,0.4,1.4  l2.4,7.6l0.2,0.2c0.4,0.2,0.8,0.4,1.2,0.6L331.4,89.5z"></path>
<path class="st22" d="M329.5,93c-0.4-0.2-0.7-0.5-1.1-0.7l-7.9-4.3l-0.7,0.2l-40.4,12.2l-40.4,12.2c-0.2,0.1-0.5,0.2-0.7,0.2  c-1.4,2.6-2.8,5.3-4.2,7.9c-0.2,0.4-0.4,0.8-0.5,1.2c0.5-0.1,1-0.2,1.5-0.3l36.5-11h0.1l10-3l10-3h0.1l36.5-11  C328.5,93.4,329,93.2,329.5,93z"></path>
<path class="st25" d="M320.5,88l7.9,4.3c0.4,0.2,0.7,0.5,1.1,0.7c1.3-0.6,2.1-2,2-3.5l-7.8-4.1c-0.4-0.2-0.8-0.4-1.2-0.6l-0.2,0.1  l0.6,2.4L320.5,88z"></path>
<path class="st26" d="M216.7,50.3l-0.5-2.2l2.1-0.8c0.4-0.1,0.8-0.2,1.2-0.3l80.4-24.2c0.4-0.1,0.7-0.2,1-0.4l2.4-0.6l0.8,2.3  c0.1,0.4,0.2,0.7,0.3,1.1l11,36.5l-0.2,0.1c-1.4-0.6-3.1-0.6-4.5,0c-1.7,0.7-3.6,0.8-5.3,0.1c-1.5-0.5-3.1-0.4-4.6,0.1L288.8,57  c-2.2-0.9-3.6-0.6-4.8,1.4c-2.8,4.2-5.5,8.4-8.2,12.6c-0.3,0-0.7,0-1-0.1c-4.4-1.8-8.9-3.8-13.3-5.7c-2.1-0.9-3.5-0.5-4.8,1.4  l-3.2,4.9c-4.9,7.5-9.8,15.1-14.8,22.6c-2,3-4,6-6,9.1c-0.2-0.5-0.3-0.9-0.5-1.4c-5-16.7-10-33.4-15.1-50.1  C217.1,51.2,216.9,50.8,216.7,50.3z M228.5,63c1.6,5.5,7.4,8.7,12.9,7.1c5.5-1.6,8.7-7.4,7.1-12.9c-1.6-5.5-7.4-8.7-12.9-7.1  c0,0,0,0,0,0C230.1,51.7,226.9,57.5,228.5,63L228.5,63z"></path>
<path class="st23" d="M315.1,61.8l0.2-0.1l0.1,0.1L315.1,61.8z"></path>
<path class="st23" d="M235,110.9c0,0.1,0,0.1,0.1,0.2h-0.2L235,110.9z"></path>
<path class="st27" d="M228.5,63c-1.6-5.5,1.7-11.3,7.2-12.9c5.4-1.5,11.1,1.5,12.8,7c1.7,5.5-1.4,11.3-6.9,13  c-5.5,1.7-11.3-1.4-13-6.9C228.6,63.2,228.6,63.1,228.5,63z"></path>
<path class="st28" d="M317.6,88.9l-30.6-12.6c-2-0.9-3.9-1.8-5.9-2.6c-1.4-0.6-2.9-1.2-4.3-1.8c-0.3-0.2-0.6-0.4-0.9-0.7  c-0.3,0-0.7,0-1-0.1c-4.4-1.8-8.9-3.8-13.3-5.7c-2.1-0.9-3.5-0.5-4.8,1.4l-3.2,4.9c-4.9,7.5-9.8,15.1-14.8,22.6c-2,3-4,6-6,9.1  c0.8,2.6,1.5,5.1,2.3,7.7c0,0.1,0,0.1,0.1,0.2l0.8,2.3l2.3-0.7c0.2-0.1,0.5-0.2,0.7-0.2l49.8-15l0,0L317.6,88.9z"></path>
<path class="st29" d="M317.4,69.1l-19.7-8.2l0,0l-8.8-3.8c-2.2-0.9-3.6-0.6-4.8,1.4c-2.8,4.2-5.5,8.4-8.2,12.6  c0.3,0.3,0.6,0.5,0.9,0.7c1.4,0.6,2.9,1.2,4.3,1.8c2,0.9,3.9,1.8,5.9,2.6l0,0l30.5,12.5l5.2-1.6L317.4,69.1z"></path>
<polygon class="st26" points="303.3,51.4 301.9,53 299.6,61.6 317.4,69.1 314.8,60.2 "></polygon>
<path class="st30" d="M152.5,153.8c-2.3-0.8-4.6-1.7-6.7-2.9c-12.7-7-19.5-21.2-17.1-35.5c1.9-11,8-19.2,17.9-24.4  c7.6-4.1,16.6-5,24.8-2.5c17.2,5,27.7,22.5,23.9,40c-2.2,9.8-7.8,17.2-16.5,22.2c-3.5,2.1-7.5,3.4-11.5,3.9c-0.2,0-0.4,0.1-0.6,0.3  c-0.5,0-1.1,0-1.6,0C160.8,155.3,156.5,154.9,152.5,153.8z M148,131.9c-1.4,1.2-2.3,2.8-2.6,4.5c-1,4.7,1.7,9.3,6.2,10.8  c5.6,2.1,12.4-2.5,12.2-8.5c0.4-3.6-1.9-7.4-5.5-8.9C154.7,128.2,150.4,129.1,148,131.9L148,131.9z M160.2,103.7  c-0.4,3.6,1.9,7.4,5.5,8.9c3.6,1.6,8,0.7,10.3-2.1c1.4-1.2,2.3-2.8,2.6-4.5c1-4.7-1.7-9.3-6.2-10.8  C166.9,93.1,160.1,97.8,160.2,103.7L160.2,103.7z M179.5,119.4c-3.6-0.4-7.4,1.9-8.9,5.5s-0.6,8,2.2,10.3c1.2,1.4,2.8,2.3,4.5,2.6  c4.7,1,9.3-1.7,10.8-6.2C190.2,126,185.6,119.2,179.5,119.4L179.5,119.4z M144.5,123c1.1,0.2,2.2,0.1,3.2-0.4c3.3-1,5.7-3.8,6.3-7.1  c0.7-3-0.3-6.2-2.6-8.3c-1.2-1.4-2.8-2.3-4.5-2.6c-4.7-1-9.3,1.7-10.8,6.2C134,116.4,138.6,123.2,144.5,123L144.5,123z M163,119.1  c-1.2-0.5-2.6,0.1-3.1,1.3c-0.5,1.2,0.1,2.6,1.3,3.1c1.2,0.5,2.6-0.1,3.1-1.3c0,0,0,0,0,0C164.7,121,164.2,119.6,163,119.1z"></path>
<path class="st31" d="M152.5,153.8c4.1,1.1,8.3,1.5,12.5,1.2c0.5,0,1.1,0,1.6,0l13.3,5.8c1.5,0.7,1.6,1,0.9,2.7  c-0.9,2.1-1.2,2.3-2.7,1.7l-25-10.8C152.9,154.2,152.5,154.2,152.5,153.8z"></path>
<path class="st32" d="M144.6,123c-6,0.2-10.6-6.6-8.5-12.2c1.5-4.5,6.2-7.2,10.9-6.2c1.8,0.3,3.4,1.2,4.5,2.6  c-0.7,0.6-1.4,1.2-2,1.8C145.9,112.8,144.1,117.9,144.6,123z"></path>
<path class="st32" d="M179.6,119.4c6-0.2,10.6,6.6,8.5,12.2c-1.5,4.5-6.2,7.2-10.8,6.2c-1.8-0.3-3.4-1.2-4.5-2.6  c0.7-0.6,1.4-1.2,2-1.8C178.3,129.7,180.1,124.6,179.6,119.4z"></path>
<path class="st32" d="M160.3,103.7c-0.2-6,6.6-10.6,12.2-8.5c4.5,1.5,7.2,6.2,6.2,10.8c-0.3,1.8-1.2,3.4-2.6,4.5  c-0.6-0.7-1.2-1.4-1.8-2C170.5,105,165.4,103.2,160.3,103.7z"></path>
<path class="st32" d="M163.9,138.7c0.2,6-6.6,10.6-12.2,8.5c-4.5-1.5-7.2-6.2-6.2-10.8c0.3-1.8,1.2-3.4,2.6-4.5  C151.8,136.7,157.8,139.3,163.9,138.7z"></path>
<path class="st33" d="M160.3,103.7c5.1-0.5,10.2,1.3,13.9,4.9c0.7,0.6,1.2,1.3,1.8,2c-2.3,2.8-6.7,3.6-10.3,2.1  C162.2,111.1,159.8,107.3,160.3,103.7z"></path>
<path class="st33" d="M163.9,138.7c-6.1,0.6-12.1-2-15.8-6.8c2.3-2.8,6.7-3.6,10.3-2.1C162,131.3,164.3,135.2,163.9,138.7z"></path>
<path class="st33" d="M144.6,123c-0.5-5.1,1.3-10.2,4.9-13.9c0.6-0.7,1.3-1.2,2-1.8c2.3,2.1,3.4,5.3,2.6,8.3c-0.6,3.4-3,6.2-6.3,7.1  C146.8,123.1,145.7,123.2,144.6,123z"></path>
<path class="st33" d="M179.6,119.4c0.5,5.1-1.3,10.2-4.9,14c-0.6,0.6-1.3,1.2-2,1.8c-2.8-2.3-3.6-6.7-2.1-10.3  C172.2,121.4,176,119,179.6,119.4z"></path>
<path class="st34" d="M163,119.1c1.2,0.5,1.8,1.9,1.3,3.1c-0.5,1.2-1.9,1.8-3.1,1.3c-1.2-0.5-1.8-1.9-1.3-3.1c0,0,0,0,0,0  C160.4,119.2,161.8,118.6,163,119.1z"></path>
<path class="st35" d="M293.3,251.3v21.8h-6.6v-34h5.3l17.5,22.4v-22.3h6.6v33.9h-5.5L293.3,251.3z"></path>
<path class="st35" d="M323.2,273.2v-34h22.8v5.8h-16.2v8.8h13.5v5.4h-13.5v14.1L323.2,273.2z"></path>
<path class="st35" d="M376.1,245h-10.9v28.2h-6.6V245h-10.9v-5.8h28.3V245z"></path>
</svg>
