<?xml version="1.0" encoding="UTF-8"?>
<svg xmlns="http://www.w3.org/2000/svg" xmlns:xlink="http://www.w3.org/1999/xlink" version="1.1" id="Layer_1" x="0px" y="0px" viewBox="0 0 400 300" style="enable-background:new 0 0 400 300;" xml:space="preserve">
<style type="text/css">
	.st0{fill:none;}
	.st1{fill:#FFC800;}
	.st2{fill:none;stroke:#F3F2EF;stroke-width:2;stroke-miterlimit:10;}
	.st3{fill:#F3F2EF;}
</style>
<rect class="st0" width="400" height="300"></rect>
<path class="st1" d="M144.5,260.5c1.4,4.4,2.8,8.6,4.1,12.9l-0.4,0.4l-11.1-7.9l-11,7.9l-0.5-0.3l4.1-12.9l-11.1-8.3l0.2-0.5h13.8  c1.4-4.3,2.8-8.4,4.4-13.2c2.3,4.5,2.9,8.9,4.8,13.1h13.6l0.3,0.6L144.5,260.5z"></path>
<path class="st1" d="M80.8,230.2l4.4-13.8l-10.9-8l0.1-0.5h13.5c1.5-4.5,2.9-8.8,4.6-13.8c1.7,4.9,3.1,9.2,4.6,13.6h13.7l0.2,0.6  l-11.1,8.2c1.4,4.4,2.8,8.7,4.4,13.8l-11.8-8.4L80.8,230.2z"></path>
<path class="st1" d="M96.2,146.3l-11,8.1l4.1,13l-0.4,0.4l-11.1-8L66,168.2l4.4-13.8l-10.9-8l0.2-0.6h13.5l4.6-13.8l4.6,13.6H96  L96.2,146.3z"></path>
<path class="st1" d="M195.4,22.4c1.5-4.6,2.9-8.9,4.3-13.1h0.6l4.3,12.9h13.7l0.2,0.5l-11.1,8.2c1.4,4.4,2.8,8.7,4.4,13.8L200,36.2  l-11.8,8.4l4.4-13.8l-11.5-8.5L195.4,22.4z"></path>
<path class="st1" d="M271.6,60.5L260,52.2c-4.1,2.1-7.4,5.5-11.8,8l4.3-13.5L241,38.3h13.9c2.2-4.4,3-9,4.9-13.9l4.6,13.7h13.5  l0.2,0.6l-10.9,8.1C268.6,51.2,270,55.5,271.6,60.5z"></path>
<path class="st1" d="M243.2,251.5h13.6l4.5-13.7c1.6,4.9,3,9.2,4.6,13.8h13.6l0.2,0.6l-11,8.1c1.4,4.4,2.8,8.7,4.4,13.8  c-4.3-3.1-7.9-5.7-11.8-8.5l-11.8,8.5c1.6-5,3-9.3,4.4-13.8l-10.9-8.1L243.2,251.5z"></path>
<path class="st1" d="M148.8,60.5L137,52.1l-11.8,8.4c1.6-5,3-9.3,4.4-13.8l-11.5-8.5h14.3l4.5-13.5c2.2,4.5,2.9,9,4.8,13.3h13.6  l0.2,0.5l-11,8.1L148.8,60.5z"></path>
<path class="st1" d="M80.3,107.1c1.6-5.1,3-9.3,4.4-13.8l-11.6-8.6h14.4c1.5-4.4,2.9-8.7,4.3-13h0.5c1.4,4.2,2.8,8.4,4.3,12.9h13.6  l0.2,0.6l-11,8.1l4.4,13.8l-11.7-8.4L80.3,107.1z"></path>
<path class="st1" d="M318,105l-11.8-8.5l-11.8,8.5c1.6-5,3-9.3,4.4-13.8l-10.8-8l0.1-0.5h13.5l4.6-13.9c1.6,4.9,3.1,9.2,4.6,13.7  h13.6l0.2,0.6c-3.6,2.6-7.1,5.3-11,8.1C315,95.5,316.4,99.9,318,105z"></path>
<path class="st1" d="M310.6,166.7l4.2-13l-11.4-8.5h14.1l4.7-14c1.7,4.9,3.1,9.3,4.6,13.8h13.4l0.3,0.6l-10.8,8  c1.1,4.6,3.2,8.7,3.9,13.3l0.1-0.1c-4.1-1.9-7.3-5.4-11.5-7.7l-9.5,6.8C312,166.3,311.5,167,310.6,166.7L310.6,166.7z"></path>
<path class="st1" d="M310.5,207.6h13.4l0.2,0.5l-10.8,8c1.4,4.5,2.8,8.8,4.4,13.8l-11.8-8.5l-11.5,8.2c0.9-4.9,3-9.1,4-13.6  l-11.4-8.4h14.1c1.5-4.6,3-9,4.7-14C307.5,198.6,309,202.9,310.5,207.6z"></path>
<path class="st1" d="M192.6,276.8l-10.8-8l0.1-0.5h13.5c1.5-4.5,2.9-8.8,4.6-13.9c1.7,5,3.1,9.3,4.6,13.8h13.5l0.2,0.6l-10.9,8.1  l4.4,13.9l-11.8-8.5c-3.8,2.7-7.4,5.4-11.8,8.5C189.9,285.7,191.2,281.3,192.6,276.8z"></path>
<path class="st1" d="M310.6,166.6l0.2,0.2L310.6,166.6L310.6,166.6z"></path>
<path class="st1" d="M333.6,166.8l0.2,0.1L333.6,166.8L333.6,166.8z"></path>
<path class="st2" d="M701.3,46.3c-1.7-17-7.7-32.6-15.7-47.5c-0.9-1.5-1.8-2.9-2.8-4.3c-1.1-2-2.4-3.8-3.9-5.5  c-4-5.2-8.6-10-13.8-14.1l-1.8-0.8l-0.5-0.1l-0.7-0.4c-0.5,0-0.9,0-1.4,0c-2.9-0.3-5.7-0.3-8.6-0.1c-0.6,0-1.1,0-1.7,0h-1.2h-1.3  c-0.6,0-1.1,0-1.7,0c-2.9-0.2-5.7-0.2-8.6,0.1c-0.5,0-0.9,0-1.4,0l-0.7,0.4l-0.5,0.1l-1.8,0.7c-5.1,4.2-9.8,8.9-13.8,14.2  c-1.5,1.7-2.9,3.5-3.9,5.5c-1,1.4-1.9,2.9-2.8,4.3c-8,14.9-14,30.5-15.7,47.5c-1.6,15.6,3.7,23.8,18.2,27.8l14.9,0.3l0,0h38.1l0,0  l14.9-0.3C697.6,70,702.9,61.9,701.3,46.3z"></path>
<path class="st3" d="M663.1-26c-5.1-1.5-10.3-0.4-15.4-0.6c-3.9-0.2-7.8,0.1-11.7,0.1c-1.2-0.2-2.5-1.1-1.9-2c1.1-1.6-2-4.9,2.1-5  h14.6h7.2c1.6,0,5.5-0.8,6.2,1.1C664.4-31.9,664-25.8,663.1-26z"></path>
<path class="st2" d="M670.5-53.4c-5.5,0.9-11.1,0.4-16.3-1.5c-2.2-0.8-5.2-1.2-7.1-0.3c-8.4,3.9-16.6,2.7-24.9,0l-0.4,0.3  c4.2,6.6,13.3,20.9,13.5,21.4h27.1l14.4-21.8L670.5-53.4z"></path>
<path class="st3" d="M636.7,23.4c-1.8,0-3.7-0.4-5.3-1.3c-1.5-0.8-2.8-2-3.8-3.4c-0.9-1.4-1.4-3.1-1.4-4.8s0.5-3.4,1.4-4.8  c0.9-1.4,2.2-2.6,3.8-3.4c1.6-0.9,3.5-1.3,5.3-1.2c1.8,0,3.7,0.4,5.3,1.2c1.5,0.8,2.8,2,3.8,3.4c0.9,1.4,1.4,3.1,1.4,4.8  s-0.5,3.4-1.4,4.8c-0.9,1.5-2.2,2.6-3.8,3.4C640.3,23,638.5,23.4,636.7,23.4z M630.4,44.5L647.7,25l15.7-20.4l4.3,3.9l-16.7,19  l-16.3,21L630.4,44.5z M636.7,18.6c0.7,0,1.3-0.2,1.9-0.6c0.6-0.5,1-1,1.3-1.7s0.5-1.5,0.5-2.3s-0.2-1.6-0.5-2.4  c-0.3-0.7-0.8-1.2-1.4-1.7c-1.1-0.8-2.6-0.8-3.7,0c-0.6,0.4-1,1-1.4,1.7c-0.3,0.7-0.5,1.5-0.5,2.3s0.2,1.6,0.5,2.4  c0.3,0.7,0.8,1.3,1.4,1.7C635.4,18.4,636,18.6,636.7,18.6L636.7,18.6z M661.5,48.5c-1.8,0-3.7-0.4-5.3-1.2c-1.5-0.8-2.8-2-3.8-3.4  c-1.9-2.9-1.9-6.7,0-9.6c0.9-1.4,2.2-2.6,3.8-3.4c1.6-0.8,3.5-1.3,5.3-1.2c1.8,0,3.7,0.4,5.3,1.2c1.5,0.8,2.8,2,3.8,3.4  c0.9,1.4,1.4,3.1,1.4,4.8s-0.5,3.4-1.4,4.8c-0.9,1.5-2.2,2.6-3.8,3.4C665.2,48.1,663.3,48.5,661.5,48.5L661.5,48.5z M661.5,43.8  c0.7,0,1.4-0.2,1.9-0.6c0.6-0.4,1-1,1.3-1.7c0.3-0.7,0.5-1.5,0.5-2.3s-0.2-1.6-0.5-2.4c-0.3-0.7-0.8-1.2-1.4-1.7  c-0.5-0.4-1.1-0.6-1.8-0.6c-0.7,0-1.3,0.2-1.9,0.6c-0.6,0.4-1,1-1.4,1.7c-0.3,0.7-0.5,1.5-0.5,2.3s0.2,1.6,0.5,2.4  c0.3,0.7,0.8,1.3,1.4,1.7C660.2,43.5,660.8,43.8,661.5,43.8L661.5,43.8z"></path>
<g>
	<path class="st3" d="M194.9,65.3c-0.9,0-1.8-0.2-2.6-0.6c-0.7-0.4-1.4-1-1.9-1.7c-0.4-0.7-0.7-1.5-0.7-2.4s0.2-1.7,0.7-2.4   c0.4-0.7,1.1-1.3,1.9-1.7c0.8-0.4,1.7-0.6,2.6-0.6c0.9,0,1.8,0.2,2.6,0.6c0.7,0.4,1.4,1,1.9,1.7c0.4,0.7,0.7,1.5,0.7,2.4   s-0.2,1.7-0.7,2.4c-0.4,0.7-1.1,1.3-1.9,1.7C196.6,65.1,195.8,65.3,194.9,65.3z M191.8,75.7l8.5-9.6l7.7-10l2.1,1.9l-8.2,9.3   l-8,10.3L191.8,75.7z M194.9,63c0.3,0,0.6-0.1,0.9-0.3c0.3-0.2,0.5-0.5,0.6-0.8c0.1-0.3,0.2-0.7,0.2-1.1s-0.1-0.8-0.2-1.2   c-0.1-0.3-0.4-0.6-0.7-0.8c-0.5-0.4-1.3-0.4-1.8,0c-0.3,0.2-0.5,0.5-0.7,0.8c-0.1,0.3-0.2,0.7-0.2,1.1s0.1,0.8,0.2,1.2   c0.1,0.3,0.4,0.6,0.7,0.8C194.2,62.9,194.5,63,194.9,63L194.9,63z M207.1,77.7c-0.9,0-1.8-0.2-2.6-0.6c-0.7-0.4-1.4-1-1.9-1.7   c-0.9-1.4-0.9-3.3,0-4.7c0.4-0.7,1.1-1.3,1.9-1.7c0.8-0.4,1.7-0.6,2.6-0.6c0.9,0,1.8,0.2,2.6,0.6c0.7,0.4,1.4,1,1.9,1.7   c0.4,0.7,0.7,1.5,0.7,2.4s-0.2,1.7-0.7,2.4c-0.4,0.7-1.1,1.3-1.9,1.7C208.9,77.5,207.9,77.7,207.1,77.7L207.1,77.7z M207.1,75.3   c0.3,0,0.7-0.1,0.9-0.3c0.3-0.2,0.5-0.5,0.6-0.8c0.1-0.3,0.2-0.7,0.2-1.1s-0.1-0.8-0.2-1.2c-0.1-0.3-0.4-0.6-0.7-0.8   c-0.2-0.2-0.5-0.3-0.9-0.3c-0.3,0-0.6,0.1-0.9,0.3c-0.3,0.2-0.5,0.5-0.7,0.8c-0.1,0.3-0.2,0.7-0.2,1.1s0.1,0.8,0.2,1.2   c0.1,0.3,0.4,0.6,0.7,0.8C206.4,75.2,206.7,75.3,207.1,75.3L207.1,75.3z"></path>
	<path class="st3" d="M194.9,233.4c-0.9,0-1.8-0.2-2.6-0.6c-0.7-0.4-1.4-1-1.9-1.7c-0.4-0.7-0.7-1.5-0.7-2.4s0.2-1.7,0.7-2.4   s1.1-1.3,1.9-1.7c0.8-0.4,1.7-0.6,2.6-0.6c0.9,0,1.8,0.2,2.6,0.6c0.7,0.4,1.4,1,1.9,1.7c0.4,0.7,0.7,1.5,0.7,2.4s-0.2,1.7-0.7,2.4   c-0.4,0.7-1.1,1.3-1.9,1.7C196.6,233.2,195.8,233.4,194.9,233.4z M191.8,243.8l8.5-9.6l7.7-10l2.1,1.9l-8.2,9.3l-8,10.3   L191.8,243.8z M194.9,231.1c0.3,0,0.6-0.1,0.9-0.3c0.3-0.2,0.5-0.5,0.6-0.8c0.1-0.3,0.2-0.7,0.2-1.1s-0.1-0.8-0.2-1.2   c-0.1-0.3-0.4-0.6-0.7-0.8c-0.5-0.4-1.3-0.4-1.8,0c-0.3,0.2-0.5,0.5-0.7,0.8c-0.1,0.3-0.2,0.7-0.2,1.1s0.1,0.8,0.2,1.2   c0.1,0.3,0.4,0.6,0.7,0.8C194.2,231,194.5,231.1,194.9,231.1L194.9,231.1z M207.1,245.7c-0.9,0-1.8-0.2-2.6-0.6   c-0.7-0.4-1.4-1-1.9-1.7c-0.9-1.4-0.9-3.3,0-4.7c0.4-0.7,1.1-1.3,1.9-1.7s1.7-0.6,2.6-0.6c0.9,0,1.8,0.2,2.6,0.6   c0.7,0.4,1.4,1,1.9,1.7c0.4,0.7,0.7,1.5,0.7,2.4s-0.2,1.7-0.7,2.4c-0.4,0.7-1.1,1.3-1.9,1.7S207.9,245.7,207.1,245.7L207.1,245.7z    M207.1,243.4c0.3,0,0.7-0.1,0.9-0.3c0.3-0.2,0.5-0.5,0.6-0.8c0.1-0.3,0.2-0.7,0.2-1.1c0-0.4-0.1-0.8-0.2-1.2   c-0.1-0.3-0.4-0.6-0.7-0.8c-0.2-0.2-0.5-0.3-0.9-0.3c-0.3,0-0.6,0.1-0.9,0.3c-0.3,0.2-0.5,0.5-0.7,0.8c-0.1,0.3-0.2,0.7-0.2,1.1   s0.1,0.8,0.2,1.2c0.1,0.3,0.4,0.6,0.7,0.8C206.4,243.3,206.7,243.4,207.1,243.4L207.1,243.4z"></path>
</g>
<path class="st3" d="M238.6,81c-0.9,0-1.8-0.2-2.6-0.6c-0.7-0.4-1.4-1-1.9-1.7c-0.4-0.7-0.7-1.5-0.7-2.4s0.2-1.7,0.7-2.4  c0.4-0.7,1.1-1.3,1.9-1.7c0.8-0.4,1.7-0.6,2.6-0.6c0.9,0,1.8,0.2,2.6,0.6c0.7,0.4,1.4,1,1.9,1.7c0.4,0.7,0.7,1.5,0.7,2.4  s-0.2,1.7-0.7,2.4c-0.4,0.7-1.1,1.3-1.9,1.7C240.3,80.8,239.4,81,238.6,81z M235.5,91.4l8.5-9.6l7.7-10l2.1,1.9l-8.2,9.3l-8,10.3  L235.5,91.4z M238.6,78.7c0.3,0,0.6-0.1,0.9-0.3c0.3-0.2,0.5-0.5,0.6-0.8s0.2-0.7,0.2-1.1s-0.1-0.8-0.2-1.2  c-0.1-0.3-0.4-0.6-0.7-0.8c-0.5-0.4-1.3-0.4-1.8,0c-0.3,0.2-0.5,0.5-0.7,0.8c-0.1,0.3-0.2,0.7-0.2,1.1s0.1,0.8,0.2,1.2  c0.1,0.3,0.4,0.6,0.7,0.8S238.2,78.7,238.6,78.7L238.6,78.7z M250.7,93.4c-0.9,0-1.8-0.2-2.6-0.6c-0.7-0.4-1.4-1-1.9-1.7  c-0.9-1.4-0.9-3.3,0-4.7c0.4-0.7,1.1-1.3,1.9-1.7c0.8-0.4,1.7-0.6,2.6-0.6c0.9,0,1.8,0.2,2.6,0.6c0.7,0.4,1.4,1,1.9,1.7  c0.4,0.7,0.7,1.5,0.7,2.4s-0.2,1.7-0.7,2.4c-0.4,0.7-1.1,1.3-1.9,1.7C252.6,93.2,251.6,93.4,250.7,93.4L250.7,93.4z M250.7,91.1  c0.3,0,0.7-0.1,0.9-0.3c0.3-0.2,0.5-0.5,0.6-0.8s0.2-0.7,0.2-1.1s-0.1-0.8-0.2-1.2c-0.1-0.3-0.4-0.6-0.7-0.8  c-0.2-0.2-0.5-0.3-0.9-0.3c-0.3,0-0.6,0.1-0.9,0.3c-0.3,0.2-0.5,0.5-0.7,0.8c-0.1,0.3-0.2,0.7-0.2,1.1c0,0.4,0.1,0.8,0.2,1.2  c0.1,0.3,0.4,0.6,0.7,0.8C250.1,90.9,250.4,91.1,250.7,91.1L250.7,91.1z"></path>
<path class="st3" d="M238.6,217.6c-0.9,0-1.8-0.2-2.6-0.6c-0.7-0.4-1.4-1-1.9-1.7c-0.4-0.7-0.7-1.5-0.7-2.4s0.2-1.7,0.7-2.4  s1.1-1.3,1.9-1.7c0.8-0.4,1.7-0.6,2.6-0.6c0.9,0,1.8,0.2,2.6,0.6c0.7,0.4,1.4,1,1.9,1.7c0.4,0.7,0.7,1.5,0.7,2.4s-0.2,1.7-0.7,2.4  c-0.4,0.7-1.1,1.3-1.9,1.7C240.3,217.4,239.4,217.6,238.6,217.6z M235.5,227.9l8.5-9.6l7.7-10l2.1,1.9l-8.2,9.3l-8,10.3L235.5,227.9  z M238.6,215.2c0.3,0,0.6-0.1,0.9-0.3c0.3-0.2,0.5-0.5,0.6-0.8c0.1-0.3,0.2-0.7,0.2-1.1s-0.1-0.8-0.2-1.2c-0.1-0.3-0.4-0.6-0.7-0.8  c-0.5-0.4-1.3-0.4-1.8,0c-0.3,0.2-0.5,0.5-0.7,0.8c-0.1,0.3-0.2,0.7-0.2,1.1s0.1,0.8,0.2,1.2c0.1,0.3,0.4,0.6,0.7,0.8  C237.9,215.1,238.2,215.2,238.6,215.2L238.6,215.2z M250.7,229.9c-0.9,0-1.8-0.2-2.6-0.6c-0.7-0.4-1.4-1-1.9-1.7  c-0.9-1.4-0.9-3.3,0-4.7c0.4-0.7,1.1-1.3,1.9-1.7s1.7-0.6,2.6-0.6c0.9,0,1.8,0.2,2.6,0.6c0.7,0.4,1.4,1,1.9,1.7  c0.4,0.7,0.7,1.5,0.7,2.4s-0.2,1.7-0.7,2.4c-0.4,0.7-1.1,1.3-1.9,1.7S251.6,229.9,250.7,229.9L250.7,229.9z M250.7,227.6  c0.3,0,0.7-0.1,0.9-0.3c0.3-0.2,0.5-0.5,0.6-0.8c0.1-0.3,0.2-0.7,0.2-1.1s-0.1-0.8-0.2-1.2c-0.1-0.3-0.4-0.6-0.7-0.8  c-0.2-0.2-0.5-0.3-0.9-0.3c-0.3,0-0.6,0.1-0.9,0.3c-0.3,0.2-0.5,0.5-0.7,0.8c-0.1,0.3-0.2,0.7-0.2,1.1c0,0.4,0.1,0.8,0.2,1.2  c0.1,0.3,0.4,0.6,0.7,0.8C250.1,227.4,250.4,227.6,250.7,227.6L250.7,227.6z"></path>
<path class="st3" d="M136.9,81c-0.9,0-1.8-0.2-2.6-0.6c-0.7-0.4-1.4-1-1.9-1.7c-0.4-0.7-0.7-1.5-0.7-2.4s0.2-1.7,0.7-2.4  c0.4-0.7,1.1-1.3,1.9-1.7c0.8-0.4,1.7-0.6,2.6-0.6c0.9,0,1.8,0.2,2.6,0.6c0.7,0.4,1.4,1,1.9,1.7c0.4,0.7,0.7,1.5,0.7,2.4  s-0.2,1.7-0.7,2.4c-0.4,0.7-1.1,1.3-1.9,1.7C138.6,80.8,137.8,81,136.9,81z M133.8,91.4l8.5-9.6l7.7-10l2.1,1.9l-8.2,9.3l-8,10.3  L133.8,91.4z M136.9,78.7c0.3,0,0.6-0.1,0.9-0.3c0.3-0.2,0.5-0.5,0.6-0.8s0.2-0.7,0.2-1.1s-0.1-0.8-0.2-1.2  c-0.1-0.3-0.4-0.6-0.7-0.8c-0.5-0.4-1.3-0.4-1.8,0c-0.3,0.2-0.5,0.5-0.7,0.8c-0.1,0.3-0.2,0.7-0.2,1.1s0.1,0.8,0.2,1.2  c0.1,0.3,0.4,0.6,0.7,0.8S136.5,78.7,136.9,78.7L136.9,78.7z M149.1,93.4c-0.9,0-1.8-0.2-2.6-0.6c-0.7-0.4-1.4-1-1.9-1.7  c-0.9-1.4-0.9-3.3,0-4.7c0.4-0.7,1.1-1.3,1.9-1.7c0.8-0.4,1.7-0.6,2.6-0.6c0.9,0,1.8,0.2,2.6,0.6c0.7,0.4,1.4,1,1.9,1.7  c0.4,0.7,0.7,1.5,0.7,2.4s-0.2,1.7-0.7,2.4c-0.4,0.7-1.1,1.3-1.9,1.7C150.9,93.2,149.9,93.4,149.1,93.4L149.1,93.4z M149.1,91.1  c0.3,0,0.7-0.1,0.9-0.3c0.3-0.2,0.5-0.5,0.6-0.8s0.2-0.7,0.2-1.1s-0.1-0.8-0.2-1.2c-0.1-0.3-0.4-0.6-0.7-0.8  c-0.2-0.2-0.5-0.3-0.9-0.3c-0.3,0-0.6,0.1-0.9,0.3c-0.3,0.2-0.5,0.5-0.7,0.8c-0.1,0.3-0.2,0.7-0.2,1.1c0,0.4,0.1,0.8,0.2,1.2  c0.1,0.3,0.4,0.6,0.7,0.8C148.4,90.9,148.7,91.1,149.1,91.1L149.1,91.1z"></path>
<path class="st3" d="M136.9,217.6c-0.9,0-1.8-0.2-2.6-0.6c-0.7-0.4-1.4-1-1.9-1.7c-0.4-0.7-0.7-1.5-0.7-2.4s0.2-1.7,0.7-2.4  s1.1-1.3,1.9-1.7c0.8-0.4,1.7-0.6,2.6-0.6c0.9,0,1.8,0.2,2.6,0.6c0.7,0.4,1.4,1,1.9,1.7c0.4,0.7,0.7,1.5,0.7,2.4s-0.2,1.7-0.7,2.4  c-0.4,0.7-1.1,1.3-1.9,1.7C138.6,217.4,137.8,217.6,136.9,217.6z M133.8,227.9l8.5-9.6l7.7-10l2.1,1.9l-8.2,9.3l-8,10.3L133.8,227.9  z M136.9,215.2c0.3,0,0.6-0.1,0.9-0.3c0.3-0.2,0.5-0.5,0.6-0.8c0.1-0.3,0.2-0.7,0.2-1.1s-0.1-0.8-0.2-1.2c-0.1-0.3-0.4-0.6-0.7-0.8  c-0.5-0.4-1.3-0.4-1.8,0c-0.3,0.2-0.5,0.5-0.7,0.8c-0.1,0.3-0.2,0.7-0.2,1.1s0.1,0.8,0.2,1.2c0.1,0.3,0.4,0.6,0.7,0.8  C136.2,215.1,136.5,215.2,136.9,215.2L136.9,215.2z M149.1,229.9c-0.9,0-1.8-0.2-2.6-0.6c-0.7-0.4-1.4-1-1.9-1.7  c-0.9-1.4-0.9-3.3,0-4.7c0.4-0.7,1.1-1.3,1.9-1.7s1.7-0.6,2.6-0.6c0.9,0,1.8,0.2,2.6,0.6c0.7,0.4,1.4,1,1.9,1.7  c0.4,0.7,0.7,1.5,0.7,2.4s-0.2,1.7-0.7,2.4c-0.4,0.7-1.1,1.3-1.9,1.7S149.9,229.9,149.1,229.9L149.1,229.9z M149.1,227.6  c0.3,0,0.7-0.1,0.9-0.3c0.3-0.2,0.5-0.5,0.6-0.8c0.1-0.3,0.2-0.7,0.2-1.1s-0.1-0.8-0.2-1.2c-0.1-0.3-0.4-0.6-0.7-0.8  c-0.2-0.2-0.5-0.3-0.9-0.3c-0.3,0-0.6,0.1-0.9,0.3c-0.3,0.2-0.5,0.5-0.7,0.8c-0.1,0.3-0.2,0.7-0.2,1.1c0,0.4,0.1,0.8,0.2,1.2  c0.1,0.3,0.4,0.6,0.7,0.8C148.4,227.4,148.7,227.6,149.1,227.6L149.1,227.6z"></path>
<path class="st3" d="M272,109.5c-0.9,0-1.8-0.2-2.6-0.6c-0.7-0.4-1.4-1-1.9-1.7c-0.4-0.7-0.7-1.5-0.7-2.4s0.2-1.7,0.7-2.4  c0.4-0.7,1.1-1.3,1.9-1.7c0.8-0.4,1.7-0.6,2.6-0.6c0.9,0,1.8,0.2,2.6,0.6c0.7,0.4,1.4,1,1.9,1.7c0.4,0.7,0.7,1.5,0.7,2.4  s-0.2,1.7-0.7,2.4c-0.4,0.7-1.1,1.3-1.9,1.7C273.8,109.3,272.9,109.5,272,109.5z M268.9,119.9l8.5-9.6l7.7-10l2.1,1.9l-8.2,9.3  l-8,10.3L268.9,119.9z M272,107.1c0.3,0,0.6-0.1,0.9-0.3c0.3-0.2,0.5-0.5,0.6-0.8c0.1-0.3,0.2-0.7,0.2-1.1s-0.1-0.8-0.2-1.2  c-0.1-0.3-0.4-0.6-0.7-0.8c-0.5-0.4-1.3-0.4-1.8,0c-0.3,0.2-0.5,0.5-0.7,0.8c-0.1,0.3-0.2,0.7-0.2,1.1s0.1,0.8,0.2,1.2  c0.1,0.3,0.4,0.6,0.7,0.8S271.7,107.1,272,107.1L272,107.1z M284.2,121.8c-0.9,0-1.8-0.2-2.6-0.6c-0.7-0.4-1.4-1-1.9-1.7  c-0.9-1.4-0.9-3.3,0-4.7c0.4-0.7,1.1-1.3,1.9-1.7c0.8-0.4,1.7-0.6,2.6-0.6c0.9,0,1.8,0.2,2.6,0.6c0.7,0.4,1.4,1,1.9,1.7  c0.4,0.7,0.7,1.5,0.7,2.4s-0.2,1.7-0.7,2.4c-0.4,0.7-1.1,1.3-1.9,1.7C286,121.6,285.1,121.8,284.2,121.8L284.2,121.8z M284.2,119.5  c0.3,0,0.7-0.1,0.9-0.3c0.3-0.2,0.5-0.5,0.6-0.8s0.2-0.7,0.2-1.1c0-0.4-0.1-0.8-0.2-1.2c-0.1-0.3-0.4-0.6-0.7-0.8  c-0.2-0.2-0.5-0.3-0.9-0.3s-0.6,0.1-0.9,0.3c-0.3,0.2-0.5,0.5-0.7,0.8c-0.1,0.3-0.2,0.7-0.2,1.1s0.1,0.8,0.2,1.2  c0.1,0.3,0.4,0.6,0.7,0.8C283.6,119.4,283.8,119.5,284.2,119.5L284.2,119.5z"></path>
<path class="st3" d="M278.1,147.5c-0.9,0-1.8-0.2-2.6-0.6c-0.7-0.4-1.4-1-1.9-1.7c-0.4-0.7-0.7-1.5-0.7-2.4s0.2-1.7,0.7-2.4  c0.4-0.7,1.1-1.3,1.9-1.7c0.8-0.4,1.7-0.6,2.6-0.6c0.9,0,1.8,0.2,2.6,0.6c0.7,0.4,1.4,1,1.9,1.7c0.4,0.7,0.7,1.5,0.7,2.4  s-0.2,1.7-0.7,2.4c-0.4,0.7-1.1,1.3-1.9,1.7C279.8,147.3,279,147.5,278.1,147.5z M275,157.9l8.5-9.6l7.7-10l2.1,1.9l-8.2,9.3  l-8,10.3L275,157.9z M278.1,145.2c0.3,0,0.6-0.1,0.9-0.3c0.3-0.2,0.5-0.5,0.6-0.8c0.1-0.3,0.2-0.7,0.2-1.1s-0.1-0.8-0.2-1.2  c-0.1-0.3-0.4-0.6-0.7-0.8c-0.5-0.4-1.3-0.4-1.8,0c-0.3,0.2-0.5,0.5-0.7,0.8c-0.1,0.3-0.2,0.7-0.2,1.1s0.1,0.8,0.2,1.2  c0.1,0.3,0.4,0.6,0.7,0.8C277.4,145.1,277.7,145.2,278.1,145.2L278.1,145.2z M290.3,159.9c-0.9,0-1.8-0.2-2.6-0.6  c-0.7-0.4-1.4-1-1.9-1.7c-0.9-1.4-0.9-3.3,0-4.7c0.4-0.7,1.1-1.3,1.9-1.7s1.7-0.6,2.6-0.6c0.9,0,1.8,0.2,2.6,0.6  c0.7,0.4,1.4,1,1.9,1.7c0.4,0.7,0.7,1.5,0.7,2.4s-0.2,1.7-0.7,2.4c-0.4,0.7-1.1,1.3-1.9,1.7S291.1,159.9,290.3,159.9L290.3,159.9z   M290.3,157.5c0.3,0,0.7-0.1,0.9-0.3c0.3-0.2,0.5-0.5,0.6-0.8c0.1-0.3,0.2-0.7,0.2-1.1s-0.1-0.8-0.2-1.2c-0.1-0.3-0.4-0.6-0.7-0.8  c-0.2-0.2-0.5-0.3-0.9-0.3s-0.6,0.1-0.9,0.3c-0.3,0.2-0.5,0.5-0.7,0.8c-0.1,0.3-0.2,0.7-0.2,1.1s0.1,0.8,0.2,1.2  c0.1,0.3,0.4,0.6,0.7,0.8C289.6,157.4,289.9,157.5,290.3,157.5L290.3,157.5z"></path>
<path class="st3" d="M104.9,147.5c-0.9,0-1.8-0.2-2.6-0.6c-0.7-0.4-1.4-1-1.9-1.7c-0.4-0.7-0.7-1.5-0.7-2.4s0.2-1.7,0.7-2.4  s1.1-1.3,1.9-1.7c0.8-0.4,1.7-0.6,2.6-0.6c0.9,0,1.8,0.2,2.6,0.6c0.7,0.4,1.4,1,1.9,1.7c0.4,0.7,0.7,1.5,0.7,2.4s-0.2,1.7-0.7,2.4  c-0.4,0.7-1.1,1.3-1.9,1.7C106.7,147.3,105.8,147.5,104.9,147.5z M101.8,157.9l8.5-9.6l7.7-10l2.1,1.9l-8.2,9.3l-8,10.3L101.8,157.9  z M104.9,145.2c0.3,0,0.6-0.1,0.9-0.3c0.3-0.2,0.5-0.5,0.6-0.8c0.1-0.3,0.2-0.7,0.2-1.1s-0.1-0.8-0.2-1.2c-0.1-0.3-0.4-0.6-0.7-0.8  c-0.5-0.4-1.3-0.4-1.8,0c-0.3,0.2-0.5,0.5-0.7,0.8c-0.1,0.3-0.2,0.7-0.2,1.1s0.1,0.8,0.2,1.2c0.1,0.3,0.4,0.6,0.7,0.8  C104.3,145.1,104.6,145.2,104.9,145.2L104.9,145.2z M117.1,159.9c-0.9,0-1.8-0.2-2.6-0.6c-0.7-0.4-1.4-1-1.9-1.7  c-0.9-1.4-0.9-3.3,0-4.7c0.4-0.7,1.1-1.3,1.9-1.7s1.7-0.6,2.6-0.6c0.9,0,1.8,0.2,2.6,0.6c0.7,0.4,1.4,1,1.9,1.7  c0.4,0.7,0.7,1.5,0.7,2.4s-0.2,1.7-0.7,2.4c-0.4,0.7-1.1,1.3-1.9,1.7S118,159.9,117.1,159.9L117.1,159.9z M117.1,157.5  c0.3,0,0.7-0.1,0.9-0.3c0.3-0.2,0.5-0.5,0.6-0.8c0.1-0.3,0.2-0.7,0.2-1.1s-0.1-0.8-0.2-1.2c-0.1-0.3-0.4-0.6-0.7-0.8  c-0.2-0.2-0.5-0.3-0.9-0.3s-0.6,0.1-0.9,0.3c-0.3,0.2-0.5,0.5-0.7,0.8c-0.1,0.3-0.2,0.7-0.2,1.1s0.1,0.8,0.2,1.2  c0.1,0.3,0.4,0.6,0.7,0.8C116.5,157.4,116.7,157.5,117.1,157.5L117.1,157.5z"></path>
<path class="st3" d="M272,187.2c-0.9,0-1.8-0.2-2.6-0.6c-0.7-0.4-1.4-1-1.9-1.7c-0.4-0.7-0.7-1.5-0.7-2.4s0.2-1.7,0.7-2.4  c0.4-0.7,1.1-1.3,1.9-1.7c0.8-0.4,1.7-0.6,2.6-0.6c0.9,0,1.8,0.2,2.6,0.6c0.7,0.4,1.4,1,1.9,1.7c0.4,0.7,0.7,1.5,0.7,2.4  s-0.2,1.7-0.7,2.4c-0.4,0.7-1.1,1.3-1.9,1.7C273.8,187,272.9,187.2,272,187.2z M268.9,197.5l8.5-9.6l7.7-10l2.1,1.9l-8.2,9.3  l-8,10.3L268.9,197.5z M272,184.8c0.3,0,0.6-0.1,0.9-0.3c0.3-0.2,0.5-0.5,0.6-0.8c0.1-0.3,0.2-0.7,0.2-1.1s-0.1-0.8-0.2-1.2  c-0.1-0.3-0.4-0.6-0.7-0.8c-0.5-0.4-1.3-0.4-1.8,0c-0.3,0.2-0.5,0.5-0.7,0.8c-0.1,0.3-0.2,0.7-0.2,1.1c0,0.4,0.1,0.8,0.2,1.2  c0.1,0.3,0.4,0.6,0.7,0.8C271.4,184.7,271.7,184.8,272,184.8L272,184.8z M284.2,199.5c-0.9,0-1.8-0.2-2.6-0.6  c-0.7-0.4-1.4-1-1.9-1.7c-0.9-1.4-0.9-3.3,0-4.7c0.4-0.7,1.1-1.3,1.9-1.7c0.8-0.4,1.7-0.6,2.6-0.6c0.9,0,1.8,0.2,2.6,0.6  c0.7,0.4,1.4,1,1.9,1.7c0.4,0.7,0.7,1.5,0.7,2.4s-0.2,1.7-0.7,2.4c-0.4,0.7-1.1,1.3-1.9,1.7C286,199.3,285.1,199.5,284.2,199.5  L284.2,199.5z M284.2,197.2c0.3,0,0.7-0.1,0.9-0.3c0.3-0.2,0.5-0.5,0.6-0.8c0.1-0.3,0.2-0.7,0.2-1.1s-0.1-0.8-0.2-1.2  c-0.1-0.3-0.4-0.6-0.7-0.8c-0.2-0.2-0.5-0.3-0.9-0.3s-0.6,0.1-0.9,0.3c-0.3,0.2-0.5,0.5-0.7,0.8c-0.1,0.3-0.2,0.7-0.2,1.1  s0.1,0.8,0.2,1.2c0.1,0.3,0.4,0.6,0.7,0.8C283.6,197,283.8,197.2,284.2,197.2L284.2,197.2z"></path>
<path class="st3" d="M112,109.5c-0.9,0-1.8-0.2-2.6-0.6c-0.7-0.4-1.4-1-1.9-1.7c-0.4-0.7-0.7-1.5-0.7-2.4s0.2-1.7,0.7-2.4  c0.4-0.7,1.1-1.3,1.9-1.7c0.8-0.4,1.7-0.6,2.6-0.6c0.9,0,1.8,0.2,2.6,0.6c0.7,0.4,1.4,1,1.9,1.7c0.4,0.7,0.7,1.5,0.7,2.4  s-0.2,1.7-0.7,2.4c-0.4,0.7-1.1,1.3-1.9,1.7C113.8,109.3,112.9,109.5,112,109.5z M108.9,119.9l8.5-9.6l7.7-10l2.1,1.9l-8.2,9.3  l-8,10.3L108.9,119.9z M112,107.1c0.3,0,0.6-0.1,0.9-0.3c0.3-0.2,0.5-0.5,0.6-0.8c0.1-0.3,0.2-0.7,0.2-1.1s-0.1-0.8-0.2-1.2  c-0.1-0.3-0.4-0.6-0.7-0.8c-0.5-0.4-1.3-0.4-1.8,0c-0.3,0.2-0.5,0.5-0.7,0.8c-0.1,0.3-0.2,0.7-0.2,1.1s0.1,0.8,0.2,1.2  c0.1,0.3,0.4,0.6,0.7,0.8C111.4,107,111.7,107.1,112,107.1L112,107.1z M124.2,121.8c-0.9,0-1.8-0.2-2.6-0.6c-0.7-0.4-1.4-1-1.9-1.7  c-0.9-1.4-0.9-3.3,0-4.7c0.4-0.7,1.1-1.3,1.9-1.7c0.8-0.4,1.7-0.6,2.6-0.6c0.9,0,1.8,0.2,2.6,0.6c0.7,0.4,1.4,1,1.9,1.7  c0.4,0.7,0.7,1.5,0.7,2.4s-0.2,1.7-0.7,2.4c-0.4,0.7-1.1,1.3-1.9,1.7C126,121.6,125.1,121.8,124.2,121.8L124.2,121.8z M124.2,119.5  c0.3,0,0.7-0.1,0.9-0.3c0.3-0.2,0.5-0.5,0.6-0.8c0.1-0.3,0.2-0.7,0.2-1.1c0-0.4-0.1-0.8-0.2-1.2c-0.1-0.3-0.4-0.6-0.7-0.8  c-0.2-0.2-0.5-0.3-0.9-0.3s-0.6,0.1-0.9,0.3c-0.3,0.2-0.5,0.5-0.7,0.8c-0.1,0.3-0.2,0.7-0.2,1.1s0.1,0.8,0.2,1.2  c0.1,0.3,0.4,0.6,0.7,0.8C123.6,119.4,123.8,119.5,124.2,119.5L124.2,119.5z"></path>
<path class="st3" d="M112,187.2c-0.9,0-1.8-0.2-2.6-0.6c-0.7-0.4-1.4-1-1.9-1.7c-0.4-0.7-0.7-1.5-0.7-2.4s0.2-1.7,0.7-2.4  c0.4-0.7,1.1-1.3,1.9-1.7c0.8-0.4,1.7-0.6,2.6-0.6c0.9,0,1.8,0.2,2.6,0.6c0.7,0.4,1.4,1,1.9,1.7c0.4,0.7,0.7,1.5,0.7,2.4  s-0.2,1.7-0.7,2.4c-0.4,0.7-1.1,1.3-1.9,1.7C113.8,187,112.9,187.2,112,187.2z M108.9,197.5l8.5-9.6l7.7-10l2.1,1.9l-8.2,9.3  l-8,10.3L108.9,197.5z M112,184.8c0.3,0,0.6-0.1,0.9-0.3c0.3-0.2,0.5-0.5,0.6-0.8c0.1-0.3,0.2-0.7,0.2-1.1s-0.1-0.8-0.2-1.2  c-0.1-0.3-0.4-0.6-0.7-0.8c-0.5-0.4-1.3-0.4-1.8,0c-0.3,0.2-0.5,0.5-0.7,0.8c-0.1,0.3-0.2,0.7-0.2,1.1c0,0.4,0.1,0.8,0.2,1.2  c0.1,0.3,0.4,0.6,0.7,0.8C111.4,184.7,111.7,184.8,112,184.8L112,184.8z M124.2,199.5c-0.9,0-1.8-0.2-2.6-0.6  c-0.7-0.4-1.4-1-1.9-1.7c-0.9-1.4-0.9-3.3,0-4.7c0.4-0.7,1.1-1.3,1.9-1.7c0.8-0.4,1.7-0.6,2.6-0.6c0.9,0,1.8,0.2,2.6,0.6  c0.7,0.4,1.4,1,1.9,1.7c0.4,0.7,0.7,1.5,0.7,2.4s-0.2,1.7-0.7,2.4c-0.4,0.7-1.1,1.3-1.9,1.7C126,199.3,125.1,199.5,124.2,199.5  L124.2,199.5z M124.2,197.2c0.3,0,0.7-0.1,0.9-0.3c0.3-0.2,0.5-0.5,0.6-0.8c0.1-0.3,0.2-0.7,0.2-1.1s-0.1-0.8-0.2-1.2  c-0.1-0.3-0.4-0.6-0.7-0.8c-0.2-0.2-0.5-0.3-0.9-0.3s-0.6,0.1-0.9,0.3c-0.3,0.2-0.5,0.5-0.7,0.8c-0.1,0.3-0.2,0.7-0.2,1.1  s0.1,0.8,0.2,1.2c0.1,0.3,0.4,0.6,0.7,0.8C123.6,197,123.8,197.2,124.2,197.2L124.2,197.2z"></path>
</svg>
