<?xml version="1.0" encoding="UTF-8"?>
<svg xmlns="http://www.w3.org/2000/svg" xmlns:xlink="http://www.w3.org/1999/xlink" version="1.1" id="Layer_1" x="0px" y="0px" viewBox="0 0 400 300" style="enable-background:new 0 0 400 300;" xml:space="preserve">
<style type="text/css">
	.st0{fill:#F3F2EF;}
	.st1{fill:none;}
	.st2{fill:#B78A4F;}
	.st3{fill:#000CEB;}
	.st4{fill:#FFFFFF;}
	.st5{fill:#00A88C;}
	.st6{fill:#8CC63E;}
	.st7{fill:#808080;}
	.st8{fill:#DCDCDC;}
	.st9{fill:#D8D5D5;}
	.st10{fill:#A19991;}
	.st11{fill:#44484B;}
	.st12{fill:#C2C5CC;}
	.st13{fill:#6F7478;}
	.st14{fill:#707579;}
	.st15{fill:#717579;}
	.st16{fill:#707478;}
	.st17{fill:#D45C46;}
	.st18{fill:#D45E48;}
	.st19{fill:#72767A;}
	.st20{fill:#F2F2F3;}
	.st21{fill:#EAEBEC;}
	.st22{fill:#F8F9F9;}
	.st23{fill:#EEF0F0;}
	.st24{fill:#F4F4F5;}
	.st25{fill:#F6F6F6;}
	.st26{fill:#E7E7E9;}
	.st27{fill:#F8F2EF;}
	.st28{fill:#7A7E81;}
	.st29{enable-background:new    ;}
	.st30{fill:#C9270D;}
</style>
<g>
	<path class="st0" d="M261.4,210.9c-0.5,0.4-1,0.8-1.6,1.4c-0.5-1.3-1.3-1.1-2.2-0.5c-0.8,0.5-1.7,0.9-2.6,1.3   c-1.3,0.6-2.3,0.2-3.2-0.8c-0.8-0.9-1.2-1.8-0.2-2.9c0.3-0.3,0.2-0.7-0.1-1.2c-1,1.3-2.7,1.8-4,2c-2,0.3-2.7,1.3-2.9,2.8   c-0.8,0.5-1.4-0.5-2.1,0c0.7,0.6,1.8,0.9,1.7,2.1c-0.2,1.3-1.4,1.2-2.2,1.6c-0.9,0.4-1.8,0.6-2.7,0.8c-0.1,1.1,0.3,1.9,1,2.6   c1.4,1.5,0.8,4.6-1.1,5.7c-0.9,0.5-1.4-0.4-2.6-1c0,3.2-0.1,6,0,8.8c0,1.3-0.3,2.2-1.7,2.2c-1,0-1.2,0.7-1.5,1.6   c-0.5,1.8-0.1,4-2.7,5.8c3.1,0.1,3.8,2,4.6,4c0.7,1.8,2.4,2.4,4.1,3.1c0.9,0.3,1.9,0.6,1.7,1.9c-0.2,1.2-1.3,1.4-2.3,1.3   c-2.7-0.2-4.6,1.1-6.5,2.8c-1.4,1.3-2.8,2.7-4.6,3.3c-0.6,0.2-1.2,0.8-1.8,0.2c-0.8-0.7,0.3-1.3,0.3-1.6c-4.9-3.7-9.7-1.9-14.7-0.4   c0.8,1.7,2.8,1.6,3.9,2.8c-0.9,1.4-4.6,3.5-5.7,3.3c-1.1-0.2-1.6-0.9-4.6-5.3c-1.3,0.8-1.6,3.3-0.1,4.3c1.6,1.1,2.3,3,4,4.1   c1.1,0.7,0.5,1.5-0.4,2c-1.2-0.3-1.3-2.7-3.3-1.5c0.1,0.9,1.1,1.8,0.4,2.8c-0.3,0.4,0.2,0.7,0.5,0.8c0.5,0.2,0.6-0.1,0.7-0.5   c0.3-0.8,1.2-1,1.7-0.7c2.4,1.6,5.7,1.6,7.2,4.7c0.3,0.7,0.7,1.2,0.3,2.2c-1.4-1.2-2.2-2.8-3.8-3.4c-1.4-0.6-2.4-2.2-4.4-2.1   c2.4,2.2,6.9,2.9,5,7.6c-1.4,0.6-2.9-2.4-4.1,0.3c0.5,1,2.3-0.2,2.1,1.4c-0.1,1.3-1.4,1.6-2.4,2c-0.5,0.2-1.1,0.1-1.7,0.2   c0.7,1.7,1.8,3.2,2.9,4.6c-1.6,1.4-2.5,1.4-4.6,0.1c-0.5,1.5-1.4,1.3-2.3,0.4c-0.9-0.8-1.8-1.2-3.2-1.3c-2.1-0.1-2-2.4-1.9-3.8   c0.2-1.7-0.2-2.8-1.6-3.7c-0.7-0.5-1.1-1.2-0.8-2.1c0.3-0.9,1.1-0.9,1.8-1.1c1.3-0.3,2.6-0.7,3.9-0.7c1.6,0,3.3-0.2,4.5,2   c0.2-1.5-0.5-2-1.1-2.1c-1.9-0.2-3.6-1.4-5.6-0.9c-1.1,0.2-2.3,0.2-3.5,0.2c-1.5,0-2.6-0.9-2.7-2.2c-0.1-2.3-1.4-3.6-2.8-4.9   c-0.5-0.5-0.8-1.1-1-1.7c-0.3-0.9-0.8-1.8-1.6-2c-2.5-0.3-2.5-2.1-2.3-3.9c0.2-2.5,0.5-5,0.9-7.5c0.2-1.2,0.1-2.2-1.4-2.5   c-0.4-0.1-0.9-0.3-1.1-0.6c-2.2-3.4-6.3-4-9.1-6.5c-1-0.9-2-1.7-2.9-2.7c-1-1.2-2-1.9-3.8-1.7c-2.2,0.2-2.9-2.2-4.3-3.4   c-1.5-1.2-1.2-3.7-3.1-4.8c-0.5-0.3-0.1-1.2,0-1.9c0.3-1.5-0.2-2.8-1.6-3.5c-0.8,0.4-1,1.2-1.6,1.8c-0.5,0.5-0.7,1.5-1.7,1.2   c-0.8-0.2-1-1.1-1.2-1.7c-0.7-1.8-0.8-3.6,0.9-5.1c-2,0.4-4,0.8-6,1.1c-2.2,0.3-2.6,0.9-1.6,2.8c0.4,0.8,0.1,1.4-0.3,2   c-1.6,3.1-1,5,2.2,6.2c3.3,1.3,5.1,4,4.9,7.5c-0.1,1.7,1,2.7,1.8,3.9c1.8,2.5,3.6,4.6,7.3,4.2c2.8-0.3,3.5,1.2,2.1,3.8   c3.6,0.8,6.3,3.3,9.6,4.5c2.7,0.9,4.8,4.2,4.4,6.7c-0.2,0.9-0.5,1.5-1.5,1.7c-0.9,0.1-1.6-0.2-1.9-1.1c-0.9-2.8-3.6-2.7-5.6-3.2   c-1.1-0.3-1.6,1.9-2.1,3c-0.4,0.9,0.2,1.7,1.1,1.9c2.5,0.5,1.5,2.5,1.7,3.9c0.2,1.5-0.6,2.1-1.9,2.5c-1.3,0.3-1.7,1.4-2.1,2.6   c-0.9,3.1-4.2,4.2-6.5,2.2c-2,1.2-3,3.7-2.2,5.8c0.7,1.8-0.8,3-1.6,3.3c-1,0.4-3.1,0.8-3.6-1.2c-0.3-1.2-1.1-1.6-2.2-1.8   c-1.5-0.3-2.8-0.8-3.9-2.2c-0.7-0.9-2.1-1.2-3.3-1.7c-0.9-0.4-1.9-0.7-2.6-1.8c0.2-0.6,0.5-1.3,0.7-2c0.2-0.6,0.9-1.1,1.1-1   c1.3,1,3.1-0.3,4.3,0.8c2.6,2.3,5.3,1.2,8.1,0.6c1.8-0.4,3.7-0.8,5.9-0.3c0.4-0.3,0.6-1.2,0.7-2.1c0.1-0.6,0-1.3,0.7-1.5   c2-0.7,1.5-2,1.1-3.4c-0.9-2.6-1.5-5.5-5.1-5.8c-0.7,0-1.2-0.7-1.2-1.4c0-1.9-1.4-2.8-2.8-3.7c-6.9-4.4-12.9-9.8-18.1-16   c-0.2-0.3-0.5-0.6-0.7-0.9c-2.4-3.6-2.9-8-4.9-12c-1.5,0.4-3.1-0.3-4.7-1c-1.1-0.5-2.1-0.6-2.8,0.4c-1.8,2.7-4.9,3-7.4,4.3   c-1,0.5-2.1,0.7-2.9,1.8c-0.9,1.4-3.9,1.1-5.1-0.3c-1.6-1.9-3.3-3.3-6-3.1c-0.3,0-0.8-0.1-1-0.3c-2.2-2.3-4.5-0.7-6.6,0   c-2.3,0.7-1.9,2.7-1.7,4.4c0.3,3.2-0.5,5.4-3,6.2c-3,1-6.1,2.3-9.4,2c-1.8-0.2-3.1,0.4-4.3,1.7c-1.9,2.2-4.4,3.6-6.7,5.4   c-2.2,1.7-2.6,3-1.6,5.5c1,2.7,0.9,3-1.9,3.8c-1.7,0.5-2.8,1.6-3.6,3c-0.9,1.6-2.2,2.2-4,2c-2.3-0.3-4,0.5-5.1,2.6   c-0.3,0.6-0.7,1.4-1.4,1.1c-3.8-1.8-8.5-0.1-12-3.1c-0.9-0.7-2.1-1.1-3.2,0.1c-0.3,0.3-0.8,0.3-1.2,0.3c-3.4,0-3.4,0-5.7,1.9   c-1.2-0.6-2.3-1.6-3.1-2.7c-0.4-0.6-1.1-1.6-0.2-2.4c1.2-1.2,0.4-2.3-0.2-3.2c-0.7-1.1-1.6-2.2-2.7-2.9c-1.4-0.9-2.1-1.8-1.9-3.5   c0.2-1.7,1.4-2.5,2.8-3.1c0.3-0.1,0.5-0.3,0.8-0.6c-1.2-1.8-0.4-3.2,1-4.4c1.1-0.9,1.6-2,0.9-3.5c-0.5-1.2-0.3-2,1.3-2.8   c1.7-0.9,3.5-2.9,3.9-4.7c0.8-3.5,2.6-5.6,5.7-6.9c0.1-0.9-0.9-1.5-0.7-2.3c0.2-0.9-0.5-1.4-1.1-1.4c-2,0-3.4-1.6-5.3-1.9   c-0.5-0.1-1-0.1-1.1-0.6c-0.4-1.7-1.6-1.8-3-1.6c-0.6,0.1-1-0.3-1.2-0.8c-0.2-0.5,0-1,0.3-1.2c2.1-1,1.7-2.6,1.2-4.2   c-0.7-2.5,0.1-3.6,2.8-3.4c1.3,0.1,2.4,0.4,3.8-0.6c1.8-1.2,3.7-0.4,4.9,1.3c0.3,0.4,0.6,0.8,1.1,0.9c4.5,1.1,8.6,3.1,12.6,5.3   c0.7,0.4,1.4,0.4,2.1,0.5c1.8,0.3,3.4,0.9,5,1.9c2,1.2,4.5,1.7,6.7,2.5c0.6,0.2,1-0.1,1.4-0.5c3-3.4,5.5-7.1,6.2-11.8   c0.1-0.4,0-1.1,0.3-1.2c2.1-1.3,1.7-3.6,2.4-5.5c-2.1-1-2.6-3.1-3.6-4.8c-0.2-0.3-0.4-0.9-0.2-1c1.5-1.8-0.1-3.1-0.6-4.6   c-0.1-0.4-0.4-1-0.7-1c-2.8-0.6-3.8-4.1-6.8-4.4c-0.7-0.1-1.5-0.9-1.8-1.8c0.1-1.1,1.4-0.9,1.7-1.8c0.1-0.8-1.1-0.5-1.3-1.3   c0.1-0.1,0.2-0.4,0.3-0.4c1.2-0.6,2.4-0.7,3.7-0.4c1.1,0.2,2.1,0.5,3.4-0.2c1.1-0.6,2.5,0.3,2.9,1.3c0.6,1.3,1.5,1.5,2.8,1.6   c1.3,0.2,2.5,0.7,3.9,1c-0.2-1.6,0.4-3-0.1-4.6c-0.4-1.2,0-2.8,1.5-3c1.3-0.2,2.4,0.5,2.4,2.1c0,0.5,0.3,1,0.9,1.2   c2.3,0.7,4.4,2,6.9,2.1c0-0.9-1.3-0.8-0.9-2c2-0.3,4-0.9,6-1.8c1.2-0.5,1.8-1.2,2-2.5c0.6-3.2,0.8-3.3,4-3.4c0.8,0,1.7-0.1,2.4-0.4   c1.8-0.9,3.3-1,4.7,0.8c0.4,0.5,1.2,0.6,1.8,0.1c0.6-0.5,0.4-0.9,0.1-1.5c-1.3-2.5,1.5-3,2.4-4.3c0.8-1.1,1.9-1.9,2.2-3.4   c0.3-1.2,1-2.4,2.5-1.8c1.5,0.6,0.9,1.7,0.3,2.7c-0.3,0.5-0.5,0.9-0.1,1.5c1.4-0.5,1.5-1.7,1.4-2.8c-0.3-2.5,1.1-3.8,3.2-3.8   c1.7,0,3.5-1.4,5.3,0.1c2-2.7,4.3-2.5,7,0.9c0.8-0.4,0.2-1.4,0.7-1.9c0.5-0.6,1.3-0.5,1.9-1c-0.6-1.5-1.4-2.4-0.3-4.3   c0.9-1.5,1.4-4.8-0.3-6.9c-0.9-1.2-1-2.1-0.7-3.4c0.2-1.1,0.1-2.2,0.1-3.3c0-1,0.3-1.9,1.2-2.6c2.5,1.6,4.4-0.7,6.6-1   c0.8-0.1,1.5-1,2.4-0.1c0.9,0.8,0,1.6,0,2.5c0.5,0.3,1.1,0.5,1.5,0.9c0.8,0.7,1.2,2.1,0.2,2.4c-2.1,0.8-2.5,3.1-4.3,4.1   c-2,1.1-2.3,3.1-1.9,5.2c0.5,2.3,1.5,4.2,4.3,4.2c1.8,0,1.2,1.4,1.3,2.5c1.9,0.2,3.5,0.1,5.1-0.6c3.4-1.5,5.6-0.6,6.9,2.9   c0.5,1.3,2.4,0.6,2.5,2.3c0.9-2.4,2.4-3.5,4.7-3.7c1.3-0.1,2.5-1,3.5-1.8c2.6-2.1,5.8-2.7,9-2.9c1.2-0.1,2,0.7,2.1,1.9   c0.2,3.1,2.7,1.6,4.1,1.9c1.1,0.3,1.6-1.5,1.6-2.6c0-0.7,0.1-1.3,0.5-1.8c1.3-1.8,2.1-2,3.8-0.5c0.9-0.8,0.4-2.9,2.4-2.5   c-1.8-4-1.9-8-0.7-12c0.4-1.5,1.2-2.8,1.6-4.3c0.6-1.9,2.4-2.9,4.1-2.9c1.6,0,2.8,1.6,3.8,3c0.1,0.2,0.1,0.4,0.2,0.6   c0.4,0.9,0.9,2.1,2.1,1.9c1.4-0.2,1.1-1.6,1-2.6c-0.2-2.2,0.9-4.1,1-6.3c-3.3,0.3-3.8-0.3-3.5-3.7c0-0.2,0.2-0.5,0.1-0.6   c-0.9-1.4-1.5-3,0.5-3.8c1.3-0.6,2.3-1.5,4-1.6c3.4-0.3,6.7-0.5,10.1,0.1c1.3,0.2,1.8-0.3,2.6-1.6c0.8-1.5,2.4-3.1,4.6-3.1   c1.1,0,2.1,0,3.2-0.3c-2.1-1.5-6.2,0.7-6.7-3.8c-3.8-0.2-7.1,1.5-10.5,2.9c-2.4,1-4.7,2.4-7.3,3c-1.3,0.3-2.3,1.4-3.8,0.9   c-0.9-0.3-1.7-0.7-1.8-1.7c-0.2-1.9-1.5-2.3-3.1-2.6c-0.9-0.2-1.7-0.3-2.5-0.8c-1.5-1-2-2.8-1-4.2c1.5-2.1,1.5-4.1,0.1-6.3   c-1.1-1.7-0.5-7.2,1.1-8.1c3.3-1.8,4.4-5.2,6.7-7.7c1.6-1.8,1.8-4.3,4.1-5.9c1.6-1-0.6-5.2-2.7-5.3c-0.8-0.1-1.6-0.4-2.4-0.4   c-1.7-0.1-3.7-0.6-3.9,2.2c0,0.4-0.4,0.9-0.7,1.1c-2.2,1.2-1.9,3.3-1.8,5.2c0.1,0.9,0.2,1.8-0.4,2.5c-1.1,1.3-1.5,2.9-2.1,4.5   c-0.6,1.5-2,2.8-3.6,3.5c-0.8,0.3-1.8,0.5-1.9,1.3c-0.7,3.3-3.5,3.6-6.3,4.5c1.9,1,1.6,2.4,1.1,3.9c-0.8,2.5-1.5,5.1-1,7.7   c0.2,1.1,0.5,2.2,2.1,2.1c0.8-0.1,0.9,0.6,1.2,1.1c0.5,0.9,0.9,1.9,2,2.5c1,0.5,1.2,2,0.7,2.5c-1.9,2-1.4,5.7-5.1,6.7   c-1.3,0.4-3.4,2.1-3.6,4.7c-0.5,5-1.6,9.9-3.9,14.5c-0.7,1.5-1.8,1.8-3.2,1.1c-1.8-0.9-4.9,0.9-5,2.9c-0.1,1.7-0.5,2.5-2.4,1.9   c-0.5-0.1-1-0.1-1.5,0c-1.8,0.2-3.1-0.1-2.7-2.4c0.2-0.8-0.4-1.5-0.7-2.3c-0.3-0.8-0.7-1.9-0.2-2.6c1.2-1.5,0.5-2.9-0.4-4   c-1.9-2.4-1.3-5.1-1.5-7.8c-0.1-0.7,0.2-1.6-0.1-2.2c-1.4-2.7-1.5-5.5-0.7-8.4c0.2-0.7,0-1.2-0.6-1.5c-1.4-0.7-1.6-1.6-0.1-3   c-1.4,0.5-1.8,1.2-1.8,2c0.1,1.6-0.9,2.8-1.5,4.1c-0.5,1.2-1.3,1.6-2.4,0.8c-0.7-0.5-1.2-0.4-1.7,0.1c-0.9,0.8-2.1,1.4-2.9,2.4   c-2.1,2.7-4.9,2.4-7.6,1.8c-1-0.2-2.3-0.5-2-2.1c0.1-0.5-0.5-0.7-0.8-0.9c-2.1-1.8-2.3-3.3-0.7-5.5c0.5-0.7,0.9-1.3,0.6-2.2   c-1-0.1-1.2,1.6-2.2,1c-0.8-0.4-0.5-1.2-0.3-1.8c0.3-1.1,0.6-2.4,2.1-2.4c0.4,0,0.7,0,1.1-0.1c0.1-0.9,0.1-1.8,0.7-2.5   c-2.7-1.3-2.8-2.1-1.6-5c0.5-1.1,0.4-2.7,0.1-3.7c-0.6-2.4,0.7-3.4,2.3-4.5c-0.6-2.7-0.4-2.9,2.5-2.8c1.3,0.1,2.5,0.3,3.1-1.6   c0.3-1.2,1.7-0.2,2.7-0.3c0.1-1.2,0.8-1.9,2.1-1.9c1.1,0,1.9-0.5,2.7-1.3c1.8-1.8,4.6-2.2,6.3-4.3c0.9-1.1,1.1-2.6,2.5-3.3   c1.4-0.7,2.6-1.5,3.9,0.4c-0.4-1.7,0.5-2.8,1.3-3.8c0.7-0.9,0.9-1.6,0.8-2.7c-0.1-1.4,1.5-2.3,2.2-3.5c0.7-1.2,2.2-2,1.5-3.9   c-0.3-1,2.9-4.4,4.1-4.5c0.9-0.1,1.6-0.6,2.3-1.2c-1-2.9,0.6-5.7,3.4-6.9c2-0.8,4.5-1.1,5-4.3c0.2-1.2,1.1-3.9,3.7-3.7   c0.2,0,0.4-0.4,0.6-0.6c1.4-2.3,1.4-2.3,3.7-2.7c0-2.7,1.2-3.9,4-4c0.7,0,1.5,0,1.6-0.8c0.3-1.3,1.3-0.9,2.1-1.1   c0.6-1.2,0.4-2.8,2.5-3c0.7-0.1,0.9-1.8,2.5-2.2c1.9-0.5,2.4-0.1,2.5,1.7c0,0.4,0.2,0.8,0.4,1.4c1.3-1.4,2.1-3,3.9-3.7   c0.9,1.1,0.2,2.3,0.3,4.1c1-2.3,2.3-2,3.7-1.3c0.7,0.4,1.4,0.4,2.1,0.5c1.8,0.2,2.3,1.2,1.6,2.9c-0.5,1.2,0.8,4.4,1.9,4.9   c1.4,0.6,1.2-1,1.8-1.1c2.8-1.4,4.3,1.2,6.4,2c2.6,1,5.3,1.3,8,0.6c1.1-0.3,2-0.3,3,0.3c2.8,1.6,6.1,2.2,8.8,4   c1,0.7,2.5,0.2,3.8,0.9c5.4,2.7,6.1,7.7,2.3,11.5c-2.5,2.5-5.3,4.3-9.3,2.9c-1.1-0.4-2.7,0-4-0.2c-3.5-0.5-6.8-1.4-10-3   c-0.7,1.5-0.1,2.4,1.2,2.9c1.7,0.6,3,1.9,4.9,2.2c1.8,0.3,2.8,2,2.5,3.9c-0.3,2.8,1.5,4.8,2.4,7.2c0.1,0.3,0.8,0.7,1,0.7   c2-0.5,3.2,1,4.6,1.9c0.6,0.4,1.5,0.5,2.3,0.6c1.1,0.1,2.2-0.2,2.3-1.5c0-1.1-0.5-2.2-2-2.2c-1.3,0-2.4-0.5-3.4-1.3   c-1-0.8-0.9-1.7-0.5-2.8c0.4-1.1,1.2-0.9,2.1-0.8c2.1,0.2,4,0.7,5.9,1.6c1.7,0.8,3.5,0.3,5.3-0.1c-0.7-2.2-2.2-3.6-3.9-4.6   c-1.3-0.8-1.4-1.6-0.8-3.1c1-2.6,3.2-4.4,4.1-6.9c0.8-2.1,2.7-0.8,4.1-1.1c1.2-0.3,1.3,1,1.4,2.1c0.7-0.1,1.3-0.2,2.2-0.4   c-0.9-1.1-1.1-2-0.7-3.2c0.6-1.8-0.2-3.2-2.2-3.6c-1.4-0.3-1.7-0.9-1.7-2.3c0.1-2.8-0.5-5.4-2.8-7.3c3.5-3.4,6.4-1.9,9.8,2   c-0.5,0.9-1.5,1.1-2.3,1.6c-0.7,0.5-1.5,0.8-1.3,1.8c0.1,0.9,0.9,1,1.6,1.2c0.8,0.2,1.5,0.5,2.3,0.9c1.8,0.9,4.7,0.3,5.8-1.3   c0.7-1,0.7-2.1,0-3.1c-0.5-0.9-0.7-1.6,0.3-2.3c0.4-0.3,0.7-0.7,0.7-1.3c-0.1-3.2,2.1-5.2,4.3-7.1c0.1-0.1,0.4-0.1,0.8-0.1   c-0.8-1.7,0.8-2.8,1.1-4.3c0.2-1,2.3-0.3,2.9,1.1c0.4,0.9,0,1.7,0.2,2.6c2.3,0.1,2.9-1.5,3.2-3.2c0.3-1.7,0.8-2.9,2.9-2.8   c1.2,0.1,1.7-0.8,1.7-1.9c0-0.4,0-0.9,0.1-1.3c0.2-1.1,0.3-2.4,1.7-2.5c1.2,0,1.4,1.1,1.5,2.1c0.1,1.3,0.8,1.6,2.1,1   c-0.5-1.4-0.4-2.8,0.5-4c-2.9-2.8-3-3.2-2.6-7.6c3.7,0.3,6.8-2.9,10.9-1.5c-0.2,2,0.6,3,2.8,2.1c0.8-0.3,1.5,0.2,2.1,0.9   c1.1,1.3,2.2,2.8,4.3,2c0.5-0.2,1,0.2,1.3,0.7c1.3,2.3,2.2,4.8,2.4,7.5c0.1,0.9-0.3,1.6-0.9,2.1c-1.2,1.2-1.5,2.4-0.8,4   c0.9,2.1,0.9,4.2-0.2,6.2c-0.7,1.4-0.6,2.9-0.6,4.3c0,1.3,0,2.6-1.6,3.1c2.7,3.1,3.8,6.9,5.3,10.4c0.3,0.8,0.6,1.7,1.3,2.3   c4,3.3,5.1,8.4,7.9,12.5c2.2,3.1,2.9,6.9,5.1,9.9c1.6,2.2,3.5,4.2,4.9,6.6c1.2,1.9,1.6,5.1,0.2,7c-0.6,0.9-0.1,1.5,0.2,2.2   c0.8,1.8,1.8,3.3,0.7,5.6c-0.6,1.2,0.9,2.8,1.8,4c0.7,0.9,1.8,0.1,2.6-0.5c1.2-0.9,2.5-1.2,3.9-1.4c2.1-0.4,3.8,1.4,3.3,3.5   c-0.2,0.8-0.6,1.5-0.8,2.3c-0.2,0.8-0.4,1.5-0.6,2.3c-1.1,0.5-1.8-0.4-2.7-0.3c-0.8,0.1-1.7,0.2-2.1,1c-0.4,0.8,0,1.6,0.5,2.2   c0.5,0.7,1,1.1,2,0.9c2.9-0.6,5.1-2.2,6.2-5.1c0.3-0.8,0.3-1.8,1.8-2.2c-0.6,2.9,3.1,4.6,1.5,7.7c-0.1,0.2,0,0.6,0.1,0.9   c1.3,2.7,2.5,5.5,3.9,8.1c0.8,1.4,1.9,1.7,3.2,0.4c1.3-1.3,2.4-1.2,3.6,0.4c1.5,2,3.8,1.5,5.9,0.9c1.6-0.4,3.1-1.4,4.2,0.6   c0.9,1.7,0.2,4-1.4,5.3c-1.5,1.2-3.6,1.5-4.3,3.8c-0.3,1-5.1,1.1-6,0.2c-1.4-1.6-2.2-0.7-2.7,0.7c-0.5,1.7-1.5,2.4-3.4,2.5   c-1.6,0.1-3,1.4-3.5,2.9c-0.7,2.3-1.8,2.7-3.9,2c-1.4-0.5-2.9-0.8-3,1.5c-2.4,0-4.6-0.9-6.7-1.5c-0.3-0.1-0.5-0.3-0.8-0.4   c-0.8-0.3-5.8,1.3-6.3,2.1c-1.4,2.2-1.4,2.2-3.9,1.7c-1.9,3.5-5.3,5.9-6.7,9.9c0.4,1,0.8,2,1.2,3c0.4,1,0.4,1.9-0.5,2.6   c-1,0.8-1.8,0.2-2.6-0.4c-0.7-0.5-1.3-1.2-1.9-1.8c-1.8,1.8-2,9.3,0.9,10.6c0.1,0.6-0.3,1.1-0.5,1.6c-0.6,1.4-0.9,2.8,1.4,3   c1.9,0.2,1.5,2.1,2.3,3.5c5.1-3.4,6.9,2.2,10.2,3.4c0.2,1.4-1.1,1.6-0.9,2.6c0.3,0.6,0.9,0.5,1.4,0.6c0.9,0.2,1.6,0.7,1.8,1.7   c0.2,1-0.1,1.8-1,2.4c-1.6,1.1-2.6,2.8-4.4,3.6c-0.8,0.3-1.1,1.4-0.9,2.1c0.4,2.2-0.3,4.2-0.9,6.2c-0.4,1.4-0.5,2.5,1.8,2.3   c1.7-0.2,3.3,1.1,4.3,2.7c0.7,1,1.4,2.2,1.6,3.4c0.8,5.1,5.1,6.5,8.9,8.3c1.9,0.9,3.7,1.8,4.9,3.5c1.4,1.9,3.3,2.7,5.6,2.4   c0.8-0.1,1.7-0.4,2.1,0.7c0.3,0.9-0.7,1-1.2,1.4c-2.7,1.7-1.5,4.3-1.2,6.5c0.2,1.9,1.2,3.6-0.8,5.2c-0.6,0.4-0.2,1.2,0.3,1.8   c0.5,0.5,0.9,1.1,0.5,1.8c-0.4,0.8-1.2,0.4-1.8,0.4c-1.5-0.1-3.3,0.8-4.5-1.1c2.1-1.4,0.2-3.2,0.3-4.9c0-0.8-1-1.4-2.1-0.9   c-0.7,0.3-1.7,0.7-1.9,1.4c-0.6,2.7-3,4-4.2,6.3c-1,2-3.6,1.6-5.6,1.6c-1.9,0-3.6-0.8-5-2.1c-2-1.9-4.4-2.5-7.1-2.5   c-2.7,0-3.5-0.7-3.4-3.4c0.1-1.8-0.7-2.6-2.4-2.7c-0.1,0-0.3,0-0.4,0c-2.8-2.6-5.9-0.6-8.9-0.4c-1.8,0.1-1.7-0.9-1.1-1.9   c0.7-1.2,0.5-2.1-0.5-2.8c-1.3-1-1.8-2.7-3.2-3.8c-2.1-1.7-4.5-1.4-6.8-2c-1.5-0.3-2.6-1.1-3.8-2.1c-2.6-2.1-5.5-3.7-8.9-4.3   c-2-0.4-4-1.2-5.9-2.1c-1.4-0.7-1.6-2-0.5-3.1c0.8-0.8,0.9-1.7,1-2.7c0.1-0.9,0.1-2.3,1.6-2.2c1.1,0,1-0.7,1.2-1.3   c0.3-0.7-0.3-1.1-0.8-1.4c-0.4-0.2-1-0.3-1.5-0.4c-0.7-0.1-1.3-0.5-1.3-1.3c0-0.9,0.7-1.3,1.4-1.4c0.6-0.1,1.3,0,2.2,0   c-1-2.6,2.2-2.4,2.8-4.4c-3.8,1.6-8.3,1.6-10.1,6c-0.2,0.4-0.5,0.9-1,0.7c-2.4-0.7-3.6,1.4-5.1,2.4c-0.9,0.6-1.7,1.5-3.1,0.4   c-1,4.2-4.2,1.4-6.3,2.2c-0.2,0.1-0.7-0.3-0.9,0.2C261.2,210.5,261.4,210.7,261.4,210.9L261.4,210.9z"></path>
	<path class="st0" d="M79,151.4c-0.9,0.1-1.8,0.2-2.8,0.2c0.9-1.1,1.8-1.3,4.5-2.3c2-0.7,2.9,1.4,4.8,1.3c-1.3-2.8,0.5-4.2,2.4-5.7   c-1-0.9-2.5-1.4-2.6-3.2c-0.1-1.7,0.4-2.9,2.2-3c-0.5-1.7-1.5-0.7-2.2-0.7c-0.8-0.1-1.5-0.4-2-0.8c-0.7,0.1-0.6,0.9-0.9,1.2   c-0.9-0.2-0.6-1.3-1.5-1.3c-0.2,0.2-0.4,0.6-0.8,1.1c-0.6-1.2-0.6-2.2,0.3-3.1c0.9-0.9,2-1.7,3-2.6c0.6-0.6,1.1-1.4,1.6-2   c-0.5-1-1.4-1.1-2.3-1.4c0-0.8,2.2-1.2,0.5-2.3c-1-0.1-0.8,1.2-1.8,1.3c-0.9-2.7,2.9-2.6,2.7-4.9c-1.1,0.6-2.3,1.5-4.3,0.5   c2.4-0.3,2.5-2.1,3.6-3.3c0.8-0.9,2-1.8,1.2-3.4c-0.3-0.6-0.1-1.4,0.7-1.9c1-0.6,1.6,0.3,2.6,0.9c-0.9-2.9,3-2.7,2.5-5.3   c2.2,1.7,4.7,1.8,7.2,2.5c-0.6,2.2-2.5,2.5-3.9,3.3c-1.4,0.9-3.2,1.4-3.3,3.8c1.6-0.2,2.9-0.4,4.1-0.6c2.1-0.4,3.3,1.2,5,1.7   c0.6,0.2,0.6,1.1,0.2,1.5c-1,0.9-2.1,1.5-2.2,3.3c-0.1,1-2.1,3.1-4.4,2c-0.2-0.1-0.6,0-0.8,0c-0.2,0.9,1,0.8,1,1.6   c-0.5,0.9-1.9,0.5-2.3,1.5c3.3,0.4,5.1,3,5.1,6.4c0,1.5,0.1,3.1-0.2,4.6c-0.1,0.4,0.1,0.9,0.4,1.2c0.6,0.6,1.6,0.7,2,1.6   c0.4,0.9,0.4,1.9,0.4,2.8c0,0.9,0,1.8,0,2.7c-0.6,0-1.1,0-1.7,0c0.1,0.2,0.1,0.4,0.2,0.4c2.7,1.7,2.9,3.3,0.7,5.6   c-0.4,0.4-0.7,0.7-0.4,1.4c1.2,0.3,2.3-0.9,3.7-0.3c1.2,0.5,2.7,0.5,2.8,2.2c0.1,1.8-0.4,3.5-2,4.6c-0.6,0.4-1.4,0.9-2,0.8   c-1.5-0.2-1.6,0.8-1.7,1.7c-0.8,0.5-1.5-0.6-2.3,0.1c0.7,2.2,2.7,1.8,4.4,2c-1,2-4,3.6-6.1,2.8c-1.8-0.6-3.5-1-5.3-1.3   c-1.1-0.2-2-0.8-2.8-1.5c-1.6,1,0,1.3,0.6,2c-2.2,0.2-3.6-3.1-5.7-0.9c-1.3-1.5-1.3-1.5-5.4-2.4c-1.1,2.7-1.1,2.6-3.8,1.2   c-1.1-0.6-2.3-1.2-3.7-0.2c-0.6,0.5-1.6,0.4-2.6,0.6c-0.4-2.2,1.6-2.7,2.5-2.9c2.1-0.4,3.5-1.9,5.2-2.8c1.2-0.7,1.7-0.4,2.4,0.1   c2.5,1.3,4.9,0.7,6.9-1.7c-4.7,0.8-6.3,0.1-7.6-3.4c-0.9-0.5-1.6,0.8-2.5,0.4c0.3-1.1-2-1.1-1.2-2.4c0.8-1.5,1.9,0,3-0.3   C77.7,155.7,78,155.5,79,151.4z"></path>
	<path class="st0" d="M56.5,50.7c-1.8-0.2-2.6-1.8-4-2.6c-0.8-0.4-0.6-1.2,0.4-1.5c0.4-0.1,0.7-0.2,1.1-0.2c2.5-0.5,3.7-1.8,3.3-4.2   c-0.1-0.9-0.7-2-2-2c-0.6,0-1.3,0.2-1.9-0.3c1.2-1.2,1.1-1.1,3.6-0.2c1.2,0.4,1.9,1.7,3.4,1.5c0.1-1.1-1-1.3-1.1-2.2   c0.9-0.8,1.9,0.7,2.8-0.1c-1.5-2.2-3.6-3.3-6.1-3.8c0.2-1.2,1.5-0.5,1.6-1.4c0.8,0,0.7,3,1.9,0.5c0.3-0.6,0.9-1.2,0.6-2.1   c1.8,0.7,1.5,2.6,2.8,3.5c0.9-1.4,1.1-2.8,0.2-4.5c2,0.3,3,1.4,2.4,2.9c-0.5,1.2,0.1,2.8-1.6,3.8c-0.7,0.4-0.5,2.2-0.8,3.6   c1.3-0.1,2.1-2.5,3.6-0.7c0.6-0.9,1-1.6,1.5-2.4c1.4,0.6,0.4,2.1,1.2,2.9c0.4,0.1,0.7-0.2,0.9-0.5c0.6-0.8,1.5-1.5,2.4-1   c1.1,0.7,0.5,1.6-0.1,2.5c-0.3,0.5-0.3,1.1,0.4,1.6c1.1-0.5,0.6-2.1,1.7-2.6c0.8,0.5-0.3,1.3,0.3,2c1.2,0.3,2.7-2.1,3.7,0.2   c0.9-0.1,1.3-0.6,1.7-1.2c0.3-0.5,0.7-0.8,1.3-0.4c0.6,0.4,0.5,0.8,0.2,1.3c-1.1,1.9,0.4,1.5,2.1,1.6c-2.6,0.7-0.5,3-2.3,3.6   c1.9,1.7,2.2,3.6,0.8,5.4c-0.9,1-1.3,3.2-3.5,2c-2,2.4-4.8,0.8-7,1.4c-2.1,0.6-3.8-0.3-5.6-0.2c-0.8,0-1.5-0.1-2.3,0.2   c-0.7,0.3-1.6,0.5-2.3,0.4C59.9,57.2,56.6,52.9,56.5,50.7z"></path>
	<path class="st0" d="M64.2,133.5c-0.7-0.6-1.2-1-1.7-1.3c2.4-2.8,5.6-2.7,8.8-2.6c0.6,0,1,0.5,1,1c0,0.9,0.8,1,1.3,1.2   c2.1,0.9,2.8,3.2,1.3,5c1.5,0.5,1.8,1.9,1.3,1.6c-1.5-0.7-1,1-1.7,1.2c-2,0.7-3,2.1-3.5,4.3c-0.6,2.6-0.9,5.5-3.4,7.4   c-0.9,0.7-1.6,1.2-2.7,0.9c-2.6-0.7-5.1,0.1-7.7,0.7c-2.4,0.5-4.9,0.5-7.3-0.7c-0.9-0.4-1.5-0.9-1.4-1.9c0.2-1.3-1.1-0.3-1.3-1.1   c0-1.4,1.5-1.2,2.3-1.8c-0.4-0.7-1.4,0-2-1.1c3.7-0.6,5.9-3.8,9.7-4.5c-0.9-1.2-1.8-0.5-2.6-0.8c-0.3-0.6-0.7-1.2-1-1.8   c-0.2-0.4-0.2-1.2-0.1-1.2c2.1-0.9,2-2.9,2.7-4.6c0.5-1.3,1.7-1,2.5-0.2c0.5,0.4,0.7,1.2,1.2,1.5c1,0.7,2.2,2.1,3-0.3   C63,134.1,63.6,133.9,64.2,133.5z"></path>
	<path class="st0" d="M261.4,210.9c0.6,0.5,1.2,1,1.8,1.5c0.8,0,0.8-0.9,1.3-1.1c1.3,0.1,1.2,1.5,1.9,2.2c2.2,2.1,5.3,2.3,7.9,0.6   c0.9-0.6,1.8-0.6,3-0.4c-0.1,0.8-0.2,1.7,0.2,2.5c-1.1,1-2.3,1.2-3.4,0.7c-2.2-0.9-3.1,0.2-3.6,2.1c-0.1,0.4-0.2,0.7-0.4,1.2   c-1.5-1.2-2.8-0.5-3.2,0.7c-1,3.2-3,3.1-5.6,2c-0.7-1.4,1.1-3.6-0.8-4.5c-1.3-0.6-2.8-2.3-4.7-1c0.7-1.1,1.1-2.3,2.6-2.8   C260.3,214.3,261.2,212.7,261.4,210.9C261.4,210.9,261.4,210.9,261.4,210.9z"></path>
	<path class="st0" d="M120,258.7c-1.3-0.8-2.3-3.8-1.9-5.1c0.2-0.8,0.8-1,1.5-1.1c1.1-0.3,2.3-0.5,3.4-0.9c2.9-1.2,4.3,0.1,4.6,3.4   c0.1,1.9-1.8,2.9-1.3,4.8c0.2,0.9-0.5,2-0.7,3c-0.2,0.9,0.2,1.9-0.3,2.9c-1.2,0.3-2.1-0.6-3.3-0.6c-0.6,0.7-0.6,2.3-2.3,1.6   c-1.5-0.6-1.5-2-1.4-3.1C118.3,261.7,119.3,260.3,120,258.7z"></path>
	<path class="st0" d="M125.5,249.3c-3-2.5-3.3-7.4-0.8-8.9c0.9-0.5,2-1.3,3.1-0.6c1.1,0.7,0.8,2.1,0.5,3   C127.6,245,126.5,247,125.5,249.3z"></path>
	<path class="st0" d="M151.4,144.7c0.7,0.5-0.5,1.2,0.6,1.7c-0.1-1.3,2.9-0.7,1.7-2.9c0.6-0.4,1.2-0.5,1.9-0.2   c0.1,3.2-0.1,3.8-3.3,8.4c-0.4-1.9-3-0.7-3.2-3.1C148.8,146.3,150.2,145.7,151.4,144.7z"></path>
	<path class="st0" d="M148.4,135.3c-2-1.1-6.8-0.6-8.6,0.9c-0.7-1.7,0.4-2,1.6-1.9c1.8,0.1,3.3,0,4.4-2c0.8-1.4,2.6-1.4,4.5-2   c-1.1,1.1-0.5,1.9-0.4,2.8C150,134,149.1,134.5,148.4,135.3z"></path>
	<path class="st0" d="M271.7,37.3c-2.1,0.1-3.3-1.3-4.3-2.7c-0.5-0.7-0.3-1.8,0.3-2.5c1-1.2,2.2-0.1,3.3,0c1.1,0.1,1.2,1.2,1.1,2.1   C271.9,35.3,271.7,36.2,271.7,37.3z"></path>
	<path class="st0" d="M198.7,129c-1.9-0.8-1.1-2.1-0.6-3.7c1.3,2.2,2.7-0.8,4.1,0.5C202,127.9,199.8,127.9,198.7,129z"></path>
	<path class="st0" d="M146.6,146.9c0.7,0,1.3,0.6,1.3,1.8c0,0.8-0.1,1.6-1.2,1.4c-1-0.2-2.4-0.1-2.5-1.6   C144.2,147.1,145.2,146.9,146.6,146.9z"></path>
	<path class="st0" d="M87.6,258.1c-1-0.4-1.4-1.2-2-1.6c-0.5-0.4-1.3-0.5-2.2-0.8c1.4-0.5,2.8-0.2,3.6-1.8c0.8,1,1.1,2.2,2.5,2.3   C88.8,256.9,88.2,257.5,87.6,258.1z"></path>
	<path class="st0" d="M82.7,112.9c-1.1-1.5-1.8-0.7-2.5,0.1c0.2-3.1,1.2-3.9,4.3-3.5C84.5,110.9,82.6,111.1,82.7,112.9z"></path>
	<path class="st0" d="M180.4,50.3c-1.1-1-0.4-2.1,0.2-2.8c0.4-0.4,1.4-1.5,2.2-0.4c0.5,0.7,0.1,1.6-0.8,2.1   C181.4,49.5,180.9,49.9,180.4,50.3z"></path>
	<path class="st0" d="M83.5,115.2c-0.5,1.5-0.7,2.4-1,3.5c-1-0.8-1.8-1.8-1.5-2.8C81.3,114.6,82.5,116.2,83.5,115.2z"></path>
	<path class="st0" d="M107.9,104.7c-2.1-1.9,1.1-2.4,0.9-3.8C109.1,102.3,109.2,103.6,107.9,104.7z"></path>
</g>
<g>
	<rect class="st1" width="400" height="300"></rect>
</g>
<g>
	<rect x="122.9" y="138" transform="matrix(0.9052 -0.425 0.425 0.9052 -60.4634 71.393)" class="st2" width="13.8" height="66.4"></rect>
</g>
<g>
	<path class="st3" d="M247.6,217.2L247.6,217.2L222.6,47l-0.9-6.5c-1.1-7.8-7-6.6-7-6.6l-1.2,0.2L73.8,54.5l-1.2,0.2   c0,0-5.9,0.6-4.8,8.4l1,6.5l25,170.2l0,0l0.9,6.4c0,0,1,7.7,8.3,7.3v0.1l1.1-0.2l137.5-20.1l1.1-0.2V233c7.1-1.8,5.9-9.4,5.9-9.4   L247.6,217.2z"></path>
</g>
<g>
	
		<rect x="88.6" y="50.8" transform="matrix(0.9894 -0.145 0.145 0.9894 -18.6572 24.3408)" class="st4" width="138.1" height="178.7"></rect>
</g>
<g>
	<path class="st5" d="M132.9,150.5l-18,2.6c-2.1,0.3-4-1.2-4.3-3.3l-2.7-18.5c-0.3-2.1,1.1-4,3.2-4.3l18-2.6c2.1-0.3,4,1.2,4.3,3.3   l2.7,18.5C136.3,148.2,134.9,150.2,132.9,150.5z M111.3,129.1c-0.9,0.2-1.6,1-1.4,2l0,0l2.7,18.5c0.1,0.9,1,1.6,1.9,1.5l18-2.6   c0.9-0.2,1.6-1,1.4-2l0,0l-2.7-18.5c-0.1-0.9-1-1.6-1.9-1.5L111.3,129.1z"></path>
</g>
<g>
	<polygon class="st6" points="121.5,149.9 112.1,139.8 114.1,137.9 121.4,145.8 139.1,126.1 141.1,127.9  "></polygon>
</g>
<g>
	
		<rect x="142.7" y="119.2" transform="matrix(0.9894 -0.145 0.145 0.9894 -16.0598 24.9809)" class="st7" width="41.3" height="6.9"></rect>
</g>
<g>
	<rect x="143.8" y="127.4" transform="matrix(0.9894 -0.145 0.145 0.9894 -16.8442 27.2176)" class="st8" width="69" height="3.5"></rect>
</g>
<g>
	
		<rect x="145.6" y="133.5" transform="matrix(0.9887 -0.1498 0.1498 0.9887 -18.2268 28.5125)" class="st8" width="69.1" height="3.5"></rect>
</g>
<g>
	<rect x="145.9" y="141.4" transform="matrix(0.9894 -0.145 0.145 0.9894 -18.8506 27.6709)" class="st8" width="69" height="3.5"></rect>
</g>
<g>
	<path class="st5" d="M137.7,183.2l-18,2.6c-2.1,0.3-4-1.2-4.3-3.3l-2.7-18.6c-0.3-2.1,1.1-4,3.2-4.4l18-2.6c2.1-0.3,4,1.2,4.3,3.3   l2.7,18.5C141.2,180.9,139.8,182.8,137.7,183.2L137.7,183.2z M116.1,161.8c-0.9,0.2-1.5,1.1-1.4,2l0,0l2.7,18.5   c0.1,0.9,1,1.6,1.9,1.5l18-2.6c0.9-0.2,1.5-1,1.4-2l0,0l-2.7-18.5c-0.1-0.9-1-1.6-1.9-1.5L116.1,161.8z"></path>
</g>
<g>
	<polygon class="st6" points="126.3,182.6 116.9,172.5 118.9,170.6 126.2,178.5 143.9,158.8 145.9,160.6  "></polygon>
</g>
<g>
	
		<rect x="147.5" y="151.9" transform="matrix(0.9894 -0.145 0.145 0.9894 -20.7505 26.0225)" class="st7" width="41.3" height="6.9"></rect>
</g>
<g>
	<rect x="148.6" y="160.1" transform="matrix(0.9894 -0.145 0.145 0.9894 -21.5346 28.2589)" class="st8" width="69" height="3.5"></rect>
</g>
<g>
	<rect x="149.6" y="167" transform="matrix(0.9894 -0.145 0.145 0.9894 -22.5249 28.4771)" class="st8" width="69" height="3.5"></rect>
</g>
<g>
	<rect x="150.7" y="174.1" transform="matrix(0.9894 -0.145 0.145 0.9894 -23.5412 28.7125)" class="st8" width="69" height="3.5"></rect>
</g>
<g>
	<path class="st5" d="M142.6,216.6l-18,2.6c-2.1,0.3-4-1.2-4.3-3.3l-2.7-18.5c-0.3-2.1,1.1-4.1,3.2-4.4l0,0l18-2.6   c2.1-0.3,4,1.2,4.3,3.3l2.7,18.5C146.1,214.3,144.7,216.3,142.6,216.6L142.6,216.6z M121,195.2c-0.9,0.2-1.6,1-1.4,2l0,0l2.7,18.5   c0.1,0.9,1,1.6,1.9,1.5l18-2.6c0.9-0.2,1.6-1,1.4-2l0,0l-2.7-18.6c-0.1-0.9-1-1.6-1.9-1.5L121,195.2z"></path>
</g>
<g>
	<polygon class="st6" points="131.2,216 121.8,205.9 123.8,204.1 131.1,211.9 148.8,192.2 150.8,194.1  "></polygon>
</g>
<g>
	
		<rect x="152.4" y="185.3" transform="matrix(0.9894 -0.145 0.145 0.9894 -25.5421 27.0848)" class="st7" width="41.3" height="6.9"></rect>
</g>
<g>
	<rect x="153.5" y="193.6" transform="matrix(0.9894 -0.145 0.145 0.9894 -26.3404 29.3246)" class="st8" width="69" height="3.5"></rect>
</g>
<g>
	<rect x="154.5" y="200.5" transform="matrix(0.9894 -0.145 0.145 0.9894 -27.3305 29.5428)" class="st8" width="69" height="3.5"></rect>
</g>
<g>
	<rect x="155.6" y="207.5" transform="matrix(0.9894 -0.145 0.145 0.9894 -28.3329 29.7747)" class="st8" width="69" height="3.5"></rect>
</g>
<g>
	<path class="st9" d="M162.7,40.8L133,45.1c-2.2,0.3-3.6,3.2-3.2,6.3l0,0l1.3,9.1l37.7-5.5l-1.3-9.1l0,0   C167.1,42.8,164.9,40.5,162.7,40.8z"></path>
</g>
<g>
	<path class="st9" d="M153.8,37.8c-0.5-3.6-3.9-6.2-7.6-5.6s-6.2,3.9-5.6,7.6l0,0l0.1,0.4l0.1,0.6l1.8,12.2l13.2-1.9L154,38.8   l-0.1-0.6L153.8,37.8L153.8,37.8z M147.6,40.9c-1.6,0.4-3.2-0.7-3.6-2.3s0.7-3.2,2.3-3.6c1.6-0.4,3.2,0.7,3.6,2.3   c0,0.1,0,0.1,0,0.2C150.2,39.1,149.1,40.6,147.6,40.9L147.6,40.9z"></path>
</g>
<g>
	<rect x="110.6" y="57.5" transform="matrix(0.9894 -0.145 0.145 0.9894 -6.948 22.3933)" class="st10" width="79.1" height="2.7"></rect>
</g>
<g>
	<path class="st9" d="M182,46.1l-66,9.7c-3.5,0.7-5.8,4-5.1,7.5l78.2-11.5C188.7,48.3,185.6,45.7,182,46.1L182,46.1z"></path>
</g>
<g>
	<path class="st11" d="M151.1,204.7c2.4,16.2,4.7,32.3,7.1,48.5c0.2,1-0.1,2-0.7,2.8c-0.5,0.5-1.1,0.9-1.8,1.1   c-0.2,0-0.4,0.1-0.6,0.1L76,268.8c-1,0.2-2.1-0.1-2.9-0.7c-0.5-0.5-0.8-1.1-1-1.7c-0.1-0.2-0.1-0.4-0.1-0.5   c-4.7-32.3-9.5-64.6-14.2-96.8c-0.2-1,0-2,0.7-2.8c0.5-0.6,1.1-1,1.9-1.2c0.1,0,0.3-0.1,0.4-0.1l79.2-11.6c1-0.2,2,0.1,2.8,0.7   c0.5,0.5,0.8,1,1,1.7c0.1,0.2,0.1,0.4,0.1,0.7L151.1,204.7z M105.7,195.3c10.9-1.6,21.9-3.2,32.9-4.8c1.6-0.3,2.8-1.8,2.6-3.5   c-0.6-4.6-1.3-9.2-2-13.8c-0.1-0.7-0.4-1.4-1-1.8c-0.9-0.7-2.1-1.1-3.3-0.9l-63.3,9.3c-0.7,0.1-1.4,0.2-2,0.5   c-1.5,0.5-2.5,2.1-2.3,3.7c0.7,4.4,1.3,8.9,2,13.3c0.1,0.9,0.6,1.6,1.3,2.1c0.7,0.5,1.6,0.8,2.4,0.6L105.7,195.3z M138.1,244.6   c-0.4-2.6-0.8-5.2-1.2-7.9c0-0.8-0.7-1.4-1.5-1.4c-0.1,0-0.2,0-0.2,0c-2.4,0.4-4.9,0.7-7.3,1.1c-0.5,0-0.9,0.4-1.1,0.9   c-0.1,0.3-0.1,0.7,0,1.1c0.7,5,1.5,10.1,2.2,15.1c0,0.2,0,0.4,0.1,0.6c0.1,0.4,0.3,0.7,0.7,0.9c0.3,0.2,0.6,0.2,0.8,0.1   c2.4-0.4,4.9-0.7,7.3-1c0.4-0.1,0.8-0.3,1-0.7c0.3-0.3,0.4-0.7,0.3-1.1C138.9,249.8,138.5,247.2,138.1,244.6z M108.3,258.4l3.4-0.5   c0.4-0.1,0.8-0.1,1-0.5c0.3-0.4,0.5-0.9,0.4-1.4c-0.2-1.7-0.5-3.3-0.7-5c0-0.2-0.1-0.3-0.2-0.5c-0.4-0.7-1.2-1-1.9-0.8   c-2.2,0.3-4.4,0.6-6.7,1c-1,0.2-1.7,1.2-1.6,2.2c0.2,1.5,0.4,3,0.7,4.6c0.1,0.9,0.9,1.6,1.8,1.5c0.1,0,0.1,0,0.2,0   C106,258.8,107.2,258.6,108.3,258.4L108.3,258.4z M93.8,249.9l3.4-0.5c0.5-0.1,0.9-0.4,1.2-0.8c0.4-0.4,0.3-0.7,0.2-1.1l-0.7-4.9   c0-0.1,0-0.3-0.1-0.4c-0.1-0.4-0.4-0.7-0.7-0.9c-0.3-0.2-0.6-0.1-0.8-0.1l-7.5,1.1c-0.3,0-0.6,0-0.8,0.3c-0.3,0.3-0.4,0.8-0.4,1.2   l0.8,5.5c0,0.1,0,0.3,0.1,0.4c0.5,0.5,1.2,0.8,1.9,0.7C91.5,250.2,92.7,250.1,93.8,249.9z M130.1,225.3l-3.7,0.5   c-0.8,0.1-1.3,0.8-1.2,1.5v0.1c0.3,1.8,0.6,3.7,0.8,5.5c0,0.3,0.2,0.6,0.5,0.8s0.7,0.3,1.1,0.2c2.4-0.4,4.9-0.7,7.3-1.1   c0.7,0,1.3-0.6,1.3-1.4c0-0.1,0-0.2,0-0.3c-0.2-1.8-0.5-3.5-0.8-5.3c-0.1-0.5-0.4-0.7-0.7-0.9c-0.3-0.3-0.6-0.4-1-0.3   C132.5,225,131.3,225.1,130.1,225.3L130.1,225.3z M90.6,228.6l3.9-0.6c0.7-0.1,1.1-0.7,1.1-1.4l-0.8-5.3c0-0.2-0.1-0.4-0.2-0.6   c-0.4-0.7-1.2-1-1.9-0.8c-1.3,0.2-2.7,0.4-4,0.6c-0.9,0.1-1.8,0.2-2.8,0.4c-0.8,0.2-1.4,0.9-1.3,1.7c0.2,1.9,0.5,3.7,0.8,5.5   c0.1,0.4,0.3,0.7,0.7,0.9c0.3,0.3,0.6,0.1,0.8,0.1L90.6,228.6z M120,248.3c-1.1,0.2-2.3,0.3-3.4,0.5c-0.9,0.1-1.5,0.9-1.4,1.8   c0.2,1.7,0.5,3.5,0.8,5.2c0.1,0.5,0.8,1.3,1.3,1.2c0.6,0,1.3,0,1.9,0c1.5-0.3,3-0.5,4.5-0.7c0.5-0.1,0.9-0.2,1.3-0.4   c0.9-0.3,1.5-1.2,1.3-2.2c-0.2-1.4-0.4-2.9-0.7-4.3c-0.1-1.1-1.1-1.9-2.2-1.7h-0.1C122.3,248,121.1,248.1,120,248.3z M119.7,246.1   l3.4-0.5c0.6-0.1,1.1-0.4,1.4-0.9c0.2-0.4,0.3-0.9,0.2-1.3c-0.2-1.5-0.5-3-0.7-4.6c-0.1-0.7-0.6-1.3-1.2-1.5   c-0.2-0.1-0.7-0.3-1-0.1s-0.6,0.3-0.9,0.3c-2,0.3-4,0.6-6,0.9c-0.8,0-1.4,0.6-1.4,1.4c0,0.1,0,0.3,0.1,0.4c0.2,1.6,0.5,3.3,0.7,4.9   c0.1,0.9,0.9,1.6,1.8,1.6c0.1,0,0.1,0,0.2,0L119.7,246.1z M105.6,239.8l-3.8,0.6c-0.3,0-0.6,0-0.8,0.3s-0.7,0.8-0.6,1.4   c0.2,1.7,0.4,3.4,0.8,5.1c0.1,0.4,0.2,0.9,0.6,1c0.5,0.3,1.1,0.4,1.6,0.3c2.2-0.4,4.4-0.7,6.6-1c0.9-0.1,1.6-0.9,1.5-1.9   c0-0.1,0-0.1,0-0.2c-0.2-1.6-0.5-3.2-0.7-4.9c0-0.8-0.6-1.4-1.4-1.4c-0.1,0-0.3,0-0.4,0.1C108,239.4,106.8,239.6,105.6,239.8   L105.6,239.8z M105.3,237.3c1.2-0.2,2.4-0.4,3.6-0.5c0.5,0,0.7-0.4,0.9-0.7c0.3-0.3,0.4-0.7,0.4-1.1c-0.3-1.6-0.5-3.3-0.7-4.9   c-0.1-0.9-0.9-1.6-1.9-1.6h-0.1c-2.3,0.3-4.6,0.7-6.9,1c-0.5,0.1-0.9,0.3-1.2,0.7c-0.3,0.4-0.4,0.8-0.3,1.3   c0.2,1.6,0.4,3.2,0.7,4.8c0.1,0.9,0.9,1.6,1.8,1.5c0.1,0,0.2,0,0.3,0L105.3,237.3z M128.6,214.6c-1.2,0.2-2.4,0.4-3.7,0.5   c-0.6,0.1-0.8,0.5-1.2,0.9c-0.2,0.3-0.3,0.6-0.2,0.9c0.2,1.7,0.5,3.5,0.8,5.2c0,0.4,0.2,0.7,0.5,0.9s0.7,0.4,1.1,0.3   c0.2-0.1,0.5-0.1,0.7,0c0.3,0.1,0.7,0.1,0.9-0.1c0.2-0.2,0.4-0.2,0.7-0.3c1.3-0.2,2.6-0.4,3.9-0.6c0.4-0.1,0.7,0.3,1,0.1   s0.8-0.2,1.1-0.7c0.3-0.4,0.4-0.9,0.3-1.3c-0.3-1.6-0.5-3.2-0.7-4.9c-0.1-0.9-0.9-1.6-1.8-1.6c-0.1,0-0.1,0-0.2,0L128.6,214.6z    M92.2,239.2l3.5-0.5c0.8,0,1.4-0.6,1.4-1.4c0-0.1,0-0.2,0-0.4c-0.2-1.7-0.5-3.4-0.7-5.1c0-0.3-0.1-0.6-0.4-0.8   c-0.4-0.3-0.9-0.5-1.4-0.5c-2.4,0.3-4.7,0.7-7.1,1.1c-0.8,0.2-1.4,0.9-1.3,1.8c0.2,1.8,0.5,3.5,0.8,5.3c0,0.1,0,0.3,0.1,0.4   c0.5,0.5,1.2,0.8,1.9,0.7C90,239.5,91.1,239.4,92.2,239.2z M115.4,216.6c-1.1,0.2-2.3,0.3-3.4,0.5c-0.9,0.1-1.5,0.9-1.4,1.7   c0.2,1.8,0.5,3.6,0.8,5.4c0.1,0.7,0.7,1.2,1.4,1.1h0.1c2.1-0.3,4.2-0.6,6.3-0.9c0.3,0,0.7-0.3,1.1,0c0,0,0.2,0,0.3-0.1   c0.7-0.4,1.2-1.2,1.1-2c-0.2-1.6-0.4-3.1-0.7-4.6c-0.2-1.1-1.2-1.8-2.3-1.6L115.4,216.6z M118.2,235.4l3.7-0.5   c0.8-0.1,1.1-0.5,1.3-1.3c0.1-0.3,0.1-0.7,0-1c-0.2-1.4-0.4-2.7-0.6-4.1c0-1-0.8-1.7-1.7-1.8c-0.2,0-0.3,0-0.5,0.1l-6.7,1   c-0.9,0.1-1.7,0.9-1.6,1.8c0,0.1,0,0.2,0.1,0.3c0.2,1.6,0.5,3.2,0.7,4.9c0.1,0.5,0.4,0.7,0.7,0.9c0.3,0.3,0.6,0.4,1,0.4   C115.7,235.8,117,235.6,118.2,235.4z M144.7,234l-3.6,0.5c-0.4,0.1-0.8,0.1-1,0.5c-0.3,0.4-0.5,0.9-0.4,1.4   c0.2,1.6,0.4,3.2,0.7,4.8c0,0.5,0.3,1,0.7,1.3c0.4,0.2,0.9,0.3,1.3,0.3c2.4-0.4,4.7-0.7,7.1-1.1c0.8-0.2,1.4-1,1.3-1.8   c-0.2-1.7-0.5-3.4-0.7-5.1c-0.1-0.5-0.5-0.8-0.9-1.1s-0.6-0.2-0.9-0.1L144.7,234z M146.3,244.5l-3.4,0.5c-0.5,0.1-0.9,0.3-1.3,0.7   c-0.2,0.4-0.4,0.9-0.3,1.4c0.2,1.6,0.4,3.2,0.7,4.9c0.1,0.7,0.7,1,1.3,1.4c0.5-0.2,1.1,0.1,1.6,0c2-0.3,3.9-0.6,5.9-0.9   c0.3,0,0.6-0.2,0.9-0.4c0.6-0.5,1-1.2,0.8-2c-0.3-1.5-0.5-3-0.7-4.5c-0.1-0.9-0.9-1.6-1.8-1.6c-0.1,0-0.1,0-0.2,0L146.3,244.5z    M103.6,226.7c1.2-0.2,2.4-0.4,3.7-0.5c0.8,0,1.4-0.6,1.4-1.4c0-0.1,0-0.2,0-0.3c-0.2-1.7-0.5-3.3-0.7-5c-0.1-0.9-0.9-1.6-1.8-1.5   c-0.1,0-0.1,0-0.2,0c-2.3,0.3-4.5,0.7-6.8,1c-0.2,0-0.5,0.1-0.7,0.3c-0.7,0.4-1.1,1.3-0.9,2.1c0.2,1.4,0.4,2.8,0.6,4.2   c0.1,0.4,0.2,0.7,0.4,1c0.3,0.6,0.9,0.8,1.5,0.7C101.2,227,102.4,226.9,103.6,226.7z M76.5,222.3l-3.7,0.5   c-0.9,0.1-1.5,0.9-1.4,1.8c0.2,1.7,0.5,3.4,0.8,5.1c0.2,1,1.1,1.6,2.1,1.5c2.2-0.3,4.5-0.7,6.8-1c0.9-0.3,1.6-1.2,1.6-2.1   c-0.3-1.6-0.4-3.2-0.8-4.8c-0.1-0.5-0.2-1.3-1-1.3c-0.3-0.4-0.7-0.3-1.1-0.2L76.5,222.3z M142.5,221l3.9-0.6c0.2,0,0.4,0,0.5-0.1   c0.5-0.5,0.8-1.2,0.7-1.9c-0.3-1.5-0.4-3-0.7-4.5c0-0.9-0.8-1.7-1.8-1.6c-0.1,0-0.2,0-0.3,0l-6.8,1c-1,0.1-1.7,0.9-1.6,1.9   c0.2,1.7,0.5,3.4,0.7,5.1c0.1,0.6,0.6,0.8,0.9,1.1s0.6,0.1,0.8,0.1L142.5,221z M144.2,231.6l3.8-0.6c0.2,0,0.4,0,0.5-0.1   c0.5-0.4,0.8-1.1,0.7-1.7c-0.3-1.6-0.5-3.3-0.7-4.9c-0.1-0.9-1-1.6-1.9-1.4l0,0l-1.4,0.2c-1.9,0.3-3.8,0.5-5.7,0.8   c-0.9,0.1-1.5,0.9-1.4,1.7c0.2,1.7,0.5,3.5,0.8,5.2c0.1,0.6,0.6,0.8,0.9,1.1s0.6,0.2,0.9,0.1L144.2,231.6z M95.2,260.4   c1.3-0.2,2.6-0.4,3.9-0.6c0.3,0,0.6,0,0.8-0.3c0.3-0.3,0.4-0.8,0.4-1.2c-0.3-1.9-0.5-3.7-0.8-5.5c0-0.1,0-0.3-0.1-0.4   c-0.5-0.5-1.1-0.7-1.8-0.7c-2.3,0.4-4.6,0.7-6.9,1c-0.9,0.1-1.6,1-1.4,1.9l0,0c0.2,1.5,0.4,2.9,0.7,4.4c0,0.3,0.1,0.6,0.1,0.9   c0.1,0.4,0.4,0.7,0.7,0.9c0.3,0.3,0.6,0.1,0.8,0.1L95.2,260.4z M79.2,241.2c1.3-0.2,2.5-0.4,3.8-0.6c0.2,0,0.4,0,0.5-0.1   c0.5-0.5,0.7-1.2,0.7-1.9c-0.3-1.5-0.4-3-0.7-4.6c0-0.9-0.9-1.7-1.8-1.6c-0.1,0-0.2,0-0.3,0l-7,1c-0.3,0.1-0.6,0-0.9,0.4   s-0.6,0.8-0.5,1.4c0.2,1.7,0.5,3.5,0.8,5.2c0.1,0.6,0.6,0.8,0.9,1.1s0.6,0.1,0.8,0.1L79.2,241.2z M80.8,251.8l3.3-0.5   c0.9,0,1.7-0.8,1.6-1.7c0-0.1,0-0.2,0-0.3c-0.2-1.7-0.5-3.3-0.7-5c-0.1-0.5-0.4-0.7-0.6-1.1c-0.1-0.2-0.5-0.2-0.8-0.2   c-0.5-0.1-0.9-0.1-1.4,0c-2,0.3-3.9,0.6-5.9,0.9c-1.1,0.1-1.9,1.1-1.8,2.2v0.1c0.2,1.6,0.4,3.1,0.7,4.7c0.1,0.9,0.9,1.6,1.9,1.5   c0.1,0,0.1,0,0.2,0C78.5,252.1,79.7,252,80.8,251.8L80.8,251.8z M81.1,254l-3.4,0.5c-0.9,0.1-1.6,0.9-1.5,1.9c0,0.1,0,0.1,0,0.2   c0.2,1.5,0.4,3,0.7,4.5c0.1,1.1,1.1,1.9,2.2,1.8c0.1,0,0.1,0,0.2,0c2.1-0.3,4.2-0.6,6.3-0.9c1.1-0.1,1.9-1.2,1.8-2.3v-0.1   c-0.3-1.5-0.4-3-0.7-4.6c-0.1-0.9-0.9-1.6-1.8-1.6c-0.1,0-0.1,0-0.2,0L81.1,254z M128,211.5c1-0.1,2.1-0.3,3.1-0.4   c0.6,0,1.1-0.3,1.4-0.8c0.2-0.3,0.3-0.6,0.3-1c-0.2-1-0.3-1.9-0.4-2.9c-0.1-0.7-0.8-1.3-1.5-1.2c-0.6,0-1.1,0-1.7,0.1   c-1.2,0.1-2.4,0.3-3.7,0.5c-0.2,0-0.3,0.4-0.5,0.3c-0.7-0.5-1.1,0.2-1.7,0.4s-0.8,0.7-0.7,1.4c0.1,1,0.3,2,0.4,3   c0.2,0.7,0.9,1.2,1.6,1.2L128,211.5z M141.1,209.6c1.1-0.2,2.2-0.3,3.3-0.5c0.9-0.1,1.5-1,1.4-1.9s-0.2-1.7-0.4-2.6   c-0.1-0.7-0.6-1.3-1.3-1.4c-1-0.2-2.1-0.1-3.1,0.3c-0.5,0.2-1,0.3-1.4,0.2c-0.6-0.1-1.2,0-1.7,0.3c-0.1,0.1-0.2,0.2-0.4,0.1   c-0.6-0.4-1,0.1-1.3,0.4c-0.5,0.3-0.8,0.9-0.5,1.4c0,0.1,0,0.1,0,0.2c-0.4,1.2,0.4,2.2,0.5,3.3c0,0.1,0.1,0.2,0.2,0.2   c0.4,0.3,0.9,0.5,1.4,0.4C138.9,209.9,140,209.8,141.1,209.6L141.1,209.6z M102.1,215.3l3.3-0.5c0.3-0.1,0.6,0,0.8-0.4   s0.6-0.8,0.5-1.3c-0.1-1-0.2-1.9-0.4-2.9c-0.1-0.5-0.9-1.3-1.3-1.3s-1.1-0.1-1.7,0c-0.6,0.2-1.2,0.3-1.8,0.3   c-1.2,0.1-2.3,0.2-3.4,0.5c-1.1,0.2-1.8,1.2-1.7,2.2c0,0.7,0.2,1.5,0.3,2.2c0.3,1,0.9,1.8,2.1,1.6   C99.9,215.6,101,215.5,102.1,215.3L102.1,215.3z M114.9,213.5l3.3-0.5c1-0.1,1.2-0.5,1.4-1.4c0.1-1.1,0-2.1-0.3-3.1   c-0.1-0.5-0.5-1-1-1.2c-0.4-0.2-0.9-0.3-1.3-0.2c-1.4,0.2-2.8,0.4-4.2,0.6c-0.8,0.1-1.5,0.2-2.2,0.5c-0.3,0.1-0.6,0.4-0.8,0.7   c-0.3,0.3-0.4,0.7-0.4,1.1c0.1,0.9,0.3,1.8,0.4,2.8c0.1,0.6,0.5,0.8,0.9,1.1s0.6,0.2,0.9,0.1L114.9,213.5z"></path>
</g>
<g>
	<path class="st12" d="M105.7,195.3L73,200.1c-0.9,0.1-1.7-0.1-2.4-0.6c-0.7-0.5-1.2-1.3-1.3-2.1c-0.7-4.4-1.3-8.9-2-13.3   c-0.2-1.6,0.7-3.2,2.3-3.7c0.6-0.2,1.3-0.4,2-0.5l63.3-9.3c1.2-0.2,2.4,0.1,3.3,0.9c0.6,0.4,0.9,1.1,1,1.8c0.7,4.6,1.4,9.2,2,13.8   c0.1,1.7-1,3.2-2.6,3.5C127.6,192.1,116.7,193.7,105.7,195.3z"></path>
</g>
<g>
	<path class="st13" d="M138.1,244.6c0.4,2.6,0.7,5.1,1.1,7.6c0.1,0.4-0.1,0.8-0.3,1.1c-0.2,0.4-0.6,0.6-1,0.7   c-2.4,0.3-4.9,0.7-7.3,1c-0.3,0-0.6,0.1-0.8-0.1c-0.3-0.2-0.5-0.6-0.7-0.9c0-0.2-0.1-0.4-0.1-0.6c-0.7-5-1.5-10-2.2-15.1   c-0.1-0.3-0.1-0.7,0-1.1c0.1-0.5,0.5-0.9,1.1-0.9c2.4-0.3,4.9-0.7,7.3-1.1c0.8-0.2,1.6,0.3,1.7,1.1c0,0.1,0,0.2,0,0.2   C137.4,239.4,137.7,242,138.1,244.6z M133.4,247.9c0.6-0.1,0.6-0.1,0.5-0.8c0-0.4-0.3-0.9-0.1-1.2s0.8-0.2,1.2-0.3   c0.8-0.2,0.7,0,0.6-0.8c-0.1-0.6-0.1-0.6-0.7-0.6l-1.1,0.2c-0.2,0-0.3,0-0.3-0.2c-0.1-0.5-0.1-1-0.2-1.4c0-0.2-0.1-0.3-0.4-0.2   c-1,0.1-1,0.1-0.9,1.1l0.1,0.4c0.1,0.6,0.1,0.6-0.5,0.7c-0.4,0.1-0.7,0.1-1.1,0.2s-0.3,0.1-0.3,0.4c0.1,0.3,0.1,0.5,0.1,0.8   c0,0.2,0.1,0.2,0.3,0.2l1.7-0.2c0.2,0.6,0.3,1.1,0.3,1.7c0,0.2,0.1,0.2,0.3,0.2L133.4,247.9z"></path>
</g>
<g>
	<path class="st13" d="M108.3,258.4c-1.2,0.2-2.4,0.4-3.6,0.5c-0.9,0.2-1.8-0.4-2-1.3c0-0.1,0-0.1,0-0.2c-0.2-1.5-0.4-3-0.7-4.6   c-0.1-1,0.6-2,1.6-2.2c2.2-0.3,4.4-0.7,6.7-1c0.7-0.2,1.5,0.1,1.9,0.8c0.1,0.1,0.2,0.3,0.2,0.5c0.2,1.7,0.5,3.3,0.7,5   c0,0.5-0.1,1-0.4,1.4c-0.2,0.4-0.6,0.5-1,0.5L108.3,258.4z M107.9,254.9c0.3,0,0.4-0.1,0.3-0.4s-0.3-0.7-0.5-0.7s-0.7,0.5-0.6,0.7   C107.2,254.8,107.4,254.9,107.9,254.9z"></path>
</g>
<g>
	<path class="st14" d="M93.8,249.9c-1.1,0.2-2.2,0.3-3.3,0.5c-0.7,0.1-1.4-0.2-1.9-0.7c-0.2-0.1-0.1-0.3-0.1-0.4l-0.8-5.5   c0-0.4,0.1-0.8,0.4-1.2c0.2-0.3,0.5-0.3,0.8-0.3l7.5-1.1c0.3,0,0.6-0.1,0.8,0.1c0.3,0.2,0.5,0.6,0.7,0.9c0,0.1,0.1,0.3,0.1,0.4   l0.7,4.9c0,0.4,0.1,0.8-0.2,1.1c-0.3,0.4-0.7,0.7-1.2,0.8L93.8,249.9z M93.5,245.3c-0.1-0.5-0.2-1-0.2-1.6c0-0.3-0.2-0.3-0.4-0.3   c-0.6-0.1-0.6,0.6-1,0.7c-0.2,0.1,0.1,0.8,0.3,0.8c0.5-0.1,0.5,0.1,0.5,0.5s0.1,1,0.2,1.4s0.1,0.6-0.4,0.6c-0.3,0-0.2,0.3-0.1,0.4   s0.1,0.2,0.3,0.2l1.7-0.2c0.2,0,0.3,0,0.3-0.2s0-0.5-0.2-0.4c-0.6,0.1-0.6-0.2-0.6-0.6S93.6,245.7,93.5,245.3z"></path>
</g>
<g>
	<path class="st15" d="M130.1,225.3c1.2-0.2,2.4-0.3,3.7-0.6c0.4-0.1,0.7,0.1,1,0.3s0.6,0.4,0.7,0.9c0.2,1.8,0.5,3.5,0.8,5.3   c0.2,0.7-0.3,1.4-1,1.6c-0.1,0-0.2,0-0.3,0c-2.4,0.4-4.9,0.7-7.3,1.1c-0.4,0-0.8,0-1.1-0.2c-0.3-0.2-0.5-0.5-0.5-0.8   c-0.2-1.9-0.5-3.7-0.8-5.5c-0.1-0.8,0.3-1.5,1.1-1.6h0.1L130.1,225.3z M130.6,228.9c-0.8,0.1-1.5,0.2-2.3,0.3   c-0.2,0-0.4,0.1-0.3,0.3c0,0.1,0,0.1,0,0.2c0.1,0.6,0.1,0.6,0.6,0.5l4.2-0.6c0.6-0.1,0.6-0.1,0.5-0.7c0-0.4-0.1-0.6-0.5-0.4   C132.1,228.7,131.3,228.7,130.6,228.9z"></path>
</g>
<g>
	<path class="st13" d="M90.6,228.6l-3.8,0.6c-0.3,0-0.6,0.1-0.8-0.1c-0.3-0.2-0.6-0.5-0.7-0.9c-0.3-1.8-0.6-3.7-0.8-5.5   c0-0.8,0.6-1.5,1.3-1.7c0.9-0.2,1.8-0.3,2.8-0.4c1.3-0.2,2.7-0.4,4-0.6c0.7-0.2,1.5,0.1,1.9,0.8c0.1,0.2,0.2,0.4,0.2,0.6l0.8,5.3   c0.1,0.7-0.4,1.3-1.1,1.4L90.6,228.6z M89.7,222.4c-0.4,0.1-0.8,0.1-1.2,0.2s-0.3,0.2-0.3,0.4s0,0.6,0.4,0.5s0.9-0.1,1.3-0.2   c0.1,0,0.2-0.1,0.3,0s-0.1,0.2-0.1,0.3c-0.5,0.9-0.8,2-0.7,3c0,0.2,0,0.4,0.3,0.4s0.6,0.1,0.6-0.3c0-0.2,0.2-0.4,0.2-0.6   c-0.1-1,0.1-2,0.7-2.8c0.1-0.2,0.2-0.5,0.2-0.7s-0.1-0.4-0.4-0.3S90.1,222.3,89.7,222.4z"></path>
</g>
<g>
	<path class="st14" d="M120,248.3c1.1-0.2,2.2-0.3,3.3-0.5c1.1-0.2,2.1,0.5,2.3,1.6v0.1c0.2,1.4,0.4,2.9,0.7,4.3   c0.2,0.9-0.4,1.9-1.3,2.1c-0.4,0.2-0.9,0.3-1.3,0.4c-1.5,0.2-3,0.4-4.5,0.7c-0.6,0-1.3,0-1.9,0c-0.4,0-1.2-0.8-1.3-1.2   c-0.3-1.7-0.5-3.5-0.8-5.2c-0.1-0.9,0.5-1.7,1.4-1.8C117.7,248.6,118.9,248.5,120,248.3z M120.5,252.9c0-0.1,0-0.3-0.3-0.3   c-0.1,0-0.2,0-0.3,0c-0.7,0.1-0.8,0-0.9-0.6c0-0.1,0-0.2,0-0.3c0-0.3-0.2-0.2-0.4-0.2s-0.3,0.1-0.3,0.4c0,0.1,0.1,0.3,0.1,0.4   c0,0.4-0.1,0.6-0.5,0.7c-0.2,0-0.4,0.1-0.6,0.1s-0.2,0.2-0.1,0.4s0,0.3,0.2,0.3c0.1,0,0.2,0,0.3-0.1c0.2,0,0.6-0.1,0.8,0   s0.1,0.5,0.2,0.7s0.1,0.3,0.3,0.3s0.4-0.1,0.3-0.4c0-0.7,0-0.7,0.6-0.9l0.3-0.1C120.6,253.2,120.5,253,120.5,252.9L120.5,252.9z    M120.9,254.4c0,0.1,0,0.3,0.1,0.4c0,0.1,0.1,0.1,0.1,0.1s0.2,0,0.3-0.1c0.1-0.1,0.2-0.3,0.2-0.5c0.1-0.9,0.2-1.7,0.3-2.6   c0.1-0.5,0.2-1,0.2-1.5c0-0.3-0.2-0.5-0.5-0.3c-0.2,0.1-0.4,0.3-0.4,0.6c0,0.8-0.1,1.5-0.2,2.3   C120.9,253.3,120.7,253.9,120.9,254.4L120.9,254.4z M123.4,253c0.2,0,0.4,0,0.6,0c0.3,0,0.3-0.2,0.3-0.4c-0.1-0.5-0.1-0.5-0.5-0.4   l-1,0.1c-0.2,0-0.3,0.1-0.3,0.3c0.1,0.6,0.1,0.6,0.7,0.5L123.4,253z"></path>
</g>
<g>
	<path class="st14" d="M119.7,246.1l-3.3,0.5c-0.9,0.2-1.8-0.5-2-1.4c0-0.1,0-0.1,0-0.2c-0.2-1.6-0.5-3.2-0.7-4.9   c-0.2-0.7,0.2-1.5,0.9-1.7c0.1,0,0.2-0.1,0.4-0.1c2-0.3,4-0.6,6-0.9c0.3,0,0.7-0.1,0.9-0.3c0.2-0.2,0.7,0,1,0.1   c0.7,0.3,1.1,0.8,1.2,1.5c0.2,1.5,0.4,3,0.7,4.6c0.1,0.4,0,0.9-0.2,1.3c-0.3,0.5-0.8,0.8-1.4,0.9L119.7,246.1z M118.9,239.6   c-0.1,0-0.3,0-0.4,0c-0.5,0-0.6,0.3-0.8,0.6c-0.1,0.2-0.1,0.5,0.1,0.7s0.5,0,0.7,0s0-0.3,0.2-0.4s0.2-0.4,0.5-0.2s0.4,0.5,0.3,0.7   s-0.2,0.3-0.4,0.4c-0.2,0.1-0.2,0.3-0.1,0.5c0,0.1,0.1,0.1,0.2,0.1s0.3,0.1,0.4,0.1c0.3,0.1,0.5,0.4,0.4,0.8v0.1   c-0.2,0.3-0.5,0.3-0.8,0.4s-0.3-0.2-0.3-0.4s0-0.3-0.2-0.3c-0.3,0-0.6,0.1-0.9,0.1c-0.1,0.1-0.1,0.2-0.1,0.3   c0.3,0.5,0.8,0.9,1.4,1.1c0.5,0.1,1-0.3,1.4-0.5c0.7-0.4,0.4-1.6,0-2c-0.3-0.2-0.4-0.4-0.1-0.7c0.2-0.2,0.2-0.6,0-0.8   C120,239.7,119.5,239.4,118.9,239.6z"></path>
</g>
<g>
	<path class="st14" d="M105.7,239.8c1.2-0.2,2.4-0.4,3.6-0.5c0.7-0.2,1.5,0.2,1.7,0.9c0,0.1,0.1,0.3,0.1,0.4   c0.2,1.6,0.5,3.2,0.7,4.9c0.2,0.9-0.4,1.8-1.3,2c-0.1,0-0.1,0-0.2,0c-2.2,0.3-4.4,0.6-6.6,1c-0.6,0-1.1-0.1-1.6-0.3   c-0.4-0.1-0.5-0.7-0.6-1c-0.3-1.7-0.5-3.4-0.8-5.1c-0.1-0.5,0.3-0.9,0.6-1.4s0.5-0.3,0.8-0.3L105.7,239.8z M106.6,246.2   c0.4-0.1,0.7-0.1,1.1-0.2c0.3,0,0.5-0.3,0.4-0.5v-0.1c0-0.1-0.1-0.2-0.2-0.3c-0.4,0.3-1-0.4-1.4,0.2c-0.1,0.1-0.2,0-0.3-0.1   c-0.1-0.1-0.1-0.2,0-0.3s0.3-0.2,0.4-0.4c0.5-0.4,0.9-0.9,1-1.5c0.1-0.3,0-0.6-0.2-0.9c-0.5-0.7-1-0.8-2.1-0.6   c-0.6,0.2-0.7,0.8-0.9,1.2c-0.1,0.3,0.1,0.4,0.4,0.4s0.5-0.1,0.5-0.5s0.5-0.4,0.8-0.4c0.1,0,0.1,0,0.2,0.1c0.1,0.3,0.1,0.6,0.1,0.9   c0,0.1-0.2,0.3-0.3,0.4c-0.5,0.4-1,0.9-1.3,1.5c-0.1,0.3-0.1,0.7,0.1,0.9s0.4,0.2,0.7,0.2S106.3,246.2,106.6,246.2z"></path>
</g>
<g>
	<path class="st16" d="M105.3,237.3l-3.6,0.5c-0.9,0.2-1.8-0.3-2-1.2c0-0.1,0-0.2,0-0.3c-0.3-1.6-0.5-3.2-0.7-4.8   c-0.1-0.5,0-0.9,0.3-1.3c0.3-0.4,0.7-0.6,1.2-0.7c2.3-0.3,4.6-0.7,6.9-1c0.9-0.2,1.8,0.5,2,1.4v0.1c0.2,1.6,0.4,3.3,0.7,4.9   c0.1,0.4-0.1,0.8-0.4,1.1c-0.2,0.3-0.4,0.6-0.9,0.7C107.7,236.9,106.5,237.1,105.3,237.3z M104.4,230.9c-0.3,0-0.6,0.1-0.9,0.1   s-0.2,0.1-0.3,0.3c-0.1,0.2-0.1,0.5-0.1,0.7c0,0.4,0.3,0.8,0,1.2c-0.1,0.1,0.1,0.2,0.2,0.4s0.5,0.1,0.7,0c1.1-0.5,1.2-0.5,1.3,0.7   c0,0.2-0.1,0.3-0.3,0.4s-0.5,0.1-0.7-0.1c-0.2-0.2-0.4-0.2-0.6-0.1c-0.1,0-0.3,0-0.4,0.2s0,0.4,0.1,0.5c0.4,0.5,1,0.7,1.6,0.5   c0.5-0.1,1.1-0.3,1.2-0.8c0.2-0.6,0.2-1.3-0.2-1.8c-0.3-0.5-1-0.8-1.6-0.5c-0.3,0.1-0.4-0.1-0.4-0.3s0.1-0.3,0.3-0.3   s0.7-0.1,1.1-0.2c0.2,0,0.3-0.1,0.3-0.3c-0.1-0.6-0.1-0.6-0.7-0.5L104.4,230.9z"></path>
</g>
<g>
	<path class="st14" d="M128.6,214.6l3.2-0.5c0.9-0.2,1.8,0.4,2,1.4c0,0.1,0,0.1,0,0.2c0.2,1.6,0.5,3.3,0.7,4.9   c0.1,0.5,0,0.9-0.3,1.3c-0.2,0.4-0.7,0.4-1.1,0.7s-0.6-0.1-1-0.1c-1.3,0.2-2.6,0.4-3.9,0.6c-0.3,0-0.5,0.1-0.7,0.3   c-0.3,0.2-0.6,0.3-0.9,0.1c-0.2-0.1-0.5-0.1-0.7,0c-0.5,0.1-0.8-0.1-1.1-0.3c-0.3-0.2-0.5-0.6-0.5-0.9c-0.2-1.7-0.5-3.5-0.8-5.2   c-0.1-0.3-0.1-0.7,0.2-0.9c0.3-0.4,0.6-0.8,1.2-0.9C126.2,215,127.4,214.8,128.6,214.6z M130.5,216.9l1.4-0.2   c0.2,0,0.3-0.1,0.2-0.3s0-0.4-0.1-0.4s-0.5-0.2-0.8-0.1c-0.9,0.2-1.8,0.3-2.7,0.4c-0.3,0-0.5,0.2-0.6,0.5c-0.2,0.6-0.3,1.3-0.5,1.9   s-0.2,0.6-0.6,0.2c0,0-0.1,0-0.1-0.1c-0.2-0.2-0.4-0.2-0.6-0.1c-0.3,0.1-0.1,0.3-0.1,0.5c-0.1,0.4,0.2,0.7,0.4,1   c0.3,0.5,0.8,0.8,0.9,1.4c0,0.1,0.1,0.1,0.3,0.1s0.2-0.1,0.2-0.2c0.3-1.3,0.6-2.6,1-3.9c0.1-0.3,0.3-0.4,0.6-0.4   C129.7,217,130.1,216.9,130.5,216.9z"></path>
</g>
<g>
	<path class="st14" d="M92.2,239.2c-1.1,0.2-2.2,0.3-3.3,0.5c-0.7,0.1-1.4-0.2-1.9-0.7c-0.1-0.1-0.1-0.3-0.1-0.4   c-0.3-1.8-0.5-3.5-0.8-5.3c-0.1-0.8,0.5-1.6,1.3-1.8c2.4-0.4,4.7-0.7,7.1-1.1c0.5,0,1,0.2,1.4,0.5c0.4,0.2,0.4,0.5,0.4,0.8   c0.2,1.7,0.5,3.4,0.7,5.1c0.2,0.7-0.2,1.5-0.9,1.7c-0.1,0-0.3,0.1-0.4,0.1L92.2,239.2z M92.6,234.1l-0.1-0.6c0-0.1,0-0.2,0-0.3   c-0.1-0.2,0.1-0.5-0.3-0.5s-0.7-0.1-0.9,0.3c-0.4,0.8-0.8,1.7-1.1,2.5c-0.2,0.4-0.1,0.9,0.1,1.2c0.1,0.2,0.5,0,0.8,0   c0.1,0,0.3,0,0.4-0.1c0.3-0.1,0.5,0,0.5,0.3s0.1,0.5,0.5,0.4s0.5-0.1,0.4-0.5s-0.1-0.5,0.3-0.6c0.1,0,0.2-0.2,0.3-0.4   c0.1-0.2-0.1-0.4-0.3-0.5h-0.1c-0.3,0-0.4,0-0.4-0.3S92.6,234.4,92.6,234.1z"></path>
</g>
<g>
	<path class="st16" d="M115.4,216.6l3.3-0.5c1.1-0.2,2.1,0.5,2.3,1.6c0.3,1.5,0.5,3.1,0.7,4.6c0.1,0.8-0.4,1.6-1.1,2   c-0.1,0-0.2,0.1-0.3,0.1c-0.4-0.3-0.7-0.1-1.1,0c-2.1,0.3-4.2,0.6-6.3,0.9c-0.7,0.2-1.4-0.3-1.5-0.9v-0.1c-0.3-1.8-0.6-3.6-0.8-5.4   c-0.1-0.9,0.5-1.6,1.4-1.7C113.1,216.9,114.2,216.7,115.4,216.6z M117.6,220.6c-0.1-0.3-0.1-0.6-0.1-0.9c0-0.5-0.3-0.9-0.7-1.1   c-0.4-0.2-0.8-0.3-1.2-0.2c-0.3,0-0.7,0.3-0.9,0.7c-0.4,0.5-0.4,1.2-0.1,1.7c0.2,0.6,0.9,0.9,1.5,0.7c0.1,0,0.3-0.1,0.4-0.1   s0.2,0,0.3,0.1c0.1,0.1,0.1,0.2,0,0.3c-0.3,0.5-0.4,0.6-1,0.3c-0.2-0.1-0.4-0.1-0.6,0c-0.2,0-0.3,0.2-0.3,0.3v0.1   c0.2,0.4,0.6,0.6,1,0.5c0.2,0,0.4-0.1,0.7-0.1c0.6,0,0.8-0.4,1-0.9S117.5,221.1,117.6,220.6L117.6,220.6z"></path>
</g>
<g>
	<path class="st14" d="M118.2,235.4c-1.2,0.2-2.4,0.3-3.7,0.6c-0.4,0.1-0.7-0.1-1-0.4c-0.3-0.2-0.6-0.4-0.7-0.9   c-0.2-1.6-0.5-3.3-0.7-4.9c-0.2-0.9,0.3-1.8,1.2-2.1c0.1,0,0.2,0,0.3-0.1l6.7-1c0.9-0.3,1.9,0.3,2.2,1.2c0,0.2,0.1,0.3,0.1,0.5   c0.2,1.4,0.4,2.7,0.6,4.1c0.1,0.3,0.1,0.7,0,1c-0.2,0.8-0.5,1.2-1.3,1.3L118.2,235.4z M119.2,231.9c-0.1-0.3,0-0.6-0.2-0.8   c-0.4-0.5-1.1-0.7-1.7-0.4c-0.6,0.4-0.4-0.1-0.4-0.2c0-0.3,0.2-0.5,0.5-0.5c0.1,0,0.3,0,0.4,0.1c0.2,0.2,0.5,0.3,0.8,0.2   c0.2,0,0.3-0.2,0.3-0.4c0,0,0-0.1-0.1-0.1c-0.4-0.5-1-0.7-1.6-0.6c-0.7,0.1-1.2,0.6-1.2,1.3c-0.2,0.8-0.1,1.7,0.3,2.5   c0.2,0.5,0.6,0.8,1.1,0.9c0.6,0.1,1.3-0.1,1.6-0.7C119.3,232.7,119.3,232.2,119.2,231.9z"></path>
</g>
<g>
	<path class="st13" d="M144.7,234l3.6-0.5c0.3,0,0.6-0.1,0.9,0.1s0.8,0.6,0.9,1.1c0.2,1.7,0.5,3.4,0.7,5.1c0.1,0.8-0.5,1.6-1.3,1.8   c-2.4,0.4-4.7,0.7-7.1,1.1c-0.5,0-0.9-0.1-1.3-0.3c-0.4-0.3-0.7-0.8-0.7-1.3c-0.3-1.6-0.5-3.2-0.7-4.8c0-0.5,0.1-1,0.4-1.4   c0.3-0.4,0.6-0.4,1-0.5L144.7,234z M147.1,236.2c0.1-0.3-0.2-0.3-0.4-0.5s-0.5-0.3-0.7,0.1s-0.5,0.7-0.8,1.1   c-0.1,0.1-0.1,0.2-0.3,0.1c-0.4-0.3-0.8-0.6-1.2-0.9c-0.1-0.1-0.2-0.1-0.3-0.1c-0.3,0.1-0.4,0.4-0.6,0.6c-0.1,0.2,0,0.5,0.2,0.6   c0.4,0.3,0.8,0.6,1.1,0.9c-0.1,0.5-0.5,0.9-0.8,1.3c-0.2,0.2-0.1,0.5,0.1,0.7c0.5,0.5,0.6,0.5,1.1-0.1l0.4-0.5   c0.3-0.4,0.5-0.4,0.9-0.1s0.6,0.4,0.9,0.7c0.1,0.1,0.2,0.1,0.3,0.1c0.4-0.2,0.6-0.7,0.4-1c-0.1-0.1-0.1-0.2-0.2-0.3   c-0.3-0.3-0.9-0.4-0.9-0.9s0.5-0.7,0.7-1.1C147,236.6,147.2,236.5,147.1,236.2L147.1,236.2z"></path>
</g>
<g>
	<path class="st14" d="M146.3,244.5l3.3-0.5c0.9-0.2,1.8,0.5,2,1.4c0,0.1,0,0.1,0,0.2c0.2,1.5,0.4,3,0.7,4.5c0.1,0.8-0.2,1.5-0.8,2   c-0.2,0.2-0.5,0.4-0.9,0.4c-2,0.2-3.9,0.6-5.9,0.9c-0.5,0.1-1.1-0.2-1.6,0c-0.6-0.3-1.1-0.7-1.3-1.4c-0.3-1.6-0.5-3.2-0.7-4.9   c0-0.5,0.1-1,0.3-1.4c0.3-0.4,0.8-0.6,1.3-0.7L146.3,244.5z M146.9,250.5l2.6-0.4c0.1,0,0.3,0,0.3-0.2c0-0.4-0.1-0.7-0.2-1.1   c-0.1-0.2-0.6,0-0.8,0c-1,0.1-1.9,0.3-2.9,0.4l-1.4,0.2c-0.1,0-0.3,0-0.3,0.2c0,0.4,0.1,0.7,0.2,1.1c0.2,0.2,0.6,0,0.8,0   C145.7,250.7,146.3,250.6,146.9,250.5L146.9,250.5z M146.5,246.9l-2.4,0.4c-0.2,0-0.4,0.1-0.3,0.3c0,0.1,0,0.2,0,0.2   c0.1,0.6,0.1,0.6,0.7,0.5l4.4-0.6c0.6-0.1,0.6-0.1,0.5-0.7c0-0.4-0.1-0.6-0.5-0.4C148.1,246.7,147.3,246.8,146.5,246.9L146.5,246.9   z"></path>
</g>
<g>
	<path class="st16" d="M103.7,226.7c-1.2,0.2-2.4,0.3-3.7,0.6c-0.6,0.1-1.2-0.1-1.5-0.7c-0.2-0.3-0.4-0.6-0.4-1   c-0.2-1.4-0.4-2.8-0.6-4.2c-0.2-0.8,0.2-1.7,0.9-2.1c0.2-0.1,0.4-0.2,0.7-0.3c2.3-0.3,4.5-0.7,6.8-1c0.9-0.2,1.8,0.4,2,1.3   c0,0.1,0,0.1,0,0.2c0.3,1.7,0.5,3.3,0.7,5c0.2,0.7-0.3,1.5-1,1.7c-0.1,0-0.2,0-0.3,0C106.1,226.3,104.9,226.5,103.7,226.7z    M103.3,224.9c0.4-0.1,1,0,1.2-0.6s0.5-1.1,0-1.6c-0.2-0.2-0.6-0.5-0.1-0.8c-0.1-0.6,0-1.2-0.7-1.5c-0.3-0.1-0.5,0-0.8-0.1   s-0.8,0.2-1.1,0.5c-0.3,0.3-0.4,0.7-0.3,1.1c0,0.5,0.6,0.5,0.6,0.9s-0.5,0.6-0.3,1.1c0,0.1,0.1,0.3,0.1,0.4c0.1,0.5,0.5,0.8,1,0.8   C103,225,103.2,224.9,103.3,224.9L103.3,224.9z"></path>
</g>
<g>
	<path class="st14" d="M76.6,222.3l3.2-0.5c0.4-0.1,0.8-0.2,1.1,0.2c0.8,0,0.9,0.8,1,1.3c0.3,1.6,0.5,3.2,0.8,4.8   c0,1-0.7,1.9-1.6,2.1c-2.2,0.3-4.5,0.7-6.8,1c-1,0.1-1.9-0.5-2.1-1.5c-0.3-1.7-0.5-3.4-0.8-5.1c-0.1-0.9,0.6-1.7,1.4-1.8   L76.6,222.3z M74.4,225.3c-0.1,0-0.2,0-0.3,0c-0.4,0-0.7,0.2-0.9,0.5c-0.2,0.3-0.3,0.6-0.2,1c0,0.2,0.1,0.4,0.1,0.6   c0.1,0.6,0.8,1.1,1.4,1c1.4-0.2,1.6-0.5,1.4-1.9c0-0.1,0-0.1,0-0.2C75.6,225.4,75.3,225.2,74.4,225.3L74.4,225.3z M79,226.1   L79,226.1c0.1,0.4,0.1,0.9,0.2,1.3c0,0.2,0.1,0.3,0.3,0.2s0.2,0,0.3-0.1s0.1-0.3,0-0.4c0-0.3-0.2-0.6,0-0.9s0.5-0.1,0.8-0.2   c0.1,0,0.1,0,0.2,0s0.2-0.1,0.2-0.2c0-0.1-0.1-0.2-0.2-0.2s-0.4,0.1-0.7,0.1c-0.2,0.1-0.5-0.1-0.6-0.3l0,0c0-0.3,0.2-0.5,0.4-0.5   l0,0c0.1,0,0.2,0,0.3-0.1c0.2-0.1,0.7,0.1,0.6-0.4c-0.1-0.4-0.4-0.1-0.7-0.1c-0.5,0-1,0.1-1.5,0.3L79,226.1z M76.5,226.5   L76.5,226.5c0.1,0.4,0.1,0.7,0.2,1.1c0,0.2-0.1,0.5,0.3,0.4s0.2-0.3,0.1-0.4c0-0.2,0-0.4-0.1-0.6c-0.1-0.3,0.1-0.4,0.3-0.4   c0.3,0,0.6-0.1,0.9-0.2c0,0,0.1-0.1,0-0.2s-0.1-0.2-0.1-0.2c-0.3,0-0.6,0.1-0.9,0.1c-0.2,0-0.4-0.1-0.4-0.4c0-0.2,0.2-0.4,0.4-0.5   c0.3-0.1,0.7-0.1,1-0.2c0,0,0.1-0.1,0.1-0.2c0-0.1,0-0.2-0.2-0.2l0,0c-0.1,0-0.2,0-0.3,0c-0.5,0-1,0.1-1.5,0.3L76.5,226.5z"></path>
</g>
<g>
	<path class="st16" d="M142.6,221l-3.6,0.5c-0.3,0-0.6,0.1-0.8-0.1s-0.9-0.6-0.9-1.1c-0.3-1.7-0.5-3.4-0.7-5.1   c-0.1-1,0.6-1.8,1.6-1.9l6.8-1c0.9-0.2,1.8,0.4,2.1,1.3c0,0.1,0,0.2,0,0.3c0.2,1.5,0.4,3,0.7,4.5c0.1,0.7-0.2,1.4-0.7,1.9   c-0.1,0.2-0.3,0.1-0.5,0.1L142.6,221z M142.5,217.4c-0.1-0.2-0.1-0.5,0-0.7c0.3-0.6,0.5-1.3,0.7-2c0.1-0.1,0-0.3-0.1-0.3   c-0.1-0.1-0.3,0-0.3,0.1c-0.1,0.1-0.1,0.2-0.2,0.4c-0.4,0.6-0.4,1.4-0.9,1.3c0-0.2,0-0.4-0.1-0.6c-0.1-0.3-0.3-0.5-0.5-0.6   c-0.6-0.3-1.3-0.1-1.7,0.4c-0.1,0.6,0,1.2,0.4,1.7c0.4,0.4,0.8,0.1,1.1,0.1s0.5-0.3,0.7-0.4s0-0.4,0.1,0c0,0.1,0,0.3,0,0.4   c-0.3,0.7-0.5,1.4-0.7,2c-0.1,0.1,0,0.3,0.1,0.3c0.1,0.1,0.3,0,0.3-0.1c0.3-0.5,0.5-1,0.7-1.5c0.1-0.3,0.1-0.5,2.7-0.1   c-0.1-1.3-0.4-1.1-1.4-1.1C142.9,216.7,142.8,217.1,142.5,217.4c-0.3,0.2,0.2,1.2,0.4,1.3c0.6,0.3,1.2,0.3,1.8,0   c0.2-0.1,0.3-0.3,0.2-0.5C144.9,218.1,144.9,218,142.5,217.4L142.5,217.4z"></path>
</g>
<g>
	<path class="st14" d="M144.2,231.6l-3.6,0.5c-0.3,0.1-0.6,0.2-0.9-0.1s-0.8-0.6-0.9-1.1c-0.2-1.7-0.5-3.5-0.8-5.2   c-0.1-0.9,0.6-1.6,1.4-1.7c1.9-0.3,3.8-0.6,5.7-0.8l1.4-0.2c0.9-0.1,1.8,0.5,1.9,1.4l0,0c0.2,1.6,0.5,3.2,0.7,4.9   c0,0.7-0.2,1.3-0.7,1.7c-0.1,0.1-0.3,0.1-0.5,0.1L144.2,231.6z M143.5,226.7l-2.2,0.3c-0.6,0.1-0.6,0.1-0.5,0.7   c0.1,0.9,0.1,0.9,1,0.8c1.2-0.2,2.4-0.3,3.5-0.5s1.1-0.2,0.9-1.4c0-0.3-0.1-0.4-0.4-0.3C145.2,226.5,144.4,226.6,143.5,226.7z    M144,230.1c0.6-0.1,0.8-0.2,0.7-0.9s-0.2-0.8-0.8-0.7s-0.8,0.2-0.7,0.9S143.4,230.1,144,230.1L144,230.1z M143.2,224.9   c-0.6,0.1-0.7,0.3-0.6,0.9s0.3,0.8,1,0.6s0.7-0.3,0.6-0.9S143.9,224.9,143.2,224.9L143.2,224.9z"></path>
</g>
<g>
	<path class="st16" d="M95.2,260.4l-3.7,0.5c-0.3,0-0.6,0.1-0.8-0.1c-0.3-0.2-0.6-0.6-0.7-0.9s-0.1-0.6-0.1-0.9   c-0.2-1.5-0.4-3-0.7-4.4c-0.1-0.9,0.5-1.8,1.4-1.9l0,0c2.3-0.4,4.6-0.7,6.9-1c0.7,0,1.3,0.2,1.8,0.7c0.1,0.1,0.1,0.3,0.1,0.4   c0.3,1.9,0.6,3.7,0.8,5.5c0,0.4-0.1,0.9-0.4,1.2c-0.2,0.3-0.5,0.3-0.8,0.3C97.8,260,96.5,260.2,95.2,260.4z M96.2,256.1L96.2,256.1   c0-0.3-0.1-0.7-0.1-1c-0.2-0.8-1-1.3-1.8-1.2c-0.6,0.1-1.4,0.9-1.3,1.5c0.1,0.8,0,1.7,0.5,2.4c0.1,0.1,0.1,0.4,0.2,0.6   c0.4,0.4,0.9,0.3,1.3,0.2c0.3-0.1,0.6,0,0.8-0.3c0.2-0.3,0.4-0.6,0.5-1C96.4,256.9,96.4,256.5,96.2,256.1z"></path>
</g>
<g>
	<path class="st14" d="M79.2,241.1l-3.7,0.5c-0.3,0-0.6,0.1-0.8-0.1s-0.8-0.6-0.9-1.1c-0.3-1.7-0.5-3.5-0.8-5.2   c-0.1-0.6,0.3-0.9,0.5-1.4s0.5-0.3,0.9-0.4l7-1c0.9-0.2,1.8,0.4,2.1,1.3c0,0.1,0,0.2,0,0.2c0.2,1.5,0.4,3,0.7,4.6   c0.1,0.7-0.2,1.4-0.7,1.9c-0.1,0.2-0.3,0.1-0.5,0.1C81.7,240.8,80.5,241,79.2,241.1z M75.3,236l-0.8,0.1c-0.2,0-0.3,0.1-0.2,0.3   c0.1,0.8,0.2,1.6,0.4,2.4c0,0.3,0.4,0.5,0.6,0.3c0.4-0.4,0.8-0.3,1.2-0.4c0.3,0,0.5-0.2,0.6-0.5c0.2-0.6,0.2-1.3-0.1-1.9   c-0.1-0.4-0.5-0.6-0.9-0.5C75.8,236,75.6,236,75.3,236L75.3,236z M77.6,237.1L77.6,237.1l0.2,1.4c0.5,0,1-0.1,1.4-0.1   c0.2,0,0.4-0.1,0.7-0.1s0.3,0,0.3-0.2s-0.1-0.2-0.3-0.2l-1.2,0.2c-0.2,0-0.3-0.1-0.3-0.3c-0.1-0.5-0.1-0.5,0.4-0.6   c0.3,0,0.6-0.1,0.9-0.1c0.1,0,0.2-0.1,0.1-0.3c0-0.1-0.1-0.2-0.2-0.2l0,0c-0.4,0.1-0.7,0.1-1.1,0.2s-0.3-0.2-0.3-0.3s0-0.3,0.2-0.3   s0.4,0,0.6-0.1s0.8,0.1,0.7-0.3c-0.1-0.6-0.5-0.1-0.8-0.1c-0.5,0-1,0.1-1.4,0.3L77.6,237.1z M80.5,236.7c0,0.2,0,0.4,0.1,0.5   s0,0.7,0.2,0.9s0.5,0,0.7,0c0.5-0.1,0.9-0.1,1.3-0.3c0-0.1,0-0.1,0-0.2c0-0.1-0.1-0.2-0.1-0.2c-0.4,0-0.7,0.1-1.1,0.1   s-0.4,0-0.4-0.3c-0.1-0.6-0.2-1.2-0.2-1.8c0-0.2-0.1-0.3-0.3-0.3s-0.4,0.1-0.3,0.4S80.4,236.3,80.5,236.7L80.5,236.7z"></path>
</g>
<g>
	<path class="st17" d="M80.8,251.8c-1.1,0.2-2.3,0.4-3.4,0.5c-0.9,0.2-1.8-0.4-2-1.3c0-0.1,0-0.1,0-0.2c-0.2-1.6-0.4-3.1-0.7-4.7   c-0.2-1.1,0.6-2.1,1.6-2.3h0.1c2-0.3,3.9-0.5,5.9-0.9c0.5-0.1,0.9-0.1,1.4,0c0.3,0.1,0.7,0.1,0.8,0.2c0.2,0.4,0.6,0.6,0.6,1.1   c0.2,1.7,0.5,3.3,0.7,5c0.2,0.9-0.4,1.8-1.3,2c-0.1,0-0.2,0-0.3,0L80.8,251.8z M77.4,248.2c0-0.1,0-0.1,0-0.2   c-0.2-0.5-0.1-1.1,0.4-1.3c0.4-0.2,1-0.4,1.3,0.4c0,0.1,0.8,0.1,0.8-0.1c0.1-0.2,0-0.5-0.2-0.7c-0.4-0.3-0.9-0.5-1.3-0.6   c-0.5,0-1.1,0.2-1.4,0.5c-0.5,0.2-0.7,0.8-0.5,1.2c0.2,0.3-0.3,0.6-0.1,0.8c0.2,0.2,0.3,0.5,0.3,0.8c0.1,0.7,0.8,1.2,1.5,1.2h0.1   c0.2,0,0.4-0.1,0.7-0.1c0.6,0,1.1-0.5,1.2-1.1c0.1-0.2,0.1-0.4,0-0.5c-0.2-0.2-0.4,0-0.6,0s-0.3,0-0.2,0.3c0,0.2-0.1,0.3-0.2,0.4   c-0.4,0.2-0.8,0.3-1.2,0.2c-0.4-0.1-0.3-0.5-0.4-0.8L77.4,248.2z M80.7,247.5L80.7,247.5c0.1,0.6,0.2,1.1,0.2,1.7   c0,0.3,0.1,0.4,0.4,0.3c0.8-0.1,1.6-0.2,2.4-0.4c0.2,0,0.3-0.1,0.3-0.4s-0.2-0.4-0.4-0.3c-0.5,0.1-1,0.1-1.4,0.2s-0.4-0.1-0.5-0.4   c-0.1-0.8-0.1-0.7,0.5-0.8c0.4-0.1,0.7-0.1,1.1-0.2s0.3-0.2,0.2-0.4s-0.1-0.3-0.3-0.3c-0.4,0.1-0.9,0.1-1.3,0.2   c-0.3,0.1-0.4,0-0.4-0.3c-0.1-0.5-0.1-0.5,0.5-0.6s1-0.1,1.4-0.2c0.3,0,0.2-0.2,0.2-0.4s0-0.3-0.3-0.3s-0.6,0.1-0.9,0.1   c-0.7,0.1-1.3,0.2-2,0.4L80.7,247.5z"></path>
</g>
<g>
	<path class="st18" d="M81.1,254l3.4-0.5c0.9-0.2,1.8,0.5,2,1.4c0,0.1,0,0.1,0,0.2c0.2,1.5,0.4,3,0.7,4.5c0.2,1.1-0.5,2.2-1.6,2.4   h-0.1c-2.1,0.3-4.2,0.6-6.3,0.9c-1.1,0.2-2.1-0.5-2.3-1.6c0-0.1,0-0.1,0-0.2c-0.2-1.5-0.4-3-0.7-4.5c-0.2-0.9,0.4-1.8,1.3-2   c0.1,0,0.1,0,0.2,0L81.1,254z M79.5,256.3c-0.5,0-1,0.3-1.3,0.6c-0.4,0.3-0.5,0.9-0.4,1.4v0.1c0,0.6,0.2,1.2,0.5,1.7   c0.1,0.3,0.4,0.4,0.7,0.5c0.4,0,0.8,0,1.3,0s0.8-0.4,1.2-0.6c0.1-0.1,0.2-0.3,0.3-0.4c0.3-0.4-0.1-0.9,0.2-1.3   c-0.3-0.3-0.3-0.8-0.4-1.2c0-0.1-0.1-0.1-0.1-0.2C80.8,256.4,80.1,256.2,79.5,256.3L79.5,256.3z M82.3,258.1   c0.1,0.6,0.2,1.2,0.3,1.8c0,0.1,0.1,0.2,0.2,0.2c0.3,0.1,0.6-0.1,0.7-0.4c0-0.1,0-0.1,0-0.2c0-0.2-0.1-0.4-0.1-0.7   c-0.1-0.4-0.1-0.9-0.1-1.3c0.5,0.1,0.7,0.7,1,1s0.6,0.6,0.8,1c0.2,0.4,0.5,0.1,0.8,0.1s0.1-0.2,0.1-0.4c-0.2-1.1-0.3-2.2-0.5-3.3   c0-0.2-0.1-0.3-0.3-0.3s-0.4,0.1-0.3,0.4c0.1,0.6,0.2,1.3,0.3,1.9c0,0.1,0,0.1-0.1,0.2c-0.1,0-0.1-0.1-0.2-0.1   c-0.4-0.5-0.9-1.1-1.3-1.6c-0.2-0.4-0.7-0.6-1.1-0.4c0,0,0,0-0.1,0c-0.4,0.2-0.1,0.5-0.1,0.8S82.2,257.7,82.3,258.1L82.3,258.1z"></path>
</g>
<g>
	<path class="st15" d="M128,211.5l-3.4,0.5c-0.7,0-1.4-0.5-1.6-1.2c-0.2-1-0.3-2-0.4-3c-0.1-0.6,0.1-1.2,0.7-1.4s1-0.9,1.7-0.4   c0.2,0.1,0.3-0.3,0.5-0.3c1.2-0.2,2.4-0.4,3.7-0.5c0.6,0,1.1,0,1.7-0.1c0.7-0.1,1.4,0.4,1.5,1.2c0.2,1,0.3,1.9,0.4,2.9   c0.1,0.4,0,0.7-0.3,1c-0.3,0.5-0.8,0.8-1.4,0.8C130.1,211.2,129,211.4,128,211.5z M125,209c0.1,0.5,0.2,1,0.2,1.4   c0,0.3,0.2,0.3,0.4,0.3c0.5-0.1,0.5-0.1,0.4-0.5c0-0.2-0.1-0.4-0.1-0.6s-0.2-0.6-0.1-1c0.4,0.1,0,0.7,0.5,0.7c0,0,0.1,0.2,0.2,0.3   s0.4,0.2,0.5-0.1c0.2-0.3,0.3-0.6,0.3-1c0-0.1,0-0.2,0.1-0.2s0.1,0.1,0.1,0.2c0.1,0.5,0.1,1,0.2,1.4c0,0.2,0.2,0.3,0.4,0.3   c0.1,0,0.1,0,0.2-0.1c0.2-0.1,0.3-0.4,0.2-0.6c-0.2-0.9-0.3-1.8-0.4-2.6c0-0.2-0.1-0.3-0.3-0.3c-0.2,0-0.4,0.1-0.6,0.1   c-0.4,0-0.4,0.1-0.5,0.5s0.1,0.9-0.3,1.2c-0.2-0.4-0.3-0.7-0.5-1c0-0.1,0-0.1-0.1-0.2c-0.3-0.2-0.8-0.3-1.1-0.1   c-0.3,0.1-0.1,0.4-0.1,0.6C124.8,208.2,124.9,208.6,125,209z M129.6,209c0.2,0,0.4-0.1,0.7-0.1s0.1-0.2,0.1-0.4s0-0.3-0.2-0.3   c-0.4,0-0.8,0.1-1.2,0.2c-0.2,0-0.1,0.2-0.1,0.4s0,0.3,0.2,0.3C129.2,209.1,129.4,209.1,129.6,209L129.6,209z"></path>
</g>
<g>
	<path class="st14" d="M141.1,209.6c-1.1,0.2-2.2,0.3-3.3,0.5c-0.5,0.1-1-0.1-1.4-0.4c-0.1-0.1-0.2-0.1-0.2-0.2   c-0.1-1.1-0.9-2.1-0.5-3.3c0-0.1,0-0.1,0-0.2c-0.2-0.5,0-1.2,0.5-1.4c0.3-0.2,0.7-0.8,1.3-0.4c0.1,0.1,0.2,0,0.4-0.1   c0.5-0.3,1.1-0.4,1.7-0.3c0.5,0.1,1,0,1.4-0.2c1-0.4,2.1-0.5,3.1-0.3c0.7,0.2,1.2,0.7,1.3,1.4c0.1,0.9,0.3,1.7,0.4,2.6   c0.1,0.9-0.5,1.7-1.4,1.9C143.3,209.3,142.2,209.5,141.1,209.6z M137.4,207.2c0.1,0.5,0.2,1,0.2,1.4s0.3,0.3,0.6,0.3s0.4,0,0.4-0.4   c-0.1-0.4-0.1-0.7-0.2-1.1c0-0.2-0.2-0.5,0-0.5c0.3,0,0.1,0.3,0.2,0.5c0.2,0.2,0.4,0.4,0.6,0.6c0.1,0.1,0.2,0.1,0.3,0   c0,0,0-0.1,0.1-0.1c0.1-0.1,0.2-0.2,0.2-0.4c0.1-0.3,0-0.6,0.2-0.9c0.1,0.3,0.2,0.7,0.2,1c0.1,0.2,0.1,0.4,0.1,0.7   c0,0.2,0.2,0.3,0.4,0.3c0,0,0.1,0,0.1-0.1c0.2-0.1,0.3-0.4,0.3-0.7c-0.1-0.7-0.2-1.5-0.3-2.2c0-0.4-0.1-0.7-0.6-0.6   c-0.3,0-0.5,0-0.8,0.1c-0.2,0.1,0,0.4,0,0.5c-0.3,0.3,0,0.7-0.2,0.9c-0.1,0-0.1,0.1-0.1,0.2s-0.1-0.1-0.1-0.1   c0.1-0.4-0.3-0.6-0.4-0.9c-0.2-0.5-0.6-0.6-1.2-0.3c-0.4,0.1-0.1,0.4-0.1,0.7C137.3,206.5,137.3,206.8,137.4,207.2L137.4,207.2z    M141.2,207c0.1,0.1,0.2,0.3,0.4,0.2c0.6-0.2,0.9,0,0.9,0.6c0,0.1,0.1,0.2,0.2,0.1s0.3,0,0.4-0.1c0-0.1,0-0.2,0-0.3   c-0.1-0.4,0-0.6,0.4-0.6c0.2,0,0.4,0,0.4-0.4s-0.2-0.4-0.4-0.3c-0.5,0.2-0.6-0.1-0.6-0.5v-0.1c0-0.2-0.2-0.2-0.3-0.2   s-0.4,0-0.4,0.3s0.2,0.5,0,0.6s-0.4,0.1-0.6,0.1c-0.1,0-0.1,0-0.2,0C141.2,206.7,141.2,206.8,141.2,207L141.2,207z"></path>
</g>
<g>
	<path class="st19" d="M102,215.4c-1.1,0.2-2.2,0.3-3.2,0.5c-1.2,0.3-1.8-0.6-2.1-1.6c-0.2-0.7-0.3-1.5-0.3-2.2   c-0.1-1.1,0.6-2.1,1.7-2.2c1.1-0.3,2.3-0.4,3.4-0.5c0.6-0.1,1.2-0.2,1.8-0.3c0.6-0.1,1.1,0.1,1.7,0s1.2,0.8,1.3,1.3   c0.2,1,0.3,1.9,0.4,2.9c0,0.5-0.3,0.9-0.5,1.3s-0.5,0.4-0.8,0.4L102,215.4z M98,213c0.1,0.5,0.2,1,0.2,1.6c0,0.2,0.2,0.2,0.3,0.2   s0.4,0,0.4-0.3c-0.1-0.3-0.1-0.5-0.1-0.8c-0.1-0.4-0.1-0.8-0.1-1.2c0.2,0.3,0.4,0.6,0.6,0.9c0.2,0.4,0.8,0.3,1-0.1   c0.1-0.1,0-0.3,0.1-0.3c0.4-0.2-0.1-0.6,0.3-0.8c0.1,0.3,0.2,0.7,0.2,1c0.1,0.3,0.1,0.6,0.1,0.9s0.1,0.3,0.3,0.3s0.4-0.1,0.3-0.4   c-0.2-0.9-0.3-1.8-0.4-2.7c-0.1-0.5-0.1-0.5-0.6-0.5s-0.6,0.3-0.7,0.6c0,0.1,0,0.2,0,0.3c0.1,0.3,0,0.6-0.2,0.8   c-0.1-0.2-0.3-0.4-0.4-0.6s0-0.2-0.1-0.3c-0.3-0.5-0.3-0.5-0.9-0.5c-0.3,0-0.6,0.1-0.4,0.5C97.9,212.1,98,212.6,98,213L98,213z    M102,212.4c0.1,1,0.1,1,0.4,1.2s0.4,0.5,0.7,0.4c0.4,0,0.9-0.1,1.3-0.3s0.6-0.6,0.6-1c0-0.1,0-0.3-0.1-0.3s-0.3,0-0.4,0   c-0.2,0.1-0.1,0.2-0.1,0.4c-0.2,0.5-0.7,0.4-1,0.5s-0.4-0.4-0.5-0.6c-0.1-0.3-0.2-0.7-0.2-1s0.3-0.6,0.6-0.7c0.3-0.1,0.7,0,0.9,0.2   c0.2,0.1,0.4,0.1,0.6,0l0,0c0.1-0.2,0.1-0.5-0.1-0.6l0,0c-0.2-0.1-0.4-0.4-0.5-0.4c-0.6,0.1-1.3,0-1.9,0.5s-0.3,1-0.2,1.5   C102.1,212.3,102.1,212.4,102,212.4L102,212.4z"></path>
</g>
<g>
	<path class="st15" d="M114.9,213.5l-3.2,0.5c-0.3,0-0.6,0.1-0.9-0.1s-0.8-0.6-0.9-1.1c-0.1-0.9-0.3-1.9-0.4-2.8   c0-0.4,0.1-0.8,0.4-1.1c0.2-0.3,0.5-0.5,0.8-0.7c0.7-0.3,1.5-0.4,2.2-0.5c1.4-0.2,2.8-0.4,4.2-0.6c0.5-0.1,0.9,0,1.3,0.2   c0.5,0.2,0.9,0.7,1,1.2c0.3,1,0.4,2.1,0.3,3.1c-0.2,0.9-0.5,1.3-1.4,1.4L114.9,213.5z M114.3,210.7c-0.1-0.4-0.1-0.9-0.2-1.3   s-0.1-0.5-0.6-0.4s-0.6,0.1-0.5,0.6c0,0.2-0.1,0.4-0.1,0.7c0,0.1-0.1,0.3-0.2,0.3c-0.2,0.1-0.2-0.2-0.2-0.3c0-0.3-0.2-0.3-0.3-0.5   c-0.2-0.6-0.5-0.7-1.2-0.5c-0.4,0.2-0.1,0.5-0.1,0.8c0.1,0.9,0.2,1.7,0.4,2.6c0,0.2,0.1,0.2,0.3,0.2c0.5,0,0.6-0.1,0.6-0.6   c0-0.3-0.1-0.5-0.1-0.8c0-0.2-0.3-0.6,0-0.7s0,0.4,0.2,0.5s0.3,0.5,0.8,0.4s0.2-0.4,0.3-0.6s0.2-0.3,0.1-0.5s0-0.3,0.1-0.3   s0.2,0.1,0.2,0.2c0.1,0.6,0.2,1.1,0.2,1.7c0,0.3,0.2,0.3,0.4,0.2s0.3-0.1,0.3-0.4C114.4,211.6,114.4,211.1,114.3,210.7z M115,210.4   L115,210.4c0.1,0.5,0.2,1,0.2,1.6c0,0.3,0.2,0.3,0.4,0.2c0.6-0.1,0.6-0.1,0.5-0.6c0-0.3-0.1-0.6-0.1-0.9c0-0.1,0.1-0.2,0.2-0.2h0.1   c0.4,0.2,0.7,0.5,0.9,0.9c0.1,0.3,0.5,0.5,0.9,0.4s0.4-0.1,0.2-0.5c-0.1-0.3-0.3-0.5-0.6-0.6c-0.1-0.1-0.1-0.2-0.1-0.3   c0,0,0,0,0.1-0.1c0.5-0.5,0.2-1.1,0.1-1.7c-0.1-0.2-0.3-0.4-0.5-0.3c-0.2,0-0.4,0-0.7,0.1c-0.6,0-1.2,0.2-1.7,0.3L115,210.4z"></path>
</g>
<g>
	<path class="st20" d="M133.4,247.9L133,248c-0.2,0-0.3,0-0.3-0.2c0-0.6-0.1-1.2-0.3-1.7l-1.7,0.2c-0.2,0-0.3,0-0.3-0.2   c0-0.3-0.1-0.5-0.1-0.8c-0.1-0.2,0.1-0.3,0.3-0.4s0.7-0.1,1.1-0.2c0.6-0.1,0.6-0.1,0.5-0.7l-0.1-0.4c-0.1-1-0.1-1,0.9-1.1   c0.2,0,0.3,0,0.4,0.2c0.1,0.5,0.1,1,0.2,1.4c0,0.2,0.1,0.2,0.3,0.2l1.1-0.2c0.6-0.1,0.6-0.1,0.7,0.6c0.1,0.8,0.2,0.6-0.6,0.8   c-0.4,0.1-1-0.1-1.2,0.3s0.1,0.8,0.1,1.2C134.1,247.8,134.1,247.9,133.4,247.9z"></path>
</g>
<g>
	<path class="st21" d="M107.9,254.9c-0.5,0.1-0.7,0-0.8-0.4c-0.1-0.2,0.4-0.7,0.6-0.7s0.4,0.3,0.5,0.7S108.2,254.9,107.9,254.9z"></path>
</g>
<g>
	<path class="st22" d="M93.5,245.3c0.1,0.4,0.1,0.8,0.2,1.2s0,0.8,0.6,0.6c0.2-0.1,0.2,0.3,0.2,0.4s-0.1,0.2-0.3,0.2l-1.7,0.2   c-0.2,0-0.3,0-0.3-0.2s-0.2-0.4,0.1-0.4c0.5,0,0.5-0.2,0.4-0.6s-0.2-1-0.2-1.4s0-0.6-0.5-0.5c-0.2,0.1-0.5-0.7-0.3-0.8   c0.4-0.1,0.5-0.8,1-0.7c0.2,0,0.4,0,0.4,0.3C93.4,244.3,93.5,244.8,93.5,245.3z"></path>
</g>
<g>
	<path class="st22" d="M130.6,228.9c0.7-0.1,1.5-0.2,2.2-0.3c0.4-0.1,0.5,0.1,0.5,0.4c0.1,0.6,0.1,0.6-0.5,0.7l-4.2,0.6   c-0.6,0.1-0.6,0.1-0.6-0.5c0-0.1,0-0.1,0-0.2c-0.1-0.2,0.1-0.3,0.3-0.3C129,229.1,129.8,229,130.6,228.9z"></path>
</g>
<g>
	<path class="st23" d="M89.7,222.4c0.4-0.1,0.8-0.1,1.2-0.2s0.4,0.1,0.4,0.3s0,0.5-0.2,0.7c-0.6,0.8-0.8,1.8-0.7,2.8   c0.1,0.2-0.2,0.4-0.2,0.6c0,0.4-0.4,0.2-0.6,0.3s-0.3-0.2-0.3-0.4c-0.1-1,0.2-2.1,0.7-3c0-0.1,0.1-0.2,0.1-0.3s-0.2-0.1-0.3,0   c-0.4,0.1-0.9,0.1-1.3,0.2s-0.4-0.2-0.4-0.5s-0.1-0.4,0.3-0.4S89.3,222.4,89.7,222.4z"></path>
</g>
<g>
	<path class="st24" d="M120.5,252.9c0,0.2,0.1,0.4-0.2,0.4l-0.3,0.1c-0.6,0.1-0.7,0.2-0.6,0.9c0,0.3-0.1,0.4-0.3,0.4   s-0.3-0.1-0.3-0.3s0-0.6-0.2-0.7s-0.5,0-0.8,0c-0.1,0-0.2,0-0.3,0.1c-0.2,0-0.2-0.2-0.2-0.3s-0.1-0.3,0.1-0.4s0.4-0.1,0.6-0.1   c0.4-0.1,0.5-0.3,0.5-0.7c0-0.1,0-0.3-0.1-0.4c0-0.2,0-0.3,0.3-0.4s0.4-0.1,0.4,0.2c0,0.1,0,0.2,0,0.3c0.1,0.6,0.2,0.7,0.9,0.6   c0.1,0,0.2,0,0.3,0C120.4,252.6,120.5,252.7,120.5,252.9z"></path>
</g>
<g>
	<path class="st23" d="M121,254.4c-0.1-0.5-0.1-1.1,0.1-1.6c0.1-0.8,0.2-1.5,0.2-2.3c0-0.3,0.1-0.5,0.4-0.6s0.5,0,0.5,0.3   c-0.1,0.5-0.2,1-0.2,1.5c-0.1,0.9-0.2,1.7-0.3,2.6c0,0.2-0.1,0.3-0.2,0.5c-0.1,0.1-0.2,0.1-0.3,0.1s-0.1-0.1-0.1-0.1   C121,254.7,121,254.5,121,254.4z"></path>
</g>
<g>
	<path class="st21" d="M123.5,253l-0.3,0.1c-0.6,0.1-0.6,0-0.7-0.5c0-0.3,0.1-0.3,0.3-0.3l1-0.1c0.5-0.1,0.4-0.1,0.5,0.4   c0,0.2,0.1,0.4-0.3,0.4C123.8,252.9,123.7,253,123.5,253z"></path>
</g>
<g>
	<path class="st24" d="M118.8,239.6c0.7-0.3,1.1,0,1.5,0.7c0.2,0.2,0.2,0.6,0,0.8c-0.3,0.3-0.2,0.4,0.1,0.7c0.5,0.4,0.7,1.7,0,2   c-0.4,0.2-0.8,0.6-1.4,0.5s-1.1-0.5-1.4-1.1c0-0.1,0-0.2,0.1-0.3c0.3-0.1,0.6-0.1,0.9-0.1c0.1,0,0.1,0.1,0.2,0.3s0,0.4,0.3,0.4   s0.6,0,0.8-0.4c0.1-0.3,0-0.7-0.3-0.8h-0.1c-0.1-0.1-0.2-0.1-0.4-0.1c-0.2-0.1-0.3-0.3-0.2-0.5c0-0.1,0.1-0.1,0.1-0.2   c0.2-0.1,0.3-0.2,0.4-0.4s0-0.6-0.3-0.7s-0.4,0.1-0.5,0.2s0.1,0.4-0.2,0.4s-0.6,0.2-0.7,0s-0.2-0.5-0.1-0.7   c0.2-0.3,0.3-0.7,0.8-0.6C118.6,239.7,118.7,239.7,118.8,239.6z"></path>
</g>
<g>
	<path class="st20" d="M106.6,246.2c-0.3,0-0.5,0.1-0.8,0.1s-0.5,0.1-0.7-0.2s-0.2-0.6-0.1-0.9c0.3-0.6,0.7-1.1,1.3-1.5   c0.1-0.1,0.3-0.3,0.3-0.4c0-0.3,0-0.6-0.1-0.9c0-0.1-0.1-0.1-0.2-0.1c-0.3,0-0.7,0-0.8,0.4s-0.2,0.5-0.5,0.5s-0.5-0.1-0.4-0.4   c0.2-0.5,0.2-1.1,0.9-1.2c1.1-0.3,1.6-0.1,2.1,0.6c0.2,0.3,0.2,0.6,0.2,0.9c-0.1,0.6-0.5,1.1-1,1.5c-0.1,0.1-0.3,0.2-0.4,0.4   c-0.1,0.1-0.1,0.2,0,0.3s0.2,0.1,0.3,0.1c0.4-0.6,1,0.1,1.4-0.2c0.1,0.1,0.1,0.2,0.2,0.3c0.1,0.3,0,0.5-0.3,0.6h-0.1   C107.3,246.1,106.9,246.1,106.6,246.2z"></path>
</g>
<g>
	<path class="st23" d="M104.4,230.9l0.7-0.1c0.6-0.1,0.6-0.1,0.7,0.5c0,0.3-0.1,0.3-0.3,0.3c-0.4,0-0.7,0.1-1.1,0.2   s-0.3,0.1-0.3,0.3s0.1,0.4,0.4,0.3c0.6-0.2,1.3,0,1.6,0.5c0.3,0.6,0.4,1.2,0.2,1.8c-0.1,0.5-0.7,0.6-1.2,0.8   c-0.6,0.1-1.2-0.1-1.6-0.5c-0.1-0.1-0.2-0.3-0.1-0.5c0-0.2,0.2-0.1,0.4-0.2c0.2-0.1,0.5,0,0.6,0.1c0.2,0.2,0.4,0.2,0.7,0.1   s0.3-0.1,0.3-0.4c-0.1-1.1-0.2-1.2-1.3-0.7c-0.2,0.1-0.5,0.2-0.7,0s-0.3-0.2-0.2-0.4c0.3-0.4,0.1-0.8,0-1.2c0-0.2,0-0.5,0.1-0.7   c0-0.2,0.1-0.3,0.3-0.3S104.2,230.9,104.4,230.9z"></path>
</g>
<g>
	<path class="st24" d="M130.5,216.9c-0.4,0.1-0.8,0.1-1.2,0.2c-0.3,0-0.5,0.2-0.6,0.4c-0.4,1.3-0.7,2.6-1,3.9c0,0.1-0.1,0.2-0.2,0.2   s-0.2,0-0.3-0.1c-0.1-0.6-0.6-0.9-0.9-1.4c-0.2-0.3-0.5-0.6-0.4-1c0-0.2-0.2-0.4,0.1-0.5c0.2-0.1,0.5-0.1,0.6,0.1   c0,0,0.1,0,0.1,0.1c0.4,0.4,0.4,0.5,0.6-0.2s0.3-1.3,0.5-1.9c0.1-0.3,0.3-0.5,0.6-0.5c0.9-0.1,1.8-0.2,2.7-0.4   c0.3-0.1,0.5,0.2,0.8,0.1s0.1,0.2,0.1,0.4s0,0.3-0.2,0.3L130.5,216.9z"></path>
</g>
<g>
	<path class="st25" d="M92.6,234.1c0.1,0.4,0.1,0.7,0.2,1.1s0.2,0.4,0.4,0.3c0.2,0,0.4,0.2,0.4,0.4v0.1c-0.1,0.1-0.2,0.3-0.3,0.4   c-0.4,0.1-0.3,0.3-0.3,0.6s0,0.4-0.4,0.5s-0.6,0-0.5-0.4s-0.2-0.4-0.5-0.3c-0.1,0-0.3,0.1-0.4,0.1c-0.3,0-0.7,0.3-0.8,0   c-0.2-0.4-0.3-0.8-0.1-1.2c0.4-0.8,0.7-1.7,1.1-2.5c0.2-0.4,0.6-0.2,0.9-0.3s0.2,0.3,0.3,0.5c0,0.1,0,0.2,0,0.3L92.6,234.1z    M91.8,234.9c-0.1-0.2,0.1-0.6-0.2-0.7s-0.2,0.4-0.3,0.6S91,235,91,235.2c-0.2,0.4,0,0.6,0.4,0.6s0.6-0.1,0.4-0.5   C91.8,235.1,91.8,235,91.8,234.9L91.8,234.9z"></path>
</g>
<g>
	<path class="st24" d="M117.6,220.6c-0.1,0.4,0.2,0.9,0,1.4s-0.4,0.9-1,0.9c-0.2,0-0.4,0.1-0.7,0.1c-0.4,0-0.8-0.2-1-0.5   c-0.1-0.1-0.1-0.3,0.1-0.4h0.1c0.2-0.1,0.4-0.1,0.6,0c0.6,0.3,0.7,0.2,1-0.3c0.1-0.1,0.1-0.2,0-0.3c0-0.1-0.2-0.1-0.3-0.1   c-0.2,0-0.3,0-0.4,0.1c-0.6,0.2-1.3-0.1-1.5-0.7c-0.3-0.5-0.3-1.2,0.1-1.7c0.2-0.3,0.6-0.7,0.9-0.7c0.4,0,0.8,0,1.2,0.2   c0.4,0.2,0.7,0.7,0.7,1.1C117.5,220.1,117.5,220.4,117.6,220.6z M116.6,219.9c-0.1-0.6-0.3-0.7-0.8-0.6c-0.4,0.1-0.6,0.5-0.5,0.9   s0.4,0.7,0.8,0.7C116.6,220.7,116.7,220.5,116.6,219.9L116.6,219.9z"></path>
</g>
<g>
	<path class="st23" d="M119.2,231.9c0.1,0.4,0.1,0.8-0.1,1.2c-0.4,0.5-1,0.8-1.6,0.7c-0.5-0.1-0.9-0.4-1.1-0.9   c-0.4-0.8-0.5-1.6-0.3-2.5c0.1-0.7,0.6-1.2,1.2-1.3s1.3,0.1,1.6,0.6c0.1,0.2,0.1,0.4-0.1,0.5c0,0-0.1,0-0.1,0.1   c-0.3,0.1-0.6,0-0.8-0.2c-0.2-0.2-0.6-0.1-0.7,0.1c-0.1,0.1-0.1,0.2-0.1,0.4c0,0.1-0.2,0.6,0.4,0.2c0.6-0.3,1.3-0.1,1.7,0.4   C119.2,231.3,119.1,231.6,119.2,231.9z M118.4,232c-0.1-0.7-0.1-0.6-0.7-0.6c-0.3,0-0.6,0.1-0.4,0.5c0.1,0.2,0.1,0.4,0.1,0.6   c0,0.2,0.1,0.3,0.3,0.3c0.2,0,0.4-0.1,0.6-0.1c0.3,0,0.3-0.2,0.2-0.4C118.4,232.2,118.4,232.1,118.4,232z"></path>
</g>
<g>
	<path class="st25" d="M147.1,236.3c0.1,0.2-0.1,0.4-0.1,0.5c-0.2,0.4-0.7,0.7-0.7,1.1s0.6,0.6,0.9,0.9c0.3,0.3,0.3,0.8,0.1,1.1   c-0.1,0.1-0.1,0.1-0.2,0.2c-0.1,0-0.2,0-0.3-0.1c-0.3-0.2-0.6-0.4-0.9-0.7s-0.6-0.2-0.9,0.1l-0.4,0.5c-0.4,0.6-0.6,0.6-1.1,0.1   c-0.2-0.2-0.2-0.5-0.1-0.7c0.3-0.4,0.7-0.7,0.8-1.3c-0.4-0.3-0.7-0.6-1.1-0.9c-0.2-0.1-0.3-0.4-0.2-0.6c0.1-0.2,0.2-0.6,0.6-0.6   c0.1,0,0.2,0.1,0.3,0.1c0.4,0.3,0.8,0.6,1.2,0.9c0.2,0.1,0.2,0.1,0.3-0.1c0.3-0.4,0.6-0.7,0.8-1.1s0.4-0.4,0.7-0.1   S147.1,236,147.1,236.3z"></path>
</g>
<g>
	<path class="st25" d="M146.9,250.5c-0.6,0.1-1.2,0.2-1.8,0.2c-0.3,0-0.7,0.3-0.8,0s-0.2-0.7-0.2-1.1c0-0.2,0.2-0.2,0.3-0.2l1.4-0.2   c1-0.1,1.9-0.3,2.9-0.4c0.3,0,0.7-0.3,0.8,0c0.2,0.3,0.2,0.7,0.2,1.1c0,0.2-0.2,0.2-0.3,0.2L146.9,250.5z"></path>
</g>
<g>
	<path class="st22" d="M146.5,246.9c0.8-0.1,1.6-0.2,2.3-0.4c0.4-0.1,0.5,0.1,0.5,0.4c0.1,0.6,0.1,0.6-0.5,0.7l-4.4,0.6   c-0.6,0.1-0.6,0.1-0.7-0.5c0-0.1,0-0.2,0-0.2c-0.1-0.2,0.1-0.3,0.3-0.3L146.5,246.9z"></path>
</g>
<g>
	<path class="st24" d="M103.3,224.9c-0.2,0-0.4,0.1-0.6,0.1c-0.5,0-0.9-0.3-1-0.8c0-0.1,0-0.3-0.1-0.4c-0.2-0.5,0.2-0.7,0.3-1.1   s-0.6-0.4-0.6-0.9c0-0.4,0.1-0.8,0.3-1.1c0.3-0.2,0.8-0.6,1.1-0.5s0.6,0,0.8,0.1c0.7,0.3,0.6,0.9,0.7,1.5c-0.4,0.3-0.1,0.6,0.1,0.8   c0.5,0.6,0.3,1.1,0,1.6S103.8,224.8,103.3,224.9z M103.3,224.2c0.3-0.1,0.6-0.4,0.6-0.7c0-0.2-0.5-0.7-0.7-0.6   c-0.5,0.1-0.7,0.3-0.7,0.7S102.8,224.3,103.3,224.2L103.3,224.2z M103.4,221.4c0-0.1,0-0.3-0.2-0.4c-0.3,0-0.6,0.1-0.8,0.4   c-0.1,0.2-0.1,0.4,0,0.6c0.2,0.1,0.4,0.2,0.7,0.2c0.2,0,0.3-0.2,0.4-0.4C103.4,221.7,103.4,221.5,103.4,221.4L103.4,221.4z"></path>
</g>
<g>
	<path class="st23" d="M74.4,225.3c0.9-0.1,1.2,0.1,1.4,1c0,0.1,0,0.1,0,0.2c0.2,1.4,0,1.8-1.4,1.9c-0.7,0.1-1.3-0.4-1.4-1   c0-0.2-0.1-0.4-0.1-0.6c-0.1-0.4,0-0.7,0.2-1s0.5-0.5,0.9-0.5C74.1,225.4,74.3,225.3,74.4,225.3z M75.2,226.9   c0-0.1-0.1-0.3-0.1-0.4c0-0.3-0.1-0.6-0.4-0.7c-0.4-0.1-0.7,0.1-0.9,0.4c-0.4,0.6-0.2,1.5,0.5,1.8l0,0c0.5,0.1,0.9-0.2,1-0.7v-0.1   C75.2,227.1,75.2,227,75.2,226.9z"></path>
</g>
<g>
	<path class="st23" d="M79,226.2l-0.2-1.4c0.5-0.2,1-0.3,1.5-0.3c0.2,0,0.6-0.3,0.7,0.1c0.1,0.5-0.4,0.2-0.6,0.4   c-0.1,0-0.2,0.1-0.3,0.1c-0.3,0-0.5,0.2-0.5,0.5l0,0c0,0.3,0.3,0.4,0.5,0.4l0,0c0.2,0,0.4-0.1,0.7-0.1s0.2,0.1,0.2,0.2   c0,0.1-0.1,0.2-0.2,0.2l0,0c-0.1,0-0.1,0-0.2,0c-0.3,0.1-0.7,0-0.8,0.2s0,0.6,0,0.9c0,0.1,0.1,0.3,0,0.4s-0.2,0-0.3,0.1   s-0.2-0.1-0.3-0.2C79.1,227,79,226.6,79,226.2L79,226.2z"></path>
</g>
<g>
	<path class="st25" d="M76.5,226.5l-0.2-1.4c0.5-0.2,1-0.3,1.5-0.3c0.1,0,0.2,0,0.3,0c0.1,0,0.2,0.1,0.2,0.2l0,0   c0,0.1,0,0.2-0.1,0.2c-0.3,0.1-0.7,0.1-1,0.2c-0.2,0-0.4,0.2-0.4,0.5c0,0.2,0.2,0.4,0.4,0.4c0.3,0,0.6,0,0.9-0.1   c0,0,0.1,0.1,0.1,0.2s0,0.2,0,0.2c-0.3,0.1-0.6,0.1-0.9,0.2c-0.3,0-0.4,0.1-0.3,0.4c0,0.2,0.1,0.4,0.1,0.6c0,0.2,0.2,0.4-0.1,0.4   s-0.3-0.2-0.3-0.4C76.6,227.3,76.6,226.9,76.5,226.5L76.5,226.5z"></path>
</g>
<g>
	<path class="st23" d="M141.6,216.1c0,0.2,0.2,0.5,0,0.6s-0.4,0.4-0.7,0.4s-0.8,0.2-1.1-0.1c-0.3-0.5-0.5-1.1-0.4-1.7   c0.4-0.6,1.1-0.8,1.7-0.4c0.2,0.2,0.4,0.4,0.5,0.6C141.6,215.7,141.7,215.9,141.6,216.1z M140.1,216.1c0.1,0.2,0,0.5,0.3,0.4   c0.3,0,0.6-0.3,0.5-0.6l0,0c0-0.3-0.2-0.5-0.5-0.5C140.2,215.3,140,215.7,140.1,216.1z"></path>
</g>
<g>
	<path class="st23" d="M144.8,217.8c0,0.2,0,0.4,0.1,0.6c0,0.2-0.1,0.4-0.2,0.5c-0.6,0.3-1.2,0.3-1.8,0c-0.2-0.1-0.6-1.3-0.4-1.4   s0.4-0.6,0.9-0.6C144.5,216.7,144.7,216.4,144.8,217.8z M143.6,218.3c0.3-0.1,0.7,0,0.5-0.5c-0.1-0.2,0.1-0.5-0.3-0.5   c-0.3,0-0.6,0.2-0.6,0.6c0,0.1,0,0.1,0,0.2C143.3,218.3,143.5,218.4,143.6,218.3L143.6,218.3z"></path>
</g>
<g>
	<path class="st26" d="M141.7,216.8c0.3-0.7,0.6-1.3,0.8-2c0.1-0.1,0.1-0.2,0.2-0.4c0.1-0.1,0.2-0.2,0.3-0.1   c0.1,0.1,0.2,0.2,0.1,0.3c-0.2,0.6-0.4,1.3-0.7,2c-0.1,0.2-0.1,0.5,0,0.7c-0.2,0.1-0.3,0.3-0.4,0.6c-0.2,0.5-0.4,1-0.7,1.5   c-0.1,0.1-0.2,0.2-0.3,0.1c-0.1-0.1-0.2-0.2-0.1-0.3c0.2-0.7,0.5-1.4,0.7-2C141.8,217.1,141.8,216.9,141.7,216.8z"></path>
</g>
<g>
	<path class="st20" d="M143.5,226.7c0.8-0.1,1.6-0.2,2.4-0.4c0.3-0.1,0.4,0.1,0.4,0.3c0.2,1.1,0.2,1.2-0.9,1.4s-2.4,0.4-3.5,0.5   c-0.9,0.1-0.9,0.1-1-0.8c-0.1-0.6-0.1-0.6,0.5-0.7L143.5,226.7z"></path>
</g>
<g>
	<path class="st22" d="M144,230.1c-0.6,0.1-0.8-0.1-0.9-0.7s0-0.8,0.7-0.9s0.7,0,0.8,0.7S144.7,230,144,230.1z"></path>
</g>
<g>
	<path class="st22" d="M143.2,225c0.7-0.1,0.8,0,0.9,0.6s0,0.8-0.6,0.9s-0.9,0-1-0.6S142.6,225.1,143.2,225z"></path>
</g>
<g>
	<path class="st20" d="M96.2,256.1c0.1,0.4,0.2,0.8,0.2,1.2c-0.1,0.3-0.2,0.7-0.5,1c-0.2,0.3-0.5,0.2-0.8,0.3   c-0.4,0.1-0.9,0.2-1.3-0.2c-0.2-0.2-0.1-0.4-0.2-0.6c-0.6-0.7-0.4-1.6-0.5-2.4c-0.1-0.6,0.8-1.4,1.3-1.5c0.8,0,1.5,0.5,1.8,1.2   C96.2,255.5,96.2,255.8,96.2,256.1L96.2,256.1z M95.4,256.2c-0.1-0.3,0-0.7-0.2-1s-0.2-0.7-0.7-0.5c-0.4,0.1-0.6,0.4-0.6,0.8   c0,0.5,0.2,1,0.2,1.4s0.4,0.6,0.6,0.8c0.1,0.1,0.3,0.1,0.3,0c0.2-0.3,0.6-0.5,0.4-1C95.4,256.6,95.4,256.4,95.4,256.2z"></path>
</g>
<g>
	<path class="st23" d="M75.3,236.1c0.3,0,0.5-0.1,0.8-0.1c0.4-0.1,0.7,0.1,0.9,0.5c0.2,0.6,0.3,1.3,0.1,1.9   c-0.1,0.3-0.3,0.5-0.6,0.5c-0.4,0.1-0.9,0-1.2,0.4c-0.2,0.2-0.5-0.1-0.6-0.3c-0.2-0.8-0.2-1.6-0.4-2.4c0-0.2,0.1-0.2,0.2-0.3   L75.3,236.1z M75.2,237.5v0.2c0.1,0.8,0.3,0.9,1,0.6c0.2-0.1,0.3-0.2,0.3-0.4c0-0.4-0.1-0.9-0.2-1.3c-0.1-0.2-0.2-0.3-0.4-0.3   c-0.3,0-0.6,0-0.8,0.2c-0.2,0.1,0,0.5,0,0.7S75.1,237.5,75.2,237.5L75.2,237.5z"></path>
</g>
<g>
	<path class="st25" d="M77.6,237.1l-0.2-1.3c0.4-0.2,0.9-0.3,1.4-0.3c0.2,0,0.7-0.5,0.8,0.1c0,0.3-0.5,0.2-0.7,0.3   c-0.2,0-0.4,0.1-0.6,0.1s-0.2,0.2-0.2,0.3s0,0.4,0.3,0.3s0.7-0.1,1.1-0.2c0.1,0,0.2,0,0.2,0.1l0,0c0,0.1,0,0.2-0.1,0.3   c-0.3,0.1-0.6,0.1-0.9,0.1c-0.5,0.1-0.5,0.1-0.4,0.6c0,0.2,0.1,0.3,0.3,0.3l1.2-0.2c0.2,0,0.3,0,0.3,0.2S80,238,79.8,238   s-0.4,0.1-0.7,0.1c-0.5,0.1-0.9,0.2-1.4,0.1L77.6,237.1L77.6,237.1z"></path>
</g>
<g>
	<path class="st23" d="M80.5,236.7c0-0.3-0.1-0.7-0.2-1s0.1-0.4,0.3-0.4s0.3,0.1,0.3,0.3c0.1,0.6,0.2,1.2,0.2,1.8   c0,0.3,0.2,0.4,0.4,0.3s0.7-0.1,1.1-0.1c0,0,0.1,0.1,0.1,0.2c0,0.1,0,0.1,0,0.2c-0.4,0.1-0.9,0.2-1.3,0.3c-0.2,0-0.6,0.1-0.7,0   s-0.2-0.6-0.2-0.9S80.5,236.8,80.5,236.7z"></path>
</g>
<g>
	<path class="st27" d="M77.4,248.2v0.2c0.1,0.3,0,0.8,0.4,0.8c0.4,0.1,0.9,0,1.2-0.2c0.1-0.1,0.2-0.2,0.2-0.4s0.1-0.3,0.2-0.3   s0.5-0.2,0.6,0s0.1,0.4,0,0.5c-0.1,0.6-0.6,1.1-1.2,1.1c-0.2,0-0.4,0.1-0.7,0.1c-0.7,0.2-1.4-0.3-1.6-1v-0.1c0-0.3-0.2-0.6-0.3-0.8   c-0.2-0.2,0.2-0.5,0.1-0.8c-0.2-0.5,0-1,0.5-1.2c0.4-0.4,0.9-0.6,1.4-0.5s1,0.3,1.3,0.6c0.2,0.2,0.3,0.4,0.2,0.7   c-0.1,0.1-0.8,0.2-0.8,0.1c-0.2-0.8-0.9-0.5-1.3-0.4c-0.5,0.3-0.7,0.9-0.4,1.3C77.4,248,77.4,248.1,77.4,248.2z"></path>
</g>
<g>
	<path class="st27" d="M80.7,247.5l-0.3-1.9c0.7-0.2,1.3-0.3,2-0.4c0.3-0.1,0.6-0.1,0.9-0.1s0.2,0.1,0.3,0.3s0.1,0.4-0.2,0.4   c-0.5,0.1-1,0.1-1.4,0.2c-0.6,0.1-0.5,0.1-0.5,0.6c0,0.3,0.2,0.4,0.4,0.3c0.4-0.1,0.9-0.1,1.3-0.2c0.2,0,0.3,0.1,0.3,0.3   s0,0.4-0.2,0.4s-0.7,0.1-1.1,0.2c-0.7,0.1-0.6-0.1-0.5,0.8c0,0.3,0.1,0.4,0.5,0.4s1-0.1,1.4-0.2c0.3-0.1,0.4,0,0.4,0.3   s0,0.3-0.3,0.4c-0.8,0.1-1.6,0.2-2.4,0.4c-0.3,0.1-0.4-0.1-0.4-0.3C80.9,248.6,80.8,248,80.7,247.5L80.7,247.5z"></path>
</g>
<g>
	<path class="st27" d="M79.5,256.3c0.7-0.1,1.4,0.1,1.8,0.6c0,0,0.1,0.1,0.1,0.2c0.1,0.4,0.1,0.9,0.4,1.2c-0.3,0.4,0,0.9-0.2,1.3   c-0.1,0.1-0.1,0.4-0.3,0.4c-0.4,0.2-0.8,0.6-1.2,0.6s-0.8,0-1.3,0c-0.3-0.1-0.5-0.3-0.7-0.5c-0.3-0.5-0.5-1.1-0.5-1.7v-0.1   c-0.2-0.5,0-1,0.4-1.4C78.5,256.6,78.9,256.3,79.5,256.3z M79.9,259.9l0.6-0.1c0.2,0,0.3-0.2,0.4-0.4c0-0.4,0-0.8,0.1-1.1   c0.1-0.3-0.3-0.5-0.3-0.8s-0.7-0.6-1.1-0.5s-0.7,0.3-0.9,0.7c-0.1,0.3-0.1,0.7-0.1,1c0.1,0.3,0.2,0.7,0.3,1   c0.1,0.2,0.3,0.3,0.4,0.3L79.9,259.9z"></path>
</g>
<g>
	<path class="st27" d="M82.3,258.1c-0.1-0.4-0.2-0.8-0.2-1.2s-0.3-0.6,0.1-0.8c0.4-0.2,0.9-0.1,1.2,0.3c0,0,0,0,0,0.1   c0.4,0.5,0.9,1.1,1.3,1.6c0,0.1,0.1,0.1,0.2,0.1c0-0.1,0.1-0.1,0.1-0.2c-0.1-0.6-0.2-1.3-0.3-1.9c-0.1-0.3,0-0.4,0.3-0.4   s0.3,0,0.3,0.3c0.2,1.1,0.3,2.2,0.5,3.3c0,0.1,0.1,0.4-0.1,0.4s-0.6,0.3-0.8-0.1c-0.2-0.4-0.5-0.7-0.8-1s-0.5-0.9-1-1   c0,0.4,0,0.9,0.1,1.3c0,0.2,0.1,0.5,0.1,0.7c0,0.3-0.2,0.5-0.5,0.6c-0.1,0-0.1,0-0.2,0s-0.2-0.1-0.2-0.2   C82.4,259.3,82.3,258.7,82.3,258.1z"></path>
</g>
<g>
	<path class="st21" d="M125,209c-0.1-0.4-0.1-0.8-0.2-1.2c0-0.2-0.2-0.4,0.1-0.6c0.4-0.2,0.8-0.1,1.1,0.1c0,0.1,0.1,0.1,0.1,0.2   c0.2,0.3,0.3,0.7,0.5,1c0.4-0.3,0.3-0.8,0.3-1.2s0.1-0.5,0.5-0.5c0.2,0,0.4,0,0.6-0.1c0.3-0.1,0.3,0.1,0.3,0.3   c0.1,0.9,0.2,1.8,0.4,2.6c0,0.2-0.1,0.4-0.2,0.6c-0.2,0.1-0.4,0.1-0.5,0c0-0.1-0.1-0.1-0.1-0.2c-0.1-0.5-0.1-1-0.2-1.4   c0-0.1-0.1-0.2-0.1-0.2s-0.1,0.1-0.1,0.2c0,0.4-0.1,0.7-0.3,1c-0.1,0.3-0.3,0.2-0.5,0.1s-0.2-0.3-0.2-0.3c-0.4-0.1-0.1-0.6-0.5-0.7   c-0.1,0.3,0,0.6,0.1,1s0.1,0.4,0.1,0.6c0.1,0.4,0.1,0.4-0.4,0.5c-0.3,0-0.4,0-0.4-0.3C125.1,210,125,209.5,125,209z"></path>
</g>
<g>
	<path class="st21" d="M129.6,209.1c-0.2,0-0.4,0.1-0.6,0.1c-0.2,0-0.2-0.2-0.2-0.3s-0.1-0.3,0.1-0.4c0.4-0.1,0.8-0.1,1.2-0.2   c0.2,0,0.2,0.2,0.2,0.3s0.1,0.3-0.1,0.4S129.8,209,129.6,209.1z"></path>
</g>
<g>
	<path class="st21" d="M137.4,207.2c-0.1-0.4-0.1-0.7-0.1-1.1c0-0.2-0.3-0.5,0.1-0.7c0.6-0.2,1-0.1,1.2,0.3c0.1,0.3,0.5,0.5,0.4,0.9   l0.1,0.1c0,0,0.1-0.1,0.1-0.2c0.3-0.2-0.1-0.6,0.2-0.9c0.1-0.1-0.1-0.4,0-0.5c0.2-0.1,0.5-0.1,0.8-0.1c0.4,0,0.5,0.3,0.6,0.6   c0.1,0.7,0.2,1.5,0.3,2.2c0,0.3-0.1,0.5-0.3,0.7c-0.2,0.1-0.4,0.1-0.5-0.1c0,0,0-0.1-0.1-0.1c0-0.2-0.1-0.4-0.1-0.7s-0.1-0.7-0.2-1   c-0.2,0.3-0.1,0.6-0.2,0.9c-0.1,0.1-0.1,0.3-0.2,0.4c0,0.1-0.2,0.2-0.3,0.1c0,0-0.1,0-0.1-0.1c-0.2-0.2-0.4-0.4-0.6-0.6   c-0.1-0.1,0.1-0.5-0.2-0.5c-0.1,0,0,0.3,0,0.5c0,0.4,0.1,0.7,0.2,1.1c0.1,0.3-0.1,0.4-0.4,0.4s-0.5,0.2-0.6-0.3   S137.5,207.7,137.4,207.2z"></path>
</g>
<g>
	<path class="st21" d="M141.2,207c-0.1-0.2,0-0.3,0.1-0.4c0.1,0,0.1,0,0.2,0c0.2,0,0.4,0,0.6-0.1c0.2-0.1,0-0.4,0-0.6   s0.2-0.3,0.4-0.3s0.3,0,0.3,0.2v0.1c0,0.4,0.1,0.6,0.6,0.5c0.3-0.1,0.4,0,0.4,0.3s-0.2,0.4-0.4,0.4c-0.4,0-0.5,0.2-0.4,0.6   c0,0.1,0,0.2,0,0.3c-0.1,0.2-0.2,0.1-0.4,0.1s-0.2,0-0.2-0.1c0-0.7-0.3-0.8-0.9-0.6C141.5,207.3,141.3,207.1,141.2,207z"></path>
</g>
<g>
	<path class="st24" d="M98.1,213c0-0.4-0.1-0.9-0.2-1.3c-0.1-0.5,0.1-0.5,0.4-0.5c0.6-0.1,0.7-0.1,0.9,0.5c0.1,0.1,0,0.2,0.1,0.3   s0.3,0.4,0.4,0.6c0.2-0.2,0.3-0.5,0.2-0.8c0-0.1,0-0.2,0-0.3c0.1-0.3,0.2-0.6,0.7-0.6s0.5-0.1,0.6,0.5c0.1,0.9,0.2,1.8,0.4,2.7   c0,0.3-0.1,0.4-0.3,0.4s-0.3-0.1-0.3-0.3s-0.1-0.6-0.1-0.9c0-0.3-0.1-0.7-0.2-1c-0.3,0.2,0.2,0.6-0.3,0.8c0,0,0,0.2-0.1,0.3   c-0.2,0.4-0.8,0.5-1,0.1c-0.1-0.3-0.3-0.7-0.6-0.9c0,0.4,0,0.8,0.1,1.2c0,0.3,0.1,0.5,0.1,0.8s-0.2,0.2-0.4,0.3s-0.3,0-0.3-0.2   C98.2,214,98.2,213.5,98.1,213z"></path>
</g>
<g>
	<path class="st20" d="M102.1,212.4v-0.1c-0.1-0.5-0.3-1.1,0.2-1.5s1.2-0.4,1.9-0.5c0.2,0,0.4,0.2,0.5,0.4c0.2,0.1,0.3,0.4,0.1,0.6   l0,0c-0.1,0.2-0.4,0.2-0.6,0.1l0,0c-0.2-0.2-0.6-0.3-0.9-0.2s-0.6,0.3-0.6,0.7c0,0.3,0,0.7,0.2,1c0.1,0.2,0.2,0.6,0.5,0.6   s0.8,0,1-0.5c0-0.1-0.1-0.3,0.1-0.4c0.1,0,0.3,0,0.4,0s0.1,0.2,0.1,0.3c0,0.4-0.2,0.8-0.6,1s-0.8,0.3-1.3,0.3   c-0.3,0.1-0.5-0.3-0.7-0.4S102.2,213.4,102.1,212.4z"></path>
</g>
<g>
	<path class="st23" d="M114.3,210.7c0.1,0.5,0.1,1,0.2,1.4c0,0.3-0.1,0.3-0.3,0.4s-0.3,0-0.4-0.2c-0.1-0.6-0.2-1.1-0.2-1.7   c0-0.1-0.1-0.2-0.2-0.2s-0.1,0.2-0.1,0.3s-0.1,0.3-0.1,0.5s0.2,0.5-0.3,0.6s-0.5-0.2-0.8-0.4s-0.1-0.6-0.2-0.5s0,0.4,0,0.7   s0.1,0.5,0.1,0.8c0.1,0.5,0,0.6-0.6,0.6c-0.2,0-0.3-0.1-0.3-0.2c-0.1-0.9-0.3-1.7-0.4-2.6c0-0.2-0.3-0.6,0.1-0.8   c0.7-0.2,0.9-0.1,1.2,0.5c0.1,0.2,0.4,0.3,0.3,0.5c0,0.1,0,0.3,0.2,0.3c0.1-0.1,0.2-0.2,0.2-0.3c0-0.3,0.1-0.5,0.1-0.7   c-0.1-0.5,0.1-0.6,0.5-0.6s0.6-0.1,0.6,0.4S114.2,210.2,114.3,210.7z"></path>
</g>
<g>
	<path class="st21" d="M115,210.4l-0.2-1.6c0.6-0.2,1.1-0.3,1.7-0.3c0.2,0,0.4-0.1,0.7-0.1c0.2,0,0.4,0.1,0.5,0.3   c0,0.6,0.4,1.1-0.1,1.7c-0.1,0.1-0.1,0.2-0.1,0.3c0,0,0,0,0.1,0.1c0.2,0.2,0.4,0.4,0.6,0.6c0.2,0.4,0.2,0.4-0.2,0.5   c-0.4,0.1-0.7-0.1-0.9-0.4c-0.2-0.4-0.5-0.7-0.9-0.9c-0.1-0.1-0.2,0-0.3,0.1v0.1c0,0.3,0.1,0.6,0.1,0.9c0.1,0.5,0.1,0.5-0.5,0.6   c-0.2,0-0.3,0-0.4-0.2C115.1,211.5,115,211,115,210.4L115,210.4z M116.2,210.1c0.1,0,0.2,0,0.3-0.1c0.3,0,0.5-0.3,0.5-0.6v-0.1   c-0.1-0.5-0.4-0.2-0.6-0.2s-0.4,0-0.5,0.1c-0.1,0-0.2,0.1-0.2,0.1c0,0.2,0,0.4,0.1,0.6C115.9,210.2,116.1,210.1,116.2,210.1z"></path>
</g>
<g>
	<path class="st28" d="M91.8,234.9c0,0.1,0,0.2,0,0.3c0.2,0.4-0.1,0.5-0.4,0.5s-0.6-0.2-0.4-0.6c0.1-0.1,0.2-0.2,0.2-0.4   s0.1-0.6,0.3-0.6S91.7,234.6,91.8,234.9z"></path>
</g>
<g>
	<path class="st28" d="M116.6,219.9c0.1,0.7,0,0.8-0.6,0.9c-0.3,0.1-0.7-0.3-0.8-0.7c-0.1-0.4,0.2-0.8,0.5-0.9   C116.3,219.2,116.5,219.3,116.6,219.9z"></path>
</g>
<g>
	<path class="st19" d="M118.3,232c0,0.1,0,0.2,0.1,0.3c0,0.2,0,0.4-0.2,0.4s-0.4,0-0.6,0.1c-0.2,0-0.3-0.1-0.3-0.3s0-0.4-0.1-0.6   c-0.2-0.4,0.1-0.5,0.4-0.5C118.2,231.4,118.2,231.3,118.3,232z"></path>
</g>
<g>
	<path class="st28" d="M103.3,224.2c-0.5,0.1-0.7-0.1-0.8-0.7s0.2-0.6,0.7-0.7c0.2,0,0.7,0.4,0.7,0.6   C103.9,223.8,103.7,224.1,103.3,224.2z"></path>
</g>
<g>
	<path class="st28" d="M103.4,221.4c0,0.1,0,0.2,0,0.3c0,0.2-0.2,0.4-0.4,0.4c-0.2,0-0.5-0.1-0.7-0.2c-0.1-0.2-0.1-0.4,0-0.6   c0.2-0.2,0.5-0.4,0.8-0.4C103.4,221.1,103.4,221.3,103.4,221.4z"></path>
</g>
<g>
	<path class="st19" d="M75.2,226.9c0,0.1,0,0.2,0,0.3c0,0.5-0.4,0.8-0.9,0.8h-0.1c-0.6-0.4-0.9-1.2-0.5-1.8l0,0   c0.2-0.3,0.6-0.4,0.9-0.4c0.3,0.1,0.5,0.4,0.4,0.7C75.1,226.6,75.2,226.7,75.2,226.9z"></path>
</g>
<g>
	<path class="st28" d="M140.1,216.1c0-0.4,0.1-0.8,0.4-0.7c0.3,0,0.5,0.2,0.5,0.5s-0.2,0.6-0.5,0.6l0,0   C140,216.6,140.1,216.3,140.1,216.1z"></path>
</g>
<g>
	<path class="st28" d="M143.6,218.3c-0.2,0.1-0.3,0-0.4-0.2c-0.1-0.3,0.1-0.6,0.4-0.7c0.1,0,0.1,0,0.2,0c0.4,0,0.2,0.3,0.3,0.5   C144.3,218.4,143.9,218.3,143.6,218.3z"></path>
</g>
<g>
	<path class="st28" d="M95.4,256.2c0,0.2,0.1,0.4,0.1,0.7c0.1,0.5-0.3,0.7-0.4,1c0,0-0.2,0.1-0.3,0c-0.3-0.2-0.6-0.4-0.6-0.8   s-0.2-1-0.2-1.4s0.2-0.7,0.6-0.8c0.5-0.1,0.5,0.3,0.7,0.5S95.3,255.9,95.4,256.2z"></path>
</g>
<g>
	<path class="st28" d="M75.2,237.5c0-0.1,0-0.1,0-0.2c0-0.2-0.2-0.6,0-0.7c0.3-0.1,0.5-0.2,0.8-0.2c0.2,0,0.3,0.1,0.4,0.3   c0.1,0.4,0.2,0.9,0.2,1.3c0,0.1-0.2,0.3-0.3,0.4c-0.7,0.3-0.9,0.1-1-0.6L75.2,237.5z"></path>
</g>
<g>
	<path class="st18" d="M79.9,259.9l-0.6,0.1c-0.2,0-0.4-0.1-0.4-0.3c-0.1-0.3-0.3-0.7-0.3-1s0-0.7,0.1-1c0.2-0.4,0.5-0.6,0.9-0.7   c0.3-0.1,1,0.2,1.1,0.5s0.4,0.5,0.3,0.8c-0.1,0.4-0.1,0.8-0.1,1.1c0,0.2-0.2,0.3-0.4,0.4L79.9,259.9z"></path>
</g>
<g>
	<path class="st28" d="M116.2,210.1c-0.2,0-0.4,0.2-0.4-0.1c-0.1-0.2-0.1-0.4-0.1-0.6c0,0,0.1-0.1,0.2-0.1c0.2-0.1,0.4-0.1,0.5-0.1   c0.2,0,0.5-0.3,0.6,0.2c0.1,0.3-0.1,0.6-0.4,0.7h-0.1C116.5,210.1,116.4,210.1,116.2,210.1z"></path>
</g>
<g class="st29">
	<path class="st30" d="M113.8,84.5l10.8,20.5l4.4-22.8l5.8-0.8l-6.5,29.7l-5.3,0.8l-14.8-26.6L113.8,84.5z"></path>
</g>
<g class="st29">
	<path class="st30" d="M143.1,80.2l5.6-0.8l14.5,26.7l-5.6,0.8l-3.4-6.7l-10.3,1.5l-1.3,7.4l-5.6,0.8L143.1,80.2z M152.3,96.5   l-5.6-11.1l-2.2,12.2L152.3,96.5z"></path>
</g>
<g class="st29">
	<path class="st30" d="M181.2,79.5l-9,1.3l3.4,23.4l-5.4,0.8l-3.4-23.4l-9,1.3l-0.7-4.8l23.4-3.4L181.2,79.5z"></path>
</g>
<g>
	<path class="st0" d="M253.7,256.5c0-0.9,0.1-1.7,0.4-2.6c0-0.1,0-0.2-0.1-0.2l-0.9-0.5c0,0.4,0,0.8,0,1.1c0,0.4,0,0.7,0,1   C253,255.8,253.3,256.1,253.7,256.5z"></path>
</g>
</svg>
