<?xml version="1.0" encoding="UTF-8"?>
<svg xmlns="http://www.w3.org/2000/svg" xmlns:xlink="http://www.w3.org/1999/xlink" version="1.1" id="Layer_1" x="0px" y="0px" viewBox="0 0 400 300" style="enable-background:new 0 0 400 300;" xml:space="preserve">
<style type="text/css">
	.st0{opacity:0.25;fill:#F3F2EF;}
	.st1{opacity:0.58;fill:#F3F2EF;}
	.st2{opacity:0.19;fill:#F3F2EF;}
	.st3{fill:#EDFECE;}
	.st4{fill:#6CA169;}
	.st5{fill:#8DB380;}
	.st6{fill:#A8CD9B;}
	.st7{fill:#D0E8CA;}
	.st8{fill:none;}
	.st9{fill:#86C17E;}
	.st10{fill:#43703B;}
	.st11{fill:#262C1F;}
	.st12{fill:#82C27E;}
	.st13{fill:#7BC27E;}
	.st14{fill:#EBFEC6;}
	.st15{fill:#EEFDD2;}
	.st16{opacity:5.000000e-02;fill:#F3F2EF;}
</style>
<rect class="st0" width="400" height="189.8"></rect>
<path class="st1" d="M125.3,66.4c0-0.3,0-0.5,0-0.8c0-10.4-8.5-18.9-18.9-18.9c-3.9,0-7.6,1.2-10.6,3.2c-1.3-6.1-6.7-10.6-13.2-10.6  c-7.5,0-13.5,6-13.5,13.5c0,0.8,0.1,1.6,0.2,2.4c-2.4-1.5-5.3-2.4-8.4-2.4c-8,0-14.5,5.9-15.6,13.5H125.3z"></path>
<path class="st1" d="M270.3,61.3c0-0.3,0.1-0.7,0.1-1c0-13.9-11.3-25.2-25.2-25.2c-5.2,0-10.1,1.6-14.1,4.3  c-1.8-8.1-9-14.1-17.6-14.1c-9.9,0-18,8.1-18,18c0,1.1,0.1,2.2,0.3,3.2c-3.2-2-7.1-3.2-11.2-3.2c-10.6,0-19.4,7.8-20.8,18H270.3z"></path>
<path class="st2" d="M95.5,161c-1.8-4-1.7-8.3-4.9-11.4c-0.5,6.8-2.7,10.2-6.6,10.7c0.9-2.5,1.9-5.1,2.9-7.7  c-1.5-0.3-2.5-0.6-3.7-0.9c-6.5,8.2-9.6,18-10.2,28.7c-0.1,1.6,0.5,2.3,2.1,2.9c3.4,1.3,6.6,3.1,9.8,4.9c0.6,0.3,0.8,1.3,1.2,1.9  c-0.7,0.3-1.4,0.8-2.1,0.8c-11.5,0-23,0-34.4,0c-0.6,0-1.3-0.5-1.9-0.7c0.3-0.6,0.4-1.5,0.9-1.8c3-1.7,5.9-3.4,9-4.9  c1.2-0.6,1.8-1,2.1-2.4c2.8-16.3,1.8-32.1-5.4-47.2c-0.6-1.2-1.1-2.5-1.8-4c-1,1.7-2.1,2.6-3.8,1.2c-0.1-0.1-1.1,0.5-1.1,0.8  c0.1,2.6,0.2,5.3,0.7,7.9c0.3,1.4,1.3,2.8,2,4.3c-3.9-0.5-5.9-3-6.9-6.4c-0.6-2-1.1-4.1-1.2-6.2c-0.1-1.8,0.2-3.7,0.4-5.7  c-5.7,3.8-6.8,10.6-10.6,16.2c-0.6-9,0.3-16.9,9.4-21.5c-3.4-1-6.2-0.1-9.1,0.3c-3.2,0.4-6.3,0.9-9.7,1.4c2.9-5.6,9.5-11.3,19.7-9.1  c-4.3-3-8.4-4.8-13.5-4.7c2.7-3.9,6.6-4.7,10.6-4.4c5.4,0.5,8.6,3.7,10.1,9.4c1.9-3.8,3.9-7.1,8.2-8c3.8-0.8,7.2,0.2,10.6,2.3  c-3,1.1-5.8,1.8-8.4,3.1c-3.1,1.5-6.6,2.8-8,6.6c2-0.8,3.9-1.9,6-2.4c2-0.5,4.2-1.7,5.5-0.1c1.9,0.3,3.4,0.2,4.6,0.8  c4.7,2.3,8.2,6,11.5,9.9c-0.1,0.2-0.1,0.4-0.2,0.6c-3-0.3-6-0.5-8.9-1c-2.6-0.5-5.1-1.5-7.7-2.2c-1.7-0.4-3.4-0.6-5.3-0.7  c6.2,4.8,6.9,10.9,4.9,18c-2.1-4.3-4-8.3-6-12.3c-2.2,0.7-1.1,1.5-0.7,2.2c4.4,6.8,7.5,14.2,8.6,22.2c1,7.5,1.2,15.2,1.7,22.8  c0.1,1.8,0.1,3.7,0.4,5.5c0.1,0.6,0.9,1.1,1.3,1.7c0.5-0.5,1.2-1,1.3-1.6c0.6-2.4,1-4.8,1.5-7.1c1.8-8.6,5-16.5,11.1-22.9  c0.1-0.2,0.3-0.3,0.4-0.5c0-0.1,0-0.3-0.2-1.2c-2,2.7-3.8,5-5.5,7.2c-0.9-4.4,0.4-7.2,4.8-10.6c-4.7,0-9.4,0-14.2,0  c3.4-4.3,11.3-8.7,18.5-2.4c-1.6-4.7-6-5.7-9.1-8.1c4.7-2.3,8.5-0.5,11.1,5.1c4.8-5.6,11.2-5.8,13.5-0.7c-2.5,0.4-5.1,0.7-8.3,1.2  c2.7,1.1,5.1,1.6,6.9,2.9c1.8,1.4,3,3.5,4.5,5.4c-0.2,0.2-0.3,0.4-0.5,0.6c-3.6-1.2-7.3-2.3-10.9-3.5c-0.2,0.1-0.3,0.3-0.5,0.4  C97.1,150.2,97.2,155.2,95.5,161z"></path>
<path class="st3" d="M157.9,115.9C157.9,115.8,157.8,115.7,157.9,115.9C157.8,115.7,157.9,115.8,157.9,115.9  C158,115.9,157.9,115.9,157.9,115.9z"></path>
<path class="st4" d="M221.1,192.7L221.1,192.7C221.1,192.7,221.1,192.7,221.1,192.7l35.2,0.1C244.6,192.7,232.9,192.7,221.1,192.7z"></path>
<path class="st4" d="M256.3,192.8c-11.7,0-23.4,0-35.2-0.1v0l0,0C232.9,192.7,244.6,192.7,256.3,192.8z"></path>
<path class="st4" d="M224.2,190.3c-0.2-0.9-0.4-1.7-0.6-2.6c0,0,0,0,0,0c0,0,0,0,0,0C223.8,188.5,224,189.4,224.2,190.3z"></path>
<polygon class="st5" points="222.7,186.1 222.7,186.1 222.6,186.1 "></polygon>
<path class="st6" d="M223.5,187.6c0.1-0.3,0.1-0.7,0.2-1c-0.2,0-0.4,0-0.6,0C223.3,187,223.4,187.3,223.5,187.6z"></path>
<path class="st6" d="M223.5,187.6C223.5,187.6,223.5,187.6,223.5,187.6c-0.1-0.3-0.3-0.7-0.4-1C223.3,187,223.4,187.3,223.5,187.6z"></path>
<path class="st7" d="M259.8,192.2c-0.2,0-0.3,0.1-0.4,0.3c0.1,0.1,0.3,0.2,0.4,0.2C259.9,192.5,259.8,192.4,259.8,192.2z"></path>
<g>
	<path class="st8" d="M223.1,183.8c-2.6-4.9-5.4-9.7-8.1-14.5c0-0.1-0.1-0.2-0.1-0.2c0,0.1,0.1,0.2,0.1,0.2   C217.7,174.1,220.4,178.9,223.1,183.8z"></path>
	<path class="st8" d="M214.7,168.4c0.1,0.3,0.2,0.5,0.3,0.7C214.8,168.9,214.8,168.7,214.7,168.4z"></path>
	<path class="st8" d="M325.4,172.1c-0.6,0.5-1.2,1-1.9,1.4C324.2,173.1,324.8,172.7,325.4,172.1z"></path>
	<path class="st8" d="M215.5,172.9c0.2,0.3,0.3,0.7,0.5,1l0,0c0,0,0,0,0,0C215.9,173.5,215.7,173.2,215.5,172.9z"></path>
	<path class="st7" d="M256.3,192.8l0-0.2c0-0.6,0-1.2,0-1.3c-1.2-1.8-2.2-3.2-3-4.7c-1.7-2.9-3.3-5.9-4.9-8.9   c-0.3-0.5-0.2-1.1-0.2-1.7c-1.9-1.1-2.2-3.2-3-4.9c-0.9-2.1-2-3.9-3.8-5.4c-3.2-2.8-6.4-5.7-9.5-8.6c-0.7-0.5-1.6-0.9-2.2-1.5   c-4.3-3.8-8.5-7.5-12.8-11.4c-2.5-2.3-5-4.7-7.4-7c-0.3-0.3-0.7-0.7-1-1l0,0c-0.3-0.1-0.7-0.1-0.9-0.3c-2.9-2.6-5.7-5.3-8.5-7.9   c-2.4-2.2-5-4.3-7.5-6.4c-0.5-0.5-0.9-1.1-1.4-1.7c-1.9-1.4-3.7-2.7-5.6-4.1l0,0c0.3,0.9,0.5,1.7,0.8,2.6c0.5,1.4,1.2,2.7,1.7,4.1   c0.5,1,1,2,1.5,3.1c0.9,1.6,1.8,3.2,2.6,4.8c1.9,3.9,3.8,7.8,5.6,11.8c1.4,2.9,2.7,5.9,4,8.9c0.5,0.8,1.1,1.7,1.6,2.5   c2.1,4.2,4.1,8.5,6.1,12.7c1.4,2.9,2.7,5.8,4.1,8.7c0.9,1.6,1.8,3.2,2.6,4.8c1.8,3.6,3.6,7.2,5.3,10.8c0.3,0.6,0.1,1.3,0.2,2   c0.2,0.1,0.4,0.2,0.5,0.2v0C232.9,192.7,244.6,192.7,256.3,192.8z M209.5,148.6c-0.5-0.4-0.7-0.5-0.8-0.7c-2.2-1.9-4.4-3.7-6.5-5.6   c-0.1-2.4-0.1-4.8-0.2-7.2c0,0,0.1,0,0.2,0c0,0,0.1,0.1,0.1,0.1s0,0.1,0.1,0.1c0.2,0.2,0.4,0.3,0.6,0.5c2,1.9,3.9,3.8,5.9,5.6   c0.2,0.2,0.7,0.3,0.7,0.5C209.5,144,209.5,146.1,209.5,148.6z M212,148.9c0.1-1,0.1-1.7,0.1-2.5c1.7,0.5,23.4,17.1,26.2,20   c0,0.7,0,1.6,0,2.9C229.5,162.5,220.8,155.8,212,148.9z M214.7,174.6c-0.5-0.9-0.4-2.1-0.6-3.1c0.1-0.2,0.3-0.4,0.4-0.6   c-0.2-0.5-0.3-1-0.5-1.5c0.1-0.3,0.2-0.6,0.4-1.5c0.1,0.2,0.2,0.4,0.2,0.6c0.1,0.3,0.2,0.5,0.3,0.7c0,0.1,0.1,0.2,0.1,0.2   c2.7,4.8,5.4,9.6,8.1,14.5c0.5,0.8,0.5,1.9,0.7,2.8c-0.1,0.3-0.1,0.7-0.2,1c0,0,0,0,0,0c0.2,0.9,0.4,1.7,0.6,2.6   c-0.2,0.1-0.3,0.1-0.5,0.2c-0.4-0.6-0.8-1.1-1.2-1.8C219.9,184,217.3,179.3,214.7,174.6z"></path>
	<path class="st6" d="M202,126.2c1.7,1.7,3.3,3.6,5,5.4c2.8,0.8,4.2,3.2,6.1,5.1c0.3,0.3,0.7,0.7,1,1c0.7,0.5,1.4,1.1,2,1.6   c3.4,3.1,6.8,6.1,10.2,9.2c1,0.8,2,1.7,3,2.5c0.7,0.5,1.3,1,2.1,1.6c3.2-3.4,6.4-6.8,9.6-10.2c0.5-0.7,1-1.3,1.8-2.4   c-2.1-0.9-4-1.9-5.9-2.7c-6.1-2.6-12.1-5.1-18.2-7.7c-0.2-0.1-0.4-0.3-0.6-0.5c-4.7-1.9-9.5-3.9-14.2-5.8c-2.5-1-4.8-2.2-7.3-3.3   c-0.2,0-0.3,0-0.5-0.1c0.1,0.4,0.1,0.9,0.3,1.1C198.3,122.7,200.2,124.4,202,126.2z"></path>
	<path class="st5" d="M260.5,157.6c3-1.2,5.7-2.3,8.4-3.5c6.3-2.7,12.5-5.4,18.8-8.1c0.2-0.1,0.5-0.1,0.7-0.1   c-0.3-0.7-0.6-1.4-0.9-2.1c-0.7,0.2-1.4,0.6-2.1,0.5c-3.5-0.5-7-1-10.2-2.5c-4.3-2-6.2-5.7-5.8-10.4c0.2-2.3,1.1-4.2,2.2-6.1   c-1.2-1.6-2.4-3.2-3.6-4.9c-0.3,0.2-0.8,0.4-0.9,0.7c-0.3,1.3-0.5,2.6-0.7,3.9c-0.9,4.8-1.7,9.5-2.6,14.3c-0.1,0.4-0.2,0.7-0.3,1.1   c0,0.3-0.1,0.7-0.1,1c-0.7,4.2-1.5,8.4-2.2,12.6C261,155,260.8,156.2,260.5,157.6z"></path>
	<path class="st6" d="M347,138.3c0.6,0.7,1.3,1.3,2,1.9c1.2-3,2.4-6,3.6-8.9c0.5-1.1,1-2.2,1.5-3.4c0.5-1.4,1-2.7,1.5-4.1   c0.2-0.7,0.4-1.5,0.5-2.2c0.2-0.8,0-1.3-1-1.3c-4.4,1.9-8.8,3.8-13.2,5.6c-0.7,0.5-1.4,0.9-2.1,1.4c0,2.5,0,5.1,0,7.6   C342.8,135.1,345.1,136.2,347,138.3z"></path>
	<path class="st4" d="M330.1,192.2c1.7-4.8,3.5-9.6,5.2-14.4c0.2-0.5,0.3-0.9,0.4-1.4c-2.6,0.5-5.3,0.9-7.9,1.4   c-5.1,1-10.2,2.1-15.3,3.1c-3,0.6-5.9,1-8.9,1.5c-3,0.6-6,1.2-9,1.7c-1.1,0.2-2.1,0.2-3.2,0.3c-1.7,1.1-3.7,1-5.6,1   c-1,0.3-2,0.7-3.1,1c-2.4,0.5-4.8,1-7.1,1.5c-0.3,0-0.7,0-1,0c-2.4,0.4-4.8,0.7-7.1,1.1c-0.7,0.2-1.4,0.3-2,0.5   c-2,0.5-3.9,1-5.9,1.6c0.1,0.3,0.1,0.7,0.2,1c0.1,0.1,0.1,0.3,0.1,0.4c0,0,0,0.1,0,0.1h70.4C330.2,192.6,330.2,192.4,330.1,192.2z"></path>
	<path class="st9" d="M278.3,164.6c3.5,4.1,6.8,8.2,10.3,12.2c1.7,1.9,3.7,3.4,5.5,5.1c-1.2-4-2.5-8.1-3.7-12.1   c-0.5-0.1-1.1-0.1-1.4-0.4c-1.8-2.3-3.6-4.6-5.3-6.9c-0.4,0.4-0.9,0.8-1.5,1.2c-1-0.7-2.1-1.4-3.4-2.2c2.5-3.4,4.8-6.7,7.2-9.9   c1.4-0.4,2.7-0.7,4.2-1.2c2.8,9,5.7,18,8.5,27c2.7,0.7,4.2,2.5,5,5.1c3-0.5,6-1,8.9-1.5c5.1-1,10.2-2.1,15.3-3.1   c2.6-0.5,5.3-0.9,7.9-1.4c0.3-0.5,0.6-1,0.9-1.5c0.9-2.7,1.7-5.5,2.6-8.2c-3.9-1.8-6-5-7.5-8.8c-1.3-3.6-2.4-7.1-2.7-11   c-0.5-7.3,4-11.4,10.8-11.9c0-2.5,0-5.1,0-7.6c-3,1.2-6.1,2.4-9.1,3.7c-11.3,4.8-22.6,9.6-34,14.5c-1.9,0.8-3.9,1.6-5.8,2.4   c-3,1.3-6,2.7-9,4c-3.8,1.7-7.7,3.4-11.6,5.1c1.2,1,2.6,1.8,3.7,2.9C275.6,161.4,277,163,278.3,164.6z M309.1,144.2   c3.5-1.7,7.2-2.2,10.6,0.1c2.5,1.7,4.3,4.1,5.4,6.9c0.8,2,1.6,4.1,2.2,6.2c0.6,2.1,0.9,4.3,0.8,6.5c0.3,3.5-0.9,6.3-2.8,8.1   c-0.6,0.5-1.2,1-1.9,1.4c-2.4,1.3-5.4,1.8-8.3,1.3c-3-0.5-5.1-2.6-6.6-5.2c-3.1-5.3-5-11-4.8-17.1   C303.9,148.9,305.6,145.9,309.1,144.2z"></path>
	<path class="st10" d="M347,138.3c-1.9-2.2-4.2-3.2-7.1-3.3c-6.8,0.4-11.3,4.5-10.8,11.9c0.3,3.8,1.4,7.4,2.7,11   c1.4,3.8,3.6,7.1,7.5,8.8c0.6-1.5,1.1-3,1.7-4.5c-0.4-0.3-0.8-0.6-1.1-1c-1.3-2.7-2.9-5.3-4-8.1c-0.8-1.9-1.1-4.1-1.5-6.1   c-0.8-3.9,1-6.9,4.3-7.6c0.3-0.1,0.8,0.2,1.1,0.3c1.6,0,2.8,0.8,3.5,2.1c1.1,1.9,2.1,3.8,3.1,5.7c0.8-2.4,1.6-4.8,2.5-7.1l0,0v0   C348.3,139.6,347.6,139,347,138.3z"></path>
	<path class="st10" d="M347,138.3c0.6,0.7,1.3,1.3,2,1.9v0C348.3,139.6,347.6,139,347,138.3z"></path>
	<path class="st6" d="M339.9,139.7c0,7.2,0,14.3,0,21.5c0.4,0.3,0.8,0.6,1.1,1c0.4-0.8,0.7-1.6,1.1-2.4c0.4-0.8,0.8-1.5,1.3-2.3   c1-2.9,2-5.7,3.1-8.6c0-0.2,0-0.3,0.1-0.5c0-0.2,0-0.3,0.1-0.5c0-0.2,0-0.3-0.1-0.5c-1-1.9-2-3.8-3.1-5.7   C342.7,140.4,341.5,139.7,339.9,139.7z"></path>
	<path class="st5" d="M238.3,166.5c-2.8-2.9-24.5-19.6-26.2-20c0,0.8-0.1,1.5-0.1,2.5c8.8,6.8,17.5,13.5,26.3,20.4   C238.3,168.1,238.3,167.2,238.3,166.5z"></path>
	<path class="st10" d="M202.9,135.7c0,1.6,0,3.3-0.1,4.9c0,0.5-0.3,1-0.4,1.5c-0.1,0.1-0.1,0.1-0.2,0.1c2.2,1.9,4.4,3.7,6.5,5.6   c0-2.2,0.1-4.4,0.1-6.5C206.8,139.5,204.9,137.6,202.9,135.7z"></path>
	<path class="st4" d="M223.7,190.5c0.2-0.1,0.3-0.1,0.5-0.2c-0.2-0.9-0.4-1.7-0.6-2.6c-0.1-0.3-0.3-0.7-0.4-1l0,0   c-0.2-0.2-0.3-0.3-0.5-0.5c0,0,0,0,0,0l0,0c0,0,0,0,0,0c-0.2-0.3-0.3-0.7-0.5-1l0,0c-0.2-0.3-0.3-0.7-0.5-1l0,0   c-0.2-0.3-0.3-0.7-0.5-1l0,0c-0.2-0.3-0.3-0.7-0.5-1l0,0c-0.2-0.3-0.3-0.7-0.5-1l0,0c-0.2-0.2-0.3-0.3-0.5-0.5c0,0,0,0,0,0l0,0   c0,0,0,0,0,0c-0.2-0.3-0.3-0.7-0.5-1l0,0c-0.3-0.7-0.7-1.4-1-2l0,0c-0.2-0.2-0.3-0.3-0.5-0.5c0,0,0,0,0,0l0,0c0,0,0,0,0,0   c-0.2-0.3-0.3-0.7-0.5-1l0,0c-0.2-0.3-0.3-0.7-0.5-1l0,0c-0.2-0.3-0.3-0.7-0.5-1l0,0c-0.2-0.3-0.3-0.7-0.5-1l0,0   c-0.2-0.2-0.3-0.3-0.5-0.5l0,0c-0.2-0.3-0.3-0.7-0.5-1l0,0c-0.1,0-0.2,0.1-0.4,0.1c0.2,1,0.1,2.2,0.6,3.1c2.5,4.8,5.2,9.4,7.8,14.1   C222.9,189.3,223.3,189.9,223.7,190.5z"></path>
	<path class="st5" d="M214.5,171.3c0.2,0.3,0.3,0.7,0.5,1l0,0c0.2,0.2,0.3,0.3,0.5,0.5l0,0c0.2,0.3,0.3,0.7,0.5,1c0,0,0,0,0,0   c0.2,0.3,0.3,0.7,0.5,1l0,0c0.2,0.3,0.3,0.7,0.5,1l0,0c0.2,0.3,0.3,0.7,0.5,1c0.2,0.2,0.3,0.3,0.5,0.5l0,0c0.3,0.7,0.7,1.4,1,2l0,0   c0.2,0.3,0.3,0.7,0.5,1c0.2,0.2,0.3,0.3,0.5,0.5l0,0c0.2,0.3,0.3,0.7,0.5,1l0,0c0.2,0.3,0.3,0.7,0.5,1l0,0c0.2,0.3,0.3,0.7,0.5,1   l0,0c0.2,0.3,0.3,0.7,0.5,1l0,0c0.2,0.3,0.3,0.7,0.5,1c0.2,0.2,0.3,0.3,0.5,0.5l0,0c0.2,0,0.4,0,0.6,0c-0.2-1-0.2-2-0.7-2.8   c-2.6-4.9-5.4-9.7-8.1-14.5c-0.3,0-0.6,0-0.9,0c0.2,0.5,0.3,1,0.5,1.5C214.5,171,214.5,171.2,214.5,171.3L214.5,171.3z"></path>
	<polygon class="st5" points="217.6,176.9 217.6,176.9 217.6,176.9  "></polygon>
	<polygon class="st5" points="219.6,180.5 219.6,180.5 219.6,180.5  "></polygon>
	<path class="st4" d="M202.3,135.2L202.3,135.2c0,0,0-0.1-0.1-0.1s-0.1-0.1-0.1-0.1c0,0-0.2,0-0.2,0c0.1,2.4,0.1,4.8,0.2,7.2   c0.1,0,0.2-0.1,0.2-0.1C202.3,139.9,202.3,137.6,202.3,135.2z"></path>
	<path class="st4" d="M202.3,135.2L202.3,135.2c0,0,0-0.1-0.1-0.1C202.2,135.2,202.3,135.2,202.3,135.2L202.3,135.2z"></path>
	<path class="st11" d="M202.4,142.2c0.1-0.5,0.4-1,0.4-1.5c0.1-1.6,0.1-3.3,0.1-4.9c-0.2-0.2-0.4-0.3-0.6-0.5   C202.3,137.6,202.3,139.9,202.4,142.2z"></path>
	<path class="st11" d="M202.9,135.7c-0.2-0.2-0.4-0.3-0.6-0.5v0C202.5,135.4,202.7,135.6,202.9,135.7z"></path>
	<path class="st11" d="M208.8,141.4c0,2.2-0.1,4.4-0.1,6.5c0.2,0.1,0.4,0.3,0.8,0.7c0-2.4,0-4.6,0-6.7   C209.5,141.7,209.1,141.5,208.8,141.4z"></path>
	<path class="st6" d="M214.9,169.1c-0.1-0.2-0.1-0.4-0.3-0.7c-0.1-0.2-0.1-0.3-0.2-0.6c-0.2,0.9-0.3,1.2-0.4,1.5c0.3,0,0.6,0,0.9,0   C215,169.2,214.9,169.1,214.9,169.1z"></path>
	<path class="st6" d="M214.5,170.8c-0.1,0.2-0.3,0.4-0.4,0.6c0.1,0,0.2-0.1,0.4-0.1C214.5,171.2,214.5,171,214.5,170.8z"></path>
	<path class="st7" d="M239.6,149.1c-0.1-0.1-0.1-0.1-0.2-0.2c-1.6,1.8-3.3,3.6-5.1,5.7c3.4,3.2,6.8,6.4,10.1,9.4   c4.9-1.2,11.3-4.1,13-5.9c0.4-2.5,0.7-5.2,1.2-7.8c0.3-1.7,0.9-3.3,1.4-5c0.2-1,0.3-2,0.5-3c1-5.8,2-11.5,3-17.3   c0.1-0.6,0-1.2,0-1.8c-0.2,0-0.3-0.1-0.5-0.1c-1.2,1.5-2.3,2.9-3.5,4.4c0.3,1.2,0.5,2.3,0.8,3.4c-1.8,1.7-3.4,2.5-5.4,1.3   c-0.5,0.5-1,1.1-1.5,1.6c3.4,0.2,4,0.5,5.6,2.3c0.2,3.3-0.9,4.6-4.2,4.2c-1.9-0.2-4.2,0-5-2.5c-1.4,1.5-2.7,3.1-4.2,4.5   c-0.6,0.6-1.5,0.8-2.3,1.1c-0.3,0.7-0.4,1.6-0.8,2.2C241.4,146.8,240.5,147.9,239.6,149.1z M248.6,142.8c3,0.4,5.9,0.8,9.2,1.2   c0,0.5,0.1,0.8,0.1,1.3c-2.4-0.3-4.7-0.5-7.2-0.8c0.1,0.8,0.1,1.5,0.2,2.2c-0.2,0.1-0.4,0.2-0.6,0.2c-0.7-1.2-1.3-2.4-2-3.6   C248.3,143.2,248.5,143,248.6,142.8z"></path>
	<path class="st11" d="M260.1,130.8c-0.2-1-0.5-2.2-0.8-3.4c-0.3,0.4-0.7,0.7-1,1.1c0.2,0.6,0.4,1.3,0.7,2.3c-1.2,0.1-2,0.2-2.8,0.2   c-0.3,0.1-0.6,0.2-0.9,0.4c-0.2,0.2-0.4,0.5-0.6,0.7C256.7,133.3,258.3,132.5,260.1,130.8z"></path>
	<path class="st7" d="M259.1,130.8c-0.3-1-0.5-1.6-0.7-2.3c-0.7,0.2-1.4,0.4-2,0.5c0,0.7,0,1.3,0,2   C257.1,131,257.9,130.9,259.1,130.8z"></path>
	<path class="st10" d="M275.2,141.7c3.3,1.5,6.8,2,10.2,2.5c0.6,0.1,1.4-0.3,2.1-0.5c-1.7-1.9-3.4-3.8-5.1-5.7c-3.6-0.1-6.8-1-9-4.9   c0.4-1.3,0.8-3,1.3-4.6c-1-1.1-2-2.2-3-3.3c-1.1,1.9-2,3.7-2.2,6.1C269,136,270.9,139.7,275.2,141.7z"></path>
	<path class="st5" d="M282.4,138.1c-1.5-2-3.1-4-4.6-6c-1.1-1.2-2.1-2.4-3.2-3.6c-0.5,1.7-0.9,3.3-1.3,4.6   C275.6,137,278.8,137.9,282.4,138.1z"></path>
	<path class="st9" d="M266.3,186.2c0.7,0.8,0.8,1.9,1.2,2.9c2.4-0.4,4.8-0.7,7.1-1.1c-0.5-0.7-0.9-1.3-1.4-2c-1.2,0-2.2,0-3.6,0   c0.4-0.8,0.7-1.4,1-2c0-0.7,0-1.3,0-2l-0.1-0.1c-1.6-1.3-3.3-2.5-4.7-4c-2-2.1-3.8-4.5-5.8-6.7c-2.1-2.4-4.2-4.8-6.4-7.2   c-1.4,0.6-2.8,1.3-4.1,1.9c0,2,1.5,3.2,2.6,4.4C256.9,175.8,261.6,180.9,266.3,186.2z"></path>
	<path class="st9" d="M287.9,179.2c-1.3-1.3-2.7-2.5-3.9-3.9c-3.6-4.1-7.2-8.2-10.8-12.3c-0.3-0.4-0.4-0.9-0.6-1.3   c-0.7,0.6-1.5,1.1-2.2,1.7c0.8,1.5,1.5,2.7,2.3,4.1c-0.8,0.1-1.5,0.2-2.1,0.2c1.9,2.2,3.9,4.4,5.8,6.6c2.6,3,5.1,6,7.6,9   c0.6,0.7,1.2,1.5,1.9,2.2c1.9,0,3.9,0.1,5.6-1C291.1,182.2,289.5,180.8,287.9,179.2z"></path>
	<path class="st12" d="M272.6,161.7c0.2,0.4,0.3,1,0.6,1.3c3.6,4.1,7.2,8.3,10.8,12.3c1.2,1.4,2.6,2.6,3.9,3.9   c1.6,1.5,3.2,3,3.6,5.4c1.1-0.1,2.2-0.2,3.2-0.3c3-0.5,6-1.1,9-1.7c-0.8-2.5-2.3-4.4-5-5.1c0.3,1,0.6,2.1,1,3.4   c-2,0.4-3.7,0.8-5.5,1.1c-1.8-1.7-3.8-3.2-5.5-5.1c-3.5-4-6.9-8.2-10.3-12.2c-1.4-1.6-2.7-3.2-4.2-4.7c-1.1-1.1-2.4-1.9-3.7-2.9   c-1.3,0.5-2.6,1.1-4,1.6c0.8,1,1.5,1.9,2.3,2.8C271,160.3,271.6,160.3,272.6,161.7z"></path>
	<path class="st12" d="M253,175.5c1.7,3,4.7,4.7,6.8,7.2c1.7,2,3.5,3.9,5.2,5.8c0.3,0.3,0.3,0.8,0.4,1.1c0.7-0.2,1.4-0.3,2-0.5   c-0.4-1-0.6-2.2-1.2-2.9c-4.7-5.3-9.4-10.5-14.1-15.8c-1.1-1.3-2.6-2.4-2.6-4.4c-0.8,0.3-1.7,0.6-2.7,0.9c0.8,1.9,1.6,3.6,2.3,5.3   c0.1,0.2,0.3,0.4,0.4,0.6c0.1,0.2,0.1,0.3,0.2,0.5c0.3,0.2,0.5,0.4,0.8,0.6C251.4,174.4,252.6,174.8,253,175.5z"></path>
	<path class="st9" d="M265,188.5c-1.7-2-3.6-3.8-5.2-5.8c-2.1-2.5-5.2-4.2-6.8-7.2c-0.4-0.7-1.6-1.1-2.4-1.6c3,5.8,6,11.5,9,17.3   c2-0.5,3.9-1,5.9-1.6C265.3,189.3,265.3,188.8,265,188.5z"></path>
	<path class="st13" d="M276.4,174.4c-1.9-2.2-3.9-4.4-5.8-6.6c-0.4-0.4-0.8-0.8-1.4-1.3c-0.6,0.9-1.1,1.6-1.6,2.3   c0.3,0.1,0.8,0.1,0.9,0.3c2.4,2.7,4.7,5.4,7.1,8.2c0.1,0.2,0.1,0.5,0.2,0.7c0.4,0.2,0.7,0.4,1.1,0.5c1.2,1.2,2.5,2.4,3.7,3.7   c1.1,1.3,2.5,2.5,2.4,4.5c1-0.3,2-0.7,3.1-1c-0.6-0.7-1.2-1.5-1.9-2.2C281.5,180.4,279,177.3,276.4,174.4z"></path>
	<path class="st5" d="M279.6,183.7c-1-0.7-2-1.3-2.8-2c0-1.2,0-2.2,0-3.2c-0.4-0.2-0.7-0.4-1.1-0.5c-0.7,0.9-1.5,1.9-2.1,2.7   c-1.1-0.3-2-0.5-2.9-0.7c-0.1,0.7-0.1,1.3-0.2,2l0.1,0.1c0.3,0.3,1,0.6,0.9,0.8c-0.1,0.4-0.6,0.8-0.9,1.2c-0.3,0.6-0.6,1.2-1,2   c1.4,0,2.4,0,3.6,0c0.5,0.7,0.9,1.4,1.4,2c0.3,0,0.7,0,1,0c0-0.8,0-1.7,0-2.5C277,184.9,278.2,184.3,279.6,183.7z"></path>
	<path class="st9" d="M276.7,178.5c0,1,0,2,0,3.2c0.9,0.6,1.9,1.3,2.8,2c-1.3,0.6-2.6,1.2-3.9,1.9c0,0.8,0,1.7,0,2.5   c2.4-0.5,4.8-1,7.1-1.5c0.1-1.9-1.2-3.2-2.4-4.5C279.3,180.8,278,179.7,276.7,178.5z"></path>
	<path class="st10" d="M315.2,174.8c3,0.5,6,0,8.3-1.3c0.7-0.4,1.3-0.8,1.9-1.4c2-1.9,3.1-4.6,2.8-8.1c0.1-2.3-0.2-4.4-0.8-6.5   c-0.6-2.1-1.4-4.2-2.2-6.2c-1.1-2.7-2.9-5.2-5.4-6.9c-3.5-2.3-7.1-1.8-10.6-0.1c-3.5,1.6-5.2,4.6-5.3,8.3   c-0.2,6.2,1.6,11.9,4.8,17.1C310.1,172.2,312.2,174.4,315.2,174.8z M312.5,147.5c2.5-0.8,4.7,0.1,6.1,2.8   c2.9,5.3,4.8,10.8,4.4,17.1c-0.6,0.7-1.1,1.7-1.8,2.3c-2.3,1.8-5,1.7-6.7-0.7c-1.5-2-2.6-4.3-3.5-6.7c-1-2.8-1.7-5.7-2.1-8.6   C308.6,150.9,309.5,148.5,312.5,147.5z"></path>
	<path class="st10" d="M325.4,172.1c2-1.9,3.1-4.6,2.8-8.1c0.1-2.3-0.2-4.4-0.8-6.5c0.6,2.1,0.9,4.3,0.8,6.5   C328.5,167.5,327.3,170.3,325.4,172.1z"></path>
	<path class="st10" d="M286,151.6c-2.3,3.2-4.7,6.5-7.2,9.9c1.3,0.9,2.3,1.5,3.4,2.2c0.6-0.5,1-0.9,1.5-1.2c1-1.6,1.9-3.3,2.9-4.9   c0.2,0,0.3,0,0.5,0.1c1.1,4,2.2,8.1,3.3,12.1c1.2,4,2.5,8.1,3.7,12.1c1.8-0.4,3.6-0.7,5.5-1.1c-0.4-1.3-0.7-2.3-1-3.4   c-2.8-9-5.6-18-8.5-27C288.7,150.9,287.4,151.3,286,151.6z"></path>
	<path class="st12" d="M286.6,157.6c-1,1.6-1.9,3.3-2.9,4.9c1.8,2.3,3.5,4.6,5.3,6.9c0.2,0.3,0.9,0.3,1.4,0.4   c-1.1-4-2.2-8.1-3.3-12.1C286.9,157.7,286.8,157.6,286.6,157.6z"></path>
	<path class="st9" d="M338.7,139.4c-3.4,0.7-5.1,3.7-4.3,7.6c0.4,2.1,0.7,4.2,1.5,6.1c1.1,2.8,2.6,5.4,4,8.1c0-7.2,0-14.3,0-21.5   C339.5,139.6,339.1,139.3,338.7,139.4z"></path>
	<path class="st14" d="M346.8,148.2c-0.1-0.1-0.1-0.2-0.2-0.3c-0.1,0.2-0.1,0.3-0.1,0.5C346.6,148.3,346.7,148.3,346.8,148.2z"></path>
	<path class="st9" d="M268.9,178c0.5,0.6,1.5,0.8,2.2,1.3c-0.1,0.2-0.3,0.4-0.4,0.7c0.9,0.2,1.8,0.4,2.9,0.7   c0.6-0.8,1.4-1.8,2.1-2.7c0-0.2,0-0.6-0.2-0.7c-2.3-2.7-4.7-5.5-7.1-8.2c-0.2-0.2-0.6-0.2-0.9-0.3c-0.6,0.3-1.1,0.5-1.9,0.9   c-0.1-1.2-0.1-2.3-0.2-3.5c-0.4-0.4-0.8-0.9-1.3-1.4c-0.8-0.1-1.6-0.2-2.4-0.2c0-0.1-0.1-0.3-0.1-0.4c1.2-0.6,2.4-1.2,3.9-2   c0-0.9,0-2,0-3v0c-2.7,1.2-5.5,2.5-8.2,3.7c0.5,1.1,0.7,2.5,1.5,3.4C262,170.3,265.5,174.2,268.9,178z"></path>
	<path class="st12" d="M265.8,178c1.4,1.5,3.1,2.7,4.7,4c0.1-0.7,0.1-1.3,0.2-2c0.2-0.3,0.3-0.5,0.4-0.7c-0.8-0.4-1.7-0.7-2.2-1.3   c-3.5-3.9-6.9-7.8-10.2-11.7c-0.8-0.9-1-2.2-1.5-3.4c-1.2,0.4-2.3,0.8-3.5,1.2c2.1,2.4,4.3,4.7,6.4,7.2   C262,173.5,263.8,175.9,265.8,178z"></path>
	<path class="st5" d="M261.6,164.2c0,0.1,0.1,0.3,0.1,0.4c0.8,0.1,1.6,0.2,2.4,0.2c0.5,0.6,1,1,1.3,1.4c0.1,1.2,0.1,2.2,0.2,3.5   c0.8-0.4,1.4-0.7,1.9-0.9c0.5-0.7,1-1.4,1.6-2.3c0.6,0.6,1,1,1.4,1.3c0.6-0.1,1.2-0.1,2.1-0.2c-0.8-1.4-1.5-2.7-2.3-4.1   c0.8-0.6,1.5-1.2,2.2-1.7c-1-1.4-1.6-1.4-3.8-0.2c-0.7-0.9-1.5-1.9-2.3-2.8c-0.4,0.2-0.7,0.3-1.1,0.5c0,1.1,0,2.1,0,3   C264,162.9,262.8,163.5,261.6,164.2z"></path>
	<path class="st11" d="M254.6,140.2c3.3,0.3,4.4-0.9,4.2-4.2c-1.6-1.8-2.2-2-5.6-2.3c-0.3,0.5-0.6,0.9-0.9,1.4   c1.3,0.2,2.7,0.3,4,0.5c1.1,0.2,1.7,1,1.4,2.2c-2.1,1.5-4.9,1.3-7.6-0.7c-0.2,0.2-0.4,0.4-0.5,0.6   C250.5,140.2,252.7,140,254.6,140.2z"></path>
	<path class="st11" d="M250.8,146.7c-0.1-0.7-0.1-1.3-0.2-2.2c2.5,0.3,4.8,0.6,7.2,0.8c0-0.5-0.1-0.9-0.1-1.3   c-3.2-0.4-6.2-0.8-9.2-1.2c-0.1,0.2-0.3,0.4-0.4,0.6c0.7,1.2,1.3,2.4,2,3.6C250.4,146.9,250.6,146.8,250.8,146.7z"></path>
	<path class="st7" d="M257.8,137.9c0.3-1.2-0.3-2-1.4-2.2c-1.3-0.3-2.7-0.4-4-0.5c-0.7,0.7-1.4,1.3-2.1,2   C252.8,139.1,255.6,139.4,257.8,137.9z"></path>
	<path class="st15" d="M256.3,129.1C256.3,129.1,256.3,129.1,256.3,129.1L256.3,129.1c-1.7,0.2-0.8,1.5-0.9,2.3   c0.3-0.1,0.6-0.2,0.9-0.4C256.3,130.4,256.3,129.7,256.3,129.1z"></path>
	<polygon class="st15" points="256.3,129.1 256.3,129.1 256.3,129.1  "></polygon>
	<path class="st12" d="M270.6,182.1c0,0.7,0,1.3,0,2c0.3-0.4,0.7-0.7,0.9-1.2C271.6,182.7,270.9,182.3,270.6,182.1z"></path>
	<path class="st9" d="M311,162.3c0.8,2.4,2,4.7,3.5,6.7c1.8,2.4,4.5,2.5,6.7,0.7c0.8-0.6,1.3-1.5,1.8-2.3c0.4-6.3-1.5-11.8-4.4-17.1   c-1.5-2.7-3.6-3.6-6.1-2.8c-3,0.9-4,3.4-3.6,6.2C309.3,156.6,310,159.5,311,162.3z"></path>
</g>
<g>
	<path class="st8" d="M104.2,233.6c-0.2-0.2-0.3-0.4-0.5-0.6c-3.6,1.2-7.3,2.3-10.9,3.5c-0.2-0.1-0.3-0.3-0.5-0.4   c4.8-4.1,4.9-9.1,3.3-14.9c-1.8,4-1.7,8.3-4.9,11.4c-0.5-6.8-2.7-10.2-6.6-10.7c0.9,2.5,1.9,5.1,2.9,7.7c-1.5,0.3-2.5,0.6-3.7,0.9   c-6.5-8.2-9.6-18-10.2-28.7c-0.1-1.6,0.5-2.3,2.1-2.9c3.4-1.3,6.6-3.1,9.8-4.9c0.6-0.3,0.8-1.3,1.2-1.9c-0.7-0.3-1.4-0.8-2.1-0.8   c-11.5,0-23,0-34.4,0c-0.6,0-1.3,0.5-1.9,0.7c0.3,0.6,0.4,1.5,0.9,1.8c3,1.7,5.9,3.4,9,4.9c1.2,0.6,1.8,1,2.1,2.4   c2.8,16.3,1.8,32.1-5.4,47.2c-0.6,1.2-1.1,2.5-1.8,4c-1-1.7-2.1-2.6-3.8-1.2c-0.1,0.1-1.1-0.5-1.1-0.8c0.1-2.6,0.2-5.3,0.7-7.9   c0.3-1.4,1.3-2.8,2-4.3c-3.9,0.5-5.9,3-6.9,6.4c-0.6,2-1.1,4.1-1.2,6.2c-0.1,1.8,0.2,3.7,0.4,5.7c-5.7-3.8-6.8-10.6-10.6-16.2   c-0.6,9,0.3,16.9,9.4,21.5c-3.4,1-6.2,0.1-9.1-0.3c-3.2-0.4-6.3-0.9-9.7-1.4c2.9,5.6,9.5,11.3,19.7,9.1c-4.3,3-8.4,4.8-13.5,4.7   c2.7,3.9,6.6,4.7,10.6,4.4c5.4-0.5,8.6-3.7,10.1-9.4c1.9,3.8,3.9,7.1,8.2,8c3.8,0.8,7.2-0.2,10.6-2.3c-3-1.1-5.8-1.8-8.4-3.1   c-3.1-1.5-6.6-2.8-8-6.6c2,0.8,3.9,1.9,6,2.4c2,0.5,4.2,1.7,5.5,0.1c1.9-0.3,3.4-0.2,4.6-0.8c4.7-2.3,8.2-6,11.5-9.9   c-0.1-0.2-0.1-0.4-0.2-0.6c-3,0.3-6,0.5-8.9,1c-2.6,0.5-5.1,1.5-7.7,2.2c-1.7,0.4-3.4,0.6-5.3,0.7c6.2-4.8,6.9-10.9,4.9-18   c-2.1,4.3-4,8.3-6,12.3c-2.2-0.7-1.1-1.5-0.7-2.2c4.4-6.8,7.5-14.2,8.6-22.2c1-7.5,1.2-15.2,1.7-22.8c0.1-1.8,0.1-3.7,0.4-5.5   c0.1-0.6,0.9-1.1,1.3-1.7c0.5,0.5,1.2,1,1.3,1.6c0.6,2.4,1,4.8,1.5,7.1c1.8,8.6,5,16.5,11.1,22.9c0.1,0.2,0.3,0.3,0.4,0.5   c0,0.1,0,0.3-0.2,1.2c-2-2.7-3.8-5-5.5-7.2c-0.9,4.4,0.4,7.2,4.8,10.6c-4.7,0-9.4,0-14.2,0c3.4,4.3,11.3,8.7,18.5,2.4   c-1.6,4.7-6,5.7-9.1,8.1c4.7,2.3,8.5,0.5,11.1-5.1c4.8,5.6,11.2,5.8,13.5,0.7c-2.5-0.4-5.1-0.7-8.3-1.2c2.7-1.1,5.1-1.6,6.9-2.9   C101.5,237.6,102.7,235.5,104.2,233.6z"></path>
	<path class="st16" d="M0,189.3V300h400V189.3H0z M101.1,243.1c-2.3,5.1-8.7,4.9-13.5-0.7c-2.6,5.6-6.4,7.4-11.1,5.1   c3.1-2.4,7.5-3.4,9.1-8.1c-7.3,6.3-15.2,1.9-18.5-2.4c4.8,0,9.4,0,14.2,0c-4.4-3.4-5.7-6.3-4.8-10.6c1.7,2.3,3.5,4.5,5.5,7.2   c0.2-0.9,0.3-1.1,0.2-1.2c-0.1-0.2-0.2-0.4-0.4-0.5c-6.1-6.5-9.3-14.4-11.1-22.9c-0.5-2.4-0.9-4.8-1.5-7.1   c-0.2-0.6-0.9-1.1-1.3-1.6c-0.5,0.6-1.2,1.1-1.3,1.7c-0.3,1.8-0.3,3.6-0.4,5.5c-0.5,7.6-0.7,15.3-1.7,22.8   c-1.1,8-4.2,15.4-8.6,22.2c-0.5,0.7-1.5,1.6,0.7,2.2c1.9-4,3.9-8,6-12.3c2,7.1,1.3,13.2-4.9,18c1.9-0.1,3.6-0.3,5.3-0.7   c2.6-0.7,5.1-1.7,7.7-2.2c2.9-0.6,5.9-0.7,8.9-1c0.1,0.2,0.1,0.4,0.2,0.6c-3.3,3.9-6.8,7.6-11.5,9.9c-1.2,0.6-2.7,0.5-4.6,0.8   c-1.3,1.6-3.6,0.4-5.5-0.1c-2.1-0.6-4-1.6-6-2.4c1.4,3.7,4.8,5.1,8,6.6c2.6,1.2,5.4,2,8.4,3.1c-3.4,2.1-6.7,3.1-10.6,2.3   c-4.3-0.9-6.3-4.1-8.2-8c-1.4,5.7-4.7,8.9-10.1,9.4c-4,0.3-7.9-0.5-10.6-4.4c5.1,0.1,9.2-1.7,13.5-4.7c-10.3,2.2-16.8-3.6-19.7-9.1   c3.4,0.5,6.5,1,9.7,1.4c2.8,0.4,5.6,1.3,9.1,0.3c-9.1-4.7-10-12.5-9.4-21.5c3.8,5.6,4.9,12.4,10.6,16.2c-0.2-2-0.6-3.9-0.4-5.7   c0.2-2.1,0.6-4.2,1.2-6.2c1-3.3,3-5.8,6.9-6.4c-0.8,1.5-1.8,2.8-2,4.3c-0.5,2.6-0.6,5.3-0.7,7.9c0,0.2,1,0.8,1.1,0.8   c1.7-1.5,2.8-0.6,3.8,1.2c0.6-1.5,1.2-2.7,1.8-4c7.3-15.1,8.2-30.9,5.4-47.2c-0.2-1.3-0.9-1.8-2.1-2.4c-3.1-1.4-6.1-3.1-9-4.9   c-0.5-0.3-0.6-1.2-0.9-1.8c0.6-0.2,1.3-0.7,1.9-0.7c11.5,0,23,0,34.4,0c0.7,0,1.4,0.5,2.1,0.8c-0.4,0.7-0.6,1.6-1.2,1.9   c-3.2,1.7-6.4,3.6-9.8,4.9c-1.6,0.6-2.2,1.3-2.1,2.9c0.6,10.7,3.6,20.5,10.2,28.7c1.2-0.3,2.2-0.5,3.7-0.9c-1-2.6-2-5.2-2.9-7.7   c3.9,0.5,6.1,3.9,6.6,10.7c3.2-3.1,3.1-7.4,4.9-11.4c1.6,5.8,1.5,10.7-3.3,14.9c0.2,0.1,0.3,0.3,0.5,0.4c3.6-1.2,7.3-2.3,10.9-3.5   c0.2,0.2,0.3,0.4,0.5,0.6c-1.5,1.8-2.7,4-4.5,5.4c-1.8,1.3-4.1,1.8-6.9,2.9C95.9,242.3,98.6,242.7,101.1,243.1z M187.4,241.6   c-0.7,0.4-1.4,0.6-2.2,1c-0.1-0.1-0.2-0.3-0.3-0.4c1.4-2.1,2.7-4.1,4.1-6.2c3.3-4.2,6.6-8.4,9.8-12.7c0.4-0.6,0.6-1.4,0.9-2.1   c1.1-1.2,2.3-2.2,3.2-3.5c5.3-7.1,10.6-14.3,15.9-21.5c0.8-1.1,1.5-2.3,2.2-3.5h35.2c-0.3,0.6-0.6,1.2-1,1.7   c-2.8,3.6-5.7,7.1-8.6,10.6c-1.5,1.7-2.9,3.7-4.7,4.9c-5.2,3.3-10.6,6.3-16,9.3c-4.7,2.7-9.5,5.2-14.2,7.9   c-2.2,1.3-4.3,2.8-6.5,4.2c-4.5,2.5-8.9,5-13.4,7.5C190.4,239.8,189,240.8,187.4,241.6z M232.2,230.4c-4.2,1.3-8.4,2.4-12.6,3.6   c-4.2,1.1-8.4,2.2-12.6,3.3c-3.1,0.8-6.3,1.8-9.4,2.6c-0.5,0.1-1,0.2-1.6-0.1c2.8-1.7,5.6-3.4,8.4-5.1c1-0.7,2-1.5,3-2.2   c3.1-1.7,6.2-3.3,9.3-5c3.7-2.1,7.5-4.2,11.2-6.3c1.2-0.7,2.4-1.6,3.6-2.3c3.8,2.7,7.5,5.4,11.1,8   C239.1,228,235.7,229.3,232.2,230.4z M261.4,237.6c-0.2-0.3-0.4-0.6-0.6-0.8c-4.7-3.3-9.4-6.6-14.2-9.9c-4.2-3.1-8.3-6.2-12.6-9.4   c3.4-2,6.8-3.9,10.5-6.1c2.3,0.6,5,1.4,7.7,1.9c3.5,0.6,5.4,2.3,6,5.9c0.7,3.9,2.1,7.6,3.2,11.4c0.1,0.3,0.3,0.5,0.5,0.8   c0.3,1.5,0.7,3.1,1,4.6c0.1,0.7,0.2,1.4,0.3,2.3C262.6,238.1,262,237.8,261.4,237.6z M286.9,225.3c-5.1,3.9-10.3,7.7-15.4,11.6   c-0.2,0.1-0.3,0.4-0.4,0.6c-1.2,0.8-2.3,1.6-3.7,2.5c-0.5-1.2-0.9-2.4-1.4-3.5c-0.5-2-1-4.1-1.5-6.1c-1.3-4.8-2.6-9.6-4-14.8   c9.6,2.7,18.9,5.3,28.1,7.9C288,224.2,287.4,224.7,286.9,225.3z M322.6,231c-1.4-0.3-2.7-0.7-4.1-1c-6.4-1.9-12.7-3.7-19.1-5.6   c-0.4-0.1-0.8,0-1.3,0c-0.4-0.3-0.8-0.7-1.2-0.8c-9.1-2.5-18.1-4.9-27.2-7.4c-6.2-1.7-12.3-3.5-18.4-5.3c-1.3-0.4-2.7-0.7-4.5-1.1   c0.7-1.2,1.2-2.2,1.9-3c3.5-4.3,7.1-8.5,10.7-12.8c0.3-0.3,0.3-0.8,0.5-1.2h70.4c0,0.4,0,0.9,0.2,1.2c2.3,4.1,4.7,8.2,7,12.3   c1.3,2.3,2.7,4.6,4.1,6.9c0.9,1.9,1.8,3.7,2.8,5.6c2.6,4.6,5.2,9.1,7.8,13.7c0.8,1.3,1.7,2.5,2.5,3.7c0.5,1.2,1,2.5,1.7,4.3   C344.7,237.4,333.7,234,322.6,231z"></path>
</g>
</svg>
