<?xml version="1.0" encoding="UTF-8"?>
<svg xmlns="http://www.w3.org/2000/svg" viewBox="0 0 98.22 98.22">
  <defs>
    <style>.a{fill:#bfa161;}.b{fill:none;}</style>
  </defs>
  <path class="a" d="M49.11,77.16a10.48,10.48,0,0,1-5.26-2,38.09,38.09,0,0,1-5.11-3.62L37.1,70.41Q16.85,55.61,9.62,50l-1.16-.83A3.77,3.77,0,0,1,7,46.06V42.93a7.62,7.62,0,0,1,2.31-5.6A7.62,7.62,0,0,1,14.88,35H83.34a7.85,7.85,0,0,1,7.9,7.9v3.13a3.74,3.74,0,0,1-1.48,3.12l-.82.66q-7.08,5.59-27.82,20.57l-1.64,1.15a38.8,38.8,0,0,1-5.1,3.62A10.5,10.5,0,0,1,49.11,77.16ZM89.59,55.93q-5.91,4.6-25.34,18.6l-1.64,1.31a45.85,45.85,0,0,1-6.26,4.28,14.53,14.53,0,0,1-7.24,2.3,15.47,15.47,0,0,1-7.24-2.13A66,66,0,0,1,35.62,76L34,74.53Q14.06,60,8.63,55.93a1.05,1.05,0,0,0-1.07-.08.89.89,0,0,0-.58.9V90.32a7.87,7.87,0,0,0,7.9,7.9H83.34a7.85,7.85,0,0,0,7.9-7.9V56.75a1,1,0,0,0-.58-1A.81.81,0,0,0,89.59,55.93Z"></path>
  <rect class="b" width="98.22" height="98.22"></rect>
</svg>
