<?xml version="1.0" encoding="UTF-8"?>
<svg xmlns="http://www.w3.org/2000/svg" viewBox="0 0 84.2 84.2">
  <defs>
    <style>.a{fill:#bfa161;}</style>
  </defs>
  <path class="a" d="M81.08,4.06a3.13,3.13,0,0,1,2.3,1.32,4.13,4.13,0,0,1,.82,2.46A75.11,75.11,0,0,1,73.84,46.35,76.88,76.88,0,0,1,46.35,73.84,75.11,75.11,0,0,1,7.84,84.2a4.13,4.13,0,0,1-2.46-.82,3.13,3.13,0,0,1-1.32-2.3L.11,64a3.7,3.7,0,0,1,.33-2.63,3.56,3.56,0,0,1,2-1.81l18.44-7.9a3.54,3.54,0,0,1,2.38-.17,4.92,4.92,0,0,1,2.22,1.32l8.07,9.87a57.72,57.72,0,0,0,17.19-12A60.32,60.32,0,0,0,62.64,33.52l-9.87-8.07a4.92,4.92,0,0,1-1.32-2.22,3.54,3.54,0,0,1,.17-2.38l7.9-18.44a3.56,3.56,0,0,1,1.81-2A3.7,3.7,0,0,1,64,.11Z"></path>
</svg>
