<?xml version="1.0" encoding="utf-8"?>
<!-- Generator: Adobe Illustrator 24.3.0, SVG Export Plug-In . SVG Version: 6.00 Build 0)  -->
<svg version="1.1" id="Layer_1" xmlns="http://www.w3.org/2000/svg" xmlns:xlink="http://www.w3.org/1999/xlink" x="0px" y="0px"
	 viewBox="0 0 520 459.8" style="enable-background:new 0 0 520 459.8;" xml:space="preserve">
<style type="text/css">
	.st0{fill:#D67901;stroke:#000000;stroke-width:2;stroke-linejoin:round;stroke-miterlimit:10;}
	.st1{fill:#536033;stroke:#000000;stroke-width:2;stroke-linejoin:round;stroke-miterlimit:10;}
	.st2{fill:#515E31;stroke:#000000;stroke-width:2;stroke-linejoin:round;stroke-miterlimit:10;}
	.st3{fill:#525F32;stroke:#000000;stroke-width:2;stroke-linejoin:round;stroke-miterlimit:10;}
	.st4{fill:#535F32;stroke:#000000;stroke-width:2;stroke-linejoin:round;stroke-miterlimit:10;}
	.st5{fill:#525F33;stroke:#000000;stroke-width:2;stroke-linejoin:round;stroke-miterlimit:10;}
	.st6{fill:#525E31;stroke:#000000;stroke-width:2;stroke-linejoin:round;stroke-miterlimit:10;}
	.st7{fill:#536034;stroke:#000000;stroke-width:2;stroke-linejoin:round;stroke-miterlimit:10;}
	.st8{fill:#535F33;stroke:#000000;stroke-width:2;stroke-linejoin:round;stroke-miterlimit:10;}
	.st9{fill:#546135;stroke:#000000;stroke-width:2;stroke-linejoin:round;stroke-miterlimit:10;}
	.st10{fill:#566338;stroke:#000000;stroke-width:2;stroke-linejoin:round;stroke-miterlimit:10;}
	.st11{fill:#566337;stroke:#000000;stroke-width:2;stroke-linejoin:round;stroke-miterlimit:10;}
	.st12{fill:#59663C;stroke:#000000;stroke-width:2;stroke-linejoin:round;stroke-miterlimit:10;}
	.st13{fill:#586439;stroke:#000000;stroke-width:2;stroke-linejoin:round;stroke-miterlimit:10;}
	.st14{fill:#576236;stroke:#000000;stroke-width:2;stroke-linejoin:round;stroke-miterlimit:10;}
	.st15{fill:#5C673D;stroke:#000000;stroke-width:2;stroke-linejoin:round;stroke-miterlimit:10;}
	.st16{fill:#E3983B;stroke:#000000;stroke-width:2;stroke-linejoin:round;stroke-miterlimit:10;}
</style>
<g>
	<path class="st0" d="M502.9,28.2c-0.9,2.5-2.2,4.9-2.2,7.7c0,2.7-0.7,3.2-3.3,3.9c-1.8,0.5-3.9,0.2-5.1,2.2
		c-5.7,0.6-10.1,4.4-15.1,6.5c-4.7,2-7.8,5.3-9.6,10.2c-1.2,3.1-4.1,5-7,6.1c-5.5,2.2-10,5.6-13.9,10c-1.8,2-3.9,3.3-6.3,4.4
		c-6.8,3.1-13.9,5.5-20.2,9.6c-6.7,4.3-13.1,8.9-18.2,15.1c-1.9,2.3-3.2,4.7-3.7,7.5c-0.6,3.4-2.6,4.8-5.7,5.3
		c-2.7,0.4-5.4,0.8-8-0.2c-4.1-1.5-9.5,0.7-11.7,3.9c-1.9,2.6-3.4,5.5-5.4,8.2c-3.1,4.2-3.5,9.5-4.2,14.5c-0.3,1.8,0.6,3.6,1.2,5.2
		c0.7,1.8,1.2,3.5-1.3,4.7c2.3,0.4,3.5,1.8,4.6,3.3c1.9,2.8,3.8,5.6,6.7,7.6c0.8,0.5,1.1,1.4,1.5,2.2c1.7,4.2,4.8,7.4,8.2,10.2
		c0.5,0.4,1,0.9,1.6,1.3c4.2,2.8,7.4,6.5,10,10.9c1.2,2,2.7,3.9,4.3,6c0,1-1.8,1.9-0.6,3.5c0.9,1.1,2,1.7,3,2.1
		c0.3,1-0.2,1.7-0.6,1.6c-1.7-0.7-3.6,0-5.1-1.1c-2.4-1.8-5.3-2.4-7.8-4c-0.6-0.4-1.2-0.5-1.9-0.4c-3,0.2-6,0.1-8.9-0.8
		c-0.8-0.3-1.7-0.4-2.2,0.3c-1.3,1.8-3.1,1.5-4.9,1.7c-3.1,0.4-5.8,1.1-7.9,3.9c-1.4,1.9-3.8,3.2-6,4.2c-1,0.5-1.9,0.4-2.9-0.1
		c-0.8-0.4-1.7-0.8-2.2-1.5c-4.4-5.6-10.8-6.2-17.1-6.5c-3.2-0.1-6.3,0.3-9.5,0.2c-9.8-0.4-15.4,7.5-14.9,16.3
		c0.2,3-0.5,5.8-0.5,8.8c0,1.9-1.5,3.3-2.7,4.6c-1.8,2.1-3.1,4.3-3.6,6.9c-1.6,0.8-3.1,0.4-4.5,0.2c-1.8-0.3-3.6-0.1-5.4-0.1
		c-1.9,0.1-3.2,0.7-4.2,2.3c-1.5,2.5-3.8,4-6.6,4.9c-0.3,0.1-0.8,0.2-0.9,0.4c-1.3,2.4-3.6,2.1-5.6,2.1c-2.6,0.1-4.9,0.8-6.9,2.4
		c-3,2.2-6.3,4-9.9,5.1c-0.4,0.1-0.9,0.2-1.3,0.5c-3.7,3.3-8.6,3.5-12.9,5.5c-1.3,0.6-2.4,0.1-3.6-0.2c-3.9-0.9-5.9,0-7.7,3.7
		c-2.5,0.4-5.1,0-7.7-0.1c-4.7-0.3-9.5-0.9-14.2-1c-8.5-0.2-15.9,2.9-22.6,7.9c-1.3,1-2.4,2.1-3.7,3c-6.1,4.1-7.2,12.3-2.5,18
		c0.7,0.8,1.3,1.6,2,2.3c0.6,0.7,1.3,1.4,0.7,2.4c-0.6,1-1.7,0.8-2.4,0.3c-2.2-1.3-4.8-1.2-7.1-2c-0.6-0.2-1.2-0.4-1.6-0.1
		c-2.6,1.9-5.7,0.8-9,1.5c2-2.6,1.5-4.7,0-6.9c-0.7-1-1.1-2.2-1.4-3.4c-0.7-2.4-2-4.6-3.8-6.4c-1.3-1.3-2-2.9-3.6-4.1
		c-3.1-2.4-6.2-3.5-10-2.6c-0.8,0.2-1.6,0.1-2.3-0.2c-0.5-0.2-1.1-0.5-1.6-0.1c-2.9,2-6.3,0.9-9.5,1.6c-1.6,0.3-3,0.7-4.3,1.8
		c-1.4,1.2-2.9,2.1-5,1.4c-1-0.4-2.1-0.1-2.9,0.6c-1.4,1.5-2.8,0.8-4.4,0.4c-5-1.5-9.7-3.6-14.8-4.8c-1.6-0.4-3.1-1.3-4.5-2.3
		c-4.4-3.5-9.3-6-15-6.5c-0.4,0-1-0.1-1.3-0.4c-1.9-1.7-3.9-1.4-5.7-0.2c-2.9-1.5-5.2-3.3-7.3-5.3c-1.5-1.4-2.8-3.2-5.1-2.1
		c-1.5-2.5-2.8-4.7-5.9-4.4c-0.9,0.1-1.4-1-1.3-2.1c0.6-4.3-1.4-8.1-2.2-12.1c-0.2-0.8-0.5-1.5-0.6-2.3c-0.7-4.5-2.1-6.1-6.7-7
		c-1.3-0.3-2.2-0.6-2.5-1.8c-0.7-2.7-2.6-4.4-4.6-6.1c-0.6-0.5-1.2-1-1.5-1.7c0-0.3,0-0.6,0.1-0.7c3.4-4.6,3.3-5.1-0.2-9.7
		c-0.6-0.8-1.5-1.5-1.7-2.7c2.4-4,1.9-8-0.5-12.1c-1.8-3.2-3.4-6.6-5.8-9.5c-0.6-0.7-0.7-1.6-0.8-2.5c-0.2-3,0.2-5.9,0.8-8.8
		c0.3-1.7,1.2-2,2.7-1.3c1.4,0.7,2.6,1.8,3.7,2.9c2.9,2.9,5.8,5.8,9.3,7.9c6.6,4,13.2,3.3,19.6-0.3c2.5-1.4,4.7-3.5,6.9-5.5
		c3-2.7,5-6.1,6.4-9.9c1.2-3.3,2.9-6.4,5.9-8.5c1.5-1.1,1.8-2.8,1.9-4.8c2.7,0.5,5.3,1.8,7.9,0.1c2-1.4,5.3-0.5,6.4-3.8
		c2.1,0.7,3.8,0.5,5.6-0.5c1.6-0.9,3.5-0.7,4.9,0c4,2.1,8.7,1.5,12.7,3.2c0.3,0.1,0.8,0,1,0.1c3,3,7.3,3.4,10.7,5.4
		c3,1.8,6.2,3.3,9.9,2.8c1-0.2,2-0.4,2.9-0.9c3.6-1.9,6.9-4.3,10.2-6.7c0.9-0.6,1.4-1.4,1.8-2.4c3.8-10.6,6.6-21.4,6.1-32.8
		c-0.1-3-0.1-6.2-2.5-8.5c-0.5-0.5-0.8-1.4-0.7-2.2c0.2-3,0-6-1-8.9c1.7-0.8,2.7,0,3.8,0.5c4.3,1.8,7.9,4.8,12.1,6.9
		c1.8,0.9,3.4,1.6,5.5,1.2c1.5-0.3,2.9,0.4,4.2,1.1c4.5,2.3,8.9,2.2,13.2-0.4c1.2-0.7,2.2-0.9,3.5-0.4c1.1,0.4,2.2,0.6,3.2,1
		c4.2,1.7,8.5,2,13,0.9c2.7-0.7,4.6,1.3,7,1.9c1.2,0.3,2.3,0.9,3.5,0.3c0.9-0.4,1.7-0.3,2.6,0.1c0.5,0.2,1.2,0.6,1.6,0.4
		c2.9-1.2,5.5,0.3,8.2,0.7c2.7,0.4,5.3,0.9,8,1.5c3.3,0.7,6.7,0.4,10.1,0.4c4.1,0,8.1-0.1,12.2-0.1c3.5,0,6.9-0.7,10.4-1.4
		c1.9-0.4,3.7-1,5.7-1.1c3.6-0.1,6.9-0.9,10.2-2.2c1.5-0.6,3-0.8,4.6-0.6c2.4,0.2,4.7-0.2,6.6-0.9c1.5-0.2,1,1.1,1.9,1.3
		c3.4-0.9,6.7-2.1,9.4-4.6c2.1-1.9,5-2.6,7.4-4c4.7-2.7,9.5-3.6,15-3c3.7,0.4,7.6,0.2,11.3-1.1c5.2-1.7,10.3-3.6,15.5-4.9
		c8.8-2,16.3-6.7,24.1-10.6c3.5-1.7,6.8-3.8,10.5-5.3c3-1.2,4.7-3.9,6.7-6.1c1.4-1.5,2.4-3.3,4.3-4.3c1.3-0.8,1.7-2.3,2-3.5
		c0.9-0.3,1.5-0.3,2,0c2.8,1.7,5.8,0.8,8.7,0.8c0.5,0,1.2-0.3,1.5-0.6c3.1-2.9,7.2-2.6,10.8-3.9c2.8-1,6.1-1.9,7.1-5.6
		c2.4,0.7,3.8-0.8,4.7-2.7c0.9-2,2.4-2.4,4.3-3.2c2.7-1.1,5.4-1.7,8.2-2.2c1.5-0.2,2.4-1.6,3.5-2.6c1.7-1.7,3.5-2.4,5.8-1.4
		c1.2,0.5,2.2,0.2,3.2-0.4c0.8-0.5,1.6-0.8,2.6-0.8c3,0,4.6-1.5,5-4.6c2.8,1.4,4.7-0.2,6.6-1.6c2.3-1.7,4.8-3.1,7.8-2.5
		C501.9,28,502.4,28.1,502.9,28.2z"/>
	<path class="st1" d="M228.8,398.2c-2.1-1.1-3.9-2-5.9-3c1-1.1,1.7-2,2.6-3c2.5,0.4,4.6,1.5,6.6,2.6c3,1.6,5.6,1.5,8.6-0.1
		c2-1.1,4-2,6.2-2.5c1.1,0.8,1.9,1.7,2.7,2.9c-1.5,1.6-3.9,1.7-5.6,3.3c4.3,3.2,8.6,6.3,13.1,9.7c-2.9,2.7-5.8,5-8.3,8.1
		c-4.5-4.8-8.2-9.9-12.4-15c-4.3,5-7.9,10.3-12.5,15c-2.5-3-5.4-5.4-8.4-8C220,404.6,224.3,401.5,228.8,398.2z"/>
	<path class="st2" d="M386.2,319.4c-0.9-1.4-0.3-2.7,0.1-3.9c3.6-11,10.6-19.3,20-25.7c1.7-1.1,3.5-2.1,6.1-1.6
		c0.4,7.6,0.6,15.1-6.1,20.7c-5,4.2-10.5,7.4-16.5,9.8c-0.8,0.3-1.7,0.6-2.6,0.8C386.9,319.5,386.6,319.4,386.2,319.4z"/>
	<path class="st3" d="M86.3,319.4c-1.4,0.2-2.6-0.3-3.7-0.8c-5.6-2.3-10.7-5.3-15.5-9c-4.2-3.2-6.4-7.4-6.9-12.7
		c-0.3-2.9-0.7-5.8,0.1-8.7c2.1-0.7,3.7,0.1,5.2,1.1c6.9,4.5,12.8,10.1,16.8,17.4c1.6,3,3.2,6,4.1,9.3
		C86.7,317,87.3,318.1,86.3,319.4z"/>
	<path class="st3" d="M253.6,388.5c4.3-7.9,8.9-14.5,15.7-19.2c2.9-2,6.1-3.4,9.7-3.8c1.3-0.1,2.7-0.3,4,0.6c0.3,4-1,7.5-3.5,10.6
		c-2.2,2.8-5,4.9-8.1,6.5C266.1,386,260.3,387.5,253.6,388.5z"/>
	<path class="st3" d="M218.9,388.5c-8.6-1.3-16.2-3.3-22.6-8.4c-4.4-3.6-7.2-8-6.8-14.1c2.6-1.1,5-0.4,7.3,0.2c3,0.8,5.6,2.4,8,4.3
		C210.9,375.2,215,381.3,218.9,388.5z"/>
	<path class="st4" d="M85.1,351.1c10.2-3.6,27.8-1.9,34.2,9c-9.6,2-18.9,1.9-27.9-1.9C87.5,356.7,86.1,354.9,85.1,351.1z"/>
	<path class="st4" d="M178.3,395.1c2.1-3.4,5.3-4.7,8.7-5.5c3.7-0.9,7.4-0.5,11.1,0.2c5.8,1.1,11.3,3.1,16.6,5.7
		C206.8,402.1,189.7,402.5,178.3,395.1z"/>
	<path class="st3" d="M353.2,360.2c6.5-10.4,22.2-12.6,34-9.2c0.4,2.1-0.8,3.6-2.2,4.9c-2.1,2-4.7,3.1-7.4,3.9
		C369.6,361.9,361.6,362,353.2,360.2z"/>
	<path class="st4" d="M294.2,395c-8.8,6.6-26,8-36.2,0.9c0.4-1,1.4-1.1,2.1-1.4c5.7-2.5,11.5-4.5,17.8-5.1c3.5-0.4,7-0.1,10.3,1.1
		C290.6,391.3,292.8,392.6,294.2,395z"/>
	<path class="st5" d="M368.8,319.4c-5.2,12.1-12.9,21.8-24.5,28c-0.8-1.1-0.1-1.9,0.2-2.7c1.9-5.8,4.3-11.4,7.6-16.6
		c2.1-3.2,4.6-6.2,8.1-8.1C362.8,318.6,365.6,317.8,368.8,319.4z"/>
	<path class="st1" d="M103.7,319.4c3-1.5,5.5-0.8,7.9,0.3c2.1,0.9,3.9,2.4,5.4,4.1c6,6.7,9.1,14.9,12.1,24
		C116.6,341.2,109.1,331.5,103.7,319.4z"/>
	<path class="st5" d="M302.1,367c4.4-16.1,17.8-21.7,27.2-19.1C326.7,357.5,313.6,366.7,302.1,367z"/>
	<path class="st2" d="M170.6,367c-12.5-1-24.3-9.4-27.2-19C154.5,344.6,166.8,353.3,170.6,367z"/>
	<path class="st6" d="M125.9,375c7-1.6,13.9-2.3,20.8-1.7c3.4,0.3,6.7,1.1,9.7,2.8c0.9,0.5,1.8,1.1,2.5,1.8c1.8,1.8,1.5,3.4-0.7,4.6
		c-0.9,0.5-1.9,0.8-2.9,1c-9.5,1.2-18.5-0.3-26.6-5.6C127.7,377.1,126.5,376.5,125.9,375z"/>
	<path class="st6" d="M346.7,375c-0.5,1.5-1.5,2-2.4,2.6c-8.2,5.5-17.2,7.2-26.8,5.9c-1.9-0.3-4.4-0.6-4.7-3.1
		c-0.3-2.3,1.9-3.2,3.5-4.1c3-1.7,6.3-2.5,9.7-2.8C332.8,372.7,339.6,373.4,346.7,375z"/>
	<path class="st4" d="M122.4,353.1c2.6-1.3,5-0.9,7.5-0.5c4.9,0.8,9.2,3,13.2,5.8c4,2.8,7.5,6.1,11,10.2c-4.5,0.3-8.4-0.4-12.3-1.3
		c-4.6-1-8.9-2.6-12.7-5.4C126,359.6,123.6,356.9,122.4,353.1z"/>
	<path class="st4" d="M350.2,353.1c-1.3,3.8-3.5,6.5-6.5,8.7c-4.6,3.4-9.8,5-15.3,6.1c-3.1,0.6-6.2,1.1-9.4,0.8
		C325.7,358,341.1,350.2,350.2,353.1z"/>
	<path class="st7" d="M381.6,325c-0.4,11.7-13.3,20.5-23.4,22.8c-0.4-1,0.3-1.7,0.7-2.5c1.9-4.1,4.2-8,7-11.6c2.2-2.8,4.7-5.2,7.8-7
		C376,325.4,378.5,324.5,381.6,325z"/>
	<path class="st8" d="M385.5,333.3c0.7-4.7,3.4-7.6,7.1-9.6c5.3-3,11.2-3.9,17.2-4c0,7.3-4.3,12.6-11.1,13.4
		C394.4,333.6,390.1,334.1,385.5,333.3z"/>
	<path class="st3" d="M114.9,347.8c-12.8-2.5-24-13.4-23.7-22.8c2.3-0.6,4.4,0.1,6.5,1.1c2.9,1.4,5.3,3.4,7.4,5.8
		C109.2,336.5,112.2,341.8,114.9,347.8z"/>
	<path class="st4" d="M277.6,384.2c7.7-9,22.1-12.8,30.7-8.4c-0.4,2.4-1.9,4.2-3.8,5.6c-2.6,1.9-5.7,2.8-8.8,3.3
		c-5.7,0.9-11.5,0.6-17.2,0C278.1,384.6,277.9,384.3,277.6,384.2z"/>
	<path class="st5" d="M87.1,333.4c-5.7,0.5-11,0.1-16.2-1c-2.2-0.5-3.8-2-5.1-3.8c-1.9-2.6-3-5.5-3.4-9.1c7.7,0.2,14.9,1.2,20.9,6.4
		C85.4,327.8,86.7,330.1,87.1,333.4z"/>
	<path class="st6" d="M164.3,375.8c8.3-4.3,22.2-1,30.7,8.1c-0.1,0.4-0.3,0.6-0.7,0.6c-6.5,0.7-13.1,1.1-19.6-0.4
		c-2.9-0.7-5.6-1.8-7.8-3.8C165.6,379.1,164.7,377.8,164.3,375.8z"/>
	<path class="st9" d="M95.7,319.3c-3.3-3.7-5.8-7.5-5.9-12.7c0-3.6-0.7-7.1-1.1-11.1c4.1,1.7,7.1,4.1,7.6,8.2
		C97.1,308.9,96.5,314.1,95.7,319.3z"/>
	<path class="st10" d="M376.6,319.6c-0.5-4.9-1-9.7-0.7-14.5c0.3-4.8,3.4-7.6,8-9.7c-0.3,2.6-0.5,4.6-0.7,6.7
		c-0.2,2.2-0.4,4.5-0.6,6.7C382.3,312.1,380,316.4,376.6,319.6z"/>
	<path class="st11" d="M386.8,339.4c0,5.3-3.8,8.2-8.5,7.1c-2.4-0.6-3-2-1.5-3.9C379.4,339.5,382.7,338.7,386.8,339.4z"/>
	<path class="st11" d="M85.8,339.5c3.8-0.8,6.9,0,9.5,2.6c0.8,0.8,1.5,1.8,1.1,3c-0.4,1.3-1.7,1.4-2.8,1.5
		C88.9,347.2,85.8,344.4,85.8,339.5z"/>
	<path class="st12" d="M308.3,386.3c0.4,1.9,0,3.6-0.7,5.2c-0.6,1.6-1.8,2.6-3.5,2.8c-1.6,0.2-2.7-0.6-3-2.1
		C300.6,388.8,304.5,385.5,308.3,386.3z"/>
	<path class="st10" d="M164.2,386.3c4-0.7,7.4,2.2,7.2,5.7c-0.1,1.7-1.3,2.6-3,2.3c-1.7-0.3-2.8-1.3-3.4-2.9
		c-0.2-0.5-0.4-1.1-0.5-1.6C164.3,388.7,164.3,387.6,164.2,386.3z"/>
	<path class="st9" d="M177.3,361.9c3.7-0.3,6.2,1.4,6.8,4.6c0.2,1.1,0.4,2.3-0.7,3.1c-1,0.7-2.1,0.6-3.2,0.1c-1.6-0.7-2.4-2-2.7-3.6
		C177.2,364.8,177,363.4,177.3,361.9z"/>
	<path class="st13" d="M340.8,342.9c0.4,2.6,0.1,5-1.7,7c-1,1.1-3.3,1.5-4.3,0.8c-1.1-0.7-1.3-2.2-0.5-4
		C335.4,343.8,337.1,342.7,340.8,342.9z"/>
	<path class="st11" d="M295.3,361.9c0.5,1.8,0,3.3-0.5,4.8c-0.4,1.5-1.4,2.6-2.9,3.1c-1.1,0.3-2.2,0.4-3.1-0.5
		c-0.8-0.8-0.7-1.8-0.5-2.8C289.3,363.1,291.7,361.5,295.3,361.9z"/>
	<path class="st14" d="M132.2,342.9c3.5-0.1,6,1.8,6.5,4.9c0.4,2.5-0.9,3.7-3.3,3.2c-1.2-0.3-2-1-2.6-2
		C131.7,347.3,131.5,345.5,132.2,342.9z"/>
	<path class="st15" d="M350.7,364.1c0.5,1.9,0.2,3.8-0.8,5.5c-0.7,1.3-1.9,2-3.4,1.5c-1.2-0.4-1.5-1.8-0.9-3.5
		C346.5,365.1,347.9,364.1,350.7,364.1z"/>
	<path class="st12" d="M121.9,364.2c3.1-0.1,5.7,2.5,5.2,5.3c-0.1,0.9-0.6,1.5-1.4,1.7c-1.1,0.3-2-0.2-2.7-1
		C121.9,369,121.5,366.8,121.9,364.2z"/>
	<path class="st16" d="M502.9,28.2c-0.5-0.1-1-0.2-1.5-0.3c0.7-0.7,1.6-1,2.6-1.1C504.1,27.6,503.5,27.9,502.9,28.2z"/>
</g>
</svg>
