<?xml version="1.0" encoding="utf-8"?>
<!-- Generator: Adobe Illustrator 24.3.0, SVG Export Plug-In . SVG Version: 6.00 Build 0)  -->
<svg version="1.1" id="Layer_1" xmlns="http://www.w3.org/2000/svg" xmlns:xlink="http://www.w3.org/1999/xlink" x="0px" y="0px"
	 viewBox="0 0 685.1 451.4" style="enable-background:new 0 0 685.1 451.4;" xml:space="preserve">
<style type="text/css">
	.st0{fill:#BFAE95;}
	.st1{fill:#787772;}
	.st2{fill:#49807B;}
	.st3{fill:#715B52;}
	.st4{fill:#5A4740;}
	.st5{fill:#45140D;}
	.st6{fill:#C3A031;}
	.st7{fill:#A38678;}
	.st8{fill:#B69531;}
	.st9{fill:#6D584E;}
	.st10{fill:#796356;}
	.st11{fill:#518885;}
	.st12{fill:#DDDEDA;}
	.st13{fill:#BCBAB8;}
	.st14{fill:#B3B0A9;}
	.st15{fill:#C4C4C6;}
	.st16{fill:#801614;}
	.st17{fill:#D8B144;}
	.st18{fill:#6E6D69;}
	.st19{fill:#D0D1CE;}
	.st20{fill:#F5F5EF;}
	.st21{fill:#EEEEE2;}
	.st22{fill:#D0D07D;}
	.st23{fill:#B3AEA8;}
	.st24{fill:#F2F3E5;}
	.st25{fill:#91908A;}
	.st26{fill:#BFA161;}
	.st27{fill:#C4C4C4;}
	.st28{fill:#C5A84F;}
	.st29{fill:#208277;}
	.st30{fill:#497775;}
	.st31{fill:#D67901;}
	.st32{fill:#536033;}
	.st33{fill:#515E31;}
	.st34{fill:#525F32;}
	.st35{fill:#535F32;}
	.st36{fill:#525F33;}
	.st37{fill:#525E31;}
	.st38{fill:#536034;}
	.st39{fill:#535F33;}
	.st40{fill:#546135;}
	.st41{fill:#566338;}
	.st42{fill:#566337;}
	.st43{fill:#59663C;}
	.st44{fill:#586439;}
	.st45{fill:#576236;}
	.st46{fill:#5C673D;}
	.st47{fill:#E3983B;}
</style>
<rect class="st0" width="685.1" height="451.4"/>
<path class="st1" d="M532.5,293.4h3.8H532.5z"/>
<path class="st1" d="M562.3,293l1,0.4l-1.9,0C561.7,293.2,562,293.1,562.3,293z"/>
<path class="st1" d="M543.5,293.4c0.3-0.1,0.6-0.1,0.9,0H543.5z"/>
<path class="st1" d="M538.6,293.5c0.2-0.1,0.5-0.1,0.8,0l-0.4,0.2L538.6,293.5z"/>
<path class="st2" d="M571.6,272.1l-3.3-8L571.6,272.1z"/>
<path class="st1" d="M538.5,235.2l0.7,3L538.5,235.2z"/>
<path class="st1" d="M535.2,228c-0.2-1-0.4-2-0.7-3C534.8,226,535,227,535.2,228z"/>
<path class="st3" d="M194.9,314.6l-9.3-6.4h-0.1l-2.9,3l0,0l-5.6,9.2l7.2,5l0,0l1.2,0.9l0,0l5.2,3.3v-0.1l3.4,2.7l-0.4,2.7l2.6-0.5
	c1.1-4.4,2.2-8.7,3.3-13L194.9,314.6z"/>
<path class="st4" d="M188.3,332.2l-1.8,1.9c0,0,5.5,1.4,7.2,1.2l1.9,1.1l1.2-3.5l-2.6-1l-5.8-2.1L188.3,332.2z"/>
<path class="st5" d="M167.1,419.6c-0.7-0.2-1.4-0.5-2.1-0.8c-0.3-0.7-0.5-1.4-0.6-2.1c-0.6-3.8-4.9-39,0.7-39h-12.6
	c-22.1,0-44.2-0.1-66.3-0.2c-8.6,0-17.1,0-25.7,0H47.6h-6.4c-1.5,0-4.4-0.5-5.7,0.2c-0.2,0.1-0.3,0.3-0.4,0.5
	c-4.1,5.9-6.4,12.9-6.4,20.1c0,3.6,0.6,7.2,1.5,10.7c0.5,1.9,1.1,3.7,1.8,5.5c0.6,1.6,0.9,4.8,2.7,5.5c0.6,0.2,1.3,0.3,2,0.2
	c22.3-0.6,44.7,0,67,0h8.1c17.9,0,35.8,0.1,53.8,0.1h0.2l-0.1-0.1h1.1C166.8,420,166.9,419.8,167.1,419.6z"/>
<path class="st6" d="M51.4,377.8l1.4-0.2l1,0.4c-8.6,7.1-9,33.4-0.5,41.9l-0.9,0.5l-1.9-0.6C42.4,405.5,41.5,391.5,51.4,377.8z"/>
<path class="st5" d="M51.4,377.8c-9.9,13.8-9,27.7-0.9,41.9h-2l-2.8-2.5c-4.6-11.2-4.2-22.7-1.1-34.2l4.3-5L51.4,377.8z"/>
<path class="st7" d="M166.5,256.4l1.4-0.1l9.6,7.4l1.5,1.1l5.7,4.2l9.3,7l0.9,0.7c0.7,0.9,1.4,1.8,2.1,2.7L166.5,256.4z"/>
<path class="st4" d="M52.4,420.3L52.4,420.3l-3.8-0.3l-0.2-0.3h2L52.4,420.3z"/>
<path class="st1" d="M42.4,420.1c0.3,0.2,0.7,0.3,1,0.5L42.4,420.1z"/>
<path class="st8" d="M189.8,297.5l-3.9,5.5l-17.6,23.8c-1.1,1.5-2.3,3.1-3.4,4.6l-2.9,3.5l-1.3,0.3l0,0l-5.1-3.9l0,0l-3-2.1l0,0
	l-3-2.3v-0.2l29.1-38.6l7.8,5.4l0.9,0.7C188.2,295.3,189,296.4,189.8,297.5z"/>
<path class="st9" d="M159.2,266.9l1.7-1.5l-1.5-5l7.4,4.2l0,0l1.5,1l0,0l1.5,1l0,0l1.5,1l0,0l5.1,4l0,0l2.9,2l0,0l5.1,4l0,0l1.5,1
	l0,0l1.5,1l0,0l1.5,1l0,0l4.4,3.1l0,0l1.5,1l0,0l1.5,1l0,0c1.5,1.5,2.9,3.1,4.4,4.6L198,290l-3-0.5l-0.2-0.2l0.1,0.3
	c0.7,0.8,1.4,1.5,2.1,2.3l-1.7,1.6l-2.2-1.1l-2.4-1.4l-5.1-3.9l-1.4-1l-1.4-1l-0.8-0.8l-4.3-3.1l-1.5-1l-0.8-0.8l-1.4-1.1l-1.4-1
	l-5.8-4.1l-0.8-0.8L159.2,266.9z M184.4,281.6l1.5,1l1.5,1l0.2,0.2l-0.1-0.2l-1.5-1L184.4,281.6l-1.4-1l-5.9-4.1l-1.5-1l-0.7-0.9
	l-2.9-2.1c-1.6-1.3-3.1-2.7,0.4,0.4c-4.1-2.1-2.4-1.2-0.5-0.3l2.9,2l0.7,0.9l1.4,1l5.9,4.1L184.4,281.6z M191,286.6
	c0.2,0.2,0.4,0.3-0.5-0.4c1.1,0.6,0.9,0.5,0.6,0.3c0-0.5-0.1-1,0,0.1C190.2,286.1,190.6,286.4,191,286.6L191,286.6z"/>
<path class="st10" d="M166.5,256.4l30.5,23l0,0l6.6,6l-2.3,3.5l-5.3-3.2l0,0l-1.5-1l0,0l-1.5-1l0,0l-4.4-3.1l0,0l-1.5-1l0,0l-1.5-1
	l0,0l-1.5-1l0,0l-5.1-4l0,0l-2.9-2l0,0l-5.1-4l0,0l-1.5-1l0,0l-1.5-1l0,0l-1.5-1l0,0l-5-4.8l2.9-3.6l1.7,0.2L166.5,256.4z"/>
<path class="st9" d="M168.2,326.8l17.6-23.8c-0.1,1.3-0.3,2.6-0.4,3.9l-2.8,4.3l0,0c-4.2,3.9-8.9,7.4-9.4,13.8L168.2,326.8z"/>
<path class="st4" d="M194.7,298.2l-3.6-0.5l-0.1,0.1l-1.2-0.1v-0.2c-0.8-1.1-1.6-2.2-2.4-3.3l0.1-0.1l7.6,2.7l0.2,0.3L194.7,298.2z"
	/>
<path class="st7" d="M196.9,279.3l2.4,0.4l4.3,5.6L196.9,279.3z"/>
<path class="st10" d="M197.7,290l2.7,0.3l1.7,0.3c-0.4,2.4-1.6,3.2-3.9,2L197.7,290z"/>
<path class="st7" d="M202.1,290.6l-1.7-0.3c-1.5-1.5-2.9-3.1-4.4-4.6l5.2,3.2L202.1,290.6z"/>
<path class="st7" d="M192.6,292.4l2.2,1.1l0.4,3.7l-0.2-0.3l-2.7-4.2L192.6,292.4z"/>
<path class="st4" d="M182.6,311.1l2.8-4.3l0.1,1.3L182.6,311.1z"/>
<path class="st4" d="M197.7,290l0.5,2.6l-1.6-0.8c-0.7-0.8-1.4-1.5-2.1-2.3l0.1-0.1L197.7,290z"/>
<path class="st11" d="M189.8,297.6l1.2,0.1L189.8,297.6z"/>
<path class="st10" d="M141.6,343.2l-27.3-19.6l3.6-4.9l5.9,3.4l2.2,1.9l2.2,1.2l1.4,1l2.9,2.8l9.5,7l1.4,1l4.4,3.1
	c1.9,2.5,0.3,3.7-1.6,4.7L141.6,343.2z"/>
<path class="st8" d="M128.8,310.7l28.5-38.4l3.3,2.5l-28.5,38.8h-0.3l-2.4-1.3l0,0L128.8,310.7z"/>
<path class="st4" d="M123,316l0.6-5.5l2.6,0.4c0.2,0.1,0.4,0.1,0.6,0.2l-2.8,1.7l39.7,26.9l-5.4,2.3l-1.7-0.4l-1.4-1l-0.8-0.8
	l-5.8-4.1l-0.9-0.8l-2-1.3l-0.9-0.8l-2-1.4l-5.1-3.9l-0.9-0.7l-1.4-1l-2-1.4l-5.1-3.8l-0.8-0.8l-2-1.3l-0.8-0.8L123,316z"/>
<path class="st4" d="M141.6,343.2l4.6,1.5c1.9-1,3.5-2.1,1.6-4.7l0.1-0.1l13.1,6.8l-5,2.4l-2.2,3l-0.9-0.2l-1.1-0.8l-2.8-2.6l5,0.7
	l-3-3.7l-2,3l-7-4.4L141.6,343.2z"/>
<path class="st7" d="M159.2,266.9l6.6,5.5l-0.2,0.1l-9-5l-0.9-0.4L159.2,266.9z"/>
<path class="st4" d="M123.8,322c-2-1.1-4-2.3-5.9-3.4c-0.1-1.2-0.1-2.3-0.2-3.5c0.2,0.1,0.5,0.2,0.7,0.4l5.6,6.4L123.8,322z"/>
<path class="st4" d="M159.4,260.3l1.5,5L160,265l-1.5-5.1L159.4,260.3z"/>
<path class="st7" d="M118.4,315.5c-0.2-0.1-0.5-0.2-0.7-0.4l5.4,0.9l1.7,1.8l-0.5,0.4L118.4,315.5z"/>
<path class="st4" d="M160.6,274.8l-3.3-2.5l-0.5-0.9l0.2-0.2l5,4l-0.1,0.1L160.6,274.8z"/>
<path class="st4" d="M155.7,267.1l0.9,0.4l0.4,3.6l-0.2,0.2C156.4,270,156.1,268.5,155.7,267.1z"/>
<path class="st7" d="M127,311.2c-0.2-0.1-0.4-0.2-0.6-0.2l-1.5-1.6l4.1,1.3l0.6,1.6L127,311.2z"/>
<path class="st3" d="M124.7,309.4l1.5,1.6l-2.6-0.4L124.7,309.4z"/>
<path class="st3" d="M69.4,377.6c-0.2,0-0.4,0-0.5-0.1l-0.2-0.9c1.4-7-3.2-15.4,4.9-20.8l31.8,0.1c-0.3,6.9-0.6,13.8-0.8,20.6
	c-0.2,0.1-0.5,0.1-0.7,0.1l-18.4,0.8c-0.2,0.1-0.5,0.2-0.7,0.1l-2.8-0.1H80l-1.9,0.1h-6.9L69.4,377.6z"/>
<path class="st3" d="M95.9,353.5l-22.2,0.1c0-1.4,0-2.7,0-4c0.2,0,0.4,0,0.6,0.1l20.9,1.1L95.9,353.5z"/>
<path class="st3" d="M186.2,377.6c0.2,0,0.4,0,0.5-0.1l0.2-0.9c-1.4-7,3.2-15.4-4.9-20.8l-31.8,0.1c0.3,6.9,0.6,13.8,0.8,20.6
	c0.2,0.1,0.5,0.1,0.7,0.1l18.5,0.8c0.2,0.1,0.4,0.2,0.7,0.1l2.8-0.1h1.8l1.9,0.1h6.9L186.2,377.6z"/>
<path class="st3" d="M158.1,353.5l23.8,0.1c0-1.4,0-2.7,0-4c-0.2,0-0.4,0-0.7,0.1l-22.4,1.1L158.1,353.5z"/>
<path class="st6" d="M44.6,383c-3.1,11.5-3.5,22.9,1.2,34.2C39,406,39.2,394.6,44.6,383z"/>
<path class="st7" d="M159.4,260.3l-0.8-0.4c0-0.2,0-0.4,0-0.5l3.3,0.4l5,4.8L159.4,260.3z"/>
<path class="st10" d="M120.9,349.5v-0.1l-46.5,0.2l20.9,1.1l0.6,2.7h25.5C121.1,352.2,120.9,350.9,120.9,349.5z"/>
<path class="st5" d="M220,417.4c-0.1,0.5-0.1,1.1-0.2,1.6l-1.1,0.6c-1.7-0.5-3.5-1.6-5.2-1.6c-39.4-0.1-78.8-0.1-118.1-0.1
	c-1.7,0-3.3-0.9-5-1.3c0.2,0,0.4,0,0.6-0.1c1.5,0.3,3,0.6,4.6,0.7C137,417.3,178.5,417.4,220,417.4z"/>
<path class="st12" d="M91,416.6c-0.2,0-0.4,0.1-0.6,0.1l-1.3-1.3l0.4-0.4h2.4c22.4,0.3,44.7,0.5,67.1,0.8l58,0.7L91,416.6z"/>
<path class="st13" d="M91,416.6l126-0.2l2.9,1c-41.5,0-82.9-0.1-124.4-0.2C94,417.1,92.5,416.9,91,416.6z"/>
<path class="st14" d="M91.9,414.9h-2.4c0-0.2,0-0.5,0-0.7h124.6v0.7L91.9,414.9z"/>
<path class="st13" d="M214.6,412.5c-20.2,0.3-40.4,0.6-60.7,0.8c-21.5,0.1-43,0-64.5,0c0-0.3,0-0.6,0-0.9l124.2,0.1L214.6,412.5z"/>
<path class="st12" d="M89.5,412.4c0,0.3,0,0.6,0,0.9v0.9c0,0.2,0,0.5,0,0.7l-0.4,0.4c-1.2-3-2.3-6.1-3.5-9.2l3.9,5.6
	C89.5,412,89.5,412.1,89.5,412.4z"/>
<path class="st15" d="M214.6,412.5l-0.9,0l-0.9-1.1l0.8-0.5l1,0.1l0.9,1.6L214.6,412.5z"/>
<path class="st4" d="M218.7,419.6l1.1-0.6c0.1,0.4,0.3,0.8,0.4,1.2l-0.8,0.3l-1-0.4C218.5,420,218.6,419.8,218.7,419.6z"/>
<path class="st16" d="M218.7,419.6c-0.1,0.2-0.2,0.3-0.3,0.5l-32.5-0.1l-6.4,0H95.8h-5.4h-0.9h-2.9l-0.6-0.5
	c-6.7-14.2-8.5-28.2,1.3-41.9l16.7-0.4l47.8,0.1l1.3,0.5c0.1,0.4,0.3,0.7,0.4,1.1l-1.5,0.6h-1.2l-60.3,0.6c0,0.1,0,0.3,0.1,0.4
	l-3.6,5.2c-0.4,1.7-0.8,3.4-1.2,5.1c-0.2,1.6-0.4,3.1-0.7,4.7c0.1,2.6,0.2,5.2,0.3,7.7l0.4,2.7c1.2,3.1,2.3,6.1,3.5,9.2l1.3,1.3
	c1.7,0.5,3.3,1.3,5,1.3c39.4,0.1,78.7,0,118.1,0.1C215.2,418.1,217,419.1,218.7,419.6z"/>
<path class="st4" d="M179.5,420.1l6.4,0L179.5,420.1z"/>
<path class="st4" d="M89.4,420.1h0.9H89.4z"/>
<path class="st4" d="M95.8,420.1L95.8,420.1z"/>
<path class="st17" d="M178.7,288.1l-29.1,38.6l-1.2-0.5l-3-2.1l0,0l-2.5-2.4l-1.1-0.4l-1.6-1.1l0,0c0.1-0.2,0.1-0.4,0.1-0.7
	c1.4-1.1,2.7-2.2,3.9-3.5c8.8-11.2,17.5-22.5,26.1-33.9L178.7,288.1z"/>
<path class="st3" d="M162.3,336.2l1.6,3.6l-39.7-26.9l2.8-1.7l2.4,1l0,0l2.4,1.3h0.3c0,0.2,0.1,0.4,0.2,0.6l0.9,0.9
	c0.2,0,0.4,0.1,0.5,0.2l2.4,1.9l1.2,1l3,2.1l0,0l1.6,1.1l1.1,0.4l2.5,2.4l0,0l3,2.1l1.2,0.5v0.2l3,2.3l0,0l3,2.1l0,0l5.1,3.9l0,0
	L162.3,336.2z"/>
<path class="st4" d="M178.7,288.1l-8.2-6l-4.2-2.9l-4.4-4l0.1-0.1l24.8,18l-0.4,0.3L178.7,288.1z"/>
<path class="st7" d="M160.7,335.3l-5.1-3.9L160.7,335.3z"/>
<path class="st7" d="M152.6,329.3l-3-2.3L152.6,329.3z"/>
<path class="st7" d="M155.6,331.4l-3-2.1L155.6,331.4z"/>
<path class="st7" d="M162.3,336.2l-1.7-1l1.3-0.3L162.3,336.2z"/>
<path class="st4" d="M187.4,294.2l-0.9-0.7l0.4-0.3l0.6,0.9L187.4,294.2z"/>
<path class="st4" d="M172.1,272.6c-1.8-0.9-3.6-1.9,0.5,0.3c-3.5-3-2-1.7-0.4-0.4L172.1,272.6z"/>
<path class="st7" d="M166.6,273.2l5.8,4.1l-0.4,0.4l-5.8-4.2L166.6,273.2z"/>
<path class="st4" d="M183,280.6l-5.9-4.1l0.1-0.1L183,280.6L183,280.6z"/>
<path class="st7" d="M179.2,273.6l5.1,4L179.2,273.6z"/>
<path class="st7" d="M171.2,267.6l5.1,4L171.2,267.6z"/>
<path class="st7" d="M185.4,287.2l5.1,3.9l-0.3,0.4l-5.1-3.9L185.4,287.2z"/>
<path class="st7" d="M177.5,281.2l4.3,3.1l-0.4,0.3l-4.3-3.1L177.5,281.2z"/>
<path class="st7" d="M188.6,280.6l4.4,3.1L188.6,280.6z"/>
<path class="st4" d="M172.2,272.5l2.9,2.1H175l-2.9-2L172.2,272.5z"/>
<path class="st7" d="M176.2,271.6l2.9,2L176.2,271.6z"/>
<path class="st7" d="M190.6,291l2.1,1.3l-0.2,0.2l-2.2-1.2L190.6,291z"/>
<path class="st4" d="M191,286.6c-0.4-0.2-0.7-0.5,0.1,0.1c-0.1-1.2,0-0.7,0-0.1L191,286.6z"/>
<path class="st7" d="M184,286.1l1.4,1l-0.3,0.3l-1.4-1L184,286.1z"/>
<path class="st4" d="M191.1,286.5c0.2,0.1,0.4,0.2-0.6-0.3c1,0.7,0.8,0.6,0.5,0.4L191.1,286.5z"/>
<path class="st7" d="M182.6,285.1l1.4,1l-0.3,0.3l-1.4-1L182.6,285.1z"/>
<path class="st4" d="M186,282.6l1.5,1l0,0L186,282.6L186,282.6z"/>
<path class="st7" d="M193,283.6l1.5,1L193,283.6z"/>
<path class="st7" d="M194.5,284.7l1.5,1L194.5,284.7z"/>
<path class="st7" d="M166.8,264.5l1.5,1L166.8,264.5z"/>
<path class="st7" d="M168.2,265.6l1.5,1L168.2,265.6z"/>
<path class="st7" d="M169.7,266.6l1.5,1L169.7,266.6z"/>
<path class="st4" d="M177.1,276.6l-1.4-1h0.1L177.1,276.6L177.1,276.6z"/>
<path class="st7" d="M184.2,277.5l1.5,1L184.2,277.5z"/>
<path class="st7" d="M185.7,278.6l1.5,1L185.7,278.6z"/>
<path class="st7" d="M172.4,277.3l1.4,1l-0.3,0.4l-1.5-1L172.4,277.3z"/>
<path class="st7" d="M187.2,279.6l1.5,1L187.2,279.6z"/>
<path class="st7" d="M173.8,278.3l1.4,1.1l-0.2,0.2l-1.5-0.9L173.8,278.3z"/>
<path class="st4" d="M184.4,281.6l-1.5-1l0.1-0.1L184.4,281.6L184.4,281.6z"/>
<path class="st7" d="M176,280.2l1.5,1l-0.4,0.3l-1.4-1.1L176,280.2z"/>
<path class="st4" d="M185.9,282.6l-1.5-1l0.1-0.1L185.9,282.6L185.9,282.6z"/>
<polygon class="st4" points="194.5,289.5 194.4,289.2 194.7,289.4 "/>
<path class="st7" d="M181.8,284.3l0.8,0.8l-0.3,0.3l-0.8-0.8L181.8,284.3z"/>
<path class="st7" d="M165.7,272.4l0.8,0.8l-0.4,0.3c-0.2-0.3-0.4-0.6-0.6-0.9L165.7,272.4z"/>
<path class="st4" d="M175.1,274.6l0.7,0.9h-0.1L175.1,274.6L175.1,274.6z"/>
<polygon class="st4" points="187.4,283.6 187.6,283.9 187.4,283.6 "/>
<path class="st7" d="M175.2,279.4l0.8,0.8l-0.3,0.3l-0.7-0.8L175.2,279.4z"/>
<path class="st4" d="M202.3,326l3.9,2.6l-0.4,0.4l-4.8-1.7c-0.5,1.9-0.9,3.6-1.4,5.6l10.9,8.9c0.7-3,1.1-5,1.6-6.9l0.4,10.8
	c0.1,0.4,0.1,0.9,0.2,1.3l0.4,1.9l-0.1,1.2l-15.6-12.4l0.8-4.8l0.2-0.8l2.2-7L202.3,326z"/>
<path class="st5" d="M202.3,326l-1.8-1.1c0.1-0.3,0.2-0.6,0.3-0.9L202.3,326z"/>
<path class="st7" d="M198.4,331.9l-0.2,0.8L198.4,331.9z"/>
<path class="st9" d="M196,335.5c0.1-0.2,0.2-0.5,0.3-0.7C196.2,335,196.1,335.3,196,335.5z"/>
<path class="st4" d="M174.2,326.1l-1-1.2c0.4-6.4,5.2-9.9,9.4-13.8l-5.6,9.2l8.5,5.8l-2.5,4.5l-1.6,0.5L174.2,326.1z"/>
<path class="st10" d="M105.4,355.9l50,1.5l-2.2,8.1l0,0c-0.8,1.9-1.6,3.8-2.4,5.7c0.5,1.8,1,3.6,1.5,5.4h-47.8
	C104.9,369.7,105.1,362.8,105.4,355.9z"/>
<path class="st3" d="M159.5,351.1l18.1-0.9c-6.1,2.6-12.3,5.7-18.3,1.1L159.5,351.1z"/>
<path class="st4" d="M146.1,349.5l11-0.3l1,0.2l-0.6,2.2L146.1,349.5z"/>
<path class="st9" d="M155.8,360.8c-0.4,1-0.8,2.1-1.1,3.1C155,362.8,155.4,361.8,155.8,360.8z"/>
<path class="st9" d="M175,279.6l0.7,0.8l1.4,1.1l4.3,3.1l0.8,0.8l1.4,1l1.4,1l5.1,3.9l2.2,1.2l2.7,4.2l-7.6-2.7l-0.6-0.9l-24.8-18
	l-5-4l-0.4-3.6l9,5c0.2,0.3,0.4,0.6,0.6,0.9l5.8,4.2l1.5,1L175,279.6z"/>
<path class="st4" d="M142,335.9l-9.5-7l0.1-0.1l9.5,7L142,335.9z"/>
<path class="st4" d="M147.8,340l-4.4-3.1l0.1-0.1l4.4,3L147.8,340z"/>
<path class="st4" d="M132.5,328.9l-2.9-2.8l0.2-0.1l2.8,2.8L132.5,328.9z"/>
<path class="st4" d="M126,323.9l-2.2-1.9l0.1-0.1L126,323.9L126,323.9z"/>
<path class="st4" d="M128.2,325.1l-2.2-1.2l0.1-0.1l2.3,1.1L128.2,325.1z"/>
<path class="st4" d="M129.6,326.1l-1.4-1l0.1-0.2l1.4,1L129.6,326.1z"/>
<path class="st4" d="M143.4,336.9l-1.4-1l0.1-0.1l1.4,1L143.4,336.9z"/>
<path class="st17" d="M162,275.3l4.4,4L139,318.4l-1.6-0.3l-1.2-1l-2.4-1.9c-0.2-0.1-0.3-0.1-0.5-0.2l-0.9-0.9
	c-0.1-0.2-0.2-0.4-0.2-0.6l28.5-38.8L162,275.3z"/>
<path class="st7" d="M131.7,313.5l-2.4-1.3L131.7,313.5z"/>
<path class="st7" d="M148.8,335.7l5.8,4.1l-0.4,0.4l-5.8-4.1L148.8,335.7z"/>
<path class="st7" d="M128.4,320.7l5.1,3.8c-0.1,0.1-0.3,0.3-0.4,0.4L128,321L128.4,320.7z"/>
<path class="st7" d="M137.9,327.6l5.1,3.9c-0.2,0.1-0.3,0.3-0.5,0.5l-5.1-3.9L137.9,327.6z"/>
<path class="st7" d="M158.4,342.1l2.4,2.9l-4.6-2.9l0.4-0.4L158.4,342.1z"/>
<path class="st7" d="M133.5,324.5l2,1.4l-0.3,0.3l-2.2-1.2C133.2,324.8,133.4,324.6,133.5,324.5z"/>
<path class="st7" d="M125.5,318.6l2,1.3l-0.4,0.3L125,319C125.2,318.9,125.4,318.7,125.5,318.6z"/>
<path class="st7" d="M145.9,333.6l2,1.3l-0.3,0.2l-2.2-1.2L145.9,333.6z"/>
<path class="st7" d="M143,331.5l2,1.4l-0.4,0.4l-2.1-1.3C142.7,331.8,142.8,331.7,143,331.5z"/>
<path class="st7" d="M135.6,325.9l1.4,1l-0.3,0.3l-1.4-1L135.6,325.9z"/>
<path class="st7" d="M155.3,340.6l1.4,1l-0.4,0.4l-1.4-1C155,340.9,155.2,340.8,155.3,340.6z"/>
<path class="st7" d="M124.7,317.8l0.8,0.8c-0.1,0.2-0.3,0.3-0.5,0.4l-0.8-0.8L124.7,317.8z"/>
<path class="st7" d="M127.6,319.9l0.8,0.8L128,321l-0.8-0.8L127.6,319.9z"/>
<path class="st7" d="M145,332.9l0.9,0.8c-0.1,0.1-0.3,0.3-0.5,0.4c-0.3-0.2-0.5-0.5-0.8-0.8L145,332.9z"/>
<path class="st7" d="M147.9,335l0.9,0.8l-0.5,0.4l-0.6-0.9L147.9,335z"/>
<path class="st7" d="M154.5,339.9l0.8,0.8l-0.4,0.4l-0.8-0.8L154.5,339.9z"/>
<path class="st7" d="M137,326.9l0.9,0.7l-0.5,0.4l-0.7-0.9L137,326.9z"/>
<path class="st3" d="M136.7,327.2l0.7,0.9l5.1,3.9l2.1,1.3c0.3,0.3,0.5,0.5,0.8,0.8l2.2,1.2l0.6,0.9l5.8,4.1l0.8,0.8l1.4,1.1
	l4.6,2.9c0,0.6,0.1,1.1,0.1,1.7l-13.1-6.8l-4.4-3l-1.4-1l-9.5-7l-2.8-2.9l-1.4-1l-2.3-1.1l-2.1-2l-5.6-6.4l5.9,2.7l0.8,0.8l2.2,1.2
	l0.8,0.8l5.1,3.9l2.2,1.2L136.7,327.2z"/>
<path class="st10" d="M149,348.5l2-3l3,3.7L149,348.5L149,348.5z"/>
<path class="st4" d="M69.4,377.6h1.9H69.4z"/>
<path class="st4" d="M78.2,377.6l1.9-0.1c-0.1,0.2-0.1,0.5-0.1,0.8H80L78.2,377.6z"/>
<path class="st1" d="M104.6,376.6h47.8c0.1,0.2,0.1,0.5,0.1,0.7l-0.8,0.2l-47.8-0.1v-0.7C104.1,376.6,104.3,376.6,104.6,376.6z"/>
<path class="st18" d="M103.8,376.7v0.7l-16.7,0.4l-1.7-0.2L103.8,376.7z"/>
<path class="st5" d="M80,378.3c0-0.3,0-0.5,0.1-0.8h1.8L80,378.3z"/>
<path class="st19" d="M214.6,410.9l-1-0.1l-2.2-0.6l-107.7-0.1H88.7c0-0.2,0-0.5,0-0.8v-0.8c0.2-0.5,0.5-1,0.8-1.5v-0.8l22.3,1.6
	v-2.3l102.1-0.1C214.1,407.1,214.3,409,214.6,410.9z"/>
<path class="st20" d="M213.8,396.5v0.9h-99.9v0.7h99.9v0.9h-99.9v0.7h99.9v0.9h-99.9v0.8h99.9c0,0.2,0,0.5,0,0.7
	c-26.3,0-52.5,0-78.8,0.1c-7.2,0-14.4,0.6-21.6,0.9c0,0.2,0,0.4,0,0.5l-1.4,0.1c-0.4-3.4-0.8-6.8-1.2-10.2l1.1-0.1l0,0v0.8
	c1.6,0.4,3.3,0.6,5,0.8c32.3,0.1,64.7,0.1,97,0.1v0.8H113.7v0.7L213.8,396.5z"/>
<path class="st4" d="M292.1,405.1c-0.3,1.9-0.7,3.8-1,5.7l-4-2.5l-0.9-0.8l-2.1-1.6l-3-2.2l-3.4-2.5l-22-17.5c0-0.2,0.1-0.4,0.1-0.6
	c-0.3-0.1-0.6-0.1-1-0.2l0.1,0.2l-0.6-0.4l-20.5-15.8c-1.6-5.6-3.1-11.2-4.7-16.8c1.6,3.3,2.4,7.7,5,9.8
	C253.3,375.2,272.8,390.1,292.1,405.1z"/>
<path class="st19" d="M214.6,386.3l-0.8,4.1l-1.6-0.2c-1.6-0.4-3.3-0.6-5-0.8c-30.7,0-61.5-0.1-92.2-0.1h-1.5h-1.7l-1.6,0.1
	c-0.2,0-0.5,0-0.8,0l-1.4-0.9c-0.2,0-0.3-0.2-0.3-0.3c0,0,0,0,0-0.1c2.3-0.6,4.6-0.9,6.9-1.1c33-0.3,66.1-0.6,99.1-0.8l0.8-0.1
	L214.6,386.3z"/>
<path class="st15" d="M205,383.8l10.6,0.2c-0.3,0.8-0.6,1.5-0.9,2.3l-0.1-0.2l-58.9-0.8l-0.8-0.8l-0.1-0.8l1.7-0.1l11.1-0.1
	l32.8,0.1L205,383.8z"/>
<path class="st21" d="M109.4,389.4c0.2,0,0.5,0,0.8,0l0.9,1.5c1.6,0.4,3.3,0.6,5,0.7c32.6,0.1,65.2,0.1,97.8,0.2c0,0.2,0,0.4,0,0.6
	c-6.6,0-13.3,0-19.9,0.1c-27.4,0.2-54.7,0.5-82.1,0.8l-1.1,0.1c-0.4-1-0.9-2.1-1.3-3.1L109.4,389.4z"/>
<path class="st12" d="M112,403.7l1.4-0.1v0.1c1.6,0.4,3.3,0.6,5,0.8c31.8,0.1,63.6,0.1,95.4,0.1c0,0.2,0,0.5,0,0.7l-102.1,0.1
	l-0.8-1L112,403.7z"/>
<path class="st15" d="M213.8,391.9c-32.6,0-65.2-0.1-97.8-0.2c-1.7-0.1-3.4-0.4-5-0.7l2.4-0.1l100.4-0.2V391.9z"/>
<path class="st13" d="M213.8,395c-32.3,0-64.7,0-97-0.1c-1.7-0.1-3.4-0.4-5-0.8l102-0.1V395z"/>
<path class="st13" d="M111.8,393.4c27.4-0.3,54.8-0.5,82.1-0.8c6.6-0.1,13.3-0.1,19.9-0.1c0,0.3,0,0.6,0,0.9L111.8,393.4
	L111.8,393.4z"/>
<path class="st21" d="M111.8,393.4h102c0,0.2,0,0.5,0,0.7l-102,0.1C111.8,393.9,111.8,393.6,111.8,393.4z"/>
<path class="st14" d="M213.8,396.5H113.7v-0.7h100.1C213.8,396,213.8,396.3,213.8,396.5z"/>
<path class="st14" d="M213.7,398.1h-99.9v-0.7h99.9C213.8,397.6,213.8,397.9,213.7,398.1z"/>
<path class="st14" d="M213.8,399.7h-99.9V399h99.9C213.8,399.2,213.8,399.5,213.8,399.7z"/>
<path class="st14" d="M213.8,401.3h-99.9v-0.8h99.9L213.8,401.3z"/>
<path class="st13" d="M113.4,403c7.2-0.3,14.4-0.9,21.6-0.9c26.3-0.1,52.5-0.1,78.8-0.1c0,0.3,0,0.6,0,1L113.4,403z"/>
<path class="st21" d="M113.4,403l100.4,0c0,0.2,0,0.4,0,0.6l-100.4,0.1v-0.1C113.4,403.4,113.4,403.2,113.4,403z"/>
<path class="st15" d="M113.4,403.7l100.4-0.1v1c-31.8,0-63.6,0-95.4-0.1C116.7,404.4,115,404.1,113.4,403.7z"/>
<path class="st21" d="M213.8,390.7l-100.4,0.2c0-0.2,0-0.4,0-0.6l98.7-0.1l1.6,0.2L213.8,390.7z"/>
<path class="st5" d="M247,364.8l1,0.1c0,0.2,0,0.4,0,0.6L247,364.8z"/>
<path class="st5" d="M246.5,364.7l0.6,0.3C246.9,365,246.6,364.9,246.5,364.7z"/>
<path class="st21" d="M211.5,410.2l2.1,0.6l-0.8,0.5l0.9,1.1l-124.2-0.1c0-0.2,0-0.4,0-0.6c30.1,0,60.2,0.1,90.3-0.1
	c10.5,0,21.1-0.6,31.6-0.9C211.4,410.6,211.4,410.4,211.5,410.2z"/>
<path class="st15" d="M211.4,410.8c-10.5,0.3-21.1,0.9-31.6,0.9c-30.1,0.1-60.2,0.1-90.3,0.1l-3.9-5.6l-0.4-2.7
	c0.1-0.4,0.2-0.9,0.3-1.3h2.4c0,0.2,0,0.5,0,0.7l11.1,0.9l3.1,0.6v-0.8l-0.2-0.3l4-0.3l4.9,1.4l0.8,1v2.3l-22.2-1.5l-0.9,0.5l1,0.3
	c-0.3,0.5-0.5,1-0.8,1.5c-0.1,0.1-0.3,0.2-0.2,0.2c0.1,0.2,0.1,0.4,0.2,0.6c0,0.3,0,0.5,0,0.8c1,0.4,2,0.6,3,0.8
	C131.6,410.9,171.5,410.8,211.4,410.8z M96.9,405.1v-0.4h-5.3v0.4H96.9z"/>
<path class="st19" d="M156.5,383.8l-1.7,0.1h-46.3v0.8h46.4l0.8,0.8l-47.8,0.8l-2.6,0.2l0.2,0.1l-2.3-1.1h-0.8c0-0.2,0-0.5,0-0.8
	l3.6-0.6h-15v0.7h6.6c0,0.2,0,0.3,0.1,0.5l-10.4,1l-0.3-0.3l3.6-5.2h63.6l0.8,1.5H91.2v0.7h63.9L156.5,383.8z"/>
<path class="st14" d="M85.5,402.1c-0.1,0.4-0.2,0.9-0.3,1.3c-0.1-2.6-0.2-5.1-0.3-7.7l1.5-3l1.6-0.2l7.1,0.1c0,0.2,0,0.5,0,0.7h-6.7
	v0.9h11.4c0,0.2,0,0.5,0,0.7H88.4v0.8h12.1l4.9,0c0.2,0.2,0.3,0.5,0.2,0.7l-5.1,0.1H88v0.7h12.5l6.8,0.5l-6.8,0.5l-14.2,0.7
	c0,0.2,0,0.5,0,0.7l-0.8,1.7V402.1z"/>
<path class="st7" d="M153.7,379.8l0.3,0.9H90.4c-0.1-0.1-0.1-0.3-0.1-0.4l60.3-0.6h1.2L153.7,379.8z"/>
<path class="st5" d="M150.6,379.7l-60.3,0.6L150.6,379.7z"/>
<path class="st19" d="M88,392.5l-1.6,0.2c-0.3-0.6-0.6-1.1-0.8-1.7c0.4-1.7,0.8-3.4,1.2-5.1l0.3,0.3c0.3,1.9,0.6,3.8,0.9,5.7
	C88,392.1,88,392.3,88,392.5z"/>
<path class="st12" d="M85.6,391c0.3,0.5,0.6,1.1,0.8,1.7l-1.5,3C85.1,394.1,85.3,392.6,85.6,391z"/>
<path class="st5" d="M153.7,379.8l-1.9,0l1.5-0.6L153.7,379.8z"/>
<path class="st4" d="M152.4,377.3c0.2,0.2,0.3,0.5,0.5,0.7l-1.3-0.5L152.4,377.3z"/>
<path class="st22" d="M139,318.4l27.4-39.1l4.2,2.9c-8.7,11.3-17.4,22.6-26.2,33.8c-1.2,1.3-2.5,2.5-3.9,3.5L139,318.4z"/>
<path class="st7" d="M148.4,326.2l-3-2.1L148.4,326.2z"/>
<path class="st7" d="M145.4,324.1l-2.5-2.4L145.4,324.1z"/>
<path class="st7" d="M139,318.4l1.5,1.1c0,0.2-0.1,0.4-0.1,0.7l-3-2.1L139,318.4z"/>
<path class="st7" d="M141.8,321.3l-1.6-1.1L141.8,321.3z"/>
<path class="st7" d="M133.7,315.2l2.4,1.9L133.7,315.2z"/>
<path class="st7" d="M132.2,314.2l0.9,0.9L132.2,314.2z"/>
<path class="st9" d="M225,340.9l4,14.9l-3.1,0.1l-1.1-2.4c0.2-2.4,0.5-4.8,0.5-5.4l-7.1-10.8c0.1-0.1,0.3-0.1,0.4-0.2l5.6,2.9v-0.2
	c-0.1,0.2-0.1,0.4-0.2,0.6L225,340.9z"/>
<path class="st4" d="M213.8,341.3c-0.2-2.6-0.3-5.3-0.5-7.9l5.4,3.6c-0.2,0-0.3,0.1-0.4,0.2l-3.1-0.6l-0.7,5L213.8,341.3z"/>
<path class="st4" d="M211.2,331.8l0.9,2l-4-3.7l0.1-0.1L211.2,331.8z"/>
<path class="st4" d="M206.2,328.6l1.9,1.4l-0.1,0.1l-2.2-1.1L206.2,328.6z"/>
<path class="st3" d="M205.8,329l2.2,1.1l4,3.7v0.9c-0.5,2-0.9,3.9-1.6,6.9l-10.9-8.9c0.5-2,0.9-3.6,1.4-5.6L205.8,329z"/>
<path class="st9" d="M212.5,345.5c0.1,0.4,0.1,0.9,0.2,1.3C212.6,346.4,212.6,346,212.5,345.5z"/>
<path class="st10" d="M154,370.2c0,0.2,0,0.5,0,0.7l-0.8,0L154,370.2z"/>
<path class="st12" d="M211.4,410.8c-39.9,0-79.9,0.1-119.8,0.1c-1-0.1-2-0.4-3-0.8h15.1l107.7,0.1
	C211.4,410.4,211.4,410.6,211.4,410.8z"/>
<path class="st15" d="M103.8,410.1L103.8,410.1z"/>
<path class="st12" d="M89.5,406.9l-1-0.3l0.9-0.5C89.5,406.4,89.5,406.7,89.5,406.9z"/>
<path class="st12" d="M88.7,409.3c-0.1-0.2-0.2-0.4-0.2-0.6c0-0.1,0.2-0.2,0.2-0.2L88.7,409.3z"/>
<path class="st12" d="M107.7,388.2l-2.6-1.8l2.6-0.2l106,0.1c-33,0.2-66.1,0.5-99.1,0.8C112.3,387.2,110,387.6,107.7,388.2z"/>
<path class="st13" d="M213.7,386.3l-106-0.1l47.8-0.8l58.9,0.8L213.7,386.3z"/>
<path class="st15" d="M212.2,390.2l-98.7,0.1l-1.7-0.9h1.7h1.6c30.7,0,61.5,0,92.2,0.1C208.9,389.6,210.5,389.8,212.2,390.2z"/>
<path class="st12" d="M111.8,389.4l1.7,0.9c0,0.2,0,0.4,0,0.6L111,391l-0.9-1.5L111.8,389.4z"/>
<path class="st12" d="M109.3,390.3l-1.4-1.7l1.4,0.9C109.4,389.7,109.4,390,109.3,390.3z"/>
<path class="st12" d="M115,389.4L115,389.4z"/>
<path class="st4" d="M230.6,364.3l-16-12.9l-0.5-3.2c-0.1-2-0.1-4-0.2-6c0.2,0,0.3,0,0.5,0l10.5,11.2l1.1,2.4l3.1-0.1
	C229.5,358.6,230.1,361.4,230.6,364.3z"/>
<path class="st13" d="M154.8,384.6h-46.4v-0.8h46.3L154.8,384.6z"/>
<path class="st12" d="M85.5,402.1c0-0.3,0-0.5,0-0.8l1-0.1l14.1,0.1c0,0.2,0,0.4,0,0.7l0,0l-12.7,0.1L85.5,402.1z"/>
<path class="st21" d="M99,403.7L88,402.9l12.5,0.3c-0.1,0.2-0.2,0.4-0.3,0.5L99,403.7z"/>
<path class="st13" d="M100.4,403.1L88,402.9c0-0.2,0-0.5,0-0.7l12.7-0.1L100.4,403.1z"/>
<path class="st12" d="M96.9,405.1h-5.3v-0.4h5.3L96.9,405.1z"/>
<path class="st23" d="M100.4,403.1l0.2-1l0,0h5.5L106,403l-4,0.3l0.2,0.3v0.8l-2-0.7C100.3,403.5,100.4,403.3,100.4,403.1z"/>
<path class="st12" d="M100.1,403.6l2,0.7l-3.1-0.6L100.1,403.6z"/>
<path class="st21" d="M102.2,403.6l-0.2-0.3L102.2,403.6z"/>
<path class="st15" d="M103,386h-5.3l3.9,3.2l-0.1,0.1c-0.4,0.8-0.9,1.6-1.3,2.3l-0.4,0.1l-2.1,0.1v0.5h2.1l0.1,0.8l-0.1,0.1
	l-4.8-0.1c0-0.2,0-0.5,0-0.7l-7-0.7c-0.3-1.9-0.6-3.8-0.9-5.7l10.4-1l4.7,0.2h0.8L103,386z M90,388.1l0.8,1.3l10.2-6.5L90,388.1z
	 M95.4,390.8v-0.4H90v0.4H95.4z"/>
<path class="st13" d="M154.8,382.2c0.2,0.2,0.3,0.4,0.3,0.7H91.2v-0.7H154.8z"/>
<path class="st13" d="M97.5,384.7h-6.6V384h15l-3.6,0.6L97.5,384.7z"/>
<path class="st12" d="M97.5,384.7l4.7-0.1c0,0.2,0,0.5,0,0.8l-4.7-0.2C97.5,385,97.5,384.8,97.5,384.7z"/>
<path class="st12" d="M103,386v-0.6l2.3,1.1L103,386z"/>
<path class="st23" d="M106,398.9v0.9l-5.5,0.1H87.1l-0.9-0.2c0-0.2,0-0.5,0-0.7l14.2-0.1L106,398.9z"/>
<path class="st24" d="M100.5,398.9l-14.2,0.1l14.2-0.7C100.6,398.4,100.6,398.6,100.5,398.9z"/>
<path class="st21" d="M100.5,397.3H88v-0.7h12.5C100.6,396.8,100.6,397.1,100.5,397.3z"/>
<path class="st21" d="M100.5,395.7H88.4v-0.8h11.4l0.7,0.2C100.6,395.3,100.6,395.5,100.5,395.7z"/>
<path class="st15" d="M100.5,397.3c0-0.2,0-0.4,0-0.7l5.1-0.1c0.1,0.8,0.3,1.6,0.4,2.4h-5.5c0-0.2,0-0.5,0-0.7l6.8-0.5L100.5,397.3z
	"/>
<path class="st12" d="M95,393.3l4.8,0.1c0,0.3,0,0.5,0,0.8H88.4v-0.9H95z"/>
<path class="st21" d="M88,391.9l7,0.7l-7.1-0.1C88,392.3,88,392.1,88,391.9z"/>
<path class="st15" d="M99.8,394.2c0-0.3,0-0.5,0-0.8l0.1-0.1l4.8,0.1c0.1,0.4,0.2,0.8,0.3,1.2l-4.2,0.2l-0.3,0.2l-0.7-0.2
	C99.8,394.6,99.8,394.4,99.8,394.2z"/>
<path class="st15" d="M100.5,395.7c0-0.2,0-0.4,0-0.6l0.3-0.2l4.2-0.2c0.2,0.4,0.3,0.7,0.4,1.1L100.5,395.7z"/>
<path class="st19" d="M86.3,399.6l0.9,0.2c0,0.2,0,0.4,0,0.5l-0.7,0.8l-1,0.1L86.3,399.6z"/>
<path class="st4" d="M255.7,362.6l1.5,1.1L255.7,362.6z"/>
<path class="st3" d="M224.8,353.4l-10.5-11.2c0-0.2,0.1-0.5,0.1-0.7l0.7-5l3.1,0.6l7.1,10.9C225.3,348.7,225.1,351,224.8,353.4z"/>
<path class="st10" d="M214.5,341.5c0,0.2-0.1,0.5-0.1,0.7c-0.2,0-0.3,0-0.5,0v-0.9L214.5,341.5z"/>
<polygon class="st3" points="229.7,346.9 229.6,346.7 229.8,346.9 "/>
<path class="st15" d="M100.5,399.8l5.5-0.1c0,0.8,0,1.5,0,2.3h-5.5c0-0.2,0-0.4,0-0.7h3.7v-0.8l-3.8-0.2
	C100.5,400.3,100.5,400,100.5,399.8z"/>
<path class="st15" d="M101.6,389.2l2.2,2.5l-3.2,0.1l0.8-2.5L101.6,389.2z"/>
<path class="st23" d="M100.7,391.8l3.2-0.1l0.8,1.6l-4.8-0.1l-0.1-0.8c0.1-0.2,0.1-0.5,0-0.7l0.4-0.1
	C100.3,391.7,100.5,391.8,100.7,391.8z"/>
<path class="st25" d="M105,394.7l-4.2,0.2L105,394.7L105,394.7z"/>
<path class="st14" d="M100.5,400.4l3.8,0.2v0.8h-3.7l-14.1-0.1l0.7-0.8L100.5,400.4z"/>
<path class="st12" d="M90,388.1l11-5.2l-10.2,6.5L90,388.1z"/>
<ellipse class="st12" cx="92.7" cy="390.6" rx="3.8" ry="0.3"/>
<path class="st25" d="M100.7,391.8c-0.2-0.1-0.3-0.1-0.5-0.1c0.4-0.8,0.9-1.6,1.3-2.3L100.7,391.8z"/>
<path class="st20" d="M99.8,391.8c0.1,0.2,0.1,0.5,0,0.7h-2.1v-0.5L99.8,391.8z"/>
<path class="st21" d="M100.5,400.4H87.2c0-0.2,0-0.4,0-0.5h13.3C100.5,400.1,100.5,400.3,100.5,400.4z"/>
<path class="st26" d="M54.8,377.8v-0.1c-0.4-0.1-0.9-0.1-1.3,0h-1.2c-0.4-0.2-0.8-0.2-1.2,0h-1.3c-9.8,13.7-7.9,27.7-1.3,41.9
	l0.6,0.5H52h0.9h0.8l-0.6-0.5c-6.7-14.2-8.5-28.2,1.3-41.9L54.8,377.8z"/>
<path class="st6" d="M82.7,377.8L82.7,377.8l-0.9-0.1c-0.2-0.1-0.4-0.1-0.6-0.1c-0.2,0-0.4,0-0.7,0.1h-1.3
	c-9.8,13.7-7.9,27.7-1.3,41.9l0.6,0.5H82l-0.6-0.5C74.7,405.4,72.8,391.4,82.7,377.8L82.7,377.8z"/>
<path class="st16" d="M218.7,419.6c-0.7-0.2-1.4-0.5-2.1-0.8c-0.3-0.7-0.5-1.4-0.6-2.1c-0.6-3.8-4.9-39,0.7-39h-12.6
	c-16.8,0-33.6,0.3-50.3-0.1c-9-0.2-18.1-0.2-27.1-0.2c-8.3,0-16.5-0.1-24.7,0c-4.1,0-8.2,0.1-12.3,0.1c-0.8-0.1-1.6-0.1-2.4,0.1
	c-0.7,0.4-1.3,1.9-1.7,2.6c-1,1.6-1.8,3.3-2.6,5.1c-2.6,6.5-3.2,13.6-1.7,20.5c1,4.7,2.6,9.3,4.7,13.7l0.6,0.5c0.4,0.3,2.4,0,3,0
	c16.6-0.1,33.2,0,49.8,0c12.5,0,24.9,0.1,37.4,0.1h40.7c0,0,0-0.1-0.1-0.1h1.1C218.5,419.9,218.6,419.8,218.7,419.6z"/>
<path class="st24" d="M217.3,417.3c-0.7-0.9-1.1-1.9-1.3-3c-0.6-3.3-4.8-33.5,0.7-33.5H111.3c-6.8,0-13.6-0.2-20.3-0.2
	c-3.3,0-6,8-6,18s2.7,18,6,18c18.7-0.1,37.4,0.5,56.1,0.5l30.1,0.1L217.3,417.3z"/>
<rect x="86.8" y="385.8" class="st27" width="127.3" height="0.4"/>
<rect x="88.1" y="382.9" class="st27" width="126" height="0.4"/>
<rect x="85.8" y="389.6" class="st27" width="129.1" height="0.4"/>
<rect x="85.2" y="393.2" class="st27" width="128.9" height="0.4"/>
<rect x="85" y="398" class="st27" width="129.1" height="0.4"/>
<rect x="85.1" y="401.9" class="st27" width="129" height="0.4"/>
<rect x="85.6" y="405.9" class="st27" width="128.5" height="0.4"/>
<rect x="86.2" y="409.1" class="st27" width="127.9" height="0.4"/>
<rect x="87.2" y="412.3" class="st27" width="126.9" height="0.4"/>
<path class="st16" d="M105.6,396.5c-0.8-3.1-2.5-5.9-4.9-8c-0.4-0.4-0.9-0.8-1.3-1.1c-0.3-0.2-1.3-1.3-1.6-1.3h5.3
	c0.9,0,1.7,0.3,2.4,0.7c3.8,2.2,5.1,6.3,5.6,10.5c0.1,1.3,0.3,2.6,0.6,3.9c0.1,0.4,0.6,2.4,0.3,2.6l-1,0.7L106,403l0.1-0.9
	C106.2,400.2,106.1,398.3,105.6,396.5z"/>
<polygon class="st9" points="201,327.3 199.6,332.8 292.1,405.1 294.4,389.9 200.8,324 198.4,331.9 "/>
<polygon class="st4" points="198.9,332.7 195.4,336.3 291.2,411.7 292.1,405.1 "/>
<path class="st4" d="M193.8,334.6l0.4-2.7l-7.1-5.6l-9.9-6.3l-1.3,0.9l1.1,2.9l3.4,6.5l3.2,2.4l-0.1,0.1l2.3,1.1l2.2,0.6l5.5,0.8
	C193.7,335.1,193.8,334.9,193.8,334.6z"/>
<path class="st4" d="M105.4,355.9l-31.8-0.1l0.1-2.3l22.2-0.1l61.1,0.1c-0.5,1.3-1,2.6-1.6,3.8L105.4,355.9z"/>
<path class="st4" d="M150.7,356.1c0,0.3,0,0.6,0,0.9l31.3-0.1l-0.1-3.3l-22.1-0.1h-9.3C150.5,354.3,150.6,355.2,150.7,356.1z"/>
<polygon class="st10" points="97.3,350.4 99.3,353.5 158.4,353.7 159.5,351.1 146.1,349.5 96.6,349.4 "/>
<polygon class="st4" points="151.9,350.2 159.5,351.1 181.9,349.5 181.9,349.1 152,349.3 "/>
<rect x="69.4" y="374.4" class="st10" width="117.4" height="3.1"/>
<polygon class="st9" points="191.2,321.6 199.7,321.1 201,324.5 198.2,333.2 195.4,336.3 196.4,332 "/>
<path class="st9" d="M318.7,421.9l0.1-0.1l0.1-0.1c1.4-1.5,2.6-3.3,3.2-5.2c0.8-1.9,1.2-3.9,1.1-6c-0.3-1.9-2.3-3-3.8-4
	c-4.8-3.2-9.5-6.4-14.2-9.6L282,381.1l-17.3-6.9l18.6,23.9c11.7,8,23.2,16.4,35.1,24C318.4,422.1,318.6,422,318.7,421.9z"/>
<path class="st4" d="M303.3,420.8c4.8,1.7,10,2.2,15,1.5l-30.2-20.3l-6.4-1l0.4,3.6l20.4,16C302.8,420.6,303,420.7,303.3,420.8z"/>
<polygon class="st22" points="324.2,198.1 323,211.5 323,213.5 328.5,213.6 326.9,198.1 "/>
<path class="st8" d="M468.8,252.3c0.1,10.2,0.2,20.3,0.4,30.5c-0.2,0.2-0.4,0.3-0.7,0.4h-0.3l-3.3-0.3c-0.4-39.4-0.8-78.8-1.2-118.2
	l3.5-0.2c0.5,28.3,1.1,56.5,1.6,84.8C468.8,250.3,468.8,251.3,468.8,252.3z"/>
<path class="st22" d="M470,139.4l34.1-10.1c16.3-4.9,25.8-21.8,39.9-30.7l14.3-5.2l19.3,1.4c-19.4-2.6-35.8,4.8-49.6,20.8
	c-15.7,18.2-37.1,18.8-56.5,25.5c-0.2-0.1-0.5-0.2-0.7-0.3c-0.2-0.3-0.4-0.6-0.6-0.9C470.2,139.7,470.1,139.5,470,139.4z"/>
<path class="st9" d="M471,151.3c0.2,0.1,0.4,0.2,0.6,0.4c-0.6,2.2-1.3,4.3-1.9,6.5l-17.8-0.2l-1-6.7L471,151.3z"/>
<path class="st28" d="M461.8,121l1.9,0.5c0.4,0.7,0.8,1.4,1.1,2.1l0.1-0.1c-0.7,2.3-1.4,4.7-2.1,7h-6c0.7-3.1,1.3-6.1,2-9.2l1.1-0.3
	c0.1,2,0.2,4,0.3,6.1l1.4-0.1L461.8,121z"/>
<path class="st9" d="M470.6,160.4l-0.1,2.4l-19.1,0.2l-0.6-0.2c0-0.8,0.1-1.5,0.2-2.3L470.6,160.4z"/>
<path class="st7" d="M470.6,160.4l-19.6,0.2c-0.1-0.4-0.1-0.7,0-1.1l0.9-1.3l-0.1-0.1l17.8,0.2L470.6,160.4z"/>
<path class="st7" d="M456.9,130.6h6l4.4-0.9l3.6,3.4l-0.2,0.1l-19.7-0.1h-0.1l4-2.3L456.9,130.6z"/>
<path class="st8" d="M467.3,129.6l-4.4,0.9c0.7-2.4,1.4-4.7,2.1-7C465.7,125.6,466.5,127.6,467.3,129.6z"/>
<path class="st4" d="M451.5,163.1l19.1-0.2l-3.4,1.6l-3.5,0.2l-3.9-0.2c-0.3-0.2-0.6-0.2-0.9-0.1H457l-1,0.1
	c-0.2-0.1-0.4-0.1-0.7-0.1L451.5,163.1z"/>
<path class="st8" d="M456.9,130.6h-2c1.3-3.1,2.7-6.1,4-9.2C458.2,124.4,457.6,127.5,456.9,130.6z"/>
<path class="st22" d="M461.8,121v6.1l-1.4,0.1c-0.1-2-0.2-4-0.3-6.1L461.8,121z"/>
<path class="st2" d="M476.2,257.9l-1.9-1.5L476.2,257.9z"/>
<path class="st8" d="M464.8,123.6c-0.4-0.7-0.8-1.4-1.1-2.1L464.8,123.6z"/>
<path class="st22" d="M599.9,118.4l0.2,0.4l-1,1l-0.5-1.7L599.9,118.4z"/>
<path class="st6" d="M599.9,118.4l-1.3-0.3l0.1-0.1c0-0.4,0-0.8,0.1-1.2l0.3-0.4C599.4,117.1,599.6,117.7,599.9,118.4z"/>
<path class="st29" d="M562.3,288.3c0.3-0.2,0.7-0.1,0.9,0.2L562.3,288.3z"/>
<path class="st30" d="M549.4,322.9c0-0.4,0-0.7,0-1.1c0.1,0.2,0.2,0.5,0.3,0.8C549.7,322.7,549.5,322.8,549.4,322.9z"/>
<path class="st4" d="M421.4,420.5l-5-3.1l0.2-1.1c0.3,0,0.6-0.1,0.8-0.1c9.6,0.4,19.2,1.3,28.9,1.2c20.7-0.3,41.4-1.1,62.1-1.7
	l1.6,0.6l-2.2,3.1l-47.8,0.4L421.4,420.5z"/>
<path class="st9" d="M495.5,385.2l2.8,1.6c-2.1,1.4-4.2,3.9-6.4,3.9c-19,0.3-38,0.2-57,0.2v1.3h57.6c0.3,1.9,0.5,3.3,0.7,4.7h-1.7
	l-59.9-2.4l-0.5-1.3l-2-1.6l-0.8,0.4c0-1.8,0-3.7,0-5.5c0-0.4,0-0.7,0-1.1v-0.1l3.4-0.8h1.6h4.4h5.7l36.2,1.1l5.6-0.1L495.5,385.2z"
	/>
<path class="st9" d="M501.3,398.8c0,0.4-0.1,0.8-0.1,1.2c0,1.2,0,2.4,0,3.6l0,0l-3.9,1v9l-14-0.6l0.2-7.3l5.6-0.8h-58.8l3,7.9
	l-4.9,0.1l-1-6l-2.9-2.6v0l-1.2-2.1c0-0.8,0-1.5,0-2.3l1.2-2l0,0l5.6-0.9L501.3,398.8z"/>
<path class="st9" d="M508.4,415.6c-20.7,0.6-41.4,1.4-62.1,1.7c-9.6,0.1-19.2-0.8-28.9-1.2c0-0.3,0-0.6,0-1l0.5-1.1l0.3,0l0.2-0.2
	l4.9,0.1l3.1,0.9l81.6-0.3C508.3,414.9,508.4,415.3,508.4,415.6z"/>
<path class="st7" d="M501.3,398.8l-71.1-1.6l1-0.7l60.4,0.2h1.7l2.1-0.2L501.3,398.8z"/>
<path class="st7" d="M508.1,414.7l-81.6,0.3c-0.1-0.3-0.2-0.7-0.2-1l1-1.1l1.2,0.2l4.9-0.1h7.6h4.1h8.9l1.1-0.1l28.3,0.1l14,0.6
	l1.3,0.3L508.1,414.7z"/>
<path class="st7" d="M479.6,385.4l-36.2-1.1l3.9-0.5l30.3-1.1l0.5-6.8l0.2-0.3l0.3,0.2C478.9,379,479.2,382.2,479.6,385.4z"/>
<path class="st4" d="M495.3,396.6l-2.1,0.2c-0.2-1.4-0.4-2.8-0.7-4.7H435v-1.3c19,0,38,0.1,57-0.2c2.1,0,4.3-2.5,6.4-3.9
	C503.6,392.7,492.2,391.7,495.3,396.6z"/>
<path class="st7" d="M495.5,385.2l-10.3,0.1C488.6,385.2,492.1,385.2,495.5,385.2z"/>
<path class="st4" d="M498.6,413.9l-1.3-0.3v-9l1.2,0.5L498.6,413.9z"/>
<path class="st5" d="M501.2,403.6c0-1.2,0-2.4,0-3.6C501.2,401.2,501.2,402.4,501.2,403.6z"/>
<path class="st5" d="M498.6,405l-1.2-0.5l3.9-1L498.6,405z"/>
<path class="st4" d="M477.6,382.7l-30.3,1.1l0.5-9.4l2.2,6.7h17.8v-94l4.5-1.7h-15.1l-4.7,3.9c1.8-1.4-3.8-6.3,2-5.9l4.8-0.1h1.1
	l1.3-0.2l3.2-0.4l3.3,0.3h0.4c0.2-0.1,0.5-0.3,0.7-0.4l3.1,0.9l0.6,5.7c-0.1,0.6-0.2,1.1-0.4,2l1.7-0.2l-0.2,0.2l1.6,2.8l0.2,0.2
	l-0.1,0.3C476.3,324,476.9,353.3,477.6,382.7z"/>
<path class="st5" d="M477.6,382.7c-0.6-29.4-1.3-58.8-1.9-88.2l0.9,0.8c0.5,26.9,1,53.8,1.5,80.7L477.6,382.7z"/>
<path class="st5" d="M474.2,291.2l-1.7,0.2c0.2-0.8,0.3-1.4,0.4-2L474.2,291.2z"/>
<path class="st5" d="M475.6,294.1l-1.6-2.8L475.6,294.1z"/>
<path class="st2" d="M606.3,141.3l-0.6-2.2l0.6-0.2c0.2,0.7,0.3,1.4,0.5,2L606.3,141.3z"/>
<path class="st1" d="M601.1,158.4l-0.2,2L601.1,158.4z"/>
<path class="st25" d="M592.4,253.7c-0.1,0.8-0.2,1.6-0.3,2.4C592.2,255.3,592.3,254.5,592.4,253.7z"/>
<path class="st25" d="M609.7,162.8c0.2,0.2,0.4,0.3,0.6,0.5c-0.1,0.3-0.2,0.6-0.4,0.9L609.7,162.8z"/>
<path class="st1" d="M601.6,154.9c0,0.2,0,0.5-0.1,0.7C601.3,155.3,601.4,155,601.6,154.9z"/>
<path class="st25" d="M591.4,265.1c-0.1,0.5-0.2,0.9-0.3,1.4C591.2,266.1,591.3,265.6,591.4,265.1z"/>
<path class="st10" d="M470.5,145.6c0,1.5,0,3.1,0,4.6h-19.4c-0.1-0.9-0.1-1.9-0.2-2.8c0.1-0.6,0.2-1.2,0.3-1.8L470.5,145.6z"/>
<path class="st4" d="M470.5,145.6h-19.3l-1-1c0-0.5,0.1-0.9,0.1-1.4l21.1-0.9C471.1,143.4,470.8,144.5,470.5,145.6z"/>
<path class="st3" d="M471.4,142.3l-21.1,0.9c0.1-0.7,0.1-1.5,0.2-2.2l20.3-0.2c0.2,0.1,0.5,0.2,0.7,0.3
	C471.5,141.5,471.5,141.9,471.4,142.3z"/>
<path class="st7" d="M451.1,150.1h19.4l0.4,1.2h-20.1L451.1,150.1z"/>
<path class="st22" d="M598.7,118l-1.4-1.3h1.5C598.8,117.2,598.7,117.6,598.7,118z"/>
<path class="st9" d="M451,132.9l19.7,0.1c-0.2,2.1-0.5,4.2-0.8,6.3c0.2,0.1,0.2,0.3,0.2,0.5l-18.2-0.2l-1.1-3.6
	C451,135.1,451,134,451,132.9z"/>
<path class="st26" d="M464.9,282.9l-3.2,0.4l-0.9-0.5l-1-118.3l3.9,0.2C464.1,204.1,464.5,243.5,464.9,282.9z"/>
<path class="st10" d="M468.5,283.2h-0.4H468.5z"/>
<path class="st22" d="M450.2,144.5l1,1c-0.1,0.6-0.2,1.2-0.3,1.8L401,158l-2.1-0.7l-20.7-4.7h-22.6l-9.9,2.3
	c0.8-0.8,1.5-1.6,2.3-2.4c18.9-9.7,37.2,0.6,55.8,2.4h6.9l6.3-1.2l4.4-1.1L450.2,144.5z"/>
<path class="st7" d="M452,139.7l18.2,0.2c0.2,0.3,0.4,0.6,0.6,0.9l-20.3,0.2c0.1-0.4,0.3-0.8,0.4-1.2L452,139.7z"/>
<path class="st11" d="M451,159.5c0-0.5-0.1-0.9-0.2-1.4l1.1,0.1L451,159.5z"/>
<path class="st26" d="M457,164.4h1.9c0,39.5,0,78.9,0,118.4l-4-0.1l0.1-1.2l1.8-41.5C456.9,214.8,456.9,189.6,457,164.4z"/>
<path class="st22" d="M459,282.8c0-39.5,0-78.9,0-118.4c0.3-0.1,0.7-0.1,0.9,0.1l1,118.3c-0.2,0.2-0.3,0.4-0.4,0.6h-1.2
	C459.2,283.2,459.1,282.9,459,282.8z"/>
<path class="st6" d="M457,164.4c0,25.2-0.1,50.4-0.1,75.6l-1.9-0.1l-0.2-0.4c0.1-1,0.2-2.1,0.4-3.1v-9c0.1-20.5,0.2-41,0.3-61.4
	l0.4-1.5L457,164.4z"/>
<path class="st8" d="M456,164.5l-0.4,1.5c-0.1-0.5-0.2-1.1-0.3-1.6C455.5,164.4,455.7,164.4,456,164.5z"/>
<path class="st10" d="M416.6,416.3c0-0.3,0-0.6,0-0.9c0.3-0.1,0.6-0.2,0.9-0.2c0,0.3,0,0.6,0,1C417.2,416.2,416.9,416.2,416.6,416.3
	z"/>
<path class="st4" d="M491.5,396.8l-60.4-0.2c0.2-0.7,0.3-1.5,0.5-2.2L491.5,396.8z"/>
<path class="st7" d="M433.3,384.3L433.3,384.3z"/>
<path class="st4" d="M428.3,391.8l-1.8-2.1c0-0.7,0-1.5,0-2.2l0.9-1.2c0.3,0,0.6,0,0.9,0C428.3,388.1,428.3,389.9,428.3,391.8z"/>
<path class="st7" d="M428.3,385.1l3.4-0.8L428.3,385.1z"/>
<path class="st4" d="M431.1,393.1l-2-1.6C429.8,392,430.4,392.5,431.1,393.1z"/>
<path class="st1" d="M428.3,386.3c-0.3,0-0.6,0-0.9,0l0.9-1.1C428.3,385.5,428.3,385.9,428.3,386.3z"/>
<path class="st10" d="M454,413h-8.9H441h-7.6c-1-2.6-2-5.3-3-7.9l53.2,0.8l-0.2,7.3l-28.3-0.1L454,413z"/>
<path class="st4" d="M483.5,405.8l-53.2-0.8h58.8L483.5,405.8z"/>
<path class="st4" d="M427.3,412.8c0-1.9,0.1-3.9,0.1-5.8l1,6L427.3,412.8z"/>
<path class="st21" d="M423.4,400.1l1.2-2L423.4,400.1z"/>
<path class="st21" d="M424.6,404.5l-1.2-2.1L424.6,404.5z"/>
<path class="st10" d="M423.4,414.1l2.9-0.1c0,0.3,0.1,0.7,0.2,1L423.4,414.1z"/>
<path class="st21" d="M417.5,415.2c-0.3,0-0.6,0-0.9,0.2l1.4-1.3L417.5,415.2z"/>
<path class="st9" d="M441,412.9h4.1H441z"/>
<path class="st9" d="M454,413l1.1-0.1L454,413z"/>
<path class="st10" d="M447.7,374.4l0.3-0.1l-1.1-1.8l0.1,0.3l-0.3,0.1l0.2-8.4c0-7.4,0-14.8,0.1-22.2c0.1-0.4,0.3-0.6,0.6-0.6
	l0.4-42.9c1.1-2.7,2.2-5.4,3.3-8.2l1.5-1.2l-0.3,0.2l-0.2-0.3c1.3-1.1,2.6-2.2,4.7-3.9h15.1l-4.5,1.7v94H450L447.7,374.4z"/>
<path class="st10" d="M454.5,283.5c0-0.3,0.2-0.6,0.4-0.8l4,0.1c0.2,0.2,0.3,0.4,0.4,0.6L454.5,283.5z"/>
<path class="st10" d="M460.4,283.4c0.1-0.2,0.2-0.4,0.4-0.6l0.9,0.5L460.4,283.4z"/>
<path class="st11" d="M596.8,219.3c0.3,1.2,0.7,2.3,1,3.5C597.4,221.6,597.1,220.4,596.8,219.3z"/>
<path class="st28" d="M401,158l-2.1-0.7L401,158z"/>
<path class="st28" d="M404.6,167.4l-1.4-0.8L404.6,167.4z"/>
<path class="st8" d="M455.2,227.4L455.2,227.4z"/>
<path class="st8" d="M455,281.5v-41.5l1.9,0.1L455,281.5z"/>
<path class="st4" d="M447,372.5l1.1,1.8L447,372.5z"/>
<path class="st4" d="M447.7,341.6l0.4-42.9L447.7,341.6z"/>
<path class="st4" d="M451.4,290.6l1.5-1.2L451.4,290.6z"/>
<path class="st17" d="M577.6,94.9c-19.4-2.6-35.8,4.8-49.6,20.8c-15.7,18.2-37.1,18.8-56.5,25.5v1.2c-0.3,1.1-0.6,2.2-1,3.3
	c0,1.5,0,3.1,0,4.6l0.4,1.2c0.2,0.1,0.4,0.2,0.6,0.4c1.1,1,9-2.1,10.5-2.4c3.7-0.9,7.3-1.9,10.9-3c7.2-2.1,14.1-5.1,20.6-8.9
	c6.8-4.1,12.9-9.5,17.8-15.8c8.9-11.3,17.5-20.6,31.2-22.7s26.3,5,34.7,17.8h1.5l0.3-0.4C594.5,105.8,587.5,98.3,577.6,94.9z"/>
<path class="st17" d="M345.5,154.8"/>
<polygon class="st17" points="341.6,157.1 341.6,157.1 341.6,157.1 "/>
<path class="st17" d="M450.8,151.4l0.3-1.2c-0.1-0.9-0.1-1.9-0.2-2.8L401,158l-2.1-0.7c-14.8-5-30.9-7-46.2-4.2
	c-9.4,1.8-15,7.7-21.7,15c-5,9.2-7.1,19.2-6.6,30.1l1.8-6.5h-0.1c0.4-1.6,0.8-3.2,1.2-4.8c2.2-9.4,7.2-18,14.4-24.5
	c7.7-7,18.3-8.8,27.8-7.8c10.8,1.1,20,7.4,30.1,11.4c10.5,4.1,20.6,0.4,31-2.4l20.4-5.6l1.1,0.1l-0.1-0.1L450.8,151.4z"/>
<polygon class="st22" points="278.6,349.6 323,211.5 324.7,212.1 281.5,349.4 "/>
<polygon class="st22" points="377.3,349.8 328.5,213.6 326.9,214.3 374.4,349.6 "/>
<polygon class="st22" points="325.3,204.9 309.9,349.6 312.4,349.3 326.5,207.9 "/>
<polygon class="st22" points="326.7,204.9 342.4,349.6 339.8,349.3 325.5,207.9 "/>
<path class="st17" d="M345.6,349.6l1.9-0.2l2-0.1l20.6,0.4c-2,6-4,12-5.9,18l-5.7,0.4l-13.1-0.3L345.6,349.6z"/>
<path class="st8" d="M376,349.4l1.5,0.1c-3.4,7.1-2.8,18.1-13.2,18.3c2-6,4-12,5.9-18L376,349.4z"/>
<path class="st8" d="M283.5,365.5l-1-2.2l-0.3-1.3l-0.5-1c-0.2-0.5-0.3-1-0.5-1.5l-0.6-1c0-0.3,0-0.7-0.1-1l-1.8-7.8l1.2-0.3
	l1.7,0.1l1-0.1l11.9,0.3l4.9,18l-13.7,0.1l-1.6-1.3C283.8,366.1,283.7,365.8,283.5,365.5z"/>
<path class="st17" d="M299.2,367.7c-1.6-6-3.2-12-4.9-18l17-0.3h1.7l6-0.1h2h17.7c0.3,0.1,0.6,0.3,0.9,0.4
	c0.1,6.1,0.1,12.1,0.2,18.2L299.2,367.7z"/>
<path class="st22" d="M339.7,367.8c-0.1-6.1-0.1-12.1-0.2-18.2h6.1l-0.2,18.2L339.7,367.8z"/>
<polygon class="st22" points="551.5,270.1 596,131.9 597.6,132.6 554.4,269.8 "/>
<polygon class="st22" points="650.2,270.2 601.4,134 599.8,134.8 647.3,270.1 "/>
<polygon class="st22" points="598.2,125.3 582.8,270.1 585.3,269.7 599.4,128.3 "/>
<polygon class="st22" points="599.7,125.4 615.3,270.1 612.8,269.7 598.5,128.3 "/>
<polygon class="st22" points="597.1,118.6 596,131.9 596,133.9 601.4,134 599.8,118.6 "/>
<path class="st17" d="M618.6,270.1l1.9-0.2l2-0.1l20.6,0.4c-2,6-4,12-5.9,18l-5.7,0.4l-13.1-0.3
	C618.4,282.2,618.5,276.1,618.6,270.1z"/>
<path class="st8" d="M649,269.8l1.5,0.1c-3.4,7.1-2.8,18.1-13.2,18.3c2-6,4-12,5.9-18L649,269.8z"/>
<path class="st8" d="M556.4,286l-1-2.2l-0.3-1.3l-0.5-1L554,280c-0.2-0.4-0.4-0.7-0.6-1c0-0.3,0-0.7-0.1-1l-1.8-7.8l1.2-0.3l1.7,0.1
	l1-0.1l11.8,0.3l4.9,18l-13.7,0.1l-1.6-1.3C556.7,286.6,556.6,286.3,556.4,286z"/>
<path class="st17" d="M572.2,288.1l-4.9-18l17-0.3h1.7l6-0.1h2h17.7c0.3,0.1,0.6,0.3,0.9,0.4c0.1,6.1,0.1,12.1,0.2,18.2L572.2,288.1
	z"/>
<path class="st22" d="M612.7,288.2c-0.1-6.1-0.1-12.1-0.2-18.2h6.1c-0.1,6.1-0.1,12.1-0.2,18.2L612.7,288.2z"/>
<g>
	<g>
		<path class="st31" d="M115.5,166.8c-0.3,0-0.6-0.1-0.8-0.2c-0.6-0.4-1.3-0.5-2-0.6c-0.4-0.1-0.9-0.2-1.3-0.3
			c-0.2-0.1-0.3-0.1-0.4-0.1c-0.9,0.6-1.9,0.7-2.8,0.7c-0.6,0-1.1,0-1.7,0.1l-1,0.2l0.7-0.8c0.9-1.1,0.6-1.9,0-2.9
			c-0.4-0.5-0.5-1.1-0.7-1.7c-0.4-1.2-0.9-2.1-1.7-3c-0.3-0.3-0.5-0.6-0.7-0.8c-0.3-0.4-0.6-0.8-1-1.1c-1.2-0.9-2.2-1.3-3.3-1.3
			c-0.4,0-0.8,0-1.2,0.1c-0.1,0-0.3,0.1-0.5,0.1c-0.3,0-0.5,0-0.9-0.2l-0.1,0c-0.1,0-0.2-0.1-0.3-0.1c-1,0.7-2.1,0.7-3.1,0.7
			c-0.6,0-1.1,0-1.6,0.1c-0.8,0.2-1.4,0.3-1.9,0.8c-0.5,0.4-1.1,0.9-2,0.9c-0.3,0-0.5,0-0.8-0.1c-0.1,0-0.2-0.1-0.3-0.1
			c-0.2,0-0.5,0.1-0.6,0.3c-0.4,0.4-0.8,0.6-1.2,0.6c-0.4,0-0.7-0.1-1-0.2l-0.2-0.1c-1-0.3-2.1-0.7-3-1c-1.3-0.5-2.7-1-4.1-1.3
			c-0.8-0.2-1.5-0.6-2.3-1.2c-2.4-1.9-4.6-2.8-7-3c-0.2,0-0.6-0.1-0.8-0.3c-0.4-0.3-0.7-0.5-1.1-0.5c-0.4,0-0.8,0.1-1.2,0.4L63,151
			l-0.2-0.1c-1.3-0.6-2.4-1.5-3.6-2.6L59,148c-0.4-0.4-0.8-0.8-1.3-0.8c-0.2,0-0.3,0-0.5,0.1l-0.3,0.1l-0.3-0.4
			c-0.7-1.1-1.2-1.8-2.1-1.8c-0.1,0-0.2,0-0.2,0c0,0,0,0,0,0c-0.3,0-0.5-0.1-0.7-0.3c-0.2-0.3-0.3-0.7-0.3-1.1
			c0.2-1.3-0.2-2.6-0.6-3.9c-0.2-0.6-0.4-1.2-0.5-1.8c0-0.2-0.1-0.3-0.1-0.5c-0.1-0.2-0.1-0.4-0.2-0.6c-0.3-2-0.9-2.6-2.9-3.1
			c-0.7-0.1-1.3-0.4-1.5-1.2c-0.3-1.2-1.2-2-2.1-2.7c-0.3-0.3-0.7-0.6-0.8-1l0-0.1c0,0,0-0.2,0-0.2c0-0.1,0-0.3,0.1-0.4
			c1.5-2.1,1.5-2.1-0.1-4.2c-0.1-0.1-0.1-0.2-0.2-0.2c-0.3-0.3-0.6-0.7-0.7-1.2l0-0.1l0.1-0.1c1-1.7,0.9-3.4-0.2-5.5
			c-0.2-0.4-0.4-0.8-0.7-1.2c-0.6-1.1-1.3-2.3-2.1-3.4c-0.4-0.4-0.4-0.9-0.5-1.4c-0.1-1.4,0.1-2.7,0.4-4.3c0.2-0.9,0.7-1.1,1.1-1.1
			c0.2,0,0.5,0.1,0.8,0.2c0.8,0.4,1.4,1,1.9,1.5c1.4,1.4,2.7,2.7,4.4,3.7c1.4,0.8,2.8,1.3,4.3,1.3c1.5,0,3.2-0.5,4.8-1.4
			c1.1-0.6,2-1.5,3-2.4l0.3-0.2c1.3-1.2,2.3-2.7,3-4.6c0.5-1.5,1.3-3.1,3-4.3c0.6-0.4,0.7-1.1,0.8-2l0-0.4l0.4,0.1
			c0.3,0.1,0.6,0.1,0.9,0.2c0.5,0.1,1,0.3,1.5,0.3c0.4,0,0.8-0.1,1.2-0.4c0.4-0.3,0.9-0.4,1.3-0.5c0.8-0.2,1.4-0.3,1.6-1.2l0.1-0.4
			l0.4,0.1c0.3,0.1,0.7,0.2,1,0.2c0.5,0,0.9-0.1,1.4-0.4c0.4-0.2,0.8-0.4,1.3-0.4c0.5,0,1,0.1,1.4,0.3c1,0.5,2.1,0.7,3.2,0.8
			c1,0.1,1.9,0.3,2.9,0.7l0.2,0c0.1,0,0.3,0,0.4,0.2c0.8,0.8,1.9,1.2,3,1.6c0.7,0.3,1.4,0.5,2.1,0.9c1.1,0.6,2.4,1.3,3.8,1.3
			c0.2,0,0.5,0,0.7-0.1c0.5-0.1,0.9-0.2,1.3-0.4c1.4-0.8,2.8-1.7,4.2-2.7l0.7-0.5c0.3-0.2,0.6-0.6,0.7-1c1.5-4.2,3.2-9.7,2.9-15.6
			l0-0.4c-0.1-1.3-0.1-2.6-1.1-3.5c-0.3-0.3-0.5-0.8-0.4-1.4c0.1-1.7,0-3-0.5-4.1l-0.1-0.3l0.3-0.2c0.3-0.1,0.6-0.2,0.8-0.2
			c0.4,0,0.8,0.2,1.1,0.3c0.1,0,0.2,0.1,0.2,0.1c1.2,0.5,2.3,1.2,3.4,1.9c0.8,0.5,1.6,1,2.4,1.4c0.7,0.4,1.3,0.6,1.9,0.6
			c0.2,0,0.3,0,0.5,0c0.1,0,0.3,0,0.4,0c0.7,0,1.2,0.3,1.8,0.6c1,0.5,2,0.8,3,0.8c1,0,2.1-0.3,3.1-0.9c0.4-0.3,0.8-0.4,1.2-0.4
			c0.3,0,0.5,0,0.8,0.2c0.2,0.1,0.5,0.1,0.7,0.2c0.3,0.1,0.6,0.1,0.9,0.3c1.2,0.5,2.4,0.7,3.6,0.7c0.8,0,1.6-0.1,2.4-0.3
			c0.2-0.1,0.4-0.1,0.6-0.1c0.7,0,1.3,0.3,1.9,0.6c0.4,0.2,0.7,0.3,1.1,0.4c0.1,0,0.3,0.1,0.4,0.1c0.2,0.1,0.5,0.1,0.7,0.1
			c0.1,0,0.2,0,0.4-0.1c0.2-0.1,0.5-0.2,0.7-0.2c0.3,0,0.5,0.1,0.9,0.2c0.2,0.1,0.4,0.2,0.5,0.2c0.4-0.2,0.8-0.2,1.3-0.2
			c0.6,0,1.2,0.2,1.8,0.3c0.4,0.1,0.7,0.2,1.1,0.3c1.2,0.2,2.4,0.4,3.9,0.7c0.9,0.2,1.8,0.2,2.6,0.2c0.3,0,1.5,0,1.9,0l1,0
			c0.9,0,1.7,0,2.6,0c0.9,0,1.7,0,2.6,0h0.1c1.7,0,3.4-0.4,4.9-0.7c0.2-0.1,0.5-0.1,0.7-0.2c0.7-0.2,1.3-0.3,2-0.3
			c1.6,0,3.2-0.4,4.8-1c0.6-0.2,1.2-0.3,1.9-0.3c0.2,0,0.3,0,0.5,0c0.2,0,0.4,0,0.5,0c1,0,1.9-0.2,2.5-0.4c0.1,0,0.2,0,0.3,0
			c0.5,0,0.7,0.4,0.8,0.5c0,0,0,0,0,0.1c1.8-0.5,3.1-1.1,4.2-2.1c0.7-0.6,1.5-1,2.3-1.3c0.5-0.2,0.9-0.4,1.3-0.6
			c1.8-1.1,3.7-1.6,5.9-1.6c0.5,0,1,0,1.6,0.1c0.5,0.1,1,0.1,1.5,0.1c1.3,0,2.6-0.2,3.7-0.6c0.6-0.2,1.3-0.4,1.9-0.6
			c1.8-0.6,3.7-1.3,5.6-1.7c3.3-0.8,6.2-2.3,9.1-3.8c0.8-0.4,1.6-0.9,2.5-1.3c0.6-0.3,1.2-0.6,1.7-0.9c1.1-0.6,2.2-1.2,3.4-1.6
			c1-0.4,1.7-1.2,2.4-2.1c0.2-0.3,0.4-0.5,0.7-0.8c0.2-0.2,0.4-0.4,0.5-0.6c0.4-0.6,0.9-1.1,1.6-1.5c0.5-0.3,0.7-0.9,0.8-1.4l0-0.2
			l0.2-0.1c0.2-0.1,0.5-0.1,0.7-0.1c0.2,0,0.4,0.1,0.6,0.2c0.5,0.3,1.1,0.4,1.8,0.4c0.3,0,0.7,0,1-0.1c0.4,0,0.7-0.1,1.1-0.1
			c0,0,0,0,0,0c0.2,0,0.4-0.1,0.5-0.2c1.1-1,2.4-1.3,3.6-1.5c0.6-0.1,1.2-0.2,1.7-0.4l0.3-0.1c1.2-0.4,2.5-0.9,2.9-2.4l0.1-0.4
			l0.4,0.1c0.2,0,0.3,0.1,0.5,0.1c0.4,0,0.9-0.1,1.3-1.2c0.4-1,1.2-1.3,1.9-1.6l0.3-0.1c1.4-0.6,2.9-0.9,4-1.1
			c0.5-0.1,0.8-0.5,1.2-0.9l0.3-0.3c0.7-0.7,1.4-1,2.1-1c0.4,0,0.7,0.1,1.1,0.2c0.1,0.1,0.3,0.1,0.4,0.1c0.2,0,0.5-0.1,0.8-0.3
			c0.5-0.3,1-0.5,1.4-0.5c0,0,0,0,0,0c1.3,0,1.9-0.6,2.1-1.9l0.1-0.5l0.5,0.2c0.3,0.2,0.6,0.2,0.8,0.2c0.6,0,1.2-0.4,1.8-0.8
			l0.2-0.1c1-0.7,2-1.4,3.3-1.4c0.2,0,0.5,0,0.7,0.1l1.2,0.2l-0.1,0.4c-0.1,0.3-0.2,0.5-0.3,0.8c-0.4,0.9-0.7,1.8-0.7,2.8
			c0,1.5-0.5,1.9-1.9,2.2c-0.2,0.1-0.5,0.1-0.7,0.1c-0.6,0.1-1.2,0.2-1.5,0.7l-0.1,0.2l-0.2,0c-1.7,0.2-3.2,1-4.7,1.9
			c-0.8,0.4-1.6,0.9-2.4,1.2c-2.1,0.9-3.6,2.4-4.4,4.7c-0.5,1.4-1.7,2.4-3.6,3.2c-2.4,1-4.6,2.5-6.5,4.7c-0.8,0.9-1.8,1.6-3.2,2.2
			c-1,0.4-1.9,0.9-2.9,1.3c-2.3,1-4.6,2-6.8,3.3c-3,1.9-6.2,4.2-8.7,7.2c-0.9,1.1-1.5,2.3-1.7,3.4c-0.3,1.7-1.3,2.6-3.1,2.9
			c-0.6,0.1-1.4,0.2-2.1,0.2c-0.7,0-1.4-0.1-2-0.3c-0.4-0.1-0.8-0.2-1.2-0.2c-1.5,0-3.2,0.8-4,2c-0.4,0.6-0.8,1.2-1.2,1.8
			c-0.4,0.7-0.9,1.4-1.4,2.1c-1.3,1.7-1.6,3.9-1.9,6.1l-0.1,0.7c-0.1,0.7,0.2,1.4,0.5,2.1l0.1,0.3c0.2,0.6,0.6,1.5-0.1,2.3
			c0.8,0.4,1.3,1,1.7,1.5l0.2,0.2c0.9,1.3,1.7,2.5,2.9,3.3c0.5,0.3,0.7,0.8,0.8,1.2c0.8,2.1,2.4,3.6,3.8,4.8
			c0.3,0.2,0.5,0.4,0.7,0.6c2,1.4,3.6,3.1,4.9,5.4c0.4,0.6,0.8,1.3,1.3,1.9c0.2,0.3,0.5,0.6,0.7,0.9l0.1,0.1l0,0.1
			c0,0.3-0.2,0.5-0.3,0.7c-0.2,0.3-0.3,0.5-0.1,0.7c0.4,0.5,0.8,0.7,1.3,0.9l0.2,0.1l0,0.2c0.1,0.4,0,0.8-0.1,1
			c-0.1,0.2-0.3,0.2-0.4,0.2h-0.1l-0.1,0c-0.3-0.1-0.6-0.1-1-0.2c-0.5,0-1.1,0-1.6-0.4c-0.6-0.4-1.2-0.7-1.9-1
			c-0.6-0.3-1.3-0.5-1.8-0.9c-0.2-0.1-0.3-0.2-0.6-0.2l-0.1,0c-0.4,0-0.8,0-1.2,0c-1.2,0-2.3-0.2-3.2-0.5c-0.1,0-0.3-0.1-0.4-0.1
			c-0.1,0-0.2,0-0.2,0.1c-0.6,0.8-1.4,0.9-2.1,0.9c-0.2,0-0.3,0-0.5,0c-1.5,0.2-2.6,0.5-3.5,1.7c-0.8,1-2,1.6-3,2.1
			c-0.3,0.1-0.5,0.2-0.8,0.2c-0.3,0-0.6-0.1-0.9-0.2c-0.5-0.2-0.9-0.4-1.2-0.8c-2-2.5-4.8-2.8-8-3c-0.2,0-0.4,0-0.6,0
			c-0.6,0-1.1,0-1.7,0.1c-0.6,0-1.1,0.1-1.7,0.1c0,0,0,0,0,0c-0.2,0-0.4,0-0.6,0c-0.1,0-0.2,0-0.3,0c-1.9,0-3.4,0.7-4.6,1.9
			c-1.3,1.4-2,3.4-1.9,5.6c0,0.8,0,1.6-0.1,2.4c-0.1,0.6-0.1,1.2-0.1,1.8c0,0.9-0.6,1.6-1.2,2.2l-0.2,0.2c-0.9,1-1.4,2.1-1.7,3.2
			l0,0.2l-0.2,0.1c-0.4,0.2-0.7,0.3-1.2,0.3c-0.4,0-0.7-0.1-1-0.1l-0.2,0c-0.3-0.1-0.6-0.1-1-0.1c-0.3,0-0.7,0-1,0l-0.5,0
			c-0.8,0-1.3,0.3-1.7,1c-0.8,1.2-1.9,2-3.4,2.5c-0.1,0-0.2,0.1-0.3,0.1c-0.6,1.1-1.7,1.1-2.6,1.1l-0.4,0c-1.2,0-2.2,0.4-3.1,1.1
			c-1.6,1.2-3.2,2-4.9,2.5l-0.2,0c-0.1,0-0.2,0.1-0.3,0.1c-1.2,1.1-2.7,1.5-4.1,1.9c-0.7,0.2-1.5,0.5-2.2,0.8
			c-0.2,0.1-0.5,0.2-0.8,0.2c-0.3,0-0.6-0.1-0.9-0.2l-0.3-0.1c-0.4-0.1-0.8-0.1-1.1-0.1c-1,0-1.6,0.5-2.2,1.7l-0.1,0.2l-0.2,0
			c-0.4,0.1-0.8,0.1-1.3,0.1c-0.6,0-1.2-0.1-1.7-0.1c-0.3,0-0.5,0-0.8-0.1c-0.8-0.1-1.6-0.1-2.4-0.2c-1.5-0.1-3-0.3-4.4-0.3l-0.3,0
			c-3.6,0-7,1.2-10.3,3.7c-0.3,0.2-0.5,0.4-0.7,0.6c-0.3,0.3-0.7,0.6-1.1,0.8c-1.3,0.9-2.2,2.3-2.4,3.8c-0.2,1.5,0.2,3.1,1.3,4.3
			c0.2,0.2,1,1.1,1,1.1c0.3,0.4,0.8,0.9,0.4,1.6C116.1,166.6,115.8,166.8,115.5,166.8z"/>
		<path d="M267.1,38.2c0.2,0,0.4,0,0.6,0.1c0.2,0.1,0.5,0.1,0.7,0.2c-0.4,1.2-1,2.4-1,3.7c0,1.3-0.3,1.5-1.6,1.9
			c-0.9,0.2-1.9,0.1-2.4,1c-2.7,0.3-4.8,2.1-7.3,3.1c-2.2,1-3.8,2.6-4.6,4.9c-0.6,1.5-2,2.4-3.3,2.9c-2.7,1-4.8,2.7-6.7,4.8
			c-0.8,1-1.9,1.6-3,2.1c-3.3,1.5-6.7,2.7-9.7,4.6c-3.2,2.1-6.3,4.3-8.8,7.3c-0.9,1.1-1.5,2.3-1.8,3.6c-0.3,1.6-1.3,2.3-2.7,2.6
			c-0.7,0.1-1.4,0.2-2,0.2c-0.6,0-1.2-0.1-1.8-0.3c-0.4-0.2-0.9-0.2-1.4-0.2c-1.7,0-3.4,0.9-4.3,2.1c-0.9,1.3-1.6,2.7-2.6,3.9
			c-1.5,2-1.7,4.6-2,7c-0.1,0.9,0.3,1.7,0.6,2.5c0.3,0.9,0.6,1.7-0.6,2.3c1.1,0.2,1.7,0.8,2.2,1.6c0.9,1.3,1.8,2.7,3.2,3.7
			c0.4,0.3,0.5,0.7,0.7,1.1c0.8,2,2.3,3.6,3.9,4.9c0.3,0.2,0.5,0.4,0.8,0.6c2,1.4,3.6,3.1,4.8,5.2c0.6,1,1.3,1.9,2.1,2.9
			c0,0.5-0.9,0.9-0.3,1.7c0.4,0.6,1,0.8,1.4,1c0.1,0.4-0.1,0.8-0.2,0.8c0,0,0,0,0,0c-0.8-0.3-1.7,0-2.5-0.5
			c-1.1-0.8-2.6-1.1-3.7-1.9c-0.2-0.2-0.5-0.2-0.8-0.2c-0.1,0-0.1,0-0.2,0c-0.4,0-0.8,0-1.2,0c-1.1,0-2.1-0.1-3.1-0.4
			c-0.2-0.1-0.4-0.1-0.5-0.1c-0.2,0-0.4,0.1-0.5,0.2c-0.6,0.9-1.5,0.7-2.4,0.8c-1.5,0.2-2.8,0.5-3.8,1.9c-0.7,0.9-1.8,1.5-2.9,2
			c-0.2,0.1-0.4,0.1-0.6,0.1c-0.3,0-0.5-0.1-0.8-0.2c-0.4-0.2-0.8-0.4-1.1-0.7c-2.1-2.7-5.2-3-8.2-3.1c-0.2,0-0.4,0-0.6,0
			c-1.1,0-2.3,0.1-3.4,0.1c-0.2,0-0.4,0-0.5,0c-0.1,0-0.2,0-0.3,0c-4.5,0-7.1,3.7-6.8,7.8c0.1,1.4-0.3,2.8-0.3,4.2
			c0,0.9-0.7,1.6-1.3,2.2c-0.9,1-1.5,2.1-1.7,3.3c-0.3,0.2-0.7,0.2-1,0.2c-0.4,0-0.8-0.1-1.2-0.2c-0.4-0.1-0.7-0.1-1.1-0.1
			c-0.5,0-1,0-1.5,0.1c-0.9,0-1.5,0.4-2,1.1c-0.7,1.2-1.8,1.9-3.2,2.3c-0.2,0-0.4,0.1-0.4,0.2c-0.5,1-1.4,1-2.3,1c0,0,0,0,0,0
			c-0.1,0-0.2,0-0.4,0c-1.2,0-2.4,0.4-3.3,1.1c-1.5,1.1-3,1.9-4.8,2.4c-0.2,0.1-0.5,0.1-0.6,0.2c-1.8,1.6-4.2,1.7-6.2,2.6
			c-0.2,0.1-0.4,0.1-0.6,0.1c-0.4,0-0.8-0.1-1.1-0.2c-0.4-0.1-0.8-0.2-1.2-0.2c-1.1,0-1.9,0.6-2.5,2c-0.4,0.1-0.8,0.1-1.2,0.1
			c-0.8,0-1.7-0.1-2.5-0.2c-2.3-0.2-4.6-0.4-6.8-0.5c-0.1,0-0.2,0-0.3,0c-3.9,0-7.4,1.4-10.5,3.8c-0.6,0.5-1.1,1-1.8,1.4
			c-2.9,2-3.5,5.9-1.2,8.7c0.3,0.4,0.6,0.7,1,1.1c0.3,0.3,0.6,0.7,0.3,1.2c-0.2,0.3-0.4,0.3-0.6,0.3c-0.2,0-0.4-0.1-0.6-0.2
			c-1.1-0.6-2.3-0.6-3.4-1c-0.2-0.1-0.4-0.1-0.5-0.1c-0.1,0-0.2,0-0.3,0.1c-1.3,0.9-2.7,0.4-4.3,0.7c1-1.2,0.7-2.3,0-3.3
			c-0.3-0.5-0.5-1.1-0.7-1.6c-0.4-1.2-1-2.2-1.8-3.1c-0.6-0.6-1-1.4-1.7-2c-1.1-0.9-2.3-1.4-3.5-1.4c-0.4,0-0.8,0.1-1.3,0.2
			c-0.1,0-0.2,0-0.4,0c-0.3,0-0.5-0.1-0.8-0.1c-0.2-0.1-0.4-0.1-0.5-0.1c-0.1,0-0.2,0-0.2,0.1c-1.4,1-3,0.4-4.6,0.8
			c-0.8,0.2-1.4,0.3-2.1,0.9c-0.5,0.4-1.1,0.8-1.7,0.8c-0.2,0-0.4,0-0.7-0.1c-0.2-0.1-0.3-0.1-0.5-0.1c-0.3,0-0.7,0.1-0.9,0.4
			c-0.3,0.3-0.6,0.4-1,0.4c-0.4,0-0.8-0.1-1.1-0.3c-2.4-0.7-4.7-1.7-7.1-2.3c-0.8-0.2-1.5-0.6-2.2-1.1c-2.1-1.7-4.5-2.9-7.2-3.1
			c-0.2,0-0.5-0.1-0.6-0.2c-0.5-0.4-0.9-0.6-1.4-0.6c-0.5,0-0.9,0.2-1.4,0.5c-1.4-0.7-2.5-1.6-3.5-2.6c-0.6-0.5-1.1-1.2-1.8-1.2
			c-0.2,0-0.4,0-0.6,0.1c-0.7-1.1-1.3-2.1-2.6-2.1c-0.1,0-0.2,0-0.3,0c0,0,0,0,0,0c-0.4,0-0.6-0.5-0.6-1c0.3-2.1-0.7-3.9-1.1-5.8
			c-0.1-0.4-0.2-0.7-0.3-1.1c-0.3-2.2-1-2.9-3.2-3.4c-0.6-0.1-1.1-0.3-1.2-0.9c-0.3-1.3-1.3-2.1-2.2-2.9c-0.3-0.2-0.6-0.5-0.7-0.8
			c0-0.1,0-0.3,0-0.4c1.6-2.2,1.6-2.5-0.1-4.7c-0.3-0.4-0.7-0.7-0.8-1.3c1.1-1.9,0.9-3.9-0.2-5.8c-0.9-1.6-1.7-3.2-2.8-4.6
			c-0.3-0.4-0.4-0.8-0.4-1.2c-0.1-1.4,0.1-2.8,0.4-4.2c0.1-0.5,0.3-0.8,0.7-0.8c0.2,0,0.4,0.1,0.6,0.2c0.7,0.3,1.3,0.8,1.8,1.4
			c1.4,1.4,2.8,2.8,4.5,3.8c1.5,0.9,3,1.3,4.5,1.3c1.7,0,3.3-0.5,5-1.5c1.2-0.7,2.3-1.7,3.3-2.6c1.4-1.3,2.4-2.9,3.1-4.8
			c0.6-1.6,1.4-3.1,2.8-4.1c0.7-0.5,0.9-1.3,0.9-2.3c0.8,0.2,1.6,0.5,2.4,0.5c0.5,0,0.9-0.1,1.4-0.4c1-0.7,2.6-0.2,3.1-1.8
			c0.4,0.1,0.8,0.2,1.1,0.2c0.5,0,1.1-0.2,1.6-0.5c0.4-0.2,0.7-0.3,1.1-0.3c0.4,0,0.9,0.1,1.2,0.3c1.9,1,4.2,0.7,6.1,1.5
			c0,0,0.1,0,0.2,0c0,0,0.1,0,0.1,0c0.1,0,0.1,0,0.2,0c1.4,1.4,3.5,1.6,5.2,2.6c1.2,0.7,2.5,1.4,4,1.4c0.2,0,0.5,0,0.7-0.1
			c0.5-0.1,1-0.2,1.4-0.4c1.7-0.9,3.3-2.1,4.9-3.2c0.4-0.3,0.7-0.7,0.9-1.2c1.8-5.1,3.2-10.3,2.9-15.8c-0.1-1.5,0-3-1.2-4.1
			c-0.3-0.3-0.4-0.7-0.3-1.1c0.1-1.5,0-2.9-0.5-4.3c0.2-0.1,0.5-0.2,0.7-0.2c0.4,0,0.8,0.2,1.2,0.4c2.1,0.9,3.8,2.3,5.8,3.3
			c0.7,0.4,1.3,0.6,2.1,0.6c0.2,0,0.4,0,0.6-0.1c0.1,0,0.2,0,0.4,0c0.6,0,1.1,0.3,1.7,0.6c1,0.5,2.1,0.8,3.1,0.8
			c1.1,0,2.2-0.3,3.3-1c0.4-0.2,0.7-0.3,1-0.3c0.2,0,0.4,0,0.7,0.1c0.5,0.2,1.1,0.3,1.6,0.5c1.2,0.5,2.5,0.7,3.7,0.7
			c0.8,0,1.7-0.1,2.5-0.3c0.2,0,0.4-0.1,0.5-0.1c1,0,1.9,0.7,2.8,1c0.4,0.1,0.8,0.3,1.2,0.3c0.2,0,0.3,0,0.5-0.1
			c0.2-0.1,0.4-0.1,0.5-0.1c0.2,0,0.5,0.1,0.7,0.2c0.2,0.1,0.5,0.2,0.7,0.2c0,0,0.1,0,0.1,0c0.4-0.2,0.8-0.2,1.1-0.2
			c1,0,1.9,0.4,2.8,0.6c1.3,0.2,2.6,0.5,3.8,0.7c0.9,0.2,1.8,0.2,2.7,0.2c0.6,0,1.2,0,1.9,0c0.1,0,0.2,0,0.3,0c0.2,0,0.4,0,0.6,0
			c1.7,0,3.4-0.1,5.1-0.1c0,0,0.1,0,0.1,0c0,0,0,0,0,0c1.7,0,3.3-0.3,5-0.7c0.9-0.2,1.8-0.5,2.7-0.5c1.7-0.1,3.3-0.4,4.9-1
			c0.6-0.2,1.1-0.3,1.7-0.3c0.2,0,0.3,0,0.5,0c0.2,0,0.4,0,0.6,0c0.9,0,1.9-0.2,2.6-0.5c0.1,0,0.1,0,0.2,0c0.5,0,0.4,0.5,0.8,0.6
			c1.6-0.4,3.2-1,4.5-2.2c1-0.9,2.4-1.3,3.6-1.9c1.8-1,3.7-1.5,5.7-1.5c0.5,0,1,0,1.5,0.1c0.5,0.1,1,0.1,1.6,0.1
			c1.3,0,2.6-0.2,3.9-0.6c2.5-0.8,4.9-1.8,7.5-2.3c4.2-1,7.8-3.2,11.6-5.1c1.7-0.8,3.3-1.8,5.1-2.5c1.4-0.6,2.2-1.9,3.2-2.9
			c0.7-0.7,1.2-1.6,2-2.1c0.6-0.4,0.8-1.1,0.9-1.7c0.2-0.1,0.4-0.1,0.5-0.1c0.2,0,0.3,0,0.4,0.1c0.6,0.4,1.3,0.5,2,0.5
			c0.7,0,1.4-0.1,2.1-0.1c0,0,0,0,0.1,0c0,0,0,0,0,0c0.2,0,0.5-0.1,0.7-0.3c1.5-1.4,3.5-1.3,5.2-1.9c1.3-0.5,2.9-0.9,3.4-2.7
			c0.2,0.1,0.4,0.1,0.6,0.1c0.8,0,1.4-0.6,1.7-1.4c0.4-1,1.1-1.2,2-1.5c1.3-0.6,2.6-0.8,4-1.1c0.7-0.1,1.2-0.8,1.7-1.3
			c0.6-0.6,1.2-0.9,1.8-0.9c0.3,0,0.6,0.1,1,0.2c0.2,0.1,0.4,0.1,0.6,0.1c0.3,0,0.7-0.1,1-0.3c0.4-0.2,0.8-0.4,1.2-0.4c0,0,0,0,0,0
			c0,0,0,0,0,0c1.4,0,2.2-0.7,2.4-2.2c0.4,0.2,0.7,0.3,1,0.3c0.8,0,1.5-0.5,2.1-1C264.9,38.8,265.9,38.2,267.1,38.2 M267.1,37.4
			L267.1,37.4c-1.4,0-2.6,0.7-3.6,1.4l-0.2,0.1c-0.5,0.4-1,0.8-1.5,0.8c-0.2,0-0.4-0.1-0.7-0.2l-0.9-0.5l-0.2,1
			c-0.2,1.3-0.8,1.6-1.6,1.6l-0.1,0c-0.5,0-1,0.2-1.6,0.5c-0.2,0.1-0.4,0.2-0.6,0.2c-0.1,0-0.2,0-0.3-0.1c-0.4-0.2-0.8-0.3-1.3-0.3
			c-0.8,0-1.6,0.4-2.4,1.1c-0.1,0.1-0.2,0.2-0.3,0.3c-0.3,0.4-0.7,0.7-1,0.8c-1.2,0.2-2.6,0.5-4.1,1.1l-0.3,0.1
			c-0.8,0.3-1.7,0.7-2.2,1.8c-0.4,0.9-0.8,0.9-1,0.9c-0.1,0-0.2,0-0.4-0.1l-0.7-0.2l-0.2,0.7c-0.4,1.3-1.5,1.7-2.7,2.1l-0.3,0.1
			c-0.5,0.2-1.1,0.3-1.7,0.4c-1.3,0.3-2.6,0.6-3.8,1.6c0,0-0.2,0.1-0.2,0.1l-0.1,0c-0.4,0-0.8,0-1.1,0.1c-0.4,0-0.7,0.1-1,0.1
			c-0.7,0-1.2-0.1-1.6-0.4c-0.2-0.1-0.5-0.2-0.8-0.2c-0.2,0-0.5,0-0.8,0.2l-0.4,0.1l-0.1,0.4c-0.1,0.6-0.3,1-0.6,1.2
			c-0.7,0.4-1.2,1-1.7,1.6c-0.2,0.2-0.3,0.4-0.5,0.6c-0.2,0.2-0.4,0.5-0.7,0.8c-0.7,0.8-1.4,1.6-2.3,2c-1.2,0.5-2.3,1.1-3.4,1.7
			c-0.6,0.3-1.1,0.6-1.7,0.9c-0.8,0.4-1.6,0.8-2.5,1.3c-2.8,1.5-5.8,3-9,3.8c-1.9,0.4-3.8,1.1-5.6,1.7c-0.6,0.2-1.3,0.4-1.9,0.6
			c-1.1,0.4-2.3,0.6-3.6,0.6c-0.5,0-1,0-1.5-0.1c-0.5-0.1-1.1-0.1-1.6-0.1c-2.2,0-4.2,0.5-6,1.6c-0.4,0.2-0.8,0.4-1.3,0.6
			c-0.8,0.4-1.7,0.7-2.4,1.4c-1,0.9-2.1,1.5-3.8,1.9c-0.2-0.2-0.4-0.6-1-0.6c-0.1,0-0.2,0-0.3,0l-0.1,0l-0.1,0
			c-0.8,0.3-1.6,0.4-2.4,0.4c-0.2,0-0.3,0-0.5,0c-0.2,0-0.4,0-0.6,0c-0.7,0-1.4,0.1-2,0.4c-1.6,0.6-3.1,0.9-4.7,1
			c-0.7,0-1.4,0.2-2.1,0.4c-0.2,0.1-0.5,0.1-0.7,0.2c-1.5,0.3-3.2,0.7-4.8,0.7l-0.1,0c-0.9,0-1.7,0-2.6,0c-0.8,0-1.7,0-2.5,0
			c-0.2,0-0.4,0-0.6,0l-0.3,0c-0.3,0-0.6,0-0.9,0c-0.3,0-0.6,0-0.9,0c-0.8,0-1.7,0-2.5-0.2c-1.2-0.3-2.6-0.5-3.9-0.7
			c-0.3-0.1-0.7-0.1-1-0.2c-0.6-0.2-1.2-0.3-1.9-0.3c-0.5,0-0.9,0.1-1.3,0.2c-0.1,0-0.2-0.1-0.2-0.1l-0.1,0c-0.4-0.2-0.7-0.2-1-0.2
			c-0.3,0-0.6,0.1-0.9,0.2c-0.1,0-0.1,0-0.2,0c-0.1,0-0.3-0.1-0.6-0.1c-0.1,0-0.3-0.1-0.4-0.1c-0.3-0.1-0.6-0.2-1-0.4
			c-0.6-0.3-1.2-0.6-2-0.6c-0.2,0-0.5,0-0.7,0.1c-0.8,0.2-1.5,0.3-2.3,0.3c-1.2,0-2.3-0.2-3.5-0.7c-0.3-0.1-0.6-0.2-0.9-0.3
			c-0.2-0.1-0.5-0.1-0.7-0.2c-0.3-0.1-0.6-0.2-0.9-0.2c-0.5,0-0.9,0.1-1.4,0.4c-1,0.6-1.9,0.9-2.9,0.9c-0.9,0-1.8-0.2-2.7-0.7
			l-0.1,0c-0.6-0.3-1.2-0.6-1.9-0.6c-0.2,0-0.3,0-0.5,0.1c-0.1,0-0.3,0-0.4,0c-0.5,0-1.1-0.2-1.7-0.6c-0.8-0.4-1.6-0.9-2.4-1.4
			c-1.1-0.7-2.2-1.4-3.5-1.9c-0.1,0-0.2-0.1-0.2-0.1c-0.3-0.2-0.7-0.4-1.2-0.4c-0.3,0-0.7,0.1-1,0.3l-0.6,0.3l0.2,0.6
			c0.4,1.1,0.5,2.4,0.4,4c0,0.7,0.2,1.3,0.6,1.7c0.9,0.8,0.9,2,1,3.2l0,0.4c0.3,5.9-1.4,11.4-2.9,15.5c-0.1,0.3-0.3,0.6-0.6,0.8
			l-0.7,0.5c-1.3,0.9-2.7,1.9-4.1,2.6c-0.3,0.2-0.7,0.3-1.1,0.3c-0.2,0-0.4,0-0.6,0c-1.3,0-2.6-0.7-3.6-1.3c-0.7-0.4-1.4-0.7-2.2-1
			c-1.1-0.4-2.1-0.8-2.8-1.5c-0.3-0.3-0.6-0.3-0.7-0.3l-0.1,0l0,0c-1-0.4-1.9-0.5-2.9-0.7c-1.1-0.2-2.2-0.3-3.1-0.8
			c-0.5-0.3-1-0.4-1.6-0.4c-0.5,0-1.1,0.1-1.5,0.4c-0.4,0.2-0.8,0.4-1.2,0.4c-0.3,0-0.6-0.1-0.9-0.2l-0.7-0.3l-0.2,0.8
			c-0.2,0.6-0.5,0.7-1.3,0.9c-0.5,0.1-1,0.2-1.4,0.5c-0.3,0.2-0.6,0.3-1,0.3c-0.4,0-0.9-0.1-1.4-0.2c-0.3-0.1-0.6-0.2-0.9-0.2
			l-0.8-0.2l-0.1,0.8c-0.1,1-0.2,1.5-0.6,1.8c-1.7,1.2-2.6,3-3.1,4.4c-0.7,1.9-1.6,3.3-2.9,4.5l-0.3,0.2c-0.9,0.8-1.9,1.7-2.9,2.3
			c-1.6,0.9-3.1,1.4-4.6,1.4c-1.4,0-2.8-0.4-4.1-1.2c-1.6-1-3-2.3-4.3-3.7c-0.5-0.5-1.2-1.1-2-1.5c-0.3-0.2-0.7-0.3-1-0.3
			c-0.3,0-1.2,0.1-1.4,1.4c-0.3,1.6-0.5,3-0.4,4.4c0,0.5,0.1,1.1,0.6,1.6c0.8,1,1.4,2.1,2.1,3.3c0.2,0.4,0.4,0.8,0.7,1.2
			c1.1,1.9,1.2,3.5,0.2,5.1l-0.1,0.2l0.1,0.3c0.1,0.7,0.5,1.1,0.8,1.4c0.1,0.1,0.1,0.1,0.2,0.2c1.5,1.9,1.5,1.9,0.1,3.7
			c-0.2,0.2-0.2,0.5-0.2,0.6c0,0,0,0,0,0.1l0,0.2l0,0.2c0.2,0.5,0.6,0.9,0.9,1.1l0.1,0c1,0.8,1.7,1.5,2,2.5c0.3,1.1,1.3,1.3,1.8,1.4
			c1.9,0.4,2.3,0.9,2.6,2.8c0,0.3,0.1,0.5,0.2,0.7c0,0.1,0.1,0.3,0.1,0.4c0.1,0.6,0.3,1.2,0.5,1.8c0.4,1.3,0.7,2.5,0.6,3.7
			c-0.1,0.5,0.1,1.1,0.4,1.4c0.2,0.3,0.6,0.4,0.9,0.4h0l0.1,0c0.1,0,0.1,0,0.2,0c0.8,0,1.2,0.5,1.8,1.6l0.1,0.1l0.3,0.6l0.6-0.3
			c0.1-0.1,0.2-0.1,0.3-0.1c0.3,0,0.7,0.3,1,0.7c0.1,0.1,0.2,0.2,0.3,0.3c1.2,1.2,2.4,2,3.7,2.7l0.4,0.2l0.4-0.2
			c0.4-0.2,0.7-0.3,1-0.3c0.3,0,0.6,0.1,0.9,0.4c0.3,0.3,0.7,0.3,1,0.4c2.3,0.2,4.5,1.1,6.8,2.9c0.8,0.7,1.6,1.1,2.4,1.3
			c1.4,0.3,2.7,0.8,4,1.3c1,0.4,2,0.7,3.1,1l0.2,0.1c0.4,0.1,0.7,0.2,1.2,0.2c0.6,0,1.1-0.2,1.5-0.7c0.1-0.1,0.2-0.2,0.4-0.2
			c0.1,0,0.1,0,0.2,0c0.3,0.1,0.6,0.2,0.9,0.2c1,0,1.7-0.6,2.2-1c0.5-0.4,1-0.5,1.7-0.7c0.5-0.1,1-0.1,1.5-0.1c1,0,2.1,0,3.2-0.7
			c0,0,0.1,0,0.1,0c0.1,0,0.1,0,0.2,0.1c0.4,0.1,0.7,0.2,1,0.2c0.2,0,0.4,0,0.6-0.1c0.4-0.1,0.7-0.1,1.1-0.1c1,0,2,0.4,3.1,1.2
			c0.4,0.3,0.6,0.7,0.9,1c0.2,0.3,0.4,0.6,0.7,0.9c0.8,0.8,1.3,1.7,1.6,2.8c0.2,0.6,0.4,1.3,0.8,1.8c0.7,1,0.7,1.6,0,2.4l-1.3,1.7
			l2.1-0.5c0.5-0.1,1.1-0.1,1.6-0.1c1,0,1.9,0,2.9-0.7c0.1,0,0.1,0,0.2,0.1l0.1,0c0.5,0.1,0.9,0.2,1.4,0.3c0.7,0.1,1.3,0.2,1.9,0.6
			c0.3,0.2,0.7,0.3,1,0.3c0.5,0,0.9-0.2,1.2-0.7c0.6-0.9-0.1-1.6-0.4-2l-0.3-0.4c-0.2-0.2-0.4-0.5-0.6-0.7c-1-1.2-1.4-2.6-1.2-4
			c0.2-1.4,1-2.7,2.2-3.5c0.4-0.3,0.8-0.6,1.1-0.9c0.2-0.2,0.5-0.4,0.7-0.6c3.2-2.5,6.5-3.7,10.1-3.7c0.1,0,0.2,0,0.3,0
			c1.5,0,3,0.2,4.4,0.3c0.8,0.1,1.6,0.1,2.4,0.2c0.3,0,0.5,0,0.8,0.1c0.6,0.1,1.2,0.1,1.8,0.1c0.5,0,0.9,0,1.3-0.1l0.4-0.1l0.2-0.3
			c0.6-1.3,1.2-1.5,1.9-1.5c0.3,0,0.6,0,1,0.1c0.1,0,0.2,0,0.3,0.1c0.3,0.1,0.7,0.2,1,0.2c0.3,0,0.6-0.1,0.9-0.2
			c0.7-0.3,1.4-0.5,2.2-0.8c1.4-0.4,2.9-0.9,4.2-2c0,0,0.1,0,0.2,0c0.1,0,0.1,0,0.2,0c1.7-0.5,3.4-1.3,5-2.6c0.9-0.6,1.8-1,2.9-1
			c0.1,0,0.2,0,0.3,0c0.9,0,2.2,0,2.9-1.2c0,0,0,0,0,0l0.1,0c1.6-0.5,2.8-1.4,3.6-2.7c0.3-0.5,0.7-0.7,1.4-0.8c0.2,0,0.3,0,0.5,0
			c0.3,0,0.7,0,1,0c0.4,0,0.7,0,1,0.1l0.2,0c0.3,0.1,0.7,0.1,1.1,0.1c0.5,0,0.9-0.1,1.3-0.3l0.3-0.2l0.1-0.4c0.2-1,0.7-2,1.6-3
			l0.2-0.2c0.6-0.6,1.3-1.4,1.3-2.5c0-0.6,0.1-1.2,0.1-1.8c0.1-0.8,0.2-1.6,0.1-2.5c-0.1-2.1,0.5-4,1.7-5.3c1.1-1.2,2.6-1.8,4.3-1.8
			c0.1,0,0.2,0,0.3,0c0.2,0,0.4,0,0.6,0c0.6,0,1.2,0,1.7-0.1c0.5,0,1.1-0.1,1.7-0.1c0.2,0,0.4,0,0.6,0c3.2,0.1,5.8,0.4,7.7,2.8
			c0.4,0.5,0.9,0.7,1.4,0.9c0.4,0.2,0.7,0.2,1.1,0.2c0.3,0,0.7-0.1,1-0.2c1.1-0.5,2.4-1.2,3.2-2.3c0.8-1.1,1.9-1.4,3.3-1.6
			c0.2,0,0.3,0,0.5,0c0.7,0,1.7-0.1,2.4-1c0.1,0,0.1,0,0.3,0.1c1,0.3,2.1,0.5,3.4,0.5c0.4,0,0.8,0,1.2,0c0,0,0.1,0,0.1,0
			c0.2,0,0.3,0,0.4,0.1c0.6,0.4,1.3,0.7,1.9,1c0.7,0.3,1.3,0.6,1.8,0.9c0.6,0.4,1.2,0.5,1.8,0.5c0.3,0,0.6,0,0.8,0.1l0.1,0.1l0.2,0
			c0.3,0,0.6-0.1,0.7-0.4c0.3-0.4,0.3-0.9,0.2-1.3l-0.1-0.3l-0.3-0.1c-0.5-0.2-0.8-0.4-1.1-0.8c0-0.1-0.1-0.1-0.1-0.1
			c0,0,0.1-0.1,0.1-0.2c0.1-0.2,0.3-0.5,0.3-0.9l0-0.2l-0.1-0.2c-0.2-0.3-0.5-0.6-0.7-1c-0.5-0.6-0.9-1.2-1.3-1.9
			c-1.3-2.3-3-4.1-5-5.5c-0.2-0.1-0.4-0.3-0.6-0.5l-0.1-0.1c-1.4-1.2-2.9-2.6-3.7-4.6c-0.2-0.5-0.4-1-1-1.4c-1.2-0.8-2-2-2.9-3.2
			l-0.2-0.2c-0.4-0.5-0.8-1.1-1.4-1.4c0.5-0.8,0.1-1.8-0.1-2.3l-0.1-0.3c-0.3-0.7-0.5-1.3-0.4-1.9l0.1-0.7c0.3-2.2,0.5-4.2,1.8-5.9
			c0.5-0.7,1-1.4,1.4-2.2c0.4-0.6,0.8-1.2,1.2-1.8c0.8-1.1,2.3-1.8,3.7-1.8c0.4,0,0.8,0.1,1.1,0.2c0.6,0.2,1.3,0.4,2.1,0.4
			c0.8,0,1.5-0.1,2.2-0.2c2-0.3,3.1-1.4,3.4-3.2c0.2-1.1,0.7-2.2,1.6-3.3c2.5-3,5.6-5.2,8.6-7.1c2.1-1.3,4.4-2.3,6.7-3.3
			c1-0.4,1.9-0.8,2.9-1.3c1.4-0.7,2.5-1.4,3.3-2.3c1.9-2.2,4-3.7,6.4-4.6c2-0.8,3.2-1.9,3.8-3.4c0.8-2.1,2.2-3.6,4.2-4.5
			c0.9-0.4,1.7-0.8,2.5-1.3c1.5-0.8,2.9-1.6,4.6-1.8l0.4,0l0.2-0.3c0.2-0.4,0.6-0.5,1.3-0.6c0.2,0,0.5-0.1,0.7-0.1
			c1.4-0.4,2.1-0.8,2.2-2.6c0-0.9,0.3-1.8,0.7-2.7c0.1-0.3,0.2-0.5,0.3-0.8l0.3-0.8l-0.9-0.2l-0.7-0.2
			C267.6,37.5,267.4,37.4,267.1,37.4L267.1,37.4z"/>
	</g>
	<g>
		<path class="st32" d="M145.9,225.3c-1.5-1.5-2.8-3.2-4-4.8c-0.5-0.7-1.1-1.4-1.7-2.1c-0.7,0.9-1.4,1.7-2.1,2.6
			c-1.1,1.4-2.3,2.9-3.6,4.3l-0.3,0.3l-0.3-0.3c-1-1.2-2.2-2.2-3.4-3.3l-0.9-0.8l6.3-4.6l-2.7-1.4l1.7-2l0.2,0
			c1.2,0.2,2.3,0.7,3.3,1.3c0.6,0.3,1.3,0.5,1.8,0.5c0.6,0,1.2-0.2,1.9-0.5c0.9-0.5,1.9-1,3.1-1.2l0.2,0l0.1,0.1
			c0.6,0.4,1,1,1.4,1.5l0.2,0.3l-0.2,0.2c-0.4,0.4-0.9,0.7-1.5,0.9c-0.3,0.1-0.6,0.3-0.9,0.4l6.2,4.6l-0.3,0.3
			c-0.4,0.4-0.8,0.7-1.2,1.1c-1,0.9-2,1.7-2.8,2.8l-0.3,0.3L145.9,225.3z"/>
		<path d="M145.3,213.5c0.6,0.4,0.9,0.8,1.3,1.4c-0.7,0.7-1.9,0.8-2.7,1.6c2.1,1.5,4.1,3,6.3,4.6c-1.4,1.3-2.8,2.4-4,3.9
			c-2.2-2.3-3.9-4.8-6-7.2c-2.1,2.4-3.8,4.9-6,7.2c-1.2-1.4-2.6-2.6-4-3.9c2.2-1.6,4.2-3.1,6.4-4.7c-1-0.5-1.9-1-2.8-1.5
			c0.5-0.5,0.8-1,1.2-1.5c1.2,0.2,2.2,0.7,3.2,1.2c0.7,0.4,1.4,0.6,2,0.6c0.7,0,1.4-0.2,2.1-0.6
			C143.3,214.2,144.3,213.7,145.3,213.5 M134.7,212.7l-0.3,0.3l-1.2,1.5l-0.6,0.7l0.8,0.4l1,0.5l0.8,0.4l-2.2,1.6l-3.2,2.4l-0.7,0.6
			l0.7,0.6l0.6,0.5c1.2,1.1,2.4,2.1,3.4,3.3l0.5,0.6l0.6-0.6c1.3-1.4,2.5-2.9,3.6-4.3c0.6-0.7,1.2-1.5,1.8-2.2
			c0.5,0.6,0.9,1.2,1.4,1.7c1.3,1.6,2.6,3.3,4.1,4.8l0.6,0.6l0.5-0.7c0.8-1,1.8-1.9,2.8-2.8c0.4-0.3,0.8-0.7,1.2-1.1l0.7-0.6
			l-0.7-0.5l-2.4-1.8l-3-2.2c0.1,0,0.2-0.1,0.3-0.1c0.5-0.2,1.1-0.5,1.6-1l0.4-0.4l-0.3-0.5c-0.4-0.6-0.8-1.1-1.5-1.6l-0.3-0.2
			l-0.3,0.1c-1.2,0.3-2.3,0.8-3.2,1.3c-0.6,0.3-1.2,0.5-1.8,0.5c-0.5,0-1.1-0.2-1.7-0.5c-1.1-0.6-2.2-1.1-3.4-1.3L134.7,212.7
			L134.7,212.7z"/>
	</g>
	<g>
		<path class="st33" d="M212.7,178.9c-0.1,0-0.2,0-0.3,0c0,0-0.1,0-0.1,0l-0.2,0l-0.1-0.1c-0.5-0.7-0.2-1.5,0-2l0.1-0.2
			c1.7-5.1,4.9-9.2,9.8-12.6c0.7-0.5,1.4-0.9,2.4-0.9c0.2,0,0.5,0,0.8,0.1l0.3,0.1l0,0.3c0.2,3.3,0.4,7.3-3.1,10.3
			c-2.3,2-5,3.6-8,4.8c-0.4,0.2-0.9,0.3-1.3,0.4l0,0L212.7,178.9z"/>
		<path d="M224.3,163.4c0.2,0,0.4,0,0.7,0.1c0.2,3.7,0.3,7.3-2.9,9.9c-2.4,2-5.1,3.6-8,4.7c-0.4,0.2-0.8,0.3-1.2,0.4
			c0,0-0.1,0-0.1,0c-0.1,0-0.3,0-0.4-0.1c-0.4-0.7-0.1-1.3,0.1-1.9c1.7-5.3,5.1-9.3,9.6-12.4C222.7,163.8,223.4,163.4,224.3,163.4
			 M224.3,162.6L224.3,162.6c-1.1,0-1.9,0.5-2.7,1c-5,3.4-8.2,7.6-9.9,12.8l-0.1,0.2c-0.2,0.6-0.5,1.5,0.1,2.4l0.2,0.3l0.4,0
			c0,0,0.1,0,0.1,0c0.1,0,0.2,0,0.4,0c0.1,0,0.2,0,0.3,0c0.4-0.1,0.9-0.2,1.3-0.4c3-1.2,5.8-2.9,8.1-4.9c3.6-3,3.4-7.2,3.2-10.6
			l0-0.6l-0.6-0.1C224.8,162.7,224.5,162.6,224.3,162.6L224.3,162.6z"/>
	</g>
	<g>
		<path class="st34" d="M67.8,178.9c-0.6,0-1-0.2-1.4-0.4l-0.2-0.1c-2.6-1.1-5.2-2.6-7.5-4.4c-2.1-1.6-3.2-3.7-3.5-6.4l-0.1-0.6
			c-0.1-1.2-0.2-2.5,0.1-3.7l0.1-0.2l0.2-0.1c0.3-0.1,0.6-0.1,0.9-0.1c0.8,0,1.5,0.4,2,0.7c3.7,2.4,6.4,5.2,8.2,8.5
			c0.8,1.4,1.5,2.9,2,4.6c0,0.1,0,0.2,0.1,0.2c0.1,0.4,0.3,1.1-0.1,1.7l-0.1,0.1l-0.2,0C68,178.9,67.9,178.9,67.8,178.9z"/>
		<path d="M56.3,163.4c0.7,0,1.3,0.3,1.8,0.6c3.3,2.2,6.1,4.9,8.1,8.4c0.8,1.4,1.5,2.9,2,4.5c0.1,0.5,0.4,1,0,1.6
			c-0.1,0-0.2,0-0.3,0c-0.5,0-1-0.2-1.5-0.4c-2.7-1.1-5.2-2.6-7.4-4.3c-2-1.6-3.1-3.6-3.3-6.1c-0.1-1.4-0.4-2.8,0-4.2
			C55.8,163.4,56.1,163.4,56.3,163.4 M56.3,162.6c-0.3,0-0.6,0.1-1,0.2l-0.4,0.1l-0.1,0.4c-0.4,1.3-0.2,2.6-0.1,3.9
			c0,0.2,0,0.4,0.1,0.6c0.2,2.8,1.4,4.9,3.6,6.6c2.4,1.8,4.9,3.3,7.6,4.4l0.2,0.1c0.4,0.2,0.9,0.4,1.6,0.4c0.1,0,0.3,0,0.4,0
			l0.3-0.1l0.2-0.3c0.6-0.8,0.3-1.6,0.2-2.1c0-0.1,0-0.1-0.1-0.2c-0.5-1.7-1.2-3.2-2-4.6c-1.8-3.3-4.6-6.2-8.3-8.6
			C58,163,57.2,162.6,56.3,162.6L56.3,162.6z"/>
	</g>
	<g>
		<path class="st34" d="M148.2,211.6c1.8-3.2,4.1-6.9,7.7-9.4c1.6-1.1,3.1-1.7,4.8-1.9c0.3,0,0.6-0.1,0.8-0.1c0.5,0,1,0.1,1.4,0.4
			l0.1,0.1l0,0.2c0.2,1.9-0.4,3.6-1.7,5.4c-1,1.3-2.3,2.3-4,3.2c-2.3,1.2-4.9,2-8.7,2.6l-0.8,0.1L148.2,211.6z"/>
		<path d="M161.5,200.6c0.4,0,0.8,0.1,1.2,0.3c0.2,1.9-0.5,3.6-1.7,5.1c-1.1,1.4-2.4,2.3-3.9,3.1c-2.6,1.4-5.3,2-8.6,2.6
			c2.1-3.8,4.3-7,7.6-9.2c1.4-1,2.9-1.6,4.7-1.8C161,200.7,161.3,200.6,161.5,200.6 M161.5,199.9L161.5,199.9c-0.3,0-0.5,0-0.8,0.1
			l-0.1,0c-1.7,0.2-3.4,0.8-5,1.9c-3.7,2.6-6,6.2-7.8,9.5l-0.7,1.3l1.5-0.2c3.8-0.6,6.5-1.4,8.8-2.6c1.8-0.9,3.1-2,4.2-3.3
			c1.4-1.8,2-3.7,1.8-5.6l0-0.4l-0.3-0.2C162.7,200,162.2,199.9,161.5,199.9L161.5,199.9z"/>
	</g>
	<g>
		<path class="st34" d="M131.8,212.1c-3.8-0.6-7.8-1.5-11-4.1c-2.5-2-3.6-4.3-3.4-7.1l0-0.2l0.2-0.1c0.5-0.2,1-0.3,1.5-0.3
			c0.8,0,1.5,0.2,2.2,0.4c1.4,0.4,2.7,1.1,4.1,2.1c2.6,2,4.6,4.7,6.9,8.8l0.4,0.7L131.8,212.1z"/>
		<path d="M119.1,200.6c0.7,0,1.4,0.2,2.2,0.4c1.4,0.4,2.7,1.1,3.9,2.1c2.9,2.3,4.9,5.2,6.8,8.7c-4.1-0.6-7.8-1.6-10.9-4
			c-2.1-1.7-3.5-3.9-3.3-6.8C118.2,200.7,118.7,200.6,119.1,200.6 M119.1,199.9L119.1,199.9c-0.6,0-1.1,0.1-1.7,0.3l-0.4,0.2l0,0.5
			c-0.2,2.9,1,5.3,3.6,7.4c3.3,2.7,7.4,3.6,11.2,4.2l1.5,0.2l-0.7-1.3c-2.2-4.2-4.3-6.8-7-8.9c-1.4-1.1-2.7-1.8-4.1-2.2l-0.1,0
			C120.7,200.1,119.9,199.9,119.1,199.9L119.1,199.9z"/>
	</g>
	<g>
		<path class="st35" d="M78.3,199.1c-2.8,0-5.4-0.5-8-1.6c-1.9-0.8-2.7-1.7-3.2-3.7l-0.1-0.3l0.3-0.1c1.6-0.6,3.4-0.8,5.4-0.8
			c5.3,0,9.6,2,11.5,5.4l0.3,0.4l-0.5,0.1C82,198.9,80.2,199.1,78.3,199.1z"/>
		<path d="M72.7,193c4.3,0,9.1,1.5,11.2,5.2c-1.9,0.4-3.8,0.6-5.6,0.6c-2.6,0-5.3-0.5-7.8-1.5c-1.9-0.8-2.6-1.7-3-3.4
			C69,193.2,70.8,193,72.7,193 M72.7,192.2L72.7,192.2c-2,0-3.9,0.3-5.5,0.9l-0.7,0.2l0.2,0.7c0.5,2.1,1.4,3.1,3.5,4
			c2.6,1.1,5.2,1.6,8.1,1.6c1.8,0,3.7-0.2,5.8-0.6l1-0.2l-0.5-0.9C82.6,194.3,78.1,192.2,72.7,192.2L72.7,192.2z"/>
	</g>
	<g>
		<path class="st35" d="M121.7,217.9c-3.5,0-6.9-0.9-9.5-2.7l-0.3-0.2l0.2-0.3c1.1-1.8,2.9-2.5,4.4-2.8c0.8-0.2,1.5-0.3,2.4-0.3
			c0.9,0,1.9,0.1,3.1,0.3c2.7,0.5,5.3,1.4,8.1,2.8l0.5,0.3l-0.4,0.4C128.2,217,125.1,217.9,121.7,217.9z"/>
		<path d="M118.8,212c1,0,2,0.1,3.1,0.3c2.8,0.5,5.4,1.5,8,2.7c-1.9,1.6-4.9,2.4-8.2,2.4c-3.2,0-6.6-0.8-9.3-2.6
			c1-1.6,2.5-2.3,4.2-2.7C117.3,212.1,118.1,212,118.8,212 M118.8,211.3L118.8,211.3c-0.9,0-1.7,0.1-2.4,0.3c-1.6,0.4-3.5,1-4.7,3
			l-0.4,0.6l0.6,0.4c2.7,1.8,6.2,2.7,9.8,2.7c3.5,0,6.7-0.9,8.7-2.6l0.9-0.7l-1-0.5c-2.8-1.4-5.5-2.3-8.2-2.8
			C120.8,211.4,119.8,211.3,118.8,211.3L118.8,211.3z"/>
	</g>
	<g>
		<path class="st34" d="M202,199.1c-1.8,0-3.7-0.2-5.6-0.6l-0.5-0.1l0.3-0.4c2.1-3.3,6.4-5.3,11.5-5.3c1.8,0,3.6,0.2,5.3,0.7
			l0.2,0.1l0,0.2c0.3,1.2-0.5,2-1.2,2.7c-0.9,0.9-2.1,1.5-3.7,1.9C206.2,198.8,204.1,199.1,202,199.1z"/>
		<path d="M207.7,193c1.8,0,3.5,0.2,5.1,0.7c0.2,1-0.4,1.7-1.1,2.4c-1,1-2.3,1.5-3.6,1.9c-2.1,0.6-4.1,0.9-6.2,0.9
			c-1.8,0-3.6-0.2-5.5-0.6C198.7,194.5,203.2,193,207.7,193 M207.7,192.2L207.7,192.2c-5.3,0-9.7,2.1-11.9,5.5l-0.6,0.9l1,0.2
			c1.9,0.4,3.8,0.6,5.7,0.6c2.2,0,4.3-0.3,6.4-0.9c1.7-0.5,2.9-1.1,3.9-2c0.6-0.5,1.6-1.5,1.3-3.1l-0.1-0.4l-0.4-0.1
			C211.4,192.5,209.5,192.2,207.7,192.2L207.7,192.2z"/>
	</g>
	<g>
		<path class="st35" d="M158.8,217.9c-3.2,0-6.2-0.8-8.4-2.3l-0.2-0.2l0.1-0.3c0.2-0.5,0.7-0.7,1-0.8c0.1,0,0.2-0.1,0.2-0.1
			c3.2-1.4,6-2.2,8.7-2.5c0.5-0.1,1-0.1,1.4-0.1c1.3,0,2.5,0.2,3.7,0.6c1.4,0.5,2.4,1.3,3.1,2.4l0.2,0.3l-0.3,0.2
			C166,216.9,162.5,217.9,158.8,217.9z"/>
		<path d="M161.6,212.1c1.2,0,2.4,0.2,3.6,0.6c1.2,0.4,2.2,1.1,2.9,2.2c-2.3,1.7-5.8,2.7-9.2,2.7c-3,0-5.9-0.7-8.2-2.3
			c0.2-0.5,0.7-0.5,1-0.7c2.7-1.2,5.6-2.1,8.6-2.5C160.7,212.1,161.2,212.1,161.6,212.1 M161.6,211.3c-0.5,0-1,0-1.5,0.1
			c-2.7,0.3-5.5,1.1-8.8,2.5c-0.1,0-0.1,0-0.2,0.1c-0.4,0.1-1,0.3-1.2,1l-0.2,0.5l0.5,0.3c2.2,1.6,5.3,2.4,8.6,2.4
			c3.7,0,7.3-1.1,9.7-2.8l0.5-0.4l-0.3-0.6c-0.7-1.1-1.8-2-3.3-2.5C164.3,211.5,163,211.3,161.6,211.3L161.6,211.3z"/>
	</g>
	<g>
		<path class="st36" d="M191.9,192.2c-0.4-0.6-0.2-1.1,0-1.4c0-0.1,0.1-0.1,0.1-0.2c1.1-3.3,2.3-5.8,3.7-8.1c0.9-1.3,2.1-3,4-4
			c1-0.5,1.8-0.8,2.6-0.8c0.6,0,1.2,0.1,1.8,0.4l0.3,0.2l-0.1,0.3c-2.8,6.3-6.7,10.8-12,13.7l-0.3,0.2L191.9,192.2z"/>
		<path d="M202.3,178.1c0.5,0,1.1,0.1,1.7,0.4c-2.5,5.8-6.2,10.5-11.8,13.5c-0.4-0.5,0-0.9,0.1-1.3c0.9-2.8,2.1-5.5,3.7-8
			c1-1.6,2.2-3,3.9-3.9C200.6,178.4,201.4,178.1,202.3,178.1 M202.3,177.3c-1.2,0-2.2,0.5-2.8,0.8c-2,1.1-3.3,2.8-4.1,4.1
			c-1.5,2.2-2.7,4.8-3.8,8.1c0,0.1,0,0.1-0.1,0.2c-0.2,0.4-0.5,1,0.1,1.8l0.4,0.6l0.6-0.3c5.4-2.9,9.4-7.4,12.1-13.9l0.3-0.7
			l-0.6-0.3C203.7,177.5,203,177.3,202.3,177.3L202.3,177.3z"/>
	</g>
	<g>
		<path class="st32" d="M88.5,192.5c-5.5-2.9-9.4-7.3-12.4-13.8l-0.1-0.3l0.3-0.2c0.6-0.3,1.2-0.4,1.8-0.4c0.9,0,1.7,0.3,2.3,0.6
			c1,0.4,1.9,1.1,2.7,2.1c2.8,3.1,4.3,6.8,5.9,11.7l0.3,0.9L88.5,192.5z"/>
		<path d="M78.1,178.1c0.7,0,1.4,0.2,2.1,0.5c1,0.4,1.9,1.1,2.6,2c2.9,3.2,4.4,7.2,5.8,11.6c-6-3.1-9.6-7.8-12.2-13.6
			C77,178.2,77.6,178.1,78.1,178.1 M78.1,177.3L78.1,177.3c-0.7,0-1.3,0.2-2,0.5l-0.6,0.3l0.3,0.7c2.9,6.6,6.9,11.1,12.5,14l1.6,0.9
			l-0.6-1.7c-1.2-3.9-2.8-8.3-6-11.8c-0.9-1-1.8-1.7-2.8-2.1C79.9,177.7,79.1,177.3,78.1,177.3L78.1,177.3z"/>
	</g>
	<g>
		<path class="st36" d="M171.5,201.3c1.8-6.8,7-9.8,11.2-9.8c0.8,0,1.6,0.1,2.3,0.3l0.4,0.1l-0.1,0.4c-1.3,4.8-7.7,9.4-13.4,9.5
			l-0.5,0L171.5,201.3z"/>
		<path d="M182.7,191.9c0.8,0,1.5,0.1,2.2,0.3c-1.2,4.7-7.5,9.1-13.1,9.2C173.7,194.8,178.5,191.9,182.7,191.9 M182.7,191.1
			L182.7,191.1c-4.4,0-9.7,3.1-11.6,10l-0.3,1l1,0c5.9-0.1,12.4-4.8,13.8-9.8l0.2-0.7l-0.7-0.2C184.4,191.2,183.6,191.1,182.7,191.1
			L182.7,191.1z"/>
	</g>
	<g>
		<path class="st33" d="M108.6,201.8c-6.1-0.5-12-4.6-13.4-9.4l-0.1-0.4l0.4-0.1c0.8-0.2,1.6-0.4,2.5-0.4c4.9,0,9.5,4.1,11.1,9.8
			l0.1,0.5L108.6,201.8z"/>
		<path d="M97.9,191.9c4.6,0,9.2,3.9,10.7,9.5c-6-0.5-11.7-4.5-13.1-9.1C96.3,192,97.1,191.9,97.9,191.9 M97.9,191.2L97.9,191.2
			c-0.9,0-1.8,0.1-2.6,0.4l-0.7,0.2l0.2,0.7c1.5,4.9,7.5,9.2,13.7,9.7l1.1,0.1l-0.3-1C107.8,195.4,102.9,191.2,97.9,191.2
			L97.9,191.2z"/>
	</g>
	<g>
		<path class="st37" d="M98.4,209.9c-3.7,0-7.1-1-10.1-3l-0.1-0.1c-0.5-0.3-1-0.6-1.3-1.4l-0.2-0.4l0.4-0.1c2.7-0.6,5.2-0.9,7.6-0.9
			c0.8,0,1.7,0,2.5,0.1c1.9,0.2,3.4,0.6,4.8,1.4c0.3,0.2,0.9,0.5,1.3,0.9c0.5,0.5,0.7,1,0.7,1.5c-0.1,0.5-0.5,0.9-1.1,1.3
			c-0.6,0.3-1,0.4-1.5,0.5C100.3,209.8,99.3,209.9,98.4,209.9z"/>
		<path d="M94.7,204.3c0.8,0,1.6,0,2.4,0.1c1.6,0.1,3.2,0.5,4.7,1.3c0.4,0.2,0.8,0.5,1.2,0.8c0.9,0.9,0.7,1.6-0.3,2.2
			c-0.4,0.2-0.9,0.4-1.4,0.5c-1,0.1-1.9,0.2-2.9,0.2c-3.5,0-6.8-0.9-9.9-2.9c-0.5-0.3-1-0.6-1.3-1.3
			C89.7,204.7,92.2,204.3,94.7,204.3 M94.7,203.6L94.7,203.6c-2.5,0-5,0.3-7.7,0.9l-0.9,0.2l0.3,0.8c0.4,0.9,1,1.3,1.5,1.6l0.1,0.1
			c3.1,2,6.5,3,10.3,3c1,0,2-0.1,3-0.2c0.5-0.1,1-0.2,1.6-0.5c0.8-0.4,1.2-0.9,1.3-1.5c0.1-0.6-0.2-1.2-0.8-1.9
			c-0.4-0.4-1-0.8-1.3-1c-1.4-0.8-3.1-1.3-5-1.4C96.4,203.6,95.5,203.6,94.7,203.6L94.7,203.6z"/>
	</g>
	<g>
		<path class="st37" d="M182.2,209.9c-1,0-2-0.1-3-0.2c-0.9-0.1-2.4-0.3-2.6-1.8c-0.1-1.2,0.9-1.8,1.6-2.2l0.3-0.1
			c1.3-0.8,2.9-1.2,4.8-1.4c0.8-0.1,1.6-0.1,2.5-0.1c2.4,0,4.9,0.3,7.6,0.9l0.4,0.1l-0.1,0.4c-0.2,0.7-0.7,1.1-1.1,1.3l-0.2,0.1
			C189.3,208.8,185.9,209.9,182.2,209.9z"/>
		<path d="M185.8,204.3c2.5,0,5,0.3,7.6,0.9c-0.2,0.7-0.7,0.9-1.2,1.2c-3.1,2.1-6.4,3-10,3c-1,0-1.9-0.1-2.9-0.2
			c-0.9-0.1-2.1-0.3-2.3-1.5c-0.1-1.1,0.9-1.5,1.7-2c1.4-0.8,3-1.2,4.7-1.4C184.1,204.4,184.9,204.3,185.8,204.3 M185.8,203.6
			L185.8,203.6c-0.8,0-1.7,0-2.5,0.1c-1.9,0.2-3.6,0.6-5,1.5l-0.2,0.1c-0.8,0.4-2,1.1-1.8,2.6c0.2,1.8,2,2,2.9,2.2
			c1,0.1,2,0.2,3,0.2c3.8,0,7.3-1.1,10.4-3.2l0.2-0.1c0.4-0.3,1-0.7,1.3-1.5l0.3-0.8l-0.8-0.2C190.7,203.9,188.2,203.6,185.8,203.6
			L185.8,203.6z"/>
	</g>
	<g>
		<path class="st35" d="M99.7,202.6c-1.8,0-3.5-0.3-5-0.7c-2.5-0.6-4.5-1.4-6.2-2.7c-1.7-1.2-2.8-2.7-3.3-4.4l-0.1-0.3l0.3-0.1
			c0.6-0.3,1.3-0.5,2.1-0.5c0.6,0,1.2,0.1,1.7,0.2c2.2,0.4,4.3,1.3,6.5,2.9c1.9,1.3,3.6,2.9,5.3,5l0.5,0.6l-0.7,0.1
			C100.4,202.6,100,202.6,99.7,202.6z"/>
		<path d="M87.4,194.3c0.6,0,1.1,0.1,1.7,0.2c2.4,0.4,4.4,1.4,6.4,2.8c1.9,1.4,3.6,2.9,5.3,4.9c-0.3,0-0.7,0-1,0
			c-1.7,0-3.3-0.3-4.9-0.7c-2.2-0.5-4.3-1.3-6.1-2.6c-1.5-1.1-2.6-2.4-3.2-4.2C86.1,194.4,86.7,194.3,87.4,194.3 M87.4,193.5
			L87.4,193.5c-0.8,0-1.6,0.2-2.2,0.5l-0.6,0.3l0.2,0.6c0.6,1.8,1.7,3.3,3.5,4.6c1.7,1.3,3.8,2.2,6.4,2.7c1.5,0.3,3.2,0.7,5.1,0.7
			c0.4,0,0.7,0,1.1,0l1.5-0.1l-1-1.1c-1.8-2.1-3.5-3.7-5.4-5c-2.3-1.6-4.4-2.6-6.7-2.9C88.6,193.6,88,193.5,87.4,193.5L87.4,193.5z"
			/>
	</g>
	<g>
		<path class="st35" d="M180.9,202.6c-0.3,0-0.6,0-0.9,0l-0.6-0.1l0.3-0.5c2.8-4.4,8.7-7.9,13.3-7.9c0.8,0,1.5,0.1,2.1,0.3l0.4,0.1
			l-0.1,0.4c-0.6,1.7-1.7,3.2-3.3,4.4c-2,1.5-4.4,2.4-7.5,3C183.3,202.4,182.1,202.6,180.9,202.6z"/>
		<path d="M193,194.4c0.7,0,1.4,0.1,2,0.3c-0.6,1.8-1.7,3.1-3.1,4.2c-2.2,1.6-4.7,2.4-7.4,2.9c-1.2,0.2-2.4,0.4-3.6,0.4
			c-0.3,0-0.6,0-0.9,0C182.8,197.8,188.6,194.4,193,194.4 M193,193.7L193,193.7c-4.7,0-10.8,3.6-13.6,8.1l-0.7,1l1.2,0.1
			c0.3,0,0.6,0,1,0c1.3,0,2.5-0.2,3.8-0.4c3.2-0.6,5.7-1.6,7.7-3c1.7-1.2,2.8-2.7,3.4-4.5l0.2-0.7l-0.7-0.2
			C194.6,193.8,193.8,193.7,193,193.7L193,193.7z"/>
	</g>
	<g>
		<path class="st38" d="M198.5,192.3c-0.2-0.5,0-1,0.2-1.3c0-0.1,0.1-0.1,0.1-0.2c1-2.2,2.1-4,3.4-5.6c1.2-1.5,2.5-2.7,3.8-3.5
			c1.1-0.7,2.2-1,3.3-1c0.3,0,0.5,0,0.8,0.1l0.3,0l0,0.3c-0.2,6-6.9,10.2-11.6,11.3l-0.3,0.1L198.5,192.3z"/>
		<path d="M209.4,181.1c0.2,0,0.5,0,0.8,0.1c-0.2,5.6-6.4,9.9-11.3,11c-0.2-0.5,0.2-0.8,0.3-1.2c0.9-2,2-3.9,3.4-5.6
			c1.1-1.3,2.2-2.5,3.7-3.4C207.2,181.5,208.2,181.1,209.4,181.1 M209.4,180.4L209.4,180.4c-1.1,0-2.2,0.3-3.4,1
			c-1.4,0.8-2.7,2-4,3.6c-1.3,1.7-2.4,3.5-3.5,5.7c0,0.1-0.1,0.1-0.1,0.2c-0.2,0.3-0.5,0.9-0.2,1.6l0.2,0.6l0.6-0.1
			c4.8-1.1,11.6-5.5,11.9-11.7l0-0.7l-0.7-0.1C209.9,180.4,209.6,180.4,209.4,180.4L209.4,180.4z"/>
	</g>
	<g>
		<path class="st39" d="M214.4,185.8c-0.9,0-1.7-0.1-2.5-0.2l-0.4-0.1l0.1-0.4c0.3-2.2,1.5-3.7,3.6-4.9c2.3-1.3,5-1.9,8.5-2l0.4,0
			l0,0.4c0,3.7-2.2,6.4-5.7,6.8C216.9,185.6,215.7,185.8,214.4,185.8z"/>
		<path d="M223.7,178.6c0,3.5-2.1,6.1-5.4,6.5c-1.3,0.2-2.6,0.3-3.9,0.3c-0.8,0-1.6-0.1-2.4-0.2c0.3-2.3,1.6-3.6,3.4-4.6
			C218,179.1,220.8,178.7,223.7,178.6 M224.4,177.8l-0.8,0c-3.5,0.1-6.3,0.7-8.6,2c-2.2,1.2-3.4,2.9-3.8,5.2l-0.1,0.7l0.7,0.1
			c0.8,0.1,1.7,0.2,2.6,0.2c1.3,0,2.5-0.1,4-0.3c3.6-0.5,6-3.3,6-7.2L224.4,177.8L224.4,177.8z"/>
	</g>
	<g>
		<path class="st34" d="M81.8,192.5c-6.3-1.2-11.9-6.6-11.7-11.3l0-0.3l0.3-0.1c0.3-0.1,0.6-0.1,0.9-0.1c0.9,0,1.8,0.3,2.5,0.6
			c1.3,0.6,2.5,1.6,3.7,2.9c1.8,2,3.3,4.4,4.8,7.7l0.3,0.7L81.8,192.5z"/>
		<path d="M71.2,181.1c0.8,0,1.6,0.3,2.3,0.6c1.4,0.7,2.6,1.6,3.6,2.8c2,2.2,3.4,4.8,4.7,7.7c-6.2-1.2-11.6-6.4-11.4-11
			C70.7,181.1,71,181.1,71.2,181.1 M71.2,180.4c-0.3,0-0.7,0-1,0.1l-0.6,0.1l0,0.6c-0.2,5,5.4,10.4,12,11.7l1.4,0.3l-0.6-1.3
			c-1.5-3.4-3-5.8-4.8-7.8c-1.2-1.4-2.5-2.3-3.8-3C73.2,180.7,72.3,180.4,71.2,180.4L71.2,180.4z"/>
	</g>
	<g>
		<path class="st35" d="M165.1,210.5c-1.4,0-2.8-0.1-4.6-0.3c-0.2,0-0.3-0.1-0.4-0.2c0,0-0.1,0-0.1-0.1l-0.4-0.2l0.3-0.4
			c2.6-3.1,7-5,11-5c1.6,0,3,0.3,4.2,0.9l0.2,0.1l0,0.3c-0.2,1.1-0.8,2.1-2,2.9c-1.2,0.8-2.6,1.4-4.4,1.6
			C167.7,210.4,166.5,210.5,165.1,210.5z"/>
		<path d="M170.8,204.8c1.5,0,2.9,0.3,4.1,0.9c-0.2,1.2-0.9,2-1.8,2.7c-1.3,0.9-2.7,1.3-4.2,1.6c-1.2,0.2-2.4,0.3-3.7,0.3
			c-1.5,0-3.1-0.1-4.6-0.3c-0.1,0-0.3-0.1-0.4-0.2C162.8,206.6,167.1,204.8,170.8,204.8 M170.8,204L170.8,204c-4.1,0-8.6,2-11.3,5.2
			l-0.6,0.7l0.8,0.4c0,0,0.1,0,0.1,0c0.1,0.1,0.3,0.2,0.6,0.2c1.8,0.2,3.3,0.3,4.7,0.3c1.4,0,2.6-0.1,3.8-0.3
			c1.9-0.3,3.3-0.8,4.6-1.7c1.2-0.9,2-1.9,2.2-3.2l0.1-0.5l-0.5-0.2C174,204.3,172.5,204,170.8,204L170.8,204z"/>
	</g>
	<g>
		<path class="st36" d="M66,185.7c-1.8,0-3.6-0.2-5.4-0.6c-1-0.2-1.9-0.9-2.7-2c-0.9-1.3-1.5-2.8-1.7-4.5l-0.1-0.4l0.4,0
			c3.6,0.1,7.3,0.5,10.3,3.2c1.1,1,1.8,2.2,1.9,3.8l0,0.4l-0.4,0C67.7,185.7,66.8,185.7,66,185.7z"/>
		<path d="M56.6,178.6c3.7,0.1,7.2,0.6,10.1,3.1c1,0.9,1.6,2,1.8,3.5c-0.8,0.1-1.6,0.1-2.4,0.1c-1.8,0-3.6-0.2-5.4-0.6
			c-1-0.2-1.8-0.9-2.4-1.8C57.3,181.7,56.8,180.3,56.6,178.6 M55.7,177.8l0.1,0.9c0.2,1.8,0.8,3.3,1.8,4.7c0.8,1.2,1.8,1.9,2.9,2.1
			c1.9,0.4,3.7,0.6,5.5,0.6c0.8,0,1.7,0,2.5-0.1l0.8-0.1l-0.1-0.8c-0.2-1.7-0.8-3-2.1-4c-3.1-2.7-6.9-3.2-10.5-3.3L55.7,177.8
			L55.7,177.8z"/>
	</g>
	<g>
		<path class="st37" d="M115.3,210.5c-1.8,0-3.3-0.2-4.8-0.5c-1.7-0.4-2.9-1-3.9-1.9c-0.7-0.7-1.2-1.4-1.4-2.4l-0.1-0.3l0.3-0.1
			c1.2-0.6,2.7-0.9,4.3-0.9c3.9,0,8.1,1.9,11,4.9l0.1,0.1l0,0.2c-0.1,0.3-0.3,0.6-0.7,0.6C118.6,210.4,117,210.5,115.3,210.5z"/>
		<path d="M109.7,204.8c3.6,0,7.8,1.7,10.7,4.8c0,0.2-0.2,0.3-0.3,0.3c-1.6,0.2-3.2,0.3-4.7,0.3c-1.6,0-3.1-0.1-4.7-0.5
			c-1.4-0.3-2.7-0.8-3.8-1.8c-0.6-0.6-1.1-1.2-1.3-2.2C106.8,205.1,108.2,204.8,109.7,204.8 M109.7,204L109.7,204
			c-1.6,0-3.2,0.3-4.4,1l-0.5,0.3l0.1,0.6c0.2,1,0.7,1.8,1.5,2.6c1,1,2.4,1.6,4.1,2c1.5,0.3,3.1,0.5,4.9,0.5c1.7,0,3.4-0.2,4.8-0.3
			c0.5-0.1,0.9-0.4,1-0.9l0.1-0.4l-0.3-0.3C118,205.9,113.7,204,109.7,204L109.7,204z"/>
	</g>
	<g>
		<path class="st40" d="M72.3,178.7c-1.5-1.7-2.9-3.7-2.9-6.3c0-1.2-0.2-2.3-0.3-3.5c-0.1-0.6-0.1-1.2-0.2-1.8l-0.1-0.6l0.6,0.2
			c2.4,1,3.6,2.4,3.9,4.3c0.3,2.6,0,5.2-0.3,7.6l-0.1,0.8L72.3,178.7z"/>
		<path d="M69.3,167c2,0.8,3.4,2,3.7,4c0.3,2.5,0,5-0.3,7.5c-1.6-1.8-2.8-3.6-2.8-6.1C69.7,170.7,69.4,168.9,69.3,167 M68.4,165.9
			l0.1,1.2c0.1,0.6,0.1,1.2,0.2,1.8c0.1,1.2,0.3,2.4,0.3,3.5c0,2.8,1.5,4.8,3,6.6l1.1,1.2l0.2-1.6c0.4-2.4,0.7-5,0.3-7.7
			c-0.3-2-1.6-3.5-4.1-4.6L68.4,165.9L68.4,165.9z"/>
	</g>
	<g>
		<path class="st41" d="M207.3,178.4c-0.2-2.3-0.5-4.5-0.3-6.8c0.2-2.8,2.3-4.1,4-5l0.6-0.3l-0.2,1.8c-0.1,0.7-0.2,1.4-0.2,2.1
			c-0.1,1.1-0.2,2.2-0.3,3.2c-0.1,1.7-1.3,3.9-3,5.4l-0.6,0.5L207.3,178.4z"/>
		<path d="M211.2,167c-0.1,1.2-0.2,2.2-0.3,3.2c-0.1,1.1-0.2,2.2-0.3,3.2c-0.1,1.6-1.2,3.7-2.9,5.2c-0.2-2.4-0.5-4.7-0.3-7
			C207.6,169.3,209,168,211.2,167 M212.1,165.7l-1.2,0.6c-1.9,0.9-4.1,2.3-4.3,5.3c-0.2,2.3,0.1,4.6,0.3,6.8l0,0.3l0.2,1.5l1.1-1.1
			c1.7-1.7,3-3.9,3.1-5.7c0.1-1.1,0.2-2.1,0.3-3.2c0.1-0.7,0.1-1.4,0.2-2.1l0.1-1.1L212.1,165.7L212.1,165.7z"/>
	</g>
	<g>
		<path class="st42" d="M209.5,192c-0.3,0-0.7,0-1-0.1c-0.9-0.2-1.2-0.6-1.3-1c-0.1-0.3-0.1-0.8,0.4-1.5c1-1.2,2.3-1.8,3.8-1.8
			c0.4,0,0.9,0,1.3,0.1l0.3,0.1l0,0.3C213,190.4,211.5,192,209.5,192z"/>
		<path d="M211.4,188c0.4,0,0.8,0,1.3,0.1c0,2.2-1.3,3.5-3.2,3.5c-0.3,0-0.6,0-0.9-0.1c-1.1-0.3-1.4-1-0.7-1.9
			C208.8,188.5,210,188,211.4,188 M211.4,187.3L211.4,187.3c-1.7,0-3,0.7-4.1,1.9c-0.7,0.8-0.6,1.5-0.5,1.9c0.1,0.4,0.5,1,1.6,1.2
			c0.4,0.1,0.7,0.1,1.1,0.1c2.3,0,3.9-1.8,3.9-4.3l0-0.6l-0.6-0.1C212.3,187.3,211.8,187.3,211.4,187.3L211.4,187.3z"/>
	</g>
	<g>
		<path class="st42" d="M71,192c-1,0-1.9-0.3-2.5-1c-0.7-0.7-1.1-1.7-1-2.9l0-0.3l0.3-0.1c0.5-0.1,0.9-0.2,1.4-0.2
			c1.4,0,2.6,0.5,3.5,1.5c0.3,0.3,0.9,0.9,0.6,1.8c-0.3,0.8-1.1,0.9-1.6,1C71.4,192,71.2,192,71,192z"/>
		<path d="M69.1,188c1.3,0,2.3,0.4,3.3,1.4c0.4,0.4,0.7,0.9,0.5,1.5c-0.2,0.6-0.8,0.7-1.3,0.7c-0.2,0-0.4,0-0.6,0
			c-1.9,0-3.2-1.3-3.2-3.5C68.3,188.1,68.7,188,69.1,188 M69.1,187.3L69.1,187.3c-0.5,0-0.9,0.1-1.4,0.2l-0.6,0.1l0,0.6
			c0,1.3,0.4,2.4,1.2,3.2c0.7,0.7,1.7,1.1,2.8,1.1c0.2,0,0.4,0,0.7,0c0.6-0.1,1.6-0.2,2-1.2c0.4-1.1-0.4-2-0.7-2.2
			C71.9,187.8,70.6,187.3,69.1,187.3L69.1,187.3z"/>
	</g>
	<g>
		<path class="st43" d="M172.6,214.9c-0.8,0-1.4-0.5-1.6-1.3c-0.1-0.7,0.1-1.5,0.7-2.1c0.6-0.7,1.6-1.2,2.5-1.2c0.2,0,0.4,0,0.7,0.1
			l0.2,0.1l0,0.2c0.2,1.1,0,2-0.3,2.7c-0.3,0.9-1.1,1.5-2,1.6C172.8,214.9,172.7,214.9,172.6,214.9z"/>
		<path d="M174.3,210.6c0.2,0,0.4,0,0.6,0.1c0.2,0.9,0,1.7-0.3,2.5c-0.3,0.8-0.9,1.2-1.7,1.4c-0.1,0-0.2,0-0.2,0
			c-0.6,0-1.1-0.4-1.2-1C171.2,212.1,172.7,210.6,174.3,210.6 M174.3,209.9L174.3,209.9c-1.1,0-2.1,0.5-2.8,1.3
			c-0.6,0.7-0.9,1.6-0.8,2.4c0.2,1,0.9,1.7,1.9,1.7c0.1,0,0.2,0,0.3,0c1.1-0.2,1.9-0.8,2.3-1.8c0.3-0.8,0.6-1.7,0.4-2.9l-0.1-0.5
			L175,210C174.8,209.9,174.5,209.9,174.3,209.9L174.3,209.9z"/>
	</g>
	<g>
		<path class="st41" d="M107.8,214.9c-0.1,0-0.2,0-0.4,0c-0.9-0.2-1.6-0.7-1.9-1.6c-0.1-0.3-0.2-0.6-0.3-0.9c0-0.4-0.1-0.8-0.1-1.2
			l-0.1-0.9l0.3-0.1c0.2,0,0.4-0.1,0.6-0.1c0.9,0,1.8,0.4,2.5,1c0.6,0.6,0.8,1.4,0.8,2.1C109.3,214.3,108.7,214.9,107.8,214.9z"/>
		<path d="M106.1,210.6c1.7,0,3,1.3,2.9,2.8c0,0.7-0.5,1.1-1.1,1.1c-0.1,0-0.2,0-0.3,0c-0.8-0.1-1.4-0.6-1.7-1.4
			c-0.1-0.2-0.2-0.5-0.2-0.8c-0.1-0.5-0.1-1.1-0.1-1.7C105.7,210.7,105.9,210.6,106.1,210.6 M106.1,209.9L106.1,209.9
			c-0.2,0-0.5,0-0.7,0.1l-0.7,0.1l0,0.7c0,0.2,0,0.4,0,0.5c0,0.4,0.1,0.8,0.1,1.2c0,0.3,0.2,0.6,0.3,0.9c0.4,1.1,1.2,1.7,2.2,1.9
			c0.1,0,0.3,0,0.4,0c1.1,0,1.8-0.7,1.9-1.8c0.1-0.9-0.3-1.8-0.9-2.4C108.2,210.3,107.2,209.9,106.1,209.9L106.1,209.9z"/>
	</g>
	<g>
		<path class="st40" d="M114,203.2c-0.3,0-0.6-0.1-0.9-0.2c-0.8-0.3-1.3-1-1.5-2c-0.2-0.8-0.2-1.5-0.1-2.2l0.1-0.3l0.3,0
			c0.1,0,0.3,0,0.4,0c1.7,0,2.9,0.9,3.3,2.5c0.1,0.5,0.3,1.3-0.5,1.8C114.7,203.1,114.4,203.2,114,203.2z"/>
		<path d="M112.2,198.9c1.6,0,2.6,0.8,2.9,2.2c0.1,0.5,0.2,1.1-0.3,1.5c-0.2,0.2-0.5,0.2-0.8,0.2c-0.3,0-0.5-0.1-0.8-0.2
			c-0.8-0.3-1.1-1-1.3-1.7c-0.2-0.6-0.2-1.3-0.1-2C112,198.9,112.1,198.9,112.2,198.9 M112.2,198.2L112.2,198.2c-0.1,0-0.3,0-0.4,0
			l-0.6,0l-0.1,0.6c-0.2,1,0,1.8,0.1,2.3c0.3,1.1,0.9,1.9,1.8,2.2c0.4,0.2,0.7,0.2,1.1,0.2c0.4,0,0.8-0.1,1.2-0.4
			c1-0.7,0.7-1.8,0.6-2.2C115.5,199.2,114.2,198.2,112.2,198.2L112.2,198.2z"/>
	</g>
	<g>
		<path class="st44" d="M188.3,194.1c-0.4,0-0.7-0.1-0.9-0.2c-0.7-0.4-0.8-1.3-0.4-2.4c0.6-1.5,1.5-2.1,3.1-2.1c0.1,0,0.3,0,0.4,0
			l0.3,0l0,0.3c0.1,1,0.2,2.4-0.9,3.7C189.6,193.9,188.9,194.1,188.3,194.1z"/>
		<path d="M190.1,189.8c0.1,0,0.2,0,0.4,0c0.2,1.2,0.1,2.4-0.8,3.4c-0.3,0.4-0.9,0.5-1.4,0.5c-0.3,0-0.5-0.1-0.7-0.2
			c-0.5-0.3-0.6-1-0.2-1.9C187.9,190.4,188.6,189.8,190.1,189.8 M190.1,189.1L190.1,189.1c-1.8,0-2.8,0.7-3.5,2.3
			c-0.5,1.2-0.3,2.3,0.5,2.8c0.3,0.2,0.7,0.3,1.1,0.3c0.8,0,1.5-0.3,1.9-0.8c1.2-1.4,1.2-2.9,1-4l-0.1-0.6l-0.6,0
			C190.4,189.1,190.2,189.1,190.1,189.1L190.1,189.1z"/>
	</g>
	<g>
		<path class="st42" d="M166.4,203.2c-0.4,0-0.8-0.2-1.1-0.5c-0.5-0.6-0.4-1.3-0.3-1.7c0.4-1.6,1.6-2.5,3.2-2.5c0.2,0,0.4,0,0.6,0
			l0.3,0l0.1,0.2c0.2,0.9,0,1.7-0.2,2.4l0,0.1c-0.3,0.9-0.8,1.5-1.6,1.7C166.9,203.2,166.6,203.2,166.4,203.2z"/>
		<path d="M168.1,198.9c0.2,0,0.3,0,0.5,0c0.2,0.9,0,1.6-0.2,2.3c-0.2,0.7-0.7,1.3-1.4,1.5c-0.2,0.1-0.4,0.1-0.6,0.1
			c-0.3,0-0.6-0.1-0.9-0.4c-0.4-0.4-0.4-0.9-0.2-1.4C165.7,199.7,166.6,198.9,168.1,198.9 M168.1,198.2L168.1,198.2
			c-1.8,0-3.1,1-3.5,2.8c-0.1,0.3-0.3,1.3,0.4,2.1c0.4,0.4,0.9,0.6,1.4,0.6c0.3,0,0.5,0,0.9-0.1c0.9-0.3,1.6-1,1.9-2l0-0.1
			c0.2-0.7,0.5-1.6,0.2-2.6l-0.1-0.5l-0.5-0.1C168.5,198.2,168.3,198.2,168.1,198.2L168.1,198.2z"/>
	</g>
	<g>
		<path class="st45" d="M92.2,194.1c-0.2,0-0.4,0-0.6-0.1c-0.6-0.1-1.1-0.5-1.5-1.1c-0.6-0.9-0.7-1.9-0.3-3.2l0.1-0.3l0.4,0
			c1.8,0,3.1,1,3.4,2.7c0.1,0.8-0.1,1.3-0.3,1.5C93.2,193.9,92.8,194.1,92.2,194.1z"/>
		<path d="M90.3,189.8c1.6,0,2.7,0.9,3,2.4c0.2,1-0.3,1.6-1.1,1.6c-0.2,0-0.3,0-0.5-0.1c-0.6-0.1-1-0.5-1.3-0.9
			c-0.5-0.8-0.6-1.7-0.3-2.9C90.2,189.8,90.3,189.8,90.3,189.8 M90.3,189.1c-0.1,0-0.1,0-0.2,0l-0.6,0l-0.1,0.5
			c-0.4,1.4-0.3,2.5,0.4,3.5c0.4,0.7,1,1.1,1.7,1.3c0.2,0,0.4,0.1,0.7,0.1c0.8,0,1.2-0.3,1.5-0.6c0.3-0.3,0.5-0.9,0.4-1.8
			C93.7,190.2,92.3,189.1,90.3,189.1L90.3,189.1z"/>
	</g>
	<g>
		<path class="st46" d="M193.7,203.8c-0.2,0-0.4,0-0.6-0.1c-0.3-0.1-0.6-0.3-0.7-0.6c-0.2-0.4-0.2-1,0-1.6c0.5-1.4,1.3-1.9,2.8-1.9
			l0.3,0l0.1,0.3c0.3,1,0.1,2-0.4,2.9C194.9,203.5,194.4,203.8,193.7,203.8z"/>
		<path d="M195.3,200c0.3,0.9,0.1,1.8-0.4,2.6c-0.3,0.5-0.7,0.8-1.2,0.8c-0.1,0-0.3,0-0.5-0.1c-0.6-0.2-0.7-0.9-0.4-1.7
			C193.3,200.5,193.9,200,195.3,200 M195.9,199.3l-0.6,0c-1.7,0-2.6,0.7-3.1,2.2c-0.2,0.7-0.2,1.3,0,1.8c0.2,0.4,0.5,0.7,0.9,0.8
			c0.2,0.1,0.5,0.1,0.7,0.1c0.8,0,1.4-0.4,1.8-1.2c0.6-1,0.7-2.1,0.4-3.2L195.9,199.3L195.9,199.3z"/>
	</g>
	<g>
		<path class="st43" d="M86.8,203.8c-0.5,0-0.9-0.2-1.3-0.6c-0.6-0.7-0.8-1.8-0.6-3.2l0-0.3l0.4,0c0.8,0,1.6,0.4,2.2,1
			c0.5,0.6,0.7,1.3,0.6,2c-0.1,0.6-0.4,1-1,1.1C87,203.8,86.9,203.8,86.8,203.8z"/>
		<path d="M85.3,200.1c1.4,0,2.6,1.2,2.4,2.6c-0.1,0.4-0.3,0.7-0.7,0.8c-0.1,0-0.2,0-0.3,0c-0.4,0-0.7-0.2-1-0.5
			c-0.5-0.6-0.7-1.6-0.5-2.9C85.2,200.1,85.3,200.1,85.3,200.1 M85.3,199.3L85.3,199.3c0,0-0.1,0-0.1,0l-0.6,0l-0.1,0.6
			c-0.2,1.5,0,2.8,0.7,3.5c0.5,0.5,1,0.7,1.6,0.7c0.2,0,0.3,0,0.5-0.1c0.7-0.2,1.1-0.7,1.2-1.4c0.1-0.8-0.1-1.7-0.7-2.3
			C87.2,199.7,86.3,199.3,85.3,199.3L85.3,199.3z"/>
	</g>
	<g>
		<path class="st47" d="M267,38.5l0.5-0.5c0.4-0.4,0.9-0.6,1.5-0.6l0.4,0l0,0.4c0.1,0.7-0.5,0.9-0.7,1.1l-0.1,0.1L267,38.5z"/>
		<path d="M269,37.7c0,0.4-0.2,0.5-0.5,0.7c-0.2-0.1-0.5-0.1-0.7-0.2C268.1,37.9,268.5,37.8,269,37.7 M269.7,36.9L269,37
			c-0.7,0.1-1.3,0.3-1.7,0.7l-1.1,1l1.4,0.3l0.7,0.2l0.2,0l0.2-0.1c0.3-0.1,1-0.5,0.9-1.4L269.7,36.9L269.7,36.9z"/>
	</g>
</g>
</svg>
