<svg xmlns="http://www.w3.org/2000/svg" xmlns:xlink="http://www.w3.org/1999/xlink" viewBox="0 0 761.54 500.15"><defs><style>.a{fill:none;}.b{clip-path:url(#a);}.c{fill:#fefefe;}.d{fill:#db143c;}</style><clipPath id="a" transform="translate(121.68)"><path class="a" d="M42.42,334.83c1.53-3.44,2.85-6.38,4.14-9.32,3.19-7.24,6.48-14.4,7.13-22.5.73-9.14-1.64-16.69-9.74-21.79-2.61-1.65-4.48-4.09-6.61-6.25a2.82,2.82,0,0,1-.92-2.31,6,6,0,0,0-.24-1.93c-5.87-22.44-4.61-16.15.36-39.12,1.84-8.5,1-16.14-6.33-22-2.86-2.29-3.13-5.55-2.55-8.92a12.44,12.44,0,0,1,.83-2.81c4.1-9.22.34-14.12-7.07-20.17a140.16,140.16,0,0,0-12.26-8.59c-2.36-1.54-3.77-3.67-5.33-5.92-3.49-5-1.21-9,1.62-12.95a60.88,60.88,0,0,1,6.16-7.16c7-7.12,7.84-15.6,5.46-24.72-2.16-8.29-4.55-16.53-6.8-24.79-.28-1-1-2-.32-3.4L28.38,97c-.17-3.84-.21-7.38-.52-10.9-.28-3.12-2.89-4.1-5.33-5-4-1.51-8.27-1.64-12.47-2.17-4.42-.56-5.2-2.06-3.44-6.78,2.83.22,5.77.22,8.61.73,4,.71,7.72,0,11.54-1a190.73,190.73,0,0,0,26.36-8.23c16.84-7,34.46-11.15,52.29-14.34,11.54-2.07,21.46-6.56,29.61-15a36.25,36.25,0,0,1,4.85-3.82c7.85-5.78,17.18-8.13,26.21-11.15,10-3.33,19.88-7,30-9.69a228.35,228.35,0,0,1,43.21-7.38c9.43-.68,18.29,1.63,27.32,3.25a3.25,3.25,0,0,1,1.47.6c3.83,3.33,7.62,6.7,11.26,10.34-6.82-1.21-12.1-6.57-19.6-7.06,4.67,9.24,8.31,18.6,16.71,24.85,4.95,3.7,10.66,5.23,16.61,5.66,6.57.48,13-1.15,19.12-3.29,10.55-3.65,21.3-4.16,32.38-3.56,56.49,3.06,113,5.71,169.57,7.06,2.46.06,4.86-.1,6.84-1.58a7.49,7.49,0,0,1,9.12.06c7.92,5.56,17.1,9,24.76,14.95,3.25,2.53,5.72,6,6,10,1,12.9,6.38,24.5,10.07,36.6,4.46,14.62,9.54,29,14.1,43.64a65.28,65.28,0,0,1,3,22.15c-.32,8.06-4.24,13.32-11.79,16.11-5.08,1.87-10.23,3.57-15,6.17-7.24,3.93-12.26,9.92-15.91,17.12-2.14,4.23-.16,8.74,4.55,10.75,3.78,1.61,7.67,3,11.48,4.57,4.58,1.89,7.84,4.59,9,10,1,4.91,1.59,9.48,0,14.29-.81,2.46-.94,5.16-1.85,7.58-3.62,9.65-1.69,18.67,2.68,27.52,1.21,2.43.89,5.11.76,7.69-.2,4.33.82,8.39,3.73,11.46,7.37,7.81,12,17.23,16.43,26.78a16.13,16.13,0,0,0,5.21,6.9c1.63,1.14,2.31,3.09.45,4.37-4.06,2.81-3.07,6.82-2.91,10.59.14,3.18,1.89,6,2.78,9,2.09,7.07-.38,13.35-6.45,17.47-5.35,3.63-11.54,5.49-17.1,8.67a56.62,56.62,0,0,0-13.34,10.83q-18.42,19.79-36.47,39.93a64,64,0,0,0-10,14c-2.69,5.42-2.69,10.81-1.49,16.43,1.41,6.69,3,13.34,4.25,20.05a11.3,11.3,0,0,0,4.3,7.36c1.28,1,2.94,2,1.86,4.24s-2.89,2.48-4.9,1.9c-13.58-3.9-27-8.47-38.88-16.18a210.76,210.76,0,0,0-35.23-18.78,8.86,8.86,0,0,0-4.38-.74c-6.27.63-12.54,1.26-18.82,1.59a9.54,9.54,0,0,0-7.61,3.75c-4.07,5.7-9.36,5.43-15.12,3.85a11.65,11.65,0,0,1-2.41-1c-9.21-4.88-18.48-4-27.58.06a18,18,0,0,0-10.27,11.12,21.72,21.72,0,0,1-1.4,2.85c-3.84-1.6-7.82-1.1-11.8-1-3.29.1-3.34-1.19-4.19-4.14-1.58-5.46-.83-12.32-8-15.14-5.23-2.07-7.09-7.74-10.83-11.46-2-2-4.31-2.41-6.47-1.34a36.17,36.17,0,0,0-7.43,5.21,18.69,18.69,0,0,0-3.78,4.85c-1.89,3.25-4.47,4.74-8.27,4.47-2.69-.2-4.55-1.15-5.4-3.79-.9-2.82-2.28-5.16-5.61-5.53-1.54-.17-1.82-1.35-1.89-2.59a13.82,13.82,0,0,0-3.85-8.42,59.78,59.78,0,0,1-8.64-13.36,20.8,20.8,0,0,0-12.74-10.85c-6.75-2.19-13.28-4.69-18.59-9.65-1.95-1.83-4.1-1.61-6.1.2-5.17,4.65-7,5.14-13.86-.82-3.94-3.45-6.83-7.79-10.41-12,2.07-.87,3.94-1.35,5.49-2.53a6.47,6.47,0,0,0,2.67-6.54c-.46-3.06-2.16-4.2-4.72-2.59-6.06,3.81-11.54,1.31-16.89-1.3-4.08-2-7.83-4.65-11.76-7a25.14,25.14,0,0,0-14.68-3.14,2.11,2.11,0,0,0-1.89.86c2.67,2.91,2.61,6.59,2.48,10.29-.07,1.81,1.6,3.5-.56,5.47-4,3.62-6.88,8.6-12.72,9.59a10,10,0,0,1-9.37-3.39q-8.69-9.5-17.24-19.11a5.81,5.81,0,0,1,.69-8.48c1.62-1.44,3.78-2.06,5.2-3.83,2.72-3.38,1.79-7.1,0-10-1.48-2.44-5-2-7.73-1.57-4,.63-7.84,1.66-11.86,2-1.53.13-2.83,0-3.84-1.15-6.11-7-15-8.74-23-12.09a57.27,57.27,0,0,0-8.76-2.43,10.74,10.74,0,0,1-8.18-7.56,11.88,11.88,0,0,1-.65-1.84c-1.07-6.77-6.65-8.82-11.79-11.38-1.07-.54-1.62,0-2.23.64-1.76,1.77-3.8,3.39-4.62,5.81C51.26,332.42,47.49,333.86,42.42,334.83Z"/></clipPath></defs><g class="b"><ellipse class="c" cx="380.77" cy="126.11" rx="538.49" ry="175.32"/><ellipse class="d" cx="380.77" cy="374.04" rx="538.49" ry="175.32"/></g><path d="M520.09,500.15a8.26,8.26,0,0,1-2.31-.36c-13.16-3.78-27-8.39-39.45-16.43a208,208,0,0,0-34.87-18.6,6.7,6.7,0,0,0-3.36-.6c-6.15.62-12.5,1.26-18.93,1.6a7.64,7.64,0,0,0-6,2.85c-5,7-11.61,6.28-17.43,4.68a14.38,14.38,0,0,1-2.84-1.13c-7.85-4.18-16.27-4.13-25.7.11a15.8,15.8,0,0,0-9.1,9.81,12.46,12.46,0,0,1-1,2.19l-.51,1a2.16,2.16,0,0,1-2.75,1c-2.8-1.17-5.83-1-9-.89l-1.88.07c-4.63.1-5.42-2.46-6.12-5l-.2-.7c-.39-1.34-.64-2.75-.9-4.16-.88-4.87-1.63-7.94-5.8-9.59-4-1.57-6.28-4.87-8.31-7.77a29.3,29.3,0,0,0-3.26-4.16c-1.32-1.31-2.62-1.62-4-.94a33.29,33.29,0,0,0-7,4.91,16.43,16.43,0,0,0-3.33,4.31,10.21,10.21,0,0,1-10.27,5.53c-3.86-.28-6.24-2-7.29-5.28-.87-2.74-1.9-3.83-3.81-4.05-1.61-.18-3.58-1.12-3.79-4.59a11.6,11.6,0,0,0-3.32-7.13A61.29,61.29,0,0,1,268.61,433a18.72,18.72,0,0,0-11.48-9.78c-6.34-2.05-13.59-4.7-19.39-10.12-.71-.65-1.59-1.22-3.21.24-5.94,5.33-9,5.91-16.7-.81a61.07,61.07,0,0,1-7.45-8.29c-1-1.3-2.07-2.61-3.17-3.9A2.14,2.14,0,0,1,208,397c.58-.24,1.14-.45,1.68-.66a13.07,13.07,0,0,0,3.33-1.6,4.36,4.36,0,0,0,1.85-4.52,2.76,2.76,0,0,0-.53-1.5,2.64,2.64,0,0,0-.93.41c-7.22,4.54-13.73,1.36-19-1.18a84.8,84.8,0,0,1-7.9-4.58c-1.33-.84-2.66-1.67-4-2.46a22.84,22.84,0,0,0-12.1-2.91c1.45,3,1.33,6.35,1.23,9.15a4.23,4.23,0,0,0,.2,1,5.33,5.33,0,0,1-1.46,5.95c-1,.9-1.89,1.88-2.81,2.86-2.79,3-5.95,6.4-11,7.25a12.19,12.19,0,0,1-11.31-4.06c-5.8-6.33-11.53-12.72-17.26-19.11a7.89,7.89,0,0,1-2.06-5.73,8.44,8.44,0,0,1,2.93-5.8,16.38,16.38,0,0,1,2.55-1.75,8.39,8.39,0,0,0,2.4-1.81c.63-.78,2.54-3.16-.15-7.56-.71-1.16-3.21-.94-5.57-.56-1.41.22-2.82.5-4.22.77a68.8,68.8,0,0,1-7.79,1.24,6.24,6.24,0,0,1-5.64-1.88c-4.3-4.94-10.17-7.05-16.38-9.29-2-.71-3.93-1.42-5.85-2.22a42,42,0,0,0-6.65-1.91l-1.79-.41a12.85,12.85,0,0,1-9.71-9l-.21-.51a7.08,7.08,0,0,1-.52-1.66c-.79-5-4.66-6.89-9.13-9.07l-1.19-.58-.05.06-1,1a11,11,0,0,0-3.12,4c-2.08,6.13-7.32,7.6-12.07,8.5a2.14,2.14,0,0,1-2.35-3L45,323.7c3.06-6.93,5.94-13.48,6.53-20.86.74-9.29-2-15.58-8.74-19.81a27,27,0,0,1-5.43-4.9c-.51-.56-1-1.12-1.56-1.66a4.84,4.84,0,0,1-1.53-4,4.36,4.36,0,0,0-.18-1.21L33.52,269c-4.19-16-4.26-16.28-1.54-27.32.66-2.68,1.49-6.06,2.47-10.56,2-9.1.25-15.24-5.58-19.91-3.08-2.47-4.17-6.06-3.31-11a14.07,14.07,0,0,1,1-3.31c3.45-7.76.8-11.72-6.47-17.63A134.26,134.26,0,0,0,8.2,171a21,21,0,0,1-5.9-6.3c-4.89-7-.79-12.71,1.41-15.76a64,64,0,0,1,6.37-7.41c5.85-5.91,7.41-13.11,4.92-22.67-1.34-5.14-2.77-10.26-4.2-15.37-.88-3.13-1.75-6.27-2.6-9.4,0-.17-.11-.33-.17-.49a5.27,5.27,0,0,1,0-4.36,2.14,2.14,0,0,1,2.69-1.12l15.42,5.74v-.27c-.09-2.51-.18-4.92-.39-7.32-.14-1.61-1.31-2.21-3.94-3.2a36.23,36.23,0,0,0-9.11-1.74c-1-.1-1.92-.2-2.88-.32-2.08-.26-4.36-.78-5.52-2.7s-.56-4.53.34-6.94A2.1,2.1,0,0,1,6.78,70l2.59.16a48,48,0,0,1,6.24.59c3.69.65,7.27-.11,10.64-1,9.88-2.5,18.1-4.84,26.06-8.13C67.1,55.54,83.36,51.08,105,47.19c11.87-2.13,21.17-6.84,28.44-14.38a28.1,28.1,0,0,1,4-3.24l1.13-.81c6.85-5.05,14.75-7.58,22.38-10,1.48-.48,3-.95,4.43-1.44,2.48-.83,5-1.68,7.45-2.53,7.38-2.53,15-5.14,22.68-7.2A232.61,232.61,0,0,1,239.17.12c7.94-.56,15.52.9,22.83,2.33,1.67.33,3.34.65,5,.95a5.24,5.24,0,0,1,2.5,1.09c4.3,3.75,7.87,7,11.36,10.44A2.14,2.14,0,0,1,279,18.55,33.65,33.65,0,0,1,269.76,15a42.61,42.61,0,0,0-6.16-2.71c0,.08.08.17.13.25,3.75,7.69,7.29,15,14,20,4.12,3.06,9.19,4.78,15.49,5.24,6.61.48,12.94-1.34,18.27-3.18,9.44-3.28,19.66-4.42,33.2-3.68,68.56,3.72,120.83,5.89,169.5,7.06,2.38.09,4.12-.12,5.51-1.16a9.56,9.56,0,0,1,11.63,0,113,113,0,0,0,11.17,6.61,98.55,98.55,0,0,1,13.67,8.41c4.16,3.23,6.53,7.22,6.85,11.55.66,9,3.67,17.63,6.59,26,1.17,3.37,2.35,6.74,3.39,10.15,2.41,7.89,5,15.87,7.59,23.58,2.21,6.68,4.41,13.35,6.51,20.05A67.72,67.72,0,0,1,590.23,166c-.35,8.87-4.79,14.93-13.19,18l-2.49.92a90,90,0,0,0-12.26,5.14c-6.31,3.42-11.22,8.73-15,16.2a5.05,5.05,0,0,0-.34,4.14,6.63,6.63,0,0,0,3.81,3.67c2.06.87,4.14,1.68,6.23,2.49,1.75.68,3.49,1.36,5.23,2.07,4,1.65,8.76,4.45,10.27,11.58,1.17,5.58,1.61,10.34,0,15.39a26.2,26.2,0,0,0-.77,3.29,26.8,26.8,0,0,1-1.11,4.38c-3,8-2.17,16.18,2.59,25.81,1.32,2.67,1.17,5.44,1,7.88l0,.87c-.19,4.15.87,7.48,3.14,9.89,7.44,7.88,12,17.05,16.82,27.35,1.2,2.58,2.43,4.6,4.5,6a5.37,5.37,0,0,1,2.48,4.28,4.4,4.4,0,0,1-2,3.62c-2.37,1.63-2.34,3.65-2.09,7.06,0,.56.08,1.11.11,1.67a16,16,0,0,0,1.47,5.16c.44,1.09.88,2.18,1.21,3.3,2.33,7.89-.33,15.12-7.3,19.86a64.34,64.34,0,0,1-10.06,5.24c-2.52,1.13-4.89,2.2-7.18,3.5a54.79,54.79,0,0,0-12.83,10.44c-13.15,14.12-25.07,27.17-36.44,39.9a62.74,62.74,0,0,0-9.65,13.51c-2.18,4.4-2.59,9-1.32,15q.72,3.33,1.45,6.66c1,4.47,2,8.94,2.82,13.44a9.22,9.22,0,0,0,3.5,6.05c1.46,1.1,4.24,3.2,2.48,6.87A5.53,5.53,0,0,1,520.09,500.15Zm-79.4-40.3a11.3,11.3,0,0,1,4.38.94,212.38,212.38,0,0,1,35.59,19c11.93,7.73,25.46,12.22,38.3,15.91,1.64.48,2,0,2.38-.77a1.2,1.2,0,0,0,.14-.43,5,5,0,0,0-1.07-1,13.64,13.64,0,0,1-5.4-8.88c-.85-4.46-1.82-8.89-2.79-13.32-.49-2.23-1-4.46-1.46-6.69-1.47-6.92-.93-12.59,1.68-17.83a66.81,66.81,0,0,1,10.28-14.47c11.39-12.74,23.33-25.82,36.5-40a58.64,58.64,0,0,1,13.85-11.23,80.75,80.75,0,0,1,7.55-3.69,60.47,60.47,0,0,0,9.4-4.89c5.41-3.67,7.39-9,5.6-15.09a30.77,30.77,0,0,0-1.07-2.91,19.64,19.64,0,0,1-1.79-6.59c0-.51-.06-1-.1-1.53-.25-3.48-.57-7.8,3.93-10.91.18-.2,0-.53-.46-.86a18.29,18.29,0,0,1-5.93-7.75c-4.63-9.95-9-18.8-16-26.2-3.07-3.25-4.55-7.76-4.3-13l0-.91c.12-2.1.23-4.08-.59-5.74-5.33-10.77-6.2-20.06-2.76-29.22a22.5,22.5,0,0,0,.91-3.68,30.2,30.2,0,0,1,.91-3.81c1.36-4.16,1-8.13-.09-13.18-.87-4.13-3.11-6.6-7.71-8.5-1.7-.7-3.42-1.37-5.14-2-2.13-.83-4.26-1.66-6.36-2.55a10.81,10.81,0,0,1-6.16-6.14,9.43,9.43,0,0,1,.54-7.55c4.2-8.27,9.7-14.17,16.8-18a94.14,94.14,0,0,1,12.84-5.4l2.47-.9c6.81-2.52,10.11-7,10.39-14.19A63.47,63.47,0,0,0,583,144.44c-2.09-6.69-4.29-13.34-6.49-20-2.55-7.73-5.2-15.73-7.62-23.67-1-3.35-2.18-6.67-3.34-10-3-8.6-6.11-17.5-6.82-27.07-.28-3.89-3-6.75-5.2-8.47a92.49,92.49,0,0,0-13.09-8,117.9,117.9,0,0,1-11.59-6.87,5.35,5.35,0,0,0-6.6-.09c-2.52,1.87-5.45,2-8.17,2-48.72-1.16-101-3.34-169.63-7.06-13-.7-22.68.36-31.57,3.45-5.74,2-12.57,3.92-20,3.4-7.15-.52-12.95-2.51-17.74-6.08-7.56-5.64-11.5-13.71-15.31-21.51-.67-1.36-1.34-2.73-2-4.09A2.15,2.15,0,0,1,258,8.21a2.19,2.19,0,0,1,1.92-1A25.29,25.29,0,0,1,269.33,10l-2.61-2.28h0s-.16-.06-.46-.12c-1.7-.3-3.39-.63-5.07-1-7.37-1.44-14.32-2.8-21.71-2.26a228.12,228.12,0,0,0-42.82,7.3c-7.53,2-15.09,4.62-22.4,7.12-2.5.86-5,1.71-7.49,2.55l-4.47,1.45c-7.64,2.45-14.86,4.76-21.15,9.39l-1.19.85a24.44,24.44,0,0,0-3.39,2.72c-7.92,8.22-18,13.33-30.77,15.63C84.43,55.24,68.44,59.62,54,65.61c-8.2,3.4-16.59,5.79-26.66,8.33-3.81,1-7.92,1.83-12.43,1a46.78,46.78,0,0,0-5.71-.54l-1-.05c-.39,1.39-.21,1.71-.2,1.73s.3.41,2.4.67c.93.12,1.85.21,2.78.31a40.49,40.49,0,0,1,10.18,2c2.51.94,6.3,2.37,6.7,6.83.22,2.48.31,5,.4,7.55l.13,3.45A2.14,2.14,0,0,1,27.64,99l-15.2-5.65c.81,3,1.65,6,2.49,9,1.43,5.14,2.87,10.28,4.21,15.45,2.88,11,.91,19.77-6,26.76a59,59,0,0,0-5.94,6.91c-3,4.15-4.08,6.91-1.6,10.48,1.64,2.36,2.85,4.11,4.74,5.34A143.91,143.91,0,0,1,22.78,176c6.86,5.6,12.62,11.55,7.67,22.7a9.8,9.8,0,0,0-.68,2.31c-.57,3.31,0,5.43,1.78,6.88,9.41,7.54,8.55,17.4,7.08,24.16-1,4.55-1.82,8-2.49,10.68-2.46,10-2.46,10,1.53,25.2l.58,2.24a7.79,7.79,0,0,1,.3,2.64c0,.17,0,.29.32.63.57.58,1.12,1.18,1.66,1.77a24,24,0,0,0,4.56,4.18c8.1,5.09,11.61,12.87,10.73,23.77-.65,8.11-3.82,15.29-6.88,22.25l-2.75,6.19a6.94,6.94,0,0,0,4.63-4.57A14.67,14.67,0,0,1,55,321.32l.92-.9a3.82,3.82,0,0,1,4.71-1.05l1.46.72c4.85,2.35,10.35,5,11.49,12.25a3.75,3.75,0,0,0,.25.69c.11.26.22.53.31.8A8.59,8.59,0,0,0,80.81,340l1.75.41a44.11,44.11,0,0,1,7.35,2.13c1.85.77,3.75,1.46,5.66,2.14,6.45,2.32,13.12,4.73,18.15,10.52.28.32.56.54,2,.41a67,67,0,0,0,7.32-1.17c1.45-.29,2.91-.58,4.38-.81,2.46-.39,7.6-1.21,9.9,2.57,2.74,4.49,2.68,8.92-.17,12.47a12,12,0,0,1-3.55,2.81,12.16,12.16,0,0,0-1.9,1.28,4.18,4.18,0,0,0-1.49,2.84,3.62,3.62,0,0,0,1,2.62q8.56,9.57,17.22,19.08a7.89,7.89,0,0,0,7.43,2.73c3.62-.61,5.91-3.09,8.57-5.94,1-1.07,2-2.14,3.06-3.12.51-.46.52-.52.21-1.67a8,8,0,0,1-.34-2.3c.13-3.76.08-6.59-1.92-8.77a2.14,2.14,0,0,1-.16-2.68,4.12,4.12,0,0,1,3.42-1.75c6.2-.39,11.4.73,16,3.43,1.39.81,2.76,1.66,4.12,2.52a80.29,80.29,0,0,0,7.5,4.36c5.81,2.82,10,4.45,14.81,1.41,2.25-1.43,4-1.17,5-.68s2.52,1.74,3,4.76a8.62,8.62,0,0,1-3.48,8.56,14,14,0,0,1-3.24,1.75l1.36,1.71a58.12,58.12,0,0,0,6.91,7.73c6.06,5.29,6.72,4.69,11,.84,2.93-2.63,6.3-2.71,9-.18,5.16,4.82,11.62,7.18,17.79,9.18a23,23,0,0,1,14,11.93,56.89,56.89,0,0,0,8.33,12.9,15.78,15.78,0,0,1,4.38,9.71,2.64,2.64,0,0,0,.12.76c4.69.37,6.42,4.09,7.29,6.83.43,1.33,1.14,2.14,3.51,2.31,2.89.25,4.74-.77,6.26-3.4a20.91,20.91,0,0,1,4.24-5.41,38.35,38.35,0,0,1,7.88-5.5c3.05-1.52,6.3-.87,8.92,1.74a33.5,33.5,0,0,1,3.76,4.75c1.84,2.64,3.58,5.14,6.36,6.24,6.61,2.61,7.63,8.26,8.45,12.81.23,1.27.45,2.53.79,3.72l.21.75a7.32,7.32,0,0,0,.62,1.75h0a2.89,2.89,0,0,0,1.25.1l1.82-.07a28.48,28.48,0,0,1,9,.57,5.25,5.25,0,0,0,.39-.88,20.22,20.22,0,0,1,11.43-12.43c10.73-4.82,20.37-4.81,29.46,0a10.86,10.86,0,0,0,2,.79c5.48,1.5,9.54,1.52,12.79-3,2-2.82,5.21-4.43,9.24-4.64,6.34-.33,12.63-1,18.72-1.58C440,459.87,440.36,459.85,440.69,459.85Z" transform="translate(121.68)"/></svg>