<?xml version="1.0" encoding="utf-8"?>
<!-- Generator: Adobe Illustrator 24.3.0, SVG Export Plug-In . SVG Version: 6.00 Build 0)  -->
<svg version="1.1" id="Layer_1" xmlns="http://www.w3.org/2000/svg" xmlns:xlink="http://www.w3.org/1999/xlink" x="0px" y="0px"
	 viewBox="0 0 400 300" style="enable-background:new 0 0 400 300;" xml:space="preserve">
<style type="text/css">
	.st0{fill:none;}
	.st1{fill:#C98017;}
	.st2{fill:#FBED60;}
	.st3{fill:#FABA31;}
	.st4{fill:#68C2EE;}
	.st5{fill:#0491BE;}
	.st6{fill:#68C2EF;}
	.st7{fill:#31798F;}
	.st8{fill:#C1BDBE;}
	.st9{fill:#6E6E6E;}
	.st10{fill:#6C6C6C;}
	.st11{fill:#BCBCBC;}
	.st12{fill:#E1E1E1;}
	.st13{fill:#0A0A09;}
	.st14{fill:#F3F2EF;}
	.st15{fill:#FFFFFF;}
	.st16{fill:#E30520;stroke:#000000;stroke-width:0.25;}
	.st17{fill:none;stroke:#A8A8A8;stroke-miterlimit:10;}
	.st18{fill:#E30520;}
	.st19{fill:#B4BABD;stroke:#B4BABD;stroke-width:0.263;}
	.st20{fill:#E9E9E9;stroke:#B4BABD;stroke-width:0.263;}
	.st21{fill:#E9E9E9;stroke:#B4BABD;stroke-width:0.263;stroke-linejoin:bevel;}
	.st22{fill:#B4BABD;}
	.st23{fill:#B4BABD;stroke:#B4BABD;stroke-width:0.263;stroke-miterlimit:3.9999;}
	.st24{fill:#E9E9E9;}
</style>
<rect y="16.6" class="st0" width="400" height="300"/>
<g>
	
		<ellipse transform="matrix(0.6003 -0.7998 0.7998 0.6003 110.6166 293.6722)" class="st1" cx="349.1" cy="36.2" rx="20.7" ry="37.8"/>
	
		<ellipse transform="matrix(0.6165 -0.7874 0.7874 0.6165 108.6772 289.5774)" class="st2" cx="351.6" cy="33.2" rx="18.3" ry="37.7"/>
	
		<ellipse transform="matrix(0.6165 -0.7874 0.7874 0.6165 108.6772 289.5774)" class="st3" cx="351.6" cy="33.2" rx="14.7" ry="30.2"/>
	<path class="st1" d="M341.2,31.2c-0.4,1.9,1.9,5,5,6.9c1.9,1.2,3.9,1.6,5.1,1.2l0.6-0.2l0.8,0.8c0.8,0.8,1.7,1.5,2.7,2.1
		c3.1,1.9,5.9,1.8,6.3-0.1l0.1-0.6l3.2,2c0.7,0.4,1.3,0.4,1.4,0c0.1-0.4-0.4-1.1-1.1-1.5l-3.2-2l0.5-2.6l3.2,2
		c0.7,0.4,1.3,0.4,1.3,0c-0.1-0.6-0.5-1.2-1.1-1.5l-3.2-2l0.4-2c0.1-0.4-0.4-1.1-1.1-1.5c-0.7-0.4-1.3-0.4-1.3,0l-0.4,2L345.1,25
		l0.4-2c0.1-0.4-0.4-1.1-1.1-1.5s-1.3-0.4-1.3,0l-0.4,2l-3.2-2c-0.7-0.4-1.3-0.4-1.4,0c-0.1,0.4,0.4,1.1,1.1,1.5l3.2,2l-0.5,2.7
		l-3.2-2c-0.7-0.4-1.3-0.4-1.3,0c0.1,0.6,0.5,1.2,1.1,1.5l3.2,2L341.2,31.2z M360.1,35.8l-0.9,4.8c-0.2,1.1-1.8,1.1-3.6,0.1
		c-1.8-1-3.1-2.9-2.9-4l0.9-4.8L360.1,35.8z M344.8,26.5l6.4,3.9l-1.1,6.2c-0.2,1.1-1.8,1.1-3.6,0.1c-1.8-1-3.1-2.8-2.9-4
		L344.8,26.5z"/>
</g>
<g>
	
		<ellipse transform="matrix(0.2709 -0.9626 0.9626 0.2709 97.1276 406.6292)" class="st4" cx="317" cy="139.2" rx="44.8" ry="21.7"/>
	
		<ellipse transform="matrix(0.2709 -0.9626 0.9626 0.2709 96.6599 402.4839)" class="st5" cx="314" cy="137.4" rx="43.9" ry="20.1"/>
	
		<ellipse transform="matrix(0.2709 -0.9626 0.9626 0.2709 96.6599 402.4839)" class="st6" cx="314" cy="137.4" rx="35.2" ry="16.1"/>
	<path class="st7" d="M316.5,129.7l3.6-9.1c-1-0.3-1.8-0.5-2.8-0.8c-0.5-0.2-0.8,0.2-1,1.1c-1.3,2.9-2.4,5.8-3.6,8.8
		c-0.8,1.9-1.4,2.8-2.4,3.2c-1.3,0.5-1.5,0.7-1.9,3.3l1.8-0.8c-1.2,3.2-2.5,5.9-3.6,9l9.7,2.7c0.2,0,0.4,0,0.6-0.5
		c0.6-1.4,1.2-2.8,2-4.3l-6.7-1.9c0.7-1.7,1.4-3.2,1.9-4.8c0.7-2,1.5-3,2.5-3.3c1.3-0.4,1.4-0.6,1.9-3.3L316.5,129.7z"/>
</g>
<g>
	<ellipse class="st8" cx="97.1" cy="231.3" rx="39.3" ry="45.1"/>
	<ellipse class="st9" cx="92.3" cy="229.8" rx="37.9" ry="43.7"/>
	<ellipse class="st8" cx="92.3" cy="229.8" rx="30.3" ry="35"/>
	<path class="st9" d="M98.9,209.5c4.1,0,7.2,3.4,7.4,8.3c0.2,4.5-2.8,8.2-6.4,8.7c-0.5,0.1-1.1,0.2-1.6,0.1c-1.7-0.2-3.1,1-3.2,2.6
		v0.5c0,2,1.2,3.4,3,3.3c3.6-0.2,6.8,2.5,7.6,6.5c0.8,3.1-0.2,6.4-2.5,8.6c-1.9,2.1-5.1,2.6-7.6,1.2c-2.8-1.3-4.2-3.9-4.5-7.4
		c-0.1-1.7,0.2-3.3,0.9-4.8c0.6-1.2,0.3-2.7-0.7-3.7c-0.8-0.9-2.1-1.1-3.1-0.5c-0.4,0.3-0.8,0.7-1.1,1.2c-1.9,3.1-4.5,4.3-7.6,3.6
		c-3.1-0.7-5.1-3.1-5.8-6.9c-1-5.2,3.1-10.4,7.7-10c3,0.2,5.1,2,6.4,5.1c0.4,1.3,1.8,2.1,3.1,1.7c0.1,0,0.1,0,0.2-0.1
		c0.2-0.1,0.2-0.1,0.4-0.2c1.5-0.9,2.1-2.9,1.2-4.5c-0.7-1.4-1.2-3-1.3-4.5C91.4,213.4,94.6,209.6,98.9,209.5z"/>
</g>
<g>
	<path class="st10" d="M290.9,47.8c1.9-0.4,4-0.8,5.9-0.8l0.4-0.1c0.3,0.1,0.6,0.1,0.9,0.1l0.2,0c0.7,0.5,2,0.4,3,0.6
		c0.6,0.1,0.8,0.6,1.5,0.4c0.9,0.8,2.4,1.4,3.4,2.3c0,0.1,0.1,0.2,0.2,0.2l0.1,0c0.4,0.7,0.9,1.3,1.5,1.9c0,0-0.3,0.3,0,0.2
		c0.8,1.8,1.2,3.8,1.4,5.9c-0.4,1.5-0.1,3.5-0.8,5.2c-3.1,15.7-30.2,36.5-44.4,27c0-0.2-0.4,0-0.5-0.3c-0.1-0.3,0-0.4-0.3-0.4
		c-1.2-0.4-2-2.9-2.7-3.6c0-0.3-0.2-0.6-0.4-0.8c0-0.5-0.3-1.1-0.1-1.6c-0.3-1.2-0.4-2.4-0.4-3.6c0.1-0.4,0.2-0.8,0.2-1.2
		c0.4-2.4,1-4.7,2.1-6.8c-0.1-0.4,0.5-0.7,0.2-1.1c0.1,0,0.2-0.1,0.2-0.2l0-0.1c1.3-2.2,2.9-4.7,4.3-7c0.2-0.1,0.4-0.3,0.4-0.5
		c2.8-3.1,5.9-6.1,9.2-8.7c0.5-0.1,1-0.5,1.2-0.9c1.1-0.5,2.1-1.2,3-2c0.2-0.1,0.4,0,0.4-0.3c1.1-0.2,2.2-1.2,3.4-1.6
		c0.1-0.4,0.7-0.1,0.8-0.6c0.2,0,0.1-0.2,0.3-0.3c0.3,0.4,0.5,0,0.8-0.2C287.9,49.1,289.1,48,290.9,47.8z M305.3,60.9
		c0.9-10.8-10.3-11.9-17.7-9.1c-18.8,7-30.2,28.8-19.8,35.5c5.3,3.9,12.9,1.2,18.5-1.3c9.2-5.4,17.9-13.7,19.2-24.7L305.3,60.9z"/>
	<path class="st11" d="M305.4,61.3c-1.3,11-10.1,19.4-19.2,24.7c-5.5,2.4-13.2,5.2-18.5,1.3c-1.8-2.5-2.6-5.4-2.3-8.5
		c1.5-8.4,6.6-13.7,12-18.8c3-1.7,6-4.5,9.6-5.4c6.8-3.3,17.5-2.9,18.3,6.3C305.1,60.9,305,61.4,305.4,61.3z M282.7,64.8
		C283,64.7,282.6,64.2,282.7,64.8c-3.8,2.1-7.3,4.4-11.1,6.7l7.8,3.6c-0.4-1.6-1-3.3-1.4-4.8C279.7,68.5,281.2,66.7,282.7,64.8z
		 M286.2,62.3c-2.4,2.2-4.4,5.2-6.8,7.7c0.1,0.9,0.4,1.9,0.8,2.9c0.3,1.2,0.6,2.4,1,3.5c0.3,0.1,0.3-0.3,0.5-0.3
		c5.5-3.1,11.3-6.2,16.8-9.6C294.6,65.2,290.3,63.2,286.2,62.3z"/>
	<path class="st11" d="M309.3,53.4l0,0.2c0.5,1.1,1.3,2.1,2.1,3c0,0.5,0.6,0.9,0.5,1.5c0.9,1.7,0.8,3.8,1.1,5.7
		c-0.4,2.5-1,5-1.8,7.4c-0.1,0-0.2,0.1-0.1,0.2l0,0.1c-0.8,1.1-1.2,3-2.2,4.1c-0.7,1.3-2,2.3-2.2,3.7c-0.1,0-0.2,0.1-0.2,0.2l0,0.1
		c-0.4,0-0.7,0.4-0.7,0.8c-0.1,0-0.2,0.1-0.2,0.3c-0.4,0-0.7,0.4-0.7,0.8c-0.1,0-0.2,0.1-0.2,0.3c-0.1,0-0.2,0.1-0.2,0.2l0,0.1
		c-0.3,0-0.4,0.2-0.5,0.5l0,0c-0.5,0.1-0.5,0.3-0.5,0.8c-2.6,2.1-5.1,4.6-7.8,6.7c-0.7,0.4-2.3,1-2.6,1.8c-1.5,0.4-2.9,1.8-4.6,2.2
		c-0.2,0.4-0.8,0.2-0.9,0.6c-3.8,1.3-7.7,2.6-11.7,2.5c-1.3,0-3-0.5-4.4-0.5c-0.2-0.4-0.8-0.4-1.4-0.6c-2.3-1.2-4.2-3-5.5-5.3
		c15.4,9.8,41.9-12.6,44.3-27.1c0.7-1.6,0.6-3.5,0.8-5.2c-0.1-2.1-0.6-4.1-1.4-5.9c0.6,0,0.7,0.7,0.9,1L309.3,53.4z"/>
	<path class="st12" d="M305.3,60.9c-1-9.6-12-9.2-18.3-6.3c-3.5,1-6.4,3.7-9.6,5.4c-5.8,5.4-10.6,11.1-12,18.8
		c-0.1,2.1,0.2,4.2,0.8,6.1c0.4,0.9,1.2,1.3,1.4,2.4c-4-2.4-4.3-7.3-3.4-11.6c3-11.7,14.1-20.4,23.3-23.9
		C297.8,48.3,306.2,52.1,305.3,60.9z"/>
	<path class="st12" d="M305.4,61.3c-0.1,0-0.3-0.1-0.3-0.2c0-0.1,0.1-0.3,0.2-0.3L305.4,61.3z"/>
	<path class="st10" d="M286.3,62.3c4,0.9,8.1,2.9,12.3,4.1c-5.3,3.3-11.2,6.5-16.8,9.6c1-2.4,3.5-5.1,5.1-7.4
		C286.8,66.6,286.5,64.5,286.3,62.3z"/>
	<path class="st13" d="M286.3,62.3c0.3,2.1,0.4,4.2,0.8,6.4c-1.7,2.3-4,4.8-5.1,7.4c-0.2,0-0.2,0.4-0.5,0.3c-0.4-1.2-0.7-2.3-1-3.5
		c-0.4-0.9-0.6-1.9-0.8-2.9C281.8,67.6,284,64.4,286.3,62.3z"/>
	<path class="st10" d="M282.7,64.8l-4.7,5.5c0.4,1.4,1,3.1,1.4,4.8l-7.8-3.6C275.4,69.3,278.9,66.9,282.7,64.8z"/>
</g>
<path class="st14" d="M203,24c7.2,7,7.3,18.5,0.3,25.7l0,0L203,50c-7.2,7.2-18.9,7.3-26.1,0.1c-7.2-7.2-7.3-18.9-0.1-26.1
	s18.9-7.3,26.1-0.1L203,24z M197,44c1.9-1.8,2.9-4.4,2.9-7c0.1-2.6-1-5.1-2.9-6.9c-1.9-1.9-4.4-2.9-7.1-2.8
	c-5.3-0.1-9.7,4.2-9.8,9.5V37c0,2.6,1,5.1,2.8,7c1.8,1.9,4.3,2.9,6.9,2.9C192.5,47,195.1,45.9,197,44z M239.2,26.3l-47.7,74.1
	c-0.8,1.5-2.4,2.5-4.1,2.4c-2.7-0.1-4.9-2.3-5-5c0.1-1,0.4-2,0.9-2.9l47.8-74.2c0.8-1.5,2.4-2.5,4.1-2.4c1.4,0,2.7,0.5,3.6,1.5
	c1,0.9,1.5,2.3,1.4,3.6C240.1,24.4,239.8,25.4,239.2,26.3L239.2,26.3z M219.4,97.4c-7.2-7.2-7.2-18.8,0-26l0.1-0.1
	c3.4-3.4,8.1-5.3,12.9-5.4c10.2-0.1,18.4,8.1,18.5,18.3c0.1,10.2-8.1,18.4-18.3,18.5C227.7,102.9,222.9,100.9,219.4,97.4z
	 M225.4,77.4c-3.9,3.7-4,9.8-0.3,13.7l0.1,0.1l0.2,0.2c3.8,3.8,9.9,3.9,13.7,0.1c2-1.9,3-4.6,2.9-7.4c-0.2-5.2-4.4-9.4-9.6-9.6
	C229.8,74.5,227.3,75.6,225.4,77.4L225.4,77.4z"/>
<g>
	<path class="st15" d="M105.7,54.5c1,0,2.1,0.5,3.1,0.8c1.2,0.3,2.5,0.6,3.8,0.6c1.1,0,2.2-0.2,3.3-0.9c0.3,0.8,0.4,1.2,0.6,1.6
		c0.4,0.8,0.9,1.5,1.9,1.5h0.1c0,0,0,0,0.1,0c0.5,0,1,0.3,1.5,0.4c0.9,0.2,0.9,0.8,0.8,1.5c-0.1,0.8,0.3,1.1,0.9,1.1
		c0.1,0,0.3,0,0.4-0.1c0.7-0.1,1.3-0.2,1.8-0.2c2.6,0,4.1,1.5,4.6,4.6c0.1,0.3,0.1,0.5,0.2,0.9h0.1c1.9,0,2.9,1.4,4.1,2.5
		c0.9,0.8,1.3,1.1,1.9,1.1c0.4,0,0.9-0.2,1.7-0.6c0.5-0.3,1-0.5,1.5-0.7c0.8-0.3,1.6-0.9,2.4-0.9c0,0,0,0,0.1,0c0.9,0,1,1.2,1.5,1.8
		s1.2,0.7,1.8,0.9c0.9,0.3,1.4,0.8,1.5,1.7c0.1,0.8,0.3,1.2,0.7,1.2c0.3,0,0.6-0.1,1-0.4c0.4-0.3,0.8-0.6,1.1-0.8
		c0.9-0.6,1.7-0.8,2.3-0.8c1.3,0,2.2,1.1,2.6,3c0.1,0.5,0.1,1.1,0.1,1.7c0.1,1.1,0.6,1.9,1.7,2.3c5.4,2,8.9,6.4,12.2,10.8
		c1.9,2.6,1,4.8-2.1,5.6c-1.6,0.4-3.1,1.4-4.7,1.9c-1.7,0.6-3.4,0.8-5.1,0.8c-2,0-3.9-0.3-5.9-0.6c-0.1,0-0.3-0.1-0.4-0.1
		c-0.8-0.1-1.4-0.2-1.8-0.2c-1.1,0-1.3,0.6-1.9,2.4c-0.7,1.9-1.6,3.6-3.7,4.1c-0.7,0.2-0.9,0.9-1.4,1.3c-0.1,0-0.1,0-0.2,0h-0.1
		c-0.8-0.6-1.5-0.8-2.3-0.8c-0.6,0-1.3,0.1-1.9,0.4c-0.7,0.3-1.7,0.8-2.4,0.8c-0.1,0-0.3,0-0.4-0.1c-0.5-0.2-1-0.3-1.4-0.3
		c-1.6,0-2.9,1-4.3,1.4c-0.9,0.3-1.4,0.9-2,1.4c-0.9,0.8-2,1.5-3.2,2.4c-0.3-1.9-1.5-2.7-3.2-2.9c-0.6-0.1-1-0.5-1.1-1.1
		c-0.1-0.8-0.6-1.1-1.3-1.2c-1.8-0.4-3.7-1.1-5.5-1.2c-2.7-0.2-5.3-0.8-7.8-1.8c-1.2-0.5-2.6-0.8-3.9-0.8c-0.9,0-1.7,0.1-2.5,0.3
		c-0.2,0.1-0.3,0.1-0.4,0.1c-0.4,0-0.7-0.2-0.9-0.7c-0.4-1.3-1.3-2-2.3-2.7c-0.7-0.4-1-1.1-0.9-1.8c0.5-0.8,2-0.3,2-1.6
		c-0.5-0.4-1.2-0.5-1.8-0.8c-0.6-0.2-1.2-0.4-1.3-1.2c-0.3-0.7-1-0.9-1.6-0.9c-2.1-0.1-4.2-0.6-6.4-0.6c-0.9,0-1.8,0.1-2.7,0.3
		c-0.4,0.2-0.9,0.3-1.3,0.3c-1.1,0-2.1-0.3-2.9-1c-0.9-0.7-1.1-1.8-0.3-2.6c1.4-1.2,1.9-2.5,1.6-4.3c-0.2-0.8,0.5-1,1-1.3
		c1.8-1,2.1-1.7,0.1-2.8c-1.1-0.6-1.6-1.5-1.9-2.7c0.5-0.4,0.9-0.7,1.4-1.1c2-1.8,1.6-5.5-0.8-6.6c-2.4-1.2-3.5-3.4-3.8-5.9
		c-0.2-1.9,1-3.2,2.9-3.2c0.1,0,0.1,0,0.2,0c0.8,0.1,1.6,0.1,2.3,0.1c1.2,0,2.4-0.2,3.6-0.8c0.1-0.1,0.3-0.1,0.4-0.1s0.3,0,0.4,0.1
		c0.2,0.1,0.4,0.1,0.6,0.1c0.8,0,1.4-0.4,1.8-1.2s1.2-1.1,2.1-1.2c2-0.3,4-0.6,6-0.9c0.4-0.1,0.9-0.1,1.4-0.1c0.3,0,0.6,0,1,0.1
		c0.2,0.1,0.4,0.1,0.5,0.1c0.5,0,0.9-0.2,1.2-0.6c0.3-0.5,0.8-0.7,1.3-0.7c0.1,0,0.3,0,0.4,0.1c1,0.3,2,0.4,3,0.4
		c0.9,0,1.7-0.1,2.6-0.4C105.2,54.5,105.5,54.5,105.7,54.5"/>
	<path class="st16" d="M170.3,148.4c-1.6-0.1-2.4-0.9-3.3-1.8c0.5-0.8,1.3-1.2,1.9-1.9c-0.8-1-1.4-2-1.3-3.4
		c0.1-0.9-0.8-1.1-1.6-0.9c-1.1,0.3-1.9,0.8-2.9,1.3c-2.4,1.2-5.4,0.3-6.6-1.9c-0.5-0.9,0.4-1.6,0.9-2.1c0.4-0.4,0.8-0.7,0.8-1.2
		c0.2-1.9,1.6-2.4,3.1-2.8c0.9-0.2,1.7-0.5,2.1-1.4c0.5-1.2,1.8-1.5,2.9-2.4c-1.3-0.7-2.6-1.1-3.4-2.3c0.4-0.9,1-1.3,2.1-1
		c1.6,0.5,3.5,0,5,1.3c0.1,0.1,0.3,0.1,0.4,0.1c1.1-0.9,2.6-0.3,3.7-1.1c0.7-0.4,1.3-0.6,2.1,0c1,0.7,1.3-0.1,1.4-0.9
		c0.1-1,0.2-1.9,1-2.6c1.2,0.1,1.6,1.9,3,1.2c1-0.4,2.1-0.8,3.2-1c-0.2-0.6-0.5-1-0.6-1.5c-0.1-0.8-0.1-1.6,1.1-1.4
		c1.1,0.1,1.5-0.9,2.3-1.4c1.1,0.7,1.7,1.7,1.9,2.9c0.2,0.8,0.7,1.5,1.4,1.9c0.8,0.5,1.5,1.1,1.8,2c0.5,1.4,0,2.4-1.5,2.6
		c-1.4,0.2-2.8,0.5-4.2,0.9c-1,0.3-1.8,0.7-2.1,1.8c-0.4,1.4-1.7,2.1-2.8,2.9s-2.3,1.7-3.5,2.5c-1.1,0.8-1.4,1.9-1,2.9
		c0.5,1.2,0.8,2.6,2.7,2.6c3.6-0.1,7.2,0.2,10.6-1.5c0.3-0.1,0.5-0.2,0.8-0.3c2.3-1.4,3.5-0.9,4,1.7c0.4,0.2,0.8,0.1,1-0.4
		c0.4-0.9,1.1-0.9,1.8-0.3c0.8,0.9,1.8,0.9,2.9,0.8c1.3-0.2,2.5-0.2,3.2,1.3c0.3,0.6,0.8,0.6,1.3,0.6c0.7,0,1.5-0.3,2.2,0.1
		c0.2,0.8-0.4,1.1-0.9,1.3c-1.4,0.5-1.7,1.5-1.6,2.9c0.1,0.8,0.1,1.7-0.1,2.4c-1.8,0.9-2.2-1.1-3.3-1.5c-0.4,0.3-0.7,0.8-0.4,1.2
		c0.8,1.3,0,2.3-0.6,3.3c-0.7,1-1.5,2-2.5,2.8c-0.6,0.4-0.9,1.1-0.9,1.8c0.6,0.2,1.3,0.2,1.9-0.1c2.2-0.8,4.4-1.6,6.5-2.6
		c0.7-0.4,1.6-0.4,2.3,0.1c1.3,0.8,2.4,0.4,3.3-0.8c0.8-1,1.7-1.7,3.1-1.4c0.8,0.2,1.3-0.4,1.7-1c2-3.1,5.3-3.9,8.5-5.1
		c0.6,1,0.2,1.6-0.5,2c-0.9,0.5-1.4,1.6-1.3,2.6c0.1,1.5-0.9,2.8-0.5,4.4c1,0.4,1.8,0.1,2.4-0.8c1-1.3,2.1-2.5,3.7-3.1
		c0.6-0.2,1.1-0.3,1.5,0.1c1.5,1.4,3.1,1.4,4.9,0.6c0.9,2,1.5,4.1,1.9,6.3c1.3-0.7,1.9-2,3.4-1.9c0.6,0.8,1.1,1.7,1.1,2.8
		c0,0.3,0,0.6,0.2,0.8c2.9,2.4,5.5,5.6,9.9,5.3c0.5,0,0.9-0.1,1.4-0.2c1.6-0.7,3-0.5,4,0.7c1.7,2,3.8,3.5,6.3,4.4
		c0.4,0.2,0.8,0.4,0.8,1c0,0.7,0,0.7-1,1.3c0.9,0.8,2,0.8,3.1,1c0.3,1.2-0.1,2.5,0.4,3.7c0.1,0.4-0.1,0.7-0.6,0.8
		c-0.4,0.1-0.8,0.2-1.3,0.3c0.4,0.9,0.9,1.6,1.6,2.3c0.8-0.2,0.8-1.4,1.8-1.3c1.1,0.2,2.3,0.4,3.2,1.3c1.3,1.1,3,1.9,3.6,3.8
		c0.1,0.3,0.5,0.4,0.8,0.6c0.7,0.5,1.5,1,2.1,1.6c0.5,0.5,1.3,1.2,0.8,2c-0.5,0.9-1.3,0.3-2,0.1c-1.1-0.3-2.2-0.8-3.3-1.1
		c-0.4-0.1-0.8-0.6-1.3-0.1c1.1,2.9,4.4,4.4,7,3.5c0.6-0.2,1.2-0.3,1.8-0.4c0.8-0.2,1.3,0,1.7,0.8s0.2,1.2-0.3,1.9
		c-2.3,3-5.3,5.4-7.6,8.4c-1.1,1.5-2.8,2.3-4.5,2.8c-1.3,0.4-1.5,1.4-0.4,2.6c2.1-2.3,4.7-2.6,7.7-2.2c0.2-0.9-0.1-1.6-0.3-2.4
		c-0.1-0.9,0-1.4,1.1-1.2c0.9,0.2,1.5,0.2,1.8-0.9c0.1-0.6,0.8-0.3,1.2-0.3c0.9,0.1,3.6-1.5,3.9-2.3c0.2-0.4,0-0.8-0.3-1.2
		c-0.3-0.4-0.8-0.8-0.8-1.4c0.5-0.6,1.1-0.4,1.6-0.2c2.2,1,4.4,1.5,6.8,1.8c1.7,0.3,2.9,1.4,4.1,2.5c0.7,0.6,1.3,1.3,1.9,2
		c0.4,0.4,0.8,0.7,1.4,0.7c1.2-0.1,1.9,0.5,2.6,1.5c1.3,2,2.6,3.8,4.8,5c2.3,1.2,4.1,3.3,5.5,5.6c0.9,1.5,1.7,3.1,3.3,4.4
		c-1.5,0.3-2.7,0.3-3.8,0.6c-1.1,0.3-2.3,0.3-3.2,1.4c0.8,0.2,1.5,0.2,2.1-0.1c1.2-0.6,1.9,0.2,2.6,0.9c0.9,0.9,1.7,2.4,1.1,3.2
		c-0.9,1.3-1.8,2.8-3.6,3.3c-1.1,0.3-2.2,0.7-2.7,2c0.9,1.8,2.5,1.8,4.1,1.8c0.5,0.8,0.4,1.4-0.3,2c-1.3,1.3-1.3,1.9,0.3,3.1
		c0.7,0.6,1.6,1,0.9,2.2c-0.7,1.1-1.5,1.4-2.8,0.6c-0.8-0.5-1.6-1.1-2.6-1.3c-0.6,0.8-0.6,1.4,0.4,1.8c0.8,0.3,1.1,0.9,0.8,1.8
		c-0.3,0.9-0.9,0.7-1.6,0.6c-0.5,0-1.1-0.3-1.6,0c-0.3,0.6,0,0.9,0.4,1.2c2.8,2.1,2.4,4.8,1.5,7.5c-0.4,1.2-0.6,2.4-0.6,3.6
		c0.1,0.9-0.5,1.1-1.2,1.3c-0.8,0.2-1.1-0.1-1.4-0.7c-0.6-1.5-0.9-3.1-2.3-4.2c-0.3-0.3-0.2-0.8,0-1.2c0.2-0.6,0.5-1.1,0.7-1.7
		c0.6-1.5,0.5-3-0.7-4.2c-1.5-1.5-3.4-2.5-5.3-3.6c-0.1,1.5-0.3,2.7,0.3,4c0.5,1,0.6,2.3-0.4,3.2c-0.8,0.7-2.6,0.3-3.6-0.5
		c-1.6-1.4-2.9-1.6-4.9-0.8c0.1,1.1,1.7,1.6,1.2,2.8c-0.5,1.3-1.9,0.5-3,1.1c0.5,1.7,1.2,3.3,2.7,4.5c1.4,1,2.8,2,4.2,3
		c1.3,0.9,1.4,2.5,1.4,4.1c-1.4-0.3-2,0.5-2.8,1.5c-0.8,1.1-2.1,1.8-3.4,1.8c-1.8,0-3.5,0.6-5.3-0.2c-0.8-0.4-1.8,0.3-2.6,0.6
		c-1.6,0.8-3,0.6-4.4-0.3c-2.5-1.7-5.4-2.6-8-4.1c-2.3-1.3-4.9-1.3-7.4-1.5c-1.3-0.1-2.7,0.4-3.9-0.3c-0.2-0.1-0.6,0-0.9,0.1
		c-2.2,0.8-4.1,0-5.8-1.2c-1.4-0.9-2.7-1.9-4.1-2.9c-0.7-0.6-1.4-1-2.4-1.1s-1.5-0.9-2.2-1.3c-0.3,0-0.4,0.2-0.6,0.4
		c-1.4,1.9-1.9,2-4.1,1.1c-1.3-0.5-2.5-1.2-3.9-1.6c-0.2-0.1-0.4-0.1-0.5-0.1c-2.3-0.1-4.1-0.9-5.6-2.7c-1.3-1.5-3.5-1.4-5.5-1.3
		c-1.7,0.1-3.4,0.3-4.9-0.9c-1-0.9-1.7-1.8-1.3-3.3c0.2-0.9-1.1-2.2-2.5-2.2c-2.6,0-4.9-1.3-7.3-1.9c-0.6-0.1-0.8-0.8-0.8-1.3
		c-0.3-1.6-0.9-2.8-2.5-3.3c-0.3-0.1-0.5-0.2-0.7-0.4c-1.1-1.5-2.8-2.1-4.6-2.4c-1.2-0.2-2.3-0.9-3.1-1.9c-0.9-1.1-2.1-2.1-3.6-2.4
		c-1.1-0.3-1.9-1.1-2.4-2.1c-0.6-1.1-1.4-1.9-2.6-2.4c-0.7-0.2-1.3-0.8-1.5-1.5c-0.6-1.9-2.6-2.7-3.6-4.3c-0.1-0.2-0.5-0.3-0.7-0.4
		c-2-0.6-2-0.6-1.7-2.5c-1.1-0.6-2.2-1.1-3.4-1.4c-1.3-0.3-2.3-1-3.3-1.7c-0.4-0.2-0.6-0.6-0.6-1c-0.1-1.3-0.8-2.4-2-2.9
		c-0.8-0.3-0.9-0.9-0.9-1.7c0.2-3-0.5-5.9-1.9-8.6c-0.3-0.7-0.8-1.3-1.4-1.8c-1.4-1.1-1.6-2.6-0.5-4.1c0.9-1.1,0.4-2.3,0.1-3.4
		c-0.2-0.7-0.6-1.4-0.8-2.2c1.4,0.6,2.6,1.5,4.1,1.5c0.4,0,0.8,0.1,1.3,0.1c1.6-0.2,1.8-0.6,1.4-2.2c-0.3-1.6-0.6-2.9-2.2-4
		c-1.8-1.3-2.1-3.6-2-5.8c0-0.8,0.3-1.5,1.2-1.7c1-0.2,1.9-0.5,2.8,0.6c1.4,1.7,1.4,1.6,2.5,1.6c0.1-0.9,0.2-1.8,0.4-2.7
		c0.1-0.6-0.2-0.8-0.6-0.9c-0.7-0.4-1.4-0.8-2.1-1.2c0.9-1.5,2.4-2.6,2.7-4.4c0.3-1.5,0.2-1.7-1.3-1.7c-0.5,0-1.1,0.1-1.4-0.4
		c-1.2-1.9-3.3-2.4-5.1-3.4c-0.7-0.4-1.8-0.4-1.7-1.7c0.1-0.8,1.8-2.5,2.6-2.5c2,0.2,2.8-1,3.3-2.6c0.3-1,1.1-1.8,1.8-2.6
		c0.3-0.4,0.8-0.9,0.3-1.3C169.3,151.5,169.4,150.1,170.3,148.4z"/>
	<path class="st17" d="M115.8,55c0.3,0.8,0.4,1.2,0.6,1.6c0.4,0.9,0.9,1.6,2.1,1.5c0.5,0,1.1,0.3,1.6,0.4c0.9,0.2,0.9,0.8,0.8,1.5
		c-0.1,0.9,0.4,1.3,1.3,1.1c3.8-0.8,5.8,0.6,6.5,4.4c0.1,0.3,0.1,0.5,0.2,0.9c1.9-0.1,2.9,1.4,4.2,2.5c1.5,1.3,1.8,1.4,3.5,0.5
		c0.5-0.3,1-0.5,1.5-0.7c0.8-0.3,1.6-0.9,2.4-0.9c0.9,0,1,1.2,1.5,1.8s1.2,0.7,1.8,0.9c0.9,0.3,1.4,0.8,1.5,1.7
		c0.2,1.3,0.6,1.4,1.8,0.7c0.4-0.3,0.8-0.6,1.1-0.8c2.7-1.8,4.3-0.6,4.9,2.1c0.1,0.5,0.1,1.1,0.1,1.7c0.1,1.1,0.6,1.9,1.7,2.3
		c5.4,2,8.9,6.4,12.2,10.8c1.9,2.6,1,4.8-2.1,5.6c-1.6,0.4-3.1,1.4-4.7,1.9c-3.8,1.2-7.4,0.8-11.1,0.2c-0.1,0-0.3-0.1-0.4-0.1
		c-2.8-0.4-2.9-0.4-3.8,2.2c-0.7,1.9-1.6,3.6-3.7,4.1c-0.7,0.2-0.9,0.9-1.4,1.3c-0.1,0-0.2,0.1-0.3,0c-1.3-1-2.7-1-4.3-0.4
		c-0.9,0.4-2.1,1-2.8,0.7c-2.3-0.9-3.9,0.6-5.7,1.1c-0.9,0.3-1.4,0.9-2,1.4c-0.9,0.8-2,1.5-3.2,2.4c-0.3-1.9-1.5-2.7-3.2-2.9
		c-0.6-0.1-1-0.5-1.1-1.1c-0.1-0.8-0.6-1.1-1.3-1.2c-1.8-0.4-3.7-1.1-5.5-1.2c-2.7-0.2-5.3-0.8-7.8-1.8c-2-0.8-4.3-1-6.4-0.4
		c-0.6,0.2-1.1,0.1-1.3-0.6c-0.4-1.3-1.3-2-2.3-2.7c-0.7-0.4-1-1.1-0.9-1.8c0.5-0.8,2-0.3,2-1.6c-0.5-0.4-1.2-0.5-1.8-0.8
		c-0.6-0.2-1.2-0.4-1.3-1.2c0-0.7-0.7-0.9-1.3-0.9c-3-0.1-6-1-9.1-0.3c-1.5,0.4-3,0.1-4.2-0.8c-0.9-0.7-1.1-1.8-0.3-2.6
		c1.4-1.2,1.9-2.5,1.6-4.3c-0.2-0.8,0.5-1,1-1.3c1.8-1,2.1-1.7,0.1-2.8c-1.1-0.6-1.6-1.5-1.9-2.7c0.5-0.4,0.9-0.7,1.4-1.1
		c2-1.8,1.6-5.5-0.8-6.6c-2.4-1.2-3.5-3.4-3.8-5.9c-0.2-1.9,1.1-3.3,3.1-3.2s4.1,0.4,5.9-0.7c0.3-0.1,0.6-0.1,0.8,0
		c1.1,0.3,1.9-0.2,2.4-1.1c0.4-0.8,1.2-1.1,2.1-1.2c2-0.3,4-0.6,6-0.9c0.8-0.1,1.5-0.3,2.3,0c0.6,0.3,1.3,0,1.7-0.5
		c0.3-0.6,1-0.8,1.7-0.7c1.9,0.4,3.7,0.6,5.6,0c1.3-0.4,2.6,0.3,3.8,0.7C111.1,55.8,113.5,56.4,115.8,55z"/>
	<g>
		<path class="st18" d="M120.7,60.9v10c0.5,0.1,1.1,0.5,1.7,1.1c0.5,0.5,0.9,1.1,1.1,1.7h10v13.6h-10c-0.1,0.5-0.5,1.1-1.1,1.7
			c-0.5,0.5-1.1,0.9-1.7,1.1v10h-13.6v-10c-0.5-0.1-1.1-0.5-1.7-1.1c-0.5-0.5-0.9-1.1-1.1-1.7h-10V73.7h10c0.1-0.5,0.5-1.1,1.1-1.7
			c0.5-0.5,1.1-0.9,1.7-1.1v-10H120.7L120.7,60.9z"/>
		<g>
			<rect x="119.7" y="62" class="st19" width="0.2" height="10"/>
			<rect x="119.7" y="89.2" class="st19" width="0.2" height="9.8"/>
			<rect x="122.5" y="86.2" class="st19" width="10" height="0.2"/>
			<rect x="95.4" y="86.2" class="st19" width="9.9" height="0.2"/>
			<rect x="132.4" y="74.8" class="st19" width="0.2" height="11.5"/>
			<rect x="108.2" y="99" class="st19" width="11.6" height="0.2"/>
		</g>
		<path class="st20" d="M132.4,74.8h-9.8c0-0.6-0.2-1.4-0.9-2.1c-0.6-0.6-1.5-0.9-2.1-0.9V62h-11.4v9.8c-0.6,0-1.4,0.3-2.1,0.9
			c-0.6,0.6-0.9,1.5-0.9,2.1h-9.8v11.4h9.8c0,0.6,0.3,1.4,0.9,2.1c0.6,0.6,1.5,0.9,2.1,0.9V99h11.5v-9.8c0.6,0,1.4-0.2,2.1-0.9
			c0.6-0.6,0.9-1.5,0.9-2.1h9.8V74.8H132.4z"/>
		<g>
			<path d="M107,73.6"/>
			<path class="st21" d="M107.1,72.2c0.1,0.5,1.2,1.3,1.4,1.4c-0.1,0.3-0.3,0.5-0.5,0.7c-0.1-0.6-1-1.5-1.5-1.7
				c0.2,0.2,0.9,1.6,1.2,2c-0.4-0.2-1.6-0.6-1.9-0.7c0-0.3,0-0.4,0.1-0.6c0.1,0.2,0.6,0.4,1,0.5c-0.1-0.3-0.5-1-0.8-1
				C106.1,72.7,106.6,72.3,107.1,72.2z"/>
			<path class="st20" d="M107.7,72.2c-0.4-0.1-1-0.1-1.5,0.5c-0.5,0.5-0.7,1.5-0.2,2c0.4,0.4,1.5,0.3,1.9-0.2c0.4-0.4,1-1.3,0.5-1.7
				c-0.1-0.1-0.2-0.1-0.4-0.1l0.6-0.6c0.6,0.6,0.1,1.7-0.7,2.5c-0.6,0.6-1.6,1-2.5,0.7c-0.7-0.5,0.1-2,0.6-2.6
				c0.4-0.4,1.2-0.9,2.1-0.9v0.1L107.7,72.2z"/>
			<path class="st22" d="M106.1,72.7c0.4-0.4,1.2-0.9,2.1-0.9v0.1l-0.5,0.3C107.3,72.1,106.7,72.2,106.1,72.7L106.1,72.7z"/>
		</g>
		<g>
			<path d="M107,87.3"/>
			<path class="st21" d="M105.7,87.3c0.5-0.1,1.3-1.2,1.4-1.4c0.3,0.1,0.5,0.3,0.7,0.5c-0.6,0.1-1.5,1-1.7,1.5
				c0.2-0.2,1.6-0.9,2-1.2c-0.2,0.4-0.6,1.6-0.7,1.9c-0.3,0-0.4,0-0.6-0.1c0.2-0.1,0.4-0.6,0.5-1c-0.3,0.1-1,0.5-1,0.8
				C106.2,88.3,105.7,87.8,105.7,87.3z"/>
			<path class="st20" d="M105.7,86.7c-0.1,0.4-0.1,1,0.5,1.5c0.4,0.4,1.5,0.6,1.9,0.2s0.3-1.5-0.2-1.9c-0.4-0.4-1.3-1-1.7-0.5
				c-0.1,0.1-0.1,0.2-0.1,0.4l-0.6-0.6c0.6-0.6,1.7-0.1,2.5,0.7c0.6,0.6,1,1.6,0.7,2.5c-0.5,0.7-2-0.1-2.6-0.6
				c-0.4-0.4-0.9-1.2-0.9-2.1h0.1L105.7,86.7z"/>
			<path class="st22" d="M106.1,88.3c-0.4-0.4-0.9-1.2-0.9-2.1h0.1l0.4,0.5C105.6,87.1,105.7,87.7,106.1,88.3L106.1,88.3z"/>
		</g>
		<g>
			<path d="M120.8,87.3"/>
			<path class="st21" d="M120.8,88.7c-0.1-0.5-1.2-1.3-1.4-1.4c0.1-0.3,0.3-0.5,0.5-0.7c0.1,0.6,1,1.5,1.5,1.7
				c-0.2-0.2-0.9-1.6-1.2-2c0.4,0.2,1.6,0.6,1.9,0.7c0,0.3,0,0.4-0.1,0.6c-0.1-0.2-0.6-0.4-1-0.5c0.1,0.3,0.5,1,0.8,1
				C121.7,88.3,121.2,88.7,120.8,88.7z"/>
			<path class="st20" d="M120.2,88.7c0.4,0.1,1,0.1,1.5-0.5c0.4-0.4,0.6-1.5,0.2-1.9s-1.5-0.3-1.9,0.2c-0.4,0.4-1,1.3-0.5,1.7
				c0.1,0.1,0.2,0.1,0.4,0.1l-0.6,0.6c-0.6-0.6-0.1-1.7,0.7-2.5c0.6-0.6,1.6-1,2.5-0.7c0.7,0.5-0.1,2-0.6,2.6
				c-0.4,0.4-1.2,0.9-2.1,0.9v-0.1L120.2,88.7z"/>
			<path class="st22" d="M121.7,88.3c-0.4,0.4-1.2,0.9-2.1,0.9v-0.1l0.5-0.4C120.6,88.8,121.2,88.7,121.7,88.3L121.7,88.3z"/>
		</g>
		<g>
			<path d="M120.8,73.6"/>
			<path class="st21" d="M122.2,73.6c-0.5,0.1-1.3,1.2-1.4,1.4c-0.3-0.1-0.5-0.3-0.7-0.5c0.6-0.1,1.5-1,1.7-1.5
				c-0.2,0.2-1.6,0.9-2,1.2c0.2-0.4,0.6-1.6,0.7-1.9c0.3,0,0.4,0,0.6,0.1c-0.2,0.1-0.4,0.6-0.5,1c0.3-0.1,1-0.5,1-0.8
				C121.7,72.7,122.1,73.2,122.2,73.6z"/>
			<path class="st20" d="M122.1,74.2c0.1-0.4,0.1-1-0.5-1.5c-0.4-0.4-1.5-0.6-1.9-0.2c-0.4,0.4-0.3,1.5,0.2,1.9
				c0.4,0.4,1.3,1,1.7,0.5c0.1-0.1,0.1-0.2,0.1-0.4l0.6,0.6c-0.6,0.6-1.7,0.1-2.5-0.7c-0.6-0.6-1-1.6-0.7-2.5c0.5-0.7,2,0.1,2.6,0.6
				c0.4,0.4,0.9,1.2,0.9,2.1h-0.1L122.1,74.2z"/>
			<path class="st22" d="M121.7,72.7c0.4,0.4,0.9,1.2,0.9,2.1h-0.1l-0.4-0.6C122.2,73.9,122.2,73.2,121.7,72.7L121.7,72.7z"/>
		</g>
		<g>
			<rect x="118.9" y="62.7" class="st19" width="0.2" height="12.8"/>
			<rect x="96.2" y="85.5" class="st19" width="12.8" height="0.2"/>
			<rect x="131.6" y="75.5" class="st19" width="0.2" height="10"/>
			<rect x="118.9" y="85.5" class="st19" width="0.2" height="12.8"/>
			<rect x="119.1" y="85.5" class="st19" width="12.8" height="0.2"/>
			<rect x="108.9" y="98.2" class="st19" width="10.1" height="0.2"/>
		</g>
		<polygon class="st20" points="108.9,85.5 96.2,85.5 96.2,75.5 108.9,75.5 108.9,62.7 118.9,62.7 118.9,75.5 131.6,75.5 
			131.6,85.5 118.9,85.5 118.9,98.2 108.9,98.2 		"/>
		<g>
			<ellipse class="st23" cx="114" cy="80.6" rx="8.4" ry="8.4"/>
			<path class="st19" d="M114,80.6"/>
		</g>
		<g>
			<path class="st20" d="M113.9,88.9c4.6,0,8.4-3.8,8.4-8.4s-3.8-8.4-8.4-8.4s-8.4,3.8-8.4,8.4C105.5,85.1,109.3,88.9,113.9,88.9z"
				/>
			<path class="st20" d="M113.9,80.5"/>
		</g>
		<g>
			<path class="st20" d="M113.9,86.3c3.3,0,5.9-2.6,5.9-5.9s-2.6-5.9-5.9-5.9c-3.3,0-5.9,2.6-5.9,5.9S110.7,86.3,113.9,86.3z"/>
			<path class="st20" d="M113.9,80.5"/>
		</g>
		<g>
			<g>
				<path class="st22" d="M109.1,84.4L109.1,84.4c-0.1-0.1-0.3-0.2-0.4-0.1l-1.1,0.7c-0.1,0.1-0.1,0.2-0.1,0.3h-0.1l-0.8-1.4
					l0.5-0.3v0.1c-0.3,0.2-0.3,0.5-0.2,0.7c0.1,0.1,0.1,0.2,0.1,0.2c0,0.1,0.1,0.1,0.2,0c0.1-0.1,0.5-0.3,0.5-0.3
					c-0.1-0.1-0.2-0.4-0.6-0.2V84l0.8-0.5v0.1c-0.4,0.3-0.2,0.5-0.1,0.6l0.5-0.3c0.1-0.1,0.1-0.2,0.1-0.3h0.1L109.1,84.4z"/>
			</g>
			<path class="st22" d="M107.8,81.6c-0.1-0.3-0.5-0.4-0.9-0.3c-0.4,0.1-0.8,0.3-0.8,0.6c0.1,0.3,0.5,0.4,0.9,0.3
				C107.4,82.1,107.8,82,107.8,81.6L107.8,81.6c0.2,0.6-0.2,1-0.7,1.1s-1-0.2-1.1-0.8s0.3-1,0.8-1.1C107.3,80.8,107.8,81,107.8,81.6
				L107.8,81.6z"/>
			<path class="st22" d="M106.9,79.4c0.1-0.4-0.1-0.6-0.3-0.6c-0.3-0.1-0.4,0.1-0.4,0.3c0,0.1,0,0.2,0.1,0.2L106.9,79.4L106.9,79.4
				l0.7,0.1c0.2,0,0.2-0.1,0.3-0.2h0.1l-0.2,0.9h-0.1c0-0.1,0-0.2-0.2-0.3l-1.3-0.3c-0.2,0-0.2,0.1-0.3,0.2h-0.1l0.2-0.9
				c0.1-0.4,0.3-0.8,0.6-0.7c0.3,0.1,0.4,0.3,0.4,0.5l0.9-0.4c0,0,0.1,0,0.1-0.1h0.1L108,79L106.9,79.4
				C107,79.4,107,79.5,106.9,79.4L106.9,79.4z"/>
			<g>
				<path class="st22" d="M109.4,76.4c-0.4,0.4-0.9,0.5-1.4,0.1c-0.4-0.4-0.4-0.9-0.1-1.3c0.1-0.2,0.3-0.2,0.4-0.3s0.1-0.1,0.1-0.2
					l0.1-0.1l0.4,0.4l-0.1,0.1c-0.4-0.2-0.7,0-0.9,0.1c-0.1,0.1-0.3,0.4,0.3,0.9C108.9,76.6,109.2,76.5,109.4,76.4
					c0.1-0.1,0.1-0.3,0-0.3c-0.1-0.1-0.2-0.2-0.3-0.3s-0.2-0.1-0.3,0l0,0l0.6-0.6l0,0c-0.1,0.1-0.1,0.2,0,0.3s0.3,0.3,0.3,0.3
					C109.7,75.9,109.5,76.2,109.4,76.4z"/>
			</g>
			<path class="st22" d="M110.7,74.5l0.3-0.1c-0.5-0.4-0.6-0.5-0.6-0.5s0,0.3,0.1,0.7L110.7,74.5L110.7,74.5l-0.2,0.2
				c0,0.1,0,0.2,0,0.3c0,0.2,0.1,0.2,0.3,0.1v0.1l-0.5,0.3v-0.1c0.1-0.1,0.1-0.2,0.1-0.3c-0.1-1.7-0.1-1.7-0.1-1.7l0.1-0.1
				c0,0,0.1,0.1,1.3,1.1c0.1,0.1,0.1,0.2,0.3,0.1v0.1l-0.8,0.4v-0.1c0.2-0.1,0.3-0.2,0.1-0.3c-0.1-0.1-0.2-0.1-0.2-0.2L110.7,74.5
				L110.7,74.5z"/>
			<g>
				<path class="st22" d="M113.2,72.5L113.2,72.5c-0.1,0.1-0.3,0.1-0.2,0.3l0.1,1.3c0,0.2,0.1,0.2,0.2,0.2s0.1,0,0.3,0
					c0.2,0,0.5-0.2,0.5-0.6h0.1l-0.1,0.6l-1.6,0.2v-0.1c0.1,0,0.3-0.1,0.3-0.3l-0.1-1.3c0-0.2-0.1-0.2-0.3-0.2v-0.1L113.2,72.5z"/>
			</g>
			<g>
				<path class="st22" d="M115.9,72.7L115.9,72.7c-0.1,0.1-0.3,0.1-0.3,0.2l-0.3,1.3c0,0.1,0,0.2,0.1,0.2s0.1,0,0.2,0.1
					c0.2,0.1,0.5,0,0.7-0.4h0.1l-0.3,0.6l-1.6-0.4v-0.1c0.1,0,0.3,0,0.3-0.1l0.3-1.3c0-0.1-0.1-0.2-0.2-0.3v-0.1L115.9,72.7z"/>
			</g>
			<path class="st22" d="M117.6,74.7l0.2,0.2c0.2-0.7,0.2-0.7,0.2-0.7s-0.2,0.1-0.6,0.4L117.6,74.7L117.6,74.7l-0.4-0.1
				c-0.1,0.1-0.1,0.1-0.2,0.1c-0.2,0.1-0.1,0.2,0,0.3v0.1l-0.5-0.3v-0.1c0.1,0,0.2,0,0.3-0.1c1.4-0.9,1.4-0.9,1.4-0.9l0.1,0.1
				c0,0,0,0.1-0.3,1.7c0,0.1-0.1,0.2,0.1,0.3v0.1l-0.8-0.5v-0.1c0.2,0.1,0.3,0.1,0.3-0.1c0-0.1,0-0.2,0.1-0.3l-0.3-0.2L117.6,74.7z"
				/>
			<g>
				<path class="st22" d="M119.9,75.2C120,75.1,119.9,75.1,119.9,75.2L119.9,75.2l0.4,0.4l-0.4,1.5l0.8-0.5c0.1-0.1,0.1-0.2,0-0.3
					h0.1l0.3,0.4H121c-0.1-0.1-0.2-0.1-0.3-0.1l-1.3,0.9l-0.1-0.1l0.5-1.9l-1,0.7c-0.1,0.1-0.1,0.2,0,0.3h-0.1l-0.3-0.3h0.1
					c0.1,0.1,0.2,0.2,0.3,0.1l1.1-0.8V75.2z"/>
			</g>
			<g>
				<path class="st22" d="M119.8,78.4L119.8,78.4c0.1,0.1,0.2,0.2,0.3,0.1l1.4-0.4V78c-0.1-0.2-0.3-0.4-0.6-0.3v-0.1l0.5-0.1
					l0.4,1.6l-0.4,0.1v-0.1c0.3-0.1,0.4-0.4,0.3-0.6v-0.1l-1.4,0.4c-0.3,0.2-0.3,0.3-0.2,0.4H120L119.8,78.4z"/>
			</g>
			<path class="st22" d="M121.1,80.7c0,0.5,0.1,0.6,0.4,0.6s0.4-0.1,0.4-0.3c0-0.1,0-0.2-0.1-0.2L121.1,80.7L121.1,80.7l-0.7-0.1
				c-0.2,0-0.2,0.1-0.2,0.2h-0.1l0.1-0.9h0.1c0,0.1,0,0.2,0.2,0.3l1.3,0.1c0.2,0,0.2-0.1,0.2-0.3h0.1l-0.1,0.9
				c0,0.4-0.2,0.8-0.6,0.8c-0.3,0-0.4-0.2-0.4-0.5l-0.9,0.5v0.1H120v-0.5L121.1,80.7C121,80.7,121,80.7,121.1,80.7L121.1,80.7z"/>
			<g>
				<path class="st22" d="M119.7,83.5c-0.1-0.1-0.3,0.1-0.3,0.1h-0.1l0.4-0.9h0.1c0,0.1-0.1,0.3,0.1,0.3c0.1,0.1,0.4,0.2,0.4,0.2
					s0.4,0,1-0.1c0.2,0,0.2,0,0.3-0.1h0.1l-0.4,0.8h-0.1c0.1-0.1,0.1-0.3-0.1-0.3c-0.3,0-0.8,0.1-0.8,0.1l0.4,0.6
					c0.1,0.2,0.3,0.1,0.3,0h0.1l-0.3,0.6h-0.1c0-0.1,0-0.2-0.1-0.4l-0.4-0.7C120.2,83.7,119.8,83.5,119.7,83.5z"/>
			</g>
		</g>
		<g>
			<path class="st22" d="M113.3,75.2c0.2-0.2,0.4-0.1,0.5-0.2c0.1-0.1,0.3,0.1,0.4,0.3c0.2,0,0.4,0,0.5-0.1s0.2-0.1,0.4,0.1
				c0.3,0.4,0.9,0.4,1.3,0.7c0.4,0.3,0.9,0.8-0.4,1.2c0.5,0.5,0.8,1,0.8,1.3c0.6-0.5,0.9-0.6,1.2-0.4c0.3,0.2,0.8,0.5,1.1,0.6
				c0.3,0.1,0.6,0.3,0.6,0.6c0,0.3-0.2,0.5-0.4,0.5s-0.3-0.1-0.3-0.3c-0.1-0.2-0.4-0.3-0.7-0.4c-0.4-0.2-0.4-0.2-0.7,0
				c-0.1,0.1-0.3,0.1-0.3,0.3c0,0.1,0.1,0.1,0.3,0.1c0.3,0,0.4,0,0.7,0.4c0.3,0.4,0.5,0.9,0.8,1s0.3,0.2,0.2,0.5
				c-0.1,0.3-0.2,0.4,0.1,0.5c0.3,0.1,0.3,0.3,0.1,0.5c-0.1,0.2-0.6,0.8-0.8,0.9c0,0.3,0.2,0.3,0.1,0.4c-0.2,0.2-0.3,0.5-1,0.5
				s-1.1-0.1-1.6,0.1c-0.5,0.2-1.4,0-2,0.4c-0.3,0.2-0.4-0.3-0.4-0.4c0-0.3-0.1-0.4-0.4-0.2c-0.2,0.1-0.3,0.1-0.4,0s-0.5-0.1-0.6,0
				c-0.2,0.1-0.4,0.4,0,0.6c1.1,0.4,2.3,0.8,3,1.1c0.2,0.1,0.2,0.4-0.3,0.3c-1.1-0.4-1.8-0.6-2.4-0.8c-0.3-0.1-0.4,0.4-1.1,0.3
				c-0.4-0.1-0.4-0.3,0-0.3s0.8-0.1,0.4-0.3c-0.6-0.2-1.1-0.4-1.8-0.6c-0.2-0.1-0.1-0.4,0.2-0.3c0.3,0.1,0.6,0.2,0.8,0.3
				c0.2,0.1,0.3,0,0.2-0.2c0-0.1,0.2-0.5,0.6-0.6c-0.1-0.2-0.4-0.5-0.5-0.5c-0.2-0.1-0.3-0.2-0.1-0.6c0.1-0.4,0.3-0.7-0.1-0.8
				s-0.8-0.2-0.9-0.7c-0.5-0.4-0.7-0.5-0.8-0.3c-0.1,0.1,0,0.2,0.1,0.3c0.3,0.2,0.3,0.6,0.1,1.5c0,0.1,0,0.2,0.1,0.3
				s0.1,0.6-0.2,0.9c-0.2,0.2-0.3-0.1-0.2-0.2c0-0.1,0-0.2-0.1-0.3s-0.2-0.1-0.1-0.4c0.1-0.2,0.1-0.3,0-0.4
				c-0.2-0.1-0.4-0.3-0.4-0.6c0-0.3,0.1-0.6-0.2-0.9c-0.3-0.3-0.1-0.6,0.1-0.9c0.3-0.3,0.7-0.6,1.4,0.4c0.1-0.2,0.4-0.6,0.7-0.8
				v-0.2c-0.2,0-0.4-0.3-0.4-0.5c-0.1-0.2-0.4-0.2-0.6,0.1c-0.3,0.3-0.4,0.5-0.6,0.5c-0.2-0.1-0.4-0.4-0.2-0.6
				c-0.1-0.2-0.2-0.5,0.1-0.7c-0.1-0.3-0.1-0.6,0.4-0.8c0-0.3,0.1-0.7,0.5-0.9c0-0.1-0.1-0.2-0.1-0.3c0.4-0.4,1.4-1,1.7-1.2
				c0.3,0,0.3,0.3,0.6,0.2c0.2-0.1,0.4-0.2,0.8-0.1C113.2,75.2,113.2,75.3,113.3,75.2z"/>
			<g>
				<path class="st24" d="M110.1,78.2c0-0.1,0.1-0.3,0.1-0.3c0.1-0.1-0.1-0.2-0.3,0c-0.3,0.2-0.6,0.3-0.8,0.4
					c-0.2,0.1-0.3,0.4,0.1,0.2c0.4-0.2,0.6-0.3,0.7-0.3C110,78.1,110,78.2,110.1,78.2C110,78.3,110.1,78.3,110.1,78.2z"/>
				<path class="st24" d="M110,78.4c-0.2,0.1-0.4,0.1-0.6,0.3c-0.3,0.2-0.3,0.3-0.3,0.4c0,0.2,0.1,0.2,0.3,0
					c0.2-0.2,0.5-0.5,0.7-0.6C110.1,78.6,110.1,78.3,110,78.4z"/>
				<path class="st24" d="M109.4,77.6c0.3-0.2,0.7-0.3,1-0.4c0.3-0.1,0.5,0.1,0.1,0.2s-1,0.4-1.2,0.6C109,78.1,109,77.8,109.4,77.6z
					"/>
				<path class="st24" d="M109.5,77.3c0-0.1,0.1-0.7,0.8-0.7c0.3,0,0.8-0.1,1-0.1s0.1,0.3-0.2,0.3C110.8,76.8,109.8,77.2,109.5,77.3
					z"/>
				<path class="st24" d="M111.7,76c-0.1,0.1-0.2,0.2-0.2,0.3c-0.4-0.1-0.5,0.1-0.7,0.1c-0.2,0-0.6,0-0.7,0c0.2-0.2,0.3-0.3,0.5-0.3
					c0.2,0.1,0.3,0.1,0.6-0.1C111.4,75.9,111.6,75.9,111.7,76z"/>
				<path class="st24" d="M110.4,75.9c0.4-0.3,0.8-0.4,1.1-0.3c0.4,0.1,0.8,0.1,0.9,0.1s0.3-0.1,0.4,0s0.2,0.2-0.2,0.1
					c-0.3,0-0.8,0-1-0.1s-0.4,0-0.5,0.1C111,75.9,110.6,76,110.4,75.9z"/>
				<path class="st24" d="M111.5,75.3c0.3,0.1,0.8,0.2,1,0.1s0.6-0.1,0.8,0.1l-0.1,0.1c-0.1-0.1-0.4-0.2-0.6-0.1
					c-0.2,0.1-0.5,0.1-0.7,0S111.5,75.4,111.5,75.3C111.3,75.4,111.4,75.3,111.5,75.3z"/>
				<path class="st24" d="M109.7,80.2c-0.3-0.4-0.6-0.3-0.8,0c-0.2,0.3,0.1,0.1,0.1,0.3c0,0.1,0.1,0.1,0.1,0.2
					c0,0.1,0.2,0.1,0.2-0.1c0-0.2,0.1-0.4,0.3-0.3C109.7,80.4,109.8,80.3,109.7,80.2z"/>
				<path class="st24" d="M109.2,80.9c0,0.1,0,0.2-0.1,0.2s-0.2,0.1,0,0.2c0.1,0.1,0.1,0.2,0,0.3s-0.1,0.4,0.1,0.5
					c0.1,0.1,0.2-0.1,0.3,0.1s0.2,0,0.2-0.3c0-0.3-0.1-0.3-0.2-0.2c-0.1,0.1-0.2,0.1-0.3,0c0-0.1-0.1-0.3,0.1-0.3s0.3,0,0.2-0.2
					C109.2,80.7,109.2,80.8,109.2,80.9z"/>
				<path class="st24" d="M113.4,75.4c0.1,0.1,0.1,0.5,0.1,0.6s0.1,0.1,0.1,0c0.1-0.2,0.4-0.1,0.4-0.3h-0.1c0,0-0.1,0-0.2-0.1
					C113.7,75.5,113.6,75.3,113.4,75.4z"/>
				<path class="st24" d="M115.7,76c-0.2,0-0.2,0-0.2,0.1s-0.1,0.1-0.1,0.1c-0.1,0-0.1,0.1,0,0.1c0.2,0,0,0.1,0.3,0.1
					c0.2,0,0.4,0,0.5-0.1c0.1,0,0.1-0.1,0-0.1C116,76.1,115.9,76,115.7,76z"/>
				<path class="st24" d="M114.5,75.6c-0.1,0.2-0.1,0.6-0.2,0.8c-0.1,0.2,0,0.7-0.1,0.9c-0.1,0.2-0.2,0.6,0.2,0.4
					c0.4-0.1,0.7-0.3,0.9-0.3c0.2-0.1,0.4-0.3,0.2-0.4c-0.2-0.1-0.4-0.3-0.6-0.6c-0.1-0.3,0-0.4,0.1-0.4c0.1,0.1,0.2,0.1,0.2-0.1
					c0-0.1,0.1-0.2,0.2-0.2s0.1-0.2,0-0.2s-0.1-0.1-0.2-0.1c0-0.1-0.1,0-0.2,0s-0.2,0-0.3,0C114.6,75.5,114.5,75.5,114.5,75.6z"/>
				<path class="st24" d="M113.1,76c-0.1,0.1-0.6,0.1-0.8,0.1c-0.2,0-0.4-0.1-0.4,0.2c-0.1,0.3-0.5,0.7-0.8,0.9
					c-0.2,0.2-0.6,0.8-0.7,1.1c-0.1,0.3,0,0.4,0.1,0.6s0.2,0.1,0.3,0.1c0.1-0.1,0.1-0.2,0-0.3c-0.1-0.2-0.1-0.4,0.1-0.5
					c0.2-0.2,0.6-0.5,0.7-0.7c0.1-0.2,0.2-0.3,0.3-0.3c0.1-0.1,0.2-0.1,0.3-0.3c0.1-0.1,0.3-0.2,0.4-0.1c0.1,0.1,0.1,0.2,0.1,0.3
					c0,0,0,0,0-0.1s-0.3-0.1-0.3,0.2c0,0.1,0,0.1,0.1,0c0.1,0,0.1-0.1,0.1,0.1c0,0.1,0.1,0.1-0.1,0.2s-0.2,0.1-0.1,0.2
					c0.1,0.1,0.1,0.2,0.2,0.1s0.2-0.1,0.2-0.1c0-0.1,0.2-0.1,0.3,0c0.1,0.1,0,0.2,0,0.3s0,0.1-0.1,0s-0.1-0.1-0.1,0s-0.1,0-0.1,0
					c-0.1,0-0.1,0.1-0.1,0.2c0,0.1,0,0.1,0.1,0.1s0.1,0.1,0.1,0.1c0.1,0,0.1,0.1,0,0.1c0,0,0,0.1-0.1,0.1s0-0.1-0.1-0.1
					s-0.3,0.1-0.2,0.3c0.1,0.2-0.1,0.3,0,0.4s0.2,0.1,0.4,0.1c0.2,0,0.5-0.1,0.7,0.1c0.2,0.1,0.4,0.2,0.7,0.2
					c0.3,0.1,0.4,0.1,0.5,0.4c0,0.2,0.1,0.3,0.3,0.5c0.2,0.2,0.3,0.4,0.3,0.5s0.1,0.3,0.2,0.3s0.3,0,0.3,0c0.1,0,0.2,0.1,0.1-0.1
					c-0.2-0.3-0.4-0.2-0.4-0.4c-0.1-0.2-0.2-0.4-0.3-0.6c-0.1-0.1-0.1-0.3-0.1-0.3c0-0.1-0.1-0.1-0.1-0.2c0-0.1-0.1-0.2-0.2-0.3
					c-0.2-0.1-0.4-0.2-0.7-0.3c-0.2,0-0.2-0.1-0.2-0.2s-0.1-0.1-0.1-0.1c0,0.1-0.1,0.1-0.1,0s-0.1-0.1-0.1-0.1c-0.1,0-0.2,0-0.1-0.1
					s0.1-0.3,0-0.4s-0.2-0.2-0.1-0.3s0-0.2,0.2-0.2c0.1,0,0-0.1,0.1-0.1s0.1-0.1,0.1-0.1c0-0.1,0.1-0.2,0-0.3c0-0.1,0-0.2,0-0.3
					c0.1-0.1,0-0.1,0-0.2l-0.1-0.1c0-0.1-0.1-0.1-0.1,0c-0.1,0.1-0.2,0.1-0.3,0c-0.1-0.1,0-0.2,0-0.3c0.1-0.1,0.1-0.2,0.1-0.3
					C113.3,75.9,113.2,75.9,113.1,76z"/>
				<path class="st24" d="M115.6,78.4c-0.1-0.1-0.3,0-0.4-0.1c-0.1,0-0.2-0.1-0.3-0.1s-0.2,0.1-0.3-0.1c-0.1-0.2-0.1-0.2-0.2,0
					c-0.1,0.2-0.2,0.2-0.3,0.2c-0.1,0.1-0.1,0.2,0.1,0.2c0.2,0.1,0.5,0.2,0.6,0.3s0.2,0,0.1-0.1c0-0.1-0.1-0.1-0.1-0.2
					c-0.1-0.1-0.1-0.1,0.1-0.1c0.1,0,0.1,0.1,0.3,0.1s0.5,0,0.7,0.3c0.2,0.2,0.3,0.4,0,0.5c-0.3,0.2-0.6,0.3-0.4,0.6
					c0.2,0.3,0.3,0.1,0.6,0.2c0.3,0.2,0.5,0.1,0.7,0s0.4,0,0.6-0.1c0.1,0,0.3-0.1,0.5,0.1s0.3,0.3,0.5,0.4c0.2,0.1,0.2,0.2,0.3,0.2
					c0.1,0,0-0.2-0.2-0.3c-0.1-0.1-0.2-0.3-0.4-0.4c-0.2-0.1-0.3-0.2-0.5-0.1c-0.2,0.1-0.6,0.1-0.7,0s-0.3-0.1-0.4-0.1
					s-0.2-0.1,0.1-0.2c0.2-0.1,0.3-0.3,0.2-0.6c-0.1-0.3-0.4-1-0.7-1.3c-0.1-0.1-0.3-0.1-0.3,0c-0.1,0.1-0.2,0.1-0.3,0.1
					c-0.1,0-0.2,0.1,0,0.1c0.2,0.1,0.1,0.1,0.2,0.2c0.1,0.1,0.3,0.2,0.3,0.3C115.7,78.4,115.6,78.5,115.6,78.4z"/>
				<path class="st24" d="M115.2,78.8c0.2-0.1,0.2,0.1,0.3,0.1c0.2,0,0.2,0.2,0.1,0.2s-0.2-0.1-0.3-0.1
					C115.2,78.9,115,78.9,115.2,78.8z"/>
				<path class="st24" d="M116.9,78.8c0,0.1,0.1,0.3,0.1,0.4c0.5-0.4,0.6-0.5,0.7-0.6s0.2-0.1,0.4,0.1c0.3,0.2,0.6,0.4,0.8,0.5
					c0.1,0,0.2,0.1,0.3,0.4c0.1,0.1,0.3,0.1,0.3-0.1s-0.1-0.3-0.2-0.4c-0.2-0.1-0.7-0.3-0.9-0.5c-0.3-0.2-0.5-0.5-0.7-0.3
					C117.3,78.4,117,78.7,116.9,78.8z"/>
				<path class="st24" d="M111.7,77.5c-0.1,0.2-0.4,0.4-0.6,0.6c-0.1,0.1-0.1,0.2-0.1,0.5c0.1,0.1,0.1,0.2,0.2,0.2s0.1,0.1,0.1,0.1
					s0,0.2,0.1,0.2c0.3,0,0.3-0.1,0.4-0.2c0.1,0,0.1,0,0.1-0.1s0.1,0,0.1-0.3c0-0.3-0.1-0.4,0-0.4c0.1-0.1,0.1-0.3,0.1-0.4
					C111.8,77.3,111.8,77.3,111.7,77.5z"/>
				<path class="st24" d="M110.8,79.1C110.7,79.1,110.8,79.2,110.8,79.1C111,79.1,110.9,79,110.8,79.1
					C110.9,79,110.8,79.1,110.8,79.1z"/>
				<path class="st24" d="M111.1,79.3c0,0.1,0.1,0.3,0.1,0.3c0,0.1,0.2,0.2,0.3,0.3c0.2,0.1,0.3,0.1,0.4,0.2s0.2-0.1,0-0.2
					s-0.5-0.5-0.7-0.6C111.1,79.1,111.1,79.2,111.1,79.3z"/>
				<path class="st24" d="M111.7,79.3c0.1-0.1,0.3-0.2,0.6-0.1c0.3,0.1,1.1,0.2,1.4,0.2s0.6,0.1,0.7,0.3c0.1,0.2,0.1,0.4,0.2,0.5
					s0.1,0.1,0,0.2s0.1,0.1-0.3,0.1s-0.7-0.1-0.9-0.1s-0.3,0-0.4-0.1s-0.4-0.1-0.3,0.1c0,0.2,0.1,0.4,0.2,0.4c0.1,0.1,0.1,0.2,0,0.4
					c-0.1,0.2-0.6,0.8-0.9,1c-0.2,0.2-0.3,0.5,0,0.7c0.3,0.2,0.8,0.5,0.9,0.7c0.1,0,0.2,0,0.3,0.1s0.1,0.1,0,0.2s-0.2,0-0.3-0.1
					s-0.2-0.1-0.3-0.1s-0.2,0-0.2-0.1c-0.1-0.1-0.6-0.6-0.8-0.7c-0.2-0.1-0.4-0.2-0.3-0.5c0.2-0.3,0.2-0.5,0.2-0.6s-0.1-0.3,0-0.4
					s-0.1-0.3-0.3-0.4c-0.3,0-0.4,0-0.5-0.2c-0.1-0.1-0.3-0.3-0.4-0.2c0-0.3,0.2-0.8,0.6-1c0.2,0.2,0.6,0.5,1,0.6s0.5,0,0.3-0.3
					C112.1,79.8,111.9,79.4,111.7,79.3z"/>
				<path class="st24" d="M112.9,82.6c-0.1,0-0.3,0-0.3,0c-0.1-0.1-0.2-0.2-0.3-0.2c-0.1,0-0.3,0.1-0.1,0.2c0.2,0.1,0.3,0.3,0.4,0.3
					S112.9,82.6,112.9,82.6z"/>
				<path class="st24" d="M113.2,81.4c0,0.1-0.2,0.3-0.3,0.3c-0.1,0.1-0.2,0.3-0.2,0.6c0,0.3,0.1,0.2,0.3,0.2c0.6-0.1,1.2,0,1.4,0.1
					s0.5,0.1,0.3-0.1s-0.9-0.3-1.2-0.3c-0.3,0-0.4,0.1-0.4-0.1c0-0.2,0-0.2,0.1-0.3s0.2-0.2,0.1-0.3
					C113.4,81.4,113.2,81.3,113.2,81.4z"/>
				<path class="st24" d="M112.1,83.7c-0.4,0.1-0.6,0.3-0.5,0.6l0.3,0.1C111.8,84.2,111.8,83.9,112.1,83.7
					C112.2,83.8,112.2,83.7,112.1,83.7z"/>
				<path class="st24" d="M117.7,80.5c-0.2-0.1-0.3-0.3-0.4-0.3c-0.2,0-0.4,0-0.6,0.1c-0.1,0.1-0.3,0.2-0.5,0.1
					c-0.2,0-0.3,0.1-0.1,0.2c0.2,0.1,0.5,0.4,0.1,0.5c0.1,0.1,0.4,0.3,0.6,0.4c0.3-0.2,0.6-0.5,0.4-0.7c-0.2,0-0.2-0.1-0.2-0.2
					s0-0.1,0.1-0.1c0.1,0.1,0.3,0.1,0.5,0.1C117.6,80.6,117.7,80.6,117.7,80.5z"/>
				<path class="st24" d="M118,80.6c0,0.1,0,0.2-0.1,0.3c0.1,0,0.1,0.1,0.1,0.1s0.2,0.1,0.2-0.1S118.1,80.7,118,80.6z"/>
				<path class="st24" d="M118.6,80.9c0.3,0.2,0.2,0.4,0.3,0.6c0.1,0.2-0.1,0.1-0.3,0.1c-0.2,0-0.4,0.1-0.5,0.3
					c0,0.3-0.1,0.1-0.2,0.1c-0.1-0.1-0.3,0.1-0.4,0s-0.3-0.1-0.2,0.1c0,0.2,0.1,0.3,0.2,0.2c0.1,0,0.1,0.1,0.2,0.1s0.2,0,0.2,0.2
					c0,0.2-0.1,0.3,0,0.4c0.1,0.1,0.1,0.1,0.2,0c0-0.1,0.2-0.3,0.3-0.3c0.1-0.1,0.1-0.2,0-0.1s-0.2-0.1-0.2,0
					c-0.1,0.1-0.1,0-0.1-0.2c0.1-0.1,0.2-0.3,0.3-0.2c0.1,0.1,0.1,0.1,0.2,0c0-0.1,0.1-0.1,0.1,0s0.1,0.3,0.1,0.2
					c0.1-0.1,0.1-0.2,0.2-0.3c0-0.1,0.1-0.1,0.2,0.1c0.1,0.1,0,0.2-0.2,0.4c-0.2,0.2-0.6,0.6-0.9,0.8c-0.1,0.1-0.2,0.1-0.3,0
					c-0.1-0.1-0.2-0.1-0.1,0.1c0,0.1,0,0.2,0.1,0.3c-0.6,0.1-1.3,0.1-1.5,0.1c-0.2-0.1-1-0.1-1.1,0c0.1-0.2,0-0.4-0.1-0.4
					s-0.2,0.1-0.2,0.1c0,0.1,0.1,0.2-0.2,0.3c-0.3,0-0.4,0.1-0.4,0.3c0,0.2,0.1,0.1,0.1,0.1c0.1-0.1,0.3,0,0.5,0s0.7,0.1,0.3,0.1
					c-0.4,0-0.8,0.1-0.9,0.2c-0.1,0.1-0.3,0.1-0.3-0.1c0-0.2,0.1-0.3,0.2-0.4s0.1-0.2,0.1-0.3s-0.1,0-0.2,0.1s-0.6-0.1-0.4-0.6
					c-0.1-0.1-0.2,0-0.3,0c-0.1,0.1-0.4,0-0.2-0.2c0.2-0.2,0.7-0.6,1.2-0.3c0.6,0.3,0.6,0.1,0.9,0.2c0.3,0.2,0.9,0.4,1.3,0.4
					c0.3,0,0.6-0.2,0.1-0.5c-0.1-0.1-0.3-0.1-0.4-0.1c0-0.1,0-0.2,0-0.3c0.2,0.1,0.4,0.3,0.4,0.1c0-0.2,0.1-0.2,0.2-0.1
					c0.1,0.1,0.4,0.1,0.3-0.1s-0.2-0.6,0-0.6c0.3,0,0.3-0.2,0.4-0.1c0.1,0.1,0.6,0.2,0.6,0c0.1-0.1,0-0.4,0.2-0.4s0.2-0.1,0.2-0.2
					C118.5,81,118.5,80.9,118.6,80.9z"/>
				<path class="st24" d="M116.4,81.8c-0.1-0.3-0.8-0.6-1.4-0.6s-0.6,0.1-0.6,0.1c0.1,0.1,0.1,0.1,0.1,0.2s0,0.1,0.2,0.1
					s0.6-0.1,0.7-0.1c0.1,0.1,0.3,0.1,0.3,0.1c0.1,0,0.3,0.1,0.1,0.2c-0.1,0.1-0.1,0.1,0.1,0.2C116.1,81.9,116.6,82.1,116.4,81.8z"
					/>
				<path class="st24" d="M115.3,81.8c-0.1,0-0.3,0.1-0.2,0.1c0.1,0,0.2,0,0.3,0C115.4,81.9,115.4,81.8,115.3,81.8z"/>
				<path class="st24" d="M115.7,82c0.1,0,0.4,0.1,0.6,0.2c0.1,0.1,0.1,0.2-0.1,0.1c-0.1-0.1-0.3-0.1-0.5-0.1s-0.2-0.1-0.2-0.1
					C115.6,82,115.6,82,115.7,82z"/>
				<path class="st24" d="M113.4,81.9c0.1-0.1,0.3-0.6,0.2-0.8c0.4-0.1,1.2-0.2,1.3-0.3C115,80.9,115,81,115,81
					c-0.7,0-1.1,0.1-1.2,0.3c-0.1,0.2-0.1,0.3,0.1,0.3c0.1-0.1,0.3,0,0.3,0.2c0,0.2,0.2,0.2,0.4,0.1c0.1,0.1,0.1,0.2,0.1,0.3
					s0.1,0.1,0.3,0.1s0.4,0.2,0.4,0.3s0,0.2,0.1,0.1c0.1-0.1,0.2,0,0.1,0.1s-0.3,0.2-0.4,0c-0.1-0.2-0.8-0.6-1.2-0.6
					C113.6,82.1,113.4,82,113.4,81.9z"/>
				<path class="st24" d="M118.3,83.6c-0.1,0-0.3,0.1-0.4,0.1c-0.1,0.1-0.1,0.2-0.2,0.2s0,0.1,0.2,0.1
					C118.1,83.9,118.3,83.8,118.3,83.6C118.4,83.7,118.4,83.6,118.3,83.6z"/>
				<path class="st24" d="M109.5,82.8c0,0.2,0,0.3,0.1,0.3c0.1,0.1,0.1,0.1,0.2,0.2c0.1,0,0.1-0.1,0.1-0.2c0-0.1,0.1-0.2-0.1-0.3
					C109.5,82.7,109.5,82.7,109.5,82.8z"/>
			</g>
			<g>
				<path class="st22" d="M114.5,76.8c0,0.1,0,0.4,0,0.5s0.2,0.1,0.2-0.1C114.7,77,114.7,76.9,114.5,76.8
					C114.5,76.8,114.5,76.7,114.5,76.8z"/>
				<path class="st22" d="M111.9,81.6c0,0.1-0.1,0.3-0.1,0.4c0,0.1,0.1,0.1,0.2,0s0.1-0.3,0.1-0.3C112.1,81.6,111.9,81.5,111.9,81.6
					z"/>
				<path class="st22" d="M112.8,81.2c0.1-0.1-0.1-0.4-0.3-0.4c-0.2,0-0.3,0.1-0.2,0.1c0.2,0.1,0.3,0.1,0.3,0.2
					C112.7,81.2,112.8,81.3,112.8,81.2z"/>
			</g>
		</g>
		<g>
			<path class="st20" d="M113.9,87.6"/>
			<path class="st20" d="M117.6,86.1c-0.7,0-0.7,1,0,1C118.3,87.1,118.3,86.1,117.6,86.1z"/>
			<path class="st20" d="M110.2,86.1c0.7,0,0.7,1,0,1C109.5,87.1,109.5,86.1,110.2,86.1z"/>
			<path class="st20" d="M113.5,87.2c-0.3-0.8,1.1-0.8,0.8,0c0.8-0.3,0.8,1.1,0,0.8c0.3,0.8-1.1,0.8-0.8,0
				C112.7,88.3,112.7,86.9,113.5,87.2z"/>
		</g>
	</g>
	<path class="st16" d="M164,110.4c-2.1,0.1-2.8-1.1-3.2-2.9c-1.7,0.9-2.9,0.3-3.9-0.9c0.1-0.1,0.1-0.2,0.1-0.3
		c1-0.9,2.5-1.2,3.3-2.5c0.2-0.4,0.8-0.4,1.3-0.4c2.4,0.3,4.8-0.1,7.1,0c0.5,0,1-0.2,1.5-0.3c0.3,1.1,1.1,1.5,2.1,1.9
		c2.1,0.8,3.1,2.6,3.8,4.5c0.5,1.2-0.4,2.6-2.1,3c-3.5,0.9-7,1.6-10.6,2c-0.4,0.1-1,0.1-1.3-0.4s0.2-0.8,0.5-1.2
		C163.2,112.1,163.7,111.3,164,110.4z"/>
	<g>
		<path d="M187.5,119.1c1.1,0.7,1.7,1.7,1.9,2.9c0.2,0.8,0.7,1.5,1.4,1.9c0.8,0.5,1.5,1.1,1.8,2c0.5,1.4,0,2.4-1.5,2.6
			c-1.4,0.2-2.8,0.5-4.2,0.9c-1,0.3-1.8,0.7-2.1,1.8c-0.4,1.4-1.7,2.1-2.8,2.9s-2.3,1.7-3.5,2.5c-1.1,0.8-1.4,1.9-1,2.9
			c0.5,1.2,0.8,2.6,2.7,2.6c0,0,0,0,0.1,0c3.6-0.1,7.2,0.2,10.6-1.5c0.3-0.1,0.5-0.2,0.8-0.3c0.8-0.5,1.5-0.8,2.1-0.8
			c1,0,1.6,0.8,1.9,2.5c0.1,0.1,0.3,0.1,0.4,0.1c0.3,0,0.4-0.2,0.6-0.5c0.3-0.5,0.6-0.8,0.9-0.8c0.3,0,0.6,0.2,0.9,0.5
			c0.6,0.6,1.3,0.9,2,0.9c0.3,0,0.6,0,0.9-0.1c0.3-0.1,0.7-0.1,1-0.1c0.9,0,1.7,0.3,2.2,1.3c0.3,0.6,0.8,0.6,1.3,0.6h0.1
			c0.4,0,0.8-0.1,1.2-0.1c0.3,0,0.6,0.1,0.9,0.2c0.2,0.8-0.4,1.1-0.9,1.3c-1.4,0.5-1.7,1.5-1.6,2.9c0.1,0.8,0.1,1.7-0.1,2.4
			c-0.3,0.2-0.6,0.2-0.8,0.2c-1.1,0-1.6-1.4-2.5-1.8c-0.4,0.3-0.7,0.8-0.4,1.2c0.8,1.3,0,2.3-0.6,3.3c-0.7,1-1.5,2-2.5,2.8
			c-0.6,0.4-0.9,1.1-0.9,1.8c0.3,0.1,0.6,0.1,0.9,0.1c0.4,0,0.7-0.1,1-0.2c2.2-0.8,4.4-1.6,6.5-2.6c0.3-0.2,0.7-0.3,1.1-0.3
			c0.4,0,0.9,0.1,1.2,0.3c0.5,0.3,0.9,0.4,1.3,0.4c0.7,0,1.4-0.4,1.9-1.1c0.7-0.9,1.4-1.5,2.5-1.5c0.2,0,0.4,0,0.6,0.1
			c0.1,0,0.2,0,0.3,0c0.6,0,1-0.5,1.4-1c2-3.1,5.3-3.9,8.5-5.1c0.6,1,0.2,1.6-0.5,2c-0.9,0.5-1.4,1.6-1.3,2.6
			c0.1,1.5-0.9,2.8-0.5,4.4c0.3,0.1,0.6,0.2,0.8,0.2c0.6,0,1.1-0.3,1.6-0.9c1-1.3,2.1-2.5,3.7-3.1c0.3-0.1,0.5-0.2,0.8-0.2
			s0.5,0.1,0.8,0.3c0.8,0.8,1.8,1.1,2.7,1.1c0.7,0,1.4-0.2,2.2-0.6c0.9,2,1.5,4.1,1.9,6.3c1.2-0.6,1.8-1.9,3.2-1.9
			c0.1,0,0.1,0,0.2,0c0.6,0.8,1.1,1.7,1.1,2.8c0,0.3,0,0.6,0.2,0.8c2.8,2.3,5.3,5.4,9.4,5.4c0.2,0,0.4,0,0.5,0s0.1,0,0.2,0
			c0.4,0,0.8-0.1,1.2-0.2c0.6-0.3,1.2-0.4,1.7-0.4c0.9,0,1.7,0.4,2.3,1.1c1.7,2,3.8,3.5,6.3,4.4c0.4,0.2,0.8,0.4,0.8,1
			c0,0.7,0,0.7-1,1.3c0.9,0.8,2,0.8,3.1,1c0.3,1.2-0.1,2.5,0.4,3.7c0.1,0.4-0.1,0.7-0.6,0.8c-0.4,0.1-0.8,0.2-1.3,0.3
			c0.4,0.9,0.9,1.6,1.6,2.3c0.8-0.2,0.8-1.3,1.7-1.3c0.1,0,0.1,0,0.2,0c1.1,0.2,2.3,0.4,3.2,1.3c1.3,1.1,3,1.9,3.6,3.8
			c0.1,0.3,0.5,0.4,0.8,0.6c0.7,0.5,1.5,1,2.1,1.6c0.5,0.5,1.3,1.2,0.8,2c-0.2,0.4-0.4,0.5-0.7,0.5c-0.4,0-0.9-0.3-1.3-0.4
			c-1.1-0.3-2.2-0.8-3.3-1.1c-0.3-0.1-0.5-0.3-0.8-0.3c-0.1,0-0.3,0.1-0.5,0.3c0.8,2.4,3.2,3.8,5.4,3.8c0.6,0,1.1-0.1,1.6-0.3
			c0.6-0.2,1.2-0.3,1.8-0.4c0.2-0.1,0.4-0.1,0.5-0.1c0.5,0,0.9,0.3,1.2,0.9c0.4,0.8,0.2,1.2-0.3,1.9c-2.3,3-5.3,5.4-7.6,8.4
			c-1.1,1.5-2.8,2.3-4.5,2.8c-1.3,0.4-1.5,1.4-0.4,2.6c1.6-1.8,3.5-2.4,5.6-2.4c0.7,0,1.3,0.1,2,0.2c0.2-0.9-0.1-1.6-0.3-2.4
			c-0.1-0.8,0-1.3,0.7-1.3c0.1,0,0.2,0,0.4,0c0.3,0.1,0.5,0.1,0.7,0.1c0.5,0,0.9-0.2,1.1-1c0.1-0.3,0.3-0.4,0.5-0.4
			c0.2,0,0.5,0.1,0.7,0.1c0,0,0,0,0.1,0c0.9,0,3.5-1.5,3.8-2.3c0.2-0.4,0-0.8-0.3-1.2c-0.3-0.4-0.8-0.8-0.8-1.4
			c0.3-0.3,0.6-0.4,0.8-0.4c0.3,0,0.6,0.1,0.8,0.2c2.2,1,4.4,1.5,6.8,1.8c1.7,0.3,2.9,1.4,4.1,2.5c0.7,0.6,1.3,1.3,1.9,2
			c0.4,0.4,0.8,0.7,1.4,0.7h0.1c0.1,0,0.1,0,0.2,0c1.1,0,1.8,0.5,2.4,1.5c1.3,2,2.6,3.8,4.8,5c2.3,1.2,4.1,3.3,5.5,5.6
			c0.9,1.5,1.7,3.1,3.3,4.4c-1.5,0.3-2.7,0.3-3.8,0.6c-1.1,0.3-2.3,0.3-3.2,1.4c0.4,0.1,0.8,0.1,1.1,0.1c0.4,0,0.7-0.1,1-0.2
			c0.3-0.2,0.6-0.2,0.8-0.2c0.7,0,1.3,0.6,1.8,1.1c0.9,0.9,1.7,2.4,1.1,3.2c-0.9,1.3-1.8,2.8-3.6,3.3c-1.1,0.3-2.2,0.7-2.7,2
			c0.8,1.6,2.2,1.8,3.7,1.8c0.1,0,0.3,0,0.4,0c0.5,0.8,0.4,1.4-0.3,2c-1.3,1.3-1.3,1.9,0.3,3.1c0.7,0.6,1.6,1,0.9,2.2
			c-0.4,0.7-0.9,1.1-1.5,1.1c-0.4,0-0.8-0.1-1.3-0.4c-0.8-0.5-1.6-1.1-2.6-1.3c-0.6,0.8-0.6,1.4,0.4,1.8c0.8,0.3,1.1,0.9,0.8,1.8
			c-0.2,0.6-0.5,0.7-0.9,0.7c-0.2,0-0.4,0-0.7-0.1c-0.4,0-0.7-0.1-1.1-0.1c-0.2,0-0.4,0-0.5,0.1c-0.3,0.6,0,0.9,0.4,1.2
			c2.8,2.1,2.4,4.8,1.5,7.5c-0.4,1.2-0.6,2.4-0.6,3.6c0.1,0.9-0.5,1.1-1.2,1.3c-0.2,0.1-0.3,0.1-0.5,0.1c-0.5,0-0.7-0.3-0.9-0.8
			c-0.6-1.5-0.9-3.1-2.3-4.2c-0.3-0.3-0.2-0.8,0-1.2c0.2-0.6,0.5-1.1,0.7-1.7c0.6-1.5,0.5-3-0.7-4.2c-1.5-1.5-3.4-2.5-5.3-3.6
			c-0.1,1.5-0.3,2.7,0.3,4c0.5,1,0.6,2.3-0.4,3.2c-0.3,0.3-0.7,0.4-1.2,0.4c-0.8,0-1.8-0.3-2.4-0.8c-1-0.9-1.9-1.3-2.9-1.3
			c-0.6,0-1.2,0.1-2,0.4c0.1,1.1,1.7,1.6,1.2,2.8c-0.5,1.3-1.9,0.5-3,1.1c0.5,1.7,1.2,3.3,2.7,4.5c1.4,1,2.8,2,4.2,3
			c1.3,0.9,1.4,2.5,1.4,4.1c-0.2,0-0.4-0.1-0.5-0.1c-1.1,0-1.6,0.7-2.3,1.6c-0.8,1.1-2.1,1.8-3.4,1.8h-0.1c-1,0-2.1,0.2-3.1,0.2
			c-0.7,0-1.4-0.1-2.1-0.4c-0.2-0.1-0.4-0.1-0.6-0.1c-0.7,0-1.4,0.4-2.1,0.8c-0.7,0.3-1.3,0.5-2,0.5c-0.9,0-1.7-0.3-2.5-0.8
			c-2.5-1.7-5.4-2.6-8-4.1c-2.3-1.3-4.9-1.3-7.4-1.5c-0.1,0-0.3,0-0.4,0c-0.6,0-1.2,0.1-1.8,0.1s-1.2-0.1-1.8-0.4
			c-0.1-0.1-0.2-0.1-0.3-0.1c-0.2,0-0.5,0.1-0.7,0.1c-0.6,0.2-1.2,0.3-1.8,0.3c-1.5,0-2.8-0.7-4.1-1.5c-1.4-0.9-2.7-1.9-4.1-2.9
			c-0.7-0.6-1.4-1-2.4-1.1s-1.5-0.9-2.2-1.3c0,0,0,0-0.1,0c-0.3,0-0.4,0.2-0.5,0.4c-0.8,1.1-1.4,1.6-2.1,1.6c-0.5,0-1.1-0.2-1.9-0.6
			c-1.3-0.5-2.5-1.2-3.9-1.6c-0.2-0.1-0.4-0.1-0.5-0.1c-2.3-0.1-4.1-0.9-5.6-2.7c-1-1.1-2.4-1.3-3.9-1.3c-0.5,0-1.1,0-1.6,0.1
			c-0.6,0-1.1,0.1-1.7,0.1c-1.1,0-2.2-0.2-3.2-1c-1-0.9-1.7-1.8-1.3-3.3c0.2-0.9-1.1-2.2-2.5-2.2c-2.6,0-4.9-1.3-7.3-1.9
			c-0.6-0.1-0.8-0.8-0.8-1.3c-0.3-1.6-0.9-2.8-2.5-3.3c-0.3-0.1-0.5-0.2-0.7-0.4c-1.1-1.5-2.8-2.1-4.6-2.4c-1.2-0.2-2.3-0.9-3.1-1.9
			c-0.9-1.1-2.1-2.1-3.6-2.4c-1.1-0.3-1.9-1.1-2.4-2.1c-0.6-1.1-1.4-1.9-2.6-2.4c-0.7-0.2-1.3-0.8-1.5-1.5c-0.6-1.9-2.6-2.7-3.6-4.3
			c-0.1-0.2-0.5-0.3-0.7-0.4c-2-0.6-2-0.6-1.7-2.5c-1.1-0.6-2.2-1.1-3.4-1.4c-1.3-0.3-2.3-1-3.3-1.7c-0.4-0.2-0.6-0.6-0.6-1
			c-0.1-1.3-0.8-2.4-2-2.9c-0.8-0.3-0.9-0.9-0.9-1.7c0.2-3-0.5-5.9-1.9-8.6c-0.3-0.7-0.8-1.3-1.4-1.8c-1.4-1.1-1.6-2.6-0.5-4.1
			c0.9-1.1,0.4-2.3,0.1-3.4c-0.2-0.7-0.6-1.4-0.8-2.2c1.4,0.6,2.6,1.5,4.1,1.5c0.3,0,0.7,0.1,1,0.1c0.1,0,0.2,0,0.3,0
			c1.6-0.2,1.8-0.6,1.4-2.2c-0.3-1.6-0.6-2.9-2.2-4c-1.8-1.3-2.1-3.6-2-5.8c0-0.8,0.3-1.5,1.2-1.7c0.4-0.1,0.9-0.2,1.3-0.2
			c0.5,0,1,0.2,1.5,0.8c1.1,1.4,1.4,1.6,2,1.6c0.1,0,0.3,0,0.5,0c0.1-0.9,0.2-1.8,0.4-2.7c0.1-0.6-0.2-0.8-0.6-0.9
			c-0.7-0.4-1.4-0.8-2.1-1.2c0.9-1.5,2.4-2.6,2.7-4.4c0.3-1.4,0.2-1.7-1.1-1.7c-0.1,0-0.1,0-0.2,0c-0.1,0-0.3,0-0.4,0
			c-0.4,0-0.8-0.1-1-0.4c-1.2-1.9-3.3-2.4-5.1-3.4c-0.7-0.4-1.8-0.4-1.7-1.7c0.1-0.8,1.8-2.5,2.6-2.5l0,0c0.1,0,0.3,0,0.4,0
			c1.7,0,2.4-1.1,2.9-2.7c0.3-1,1.1-1.8,1.8-2.6c0.3-0.4,0.8-0.9,0.3-1.3c-1.6-1.1-1.6-2.5-0.6-4.3c-1.6-0.1-2.4-0.9-3.3-1.8
			c0.5-0.8,1.3-1.2,1.9-1.9c-0.8-1-1.4-2-1.3-3.4c0.1-0.7-0.5-1-1.1-1c-0.2,0-0.4,0-0.6,0.1c-1.1,0.3-1.9,0.8-2.9,1.3
			c-0.7,0.4-1.5,0.5-2.3,0.5c-1.8,0-3.5-0.9-4.4-2.5c-0.5-0.9,0.4-1.6,0.9-2.1c0.4-0.4,0.8-0.7,0.8-1.2c0.2-1.9,1.6-2.4,3.1-2.8
			c0.9-0.2,1.7-0.5,2.1-1.4c0.5-1.2,1.8-1.5,2.9-2.4c-1.3-0.7-2.6-1.1-3.4-2.3c0.3-0.7,0.7-1.1,1.4-1.1c0.2,0,0.4,0,0.7,0.1
			c1.6,0.5,3.5,0,5,1.3c0.1,0.1,0.3,0.1,0.3,0.1s0,0,0.1,0c1.1-0.9,2.6-0.3,3.7-1.1c0.4-0.3,0.7-0.4,1.1-0.4c0.3,0,0.6,0.1,1,0.4
			c0.3,0.2,0.5,0.3,0.6,0.3c0.5,0,0.7-0.6,0.8-1.2c0.1-1,0.2-1.9,1-2.6c1,0.1,1.4,1.4,2.4,1.4c0.2,0,0.4-0.1,0.6-0.1
			c1-0.4,2.1-0.8,3.2-1c-0.2-0.6-0.5-1-0.6-1.5c-0.1-0.8-0.1-1.5,0.8-1.5c0.1,0,0.2,0,0.3,0s0.1,0,0.2,0
			C186.3,120.5,186.7,119.6,187.5,119.1 M187.5,118c-0.2,0-0.4,0.1-0.6,0.2c-0.4,0.2-0.7,0.5-0.9,0.8c-0.3,0.3-0.5,0.5-0.6,0.5
			c0,0,0,0-0.1,0c-0.2,0-0.3,0-0.5,0c-0.8,0-1.3,0.4-1.6,0.6c-0.6,0.7-0.4,1.7-0.4,2.1c0,0,0,0,0,0.1c0,0.2,0.1,0.4,0.2,0.5
			c-0.7,0.2-1.4,0.5-2.1,0.8l0,0c-0.1,0.1-0.1,0.1-0.1,0.1c-0.1,0-0.3-0.3-0.5-0.4c-0.4-0.4-1-0.9-1.8-1h-0.1
			c-0.3,0-0.5,0.1-0.8,0.3c-1,0.9-1.2,2.1-1.3,3c0,0.1,0,0.2,0,0.3c-0.4-0.3-0.9-0.4-1.3-0.4c-0.7,0-1.3,0.3-1.7,0.6
			c-0.3,0.2-0.7,0.2-1.2,0.3c-0.6,0.1-1.3,0.1-2,0.4c-1.1-0.7-2.3-0.8-3.3-0.9c-0.6-0.1-1.2-0.1-1.6-0.3c-0.4-0.1-0.7-0.2-1-0.2
			c-0.8,0-1.8,0.3-2.4,1.8c-0.2,0.4-0.1,0.8,0.1,1.1c0.6,0.8,1.3,1.3,2.1,1.7c-0.7,0.4-1.3,0.9-1.7,1.9l0,0
			c-0.1,0.3-0.4,0.5-1.3,0.7c-1.1,0.3-3.7,0.8-4,3.8l0,0c-0.1,0.1-0.2,0.3-0.3,0.4c-0.1,0.1-0.1,0.1-0.2,0.2l-0.1,0.1
			c-0.6,0.5-1.9,1.8-1,3.3c1,1.9,3.1,3.1,5.3,3.1c1,0,1.9-0.2,2.8-0.6c0.3-0.1,0.5-0.3,0.7-0.4c0.7-0.3,1.3-0.7,2-0.8
			c0.1,0,0.2,0,0.3,0c0,1.3,0.4,2.3,0.9,3.1c-0.5,0.4-1,0.8-1.4,1.4c-0.3,0.4-0.2,1,0.2,1.4l0.1,0.1c0.6,0.6,1.3,1.3,2.4,1.7
			c-0.5,1.6-0.1,2.9,1.1,4l0,0l0,0c-0.1,0.1-0.1,0.2-0.2,0.3c-0.7,0.8-1.5,1.6-1.8,2.8c-0.5,1.6-1,1.9-1.8,1.9c-0.1,0-0.2,0-0.3,0
			l0,0h-0.1c-1.4,0-3.5,2.2-3.6,3.5c-0.2,1.8,1.3,2.4,1.9,2.6c0.2,0.1,0.3,0.1,0.4,0.2c0.5,0.3,0.9,0.5,1.4,0.7
			c1.4,0.6,2.5,1.2,3.3,2.4l0,0c0.6,0.9,1.6,0.9,1.9,0.9c0.1,0,0.1,0,0.2,0c0.1,0,0.1,0,0.2,0l0,0c0.1,0,0.1,0,0.2,0c0,0,0,0,0.1,0
			c0,0.2-0.1,0.3-0.1,0.4l0,0c-0.1,0.9-0.7,1.6-1.4,2.4c-0.4,0.5-0.8,1-1.2,1.6c-0.2,0.3-0.2,0.6-0.1,0.9c0.1,0.3,0.3,0.6,0.6,0.7
			l0.5,0.3c0.6,0.3,1.1,0.6,1.6,0.9c-0.1,0.4-0.2,0.8-0.2,1.3c-0.3-0.3-0.5-0.6-0.7-0.8c-0.6-0.8-1.4-1.2-2.4-1.2
			c-0.5,0-0.9,0.1-1.3,0.2h-0.2l0,0c-0.6,0.1-2,0.7-2,2.8c-0.1,2.1,0.1,5.1,2.5,6.8c1.2,0.8,1.4,1.8,1.7,3.3v0.1
			c0.1,0.4,0.1,0.6,0.1,0.8c-0.1,0-0.3,0.1-0.6,0.1l0,0h-0.1c-0.1,0-0.3,0-0.4,0c-0.2,0-0.4-0.1-0.6-0.1c-0.8,0-1.6-0.4-2.4-0.8
			c-0.4-0.2-0.8-0.4-1.2-0.6c-0.1-0.1-0.3-0.1-0.4-0.1c-0.3,0-0.5,0.1-0.7,0.3c-0.3,0.3-0.4,0.7-0.3,1.1c0.1,0.5,0.3,1,0.5,1.4
			c0.1,0.3,0.3,0.6,0.3,0.8l0,0l0.1,0.2c0.4,1.1,0.5,1.6,0.1,2.2c-1.5,1.9-1.2,4.1,0.7,5.6c0.4,0.4,0.9,0.9,1.1,1.4c0,0,0,0,0,0.1
			c1.3,2.4,1.9,5.2,1.8,8l0,0c0,0.5-0.1,2,1.5,2.8c0,0,0,0,0.1,0c0.8,0.3,1.3,1.1,1.3,1.9l0,0c0.1,0.8,0.5,1.5,1.1,1.9
			c0.2,0.1,0.3,0.2,0.5,0.3c0.9,0.6,1.9,1.2,3.2,1.5c0.9,0.2,1.7,0.5,2.4,0.9c-0.1,0.7-0.1,1.3,0.3,1.8c0.4,0.6,1.1,0.9,2.3,1.2
			c0.1,0,0.1,0,0.1,0.1h0.1c0.5,0.8,1.1,1.3,1.7,1.8c0.8,0.7,1.4,1.3,1.6,2.1c0.3,1.1,1.1,1.9,2.2,2.3c0.8,0.3,1.4,0.9,1.9,1.9
			c0.8,1.4,1.9,2.4,3.2,2.7c1.1,0.3,2.1,0.9,3,2c0.9,1.2,2.3,2,3.8,2.3c1.4,0.3,2.9,0.7,3.9,1.9c0,0,0,0.1,0.1,0.1
			c0.3,0.4,0.7,0.6,1.2,0.8l0,0c1,0.3,1.5,0.9,1.7,2.4c0.1,0.6,0.3,1.9,1.7,2.3c0.8,0.2,1.6,0.5,2.5,0.8c1.6,0.6,3.2,1.1,5,1.1
			c0.7,0,1.4,0.6,1.4,0.9c-0.5,2.3,1,3.7,1.7,4.3c1.3,1.2,2.9,1.3,3.9,1.3c0.5,0,1,0,1.5-0.1h0.3c0.5,0,1-0.1,1.5-0.1
			c1.6,0,2.5,0.3,3.1,0.9c1.7,2,3.8,3,6.4,3.1c0.1,0,0.2,0.1,0.3,0.1h0.1c0.8,0.2,1.6,0.6,2.5,1c0.4,0.2,0.8,0.4,1.2,0.5
			c0.9,0.4,1.7,0.6,2.4,0.6c1.2,0,2-0.8,2.8-1.7c0.5,0.4,1.1,0.9,2.1,1l0,0c0.6,0,1.1,0.3,1.8,0.9c1.3,0.9,2.6,1.9,4.1,2.9l0,0
			c1.2,0.8,2.8,1.7,4.7,1.7c0.7,0,1.4-0.1,2.1-0.4c0.1,0,0.2-0.1,0.2-0.1c0.8,0.4,1.6,0.4,2.1,0.4c0.3,0,0.6,0,0.9,0
			c0.3,0,0.6,0,0.8,0c0.1,0,0.2,0,0.3,0h0.5c2.3,0.1,4.5,0.3,6.4,1.3c1.1,0.6,2.2,1.1,3.3,1.6c1.6,0.8,3.2,1.4,4.6,2.4
			c1,0.7,2.1,1,3.1,1c0.8,0,1.6-0.2,2.4-0.6c0.1-0.1,0.3-0.1,0.4-0.2c0.4-0.2,0.9-0.5,1.2-0.5h0.1c0.8,0.4,1.6,0.6,2.6,0.6
			c0.6,0,1.1-0.1,1.7-0.1c0.5-0.1,1-0.1,1.4-0.1h0.1l0,0c1.7,0,3.4-0.9,4.3-2.3c0.6-0.8,0.9-1.1,1.4-1.1c0.1,0,0.2,0,0.3,0
			s0.1,0,0.2,0c0.3,0,0.5-0.1,0.7-0.3c0.3-0.2,0.4-0.5,0.4-0.8c0.1-1.8-0.1-3.9-1.8-5.1c-1.3-0.9-2.7-1.9-4.1-2.9
			c-0.9-0.7-1.4-1.6-1.9-2.8c0.8,0,2-0.1,2.5-1.5c0.5-1.1,0-1.9-0.4-2.5c0.1,0,0.2,0,0.3,0c0.7,0,1.3,0.3,2.2,1
			c0.8,0.7,2,1.1,3.1,1.1c0.8,0,1.5-0.2,1.9-0.6c1.4-1.3,1.4-3.2,0.7-4.5c-0.3-0.5-0.3-1.1-0.3-1.7c1.3,0.8,2.6,1.5,3.6,2.6
			c0.8,0.8,1,1.8,0.4,3c-0.1,0.3-0.2,0.5-0.3,0.8s-0.3,0.6-0.4,0.9c-0.6,1.4-0.1,2.1,0.3,2.5l0,0c0.9,0.7,1.2,1.7,1.6,2.9
			c0.1,0.3,0.2,0.6,0.3,0.8l0,0c0.5,1.3,1.4,1.5,2,1.5c0.3,0,0.5,0,0.8-0.1c0.7-0.2,2.1-0.6,2-2.4c0-1.1,0.2-2.2,0.5-3.2l0,0
			c0.8-2.3,1.4-5.4-0.9-7.9c0.1,0,0.2,0,0.3,0c1.3,0,1.8-0.9,2-1.5c0.2-0.5,0.2-1,0.1-1.5c0.6,0.3,1.1,0.4,1.5,0.4
			c1.4,0,2.2-1.2,2.4-1.6l0,0c0.6-1,0.5-1.8,0.2-2.3c-0.3-0.6-0.8-0.9-1.1-1.2c-0.1-0.1-0.1-0.1-0.2-0.2c-0.6-0.4-0.7-0.7-0.8-0.8
			c0-0.1,0.2-0.3,0.6-0.7c1.4-1.3,1-2.5,0.5-3.4c-0.2-0.3-0.6-0.5-0.9-0.5l0,0c-0.1,0-0.3,0-0.4,0c-1.3,0-2-0.2-2.4-0.7
			c0.3-0.4,0.9-0.6,1.7-0.9c2-0.5,3.1-2.1,4-3.4c0.1-0.1,0.1-0.2,0.2-0.3c1-1.4,0-3.4-1.3-4.6l-0.1-0.1c-0.1-0.1-0.3-0.3-0.5-0.4
			c0.2,0,0.5-0.1,0.7-0.1c0.5-0.1,1-0.1,1.6-0.2c0.4-0.1,0.8-0.4,0.9-0.8c0.1-0.4,0-0.9-0.4-1.1c-1.3-1-2-2.2-2.7-3.5
			c-0.1-0.2-0.2-0.4-0.4-0.6c-1.7-2.8-3.7-4.8-6-6c-2-1.1-3.2-2.8-4.4-4.6c-0.8-1.3-1.9-2-3.3-2c-0.1,0-0.1,0-0.2,0l0,0
			c-0.1,0-0.2,0-0.6-0.3l0,0c-0.6-0.7-1.3-1.4-2-2l0,0l-0.1-0.1c-1.2-1.1-2.6-2.4-4.5-2.7c-2.1-0.3-4.4-0.8-6.5-1.8
			c-0.4-0.2-0.9-0.3-1.3-0.3c-0.7,0-1.3,0.3-1.7,0.8c-0.2,0.2-0.3,0.4-0.3,0.7c0,0.9,0.5,1.5,0.8,1.8c0.1,0.1,0.1,0.2,0.2,0.2
			c0,0.1,0.1,0.1,0.1,0.1c-0.4,0.5-2.2,1.5-2.7,1.5h-0.1c-0.2,0-0.4-0.1-0.6-0.1c-0.8,0-1.4,0.5-1.6,1.3l0,0c0,0.1,0,0.1,0,0.1
			c-0.1,0-0.3,0-0.4-0.1l0,0c-0.2,0-0.4-0.1-0.5-0.1c-0.2,0-0.4,0-0.5,0.1c0.6-0.7,1.3-1.3,1.9-2c1.3-1.3,2.7-2.7,3.8-4.2
			c0.6-0.8,1.1-1.7,0.4-3c-0.6-1.2-1.5-1.5-2.2-1.5c-0.3,0-0.5,0-0.8,0.1c-0.6,0.1-1.2,0.3-1.8,0.4c0.3-0.2,0.5-0.4,0.7-0.8l0,0
			c0.8-1.4-0.4-2.6-0.9-3.2l-0.1-0.1c-0.5-0.5-1.1-0.9-1.6-1.3c-0.2-0.2-0.4-0.3-0.6-0.4c-0.1-0.1-0.3-0.2-0.4-0.3l0,0
			c-0.5-1.6-1.7-2.4-2.8-3.2c-0.4-0.3-0.7-0.5-1-0.8c-1.1-1-2.5-1.3-3.7-1.5c-0.1,0-0.3,0-0.4,0c-0.2,0-0.4,0-0.5,0.1l0.1-0.1
			c0.2-0.4,0.3-0.9,0.1-1.4l0,0c-0.2-0.5-0.2-1-0.2-1.6s0-1.2-0.1-1.9c-0.1-0.4-0.4-0.8-0.8-0.8c-0.3-0.1-0.6-0.1-0.9-0.2
			c-0.2,0-0.3-0.1-0.5-0.1c0.1-0.3,0.1-0.5,0.2-0.9v-0.1c0.1-1.5-1.1-1.9-1.5-2.1c-2.3-0.9-4.3-2.3-5.8-4.1c-0.8-1-1.9-1.5-3.2-1.5
			c-0.7,0-1.4,0.2-2.1,0.5c-0.3,0.1-0.6,0.1-0.8,0.1h-0.1h-0.1h-0.1c-0.2,0-0.3,0-0.5,0c-2.9,0-4.9-1.8-7.1-3.8
			c-0.4-0.4-0.9-0.8-1.3-1.2v-0.1l0,0c0-1.4-0.7-2.5-1.3-3.4c-0.2-0.3-0.5-0.4-0.8-0.5c-0.1,0-0.2,0-0.3,0c-1.1,0-1.9,0.6-2.5,1.1
			c-0.4-1.6-0.9-3.2-1.6-4.8c-0.1-0.3-0.3-0.5-0.6-0.6c-0.1-0.1-0.3-0.1-0.4-0.1c-0.2,0-0.3,0-0.5,0.1c-0.6,0.3-1.2,0.5-1.8,0.5
			c-0.7,0-1.3-0.3-1.9-0.9c-0.4-0.4-0.9-0.6-1.5-0.6c-0.4,0-0.8,0.1-1.2,0.3c-1.9,0.7-3.1,2.1-4.2,3.4c-0.2,0.3-0.4,0.4-0.5,0.5
			c0-0.4,0.1-0.8,0.3-1.2c0.2-0.7,0.4-1.5,0.3-2.4c0,0,0,0,0-0.1c-0.1-0.6,0.2-1.2,0.7-1.5l0,0c1.9-1.2,1.3-2.9,0.9-3.5
			c-0.2-0.3-0.6-0.5-0.9-0.5c-0.1,0-0.3,0-0.4,0.1c-0.4,0.1-0.8,0.3-1.1,0.4c-2.9,1-5.9,2.1-7.9,5.1c-0.3,0.4-0.4,0.5-0.4,0.5h-0.1
			l0,0c-0.3-0.1-0.5-0.1-0.8-0.1c-1.3,0-2.4,0.6-3.4,1.9c-0.5,0.7-0.9,0.7-1.1,0.7c-0.2,0-0.5-0.1-0.8-0.3c-0.5-0.3-1.1-0.5-1.8-0.5
			c-0.6,0-1.1,0.1-1.6,0.4c-1.8,0.8-3.7,1.5-5.5,2.2c-0.2,0.1-0.4,0.1-0.6,0.2c0.9-0.8,1.7-1.8,2.4-2.8l0,0c0.1-0.1,0.1-0.2,0.2-0.3
			c0.4-0.6,0.9-1.4,1-2.4c0.4,0.3,0.9,0.5,1.4,0.5c0.4,0,0.9-0.1,1.4-0.4c0.3-0.1,0.5-0.4,0.6-0.7c0.3-0.9,0.2-1.8,0.1-2.6v-0.2l0,0
			c-0.1-1.1,0.2-1.5,0.9-1.7c1.8-0.7,1.8-1.9,1.6-2.6c-0.1-0.3-0.3-0.6-0.5-0.7c-0.4-0.3-0.9-0.4-1.4-0.4c-0.3,0-0.5,0-0.7,0.1
			c-0.2,0-0.3,0-0.5,0c0,0,0,0-0.1,0s0,0-0.1,0s-0.2,0-0.3,0c-0.6-1.3-1.7-1.9-3.1-1.9c-0.4,0-0.7,0-1.2,0.1c-0.3,0-0.5,0.1-0.7,0.1
			c-0.5,0-0.9-0.1-1.2-0.5c-0.6-0.7-1.3-0.8-1.7-0.8c-0.3,0-0.8,0.1-1.3,0.5c-0.5-1.2-1.4-1.9-2.6-1.9c-0.8,0-1.6,0.3-2.6,0.9
			c0,0-0.1,0.1-0.2,0.1c-0.2,0.1-0.4,0.1-0.6,0.2c-2.7,1.4-5.6,1.4-8.7,1.4c-0.5,0-0.9,0-1.4,0l0,0c-0.9,0-1.1-0.3-1.5-1.4
			c-0.1-0.1-0.1-0.3-0.2-0.4c-0.2-0.6,0-1.2,0.6-1.6c1.1-0.7,2.2-1.6,3.2-2.3l0.3-0.3c0.2-0.1,0.3-0.2,0.5-0.3
			c1.1-0.8,2.3-1.6,2.7-3.2c0.1-0.4,0.4-0.8,1.3-1l0,0c1.4-0.4,2.7-0.7,4.1-0.9c1.4-0.2,2-0.8,2.3-1.3s0.6-1.4,0.1-2.7
			c-0.5-1.3-1.5-2.1-2.3-2.6c0,0-0.1,0-0.1-0.1c-0.4-0.2-0.7-0.7-0.8-1.2c-0.3-1.6-1.2-2.9-2.5-3.6C187.9,118.1,187.7,118,187.5,118
			L187.5,118z M277.5,191.8c-0.9,0-1.9-0.3-2.8-1c0.5,0.2,1.1,0.4,1.6,0.6c0.1,0,0.2,0.1,0.3,0.1c0.3,0.1,0.6,0.3,1,0.3
			C277.6,191.8,277.5,191.8,277.5,191.8L277.5,191.8z M274.3,205.3c0.5-0.4,0.9-0.8,1.3-1.3c0.1-0.2,0.3-0.4,0.5-0.6
			c0,0.3,0,0.7,0,0.9c0,0.3,0.1,0.5,0.1,0.7c0,0.1,0,0.2,0.1,0.3c-0.3,0-0.6,0-0.9,0C275.1,205.2,274.7,205.2,274.3,205.3
			L274.3,205.3z"/>
	</g>
	<g>
		<path d="M105.7,54.5c1,0,2.1,0.5,3.1,0.8c1.2,0.3,2.5,0.6,3.8,0.6c1.1,0,2.2-0.2,3.3-0.9c0.3,0.8,0.4,1.2,0.6,1.6
			c0.4,0.8,0.9,1.5,1.9,1.5h0.1c0,0,0,0,0.1,0c0.5,0,1,0.3,1.5,0.4c0.9,0.2,0.9,0.8,0.8,1.5c-0.1,0.8,0.3,1.1,0.9,1.1
			c0.1,0,0.3,0,0.4-0.1c0.7-0.1,1.3-0.2,1.8-0.2c2.6,0,4.1,1.5,4.6,4.6c0.1,0.3,0.1,0.5,0.2,0.9h0.1c1.9,0,2.9,1.4,4.1,2.5
			c0.9,0.8,1.3,1.1,1.9,1.1c0.4,0,0.9-0.2,1.7-0.6c0.5-0.3,1-0.5,1.5-0.7c0.8-0.3,1.6-0.9,2.4-0.9c0,0,0,0,0.1,0
			c0.9,0,1,1.2,1.5,1.8s1.2,0.7,1.8,0.9c0.9,0.3,1.4,0.8,1.5,1.7c0.1,0.8,0.3,1.2,0.7,1.2c0.3,0,0.6-0.1,1-0.4
			c0.4-0.3,0.8-0.6,1.1-0.8c0.9-0.6,1.7-0.8,2.3-0.8c1.3,0,2.2,1.1,2.6,3c0.1,0.5,0.1,1.1,0.1,1.7c0.1,1.1,0.6,1.9,1.7,2.3
			c5.4,2,8.9,6.4,12.2,10.8c1.9,2.6,1,4.8-2.1,5.6c-1.6,0.4-3.1,1.4-4.7,1.9c-1.7,0.6-3.4,0.8-5.1,0.8c-2,0-3.9-0.3-5.9-0.6
			c-0.1,0-0.3-0.1-0.4-0.1c-0.8-0.1-1.4-0.2-1.8-0.2c-1.1,0-1.3,0.6-1.9,2.4c-0.7,1.9-1.6,3.6-3.7,4.1c-0.7,0.2-0.9,0.9-1.4,1.3
			c-0.1,0-0.1,0-0.2,0h-0.1c-0.8-0.6-1.5-0.8-2.3-0.8c-0.6,0-1.3,0.1-1.9,0.4c-0.7,0.3-1.7,0.8-2.4,0.8c-0.1,0-0.3,0-0.4-0.1
			c-0.5-0.2-1-0.3-1.4-0.3c-1.6,0-2.9,1-4.3,1.4c-0.9,0.3-1.4,0.9-2,1.4c-0.9,0.8-2,1.5-3.2,2.4c-0.3-1.9-1.5-2.7-3.2-2.9
			c-0.6-0.1-1-0.5-1.1-1.1c-0.1-0.8-0.6-1.1-1.3-1.2c-1.8-0.4-3.7-1.1-5.5-1.2c-2.7-0.2-5.3-0.8-7.8-1.8c-1.2-0.5-2.6-0.8-3.9-0.8
			c-0.9,0-1.7,0.1-2.5,0.3c-0.2,0.1-0.3,0.1-0.4,0.1c-0.4,0-0.7-0.2-0.9-0.7c-0.4-1.3-1.3-2-2.3-2.7c-0.7-0.4-1-1.1-0.9-1.8
			c0.5-0.8,2-0.3,2-1.6c-0.5-0.4-1.2-0.5-1.8-0.8c-0.6-0.2-1.2-0.4-1.3-1.2c-0.3-0.7-1-0.9-1.6-0.9c-2.1-0.1-4.2-0.6-6.4-0.6
			c-0.9,0-1.8,0.1-2.7,0.3c-0.4,0.2-0.9,0.3-1.3,0.3c-1.1,0-2.1-0.3-2.9-1c-0.9-0.7-1.1-1.8-0.3-2.6c1.4-1.2,1.9-2.5,1.6-4.3
			c-0.2-0.8,0.5-1,1-1.3c1.8-1,2.1-1.7,0.1-2.8c-1.1-0.6-1.6-1.5-1.9-2.7c0.5-0.4,0.9-0.7,1.4-1.1c2-1.8,1.6-5.5-0.8-6.6
			c-2.4-1.2-3.5-3.4-3.8-5.9c-0.2-1.9,1-3.2,2.9-3.2c0.1,0,0.1,0,0.2,0c0.8,0.1,1.6,0.1,2.3,0.1c1.2,0,2.4-0.2,3.6-0.8
			c0.1-0.1,0.3-0.1,0.4-0.1s0.3,0,0.4,0.1c0.2,0.1,0.4,0.1,0.6,0.1c0.8,0,1.4-0.4,1.8-1.2s1.2-1.1,2.1-1.2c2-0.3,4-0.6,6-0.9
			c0.4-0.1,0.9-0.1,1.4-0.1c0.3,0,0.6,0,1,0.1c0.2,0.1,0.4,0.1,0.5,0.1c0.5,0,0.9-0.2,1.2-0.6c0.3-0.5,0.8-0.7,1.3-0.7
			c0.1,0,0.3,0,0.4,0.1c1,0.3,2,0.4,3,0.4c0.9,0,1.7-0.1,2.6-0.4C105.2,54.5,105.5,54.5,105.7,54.5 M105.7,53.3L105.7,53.3
			c-0.4,0-0.7,0.1-1.1,0.1c-0.8,0.2-1.5,0.3-2.3,0.3c-0.8,0-1.7-0.1-2.7-0.4c-0.2-0.1-0.4-0.1-0.7-0.1c-0.9,0-1.8,0.5-2.2,1.2
			c-0.1,0.1-0.2,0.1-0.3,0.1s-0.1,0-0.1,0h-0.1c-0.4-0.1-0.8-0.2-1.3-0.2s-0.9,0.1-1.3,0.1h-0.2c-0.8,0.1-1.6,0.3-2.4,0.4
			c-1.2,0.2-2.4,0.4-3.6,0.6c-1.4,0.2-2.3,0.8-2.9,1.8c-0.4,0.6-0.7,0.6-0.8,0.6s-0.2,0-0.3,0c-0.2-0.1-0.4-0.1-0.7-0.1
			c-0.3,0-0.6,0.1-0.9,0.2c0,0-0.1,0-0.1,0.1c-0.8,0.5-1.8,0.7-3.1,0.7c-0.6,0-1.2-0.1-1.9-0.1h-0.4c-0.1,0-0.2,0-0.3,0
			c-1.2,0-2.3,0.4-3,1.3c-0.8,0.8-1.1,2-0.9,3.2c0.4,3.2,1.8,5.5,4.4,6.8c0.8,0.4,1.3,1.2,1.4,2.2c0.1,1-0.2,2-0.9,2.6
			c-0.2,0.2-0.5,0.4-0.8,0.6c-0.2,0.2-0.4,0.3-0.6,0.5c-0.3,0.3-0.5,0.7-0.4,1.1c0.4,1.6,1.2,2.8,2.4,3.4c0.3,0.2,0.5,0.3,0.6,0.4
			c-0.1,0.1-0.4,0.3-0.7,0.4c-0.1,0-0.1,0.1-0.2,0.1c-0.5,0.3-1.7,0.9-1.3,2.4c0.3,1.3-0.1,2.3-1.2,3.2c-0.6,0.6-1,1.3-1,2
			c0,0.8,0.5,1.7,1.3,2.3l0,0c1,0.8,2.3,1.2,3.6,1.2c0.5,0,1.1-0.1,1.6-0.2c0.8-0.2,1.6-0.3,2.5-0.3c1.1,0,2.3,0.1,3.4,0.3
			c0.9,0.1,1.9,0.2,2.9,0.3c0,0,0,0,0.1,0c0.2,0,0.3,0,0.3,0c0.3,1.4,1.3,1.7,1.9,1.9h0.1h0.1c-0.3,0.1-0.6,0.4-0.8,0.7
			c-0.1,0.1-0.1,0.3-0.2,0.4c-0.2,1.2,0.4,2.3,1.4,2.9s1.6,1.3,1.8,2c0.3,0.9,1,1.5,1.9,1.5c0.2,0,0.5,0,0.7-0.1
			c0.7-0.2,1.5-0.3,2.3-0.3c1.2,0,2.4,0.2,3.4,0.7c2.5,1.1,5.3,1.7,8.1,1.9l0,0c1.1,0.1,2.3,0.4,3.5,0.7c0.6,0.2,1.2,0.3,1.8,0.5
			c0.4,0.1,0.4,0.2,0.4,0.2l0,0c0,0,0,0,0,0.1c0.1,1.1,1,2,2.1,2.1c1.4,0.2,2,0.7,2.2,2c0.1,0.4,0.3,0.7,0.7,0.9
			c0.1,0.1,0.3,0.1,0.4,0.1c0.2,0,0.4-0.1,0.6-0.2l0.5-0.4c1-0.7,1.9-1.4,2.7-2.1c0.2-0.1,0.3-0.3,0.5-0.4c0.4-0.4,0.7-0.6,1.1-0.8
			c0.6-0.2,1.2-0.4,1.7-0.7c0.8-0.4,1.6-0.7,2.3-0.7c0.3,0,0.7,0.1,1,0.2s0.5,0.1,0.8,0.1c0.8,0,1.6-0.4,2.4-0.7
			c0.1-0.1,0.3-0.1,0.4-0.2c0.6-0.2,1.1-0.3,1.5-0.3c0.6,0,1.1,0.2,1.6,0.6c0.2,0.2,0.5,0.3,0.8,0.3c0.1,0,0.2,0,0.3,0
			c0.2,0,0.3-0.1,0.5-0.2c0.4-0.3,0.7-0.6,0.9-0.8c0.1-0.1,0.3-0.3,0.3-0.3c2.7-0.8,3.8-2.9,4.4-4.8c0.2-0.7,0.5-1.5,0.7-1.7
			c0,0,0.1,0,0.2,0c0.4,0,0.9,0.1,1.6,0.2l0.4,0.1c0,0,0,0,0.1,0c2.1,0.3,4.1,0.6,6.1,0.6s3.8-0.3,5.5-0.8c0.8-0.3,1.5-0.6,2.2-0.9
			c0.8-0.4,1.6-0.8,2.4-1c2.5-0.7,3.4-2,3.8-3c0.3-0.9,0.4-2.5-1.1-4.4c-3.7-4.9-7.2-9.1-12.7-11.1c-0.5-0.2-0.8-0.5-0.9-1.4
			c0-0.2,0-0.4,0-0.6c0-0.4,0-0.8-0.1-1.2c-0.7-3.4-2.6-3.9-3.6-3.9c-0.9,0-1.9,0.3-2.9,1c-0.2,0.1-0.4,0.3-0.6,0.4
			s-0.3,0.3-0.5,0.4c0,0,0,0-0.1,0c-0.2-1.3-0.9-2.2-2.2-2.6c0.1-0.1,0-0.1-0.2-0.1c-0.5-0.1-0.7-0.2-0.9-0.4
			c-0.1-0.1-0.2-0.3-0.3-0.5c-0.3-0.6-0.8-1.7-2.1-1.7h-0.1c-0.8,0-1.6,0.4-2.2,0.7c-0.2,0.1-0.4,0.2-0.6,0.3l0,0
			c-0.5,0.2-1,0.4-1.6,0.7l0,0c-0.3,0.1-0.9,0.5-1.2,0.5c-0.2,0-0.8-0.5-1.1-0.8c-0.2-0.2-0.4-0.4-0.6-0.6c-0.9-0.8-1.9-1.8-3.4-2.1
			l0,0c-0.7-3.6-2.6-5.5-5.8-5.5c-0.6,0-1.3,0.1-2,0.2c0.1-0.6,0.1-2.1-1.7-2.5l0,0c-0.1,0-0.3-0.1-0.4-0.2
			c-0.4-0.1-0.8-0.3-1.3-0.3h-0.1h-0.1c-0.3,0-0.6-0.1-0.9-0.9c-0.1-0.3-0.2-0.6-0.4-1c-0.1-0.2-0.1-0.3-0.2-0.5
			c-0.1-0.3-0.4-0.6-0.7-0.7c-0.1-0.1-0.3-0.1-0.4-0.1c-0.2,0-0.4,0.1-0.6,0.2c-0.8,0.5-1.7,0.8-2.7,0.8c-1.1,0-2.3-0.3-3.4-0.6l0,0
			c-0.3-0.1-0.6-0.2-0.8-0.3C107.5,53.7,106.6,53.3,105.7,53.3L105.7,53.3z"/>
	</g>
	<g>
		<path d="M170.2,103.1c0.3,1.1,1.1,1.5,2.1,1.9c2.1,0.8,3.1,2.6,3.8,4.5c0.5,1.2-0.4,2.6-2.1,3c-3.5,0.9-7,1.6-10.6,2
			c-0.1,0-0.3,0-0.4,0c-0.3,0-0.6-0.1-0.8-0.4c-0.3-0.5,0.2-0.8,0.5-1.2c0.6-0.7,1.1-1.6,1.4-2.5c-0.1,0-0.1,0-0.2,0
			c-1.9,0-2.6-1.2-3-2.9c-0.6,0.3-1.1,0.4-1.6,0.4c-0.9,0-1.7-0.5-2.4-1.4c0.1-0.1,0.1-0.2,0.1-0.3c1-0.9,2.5-1.2,3.3-2.5
			c0.2-0.3,0.6-0.4,1.1-0.4c0.1,0,0.1,0,0.2,0c0.7,0.1,1.5,0.1,2.2,0.1c1.4,0,2.8-0.1,4.1-0.1c0.3,0,0.6,0,0.8,0h0.1
			C169.3,103.4,169.7,103.2,170.2,103.1 M170.2,102c-0.1,0-0.1,0-0.2,0c-0.3,0-0.5,0.1-0.7,0.2s-0.4,0.1-0.6,0.1l0,0l0,0
			c-0.3,0-0.6,0-0.9,0c-0.7,0-1.4,0-2.1,0.1c-0.7,0-1.4,0.1-2,0.1c-0.8,0-1.4,0-2.1-0.1h-0.1c-0.1,0-0.2,0-0.3,0
			c-1.3,0-1.9,0.6-2.1,1c-0.3,0.6-0.9,0.9-1.6,1.3c-0.5,0.3-1,0.6-1.4,0.9c0,0,0,0-0.1,0.1c-0.2,0.2-0.3,0.5-0.3,0.6
			c-0.2,0.4-0.1,0.8,0.1,1.1c0.9,1.2,2,1.8,3.2,1.8c0.3,0,0.6,0,0.8-0.1c0.5,1.2,1.3,2,2.3,2.3c-0.2,0.3-0.4,0.6-0.6,0.9
			c0,0,0,0-0.1,0.1l-0.1,0.1c-0.3,0.3-1,1.2-0.4,2.3c0.2,0.4,0.7,1,1.8,1c0.2,0,0.4,0,0.6-0.1c3.6-0.4,7.2-1.1,10.8-2
			c1.3-0.3,2.3-1.1,2.8-2.1c0.4-0.8,0.4-1.6,0.1-2.4c-0.8-2-1.9-4.1-4.5-5.1c-0.9-0.4-1.3-0.6-1.4-1.1
			C171.2,102.3,170.7,102,170.2,102L170.2,102z"/>
	</g>
</g>
</svg>
