<?xml version="1.0" encoding="utf-8"?>
<!-- Generator: Adobe Illustrator 24.3.0, SVG Export Plug-In . SVG Version: 6.00 Build 0)  -->
<svg version="1.1" id="Layer_1" xmlns="http://www.w3.org/2000/svg" xmlns:xlink="http://www.w3.org/1999/xlink" x="0px" y="0px"
	 viewBox="0 0 931.4 931.4" style="enable-background:new 0 0 931.4 931.4;" xml:space="preserve">
<style type="text/css">
	.st0{clip-path:url(#SVGID_4_);}
	.st1{clip-path:url(#SVGID_6_);fill:#DA000C;}
	.st2{clip-path:url(#SVGID_8_);fill:#FFFFFF;}
	.st3{fill:#DA000C;}
	.st4{fill:none;stroke:#000000;stroke-width:1.4648;stroke-linecap:square;}
	.st5{fill:none;stroke:#000000;stroke-width:1.4648;}
	.st6{fill:#F8D80E;}
	.st7{fill:none;stroke:#000000;stroke-width:1.125;stroke-linecap:round;}
	.st8{fill:none;stroke:#000000;stroke-width:1.4648;stroke-linecap:round;}
	.st9{fill:none;}
	.st10{fill:none;stroke:#000000;stroke-width:1.5;}
	.st11{fill:none;stroke:#000000;stroke-width:1.4648;stroke-linejoin:round;}
</style>
<g>
	<g>
		<defs>
			<path id="SVGID_2_" d="M459.6,701.4c-3.6-10.5-13.5-16.9-19.2-26.9c5.1-2,8.5,1.3,12.3,2.2c6.6,1.6,9.2-1,9.8-7.1
				c0.6-6.7-5.1-14-11.7-15.9c-3.9-1.1-5.3,1.7-7.5,3.3c-6.5,4.8-8.8,4.2-10.4-3.3c-3.4-15.6-8.8-29.9-20.8-41.4
				c-6.1-5.8-9.8-14.1-14.9-21c-4-5.3-8.6-10.1-14.9-12.9c-2.3-0.9-4.2-2.7-5.3-5c-6.7-17.4-20.5-29.8-31.2-44.4
				c-23-31.4-46.4-62.4-69.9-93.5c-3.1-4.1-2.5-6.5,2.5-9.1c9.8,12.7,19.7,25.4,29.5,38.3c27.9,36.3,55.8,72.6,83.6,109
				c4,5.2,10.9,6.3,13.7,1.1c4.6-8.5,12.8-11.8,19.8-17c9.4-7,9.5-7.1,5.7-18.1c-7-20.4-13.8-40.9-21.3-61.2
				c-2.3-6.3-0.7-9.8,4.8-12.4c5.3-2.5,10.6-5.1,16-7.5c2.8-1.3,5.5-2.4,5.1-6.2s-0.7-7.4-4.5-9.4c-1.5-0.8-3.8-1.1-4.5-2.3
				c-5.5-9.8-13.1-5.5-20.6-3.6c-4,1-9.6,4.7-11.6-0.9c-2-5.9,4.7-7.1,8.8-8.6c7.6-2.8,15.3-5,23.9-7.7
				c-7.6-30.4-20.5-57.9-35.7-84.6c-3.8,0.9-7.4,2.5-10.6,4.8c3.3,7.9,6.6,15.8,9.9,23.7c1.4,3.4,3.4,7,0,10.2s-7.5,1.3-11-0.1
				s-5.6-4.5-6.5-8.4c-3.5-14.5-7.2-29-10.9-43.5c-0.5-1.9-1-3.8,0-5.7c0.5,0,1.2-0.3,1.4-0.1c5.7,7.7,12.6,9.2,21,4.4
				c2.5-1.5,5.2-0.1,7.2,2.2c1.6,1.8,3.1,3.9,6.4,3.3v-9.9c-5.7-1.7-11.6-0.3-17.4-0.7c-7.6-0.6-12.4-3.6-13.6-11.6
				c-2.1-14.1-9.1-25.7-18.2-36.4c-6.8-8.1-14.7-14.4-24.6-18.2c-7.5-2.9-10.6-7.9-10.2-16.5c0.8-14.7,0.4-29.6,0-44.3
				c-0.2-6.6,2.6-9.4,8.8-10.1c2.7-0.3,5.3-0.8,8-1.6c2.8-0.8,6-1,7.1-4.4c0.6-1.9-0.9-3.1-2.1-4.4c-2.9-3.2-5.3-0.1-8.1,0.8
				c-5.7-6.4-3.5-15-6.2-22.2c-2.2-1.3-4.4-0.8-6.9-0.5c-2.2,5.8,0.6,12.1-1.2,18c-3.8-0.7-3.8-0.7-5.7-17.3l-8.1,0.7
				c0,2.2-0.1,4.5-0.4,6.7c-0.8,4.2,2.4,10.4-6,10.9c-10.6,0.5-13-0.8-14.6-9.8c-0.5-2.9-1.1-5.8-1.6-8.6c-2.2-1-4.7-1.2-7.1-0.5
				c-5.5,4.8,4.4,14.9-7.6,17.8v-14.3c-2.5-1.8-4.8-1.4-7.7-0.2c-1.5,25.3-0.9,50.8-1.2,76c-2.6,2.6-5,1.3-7.4,1.5v-88
				c12.4,1.8,10.2-7.9,12.4-14.3c1.6-1.5,3.7-0.9,5.5-0.9c32.5-0.1,65-1,97.4,1.8c17,1.5,34,4.6,46.1,19.4
				c5.5,6.8,12.7,12.3,19.5,18.8c3.1-3.4,6.2-6.5,11-6.6c2.3-0.1,4.6-1.5,4.5-4.1c-0.4-6.3,3.1-7.5,9.3-6.5
				c0.1-14.2-1.7-27.7-3.1-42.5l-104.4,3.7V78.3c5.8,0.3,12.1,0.8,18.4,0.9c9.3,0.1,12.6-2.5,15-11.4c1-3.5,2.6-6.3,6.5-7.3
				c3.9,2.2,1.5,5.2,1,7.8c-1,5.4,0.4,8.5,6.7,8.1c28.3-1.9,56.6-1.1,84.9-2c3.2-0.1,7.3,0.8,8.7-3.7c1.3-4.2-0.3-7.6-3.4-10.6
				c-8.6-8.4-8.8-8.6-3.3-19.3c2.3-4.6,2.1-8.1-0.9-12.2c-3.7-5.1-7.4-10.4-9.1-16.6c2.2-2.8,5.2-1.8,7.7-1.9
				c32.2-0.5,64.5-2.5,96.7-1.8c3.4,0,6.8,0.7,10,2.1c30.3,13.5,60.6,27,91,40.3c4.4,1.9,6.5,3.6,5.2,9.1c-2,9.3-2.9,18.9-4.3,28.8
				l8.1,5.2c-7.6,0.7-9.4,5.3-10.4,11.1c-1.5,8.7-3.4,17.3-5.3,26c-1.4,6.4-0.6,11.7,6.4,14.3c1.8,0.7,3.7,1.3,4.7,3.4
				c-1.4,4.6-4.3,1.8-6.3,1c-5.7-2.1-8.1-0.7-8.2,5.7c-0.1,10.1-1.7,20.1-0.3,30.2c0.8,5.4,3.3,8.4,8.2,8.8
				c7.6,0.6,10,4.8,11.2,11.8c4.4,24.6,3.5,48.4-7.6,71.2c-5.6,11.5-7.1,24.5-13.8,36.1c-5.8-3.6-9.2-1.5-11,4.1s-4.1,11.1-5.4,16.8
				c-1.1,4.7-0.8,9.1,2.7,13.7c5.6,7.5,7.7,16.2,4.4,25.8c-1.5,4.3-4.2,9,1.8,12.8c2.3,1.5,0.7,4.1-1,5.7c-3,2.5-3.6,6.9-1.4,10.1
				c4.6,6.9,2.4,13.1-0.5,19.5c-1.7,3.8-2.8,7.3,0.1,11c0.6,0.8,0.9,1.8,0.7,2.8c-3.9,8-1.1,17.3-5.5,25.5
				c-8,14.9-14.1,31.8-11,48.1c3.4,17.7-0.2,37.9,15.5,52.9c10.4,9.9,9.6,22.3,1.2,34.2c-3,4.3-1.7,9.6-0.6,14.3
				c1.7,7,0.8,14.3-2.5,20.7c-4.2,8.3-7.7,17.1-13.2,24.7c-6,8.4-8,17.8-8.8,27.7c-0.5,6.1-0.7,12.3-2,18.3
				c-3.1,14.5-1.7,28.3,5.2,41.4c1.7,3.2,0.1,5.9-0.9,8.4c-4.7,11.9-9.4,23.8-14.9,35.3c-4.6,9.7-6,19.6-5.3,30.1
				c0.9,12.8-1.6,24.3-10.8,34c-3.6,3.8-5.7,9.2-8.6,13.7c-6.6,10.1-8.5,20.7-4.7,32.3c0.8,2.6,1.2,5.3,1.2,8c0,3-0.6,5.7-4.6,6.3
				c-4.8,0.7-8.6,3.4-11.7,7.1s-7.4,5.5-11.9,4.2c-17.7-5.5-34.5-12.6-49-24.8c-15-12.5-14.4-29.3-14.4-46.1
				c0-12.7,3-24.8,10.1-35.7c3-4.4,3.3-10.1,0.8-14.8c-2.5-5-5.5-9.9-8.4-14.7c-2.6-4.3-4.6-8.7-4.6-13.8c0.1-14.4-4.5-27.5-11.3-40
				c-1.3-2.3-2.8-4.5-2.2-7.5C481.8,711.5,473.8,701.8,459.6,701.4z"/>
		</defs>
		<clipPath id="SVGID_4_">
			<use xlink:href="#SVGID_2_"  style="overflow:visible;"/>
		</clipPath>
		<g class="st0">
			<g>
				<g>
					<defs>
						<rect id="SVGID_5_" x="217.6" y="249.5" width="647.1" height="323.6"/>
					</defs>
					<clipPath id="SVGID_6_">
						<use xlink:href="#SVGID_5_"  style="overflow:visible;"/>
					</clipPath>
					<rect x="217.5" y="249.5" class="st1" width="647.2" height="670.6"/>
				</g>
				<g>
					<defs>
						<rect id="SVGID_7_" x="217.6" y="249.5" width="647.1" height="323.6"/>
					</defs>
					<clipPath id="SVGID_8_">
						<use xlink:href="#SVGID_7_"  style="overflow:visible;"/>
					</clipPath>
					<rect x="217.5" y="249.5" class="st2" width="647.2" height="216.8"/>
				</g>
			</g>
			<rect x="466" y="396.5" width="80.9" height="55.6"/>
			<polyline class="st3" points="508,444 458.6,444 447.7,451.2 447.7,458.8 508,458.8 			"/>
			<polyline class="st4" points="508,444 458.6,444 447.7,451.2 447.7,458.8 508,458.8 			"/>
			<path class="st3" d="M487.3,412c7.1,0,12.9,5.9,12.9,13.2V444h9.3v-70.8h-50.9V444h15.8v-18.7C474.4,418.3,480.1,412,487.3,412
				L487.3,412z"/>
			<path class="st4" d="M487.3,412c7.1,0,12.9,5.9,12.9,13.2V444h9.3v-70.8h-50.9V444h15.8v-18.7C474.4,418.3,480.1,412,487.3,412
				L487.3,412z"/>
			<rect x="476" y="325.3" width="23.4" height="42.9"/>
			<path class="st3" d="M499.4,361.6h-20.5v-7.3h-15v7.3h-10.2v-7.3h-6.1v13.2h51.8 M453.7,367.4h44.2v5.7h-44.2V367.4z"/>
			<path class="st4" d="M499.4,361.6h-20.5v-7.3h-15v7.3h-10.2v-7.3h-6.1v13.2h51.8 M453.7,367.4h44.2v5.7h-44.2V367.4z"/>
			<path class="st3" d="M471.2,309.7v44.6h7.7V342c0-4.6,3.2-8.3,7.8-8.6c0.1,0,0.3,0,0.4,0c4.7,0,8.6,3.8,8.6,8.6v12.2h7.3v-44.6
				h-31.8V309.7z"/>
			<path class="st4" d="M471.2,309.7v44.6h7.7V342c0-4.6,3.2-8.3,7.8-8.6c0.1,0,0.3,0,0.4,0c4.7,0,8.6,3.8,8.6,8.6v12.2h7.3v-44.6
				h-31.8V309.7z"/>
			<rect x="468.4" y="303.7" class="st3" width="37" height="6"/>
			<rect x="468.4" y="303.7" class="st4" width="37" height="6"/>
			<path class="st3" d="M463.7,292.1v11.6h44.4v-11.6h-6.8v5.9H493v-5.9h-12.6v5.9h-8.3v-5.9H463.7z"/>
			<path class="st4" d="M463.7,292.1v11.6h44.4v-11.6h-6.8v5.9H493v-5.9h-12.6v5.9h-8.3v-5.9H463.7z M447.7,451.2h60.6"/>
			<polyline class="st3" points="547.4,447.7 506.4,447.7 494,453.7 494,462.6 547.4,462.6 			"/>
			<polyline class="st4" points="547.4,447.7 506.4,447.7 494,453.7 494,462.6 547.4,462.6 			"/>
			<line class="st5" x1="494" y1="453.7" x2="548.7" y2="453.7"/>
			<rect x="535.3" y="396.5" width="80.9" height="55.6"/>
			<polyline class="st3" points="574.2,444 623.6,444 634.5,451.2 634.5,458.8 574.2,458.8 			"/>
			<polyline class="st4" points="574.2,444 623.6,444 634.5,451.2 634.5,458.8 574.2,458.8 			"/>
			<path class="st3" d="M594.8,412c-7.1,0-12.9,5.9-12.9,13.2V444h-9.3v-70.8h50.9V444h-15.8v-18.7C607.8,418.3,602,412,594.8,412
				L594.8,412z"/>
			<path class="st4" d="M594.8,412c-7.1,0-12.9,5.9-12.9,13.2V444h-9.3v-70.8h50.9V444h-15.8v-18.7C607.8,418.3,602,412,594.8,412
				L594.8,412z"/>
			<rect x="582.7" y="325.3" width="23.4" height="42.9"/>
			<path class="st3" d="M582.8,361.6h20.5v-7.3h15v7.3h10.2v-7.3h6.1v13.2h-51.8 M628.5,367.4h-44.2v5.7h44.2V367.4z"/>
			<path class="st4" d="M582.8,361.6h20.5v-7.3h15v7.3h10.2v-7.3h6.1v13.2h-51.8 M628.5,367.4h-44.2v5.7h44.2V367.4z"/>
			<path class="st3" d="M611,309.7v44.6h-7.7V342c0-4.6-3.2-8.3-7.8-8.6c-0.1,0-0.3,0-0.4,0c-4.7,0-8.6,3.8-8.6,8.6v12.2h-7.3v-44.6
				H611V309.7z"/>
			<path class="st4" d="M611,309.7v44.6h-7.7V342c0-4.6-3.2-8.3-7.8-8.6c-0.1,0-0.3,0-0.4,0c-4.7,0-8.6,3.8-8.6,8.6v12.2h-7.3v-44.6
				H611V309.7z"/>
			<rect x="576.7" y="303.7" class="st3" width="37" height="6"/>
			<rect x="576.7" y="303.7" class="st4" width="37" height="6"/>
			<path class="st3" d="M618.5,292.1v11.6h-44.4v-11.6h6.8v5.9h8.3v-5.9h12.6v5.9h8.3v-5.9H618.5z"/>
			<path class="st4" d="M618.5,292.1v11.6h-44.4v-11.6h6.8v5.9h8.3v-5.9h12.6v5.9h8.3v-5.9H618.5z M634.5,451.2h-60.6"/>
			<polyline class="st3" points="534.8,447.7 575.8,447.7 588.1,453.7 588.1,462.6 534.8,462.6 			"/>
			<polyline class="st4" points="534.8,447.7 575.8,447.7 588.1,453.7 588.1,462.6 534.8,462.6 			"/>
			<line class="st5" x1="588.1" y1="453.7" x2="533.5" y2="453.7"/>
			<path class="st6" d="M562.9,439.1c-3.4,1.1-6.4,3-9.4,4.7c-3.9,2.3-7.7,4.8-11.3,7.7c-1.2,0.8-2.4,1.7-3.4,2.9
				c-1.3,1.1-2.6,2.6-2.4,4.4c0.1,0.8,1.1-1,1.8-1c1.2-0.7,2.6-0.9,4-0.6c1.6-1.7,3.7-2.8,5.5-4.3c3.8-2.8,7.9-5.3,12-7.5
				c1.5-0.7,2.9-1.5,4.5-2C563.8,442,563.4,440.6,562.9,439.1L562.9,439.1z"/>
			<path class="st7" d="M562.9,439.1c-3.4,1.1-6.4,3-9.4,4.7c-3.9,2.3-7.7,4.8-11.3,7.7c-1.2,0.8-2.4,1.7-3.4,2.9
				c-1.3,1.1-2.6,2.6-2.4,4.4c0.1,0.8,1.1-1,1.8-1c1.2-0.7,2.6-0.9,4-0.6c1.6-1.7,3.7-2.8,5.5-4.3c3.8-2.8,7.9-5.3,12-7.5
				c1.5-0.7,2.9-1.5,4.5-2C563.8,442,563.4,440.6,562.9,439.1L562.9,439.1z"/>
			<path class="st8" d="M546.6,448.4v4.9 M549.7,446.3v4.9 M552.8,444.4v4.9 M555.8,442.5v5"/>
			<path class="st6" d="M519.5,439.3c-0.5,1.4-1,2.8-1.5,4.2c7,2.7,13.7,6.2,20,10.2c2.1,1.5,4.4,2.9,6.1,4.9c0.4,1-0.6,1.9-1.7,1.6
				c-0.9-0.3-1.8-0.7-2.8,0c-1.4,0.6-2.7,2.7-0.5,3.4c2.9,2,7.7,1.1,9.1-2.3c0.7-1.8,0.8-4-0.6-5.5c-2.6-3-6.1-5.1-9.4-7.2
				C532.1,444.9,525.9,441.7,519.5,439.3L519.5,439.3z"/>
			<path class="st7" d="M519.5,439.3c-0.5,1.4-1,2.8-1.5,4.2c7,2.7,13.7,6.2,20,10.2c2.1,1.5,4.4,2.9,6.1,4.9c0.4,1-0.6,1.9-1.7,1.6
				c-0.9-0.3-1.8-0.7-2.8,0c-1.4,0.6-2.7,2.7-0.5,3.4c2.9,2,7.7,1.1,9.1-2.3c0.7-1.8,0.8-4-0.6-5.5c-2.6-3-6.1-5.1-9.4-7.2
				C532.1,444.9,525.9,441.7,519.5,439.3L519.5,439.3z"/>
			<line class="st9" x1="538.6" y1="449.3" x2="538.2" y2="453.5"/>
			<line class="st8" x1="538.6" y1="449.3" x2="538.2" y2="453.5"/>
			<line class="st9" x1="542.1" y1="451.4" x2="541" y2="455.5"/>
			<line class="st8" x1="542.1" y1="451.4" x2="541" y2="455.5"/>
			<line class="st9" x1="545.9" y1="454.3" x2="543.6" y2="457.5"/>
			<line class="st8" x1="545.9" y1="454.3" x2="543.6" y2="457.5"/>
			<line class="st9" x1="547" y1="462.1" x2="543.7" y2="460.3"/>
			<line class="st8" x1="547" y1="462.1" x2="543.7" y2="460.3"/>
			<line class="st9" x1="548.1" y1="458.6" x2="544.3" y2="459"/>
			<line class="st8" x1="548.1" y1="458.6" x2="544.3" y2="459"/>
			<line class="st9" x1="543.2" y1="464.1" x2="542.9" y2="460.8"/>
			<line class="st8" x1="543.2" y1="464.1" x2="542.9" y2="460.8"/>
			<line class="st9" x1="541.8" y1="460.3" x2="538.7" y2="462.6"/>
			<path class="st8" d="M541.8,460.3l-3.1,2.3 M526.8,442.8v3.9 M534.7,447v4.5 M530.7,444.9v4.2"/>
			<path class="st6" d="M515.5,537.1v10.2h6.4v-5.1h8.6v5.1h6.8v-10.2H515.5z M515.5,551.1v10.2h21.8v-10.2h-6.8v5.1h-8.6v-5.1
				H515.5z"/>
			<path class="st5" d="M515.5,537.1v10.2h6.4v-5.1h8.6v5.1h6.8v-10.2H515.5z M515.5,551.1v10.2h21.8v-10.2h-6.8v5.1h-8.6v-5.1
				H515.5z"/>
			<rect x="537.4" y="494.3" class="st6" width="6.3" height="73.5"/>
			<rect x="537.4" y="494.3" class="st5" width="6.3" height="73.5"/>
			<rect x="537.4" y="500.6" class="st6" width="6.3" height="63.3"/>
			<rect x="537.4" y="500.6" class="st5" width="6.3" height="63.3"/>
			<path class="st6" d="M540.5,476.3l13.4,7.8l-13.4,7.8l-13.4-7.8L540.5,476.3z M522.5,481.3H519v5.6h3.5l18,10.4l18-10.4h3.5v-5.6
				h-3.5l-18-10.4L522.5,481.3z"/>
			<path class="st10" d="M540.5,476.3l13.4,7.8l-13.4,7.8l-13.4-7.8L540.5,476.3z M522.5,481.3H519v5.6h3.5l18,10.4l18-10.4h3.5
				v-5.6h-3.5l-18-10.4L522.5,481.3z"/>
			<path class="st6" d="M540.3,457.1c-3.1,0.4-5.3,3.5-5.2,6.5c0,4.7,0,9.4,0,14.2c0.2,3,2.8,5.8,5.9,5.8c2.5,0.2,5-1.2,6.1-3.5
				c-0.7-0.4-1.4-0.9-2.2-1.3c-0.6,1.5-2.2,2.4-3.8,2.3c-2.1,0.1-3.7-2-3.6-4c0-4.7,0-9.4,0-14.1c0.1-1.9,1.9-3.5,3.9-3.3
				c0.8-0.2,1.9,0.9,2.4-0.1c0.7-1-0.5-1.9-1.2-2.5C541.8,457.1,541,457.2,540.3,457.1L540.3,457.1z M547.6,462.1
				c-0.5,0.9-1.5,1.5-2.4,2v9.5c0.8,0.5,1.7,1,2.5,1.5c0-4,0-8.1,0-12.1C547.7,462.6,547.7,462.3,547.6,462.1L547.6,462.1z"/>
			<path class="st10" d="M540.3,457.1c-3.1,0.4-5.3,3.5-5.2,6.5c0,4.7,0,9.4,0,14.2c0.2,3,2.8,5.8,5.9,5.8c2.5,0.2,5-1.2,6.1-3.5
				c-0.7-0.4-1.4-0.9-2.2-1.3c-0.6,1.5-2.2,2.4-3.8,2.3c-2.1,0.1-3.7-2-3.6-4c0-4.7,0-9.4,0-14.1c0.1-1.9,1.9-3.5,3.9-3.3
				c0.8-0.2,1.9,0.9,2.4-0.1c0.7-1-0.5-1.9-1.2-2.5C541.8,457.1,541,457.2,540.3,457.1L540.3,457.1z M547.6,462.1
				c-0.5,0.9-1.5,1.5-2.4,2v9.5c0.8,0.5,1.7,1,2.5,1.5c0-4,0-8.1,0-12.1C547.7,462.6,547.7,462.3,547.6,462.1L547.6,462.1z"/>
			<rect x="521.9" y="298" width="37.1" height="67.3"/>
			<path class="st3" d="M519.3,298v56.3H531v-16.7c0-3.9,2.5-9.2,10-9.2s10,5.3,10,9.2v16.7h11.8V298H519.3z M539.3,304.3h3.6v19.3
				h-3.6V304.3z M528.8,308.1h3.7v14.1h-3.7V308.1z M549.7,308.1h3.7v14.1h-3.7V308.1z"/>
			<path class="st5" d="M519.3,298v56.3H531v-16.7c0-3.9,2.5-9.2,10-9.2s10,5.3,10,9.2v16.7h11.8V298H519.3z M539.3,304.3h3.6v19.3
				h-3.6V304.3z M528.8,308.1h3.7v14.1h-3.7V308.1z M549.7,308.1h3.7v14.1h-3.7V308.1z"/>
			<rect x="515.3" y="289.9" class="st3" width="51.6" height="8"/>
			<rect x="515.3" y="289.9" class="st5" width="51.6" height="8"/>
			<path class="st3" d="M510.4,280.6v9.3h61.3v-9.3H564v5.1h-8.7v-5.1h-9.9v5.1h-8.7v-5.1h-9.9v5.1h-8.7v-5.1H510.4z"/>
			<path class="st5" d="M510.4,280.6v9.3h61.3v-9.3H564v5.1h-8.7v-5.1h-9.9v5.1h-8.7v-5.1h-9.9v5.1h-8.7v-5.1H510.4z"/>
			<rect x="499.1" y="373.2" class="st3" width="84.1" height="5.8"/>
			<rect x="499.1" y="373.2" class="st5" width="84.1" height="5.8"/>
			<path class="st3" d="M495.6,354.3v18.9h90.9v-18.9h-8.6v7.3h-11.5v-7.3H551v7.3h-20v-7.3h-15.4v7.3h-11.5v-7.3H495.6z"/>
			<path class="st5" d="M495.6,354.3v18.9h90.9v-18.9h-8.6v7.3h-11.5v-7.3H551v7.3h-20v-7.3h-15.4v7.3h-11.5v-7.3H495.6z"/>
			<path class="st3" d="M506.6,379v68.7h16.2V422c0-12.1,8.1-17.8,18.3-17.8c9.8,0,18.3,5.7,18.3,17.8v25.7h16.2V379H506.6z"/>
			<path class="st11" d="M506.6,379v68.7h16.2V422c0-12.1,8.1-17.8,18.3-17.8c9.8,0,18.3,5.7,18.3,17.8v25.7h16.2V379H506.6z"/>
			<rect x="217.5" y="563.9" class="st3" width="647.2" height="359.4"/>
		</g>
	</g>
	<g>
		<g id="SVGID_1_">
			<path d="M559,8.2c4.7,0,9.4,0,14.1,0.1c3.4,0,6.8,0.7,10,2.1c30.3,13.5,60.6,27,91,40.3c4.4,1.9,6.5,3.6,5.2,9.1
				c-2,9.3-2.9,18.9-4.3,28.8l8.1,5.2c-7.6,0.7-9.4,5.3-10.4,11.1c-1.5,8.7-3.4,17.3-5.3,26c-1.4,6.4-0.6,11.7,6.4,14.3
				c1.8,0.7,3.7,1.3,4.7,3.4c-0.6,2-1.5,2.6-2.4,2.6c-1.3,0-2.7-1.1-3.9-1.6c-1.6-0.6-3-0.9-4.1-0.9c-2.8,0-4.1,2-4.1,6.6
				c-0.1,10.1-1.7,20.1-0.3,30.2c0.8,5.4,3.3,8.4,8.2,8.8c7.6,0.6,10,4.8,11.2,11.8c4.4,24.6,3.5,48.4-7.6,71.2
				c-5.6,11.5-7.1,24.5-13.8,36.1c-2-1.2-3.6-1.8-5.1-1.8c-2.8,0-4.7,2.2-5.9,5.9c-1.8,5.6-4.1,11.1-5.4,16.8
				c-1.1,4.7-0.8,9.1,2.7,13.7c5.6,7.5,7.7,16.2,4.4,25.8c-1.5,4.3-4.2,9,1.8,12.8c2.3,1.5,0.7,4.1-1,5.7c-3,2.5-3.6,6.9-1.4,10.1
				c4.6,6.9,2.4,13.1-0.5,19.5c-1.7,3.8-2.8,7.3,0.1,11c0.6,0.8,0.9,1.8,0.7,2.8c-3.9,8-1.1,17.3-5.5,25.5
				c-8,14.9-14.1,31.8-11,48.1c3.4,17.7-0.2,37.9,15.5,52.9c10.4,9.9,9.6,22.3,1.2,34.2c-3,4.3-1.7,9.6-0.6,14.3
				c1.7,7,0.8,14.3-2.5,20.7c-4.2,8.3-7.7,17.1-13.2,24.7c-6,8.4-8,17.8-8.8,27.7c-0.5,6.1-0.7,12.3-2,18.3
				c-3.1,14.5-1.7,28.3,5.2,41.4c1.7,3.2,0.1,5.9-0.9,8.4c-4.7,11.9-9.4,23.8-14.9,35.3c-4.6,9.7-6,19.6-5.3,30.1
				c0.9,12.8-1.6,24.3-10.8,34c-3.6,3.8-5.7,9.2-8.6,13.7c-6.6,10.1-8.5,20.7-4.7,32.3c0.8,2.6,1.2,5.3,1.2,8c0,3-0.6,5.7-4.6,6.3
				c-4.8,0.7-8.6,3.4-11.7,7.1c-2.4,2.9-5.6,4.6-9,4.6c-1,0-1.9-0.1-2.9-0.4c-17.7-5.5-34.5-12.6-49-24.8
				c-15-12.5-14.4-29.3-14.4-46.1c0-12.7,3-24.8,10.1-35.7c3-4.4,3.3-10.1,0.8-14.8c-2.5-5-5.5-9.9-8.4-14.7
				c-2.6-4.3-4.6-8.7-4.6-13.8c0.1-14.4-4.5-27.5-11.3-40c-1.3-2.3-2.8-4.5-2.2-7.5c2.6-14-5.4-23.7-19.6-24.1
				c-3.6-10.5-13.5-16.9-19.2-26.9c1.2-0.5,2.2-0.6,3.2-0.6c3.4,0,6.1,2.1,9.1,2.8c1.3,0.3,2.4,0.5,3.4,0.5c4.1,0,5.9-2.6,6.4-7.6
				c0.6-6.7-5.1-14-11.7-15.9c-0.6-0.2-1.2-0.2-1.7-0.2c-2.7,0-4,2.2-5.8,3.5c-2.7,2-4.7,3.1-6.2,3.1c-2.1,0-3.2-2-4.2-6.4
				c-3.4-15.6-8.8-29.9-20.8-41.4c-6.1-5.8-9.8-14.1-14.9-21c-4-5.3-8.6-10.1-14.9-12.9c-2.3-0.9-4.2-2.7-5.3-5
				c-6.7-17.4-20.5-29.8-31.2-44.4c-23-31.4-46.4-62.4-69.9-93.5c-3.1-4.1-2.5-6.5,2.5-9.1c9.8,12.7,19.7,25.4,29.5,38.3
				c27.9,36.3,55.8,72.6,83.6,109c2.2,2.9,5.3,4.5,8.1,4.5c2.3,0,4.3-1.1,5.6-3.4c4.6-8.5,12.8-11.8,19.8-17c9.4-7,9.5-7.1,5.7-18.1
				c-7-20.4-13.8-40.9-21.3-61.2c-2.3-6.3-0.7-9.8,4.8-12.4c5.3-2.5,10.6-5.1,16-7.5c2.8-1.3,5.5-2.4,5.1-6.2
				c-0.4-3.8-0.7-7.4-4.5-9.4c-1.5-0.8-3.8-1.1-4.5-2.3c-2.7-4.8-5.8-6.2-9.2-6.2c-3.6,0-7.5,1.6-11.4,2.6c-2.4,0.6-5.3,2.1-7.7,2.1
				c-1.7,0-3.1-0.7-3.9-3c-2-5.9,4.7-7.1,8.8-8.6c7.6-2.8,15.3-5,23.9-7.7c-7.6-30.4-20.5-57.9-35.7-84.6c-3.8,0.9-7.4,2.5-10.6,4.8
				c3.3,7.9,6.6,15.8,9.9,23.7c1.4,3.4,3.4,7,0,10.2c-1.4,1.3-2.9,1.8-4.4,1.8c-2.2,0-4.5-1-6.6-1.9c-3.5-1.4-5.6-4.5-6.5-8.4
				c-3.5-14.5-7.2-29-10.9-43.5c-0.5-1.9-1-3.8,0-5.7c0.4,0,0.9-0.2,1.2-0.2c0.1,0,0.2,0,0.2,0.1c3.5,4.8,7.5,7.1,12,7.1
				c2.8,0,5.8-0.9,9-2.7c0.7-0.4,1.5-0.6,2.2-0.6c1.8,0,3.6,1.2,5,2.8c1.4,1.6,2.7,3.4,5.3,3.4c0.3,0,0.7,0,1.1-0.1v-9.9
				c-2.3-0.7-4.6-0.9-6.9-0.9c-2.7,0-5.4,0.2-8.1,0.2c-0.8,0-1.6,0-2.4-0.1c-7.6-0.6-12.4-3.6-13.6-11.6
				c-2.1-14.1-9.1-25.7-18.2-36.4c-6.8-8.1-14.7-14.4-24.6-18.2c-7.5-2.9-10.6-7.9-10.2-16.5c0.8-14.7,0.4-29.6,0-44.3
				c-0.2-6.6,2.6-9.4,8.8-10.1c2.7-0.3,5.3-0.8,8-1.6c2.8-0.8,6-1,7.1-4.4c0.6-1.9-0.9-3.1-2.1-4.4c-0.9-1-1.8-1.4-2.7-1.4
				c-1.8,0-3.5,1.6-5.4,2.2c-5.7-6.4-3.5-15-6.2-22.2c-1.1-0.6-2.2-0.8-3.3-0.8c-1.1,0-2.3,0.2-3.6,0.3c-2.2,5.8,0.6,12.1-1.2,18
				c-3.8-0.7-3.8-0.7-5.7-17.3l-8.1,0.7c0,2.2-0.1,4.5-0.4,6.7c-0.8,4.2,2.4,10.4-6,10.9c-1.2,0.1-2.4,0.1-3.4,0.1
				c-7.8,0-9.8-1.9-11.2-9.9c-0.5-2.9-1.1-5.8-1.6-8.6c-1.3-0.6-2.8-0.9-4.2-0.9c-1,0-1.9,0.1-2.9,0.4c-5.5,4.8,4.4,14.9-7.6,17.8
				v-14.3c-1.2-0.9-2.4-1.2-3.6-1.2c-1.3,0-2.6,0.4-4.1,1c-1.5,25.3-0.9,50.8-1.2,76c-1.4,1.4-2.7,1.7-3.9,1.7c-1,0-1.9-0.2-2.9-0.2
				c-0.2,0-0.4,0-0.6,0v-88c1,0.1,2,0.2,2.8,0.2c9.3,0,7.6-8.6,9.6-14.5c0.9-0.8,1.9-1,3-1c0.8,0,1.7,0.1,2.5,0.1
				c13.3,0,26.6-0.2,39.9-0.2c19.2,0,38.3,0.4,57.5,2c17,1.5,34,4.6,46.1,19.4c5.5,6.8,12.7,12.3,19.5,18.8c3.1-3.4,6.2-6.5,11-6.6
				c2.3-0.1,4.6-1.5,4.5-4.1c-0.3-5,1.9-6.8,5.9-6.8c1,0,2.2,0.1,3.4,0.3c0.1-14.2-1.7-27.7-3.1-42.5l-104.4,3.7V78.3
				c5.8,0.3,12.1,0.8,18.4,0.9c0.2,0,0.3,0,0.5,0c8.9,0,12.1-2.7,14.5-11.4c1-3.5,2.6-6.3,6.5-7.3c3.9,2.2,1.5,5.2,1,7.8
				c-0.9,5.1,0.2,8.1,5.7,8.1c0.3,0,0.7,0,1,0c28.3-1.9,56.6-1.1,84.9-2c0.2,0,0.4,0,0.6,0c0.6,0,1.3,0,1.9,0c2.6,0,5.1-0.3,6.2-3.7
				c1.3-4.2-0.3-7.6-3.4-10.6c-8.6-8.4-8.8-8.6-3.3-19.3c2.3-4.6,2.1-8.1-0.9-12.2c-3.7-5.1-7.4-10.4-9.1-16.6c1.3-1.7,2.9-2,4.6-2
				c0.9,0,1.9,0.1,2.7,0.1c0.1,0,0.3,0,0.4,0C503.9,9.7,531.5,8.2,559,8.2 M559,4.2c-16.1,0-32.4,0.5-48.2,1
				c-11.3,0.4-23,0.7-34.4,0.9c0,0-0.1,0-0.1,0c-0.1,0-0.2,0-0.2,0c-0.3,0-0.7,0-1.1,0c-0.5,0-1-0.1-1.6-0.1c-1.2,0-4.9,0-7.7,3.5
				c-0.8,1-1,2.3-0.7,3.5c1.8,6.7,5.6,12.3,9.7,17.9c2.1,2.9,2.2,4.7,0.6,8.1c-2.8,5.5-4.7,9.1-4,13c0.7,3.7,3.3,6.3,8.1,10.9
				c3,2.9,2.9,4.9,2.4,6.6c-0.2,0.7-0.3,0.9-2.4,0.9c-0.3,0-0.6,0-0.9,0c-0.3,0-0.7,0-1,0c-0.2,0-0.5,0-0.7,0
				c-10.9,0.3-22,0.4-32.7,0.5c-17.1,0.1-34.8,0.3-52.3,1.5c-0.3,0-0.5,0-0.8,0c-1.2,0-1.7-0.2-1.8-0.3c-0.1-0.1-0.3-0.9,0.1-3.1
				c0.1-0.3,0.2-0.8,0.4-1.2c0.7-2,2.6-7.4-3.4-10.8c-0.6-0.3-1.3-0.5-2-0.5c-0.3,0-0.7,0-1,0.1c-6.3,1.6-8.3,6.5-9.4,10.1
				c0,0,0,0,0,0.1c-1.9,7.1-3.6,8.4-10.6,8.4c-0.2,0-0.3,0-0.5,0c-4.3-0.1-8.7-0.3-12.9-0.6c-1.8-0.1-3.6-0.2-5.3-0.3
				c-0.1,0-0.1,0-0.2,0c-1,0-2,0.4-2.8,1.1c-0.8,0.8-1.2,1.8-1.2,2.9v29.5c0,1.1,0.4,2.1,1.2,2.9c0.7,0.7,1.7,1.1,2.8,1.1
				c0,0,0.1,0,0.1,0l100.6-3.6c0.2,1.9,0.4,3.7,0.6,5.6c1,9.8,1.9,19,2.1,28.5c-2.9,0.1-5.3,1-6.9,2.8c-1.8,1.9-2.6,4.5-2.4,8
				c-0.1,0.1-0.4,0.1-0.6,0.1c-4.8,0.1-8.3,2.5-11,5c-1.3-1.2-2.6-2.3-3.9-3.5c-4.6-4.1-8.9-7.9-12.4-12.2
				c-13.5-16.5-32.3-19.4-48.9-20.9c-20.7-1.8-40.8-2-57.8-2c-7.6,0-15.2,0.1-22.6,0.1c-5.7,0-11.5,0.1-17.3,0.1c-0.2,0-0.6,0-0.9,0
				c-0.5,0-1-0.1-1.6-0.1c-0.9,0-3.5,0-5.7,2.1c-0.5,0.4-0.8,1-1,1.6c-0.6,1.8-0.9,3.6-1.2,5.4c-0.9,5.7-1.5,6.4-4.6,6.4
				c-0.7,0-1.4-0.1-2.2-0.2c-0.2,0-0.4,0-0.6,0c-1,0-1.9,0.3-2.6,1c-0.9,0.8-1.4,1.9-1.4,3v88c0,1.1,0.5,2.2,1.3,2.9
				c0.7,0.7,1.7,1.1,2.7,1.1c0.1,0,0.2,0,0.3,0c0.1,0,0.2,0,0.2,0c0.3,0,0.7,0,1.1,0.1c0.5,0,1.2,0.1,1.8,0.1c2.7,0,4.9-0.9,6.8-2.8
				c0.7-0.7,1.2-1.7,1.2-2.8c0.1-7.6,0.1-15.3,0.1-22.8c0-15.6,0-31.7,0.8-47.5v8.8c0,1.2,0.6,2.4,1.5,3.1c0.7,0.6,1.6,0.9,2.5,0.9
				c0.3,0,0.6,0,0.9-0.1c10.5-2.5,9.6-10.3,9.1-14.4c-0.2-1.9-0.3-3-0.1-3.7c0.2,0,0.4,0,0.6,0c0.2,0,0.5,0,0.7,0
				c0.1,0.5,0.2,1,0.3,1.4c0.3,1.6,0.6,3.2,0.9,4.7c1.8,10,5.5,13.2,15.2,13.2c1,0,2.2,0,3.6-0.1c10.2-0.6,9.9-8.3,9.7-11.6
				c0-1-0.1-1.9,0-2.6c0-0.1,0-0.1,0-0.2c0.2-1.1,0.3-2.3,0.3-3.6l0.7-0.1c0.7,6.2,1.2,9.4,1.9,11.5c1.5,4.4,4.4,5,6.6,5.4
				c0.2,0,0.5,0.1,0.7,0.1c1.7,0,3.3-1.1,3.8-2.8c1.1-3.5,0.8-7,0.6-10.1c-0.1-2-0.3-3.8-0.1-5.4c0.1,0,0.2,0,0.4,0c0,0,0.1,0,0.1,0
				c0.5,1.8,0.7,3.9,0.9,6c0.5,5.1,1.2,10.8,5.5,15.8c0.8,0.9,1.9,1.3,3,1.3c0.4,0,0.8-0.1,1.2-0.2c1.1-0.4,2.1-0.9,2.9-1.3
				c0.3-0.2,0.7-0.4,1-0.5c0.2,0.2,0.3,0.4,0.5,0.5c0.1,0.1,0.3,0.3,0.4,0.4c-0.3,0.3-1,0.5-2.6,0.9c-0.5,0.1-1,0.2-1.5,0.4
				c-2.4,0.7-4.8,1.2-7.3,1.5c-8.5,1-12.6,5.7-12.4,14.2c0.4,14.4,0.8,29.4,0,44c-0.5,10.3,3.7,16.9,12.8,20.4
				c8.6,3.3,16.1,8.9,23,17c10.1,11.9,15.6,22.8,17.3,34.4c1.3,8.4,6,13.2,14.4,14.6c-0.7,0.1-1.4,0.2-2,0.2c-3.2,0-6-1.8-8.8-5.5
				c-0.1-0.2-0.2-0.3-0.4-0.4c-0.8-0.8-1.9-1.2-3.1-1.2c-0.5,0-1,0.1-1.3,0.2c0,0-0.1,0-0.1,0c-1.4,0.1-2.6,0.9-3.3,2.1
				c-1.7,3.3-0.9,6.3-0.3,8.6c3.6,14.2,7.4,28.9,10.9,43.4c1.2,5.4,4.4,9.4,8.9,11.2l0.5,0.2c2.1,0.9,4.8,1.9,7.6,1.9
				c2.7,0,5.1-1,7.1-2.8c5.1-4.8,2.7-10.4,1.3-13.8c-0.1-0.3-0.2-0.6-0.4-0.9l-8.6-20.6c1.2-0.6,2.4-1.2,3.7-1.6
				c15.8,28.2,26.3,52.9,32.8,77.2c-1,0.3-2,0.6-2.9,0.9c-6.1,1.9-11.8,3.6-17.5,5.7c-0.5,0.2-1,0.4-1.6,0.5
				c-3.3,1.1-7.5,2.5-9.3,6.2c-0.7,1.4-1.3,3.8-0.3,6.9c0,0,0,0,0,0.1c1.3,3.6,4.1,5.7,7.7,5.7c2.3,0,4.4-0.8,6.4-1.5
				c0.8-0.3,1.6-0.6,2.3-0.8c1.2-0.3,2.4-0.7,3.5-1c2.5-0.8,4.9-1.5,6.8-1.5c1.8,0,3.7,0.5,5.8,4.1c0,0,0,0,0,0.1
				c1.2,2.1,3.3,2.8,4.9,3.3c0.4,0.2,0.9,0.3,1.2,0.5c1.7,0.9,2,2.3,2.4,6l0,0.2c0,0.4,0,0.6,0,0.6c-0.2,0.4-1.7,1-2.5,1.4l-0.3,0.1
				c-3.9,1.7-7.8,3.6-11.5,5.4c-1.5,0.7-3,1.4-4.6,2.2c-7.6,3.6-9.8,9.3-6.9,17.4c5.7,15.5,11.2,31.4,16.4,46.8
				c1.6,4.8,3.2,9.5,4.9,14.3c1.3,3.7,2.4,7,2.1,8c-0.3,1.1-3,3-6.4,5.6c-1.7,1.3-3.5,2.4-5.4,3.7c-5.7,3.7-11.6,7.5-15.5,14.6
				c-0.5,0.9-1.1,1.3-2.1,1.3c-1.6,0-3.6-1.2-4.9-2.9c-27.8-36.4-56.2-73.3-83.6-109c-7-9.3-14.2-18.6-21.2-27.6
				c-2.8-3.6-5.5-7.2-8.3-10.7c-0.8-1-2-1.6-3.2-1.6c-0.6,0-1.3,0.1-1.8,0.5c-2.4,1.2-5.6,3.3-6.4,6.8c-0.8,3.4,1.1,6.4,2.5,8.3
				c21.6,28.6,46.1,61,69.9,93.5c3.3,4.5,7,8.9,10.5,13.1c8.1,9.7,15.8,18.9,20.2,30.3c0,0.1,0.1,0.2,0.1,0.3c1.5,3.2,4.1,5.7,7.4,7
				c4.7,2.1,8.8,5.7,13.3,11.6c1.7,2.4,3.3,4.9,5,7.6c3,4.8,6.1,9.8,10.3,13.9c9.8,9.4,15.7,21.2,19.6,39.4c0.6,2.6,2,9.5,8.1,9.5
				c2.4,0,4.9-1.1,8.6-3.9c0.7-0.5,1.3-1.1,1.8-1.6c0.9-0.9,1.3-1.2,1.6-1.2c0.1,0,0.3,0,0.6,0.1c4.9,1.4,9.2,7.1,8.8,11.7
				c-0.4,3.9-1.3,3.9-2.4,3.9c-0.7,0-1.5-0.1-2.5-0.3c-0.8-0.2-1.7-0.6-2.7-1c-2-0.9-4.4-1.9-7.3-1.9c-1.6,0-3.1,0.3-4.7,0.9
				c-1.1,0.4-1.9,1.3-2.3,2.4c-0.4,1.1-0.3,2.3,0.3,3.3c2.6,4.6,6,8.4,9.3,12.1c4,4.6,7.8,8.9,9.6,14.1c0.5,1.6,2,2.7,3.7,2.7
				c5.8,0.2,10.4,2.1,13.2,5.5c2.8,3.4,3.7,8.2,2.6,13.8c-0.8,4.2,1,7.3,2.3,9.6c0.1,0.2,0.2,0.4,0.3,0.6
				c7.5,13.7,10.9,25.8,10.8,38c0,6.5,2.6,11.7,5.2,15.9l0.6,0.9c2.7,4.4,5.4,8.9,7.7,13.5c0,0,0,0.1,0,0.1
				c1.8,3.4,1.6,7.5-0.6,10.7c0,0,0,0,0,0.1c-7.1,10.9-10.7,23.7-10.7,37.9l0,1.9c0,16.8,0,34.1,15.8,47.3
				c16.5,13.9,35.6,21,50.4,25.5c0,0,0.1,0,0.1,0c1.3,0.4,2.7,0.6,4,0.6c4.5,0,8.8-2.1,12-6.1c2.8-3.3,5.8-5.2,9.2-5.7
				c5.3-0.8,8-4.2,8-10.3c0-3.1-0.5-6.2-1.4-9.2c0,0,0,0,0-0.1c-3.3-10-1.9-19.5,4.2-28.9c1.1-1.7,2.1-3.5,3-5.3
				c1.6-3,3.2-5.8,5.1-7.9c9.1-9.6,13-21.7,11.9-37c-0.7-10.5,0.9-19.6,4.9-28.1c5.6-11.6,10.4-23.8,15-35.5
				c0.1-0.3,0.2-0.6,0.4-0.9c1.1-2.5,2.7-6.4,0.3-10.9c-6.3-11.9-7.8-24.6-4.8-38.7c1.1-5,1.4-10,1.8-14.9c0.1-1.3,0.2-2.6,0.3-3.9
				c0.9-11.4,3.3-19.1,8.1-25.7c4.2-5.8,7.3-12.3,10.3-18.6c1-2.2,2.1-4.5,3.2-6.6c3.7-7.2,4.7-15.6,2.8-23.5l0-0.2
				c-1-4.2-1.9-8.1,0-10.9c10.1-14.3,9.5-28.7-1.7-39.4c-10.4-9.9-11.4-22.5-12.5-35.7c-0.4-5-0.8-10.1-1.8-15
				c-2.4-12.8,1-27.6,10.6-45.5c2.7-5,3.1-10.2,3.4-14.9c0.3-3.9,0.6-7.6,2.1-10.8c0.1-0.3,0.3-0.6,0.3-1c0.4-2.1-0.1-4.2-1.4-6
				c0,0,0,0-0.1-0.1c-1.4-1.7-1.3-3.1,0.4-6.9c3.2-7.1,5.9-14.8,0.2-23.4c0,0,0,0,0,0c-1-1.5-0.7-3.6,0.7-4.8
				c0.1-0.1,0.1-0.1,0.2-0.2c1.4-1.3,3.7-4,3.4-7.2c-0.2-1.9-1.2-3.6-2.9-4.7c0,0,0,0,0,0c-2.3-1.5-2.4-2.2-0.7-6.6
				c0.2-0.5,0.4-1,0.6-1.5c3.5-10.2,1.8-20.4-5-29.5c-2.4-3.2-3-6.2-2-10.4c0.8-3.6,2.1-7.1,3.4-10.8c0.7-1.9,1.3-3.8,1.9-5.7
				c0.3-0.9,1.1-3.1,2.1-3.1c0.3,0,1.3,0.1,3,1.2c0.6,0.4,1.4,0.6,2.1,0.6c0.3,0,0.7,0,1-0.1c1.1-0.3,1.9-0.9,2.5-1.9
				c3.9-6.8,6.1-13.9,8.3-20.8c1.7-5.5,3.3-10.6,5.7-15.5c10.4-21.3,13-45.4,7.9-73.7c-1.1-6.6-3.8-14.2-14.8-15.1
				c-2-0.2-3.9-0.7-4.6-5.4c-0.9-6.3-0.5-12.6-0.1-19.3c0.2-3.4,0.4-6.8,0.4-10.3c0-1.5,0.2-2.3,0.3-2.6c0.4,0,1.1,0.2,2.4,0.6
				c0.2,0.1,0.5,0.2,0.7,0.4c1.1,0.6,2.7,1.5,4.6,1.5c1.4,0,4.8-0.5,6.2-5.4c0.3-1,0.2-2-0.2-2.9c-1.6-3.4-4.6-4.5-6.5-5.3l-0.4-0.1
				c0,0,0,0-0.1,0c-3.6-1.3-5.3-3.3-3.9-9.7l0.3-1.3c1.8-8.1,3.6-16.5,5.1-24.9c1-5.8,2.4-7.4,6.8-7.8c1.7-0.2,3.1-1.4,3.5-3
				c0.4-1.7-0.3-3.4-1.7-4.3l-5.9-3.8c0.3-2,0.5-4,0.8-6c0.9-6.9,1.7-13.5,3.1-19.9c1.9-8.3-2.5-11.5-7.5-13.6
				c-30.4-13.3-61.2-27-91-40.3c-3.7-1.6-7.6-2.4-11.6-2.4C568.6,4.2,563.9,4.2,559,4.2L559,4.2z M394,319.5
				C394,319.5,394,319.5,394,319.5C394,319.5,394,319.5,394,319.5L394,319.5L394,319.5z"/>
		</g>
	</g>
</g>
<rect class="st9" width="931.4" height="931.4"/>
</svg>
