<?xml version="1.0" encoding="utf-8"?>
<!-- Generator: Adobe Illustrator 24.3.0, SVG Export Plug-In . SVG Version: 6.00 Build 0)  -->
<svg version="1.1" id="Layer_1" xmlns="http://www.w3.org/2000/svg" xmlns:xlink="http://www.w3.org/1999/xlink" x="0px" y="0px"
	 viewBox="0 0 931.4 931.4" style="enable-background:new 0 0 931.4 931.4;" xml:space="preserve">
<style type="text/css">
	.st0{clip-path:url(#SVGID_2_);}
	.st1{fill:#DB2F1E;}
	.st2{fill:#FFFFFF;}
	.st3{fill:none;}
	.st4{clip-path:url(#SVGID_4_);}
</style>
<g>
	<g>
		<defs>
			<path id="SVGID_1_" d="M862.7,517.8c-2.1-1-4.5-2.7-6.1,0.2c-2.9,4.9-7.1,6.7-13.2,5.5c1.7,5.2-0.9,8.2-4,11.2
				c-4.9,4.3-6.8,11.1-4.9,17.4c1.4,4.6,2.2,9.4,2.4,14.2c0.2,6.3,3.3,7.7,8.4,4.1c2.3-1.7,3.9-1.3,5.5,0.7c1,1.3,2.1,2.6,3.1,3.9
				c4.5,6.4,4.1,8-3.3,11.2c-2.3,1-3.9,2.3-2.5,4.9s0,3.8-2,5.1c-5.4,3.4-5.4,6.5,0.1,9.8c1.4,0.9,2.9,1.6,4.5,2.1
				c3.2,1.2,5.5,2.7,5.1,6.8c-0.4,3.6,3.6,4.4,5.2,6.9c-2.5,9.3-3.1,9.8-12.7,10.1c-2.8,0.1-4.6,1.6-6.5,3.2
				c-2.2,1.8-4.6,3.3-7.2,1.5c-2.8-1.9-3-5-2.1-8.1c1.9-6.6,1.3-7.6-5.5-9s-7.3-2.1-6.2-9.4c0.3-1.3-0.2-2.7-1.3-3.5
				c-2.9-1.9-4-4-0.3-6.8c-4-1.5-7.6-3.8-10.6-6.7c-1.3,5-3.5,4.3-6.5,2.3c-5.2-3.4-9.5-2.5-13.4,2.4s-7.6,6.1-12.6,4.2
				c-7.8-3-11-0.8-11.7,7.9c0,1-0.1,2-0.2,3c-0.7,4.2-3.1,5.7-6.6,3.4c-2.1-1.3-3.7-1.5-5.8-0.3c-1.1,0.5-2.3,0.6-3.4,0.3
				c-5.8-1.6-11.7-2.5-17.6-2.8c-5-0.4-6.5-5.4-6.7-9.9c-0.2-3.7-1.3-6-5-7c-2.5-0.7-3.7-2.2-2-4.8s1.1-5.1-0.8-7.4
				c-5.3-6.2-7.6-14.4-6.5-22.4c0.4-2.6-0.5-5.3-2.5-7c-2.2,1.6-2.1,4.3-3.2,6.4c-0.7,1.4-1.3,2.9-3,3.1c-1.9,0.2-3-1.2-3.9-2.6
				c-0.4-0.7-0.8-1.5-1.2-2.2c-1.4-2.7-2-6.7-6.1-6.2c-4.7,0.5-9.1,2.2-12.3,5.9c-1.2,1.3-0.5,2.9,0.2,4.3c1.5,3.2,0.9,5.8-1.8,8
				c-3.6,3-3.2,6,0.5,8.5s4.8,5.7,3.8,9.9c-0.7,3.1-0.3,6.4,1.3,9.2c1.8,3.3,1.8,7.3-0.1,10.5c-2.7,5.1-1.7,11.7-7,15.6
				c1.6,7.9-3.8,11.1-9.4,14.3c-1.8,1-1.6,3.2-1.6,5c0,3.5-1.5,5.6-5.2,5c-3.9-0.6-5.6,1.6-6.3,4.8c-1.2,5.3-3.2,9.5-9.2,11.1
				c-3.4,0.9-3.2,4-2,7.1c2.4,6.2,1.7,8.7-4.6,10.7c-6.8,2.1-9,5.9-8.4,12.8c0.5,5.7,1.2,11.7-1.8,17.1c-0.6,1.1-0.6,3.4,0.4,3.7
				c5.5,1.6,6.1,7.7,10,10.6c4.3,3.2,4.7,5.6,1.8,10.2c-2.4,3.8-4.8,7.7-7.5,11.2c-2,2.6-4.4,4.9-7.9,1.8c-0.3-0.3-1.2-0.7-1.3-0.5
				c-4.1,3.7-9.3,0-13.6,2.1c-1.8,0.9-3.7,1.6-5.2-1.2c2.9-2.2,6.3-4,6.8-8.4c-4.2-1.1-5.9-3.6-4-8c0.9-1.9,0.2-3.9-0.5-5.8
				c-1.7-4.3-3.7-8.5-6.1-12.5c-2.1-4.2-5.9-7.3-10.5-8.5c-2.1-0.5-4.1-1.5-5.8-2.8c-3.1-2.3-3.2-5.7-0.1-7.8
				c3.3-2.2,4.4-4.8,2.7-8.1c1.1-1.4,2.3-1.5,3.4-1.8c2.5-0.7,2.9-2.3,1.3-4c-4-4.2-6.3-10.8-14.1-10c-2.9,0.3-4.5-2.5-5.6-4.7
				c-2.3-0.2-3.3,1.2-4.5,2.4c-3.6,3.7-7.5,3.5-9.6-1c-1.7-3.7-4.1-4.9-7.9-4.6c-3.3,0.3-5.8-1.3-8-3.5s-3.1-4.3-0.5-6.9
				c2.4-2.4,1.8-4.5-1.2-5.8c-2.5-1-4.5-3.1-5.5-5.6c-2-4.6-5.5-6.3-10.3-6.4c-3.4-0.1-6.3-0.8-6.2-5.3c0-3.7-4.6-2.1-5.9-5.1
				c3.5-3.1,2-6.5,0.2-9.9c-2.9-5.3-2-10.2,2.4-14c11.1-9.9,7.5-20.4,1.5-33.7c-0.8-1.9-2.8-3.1-4.9-2.7c-7.5,1-14.8,2.8-20.8,7.7
				c-4.7,3.9-5.2,6.8-2,12c2.2,3.5,1,6.3-2.4,7c-7.8,1.5-10.2,8.9-15.3,13.3c-1.7,1.4-2.1,3.8-2.1,6c0,3.7-2,4.8-5.4,5
				c-3,0.1-6,0.5-8.9,1.2c-8,2.1-10.8,9.2-5.2,15.1c4.4,4.8,4.7,11.3,8.8,16c0.4,0.7,0.6,1.6,0.5,2.4c0.5,7.7-9.2,19.5-16.9,20
				c-5.6,0.3-8.6,3-9.4,8.3c-0.6,4-1.1,7.9-1.9,11.8c-1.6,7.8-4.5,10.1-12.3,10.1c-8.4,0-14.6,4.8-16.6,13c-0.5,2.3-1.1,4.5-1.9,6.7
				c-1.9,4.4-5.1,5.3-9.2,2.8c-1.3-0.8-2.8-2.3-4-1.6c-4.9,3.1-7.7,0.7-10.7-3c-1.5-1.9-3.7-0.5-5.4,0.7c-2,1.3-4.1,2.6-6.4,0.9
				s-1.6-3.6-0.3-5.7c0.8-1.3,0.1-2.6-1.1-3.4c-2.1-1.3-4.4-2.1-6.3-4c-1.2-1.2-2.4,0.1-3.4,1c-4.7,3.5-7.4,3-10.4-2.2
				c-0.6-1.2-1.3-2.3-2.1-3.4c-2.5-2.7-7-2-7.3,1.6c-0.6,6.7-4.1,8.8-10.1,8.7c-1.7,0.1-3.3,1.1-4,2.7c-4.2,7.6-11.8,10.3-19.2,13.3
				c-2.5,1-4.3-0.1-5.5-2.1c-2.4-3.7-5.5-3.7-9.1-2.2c-6,2.5-11.7,5.7-16.9,9.5c-2.7,2-4,4.8-5.3,7.7c-2.2,4.7-4.7,5-7.4,0.7
				c-2.5-3.8-4.3-4.5-7.2-0.2c-2.6,3.8-6.5,3-7.7-1.5c-1.2-4.3-4.6-6.8-6.6-10.2c-3.9-6.3-9-12.9-6.8-21.2c0.9-3.4-0.2-5.7-2.9-7.2
				c-4-2.1-6.8-6.1-7.5-10.6c-0.3-1.5-0.8-2.9-1.6-4.2c-2.2-4.6-4.5-5.2-8.7-2.3c-1.8,1.2-3.3,2.8-5.5,3.3c-1.3,0.4-2.7-0.1-3.6-1.1
				c-0.8-1-1.1-2.5-0.1-3.2c5-4,0.9-6.4-1.5-9c0.1-0.4,0.1-0.8,0.3-1c1.7-1.8,5.3-2.4,4.3-6s-4.2-3.8-7.2-4.5s-6-1-8.7-2
				c-4.4-1.6-5-4.5-1.7-7.8c1.6-1.3,2.2-3.4,1.7-5.4c-1.8-7.7,0.5-13.9,6.7-19c4.9-4.1,4.8-8.2,0.3-12.8c-1.1-1.1-2.2-2-3.3-3
				c-2.7-2.3-5.5-4.6-3.6-8.6c-5.7-3.2-6.5-7.1-2.3-11.3c3.8-3.8,3.7-8.8,4.5-13.4c0.4-2.5-2-3.1-4-3.6c-14.8-3.6-29.9-5.9-45.2-7
				c-7.2-0.6-14.4,1-20.7,4.7c-9.3,5.5-19.2,9.8-29.6,12.8c-5,1.3-9.6,4-13.2,7.8c-2.8,3.1-4.4,7.2-4.4,11.4c0,1.5,0.1,3.5,1.8,3.7
				c3.9,0.6,3.6,3.4,3.3,6c-0.6,5.1,1.3,7.2,6.5,6c1.1-0.1,2.2,0,3.3,0.2c1.3,2.5-0.3,3.5-1.8,4.6c-7.9,5.7-15.4,11.7-18.6,21.5
				c-0.6,1.8-2.3,3-4.2,2.9c-3.9,0-6.4,2.2-8.7,5.1c-4,5-6.4,5.2-11.6,1.2c-1.5-1.4-3.7-1.6-5.5-0.7c-8.2,4-8.4,4-18.4,3.2
				c-0.1-0.2-0.5-0.6-0.4-0.7c2.1-5.7,3.7-11.3-0.8-16.7c-0.6-0.8-0.2-1.9,0.3-2.8c2.4-4.6,5.6-8.8,9.2-12.5
				c0.9,0.6,1.7,0.9,2.1,1.6c2.8,4.2,5.6,4.9,8.8,0.5c1.5-2,3.7-1.9,5.9-2c3.6-0.2,4.7-2.1,2.1-4.8c-2.3-2.3-1.9-4.3-0.7-6.7
				c3-6.2,6.1-12.2,8.9-18.5c3-6.7,0.2-12.4-6.9-13.8c-5.3-1-9.3-2.8-8.5-9.3c0.1-1.5-0.5-3-1.6-4.1c-4.2-4.5-2.6-8.6,0.9-12.3
				c4.5-4.8,9-9.5,7.9-17c2.2-0.2,3.8-0.3,5.4-0.6c1.7-0.3,3-1.7,3.2-3.4c0.3-1.5-0.4-3-1.7-3.8c-4.2-3-4.2-4.7-0.1-8.2
				c6.7-5.7,13.5-11.4,20.2-17.1c3.9-3.3,7.5-7.1,10.5-11.3c3-4.2,6.8-6.8,12.2-6.3c3.4,0.3,5.7-1.4,6.3-4.5c0.9-4.9,4-7.4,8.3-9
				c2.1-0.6,4-1.8,5.4-3.5c1.2-1.6,2-3.4,0-4.8c-4.5-3.1-2.6-7-1.4-10.7c0.7-1.5,1.5-3,2.6-4.3c3.3-5,3.7-10,0.7-15.5
				c-4.6-8.3-4-11.2,3.4-17.5c3-2.5,5.5-6.8,10.8-4.3c1,0.5,2.4-0.5,3-1.4c2.7-4,6.9-4.9,11.3-5.6c5.4-0.9,10.4-2.4,13-7.9
				c1.1-2.5,3.6-3.3,6.2-3.7s4.3-1.2,3.2-4.6c-1.3-4,0.6-6.4,4.9-6.7c3-0.2,5.1-1.5,5.5-4.7c0.2-1.4,0.5-3.1,2.1-2.9
				c4.8,0.7,5.4-2.8,7.1-5.9c2.1-3.8,3.9-8.2,9.3-8.9c2-0.3,2.8-2,1.1-3.6c-3.3-3.1-1.2-5.2,1.3-6.7c2.8-1.8,5.9-3.2,9.1-4.1
				c5.5-1.4,8-5,8.9-10.2c0.5-2.6,0.8-5.3,1.5-7.9c1.1-4.4,3.3-7.6,8.6-7.3c2.3,0.1,4.9-0.8,4.3-3.6c-1-5,0.8-7.9,5.9-8.9
				c-1.8-5.7-5.1-7.8-10.6-6.8c-5.7,1-11.5,1.6-17.3,2.3c-2.5,0.3-5.2,0.3-6.5-2.5s1.1-3.9,2.5-5.4c1.7-1.8,2.9-4.1,3.4-6.5
				c0.4-2.2,0.6-4.5,3.9-5c2.6-0.4,0.9-3.6,2.2-5.1c7.1,1.2,8.6,0.6,11.4-3.8c1.5-2.4,1.8-4.6-0.5-6.7c-2-1.8-3.4-3.9-2.1-6.6
				c1.3-2.6,3.9-4.3,6.8-4.6c3.4-0.4,6.6,0.1,9.2,2.8s5.6,3.3,8.6,1.5c5.9-3.6,11.8-4.2,17.9-0.7c1.6,0.9,3.6,0.1,5.2,1.5
				c-0.6,3-3.7,1.5-5.5,3.2c0.6,2.3,1.3,5-0.2,7.6c-0.7,1.3,0.4,2.5,1.4,3.5c2.7,2.5,5.8,4.5,9.1,6.1c0.4,0.2,1.2,0.6,1.3,0.5
				c3.1-3.9,8.3-0.3,11.5-3.4c1.8-1.7,3.9-1.4,6.1-1.4c4.8,0.1,9.7,0.6,14.4-1.1c2.8-0.8,4.8-3.2,5.2-6.1c0.6-3.2-1.1-5-3.8-6.2
				c0.6-4.2,2.2-6.5,7-4.9c3.4,1.2,7.1,1.1,9.4-2.5c1.8-2.8,5.8,0.2,7.5-3.4c-1.5-1.5-3.8-1.3-5.6-2.3c-2.4-1.3-2.6-2.9-0.3-4.6
				c7.1-5.1,13.7-11,21.6-15.3c1.5,0.2,2.1,2.5,4.4,2.3c3.5-4.3,8.4-4.8,14.2-4c-2.6,2.9-3.2,5.9-1.2,9.3c1.1,1.9-0.4,3.5-2.6,3.9
				c-2,0.4-3.9,0.5-6.2,0.8c-0.2,2.9,1.4,4.4,3.7,5.1c6.5,2.1,17.3,1.8,22.2-6.3c4.5-7.4,12.9-9.9,21.1-7.4c2.9,0.9,3.1,3,3.2,5.5
				c0.2,6.6,4.1,9,9.8,5.4c2.5-1.6,5-1.5,7.6-1.5c3.6-0.1,7.3,0.6,9.8-3.2c1.1-1.6,3.4-1,5.2-1c2.4,0,5.1,0,6.3-2.2
				c4.4-8,12.1-12.1,19.4-17.1h0.1c9.5,0.3,16.1,5.6,21.8,12.7c1.1,1.4,1.3,3,2.2,4.3c2.3,3.7,4.9,4,7.5,0.5s5.1-1.5,7.4-0.2
				c3.5,2.1,6.8,2.6,10-0.1c0.4-2.4-1.3-3.1-2.8-3.8c-4.4-2-2.9-4.7-0.6-7c6.2-6.4,12.6-6.9,20.2-1.8c4.8,3.3,7,2.6,8.1-3
				c0.3-1.9,1.1-3.7,2.4-5.1l3.2,3.5c2.8-2,1.8-4.1,0.5-6s-3.1-3.2-5.5-1.7c-1.9,1.2-3.8,2.2-6.1,1.6c-4.2-1.1-8-0.8-10,4.1
				c-2.8-1.5-5-3.4-7.7-0.8c-1.1,1.1-2.3,0.1-3.2-1.2c-2.9-4.1-7.1-5-12.4-4.9c1.7-4.5,0.8-10.1,6.7-12.6c2.1-0.9,3.3-3,1.9-4.9
				c-4.4-5.8-0.2-9.1,3.4-12.6c1-0.8,2-1.6,3.1-2.3c6,4.1,18.4,1.2,21.8-4.8c1.2-2.2,2.5-4.9,5.6-3.5s1.4,4.3,0.5,6.8l4.7,4
				c2.5-1.7,1.2-4.2,1.8-6.1c0.5-1.7,0.6-3.8,2.8-4.3c2-0.4,3.5,0.7,4.8,2.1c0.3,0.4,0.8,0.7,0.9,1.2c1.3,6.5,6.2,8.6,12.2,9.1
				c0,2.9-1.4,4.4-2.9,5.9c-3.3,3.2-2.6,8.3,1.6,12.5c3.7,3.7,6.8,3.7,10.6,0.1c-0.1-1.1-1.1-1.1-1.8-1.4c-2-0.9-4.4-1.4-3.8-4.3
				c0.5-2.5,1.5-4.5,4.7-3.7c0.5,0,1-0.1,1.4-0.3c6.6-3,6.6-3,8.3,4.4c0.5,2,2.1,2.4,3.9,2.4c4.3-0.1,6.1,1.6,3.8,5.8s0.4,6.6,2.9,9
				c2.8,2.7,5.2,1.4,8-0.5c9.7-6.5,20.6-6.9,31.7-6.1c2.7,0.2,4.1,2.7,5.3,4.9c1.6,3,4,4.2,7,2.7c2.6-1.3,4.8,0.3,7.3,0.1
				c5-0.4,10.2,1,15.2-1.3c1.7-0.8,3.6,0.5,4.9,1.9c1.6,1.5,3,3.2,4.1,5c2.9,5.1,6.8,7.8,13,6.6c3.8-0.7,7.7,0.3,10.7,2.8
				c6.2,5.2,13,9.3,20,13.2c3.7,2.1,6,5,6.1,9.6c0.1,5.2,3.2,9.3,5.5,13.7c1.4,2.7,4,1.9,6.2,2c6.9,0.1,7.4,0.5,6,7.1
				c-1,4.3-0.7,7.9,2.6,11.4s2,6.7-2.7,7.5c-8.5,1.3-12,7.5-13.9,14.5c-1.8,6.6-4.3,12.9-7.5,18.9c-7.3,13.8-9.7,28.2-4.7,43.4
				c1,2.9,0.6,5.2-2,7c-1.2,0.8-2.6,1.6-2.7,3.4c0.8,2.1,2.8,2,4.5,2.6c3.9,1.4,8.2,0.7,12.2,3.2c2.8,1.8,6.9,0.5,8.8-3.8
				c3.2,3.4,6.6,3.9,10.3,1.2c1.6-1.3,3.9-1.5,5.7-0.4c5,3.1,10.5,3,16,3.1c3.1,0,5.9,0.4,8.1,3c1.7,2,4.4,2.2,6.9,2.4
				c4.7,0.3,8.5,1.9,9.2,7.3c0.3,2,2.1,2.9,3,4.7c-0.7,1.4-1.2,3.1-2.2,4.3c-4.5,5-1.7,10.1-0.2,15.1c0.7,2.3,3.2,2.2,5.1,1.2
				c3.2-1.6,5.8-0.6,8.2,1.7c3.4,3.2,6.6,4.6,10.9,1.1c2.4-1.9,5.2-1.4,5.3,2.8c0.1,3.4,1.5,6.1,5,6.4c3.9,0.4,5.3,2.3,4.8,6.5
				c5.5-0.6,11.2,0.9,14.6-5c1-1.8,2.9-2,4.8-2.3c5.8-0.8,7.6-2.9,7.9-8.8c0-1.5-0.1-3,0.1-4.5c0.2-3.1,1.5-4.7,5.1-4.7
				c10.8-0.2,12.9-2.1,13.8-12.8c0.4-4.4,3-5.5,6.6-6s7,0.8,7,4.6c0.1,8.7,5.7,11,12.6,12.7c6,1.5,6.2,2.1,3.1,7.8
				c-1.8,3.4-3,6.7-1.3,10.4c2.4,5.3,1.3,10.1-2,14.5s-5.4,8.9-2.3,14.7c1.7,3.1-0.1,6.2-3.1,8.1c-2.7,1.8-3.5,3.7-1.6,6.6
				c2.1,3.3,0.5,6.4-1,9.4c-1.3,2.5-2.9,4.9-3.1,7.8c-0.3,5.5,2.9,7.9,7.8,5.4c2.9-1.5,5-2.4,5.5,2c0.2,2.1,2.2,2.3,3.7,2.8
				c2.9,0.8,3.8,2.6,2.4,5.3c-2,3.7-2.2,7.6-2,11.7c0.1,2.3-0.2,4.3-2.5,5.5s-4.2,0.2-5.8-1.4c-2.6-2.4-5-4-7.7,0.1
				c-0.9,1.4-2.4,1-3.5,0c-2.4-2.1-4-1.9-6.1,0.7c-3.6,4.3-10.9,2.7-12.8-2.6c-0.6-1.9-2.2-3.4-4.1-3.9c-6.1-1.9-6.1-2-3.9-8.5
				c0.3-0.9,0.4-1.9,0.3-2.9c-0.1-1.5-1-2.9-2.5-3.5C865.7,513.7,865,516.9,862.7,517.8z"/>
		</defs>
		<clipPath id="SVGID_2_">
			<use xlink:href="#SVGID_1_"  style="overflow:visible;"/>
		</clipPath>
		<g class="st0">
			<rect x="3.5" y="132" class="st1" width="917" height="649.7"/>
			<rect x="411.8" y="287.2" class="st2" width="89.5" height="263.3"/>
			<rect x="324.8" y="374" class="st2" width="263.3" height="89.5"/>
		</g>
	</g>
</g>
<rect class="st3" width="931.4" height="931.4"/>
<g>
	<g>
		<defs>
			<path id="SVGID_3_" d="M862.7,517.8c-2.1-1-4.5-2.7-6.1,0.2c-2.9,4.9-7.1,6.7-13.2,5.5c1.7,5.2-0.9,8.2-4,11.2
				c-4.9,4.3-6.8,11.1-4.9,17.4c1.4,4.6,2.2,9.4,2.4,14.2c0.2,6.3,3.3,7.7,8.4,4.1c2.3-1.7,3.9-1.3,5.5,0.7c1,1.3,2.1,2.6,3.1,3.9
				c4.5,6.4,4.1,8-3.3,11.2c-2.3,1-3.9,2.3-2.5,4.9s0,3.8-2,5.1c-5.4,3.4-5.4,6.5,0.1,9.8c1.4,0.9,2.9,1.6,4.5,2.1
				c3.2,1.2,5.5,2.7,5.1,6.8c-0.4,3.6,3.6,4.4,5.2,6.9c-2.5,9.3-3.1,9.8-12.7,10.1c-2.8,0.1-4.6,1.6-6.5,3.2
				c-2.2,1.8-4.6,3.3-7.2,1.5c-2.8-1.9-3-5-2.1-8.1c1.9-6.6,1.3-7.6-5.5-9s-7.3-2.1-6.2-9.4c0.3-1.3-0.2-2.7-1.3-3.5
				c-2.9-1.9-4-4-0.3-6.8c-4-1.5-7.6-3.8-10.6-6.7c-1.3,5-3.5,4.3-6.5,2.3c-5.2-3.4-9.5-2.5-13.4,2.4s-7.6,6.1-12.6,4.2
				c-7.8-3-11-0.8-11.7,7.9c0,1-0.1,2-0.2,3c-0.7,4.2-3.1,5.7-6.6,3.4c-2.1-1.3-3.7-1.5-5.8-0.3c-1.1,0.5-2.3,0.6-3.4,0.3
				c-5.8-1.6-11.7-2.5-17.6-2.8c-5-0.4-6.5-5.4-6.7-9.9c-0.2-3.7-1.3-6-5-7c-2.5-0.7-3.7-2.2-2-4.8s1.1-5.1-0.8-7.4
				c-5.3-6.2-7.6-14.4-6.5-22.4c0.4-2.6-0.5-5.3-2.5-7c-2.2,1.6-2.1,4.3-3.2,6.4c-0.7,1.4-1.3,2.9-3,3.1c-1.9,0.2-3-1.2-3.9-2.6
				c-0.4-0.7-0.8-1.5-1.2-2.2c-1.4-2.7-2-6.7-6.1-6.2c-4.7,0.5-9.1,2.2-12.3,5.9c-1.2,1.3-0.5,2.9,0.2,4.3c1.5,3.2,0.9,5.8-1.8,8
				c-3.6,3-3.2,6,0.5,8.5s4.8,5.7,3.8,9.9c-0.7,3.1-0.3,6.4,1.3,9.2c1.8,3.3,1.8,7.3-0.1,10.5c-2.7,5.1-1.7,11.7-7,15.6
				c1.6,7.9-3.8,11.1-9.4,14.3c-1.8,1-1.6,3.2-1.6,5c0,3.5-1.5,5.6-5.2,5c-3.9-0.6-5.6,1.6-6.3,4.8c-1.2,5.3-3.2,9.5-9.2,11.1
				c-3.4,0.9-3.2,4-2,7.1c2.4,6.2,1.7,8.7-4.6,10.7c-6.8,2.1-9,5.9-8.4,12.8c0.5,5.7,1.2,11.7-1.8,17.1c-0.6,1.1-0.6,3.4,0.4,3.7
				c5.5,1.6,6.1,7.7,10,10.6c4.3,3.2,4.7,5.6,1.8,10.2c-2.4,3.8-4.8,7.7-7.5,11.2c-2,2.6-4.4,4.9-7.9,1.8c-0.3-0.3-1.2-0.7-1.3-0.5
				c-4.1,3.7-9.3,0-13.6,2.1c-1.8,0.9-3.7,1.6-5.2-1.2c2.9-2.2,6.3-4,6.8-8.4c-4.2-1.1-5.9-3.6-4-8c0.9-1.9,0.2-3.9-0.5-5.8
				c-1.7-4.3-3.7-8.5-6.1-12.5c-2.1-4.2-5.9-7.3-10.5-8.5c-2.1-0.5-4.1-1.5-5.8-2.8c-3.1-2.3-3.2-5.7-0.1-7.8
				c3.3-2.2,4.4-4.8,2.7-8.1c1.1-1.4,2.3-1.5,3.4-1.8c2.5-0.7,2.9-2.3,1.3-4c-4-4.2-6.3-10.8-14.1-10c-2.9,0.3-4.5-2.5-5.6-4.7
				c-2.3-0.2-3.3,1.2-4.5,2.4c-3.6,3.7-7.5,3.5-9.6-1c-1.7-3.7-4.1-4.9-7.9-4.6c-3.3,0.3-5.8-1.3-8-3.5s-3.1-4.3-0.5-6.9
				c2.4-2.4,1.8-4.5-1.2-5.8c-2.5-1-4.5-3.1-5.5-5.6c-2-4.6-5.5-6.3-10.3-6.4c-3.4-0.1-6.3-0.8-6.2-5.3c0-3.7-4.6-2.1-5.9-5.1
				c3.5-3.1,2-6.5,0.2-9.9c-2.9-5.3-2-10.2,2.4-14c11.1-9.9,7.5-20.4,1.5-33.7c-0.8-1.9-2.8-3.1-4.9-2.7c-7.5,1-14.8,2.8-20.8,7.7
				c-4.7,3.9-5.2,6.8-2,12c2.2,3.5,1,6.3-2.4,7c-7.8,1.5-10.2,8.9-15.3,13.3c-1.7,1.4-2.1,3.8-2.1,6c0,3.7-2,4.8-5.4,5
				c-3,0.1-6,0.5-8.9,1.2c-8,2.1-10.8,9.2-5.2,15.1c4.4,4.8,4.7,11.3,8.8,16c0.4,0.7,0.6,1.6,0.5,2.4c0.5,7.7-9.2,19.5-16.9,20
				c-5.6,0.3-8.6,3-9.4,8.3c-0.6,4-1.1,7.9-1.9,11.8c-1.6,7.8-4.5,10.1-12.3,10.1c-8.4,0-14.6,4.8-16.6,13c-0.5,2.3-1.1,4.5-1.9,6.7
				c-1.9,4.4-5.1,5.3-9.2,2.8c-1.3-0.8-2.8-2.3-4-1.6c-4.9,3.1-7.7,0.7-10.7-3c-1.5-1.9-3.7-0.5-5.4,0.7c-2,1.3-4.1,2.6-6.4,0.9
				s-1.6-3.6-0.3-5.7c0.8-1.3,0.1-2.6-1.1-3.4c-2.1-1.3-4.4-2.1-6.3-4c-1.2-1.2-2.4,0.1-3.4,1c-4.7,3.5-7.4,3-10.4-2.2
				c-0.6-1.2-1.3-2.3-2.1-3.4c-2.5-2.7-7-2-7.3,1.6c-0.6,6.7-4.1,8.8-10.1,8.7c-1.7,0.1-3.3,1.1-4,2.7c-4.2,7.6-11.8,10.3-19.2,13.3
				c-2.5,1-4.3-0.1-5.5-2.1c-2.4-3.7-5.5-3.7-9.1-2.2c-6,2.5-11.7,5.7-16.9,9.5c-2.7,2-4,4.8-5.3,7.7c-2.2,4.7-4.7,5-7.4,0.7
				c-2.5-3.8-4.3-4.5-7.2-0.2c-2.6,3.8-6.5,3-7.7-1.5c-1.2-4.3-4.6-6.8-6.6-10.2c-3.9-6.3-9-12.9-6.8-21.2c0.9-3.4-0.2-5.7-2.9-7.2
				c-4-2.1-6.8-6.1-7.5-10.6c-0.3-1.5-0.8-2.9-1.6-4.2c-2.2-4.6-4.5-5.2-8.7-2.3c-1.8,1.2-3.3,2.8-5.5,3.3c-1.3,0.4-2.7-0.1-3.6-1.1
				c-0.8-1-1.1-2.5-0.1-3.2c5-4,0.9-6.4-1.5-9c0.1-0.4,0.1-0.8,0.3-1c1.7-1.8,5.3-2.4,4.3-6s-4.2-3.8-7.2-4.5s-6-1-8.7-2
				c-4.4-1.6-5-4.5-1.7-7.8c1.6-1.3,2.2-3.4,1.7-5.4c-1.8-7.7,0.5-13.9,6.7-19c4.9-4.1,4.8-8.2,0.3-12.8c-1.1-1.1-2.2-2-3.3-3
				c-2.7-2.3-5.5-4.6-3.6-8.6c-5.7-3.2-6.5-7.1-2.3-11.3c3.8-3.8,3.7-8.8,4.5-13.4c0.4-2.5-2-3.1-4-3.6c-14.8-3.6-29.9-5.9-45.2-7
				c-7.2-0.6-14.4,1-20.7,4.7c-9.3,5.5-19.2,9.8-29.6,12.8c-5,1.3-9.6,4-13.2,7.8c-2.8,3.1-4.4,7.2-4.4,11.4c0,1.5,0.1,3.5,1.8,3.7
				c3.9,0.6,3.6,3.4,3.3,6c-0.6,5.1,1.3,7.2,6.5,6c1.1-0.1,2.2,0,3.3,0.2c1.3,2.5-0.3,3.5-1.8,4.6c-7.9,5.7-15.4,11.7-18.6,21.5
				c-0.6,1.8-2.3,3-4.2,2.9c-3.9,0-6.4,2.2-8.7,5.1c-4,5-6.4,5.2-11.6,1.2c-1.5-1.4-3.7-1.6-5.5-0.7c-8.2,4-8.4,4-18.4,3.2
				c-0.1-0.2-0.5-0.6-0.4-0.7c2.1-5.7,3.7-11.3-0.8-16.7c-0.6-0.8-0.2-1.9,0.3-2.8c2.4-4.6,5.6-8.8,9.2-12.5
				c0.9,0.6,1.7,0.9,2.1,1.6c2.8,4.2,5.6,4.9,8.8,0.5c1.5-2,3.7-1.9,5.9-2c3.6-0.2,4.7-2.1,2.1-4.8c-2.3-2.3-1.9-4.3-0.7-6.7
				c3-6.2,6.1-12.2,8.9-18.5c3-6.7,0.2-12.4-6.9-13.8c-5.3-1-9.3-2.8-8.5-9.3c0.1-1.5-0.5-3-1.6-4.1c-4.2-4.5-2.6-8.6,0.9-12.3
				c4.5-4.8,9-9.5,7.9-17c2.2-0.2,3.8-0.3,5.4-0.6c1.7-0.3,3-1.7,3.2-3.4c0.3-1.5-0.4-3-1.7-3.8c-4.2-3-4.2-4.7-0.1-8.2
				c6.7-5.7,13.5-11.4,20.2-17.1c3.9-3.3,7.5-7.1,10.5-11.3c3-4.2,6.8-6.8,12.2-6.3c3.4,0.3,5.7-1.4,6.3-4.5c0.9-4.9,4-7.4,8.3-9
				c2.1-0.6,4-1.8,5.4-3.5c1.2-1.6,2-3.4,0-4.8c-4.5-3.1-2.6-7-1.4-10.7c0.7-1.5,1.5-3,2.6-4.3c3.3-5,3.7-10,0.7-15.5
				c-4.6-8.3-4-11.2,3.4-17.5c3-2.5,5.5-6.8,10.8-4.3c1,0.5,2.4-0.5,3-1.4c2.7-4,6.9-4.9,11.3-5.6c5.4-0.9,10.4-2.4,13-7.9
				c1.1-2.5,3.6-3.3,6.2-3.7s4.3-1.2,3.2-4.6c-1.3-4,0.6-6.4,4.9-6.7c3-0.2,5.1-1.5,5.5-4.7c0.2-1.4,0.5-3.1,2.1-2.9
				c4.8,0.7,5.4-2.8,7.1-5.9c2.1-3.8,3.9-8.2,9.3-8.9c2-0.3,2.8-2,1.1-3.6c-3.3-3.1-1.2-5.2,1.3-6.7c2.8-1.8,5.9-3.2,9.1-4.1
				c5.5-1.4,8-5,8.9-10.2c0.5-2.6,0.8-5.3,1.5-7.9c1.1-4.4,3.3-7.6,8.6-7.3c2.3,0.1,4.9-0.8,4.3-3.6c-1-5,0.8-7.9,5.9-8.9
				c-1.8-5.7-5.1-7.8-10.6-6.8c-5.7,1-11.5,1.6-17.3,2.3c-2.5,0.3-5.2,0.3-6.5-2.5s1.1-3.9,2.5-5.4c1.7-1.8,2.9-4.1,3.4-6.5
				c0.4-2.2,0.6-4.5,3.9-5c2.6-0.4,0.9-3.6,2.2-5.1c7.1,1.2,8.6,0.6,11.4-3.8c1.5-2.4,1.8-4.6-0.5-6.7c-2-1.8-3.4-3.9-2.1-6.6
				c1.3-2.6,3.9-4.3,6.8-4.6c3.4-0.4,6.6,0.1,9.2,2.8s5.6,3.3,8.6,1.5c5.9-3.6,11.8-4.2,17.9-0.7c1.6,0.9,3.6,0.1,5.2,1.5
				c-0.6,3-3.7,1.5-5.5,3.2c0.6,2.3,1.3,5-0.2,7.6c-0.7,1.3,0.4,2.5,1.4,3.5c2.7,2.5,5.8,4.5,9.1,6.1c0.4,0.2,1.2,0.6,1.3,0.5
				c3.1-3.9,8.3-0.3,11.5-3.4c1.8-1.7,3.9-1.4,6.1-1.4c4.8,0.1,9.7,0.6,14.4-1.1c2.8-0.8,4.8-3.2,5.2-6.1c0.6-3.2-1.1-5-3.8-6.2
				c0.6-4.2,2.2-6.5,7-4.9c3.4,1.2,7.1,1.1,9.4-2.5c1.8-2.8,5.8,0.2,7.5-3.4c-1.5-1.5-3.8-1.3-5.6-2.3c-2.4-1.3-2.6-2.9-0.3-4.6
				c7.1-5.1,13.7-11,21.6-15.3c1.5,0.2,2.1,2.5,4.4,2.3c3.5-4.3,8.4-4.8,14.2-4c-2.6,2.9-3.2,5.9-1.2,9.3c1.1,1.9-0.4,3.5-2.6,3.9
				c-2,0.4-3.9,0.5-6.2,0.8c-0.2,2.9,1.4,4.4,3.7,5.1c6.5,2.1,17.3,1.8,22.2-6.3c4.5-7.4,12.9-9.9,21.1-7.4c2.9,0.9,3.1,3,3.2,5.5
				c0.2,6.6,4.1,9,9.8,5.4c2.5-1.6,5-1.5,7.6-1.5c3.6-0.1,7.3,0.6,9.8-3.2c1.1-1.6,3.4-1,5.2-1c2.4,0,5.1,0,6.3-2.2
				c4.4-8,12.1-12.1,19.4-17.1h0.1c9.5,0.3,16.1,5.6,21.8,12.7c1.1,1.4,1.3,3,2.2,4.3c2.3,3.7,4.9,4,7.5,0.5s5.1-1.5,7.4-0.2
				c3.5,2.1,6.8,2.6,10-0.1c0.4-2.4-1.3-3.1-2.8-3.8c-4.4-2-2.9-4.7-0.6-7c6.2-6.4,12.6-6.9,20.2-1.8c4.8,3.3,7,2.6,8.1-3
				c0.3-1.9,1.1-3.7,2.4-5.1l3.2,3.5c2.8-2,1.8-4.1,0.5-6s-3.1-3.2-5.5-1.7c-1.9,1.2-3.8,2.2-6.1,1.6c-4.2-1.1-8-0.8-10,4.1
				c-2.8-1.5-5-3.4-7.7-0.8c-1.1,1.1-2.3,0.1-3.2-1.2c-2.9-4.1-7.1-5-12.4-4.9c1.7-4.5,0.8-10.1,6.7-12.6c2.1-0.9,3.3-3,1.9-4.9
				c-4.4-5.8-0.2-9.1,3.4-12.6c1-0.8,2-1.6,3.1-2.3c6,4.1,18.4,1.2,21.8-4.8c1.2-2.2,2.5-4.9,5.6-3.5s1.4,4.3,0.5,6.8l4.7,4
				c2.5-1.7,1.2-4.2,1.8-6.1c0.5-1.7,0.6-3.8,2.8-4.3c2-0.4,3.5,0.7,4.8,2.1c0.3,0.4,0.8,0.7,0.9,1.2c1.3,6.5,6.2,8.6,12.2,9.1
				c0,2.9-1.4,4.4-2.9,5.9c-3.3,3.2-2.6,8.3,1.6,12.5c3.7,3.7,6.8,3.7,10.6,0.1c-0.1-1.1-1.1-1.1-1.8-1.4c-2-0.9-4.4-1.4-3.8-4.3
				c0.5-2.5,1.5-4.5,4.7-3.7c0.5,0,1-0.1,1.4-0.3c6.6-3,6.6-3,8.3,4.4c0.5,2,2.1,2.4,3.9,2.4c4.3-0.1,6.1,1.6,3.8,5.8s0.4,6.6,2.9,9
				c2.8,2.7,5.2,1.4,8-0.5c9.7-6.5,20.6-6.9,31.7-6.1c2.7,0.2,4.1,2.7,5.3,4.9c1.6,3,4,4.2,7,2.7c2.6-1.3,4.8,0.3,7.3,0.1
				c5-0.4,10.2,1,15.2-1.3c1.7-0.8,3.6,0.5,4.9,1.9c1.6,1.5,3,3.2,4.1,5c2.9,5.1,6.8,7.8,13,6.6c3.8-0.7,7.7,0.3,10.7,2.8
				c6.2,5.2,13,9.3,20,13.2c3.7,2.1,6,5,6.1,9.6c0.1,5.2,3.2,9.3,5.5,13.7c1.4,2.7,4,1.9,6.2,2c6.9,0.1,7.4,0.5,6,7.1
				c-1,4.3-0.7,7.9,2.6,11.4s2,6.7-2.7,7.5c-8.5,1.3-12,7.5-13.9,14.5c-1.8,6.6-4.3,12.9-7.5,18.9c-7.3,13.8-9.7,28.2-4.7,43.4
				c1,2.9,0.6,5.2-2,7c-1.2,0.8-2.6,1.6-2.7,3.4c0.8,2.1,2.8,2,4.5,2.6c3.9,1.4,8.2,0.7,12.2,3.2c2.8,1.8,6.9,0.5,8.8-3.8
				c3.2,3.4,6.6,3.9,10.3,1.2c1.6-1.3,3.9-1.5,5.7-0.4c5,3.1,10.5,3,16,3.1c3.1,0,5.9,0.4,8.1,3c1.7,2,4.4,2.2,6.9,2.4
				c4.7,0.3,8.5,1.9,9.2,7.3c0.3,2,2.1,2.9,3,4.7c-0.7,1.4-1.2,3.1-2.2,4.3c-4.5,5-1.7,10.1-0.2,15.1c0.7,2.3,3.2,2.2,5.1,1.2
				c3.2-1.6,5.8-0.6,8.2,1.7c3.4,3.2,6.6,4.6,10.9,1.1c2.4-1.9,5.2-1.4,5.3,2.8c0.1,3.4,1.5,6.1,5,6.4c3.9,0.4,5.3,2.3,4.8,6.5
				c5.5-0.6,11.2,0.9,14.6-5c1-1.8,2.9-2,4.8-2.3c5.8-0.8,7.6-2.9,7.9-8.8c0-1.5-0.1-3,0.1-4.5c0.2-3.1,1.5-4.7,5.1-4.7
				c10.8-0.2,12.9-2.1,13.8-12.8c0.4-4.4,3-5.5,6.6-6s7,0.8,7,4.6c0.1,8.7,5.7,11,12.6,12.7c6,1.5,6.2,2.1,3.1,7.8
				c-1.8,3.4-3,6.7-1.3,10.4c2.4,5.3,1.3,10.1-2,14.5s-5.4,8.9-2.3,14.7c1.7,3.1-0.1,6.2-3.1,8.1c-2.7,1.8-3.5,3.7-1.6,6.6
				c2.1,3.3,0.5,6.4-1,9.4c-1.3,2.5-2.9,4.9-3.1,7.8c-0.3,5.5,2.9,7.9,7.8,5.4c2.9-1.5,5-2.4,5.5,2c0.2,2.1,2.2,2.3,3.7,2.8
				c2.9,0.8,3.8,2.6,2.4,5.3c-2,3.7-2.2,7.6-2,11.7c0.1,2.3-0.2,4.3-2.5,5.5s-4.2,0.2-5.8-1.4c-2.6-2.4-5-4-7.7,0.1
				c-0.9,1.4-2.4,1-3.5,0c-2.4-2.1-4-1.9-6.1,0.7c-3.6,4.3-10.9,2.7-12.8-2.6c-0.6-1.9-2.2-3.4-4.1-3.9c-6.1-1.9-6.1-2-3.9-8.5
				c0.3-0.9,0.4-1.9,0.3-2.9c-0.1-1.5-1-2.9-2.5-3.5C865.7,513.7,865,516.9,862.7,517.8z"/>
		</defs>
		<clipPath id="SVGID_4_">
			<use xlink:href="#SVGID_3_"  style="overflow:visible;"/>
		</clipPath>
		<g class="st4">
			<g>
				<rect x="409.3" y="284.7" class="st2" width="94.5" height="268.3"/>
				<path class="st2" d="M501.3,287.2v263.3h-89.5V287.2H501.3 M506.3,282.2h-5h-89.5h-5v5v263.3v5h5h89.5h5v-5V287.2V282.2
					L506.3,282.2z"/>
			</g>
			<g>
				<rect x="322.3" y="371.5" class="st2" width="268.3" height="94.5"/>
				<path class="st2" d="M588.1,374v89.5H324.8V374H588.1 M593.1,369h-5H324.8h-5v5v89.5v5h5h263.3h5v-5V374V369L593.1,369z"/>
			</g>
		</g>
	</g>
</g>
<g>
	<path d="M539.6,177.1c0.5,0,1,0.1,1.6,0.4c3.1,1.4,1.4,4.3,0.5,6.8l4.7,4c2.5-1.7,1.2-4.2,1.8-6.1c0.5-1.7,0.6-3.8,2.8-4.3
		c0.3-0.1,0.6-0.1,0.8-0.1c1.6,0,2.9,1,4,2.2c0.3,0.4,0.8,0.7,0.9,1.2c1.3,6.5,6.2,8.6,12.2,9.1c0,2.9-1.4,4.4-2.9,5.9
		c-3.3,3.2-2.6,8.3,1.6,12.5c1.9,1.9,3.6,2.8,5.3,2.8c1.7,0,3.4-0.9,5.3-2.7c-0.1-1.1-1.1-1.1-1.8-1.4c-2-0.9-4.4-1.4-3.8-4.3
		c0.4-2.1,1.2-3.9,3.4-3.9c0.4,0,0.8,0.1,1.3,0.2c0.5,0,1-0.1,1.4-0.3c2.6-1.2,4.1-1.9,5.2-1.9c1.7,0,2.1,1.8,3.1,6.3
		c0.5,2,2.1,2.4,3.9,2.4c0.1,0,0.2,0,0.4,0c4,0,5.7,1.7,3.4,5.8c-2.3,4.2,0.4,6.6,2.9,9c1.1,1.1,2.2,1.5,3.3,1.5
		c1.5,0,3.1-0.9,4.7-2c7.5-5,15.7-6.4,24.2-6.4c2.5,0,5,0.1,7.5,0.3c2.7,0.2,4.1,2.7,5.3,4.9c1.1,2.1,2.7,3.3,4.5,3.3
		c0.8,0,1.6-0.2,2.5-0.6c0.8-0.4,1.5-0.5,2.2-0.5c1.6,0,3,0.6,4.6,0.6c0.1,0,0.3,0,0.4,0c0.7-0.1,1.4-0.1,2.1-0.1
		c1.9,0,3.8,0.1,5.7,0.1c2.5,0,5-0.2,7.4-1.4c0.4-0.2,0.7-0.2,1.1-0.2c1.4,0,2.8,1,3.8,2.1c1.6,1.5,3,3.2,4.1,5
		c2.4,4.3,5.6,6.9,10.2,6.9c0.9,0,1.8-0.1,2.8-0.3c0.8-0.1,1.6-0.2,2.4-0.2c3,0,5.9,1,8.3,3c6.2,5.2,13,9.3,20,13.2
		c3.7,2.1,6,5,6.1,9.6c0.1,5.2,3.2,9.3,5.5,13.7c0.9,1.8,2.4,2,3.9,2c0.6,0,1.3,0,1.9,0c0.1,0,0.3,0,0.4,0c6.9,0.1,7.4,0.5,6,7.1
		c-1,4.3-0.7,7.9,2.6,11.4c3.3,3.5,2,6.7-2.7,7.5c-8.5,1.3-12,7.5-13.9,14.5c-1.8,6.6-4.3,12.9-7.5,18.9
		c-7.3,13.8-9.7,28.2-4.7,43.4c1,2.9,0.6,5.2-2,7c-1.2,0.8-2.6,1.6-2.7,3.4c0.8,2.1,2.8,2,4.5,2.6c3.9,1.4,8.2,0.7,12.2,3.2
		c0.8,0.5,1.7,0.8,2.7,0.8c2.3,0,4.8-1.5,6.1-4.6c1.8,1.9,3.7,2.9,5.7,2.9c1.5,0,3-0.6,4.6-1.7c0.9-0.7,2-1.1,3.1-1.1
		c0.9,0,1.8,0.2,2.6,0.7c5,3.1,10.5,3,16,3.1c3.1,0,5.9,0.4,8.1,3c1.7,2,4.4,2.2,6.9,2.4c4.7,0.3,8.5,1.9,9.2,7.3
		c0.3,2,2.1,2.9,3,4.7c-0.7,1.4-1.2,3.1-2.2,4.3c-4.5,5-1.7,10.1-0.2,15.1c0.4,1.3,1.4,1.9,2.6,1.9c0.8,0,1.7-0.3,2.5-0.7
		c1.1-0.5,2.1-0.8,3-0.8c1.9,0,3.6,1,5.2,2.5c2,1.9,3.9,3.1,6.1,3.1c1.5,0,3.1-0.6,4.8-2c0.9-0.7,1.8-1.1,2.6-1.1
		c1.5,0,2.6,1.2,2.7,3.9c0.1,3.4,1.5,6.1,5,6.4c3.9,0.4,5.3,2.3,4.8,6.5c5.5-0.6,11.2,0.9,14.6-5c1-1.8,2.9-2,4.8-2.3
		c5.8-0.8,7.6-2.9,7.9-8.8c0-1.5-0.1-3,0.1-4.5c0.2-3.1,1.5-4.7,5.1-4.7c10.8-0.2,12.9-2.1,13.8-12.8c0.4-4.4,3-5.5,6.6-6
		c0.5-0.1,1-0.1,1.4-0.1c3,0,5.6,1.4,5.6,4.7c0.1,8.7,5.7,11,12.6,12.7c6,1.5,6.2,2.1,3.1,7.8c-1.8,3.4-3,6.7-1.3,10.4
		c2.4,5.3,1.3,10.1-2,14.5c-3.3,4.4-5.4,8.9-2.3,14.7c1.7,3.1-0.1,6.2-3.1,8.1c-2.7,1.8-3.5,3.7-1.6,6.6c2.1,3.3,0.5,6.4-1,9.4
		c-1.3,2.5-2.9,4.9-3.1,7.8c-0.2,4,1.4,6.4,4.3,6.4c1,0,2.2-0.3,3.5-1c1.3-0.7,2.5-1.2,3.4-1.2c1.1,0,1.9,0.8,2.1,3.2
		c0.2,2.1,2.2,2.3,3.7,2.8c2.9,0.8,3.8,2.6,2.4,5.3c-2,3.7-2.2,7.6-2,11.7c0.1,2.3-0.2,4.3-2.5,5.5c-0.7,0.4-1.4,0.5-2,0.5
		c-1.4,0-2.7-0.8-3.8-1.9c-1.4-1.3-2.8-2.4-4.2-2.4c-1.1,0-2.3,0.7-3.5,2.5c-0.4,0.6-1,0.9-1.5,0.9c-0.7,0-1.4-0.4-2-0.9
		c-1.1-0.9-2-1.4-2.9-1.4c-1.1,0-2.1,0.7-3.2,2.1c-1.4,1.7-3.4,2.5-5.4,2.5c-3.1,0-6.2-1.9-7.4-5.1c-0.6-1.9-2.2-3.4-4.1-3.9
		c-6.1-1.9-6.1-2-3.9-8.5c0.3-0.9,0.4-1.9,0.3-2.9c-0.1-1.5-1-2.9-2.5-3.5c-0.2,0-0.4,0-0.6,0c-3.1,0-3.8,2.9-6,3.7
		c-1.2-0.6-2.6-1.4-3.8-1.4c-0.9,0-1.7,0.4-2.3,1.6c-2.3,3.9-5.5,5.9-9.8,5.9c-1.1,0-2.2-0.1-3.4-0.4c1.7,5.2-0.9,8.2-4,11.2
		c-4.9,4.3-6.8,11.1-4.9,17.4c1.4,4.6,2.2,9.4,2.4,14.2c0.1,4,1.4,6,3.7,6c1.3,0,2.9-0.6,4.7-1.9c1-0.7,1.8-1.1,2.6-1.1
		c1,0,2,0.6,2.9,1.8c1,1.3,2.1,2.6,3.1,3.9c4.5,6.4,4.1,8-3.3,11.2c-2.3,1-3.9,2.3-2.5,4.9c1.4,2.6,0,3.8-2,5.1
		c-5.4,3.4-5.4,6.5,0.1,9.8c1.4,0.9,2.9,1.6,4.5,2.1c3.2,1.2,5.5,2.7,5.1,6.8c-0.4,3.6,3.6,4.4,5.2,6.9c-2.5,9.3-3.1,9.8-12.7,10.1
		c-2.8,0.1-4.6,1.6-6.5,3.2c-1.5,1.2-3.1,2.3-4.8,2.3c-0.8,0-1.6-0.2-2.4-0.8c-2.8-1.9-3-5-2.1-8.1c1.9-6.6,1.3-7.6-5.5-9
		c-6.8-1.4-7.3-2.1-6.2-9.4c0.3-1.3-0.2-2.7-1.3-3.5c-2.9-1.9-4-4-0.3-6.8c-4-1.5-7.6-3.8-10.6-6.7c-0.7,2.8-1.7,3.8-3,3.8
		c-1,0-2.2-0.6-3.5-1.5c-2.1-1.4-4-2-5.9-2c-2.7,0-5.2,1.5-7.5,4.4c-2.7,3.4-5.4,5.1-8.4,5.1c-1.3,0-2.7-0.3-4.2-0.9
		c-2.2-0.8-4-1.3-5.5-1.3c-3.9,0-5.7,2.9-6.2,9.2c0,1-0.1,2-0.2,3c-0.5,2.9-1.7,4.5-3.6,4.5c-0.9,0-1.9-0.3-3-1.1
		c-1.2-0.7-2.2-1.1-3.2-1.1c-0.8,0-1.7,0.3-2.6,0.8c-0.7,0.3-1.4,0.5-2.1,0.5c-0.4,0-0.9-0.1-1.3-0.2c-5.8-1.6-11.7-2.5-17.6-2.8
		c-5-0.4-6.5-5.4-6.7-9.9c-0.2-3.7-1.3-6-5-7c-2.5-0.7-3.7-2.2-2-4.8c1.7-2.6,1.1-5.1-0.8-7.4c-5.3-6.2-7.6-14.4-6.5-22.4
		c0.4-2.6-0.5-5.3-2.5-7c-2.2,1.6-2.1,4.3-3.2,6.4c-0.7,1.4-1.3,2.9-3,3.1c-0.1,0-0.2,0-0.4,0c-1.7,0-2.7-1.3-3.5-2.6
		c-0.4-0.7-0.8-1.5-1.2-2.2c-1.3-2.5-1.9-6.2-5.4-6.2c-0.2,0-0.4,0-0.7,0c-4.7,0.5-9.1,2.2-12.3,5.9c-1.2,1.3-0.5,2.9,0.2,4.3
		c1.5,3.2,0.9,5.8-1.8,8c-3.6,3-3.2,6,0.5,8.5s4.8,5.7,3.8,9.9c-0.7,3.1-0.3,6.4,1.3,9.2c1.8,3.3,1.8,7.3-0.1,10.5
		c-2.7,5.1-1.7,11.7-7,15.6c1.6,7.9-3.8,11.1-9.4,14.3c-1.8,1-1.6,3.2-1.6,5c0,3.1-1.2,5.1-4,5.1c-0.4,0-0.8,0-1.2-0.1
		c-0.4-0.1-0.8-0.1-1.2-0.1c-3,0-4.5,2.1-5.1,4.9c-1.2,5.3-3.2,9.5-9.2,11.1c-3.4,0.9-3.2,4-2,7.1c2.4,6.2,1.7,8.7-4.6,10.7
		c-6.8,2.1-9,5.9-8.4,12.8c0.5,5.7,1.2,11.7-1.8,17.1c-0.6,1.1-0.6,3.4,0.4,3.7c5.5,1.6,6.1,7.7,10,10.6c4.3,3.2,4.7,5.6,1.8,10.2
		c-2.4,3.8-4.8,7.7-7.5,11.2c-1.3,1.7-2.8,3.3-4.7,3.3c-1,0-2-0.4-3.2-1.5c-0.2-0.2-0.9-0.6-1.2-0.6c-0.1,0-0.1,0-0.1,0.1
		c-1.5,1.4-3.2,1.7-5,1.7c-1.7,0-3.5-0.3-5.2-0.3c-1.2,0-2.3,0.2-3.4,0.7c-0.8,0.4-1.7,0.8-2.5,0.8c-1,0-1.9-0.5-2.7-2
		c2.9-2.2,6.3-4,6.8-8.4c-4.2-1.1-5.9-3.6-4-8c0.9-1.9,0.2-3.9-0.5-5.8c-1.7-4.3-3.7-8.5-6.1-12.5c-2.1-4.2-5.9-7.3-10.5-8.5
		c-2.1-0.5-4.1-1.5-5.8-2.8c-3.1-2.3-3.2-5.7-0.1-7.8c3.3-2.2,4.4-4.8,2.7-8.1c1.1-1.4,2.3-1.5,3.4-1.8c2.5-0.7,2.9-2.3,1.3-4
		c-3.8-4-6-10.1-12.8-10.1c-0.4,0-0.8,0-1.3,0.1c-0.1,0-0.3,0-0.4,0c-2.6,0-4.1-2.6-5.2-4.7c-0.1,0-0.3,0-0.4,0
		c-2,0-2.9,1.3-4.1,2.4c-1.7,1.7-3.4,2.6-5,2.6c-1.8,0-3.5-1.2-4.6-3.6c-1.5-3.3-3.6-4.6-6.8-4.6c-0.3,0-0.7,0-1.1,0
		c-0.3,0-0.5,0-0.8,0c-2.9,0-5.2-1.5-7.2-3.5c-2.2-2.2-3.1-4.3-0.5-6.9c2.4-2.4,1.8-4.5-1.2-5.8c-2.5-1-4.5-3.1-5.5-5.6
		c-2-4.6-5.5-6.3-10.3-6.4c-3.4-0.1-6.3-0.8-6.2-5.3c0-3.7-4.6-2.1-5.9-5.1c3.5-3.1,2-6.5,0.2-9.9c-2.9-5.3-2-10.2,2.4-14
		c11.1-9.9,7.5-20.4,1.5-33.7c-0.7-1.7-2.3-2.8-4.1-2.8c-0.3,0-0.5,0-0.8,0.1c-7.5,1-14.8,2.8-20.8,7.7c-4.7,3.9-5.2,6.8-2,12
		c2.2,3.5,1,6.3-2.4,7c-7.8,1.5-10.2,8.9-15.3,13.3c-1.7,1.4-2.1,3.8-2.1,6c0,3.7-2,4.8-5.4,5c-3,0.1-6,0.5-8.9,1.2
		c-8,2.1-10.8,9.2-5.2,15.1c4.4,4.8,4.7,11.3,8.8,16c0.4,0.7,0.6,1.6,0.5,2.4c0.5,7.7-9.2,19.5-16.9,20c-5.6,0.3-8.6,3-9.4,8.3
		c-0.6,4-1.1,7.9-1.9,11.8c-1.6,7.8-4.5,10.1-12.3,10.1c-8.4,0-14.6,4.8-16.6,13c-0.5,2.3-1.1,4.5-1.9,6.7c-1.2,2.8-2.9,4.2-5.1,4.2
		c-1.2,0-2.6-0.5-4.1-1.4c-1.1-0.7-2.3-1.8-3.3-1.8c-0.2,0-0.5,0.1-0.7,0.2c-1.6,1-2.9,1.4-4.1,1.4c-2.6,0-4.5-1.9-6.6-4.4
		c-0.5-0.7-1.2-0.9-1.8-0.9c-1.2,0-2.5,0.9-3.6,1.6c-1.3,0.9-2.7,1.7-4.1,1.7c-0.7,0-1.5-0.2-2.3-0.8c-2.3-1.7-1.6-3.6-0.3-5.7
		c0.8-1.3,0.1-2.6-1.1-3.4c-2.1-1.3-4.4-2.1-6.3-4c-0.3-0.3-0.7-0.5-1-0.5c-0.8,0-1.7,0.8-2.4,1.5c-2,1.5-3.6,2.2-5.1,2.2
		c-2,0-3.6-1.4-5.3-4.4c-0.6-1.2-1.3-2.3-2.1-3.4c-1-1.1-2.4-1.6-3.7-1.6c-1.8,0-3.5,1.1-3.6,3.2c-0.6,6.5-3.9,8.7-9.7,8.7
		c-0.1,0-0.3,0-0.4,0c-1.7,0.1-3.3,1.1-4,2.7c-4.2,7.6-11.8,10.3-19.2,13.3c-0.6,0.3-1.2,0.4-1.8,0.4c-1.6,0-2.8-1-3.7-2.5
		c-1.5-2.3-3.2-3.1-5.1-3.1c-1.2,0-2.6,0.4-4,0.9c-6,2.5-11.7,5.7-16.9,9.5c-2.7,2-4,4.8-5.3,7.7c-1.2,2.5-2.4,3.7-3.7,3.7
		c-1.2,0-2.4-1-3.7-3c-1.3-2-2.4-3.1-3.6-3.1c-1.1,0-2.2,0.9-3.6,2.9c-1.1,1.6-2.5,2.4-3.8,2.4c-1.7,0-3.2-1.4-3.9-3.9
		c-1.2-4.3-4.6-6.8-6.6-10.2c-3.9-6.3-9-12.9-6.8-21.2c0.9-3.4-0.2-5.7-2.9-7.2c-4-2.1-6.8-6.1-7.5-10.6c-0.3-1.5-0.8-2.9-1.6-4.2
		c-1.3-2.7-2.7-4.1-4.4-4.1c-1.2,0-2.6,0.6-4.3,1.8c-1.8,1.2-3.3,2.8-5.5,3.3c-0.3,0.1-0.6,0.1-0.9,0.1c-1,0-2-0.5-2.7-1.2
		c-0.8-1-1.1-2.5-0.1-3.2c5-4,0.9-6.4-1.5-9c0.1-0.4,0.1-0.8,0.3-1c1.7-1.8,5.3-2.4,4.3-6c-1-3.6-4.2-3.8-7.2-4.5c-3-0.7-6-1-8.7-2
		c-4.4-1.6-5-4.5-1.7-7.8c1.6-1.3,2.2-3.4,1.7-5.4c-1.8-7.7,0.5-13.9,6.7-19c4.9-4.1,4.8-8.2,0.3-12.8c-1.1-1.1-2.2-2-3.3-3
		c-2.7-2.3-5.5-4.6-3.6-8.6c-5.7-3.2-6.5-7.1-2.3-11.3c3.8-3.8,3.7-8.8,4.5-13.4c0.4-2.5-2-3.1-4-3.6c-14.8-3.6-29.9-5.9-45.2-7
		c-1-0.1-2-0.1-3-0.1c-6.2,0-12.3,1.6-17.7,4.8c-9.3,5.5-19.2,9.8-29.6,12.8c-5,1.3-9.6,4-13.2,7.8c-2.8,3.1-4.4,7.2-4.4,11.4
		c0,1.5,0.1,3.5,1.8,3.7c3.9,0.6,3.6,3.4,3.3,6c-0.5,4.2,0.7,6.3,4,6.3c0.7,0,1.6-0.1,2.5-0.3c0.3,0,0.6,0,0.9,0
		c0.8,0,1.6,0.1,2.4,0.2c1.3,2.5-0.3,3.5-1.8,4.6c-7.9,5.7-15.4,11.7-18.6,21.5c-0.6,1.7-2.2,2.9-4,2.9c-0.1,0-0.1,0-0.2,0
		c-3.9,0-6.4,2.2-8.7,5.1c-2.2,2.7-3.8,4-5.8,4c-1.6,0-3.4-1-5.8-2.8c-0.9-0.8-2-1.2-3.2-1.2c-0.8,0-1.6,0.2-2.3,0.5
		c-5.7,2.8-7.5,3.6-11.4,3.6c-1.7,0-3.9-0.2-7-0.4c-0.1-0.2-0.5-0.6-0.4-0.7c2.1-5.7,3.7-11.3-0.8-16.7c-0.6-0.8-0.2-1.9,0.3-2.8
		c2.4-4.6,5.6-8.8,9.2-12.5c0.9,0.6,1.7,0.9,2.1,1.6c1.5,2.2,3,3.5,4.6,3.5c1.4,0,2.8-0.9,4.2-3c1.5-2,3.7-1.9,5.9-2
		c3.6-0.2,4.7-2.1,2.1-4.8c-2.3-2.3-1.9-4.3-0.7-6.7c3-6.2,6.1-12.2,8.9-18.5c3-6.7,0.2-12.4-6.9-13.8c-5.3-1-9.3-2.8-8.5-9.3
		c0.1-1.5-0.5-3-1.6-4.1c-4.2-4.5-2.6-8.6,0.9-12.3c4.5-4.8,9-9.5,7.9-17c2.2-0.2,3.8-0.3,5.4-0.6c1.7-0.3,3-1.7,3.2-3.4
		c0.3-1.5-0.4-3-1.7-3.8c-4.2-3-4.2-4.7-0.1-8.2c6.7-5.7,13.5-11.4,20.2-17.1c3.9-3.3,7.5-7.1,10.5-11.3c2.8-3.9,6.2-6.4,10.9-6.4
		c0.4,0,0.9,0,1.3,0.1c0.3,0,0.5,0,0.8,0c3,0,5-1.7,5.5-4.5c0.9-4.9,4-7.4,8.3-9c2.1-0.6,4-1.8,5.4-3.5c1.2-1.6,2-3.4,0-4.8
		c-4.5-3.1-2.6-7-1.4-10.7c0.7-1.5,1.5-3,2.6-4.3c3.3-5,3.7-10,0.7-15.5c-4.6-8.3-4-11.2,3.4-17.5c2.4-2,4.4-5.1,7.8-5.1
		c0.9,0,1.9,0.2,3,0.8c0.2,0.1,0.4,0.1,0.6,0.1c0.9,0,1.9-0.8,2.4-1.5c2.7-4,6.9-4.9,11.3-5.6c5.4-0.9,10.4-2.4,13-7.9
		c1.1-2.5,3.6-3.3,6.2-3.7c2.6-0.4,4.3-1.2,3.2-4.6c-1.3-4,0.6-6.4,4.9-6.7c3-0.2,5.1-1.5,5.5-4.7c0.2-1.3,0.5-2.9,1.9-2.9
		c0.1,0,0.2,0,0.2,0c0.4,0.1,0.8,0.1,1.2,0.1c3.7,0,4.4-3.2,5.9-6c2.1-3.8,3.9-8.2,9.3-8.9c2-0.3,2.8-2,1.1-3.6
		c-3.3-3.1-1.2-5.2,1.3-6.7c2.8-1.8,5.9-3.2,9.1-4.1c5.5-1.4,8-5,8.9-10.2c0.5-2.6,0.8-5.3,1.5-7.9c1.1-4.2,3.1-7.3,7.9-7.3
		c0.2,0,0.4,0,0.7,0c0.1,0,0.2,0,0.3,0c2.2,0,4.5-0.9,4-3.6c-1-5,0.8-7.9,5.9-8.9c-1.5-4.8-4.1-7-8.1-7c-0.8,0-1.6,0.1-2.5,0.2
		c-5.7,1-11.5,1.6-17.3,2.3c-0.6,0.1-1.2,0.1-1.9,0.1c-1.9,0-3.7-0.5-4.6-2.6c-1.3-2.8,1.1-3.9,2.5-5.4c1.7-1.8,2.9-4.1,3.4-6.5
		c0.4-2.2,0.6-4.5,3.9-5c2.6-0.4,0.9-3.6,2.2-5.1c2,0.3,3.6,0.5,4.9,0.5c3.2,0,4.5-1.2,6.5-4.3c1.5-2.4,1.8-4.6-0.5-6.7
		c-2-1.8-3.4-3.9-2.1-6.6c1.3-2.6,3.9-4.3,6.8-4.6c0.7-0.1,1.3-0.1,2-0.1c2.7,0,5.1,0.7,7.2,2.9c1.6,1.7,3.4,2.5,5.2,2.5
		c1.1,0,2.3-0.3,3.4-1c3.2-2,6.4-3,9.7-3c2.7,0,5.4,0.7,8.2,2.3c1.6,0.9,3.6,0.1,5.2,1.5c-0.6,3-3.7,1.5-5.5,3.2
		c0.6,2.3,1.3,5-0.2,7.6c-0.7,1.3,0.4,2.5,1.4,3.5c2.7,2.5,5.8,4.5,9.1,6.1c0.4,0.2,1,0.5,1.2,0.5c0,0,0,0,0.1,0
		c1.4-1.8,3.3-2,5.2-2c0.5,0,1.1,0,1.6,0c1.7,0,3.3-0.2,4.6-1.4c1.3-1.3,2.8-1.4,4.4-1.4c0.6,0,1.1,0,1.7,0c1.9,0,3.9,0.1,5.8,0.1
		c2.9,0,5.8-0.2,8.6-1.2c2.8-0.8,4.8-3.2,5.2-6.1c0.6-3.2-1.1-5-3.8-6.2c0.5-3.3,1.6-5.4,4.3-5.4c0.8,0,1.7,0.2,2.7,0.5
		c1.2,0.4,2.5,0.7,3.7,0.7c2.2,0,4.3-0.9,5.7-3.2c1.8-2.8,5.8,0.2,7.5-3.4c-1.5-1.5-3.8-1.3-5.6-2.3c-2.4-1.3-2.6-2.9-0.3-4.6
		c7.1-5.1,13.7-11,21.6-15.3c1.4,0.2,2,2.3,4.1,2.3c0.1,0,0.2,0,0.3,0c2.6-3.2,6.1-4.3,10.1-4.3c1.3,0,2.7,0.1,4.1,0.3
		c-2.6,2.9-3.2,5.9-1.2,9.3c1.1,1.9-0.4,3.5-2.6,3.9c-2,0.4-3.9,0.5-6.2,0.8c-0.2,2.9,1.4,4.4,3.7,5.1c2.1,0.7,4.6,1.1,7.3,1.1
		c5.6,0,11.6-1.9,14.9-7.4c3.4-5.5,8.9-8.3,15-8.3c2,0,4.1,0.3,6.1,0.9c2.9,0.9,3.1,3,3.2,5.5c0.1,4.5,2,7.1,5,7.1
		c1.4,0,3-0.5,4.8-1.7c2.2-1.4,4.4-1.5,6.7-1.5c0.3,0,0.6,0,0.9,0c0.3,0,0.6,0,1,0c0.5,0,0.9,0,1.4,0c2.8,0,5.5-0.2,7.5-3.2
		c0.6-0.9,1.6-1.1,2.7-1.1c0.8,0,1.7,0.1,2.5,0.1c2.4,0,5.1,0,6.3-2.2c4.4-8,12.1-12.1,19.4-17.1h0.1c9.5,0.3,16.1,5.6,21.8,12.7
		c1.1,1.4,1.3,3,2.2,4.3c1.2,2,2.5,3,3.8,3c1.2,0,2.4-0.8,3.7-2.5c1.1-1.5,2.1-2,3.2-2c1.5,0,2.9,1,4.2,1.8c1.8,1.1,3.6,1.8,5.3,1.8
		c1.6,0,3.1-0.6,4.7-1.9c0.4-2.4-1.3-3.1-2.8-3.8c-4.4-2-2.9-4.7-0.6-7c3.4-3.5,6.9-5.3,10.6-5.3c3,0,6.2,1.2,9.6,3.5
		c1.9,1.3,3.4,2,4.6,2c1.8,0,2.9-1.6,3.5-5c0.3-1.9,1.1-3.7,2.4-5.1l3.2,3.5c2.8-2,1.8-4.1,0.5-6c-0.9-1.3-2.1-2.4-3.5-2.4
		c-0.6,0-1.3,0.2-2,0.7c-1.5,1-3,1.8-4.7,1.8c-0.4,0-0.9-0.1-1.4-0.2c-1.2-0.3-2.4-0.5-3.6-0.5c-2.7,0-5,1.2-6.4,4.6
		c-1.8-1-3.3-2.1-4.9-2.1c-0.9,0-1.8,0.4-2.8,1.3c-0.3,0.3-0.7,0.5-1,0.5c-0.8,0-1.6-0.8-2.2-1.7c-2.8-3.9-6.7-4.9-11.7-4.9
		c-0.2,0-0.5,0-0.7,0c1.7-4.5,0.8-10.1,6.7-12.6c2.1-0.9,3.3-3,1.9-4.9c-4.4-5.8-0.2-9.1,3.4-12.6c1-0.8,2-1.6,3.1-2.3
		c1.9,1.3,4.5,1.9,7.3,1.9c5.8,0,12.2-2.6,14.5-6.7C536.6,179.2,537.6,177.1,539.6,177.1 M539.6,173.1c-4.3,0-6.3,3.7-7.4,5.7
		l-0.1,0.2c-1.5,2.6-6.4,4.7-11,4.7c-2.1,0-3.9-0.4-5-1.2l-2.2-1.5l-2.2,1.4c-1.3,0.8-2.4,1.7-3.5,2.6l-0.2,0.1l-0.1,0.1
		c-0.2,0.2-0.5,0.5-0.7,0.7c-3.1,3-8.9,8.5-3.8,16.2c-5.8,2.7-6.9,7.7-7.6,11.4c-0.2,1.2-0.5,2.3-0.8,3.3l-2.1,5.5l5.9-0.1
		c0.2,0,0.5,0,0.7,0c4.5,0,6.7,0.9,8.4,3.2c0.7,1,1.4,1.7,2.1,2.2c-1.2,0.9-2.4,1.9-3.6,3.1c-1,1-4,4-3.3,7.8c0.1,0.7,0.4,1.4,0.7,2
		c-1.4-0.8-3.2-1.8-5.4-1.8c-1.7,0-4.2,0.6-6.4,3.6c-0.1,0.2-0.3,0.4-0.4,0.5c-0.1-0.2-0.3-0.4-0.5-0.7l-0.1-0.1l-0.1-0.1
		c-0.2-0.2-0.3-0.7-0.5-1.1c-0.4-1-0.9-2.1-1.8-3.4c-4.8-5.9-12.5-13.8-24.8-14.2l-0.1,0h-0.1h-0.1h-1.2l-1,0.7
		c-1.1,0.8-2.3,1.6-3.5,2.3c-6.4,4.2-12.9,8.5-17.1,16.1c-0.5,0.2-2,0.2-2.8,0.2c-0.2,0-0.6,0-0.9,0c-0.5,0-1-0.1-1.5-0.1
		c-2.7,0-4.7,1-6,2.8l0,0l0,0c-0.7,1.1-1.3,1.4-4.2,1.4l-0.7,0l-0.7,0c-0.3,0-0.7,0-1,0l-0.4,0l-0.4,0c-2.2,0-5.6,0-8.9,2.1
		c-1.5,1-2.4,1-2.6,1c-0.5,0-1-1.4-1-3.2c-0.1-2.4-0.3-7.4-6-9.2c-2.4-0.7-4.9-1.1-7.3-1.1c-7.7,0-14.4,3.7-18.4,10.3
		c-2.9,4.8-8.5,5.5-11.5,5.5c-0.4,0-0.8,0-1.3,0c1.3-0.7,2.3-1.8,2.9-3.1c0.8-1.8,0.7-3.9-0.4-5.8c-0.9-1.5-1-2.7,0.7-4.6l5-5.6
		l-7.5-1c-1.7-0.2-3.3-0.4-4.7-0.4c-4.4,0-8,1.1-10.8,3.5c-0.7-0.6-1.7-1.2-3.1-1.4l-1.3-0.2l-1.1,0.6c-5.7,3.1-10.7,7-15.6,10.7
		c-2.1,1.6-4.3,3.3-6.5,4.9l0,0l0,0c-2.9,2.1-3.3,4.4-3.2,5.9c0.1,1.1,0.5,2.6,1.9,3.9c-0.5,0.4-0.9,0.9-1.3,1.5
		c-0.6,1-1.3,1.4-2.4,1.4c-0.7,0-1.5-0.2-2.3-0.5l0,0l0,0c-1.4-0.5-2.7-0.7-4-0.7c-3.2,0-7.2,1.5-8.3,8.8l-0.4,3l2.8,1.2
		c1.7,0.8,1.6,1.1,1.5,1.8l0,0.1l0,0.1c-0.2,1.4-1.1,2.4-2.3,2.8l-0.1,0l-0.1,0c-2,0.7-4.1,1-7.2,1c-1.1,0-2.3,0-3.5-0.1
		c-0.8,0-1.5-0.1-2.3-0.1l0,0h0c-0.3,0-0.5,0-0.8,0c-0.3,0-0.6,0-0.9,0c-1.3,0-4.5,0-7.1,2.5l0,0l0,0c-0.1,0.1-0.5,0.3-1.8,0.3
		c-0.3,0-0.5,0-0.8,0c-0.3,0-0.6,0-0.9,0c-1.2,0-3.6,0-5.9,1.3c-2.7-1.4-5-3-7-4.8c0,0,0,0,0,0c0.8-1.9,0.9-3.8,0.7-5.5
		c1.7-0.5,4.1-1.7,4.8-5.1l0.5-2.3l-1.7-1.5c-1.9-1.6-4-1.8-5.2-1.9c-0.2,0-0.6-0.1-0.7-0.1c-3.3-1.9-6.7-2.8-10.1-2.8
		c-3.9,0-7.8,1.2-11.8,3.6c-0.5,0.3-0.9,0.4-1.4,0.4c-0.8,0-1.7-0.7-2.3-1.3c-2.7-2.8-6.1-4.1-10.1-4.1c-0.8,0-1.6,0-2.4,0.1
		c-4.3,0.5-8,3-9.9,6.8l0,0l0,0c-1.3,2.7-1.9,6.9,3,11.3c0.2,0.2,0.3,0.3,0.3,0.4c0,0.1-0.1,0.5-0.6,1.2c-1.6,2.5-1.8,2.5-3.1,2.5
		c-0.9,0-2.2-0.1-4.2-0.5l-2.2-0.4l-1.5,1.7c-1.2,1.4-1.5,3-1.5,4.2c-4.4,1.5-5.1,5.6-5.4,7.4l-0.1,0.3c-0.4,1.7-1.2,3.3-2.4,4.5
		c-0.2,0.2-0.4,0.4-0.7,0.6c-1.3,1.2-4.8,4.3-2.5,9.2c1,2.3,3.3,4.9,8.3,4.9c0.7,0,1.4-0.1,2.3-0.2c1.1-0.1,2.3-0.3,3.4-0.4
		c4.6-0.5,9.4-1.1,14.1-1.9c0.7-0.1,1.3-0.2,1.8-0.2c0.8,0,1.7,0,2.6,0.9c-1.2,0.8-2.2,1.7-3,2.8c-1.4,2.1-1.9,4.7-1.5,7.8
		c-0.3,0-0.6,0-0.9,0c-4.2,0-9.7,1.8-11.8,10.3c-0.5,1.9-0.8,3.8-1.1,5.6c-0.1,0.9-0.3,1.8-0.4,2.6l0,0l0,0c-0.7,4.1-2.4,6.1-5.9,7
		l0,0l0,0c-3.6,1-7,2.5-10.1,4.6c-1.2,0.7-4.5,2.7-4.9,6.4c-0.1,1.1,0,2.5,0.9,4.1c-4.7,1.8-6.9,5.9-8.6,9c-0.2,0.4-0.4,0.7-0.6,1.1
		c-0.4,0.6-0.7,1.3-0.9,1.8c-0.3,0.7-0.9,1.9-1.2,2.1c0,0-0.1,0-0.3,0c-0.2,0-0.4,0-0.6,0l0,0l0,0c-0.2,0-0.5,0-0.7,0
		c-2.2,0-5.1,1.1-5.8,6.4l0,0l0,0c-0.1,0.8-0.1,1.1-1.8,1.2c-4.4,0.3-6.6,2.3-7.7,3.9c-1,1.5-1.9,3.9-0.9,7.5c-2,0.3-6.9,1.2-9.1,6
		c-1.7,3.6-5,4.8-10,5.6c-3.9,0.6-9.7,1.5-13.5,6.7c-1.1-0.3-2.1-0.5-3.1-0.5c-4.2,0-6.9,2.7-8.9,4.6c-0.5,0.5-1,1-1.5,1.4
		c-8.9,7.6-9.8,12.6-4.3,22.5c2.2,4,2,7.3-0.4,11.2c-1.4,1.7-2.3,3.5-3,5l-0.1,0.2l-0.1,0.2c-0.1,0.3-0.2,0.7-0.3,1
		c-1.1,3.2-3.1,9,2.2,13.5c-0.8,0.9-1.9,1.6-3.2,1.9l-0.1,0l-0.1,0.1c-6.2,2.3-9.8,6.3-10.8,12c-0.2,1-0.6,1.3-1.6,1.3
		c-0.1,0-0.3,0-0.4,0c-0.5-0.1-1.1-0.1-1.7-0.1c-5.6,0-10.3,2.7-14.2,8c-2.7,3.8-6,7.3-9.8,10.6c-3.4,2.9-6.7,5.7-10.1,8.5
		c-3.4,2.9-6.8,5.7-10.1,8.6c-2.4,2.1-4.6,4.4-4.5,7.6c0.1,3.2,2.5,5.3,4.8,6.9l0,0c-1.1,0.2-2.3,0.3-3.7,0.4
		c-0.4,0-0.8,0.1-1.2,0.1l-4.2,0.4l0.6,4.2c0.8,5.2-2,8.6-6.7,13.5l-0.2,0.2c-7.7,8.1-3.9,14.6-0.9,17.8l0,0.1l0,0
		c0.3,0.3,0.4,0.6,0.4,0.9c-1.3,11.1,8.5,12.9,11.7,13.6c1.5,0.3,3.5,1,4.4,2.7c0.7,1.4,0.6,3.4-0.4,5.5c-1.9,4.3-4,8.6-6.1,12.7
		c-0.9,1.9-1.9,3.8-2.8,5.7c-0.7,1.4-2.6,5.3-0.1,9.4c-2.2,0.2-4.8,0.8-6.8,3.5l0,0l0,0c-0.4,0.6-0.8,1-1,1.2
		c-0.3-0.2-0.7-0.7-1.2-1.4c-0.8-1.3-2-2-2.7-2.5c-0.2-0.1-0.3-0.2-0.5-0.3L22,624l-2.3,2.4c-4.1,4.2-7.4,8.7-9.9,13.4
		c-1.9,3.5-0.8,6,0,7.1l0.1,0.1l0.1,0.1c2.8,3.4,2.3,6.8,0.1,12.8l0,0c-0.4,1-0.5,2.5,0.7,4.1l0.9,1.8l2.2,0.2
		c3.1,0.3,5.4,0.4,7.3,0.4c4.9,0,7.5-1.3,13.2-4c0.2-0.1,0.4-0.1,0.5-0.1c0.2,0,0.4,0.1,0.5,0.2l0.1,0.1l0.2,0.1
		c2.3,1.8,5.1,3.6,8.3,3.6c4,0,6.7-2.8,8.9-5.5c2.1-2.6,3.5-3.6,5.5-3.6c0.1,0,0.2,0,0.3,0c3.5,0,6.6-2.3,7.8-5.6
		c2.8-8.6,9.7-14.2,17.1-19.5l0.2-0.2c1.4-1,5.6-4.1,2.8-9.5l-0.9-1.7l-1.9-0.4c-1.1-0.2-2.1-0.3-3.1-0.3c-0.4,0-0.8,0-1.2,0.1
		l-0.3,0l-0.3,0.1c-0.8,0.2-1.3,0.2-1.6,0.2c0,0,0,0,0,0c0-0.3-0.1-0.9,0-1.9c0.2-2.1,0.9-8.2-5.1-10.1c0,0,0-0.1,0-0.1
		c0-3.2,1.2-6.3,3.3-8.7c3.1-3.2,7-5.5,11.3-6.6l0.1,0l0.1,0c10.6-3.1,20.9-7.5,30.5-13.2c4.7-2.8,10.2-4.3,15.7-4.3
		c0.9,0,1.8,0,2.6,0.1c15.3,1.1,30.3,3.4,44.6,6.9c0.2,0.1,0.5,0.1,0.8,0.2c-0.1,0.5-0.2,1.1-0.2,1.6c-0.5,3.4-0.9,6.3-3,8.4
		c-3.6,3.6-4,7-3.7,9.1c0.3,2.5,1.8,4.8,4.3,6.8c-0.4,4.8,3.3,7.9,5.5,9.8l0.1,0.1c0.4,0.3,0.7,0.7,1.1,1c0.7,0.6,1.4,1.2,2,1.8
		c1.5,1.5,2.2,2.8,2.2,3.8c0,0.8-0.8,2-2.2,3.1c-7.4,6.1-10.2,13.9-8,23l0,0l0,0c0.1,0.2,0.2,0.9-0.3,1.3l-0.2,0.1l-0.1,0.1
		c-3.3,3.3-3.5,6.3-3.1,8.3c0.4,1.9,1.9,4.5,6.3,6.1c2.1,0.8,4.2,1.2,6.2,1.5c1,0.2,2,0.4,2.9,0.6c0.4,0.1,0.8,0.2,1.2,0.3
		c2.3,0.5,2.8,0.7,3,1.1c-0.2,0.2-0.5,0.3-0.7,0.5c-0.8,0.5-1.7,1.1-2.5,2c-1,1-1.2,2.2-1.3,2.7l0,0.1l-0.5,2.1l1.5,1.6
		c0.4,0.5,0.9,0.9,1.3,1.3c0.4,0.4,0.9,0.9,1.2,1.3c-0.1,0.1-0.3,0.3-0.6,0.5c-1.2,0.9-1.9,2.2-2.1,3.6c-0.3,1.8,0.3,3.7,1.5,5.2
		l0.1,0.1l0.1,0.1c1.5,1.6,3.5,2.6,5.7,2.6c0.7,0,1.3-0.1,1.9-0.3c2.4-0.6,4.1-1.9,5.5-2.9c0.4-0.3,0.9-0.6,1.2-0.9l0,0l0,0
		c0.9-0.6,1.5-0.9,1.8-1c0.2,0.2,0.6,0.7,1,1.7l0.1,0.2l0.1,0.2c0.5,0.8,0.8,1.7,1.1,2.8c0.9,5.7,4.5,10.7,9.5,13.4
		c1,0.6,1.4,1,0.9,2.7c-2.4,9.1,2.3,16.4,6,22.3c0.4,0.7,0.8,1.3,1.2,2c0.9,1.5,1.9,2.8,2.9,4c1.5,1.8,2.7,3.3,3.2,5.2
		c1.1,4.1,4.2,6.8,7.8,6.8c2.7,0,5.3-1.5,7.1-4.2c0.1-0.1,0.2-0.2,0.2-0.3c0.1,0.1,0.2,0.3,0.3,0.4c2,3.2,4.4,4.9,7,4.9
		c3,0,5.5-2,7.3-6l0,0l0,0c1.3-2.8,2.2-4.8,4-6.1c4.9-3.6,10.3-6.6,16.1-9c1-0.4,1.8-0.6,2.4-0.6c0.4,0,0.9,0,1.8,1.3
		c1.7,2.8,4.2,4.3,7.1,4.3c1.1,0,2.2-0.2,3.3-0.7l1.3-0.5c7.2-2.9,15.3-6.2,19.9-14.6l0.1-0.2l0.1-0.2c0.1-0.1,0.3-0.3,0.5-0.3
		c0.1,0,0.2,0,0.2,0c8.2,0,12.8-4,13.6-11.9c0.1,0,0.2,0.1,0.3,0.2c0.7,0.9,1.2,1.7,1.6,2.6l0.1,0.1l0.1,0.1
		c1.6,2.8,4.2,6.4,8.8,6.4c3,0,5.6-1.7,7.3-3c1.2,0.9,2.4,1.5,3.5,2.1c0.3,0.1,0.5,0.3,0.8,0.4c-2.3,4.8-0.2,7.8,2.2,9.5
		c1.4,1.1,3,1.6,4.7,1.6c2.7,0,4.8-1.4,6.3-2.4l0.1,0l0.1,0c0.3-0.2,0.6-0.4,0.8-0.5c1.8,2.1,4.7,5,8.9,5c1.6,0,3.2-0.4,4.9-1.2
		c0,0,0.1,0,0.1,0.1c0.3,0.2,0.7,0.5,1.1,0.7c2.1,1.3,4.2,2,6.2,2c2.2,0,6.3-0.9,8.8-6.6l0-0.1l0-0.1c0.8-2.2,1.5-4.5,2-7.2
		c1.6-6.4,6.1-9.9,12.7-9.9c9.7,0,14.3-3.7,16.2-13.3c0.6-3.1,1.1-6.3,1.6-9.4c0.1-0.9,0.3-1.7,0.4-2.6c0.5-3.4,2-4.7,5.7-4.9
		c9.6-0.6,21.1-13.9,20.7-23.9c0.1-1.5-0.3-3.1-1-4.5l-0.2-0.3l-0.3-0.3c-1.6-1.8-2.5-4.1-3.5-6.6c-1.2-3-2.6-6.5-5.4-9.5l0,0l0,0
		c-0.9-0.9-2.3-2.7-1.7-4.6c0.5-1.7,2.3-3.1,5-3.8c2.6-0.6,5.3-1,8.1-1.1l0.1,0l0.1,0c7.6-0.4,9.2-5.1,9.2-9c0-1.8,0.3-2.7,0.6-2.9
		l0,0l0,0c2-1.7,3.6-3.7,5.1-5.7c2.9-3.7,4.8-6,8.4-6.7l0,0l0,0c2.9-0.6,5.1-2.2,6.1-4.6c1.1-2.5,0.7-5.5-1.1-8.4
		c-2.1-3.5-2-4.2,1.2-6.8c5.6-4.5,12.6-6,18.8-6.8l0.1,0l0.1,0c0,0,0,0,0.1,0c0.2,0,0.3,0.1,0.4,0.3l0,0l0,0
		c6.5,14.4,7.9,21.6-0.5,29.1c-5.9,5.1-7.1,12-3.3,18.9c2,3.8,1.6,4.2,0.7,5l-2.2,1.9l1.2,2.7c1.3,3,4,3.9,5.5,4.4c0,0,0,0,0.1,0
		c0.2,3.9,2.2,8.2,10.1,8.4c4.2,0.1,5.7,1.6,6.7,3.9c1.4,3.3,3.9,6.1,7.1,7.5c-1.9,2.1-4.5,6.6,1,12.1c3.2,3.2,6.5,4.7,10,4.7
		c0.4,0,0.8,0,1.2-0.1c0.2,0,0.5,0,0.7,0c1.5,0,2.2,0.2,3.2,2.3c1.8,3.8,4.8,5.9,8.2,5.9c2.7,0,5.4-1.3,7.8-3.8c0,0,0.1-0.1,0.1-0.1
		c1.4,1.8,3.6,3.6,6.7,3.6c0.3,0,0.6,0,0.8,0c0.3,0,0.6,0,0.9,0c2.9,0,4.4,1.8,6.9,5.2c0.4,0.6,0.9,1.1,1.3,1.7
		c-1,0.4-2.2,1.2-3.3,2.5l-1.6,2l1.2,2.3c0.5,0.9,0.8,1.5-1.4,2.9c-2.5,1.7-4,4.2-4.1,6.9c-0.1,2.8,1.4,5.5,4,7.4
		c2.2,1.7,4.7,2.9,7.2,3.5c3.4,0.9,6.3,3.2,7.9,6.4l0.1,0.1l0.1,0.1c2.2,3.6,4.1,7.5,5.8,11.9c0.3,0.8,0.8,2.2,0.6,2.7l0,0.1l0,0.1
		c-1.4,3.2-1.5,6-0.3,8.4c0.6,1.3,1.6,2.3,2.8,3.2c-0.6,0.7-1.6,1.4-2.7,2.2c-0.4,0.3-0.9,0.6-1.3,1l-2.7,2.1l1.6,3
		c1.9,3.6,4.7,4.1,6.2,4.1c1.7,0,3.1-0.6,4.3-1.2c0.4-0.2,0.9-0.3,1.6-0.3c0.7,0,1.4,0.1,2.2,0.1c0.9,0.1,1.9,0.2,3,0.2
		c1.9,0,3.7-0.4,5.2-1.1c1.4,0.9,2.9,1.3,4.4,1.3c4.1,0,6.7-3.4,7.8-4.9c2.5-3.3,4.8-6.9,7-10.3l0.7-1.2c4.1-6.4,3.2-11.1-2.8-15.5
		c-1-0.7-1.7-2-2.6-3.5c-1.3-2.2-3-5-6.1-6.7c2.9-5.9,2.3-12.1,1.8-17.6l-0.1-0.8c-0.5-5.2,0.8-7.1,5.6-8.6c2.9-0.9,6.3-2.4,7.9-5.6
		c1.6-3.3,0.6-6.9-0.7-10.3c-0.4-0.9-0.5-1.5-0.5-1.8c8.2-2.3,10.7-8.7,11.9-14c0.4-1.8,0.8-1.8,1.2-1.8c0.2,0,0.4,0,0.6,0.1
		c0.6,0.1,1.2,0.1,1.8,0.1c3.7,0,8-2.4,8-9.1c0-0.2,0-0.4,0-0.5c0-0.4,0-0.9,0-1.2c5-2.9,11.9-7.1,11.2-16c3-3.1,3.9-7,4.7-10.2
		c0.4-1.9,0.9-3.6,1.6-5c2.5-4.3,2.6-9.8,0.1-14.4l0,0l0,0c-1.1-1.9-1.4-4.1-0.9-6.3c1.4-5.8-0.5-10.7-5.5-14.1
		c-0.7-0.5-1-0.8-1.2-1c0.1-0.2,0.4-0.6,1-1.1c4.1-3.4,5.1-7.9,2.9-12.8l0,0l0,0c-0.1-0.2-0.2-0.3-0.2-0.5c2.2-2.2,5.3-3.6,9.2-4
		l0,0l0,0c0.1,0,0.1,0,0.1,0c0.3,0.4,0.7,1.4,1,2.1c0.3,0.7,0.6,1.3,0.9,2l0,0.1l0,0.1c0.2,0.3,0.4,0.7,0.5,1
		c0.2,0.4,0.4,0.8,0.7,1.2l0.1,0.1l0.1,0.1c0.8,1.2,2.9,4.5,6.9,4.5c0.3,0,0.5,0,0.8,0l0,0l0,0c1.8-0.2,3.1-1,4-1.9
		c0.1,7.5,2.8,14.7,7.7,20.4c1.2,1.5,0.9,2.1,0.5,2.6c-1.8,2.8-1.6,5.1-1.1,6.5c0.5,1.4,1.9,3.4,5.3,4.3c1.3,0.4,1.9,0.5,2.1,3.4
		c0.4,8.1,4.2,13.2,10.4,13.7l0.1,0l0.1,0c5.8,0.3,11.4,1.2,16.7,2.7c0.8,0.2,1.5,0.3,2.3,0.3c1.3,0,2.6-0.3,3.8-0.8l0.2-0.1
		l0.2-0.1c0.4-0.2,0.6-0.3,0.6-0.3c0,0,0.3,0,1,0.5c1.7,1.1,3.5,1.7,5.1,1.7c1.5,0,6.4-0.6,7.6-7.8l0-0.1l0-0.1
		c0.1-1,0.2-2.1,0.2-3.2c0.3-3.1,0.8-4.4,1.2-4.9c0.2-0.3,0.3-0.4,1-0.4c0.7,0,1.9,0.2,4.1,1c2,0.8,3.8,1.1,5.6,1.1
		c4.3,0,8.1-2.1,11.6-6.6c2.3-2.9,3.9-2.9,4.4-2.9c1,0,2.3,0.5,3.7,1.4c1.7,1.1,3.5,2.2,5.7,2.2c1.3,0,2.8-0.4,4.2-1.6
		c1.1,0.8,2.2,1.5,3.3,2.1c-0.2,0.7-0.3,1.3-0.3,2c0.1,3.3,2.6,5.3,4,6.2c-0.6,4-0.9,7.1,0.8,9.6c1.9,2.8,5.3,3.5,8.6,4.2
		c1.8,0.4,2.7,0.6,3.2,0.8c-0.1,0.5-0.3,1.5-0.8,3.2c-1.5,5.3-0.2,9.9,3.7,12.5c1.4,1,3,1.5,4.7,1.5c3,0,5.4-1.6,7.3-3.2l0,0l0,0
		c1.7-1.5,2.7-2.2,4.1-2.3c5.3-0.2,8.6-0.4,11.4-2.5c2.7-2.2,3.7-5.4,5.1-10.5l0.5-1.7l-1-1.5c-1-1.5-2.3-2.5-3.3-3.3
		c-0.4-0.3-1-0.8-1.3-1.1l0,0c0.8-7.8-5.4-10.1-7.7-10.9l-0.1,0l-0.1,0c-1.3-0.4-2.4-0.9-3.5-1.6l-0.1,0l-0.1,0
		c-1.1-0.7-1.7-1.2-2-1.5c0.3-0.3,0.9-0.8,2-1.5l0,0l0,0c4.1-2.7,5.4-5.9,3.7-9.6c0.1,0,0.1-0.1,0.2-0.1c3.8-1.7,7.4-3.4,8.4-7
		c1-3.5-1-6.8-3.4-10.2l0-0.1l-0.1-0.1c-0.5-0.7-1.1-1.3-1.6-2c-0.5-0.6-1-1.3-1.5-1.9l0,0l0,0c-1.7-2.2-3.8-3.3-6-3.3
		c-1.7,0-3.3,0.6-5,1.8c-0.8,0.6-1.4,0.9-1.8,1c-0.1-0.4-0.2-1-0.3-2c-0.2-5.2-1.1-10.3-2.6-15.2c-1.4-4.8,0-10,3.7-13.2l0.1-0.1
		l0.1-0.1c2-1.9,5.2-5,5.7-9.7c4.9-0.3,8.9-2.7,11.7-7.1c0.2,0.1,0.4,0.2,0.5,0.3c0.3,0.1,0.6,0.3,0.8,0.4l1.6,0.7l1.6-0.6
		c1.7-0.7,2.8-1.8,3.6-2.6c0,0,0-0.1,0.1-0.1c0,0.1-0.1,0.3-0.1,0.4c-1.3,3.9-2.2,6.5-0.9,9.1c1.3,2.6,3.9,3.4,7.4,4.5l0.1,0l0.1,0
		c0.6,0.2,1.1,0.7,1.3,1.2l0,0.1l0,0.1c1.7,4.6,6.1,7.7,11.2,7.7c3.3,0,6.4-1.4,8.5-3.9l0,0l0,0c0.1-0.1,0.2-0.2,0.2-0.3
		c0,0,0.1,0,0.1,0.1c1.4,1.2,3,1.9,4.6,1.9c2,0,3.8-1,4.9-2.7c0.1-0.2,0.2-0.3,0.3-0.4c0.3,0.2,0.7,0.5,1.3,1.1c2,2,4.2,3,6.6,3
		c1.3,0,2.6-0.3,3.9-1c4.9-2.6,4.7-7.6,4.6-9.2c-0.2-3.8,0-6.8,1.5-9.6l0,0l0,0c1.6-3,1.2-5.3,0.6-6.8c-0.6-1.4-2-3.3-5.3-4.2
		c-0.3-0.1-0.5-0.2-0.8-0.2c-0.1,0-0.2,0-0.2-0.1c-0.9-5.3-4.5-5.9-6-5.9c-1.8,0-3.4,0.8-5.2,1.7c-1,0.5-1.5,0.5-1.7,0.5h0
		c-0.1-0.3-0.3-0.9-0.3-2.1c0.1-1.5,1-3,1.9-4.8c0.2-0.5,0.5-0.9,0.7-1.4l0,0l0,0l0.1-0.1c1.6-3.2,4-8.1,0.7-13.2l0,0l0,0
		c-0.1-0.2-0.2-0.4-0.3-0.5c0.1-0.1,0.4-0.3,0.7-0.6c5.2-3.3,7-8.7,4.4-13.4c-1.8-3.4-1.3-6,2-10.4c4.4-5.9,5.3-12.3,2.4-18.5
		c-0.9-1.9-0.6-3.6,1.2-6.9c1.7-3.1,3.3-6,2-9c-1.3-3-4.5-3.8-7.6-4.5c-7.5-1.8-9.5-3.7-9.6-8.9c0-5.2-3.8-8.7-9.6-8.7
		c-0.7,0-1.3,0-2,0.1c-2.3,0.3-9.3,1.3-10,9.6c-0.3,3-0.7,6.6-1.9,7.8c-1.2,1.1-4.7,1.3-7.9,1.4c-5.4,0-8.6,3-9,8.3
		c-0.2,1.4-0.1,2.7-0.1,3.8c0,0.3,0,0.6,0,1c-0.2,3.9-0.6,4.4-4.4,4.9l0,0l0,0l-0.3,0c-2,0.3-5.5,0.8-7.4,4.2
		c-1.4,2.4-3,2.7-7.3,2.8c-0.3-1.2-0.8-2.2-1.5-3.1c-1.5-1.8-3.7-2.9-6.7-3.2l0,0l0,0c-0.5,0-1.3-0.1-1.3-2.5
		c-0.1-5.3-3.5-7.7-6.7-7.7c-1.7,0-3.5,0.7-5.1,1.9l0,0l0,0c-0.6,0.5-1.6,1.1-2.3,1.1c-0.8,0-1.9-0.7-3.3-2.1
		c-2.5-2.4-5.1-3.6-7.9-3.6c-1.6,0-3.2,0.4-4.7,1.1c-0.1-0.4-0.2-0.7-0.4-1.1c-1.6-4.6-2-6.6,0.1-8.9l0.1-0.1l0-0.1
		c1.1-1.3,1.7-2.7,2.2-3.9c0.2-0.4,0.4-0.8,0.5-1.2l0.9-1.8L806,410c-0.6-1.2-1.4-2.1-2-2.7c-0.2-0.3-0.6-0.6-0.7-0.8
		c-0.6-4.5-3.4-10-12.9-10.6l0,0c-1.7-0.1-3.5-0.3-4.1-1c-3.3-3.9-7.5-4.4-11.1-4.4l-0.9,0c-4.9-0.1-9.2-0.1-13-2.5
		c-1.4-0.9-3-1.3-4.7-1.3c-2,0-4,0.7-5.6,1.9c-0.6,0.4-1.4,0.9-2.2,0.9c-1,0-2-0.9-2.8-1.7l-4.1-4.4l-2.4,5.5
		c-0.7,1.5-1.7,2.2-2.4,2.2c-0.2,0-0.4,0-0.5-0.2l0,0l0,0c-3.1-2-6.2-2.4-9-2.8c-1.3-0.2-2.6-0.4-3.7-0.7c2.1-1.9,4.2-5.3,2.3-10.6
		c-4.3-13.2-2.9-26.4,4.4-40.3c3.3-6.2,6-12.9,7.8-19.7c2-7.3,5.2-10.8,10.6-11.6l0,0l0,0c5.2-0.9,6.9-3.8,7.5-5.5
		c0.6-1.6,0.9-5-2.6-8.7c-2-2.1-2.4-4.2-1.6-7.8l0,0l0,0c0.7-3.3,1.4-6.7-0.6-9.3c-2-2.6-5.3-2.6-9.2-2.7c-0.2,0-0.4,0-0.6,0
		c-0.4,0-0.7,0-1.1,0c-0.3,0-0.5,0-0.8,0c-0.2,0-0.3,0-0.4,0c-0.5-1-1-1.9-1.5-2.8c-1.8-3.2-3.4-6-3.4-9c-0.1-5.6-2.9-10-8.1-13
		c-6.4-3.6-13.2-7.6-19.4-12.8c-3.1-2.6-6.9-4-10.9-4c-1,0-2.1,0.1-3.1,0.3c-0.8,0.1-1.4,0.2-2.1,0.2c-2,0-4.3-0.6-6.7-4.9l0-0.1
		l0-0.1c-1.3-2.1-2.8-4-4.7-5.7c-1.5-1.5-3.8-3.3-6.6-3.3c-1,0-1.9,0.2-2.8,0.6c-1.5,0.7-3.2,1-5.7,1c-0.9,0-1.8,0-2.7-0.1
		c-1,0-2-0.1-3-0.1c-0.9,0-1.7,0-2.5,0.1c0,0-0.1,0-0.1,0c-0.4,0-0.9-0.1-1.5-0.2c-0.9-0.2-1.9-0.4-3.1-0.4c-1.4,0-2.8,0.3-4,0.9
		c-0.4,0.2-0.6,0.2-0.7,0.2c-0.1,0-0.5-0.3-1-1.2c-1.4-2.5-3.6-6.6-8.5-7c-2.9-0.2-5.5-0.3-7.8-0.3c-10.8,0-19.2,2.2-26.4,7.1
		c-1.6,1.1-2.2,1.3-2.5,1.4c-0.1,0-0.2-0.1-0.5-0.4l-0.2-0.2c-2.7-2.6-2.6-2.8-1.9-4c1.8-3.2,2-6,0.6-8.3c-1.4-2.3-3.9-3.4-7.6-3.4
		c-0.1,0-0.3,0-0.4,0c0,0-0.1,0-0.1,0c-1.1-4.7-2.2-8.7-6.8-8.7c-1.9,0-3.7,0.8-6.6,2.1c-0.5-0.1-0.9-0.1-1.3-0.1
		c-2.2,0-6.1,0.9-7.3,7.1c-0.1,0.3-0.1,0.7-0.2,1c-0.4-0.8-0.6-1.6-0.6-2.3c0-0.8,0.3-1.4,0.9-2l0,0l0,0c1.5-1.5,4.1-4.1,4.1-8.7
		v-3.7l-3.7-0.3c-6.3-0.5-8-2.7-8.6-5.9c-0.3-1.5-1.2-2.4-1.6-2.9l0,0l-0.1-0.1l-0.1-0.2c-0.8-0.9-3.2-3.5-6.9-3.5
		c-0.5,0-1.1,0.1-1.6,0.2l-0.1,0l-0.1,0c-1.9,0.4-3.2,1.5-4,2.6c-0.6-1.1-1.6-2-3.3-2.8C541.8,173.4,540.7,173.1,539.6,173.1
		L539.6,173.1z M526.3,225.5c0.7-1,1.4-1,2.2-1c0.7,0,1.6,0.1,2.6,0.4c0.8,0.2,1.6,0.3,2.4,0.3c0.3,0,0.6,0,1,0
		c-0.3,0.9-0.6,1.9-0.8,2.9c-0.1,0.6-0.2,1-0.3,1.4c-0.4-0.2-0.9-0.5-1.6-1C529.8,227.2,528,226.2,526.3,225.5L526.3,225.5z"/>
</g>
</svg>
