<?xml version="1.0" encoding="utf-8"?>
<!-- Generator: Adobe Illustrator 24.3.0, SVG Export Plug-In . SVG Version: 6.00 Build 0)  -->
<svg version="1.1" id="Layer_1" xmlns="http://www.w3.org/2000/svg" xmlns:xlink="http://www.w3.org/1999/xlink" x="0px" y="0px"
	 viewBox="0 0 931.4 931.4" style="enable-background:new 0 0 931.4 931.4;" xml:space="preserve">
<style type="text/css">
	.st0{clip-path:url(#SVGID_2_);}
	.st1{fill:#FDBA0B;}
	.st2{fill:#006A42;}
	.st3{fill:#C22229;}
	.st4{fill:none;}
</style>
<g>
	<g>
		<defs>
			<path id="SVGID_1_" d="M71.3,439.5c-5.9,2.7-9.3,8.9-16,10c-2-2.4-3.5-5.6-1-7.5c4.9-3.6,2.1-7.5,0.4-10.1
				c-2.2-3.4-4.2-6.7-4-11.4c-3.2,1.2-4.5,4.8-7.9,2.4c4.8-11.4,9.6-23.2,6-36.2c-2.4-9.1-5.3-18-8.7-26.8c-1.8-4.7-2.2-10.1-5.6-14
				c-2.2,0.4-2.2,2-2.1,3.1c0.3,11.7-1.8,23.2-2.8,34.8c-0.2,3.4-0.9,6.8-2,10.1c-1.5,3.9-0.9,7,1.6,9.8c-3.1,7.4-8.4,13.5-8.5,21.7
				c0,1.5-0.2,3-1.8,3.9c-4,2.3-6.2,5.9-7.4,10.2c-0.5,1.8-1.5,2.6-3.3,2.2c-2.1-0.5-2.7-2.1-2.1-4c0.7-2.5,1.7-4.9,2.9-7.2
				c9.4-16.7,12.4-35.2,16.4-53.6c5.2-23.9,2.7-47.1-1.4-70.7c-3.1-17.4-5.4-35-1.6-52.8c1.7-8,1-16.4,0-24.6
				c-0.5-3.9,0.4-6.2,4.4-7.1c4.5-1,8.7-4.2,13.5-0.8c1.2,0.7,2.7,0.3,3.4-0.9c0.1-0.2,0.2-0.4,0.3-0.7c1.7-5.6,6.5-10.6,4.4-17.1
				c-1.1-3.6,0-5.8,3.7-6.9c2.5-0.9,4.5-2.8,5.5-5.3c3.3-7.3,9.2-11.3,16.6-13.2c5.6-1.2,10.2-5.3,12.1-10.7
				c1.3-3.2,2.8-6.1,7.4-5.4c2.1,0.3,3.6-2,4.9-3.8c4-5.3,9-6.7,14.7-3.5c6,3.4,10.1,2.6,14.6-2.7c3.7-4.4,9.7-6.4,13.4-11.1
				c0.4-0.6,1.8-1.1,2.2-0.9c6.9,4.4,12.1-2.8,18.4-2.7c2.6,0,2.9-2.2,3.6-3.9c2-4.9,3.9-10.1,11.1-7.3c0.9,0.1,1.7-0.1,2.5-0.5
				c9.7-4,18.5-2.7,26.4,4.5c1.2,1.1,2.8,1,4.3,0.6c4.3-1.1,8.1-1.6,12.2,1.4c2.7,2,5.9-1.4,9-2c3.6-0.6,6.8-0.7,10.1,0.6
				c5.5,2.1,11,3.8,17,3.7c3.7-0.1,6.3,2.1,8.7,4.9c5.5,6.3,8,6.6,14.4,1.8c2.6-2,5.3-1.6,8-1c5.1,1.1,10.3,1.2,15.4,0.1
				c4.2-1,7.6-2.1,8.5-7.3c0.4-2.5,2.3-6,6.4-4.8c5.2,1.5,8.4,5.3,7.7,10.5c-0.6,4,0.5,7.2,1.6,10.6c1.8,5.7,8,5.8,11.9,7.6
				c3.6,1.7,8.4-3.3,11.7-6.8c2.2-2.3-1.1-5.3,0-8.7c8.5-1.5,17.3-3.4,26.2-4.5c5.3-0.6,9.9,1.2,13.7,5.7c5.8,7,19,8.4,26.2,3.3
				s15.9-5.1,24.2-6.2c3-0.4,4.4,1.3,3.3,4.5c-1,2.8-2.3,5.6-0.2,9.1c7-7.7,14.9-6.5,23-2.9c1.8,0.7,3.8,1,5.7,0.8
				c5.8-0.6,10.8,0.5,12.4,6.8c2,8,11.1,8.2,15,14.4c1.4,2.2,6.3,2,8.8-0.6c3-3.3,6.8-4.6,10.6-6c2.4-0.9,4.4-1.4,6.1-4
				c2.1-3.1,5.9-2.3,8,0.9c1.7,2.6,2.9,4.8,6.5,3.5c1.1-0.3,2.3,0.1,2.9,1c4.5,5.7,9.2,4.1,14,0.6c1.6-1.1,3.3-2.5,5.1-2.8
				c5.8-0.8,9.1-3.2,8.1-9.7c-0.2-1.6,0.7-2.9,1.9-3.9c0.6-0.7,1.2-1.2,2-1.7c5.3-2,1.6-9.5,6.1-11.1c4.2-1.4,9.1-0.5,10-6.9
				c0.3-1.8,2.9-1.5,4.6-1.5c4,0,8,1,11-3.4c1.7-2.4,5,2.7,8-0.6c0.5-2.1-1.1-5.5,2.1-7.6c1.6-1,3-1.5,4.8-0.6s2.5,2.1,2,4.2
				c-1.7,6.5,2.9,11.1,6,15.5c2,2.9,3.9,5.5,3.2,8.6c-2.2,9.1,4.8,14.4,9.1,20.1c2.7,3.6,4.8,6.6,5.3,11c1.9,16.3,12,21.4,26.6,13.6
				c2.3,0.6,3,3,4.4,4.5c4,4.2,7.6,8.8,14.6,4.8c2.2-1.3,5.9-2.4,8,1.3c5.2-3.2,11.7,5.5,16.8-2c1.7-2.4,4.8-2.6,7.1,0.4
				c5.9,8,9.2,8.5,17.1,2.8c0.3-0.2,0.8,0,1.8,0c-0.5,4.9,5.1,8.7,1.9,14.2c-0.3,0.5,0.6,2.5,1.3,2.6c4.8,1.1,7.7,6.1,12.2,6.9
				c7.5,1.5,9.9,7,11.7,12.9c0.8,2.7,1.9,4.1,4.5,4.6c6.4,1.1,11.7,4.8,17.4,7.4c6.7,3,8.7,8,11.9,13c4.3,6.7,8.2,13.4,16.7,16.2
				c5.4,1.8,7.9,6.8,9.2,13c1.9,9.3,5.6,18.3,16,21.8c0.6,0.2,1.5,0.4,1.7,0.9c5,12.5,19.8,7.8,27.8,15.8c2.9,2.9,10.3,1.2,16.2,1.7
				c0.8,8.9,2.2,17.8,0.6,26.4c-1,5.9-5.5,11-11,14c-4.4,2.4-5.7,5.3-3.4,9.4c4.4,7.8,1,16.3,2.8,24.3c1.3,6.1-4,8-7.6,9.5
				c-4.1,1.7-6.1,4.8-9.6,8.5c8.6,2,16.3,3.7,24,5.4c1.2,0.3,1.7-1.2,2.5-1.6c4.6-2.5,9.1-4.7,13.9-0.2c2.2,2,5.3,1.5,8.1,1.5
				c4.7-0.1,9.4,0.2,11.4,5.3c2.3,6.1-2.6,8.3-6.4,11c-1.8,1.2-3.7,2.2-5.6,3.2s-3.6,2.2-3.5,4.3c0.3,5.9-1.7,10-7.8,10.3
				c-1,4.2,3.3,4.4,3.9,6.8c-7,7.4-16.5,5.5-25,7.5c-0.4,0-0.9,0-1.3-0.2c-7.5-2.2-7.5-2.2-11.9,5c-4-3.9-10.6,0.2-14.6-4.8
				c-0.4-0.6-2.6-0.6-3-0.1c-4.7,5.5-12.8,5.4-17.5,10.4c-0.1,3,2.2,4.1,3.3,5.8c0.8,1.3,2,2.9,1,4.1c-4.7,5.4-5.8,12.2-8.4,18.5
				c-1.6,4-6,4.4-9.4,4.7c-5.3,0.5-8,4.1-11,7.5c-3.6,3.9-7,7.3-12.3,2.7c-0.3-0.3-0.7-0.5-1.1-0.7c-3.2-1.4-21.7,7.5-22.2,10.9
				c-0.6,3.7-2.4,7-5.1,9.5c-3.5,3.5-7.6,6.6-7.3,12.3c0,1.4-1.2,2-2.4,2.8c-3.2,2.2-4,5.5-3.1,9.1c2.3,9.3,1.7,18.5-0.7,27.5
				c-0.6,2.3,0.1,4.2,0.6,6.3c1,4.2,2.3,8.3,3.1,12.6c1.5,8.1,0.1,15.1-7.8,19.4c-4.1,2.2-5.8,6.1-7.3,10.3
				c-1.3,3.8-1.7,8.2-5.9,10.4c-1.6,0.8-1,1.8-0.4,3.2c3.8,8.6-1.3,15.6-6,21.3c-2.8,3.3-3.1,7.8-6.8,10.6c3.8,4.8,8.9,6.4,14.4,4.8
				c9.3-2.7,12.9,3.5,11.7,10.8c6.7,0.3,7.8,6.6,11.6,10.6c-8.4,7.1,4.1,13.3-0.7,20.7c-2.7,0.1-6.5,2.9-10.2-1.1
				c-3.3,4-6.1,7.8-11.4,9.1c-4.1-7.3-17.8-0.4-19.2-13.3c2.5-3.4,10.2-5.1,6-12c1.1-2.5,3.6,0.2,4.6-1.9
				c-2.2-7.3-7.9-12.5-12.1-18.5c-8.4,2-16.5,5.9-24.4,10.4c-4,2.2-8.4,1.4-12.6-1.6c-1.2,3.7-3.2,5.3-7.2,2.2
				c-2.8,13.8-13.7,20.9-21.5,30.3c-3.6,4.3-13.8,4.2-16.2-0.7c-2.9-5.8-6.5-4.5-10.7-2.9c-2.2,0.8-4.2,2.2-6.4,3.1
				s-4.5,1.4-6.9,2.1c0.5,5.7-4,6.4-8,7.1c-1,3.2,1,4.8,2.5,6.6c1.2,1.5,3.3,3,3.4,4.6c0.4,6,0.9,11.5,10.3,9.8
				c-6.9,2.3-6.8,11.6-14.6,11c-6.5-0.5-6.6,11.6-15.1,7.7c-2.2-4.2,3.8-8.6-0.3-13c-13.6,2.3-24,9.7-31,21.2
				c-5.2,8.5-12.5,10.6-21.3,10c-6.6-0.4-9.3-6.1-13.3-10.1c-1.2-1.2-1.8-3.7-3.8-2.9c-5.2,2.1-5.5-2.4-7.9-5.6
				c-4.8,3.2-10.7,3.2-15.8,7.1c-4.8,3.7-11.9,3.4-18.1,4.1c-2.1,0.2-3.1-1.4-3.1-3.3c-0.1-4.5-2.8-6.5-7.3-7.1
				c-2,4.4-4.8,6.4-10,3.8c-3.1-1.6-7.3,3-6.9,7.1c0.2,2.1,1.9,4.4-1.1,5.6c-3.5,1.4-3.5-2.1-4.8-3.8c-3.2-3.9-6.8-6.6-12.2-4.7
				c-4,1.4-8.8-1-12.1,3.5c-2.9-3.4-5.6-5.1-9.6-5.5c-8.2-0.9-12.9-12.4-7.9-18.6c4.3-5.5,4.6-11.5,2.3-17.8
				c-2.1-5.7-4.6-11.1-4.5-17.4c0-3.8-3-6.8-6-7.8c-4.1-1.4-5.7-4.3-7.4-7.5c-4.5-8.2-10.3-14.6-20.7-14.6c-4,0.2-7.7-2.2-9.2-5.9
				c-2.1-4.5-9.3-3-10.2-9.2c-5.3,1.8-10.4,5.6-15.4-0.7c2.2-4.4,0.7-7.9-4.4-10c-1.1-0.5-2.8-1.4-3-2.4c-2.8-12.9-15-7.5-22.3-11.4
				c-2.7-1.5-3.9,2.4-4.8,4.8s-2.2,5.2-5.2,5s-3.9-3.2-4.6-5.6c-1.8-6.2-2.8-12.7-8.8-16.8c-1.5-1-1.2-3.1-1.4-4.8
				c-0.6-5.1,0.2-10.4-2.6-15.2c-0.5-1-0.5-2.1,0-3c3.1-4,4.6-7.8,1.5-12.8c-1.6-2.6,2.5-4.1,3.8-6.1c4.2-6.2,4.6-12.5,2.5-19.7
				s2.9-16.4,9.8-19c2.2-0.8,1.4-3.2,2.8-3.9s3.3-0.8,5.3-1.2c0.8-2.3,1.4-4.8,3.3-7.2c4.3-5.4-0.1-11-2.3-16.1
				c-0.9-2-1.7-3.5-1.2-5.8c1.4-6.5-1.1-9-7.9-7.9c-2.9-3.3-6.6-6.3-8.7-10.2c-2.4-4.6-6-8.4-10.5-11l-3.2,5.2
				c-1.7-9-10.2-13.8-9.6-23.2c0.4-5.6-4.5-6-7.6-3.6c-9.7,7.8-19.4,4.6-29.4,1.5c-10.1-3.2-20.2,0-30.2,0.3c-2.1,0.1-3.5,2-4.1,3.7
				c-1.4,3.7-3.8,5.1-7.6,4.2c-4.1-1.1-7.9-2.5-8.3-7.7c-0.1-1.3-0.3-2.6-0.2-3.9c0.1-4.5-2.6-5.4-5.9-3.9
				c-9.7,4.5-16.9-0.9-24.3-5.6c-1.1-0.7-1.9-2.4-2.9-2.5c-11.3-0.6-16.8-9.9-24.7-15.7c-5.9-4.3-13-9.5-21.8-4.6
				c-3.6,2-10.2-4.3-12.4-11C79.3,449.9,75.9,444.2,71.3,439.5z"/>
		</defs>
		<clipPath id="SVGID_2_">
			<use xlink:href="#SVGID_1_"  style="overflow:visible;"/>
		</clipPath>
		<g class="st0">
			<rect x="-114.4" y="116.1" class="st1" width="1072.3" height="235.7"/>
			<rect x="-114.4" y="351.8" class="st2" width="1072.3" height="235.7"/>
			<rect x="-114.4" y="587.4" class="st3" width="1072.3" height="235.7"/>
		</g>
	</g>
</g>
<rect class="st4" width="931.4" height="931.4"/>
<g>
	<path d="M620.8,116.1c0.6,0,1.2,0.1,1.8,0.5c1.8,0.9,2.5,2.1,2,4.2c-1.7,6.5,2.9,11.1,6,15.5c2,2.9,3.9,5.5,3.2,8.6
		c-2.2,9.1,4.8,14.4,9.1,20.1c2.7,3.6,4.8,6.6,5.3,11c1.3,11.3,6.5,17.2,14.5,17.2c3.5,0,7.6-1.2,12.1-3.6c2.3,0.6,3,3,4.4,4.5
		c2.9,3.1,5.6,6.3,9.6,6.3c1.5,0,3.1-0.5,5-1.5c1.1-0.6,2.5-1.2,3.9-1.2c1.5,0,3,0.6,4.1,2.5c0.9-0.5,1.8-0.7,2.7-0.7
		c2.8,0,5.9,1.9,8.8,1.9c1.8,0,3.6-0.7,5.2-3.1c0.8-1.2,2-1.8,3.3-1.8c1.3,0,2.7,0.7,3.8,2.2c3.3,4.5,5.8,6.6,8.7,6.6
		c2.3,0,4.9-1.3,8.4-3.8c0.1-0.1,0.2-0.1,0.4-0.1c0.3,0,0.8,0.1,1.4,0.1c-0.5,4.9,5.1,8.7,1.9,14.2c-0.3,0.5,0.6,2.5,1.3,2.6
		c4.8,1.1,7.7,6.1,12.2,6.9c7.5,1.5,9.9,7,11.7,12.9c0.8,2.7,1.9,4.1,4.5,4.6c6.4,1.1,11.7,4.8,17.4,7.4c6.7,3,8.7,8,11.9,13
		c4.3,6.7,8.2,13.4,16.7,16.2c5.4,1.8,7.9,6.8,9.2,13c1.9,9.3,5.6,18.3,16,21.8c0.6,0.2,1.5,0.4,1.7,0.9c5,12.5,19.8,7.8,27.8,15.8
		c1.4,1.5,4,1.8,7,1.8c2.1,0,4.4-0.1,6.5-0.1c0.9,0,1.8,0,2.7,0.1c0.8,8.9,2.2,17.8,0.6,26.4c-1,5.9-5.5,11-11,14
		c-4.4,2.4-5.7,5.3-3.4,9.4c4.4,7.8,1,16.3,2.8,24.3c1.3,6.1-4,8-7.6,9.5c-4.1,1.7-6.1,4.8-9.6,8.5c8.6,2,16.3,3.7,24,5.4
		c0.1,0,0.2,0,0.3,0c1,0,1.5-1.3,2.2-1.6c2.7-1.4,5.3-2.8,8-2.8c1.9,0,3.9,0.7,5.9,2.6c1.5,1.3,3.3,1.6,5.2,1.6c1,0,1.9-0.1,2.9-0.1
		c0.4,0,0.8,0,1.2,0c4.3,0,8.4,0.6,10.2,5.3c2.3,6.1-2.6,8.3-6.4,11c-1.8,1.2-3.7,2.2-5.6,3.2s-3.6,2.2-3.5,4.3
		c0.3,5.9-1.7,10-7.8,10.3c-1,4.2,3.3,4.4,3.9,6.8c-7,7.4-16.5,5.5-25,7.5c-0.4,0-0.9,0-1.3-0.2c-2.7-0.8-4.4-1.3-5.7-1.3
		c-2.4,0-3.4,1.7-6.2,6.3c-4-3.9-10.6,0.2-14.6-4.8c-0.2-0.3-0.9-0.5-1.6-0.5c-0.6,0-1.2,0.1-1.4,0.4c-4.7,5.5-12.8,5.4-17.5,10.4
		c-0.1,3,2.2,4.1,3.3,5.8c0.8,1.3,2,2.9,1,4.1c-4.7,5.4-5.8,12.2-8.4,18.5c-1.6,4-6,4.4-9.4,4.7c-5.3,0.5-8,4.1-11,7.5
		c-2.4,2.6-4.6,4.9-7.4,4.9c-1.5,0-3-0.6-4.9-2.2c-0.3-0.3-0.7-0.5-1.1-0.7c-0.2-0.1-0.5-0.1-0.9-0.1c-4.9,0-20.8,7.9-21.3,11
		c-0.6,3.7-2.4,7-5.1,9.5c-3.5,3.5-7.6,6.6-7.3,12.3c0,1.4-1.2,2-2.4,2.8c-3.2,2.2-4,5.5-3.1,9.1c2.3,9.3,1.7,18.5-0.7,27.5
		c-0.6,2.3,0.1,4.2,0.6,6.3c1,4.2,2.3,8.3,3.1,12.6c1.5,8.1,0.1,15.1-7.8,19.4c-4.1,2.2-5.8,6.1-7.3,10.3c-1.3,3.8-1.7,8.2-5.9,10.4
		c-1.6,0.8-1,1.8-0.4,3.2c3.8,8.6-1.3,15.6-6,21.3c-2.8,3.3-3.1,7.8-6.8,10.6c2.9,3.6,6.4,5.4,10.4,5.4c1.3,0,2.7-0.2,4-0.6
		c1.5-0.4,2.9-0.6,4.1-0.6c6.2,0,8.6,5.3,7.6,11.4c6.7,0.3,7.8,6.6,11.6,10.6c-8.4,7.1,4.1,13.3-0.7,20.7c-1.6,0.1-3.5,1-5.6,1
		c-1.5,0-3-0.5-4.6-2.1c-3.3,4-6.1,7.8-11.4,9.1c-4.1-7.3-17.8-0.4-19.2-13.3c2.5-3.4,10.2-5.1,6-12c0.4-0.9,1-1.1,1.7-1.1
		c0.5,0,1,0.1,1.5,0.1c0.6,0,1.1-0.2,1.4-0.9c-2.2-7.3-7.9-12.5-12.1-18.5c-8.4,2-16.5,5.9-24.4,10.4c-1.5,0.9-3.2,1.3-4.8,1.3
		c-2.6,0-5.2-1-7.8-2.9c-0.8,2.3-1.8,3.8-3.5,3.8c-1,0-2.2-0.5-3.7-1.6c-2.8,13.8-13.7,20.9-21.5,30.3c-1.7,2.1-5,3.1-8.1,3.1
		c-3.5,0-6.8-1.2-8.1-3.8c-1.6-3.2-3.4-4.3-5.5-4.3c-1.6,0-3.4,0.6-5.2,1.4c-2.2,0.8-4.2,2.2-6.4,3.1c-2.2,0.9-4.5,1.4-6.9,2.1
		c0.5,5.7-4,6.4-8,7.1c-1,3.2,1,4.8,2.5,6.6c1.2,1.5,3.3,3,3.4,4.6c0.3,5.2,0.8,10.1,7.2,10.1c0.9,0,2-0.1,3.1-0.3
		c-6.7,2.2-6.8,11-13.9,11c-0.2,0-0.5,0-0.7,0c-0.1,0-0.3,0-0.4,0c-5.3,0-6.2,8.5-11.6,8.5c-0.9,0-1.9-0.2-3.1-0.8
		c-2.2-4.2,3.8-8.6-0.3-13c-13.6,2.3-24,9.7-31,21.2c-4.7,7.6-11,10.1-18.6,10.1c-0.9,0-1.8,0-2.7-0.1c-6.6-0.4-9.3-6.1-13.3-10.1
		c-1-1-1.6-3.1-3.1-3.1c-0.2,0-0.5,0-0.7,0.2c-0.9,0.4-1.7,0.5-2.4,0.5c-3,0-3.6-3.5-5.5-6.1c-4.8,3.2-10.7,3.2-15.8,7.1
		c-4.8,3.7-11.9,3.4-18.1,4.1c-0.1,0-0.2,0-0.3,0c-1.9,0-2.8-1.5-2.8-3.3c-0.1-4.5-2.8-6.5-7.3-7.1c-1.4,3.1-3.2,5-5.9,5
		c-1.2,0-2.5-0.4-4.1-1.2c-0.4-0.2-0.9-0.3-1.3-0.3c-2.8,0-5.9,3.9-5.6,7.4c0.2,2.1,1.9,4.4-1.1,5.6c-0.6,0.2-1,0.3-1.4,0.3
		c-2.1,0-2.3-2.7-3.4-4.1c-2.5-3-5.2-5.3-8.8-5.3c-1,0-2.2,0.2-3.4,0.6c-4,1.4-8.8-1-12.1,3.5c-2.9-3.4-5.6-5.1-9.6-5.5
		c-8.2-0.9-12.9-12.4-7.9-18.6c4.3-5.5,4.6-11.5,2.3-17.8c-2.1-5.7-4.6-11.1-4.5-17.4c0-3.8-3-6.8-6-7.8c-4.1-1.4-5.7-4.3-7.4-7.5
		c-4.5-8.2-10.3-14.6-20.7-14.6c-0.2,0-0.3,0-0.5,0c-3.8,0-7.3-2.4-8.7-5.9c-2.1-4.5-9.3-3-10.2-9.2c-3.1,1.1-6.1,2.8-9.1,2.8
		c-2.1,0-4.2-0.9-6.3-3.5c2.2-4.4,0.7-7.9-4.4-10c-1.1-0.5-2.8-1.4-3-2.4c-2.8-12.9-15-7.5-22.3-11.4c-0.4-0.2-0.8-0.3-1.1-0.3
		c-1.9,0-2.9,3.1-3.7,5.1c-0.9,2.3-2.1,5-4.9,5c-0.1,0-0.2,0-0.3,0c-3-0.2-3.9-3.2-4.6-5.6c-1.8-6.2-2.8-12.7-8.8-16.8
		c-1.5-1-1.2-3.1-1.4-4.8c-0.6-5.1,0.2-10.4-2.6-15.2c-0.5-1-0.5-2.1,0-3c3.1-4,4.6-7.8,1.5-12.8c-1.6-2.6,2.5-4.1,3.8-6.1
		c4.2-6.2,4.6-12.5,2.5-19.7c-2.1-7.2,2.9-16.4,9.8-19c2.2-0.8,1.4-3.2,2.8-3.9c1.4-0.7,3.3-0.8,5.3-1.2c0.8-2.3,1.4-4.8,3.3-7.2
		c4.3-5.4-0.1-11-2.3-16.1c-0.9-2-1.7-3.5-1.2-5.8c1.2-5.5-0.4-8.2-5.1-8.2c-0.8,0-1.8,0.1-2.8,0.3c-2.9-3.3-6.6-6.3-8.7-10.2
		c-2.4-4.6-6-8.4-10.5-11l-3.2,5.2c-1.7-9-10.2-13.8-9.6-23.2c0.3-3.5-1.6-5-3.8-5c-1.3,0-2.7,0.5-3.8,1.4c-4.5,3.6-9,4.9-13.5,4.9
		c-5.2,0-10.5-1.7-15.9-3.4c-3.3-1.1-6.6-1.4-9.9-1.4c-6.8,0-13.5,1.5-20.3,1.7c-2.1,0.1-3.5,2-4.1,3.7c-1.1,3-2.9,4.5-5.5,4.5
		c-0.6,0-1.3-0.1-2.1-0.3c-4.1-1.1-7.9-2.5-8.3-7.7c-0.1-1.3-0.3-2.6-0.2-3.9c0.1-3.2-1.3-4.6-3.2-4.6c-0.8,0-1.7,0.2-2.7,0.7
		c-2.6,1.2-5,1.7-7.2,1.7c-6.3,0-11.6-3.8-17.1-7.3c-1.1-0.7-1.9-2.4-2.9-2.5c-11.3-0.6-16.8-9.9-24.7-15.7c-4.2-3.1-9-6.6-14.6-6.6
		c-2.3,0-4.7,0.6-7.2,2c-0.5,0.3-1,0.4-1.5,0.4c-3.7,0-9-5.5-10.9-11.4c-2.3-5.9-5.7-11.6-10.3-16.3c-5.9,2.7-9.3,8.9-16,10
		c-2-2.4-3.5-5.6-1-7.5c4.9-3.6,2.1-7.5,0.4-10.1c-2.2-3.4-4.2-6.7-4-11.4c-2.4,0.9-3.8,3.2-5.8,3.2c-0.6,0-1.3-0.2-2.1-0.8
		c4.8-11.4,9.6-23.2,6-36.2c-2.4-9.1-5.3-18-8.7-26.8c-1.8-4.7-2.2-10.1-5.6-14c-2.2,0.4-2.2,2-2.1,3.1c0.3,11.7-1.8,23.2-2.8,34.8
		c-0.2,3.4-0.9,6.8-2,10.1c-1.5,3.9-0.9,7,1.6,9.8c-3.1,7.4-8.4,13.5-8.5,21.7c0,1.5-0.2,3-1.8,3.9c-4,2.3-6.2,5.9-7.4,10.2
		c-0.4,1.5-1.2,2.3-2.5,2.3c-0.3,0-0.5,0-0.8-0.1c-2.1-0.5-2.7-2.1-2.1-4c0.7-2.5,1.7-4.9,2.9-7.2c9.4-16.7,12.4-35.2,16.4-53.6
		c5.2-23.9,2.7-47.1-1.4-70.7c-3.1-17.4-5.4-35-1.6-52.8c1.7-8,1-16.4,0-24.6c-0.5-3.9,0.4-6.2,4.4-7.1c3-0.7,5.9-2.3,8.9-2.3
		c1.5,0,3,0.4,4.6,1.5c0.4,0.2,0.8,0.3,1.3,0.3c0.9,0,1.7-0.4,2.1-1.2c0.1-0.2,0.2-0.4,0.3-0.7c1.7-5.6,6.5-10.6,4.4-17.1
		c-1.1-3.6,0-5.8,3.7-6.9c2.5-0.9,4.5-2.8,5.5-5.3c3.3-7.3,9.2-11.3,16.6-13.2c5.6-1.2,10.2-5.3,12.1-10.7c1.2-2.9,2.5-5.5,6.1-5.5
		c0.4,0,0.8,0,1.3,0.1c0.1,0,0.2,0,0.4,0c1.9,0,3.3-2.1,4.5-3.8c2.6-3.4,5.6-5.2,8.9-5.2c1.8,0,3.8,0.6,5.8,1.7c2.4,1.4,4.5,2,6.4,2
		c2.9,0,5.5-1.6,8.2-4.7c3.7-4.4,9.7-6.4,13.4-11.1c0.3-0.5,1.4-0.9,2-0.9c0.1,0,0.2,0,0.2,0c1.6,1,3.1,1.4,4.6,1.4
		c4.7,0,8.9-4.1,13.7-4.1c0,0,0.1,0,0.1,0c2.6,0,2.9-2.2,3.6-3.9c1.6-3.9,3.2-8.1,7.5-8.1c1,0,2.2,0.2,3.6,0.8c0.2,0,0.3,0,0.5,0
		c0.7,0,1.4-0.2,2-0.5c3.6-1.5,7-2.2,10.4-2.2c5.7,0,11,2.2,16,6.7c0.7,0.6,1.5,0.9,2.4,0.9c0.6,0,1.3-0.1,1.9-0.3
		c1.9-0.5,3.7-0.9,5.5-0.9c2.2,0,4.4,0.6,6.7,2.3c0.6,0.4,1.2,0.6,1.9,0.6c2.2,0,4.7-2.2,7.1-2.6c1.6-0.3,3-0.4,4.5-0.4
		c1.9,0,3.7,0.3,5.6,1c5.3,2,10.7,3.7,16.5,3.7c0.2,0,0.3,0,0.5,0c0.1,0,0.2,0,0.2,0c3.6,0,6.1,2.2,8.5,4.9c3,3.4,5.1,5.1,7.5,5.1
		c1.9,0,4-1.1,6.9-3.3c1.5-1.1,2.9-1.5,4.5-1.5c1.2,0,2.4,0.2,3.5,0.5c2.7,0.6,5.4,0.9,8.1,0.9c2.5,0,4.9-0.3,7.3-0.8
		c4.2-1,7.6-2.1,8.5-7.3c0.3-2.2,1.8-5,4.8-5c0.5,0,1,0.1,1.6,0.2c5.2,1.5,8.4,5.3,7.7,10.5c-0.6,4,0.5,7.2,1.6,10.6
		c1.8,5.7,8,5.8,11.9,7.6c0.5,0.2,1,0.3,1.6,0.3c3.3,0,7.3-4.1,10.1-7.1c2.2-2.3-1.1-5.3,0-8.7c8.5-1.5,17.3-3.4,26.2-4.5
		c0.7-0.1,1.3-0.1,1.9-0.1c4.5,0,8.4,1.9,11.8,5.8c3.5,4.2,9.6,6.4,15.4,6.4c4,0,7.9-1,10.8-3.1c7.2-5.1,15.9-5.1,24.2-6.2
		c0.3,0,0.6-0.1,0.8-0.1c2.4,0,3.5,1.7,2.5,4.6c-1,2.8-2.3,5.6-0.2,9.1c3.8-4.1,7.8-5.7,12-5.7c3.6,0,7.3,1.2,11,2.8
		c1.4,0.6,3,0.9,4.5,0.9c0.4,0,0.8,0,1.2-0.1c0.9-0.1,1.8-0.1,2.6-0.1c4.7,0,8.5,1.6,9.8,6.9c2,8,11.1,8.2,15,14.4
		c0.6,1,2,1.5,3.6,1.5c1.8,0,3.9-0.7,5.2-2.1c3-3.3,6.8-4.6,10.6-6c2.4-0.9,4.4-1.4,6.1-4c0.9-1.3,2.1-2,3.4-2c1.7,0,3.4,1,4.6,2.9
		c1.4,2.1,2.4,3.9,4.6,3.9c0.6,0,1.2-0.1,1.9-0.4c0.2-0.1,0.5-0.1,0.7-0.1c0.9,0,1.7,0.4,2.2,1.1c2.1,2.7,4.3,3.8,6.5,3.8
		c2.5,0,5-1.3,7.5-3.2c1.6-1.1,3.3-2.5,5.1-2.8c5.8-0.8,9.1-3.2,8.1-9.7c-0.2-1.6,0.7-2.9,1.9-3.9c0.6-0.7,1.2-1.2,2-1.7
		c5.3-2,1.6-9.5,6.1-11.1c4.2-1.4,9.1-0.5,10-6.9c0.2-1.4,1.7-1.5,3.2-1.5c0.5,0,1,0,1.4,0c1.2,0,2.5,0.1,3.7,0.1
		c2.7,0,5.2-0.5,7.3-3.5c0.3-0.5,0.8-0.7,1.2-0.7c1.2,0,2.8,1.2,4.4,1.2c0.8,0,1.6-0.3,2.4-1.1c0.5-2.1-1.1-5.5,2.1-7.6
		C618.8,116.6,619.8,116.1,620.8,116.1 M620.8,112.1c-2.1,0-3.8,0.9-5.1,1.7l0,0l0,0c-3.3,2.2-3.8,5.3-3.9,7.5
		c-0.8-0.3-1.7-0.6-2.8-0.6c-1.8,0-3.4,0.8-4.5,2.4l0,0l0,0c-0.9,1.4-1.8,1.8-4,1.8c-0.5,0-1.1,0-1.7,0c-0.7,0-1.3-0.1-2-0.1
		c-0.2,0-0.4,0-0.6,0c-0.3,0-0.5,0-0.8,0c-5.5,0-6.8,3-7.2,4.9l0,0.1l0,0.1c-0.3,2-0.5,2.1-3.8,2.8c-1.1,0.2-2.2,0.4-3.5,0.9l0,0
		l0,0c-4.5,1.6-5,5.8-5.3,8.4c-0.3,2.3-0.5,2.6-0.8,2.7l-0.4,0.1l-0.3,0.2c-1.1,0.7-1.9,1.4-2.7,2.2c-3.1,2.7-3.2,5.7-3.1,7.2l0,0.1
		l0,0.1c0.2,1.2,0.3,2.7-0.3,3.5c-0.4,0.5-1.5,1.2-4.4,1.6l-0.1,0l-0.1,0c-2.4,0.4-4.4,1.8-6,2.9c-0.2,0.2-0.5,0.4-0.7,0.5l0,0l0,0
		c-2.2,1.6-3.9,2.4-5.1,2.4c-0.4,0-1.6,0-3.3-2.2c-1.2-1.7-3.2-2.7-5.4-2.7c-0.6,0-1.2,0.1-1.8,0.2l-0.2,0l-0.2,0.1
		c-0.2,0.1-0.3,0.1-0.4,0.1c-0.3-0.3-0.8-1.1-1.2-1.7l-0.3-0.4c-1.9-2.9-4.9-4.7-7.9-4.7c-2.7,0-5.1,1.4-6.7,3.7l0,0l0,0
		c-0.8,1.2-1.4,1.4-3.4,2.2c-0.3,0.1-0.5,0.2-0.8,0.3l-0.5,0.2c-3.8,1.4-8.1,3-11.7,6.8c-0.5,0.5-1.5,0.9-2.3,0.9
		c-0.2,0-0.3,0-0.4,0c-2.2-3.2-5.3-5.1-8-6.7c-3.5-2.1-5.5-3.4-6.2-6.1c-1.2-4.6-4.5-10-13.7-10c-0.9,0-1.9,0.1-3,0.2
		c-0.3,0-0.5,0-0.8,0c-1,0-2-0.2-3-0.6c-4.8-2.1-8.8-3.1-12.5-3.1c-2.8,0-5.5,0.6-7.9,1.7c1.1-3.4,0.3-5.7-0.7-7
		c-1.2-1.7-3.2-2.7-5.7-2.7c-0.4,0-0.9,0-1.4,0.1c-1.4,0.2-2.9,0.4-4.4,0.5c-7.3,0.8-14.8,1.6-21.6,6.4c-2.1,1.5-5.1,2.3-8.5,2.3
		c-5,0-9.9-1.9-12.4-4.9c-4.1-4.8-9.1-7.3-14.8-7.3c-0.8,0-1.6,0-2.4,0.1c-6.4,0.8-12.8,2-18.9,3.1c-2.5,0.5-5.1,1-7.6,1.4l-2.4,0.4
		l-0.7,2.3c-0.9,2.7-0.2,5.1,0.3,6.7c0.1,0.3,0.2,0.6,0.2,0.9c-3.4,3.6-5.7,5.4-6.8,5.5c-1.3-0.6-2.5-1-3.8-1.3
		c-3.6-1.1-5.3-1.8-5.9-3.8l-0.1-0.4c-1-3.1-1.8-5.5-1.3-8.4l0,0l0,0c0.9-6.9-3.2-12.8-10.6-14.9c-0.9-0.3-1.8-0.4-2.7-0.4
		c-5.1,0-8.1,4.2-8.8,8.4c-0.4,2.4-1.3,3.1-5.4,4.1c-2.1,0.5-4.3,0.7-6.5,0.7c-2.4,0-4.8-0.3-7.2-0.8c-1.3-0.3-2.8-0.6-4.4-0.6
		c-2.6,0-4.9,0.8-6.9,2.3c-2.2,1.6-3.7,2.5-4.5,2.5c-0.8,0-2.3-1.3-4.5-3.7c-2.5-2.9-6.1-6.3-11.5-6.3c-0.1,0-0.2,0-0.4,0
		c-0.1,0-0.2,0-0.4,0c-5.3,0-10.4-1.7-15.1-3.4c-2.2-0.9-4.5-1.3-7-1.3c-1.5,0-3.2,0.2-5.1,0.5l-0.1,0l-0.1,0c-1.6,0.3-3,1-4.3,1.7
		c-0.6,0.3-1.4,0.7-1.9,0.8c-2.7-1.9-5.6-2.8-8.8-2.8c-2.3,0-4.6,0.5-6.5,1c-0.4,0.1-0.7,0.1-0.8,0.2c-5.6-5.1-11.8-7.6-18.5-7.6
		c-3.8,0-7.8,0.9-11.9,2.5l-0.1,0.1l-0.1,0.1c0,0-0.1,0-0.1,0c-1.5-0.5-2.9-0.8-4.3-0.8c-6.9,0-9.4,6.1-11,10.2l-0.1,0.4
		c-0.1,0.3-0.3,0.7-0.4,1c0,0.1-0.1,0.3-0.2,0.4c-3.1,0.1-5.7,1.3-8,2.4c-1.9,0.9-3.6,1.7-5.1,1.7c-0.5,0-1.3-0.1-2.5-0.8l-0.2-0.1
		l-0.2-0.1c-0.6-0.3-1.3-0.5-2-0.5c-1.6,0-3.9,0.9-5.1,2.5c-1.5,1.9-3.7,3.4-6,4.9c-2.5,1.7-5.1,3.5-7.3,6c-2.5,2.9-4,3.3-5.1,3.3
		c-1.2,0-2.6-0.5-4.4-1.5c-2.6-1.5-5.2-2.2-7.8-2.2c-3.2,0-7.8,1.2-12.1,6.8l0,0l0,0l-0.2,0.3c-0.4,0.5-1,1.4-1.4,1.8
		c-0.4,0-0.9-0.1-1.3-0.1c-6.5,0-8.7,5.4-9.8,8l0,0.1l0,0.1c-1.4,4.1-5,7.2-9.2,8.1l-0.1,0l-0.1,0c-9.2,2.4-15.7,7.6-19.3,15.4
		l0,0.1l0,0.1c-0.6,1.4-1.6,2.5-3.1,3c-2.8,0.9-4.8,2.3-5.9,4.4c-1.1,2.1-1.2,4.6-0.4,7.5l0,0l0,0c0.9,2.8-0.2,5.3-2,9
		c-0.6,1.3-1.3,2.6-1.8,4c-1.6-0.8-3.3-1.1-5-1.1c-2.6,0-4.8,0.8-6.9,1.5c-1,0.4-2,0.7-2.9,0.9c-5.8,1.3-8.3,5.2-7.5,11.5
		c0.9,7.2,1.7,15.6,0.1,23.3c-4.1,19.1-1.3,38.1,1.6,54.3c3.8,21.9,6.6,45.4,1.4,69.1c-0.5,2.4-1,4.8-1.5,7.3
		c-3.4,16.1-6.6,31.3-14.4,45.2l0,0.1l0,0.1c-1.4,2.7-2.5,5.3-3.2,7.9c-0.6,2.1-0.5,4.1,0.5,5.8c0.6,1.1,2,2.6,4.5,3.3l0,0l0,0
		c0.6,0.1,1.2,0.2,1.7,0.2c3,0,5.4-2,6.3-5.2c1-3.8,2.8-6.2,5.5-7.8c3.8-2.1,3.8-6.1,3.8-7.4c0.1-4.6,2.2-8.5,4.7-13.1
		c1.2-2.2,2.5-4.5,3.5-7.1l1-2.3l-1.7-1.9c-1.3-1.5-1.9-2.9-0.9-5.7l0-0.1l0-0.1c1.2-3.7,2-7.4,2.2-11.1c0.3-3.6,0.7-7.2,1.1-10.8
		c0.5-4.2,1-8.5,1.3-12.9c0.1,0.3,0.2,0.6,0.3,0.9c3.4,8.7,6.2,17.6,8.6,26.4c3.3,11.9-1.3,23-5.8,33.6l-1.2,3l2.6,1.9
		c1.4,1,2.9,1.5,4.5,1.5c1,0,2-0.2,2.8-0.6c1,2.8,2.4,5.1,3.6,7l0.2,0.3c2.1,3.2,1.8,3.4,0.4,4.4l0,0l0,0c-1.6,1.2-2.6,2.9-2.8,4.9
		c-0.4,3.3,1.5,6.3,3.2,8.3l1.5,1.8l2.3-0.4c5-0.8,8.4-3.8,11.5-6.3c1-0.9,2.1-1.8,3.1-2.5c3,3.6,5.5,7.9,7.3,12.6
		c2.3,6.8,8.7,14,14.6,14c1.2,0,2.4-0.3,3.5-0.9c1.8-1,3.5-1.5,5.2-1.5c4.3,0,8.3,2.9,12.2,5.8c2.1,1.5,4,3.4,6.1,5.3
		c5.1,4.8,10.8,10.2,19.6,11.1c0.5,0.6,1.2,1.4,2.1,2c0.5,0.3,1,0.6,1.5,0.9c5.3,3.4,10.8,7,17.7,7c3,0,6-0.7,8.9-2.1
		c0.1,0,0.1-0.1,0.2-0.1c0,0.1,0,0.1,0,0.2c-0.1,1.3,0,2.4,0.1,3.5c0,0.3,0.1,0.6,0.1,0.9c0.6,8.4,7.8,10.3,11.3,11.3l0.1,0l0.1,0
		c1,0.2,2,0.4,3,0.4c2.5,0,6.9-0.9,9.3-7l0,0l0,0c0.2-0.5,0.5-0.9,0.6-1c3.2-0.1,6.4-0.5,9.5-0.9c3.6-0.4,7-0.8,10.4-0.8
		c3.3,0,6.1,0.4,8.7,1.2l0.5,0.2c5.4,1.7,10.9,3.4,16.6,3.4c5.9,0,11.2-1.9,16-5.7c0.4-0.3,0.8-0.5,1.1-0.5c0,0.2,0,0.4,0,0.7
		c-0.4,6.6,2.7,11.3,5.4,15.5c1.9,2.9,3.7,5.6,4.3,8.8l1.9,10.2l5.4-8.8l1-1.6c2.4,2,4.3,4.4,5.8,7.2l0,0l0,0
		c1.7,3.2,4.2,5.7,6.5,8.1c1,1,1.9,1.9,2.7,2.8l1.5,1.7l2.2-0.4c0.8-0.1,1.5-0.2,2.2-0.2c0.8,0,1.2,0.1,1.4,0.2
		c0.1,0.2,0.3,1.1-0.2,3.1c-0.7,3.4,0.4,5.9,1.3,7.9l0.2,0.4c0.4,1,1,2.1,1.5,3.1c2.3,4.6,3.1,6.8,1.4,8.9c-1.7,2.1-2.6,4.3-3.2,6.1
		c-1.4,0.2-2.7,0.5-4.1,1.2c-2.1,1.1-2.7,3-3,4c-8.7,3.7-14.2,14.8-11.6,23.6c1.9,6.6,1.3,11.5-2,16.3l0,0l0,0
		c-0.1,0.2-0.7,0.6-1.1,1c-1.4,1.2-5.7,4.7-2.8,9.4c1.8,2.9,1.5,4.7-1.3,8.3l-0.2,0.2l-0.1,0.3c-1.1,2-1.2,4.6-0.1,6.7l0.1,0.1
		l0.1,0.1c1.5,2.6,1.6,5.6,1.8,9c0.1,1.5,0.1,3,0.3,4.6c0,0.2,0,0.6,0.1,0.9c0.1,1.7,0.2,4.9,3.1,6.8c3.9,2.7,5.1,7,6.5,12
		c0.2,0.9,0.5,1.7,0.7,2.6c0.8,2.6,2.4,8.1,8.2,8.5c0.2,0,0.4,0,0.6,0c5.8,0,7.9-5.5,8.6-7.6l0.2-0.5c0.1-0.4,0.3-0.9,0.6-1.4
		c2.8,1.1,5.8,1.3,8.5,1.6c6.2,0.5,9,1,10.2,6.4c0.6,2.8,3.3,4.3,5.3,5.2l0.1,0l0.1,0c1.5,0.6,2.6,1.4,2.8,2.1
		c0.3,0.7-0.2,1.8-0.5,2.4l-1.1,2.3l1.6,2c2.6,3.3,5.8,5,9.4,5c2.5,0,4.9-0.8,7-1.7c1.7,2.3,4.3,3.4,6,4.1c1.5,0.6,2.4,1.1,2.7,1.6
		c2.1,5,7,8.3,12.4,8.3c0.2,0,0.4,0,0.6,0c7.3,0,12.2,3.7,17.1,12.5c1.8,3.3,4,7.5,9.6,9.4c1.6,0.5,3.3,2.2,3.3,4
		c-0.1,6.1,1.9,11.3,3.8,16.3c0.3,0.8,0.6,1.7,0.9,2.5c2,5.5,1.5,9.9-1.7,13.9c-3.2,4-3.8,9.8-1.6,15.2c2.3,5.5,6.9,9.3,12.2,9.8
		c2.8,0.3,4.6,1.4,7,4.1l3.3,3.8l3-4.1c0.9-1.2,1.7-1.3,4.5-1.3c1.7,0,3.7,0,5.7-0.8c0.8-0.3,1.4-0.4,2.1-0.4c1.8,0,3.5,1.1,5.6,3.8
		c0.1,0.1,0.2,0.5,0.4,0.8c0.6,1.5,2.1,4.9,6.2,4.9c0.9,0,1.9-0.2,2.9-0.6c3.1-1.2,3.9-3.5,4.2-4.7c0.3-1.6-0.1-3-0.4-4
		c-0.1-0.3-0.2-0.7-0.2-0.9c-0.1-1.1,0.9-2.5,1.5-3c2,0.9,3.8,1.4,5.5,1.4c3.2,0,5.8-1.5,7.8-4.3c1.3,0.6,1.3,1.6,1.3,2.5
		c0,4.2,2.9,7.3,6.8,7.3c0.2,0,0.5,0,0.7,0l0,0l0,0c1.2-0.1,2.4-0.2,3.7-0.3c5.4-0.4,11.6-0.9,16.4-4.6c2.2-1.7,4.7-2.5,7.4-3.4
		c1.4-0.5,2.9-1,4.4-1.6c1.2,2.1,3.2,4.8,7.1,4.8c0.7,0,1.4-0.1,2.1-0.3c0.3,0.5,0.7,1,1.2,1.5c0.9,0.9,1.7,1.8,2.6,2.9
		c3,3.5,6.6,8,13.3,8.4c1,0.1,2,0.1,2.9,0.1c9.9,0,17.1-3.9,22-12c5.9-9.8,14.3-16,24.9-18.6c-0.1,0.4-0.2,0.8-0.4,1.3
		c-0.8,2.3-1.9,5.5-0.1,8.9l0.6,1.2l1.2,0.6c1.6,0.8,3.3,1.1,4.8,1.1c4.7,0,7.4-3.6,9.1-5.9c0.8-1.1,1.9-2.6,2.5-2.6
		c0,0,0.1,0,0.1,0c0.3,0,0.7,0,1,0c5.9,0,8.7-4,10.8-7c1.6-2.3,2.6-3.7,4.4-4.2l-2-7.7c-0.9,0.2-1.7,0.2-2.4,0.2
		c-2.1,0-2.8,0-3.2-6.4c-0.2-2.6-2-4.4-3.3-5.8c-0.4-0.4-0.7-0.8-1-1.1l0,0l0,0c-0.2-0.3-0.5-0.5-0.7-0.8c-0.1-0.1-0.1-0.1-0.2-0.2
		c3-0.9,6.3-2.8,7.1-7.1c1.5-0.4,3-0.9,4.6-1.5c1.2-0.5,2.3-1.1,3.3-1.6c1-0.6,2-1.1,2.9-1.4l0,0l0,0c1.3-0.5,2.9-1.1,3.8-1.1
		c0.2,0,0.9,0,1.9,2c1.8,3.7,6.3,6,11.7,6c4.6,0,8.8-1.7,11.2-4.5c2-2.4,4.2-4.6,6.5-7c5.7-5.8,11.5-11.7,14.5-20.3
		c0.4,0.1,0.7,0.1,1,0.1c1.6,0,3.5-0.5,5.1-2.4c2.1,0.9,4.2,1.4,6.3,1.4c2.3,0,4.6-0.6,6.7-1.7l0,0l0,0c8.1-4.6,14.7-7.6,20.8-9.3
		c0.8,1.1,1.6,2.1,2.4,3.1c2.2,2.7,4.3,5.3,5.8,8.2c-1.2,0.6-2.2,1.6-2.8,3l-0.8,1.9l1.1,1.8c1.1,1.7,1.1,1.8-2,4.1
		c-1.3,1-2.8,2-3.8,3.5l-0.9,1.3l0.2,1.5c1.1,10.5,9.1,11.8,13.9,12.6c3.4,0.6,5.1,1,5.8,2.2l1.5,2.7l3-0.7
		c5.2-1.3,8.4-4.3,11.2-7.6c1.2,0.5,2.5,0.8,3.8,0.8c1.7,0,3.2-0.4,4.4-0.7c0.5-0.1,1.2-0.3,1.4-0.3l2.1-0.1l1.1-1.7
		c3.4-5.2,1.2-10.1-0.3-13.4c-1.8-3.9-1.9-4.6,0.2-6.4l3.2-2.7l-2.9-3.1c-0.9-0.9-1.7-2.2-2.5-3.5c-1.7-2.6-3.8-6-7.8-7.6
		c-0.1-3.3-1.1-6.2-3-8.4c-1.5-1.8-4.2-3.9-8.9-3.9c-1.6,0-3.4,0.3-5.2,0.8c-1,0.3-2,0.4-2.9,0.4c-1.7,0-3.3-0.5-4.8-1.6
		c1-1.4,1.6-2.9,2.2-4.2c0.7-1.5,1.2-2.7,2.1-3.7l0,0l0,0c4-4.8,11.2-13.6,6.9-24.6c3.5-2.6,4.6-6.5,5.4-9.5c0.2-0.7,0.4-1.4,0.6-2
		c1.5-4.2,2.8-6.7,5.4-8.1c8.6-4.7,11.9-12.6,9.8-23.7c-0.5-2.9-1.3-5.6-2-8.3c-0.4-1.6-0.8-3-1.2-4.5c-0.1-0.3-0.2-0.7-0.3-1
		c-0.4-1.6-0.6-2.4-0.4-3.4c2.8-10.5,3-20.1,0.7-29.5c-0.7-2.9,0.4-4.1,1.5-4.8c0.1-0.1,0.2-0.1,0.3-0.2c1.2-0.8,3.8-2.5,3.8-5.9
		v-0.1l0-0.1c-0.2-3,1.6-4.9,4.8-7.9c0.4-0.4,0.9-0.9,1.3-1.3c3.2-3,5.3-6.8,6.2-11.1c2.3-2.4,13.4-7.8,17-8.3c2.4,2,4.8,3,7.3,3
		c4.7,0,8-3.6,10.4-6.2l0,0l0,0c0.3-0.3,0.5-0.6,0.8-0.9c2.8-3.2,4.5-5,7.6-5.3c3.6-0.3,10.2-0.9,12.7-7.2c0.8-1.9,1.5-3.9,2.1-5.8
		c1.4-4.3,2.8-8.3,5.6-11.6l0,0l0,0c2.8-3.3,0.4-7-0.4-8.4l-0.2-0.3l0,0l0,0c-0.5-0.8-1.1-1.5-1.7-2c-0.1-0.1-0.2-0.2-0.3-0.3
		c1.5-0.9,3.2-1.7,5.2-2.4c3-1.2,6.3-2.5,9.1-5c3,2.5,6.5,2.6,9.2,2.7c2.1,0.1,3.4,0.1,4.1,0.8l3.6,3.5l2.6-4.3
		c1.1-1.9,2.3-3.8,2.9-4.4c0.8,0.1,2.4,0.5,4.2,1.1c1.1,0.4,2.1,0.4,2.7,0.4h0.5l0.5-0.1c2.2-0.5,4.6-0.8,7.2-1
		c6.5-0.6,13.9-1.3,19.8-7.6l1.5-1.6l-0.5-2.1c-0.4-1.5-1.2-2.5-2-3.3c1.1-0.6,2.1-1.3,2.9-2.2c2.2-2.5,3.3-6,3.1-10.6
		c0.2-0.2,0.6-0.4,1.4-0.8c2-1,4-2.1,6-3.4l0,0l0,0c0.4-0.3,0.9-0.6,1.4-0.9c3.4-2.2,9.6-6.4,6.5-14.7l0,0l0,0
		c-3.1-7.9-11-7.9-13.9-7.9c-0.4,0-0.8,0-1.2,0c-0.5,0-1,0-1.5,0c-0.4,0-0.9,0-1.3,0c-1.4,0-2.1-0.1-2.5-0.5
		c-2.6-2.4-5.5-3.7-8.6-3.7c-3.5,0-6.7,1.5-9.8,3.3c-0.5,0.3-0.9,0.6-1.3,0.9c-5.1-1.1-10.3-2.3-15.8-3.5c1.1-1.1,2.2-1.9,3.5-2.4
		l0.5-0.2c3.4-1.4,11.5-4.7,9.5-13.8c-0.6-2.7-0.5-5.7-0.4-8.8c0.2-5.1,0.4-11-2.8-16.6c-0.5-0.8-0.7-1.5-0.6-1.9
		c0-0.1,0.3-0.9,2.4-2c7-3.8,11.9-10.1,13-16.8c1.4-7.7,0.6-15.5-0.1-23c-0.1-1.5-0.3-3-0.4-4.4l-0.3-3.3l-3.3-0.3
		c-0.9-0.1-1.9-0.1-3-0.1c-1.2,0-2.4,0-3.5,0.1c-1.1,0-2.1,0.1-3.1,0.1c-3.3,0-4-0.5-4.1-0.6c-4.2-4.2-9.6-5.5-14.4-6.7
		c-6.4-1.6-10.5-2.8-12.5-7.8c-0.9-2.2-2.9-2.8-3.9-3.1l-0.2-0.1c-7.2-2.4-11.1-8-13.3-18.8c-0.7-3.2-2.7-12.9-11.9-16
		c-6.7-2.2-10-7.4-13.9-13.5l-0.7-1.1c-0.5-0.8-1-1.6-1.5-2.4c-2.5-4.2-5.4-9.1-12.1-12.1c-1.5-0.7-3.1-1.5-4.7-2.4
		c-4.2-2.2-8.5-4.4-13.6-5.3c-0.7-0.1-0.9-0.2-1.4-1.8c-1.5-4.8-4.1-13.6-14.8-15.7l0,0l0,0c-1.3-0.2-2.7-1.3-4.2-2.6
		c-1.6-1.2-3.3-2.6-5.4-3.5c1.2-3.9-0.3-7.3-1.4-9.7c-0.6-1.4-1.2-2.7-1.1-3.6l0.4-4.4h-4.4c-0.2,0-0.4,0-0.6,0
		c-0.2,0-0.5-0.1-0.8-0.1c-1,0-1.8,0.3-2.6,0.8l-0.1,0l-0.1,0c-1,0.8-4.2,3.1-6,3.1c-0.8,0-2.2-0.5-5.5-5l0,0l0,0
		c-1.9-2.4-4.4-3.8-7-3.8c-2.6,0-4.9,1.3-6.5,3.5l0,0l0,0c-0.9,1.4-1.5,1.4-1.9,1.4c-0.9,0-2-0.4-3.3-0.8c-1.7-0.5-3.5-1.1-5.6-1.1
		c-0.5,0-1,0-1.4,0.1c-1.5-1.2-3.3-1.9-5.3-1.9c-2.4,0-4.6,1-6,1.8c-1.2,0.7-2.2,1-3,1c-1.8,0-3.4-1.6-5.9-4.3
		c-0.3-0.3-0.5-0.5-0.8-0.8c-0.2-0.2-0.5-0.6-0.8-1.1c-1-1.5-2.5-3.8-5.5-4.6l-1.5-0.4l-1.4,0.7c-3.9,2.1-7.3,3.1-10.2,3.1
		c-5.9,0-9.4-4.6-10.5-13.6c-0.6-5.3-3-8.8-6.1-12.9c-0.9-1.2-1.9-2.4-2.9-3.5c-4.2-4.9-6.7-8.1-5.5-13.2l0,0l0,0
		c1.1-4.7-1.4-8.3-3.6-11.5l-0.2-0.3c-0.5-0.7-1-1.4-1.6-2.1c-3-4-4.8-6.7-3.9-10.1l0,0l0,0c0.9-3.8-0.5-6.9-4.1-8.7
		C623.2,112.4,622,112.1,620.8,112.1L620.8,112.1z"/>
</g>
</svg>
