<?xml version="1.0" encoding="utf-8"?>
<!-- Generator: Adobe Illustrator 24.3.0, SVG Export Plug-In . SVG Version: 6.00 Build 0)  -->
<svg version="1.1" id="Layer_1" xmlns="http://www.w3.org/2000/svg" xmlns:xlink="http://www.w3.org/1999/xlink" x="0px" y="0px"
	 viewBox="0 0 400 300" style="enable-background:new 0 0 400 300;" xml:space="preserve">
<style type="text/css">
	.st0{fill:none;stroke:#F3F2EF;stroke-miterlimit:10;}
	.st1{fill:none;}
	.st2{fill:#C98017;}
	.st3{fill:#FBED60;}
	.st4{fill:#FABA31;}
	.st5{fill:#68C2EE;}
	.st6{fill:#0491BE;}
	.st7{fill:#68C2EF;}
	.st8{fill:#31798F;}
	.st9{fill:#C1BDBE;}
	.st10{fill:#6E6E6E;}
	.st11{fill:#6C6C6C;}
	.st12{fill:#BCBCBC;}
	.st13{fill:#E1E1E1;}
	.st14{fill:#0A0A09;}
	.st15{fill:#F3F2EF;}
	.st16{fill:none;stroke:#F3F2EF;stroke-width:2;stroke-miterlimit:10;}
</style>
<path class="st0" d="M158.2,255c0,0.4,0.3,0.7,0.7,0.8c0.4,0,0.7-0.3,0.8-0.7s-0.3-0.7-0.7-0.8l0,0
	C158.6,254.3,158.2,254.6,158.2,255z"/>
<rect x="19.4" y="9" class="st1" width="360.1" height="283.6"/>
<ellipse transform="matrix(0.2043 -0.9789 0.9789 0.2043 182.5046 378.2343)" class="st2" cx="323.9" cy="76.9" rx="54.6" ry="52.6"/>
<circle class="st3" cx="320" cy="74.2" r="52.8"/>
<circle class="st4" cx="320" cy="74.2" r="42.3"/>
<path class="st2" d="M320.9,93.5c4.5,2.5,10.3,0.9,12.8-3.6c1.6-2.8,1.6-6.3,0.1-9.1l-0.8-1.4l1.4-0.8c4.4-2.6,5.9-8.4,3.3-12.8
	c-0.9-1.4-2.1-2.6-3.5-3.4l-1.5-0.8l2.7-4.7c0.6-1,0.2-2.2-0.8-2.8s-2.2-0.2-2.8,0.8l0,0l-2.6,4.7l-6.2-3.4l2.6-4.7
	c0.6-1,0.2-2.2-0.8-2.8s-2.2-0.2-2.8,0.8l-2.6,4.7l-4.7-2.7c-1-0.6-2.2-0.2-2.8,0.8c-0.6,1-0.2,2.2,0.8,2.8l4.7,2.7l-12.5,22.4
	l-4.7-2.7c-1-0.6-2.2-0.2-2.8,0.8c-0.6,1-0.2,2.2,0.8,2.8l4.7,2.6l-2.6,4.7c-0.6,1-0.2,2.2,0.8,2.8s2.2,0.2,2.8-0.8l0,0l2.6-4.7
	l6.2,3.5l-2.6,4.7c-0.6,1-0.2,2.2,0.8,2.8s2.2,0.2,2.8-0.8l0,0l2.6-4.7L320.9,93.5L320.9,93.5z M321,59.5l11.2,6.3
	c2.6,1.5,3.5,4.8,2.1,7.4c-1.5,2.6-4.8,3.5-7.4,2.1l0,0L315.7,69L321,59.5z M308.5,81.8l5.3-9.4l14.4,8.1c2.6,1.5,3.6,4.8,2.1,7.4
	s-4.8,3.6-7.4,2.1L308.5,81.8z"/>
<ellipse transform="matrix(0.6003 -0.7998 0.7998 0.6003 -86.0382 118.7536)" class="st2" cx="75.8" cy="145.5" rx="18.3" ry="33.4"/>
<ellipse transform="matrix(0.6165 -0.7874 0.7874 0.6165 -82.6082 116.2412)" class="st3" cx="78" cy="142.9" rx="16.2" ry="33.3"/>
<ellipse transform="matrix(0.6165 -0.7874 0.7874 0.6165 -82.6082 116.2412)" class="st4" cx="78" cy="142.9" rx="13" ry="26.7"/>
<path class="st2" d="M68.8,141.1c-0.3,1.7,1.6,4.4,4.4,6.1c1.7,1,3.4,1.4,4.5,1.1l0.5-0.2l0.7,0.7c0.7,0.7,1.5,1.4,2.4,1.9
	c2.7,1.6,5.2,1.6,5.6-0.1L87,150l2.8,1.7c0.6,0.4,1.1,0.3,1.2,0s-0.3-0.9-0.9-1.3l-2.8-1.7l0.4-2.3l2.9,1.7c0.6,0.4,1.1,0.4,1.2,0
	s-0.3-1-0.9-1.3l-2.9-1.7l0.3-1.8c0.1-0.4-0.3-0.9-0.9-1.3s-1.1-0.3-1.2,0l-0.3,1.8l-13.5-8.2l0.3-1.8c0.1-0.4-0.3-1-0.9-1.3
	c-0.6-0.3-1.1-0.3-1.2,0l-0.3,1.8l-2.8-1.7c-0.6-0.3-1.1-0.3-1.2,0c-0.1,0.3,0.3,0.9,0.9,1.3l2.8,1.7l-0.6,2.4l-2.8-1.7
	c-0.6-0.3-1.1-0.3-1.2,0c-0.1,0.3,0.3,0.9,0.9,1.3l2.8,1.7L68.8,141.1L68.8,141.1z M85.5,145.1l-0.8,4.2c-0.2,1-1.6,1-3.2,0
	c-1.6-1-2.7-2.5-2.5-3.5l0.8-4.2L85.5,145.1z M71.9,137l5.7,3.4l-1,5.4c-0.2,1-1.6,1-3.2,0.1c-1.6-0.9-2.7-2.5-2.5-3.5L71.9,137z"/>
<ellipse transform="matrix(0.4188 -0.9081 0.9081 0.4188 -122.5259 304.5581)" class="st5" cx="176.7" cy="248" rx="32.3" ry="49.5"/>
<ellipse transform="matrix(0.4188 -0.9081 0.9081 0.4188 -118.0148 304.5494)" class="st6" cx="178.9" cy="244.5" rx="30.8" ry="48.9"/>
<ellipse transform="matrix(0.4188 -0.9081 0.9081 0.4188 -118.0148 304.5494)" class="st7" cx="178.9" cy="244.5" rx="24.6" ry="39.2"/>
<path class="st8" d="M187.1,248.8l9.2,6c0.7-1.4,1.2-2.7,1.8-3.9c0.3-0.6,0-1.1-0.8-1.6c-2.9-2-5.8-4.1-8.9-6
	c-2-1.2-2.7-2.3-2.8-3.9c-0.1-2-0.3-2.1-3.2-3c0.1,0.9,0.2,1.8,0.3,2.8c-3.2-2-5.9-4.1-9.1-6c-2.2,4.7-4.3,9.3-6.4,13.9
	c-0.1,0.3,0,0.6,0.4,0.9c1.4,1,2.8,2,4.3,3.2l4.4-9.6c1.7,1.1,3.2,2.3,4.9,3.2c2.1,1.1,2.9,2.3,3,3.9c0.1,2,0.2,2.1,3.2,3
	L187.1,248.8z"/>
<ellipse transform="matrix(0.5509 -0.8346 0.8346 0.5509 -67.8471 201.8778)" class="st5" cx="153.6" cy="164" rx="39.2" ry="19"/>
<ellipse transform="matrix(0.5509 -0.8346 0.8346 0.5509 -66.8226 199.1277)" class="st6" cx="151.6" cy="161.7" rx="38.5" ry="17.6"/>
<ellipse transform="matrix(0.5509 -0.8346 0.8346 0.5509 -66.8226 199.1277)" class="st7" cx="151.6" cy="161.7" rx="30.8" ry="14.1"/>
<path class="st8" d="M155.8,155.8l5.4-6.6c-0.7-0.5-1.4-0.9-2.1-1.4c-0.3-0.3-0.7,0-1.2,0.6c-1.8,2.1-3.6,4.2-5.4,6.4
	c-1.1,1.4-2,2-2.9,2c-1.3,0-1.4,0.2-2.4,2.3l1.8-0.2c-1.8,2.3-3.7,4.2-5.4,6.5l7.3,4.8c0.2,0.1,0.4,0.1,0.6-0.3c0.9-1,1.8-2,2.8-3.1
	l-5.1-3.3c1-1.2,2-2.3,2.9-3.5c1.1-1.5,2-2.1,3-2.1c1.3,0,1.3-0.1,2.5-2.3L155.8,155.8z"/>
<ellipse class="st9" cx="68.4" cy="244" rx="34.4" ry="39.5"/>
<ellipse class="st10" cx="64.3" cy="242.7" rx="33.1" ry="38.2"/>
<ellipse class="st9" cx="64.3" cy="242.7" rx="26.5" ry="30.6"/>
<path class="st10" d="M70,225c3.5,0,6.3,3,6.5,7.2c0.2,3.9-2.4,7.1-5.6,7.6c-0.5,0.1-0.9,0.1-1.4,0.1c-1.4-0.1-2.7,0.9-2.8,2.3
	c0,0.1,0,0.3,0,0.4c-0.1,1.4,0.9,2.7,2.3,2.9c0.1,0,0.2,0,0.3,0c3.2-0.2,5.9,2.1,6.6,5.7c0.7,2.7-0.1,5.6-2.2,7.5
	c-1.7,1.8-4.5,2.3-6.7,1.1c-2.4-1.2-3.7-3.4-3.9-6.4c-0.1-1.4,0.2-2.9,0.8-4.2c0.5-1.1,0.3-2.4-0.5-3.3c-0.7-0.8-1.9-1-2.8-0.4
	c-0.4,0.2-0.8,0.6-1,1c-1.7,2.7-3.9,3.8-6.7,3.1s-4.5-2.8-5.1-6c-0.8-4.5,2.7-9.1,6.7-8.7c2.6,0.2,4.5,1.7,5.6,4.5
	c0.4,1.2,1.7,1.8,2.9,1.5c0.1,0,0.2-0.1,0.4-0.2c1.3-0.8,1.8-2.5,1.1-3.9c-0.7-1.2-1.1-2.6-1.1-4C63.4,228.4,66.3,225,70,225z"/>
<ellipse transform="matrix(0.2575 -0.9663 0.9663 0.2575 38.6191 346.0121)" class="st9" cx="244.5" cy="147.9" rx="34.2" ry="51.4"/>
<ellipse transform="matrix(0.2575 -0.9663 0.9663 0.2575 44.8124 344.686)" class="st10" cx="246.7" cy="143.2" rx="31.8" ry="51.1"/>
<ellipse transform="matrix(0.2575 -0.9663 0.9663 0.2575 44.8124 344.686)" class="st9" cx="246.7" cy="143.2" rx="25.5" ry="40.9"/>
<path class="st10" d="M268.2,154.7c-0.9,3.3-5.4,4.8-10.9,3.5c-5.1-1.2-8.6-4.7-8.4-7.8c0-0.5,0.1-0.9,0.2-1.3
	c0.6-1.3-0.6-2.9-2.8-3.5s-4.1,0-4.4,1.4c-0.6,3-4.2,4.7-9,4.2c-4-0.5-7.2-2.1-9.2-4.6s-1.8-4.8,0.2-6.6s5.3-2.3,9.3-1.4
	c1.8,0.4,3.6,1.2,5.2,2.2c1.3,0.9,2.9,1.1,4.4,0.6c0.9-0.2,1.6-1.1,1.4-2c0-0.1-0.1-0.3-0.1-0.4c-0.3-0.5-0.6-0.9-1.1-1.2
	c-3.1-2.5-3.9-5-2.4-7.3s4.7-3.2,9-2.6c6.1,0.8,11.1,5.6,9.6,9.2c-1,2.3-3.3,3.6-7.1,3.7c-2,0.1-3.1,1.2-2.5,2.6s2.8,2.5,4.8,2.3
	c1.8-0.2,3.6-0.1,5.4,0.3C265.4,147.4,269.1,151.2,268.2,154.7z"/>
<path class="st11" d="M202.5,47.5c2.2,0.6,4.5,1.3,6.6,2.1l0.5,0.1c0.2,0.3,0.6,0.5,0.9,0.5l0.2,0.1c0.5,0.9,1.9,1.4,2.8,2.2
	c0.6,0.4,0.5,1,1.4,1.1c0.6,1.3,1.7,2.7,2.3,4.1c-0.1,0.2,0,0.3,0.2,0.3c0.1,1,0.2,1.9,0.5,2.8c0,0-0.5,0.1-0.1,0.2
	c-0.1,2.3-0.7,4.6-1.6,6.8c-1.1,1.4-1.9,3.6-3.5,4.9c-11.2,14.8-49.8,22.3-59.6,5.2c0.1-0.3-0.4-0.2-0.4-0.6c0-0.2,0.3-0.4-0.1-0.6
	c-1.1-1.1-0.6-4-1-5.1c0.1-0.3,0.1-0.7,0-1.1c0.2-0.6,0.2-1.2,0.7-1.7c0.2-1.4,1-2.5,1.4-3.9c0.3-0.3,0.6-0.7,0.8-1.1
	c1.6-2.3,3.5-4.3,5.7-6c0.1-0.5,0.9-0.4,0.8-1c0.1,0.1,0.2,0,0.3-0.1c0,0,0,0,0-0.1c2.4-1.6,5.4-3.3,8.1-4.9c0.3,0,0.5-0.1,0.6-0.4
	c4.6-1.8,9.2-3.2,14-4.3c0.6,0.1,1.2,0,1.7-0.3c1.4,0,2.8-0.1,4.1-0.4c0.2,0,0.4,0.3,0.6-0.1c1.3,0.3,2.8-0.2,4.3,0.1
	c0.3-0.4,0.8,0.2,1.1-0.2c0.2,0.1,0.3-0.1,0.4-0.1c0.1,0.6,0.5,0.2,0.9,0.2C198.9,47.3,200.7,46.9,202.5,47.5z M210.7,68.5
	c6.4-10.7-4.5-17.5-13.6-18.5c-23-2.5-46,14.2-38.7,26.4c3.5,6.8,12.6,7.9,19.7,8.2c12.2-0.8,25.5-5,32.6-15.6L210.7,68.5z"/>
<path class="st12" d="M210.6,69c-7,10.6-20.4,14.8-32.6,15.6c-6.9-0.3-16.2-1.4-19.7-8.2c-0.6-3.4,0.2-6.9,2-9.9
	c5.9-7.8,13.9-10.7,22-13.2c4.1-0.3,8.5-1.5,12.7-0.7c8.6,0.2,19.5,6,15.6,15.9C210.5,68.4,210.2,68.8,210.6,69z M185.5,60.8
	C185.9,61,185.7,60.3,185.5,60.8c-4.9,0.2-9.8,0.8-14.9,1.3l6.2,7.7c0.5-1.8,0.7-3.9,1.1-5.7C180.4,63.1,182.9,62,185.5,60.8
	L185.5,60.8z M190.5,60.1c-3.5,1-7.2,3.2-10.9,4.5c-0.2,1.2-0.8,2.2-0.6,3.3c-0.3,1.4-0.6,2.7-0.8,4.1c0.2,0.3,0.4-0.2,0.7,0
	c7.2-0.3,14.9-0.6,22.2-1.3C197.5,67.4,194.1,63.1,190.5,60.1L190.5,60.1z"/>
<path class="st12" d="M218.8,62.8l-0.1,0.2c-0.2,1.2,0.4,2.8,0.7,4.2c-0.3,0.6,0.1,1.2-0.2,1.8c0.1,2.2-1.2,4.2-1.8,6.4
	c-1.7,2.3-3.6,4.6-5.6,6.7c-0.2-0.1-0.3,0-0.3,0.2c-1.4,0.7-2.8,2.4-4.4,3.1c-1.3,1-3.2,1.3-4.2,2.7c-0.1-0.1-0.3,0-0.3,0.1
	c0,0,0,0,0,0.1c-0.5-0.2-0.9,0.1-1.2,0.5c-0.1-0.1-0.2,0-0.3,0.1V89c-0.5-0.2-0.9,0.1-1.2,0.5c-0.2,0.1-0.4,0.2-0.6,0.4
	c-0.3-0.2-0.7-0.1-0.9,0.2l0,0c-0.6-0.1-0.7,0-0.9,0.5c-3.7,0.8-7.6,2.2-11.5,2.9c-0.9,0.1-2.9-0.1-3.6,0.6c-1.8-0.3-4,0.4-5.9-0.1
	c-0.4,0.4-0.9-0.3-1.3,0.2c-4.6-0.5-9.3-1.2-13.4-3.5c-1.4-0.7-2.8-2.1-4.3-2.8c0-0.6-0.6-0.8-1.2-1.4c-1.5-2.3-3-5.3-3-8.3
	c10.8,18,49.7,8.5,59.6-5.2c1.5-1.3,2.4-3.4,3.5-4.9c1-2.1,1.5-4.5,1.6-6.8c0.6,0.4,0.3,1,0.5,1.5L218.8,62.8z"/>
<path class="st13" d="M210.7,68.5c3.9-10.3-7.6-15.7-15.6-15.9c-4.1-0.8-8.6,0.4-12.7,0.7c-8.7,2.6-16.6,6-22,13.2
	c-1.2,2.1-1.9,4.3-2.3,6.7c-0.1,1.2,0.6,2,0.3,3.2c-2.9-4.5-0.8-9.8,2.4-13.7c9.1-10.5,25-13.9,36.3-12.7
	C209.5,51.6,216.1,59.8,210.7,68.5z"/>
<path class="st13" d="M210.6,69c-0.1,0-0.2-0.2-0.2-0.3s0.2-0.2,0.3-0.2l0,0L210.6,69z"/>
<path class="st11" d="M190.5,60.1c3.7,3,7,7.1,10.6,10.6c-7.2,0.7-14.9,1-22.2,1.3c2.3-2,6.2-3.4,9.1-4.9
	C188.7,64.8,189.6,62.5,190.5,60.1z"/>
<path class="st14" d="M190.5,60.1c-0.8,2.3-1.7,4.5-2.5,7c-2.9,1.5-6.6,2.8-9.1,4.9c-0.2-0.1-0.4,0.3-0.7,0c0.2-1.4,0.4-2.8,0.8-4.1
	c-0.2-1.2,0.5-2.2,0.6-3.3C183.2,63.3,186.9,61.1,190.5,60.1z"/>
<path class="st11" d="M185.4,61l-7.6,3.3c-0.3,1.6-0.6,3.7-1.1,5.7l-6.2-7.7C175.6,61.7,180.5,61.1,185.4,61z"/>
<path class="st0" d="M98,105.5c11.7-5.4,34.4-11.8,43.5,13.7"/>
<path class="st15" d="M99.6,104.8l0.3-4.2h-0.2l-4.1,4.8l-4.8,4l6.1-1.6l6.3-0.6l0.1-0.1L99.6,104.8z"/>
<path class="st15" d="M140.8,117.5l2.8-3.1l0.1,0.1l-0.6,6.3c0.1,2.1,0.3,4.2,0.4,6.3c-1-1.8-2-3.7-3-5.5l-3.9-5v-0.1L140.8,117.5z"
	/>
<path class="st16" d="M258,262.4c18.2,2.7,36.5-3.6,48.1-17c14.4-16.7,16.2-41.9,4.5-62"/>
<polygon class="st15" points="262.3,251 256.9,274.4 247.9,260 "/>
<polygon class="st15" points="301.5,191.7 321.3,178 304.6,174.9 "/>
<path class="st0" d="M256.5,45.2c-6.6,1-17.1,4.2-23.9,14.1s-7.6,23.2-2.1,34.5"/>
<polygon class="st15" points="253.4,41.8 255.3,45.4 254,49.2 262.5,44.7 "/>
<polygon class="st15" points="234.1,99.9 225.6,93.4 230.3,93.3 232.6,89.2 "/>
<path class="st16" d="M149.4,34.2c-24.6-9.9-52.3-5.2-70,12C66.6,58.7,60.2,76.5,61.2,94.9"/>
<polygon class="st15" points="151.2,24.2 162.1,40.9 142.2,42.1 "/>
<polygon class="st15" points="51.1,93.3 63.3,109.1 70.9,90.6 "/>
<path class="st0" d="M109.5,174.7c9.7,5.4,15.3,16,14.3,27c-1.3,13-11.8,19.8-15.1,21.7"/>
<polygon class="st15" points="110.2,180.1 111.2,179.9 109.8,175 114.8,174 114.6,172.9 108.5,174.2 "/>
<polygon class="st15" points="109.4,218 110.4,218.3 109,223.2 114,224.2 113.8,225.2 107.7,224 "/>
<line class="st0" x1="208.8" y1="217.9" x2="221.6" y2="180.7"/>
<path class="st15" d="M215.6,213c-0.2-0.2-0.5-0.3-0.7-0.1l0,0l-6,4.8l-1.8-7.4c-0.1-0.3-0.3-0.4-0.6-0.4c-0.3,0.1-0.4,0.3-0.4,0.6
	l2,8.2c0,0.2,0.2,0.3,0.3,0.4c0.2,0,0.3,0,0.5-0.1l6.6-5.2c0.1-0.1,0.1-0.1,0.2-0.2C215.7,213.3,215.7,213.1,215.6,213z"/>
<path class="st15" d="M224,188.7c-0.3,0.1-0.5-0.1-0.6-0.4l-1.8-7.4l-6,4.8c-0.2,0.2-0.5,0.2-0.7,0s-0.2-0.5,0-0.7c0,0,0,0,0.1-0.1
	l6.6-5.2c0.2-0.2,0.5-0.2,0.7,0.1c0.1,0.1,0.1,0.1,0.1,0.2l2,8.2c0,0.1,0,0.2,0,0.3C224.3,188.6,224.1,188.7,224,188.7z"/>
<path class="st16" d="M200.4,30.2c20.5-16.4,48.6-19.3,72-7.4"/>
<path class="st15" d="M192,37.9c5.3-2.1,12.5-4,17.9-4.1l-8.4-4.5l-3.6-8.8C197.3,25.9,194.6,32.8,192,37.9z"/>
<path class="st15" d="M271.6,22.5c-0.8-2.8,0.3-6.9,1.6-9.5c0.5,4.8,2.4,9.4,5.3,13.3c-4.8-0.6-9.7,0.8-14.1,2.6
	C266.1,26.4,268.6,23.5,271.6,22.5z"/>
</svg>
