<?xml version="1.0" encoding="utf-8"?>
<!-- Generator: Adobe Illustrator 24.3.0, SVG Export Plug-In . SVG Version: 6.00 Build 0)  -->
<svg version="1.1" id="Layer_1" xmlns="http://www.w3.org/2000/svg" xmlns:xlink="http://www.w3.org/1999/xlink" x="0px" y="0px"
	 viewBox="0 0 64.5 57.2" style="enable-background:new 0 0 64.5 57.2;" xml:space="preserve">
<style type="text/css">
	.st0{fill:#BFA161;}
</style>
<path class="st0" d="M57.5,15.4c-8.4,1.3-16.8,1.9-25.2,1.9c-8.5,0-16.9-0.6-25.2-1.9c-2.3-0.4-4.7-0.7-7-1.2
	c2.1,0.9,4.3,1.6,6.4,2.3c16.8,5.6,34.9,5.6,51.6,0c2.2-0.7,4.3-1.5,6.5-2.4C62.2,14.7,59.8,15.1,57.5,15.4z"/>
<path class="st0" d="M19.5,3.8C22,2.1,24.8,1,27.7,0.4C22.5,1.2,17.6,3.5,13.6,7l2.6-0.3C17.2,5.6,18.3,4.6,19.5,3.8z"/>
<path class="st0" d="M31.2,5.5h0.2c0.2-2.9,0.4-4.8,0.4-5.5c-0.7,0-1.4,0.1-2.1,0.1c-1.6,1.6-2.9,3.5-3.8,5.6
	C27.6,5.6,29.4,5.5,31.2,5.5z"/>
<path class="st0" d="M17.6,6.5c2-0.2,4.1-0.5,6.1-0.7c1-1.7,2.3-3.3,3.8-4.6c0.5-0.4,1.1-0.8,1.6-1.1l-0.9,0.1
	c-2.1,0.5-4.2,1.2-6.1,2.3C20.5,3.6,18.9,4.9,17.6,6.5z"/>
<path class="st0" d="M12.5,12.1c0.5-1,1.2-2,1.9-3l0.1-0.2c-1.1,0.1-2.3,0.3-3.3,0.6c-1.3,1.5-2.5,3.1-3.5,4.8
	c1.1,0.2,2.3,0.3,3.4,0.5c0.2-0.2,0.4-0.5,0.5-0.8C11.9,13.3,12.2,12.7,12.5,12.1z"/>
<path class="st0" d="M22.6,8c-1.5,0.1-3,0.2-4.5,0.4c-0.2,0-1.1,0.1-2.2,0.2c-1.3,1.8-2.4,3.9-3.1,6c0,0.1,0,0.1-0.1,0.2
	c2.6,0.3,5.2,0.5,7.8,0.7c0.2-1.2,0.5-2.4,0.8-3.5C21.6,10.7,22.1,9.3,22.6,8z"/>
<path class="st0" d="M38.6,5.7c-0.9-2.1-2.2-4-3.8-5.6c-0.5,0-1-0.1-1.5-0.1c0.2,1.8,0.3,3.6,0.4,5.5C35.3,5.5,36.9,5.6,38.6,5.7z"
	/>
<path class="st0" d="M50.2,9.1c0.7,1,1.3,2,1.9,3c0.3,0.6,0.5,1.2,0.8,1.8c0.1,0.3,0.3,0.5,0.5,0.7l3.5-0.5c-1-1.7-2.1-3.3-3.4-4.7
	c-1-0.2-2.2-0.4-3.4-0.6C50.1,8.9,50.1,9,50.2,9.1z"/>
<path class="st0" d="M48.3,6.7L50.9,7l0,0c-4-3.5-9-5.8-14.3-6.7c3,0.6,5.8,1.8,8.4,3.5C46.2,4.6,47.3,5.6,48.3,6.7z"/>
<path class="st0" d="M40.8,5.9c2,0.2,4.1,0.4,6.1,0.7c-1.3-1.6-2.9-3-4.6-4c-1.9-1-4-1.8-6.1-2.3l-0.8-0.1c0.6,0.3,1.1,0.7,1.7,1.1
	C38.5,2.6,39.7,4.1,40.8,5.9z"/>
<path class="st0" d="M39.5,7.9c-1.9-0.1-3.8-0.1-5.8-0.1c0.1,2.7,0.2,5.5,0.3,8.2c2.5,0,4.9-0.1,7.4-0.3c-0.2-1.2-0.4-2.2-0.5-2.4
	C40.6,11.5,40.1,9.7,39.5,7.9z"/>
<path class="st0" d="M25,7.9c-0.6,1.8-1.1,3.6-1.5,5.5c0,0.2-0.2,1.1-0.5,2.4c2.6,0.1,5.2,0.2,7.7,0.2c0.1-3.1,0.3-5.9,0.5-8.2
	C29.1,7.8,27.1,7.8,25,7.9z"/>
<path class="st0" d="M48.6,8.7c-1.2-0.1-2-0.2-2.2-0.2c-1.5-0.2-3-0.3-4.5-0.4c0.6,1.3,1,2.7,1.4,4.1c0.3,1.1,0.5,2.3,0.8,3.5
	c2.6-0.2,5.2-0.4,7.8-0.7c0,0,0-0.1,0-0.1C51,12.5,49.9,10.5,48.6,8.7z"/>
<path class="st0" d="M7,41.8c8.4-1.3,16.8-1.9,25.3-1.9c8.5,0,16.9,0.6,25.2,1.9c2.3,0.3,4.7,0.7,7,1.2c-2.2-0.9-4.3-1.7-6.4-2.3
	C41.3,35,23.2,35,6.4,40.6C4.3,41.3,2.1,42.1,0,43C2.3,42.5,4.7,42.1,7,41.8z"/>
<path class="st0" d="M45,53.4c-2.5,1.7-5.3,2.8-8.2,3.4c5.2-0.8,10.1-3.2,14.1-6.7l-2.6,0.3C47.3,51.6,46.2,52.6,45,53.4z"/>
<path class="st0" d="M33.3,51.7h-0.2c-0.2,2.9-0.4,4.8-0.4,5.5c0.7,0,1.4,0,2.1-0.1c1.6-1.6,2.9-3.5,3.8-5.6
	C36.9,51.6,35.1,51.7,33.3,51.7z"/>
<path class="st0" d="M46.9,50.7c-2,0.3-4,0.5-6.1,0.7c-1,1.8-2.3,3.3-3.8,4.7c-0.5,0.4-1.1,0.7-1.7,1l0.9-0.1
	c2.1-0.5,4.2-1.2,6.1-2.3C44,53.6,45.6,52.3,46.9,50.7z"/>
<path class="st0" d="M52.1,45.1c-0.5,1-1.2,2-1.9,3L50,48.3c1.1-0.2,2.3-0.3,3.3-0.6c1.3-1.5,2.5-3,3.5-4.7
	c-1.1-0.2-2.3-0.3-3.4-0.5c-0.2,0.2-0.4,0.5-0.5,0.8C52.6,43.9,52.4,44.5,52.1,45.1z"/>
<path class="st0" d="M41.9,49.2c1.5-0.1,3-0.2,4.5-0.4c0.2,0,1.1-0.1,2.2-0.2c1.3-1.8,2.4-3.9,3.2-6l0.1-0.2
	c-2.6-0.3-5.2-0.5-7.8-0.7c-0.2,1.2-0.5,2.4-0.8,3.5C42.9,46.5,42.5,47.9,41.9,49.2z"/>
<path class="st0" d="M25.9,51.5c0.9,2.1,2.2,4,3.8,5.6c0.5,0,1,0.1,1.6,0.1c-0.1-1.8-0.3-3.6-0.4-5.5C29.3,51.7,27.6,51.6,25.9,51.5
	z"/>
<path class="st0" d="M14.4,48.1c-0.7-1-1.3-2-1.9-3c-0.3-0.6-0.6-1.2-0.9-1.8c-0.1-0.3-0.3-0.5-0.5-0.7c-1.1,0.2-2.3,0.3-3.5,0.5
	c1,1.7,2.1,3.3,3.4,4.7c1,0.2,2.2,0.4,3.4,0.6C14.4,48.3,14.4,48.2,14.4,48.1z"/>
<path class="st0" d="M16.2,50.5l-2.6-0.3l0,0c4,3.6,9,5.9,14.3,6.7c-3-0.6-5.8-1.8-8.4-3.5C18.3,52.6,17.2,51.6,16.2,50.5z"/>
<path class="st0" d="M23.8,51.3c-2-0.2-4.1-0.4-6.1-0.7c1.3,1.6,2.9,3,4.6,4c1.9,1.1,4,1.8,6.1,2.3l0.8,0.1
	c-0.6-0.3-1.1-0.7-1.6-1.1C26.1,54.7,24.8,53.1,23.8,51.3z"/>
<path class="st0" d="M25,49.3c1.9,0.1,3.9,0.1,5.8,0.1c-0.1-2.7-0.2-5.5-0.3-8.2c-2.5,0-4.9,0.1-7.4,0.3c0.2,1.2,0.4,2.2,0.5,2.4
	C23.9,45.7,24.4,47.5,25,49.3z"/>
<path class="st0" d="M39.5,49.3c0.6-1.8,1.1-3.6,1.5-5.5c0-0.2,0.2-1.2,0.5-2.4c-2.6-0.1-5.2-0.2-7.7-0.2c-0.1,3.1-0.3,5.9-0.5,8.3
	C35.4,49.4,37.5,49.4,39.5,49.3z"/>
<path class="st0" d="M16,48.5c1.2,0.1,2,0.2,2.2,0.2c1.5,0.2,3,0.3,4.5,0.4c-0.6-1.3-1-2.7-1.4-4.1c-0.3-1.1-0.6-2.3-0.8-3.5
	c-2.6,0.2-5.2,0.4-7.8,0.8c0,0,0,0.1,0.1,0.1C13.6,44.6,14.7,46.7,16,48.5z"/>
<path d="M17,31.4h-1v2.6h-3.5V23.6h5c0.9,0,1.7,0.1,2.5,0.5c0.7,0.3,1.3,0.8,1.7,1.4c0.4,0.6,0.6,1.4,0.6,2.1c0,0.7-0.2,1.4-0.5,2
	c-0.4,0.6-0.9,1-1.5,1.3l2.2,3.2h-3.8L17,31.4z M18.4,26.6c-0.3-0.2-0.7-0.3-1.1-0.3H16v2.5h1.3c0.4,0,0.8-0.1,1.1-0.3
	c0.2-0.2,0.4-0.6,0.4-0.9C18.7,27.2,18.6,26.9,18.4,26.6L18.4,26.6z"/>
<path d="M28.4,33c-0.9-1-1.4-2.3-1.3-3.6v-5.8h3.5v5.6c0,0.6,0.1,1.2,0.4,1.7c0.6,0.7,1.6,0.7,2.3,0.1c0,0,0.1-0.1,0.1-0.1
	c0.3-0.5,0.5-1.1,0.4-1.7v-5.6h3.5v5.8c0.1,1.4-0.4,2.7-1.3,3.6c-1,0.9-2.4,1.4-3.8,1.3C30.8,34.4,29.4,33.9,28.4,33z"/>
<path d="M51.1,31.4v2.7h-8.7V23.6h8.5v2.7h-5v1.2h4.4V30h-4.4v1.4H51.1z"/>
</svg>
