<?xml version="1.0" encoding="utf-8"?>
<!-- Generator: Adobe Illustrator 24.3.0, SVG Export Plug-In . SVG Version: 6.00 Build 0)  -->
<svg version="1.1" id="Layer_1" xmlns="http://www.w3.org/2000/svg" xmlns:xlink="http://www.w3.org/1999/xlink" x="0px" y="0px"
	 viewBox="0 0 400 300" style="enable-background:new 0 0 400 300;" xml:space="preserve">
<style type="text/css">
	.st0{fill:#F3F2EF;}
	.st1{fill:none;}
	.st2{fill:#C98017;}
	.st3{fill:#FBED60;}
	.st4{fill:#FABA31;}
	.st5{fill:#68C2EE;}
	.st6{fill:#0491BE;}
	.st7{fill:#68C2EF;}
	.st8{fill:#31798F;}
	.st9{fill:#C1BDBE;}
	.st10{fill:#6E6E6E;}
	.st11{fill:#6C6C6C;}
	.st12{fill:#BCBCBC;}
	.st13{fill:#E1E1E1;}
	.st14{fill:#0A0A09;}
</style>
<g>
	<path class="st0" d="M143.9,156.2c0.9-1.2,2.4-1.3,3.5-1.1c1.3,0.3,2.7,0,3.8-0.1c1.1-0.1,2.6-0.7,3.8-1.3c1.8-1,3.5-1.4,5.2,0
		c0.9,0.7,1.6,0.4,2.2-0.4c0.6-0.8,1.1-1.5,2.3-0.9c0-1.6,0.4-3.2-1.6-3.4c0.1-0.9,1.3-1,1-2c-0.1-0.3-0.3-0.4-0.6-0.4
		c-1,0.1-2.1,0.3-2.3-1.2c-0.2-1.4,0.6-2.4,1.5-3.3c0.2-0.2,0.9,0.4,0.7-0.4c-0.1-0.4-0.1-0.7-0.6-0.8c-2.3-0.3-2.5-1.7-2.5-3.7
		c0-2.4-0.4-4.8,0.3-7.2c0.8-2.8,2.8-3.6,5.3-3.7c1.5,0,2.6-0.5,3.3-1.9c1-2,3.2-1.5,4.7-2.7c0.1,2.4,0,4.6-1,6.8
		c-0.4,0.9-0.5,2.5,1.3,2.9c0.9,0.2,2.1,0,1.9,1.4c-0.2,1.3-1.2,1.8-2.4,2c-0.3,0.1-0.6-0.4-1.1-0.1c0.1,1.5-1,2.6-1.8,3.8
		c0.4,0.7,0.9,0.3,1.3,0.3c1.8-0.1,3.3,0.4,3.4,2.5c0.1,1,1,1.3,1.2,2.2c0,0,0,0,0,0c-1.1,0.3-1,1.5-1.9,2.2
		c-0.3-3.4-4.9-1.9-5.4-5.1c-0.1,0.6-0.2,1.3-0.3,2c0.6,0.6,2,0.4,2.2,1.6c-0.1,0.8-0.9,0.2-1.2,0.6c1.3,1.1,1.5,3.2,3.7,3.4
		c1.1,0.1,2.1,0.7,2.8-0.6c0.3-0.5,0.7-0.5,1.1-0.2c0.4,0.3,0.3,0.7,0,1.1c-0.6,0.8-1.1,1.6-1.7,2.7c3,0.1,5.5-1.1,7.8-2.5
		c0.7-0.4,1.3-1.1,2.2-0.9c0.6,0.1,1.1,0,1.6-0.4c3.1-2,3.1-2,4.2,1.6c-0.3,0.6-1.2-0.3-1.4,0.5c2.9,1.8,5.6,2.1,9.1,0.9
		c3.5-1.2,6.8-2.6,10.1-4.1c2.2-1.1,4.6-1.4,7.1-1.4c1.2,0,2.2,0.3,3.1,1.2c-0.2,0.5-1.3,0.4-0.7,1.3c0.4,0.6,0.9,1.1,1.7,1.1
		c2.8,0,4.4-1,5.5-3.7c0.2-0.5,0.5-0.8,1-0.9c4.7-1.3,6.3-4.3,5.1-9c-0.6-2.5-0.6-5.1,1.3-7.2c0.3-0.3,0.5-0.7,0.6-1.1
		c0.4-3.5,3.2-4.1,5.9-4.9c0.4-0.1,0.8-0.1,1,0.3c0.9,1.8,3,2.3,3.9,4.1c0.8,1.5,2.6,2,4.1,1.3c1.2-0.5,2.1-1.9,1.7-3.5
		c-0.6-2.3,0.5-4.5,0.7-7c-1.3,0.9-2.5,0.9-3.6,0.1c-1.1-0.8-1.7-1.9-1.9-3.2c-0.2-1.2-0.6-2-2.3-2.2c2.6-1,3.9-3.1,6.4-3.5
		c5.2-0.8,10.3-2.5,15.5-0.4c1.2,0.5,2.7,0.2,4,0.3c0.7,0.1,1.6-0.3,2.1,0.4c-1,2.9-3.5,3.7-6.2,4.1c1.5,3,2.8,5.6,4.2,8.3
		c-0.3,0.8-1.6,0.9-1.6,2c0,0.7,0.6,1.2,1.1,1.7c0.9,0.7,1.4,1.3,0.8,2.5c-0.4,0.8,0,1.5,0.5,2.2c1.2,1.6,2.1,3.4,2,5.7
		c1.8-0.1,3.1,1.4,5.1,0.8c1-0.3,2.2,0.4,1.6,1.8c0.9,0.5,1.5,0.1,2-0.1c2.3-0.8,5.2-0.3,6,1.8c0.6,1.3,1,3.2,0.4,4.7
		c-0.3,0.9-0.4,1.5,0.5,1.9c0.9,0.4,0.8,1.5,1.3,2.2c0.6,0.9,1.1,2,2.3,2.4c1.1,0.4,1.2,1.3,1.1,2.2c2.2-0.1,4,1.2,4.6,2.9
		c0.3,1-1.8,2.8-3.3,2.7c-0.7,0-1.4-0.4-2-0.6c-0.8-0.2-1.4,0-1.9,0.6c-0.5,0.6-0.1,1.1,0.3,1.5c1,1,0.8,2.4,1.1,3.6
		c0.6,2.6,2.1,3.1,4,1.3c0.2-0.2,0.7-0.6,0.9-0.5c2,0.7,3.9-0.6,5.9-0.4c1.5,0.1,2.5,0.5,2.9,1.9c0.3,1,1.4,1.4,1.7,2.3
		c0,0.8-0.9,0.7-1.2,1.1c0.4,2.3,1.7,3.3,4,3.3c1.6,0,2.9,1.6,3,3.8c0.1,1.8,0.7,2.6,2.5,1.9c0.4-0.1,1-0.1,1.2,0.1
		c1.9,1.6,3.9,0.8,5.8,0.3c1.1-0.3,1.7-0.2,2.3,0.7c0.9,1.4,2,1.9,3.9,2c2.3,0.2,4.9,0.8,7,2.2c0.9,0.6,1.8,0.9,2.7,0.8
		c1.3,2.1,0.1,3.3-1.4,4.3c0.1,0.8,0.8,0.7,1.1,1.1c-0.1,0.1-0.1,0.3-0.2,0.3c-1.3,0.3-1.4,1-0.6,2c1.3,1.5,0.4,3-0.2,4.4
		c-0.6,1.3-1.9,0.6-2.9,0.6c-2.7-0.1-4.9,1.4-5.5,4c-0.2,0.7-0.4,1.3-1.2,1.3c-4.1,0.3-7.5,2.8-11.5,3.3c-1.9,0.3-3.7,1.7-5.5,2.6
		c-0.7,0.4-0.6,1-0.5,1.7c0.1,1.7,1.4,2.8,2.1,4.1c0.4,0.7,1.4,0.5,2.3,0.1c1.6-0.7,3.2-0.9,5-0.5c-1.1,3.1-1.9,3.5-4.7,2.8
		c-0.3-0.1-0.7-0.3-0.8-0.2c-1.8,2-4.9,1.5-6.8,3.3c-0.6,0.5-1.2,1-2,1.2c-2,0.6-3.2-0.6-2.8-2.6c0.2-1.2,0.1-2.2-1.3-2.4
		c-0.9-0.1-1.2-0.9-1.9-1.3c-0.7-0.4-1.6,0.4-2.3-0.6c1.3-2.1,3.8-2.3,5.8-3.7c-1-0.8-1.7-1-3-0.8c-2.6,0.4-5.1-0.4-7.1-2.3
		c-2.2-2.2-4.2-2.1-5.8,0.5c-1.4,2.3-3.4,3.8-5.6,5.4c0.6,1.2-0.1,2.3-0.3,3.4c-0.3,1.6-1.5,1.5-2.6,2.1c-1.5,0.8-2.8,2.1-2.9,3.9
		c-0.1,1.2-0.4,2.4-0.5,3.6c-0.1,0.9-0.4,1.5-1.3,1.6c-1.5,0.1-2.1,1.1-2.2,2.4c-0.2,1.3-0.7,2.5-2.3,3c1.4,1.8,2.3,3.7,3.2,5.6
		c1.1,2.5,4,3,6.6,3.4c2.9,0.4,6,0,8.9,0.5c1,0.2,1.8-0.3,2.7-0.9c4.7-3.2,9.6-6,15.7-4.8c0.6,0.1,1.2,0.2,1.7,0.1
		c1.9-0.4,3.6-0.8,4.8,1.5c0.4,0.7,1.5,0.7,2.4,0.4c1.1-0.4,1.9-0.3,2.2,1.1c0.3,1.3,1.2,1.9,2.6,1.3c0.6-0.3,1.2-0.2,1.6,0.2
		c1.9,1.6,4.5,2.1,6.5,2.1c4.5-0.1,9,0.2,13.5-0.5c1.6-0.3,3.3-1,4.6-2.1c0.5-0.4,1.1-0.4,1.8-0.4c1.7,0.1,3.5,0.3,5.2-0.2
		c2.4-0.6,6.8,4,6.2,6.4c-0.5,2.4,0.2,3.5,2.5,3.5c1.5,0,2.5,0.7,3.4,2c-1.5,0.8-2.9,2-3.2,3.5c-0.2,1.5,0.6,3.1,1,4.7
		c0.1,0.3,0.5,0.8,0.4,1c-1.3,2,0.4,3.3,1,4.9c1.1,2.6,0.9,2.6-1.8,3.8c-0.8-0.1-0.5-1.1-1.2-1.5c-1.4,0.4-2.9,0.2-4.5-0.3
		c-1.3-0.4-2.7-0.6-3.8,0.6c-0.2,0.2-0.7,0.5-0.9,0.4c-3.1-0.9-6.1,1.3-9.3,0.4c-1.1-0.3-2.2,0.8-3.3,1.2c-3.2,1.4-6.3,2.1-9.6,0.3
		c-1.3-0.7-2.5,0.1-3.7,0.5c-1.7,0.6-3.3,1.2-5.1,0.1c-1.1-0.7-1.7,0.2-1.5,1.2c0.4,2.1-1.6,2.8-2.4,4.1c-0.4,0.6-1.5,0.2-1.6-0.4
		c-0.2-1.4-1.6-3,0.4-4.2c0.6-0.3,0.9-0.9,0.5-1.6c-0.8-0.4-1.4,0-1.8,0.5c-1.4,1.8-3,1.3-4.6,0.4c-1.4-0.8-2.5-0.5-3.4,0.6
		c-2.1,2.8-5.3,3.1-8.4,3.4c-1.4,0.2-2.6-0.4-3.4-1.5c-1.6-2.1-4-2.7-6.3-3.4c-1.6-0.5-3-0.2-3.2,1.9c-0.1,1.1-0.6,1.6-1.8,1.6
		c-0.7,0-1.4,0.3-2.1,0.4c-1.8,0.3-3.3-0.1-4.5-1.7c-1.3-1.7-3-2-5.1-1.3c-1.3,0.5-2.7,0.4-4-0.3c0.6-1.3,2.1-0.5,2.8-1.4
		c-2.1-1.2-3.4,0.8-5.6,1.3c1.3-1.2,1.6-2.5,2.7-3.2c-1.3-1.7-2.3-4-5.2-2.3c0.6-1.4,0.6-1.4,4.1-1.9c-2.2-1.9-4.5-2.4-7.1-2.1
		c-0.7-0.8,0.2-1.7-0.4-2.4c1.5-0.8,1.7,0.5,2.4,1c0.9-0.2,0-1.3,0.9-1.5c1-0.3,1,1.1,1.9,1.2c-0.4-1.8,0.9-3.8-0.8-5.3
		c-0.2-0.8,1-0.7,0.8-1.6c-1.1-0.1-2.2,0.2-3.2,0.6l-0.1,0c-1.4-2.7-0.3-6,2.7-7.9c-2.9,1.3-4.6-1.6-7-1.9c-1.7-0.2-3.1-0.9-3.5,1.5
		c-0.1,0.4-0.4,0.6-0.8,0.5c-0.4-0.1-0.6-0.3-0.6-0.7c0-0.4,0.2-0.9-0.4-1.2c-1.1,0.5-2,1.8-3.5,1.1c-0.3,2.3,2.6,1.9,2.8,3.8
		c-1,0-1.6-1.3-2.7-0.8c-0.1,0.8,1.2,0.9,0.7,1.9c-1.3,0.3-1.6-1.7-3-1.5c0,0.9,0.9,1.1,1.3,2.1c-2.6-0.5-3.3-3.2-5.4-3.9
		c-1.7,2.7,0.8,4.2,1.8,6.1c0.7,1.3,2.4,1.9,2.3,3.8c0,0.8,1,1.2,1.7,1.4c1.5,0.3,2.6,1,2.9,2.7c0.1,0.9,1.4,1,1.6,2
		c-1.3,1.5-1.6-0.3-2.4-0.7c-1,0.9,0,2-0.2,3.1c-1.9,0.1-2.9-2.3-4.9-1.5c-0.3,0.4-0.3,0.9,0,1.5c0.7,0.2,0.8-0.7,1.6-0.7
		c-0.2,0.9,0.1,1.7,0.3,2.5c-1.5,1.2-2.7,0.4-4-0.5c1.1,2.8,2.5,5.5,1,8.6c-1.7-0.7,0.5-3.3-1.8-3.7c-0.8,0.1-0.7,1.2-1.6,1.5
		c-1.1-0.5-0.2-2.3-1.6-2.7c-0.8-0.3-1.2,1.6-2.3,0.5c-0.8-0.8-1.2-1.7-0.7-2.9c0.4-0.9-0.2-1.5-0.8-2c-0.6-0.6-1.2-1.1-1.9-1.8
		c0.7-1.2,1.1-2.3,2.7-2.7c-2.7,0.8-3.2-3-6.2-1.9c2.4-4-2.1-4.4-2-7.3c-1.2,0.9-0.1,1.3-0.4,1.8c-2.3-0.9-2.6-2-1.1-3.8
		c-3.6-1.2-3.1-3.9-2.6-6.8c0.3-1.6-0.1-3.4,0.6-4.7c-4.2-4.7-9.5-7.4-15.6-8.1c0-0.8,0.8-0.4,0.9-1.1c-2.6,0.3-3.7-1.9-5.3-3.2
		c-1.1-0.8-1.9-1.5-3.4-1.8c-1.9-0.4-3.1-2.3-4.3-3.9c1.5-0.6,1.5-1.2-0.1-3.5c-0.5,1.3,0,2.4,0.1,3.5c-0.7-0.5-1.4-1-2.1-1.6
		c0.3-0.9,0.9-1.7,0.2-2.7c-0.5,0.6-1,1.2-1.4,1.8c-2.5-1.8-3-3.6-1.8-6.1c-2.5-0.8-4.3,0.7-6.3,1.8c-0.3,0.2-0.7,0.7-0.6,0.8
		c1,1.8-0.4,3.3-0.4,4.9c0.1,1.8,1.1,3,2.7,3.8c3.2,1.5,5.5,3.6,6.5,7.3c0.9,3.6,5.8,6.6,9.4,6.3c0.9-0.1,2.1-0.6,2.8,0.4
		c0.7,1.1-1.1,1.4-1,2.4c0.3,0.8,1.1,0.8,1.7,1.1c3.9,1.8,8,3.3,11.2,6.4c0.9,0.9,1.4,1.9,0.9,3.3c-0.4,0.9-1.4,1.1-1.7,0.5
		c-1.2-2.6-4-2.6-6-4.1c-1.3,0.5-1.9,1.6-2.4,2.8c-0.6,1.3-0.7,2.4,1,3.1c1.3,0.5,1.8,1.7,1.8,3.1c0,1.4-1,1.5-2,1.7
		c-0.5,0.1-1.2,0.5-1.1,0.9c0.5,2.3-1.6,3-2.6,4.3c-1.1,1.6-2.1,1.4-3.3-0.5c-1.3,1.8-2.9,3.4-1.7,5.9c0.6,1.2-0.6,2.2-0.9,3.4
		c-1.4,0.1-2.6-0.1-3.7-0.9c-2.7-2.1-6-3.1-9-4.5c-1.1-0.5-2.3-0.7-2.2-2.1c0.1-1.4,1.4-1.3,2.4-1.8c2.7-1.3,4.8,1.1,7.4,0.6
		c2.8-0.6,5.7-1.2,8.4-2.1c1.1-0.4,1.5-2.1,2.3-3.2c0.5-0.7-0.4-2.4-0.9-3.6c-0.4-0.8-0.8-1.6-1-2.6c-0.2-0.9-0.7-1.4-1.8-1.5
		c-1.5-0.2-2.9-0.7-3.1-2.8c-0.1-1.9-1.8-0.7-2.3-0.8c-2.2-1.7-3.2-4.2-5.9-4.4c-3-0.2-5.1-2-7-4c-1.1-1.1-2.3-2.1-3.4-3.2
		c-0.7-0.6-1.6-0.5-2.4-0.7c-0.3-0.6,0.1-1.3-0.6-1.7c-3-1.5-3.3-4.6-4.2-7.3c-0.3-0.8-0.5-1.7-1.3-1.8c-2-0.3-3.4-1.7-5.3-2.2
		c-1.4-0.4-2.5-0.3-3.4,0.9c-1.4,1.7-3,2.9-5.3,3.2c-1.5,0.3-2.7,1.5-3.8,2.6c-1.9,1.9-4,2.9-6.6,1.3c-2.4-1.5-5.3-1.4-7.9-2.1
		c-2.9-0.8-6.6,2.1-6.5,4.6c0,0.6,0.2,1.1,0.4,1.6c1.2,2.3,0.7,4.7-1.7,5.8c-2.7,1.2-4.9,3.3-8,3.8c-1.5,0.3-3.3,0.6-3.8,3
		c-0.2,1.1-2.1,2.3-3.1,3.6c-0.1,0.1-0.2,0.2-0.3,0.3c-3.1,3.7-3.1,4.8,0.4,8.5c-2.6,1.9-5.1,4-5.5,7.5c-0.6,0.5-1.3,0.3-1.9,0.4
		c-1.5,0.1-3,0.8-3.3,2c-0.7,3.5-3.6,3.4-5.8,3.4c-1.9,0-3.9,0.1-5.9,0.1c-3.2,0-6.3,0.8-8.5,3.5c-0.7,0.9-1.7,1-2.7,0.5
		c-1.8-0.8-2.7-2.2-3.4-3.9c-1-2.4-3.2-3.8-5.6-2.9c-2,0.7-3.8,0.7-5.8,0.4c-0.9-0.1-1.8,0.1-3.1,0.1c1.1-2.3,0.6-4.6,0.9-6.8
		c0.1-1.1,0-1.8-1.3-2.1c-2.2-0.6-2.8-4.2-1.4-6.5c2.8-4.2,3.7-8.8,2.8-13.8c-0.3-1.5-0.5-2.9-0.3-4.4c0.3-1.6-1-2.8-1.6-4.1
		c-0.9-2-0.4-3.5,1.8-3.7c1.4-0.2,2.4-0.7,3.2-1.7c1.1-1.4,2.8-1.8,4.2-1c2.3,1.3,4.7,1.1,7,0.8c2.4-0.3,4.6,0.4,6.9,0.8
		c1.9,0.4,3.8,0.5,5.7,0.1c1.3-0.3,2.7,0.2,3.9,0.2c2.6-0.1,5.1,1.3,7.7,0.5c1.4-0.4,2.3-1.3,2.7-2.8c0.9-3.8,1.1-7.7,1.4-11.6
		c0.1-1.1-1-1.9-1.1-2.9c0.2-1,1.1,0.2,1.4-0.4c-0.3-0.8-1.3-0.5-1.7-1.2c0.1-0.6,0.8,0,1-0.6c-2.9-1.2-5.1-2.9-5.8-6.2
		c-0.2-0.7-1.3-2-2-2.1c-2.5-0.3-4.5-2.4-7-2.4c-1.8,0-3-0.5-4-1.8c0.2-0.7,1.1-0.2,1.4-0.8c-0.2-0.1-0.3-0.2-0.5-0.3
		c-0.9-0.1-1.7-0.5-1.8-1.5c-0.1-1.1,0.9-1.3,1.6-1.7c1-0.4,2.1-0.5,3.1-0.6c0.6,0,1.3,0.1,1.7-0.2c2.2-1.6,3.7-0.8,5,1.3
		c2-1.2,4.1-0.6,6.2-0.7c0.9-2.8-1.2-4.9-1.8-7.5c1.7,0.1,3.5-0.7,4.4,1.6c0.3,0.7,5.3,1.5,6.1,1.1c0.3-0.2,0.7-0.4,0.8-0.7
		c0.1-2.5,2.1-2.8,3.9-3.3c3.8-1.1,4.2-1.4,4.4-5.4c0.1-1.6,0.7-2.5,2.3-2.8c6-0.9,10-5,13.7-9.4c1.2-1.4,1.2-3.3,1.5-5.1
		C141.6,157.7,142.3,156.6,143.9,156.2c-1.8,2.4-1.8,2.4,0.9,4.3c0.1,0.8-1.1,1.2-0.7,2.2c1.2,0,2.1-0.7,2.1-1.8
		c0-1.1-0.9-0.5-1.4-0.4c0.3-1.6,0-3.4,2.3-4.8C145.6,156,144.7,156.1,143.9,156.2z M269.4,245.2c3.2,3,6.1,1.6,9-0.5
		c-1-2.1-3-1-4.6-1.4c-3.6-0.9-6,1.5-8.9,3.7c1.7-0.5,3.1,0.2,4.4,0.6C269.7,246.7,268.7,246.2,269.4,245.2z M233.4,140.5
		c-1,1.2-2,1.9-2.6,3.2C233.2,144.4,233.5,144.1,233.4,140.5z M243.8,262.1c-1.6-0.8-3-1.6-5.2-1
		C240.5,261.6,241.9,262.8,243.8,262.1z"/>
	<path class="st0" d="M229.4,101.9c0.2,0,0.5,0,0.6-0.1c1.1-1.8,2.2-3.6,4.6-4.4c-1.4-1.5-1.1-2.6-0.2-3.8c0.6-0.8,0.7-1.8,0.7-2.9
		c-0.2-2.9-0.6-5.7-1.8-8.4c-1.1-2.5-0.4-4.8,2-5.9c-0.3-0.8-1.1-0.3-1.6-0.6c-0.5-0.3-0.7-0.7-0.5-1.3c0.2-0.4,0.8-0.8,1-0.6
		c1.3,1.4,2.6,0.4,3.9,0.1c0.5-0.1,0.9,0.5,1.4,0.2c0-2.1,2.3-4.7,4.3-4.8c1.2-0.1,1.8-0.9,2.5-1.7c1.8-2,4.1-3.4,5.6-5.8
		c0.6-1,1.1-1.7,0.3-2.8c1.4-0.7,2.3-0.9,2.5,1c1.1-0.1,1.6-0.5,1.4-1.8c-0.3-1.8,0.5-4.1-2.2-4.6c-1.8-0.4-3.2-1.8-5.4-1.3
		c-1.7,0.4-3.6,0.1-5.3,0.7c-0.5,0.2-1.3-0.1-1.2,1.2c0,1-1.5,1.5-2.7,1.6c-1.1,0.1-2.2,0.1-3.4,0.2c0.1,1.6-0.2,3-1.5,4
		c-1.2,1-0.9,2.2,0,2.9c1.8,1.4,1.1,2.2-0.3,3c-0.9,0.5-1.5,1.2-2,2.1c-1,1.9-2.5,3.1-4.7,3.7c-1.7,0.5-3.4,1.4-4.8,2.5
		c-1,0.8-1.8,1.2-3,0.9c-0.5,2.3-3.1,5.3-6.6,7.6c0.6,0.7,0.8,1.4,0.1,2.2c-0.6,0.7-0.9,1.7-0.5,2.8c0.6,1.7,0.4,1.9-1.6,2.3
		c0.7,1.9-0.2,4.1,0.9,6c0.4,0.6,0.6,1.3,1.4,1.4c1.4,0.2,3.1,1.9,3.5,1.8c2.1-0.5,2.4,1.2,3.1,2.1c0.7,0.8,1.1,1.9,1.9,2.8
		c1.2,1.2-0.3,1.8-1,2.3c-1.3,0.9-1.4,0.8,0.4,1.9c-2.5,1.5-3.5,4.6-7.2,4.2c-1.1-0.1-2.9,1.3-4.5,2.1c0.6,4.7-1.7,9-2.2,13.6
		c1.8-0.7,1.7-3,3.6-4.5c-0.6,3.7-2.5,6.3-3.4,9.2c-1.5-0.5-1-1.5-1.2-2.3c-0.2,0-0.4,0.1-0.4,0.1c-0.7,3.5-3,4-6.1,3.3
		c-1.8-0.4-2.9,1.1-4.3,1.6c-0.8,0.3-0.5,1.4-0.2,2.1c0.3,1,0,2.1-0.9,2c-2-0.2-3.8,0.9-5.7,0.6c-1.2-0.2-2.1-0.5-1.5-2.1
		c0.5-1.5-0.7-2.4-1.4-3.4c-0.2-0.2-0.3-0.3-0.5-0.5c-0.5-1.7,0.4-2.7,1.6-3.8c-2.9-3.1-4.9-6.7-6.8-10.6c-1.3-2.6-2.2-5.2-3-7.9
		c-0.5-1.5-2.5-2.4-2.5-4.4c0-0.4-0.3-0.7-0.9-0.5c0.6,3.3-1.2,3.9-4,4.4c-1.8,0.3-3.3,2.6-4.9,4c-1.8,1.6-3.7,3.1-6.3,3.4
		c-2.5,0.2-4.9,0.6-6.9-1.5c-0.6-0.7-1.8-0.8-2.7-1.2c-3.3-1.6-3.8-3-2-6.3c0.1-0.2,0.1-0.4,0.1-0.5c-0.5-0.3-0.9,0.1-1.2,0.2
		c-1.3,0.7-2,0.2-1.8-1.2c0.1-1.2-0.1-2.2-0.4-3.3c-0.3-1.2,0.8-2.2,0.9-3.4c-2.5-0.4-2.1-2.7-2.5-4.2c-0.3-1,0.1-2.1-0.6-3.1
		c-0.3-0.4-0.2-0.8,0.2-1.2c0.5-0.5,0.7-1.3,0.8-2c0.2-2.2-1-4.9,1.9-6.3c-0.2-0.3-0.5-0.6-0.2-1.1c0.8-0.1,2.2,0.5,2-1.3
		c2.3-0.2,2.7-3.4,5.2-3.3c0.1,0,0.3,0,0.4-0.1c2.2-2.3,5.6-2.2,7.9-4.2c0.4-0.8-0.8-0.7-0.7-1.7c1.5-0.3,2.5-1.4,3.5-2.8
		c1.5-2.1,2.9,0.2,3.7,0.8c1.6,1.1,1.8,0.4,2.4-0.7c0.9-1.7,2.1-3.2,3.6-4.3c1.9-1.3,2.8-3.7,5.2-4.3c-0.4-1.4-1.7-0.7-2.4-1.3
		c0.5-1.6,0.8-1.8,2.3-1.2c1.1,0.4,1.8,0.6,2.4-0.8c0.5-1.3,2-0.1,3-1.3c-0.3-1.4-0.1-3.1,1.3-4.3c0.3-0.2,0.4-1,0.3-1.2
		c-1.5-1.3-0.3-2.9-0.7-4.4c1.1,0.3,2.4-0.1,2.5,1.5c1.4-0.1-0.5-2.5,1.8-1.9c-0.9-1.1-1.6-1.9-2.3-2.8c1.4-0.5,1.5,0.9,2.3,1.2
		c0.2-0.7-0.6-1.2-0.2-1.9c0.5-0.5,0.7,0.3,1.2,0.2c0.6-1.3,1-3,2.9-3.2c1.1-0.1,0-1.4,0.9-1.9c3.4,0.7,3.7-4,7.2-4.1
		c-0.9-0.7-2,0.1-2.2-1c-0.2-1,0.4-1.7,1.1-2.2c1.5-0.9,2.6-2.5,4.6-2.5c0.6,0,1.1-0.3,1.3-1.1c-3.2-0.7-5.9,1.4-8.8,1.4
		c-3.3-0.1-5.9,1.4-8.5,3.3c-0.5-1.1,0-1.9,0.6-2.2c1.6-0.9,3.1-2.5,5.1-2.5c2.4,0,4.3-1.5,6.6-1.6c-1.3,0.4-2.4,0.1-3.4-0.7
		c-0.5-0.4-0.8-0.8-0.5-1.5c0.5-1.2,4-2.7,5.4-2.3c1.2-1.4,2.4-2.9,4.4-3.1c0.2,1.1-0.4,1.4-0.8,1.9c-0.5,0.6-0.7,1.1-0.1,1.7
		c0.6,0.5,1,0.1,1.4-0.4c0.8-1.1,1.7-0.8,2.6,0c0,0.8-1.2,1.6,0.1,2.5c1.1-0.9,1.8-2.6,3.9-2.2c-0.9-1.7-2.8,0.3-3.3-1.3
		c0-2.5,1.6-4,3.9-4.7c3.1-1,3.3-1,6.1-3.4c-0.9-3.2,2-2.4,3.5-3.6c-0.3,2.3,1.1,2.5,2.5,2.6c0.4-1-1-1.5-0.8-2.6
		c1.2,0,2,0.6,2.7,1.3c-0.1,1.7-2.4,2.5-1.8,4.6c1.1-1.1,1.8-2.2,3.1-2.6c1.1,0.7-0.1,1.8,0.8,2.8c0.2-1.4,1.3-2.6-0.2-3.9
		c-0.6-0.5-0.2-1.2,0.4-1.6c0.8-0.6,1.8-0.6,2.2,0.4c0.7,1.6,1.6,2.1,3.2,1.1c-0.4-0.5-1.8-0.7-1.1-1.9c0.8-1.2,2.2-1.3,3.4-1
		c2,0.5,3.6-0.3,5.4-1.2c-1.9-0.1-4,0.6-4.7-2.2c2.8,0,5.3-1.5,8.2-1.8c0.1,1.6-1.7,1.6-1.7,3c1.4-0.3,2.2-1.2,3-2.1
		c1.3,0,2.4,1.7,3.8,0.4c-0.2-0.5-1.4-1.2-0.1-1.7c1.2-0.4,0.9-2,2-2.3c1.3-0.3,1.7,1,2.6,1.5c1.3-2.8,2.5-2.9,5.7-0.8
		c-0.4,1.1-1.5,0.6-2.2,1c0.6,0.9-0.2,1.6-0.3,2.4c-1.8,0.7-3.3,1.6-2.3,4.1c1.1-1.2,2.1-2.2,3.2-3.3c1.1-1.5,2.3-2.9,4.1-3.6
		c1.3,1.9-0.6,3.5,0.1,5.3c2.6,0.1,1.8-3.1,3.7-3.7c-0.1-0.8-1.6-0.5-1.1-1.6c0.6-1.2,1.9-1.3,2.9-1.5c0.9-0.2,1.9,0,2.9,0.1
		c0.9,0,1.8,0.6,2,1.4c0.3,1.2-0.9,1.6-1.8,2.3c0.6,0.5,0.8,1.1,0.5,2.4c1.2-1.3,1.4-2.4,2.3-3.2c1.1-1,2.3-1.2,3.2-0.1
		c0.9,1,1.8,1.2,2.9,1.2c2.9-0.1,4.6,2.3,7,3.2c1.1,0.4,0.5,1.4-0.4,1.6c-1.5,0.3-2.7,1-4,1.8c-0.9,0.6-2.2,0.7-3.3,0.4
		c-0.8-0.2-1.6-0.5-2.7-0.2c0.8,0.3,1.4,0.5,2,0.8c1.5,0.8,2.8,1.9,4.7,1.5c0.6-0.1,1.3,0.2,1.9,0.4c0.9,0.4,1.5,1.2,1.2,2.2
		c-0.4,1-1.3,0.6-2,0.5c-0.5-0.1-1.1-0.4-1.7-0.6c-0.9,1.2-2.1,1.9-3.4,2.4c-0.5,0.2-1.2,0.4-1.3,0.7c-0.7,2.2-2.6,2.8-4.8,3.5
		c1.5,0.9,1.3,1.8,0.6,2.8c-1.2,1.8-0.5,4.3,1.6,4.7c2.6,0.5,3.7,2.8,5.4,4.3c0.9,0.8,0.2,1.7-0.4,2.4c-1.1,1.2-2.3,2.3-3.3,3.7
		c-0.8,1.2-0.8,2.1,0.1,3.3c1.8,2.4,3.4,4.9,4.4,7.7c0.3,0.9,0.6,1.5-0.5,2.3c-1.2,0.9-1.9,2.3-1,3.9c0.1,0.2,0.3,0.5,0.2,0.6
		c-1.5,1.9-0.6,2.9,1.4,3.5c0.3,0.1,0.6,0.5,0.5,0.9c-0.9,1.9,0.3,2.7,1.6,3.5c1.1,0.7,1.3,1.8,0.2,2.9c-0.7,0.7-1.4,1.4-2.2,2.1
		c0.8,1.1,1.9,1.8,3,2.4c0.7,0.4,1.4,0.7,2,1.2c3.8,2.9,3.9,4.6,0.3,8.2c-5.2,5.2-10.6,10.1-16.5,14.4c-1.4,1-2.9,1.4-4.5,1.8
		c-2.4,0.6-5.1,0.3-7.1,2.1c-0.6,0.5-1.4,0.4-2.1,0.3c-1.1-0.2-2.1,0-3.1,0.4c-3.3,1-6.6,1.9-9.9,2.8c-1,0.3-1.8,0.4-2.5-0.6
		c-0.3-0.4-0.6-0.6-1.1-0.3c-1.9,1.3-1.9-0.4-2.2-1.5c-1.3-0.4-2.6,0.5-3.6,0.1c-2.4-1.2-4.6-1.6-6.4,0.9c-0.2,0.3-0.8,0.2-1.1-0.3
		C228.8,102.8,229.1,102.4,229.4,101.9z"/>
	<path class="st0" d="M98.1,113.9c0.4,1.7-0.1,2.8-1.6,3.8c-1.5,1-4,1.8-2.8,4.6c3.2-1.1,6.6-0.6,9.9-0.3c1.7,0.1,2.1,1.1,1.2,2.5
		c-1.4,2.3-2.4,5-4.4,7c-0.7,0.7,0.1,1.4-0.1,1.9c-0.7,1-2.3,0.2-2.6,1.8c1,0.6,1.9-0.6,3-0.2c3,1.1,5.1,2.8,6.1,6
		c0.8,2.6,1.6,5,4.6,6.1c1.6,0.6,2.9,2.1,3.2,4.1c0.2,1.3,0.9,2.6,1.7,3.7c1.1,1.5,1.4,2.8-0.2,4c0.6,0.8,1.1,0.4,1.5,0.2
		c1.2-0.7,2.4-0.7,3.7-0.4c1.5,0.4,3.3,0.7,3.6,2.6c0.3,1.8-0.3,3.5-1.7,4.8c-1.3,1.2-2.9,2.2-3.5,4c0.7,0.6,1.5,0.5,2.3,0.6
		c1.4,0.2,1.4,1.3,0.6,1.9c-2,1.7-4.3,2.8-6.9,2.9c-2.5,0.1-5.1-0.8-7.3,1.1c-0.1,0.1-0.3,0.1-0.4,0.1c-2.1-1.6-4,0-6,0.3
		c-0.7,0.1-1-0.3-1.5-0.6c-1.9-1-3.9-0.4-4.8,1.5c-0.7,1.5-1.5,1.8-3,1.1c-1.5-0.7-3.1-0.5-4.5,0.5c-2.1,1.4-2.1,1.4-4.9,1
		c-0.2-0.7,0.4-0.8,0.8-1c2.4-1.2,4.2-3,5.5-5.3c1.1-1.9,3.6-3,6.1-2.5c1.6,0.3,2.6-0.1,3.1-2.1c-1.9,1.8-3.3,0.7-5,0.3
		c-1.8-0.5-3.6-2.2-5.9-1.1c-1.2,0.5-1.7-1.1-2.4-2c1.2-1.4,3-1.5,4.4-2.1c2.4-1.1,2.9-2.6,1.7-5.2c-0.9-0.2-1.7,0.8-2.7,0.5
		c-0.1-1.1,1.2-1.1,1.4-2c0-0.8-1-0.9-1.3-1.7c0.4-0.9,1.2-1.5,2.1-0.8c1.8,1.3,3.5,0.3,5.3,0.2c0.8-0.1,1.1-0.9,1.2-1.6
		c0.2-1.1,0.5-2.2,0.7-3.3c-2.6-0.9-3.4-2.3-3.4-5.8c-2.2-0.3-4.5,1.6-6.7,0c-0.2,0.4-0.4,0.8-0.7,1.3c-0.8-0.9-1.7-1.5-1.4-2.8
		c0.1-0.3,0.4-0.6,0.6-0.9c1.4-1.8,2.6-3.6,0.5-5.7c-0.6,0.8-0.6,1.8-0.5,2.8c-0.8,0.7-1.4-0.1-2.1,0c-0.6,0.3-0.5,1.6-1.8,1.4
		c-0.6-1.5,0.5-3.2-0.1-4.8c-1,0.3-1,1.3-1.5,1.8c-0.4,0.4-0.8,1-1.4,0.6c-0.5-0.2-1.1-0.5-1.2-1.1c-0.1-0.7,0.5-1.2,1.1-1.4
		c1.4-0.3,2.2-1.3,3.1-2.3c-1.1-1.3-2.6,0.2-3.5-0.7c0.9-1.4-0.1-4.1,2.8-4.1c0-2.4-2.2-2.8-3.5-3.8c-1.7-1.3-2.1-1.9,0.3-2.5
		c0.3-0.1,0.4-0.8,1.1-0.7c1.2,0.6,1.1,2.3,2.3,3.2c0.4-2.1-0.9-4.8,2.5-5.5c-0.3-1.9,1.2-3.1,1.9-4.6c0.2-0.5,0.7-0.8,1.2-0.6
		C91.5,115.7,94.8,114.1,98.1,113.9L98.1,113.9z"/>
	<path class="st0" d="M80.2,151.5c0.9,2.3,1.5,4.5,1.6,6.7c0.1,2.2-1.8,4.1-2,6.6c-4.5-0.6-8,1.9-11.7,3.8c-1.8,0.9-3.7,1.4-5.7,1.5
		c-2.2,0.1-3.7-1.2-4.9-2.8c-0.6-0.7,0.8-2-0.6-2.5c0.7-1.3,1.8-0.9,2.9-1.1c0.4-2.7,2.5-4.4,3.8-6.7c-0.9-0.2-2-0.1-2.9-0.6
		c-1.1-0.7-3-0.9-1.3-3c0.4-0.5-0.1-1.2-0.4-1.8c-0.8-1.8-0.1-3,1.8-3.2c0.6-0.1,1.2-0.2,1.7,0c2.5,0.7,4.7,0.1,6.6-1.7
		c-0.8-0.5-2,0.1-2.6-0.9c3.1-4,3.1-4,7.5-5.3c0.4-0.1,0.9-0.2,1.2,0c1.4,0.9,2.9,1,4.5,0.6c0.8-0.2,1.6,0.2,2,0.9
		c0.9,1.5,1.7,3.1,2.9,4.4c0.5,0.5,0.5,1.6-0.2,1.9C83,149.4,82.2,151.2,80.2,151.5z"/>
	<path class="st0" d="M161.3,242.7c0.9,1.7,2,1.1,3.1,0.4c3.7-2.5,3.6-2.4,5.2,1.6c0.9,2.1-0.6,4-0.2,6.2c0.2,1.5-0.4,3-0.7,4.7
		c-1.5-0.4-2.6-0.4-3.7,1c-1,1.4-2.4-0.5-3.8-0.6c1-3.8,1.8-7.2-0.5-10.6C160.3,244.7,160.6,243.6,161.3,242.7z"/>
	<path class="st0" d="M185.3,134.8c0.2,0.2,0.3,0.3,0.5,0.5c-0.1,0.4-0.3,0.8-0.3,1.2c0.3,1.5,0.4,2.8-2,2.8
		c1.1,1.3,1.2,2.3-0.1,2.9c0.2,0.9,1.2,0.6,1.6,1.5c-1.1,0.4-1.8,1.3-2.6,2.1c-1.3,1.3-3,0.7-4.5,0.2c-1.4-0.4-1.6-1.4-1.1-2.7
		c0,0,0,0,0,0c1.1,0.1,2.3,0,3.1,1.1c0.7-1.1,0.7-2-0.3-2.2c-1.7-0.3-2.3-1.1-2.4-2.6c-0.1-0.5-0.6-1-0.9-1.5
		c0.2-1.4,3.1,0.1,2.3-2.5C181,136.4,182.9,134,185.3,134.8z"/>
	<path class="st0" d="M167.7,229.2c1.7,4,0.9,7.2-0.3,10.4c-0.2,0.5-0.5,1.1-1,0.9c-0.9-0.2-1.8-0.5-2.2-1.5
		c-0.4-1.3-0.9-2.6-1.2-3.9c-0.3-1.4,0.3-2.6,1.7-3.1C166,231.6,167,231.1,167.7,229.2z"/>
	<path class="st0" d="M308.1,277.8c-0.9,1.7-4.1,1.6-2.6,4.5c-2.2,0-3.4,2-5.5,2.2c-0.9,0.1-1.8,0.1-2.7-0.1
		c-0.9-0.3-1.8-0.6-1.9-1.7c-0.1-1.3,1.1-1.2,1.8-1.7c1.6-1.1,3.4-1.4,5.3-1.3C304.5,279.7,306,278,308.1,277.8z"/>
	<path class="st0" d="M261.9,280.4c0.2,1.4-0.6,1.6-1.4,1.7c-1.9,0.2-3.8,0.5-5.7,0.7c-0.4,0-1,0.1-1.2-0.2
		c-1.6-1.5-3.8-1.5-5.8-1.9c-0.9-0.2-1.5-0.6-1.3-1.6c0.2-0.9,0.8-1.3,1.7-1c3.2,1.1,6.6,1.3,9.9,1.8
		C259.4,280.1,260.6,281,261.9,280.4z"/>
	<path class="st0" d="M238.6,120.5c-0.6-1.3,0-1.9-0.6-2.6c-1.3-1.6-1.1-2,0.9-2.7c0.6-0.2,1.2-0.5,1.7-0.7c0.4-1.7-1.2-1.6-1.9-2.3
		c3.7-1.6,3.7-1.6,5.1,0.3c-0.2,1-1.5,0.9-1.8,2c0.8-0.1,1.6,0,2.3-0.2c0.6-0.1,1.2-0.3,1.5,0.4c0.3,0.6-0.2,0.9-0.6,1.2
		c-0.6,0.5-1.1,1.2-1.8,1.4C241.4,117.8,239.5,118.1,238.6,120.5z"/>
	<path class="st0" d="M74.3,126.9c-1.1-1.4-0.1-3-1.2-4.2c0.9-1,2.2-1.2,2.6-2.4c-1-2.3,0.2-3.5,4.7-4.8c0.9,2.1-0.3,3.7-1.7,4.5
		c-2.7,1.4-3.8,3.4-3.9,6.2C74.9,126.4,74.6,126.6,74.3,126.9z"/>
	<path class="st0" d="M217.1,128c-2.2-4.8,0.2-8.3,6-8.3c-2.7,2.1-2.6,5.8-5.2,7.7C217.6,127.6,217.5,128,217.1,128z"/>
	<path class="st0" d="M128.4,252.7c2.5-2.9,3.7-3.1,6.1-1.1C133.5,255.1,133.4,255.1,128.4,252.7z"/>
	<path class="st0" d="M229.4,101.9c-0.3,0.4-0.6,0.9-0.9,1.3c-1.7,0.3-2.9-0.2-4.4-1.6C226.2,99,228.2,99.1,229.4,101.9z"/>
	<path class="st0" d="M98.2,113.9c-0.6-0.5-1.7-0.3-1.9-1.2c-0.2-0.8-0.2-1.8,0.6-2.3c0.9-0.6,1.7-0.4,2.5,0.4
		c0.8,0.8,0.5,1.5-0.2,2.2C98.9,113.3,98.6,113.7,98.2,113.9C98.1,113.9,98.2,113.9,98.2,113.9z"/>
	<path class="st0" d="M261.5,253.7c1.4,0.2,1.6,1.3,2,2.5c-1.7,1-2.7-0.2-3.9-1C260,254.3,261,254.4,261.5,253.7
		C261.5,253.8,261.5,253.7,261.5,253.7z"/>
	<path class="st0" d="M269,274.1c1.4,0,2.1-1.2,3.6-1c0.4,1.8-0.9,2.4-2.1,3.3C270,275.7,269.6,275,269,274.1z"/>
	<path class="st0" d="M255.1,269c0.9-0.8,1.9-0.7,3.3-0.9c-0.6,1.7-0.5,3.5-2.8,3.5c-0.3-1,0.9-0.9,0.9-1.7
		C256.4,269.1,255.4,269.9,255.1,269z"/>
	<path class="st0" d="M228.7,261.6c0.5-1,1-1.6,2.1-1.6c0.2,0.8,0.3,1.5,0.5,2.3C230.3,262.5,229.5,262.4,228.7,261.6z"/>
	<path class="st0" d="M199.7,142.6c0,0.6-0.2,1-0.7,1c-0.8,0-1.6-0.1-1.8-1c-0.2-0.6,0.2-1,0.8-1C198.7,141.6,199.4,142,199.7,142.6
		z"/>
	<path class="st0" d="M90.4,148c0.8,0.5,0.8,1.1,0.4,1.6c-0.5,0.6-1.1,1.3-2.2,0.7C88.9,149.2,89.5,148.5,90.4,148z"/>
	<path class="st0" d="M136.2,249.7c1.8-0.9,2.6-0.6,3,1.2C138.1,251,137.3,250.5,136.2,249.7z"/>
</g>
<rect y="16.6" class="st1" width="400" height="300"/>
<g>
	
		<ellipse transform="matrix(0.6003 -0.7998 0.7998 0.6003 -75.7744 187.1255)" class="st2" cx="149.3" cy="169.4" rx="19.2" ry="35"/>
	<ellipse transform="matrix(0.6165 -0.7874 0.7874 0.6165 -73.2086 183.3194)" class="st3" cx="151.6" cy="166.8" rx="17" ry="35"/>
	
		<ellipse transform="matrix(0.6165 -0.7874 0.7874 0.6165 -73.2086 183.3194)" class="st4" cx="151.6" cy="166.8" rx="13.6" ry="28"/>
	<path class="st2" d="M141.9,164.8c-0.4,1.8,1.8,4.6,4.6,6.4c1.8,1.1,3.6,1.5,4.7,1.1l0.6-0.2l0.7,0.7c0.7,0.7,1.6,1.4,2.5,1.9
		c2.9,1.8,5.5,1.7,5.8-0.1l0.1-0.6l3,1.9c0.6,0.4,1.2,0.4,1.3,0c0.1-0.4-0.4-1-1-1.4l-3-1.9l0.5-2.4l3,1.9c0.6,0.4,1.2,0.4,1.2,0
		c-0.1-0.6-0.5-1.1-1-1.4l-3-1.9l0.4-1.9c0.1-0.4-0.4-1-1-1.4c-0.6-0.4-1.2-0.4-1.2,0l-0.4,1.9l-14.2-8.5l0.4-1.9
		c0.1-0.4-0.4-1-1-1.4c-0.6-0.4-1.2-0.4-1.2,0l-0.4,1.9l-3-1.9c-0.6-0.4-1.2-0.4-1.3,0s0.4,1,1,1.4l3,1.9l-0.5,2.5l-3-1.9
		c-0.6-0.4-1.2-0.4-1.2,0c0.1,0.6,0.5,1.1,1,1.4l3,1.9L141.9,164.8z M159.5,169l-0.8,4.4c-0.2,1-1.7,1-3.3,0.1
		c-1.7-0.9-2.9-2.7-2.7-3.7l0.8-4.4L159.5,169z M145.3,160.4l5.9,3.6l-1,5.7c-0.2,1-1.7,1-3.3,0.1s-2.9-2.6-2.7-3.7L145.3,160.4z"/>
</g>
<g>
	
		<ellipse transform="matrix(0.5509 -0.8346 0.8346 0.5509 -46.9408 382.3504)" class="st5" cx="331.8" cy="234.8" rx="55" ry="26.6"/>
	
		<ellipse transform="matrix(0.5509 -0.8346 0.8346 0.5509 -45.5134 378.5533)" class="st6" cx="329" cy="231.6" rx="53.9" ry="24.7"/>
	
		<ellipse transform="matrix(0.5509 -0.8346 0.8346 0.5509 -45.5134 378.5533)" class="st7" cx="329" cy="231.6" rx="43.2" ry="19.8"/>
	<path class="st8" d="M334.8,223.5l7.6-9.3c-1.1-0.7-2-1.2-2.9-2c-0.5-0.4-1,0-1.6,0.9c-2.6,2.9-5,5.9-7.5,9c-1.6,2-2.7,2.7-4.1,2.8
		c-1.7,0.1-2,0.2-3.4,3.2l2.5-0.2c-2.6,3.3-5.2,6-7.6,9.2l10.3,6.8c0.2,0.1,0.5,0.1,0.9-0.4c1.2-1.4,2.5-2.8,3.9-4.3l-7.1-4.7
		c1.5-1.7,2.8-3.2,4.1-4.9c1.6-2.1,2.8-2.9,4.2-2.9c1.7,0,1.8-0.2,3.4-3.2L334.8,223.5z"/>
</g>
<g>
	<ellipse class="st9" cx="91.5" cy="68.7" rx="47.5" ry="54.6"/>
	<ellipse class="st10" cx="85.7" cy="66.9" rx="45.8" ry="52.9"/>
	<ellipse class="st9" cx="85.7" cy="66.9" rx="36.7" ry="42.4"/>
	<path class="st10" d="M93.7,42.4c4.9,0,8.7,4.1,8.9,10c0.2,5.4-3.4,9.9-7.7,10.5C94.3,63,93.6,63.1,93,63c-2-0.2-3.7,1.2-3.9,3.2
		v0.6c0,2.4,1.5,4.1,3.6,4c4.4-0.2,8.2,3,9.2,7.9c1,3.8-0.2,7.7-3,10.4c-2.3,2.6-6.2,3.2-9.2,1.5c-3.4-1.6-5.1-4.7-5.4-8.9
		c-0.1-2,0.3-4,1.1-5.8c0.7-1.5,0.4-3.3-0.8-4.5c-1-1.1-2.5-1.3-3.8-0.6c-0.5,0.4-1,0.8-1.3,1.4c-2.3,3.7-5.4,5.2-9.2,4.3
		s-6.2-3.8-7-8.3c-1.2-6.3,3.7-12.6,9.3-12.1c3.6,0.3,6.2,2.4,7.8,6.2c0.5,1.6,2.2,2.5,3.8,2.1c0.1,0,0.1,0,0.2-0.1
		c0.2-0.1,0.3-0.1,0.5-0.2c1.8-1.1,2.5-3.5,1.5-5.4c-0.9-1.7-1.5-3.6-1.6-5.5C84.6,47.1,88.5,42.5,93.7,42.4z"/>
</g>
<g>
	<path class="st11" d="M285.7,131.7c2.7,0.7,5.4,1.5,8,2.7l0.6,0.1c0.3,0.3,0.7,0.6,1.1,0.7l0.3,0.1c0.6,1.1,2.2,1.7,3.4,2.7
		c0.7,0.6,0.6,1.3,1.7,1.4c0.7,1.5,2.1,3.2,2.8,5c-0.1,0.1,0,0.3,0.1,0.4h0.1c0.1,1.1,0.3,2.2,0.7,3.4c0,0-0.6,0.1-0.1,0.3
		c-0.1,2.8-0.8,5.6-2,8.2c-1.4,1.7-2.4,4.3-4.2,6c-13.7,17.7-60.5,26.8-72.3,6c0.1-0.3-0.4-0.3-0.4-0.7c0-0.4,0.3-0.6-0.1-0.7
		c-1.3-1.3-0.7-4.9-1.1-6.1c0.1-0.4,0.1-0.8,0-1.3c0.3-0.7,0.3-1.5,0.8-2.1c0.4-1.7,1-3.2,1.7-4.7c0.4-0.4,0.7-0.8,1-1.4
		c2-2.8,4.2-5.2,6.8-7.3c0.1-0.6,1.1-0.6,1-1.3c0.1,0.1,0.3,0,0.4-0.1v-0.1c2.9-2,6.6-4.1,9.8-6c0.3,0,0.7-0.1,0.8-0.4
		c5.4-2.1,11.2-3.9,16.9-5.2c0.7,0.1,1.5,0,2.1-0.4c1.7,0,3.4-0.1,5-0.6c0.3,0,0.6,0.3,0.7-0.1c1.5,0.4,3.5-0.1,5.2,0.1
		c0.4-0.4,1,0.3,1.4-0.3c0.3,0.1,0.3-0.1,0.6-0.1c0.1,0.7,0.7,0.3,1.1,0.3C281.2,131.4,283.3,130.9,285.7,131.7z M295.6,157.1
		c7.8-13-5.4-21.2-16.5-22.5c-27.9-2.9-55.7,17.2-46.9,32c4.2,8.2,15.4,9.5,23.9,9.9c14.8-1,30.9-6,39.4-18.9L295.6,157.1z"/>
	<path class="st12" d="M295.5,157.7c-8.5,13-24.7,17.9-39.4,18.9c-8.4-0.4-19.7-1.7-23.9-9.9c-0.7-4.2,0.1-8.4,2.4-12
		c7.1-9.5,16.8-13,26.7-16.1c4.9-0.3,10.3-1.8,15.4-0.8c10.5,0.1,23.7,7.3,19,19.3C295.3,157,294.9,157.6,295.5,157.7z M264.9,147.8
		C265.3,147.9,265.2,147.1,264.9,147.8c-6,0.3-11.9,1-18,1.5l7.5,9.4c0.6-2.2,0.8-4.7,1.3-6.8C258.9,150.6,261.8,149.3,264.9,147.8z
		 M270.9,146.9c-4.3,1.3-8.8,3.8-13.3,5.4c-0.4,1.3-0.7,2.7-0.8,4.1c-0.4,1.7-0.7,3.4-1,5c0.3,0.3,0.6-0.1,0.8,0
		c8.8-0.4,18-0.7,27-1.5C279.6,155.7,275.5,150.6,270.9,146.9z"/>
	<path class="st12" d="M305.3,150.1l-0.1,0.3c0,1.7,0.3,3.4,0.8,5c-0.3,0.7,0.1,1.5-0.3,2.2c0.1,2.7-1.4,5.2-2.2,7.8
		c-2.1,2.8-4.3,5.6-6.8,8.1c-0.1,0-0.3,0-0.3,0.1v0.1c-1.7,0.8-3.4,2.9-5.3,3.8c-1.7,1.3-3.9,1.7-5,3.2c-0.1-0.1-0.3,0-0.4,0.1v0.1
		c-0.6-0.3-1.1,0-1.4,0.6c-0.1,0-0.3,0-0.4,0.3c-0.6-0.3-1.1,0-1.4,0.6c-0.1-0.1-0.3,0-0.4,0.3c-0.1-0.1-0.3,0-0.4,0.1v0.1
		c-0.4-0.1-0.7,0-1,0.3l0,0c-0.7-0.1-0.8,0-1.1,0.7c-4.5,1-9.2,2.7-14,3.5c-1.1,0.1-3.5-0.1-4.3,0.7c-2.1-0.4-4.7,0.4-7.1-0.1
		c-0.6,0.4-1.1-0.3-1.5,0.1c-5.6-0.7-11.3-1.5-16.2-4.2c-1.7-0.8-3.4-2.5-5.2-3.4c0-0.7-0.7-1-1.4-1.7c-2.1-2.9-3.4-6.4-3.6-10.1
		c13.1,21.8,60.2,10.3,72.2-6.3c1.8-1.5,2.9-4.1,4.2-6c1.1-2.7,1.8-5.4,2-8.2c0.7,0.4,0.4,1.3,0.6,1.8L305.3,150.1z"/>
	<path class="st13" d="M295.6,157.1c4.7-12.6-9.2-19-19-19.3c-5-1-10.3,0.6-15.4,0.8c-10.6,3.1-20.1,7.3-26.7,16.1
		c-1.4,2.5-2.4,5.3-2.8,8.1c-0.1,1.4,0.7,2.4,0.3,3.9c-3.5-5.4-0.8-11.9,2.9-16.6c11-12.7,30.3-16.8,44-15.4
		C294.1,136.6,302.2,146.7,295.6,157.1z"/>
	<path class="st13" d="M295.5,157.7c-0.1,0-0.3-0.3-0.3-0.4s0.3-0.3,0.4-0.3L295.5,157.7z"/>
	<path class="st11" d="M271,146.9c4.5,3.6,8.4,8.7,12.8,12.8c-8.7,0.8-18,1.1-27,1.5c2.8-2.4,7.5-4.2,11-6
		C268.9,152.7,269.9,149.9,271,146.9z"/>
	<path class="st14" d="M271,146.9c-1,2.8-2.1,5.4-3.1,8.5c-3.5,1.8-8,3.5-11,6c-0.3-0.1-0.6,0.4-0.8,0c0.3-1.7,0.6-3.4,1-5
		c0.1-1.4,0.4-2.8,0.8-4.1C262.1,150.8,266.7,148.2,271,146.9z"/>
	<path class="st11" d="M264.9,147.9l-9.2,3.9c-0.4,2-0.7,4.5-1.3,6.8l-7.5-9.4C253,148.9,258.9,148.1,264.9,147.9z"/>
</g>
</svg>
