<svg xmlns="http://www.w3.org/2000/svg" viewBox="0 0 400 300"><defs><style>.a{fill:#eb1c25;}.b{fill:none;}.c{fill:#ffc800;}.d{fill:#fff;}</style></defs><polygon class="a" points="207.55 108.52 207.54 108.52 207.54 108.52 207.55 108.52"/><rect class="b" width="400" height="300"/><path class="c" d="M144.46,260.46c1.4,4.37,2.77,8.62,4.13,12.87l-.37.42-11.15-7.94-11,7.91-.48-.31,4.12-12.93-11.13-8.27.18-.5h13.78c1.44-4.31,2.81-8.44,4.38-13.17,2.3,4.46,2.92,8.87,4.81,13.06h13.6l.27.62Z"/><path class="c" d="M80.77,230.24l4.4-13.82-10.88-8,.11-.54H87.93c1.52-4.54,2.93-8.78,4.61-13.83,1.66,4.92,3.09,9.17,4.6,13.63h13.69l.21.57-11.11,8.16c1.4,4.39,2.77,8.72,4.39,13.81l-11.77-8.44Z"/><path class="c" d="M96.2,146.31l-11,8.12,4.11,13-.39.38-11.11-8L66,168.23l4.37-13.78-10.89-8,.2-.56H73.16l4.56-13.76,4.6,13.58H96Z"/><path class="c" d="M195.42,22.37c1.54-4.65,2.93-8.86,4.33-13.07h.55l4.33,12.85h13.7l.2.52-11.09,8.21c1.41,4.4,2.79,8.73,4.4,13.79L200,36.23l-11.77,8.44,4.38-13.8-11.53-8.5Z"/><path class="c" d="M271.61,60.53,260,52.22c-4.08,2.12-7.36,5.52-11.82,8l4.26-13.54L241,38.28H254.9c2.18-4.37,3-9,4.94-13.91l4.58,13.72h13.5l.23.56-10.93,8.09C268.64,51.2,270,55.52,271.61,60.53Z"/><path class="c" d="M243.16,251.51h13.58l4.55-13.74c1.63,4.9,3,9.21,4.57,13.79H279.5l.16.56-11,8.11c1.38,4.36,2.75,8.7,4.36,13.81-4.29-3.09-7.94-5.72-11.78-8.47l-11.79,8.5c1.59-5,3-9.28,4.41-13.82L243,252.13Z"/><path class="c" d="M148.84,60.49l-11.76-8.37L125.32,60.5c1.59-5,3-9.3,4.37-13.75l-11.53-8.54h14.28l4.49-13.46c2.24,4.45,2.91,9,4.82,13.31h13.58l.17.53-11,8.15Z"/><path class="c" d="M80.3,107.09c1.62-5.08,3-9.34,4.41-13.79L73.1,84.7H87.48c1.48-4.41,2.91-8.69,4.35-13l.53,0c1.41,4.19,2.83,8.39,4.33,12.86h13.62l.21.59-11,8.13,4.36,13.78-11.74-8.4Z"/><path class="c" d="M318,105l-11.8-8.53-11.78,8.49c1.58-5,3-9.29,4.38-13.82l-10.82-8,.11-.54h13.46l4.64-13.91c1.64,4.93,3.06,9.19,4.57,13.74h13.6l.18.59c-3.58,2.64-7.15,5.28-10.95,8.07C315,95.53,316.38,99.92,318,105Z"/><path class="c" d="M310.65,166.67l4.24-13-11.43-8.47h14.12l4.66-14c1.66,4.94,3.14,9.31,4.65,13.79h13.35l.29.56-10.84,8c1.08,4.59,3.22,8.72,3.88,13.26l.06-.06c-4.11-1.95-7.27-5.35-11.48-7.7l-9.51,6.78c-.62.44-1.11,1.19-2.06.8Z"/><path class="c" d="M310.47,207.55h13.36l.18.5-10.76,8c1.43,4.49,2.82,8.81,4.42,13.82l-11.78-8.47-11.47,8.19c.86-4.91,3-9.08,4-13.64L287,207.59h14.15c1.55-4.6,3-9,4.71-14C307.53,198.6,309,202.91,310.47,207.55Z"/><path class="c" d="M192.63,276.84l-10.84-8,.15-.5h13.48c1.49-4.51,2.92-8.81,4.61-13.89,1.68,5,3.11,9.31,4.61,13.78h13.47l.23.56-10.87,8.06,4.37,13.85-11.78-8.51c-3.76,2.69-7.45,5.35-11.76,8.45C189.85,285.68,191.22,281.34,192.63,276.84Z"/><path class="c" d="M310.58,166.63l.17.16-.09-.12Z"/><path class="c" d="M333.57,166.81l.19.08-.13-.14Z"/><path class="d" d="M265.54,81.55a24.94,24.94,0,0,1-9.38,48,25.73,25.73,0,0,1-5.15-.53,25,25,0,0,1-10.19-4.72,23.84,23.84,0,0,0,11.92,6.45c13.27,2.77,26.35-6.15,29.23-19.92C284.66,97.94,277.41,85.34,265.54,81.55Z"/><path class="d" d="M239.1,122.43a24.63,24.63,0,0,1,22-41.93c.34.07.67.18,1,.26s.66.09,1,.16a24,24,0,0,1,2.39.63,25.48,25.48,0,0,0-4.34-1.35,24.94,24.94,0,0,0-20.38,44.13C240.22,123.72,239.64,123.09,239.1,122.43Z"/><path class="d" d="M256.16,129.58a25,25,0,0,0,24.37-19.86l-.3-.06h0a24.61,24.61,0,0,1-41.13,12.77c.54.66,1.12,1.29,1.72,1.9A25,25,0,0,0,251,129.05,25.73,25.73,0,0,0,256.16,129.58Z"/><path class="d" d="M262.15,80.76a24.63,24.63,0,0,1,18.08,28.9l.3.06a25,25,0,0,0-15-28.17,24,24,0,0,0-2.39-.63C262.81,80.85,262.48,80.82,262.15,80.76Z"/><path class="d" d="M235.74,118A24.34,24.34,0,0,1,256.1,80.28a25.28,25.28,0,0,1,2.73.16,25,25,0,0,1,3.32.32c-.34-.08-.67-.19-1-.26a24.63,24.63,0,0,0-22,41.93,23.2,23.2,0,0,1-1.45-2A23.56,23.56,0,0,1,235.74,118Z"/><path class="d" d="M262.15,80.76a25,25,0,0,0-3.32-.32c.74.09,1.5.2,2.25.35a24.34,24.34,0,1,1-9.95,47.66,24.11,24.11,0,0,1-13.48-8,23.2,23.2,0,0,0,1.45,2,24.61,24.61,0,0,0,41.13-12.77h0A24.63,24.63,0,0,0,262.15,80.76Z"/><path class="d" d="M236.48,100.53a20,20,0,1,0,39.25,8.19l-.3-.06.3.06a20,20,0,0,0-39.25-8.19ZM272.37,94a19.42,19.42,0,1,1-12.29-8.39A19.28,19.28,0,0,1,272.37,94Z"/><path class="d" d="M253.68,94a.94.94,0,0,0-1.28.36.93.93,0,0,0,.36,1.28l2.2,1.24-5.86,10.43L246.9,106a.94.94,0,1,0-.92,1.64l2.2,1.23-1.24,2.2a.94.94,0,1,0,1.64.92l1.23-2.2,2.89,1.62-1.23,2.2a.94.94,0,1,0,1.64.92l1.23-2.2,2.2,1.24h0a4.39,4.39,0,0,0,6-5.92l-.37-.67.66-.39a4.51,4.51,0,0,0,1.57-1.59,4.41,4.41,0,0,0-1.69-6l-.69-.39,1.24-2.2a.94.94,0,1,0-1.64-.92l-1.24,2.2-2.89-1.62,1.24-2.2a.94.94,0,1,0-1.64-.92l-1.23,2.2Zm7.22,17a2.53,2.53,0,0,1-3.44,1l-6.73-3.78,2.47-4.4,6.73,3.78A2.53,2.53,0,0,1,260.9,111Zm.91-10.32a2.52,2.52,0,1,1-2.47,4.4l-5.22-2.93,2.47-4.4Z"/><path class="d" d="M132.56,198.64c-8.25-3.23-16.25-11.14-17.83-17.62a7,7,0,0,1,.13-4.33c-1.48,1.37-2.15,3.45-1.69,6.12,1.17,6.75,9,14.63,17.51,17.6,5.59,2,10.07,1.28,12.15-1.32A7.37,7.37,0,0,1,139,200,17.86,17.86,0,0,1,132.56,198.64Z"/><path class="d" d="M127,175c-4.79-1.88-8.78-1.86-11,0a4.46,4.46,0,0,0-1.21,1.7,5.2,5.2,0,0,1,.43-.37c1.54-2.8,5.9-3.43,11.67-1.17,8.2,3.22,16.12,11,17.69,17.47.66,2.73.07,4.76-1.46,6a5.88,5.88,0,0,1-.36.51,5.65,5.65,0,0,0,.69-.48c1.51-1.32,2-3.41,1.33-6C143.27,186.09,135.28,178.19,127,175Z"/><path class="d" d="M132.63,198.45c-8.2-3.22-16.12-11-17.69-17.48a6.39,6.39,0,0,1,.35-4.65,5.2,5.2,0,0,0-.43.37,7,7,0,0,0-.13,4.33c1.58,6.48,9.58,14.39,17.83,17.62A17.86,17.86,0,0,0,139,200a7.37,7.37,0,0,0,3.85-.95,5.88,5.88,0,0,0,.36-.51C141.13,200.21,137.35,200.3,132.63,198.45Z"/><path class="d" d="M116.35,175.31c2-1.77,6-1.76,10.53,0,8.13,3.19,16,11,17.56,17.32.56,2.29.23,4.12-.93,5.34a4,4,0,0,1-.32.57c1.53-1.2,2.12-3.23,1.46-6-1.57-6.43-9.49-14.25-17.69-17.47-5.77-2.26-10.13-1.63-11.67,1.17.13-.1.27-.18.41-.27A4.16,4.16,0,0,1,116.35,175.31Z"/><path class="d" d="M114.94,181c1.57,6.44,9.49,14.26,17.69,17.48,4.72,1.85,8.5,1.76,10.56.13a4,4,0,0,0,.32-.57c-.09.09-.17.19-.27.28-2,1.76-6,1.75-10.53,0-8.13-3.19-16-11-17.56-17.33a5.88,5.88,0,0,1,.55-4.87c-.14.09-.28.17-.41.27A6.39,6.39,0,0,0,114.94,181Z"/><path class="d" d="M127.6,177.27c-3.86-1.51-7.07-1.5-8.83,0-1.22,1.07-1.6,2.76-1.08,4.88,1.27,5.21,7.68,11.55,14.3,14.15a14.46,14.46,0,0,0,5.16,1.12,5.47,5.47,0,0,0,3.67-1.16c1.22-1.07,1.6-2.76,1.08-4.88C140.63,186.21,134.22,179.86,127.6,177.27ZM140.54,196c-1.61,1.41-4.75,1.39-8.39,0-6.51-2.55-12.81-8.76-14.05-13.85-.48-2-.15-3.5,1-4.46,1.61-1.4,4.75-1.39,8.39,0,6.51,2.55,12.81,8.77,14.05,13.85C142,193.47,141.64,195,140.54,196Z"/><path class="d" d="M136.62,188.88l-1.53-.93.18-1c0-.19-.19-.51-.51-.7s-.6-.18-.64,0l-.18,1-7.29-4.4.18-1c0-.19-.19-.51-.51-.7s-.6-.18-.64,0l-.18,1-1.54-.93c-.31-.19-.6-.18-.64,0s.19.51.51.71l1.54.92-.24,1.26-1.54-.93c-.31-.19-.6-.18-.64,0s.19.52.51.71l1.53.92-.18,1h0c-.17.91.89,2.38,2.36,3.27a3.2,3.2,0,0,0,2.42.59l.29-.09.38.39a6.56,6.56,0,0,0,1.27,1c1.47.89,2.82.87,3-.05l.06-.3,1.54.92c.31.19.6.19.64,0s-.19-.51-.51-.7l-1.54-.93.24-1.25,1.54.92c.31.19.6.19.64,0S136.94,189.07,136.62,188.88Zm-7.59-.52c-.1.52-.87.54-1.71,0S125.86,187,126,186.5l.55-2.93,3.08,1.86Zm4.35,1.89c-.1.52-.87.54-1.72,0s-1.46-1.36-1.36-1.89l.43-2.27,3.08,1.85Z"/><path class="d" d="M275.47,193.64a27.59,27.59,0,0,1-3.43.21A36.51,36.51,0,0,1,257,190.33a34.53,34.53,0,0,1-14.52-11.92c-3.16-4.84-3.88-9.69-2.05-13.66a11.21,11.21,0,0,1,.58-1.08,11.64,11.64,0,0,0-1.91,2.88c-3.9,8.45,3.46,20.16,16.44,26.14s26.66,4,30.56-4.47l.06-.15C284,191.05,280.3,193,275.47,193.64Z"/><path class="d" d="M270.62,160.75c-12.31-5.67-25.2-4.3-29.63,2.92a12.46,12.46,0,0,1,.9-.88c4.92-6.25,17-7.21,28.64-1.85,12.81,5.91,20.18,17.24,16.46,25.3a8.44,8.44,0,0,1-.47.83,9.32,9.32,0,0,1-.38,1,10.59,10.59,0,0,0,1.05-1.74C291,178.17,283.51,166.7,270.62,160.75Z"/><path class="d" d="M257.06,190.13c-12.81-5.91-20.18-17.23-16.46-25.29a10.4,10.4,0,0,1,1.29-2.05,12.46,12.46,0,0,0-.9.88,11.21,11.21,0,0,0-.58,1.08c-1.83,4-1.11,8.82,2.05,13.66A34.53,34.53,0,0,0,257,190.33,36.51,36.51,0,0,0,272,193.85a27.59,27.59,0,0,0,3.43-.21c4.83-.63,8.53-2.59,10.67-5.57a9.32,9.32,0,0,0,.38-1C282.28,194.4,269.41,195.83,257.06,190.13Z"/><path class="d" d="M257.06,190.13c12.35,5.7,25.22,4.27,29.46-3.06a8.89,8.89,0,0,0,.26-.88c-1.78,3.81-5.81,6.3-11.37,7s-12.1-.43-18.26-3.27a34.13,34.13,0,0,1-14.34-11.76c-3.07-4.72-3.78-9.42-2-13.25a10,10,0,0,1,2.08-2.93,10.91,10.91,0,0,0-1,.79,10.4,10.4,0,0,0-1.29,2.05C236.88,172.9,244.25,184.22,257.06,190.13Z"/><path class="d" d="M269.28,163.65A27.72,27.72,0,0,0,254.44,161c-4.6.6-7.95,2.69-9.42,5.88s-.89,7.09,1.64,11a27.71,27.71,0,0,0,11.65,9.56,29.26,29.26,0,0,0,12.09,2.83,20.62,20.62,0,0,0,2.75-.17c4.6-.6,8-2.69,9.42-5.88s.89-7.09-1.64-11A27.74,27.74,0,0,0,269.28,163.65ZM282.19,184c-1.41,3.06-4.64,5.06-9.09,5.64a29.44,29.44,0,0,1-26.08-12c-2.45-3.76-3-7.52-1.62-10.57s4.64-5.06,9.1-5.64a21.5,21.5,0,0,1,2.7-.17A28.86,28.86,0,0,1,269.1,164a27.2,27.2,0,0,1,11.47,9.41C283,177.21,283.6,181,282.19,184Z"/><path class="d" d="M273.39,178c-1.55-1-3-2.13-4.63-3.11-1-.63-1.43-1.22-1.46-2-.05-1.06-.16-1.1-1.68-1.55.05.47.1.93.15,1.47-1.69-1-3.07-2.15-4.74-3.11l-3.36,7.28c-.07.16,0,.31.21.48.73.53,1.44,1.07,2.25,1.67l2.32-5c.9.59,1.68,1.18,2.54,1.65,1.1.6,1.51,1.22,1.55,2,0,1.06.12,1.08,1.68,1.57-.05-.48-.1-1-.16-1.58l4.8,3.12c.34-.75.61-1.42.95-2.05C274,178.49,273.83,178.26,273.39,178Z"/><path class="d" d="M144.3,103.27a2.5,2.5,0,0,0-.35-.21c4,4.69,1.82,16.45-5.54,27.6-6.53,9.89-15.1,16.27-21.08,16.27a6.38,6.38,0,0,1-3.59-1,6,6,0,0,1-1.2-1.1,7,7,0,0,0,2.42,2.89c6,3.93,17.34-2.84,25.44-15.12S150.25,107.19,144.3,103.27Z"/><path class="d" d="M118.28,117.37c7.94-12,18.84-18.84,24.35-15.21a5.7,5.7,0,0,1,.71.59,5,5,0,0,1,.61.31,6.14,6.14,0,0,0-1.19-1.09c-5.61-3.7-16.68,3.15-24.68,15.27-3.85,5.85-6.44,12-7.28,17.42-.71,4.56-.08,8.08,1.74,10.17-.12-.24-.22-.51-.32-.77C108.92,139.07,111.28,128,118.28,117.37Z"/><path class="d" d="M113.74,145.93a6.38,6.38,0,0,0,3.59,1c6,0,14.55-6.38,21.08-16.27,7.36-11.15,9.58-22.91,5.54-27.6a5,5,0,0,0-.61-.31c4.59,4.26,2.45,16.31-5.12,27.78-7.94,12-18.85,18.84-24.35,15.21a6,6,0,0,1-1.65-1.68c.1.26.2.53.32.77A6,6,0,0,0,113.74,145.93Z"/><path class="d" d="M118.28,117.37c-7,10.59-9.36,21.7-6.06,26.69a9.94,9.94,0,0,1-.36-1.13c-.91-2-1.13-4.81-.61-8.19.83-5.33,3.39-11.46,7.22-17.25,6.44-9.76,14.85-16.08,20.64-16.08a6.08,6.08,0,0,1,3.4.94,1.3,1.3,0,0,0,.18.15l.65.25a5.7,5.7,0,0,0-.71-.59C137.12,98.53,126.22,105.33,118.28,117.37Z"/><path class="d" d="M138,130.41c-7.86,11.91-18.64,18.7-24,15.14a6,6,0,0,1-2.13-2.62,9.94,9.94,0,0,0,.36,1.13,6,6,0,0,0,1.65,1.68c5.5,3.63,16.41-3.17,24.35-15.21,7.57-11.47,9.71-23.52,5.12-27.78l-.65-.25C147.84,106.24,145.8,118.64,138,130.41Z"/><path class="d" d="M116.6,141.6a5.22,5.22,0,0,0,2.9.8c4.8,0,11.69-5.11,16.93-13.05a36.63,36.63,0,0,0,5.84-14c.68-4.38-.16-7.6-2.37-9.07s-5.51-1-9.27,1.38a36.65,36.65,0,0,0-10.56,10.87C113.64,128.28,112.09,138.62,116.6,141.6Zm3.85-22.8a36.43,36.43,0,0,1,10.42-10.73,12,12,0,0,1,6.08-2.14,4.77,4.77,0,0,1,2.7.76c2,1.35,2.82,4.41,2.17,8.61a36.31,36.31,0,0,1-5.77,13.8c-6.29,9.52-14.9,15-19.2,12.11S114.17,128.32,120.45,118.8Z"/><path class="d" d="M127.82,129.76c.11.08.24,0,.44-.19.6-.68,1.21-1.34,1.9-2.1l-3.43-2.27c.7-.84,1.37-1.57,2-2.38.75-1,1.35-1.41,2-1.43.86,0,.89-.1,1.68-1.57l-1.3.13,3.69-4.49c-.5-.34-1-.6-1.39-.94-.22-.17-.45,0-.79.39-1.22,1.45-2.47,2.84-3.65,4.34-.77,1-1.34,1.32-2,1.35-.85,0-.92.13-1.66,1.56l1.22-.12c-1.25,1.59-2.5,2.88-3.68,4.44Z"/><path class="d" d="M199,181.28c12.74,2.12,22.57,14.75,22.57,30,0,16.74-11.81,30.35-26.34,30.35a23.24,23.24,0,0,1-9.85-2.22,24.26,24.26,0,0,0,13.11,3.91c14.92,0,27-13.9,27-31C225.45,195.35,213.63,181.6,199,181.28Z"/><path class="d" d="M169.16,211.29c0-16.59,11.65-30,26-30,.55,0,1.09.06,1.63.1s1.08-.1,1.63-.1l.51,0a23.38,23.38,0,0,0-3.77-.34c-14.52,0-26.34,13.61-26.34,30.35,0,12.72,6.84,23.62,16.49,28.13-.7-.45-1.38-.92-2.05-1.44C174.9,233,169.16,222.92,169.16,211.29Z"/><path class="d" d="M221.52,211.29c0-15.26-9.83-27.89-22.57-30l-.51,0c-.55,0-1.09.06-1.63.1,13.61,1,24.4,14,24.4,29.94,0,16.59-11.66,30-26,30a23.11,23.11,0,0,1-11.9-3.35c.67.52,1.35,1,2.05,1.44a23.24,23.24,0,0,0,9.85,2.22C209.71,241.64,221.52,228,221.52,211.29Z"/><path class="d" d="M169.16,211.29c0,11.63,5.74,21.7,14.12,26.69-.7-.55-1.39-1.14-2-1.76-7.07-5.3-11.76-14.49-11.76-24.93,0-16.15,11.2-29.31,25.1-29.68.73-.12,1.48-.21,2.23-.26-.54,0-1.08-.1-1.63-.1C180.81,181.25,169.16,194.7,169.16,211.29Z"/><path class="d" d="M195.18,181.57c14.18,0,25.71,13.33,25.71,29.72S209.36,241,195.18,241a23.09,23.09,0,0,1-13.94-4.79c.65.62,1.34,1.21,2,1.76a23.11,23.11,0,0,0,11.9,3.35c14.37,0,26-13.45,26-30,0-15.95-10.79-29-24.4-29.94-.75.05-1.5.14-2.23.26C194.78,181.6,195,181.57,195.18,181.57Z"/><path class="d" d="M216.35,211.29c0-13.44-9.5-24.38-21.17-24.38S174,197.85,174,211.29s9.49,24.38,21.16,24.38S216.35,224.73,216.35,211.29Zm-41.7,0c0-13.09,9.21-23.75,20.53-23.75s20.53,10.66,20.53,23.75S206.5,235,195.18,235,174.65,224.38,174.65,211.29Z"/><path class="d" d="M194.39,219.64a5.59,5.59,0,0,0,3.05,5.06,4.31,4.31,0,0,0,5.24-.85,6.08,6.08,0,0,0,1.71-5.91c-.58-2.79-2.72-4.6-5.21-4.47a2.06,2.06,0,0,1-2.08-2.3,2,2,0,0,1,2.21-2.11,4,4,0,0,0,1.1-.06c2.45-.35,4.5-2.86,4.37-6-.14-3.36-2.31-5.71-5.08-5.69-3,0-5.17,2.69-5.07,6.1a7.44,7.44,0,0,0,.88,3.13,2.35,2.35,0,0,1-.84,3.06,1.79,1.79,0,0,1-2.54-1,5.09,5.09,0,0,0-4.42-3.5c-3.17-.3-5.93,3.3-5.26,6.87.47,2.53,1.78,4.2,4,4.71s3.95-.34,5.25-2.44a2.2,2.2,0,0,1,.75-.82,1.75,1.75,0,0,1,2.17.35,2.33,2.33,0,0,1,.44,2.58A7.28,7.28,0,0,0,194.39,219.64Z"/><path class="d" d="M182.64,88.08c-.56,0-1.11,0-1.65,0-5.4-.33-9.42-2.35-11.33-5.67l-.06-.1h0a.42.42,0,0,1-.18-.37,1,1,0,0,0-.18-.48,2.63,2.63,0,0,1-.25-.56,8.69,8.69,0,0,1,2-7.36c6.39-8.14,18.43-10.59,27-8.81h0a13,13,0,0,1,6.53,3A7.37,7.37,0,0,1,206,76.6a12.13,12.13,0,0,0-.67,1,7.18,7.18,0,0,1-1.37,1.83C200.21,84.4,190.94,88.08,182.64,88.08Zm-12.57-5.86c1.85,3.15,5.73,5.07,10.94,5.39,8.57.53,18.71-3.25,22.6-8.42l0,0A6.86,6.86,0,0,0,205,77.41a10.17,10.17,0,0,1,.67-1A7,7,0,0,0,204.27,68a12.65,12.65,0,0,0-6.32-3h0l.05-.2-.05.2c-8.48-1.76-20.33.65-26.61,8.66-.84,1.07-2.71,3.89-1.92,7a2.18,2.18,0,0,0,.21.47,1.3,1.3,0,0,1,.23.7l0,0A.34.34,0,0,1,170.07,82.22Zm14,4c-4.55-.22-9.45-1-11.4-4.8-1.21-2-1-4.4.5-6.8,3.21-5,12.24-9.56,21.77-8.53,3.19.34,7,2,8.48,4.87a6.07,6.07,0,0,1-.55,6l-.1.31C198.08,84.27,189,85.86,184.06,86.18Zm8.22-19.85c-8.29,0-16,4.14-18.77,8.48-1.44,2.25-1.61,4.45-.48,6.36,1.86,3.66,6.62,4.37,11,4.58,4.87-.31,13.74-1.86,18.33-8.76l.09-.3a5.57,5.57,0,0,0,.55-5.58c-1.36-2.74-5.07-4.31-8.15-4.64A22.77,22.77,0,0,0,192.28,66.33Z"/><path class="d" d="M184.06,86.18c-4.29-.19-9.45-.91-11.4-4.81l0-.07a8.33,8.33,0,0,1,1.16-5.74c3.38-4.48,7.9-6.16,12.64-7.62h0c.71-.05,1.42-.15,2.17-.25a16.12,16.12,0,0,1,5.14-.14c2.89.06,6.84,1.34,8.63,4a5.53,5.53,0,0,1,.44,5.31l0,.08.07,0-.14.21C198.12,84.25,189.05,85.85,184.06,86.18Zm-11-5c1.86,3.67,6.85,4.35,11,4.53,4.85-.32,13.68-1.86,18.25-8.64a.33.33,0,0,1,0-.14.38.38,0,0,1,.2-.35l.05,0a5.07,5.07,0,0,0-.45-4.8c-1.7-2.55-5.51-3.78-8.32-3.84a16.07,16.07,0,0,0-5,.14c-.72.1-1.46.2-2.17.25-4.66,1.44-9.11,3.1-12.39,7.44A7.94,7.94,0,0,0,173.06,81.22ZM183.42,78l-4.06-5,.39,0c2.84-.28,8.44-.75,8.5-.76l1.23-.1-1.13.51-4.23,1.88c-.08.37-.14.75-.21,1.14-.11.67-.22,1.35-.39,2Zm-3.24-4.69,3,3.76c.11-.5.2-1,.28-1.54s.15-.86.23-1.27l0-.1.11,0c.86-.37,2.22-1,3.19-1.41Z"/><path class="d" d="M207.23,73.54l0,.14c-.24.87.41,1.9.35,2.8A11.11,11.11,0,0,1,205.62,82c-2.66,3.7-7.78,6.4-12,7.84a27.18,27.18,0,0,1-13.74,1.26c-4.48-.87-10.07-3.53-10-8.87C175.4,91.49,191,88,198.51,83.69c3.22-1.82,5.14-4.28,7.28-7.18a11.21,11.21,0,0,0,.94-3.87c.31.2.18.57.3.84Z"/><path class="d" d="M172.94,81.81l-.27-.42c-2.54-4,1.47-8.24,2.76-9.45a22.41,22.41,0,0,1,10.12-5.22c3.56-.86,8.74-1.51,13.21.3a8.41,8.41,0,0,1,4.72,4.09c.83,1.87.18,3.79-.55,5.59l-.4-.15c1.2-3.42-1.11-6.23-3.94-7.49-6.69-3-14.57-.68-19.71,2.47-.91.56-3.7,2.27-4.71,4.23a10.63,10.63,0,0,0-1.26,3.71,2.25,2.25,0,0,0,.09.73,2.2,2.2,0,0,1,.06,1.13Zm19.32-15.52a28.71,28.71,0,0,0-6.61.84,22,22,0,0,0-9.93,5.12c-1.14,1.07-4.5,4.63-3.12,8.08v0a2.67,2.67,0,0,1-.1-.87,10.73,10.73,0,0,1,1.31-3.87c.95-1.84,3.23-3.39,4.86-4.39,5.24-3.2,13.26-5.55,20.1-2.5,2.28,1,4.33,3.12,4.5,5.74a4.81,4.81,0,0,0-.17-3.13,8,8,0,0,0-4.49-3.87A16.94,16.94,0,0,0,192.26,66.29Z"/><path class="d" d="M202.74,77.31l-.18,0a.33.33,0,0,1-.26-.2.38.38,0,0,1,0-.37.36.36,0,0,1,.35-.13l.25,0Zm-.08-.42,0,.12a.1.1,0,0,0,.05-.07A.05.05,0,0,0,202.66,76.89Z"/><path class="d" d="M183.32,77.58l-3.55-4.4"/><path class="d" d="M191.11,72c2.12,1.71,4,4,6,6-4.09.41-8.49.56-12.66.75,1.33-1.13,3.55-1.94,5.17-2.8C190.13,74.68,190.61,73.39,191.11,72Z"/><path class="d" d="M191.11,72c-.45,1.28-1,2.58-1.45,4-1.62.86-3.75,1.62-5.17,2.8-.14-.06-.26.18-.4,0,.1-.66.71-3.6.82-4.26C187,73.83,189.07,72.58,191.11,72Z"/></svg>