<?xml version="1.0" encoding="utf-8"?>
<!-- Generator: Adobe Illustrator 24.3.0, SVG Export Plug-In . SVG Version: 6.00 Build 0)  -->
<svg version="1.1" id="Layer_1" xmlns="http://www.w3.org/2000/svg" xmlns:xlink="http://www.w3.org/1999/xlink" x="0px" y="0px"
	 viewBox="0 0 400 300" style="enable-background:new 0 0 400 300;" xml:space="preserve">
<style type="text/css">
	.st0{clip-path:url(#SVGID_2_);fill:#D50032;}
	.st1{clip-path:url(#SVGID_2_);fill:#FEDD00;}
	.st2{clip-path:url(#SVGID_2_);fill:#10069F;}
	.st3{clip-path:url(#SVGID_2_);fill:#C6AA76;}
	.st4{clip-path:url(#SVGID_2_);}
	.st5{fill:none;stroke:#713F2A;stroke-width:1.041;stroke-linejoin:round;}
	.st6{fill:none;stroke:#713F2A;stroke-width:1.037;stroke-linecap:round;}
	.st7{fill:none;stroke:#713F2A;stroke-width:1.276;}
	.st8{fill:none;stroke:#713F2A;stroke-width:1.121;}
	.st9{fill:none;stroke:#713F2A;stroke-width:1.121;stroke-linecap:round;}
	.st10{fill:none;stroke:#713F2A;stroke-width:1.041;stroke-linecap:round;}
	.st11{fill:none;stroke:#713F2A;stroke-width:1.057;}
	.st12{fill:none;stroke:#713F2A;stroke-width:1.197;}
	.st13{fill:none;stroke:#713F2A;stroke-width:1.356;}
	.st14{fill:none;stroke:#713F2A;stroke-width:0.929;}
	.st15{fill:none;stroke:#713F2A;stroke-width:0.997;}
	.st16{fill:none;stroke:#713F2A;stroke-width:1.037;}
	.st17{fill:none;stroke:#713F2A;stroke-width:0.881;}
	.st18{fill:none;stroke:#713F2A;stroke-width:0.987;stroke-linecap:round;}
	.st19{fill:none;stroke:#713F2A;stroke-width:0.987;}
	.st20{fill:none;stroke:#713F2A;stroke-width:0.987;stroke-linecap:square;}
	.st21{fill:#C6AA76;stroke:#C7B37F;stroke-width:0.513;}
	.st22{fill:#C6AA76;}
	.st23{fill:none;stroke:#C7B37F;stroke-width:0.987;stroke-linecap:round;}
	.st24{fill:none;stroke:#C7B37F;stroke-width:0.987;}
	.st25{fill:#713F2A;stroke:#713F2A;stroke-width:0.277;}
	.st26{fill:#713F2A;}
	.st27{clip-path:url(#SVGID_2_);fill:#D52B1E;}
	.st28{clip-path:url(#SVGID_2_);fill:#FFFFFF;}
	.st29{clip-path:url(#SVGID_2_);fill:#D52B1E;stroke:#D52B1E;stroke-width:0.513;}
	.st30{fill:#D52B1E;}
	.st31{fill:none;stroke:#FEDF00;stroke-width:0.987;stroke-linecap:round;}
	.st32{fill:#FCD900;stroke:#FEDF00;stroke-width:0.513;}
	.st33{fill:none;stroke:#FEDF00;stroke-width:0.987;}
	.st34{clip-path:url(#SVGID_2_);fill:#005EB8;}
	.st35{clip-path:url(#SVGID_2_);fill:none;stroke:#713F2A;stroke-width:0.797;}
	.st36{fill:none;stroke:#000000;stroke-miterlimit:10;}
	.st37{fill:none;}
	.st38{fill:#F3F2EF;}
	.st39{fill:#C98017;}
	.st40{fill:#FBED60;}
	.st41{fill:#FABA31;}
	.st42{fill:#68C2EE;}
	.st43{fill:#0491BE;}
	.st44{fill:#68C2EF;}
	.st45{fill:#31798F;}
	.st46{fill:#C1BDBE;}
	.st47{fill:#6E6E6E;}
	.st48{fill:#6C6C6C;}
	.st49{fill:#BCBCBC;}
	.st50{fill:#E1E1E1;}
	.st51{fill:#0A0A09;}
</style>
<g>
	<g>
		<defs>
			<path id="SVGID_1_" d="M197.7,250.3c0.4,1.7,0.8,2.9,0.9,4.2c0.4,4.4-2.1,7.5-6.4,6.7c-5.4-1-10,1-14.6,2.9
				c-2.6,1-4.8,1.4-7.4-0.1c-2.3-1.3-4.9-1.6-7.5-1.2c-10.6,1.4-20.7-2-31.1-3c-4.3-0.4-5.7-3-5.1-7.5c0.2-1.7-1-2.8-1.9-3.9
				c-1.6-1.9-1.8-3.6-0.1-5.7c2.3-2.9,1.9-4.2-1.8-5.1c-1.4-0.4-1.8-1-1.8-2.2c0-1.6,0.1-3.2,0.1-4.8c0.2-5.8-3.2-9.6-9-9.8
				c-3.2-0.1-6.5,0.2-9.6-0.8c-3.7-1.1-4.1-2.8-1.4-5.7c2.9-3.1,6.8-3.6,10.6-4.2c3.4-0.6,6.9-0.6,10.1-2c2.6-1.1,5.6-1.8,5.5-5.7
				c0-1.4,1.7-1.8,2.7-2.6c7.8-6.5,9.1-5.1,3.2-15.5c-1.4-2.6-2.8-5-5.4-6.7c-2.7-1.8-2.9-5-3.2-7.8c-0.4-3.7-2.2-5.1-5.7-5.5
				c-6.2-0.9-10.8,2.4-15.3,5.6c-1.6,1.2-3.1,1.9-5,0.6c-0.1-1.8,0.8-3.3,1.4-4.9c0.6-1.6,1.4-3.1,0.8-4.9c-0.3-0.9,0.3-1.6,0.8-2.3
				c0.5-0.7,1.2-1.4,1.3-2.2c0.7-5.8,5.3-7.9,9.5-10.5c2.1-1.3,4-2.5,4.2-5.3c0.2-2.8-1.2-4.5-4-4.8c-4.6-0.4-9.2-6.5-8.4-11.1
				c0.2-1.2,1.2-1.4,2-1.8c4.5-2.2,6.4-6.6,8.9-10.4c0.7-1.1-0.3-2-0.5-3c1.8-1.6,3.8-1.7,5.9-1.2c1.8,0.4,3.4,0.2,4.6-1.4
				c0.8-1,1.9-1.3,3.1-1.6c2.6-0.6,4.7-2,6.6-3.9c2.7-2.7,3.3-6,0.2-9.9c-2.2-2.7-2.3-6.3-4.5-8.9c-0.9-1.1-0.7-3.9,0.6-4.8
				c4.5-2.8,4.3-7,4.2-11.4c0-0.7,0-1.5,0-2.1c2.8-1.6,5.9-1.8,8.7-3c1.9-0.8,3.5,1.2,4.3,2.6c1.7,3.2,4.3,3.6,7.3,3.3
				c2.3-0.2,4.5-0.4,6.8-0.7c2.2-0.2,3.5-1.1,2.2-3.5c2.7-1.1,5.2-2,8.2-1.6c2.8,0.3,4.2-2.6,6.4-3.8c1.3-0.8,2.4-1.2,3.8-0.8
				c2.5,0.8,4.7,3.1,7.8,1.5c0.3-0.2,1.4,0.9,1.9,1.5c1.2,1.3,2.2,2.5,4.3,2.3c1.4-0.2,2,1.1,2.6,2.1c1.2,2.1,2.6,4.2,3.7,6.5
				c1.3,2.7,3.1,4,6.1,3.8c1.4-0.1,2.7,0.3,3.7,1.5c4.2,4.7,4.3,4.6,10.4,1.8c0.8,2.4,2.7,2.2,4.6,1.9c4.2-0.7,8.7,0.2,12.3-3
				c0.8-0.7,1.9-0.4,2.8-0.2c2.7,0.6,5.5,1.2,8.2,1.8c2.5,0.5,4.1,1.6,2.8,4.8c6,0,11.7,0.3,16.7-3.6c1.8-1.4,4.4-0.5,6.5,0.1
				c1.6,0.5,3,0.7,4.7,0.4c3.6-0.7,6,2.1,8.6,3.8c2.6,1.7,4.2,2.2,7.6,0.8c2.8-1.2,6.8-0.5,9.7-2.4c2.2,5.1,0.7,8.8-2.3,12.4
				c-3.3,3.9-2.4,8.5-1.5,13c0.3,1.6,1.8,1.5,2.9,1.4c4.6-0.5,8.6,1.3,12.7,3.1c5,2.3,10.2,4.5,15.8,1.5c1-0.5,2,0,2.6,0.8
				c1.7,2.1,3.8,3.1,6.5,2.4c0.1,0.5,0.3,0.8,0.2,0.8c-2.9,2.1-5.4,4.5-7.8,7.2c-2.1,2.4-4.7,3.8-8.4,3.8c-7.2,0-11.3,4.9-13.9,11.9
				c-1.2,3.3-1.5,6.5-2.3,9.7c-0.7,2.9-0.4,5,0.4,7.5c1.5,4.5-0.4,11.1-3.9,13.9c-2,1.6-0.8,3.6-0.7,5.4c0.1,0.9,0.6,1.8,1,2.7
				c2.4,5.8-1.5,9.4-4.5,13.4c-0.8,1.1-1.8,2.1-2.8,3.1c-3.8,3.9-4.8,4.1-9.4,1.5c-7.7-4.3-14.6-1-21.6,1.9
				c-1.3,0.6-1.5,2.1-1.7,3.3c-0.5,3.8-1.2,7.6,0.7,11.4c1,1.9-1.4,6.7-3.4,7.4c-2.1,0.8-4.1,2.7-6.5,0.7c-0.6-0.5-1.3,0.1-1.7,0.5
				c-1.2,1.1-2.6,1.5-4.2,1.4c-1.1-0.1-2.3,0.2-3,1.1c-2,2.7-4.5,2.1-7,1.3c-1.6-0.5-2.9-0.6-4.2,0.4c-0.9,0.7-1.9,0.9-3,0.3
				c-1.1-0.6-2.1-0.3-3,0.3c-1.1,0.8-2.2,0.7-3.3,0.1c-1.9-1-3.9-0.8-5.6,0.3c-3.9,2.6-6.7,6.1-7.2,10.9c-0.3,3.1-2.2,4.3-5,2.8
				c-2-1.1-3.4-3-4.9-4.6c-1.3-1.4-2.6-3.1-4.9-2.4c-2.2,0.8-2.2,2.9-2.5,4.8c-0.3,2-0.4,4.1,0,6.1
				C201.4,248,201.3,250.1,197.7,250.3z"/>
		</defs>
		<clipPath id="SVGID_2_">
			<use xlink:href="#SVGID_1_"  style="overflow:visible;"/>
		</clipPath>
		<path class="st0" d="M58,56.2h299v209.3H58V56.2z"/>
		<path class="st1" d="M58,56.2h203.3v209.3H58V56.2z"/>
		<path class="st2" d="M58,56.2h95.7v209.3H58V56.2z"/>
		<path class="st3" d="M198.4,112.6c3.6,0,5.1,3.1,8.7,3.1c2.2,0,3.5-0.7,5.5-1.8c1.4-0.8,2.2-1.2,3.8-1.2c1.6,0,2.6,0.5,3.4,1.8
			c0.5,0.8,0.8,2.3,0.6,3.1c-0.3,1.3-0.7,2.6-1.3,3.9c-0.3,0.7-0.6,1.2-0.6,2c0,1.9,2.6,2.6,4.4,2.6c0.4,0,3.6,0.1,5.6-2
			c-1.1,0-2.3-0.9-2.3-2c0-1.2,0.9-2.1,2-2.4c0.2-0.1,0.6,0.1,0.8,0c0.3-0.1,0.2-0.5,0.4-0.7c0.6-0.5,1-0.8,1.7-0.8
			c0.4,0,0.8,0.1,1.2,0.3c0.2,0.1,0.3,0.3,0.5,0.3c0.5,0,0.8-0.3,1.3-0.3c0.4,0,0.7,0.1,1.1,0.3c0.3,0.2,0.3,0.7,0.7,0.7
			c0.2,0,1.1-0.4,1.6-0.4c1,0,1.6,0.4,2.2,1.2c0.2,0.2,0.3,0.6,0.5,0.6c0.7,0.1,1.3,0.3,1.7,0.8c0.2,0.2,0.4,0.4,0.5,0.6
			c0.1,0.2,0.3,0.7,0.5,0.8c0.3,0.1,0.5,0.2,0.8,0.3c0.8,0.5,1.3,1.3,1.3,2.3c0,0.3-0.1,0.7-0.2,1c-0.9,3.1-3,4.1-5.1,6.7
			c-0.9,1.1-1.6,2-1.6,3.5c0,0.3,0.4,1,0.6,1.3c-0.1-0.7,0.2-1.5,0.9-1.5c1,0,1.8,0.7,1.9,1.7c0,0.3,0,0.6-0.2,0.9
			c0.6-0.4,1.2-0.6,1.9-0.7c0.3,0,0.6,0,0.9,0c1.6,0,3.3,0.9,4.3,1.8c3.2,2.7,3.6,6.7,3.4,7.8c-0.4,2.5-0.1,6.9-6.4,8.7
			c1.2,0.5,2,1.4,2,2.4c0,1.2-0.9,2.1-2.1,2.2c-0.6,0-1.2-0.2-1.6-0.6c-1.3,1.3-1.6,2.6-1.6,4.5c0,1,0.2,1.9,0.7,2.8
			c0.5,1.1,0.8,1.7,1.7,2.5c0.5-0.7,1-1.2,1.8-1.2c0.8,0,1.5,0.3,1.9,1c0.1,0.2,0,0.4,0.1,0.6c0.1,0.3,0.4,0.3,0.5,0.6
			c0.2,0.4,0,0.8,0.2,1.3c0.1,0.3,0.4,0.3,0.5,0.6c0.2,0.4,0.3,0.8,0.3,1.3c0,1.4-1.3,2.4-2.7,2.4c-0.4,0-0.7-0.2-1.1-0.1
			c0.8,0.8,1.4,1.2,2,2.1c0.9,1.4,1.1,2.4,1.3,4c0,0.3,0,0.5,0,0.8c0,2.1-0.3,3.4-1.3,5.2c-0.9,1.8-1.7,2.8-3.3,4
			c-2.5,1.8-4.4,2.4-7.5,3c-1.7,0.4-3.4,0.6-5.1,0.7l-6.6,0.3c-3.4,0.2-5.7,0.7-8.1,3.1c1.1,0.8,1.9,1.6,1.9,3
			c0,1.4-0.9,2.4-2.2,2.9c-0.3,0.1-0.5,0-0.8,0.2c-0.4,0.2-0.3,0.6-0.7,0.8c-0.5,0.3-1.1,0.5-1.8,0.5c-1.3,0-2.1-0.3-3-1.2
			c-1,0.9-1.4,1.6-2.5,2.3c-0.4,0.2-0.6,0.5-1,0.5c-0.7,0-1-0.4-1.6-0.8c-0.8-0.5-1.5-1.2-2.1-1.9c-1.1,0.6-1.7,1.1-2.9,1.1
			c-0.7,0-1.3-0.1-1.9-0.5c-0.3-0.2-0.4-0.5-0.7-0.7c-0.3-0.2-0.6-0.1-1-0.3c-1.4-0.6-2.3-1.7-2.3-3.2c0-1.3,0.9-2.2,2.1-2.8
			c-2.3-2.3-4.6-2.7-7.9-3l-6.6-0.3c-1.7-0.1-3.5-0.4-5.2-0.7c-1.5-0.2-2.4-0.3-3.8-1c-4.8-2.2-7.8-5.3-8.5-10.5
			c0-0.4-0.1-0.8,0-1.2c0-2.7,1.1-4.4,3-6.3c-0.5-0.1-0.8,0-1.3-0.1c-1.2-0.4-2.1-1.3-2.1-2.6c0-0.4,0.1-0.8,0.3-1.2
			c0.2-0.3,0.5-0.3,0.5-0.7c0.1-0.4,0-0.7,0.2-1.1c0.1-0.3,0.4-0.3,0.5-0.6c0.4-0.9,0.9-1.6,1.9-1.6c0.8,0,1.4,0.4,1.8,1.1
			c0.8-0.4,1-1,1.5-1.7c0.8-1.3,1.1-2.1,1.1-3.6c0-0.9-0.1-1.8-0.4-2.6c-0.2-0.7-0.3-1.2-0.8-1.7c-0.4,0.4-1,0.7-1.6,0.6
			c-1.3,0-2.4-1.2-2.4-2.5c0-0.9,0.5-1.8,1.4-2.2c-0.7-0.6-1.4-0.7-2.2-1.2c-1.2-0.8-1.6-1.6-2.5-2.8c-0.5-0.8-0.7-1.3-0.9-2.2
			c-0.3-0.9-0.5-1.9-0.5-2.9c0-0.3,0-0.5,0-0.8c0.3-2.3,0.7-3.7,2.2-5.5c0.9-1.1,1.4-1.7,2.7-2.3c1.1-0.5,1.7-0.8,2.9-0.8
			c0.3,0,0.6,0,0.9,0c0.5,0,0.9,0.2,1.4,0.4c0.2,0.1,0.5,0.4,0.5,0.2c0-0.2-0.1-0.4-0.1-0.6c0-1,0.7-1.9,1.7-1.9
			c0.7,0,1,0.6,1.3,1.2c0.2-0.3,0.3-0.7,0.3-1.1c0-1.6-0.9-2.4-1.9-3.7c-2.2-2.7-4.9-4-4.9-7.5c0-1,0.5-1.7,1.4-2.3
			c0.3-0.2,0.6,0,0.9-0.2c0.2-0.1,0.2-0.4,0.3-0.6c0.2-0.3,0.4-0.5,0.7-0.8c0.5-0.4,0.9-0.3,1.5-0.7c0.3-0.2,0.3-0.4,0.6-0.7
			c0.6-0.7,1.2-1.1,2.1-1.1c0.4,0,0.8,0,1.2,0.2c0.2,0.1,0.4,0.3,0.5,0.2c0.2-0.2,0.4-0.4,0.7-0.5c0.3-0.2,0.7-0.3,1-0.3
			c0.5,0,0.9,0.3,1.4,0.3c0.2,0,0.2-0.2,0.4-0.3c0.5-0.3,0.7-0.5,1.3-0.5c0.5,0,0.9,0.2,1.3,0.5c0.4,0.3,0.5,0.6,0.9,0.9
			c0.2,0.1,0.4,0.1,0.7,0.2c1.2,0.4,2.1,1.2,2.1,2.5c0,0.6-0.2,1.2-0.7,1.6c-0.4,0.4-0.8,0.3-1.3,0.5c1.7,1.3,3.1,1.7,5.3,1.7
			c2,0,4.4-0.8,4.4-2.8c0-0.9-0.5-1.4-0.9-2.2c-0.6-1.5-1-2.4-1-4c0-1.3,0.1-2.1,0.9-3.1C196.1,112.8,197.1,112.6,198.4,112.6
			L198.4,112.6L198.4,112.6z"/>
		<g class="st4">
			<path class="st5" d="M185.3,123.1c0.2,0.6,0.6,1,1.1,1.1c0.7,0.2,1.4-0.1,1.8-0.7c0.4-0.6,0.5-1.3,0.2-1.9
				c-0.2-0.4-0.4-0.8-0.8-1L185.3,123.1L185.3,123.1L185.3,123.1z"/>
			<path class="st6" d="M245.4,159.1c-0.6-1.3-2-0.7-2.1,0c-0.2,1.7,1.3,2.2,2.4,2c0.5-0.1,0.9-0.5,1.2-0.9c0.3-0.5,0.4-1.2,0.2-1.7
				c-0.2-0.5-0.5-1-1-1.3c-0.4-0.3-0.9-0.3-1.6-0.3c-2.6,0-4.9,3.1-5.6,6.3c-0.4,1.8-0.5,3.8-0.1,5.6c0.4,2,1.3,3.8,2.7,5.3
				c0.8,0.8,1.7,1.4,2.7,1.9c0.6,0.3,1.3,0.6,1.9,0.8c0.6,0.2,1.2,0.2,1.8,0c1.5-0.3,2.3-1.8,1.5-3.2c-0.6-1.2-2.5-1.9-3.4-0.3
				c-0.1,0.2-0.2,0.5-0.2,0.7c0,0.4,0.2,0.8,0.5,1.1c0.7,0.4,1.7,0.3,1.7-0.9"/>
			<path class="st7" d="M237.4,176.8c0.8-0.9,1.9-1.5,3.1-1.7c1.4-0.2,2.6,0.2,3.8,0.9c2.4,1.3,3.8,2.7,4.6,5.3
				c0.3,0.9,0.4,1.8,0.4,2.7c0,1.7-0.5,3.5-0.9,4.4c-0.4,0.8-1.4,4.2-7.2,6.5c-3.3,1.4-8.5,1.7-12,1.8c-4.9,0.2-9.3,0.4-11.9,3.6"/>
			<g>
				<path class="st8" d="M238.6,182.3c-0.1-0.5,0-1,0.4-1.6c0.5-0.7,1.7-1,2.7-0.4c0.5,0.2,0.9,0.6,1.2,1l0.5,0.7
					c0.2,0.4,0.4,0.8,0.5,1.2c1.1,3.3-0.7,6.8-3.1,8.2c-1.9,1.1-4.1,1.6-6.7,1.9c-1.2,0.1-1.9,0.1-3.1,0.2c-1,0-1.8,0-2.6,0l-1.9,0
					c-1.1,0-2.2,0-3.4,0c-1.4,0.1-2.4,0.1-3.5,0.3c-0.8,0.1-1.6,0.2-2.6,0.5c-0.3,0.1-0.6,0.1-0.8,0.2l-0.6,0.2
					c-1.6,0.4-3.1,1.1-4.6,1.9c-0.4,0.2-0.8,0.5-1.2,0.8c-0.2,0.2-0.4,0.4-0.6,0.6c-0.9,0.9-1.8,1.8-2,3.1c0,0.2,0,0.5,0,0.7
					c0,0.8,0.7,2,2.5,2.3 M212.4,124.7c0.4,0.7,0.6,1.1,0.4,1.8c-0.3,0.8-0.8,1.3-1.7,1.3c-1.9,0-3-2.2-2.1-3.6
					c1.5-2.5,4.3-1.1,7,0.1c-0.1-0.6-0.4-0.8-0.3-1.6c0.1-2,1.5-2.9,2.1-4.7c0.3-1.1,0.5-2-0.3-2.8c-0.7-0.7-1.5-0.7-2.4-0.3
					c-1.8,0.7-4,2.7-7.8,2.8c-3.8-0.1-6-2.1-7.8-2.8c-0.9-0.4-1.7-0.4-2.4,0.3c-0.8,0.8-0.7,1.7-0.3,2.8c0.6,1.8,2,2.7,2.1,4.7
					c0,0.8-0.2,1-0.3,1.6c2.7-1.2,5.6-2.8,7-0.1c0.8,1.5-0.3,3.6-2.1,3.6c-0.8,0-1.4-0.5-1.7-1.3c-0.2-0.6,0-1.3,0.4-1.8"/>
				<path class="st9" d="M205,123.4c0.7,0.5,1.2,1.2,1.1,2.3c-0.1,1.2-0.4,1.5-1.3,2.1 M206,126.1c0,0.7-0.4,1.3-1.1,1.5"/>
			</g>
		</g>
		<path class="st3" d="M187.3,120.4l0.3,0.2l0.3,0.4l0.2,0.5l0.1,0.4l0,0.5l0,0.3l-0.1,0.4l-0.2,0.3l-0.3,0.3l-0.4,0.2l-0.5,0.1
			l-0.4,0.1l-0.5-0.2l-0.4-0.3l-0.3-0.4l-0.2-0.5v-0.2L187.3,120.4L187.3,120.4L187.3,120.4z"/>
		<g class="st4">
			<path class="st10" d="M186.6,122.2c-0.1-0.8-1-0.9-1.4-0.5c-0.5,0.7-0.1,1.9,0.9,2.2c0.7,0.2,1.4-0.1,1.8-0.7
				c0.6-0.9,0.4-2.2-0.5-2.8l-0.1-0.1c-1.3-1-3.3-0.7-4,0.9c-0.9,2.1,1,3.7,2.8,4.9c2.2,1.5,4.7,1.8,6.6,1.7c4.3,0,7.5-2.1,9.6-3.3
				c0.5-0.3,1-0.2,1.3,0.1c0.3,0.4,0.3,1-0.1,1.3"/>
			<path class="st11" d="M173.9,180.1l-1,0.3l-1,0.7l-0.4,0.6l-0.5,0.9l-0.2,0.7l-0.2,0.9l-0.1,0.7 M179.4,180.2l-0.1,0.8l-0.1,0.6
				l-0.4,1l-0.7,0.9l-0.7,0.6l-0.5,0.3l-0.7,0.2"/>
			<path class="st12" d="M207.4,202.5c-0.2,0.8-0.9,1.7-2.5,2l-0.3,0.1"/>
			<path class="st13" d="M246.9,177.8c1,1,1.8,2.2,2.2,3.6c0.3,0.9,0.4,1.8,0.4,2.7c0,1.7-0.5,3.5-0.9,4.4c-0.4,0.8-1.4,4.2-7.2,6.5
				c-3.3,1.4-8.5,1.7-12,1.8c-4.8,0.2-9.2,0.4-11.8,3.4"/>
			<path class="st14" d="M239.1,180.9c0.4-0.5,1.6-1.1,2.7-0.5c0.4,0.2,0.8,0.6,1.1,1"/>
			<path class="st13" d="M245.7,176.7l0.7,0.2c0.6,0.2,1.2,0.2,1.8,0c1.3-0.4,2.2-1.6,1.5-3.2c-0.2-0.4-0.5-0.7-0.8-1"/>
			<path class="st10" d="M170.3,142.1c-0.9,0.5-1.5,0.7-2.2,1.5c-0.5,1-1,2.1-1.2,3.2 M188.4,122.6c0,0.8-0.6,1.3-1.4,1.5"/>
			<path class="st15" d="M243.6,138.5c2.2,0,8.6,1.7,8.7,9.2c0,7.5-4.6,8.7-6.5,9.2"/>
			<path class="st16" d="M244.2,138.5c3.8-0.2,7.7,2.6,7.9,9.6c0.1,5.5-3.7,7.9-5.6,8.4"/>
			<path class="st17" d="M242,164.8l0.1-0.7l0.2-1.2l0.4-0.9l0.4-0.8l0.5-0.6 M247.2,159l-0.1,0.7l-0.2,0.5l-0.3,0.5l-0.4,0.3
				l-0.6,0.2l-0.5,0l-0.4-0.1 M238.1,136.5l0.2-0.8l0.3-0.7l0.5-0.7l0.8-1l0.6-0.7l1-1l0.9-0.9l0.5-0.6l0.7-0.9l0.6-1l0.4-0.8l0.2-1
				l0.1-1.3l-0.1-0.4 M239.1,184.6l0.8-0.2l0.6-0.3l0.3-0.3l0.2-0.4l0.2-0.6l0-0.4 M167.2,176.8l0.6,0l0.7-0.1l0.7-0.3 M171.5,159.5
				l-0.1,0.7l-0.2,0.3l-0.2,0.3l-0.3,0.2l-0.3,0.2l-0.4,0.1l-0.3,0 M174.3,153.9l-0.2,1l-0.2,0.4l-0.4,0.6l-0.5,0.4l-0.6,0.3
				l-1.1,0.3 M178.5,138.3l-0.2,0.6l-0.3,0.4l-0.3,0.5l-0.5,0.4l-0.6,0.3l-0.5,0.1l-0.3,0 M176,137.8l0,0.5"/>
			<g>
				<path class="st18" d="M176.8,153.4c-0.3,0.3-0.6,0.5-1,0.6 M246.2,175c0,0,0.2,0.1,0.2,0.1c0.7,0.4,2-0.1,1.6-1.1"/>
				<path class="st19" d="M243.9,160.7c0.5,0.6,1.4,0.8,2.1,0.6c0.5-0.1,0.9-0.5,1.2-0.9c0.3-0.5,0.4-1.2,0.2-1.7
					c-0.1-0.3-0.2-0.5-0.4-0.8c-0.2-0.3-0.4-0.5-0.6-0.7c-0.1,0-0.1-0.1-0.2-0.1 M249.1,173c0.1-0.6-0.1-1.3-0.6-1.7
					c-0.1-0.1-0.3-0.3-0.4-0.4 M248.4,171.1c0-0.9-0.7-1.5-1.6-1.6 M244.8,170.8c-0.2-0.2-0.4-0.3-0.6-0.5c-1.3-1.3-2-3.1-2-5
					c0-1.9,0.8-3.9,1.7-4.7 M217.4,200.2l0.8-0.8l0.6-0.4l1.1-0.7l1-0.5l0.7-0.2l1.4-0.3l1.7-0.3 M211,206.1c-0.6,0.9-2,2.3-3.6,2.9
					c-1.5-0.6-3-2-3.6-2.9"/>
				<path class="st18" d="M204.9,204.2c-0.2,0.7-0.5,1.4-1,1.9"/>
				<path class="st19" d="M205.1,203.2l-0.2,1 M203.8,206.2l-0.4,0.4l-0.8,0.4l-0.9,0.3 M199,124.2c0.2-0.4,0.2-0.8,0.2-1.2
					c-0.1-2-1.5-2.9-2.1-4.7c-0.3-1.1-0.5-2,0.3-2.8c0.7-0.7,1.5-0.7,2.4-0.3c1.8,0.7,4,2.7,7.8,2.8c-3.8-0.1-6-2.1-7.8-2.8
					c-0.9-0.4-1.8-0.5-2.5,0.2c-0.8,0.8-0.6,1.8-0.2,2.9c0.6,1.8,2,2.7,2,4.7c0,0.4-0.1,0.8-0.2,1.2 M207.6,117.9
					c3.7-0.2,7-2.7,8-2.9c0.9-0.2,1.4-0.1,2.1,0.5c-0.7-0.6-1.4-0.6-2.3-0.3c-1.8,0.7-4,2.7-7.8,2.8 M244.8,170.8
					c-1.8-1.4-2.9-3.5-2.9-5.8c0-1.9,0.8-3.9,1.7-4.7 M210.9,206c-0.6,0.9-2,2.3-3.6,2.9c-1.5-0.6-3-2-3.6-2.9"/>
				<path class="st18" d="M201.3,125.2l1.1-0.6c0.5-0.3,1.1-0.2,1.3,0.1c0.3,0.4,0.3,1-0.1,1.3"/>
				<path class="st19" d="M195.7,127.8c2.6-0.5,4.7-1.7,6.2-2.6 M217.1,202c0.1,0.1,0.3,0.3,0.3,0.4c0.1,0.1,0.1,0.3,0.2,0.4
					c0.1,0.5-0.2,1.1-0.8,1.2c-0.1,0-0.1,0-0.2,0c-0.7,0.1-1.4-0.3-1.6-0.9 M195.6,127.7c2.6-0.5,4.7-1.7,6.2-2.6 M247.4,175.1
					c-0.5,0.2-0.8,0.2-1.4-0.1c-0.2-0.1-0.5-0.3-0.9-0.5c-1.2-0.7-2.6-1.7-3.9-4.2c-0.4-0.7-0.6-1.4-0.8-2.1c-0.1-0.5-0.2-1-0.2-1.6
					c0-1,0.1-2,0.3-2.9c0.3-1.5,0.9-3,1.9-4.2c0.5-0.7,1-1.2,2-1.2 M177.3,139.9c0.8,0.7,1.3,1.6,1.2,2.7c0,1.4-1.2,3.8-4.2,4.6
					c-1,0.3-2.1,0.2-3-0.4 M177.8,144.8c0.5,0.3,0.8,0.9,0.7,1.5c0,0.5-0.3,1.1-0.9,1.8c-1.1,1.2-2.5,1.8-4.1,1.9
					c-1,0-2-0.3-2.8-0.8c-0.9-0.6-1.5-1.5-1.8-2.5"/>
				<path class="st19" d="M177.7,147.9c0.6,0.6,0.8,1.3,0.8,2.1c0,1.3-0.5,2.3-1.7,3.3c-0.3,0.2-0.6,0.5-0.9,0.7 M236.4,143.7v1.7
					 M236.2,143.3v2.3 M236.4,138.3v3 M236.2,137.6v4.2 M235.4,180.1c-0.5,1-1.1,1.9-2,2.7c-0.8,0.8-1.7,1.4-2.7,1.9
					c-1,0.5-2,0.8-3.1,1c-1.1,0.2-2.1,0.4-3.2,0.4c-1,0-2,0-3-0.1c-1.2-0.1-1.9-0.3-3.2-0.4c-0.9-0.1-1.7-0.2-2.6-0.2
					c-0.9,0-1.8,0-2.7,0.2c-0.8,0.1-1.6,0.4-2.4,0.7c-1.3,0.5-2.7,1.4-3,1.8c-0.3-0.4-1.7-1.3-3-1.8c-0.8-0.3-1.6-0.5-2.4-0.7
					c-0.9-0.2-1.8-0.2-2.7-0.2c-0.9,0-1.7,0.1-2.6,0.2c-1.2,0.1-1.9,0.3-3.2,0.4c-1,0.1-2,0.1-3,0.1c-1.1,0-2.2-0.2-3.2-0.4
					c-1.1-0.2-2.1-0.5-3.1-1c-1-0.5-1.9-1.1-2.7-1.9l-0.3-0.3 M201.2,207.4l0.8-0.1 M216.2,206.2l0.8-0.1l0.8-0.3l0.6-0.3l0.8-0.9
					l0.2-0.3l0.1-0.8l0-0.4 M241.4,139.2c0.4-1.2-0.1-2.5-1.3-2.5 M178.5,158.4c-0.3,0.9-0.9,1.7-1.7,2.2 M178.5,138.8
					c-0.3,0.8-0.9,1.5-1.7,1.9c-0.9,0.4-1.9,0-2.4-0.4"/>
				<path class="st18" d="M172,143.3c0.7,0.4,1.4-0.2,1.3-1.1c-0.1-0.6-0.6-1-1.2-1"/>
				<path class="st19" d="M174.9,182.7c0.2,0.1,0.2,0.3,0.4,0.4c0.3,0.1,0.6,0.2,0.9-0.2c0.4-0.5,0.2-1.3-0.2-1.8
					c-0.7-0.7-1.8-0.9-2.7-0.4c-0.5,0.2-0.9,0.6-1.2,1l-0.5,0.7c-0.2,0.4-0.4,0.8-0.5,1.2c-1,2.7,0.2,5.6,1.9,7.3"/>
				<path class="st18" d="M217,201.9c0.1,0.1,0.2,0.2,0.3,0.4c0.1,0.1,0.1,0.3,0.1,0.4c0.1,0.5-0.2,1.1-0.8,1.2c-0.1,0-0.1,0-0.2,0
					c-0.7,0.1-1.3-0.3-1.6-0.9"/>
				<path class="st19" d="M240,121.1c1.6,0.3,2.9,1.6,2.9,3.3c0,2.1-0.7,2.8-1.8,4.3c-1.2,1.6-5,4.5-5,7.8c0,2,0.6,3.3,2,3.9
					c0.9,0.4,2,0,2.5-0.5c1.2-1.1,0.7-3-0.5-3.2c-1.5-0.3-1.8,2.1-0.3,2 M248.1,170.9c-0.1-0.9-1-1.6-1.9-1.4
					c-0.9,0.1-1.5,0.9-1.5,1.7c0,0.5,0.2,0.9,0.5,1.2 M237.4,139.9c-0.8,0.7-1.3,1.6-1.2,2.7c0,1.4,1.2,3.8,4.2,4.6
					c1.1,0.3,2.2,0.3,2.9-0.1 M170.4,142.3c-0.9,0.3-1.7,0.8-2.3,1.6c-0.6,0.8-0.9,1.9-1.1,2.8c-0.2,1-0.1,2.1,0.1,3.1
					c0.2,0.9,0.6,1.8,1.1,2.6c0.1,0.2,0.3,0.4,0.5,0.6c0.2,0.1,0.3,0.3,0.5,0.4 M199.1,196.5c2.3,1,3.9,1.8,5.3,4
					c0.4,0.7,0.6,1.5,0.6,2.3c0,1.4-0.6,2.6-1.6,3.6c-0.8,0.8-2,1.1-3.1,1c-0.9-0.1-1.7-0.7-1.9-1.2 M176.7,153.5
					c1.3,1,1.8,2,1.8,3.5c0.1,1.4-0.7,2.7-1.9,3.5"/>
				<path class="st18" d="M175.6,159.2c1.9,2.4,2.9,3.8,3,6.6c0.1,2.7-0.8,4.5-2.4,6.4"/>
				<path class="st19" d="M212.1,127.9c0.4-0.3,0.6-0.6,0.7-1c0.2-0.7,0.2-1.3-0.1-1.8c0.5,0.6,0.5,1.1,0.4,1.8
					c-0.1,0.5-0.4,0.7-0.7,1 M236.4,168.1v7.5h0c0,0.4,0,0.8-0.1,1.2l-0.1,0.8"/>
				<path class="st19" d="M236.2,167.4v8.1h0c0,0.4,0,0.8-0.1,1.2l-0.2,1.2 M236.2,157.9v6.8 M236.4,158.4v5.5 M236.4,151.4v4.1
					 M236.2,150.9v5.1 M236.4,147.2v1.6 M236.2,146.8v2.3 M235.4,179.6l-0.2,0.3c-0.5,1-1.1,1.9-2,2.7c-0.8,0.8-1.7,1.4-2.7,1.9
					c-1,0.5-2,0.8-3.1,1c-1.1,0.2-2.1,0.4-3.2,0.4c-1,0-2,0-3-0.1c-1.2-0.1-1.9-0.3-3.2-0.4c-0.9-0.1-1.7-0.2-2.6-0.2
					c-0.9,0-1.8,0-2.7,0.2c-0.8,0.1-1.6,0.4-2.4,0.7c-1.3,0.5-2.7,1.4-3,1.8c-0.3-0.4-1.7-1.3-3-1.8c-0.8-0.3-1.6-0.5-2.4-0.7
					c-0.9-0.2-1.8-0.2-2.7-0.2c-0.9,0-1.7,0.1-2.6,0.2c-1.2,0.1-1.9,0.3-3.2,0.4c-1,0.1-2,0.1-3,0.1c-1.1,0-2.2-0.2-3.2-0.4
					c-1.1-0.2-2.1-0.5-3.1-1c-1-0.5-1.9-1.1-2.7-1.9c-0.4-0.4-0.8-0.8-1.2-1.3 M179.6,179.8c0.2,1.3-0.2,2.6-1.1,3.6
					c-0.4,0.4-1.3,1.2-2.3,1.2c-1.8,0-2.3-1.2-2.4-1.5 M177.5,179c0.3,0.3,0.6,0.7,0.9,1.2c0.4,0.8,0.3,2.2,0,2.9
					c0,0.1-0.1,0.2-0.1,0.2 M168.7,191.7c1.1,1.1,2.6,2.3,5.1,3.3c3.3,1.4,8.5,1.7,12,1.8c4.7,0.2,9,0.4,11.7,3.3 M205.5,198.3
					c0.8,0.8,1.6,1.6,1.9,2.6 M204,206.2c-0.9,0.9-2.2,1.4-3.4,1.3c-0.8-0.1-1.5-0.5-2-1.2 M196.1,204.9c0,0.1,0.1,0.1,0.1,0.2
					c0.6,0.7,1.5,1.1,2.4,1.1 M211.2,206.2c-0.6,0.9-2,2.3-3.6,2.9c-1.5-0.6-3-2-3.6-2.9l-0.1-0.2 M211.2,206.2
					c0.1,0.1,0.2,0.2,0.3,0.3c0.8,0.8,2,1.1,3.1,1c0.8-0.1,1.5-0.5,1.9-1.2c0.1-0.1,0.2-0.2,0.2-0.3"/>
				<path class="st19" d="M216.4,206l-0.3,0.6l-0.5,0.4l-0.8,0.3l-0.7,0"/>
				<path class="st19" d="M218.3,200.7c0.5,0.4,0.8,0.8,1.1,1.4c0.1,0.4,0.2,0.7,0.2,1.1c0,0.7-0.2,1.4-0.7,1.9
					c-0.6,0.7-1.6,1.1-2.5,1.2h-0.2 M216.3,206.1c-0.9,0-1.8-0.3-2.4-1 M243.6,173.4c-0.9-0.9-1.7-1.9-2.2-3
					c-0.4-0.7-0.6-1.4-0.8-2.1c-0.1-0.5-0.2-1-0.2-1.6c0-1,0.1-2,0.3-2.9c0.3-1.5,0.9-3,1.9-4.2c0.3-0.4,0.6-0.7,1-1 M242.9,123.2
					c1.2,0.1,2.3,1.4,2.3,2.6c0,1.8-0.6,2.6-2.1,4.3c-1.2,1.5-4.9,4.2-4.8,6.8c0.1,0.5,0.2,0.9,0.5,1.3 M237.3,139.9
					c0.3,0.3,0.6,0.5,1,0.6c0.7,0.3,1.4,0.2,2-0.1 M230.4,120.2c0.4,0.3,0.8,0.7,1,1.2c0.9,2.1-1,3.7-2.8,4.9
					c-1.2,0.8-2.5,1.3-3.9,1.5 M228.4,124.2c-0.6,0-1.1-0.3-1.5-0.7c-0.1-0.1-0.2-0.3-0.3-0.5 M219.6,125.4
					c-0.2-0.1-0.4-0.3-0.6-0.4c-0.5-0.5-0.7-1.4-0.4-2c0.3-0.9,1.7-3.4,1.8-5.1c0.1-2.6-0.9-4.2-2.5-4.8"/>
				<path class="st18" d="M220.3,117.2l-0.1,1l-0.3,1l-0.5,1.4l-0.4,0.9l-0.4,0.9l-0.2,0.6l-0.1,0.5l0.1,0.4 M236.2,182.8
					c0.1,0.1,0.2,0.3,0.3,0.4c0.3,0.5,1.5,1.4,2.5,1.4c1.8,0,2.2-1.2,2.2-1.5c0.2-1.3-0.2-1.7-0.9-2.1c-0.3-0.1-0.6-0.2-0.9-0.1"/>
				<path class="st19" d="M168.7,176.9c-0.6,0.2-1.2,0.2-1.7,0c-1.3-0.4-2.4-1.7-1.8-3.2 M171.4,158.8c0.1,0.1,0.2,0.3,0.2,0.5
					c0.2,1.7-1.3,2.2-2.4,1.9c-0.6-0.2-1.1-0.6-1.4-1.1c-0.2-0.3-0.3-0.7-0.3-1.1 M177.9,148.1c0.3,0.2,0.4,0.5,0.6,0.8
					 M177.9,144.9c0.2,0.2,0.4,0.4,0.5,0.6"/>
				<path class="st18" d="M178.5,147.1c-0.2,0.4-0.4,0.8-0.7,1.1c-1.1,1.2-2.5,1.8-4.1,1.9c-1,0-2-0.3-2.8-0.8
					c-0.9-0.6-1.6-1.5-1.9-2.6"/>
				<path class="st19" d="M177.4,140c0.5,0.4,0.9,1,1.1,1.6"/>
				<path class="st18" d="M178.5,143.7c-0.6,1.8-2.1,3.2-4,3.7c-1.1,0.3-2.6-0.1-3.1-0.5"/>
				<path class="st19" d="M170.2,143.4c0.1,1.2,0.9,2.2,2.5,2.2c2.2,0,3.5-3.2,1.6-5.4"/>
				<path class="st18" d="M165.2,154.1c0.3,0.4,0.7,0.8,1.1,1.1c0.8,0.7,1.8,1.2,2.8,1.5 M171.6,157c2-0.2,3.1-1.7,2.9-3.4
					c-0.2-1.3-1.4-2.3-2.2-2.4"/>
				<path class="st19" d="M174.8,136.6c0.7,0,1.3,0.6,1.3,1.3l0,0.1"/>
				<path class="st18" d="M174.6,125c0.4,1.2,1.3,2.1,2.4,2.7 M244.3,142.1c0.8,1.1,0.3,3.3-1.9,3.3c-0.8,0-1.6-0.4-2.1-1.2"/>
				<path class="st19" d="M236.4,127.8v7.4"/>
				<path class="st18" d="M171.9,143.3c0.7,0.5,1.5-0.3,1.2-1.2c-0.2-0.6-1.1-1.2-2.2-0.4c-1.3,0.9-0.9,3.6,1.5,3.7
					c2.2,0,3.5-3.2,1.6-5.4c-1.9-2.2-5.3-1.7-7.5,0.1c-1.7,1.4-2.8,3.3-3.3,5.4c-0.2,0.8-0.3,1.6-0.3,2.4c0,1.9,0.6,3.8,1.7,5.5
					c0.2,0.3,0.4,0.5,0.6,0.8c0.3,0.3,0.6,0.6,0.9,0.9c1.3,1.1,2.9,1.9,4.9,1.8c2.2-0.1,3.4-1.6,3.2-3.4c-0.2-1.8-2-2.6-3.2-1.8
					c-0.8,0.6-1.1,2.3,0.3,2.7c0.8,0.2,1.5-0.8,0.9-1.3 M232.8,119.2c1.3-0.7,2.2-0.6,3,0.4c0.7,1,0.9,2.2,0.7,3.4
					c-0.3,1.3-0.6,1.8-1.6,2.7 M235.8,119.8c1.4-1,3-0.5,3.9,0.7c0.6,0.9,0.8,1.7,0.7,2.9c-0.1,1.8-1.1,3.4-2.7,4.3"/>
				<path class="st19" d="M242.6,123.1c1.2,0.1,2.2,1.2,2.1,2.4c0,1.8-0.5,2.6-1.9,4.3c-1.2,1.5-4.9,4.2-4.8,6.8
					c0,1,0.9,1.9,1.6,1.9"/>
				<path class="st18" d="M242.8,143.3c-0.7,0.5-1.5-0.3-1.2-1.1c0.3-0.6,1-1.3,2.2-0.5c1.3,0.9,0.9,3.6-1.5,3.7
					c-2.2,0-3.7-3.1-1.6-5.4c1.9-2.1,5.5-1.7,7.7,0.1c0.9,0.8,2.9,2.8,3.3,5.6c0.5,3.3,0.4,7.3-3,9.8c-1.5,1-3.2,1.5-4.9,1.4
					c-2.2-0.1-3.4-1.6-3.2-3.4c0.2-1.8,1.9-2.5,3.2-1.8c1.3,0.7,1.1,2.5-0.3,2.7c-0.8,0.1-1.5-0.8-0.9-1.3"/>
				<path class="st19" d="M241.6,142.2c0.4-1.6,1.8-1.8,2.9-1.8c3.1,0,5.2,3.7,5.2,7.2c0,4.5-1.9,7.1-5.2,7.2
					c-0.8,0-2.3-0.4-2.3-1.4"/>
				<path class="st20" d="M243.5,141.4c3.2,0.7,4.4,3.6,4.4,6.4c0,2.3-0.2,5.4-4.7,6.5"/>
				<path class="st19" d="M248.8,172.7c0.2-1-0.5-1.9-1.5-2.1c-1-0.2-1.9,0.5-2.1,1.5c-0.1,0.7,0.1,1.3,0.7,1.8"/>
				<g>
					<path class="st18" d="M242.3,170c0.7,1.2,1.7,2.1,2.9,2.8 M244.7,177.6c-1.5-1-4.4-2.3-7.1-1c-1,0.5-1.6,1.1-2,2
						c-0.5,1.5-0.2,3.2,0.8,4.5c0.4,0.4,1.3,1.2,2.3,1.2c1.8,0,2.2-1.2,2.2-1.5c0.2-1.3-0.5-1.8-0.9-1.9c-0.3-0.1-1.3-0.1-1.5,0.6
						c-0.1,0.3-0.1,0.7,0.1,0.9"/>
					<path class="st18" d="M217.1,202.2c0.5,1-0.1,1.5-0.7,1.6c-1,0.1-1.5-0.7-1.6-1.4c-0.1-1.1,0.8-2.1,1.9-2.2l0.2,0
						c1,0,1.9,0.7,2.3,1.6c0.1,0.4,0.2,0.7,0.2,1.1c0,0.7-0.2,1.4-0.7,1.9c-0.6,0.7-1.6,1.1-2.5,1.2c-2,0.1-3.5-1.8-3.5-3.6
						c0-3.6,5.3-5.6,7.5-6.1c2.6-0.6,4.2-0.9,8.4-1.1c1.7-0.1,2.9,0,4.7-0.2c1.4-0.1,2.8-0.3,4.2-0.6c2.2-0.5,4.2-1.5,5.9-3
						c1.4-1.2,2.1-2.1,2.8-3.8c0.5-1.5,0.8-4.4-0.6-6.5c-1.1-1.7-2.8-2.9-4.8-3.2c-1.7-0.3-3.3,0.5-4.2,2.2c-0.4,0.8-0.3,2.2,0,2.9
						c0.5,0.8,1.3,1.3,2.2,1.4c1.8,0,2.2-1.2,2.2-1.5c0.2-1.3-0.5-1.8-0.9-1.9c-0.3-0.1-1.3-0.1-1.5,0.6c-0.1,0.3-0.1,0.7,0.1,0.9
						 M215.6,196.5c-2.3,1-3.9,1.8-5.3,4c-0.4,0.7-0.6,1.5-0.6,2.3c0,1.4,0.6,2.6,1.6,3.6c0.8,0.8,2,1.1,3.1,1
						c0.9-0.1,1.7-0.7,1.9-1.2"/>
				</g>
				<path class="st19" d="M238,153.5c-1.1,0.4-1.8,2-1.8,3.5c-0.1,1.4,0.7,2.7,1.9,3.5"/>
				<path class="st18" d="M239.1,159.2c-1.9,2.4-2.9,3.8-3,6.6c-0.1,2.7,0.8,4.5,2.4,6.4"/>
				<path class="st19" d="M229,119.8l0.2-0.2c0.8-1.2,2.2-1.5,3.2-0.7c1.2,0.9,1.5,2.5,1.2,4.2c-0.3,1.1-0.9,2-1.9,2.5"/>
				<path class="st18" d="M181.9,119.2c-1.2-0.6-2.2-0.5-3,0.4c-0.9,1-0.9,2.5-0.7,3.4c0.3,1.3,0.6,1.8,1.6,2.7"/>
				<path class="st19" d="M178.9,119.8c-1.4-1-3-0.5-3.9,0.7c-0.6,0.9-0.8,1.7-0.7,2.9c0.1,1.8,1.1,3.4,2.7,4.3"/>
				<path class="st19" d="M174.7,121.1c-1.6,0.2-2.8,1.5-2.8,3.1c0,2.1,0.5,2.9,1.7,4.5c1.2,1.6,5,4.5,5,7.8c0,2-0.6,3.3-2,3.9
					c-0.9,0.4-2,0-2.5-0.5c-1.2-1.1-0.7-3,0.5-3.2c1.5-0.3,1.8,2.1,0.3,2 M172.1,123.1c-1.2,0.1-2.4,1.1-2.4,2.4
					c0,1.8,0.7,2.6,2.1,4.4c1.2,1.5,4.7,4.2,4.6,6.8c0,1-0.7,2.2-1.3,2"/>
				<path class="st18" d="M169.3,159.1c0.6-1.3,2-0.7,2.1,0c0.2,1.7-1.3,2.2-2.4,2c-0.5-0.1-0.9-0.5-1.2-0.9
					c-0.3-0.5-0.4-1.2-0.2-1.7c0.1-0.3,0.2-0.5,0.4-0.8c0.2-0.2,0.4-0.4,0.6-0.6c0.4-0.3,0.9-0.3,1.6-0.3c2.6,0,4.9,3.1,5.6,6.3
					c0.4,1.8,0.5,3.8,0.1,5.6c-0.4,2-1.3,3.8-2.7,5.3c-0.8,0.8-1.7,1.4-2.7,1.9c-0.6,0.3-1.3,0.6-1.9,0.8c-0.6,0.2-1.2,0.2-1.8,0
					c-1.3-0.4-2.2-1.6-1.5-3.2c0.5-1.2,2.5-1.9,3.4-0.3c0.1,0.2,0.2,0.5,0.2,0.7c0,0.4-0.2,0.8-0.5,1.1c-0.7,0.4-1.7,0.3-1.7-0.9"/>
				<path class="st19" d="M167.3,175.1c0.5,0.2,0.8,0.2,1.4-0.1c0.2-0.1,0.5-0.3,0.9-0.5c1.2-0.7,2.6-1.7,3.9-4.2
					c0.4-0.7,0.6-1.4,0.8-2.1c0.1-0.5,0.2-1,0.2-1.6c0-1-0.1-2-0.3-2.9c-0.3-1.5-0.9-3-1.9-4.2c-0.5-0.7-1-1.2-2-1.2 M165.8,172.7
					c-0.2-1,0.5-1.9,1.5-2.1c1-0.2,1.9,0.5,2.1,1.5c0.1,0.7-0.1,1.3-0.7,1.8 M166.5,170.9c0.1-0.9,1-1.6,1.9-1.4
					c0.9,0.1,1.5,0.9,1.5,1.7c0,0.5-0.2,0.9-0.5,1.2"/>
				<path class="st19" d="M169.9,170.8c1.8-1.4,2.9-3.5,2.9-5.8c0-1.9-0.8-3.9-1.7-4.7"/>
				<path class="st18" d="M172.4,170c-0.7,1.2-1.7,2.1-2.9,2.8"/>
				<path class="st19" d="M177,176.6c-0.4-1-1.3-1.5-2.7-1.6c-1.4-0.1-2.6,0.2-3.8,0.9c-2.4,1.3-3.8,2.7-4.6,5.3
					c-0.3,0.9-0.4,1.8-0.4,2.7c0,1.7,0.5,3.5,0.9,4.4c0.4,0.8,1.4,4.2,7.2,6.5c3.3,1.4,8.5,1.7,12,1.8c4.9,0.2,9.3,0.4,11.9,3.6"/>
				<path class="st18" d="M170,177.6c1.5-1,4.4-2.3,7.1-1c1,0.5,1.6,1.1,2,2c0.5,1.5,0.2,3.2-0.8,4.5c-0.4,0.4-1.3,1.2-2.3,1.2
					c-1.8,0-2.2-1.2-2.2-1.5c-0.2-1.3,0.5-1.8,0.9-1.9c0.3-0.1,1.3-0.1,1.5,0.6c0.1,0.3,0.1,0.7-0.1,0.9"/>
				<path class="st19" d="M176.1,182.3c0.2-0.6,0-1.1-0.4-1.6c-0.7-0.7-1.8-0.9-2.7-0.4c-0.5,0.2-0.9,0.6-1.2,1l-0.5,0.7
					c-0.2,0.4-0.4,0.8-0.5,1.2c-1.1,3.3,0.7,6.7,3.1,8.2c2,1.3,4.1,1.7,6.7,1.9c1.2,0.1,1.9,0.1,3.1,0.2c1,0,1.8,0,2.6,0l1.9,0
					c1.1,0,2.2,0,3.4,0c1.4,0.1,2.4,0.1,3.5,0.3c0.8,0.1,1.6,0.2,2.6,0.5c0.3,0.1,0.6,0.1,0.8,0.2l0.6,0.2c1.6,0.4,3.1,1.1,4.6,1.9
					c0.4,0.2,0.8,0.5,1.2,0.8c0.2,0.2,0.4,0.4,0.6,0.6c0.9,0.9,1.8,1.8,2,3.1c0,0.2,0,0.5,0,0.7c0,0.8-0.7,2-2.5,2.3"/>
				<path class="st19" d="M197.6,202.2c-0.5,1,0.1,1.5,0.7,1.6c1,0.1,1.5-0.7,1.6-1.4c0.1-1.1-0.8-2.1-1.9-2.2l-0.2,0
					c-1,0-1.9,0.7-2.3,1.6c-0.1,0.4-0.2,0.7-0.2,1.1c0,0.7,0.2,1.4,0.7,1.9c0.6,0.7,1.6,1.1,2.5,1.2c2,0.1,3.5-1.8,3.5-3.6
					c0-3.6-5.3-5.6-7.5-6.1c-2.6-0.6-4.2-0.9-8.4-1.1c-1.7-0.1-2.9,0-4.7-0.2c-1.4-0.1-2.8-0.3-4.2-0.6c-2.2-0.5-4.2-1.5-5.9-3
					c-1.4-1.2-2.1-2.1-2.8-3.8c-0.5-1.5-0.8-4.4,0.6-6.5c1.1-1.7,2.8-2.9,4.8-3.2c1.7-0.3,3.3,0.5,4.2,2.2c0.4,0.8,0.3,2.2,0,2.9
					c-0.5,0.8-1.3,1.3-2.2,1.4c-1.8,0-2.2-1.2-2.2-1.5c-0.2-1.3,0.5-1.8,0.9-1.9c0.3-0.1,1.3-0.1,1.5,0.6c0.1,0.3,0.1,0.7-0.1,0.9"
					/>
				<path class="st18" d="M185.7,119.8l-0.2-0.2c-0.8-1.2-2.2-1.5-3.2-0.7c-1.2,0.9-1.5,2.5-1.2,4.2c0.3,1.1,0.9,2,1.9,2.5"/>
				<path class="st19" d="M229.4,123.3c-1.9,2-3.8,2.7-6.6,2.8c-0.9,0-2.6-0.3-3.5-1c-0.6-0.4-1.3-1.2-0.9-2.5
					c0.3-0.9,1.7-3.4,1.8-5.1c0.1-2.6-0.9-4.1-2.5-4.6c-2.9-1-6.1,1.9-8,2.5c-0.8,0.3-1.6,0.4-2.4,0.4c-0.8,0-1.6-0.1-2.4-0.4
					c-1.9-0.6-5-3.5-8-2.5c-1.6,0.6-2.6,2-2.5,4.6c0.1,1.7,1.5,4.2,1.8,5.1c0.4,1.3-0.3,2.1-0.9,2.5c-1,0.7-2.7,1-3.5,1
					c-2.8-0.1-4.7-0.7-6.6-2.8"/>
				<path class="st18" d="M197,195.7c0.4,0.1,0.1-0.1,2.5,1c2.3,1,3.9,1.9,5.3,4.1c0.4,0.7,0.6,1.5,0.6,2.3c0,0.4,0,0.8-0.1,1.1"/>
				<path class="st19" d="M197.1,205.8c0.5,0.2,1,0.4,1.5,0.4c2,0.1,3.5-1.8,3.5-3.6c0-1.3-0.7-2.4-1.7-3.3"/>
				<path class="st18" d="M197.5,202.2c-0.5,1.1,0.2,1.6,0.9,1.7c0.8,0.1,1.5-0.5,1.6-1.3c0,0,0,0,0,0l0-0.1c0.1-0.8-0.3-1.5-1-1.9"
					/>
				<path class="st19" d="M240.3,121.1c1.5,0,2.8,1.7,2.8,3.4c0,2-1.1,3.2-1.8,4.1c-0.6,0.7-1.3,1.4-2.1,2.2"/>
				<path class="st18" d="M238.5,119.5c0.5,0.3,1,0.7,1.3,1.1c0.6,0.9,0.8,1.7,0.7,2.9c-0.1,2-1.5,3.3-2.8,4.2 M235.6,119.5
					c0.1,0.1,0.2,0.2,0.3,0.3c0.9,1,0.9,2.5,0.7,3.4c-0.3,1.3-0.7,1.8-1.7,2.6 M232.5,119c1.2,0.9,1.6,2.5,1.2,4.2
					c-0.3,1.2-1,1.9-2,2.5 M236.9,144.8c0.1,0.4,0.4,0.6,0.7,0.9c0.8,0.8,1.8,1.4,2.9,1.6c1,0.3,2.1,0.1,3-0.4 M167.3,172.2
					c0.6,0,1.2,0.4,1.5,1c0.1,0.2,0.2,0.5,0.2,0.7c0,0.4-0.2,0.8-0.5,1c-0.7,0.4-1.9,0.2-1.8-0.9"/>
				<path class="st19" d="M170.9,156.8c2.3,0.4,4.5,3.2,5.2,6.2c0.4,1.8,0.5,3.8,0.1,5.6c-0.4,2-1.3,3.8-2.7,5.3
					c-0.3,0.3-0.6,0.6-1,0.9l-0.5,0.3 M168.3,169.5c0.9,0,1.8,0.9,1.8,1.9c0,0.5-0.2,0.9-0.5,1.2 M167.7,170.6c1,0.1,1.9,0.9,1.9,2
					c0,0.6-0.3,1.1-0.7,1.4"/>
				<path class="st18" d="M176.7,160.6c0.9,1.2,1.5,2.3,1.8,3.6 M178.5,168.2c-0.1,0.7-0.4,1.3-0.7,1.9c-0.4,0.8-1,1.5-1.7,2.2"/>
				<path class="st19" d="M176.8,153.6c0.8,0.5,1.4,1.3,1.6,2.2"/>
				<path class="st18" d="M178.5,151.3c-0.2,0.8-0.7,1.4-1.6,2.2 M172.7,145.4l1-0.3l0.6-0.5l0.4-0.5l0.3-0.8l0.1-0.7"/>
				<path class="st19" d="M170.6,141.9c-0.4,0.1-0.8,0.2-1.1,0.4c-0.7,0.3-1.2,0.8-1.6,1.4c-0.6,0.8-0.9,1.9-1.1,2.8
					c-0.2,1-0.1,2.1,0.1,3.1c0.2,0.9,0.6,1.8,1.1,2.6c0.1,0.2,0.3,0.4,0.5,0.6c0.6,0.6,1.2,1,2.1,0.8"/>
				<path class="st18" d="M176.3,137.4c-0.2,0.6-0.5,1.3-1.4,1.3"/>
				<path class="st19" d="M172.8,141.5c-0.9-0.9-2.8-1.1-4.7,0.1c-0.3,0.2-0.5,0.4-0.7,0.6c-0.3,0.2-0.5,0.5-0.7,0.7
					c-0.2,0.4-0.5,0.7-0.7,1.1c-0.2,0.4-0.3,0.8-0.4,1.2c-0.3,1-0.4,1.9-0.3,2.9c0.1,0.5,0.1,0.9,0.2,1.3c0.2,1,0.5,2,1,2.9
					c0.4,0.7,1.5,2.3,3.6,2.5c0.8,0.1,2.3-0.3,2.3-1.4"/>
				<path class="st18" d="M228,122.1c0.1-0.8,1.1-0.9,1.4-0.5c0.5,0.7,0.2,1.9-0.9,2.3c-0.7,0.2-1.4-0.1-1.8-0.7
					c-0.6-0.9-0.4-2.2,0.5-2.8l0.1-0.1c1.3-1,3.3-0.7,4,0.9c0.9,2.1-1,3.7-2.8,4.9c-2.2,1.5-4.7,1.8-6.6,1.7c-4.3,0-7.5-2.1-9.6-3.3
					c-0.5-0.3-1-0.2-1.3,0.1c-0.3,0.4-0.3,1,0.1,1.3 M228.9,121.4c0.3,0,0.6,0.1,0.7,0.4c0.5,0.7,0.1,1.9-0.9,2.3 M237,148.1
					c-1.6,1.8-0.1,4.8,1.1,5.5c0.4,0.3,0.6,0.2,0.9,0.4"/>
				<path class="st19" d="M237,144.7c-0.5,0.4-0.7,0.8-0.7,1.5c-0.1,0.7,0.2,1.4,0.7,1.9c0.9,0.9,2.6,1.7,4.3,1.8c1,0,2-0.3,2.8-0.8
					c0.9-0.6,1.5-1.5,1.8-2.5 M236.1,175.4c0,0.4,0,0.8-0.1,1.2c-0.3,2.2-1.3,4.3-2.9,5.9c-0.8,0.8-1.7,1.4-2.7,1.9
					c-1,0.5-2,0.8-3.1,1c-1.1,0.2-2.1,0.4-3.2,0.4c-1,0-2,0-3-0.1c-1.2-0.1-1.9-0.3-3.2-0.4c-0.9-0.1-1.7-0.2-2.6-0.2
					c-0.9,0-1.8,0-2.7,0.2c-0.8,0.1-1.6,0.4-2.4,0.7c-1.3,0.5-2.7,1.4-3,1.8c-0.3-0.4-1.7-1.3-3-1.8c-0.8-0.3-1.6-0.5-2.4-0.7
					c-0.9-0.2-1.8-0.2-2.7-0.2c-0.9,0-1.7,0.1-2.6,0.2c-1.2,0.1-1.9,0.3-3.2,0.4c-1,0.1-2,0.1-3,0.1c-1.1,0-2.2-0.2-3.2-0.4
					c-1.1-0.2-2.1-0.5-3.1-1c-1-0.5-1.9-1.1-2.7-1.9c-1.6-1.6-2.7-3.6-2.9-5.9c0-0.4-0.1-0.8-0.1-1.2v-47.5h57.6L236.1,175.4
					L236.1,175.4L236.1,175.4L236.1,175.4z"/>
			</g>
		</g>
		<g class="st4">
			<path class="st21" d="M173.9,182.2c0-0.6,0.5-1.2,1.2-1.2c0.6,0,1.2,0.5,1.2,1.2v0c0,0.6-0.5,1.2-1.2,1.2
				C174.4,183.4,173.9,182.9,173.9,182.2L173.9,182.2z M166.7,174c0-0.6,0.4-1,0.8-1s0.8,0.5,0.8,1s-0.4,1-0.8,1
				S166.7,174.5,166.7,174L166.7,174z"/>
			<path class="st22" d="M170.8,153.2c0-0.4,0.4-0.8,0.9-0.7c0.4,0,0.8,0.4,0.7,0.9c0,0.4-0.4,0.7-0.8,0.7
				C171.1,154.1,170.8,153.7,170.8,153.2L170.8,153.2z M185.1,122.6c0-0.4,0.4-0.7,0.8-0.7c0.4,0,0.7,0.4,0.7,0.8
				c0,0.4-0.3,0.7-0.7,0.7C185.5,123.4,185.1,123,185.1,122.6L185.1,122.6L185.1,122.6z"/>
		</g>
		<g class="st4">
			<path class="st23" d="M169.8,158.1c-0.3,0.1-0.5,0.4-0.6,0.7c-0.1,0.2-0.1,0.4-0.1,0.6 M171.3,171.8l0.4-0.5
				c0.1-0.1,0.2-0.3,0.3-0.4c0.1-0.2,0.1-0.3,0.2-0.4l0.3-0.6 M172,176.3l-0.7,0.3l-0.5,0.3l-0.6,0.4l-0.6,0.5 M176.6,160.1
				l-0.4-0.4l-0.4-0.4c-0.2-0.1-0.3-0.2-0.4-0.3"/>
			<path class="st24" d="M176.8,153.9c-0.2,0.1-0.4,0.2-0.6,0.3c-0.2,0.1-0.5,0.1-0.7,0.1"/>
			<path class="st23" d="M169,146.1c0.1,0.2,0.1,0.5,0.2,0.7c0.1,0.3,0.3,0.6,0.4,0.8c0.2,0.3,0.4,0.5,0.6,0.7
				c0.2,0.2,0.4,0.4,0.6,0.5c0.2,0.1,0.5,0.3,0.7,0.4 M171.1,146.5c0.2,0.1,0.4,0.2,0.6,0.3c0.2,0.1,0.4,0.1,0.6,0.2
				c0.3,0.1,0.5,0.1,0.8,0.1c0.3,0,0.6,0,0.9-0.1 M177.3,128l-1-0.6c-0.3-0.2-0.6-0.4-0.9-0.7c-0.2-0.2-0.4-0.4-0.5-0.6
				c-0.2-0.2-0.2-0.4-0.4-0.6 M178,123.4c0.1,0.3,0.2,0.5,0.3,0.8c0.2,0.4,0.4,0.7,0.7,1c0.4,0.5,0.8,0.6,1.3,1 M180.9,123.4
				c0.1,0.2,0.2,0.5,0.3,0.7c0.1,0.2,0.2,0.4,0.4,0.6c0.2,0.2,0.4,0.4,0.6,0.6c0.3,0.2,0.6,0.4,0.9,0.5"/>
		</g>
		<g class="st4">
			<path class="st25" d="M213.8,119.6c0-0.8-0.8-0.9-1.1-0.9c-0.9,0-1.1,0.5-2.2,1.1c-1.3,0.7-1.9,0.9-3.1,0.9
				c-1.2,0-1.8-0.2-3.1-0.9c-1.1-0.6-1.3-1.1-2.1-1.1c-0.6,0-1.1,0.5-1.1,1.1l0,0c0,0.1,0,0.3,0,0.4c0,0.1,0.1,0,0.1,0.1
				c0-0.3,0.1-0.6,0.2-0.8c0.2-0.2,0.5-0.4,0.8-0.4c0.9,0,1.2,0.6,2.3,1.1c1.3,0.7,1.9,0.9,3.1,0.9c1.2,0,1.8-0.2,3.1-0.9
				c1.1-0.6,1.4-1.2,2.2-1.2c0.3,0,0.5,0.2,0.6,0.5c0,0.1,0,0.3,0,0.4c0,0,0.1,0,0.1,0.1C213.7,120,213.8,119.8,213.8,119.6
				L213.8,119.6L213.8,119.6z"/>
			<path class="st26" d="M181.6,186.1c0.2-0.3,0.4-0.2,0.5-0.3c0-0.1,0-0.1-0.1-0.1c-0.1,0-0.3-0.1-0.4-0.1
				c-0.1-0.1-0.3-0.1-0.4-0.2c-0.1,0-0.2-0.1-0.2,0c-0.1,0.2,0.5,0.2,0.3,0.7c-0.1,0.2-0.2,0.4-0.4,0.6l-1.2,1.3
				c0,0-0.1,0.1-0.1,0.1c0,0,0-0.1,0-0.1l0-1.9c0-0.3,0-0.5,0.1-0.8c0.1-0.2,0.3,0,0.4-0.2c0-0.1,0-0.1-0.1-0.1
				c-0.1,0-0.2-0.1-0.5-0.2l-0.5-0.2c-0.1,0-0.2-0.1-0.2,0c0,0,0,0.1,0,0.1c0.2,0.1,0.2,0.3,0.2,0.4l0,3.5c0,0.3,0,0.3,0.1,0.3
				c0.1,0,0.1,0,0.2-0.1L181.6,186.1L181.6,186.1L181.6,186.1z"/>
			<path class="st26" d="M183,186.7c0.2-0.5,0.5-0.2,0.5-0.4c0-0.1,0-0.1-0.1-0.1l-0.6-0.2l-0.5-0.2c0,0-0.2-0.1-0.2,0
				c-0.1,0.2,0.5,0.2,0.4,0.7l-0.8,2.6c-0.2,0.5-0.5,0.3-0.5,0.4c0,0,0,0.1,0,0.1l0.5,0.1l0.7,0.3c0.1,0,0.2,0,0.2,0
				c0.1-0.2-0.6-0.1-0.4-0.7L183,186.7L183,186.7L183,186.7z M184.7,187.2c0.1-0.3,0.2-0.3,0.4-0.2c0.5,0.1,0.6,0.6,0.5,1.1
				c-0.1,0.3-0.2,0.6-0.9,0.4c-0.1,0-0.3-0.1-0.3-0.2L184.7,187.2L184.7,187.2L184.7,187.2z M183.4,189.5c-0.2,0.7-0.5,0.4-0.6,0.6
				c0,0.1,0.1,0.1,0.1,0.1l0.7,0.2c0.2,0.1,0.3,0.1,0.4,0.1c0.1,0,0.2,0,0.2,0c0.1-0.2-0.5-0.1-0.3-0.7l0.3-0.9
				c0.1-0.2,0-0.2,0.3-0.2c0.2,0.1,0.3,0.1,0.4,0.4l0.2,1c0.1,0.4,0.1,0.7,0.5,0.8c0.2,0.1,0.5,0,0.6-0.1c0,0,0-0.1,0-0.1
				c-0.1,0-0.1,0-0.2,0c-0.1,0-0.1-0.1-0.1-0.1l-0.3-1.7c0-0.1,0.2-0.1,0.3-0.1c0.2-0.1,0.4-0.3,0.5-0.6c0.1-0.2,0.2-1-0.9-1.3
				l-1-0.3l-0.6-0.2c-0.1,0-0.1,0-0.1,0c-0.1,0.2,0.5,0.2,0.3,0.7L183.4,189.5L183.4,189.5L183.4,189.5z M187.4,190.6
				c-0.2,0.6-0.6,0.3-0.7,0.5c0,0.1,0.1,0.1,0.1,0.2l0.7,0.1l0.7,0.2c0.1,0,0.2,0.1,0.3-0.1c0-0.2-0.6-0.1-0.5-0.8l0.6-2.5
				c0.1-0.3,0.1-0.3,0.3-0.2l0.4,0.1c0.6,0.1,0.3,0.7,0.5,0.7c0.1,0,0.1-0.2,0.1-0.3l0.1-0.5c0-0.1,0-0.1,0-0.1l-1.5-0.3l-1.5-0.4
				c-0.1,0-0.1,0.1-0.1,0.1l-0.2,0.7c0,0.1-0.1,0.2,0,0.2c0.2,0.1,0.2-0.7,0.8-0.6l0.4,0.1c0.2,0,0.2,0.1,0.2,0.3L187.4,190.6
				L187.4,190.6L187.4,190.6z M193.3,189.1c0.2-0.3,0.4-0.2,0.4-0.4c0-0.1-0.1-0.1-0.2-0.1c-0.1,0-0.3,0-0.4-0.1
				c-0.1,0-0.3-0.1-0.4-0.1c-0.1,0-0.2-0.1-0.2,0.1c0,0.2,0.5,0.1,0.4,0.6c-0.1,0.2-0.1,0.4-0.3,0.6l-1,1.5c0,0-0.1,0.1-0.1,0.1
				c0,0,0-0.1,0-0.1l-0.3-1.9c-0.1-0.3-0.1-0.5,0-0.8c0-0.2,0.3-0.1,0.4-0.2c0-0.1,0-0.1-0.2-0.1c-0.1,0-0.2,0-0.5-0.1l-0.5-0.1
				c-0.1,0-0.2-0.1-0.2,0c0,0,0.1,0.1,0.1,0.1c0.2,0.1,0.3,0.2,0.3,0.4l0.6,3.4c0,0.2,0.1,0.3,0.1,0.3c0.1,0,0.1,0,0.2-0.2
				L193.3,189.1L193.3,189.1L193.3,189.1z M193.6,192.3c0,0.1,0,0.2,0.1,0.2c0.3,0.1,0.5,0.3,0.8,0.3c0.6,0.1,1.2-0.3,1.3-1
				c0.1-0.7-0.2-1-0.7-1.3c-0.6-0.4-0.9-0.6-0.8-0.9c0-0.3,0.3-0.5,0.6-0.5c0,0,0.1,0,0.1,0c0.9,0.1,0.8,1.2,0.9,1.2
				c0.1,0,0.1,0,0.1-0.2l0.1-0.7c0-0.1,0-0.2,0-0.2c-0.1,0-0.2,0.1-0.3,0c-0.1,0-0.3-0.3-0.7-0.3c-0.6-0.1-1.1,0.3-1.2,0.9
				c-0.1,0.6,0.2,0.8,0.6,1.1c0.7,0.5,1,0.6,1,1.1c0,0.4-0.4,0.6-0.7,0.6c0,0,0,0-0.1,0c-0.5-0.1-0.8-0.6-0.8-1.2
				c0-0.1,0-0.1-0.1-0.1c-0.1,0-0.1,0.1-0.1,0.2L193.6,192.3L193.6,192.3L193.6,192.3z M201,190.2c0.2-0.3,0.4-0.3,0.4-0.4
				c0-0.1-0.1-0.1-0.2-0.1c-0.1,0-0.3,0-0.4,0c-0.1,0-0.3,0-0.4-0.1c-0.1,0-0.2,0-0.2,0.1c0,0.2,0.5,0,0.5,0.6
				c0,0.2-0.1,0.4-0.2,0.6l-0.8,1.6c0,0,0,0.1-0.1,0.1c0,0,0-0.1-0.1-0.1l-0.5-1.8c-0.1-0.3-0.1-0.5-0.1-0.8c0-0.2,0.3-0.1,0.3-0.3
				c0-0.1,0-0.1-0.2-0.1c-0.1,0-0.2,0-0.5,0l-0.5-0.1c-0.1,0-0.2-0.1-0.2,0.1c0,0,0.1,0.1,0.1,0.1c0.2,0,0.3,0.2,0.3,0.4l1,3.3
				c0.1,0.2,0.1,0.3,0.2,0.3c0.1,0,0.1,0,0.1-0.2L201,190.2L201,190.2L201,190.2z"/>
			<path class="st26" d="M201.7,192.9c0,0.6-0.5,0.5-0.5,0.7c0,0.1,0.1,0.1,0.2,0.1l0.4,0l0.6,0c0.1,0,0.2,0,0.2-0.1
				c0-0.3-0.6,0.1-0.6-1l0-1.9c0-0.1,0-0.1,0-0.1c0,0,0.1,0,0.1,0.1l2.4,2.9c0,0,0.1,0.1,0.1,0.1c0.1,0,0.1,0,0.1-0.2l0-3.1
				c0-0.6,0.4-0.4,0.4-0.6c0,0,0-0.1-0.1-0.1c0,0-0.2,0-0.5,0l-0.6,0c-0.1,0-0.1,0.1-0.1,0.1c0,0.2,0.6,0.1,0.6,0.6l0,1.9
				c0,0.1,0,0.2,0,0.2c0,0-0.1-0.1-0.2-0.1l-2-2.5c-0.1-0.1,0-0.1-0.2-0.1c-0.3,0-0.4,0-0.5,0c-0.1,0-0.2,0-0.3,0c0,0-0.1,0-0.1,0.1
				c0,0,0,0,0,0c0,0.3,0.6-0.1,0.6,1L201.7,192.9L201.7,192.9z M206.6,190.4c0-0.5,0.4-0.3,0.4-0.5c0-0.1,0-0.1-0.2-0.1
				c-0.3,0-0.5,0-0.6,0c-0.2,0-0.4,0-0.6,0c0,0-0.2,0-0.2,0.1c0,0.2,0.5,0,0.5,0.6l0,2.7c0,0.5-0.4,0.4-0.4,0.6c0,0,0,0.1,0.1,0.1
				c0.1,0,0.3,0,0.6,0l0.8,0c0.1,0,0.2,0,0.2-0.1c0-0.2-0.6,0.1-0.6-0.6L206.6,190.4z M208.7,193c0,0.7-0.6,0.4-0.6,0.6
				c0,0.1,0.1,0.1,0.2,0.1l0.7,0l0.7,0c0.1,0,0.2,0,0.2-0.1c0-0.2-0.6,0-0.6-0.7l0-2.5c0-0.3,0-0.3,0.3-0.3l0.4,0
				c0.6,0,0.4,0.6,0.6,0.6c0.1,0,0.1-0.2,0.1-0.3l-0.1-0.5c0-0.1,0-0.1-0.1-0.1l-1.5,0c-0.7,0-1.1,0-1.5,0c-0.1,0-0.1,0.1-0.1,0.1
				l-0.1,0.7c0,0.1,0,0.2,0.1,0.2c0.2,0,0.1-0.7,0.6-0.7l0.4,0c0.2,0,0.3,0,0.3,0.3L208.7,193L208.7,193L208.7,193z M211.6,191.9
				c-0.1,0-0.2,0-0.2,0c0-0.1,0-0.1,0-0.2l0.3-1c0-0.1,0-0.1,0-0.1c0,0,0,0,0,0l0.5,1c0,0.1,0.1,0.1,0.1,0.2c0,0.1-0.1,0.1-0.2,0.1
				L211.6,191.9L211.6,191.9L211.6,191.9z M212.5,192.1c0.1,0,0.2,0,0.4,0.5c0.1,0.1,0.1,0.2,0.1,0.4c0,0.3-0.3,0.3-0.3,0.5
				c0,0.1,0.1,0.1,0.2,0.1l0.5-0.1l0.6,0c0.1,0,0.2,0,0.2-0.1c0-0.2-0.3,0.1-0.5-0.3l-1.6-3.3c-0.1-0.2-0.1-0.2-0.1-0.2
				c-0.1,0-0.1,0.1-0.1,0.2l-1.1,3.5c-0.1,0.3-0.4,0.3-0.3,0.4c0,0.1,0.1,0.1,0.2,0c0.1,0,0.3,0,0.4-0.1l0.5,0c0.1,0,0.3,0,0.3-0.1
				c0-0.2-0.5,0-0.6-0.4c0-0.2,0-0.3,0.1-0.4c0.1-0.4,0.2-0.4,0.3-0.4L212.5,192.1L212.5,192.1L212.5,192.1z M216.4,189.8
				c-0.1-0.4,0-0.4,0.6-0.5c1-0.1,0.7,0.6,0.9,0.5c0.1,0,0.1-0.2,0.1-0.3l-0.1-0.5c0-0.1-0.1-0.1-0.1-0.1l-1.1,0.2l-1.3,0.2
				c-0.1,0-0.1,0-0.1,0.1l0,0c0,0.2,0.6,0,0.6,0.5l0.3,2.6c0.1,0.7-0.3,0.4-0.3,0.7c0,0,0,0.1,0.1,0l0.6-0.1l0.6-0.1
				c0.1,0,0.2,0,0.2-0.1c0-0.1-0.6,0.1-0.6-0.6l-0.1-0.8c0-0.3-0.1-0.4,0.2-0.4l0.4,0c0.5-0.1,0.5,0.5,0.6,0.5c0.1,0,0.1-0.2,0-0.3
				l-0.2-1c0-0.1-0.1-0.1-0.1-0.1c-0.1,0,0,0.5-0.5,0.6l-0.3,0c-0.2,0-0.2,0-0.3-0.2L216.4,189.8L216.4,189.8L216.4,189.8z
				 M218.2,191.1c0.2,1.1,1,1.7,2,1.5c1.6-0.3,1.6-1.7,1.5-2.5c-0.2-1.2-1.1-1.7-2-1.5C218.5,188.9,218,189.9,218.2,191.1
				L218.2,191.1L218.2,191.1z M218.8,190.7c-0.1-0.8,0-1.6,0.8-1.8c0.6-0.1,1.4,0.4,1.6,1.6c0.2,0.9,0,1.7-0.8,1.9
				C219.4,192.6,218.9,191.5,218.8,190.7z M222.7,188.7c-0.1-0.3,0.1-0.4,0.3-0.4c0.5-0.1,0.9,0.2,1,0.7c0.1,0.3,0.1,0.6-0.6,0.8
				c-0.1,0-0.3,0.1-0.4-0.1L222.7,188.7L222.7,188.7L222.7,188.7z M222.7,191.4c0.2,0.7-0.3,0.6-0.2,0.8c0,0.1,0.1,0.1,0.2,0.1
				l0.7-0.2c0.2,0,0.3-0.1,0.4-0.1c0.1,0,0.1-0.1,0.1-0.1c0-0.2-0.5,0.1-0.6-0.4l-0.2-0.9c0-0.2-0.1-0.2,0.2-0.3
				c0.2-0.1,0.4,0,0.5,0.2l0.6,0.8c0.2,0.3,0.5,0.6,0.9,0.5c0.2,0,0.5-0.2,0.4-0.4c0,0,0-0.1-0.1-0.1l0,0c0,0-0.1,0.1-0.1,0.1
				c-0.1,0-0.1,0-0.2,0l-1.1-1.3c0-0.1,0.1-0.1,0.2-0.3c0.1-0.2,0.2-0.5,0.1-0.7c-0.1-0.2-0.3-1-1.4-0.7l-1,0.3l-0.6,0.1
				c-0.1,0-0.1,0.1-0.1,0.1c0,0.2,0.5-0.1,0.7,0.5L222.7,191.4L222.7,191.4L222.7,191.4z M226.7,190.5c0.2,0.6-0.4,0.5-0.4,0.7
				c0,0.1,0.1,0.1,0.2,0.1l0.7-0.2l0.7-0.2c0.1,0,0.2,0,0.2-0.2c0-0.2-0.6,0.2-0.8-0.5l-0.6-2.4c-0.1-0.3,0-0.3,0.2-0.4l0.4-0.1
				c0.6-0.2,0.6,0.5,0.7,0.4c0.1,0,0-0.2,0-0.3l-0.2-0.5c0-0.1,0-0.1-0.1-0.1l-1.5,0.4l-1.5,0.4c-0.1,0-0.1,0.1,0,0.1l0.1,0.7
				c0,0.1,0,0.2,0.1,0.2c0.2-0.1-0.1-0.7,0.4-0.9l0.4-0.1c0.2-0.1,0.3,0,0.3,0.2L226.7,190.5L226.7,190.5L226.7,190.5z M229.3,187.1
				c-0.1-0.5,0.3-0.4,0.2-0.6c0-0.1,0-0.1-0.2,0l-0.6,0.2l-0.6,0.1c0,0-0.2,0-0.1,0.1c0.1,0.2,0.6-0.1,0.7,0.4l0.7,2.6
				c0.1,0.5-0.2,0.5-0.2,0.7c0,0,0,0.1,0.1,0l0.5-0.2l0.7-0.2c0.1,0,0.1-0.1,0.1-0.1c0-0.2-0.5,0.2-0.7-0.4L229.3,187.1L229.3,187.1
				L229.3,187.1z M230.3,188.3c0.4,1.1,1.2,1.6,2.2,1.3c1.5-0.5,1.4-1.9,1.1-2.6c-0.4-1.1-1.3-1.6-2.2-1.2
				C230.3,186.1,229.9,187.1,230.3,188.3L230.3,188.3L230.3,188.3z M230.8,187.8c-0.3-0.8-0.3-1.6,0.5-1.9c0.6-0.2,1.4,0.2,1.8,1.4
				c0.3,0.9,0.3,1.7-0.5,2C231.7,189.6,231.1,188.6,230.8,187.8z M234.4,185.3c-0.1-0.3,0-0.4,0.2-0.4c0.5-0.2,0.9,0.1,1.1,0.6
				c0.1,0.3,0.2,0.6-0.5,0.9c-0.1,0.1-0.3,0.1-0.4,0L234.4,185.3L234.4,185.3L234.4,185.3z M234.7,187.9c0.3,0.7-0.2,0.6-0.1,0.8
				c0,0.1,0.1,0,0.2,0l0.7-0.3c0.2-0.1,0.3-0.1,0.4-0.1c0.1,0,0.1-0.1,0.1-0.1c-0.1-0.2-0.5,0.2-0.7-0.3l-0.4-0.9
				c-0.1-0.2-0.1-0.2,0.1-0.3c0.2-0.1,0.4-0.1,0.5,0.1l0.7,0.7c0.3,0.2,0.5,0.5,0.9,0.4c0.2-0.1,0.5-0.3,0.4-0.5c0,0-0.1-0.1-0.1,0
				l0,0c0,0-0.1,0.1-0.1,0.1c-0.1,0-0.1,0-0.2,0l-1.3-1.1c0-0.1,0.1-0.2,0.2-0.3c0.1-0.2,0.1-0.5,0-0.8c-0.1-0.2-0.5-0.9-1.5-0.5
				l-0.9,0.4l-0.6,0.2c-0.1,0-0.1,0.1-0.1,0.1c0.1,0.2,0.5-0.2,0.7,0.4L234.7,187.9L234.7,187.9L234.7,187.9z"/>
		</g>
		<path class="st27" d="M181.4,130.8H206v24.5h-24.6V130.8z"/>
		<path class="st28" d="M193,150.1c0,0.5-0.1,1.1-0.3,1.6c-0.3,0.8-0.3,0.8-0.5,1.2c-0.3,0.5-0.7,0.9-1.1,1.2
			c-0.5,0.4-1.1,0.5-1.8,0.5c-1.6-0.1-2.4-1.9-2.8-3.4c-0.4-1.5-1.5-2.4-2.2-1.8c-0.4,0.3-0.4,0.9-0.1,1.4c0.3,0.4,0.7,0.7,1.2,0.8
			l-0.9,1.1c-1.1-0.2-2-1.1-2.3-2.2c-0.1-0.7,0.2-2.1,1.5-2.5c1.6-0.5,2.6,0.6,3.1,1.6c0.7,1.3,1,3.7,2.8,3.3c1-0.2,1.5-1.7,1.5-2.3
			l0.7-0.8L193,150.1L193,150.1L193,150.1L193,150.1z M194.5,150.1c0,0.5,0.1,1.1,0.3,1.6c0.3,0.8,0.3,0.8,0.5,1.2
			c0.3,0.5,0.7,0.9,1.1,1.2c0.5,0.4,1.1,0.5,1.8,0.5c1.6-0.1,2.4-1.9,2.8-3.4c0.4-1.5,1.5-2.4,2.2-1.8c0.4,0.3,0.4,0.9,0.1,1.4
			c-0.3,0.4-0.7,0.7-1.2,0.8l0.9,1.1c1.1-0.2,2-1.1,2.3-2.2c0.1-0.7-0.2-2.1-1.5-2.5c-1.6-0.5-2.6,0.6-3.1,1.6
			c-0.7,1.3-1,3.7-2.8,3.3c-1-0.2-1.5-1.7-1.5-2.3l-0.7-0.8L194.5,150.1L194.5,150.1L194.5,150.1L194.5,150.1z"/>
		<path class="st1" d="M195.9,139.6l3.2-3.5c0.3-0.3,0.5-0.6,0.5-1l-0.7,0.1l-0.1-0.3l0-0.3l0.9-0.2c0-0.1,0-0.3,0-0.4
			c0-0.1,0.1-0.2,0.1-0.4l-1,0.1c0-0.2,0-0.3,0.1-0.4c0-0.1,0.1-0.2,0.2-0.3l0.6-0.1c0.2,0,0.3,0,0.6,0c0.5-1,2.7-1.9,4.3-0.3
			c1.1,1.2,0.9,3.4-0.6,3.9c-0.7,0.3-1.5,0.2-2.1-0.3l0.6-1.2c0.8,0.5,1.5-0.1,1.4-0.7c0-0.7-0.6-1.3-1.3-1.3
			c-0.7-0.1-1.2,0.3-1.5,0.9c-0.2,0.4-0.1,0.6-0.2,1c0,0.4-0.1,0.8-0.2,1.1c-0.1,0.4-0.4,0.8-0.7,1.1l-3.3,3.6L184,154.5l-1-0.9
			L195.9,139.6L195.9,139.6z"/>
		<path class="st28" d="M186.5,140.9c0,0,0.8,4,3.6,10c1.4-0.5,2.2-0.8,3.7-0.8c1.5,0,2.3,0.3,3.7,0.8c2.7-6,3.6-10,3.6-10l-7.2-9.3
			L186.5,140.9z"/>
		<path class="st1" d="M194.4,134.7l5,6.5c0,0-0.7,3.1-2.7,7.9c-0.8-0.2-1.5-0.3-2.3-0.4L194.4,134.7L194.4,134.7z M193,134.7
			l-5,6.5c0,0,0.7,3.1,2.7,7.9c0.8-0.2,1.5-0.3,2.3-0.4L193,134.7L193,134.7z M208.6,130.8h24.6v24.5h-24.6V130.8z"/>
		<path class="st27" d="M212.1,130.8h3.7v24.5h-3.7V130.8z M219.1,130.8h3.7v24.5h-3.7L219.1,130.8L219.1,130.8z M226.1,130.8h3.7
			v24.5h-3.7L226.1,130.8L226.1,130.8z"/>
		<path class="st1" d="M181.5,176.6c0.1,0.7,0.3,1.4,0.6,2c0.4,0.7,0.3,0.7,1.3,1.8c0.5,0.5,1.2,1,1.9,1.3c0.6,0.3,1.3,0.6,2,0.7
			c1.6,0.4,3.3,0.6,5,0.5c1-0.1,2-0.2,3.1-0.3c1.1-0.2,2.2-0.3,3.3-0.3c0.6,0,1.2,0,1.8,0c0.7,0,1.5,0.1,2.2,0.3
			c1.1,0.2,2.2,0.6,3.3,1l0-25.6l-24.6,0v17.5C181.4,175.4,181.5,176.3,181.5,176.6L181.5,176.6L181.5,176.6z"/>
		<path class="st29" d="M184.4,181l1.2,0.7l1.6,0.6l0-24.4h-2.7L184.4,181L184.4,181z M198,182.2l0-24.2h-2.7v24.6L198,182.2
			L198,182.2z M203.5,157.9h-2.7v24.3c0.9,0.1,1.8,0.3,2.7,0.5L203.5,157.9z M192.6,157.9v24.9c-0.9,0.1-1.8,0.1-2.7,0l0-24.9
			L192.6,157.9z"/>
		<path class="st1" d="M233.1,176.6c-0.1,0.7-0.3,1.4-0.6,2c-0.4,0.7-0.3,0.7-1.3,1.8c-0.5,0.5-1.2,1-1.9,1.3
			c-0.6,0.3-1.3,0.6-2,0.7c-1.6,0.4-3.3,0.6-5,0.5c-1-0.1-2-0.2-3.1-0.3c-1.1-0.2-2.2-0.3-3.3-0.3c-0.6,0-1.2,0-1.8,0
			c-0.7,0-1.5,0.1-2.2,0.3c-1.1,0.2-2.2,0.6-3.3,1l0-25.6l24.6,0v17.5C233.2,175.4,233.2,176.3,233.1,176.6L233.1,176.6L233.1,176.6
			z"/>
		<g class="st4">
			<path id="B" class="st30" d="M214.9,160l-0.2,0.1c-0.1,0.1-0.2,0.2-0.2,0.2c-0.1,0.1-0.2,0.2-0.4,0.3c-0.1,0-0.1,0.1-0.2,0.1
				c-0.1,0.1,0,0.2-0.1,0.3c-0.1,0.1-0.1,0.2-0.2,0.3c-0.1,0.1-0.2,0.2-0.3,0.3c-0.1,0.1-0.2,0.2-0.3,0.3c0,0-0.1,0-0.1,0.1
				c-0.1,0-0.1,0-0.2,0c-0.1,0-0.2,0.2-0.2,0.2c0,0.1,0,0.1,0.1,0.2c0,0.1,0.2,0.4,0.2,0.4c0.1,0.1,0.1,0.2,0.2,0.2
				c0.1,0,0.3,0.1,0.4,0c0.2,0,0.4,0.1,0.6,0.1c0.2,0.1,0.3,0.2,0.4,0.3c0.1,0.1,0.2,0.1,0.4,0.1c0.1,0,0.2,0,0.3,0
				c0.1,0,0.1,0,0.2,0c0,0,0,0,0,0l0,0.1c0,0,0,0,0,0v0h0l0.6,0.3c-0.1,0.1-0.1,0.2-0.1,0.4c0.2,0.6,0.3,0.9,0.4,1
				c0.2,0.1,0.2,0.3,0.3,0.4c0,0-0.1,0.1-0.1,0.1c-0.2,0.2-0.4,0.3-0.5,0.5c-0.2,0.4-0.4,0.4-0.1,0.8c0.2,0.3,0.2,0.3,0.5,0.7
				c0.1,0.2,0.2,0.4,0.2,0.6c0.1,0.2,0.1,0.4,0.1,0.6l0.3,0.1l0.2-0.2l0.2-0.4l0-0.3c-0.1-0.1-0.1-0.1-0.1-0.2
				c0-0.1,0.2-0.1,0.2-0.2c0.1-0.1-0.1-0.2-0.2-0.3c-0.2-0.2-0.4-0.2-0.5-0.6c0-0.1,0-0.1,0.1-0.2l0.6-0.5c0.1,0,0.2,0.1,0.3,0
				c0.1,0,0.2,0,0.4,0.1c0.1,0,0.2,0,0.4,0l0.1,0c0,0.1,0,0.1,0,0.2c0,0.3,0,0.9,0,1c0,0.1,0.1,0.1,0.1,0.2c0,0.1,0.1,0.1,0.1,0.2
				v0.6c0,0.2,0,0.4-0.1,0.5c0,0.1-0.1,0.2-0.1,0.3c-0.1,0.1-0.2,0.1-0.3,0.2l0,0.3l0.3,0.1l0.4,0.1l0.2-0.1c0-0.1,0-0.1,0-0.2
				c0-0.1,0.1-0.1,0.1-0.2c0.1,0,0.2,0,0.3,0c0-0.1,0-0.1,0-0.2c0-0.2-0.1-0.3-0.1-0.5c0-0.3-0.1-0.5,0-0.8c0-0.2,0-0.3,0-0.5
				c0.1-0.3,0.1-0.4,0.2-0.7c0.1-0.2,0.1-0.5,0.1-0.7c0.9,0.1,1.9,0.1,2.8-0.1c0.1,0,0.2-0.1,0.2-0.1c0.2,0.2,0.5,0.4,0.8,0.5
				c0,0,0,0.3,0,0.3c0,0.1,0,0.1,0,0.2c0,0,0.1,0.1,0.1,0.1c0.1,0,0.1,0,0.2,0c0.1-0.1,0.1-0.1,0.1-0.2c0-0.1,0-0.1,0-0.2
				c0.1,0,0.2,0,0.3,0c0.1,0,0.2,0,0.3,0l0,0.1c0,0.1,0,0.1,0,0.2c0,0.1,0.1,0.1,0.1,0.1c0.1,0,0.1,0,0.2,0c0.1-0.1,0.1-0.1,0.1-0.3
				c0,0,0-0.2,0-0.2l0.3-0.1c0,0.1,0,0.2,0,0.2c0,0.1,0,0.2-0.1,0.3c-0.1,0.1-0.1,0.3-0.2,0.4c-0.1,0.2-0.2,0.3-0.3,0.5l-0.2,0.2
				c-0.1,0.1-0.1,0.2-0.2,0.3c-0.1,0.1-0.2,0.2-0.3,0.3c-0.2,0.2-0.3,0-0.6,0.3l-0.1,0.3l0.4,0.2l0.4,0.1l0.1-0.1
				c0-0.1,0-0.2,0.1-0.2c0.1-0.1,0.1-0.1,0.2-0.1c0.1,0,0.2,0,0.3-0.1c0.1-0.1,0.1-0.3,0.2-0.4c0.2-0.4,0.5-0.8,0.9-1.2
				c0.2-0.2,0.3-0.2,0.5-0.4c0.1-0.1,0.2-0.1,0.2-0.3c0-0.1,0-0.1-0.1-0.2c0-0.1,0-0.2-0.1-0.3c0.5,0.2,0.3,0.2,0.4,0.4
				c0.1,0.2,0,0.3,0,0.5c0,0.2,0.1,0.3,0.2,0.6c0,0.2,0,0.5-0.1,0.7c0,0.2-0.1,0.4-0.1,0.6c-0.1,0.2-0.2,0.3-0.3,0.5
				c-0.1,0.1-0.1,0.1-0.2,0.1l0,0.3l0.3,0.1l0.5,0.1l0.1-0.1c0-0.2,0-0.5,0.1-0.5c0.1,0,0.2,0,0.2-0.1c0-0.1,0-0.1,0-0.2l0.2-1.3
				l0.1-0.6c0-0.2,0.1-0.3,0.1-0.5c0.2-0.6-0.1-0.7-0.3-1.1c-0.1-0.1-0.2-0.3-0.2-0.4c0-0.2,0-0.4,0-0.8v-0.9c0,0,0.1,0,0.1-0.1
				c0.3-0.1,0.6-0.4,0.7-0.7c0.1-0.1,0.1-0.3,0.1-0.4c0-0.1,0-0.2,0-0.3c0-0.1,0-0.2-0.1-0.3c0-0.1-0.1-0.2-0.2-0.3
				c-0.2-0.2-0.5-0.4-0.8-0.4c-0.4-0.1-0.8-0.2-1.2-0.2c-0.4,0-0.9,0-1.3,0c-0.6,0-0.9,0.2-1.5,0.2c-0.5,0.1-1,0.1-1.5,0.1
				c-0.7,0-1.3-0.1-1.7-0.1c-0.7,0.1-0.7,0.2-1.9,0.3l-1.1,0.1l-0.6-0.2c0.2,0,0.3-0.2,0.4-0.3c0.1-0.1,0.1-0.2,0.2-0.3
				c0.1-0.1,0.1-0.2,0.2-0.3c-0.1-0.1-0.2-0.1-0.3-0.1c-0.1,0-0.2,0-0.3,0c-0.1,0-0.3,0-0.4,0.1c-0.1,0-0.2,0.1-0.3,0.2
				c-0.2-0.1-0.4-0.3-0.7-0.4C215.5,160.1,215.2,160,214.9,160L214.9,160L214.9,160z M215.5,163.5L215.5,163.5
				C215.5,163.5,215.5,163.5,215.5,163.5L215.5,163.5z"/>
		</g>
		<g class="st4">
			<g>
				<path id="C" class="st31" d="M228.1,163.7l-0.2,0.1c-0.2,0.1-0.5,0.2-0.8,0.1c-0.8,0.1-1.3-0.3-2.1-0.3c-0.4,0-0.6,0.4-1,0.5
					c-0.2,0-0.3,0.1-0.5,0.1l0.2-0.3c-0.2,0-0.4,0.1-0.6,0.1c-0.2,0-0.3,0-0.5,0l0.3-0.3c-0.1,0-0.3-0.1-0.4-0.1
					c-0.1,0-0.2-0.1-0.3-0.2l0.5-0.1c0.5-0.1,0.6-0.3,1.2-0.4c0.3,0,0.9,0,2.3,0.2c0.9,0.2,1.3,0.1,1.7-0.1c0.2-0.1,0.3-0.3,0.3-0.5
					c0-0.2-0.1-0.4-0.3-0.5c-0.1-0.1-0.2-0.1-0.3-0.1"/>
			</g>
			<g>
				<path id="D" class="st32" d="M215,161.1c-0.1,0-0.3,0-0.4,0.1c-0.1,0.1-0.2,0.2-0.3,0.3c0.1,0,0.2,0.1,0.3,0.1
					c0.1,0,0.2-0.1,0.2-0.2C215,161.3,215,161.2,215,161.1L215,161.1L215,161.1L215,161.1z"/>
			</g>
			<g>
				<g>
					<path id="E" class="st31" d="M218.3,165l0.1,0.2c0.1,0.1,0.1,0.3,0.2,0.4c0,0.2,0.1,0.4,0.1,0.6l0,0.1l0,0.3 M220.7,164.7
						l-0.1,0.4l-0.3,1l0,0.2 M217.1,165.1c0.2,0.1,0.2,1,0.5,1.2"/>
				</g>
				<path class="st33" d="M225.5,166.8l0.1-0.1c0.3-0.1,0.6-0.3,0.8-0.5"/>
				<g>
					<path class="st31" d="M223.2,166.3L223.2,166.3c1.1-0.3,1.8-0.8,2.3-0.9"/>
					<g>
						<path id="F" class="st31" d="M224.3,165c0.1,0,0.2,0,0.2,0c0.4-0.1,0.5,0.2,0.8,0.4c0.6,0.3,0.6,0.7,1.3,1l0.1,0l0.3,0.1"/>
					</g>
				</g>
			</g>
			<g>
				<path id="G" class="st32" d="M212.8,162.2c0.1,0,0.1,0,0.2,0c0.1,0,0.1-0.1,0.2-0.1c0.1,0,0.1,0,0.2,0c0,0,0.1,0.1,0.1,0.1
					c0,0,0,0.1,0,0.1c0,0.1-0.1,0.1-0.2,0.1c-0.1,0-0.1,0-0.2-0.1c0,0,0-0.1,0-0.1C213.1,162.5,212.9,162.4,212.8,162.2L212.8,162.2
					L212.8,162.2z"/>
			</g>
		</g>
		<path class="st34" d="M215.1,165.1c-0.2-0.1-0.4-0.2-0.6-0.2c0.1-0.1,0.2-0.1,0.3-0.2c0.1-0.1,0.1-0.2,0.2-0.4
			c0.1-0.2,0.1-0.3,0.2-0.4c0.1-0.1,0.2-0.1,0.3,0c0.1,0,0.2,0.1,0.3,0.2c0,0.2,0,0.3-0.1,0.4c0,0.1-0.1,0.3-0.1,0.4
			c0,0.1,0.1,0.2,0.1,0.3C215.5,165.2,215.3,165.2,215.1,165.1L215.1,165.1L215.1,165.1z M214.8,165.4c0-0.1,0.1-0.2,0.2-0.2
			c0.1,0,0.2,0.1,0.2,0.2c0,0.1-0.1,0.2-0.2,0.2C214.9,165.6,214.8,165.5,214.8,165.4L214.8,165.4z M214.2,160.5L214.2,160.5
			c-0.2-0.1-0.2-0.2-0.2-0.4c0-0.1-0.1-0.2-0.1-0.3c0-0.1,0-0.2,0-0.3c0-0.1,0-0.2,0-0.3c0-0.1,0-0.2-0.1-0.3c0-0.1-0.1-0.1-0.1-0.1
			c0,0,0.1,0,0.1,0c0.1,0,0.2,0.1,0.3,0.1c0.1,0.1,0.2,0.2,0.2,0.3l0.1,0.4c0,0.1,0,0.2,0.1,0.2c0,0.1,0.1,0.1,0.2,0.2l0,0
			c-0.1,0.1-0.1,0.2-0.2,0.2C214.4,160.4,214.3,160.4,214.2,160.5L214.2,160.5L214.2,160.5L214.2,160.5z M215.3,163.7l0.7,0.3
			c0.5-0.3,0.8-0.7,1-1.2c0.2-0.4,0.3-0.8,0.4-1.3l-0.5-0.2l-0.1,0c-0.1,0.4-0.3,0.9-0.5,1.3c-0.2,0.3-0.5,0.7-0.8,0.9L215.3,163.7
			L215.3,163.7L215.3,163.7z M216.8,169.1c0.1-0.1,0.2-0.3,0.3-0.4c0.1-0.1,0.3-0.2,0.4-0.3c0,0,0.1,0,0.1,0c0,0.2,0,0.3-0.1,0.5
			c0,0.1-0.1,0.2-0.1,0.4c0,0.1-0.1,0.2-0.1,0.3c0,0.1-0.1,0.1-0.1,0.2C217,169.4,216.8,169.3,216.8,169.1L216.8,169.1L216.8,169.1z
			 M226.7,169.6c0.3,0.1,0.6,0.2,0.9,0.4c0,0,0,0.1,0,0.1c-0.2,0-0.3,0.1-0.5,0.1c-0.1,0-0.3,0-0.4,0c-0.1,0-0.2,0-0.3,0
			c-0.1,0-0.1-0.1-0.2-0.1C226.4,170,226.5,169.7,226.7,169.6L226.7,169.6z M223.7,169c0.3,0.1,0.6,0.2,0.9,0.4c0,0,0,0.1,0,0.1
			c-0.2,0-0.3,0.1-0.5,0.1c-0.1,0-0.3,0-0.4,0c-0.1,0-0.2,0-0.3,0c-0.1,0-0.1-0.1-0.2-0.1C223.5,169.3,223.6,169.1,223.7,169z
			 M218.6,169.7c0.1,0,0.3,0.1,0.4,0.2c0.2,0.1,0.3,0.2,0.4,0.3c0,0,0,0.1,0,0.1c-0.2,0-0.3,0.1-0.5,0.1c-0.1,0-0.3,0-0.4,0
			c-0.1,0-0.2,0-0.3,0c-0.1,0-0.1-0.1-0.2-0.1C218.3,170,218.4,169.7,218.6,169.7L218.6,169.7z M215.9,160.7
			c-0.2-0.1-0.3-0.3-0.2-0.5c0-0.1,0.1-0.1,0.2-0.1c0-0.1,0.1-0.2,0-0.3c0-0.1,0-0.2-0.1-0.3c0-0.1,0-0.2,0-0.3c0-0.2,0-0.3,0.1-0.5
			c0.1-0.1,0.1-0.1,0.2-0.2c0,0,0,0.2,0,0.2c0,0.1,0,0.2,0.1,0.3c0.1,0.2,0.1,0.2,0.2,0.4c0.1,0.1,0.1,0.3,0.1,0.4
			c0,0.1,0,0.2-0.1,0.3c0,0.1-0.1,0.2-0.2,0.3c-0.1,0.1-0.1,0.1-0.2,0.1C216,160.8,215.9,160.8,215.9,160.7L215.9,160.7L215.9,160.7
			z"/>
		<g class="st4">
			<path id="B_1_" class="st30" d="M214.9,170.9l-0.2,0.1c-0.1,0.1-0.2,0.2-0.2,0.2c-0.1,0.1-0.2,0.2-0.4,0.3
				c-0.1,0-0.1,0.1-0.2,0.1c-0.1,0.1,0,0.2-0.1,0.3c-0.1,0.1-0.1,0.2-0.2,0.3c-0.1,0.1-0.2,0.2-0.3,0.3c-0.1,0.1-0.2,0.2-0.3,0.3
				c0,0-0.1,0-0.1,0.1c-0.1,0-0.1,0-0.2,0c-0.1,0-0.2,0.2-0.2,0.2c0,0.1,0,0.1,0.1,0.2c0,0.1,0.2,0.4,0.2,0.4
				c0.1,0.1,0.1,0.2,0.2,0.2c0.1,0,0.3,0.1,0.4,0c0.2,0,0.4,0.1,0.6,0.1c0.2,0.1,0.3,0.2,0.4,0.3c0.1,0.1,0.2,0.1,0.4,0.1
				c0.1,0,0.2,0,0.3,0c0.1,0,0.1,0,0.2,0c0,0,0,0,0,0l0,0.1c0,0,0,0,0,0v0h0l0.6,0.3c-0.1,0.1-0.1,0.2-0.1,0.4
				c0.2,0.6,0.3,0.9,0.4,1c0.2,0.1,0.2,0.3,0.3,0.4c0,0-0.1,0.1-0.1,0.1c-0.2,0.2-0.4,0.3-0.5,0.5c-0.2,0.4-0.4,0.4-0.1,0.8
				c0.2,0.3,0.2,0.3,0.5,0.7c0.1,0.2,0.2,0.4,0.2,0.6c0.1,0.2,0.1,0.4,0.1,0.6l0.3,0.1l0.2-0.2l0.2-0.4l0-0.3
				c-0.1-0.1-0.1-0.1-0.1-0.2c0-0.1,0.2-0.1,0.2-0.2c0.1-0.1-0.1-0.2-0.2-0.3c-0.2-0.2-0.4-0.2-0.5-0.6c0-0.1,0-0.1,0.1-0.2l0.6-0.5
				c0.1,0,0.2,0.1,0.3,0c0.1,0,0.2,0,0.4,0.1c0.1,0,0.2,0,0.4,0l0.1,0c0,0.1,0,0.1,0,0.2c0,0.3,0,0.9,0,1c0,0.1,0.1,0.1,0.1,0.2
				c0,0.1,0.1,0.1,0.1,0.2v0.6c0,0.2,0,0.4-0.1,0.5c0,0.1-0.1,0.2-0.1,0.3c-0.1,0.1-0.2,0.1-0.3,0.2l0,0.3l0.3,0.1l0.4,0.1l0.2-0.1
				c0-0.1,0-0.1,0-0.2c0-0.1,0.1-0.1,0.1-0.2c0.1,0,0.2,0,0.3,0c0-0.1,0-0.1,0-0.2c0-0.2-0.1-0.3-0.1-0.5c0-0.3-0.1-0.5,0-0.8
				c0-0.2,0-0.3,0-0.5c0.1-0.3,0.1-0.4,0.2-0.7c0.1-0.2,0.1-0.5,0.1-0.7c0.9,0.1,1.9,0.1,2.8-0.1c0.1,0,0.2-0.1,0.2-0.1
				c0.2,0.2,0.5,0.4,0.8,0.5c0,0,0,0.3,0,0.3c0,0.1,0,0.1,0,0.2c0,0,0.1,0.1,0.1,0.1c0.1,0,0.1,0,0.2,0c0.1-0.1,0.1-0.1,0.1-0.2
				c0-0.1,0-0.1,0-0.2c0.1,0,0.2,0,0.3,0c0.1,0,0.2,0,0.3,0l0,0.1c0,0.1,0,0.1,0,0.2c0,0.1,0.1,0.1,0.1,0.1c0.1,0,0.1,0,0.2,0
				c0.1-0.1,0.1-0.1,0.1-0.3c0,0,0-0.2,0-0.2l0.3-0.1c0,0.1,0,0.2,0,0.2c0,0.1,0,0.2-0.1,0.3c-0.1,0.1-0.1,0.3-0.2,0.4
				c-0.1,0.2-0.2,0.3-0.3,0.5l-0.2,0.2c-0.1,0.1-0.1,0.2-0.2,0.3c-0.1,0.1-0.2,0.2-0.3,0.3c-0.2,0.2-0.3,0-0.6,0.3l-0.1,0.3l0.4,0.2
				l0.4,0.1l0.1-0.1c0-0.1,0-0.2,0.1-0.2c0.1-0.1,0.1-0.1,0.2-0.1c0.1,0,0.2,0,0.3-0.1c0.1-0.1,0.1-0.3,0.2-0.4
				c0.2-0.4,0.5-0.8,0.9-1.2c0.2-0.2,0.3-0.2,0.5-0.4c0.1-0.1,0.2-0.1,0.2-0.3c0-0.1,0-0.1-0.1-0.2c0-0.1,0-0.2-0.1-0.3
				c0.5,0.2,0.3,0.2,0.4,0.4c0.1,0.2,0,0.3,0,0.5c0,0.2,0.1,0.3,0.2,0.6c0,0.2,0,0.5-0.1,0.7c0,0.2-0.1,0.4-0.1,0.6
				c-0.1,0.2-0.2,0.3-0.3,0.5c-0.1,0.1-0.1,0.1-0.2,0.1l0,0.3l0.3,0.1l0.5,0.1l0.1-0.1c0-0.2,0-0.5,0.1-0.5c0.1,0,0.2,0,0.2-0.1
				c0-0.1,0-0.1,0-0.2l0.2-1.3l0.1-0.6c0-0.2,0.1-0.3,0.1-0.5c0.2-0.6-0.1-0.7-0.3-1.1c-0.1-0.1-0.2-0.3-0.2-0.4c0-0.2,0-0.4,0-0.8
				v-0.9c0,0,0.1,0,0.1-0.1c0.3-0.1,0.6-0.4,0.7-0.7c0.1-0.1,0.1-0.3,0.1-0.4c0-0.1,0-0.2,0-0.3c0-0.1,0-0.2-0.1-0.3
				c0-0.1-0.1-0.2-0.2-0.3c-0.2-0.2-0.5-0.4-0.8-0.4c-0.4-0.1-0.8-0.2-1.2-0.2c-0.4,0-0.9,0-1.3,0c-0.6,0-0.9,0.2-1.5,0.2
				c-0.5,0.1-1,0.1-1.5,0.1c-0.7,0-1.3-0.1-1.7-0.1c-0.7,0.1-0.7,0.2-1.9,0.3l-1.1,0.1l-0.6-0.2c0.2,0,0.3-0.2,0.4-0.3
				c0.1-0.1,0.1-0.2,0.2-0.3c0.1-0.1,0.1-0.2,0.2-0.3c-0.1-0.1-0.2-0.1-0.3-0.1c-0.1,0-0.2,0-0.3,0c-0.1,0-0.3,0-0.4,0.1
				c-0.1,0-0.2,0.1-0.3,0.2c-0.2-0.1-0.4-0.3-0.7-0.4C215.5,171,215.2,170.9,214.9,170.9L214.9,170.9L214.9,170.9z M215.5,174.5
				L215.5,174.5C215.5,174.5,215.5,174.5,215.5,174.5L215.5,174.5z"/>
		</g>
		<g class="st4">
			<g>
				<path id="C_1_" class="st31" d="M228.1,174.7l-0.2,0.1c-0.2,0.1-0.5,0.2-0.8,0.1c-0.8,0.1-1.3-0.3-2.1-0.3c-0.4,0-0.6,0.4-1,0.5
					c-0.2,0-0.3,0.1-0.5,0.1l0.2-0.3c-0.2,0-0.4,0.1-0.6,0.1c-0.2,0-0.3,0-0.5,0l0.3-0.3c-0.1,0-0.3-0.1-0.4-0.1
					c-0.1,0-0.2-0.1-0.3-0.2l0.5-0.1c0.5-0.1,0.6-0.3,1.2-0.4c0.3,0,0.9,0,2.3,0.2c0.9,0.2,1.3,0.1,1.7-0.1c0.2-0.1,0.3-0.3,0.3-0.5
					c0-0.2-0.1-0.4-0.3-0.5c-0.1-0.1-0.2-0.1-0.3-0.1"/>
			</g>
			<g>
				<path id="D_1_" class="st32" d="M215,172c-0.1,0-0.3,0-0.4,0.1c-0.1,0.1-0.2,0.2-0.3,0.3c0.1,0,0.2,0.1,0.3,0.1
					c0.1,0,0.2-0.1,0.2-0.2C215,172.3,215,172.1,215,172L215,172L215,172L215,172z"/>
			</g>
			<g>
				<g>
					<path id="E_1_" class="st31" d="M218.3,176l0.1,0.2c0.1,0.1,0.1,0.3,0.2,0.4c0,0.2,0.1,0.4,0.1,0.6l0,0.1l0,0.3 M220.7,175.6
						l-0.1,0.4l-0.3,1l0,0.2 M217.1,176.1c0.2,0.1,0.2,1,0.5,1.2"/>
				</g>
				<path class="st33" d="M225.5,177.7l0.1-0.1c0.3-0.1,0.6-0.3,0.8-0.5"/>
				<g>
					<path class="st31" d="M223.2,177.2L223.2,177.2c1.1-0.3,1.8-0.8,2.3-0.9"/>
					<g>
						<path id="F_1_" class="st31" d="M224.3,175.9c0.1,0,0.2,0,0.2,0c0.4-0.1,0.5,0.2,0.8,0.4c0.6,0.3,0.6,0.7,1.3,1l0.1,0l0.3,0.1
							"/>
					</g>
				</g>
			</g>
			<g>
				<path id="G_1_" class="st32" d="M212.8,173.2c0.1,0,0.1,0,0.2,0c0.1,0,0.1-0.1,0.2-0.1c0.1,0,0.1,0,0.2,0c0,0,0.1,0.1,0.1,0.1
					c0,0,0,0.1,0,0.1c0,0.1-0.1,0.1-0.2,0.1c-0.1,0-0.1,0-0.2-0.1c0,0,0-0.1,0-0.1C213.1,173.4,212.9,173.3,212.8,173.2L212.8,173.2
					L212.8,173.2z"/>
			</g>
		</g>
		<path class="st34" d="M215.1,176.1c-0.2-0.1-0.4-0.2-0.6-0.2c0.1-0.1,0.2-0.1,0.3-0.2c0.1-0.1,0.1-0.2,0.2-0.4
			c0.1-0.2,0.1-0.3,0.2-0.4c0.1-0.1,0.2-0.1,0.3,0c0.1,0,0.2,0.1,0.3,0.2c0,0.2,0,0.3-0.1,0.4c0,0.1-0.1,0.3-0.1,0.4
			c0,0.1,0.1,0.2,0.1,0.3C215.5,176.2,215.3,176.1,215.1,176.1L215.1,176.1L215.1,176.1z M214.8,176.3c0-0.1,0.1-0.2,0.2-0.2
			c0.1,0,0.2,0.1,0.2,0.2c0,0.1-0.1,0.2-0.2,0.2C214.9,176.5,214.8,176.5,214.8,176.3L214.8,176.3z M214.2,171.4L214.2,171.4
			c-0.2-0.1-0.2-0.2-0.2-0.4c0-0.1-0.1-0.2-0.1-0.3c0-0.1,0-0.2,0-0.3c0-0.1,0-0.2,0-0.3c0-0.1,0-0.2-0.1-0.3c0-0.1-0.1-0.1-0.1-0.1
			c0,0,0.1,0,0.1,0c0.1,0,0.2,0.1,0.3,0.1c0.1,0.1,0.2,0.2,0.2,0.3l0.1,0.4c0,0.1,0,0.2,0.1,0.2c0,0.1,0.1,0.1,0.2,0.2l0,0
			c-0.1,0.1-0.1,0.2-0.2,0.2C214.4,171.3,214.3,171.4,214.2,171.4L214.2,171.4L214.2,171.4L214.2,171.4z M215.3,174.6l0.7,0.3
			c0.5-0.3,0.8-0.7,1-1.2c0.2-0.4,0.3-0.8,0.4-1.3l-0.5-0.2l-0.1,0c-0.1,0.4-0.3,0.9-0.5,1.3c-0.2,0.3-0.5,0.7-0.8,0.9L215.3,174.6
			L215.3,174.6L215.3,174.6z M216.8,180c0.1-0.1,0.2-0.3,0.3-0.4c0.1-0.1,0.3-0.2,0.4-0.3c0,0,0.1,0,0.1,0c0,0.2,0,0.3-0.1,0.5
			c0,0.1-0.1,0.2-0.1,0.4c0,0.1-0.1,0.2-0.1,0.3c0,0.1-0.1,0.1-0.1,0.2C217,180.4,216.8,180.2,216.8,180L216.8,180L216.8,180z
			 M226.7,180.6c0.3,0.1,0.6,0.2,0.9,0.4c0,0,0,0.1,0,0.1c-0.2,0-0.3,0.1-0.5,0.1c-0.1,0-0.3,0-0.4,0c-0.1,0-0.2,0-0.3,0
			c-0.1,0-0.1-0.1-0.2-0.1C226.4,180.9,226.5,180.6,226.7,180.6z M223.7,180c0.3,0.1,0.6,0.2,0.9,0.4c0,0,0,0.1,0,0.1
			c-0.2,0-0.3,0.1-0.5,0.1c-0.1,0-0.3,0-0.4,0c-0.1,0-0.2,0-0.3,0c-0.1,0-0.1-0.1-0.2-0.1C223.5,180.3,223.6,180,223.7,180z
			 M218.6,180.6c0.1,0,0.3,0.1,0.4,0.2c0.2,0.1,0.3,0.2,0.4,0.3c0,0,0,0.1,0,0.1c-0.2,0-0.3,0.1-0.5,0.1c-0.1,0-0.3,0-0.4,0
			c-0.1,0-0.2,0-0.3,0c-0.1,0-0.1-0.1-0.2-0.1C218.3,180.9,218.4,180.6,218.6,180.6L218.6,180.6z M215.9,171.7
			c-0.2-0.1-0.3-0.3-0.2-0.5c0-0.1,0.1-0.1,0.2-0.1c0-0.1,0.1-0.2,0-0.3c0-0.1,0-0.2-0.1-0.3c0-0.1,0-0.2,0-0.3c0-0.2,0-0.3,0.1-0.5
			c0.1-0.1,0.1-0.1,0.2-0.2c0,0,0,0.2,0,0.2c0,0.1,0,0.2,0.1,0.3c0.1,0.2,0.1,0.2,0.2,0.4c0.1,0.1,0.1,0.3,0.1,0.4
			c0,0.1,0,0.2-0.1,0.3c0,0.1-0.1,0.2-0.2,0.3c-0.1,0.1-0.1,0.1-0.2,0.1C216,171.7,215.9,171.7,215.9,171.7L215.9,171.7L215.9,171.7
			z"/>
		<path class="st35" d="M181.4,130.8H206v24.5h-24.6V130.8z M208.6,130.8h24.6v24.5h-24.6V130.8z M181.5,176.6
			c0.1,0.7,0.3,1.4,0.6,2c0.4,0.7,0.3,0.7,1.3,1.8c0.5,0.5,1.2,1,1.9,1.3c0.6,0.3,1.3,0.6,2,0.7c1.6,0.4,3.3,0.6,5,0.5
			c1-0.1,2-0.2,3.1-0.3c1.1-0.2,2.2-0.3,3.3-0.3c0.6,0,1.2,0,1.8,0c0.7,0,1.5,0.1,2.2,0.3c1.1,0.2,2.2,0.6,3.3,1l0-25.6l-24.6,0
			v17.5C181.4,175.4,181.5,176.3,181.5,176.6L181.5,176.6L181.5,176.6z M233.1,176.6c-0.1,0.7-0.3,1.4-0.6,2
			c-0.4,0.7-0.3,0.7-1.3,1.8c-0.5,0.5-1.2,1-1.9,1.3c-0.6,0.3-1.3,0.6-2,0.7c-1.6,0.4-3.3,0.6-5,0.5c-1-0.1-2-0.2-3.1-0.3
			c-1.1-0.2-2.2-0.3-3.3-0.3c-0.6,0-1.2,0-1.8,0c-0.7,0-1.5,0.1-2.2,0.3c-1.1,0.2-2.2,0.6-3.3,1l0-25.6l24.6,0v17.5
			C233.2,175.4,233.2,176.3,233.1,176.6L233.1,176.6L233.1,176.6z"/>
	</g>
	<g>
		<path class="st36" d="M197.7,250.3c0.4,1.7,0.8,2.9,0.9,4.2c0.4,4.4-2.1,7.5-6.4,6.7c-5.4-1-10,1-14.6,2.9c-2.6,1-4.8,1.4-7.4-0.1
			c-2.3-1.3-4.9-1.6-7.5-1.2c-10.6,1.4-20.7-2-31.1-3c-4.3-0.4-5.7-3-5.1-7.5c0.2-1.7-1-2.8-1.9-3.9c-1.6-1.9-1.8-3.6-0.1-5.7
			c2.3-2.9,1.9-4.2-1.8-5.1c-1.4-0.4-1.8-1-1.8-2.2c0-1.6,0.1-3.2,0.1-4.8c0.2-5.8-3.2-9.6-9-9.8c-3.2-0.1-6.5,0.2-9.6-0.8
			c-3.7-1.1-4.1-2.8-1.4-5.7c2.9-3.1,6.8-3.6,10.6-4.2c3.4-0.6,6.9-0.6,10.1-2c2.6-1.1,5.6-1.8,5.5-5.7c0-1.4,1.7-1.8,2.7-2.6
			c7.8-6.5,9.1-5.1,3.2-15.5c-1.4-2.6-2.8-5-5.4-6.7c-2.7-1.8-2.9-5-3.2-7.8c-0.4-3.7-2.2-5.1-5.7-5.5c-6.2-0.9-10.8,2.4-15.3,5.6
			c-1.6,1.2-3.1,1.9-5,0.6c-0.1-1.8,0.8-3.3,1.4-4.9c0.6-1.6,1.4-3.1,0.8-4.9c-0.3-0.9,0.3-1.6,0.8-2.3c0.5-0.7,1.2-1.4,1.3-2.2
			c0.7-5.8,5.3-7.9,9.5-10.5c2.1-1.3,4-2.5,4.2-5.3c0.2-2.8-1.2-4.5-4-4.8c-4.6-0.4-9.2-6.5-8.4-11.1c0.2-1.2,1.2-1.4,2-1.8
			c4.5-2.2,6.4-6.6,8.9-10.4c0.7-1.1-0.3-2-0.5-3c1.8-1.6,3.8-1.7,5.9-1.2c1.8,0.4,3.4,0.2,4.6-1.4c0.8-1,1.9-1.3,3.1-1.6
			c2.6-0.6,4.7-2,6.6-3.9c2.7-2.7,3.3-6,0.2-9.9c-2.2-2.7-2.3-6.3-4.5-8.9c-0.9-1.1-0.7-3.9,0.6-4.8c4.5-2.8,4.3-7,4.2-11.4
			c0-0.7,0-1.5,0-2.1c2.8-1.6,5.9-1.8,8.7-3c1.9-0.8,3.5,1.2,4.3,2.6c1.7,3.2,4.3,3.6,7.3,3.3c2.3-0.2,4.5-0.4,6.8-0.7
			c2.2-0.2,3.5-1.1,2.2-3.5c2.7-1.1,5.2-2,8.2-1.6c2.8,0.3,4.2-2.6,6.4-3.8c1.3-0.8,2.4-1.2,3.8-0.8c2.5,0.8,4.7,3.1,7.8,1.5
			c0.3-0.2,1.4,0.9,1.9,1.5c1.2,1.3,2.2,2.5,4.3,2.3c1.4-0.2,2,1.1,2.6,2.1c1.2,2.1,2.6,4.2,3.7,6.5c1.3,2.7,3.1,4,6.1,3.8
			c1.4-0.1,2.7,0.3,3.7,1.5c4.2,4.7,4.3,4.6,10.4,1.8c0.8,2.4,2.7,2.2,4.6,1.9c4.2-0.7,8.7,0.2,12.3-3c0.8-0.7,1.9-0.4,2.8-0.2
			c2.7,0.6,5.5,1.2,8.2,1.8c2.5,0.5,4.1,1.6,2.8,4.8c6,0,11.7,0.3,16.7-3.6c1.8-1.4,4.4-0.5,6.5,0.1c1.6,0.5,3,0.7,4.7,0.4
			c3.6-0.7,6,2.1,8.6,3.8c2.6,1.7,4.2,2.2,7.6,0.8c2.8-1.2,6.8-0.5,9.7-2.4c2.2,5.1,0.7,8.8-2.3,12.4c-3.3,3.9-2.4,8.5-1.5,13
			c0.3,1.6,1.8,1.5,2.9,1.4c4.6-0.5,8.6,1.3,12.7,3.1c5,2.3,10.2,4.5,15.8,1.5c1-0.5,2,0,2.6,0.8c1.7,2.1,3.8,3.1,6.5,2.4
			c0.1,0.5,0.3,0.8,0.2,0.8c-2.9,2.1-5.4,4.5-7.8,7.2c-2.1,2.4-4.7,3.8-8.4,3.8c-7.2,0-11.3,4.9-13.9,11.9c-1.2,3.3-1.5,6.5-2.3,9.7
			c-0.7,2.9-0.4,5,0.4,7.5c1.5,4.5-0.4,11.1-3.9,13.9c-2,1.6-0.8,3.6-0.7,5.4c0.1,0.9,0.6,1.8,1,2.7c2.4,5.8-1.5,9.4-4.5,13.4
			c-0.8,1.1-1.8,2.1-2.8,3.1c-3.8,3.9-4.8,4.1-9.4,1.5c-7.7-4.3-14.6-1-21.6,1.9c-1.3,0.6-1.5,2.1-1.7,3.3
			c-0.5,3.8-1.2,7.6,0.7,11.4c1,1.9-1.4,6.7-3.4,7.4c-2.1,0.8-4.1,2.7-6.5,0.7c-0.6-0.5-1.3,0.1-1.7,0.5c-1.2,1.1-2.6,1.5-4.2,1.4
			c-1.1-0.1-2.3,0.2-3,1.1c-2,2.7-4.5,2.1-7,1.3c-1.6-0.5-2.9-0.6-4.2,0.4c-0.9,0.7-1.9,0.9-3,0.3c-1.1-0.6-2.1-0.3-3,0.3
			c-1.1,0.8-2.2,0.7-3.3,0.1c-1.9-1-3.9-0.8-5.6,0.3c-3.9,2.6-6.7,6.1-7.2,10.9c-0.3,3.1-2.2,4.3-5,2.8c-2-1.1-3.4-3-4.9-4.6
			c-1.3-1.4-2.6-3.1-4.9-2.4c-2.2,0.8-2.2,2.9-2.5,4.8c-0.3,2-0.4,4.1,0,6.1C201.4,248,201.3,250.1,197.7,250.3z"/>
	</g>
</g>
<rect y="16.6" class="st37" width="400" height="300"/>
<path class="st38" d="M50.8,22.4c7.2,7,7.3,18.5,0.3,25.7l0,0l-0.3,0.3c-7.2,7.2-18.9,7.3-26.1,0.1s-7.3-18.9-0.1-26.1
	c7.2-7.2,18.9-7.3,26.1-0.1L50.8,22.4z M44.8,42.4c1.9-1.8,2.9-4.4,2.9-7c0.1-2.6-1-5.1-2.9-6.9c-1.9-1.9-4.4-2.9-7.1-2.8
	c-5.3-0.1-9.7,4.2-9.8,9.5v0.2c0,2.6,1,5.1,2.8,7s4.3,2.9,6.9,2.9C40.3,45.4,42.9,44.4,44.8,42.4z M87,24.8L39.3,98.8
	c-0.8,1.5-2.4,2.5-4.1,2.4c-2.7-0.1-4.9-2.3-5-5c0.1-1,0.4-2,0.9-2.9l47.8-74.2c0.8-1.5,2.4-2.5,4.1-2.4c1.4,0,2.7,0.5,3.6,1.5
	c1,0.9,1.5,2.3,1.4,3.6C87.9,22.9,87.6,23.9,87,24.8L87,24.8z M67.2,95.8c-7.2-7.2-7.2-18.8,0-26l0.1-0.1c3.4-3.4,8.1-5.3,12.9-5.4
	c10.2-0.1,18.4,8.1,18.5,18.3c0.1,10.2-8.1,18.4-18.3,18.5C75.5,101.3,70.7,99.3,67.2,95.8z M73.2,75.8c-3.9,3.7-4,9.8-0.3,13.7
	l0.1,0.1l0.2,0.2c3.8,3.8,9.9,3.9,13.7,0.1c2-1.9,3-4.6,2.9-7.4c-0.2-5.2-4.4-9.4-9.6-9.6C77.6,72.9,75.1,74.1,73.2,75.8L73.2,75.8z
	"/>
<g>
	
		<ellipse transform="matrix(0.9509 -0.3096 0.3096 0.9509 -62.7216 114.5088)" class="st39" cx="329.4" cy="254.9" rx="56.2" ry="30.9"/>
	
		<ellipse transform="matrix(0.957 -0.2902 0.2902 0.957 -58.3137 105.8775)" class="st40" cx="327.8" cy="249.6" rx="56.2" ry="27.3"/>
	
		<ellipse transform="matrix(0.957 -0.2902 0.2902 0.957 -58.3137 105.8775)" class="st41" cx="327.8" cy="249.6" rx="44.9" ry="21.8"/>
	<path class="st39" d="M316.6,260.4c2,2.2,7.7,1.8,12.7-0.2c3.2-1.4,5.3-3.4,5.7-5.1l0.4-1l1.6-0.4c1.6-0.4,3.2-0.8,4.9-1.6
		c5.1-2.2,7.3-5.7,5.1-7.7l-0.8-0.4l5.3-2.2c1-0.4,1.8-1.2,1.2-1.8c-0.4-0.4-1.6-0.4-2.8,0l-5.3,2.2l-2.8-2.8l5.3-2.2
		c1-0.4,1.8-1.2,1.2-1.6c-0.8-0.4-2-0.4-2.8,0l-5.3,2.2l-2.4-2.4c-0.4-0.4-1.6-0.4-2.8,0c-1,0.4-1.8,1.2-1.2,1.6l2,2.4l-24.3,10.9
		l-2-2.4c-0.4-0.4-1.6-0.4-2.8,0c-1,0.4-1.8,1.2-1.2,1.6l2,2.4l-4.7,2c-1,0.4-1.8,1.2-1.2,1.8c0.4,0.4,1.6,0.4,2.8,0l5.3-2.2l2.8,3
		l-5.3,2.2c-1,0.4-1.8,1.2-1.2,1.6c0.8,0.4,2,0.4,2.8,0l5.3-2.2L316.6,260.4z M338.3,241l4.9,5.1c1,1.2-0.2,3.2-2.8,4.4
		c-2.8,1.4-6.3,1.4-7.3,0.2l-4.9-5.1L338.3,241z M313.8,251.7l10.3-4.4l6.5,6.5c1,1.2-0.2,3.2-2.8,4.4c-2.6,1.4-5.9,1.4-7.3,0.2
		L313.8,251.7z"/>
</g>
<g>
	
		<ellipse transform="matrix(0.9449 -0.3274 0.3274 0.9449 1.8704 118.9114)" class="st42" cx="354.1" cy="53.9" rx="23.8" ry="49.3"/>
	
		<ellipse transform="matrix(0.9449 -0.3274 0.3274 0.9449 1.5611 117.694)" class="st43" cx="350.4" cy="54.2" rx="22.1" ry="48.3"/>
	
		<ellipse transform="matrix(0.9449 -0.3274 0.3274 0.9449 1.5611 117.694)" class="st44" cx="350.4" cy="54.2" rx="17.8" ry="38.7"/>
	<path class="st45" d="M347.7,45.6l-2.5-10.5c-1.1,0.4-2,0.8-3,1c-0.6,0.2-0.5,0.7-0.2,1.7c0.7,3.4,1.4,6.8,2.3,10.2
		c0.5,2.2,0.5,3.4-0.3,4.5c-0.8,1.3-1,1.5,0.5,4.1l1.2-2c0.9,3.6,1.5,7,2.4,10.5l10.5-3.6c0.1-0.1,0.3-0.2,0.2-0.8
		c-0.3-1.6-0.6-3.3-0.9-5.2l-7.2,2.5c-0.3-2-0.7-3.8-1.2-5.6c-0.7-2.3-0.5-3.6,0.2-4.6c0.9-1.3,0.8-1.4-0.5-4.1L347.7,45.6z"/>
</g>
<g>
	<ellipse class="st46" cx="48.9" cy="150" rx="28.5" ry="32.8"/>
	<ellipse class="st47" cx="45.5" cy="148.9" rx="27.5" ry="31.7"/>
	<ellipse class="st46" cx="45.5" cy="148.9" rx="22.1" ry="25.4"/>
	<path class="st47" d="M50.2,134.2c2.9,0,5.2,2.5,5.4,6c0.2,3.3-2,5.9-4.6,6.3c-0.4,0.1-0.7,0.2-1.1,0.1c-1.2-0.2-2.3,0.7-2.4,1.9
		v0.4c0,1.5,0.9,2.5,2.2,2.4c2.6-0.2,4.9,1.8,5.5,4.7c0.6,2.3-0.2,4.6-1.8,6.3c-1.4,1.5-3.6,1.9-5.5,0.9c-2-1-3.1-2.8-3.3-5.4
		c-0.1-1.2,0.2-2.4,0.6-3.5c0.5-0.9,0.2-1.9-0.5-2.7c-0.6-0.6-1.5-0.7-2.3-0.4c-0.3,0.2-0.6,0.5-0.7,0.8c-1.4,2.3-3.3,3.2-5.5,2.6
		c-2.3-0.5-3.6-2.3-4.2-4.9c-0.7-3.7,2.3-7.6,5.6-7.3c2.2,0.2,3.6,1.5,4.6,3.6c0.3,1,1.4,1.5,2.3,1.3c0.1,0,0.1,0,0.2-0.1
		c0.2-0.1,0.2-0.1,0.3-0.2c1.1-0.6,1.5-2.1,0.9-3.3c-0.5-1.1-0.9-2.2-1-3.3C44.8,137,47.1,134.3,50.2,134.2z"/>
</g>
<g>
	<path class="st48" d="M92.2,242.6c1.6,2.4,3.1,5,4.3,7.7l0.4,0.5c0,0.3,0.1,1,0.4,1.4l0.1,0.3c-0.4,1.3,0.6,2.8,0.8,4.5
		c0.1,1-0.4,1.4,0.3,2.3c-0.5,1.7-0.6,4-1.3,5.9c-0.2,0-0.2,0.2-0.2,0.4l0.1,0.1c-0.7,1-1.4,1.9-1.8,3.1c0,0-0.5-0.3-0.3,0.1
		c-2.1,2.1-4.6,3.8-7.3,5c-2.3,0.3-4.9,1.7-7.5,1.7c-23.1,4.1-65.9-21.7-60.6-46.2c0.3-0.1-0.2-0.5,0.1-0.9s0.6-0.3,0.4-0.6
		c-0.1-1.9,2.9-4.3,3.4-5.6c0.4-0.3,0.7-0.6,0.9-1c0.7-0.4,1.3-1,2.1-1.1c1.5-1,3-1.8,4.6-2.5c0.7,0,1.1-0.1,1.7-0.4
		c3.5-0.8,6.9-1.1,10.4-0.9c0.5-0.4,1.3,0.4,1.6-0.3c0,0.2,0.2,0.2,0.4,0.2l0.1-0.1c3.7,0.5,7.9,1.5,11.8,2.2c0.2,0.2,0.6,0.4,1,0.2
		c5.7,2.1,11.4,4.8,16.8,7.8c0.5,0.6,1.2,1.1,2,1.1c1.3,1.2,2.7,2.3,4.3,3.1c0.2,0.2,0.3,0.6,0.6,0.4c0.9,1.4,2.8,2.4,3.9,3.7
		c0.7,0,0.6,0.8,1.3,0.8c0.1,0.3,0.3,0.1,0.5,0.3c-0.4,0.6,0.4,0.7,0.8,1C88.8,239.2,90.8,240.3,92.2,242.6z M82,269.4
		c15.3-4.6,10.7-20.4,2.9-29c-19.7-21.9-55.4-25.7-59-8c-2.5,9.4,5.3,18.2,11.7,24.4c12.2,9.6,28.3,17,43.9,12.9L82,269.4z"/>
	<path class="st49" d="M81.6,269.7c-15.8,4.1-31.7-3.4-43.9-12.9c-6.2-6.2-14.2-15.1-11.7-24.4c2.4-3.8,5.9-6.4,10.2-7.7
		c12.3-2.4,22.2,1.6,32.1,6.2c4,3.3,9.3,5.9,12.6,10.1c8.1,7.4,13.4,22.3,1.3,28.4C82,269.1,81.2,269.2,81.6,269.7z M64.6,240.5
		C64.9,240.9,65.4,240.2,64.6,240.5c-4.8-4-9.9-7.6-15.1-11.4l-0.7,12.6c2-1.3,3.9-3.1,5.8-4.4C58,238.5,61.2,239.6,64.6,240.5z
		 M69.9,244.1c-4.3-2-9.5-3.2-14.1-5.1c-1.3,0.7-2.4,1.6-3.4,2.5c-1.5,1-2.9,2.2-4.3,3.3c0,0.3,0.5,0.3,0.6,0.6
		c7.2,5.8,14.5,12.1,22.1,17.8C70.5,257,71,250.2,69.9,244.1z"/>
	<path class="st49" d="M94.5,270.7l-0.3,0.1c-1.2,1.3-2.2,2.8-2.9,4.5c-0.7,0.4-1,1.3-1.7,1.6c-1.8,2.2-4.7,3-7.3,4.6
		c-3.6,0.7-7.3,1.3-11,1.5c-0.1-0.1-0.2-0.2-0.3-0.1l-0.1,0.1c-1.9-0.5-4.7-0.1-6.8-0.8c-2.2-0.1-4.2-1.4-6.2-1.1
		c0-0.2-0.2-0.2-0.4-0.2l-0.1,0.1c-0.3-0.6-0.9-0.8-1.5-0.5c-0.1-0.1-0.2-0.2-0.5-0.1c-0.3-0.6-0.9-0.8-1.5-0.5
		c0-0.2-0.2-0.2-0.5-0.1c0-0.2-0.2-0.2-0.4-0.2l-0.1,0.1c-0.3-0.4-0.5-0.5-0.9-0.5l0,0c-0.5-0.6-0.6-0.6-1.4-0.3
		c-4.1-2.4-9-4.3-13.4-7.1c-1-0.7-2.7-2.6-3.9-2.5c-1.3-1.8-4-2.9-5.5-5.1c-0.8,0-0.8-1-1.3-1c-3.9-4.5-7.7-9.1-9.7-14.7
		c-0.7-1.8-0.9-4.3-1.6-6.3c0.5-0.5,0.1-1.2,0.1-2.3c0.4-3.8,1.9-7.4,4.2-10.4c-5.1,26.2,39.7,50.3,60.7,45.7c2.4,0,5.1-1.1,7.5-1.7
		c2.8-1.3,5.2-3,7.3-5c0.2,0.9-0.5,1.3-0.8,1.8L94.5,270.7z"/>
	<path class="st50" d="M82,269.4c12.5-6.5,6.2-21.3-1.3-28.4c-3.3-4.3-8.5-6.8-12.6-10.1c-10.4-5-20.8-8.4-32.1-6.2
		c-2.8,0.9-5.5,2.5-7.9,4.3c-1.1,1-1.1,2.3-2.5,3.2c1-6.7,7.7-9.8,14-10.9c17.5-2.1,35.4,8.2,45.1,18.9
		C95.2,252.3,94.5,265.8,82,269.4z"/>
	<path class="st50" d="M81.6,269.7c-0.1-0.1,0-0.3,0.1-0.5c0.2-0.2,0.3,0,0.5,0.1L81.6,269.7z"/>
	<path class="st48" d="M70,244.2c0.9,6,0.4,12.6,1,19c-7.4-5.5-14.8-11.7-22.1-17.8c3.8,0.1,8.8,2,12.8,3.1
		C64.4,247.2,67.1,245.7,70,244.2z"/>
	<path class="st51" d="M70,244.2c-2.7,1.5-5.4,2.7-8.4,4.5c-4-1.1-8.7-2.9-12.8-3.1c-0.1-0.3-0.8,0-0.6-0.6c1.3-1.1,2.8-2.2,4.3-3.3
		c1.1-1,2.3-1.9,3.4-2.5C60.4,241,65.8,242.1,70,244.2z"/>
	<path class="st48" d="M64.5,240.6l-9.9-3.4c-1.8,1.2-3.7,3-5.8,4.4l0.7-12.6C54.6,233,59.8,236.5,64.5,240.6z"/>
</g>
</svg>
