<?xml version="1.0" encoding="utf-8"?>
<!-- Generator: Adobe Illustrator 24.3.0, SVG Export Plug-In . SVG Version: 6.00 Build 0)  -->
<svg version="1.1" id="Layer_1" xmlns="http://www.w3.org/2000/svg" xmlns:xlink="http://www.w3.org/1999/xlink" x="0px" y="0px"
	 viewBox="0 0 400 300" style="enable-background:new 0 0 400 300;" xml:space="preserve">
<style type="text/css">
	.st0{fill:#F3F2EF;}
	.st1{fill:#C98017;}
	.st2{fill:#FBED60;}
	.st3{fill:#FABA31;}
	.st4{fill:#68C2EE;}
	.st5{fill:#0491BE;}
	.st6{fill:#68C2EF;}
	.st7{fill:#31798F;}
	.st8{fill:#C1BDBE;}
	.st9{fill:#6E6E6E;}
	.st10{fill:#6C6C6C;}
	.st11{fill:#BCBCBC;}
	.st12{fill:#E1E1E1;}
	.st13{fill:#0A0A09;}
	.st14{clip-path:url(#SVGID_2_);fill:#C8102E;}
	.st15{clip-path:url(#SVGID_2_);fill:#FFFFFF;}
	.st16{fill:none;stroke:#000000;stroke-miterlimit:10;}
</style>
<path class="st0" d="M353.3,236.1c4.9,4.8,5,12.7,0.2,17.6l0,0l-0.2,0.2c-4.9,4.9-12.9,5-17.8,0.1c-4.9-4.9-5-12.9-0.1-17.8
	C340.3,231.2,348.3,231.2,353.3,236.1L353.3,236.1z M349.2,249.8c1.3-1.2,2-3,2-4.8c0.1-1.8-0.7-3.5-2-4.7c-1.3-1.3-3-2-4.9-1.9
	c-3.6-0.1-6.6,2.9-6.7,6.5v0.1c0,1.8,0.7,3.5,1.9,4.8c1.2,1.3,2.9,2,4.7,2C346.1,251.9,347.9,251.1,349.2,249.8z M378,237.7
	l-32.6,50.7c-0.5,1-1.6,1.7-2.8,1.6c-1.8-0.1-3.4-1.6-3.4-3.4c0.1-0.7,0.3-1.4,0.6-2l32.7-50.7c0.5-1,1.6-1.7,2.8-1.6
	c1,0,1.8,0.3,2.5,1c0.7,0.6,1,1.6,1,2.5C378.7,236.4,378.5,237.1,378,237.7L378,237.7z M364.5,286.3c-4.9-4.9-4.9-12.9,0-17.8
	l0.1-0.1c2.3-2.3,5.5-3.6,8.8-3.7c7-0.1,12.6,5.5,12.7,12.5s-5.5,12.6-12.5,12.7C370.2,290.1,366.9,288.7,364.5,286.3z M368.6,272.7
	c-2.7,2.5-2.7,6.7-0.2,9.4l0.1,0.1l0.1,0.1c2.6,2.6,6.8,2.7,9.4,0.1c1.4-1.3,2.1-3.1,2-5.1c-0.1-3.6-3-6.4-6.6-6.6
	C371.6,270.7,369.9,271.4,368.6,272.7L368.6,272.7z"/>
<g>
	<ellipse transform="matrix(0.9833 -0.1818 0.1818 0.9833 -9.8265 17.848)" class="st1" cx="92.5" cy="62.5" rx="43" ry="23.6"/>
	<ellipse transform="matrix(0.9868 -0.1617 0.1617 0.9868 -8.2268 15.6387)" class="st2" cx="92" cy="58.4" rx="43" ry="20.9"/>
	<ellipse transform="matrix(0.9868 -0.1617 0.1617 0.9868 -8.2268 15.6387)" class="st3" cx="92" cy="58.4" rx="34.4" ry="16.7"/>
	<path class="st1" d="M82.2,65.4c1.3,1.8,5.6,2.2,9.6,1.2c2.5-0.7,4.4-2,4.9-3.3l0.3-0.7l1.2,0c1.2,0,2.6-0.2,3.8-0.7
		c4-1.1,6.1-3.6,4.8-5.3l-0.5-0.6l4.2-1.1c0.9-0.2,1.4-0.8,1.1-1.2c-0.3-0.4-1.3-0.5-2.1-0.3l-4.2,1.1l-1.8-2.4l4.2-1.1
		c0.9-0.2,1.4-0.8,1-1.1c-0.6-0.4-1.4-0.5-2.1-0.3l-4.2,1.1l-1.4-2c-0.3-0.4-1.3-0.5-2.1-0.3c-0.9,0.2-1.4,0.8-1,1.1l1.4,2
		l-19.5,5.7l-1.4-2c-0.3-0.4-1.3-0.5-2.1-0.3s-1.4,0.8-1,1.1l1.4,2l-4.2,1.1c-0.9,0.2-1.4,0.8-1.1,1.2s1.3,0.5,2.1,0.3l4.2-1.1
		l1.9,2.5l-4.2,1.1c-0.9,0.2-1.4,0.8-1,1.1c0.6,0.4,1.4,0.5,2.1,0.3l4.2-1.1L82.2,65.4z M100.5,53l3.3,4.4c0.8,1-0.5,2.4-2.7,3
		c-2.2,0.8-4.9,0.3-5.6-0.6l-3.3-4.4L100.5,53z M80.9,58.7l8.2-2.3l4.3,5.7c0.8,1-0.5,2.4-2.7,3s-4.7,0.4-5.6-0.6L80.9,58.7z"/>
</g>
<g>
	
		<ellipse transform="matrix(0.6945 -0.7195 0.7195 0.6945 30.0181 154.4856)" class="st4" cx="196.9" cy="41.9" rx="21.6" ry="44.7"/>
	<ellipse transform="matrix(0.6945 -0.7195 0.7195 0.6945 32.2419 156.0734)" class="st5" cx="199.9" cy="40.1" rx="20" ry="43.8"/>
	
		<ellipse transform="matrix(0.6945 -0.7195 0.7195 0.6945 32.2419 156.0734)" class="st6" cx="199.9" cy="40.1" rx="16.1" ry="35.1"/>
	<path class="st7" d="M205.5,46l6.3,7.4c0.7-0.7,1.2-1.4,2-2c0.4-0.4,0.2-0.8-0.5-1.4c-1.9-2.5-4-4.8-6.1-7.3
		c-1.3-1.5-1.8-2.6-1.6-3.6c0.1-1.4,0.1-1.6-2-3.2l-0.2,2c-2.2-2.6-4-5.1-6.2-7.4l-7,7.2c-0.1,0.2-0.2,0.4,0.2,0.8
		c1,1.2,1.8,2.4,2.9,3.8l4.8-4.9c1.1,1.4,2.1,2.7,3.4,4c1.4,1.6,1.9,2.6,1.7,3.8c-0.3,1.4-0.1,1.5,2,3.2L205.5,46z"/>
</g>
<g>
	<ellipse class="st8" cx="309" cy="38.2" rx="27" ry="31"/>
	<ellipse class="st9" cx="305.7" cy="37.2" rx="26" ry="30"/>
	<ellipse class="st8" cx="305.7" cy="37.2" rx="20.8" ry="24.1"/>
	<path class="st9" d="M310.3,23.3c2.8,0,4.9,2.3,5.1,5.7c0.1,3.1-1.9,5.6-4.4,6c-0.4,0.1-0.8,0.1-1.1,0.1c-1.1-0.1-2.1,0.7-2.3,1.8
		v0.4c0,1.3,0.8,2.3,2,2.3c2.5-0.1,4.6,1.7,5.2,4.5c0.6,2.2-0.1,4.4-1.7,5.9c-1.3,1.5-3.5,1.8-5.2,0.8c-1.9-0.9-2.9-2.7-3.1-5.1
		c-0.1-1.1,0.1-2.3,0.6-3.3c0.4-0.8,0.2-1.9-0.4-2.5c-0.6-0.6-1.4-0.8-2.2-0.4c-0.3,0.2-0.6,0.4-0.8,0.8c-1.3,2.1-3.1,3-5.2,2.5
		c-2.2-0.5-3.5-2.2-4-4.7c-0.7-3.6,2.1-7.2,5.3-6.9c2,0.1,3.5,1.3,4.4,3.5c0.3,0.9,1.3,1.4,2.2,1.2c0.1,0,0.1,0,0.1-0.1
		c0.1-0.1,0.1-0.1,0.3-0.1c1.1-0.6,1.4-2,0.8-3.1c-0.5-1-0.8-2-0.9-3.1C305.2,26,307.3,23.3,310.3,23.3z"/>
</g>
<g>
	<path class="st10" d="M39,107.7c2.2-0.8,4.5-1.6,6.7-2.1l0.5-0.2c0.3,0.1,0.8,0,1.1-0.1l0.3,0c0.9,0.5,2.3,0.1,3.6,0.2
		c0.8,0,1,0.6,1.8,0.1c1.2,0.7,3,1.2,4.4,2.1c0,0.2,0.1,0.2,0.3,0.2l0.1-0.1c0.6,0.7,1.3,1.4,2.1,2c0,0-0.3,0.4,0,0.3
		c1.3,2,2.1,4.2,2.7,6.6c-0.1,1.8,0.5,4.1,0,6.2c-0.8,18.8-28.4,47.8-46.7,39.3c0-0.3-0.4,0-0.6-0.3c-0.2-0.3-0.1-0.5-0.4-0.4
		c-1.5-0.3-2.9-3-3.8-3.7c-0.1-0.4-0.3-0.6-0.6-0.9c-0.1-0.6-0.6-1.2-0.4-1.8c-0.5-1.4-0.9-2.7-1.2-4.1c0.1-0.5,0.1-0.9,0-1.4
		c0-2.9,0.4-5.6,1.2-8.3c-0.2-0.5,0.5-0.9,0.1-1.3c0.2,0,0.2-0.1,0.2-0.3l-0.1-0.1c1.1-2.8,2.5-6,3.8-8.9c0.2-0.1,0.4-0.4,0.4-0.7
		c2.7-4.1,5.8-8.1,9.1-11.8c0.5-0.2,1.1-0.7,1.2-1.3c1.1-0.8,2.2-1.7,3.2-2.8c0.2-0.1,0.5-0.1,0.4-0.4c1.3-0.5,2.3-1.8,3.6-2.4
		c0.1-0.5,0.8-0.3,0.8-0.9c0.3,0,0.1-0.2,0.3-0.4c0.4,0.4,0.6-0.1,0.9-0.4C35.8,109.7,36.9,108.3,39,107.7z M58.1,120.3
		c-1-12.7-14.1-11.9-22.2-7.4C15.3,124.5,6,151.7,19.3,157.6c6.9,3.6,15.1-1,21.2-4.8c9.7-7.9,18.2-19.1,17.8-32.1L58.1,120.3z"/>
	<path class="st11" d="M58.3,120.7c0.5,13-8.3,24.3-17.8,32.1c-5.9,3.8-14.3,8.4-21.2,4.8c-2.5-2.5-4-5.8-4.2-9.4
		c0.3-10,5.2-17,10.5-24c3.2-2.6,6.2-6.3,10.1-8c7.2-5,19.8-6.6,22.4,4C57.8,120.3,57.8,120.9,58.3,120.7z M32.5,128.8
		C32.9,128.7,32.4,128.2,32.5,128.8c-4,3.1-7.7,6.4-11.6,9.8l9.7,2.7c-0.7-1.8-1.7-3.7-2.5-5.3C29.7,133.6,31.1,131.4,32.5,128.8z
		 M36.2,125.3c-2.4,3-4.2,6.9-6.4,10.2c0.3,1.1,0.8,2.2,1.4,3.2c0.5,1.4,1.2,2.6,1.8,3.9c0.3,0.1,0.3-0.4,0.6-0.4
		c5.8-4.6,12-9.2,17.7-14.2C46.4,127.1,41.1,125.6,36.2,125.3z"/>
	<path class="st11" d="M61.3,110.8l0,0.3c0.8,1.1,1.8,2.2,3,3c0.1,0.6,0.8,1,0.9,1.7c1.4,1.8,1.6,4.2,2.3,6.4
		c-0.1,2.9-0.3,5.9-0.8,8.9c-0.1,0.1-0.2,0.1-0.1,0.2l0.1,0.1c-0.7,1.4-0.9,3.6-1.8,5.2c-0.5,1.7-1.9,3-1.9,4.6
		c-0.2,0-0.2,0.1-0.2,0.3l0.1,0.1c-0.5,0.1-0.8,0.5-0.7,1.1c-0.1,0.1-0.2,0.1-0.2,0.4c-0.5,0.1-0.8,0.5-0.7,1.1
		c-0.2,0-0.2,0.1-0.2,0.4c-0.2,0-0.2,0.1-0.2,0.3l0.1,0.1c-0.4,0.1-0.5,0.3-0.5,0.7l0,0c-0.5,0.2-0.6,0.4-0.4,1
		c-2.6,2.8-5,6.3-7.9,9.2c-0.7,0.6-2.5,1.6-2.6,2.6c-1.6,0.7-3.1,2.6-4.9,3.4c-0.2,0.6-0.9,0.4-1,0.8c-4.2,2.2-8.5,4.4-13.1,5
		c-1.6,0.2-3.5-0.1-5.2,0.2c-0.3-0.5-1-0.3-1.8-0.5c-2.9-1-5.4-2.8-7.4-5.1c19.6,8.5,46.3-22.2,46.4-39.4c0.5-1.9,0-4.2,0-6.2
		c-0.5-2.4-1.4-4.6-2.7-6.6c0.7-0.1,0.9,0.7,1.3,1L61.3,110.8z"/>
	<path class="st12" d="M58.1,120.3c-2.9-10.9-15.6-8.5-22.4-4c-3.9,1.8-6.8,5.4-10.1,8c-5.8,7.3-10.3,14.8-10.5,24
		c0.3,2.4,1,4.8,2,6.9c0.6,1,1.6,1.3,2.1,2.5c-5-2-6.3-7.7-6.1-12.8c1.4-14.1,12.6-26.2,22.7-31.9C47.1,107,57.5,109.9,58.1,120.3z"
		/>
	<path class="st12" d="M58.3,120.7c-0.1,0.1-0.3-0.1-0.4-0.2s0.1-0.3,0.2-0.4L58.3,120.7z"/>
	<path class="st10" d="M36.3,125.2c4.8,0.3,10,1.9,15.1,2.6c-5.5,4.8-11.8,9.5-17.7,14.2c0.8-3,3.1-6.5,4.6-9.5
		C37.7,130.2,37,127.8,36.3,125.2z"/>
	<path class="st13" d="M36.3,125.2c0.7,2.4,1.2,4.8,2,7.3c-1.5,2.9-3.8,6.3-4.6,9.5c-0.3,0-0.2,0.6-0.6,0.4
		c-0.6-1.3-1.2-2.6-1.8-3.9c-0.6-1-1.1-2.1-1.4-3.2C32.1,132.3,34,128.2,36.3,125.2z"/>
	<path class="st10" d="M32.6,128.9l-4.4,7.2c0.7,1.5,1.7,3.4,2.5,5.3l-9.7-2.7C24.9,135.3,28.5,131.9,32.6,128.9z"/>
</g>
<g>
	<g>
		<defs>
			<path id="SVGID_1_" d="M311.5,241c-0.5-0.1-1-0.1-1.3-0.3c-4.6-3.3-9.7-1.7-14.4-0.9c-2.2,0.4-5.4,1.3-7,4c-1,1.7-2.4,2.1-4.1,1
				c-1.3-0.8-2.6-1.3-4-1.1c-4,0.4-7.9,0.3-11.9-0.1c-1.7-0.2-3.2,0.2-4.4,1.6c-0.4,0.5-0.8,1-1.5,0.8c-3.9-0.7-5.9,1.3-6.9,4.8
				c-0.3,1-0.7,2.2-1.7,2.4c-3,0.7-4.7,3.6-7.5,4.5c-1.6,0.5-1.5,2.7-3.1,3.4c-3.9-3.2-8.5-3.5-13.3-3.4c-2.9,0.1-5.4-0.7-8.1-2.1
				c-3.1-1.7-6.9-2.8-10.4-2.8c-5.5,0.1-10.7-1.3-15.9-2.7c-3.2-0.9-6.2-1-9.3-0.5c-1.5,0.3-3.2,0.7-4.5-0.2c-4.2-2.6-8.9-3-13.5-3
				c-3.4,0-6.2-1.8-9.3-2.6c-4-1-8.3-0.5-12.2-2.3c-2.2-1-4.2-2-5.1-4.4c-0.3-0.8-0.6-1.6-1.4-1.9c-2-0.8-2.7-2.2-2.5-4.3
				c0.2-1.5-0.7-2.3-2.1-2.9c-3.6-1.6-5-4.1-4.9-7.8c0-1.2,0.7-1.8,1.6-2.4c1-0.7,2.2-1.2,2-2.9c-1.7-1.2-3.2-0.1-4.8,0.5
				c-5.1,1.9-10.5,3.2-15.3,5.8c-0.4,0.2-1.1,0.4-1.5,0.2c-3.4-2.1-7.4-0.7-11-1.6c-0.1,0-0.2-0.1-0.3,0c-3.5,3.3-8,0.2-11.8,1.7
				c-3.4,1.3-5.7,3.2-6.8,6.8c-2.3,7.8-3.5,7.6-11.5,6.6c-1.6-0.2-3.2-0.7-4.7-1c-0.1-3.3-2.2-5-5.3-4.5c-1,0.2-2,0.5-3,0.7
				c-3.2,0.6-4.8-0.6-4.5-3.8c0.2-2.6-1.4-4-3-5.3c-1.5-1.3-2.5,0.2-3.1,1.4c-1.4,2.8-4.4,3.9-6.2,6.5c-1.5,2.2-4.4,1.4-6.7-0.1
				c-1.1-0.7-2-1.7-3.4-2.1c-3.2-0.8-5.7-2.1-5.4-6.1c0.1-1.5-1.3-2.2-2.6-2.6c-3-1.1-6.2-1.9-9.8-2.1c1.1-3.1-0.2-5.1-1.2-7.6
				c-1.2-3.2-3.4-7.1,0.2-10.7c1.4-1.4,2.1-3.5,3-5.3c1-1.9,0.6-3.5-1.3-4.7c-1.4-0.9-2.7-1.9-2.3-3.8c0.8-0.7,1.6-0.3,2.4-0.2
				c2.3,0.4,4.1-0.3,5.5-2.4c1.7-2.5,2.6-2.4,4.5,0c0.3,0.4,0.7,1,1.1,1c3.4-0.1,5.6,2.1,8,4c1.7,1.4,3.2,2.8,2.8,5.3
				c-0.4,2.1,0.3,2.9,2.4,2.6c3.9-0.5,4.2-0.1,3.3,3.7c-0.2,0.8-0.4,1.5-0.6,2.3c0.8,0.5,1.7,0.2,2.4,0c4.5-2,7.2-5.9,9.1-10
				c1.1-2.4-1.3-5.2-0.8-8c0.2-0.7-0.4-1.7,0.8-2c1.2-0.3,1.1,0.7,1.4,1.5c0.6,1.6,2.3,1.9,3.2,1c2.8-2.7,5.3-1,7.8,0
				c1.9,0.8,3.6,1.7,5.8,0.8c1.3-0.5,2.8-0.2,2.4,1.9c-0.2,1.1,0.5,1.4,1.1,2c0.9,0.8,1.8,1.6,2.5,2.6c2.1,3.1,4.4,3.8,7.6,1.8
				c2-1.3,3.8-2,5.5,0.5c2.1-2.5,5.8-2.6,6.8-6.1c0.3-1.2,1.8-1.5,3.2-1.3c2.7,0.4,4.5-0.4,5.4-3.2c0.6-1.9,2.1-2.5,4.1-2.3
				c3.3,0.3,6.5,0.6,9.8-1c3.1-1.5,6.6-0.6,10-0.5c4.4,0.1,5.2-0.8,4.2-4.9c-0.5-2,0.7-2.5,2-3.1c1.3,0.5,0.1,1.8,1.1,2.6
				c2-0.4,4.1,0.6,6.4,0c1.2-0.3,1.8,0.4,2.5,1.3c2.3,3.2,3,3.3,6.4,1.1c3.7-2.5,7.4-1.7,9.9,2c0.4,0.5,0.7,1,0.3,1.6
				c-1.6,2.3-0.3,3.4,1.5,4.6c1.4,0.9,2.3,2.3,3.7,3.2c3.1,2,5,1,5.1-2.6c0.1-1.8,0.5-3.6,1.3-5.3c1.7-4,0.1-6.5-4.1-6.7
				c-2.8-0.1-3.4-0.9-2.5-3.6c0.3-0.9,0.6-1.7,1.1-2.5c2.2-4.2,1.5-6.9-1.8-10.5c-2.6-2.8-4.6-6.1-6.9-9.2c-0.6-0.8-0.9-2.2-0.1-2.9
				c2.4-2.2,4-5.1,7.2-6.4c1.2-0.5,2.5-1.1,3.4-1.9c3-2.7,6.7-3.9,10.5-4.6c6.6-1.2,9.8-4.5,10.6-11c0.3-2,1-3.9,0.6-6
				c-0.4-1.8,1.2-2.4,2.7-2.6c2.3-0.2,4.4,0.6,6.5,1.5c1.1,0.5,1.8,2.4,3,1.4c1.7-1.3,3.9-2.5,4.1-5.1c0.2-2,0.4-4.1-0.1-6.1
				c-0.5-1.7-0.2-3.2,1.1-4.1c1.3-0.9,2.5,0.2,3.6,0.9c1.1,0.7,2.3,1.4,3.3,2.2c1.7,1.4,3.6,2.6,2.8,5.4c-0.5,1.5,0.9,2.5,2.2,2.8
				c3.6,0.7,7.2,1.3,10.8,2.1c2,0.4,3.9-0.8,5.2-2.6c0.5-0.7,0.7-1.7,1.8-2.3c2.9,2.3,7.2,0.6,9.8,3.6c0.5-0.6,0.9-0.8,0.9-1
				c-0.6-4.5,2.8-7.4,4.5-10.9c0.7-1.5,1.7-1.8,3.2-1.6c1.1,0.2,2.1,1,3.4,0.3c0.4-3.5,1.6-7,1.5-10.7c-0.1-2.1-0.8-4.9,2.1-5.6
				c3-0.8,6.2,1.2,7.4,4.1c0.8,0.5,1.8,0.2,2.3-0.2c4.3-4.1,8.2-1,11.7,1c2.8,1.6,5.8,2.9,8.6,4.6c1.1,0.6,2.4,1.2,3.5,0.7
				c4.2-1.8,6.8,1,9.3,3.3c3.2,3,6.4,5.3,11,4.8c1.5-0.2,3,0.3,4.5,0.5c3,0.5,5.6,0.6,7.1-2.9c0.8-1.9,3.1-1.9,4.6-1.5
				c2.4,0.6,4.9,0.9,6.9,3.4c1.6,2,4.7,2.8,7.5,2.6c1.5-0.1,2.8,0.1,3.2,1.6c0.6,2.5,1.5,4.8,2.4,7.2c0.7,1.6,0.3,3.3-0.8,4.9
				c-1.4,2-2.4,4.1-3.2,6.5c-1.3,4,1.7,6.4,3.1,9.3c1,2,1.6,4.1,2.2,6.2c0.2,0.7,0,1.8,0.4,2c4.3,2.8,3.2,8.8,7.5,12.1
				c-3.9,2.3-1,8.1-5.7,10c2.1,3.1,0.9,6.5,1.8,9.6c0.3,1.2-0.9,1.5-1.7,1.7c-1.4,0.3-2.8,0.6-4.2,0.8c-2.4,0.4-4.9-0.7-7.3,0.5
				c-1,0.5-2.2-0.4-3.1-1.5c-3.1-4-5.5-4.1-8.9-0.6c-1.1,1.1-2.6,1.7-4.2,2.7c2.1,2.1,4.8,1.7,7.2,2.3c4,1.1,5.7,5.8,3.8,9.4
				c-1.3,2.5-2.1,4.9-5,6c-1.5,0.5-2.9,1.4-4.7,0.8c-0.8,1.9-0.8,3.5,0.1,5.1c1,2,1.2,3.6-0.6,5.5c-1.8,2-0.8,5.2,1.6,6.1
				c1.3,0.5,1.8,1.3,1.1,2.2c-2,2.6-0.1,5.5-1.5,8.4c-1.7,1.2-4,0.1-6.1,0c-1.5-0.1-2.6,0.2-3.7,1.5c-3.2,3.9-6.3,7.9-11.3,9.8
				c-1.7,0.7-2.2,4.6-1.1,6.9C310.9,238.8,311.9,239.4,311.5,241z"/>
		</defs>
		<clipPath id="SVGID_2_">
			<use xlink:href="#SVGID_1_"  style="overflow:visible;"/>
		</clipPath>
		<rect x="-37.8" y="80.3" class="st14" width="451.2" height="60.3"/>
		<rect x="-37.8" y="140.6" class="st15" width="451.2" height="60.3"/>
		<rect x="-37.8" y="200.8" class="st14" width="451.2" height="60.3"/>
	</g>
	<path class="st16" d="M311.5,241c-0.5-0.1-1-0.1-1.3-0.3c-4.6-3.3-9.7-1.7-14.4-0.9c-2.2,0.4-5.4,1.3-7,4c-1,1.7-2.4,2.1-4.1,1
		c-1.3-0.8-2.6-1.3-4-1.1c-4,0.4-7.9,0.3-11.9-0.1c-1.7-0.2-3.2,0.2-4.4,1.6c-0.4,0.5-0.8,1-1.5,0.8c-3.9-0.7-5.9,1.3-6.9,4.8
		c-0.3,1-0.7,2.2-1.7,2.4c-3,0.7-4.7,3.6-7.5,4.5c-1.6,0.5-1.5,2.7-3.1,3.4c-3.9-3.2-8.5-3.5-13.3-3.4c-2.9,0.1-5.4-0.7-8.1-2.1
		c-3.1-1.7-6.9-2.8-10.4-2.8c-5.5,0.1-10.7-1.3-15.9-2.7c-3.2-0.9-6.2-1-9.3-0.5c-1.5,0.3-3.2,0.7-4.5-0.2c-4.2-2.6-8.9-3-13.5-3
		c-3.4,0-6.2-1.8-9.3-2.6c-4-1-8.3-0.5-12.2-2.3c-2.2-1-4.2-2-5.1-4.4c-0.3-0.8-0.6-1.6-1.4-1.9c-2-0.8-2.7-2.2-2.5-4.3
		c0.2-1.5-0.7-2.3-2.1-2.9c-3.6-1.6-5-4.1-4.9-7.8c0-1.2,0.7-1.8,1.6-2.4c1-0.7,2.2-1.2,2-2.9c-1.7-1.2-3.2-0.1-4.8,0.5
		c-5.1,1.9-10.5,3.2-15.3,5.8c-0.4,0.2-1.1,0.4-1.5,0.2c-3.4-2.1-7.4-0.7-11-1.6c-0.1,0-0.2-0.1-0.3,0c-3.5,3.3-8,0.2-11.8,1.7
		c-3.4,1.3-5.7,3.2-6.8,6.8c-2.3,7.8-3.5,7.6-11.5,6.6c-1.6-0.2-3.2-0.7-4.7-1c-0.1-3.3-2.2-5-5.3-4.5c-1,0.2-2,0.5-3,0.7
		c-3.2,0.6-4.8-0.6-4.5-3.8c0.2-2.6-1.4-4-3-5.3c-1.5-1.3-2.5,0.2-3.1,1.4c-1.4,2.8-4.4,3.9-6.2,6.5c-1.5,2.2-4.4,1.4-6.7-0.1
		c-1.1-0.7-2-1.7-3.4-2.1c-3.2-0.8-5.7-2.1-5.4-6.1c0.1-1.5-1.3-2.2-2.6-2.6c-3-1.1-6.2-1.9-9.8-2.1c1.1-3.1-0.2-5.1-1.2-7.6
		c-1.2-3.2-3.4-7.1,0.2-10.7c1.4-1.4,2.1-3.5,3-5.3c1-1.9,0.6-3.5-1.3-4.7c-1.4-0.9-2.7-1.9-2.3-3.8c0.8-0.7,1.6-0.3,2.4-0.2
		c2.3,0.4,4.1-0.3,5.5-2.4c1.7-2.5,2.6-2.4,4.5,0c0.3,0.4,0.7,1,1.1,1c3.4-0.1,5.6,2.1,8,4c1.7,1.4,3.2,2.8,2.8,5.3
		c-0.4,2.1,0.3,2.9,2.4,2.6c3.9-0.5,4.2-0.1,3.3,3.7c-0.2,0.8-0.4,1.5-0.6,2.3c0.8,0.5,1.7,0.2,2.4,0c4.5-2,7.2-5.9,9.1-10
		c1.1-2.4-1.3-5.2-0.8-8c0.2-0.7-0.4-1.7,0.8-2c1.2-0.3,1.1,0.7,1.4,1.5c0.6,1.6,2.3,1.9,3.2,1c2.8-2.7,5.3-1,7.8,0
		c1.9,0.8,3.6,1.7,5.8,0.8c1.3-0.5,2.8-0.2,2.4,1.9c-0.2,1.1,0.5,1.4,1.1,2c0.9,0.8,1.8,1.6,2.5,2.6c2.1,3.1,4.4,3.8,7.6,1.8
		c2-1.3,3.8-2,5.5,0.5c2.1-2.5,5.8-2.6,6.8-6.1c0.3-1.2,1.8-1.5,3.2-1.3c2.7,0.4,4.5-0.4,5.4-3.2c0.6-1.9,2.1-2.5,4.1-2.3
		c3.3,0.3,6.5,0.6,9.8-1c3.1-1.5,6.6-0.6,10-0.5c4.4,0.1,5.2-0.8,4.2-4.9c-0.5-2,0.7-2.5,2-3.1c1.3,0.5,0.1,1.8,1.1,2.6
		c2-0.4,4.1,0.6,6.4,0c1.2-0.3,1.8,0.4,2.5,1.3c2.3,3.2,3,3.3,6.4,1.1c3.7-2.5,7.4-1.7,9.9,2c0.4,0.5,0.7,1,0.3,1.6
		c-1.6,2.3-0.3,3.4,1.5,4.6c1.4,0.9,2.3,2.3,3.7,3.2c3.1,2,5,1,5.1-2.6c0.1-1.8,0.5-3.6,1.3-5.3c1.7-4,0.1-6.5-4.1-6.7
		c-2.8-0.1-3.4-0.9-2.5-3.6c0.3-0.9,0.6-1.7,1.1-2.5c2.2-4.2,1.5-6.9-1.8-10.5c-2.6-2.8-4.6-6.1-6.9-9.2c-0.6-0.8-0.9-2.2-0.1-2.9
		c2.4-2.2,4-5.1,7.2-6.4c1.2-0.5,2.5-1.1,3.4-1.9c3-2.7,6.7-3.9,10.5-4.6c6.6-1.2,9.8-4.5,10.6-11c0.3-2,1-3.9,0.6-6
		c-0.4-1.8,1.2-2.4,2.7-2.6c2.3-0.2,4.4,0.6,6.5,1.5c1.1,0.5,1.8,2.4,3,1.4c1.7-1.3,3.9-2.5,4.1-5.1c0.2-2,0.4-4.1-0.1-6.1
		c-0.5-1.7-0.2-3.2,1.1-4.1c1.3-0.9,2.5,0.2,3.6,0.9c1.1,0.7,2.3,1.4,3.3,2.2c1.7,1.4,3.6,2.6,2.8,5.4c-0.5,1.5,0.9,2.5,2.2,2.8
		c3.6,0.7,7.2,1.3,10.8,2.1c2,0.4,3.9-0.8,5.2-2.6c0.5-0.7,0.7-1.7,1.8-2.3c2.9,2.3,7.2,0.6,9.8,3.6c0.5-0.6,0.9-0.8,0.9-1
		c-0.6-4.5,2.8-7.4,4.5-10.9c0.7-1.5,1.7-1.8,3.2-1.6c1.1,0.2,2.1,1,3.4,0.3c0.4-3.5,1.6-7,1.5-10.7c-0.1-2.1-0.8-4.9,2.1-5.6
		c3-0.8,6.2,1.2,7.4,4.1c0.8,0.5,1.8,0.2,2.3-0.2c4.3-4.1,8.2-1,11.7,1c2.8,1.6,5.8,2.9,8.6,4.6c1.1,0.6,2.4,1.2,3.5,0.7
		c4.2-1.8,6.8,1,9.3,3.3c3.2,3,6.4,5.3,11,4.8c1.5-0.2,3,0.3,4.5,0.5c3,0.5,5.6,0.6,7.1-2.9c0.8-1.9,3.1-1.9,4.6-1.5
		c2.4,0.6,4.9,0.9,6.9,3.4c1.6,2,4.7,2.8,7.5,2.6c1.5-0.1,2.8,0.1,3.2,1.6c0.6,2.5,1.5,4.8,2.4,7.2c0.7,1.6,0.3,3.3-0.8,4.9
		c-1.4,2-2.4,4.1-3.2,6.5c-1.3,4,1.7,6.4,3.1,9.3c1,2,1.6,4.1,2.2,6.2c0.2,0.7,0,1.8,0.4,2c4.3,2.8,3.2,8.8,7.5,12.1
		c-3.9,2.3-1,8.1-5.7,10c2.1,3.1,0.9,6.5,1.8,9.6c0.3,1.2-0.9,1.5-1.7,1.7c-1.4,0.3-2.8,0.6-4.2,0.8c-2.4,0.4-4.9-0.7-7.3,0.5
		c-1,0.5-2.2-0.4-3.1-1.5c-3.1-4-5.5-4.1-8.9-0.6c-1.1,1.1-2.6,1.7-4.2,2.7c2.1,2.1,4.8,1.7,7.2,2.3c4,1.1,5.7,5.8,3.8,9.4
		c-1.3,2.5-2.1,4.9-5,6c-1.5,0.5-2.9,1.4-4.7,0.8c-0.8,1.9-0.8,3.5,0.1,5.1c1,2,1.2,3.6-0.6,5.5c-1.8,2-0.8,5.2,1.6,6.1
		c1.3,0.5,1.8,1.3,1.1,2.2c-2,2.6-0.1,5.5-1.5,8.4c-1.7,1.2-4,0.1-6.1,0c-1.5-0.1-2.6,0.2-3.7,1.5c-3.2,3.9-6.3,7.9-11.3,9.8
		c-1.7,0.7-2.2,4.6-1.1,6.9C310.9,238.8,311.9,239.4,311.5,241z"/>
</g>
</svg>
