<?xml version="1.0" encoding="utf-8"?>
<!-- Generator: Adobe Illustrator 24.3.0, SVG Export Plug-In . SVG Version: 6.00 Build 0)  -->
<svg version="1.1" id="Layer_1" xmlns="http://www.w3.org/2000/svg" xmlns:xlink="http://www.w3.org/1999/xlink" x="0px" y="0px"
	 viewBox="0 0 400 300" style="enable-background:new 0 0 400 300;" xml:space="preserve">
<style type="text/css">
	.st0{fill:#F3F2EF;}
	.st1{fill:#C98017;}
	.st2{fill:#FBED60;}
	.st3{fill:#FABA31;}
	.st4{fill:#68C2EE;}
	.st5{fill:#0491BE;}
	.st6{fill:#68C2EF;}
	.st7{fill:#31798F;}
	.st8{fill:#C1BDBE;}
	.st9{fill:#6E6E6E;}
	.st10{fill:#6C6C6C;}
	.st11{fill:#BCBCBC;}
	.st12{fill:#E1E1E1;}
	.st13{fill:#0A0A09;}
	.st14{clip-path:url(#SVGID_2_);fill:#FCDA20;}
	.st15{clip-path:url(#SVGID_2_);fill:#EE303E;}
	.st16{clip-path:url(#SVGID_2_);}
	.st17{fill:none;stroke:#000000;stroke-miterlimit:10;}
</style>
<path class="st0" d="M341,19.3c7.2,7,7.3,18.5,0.3,25.7l0,0l-0.3,0.3c-7.2,7.2-18.9,7.3-26.1,0.1s-7.3-18.9-0.1-26.1
	c7.2-7.2,18.9-7.3,26.1-0.1L341,19.3z M335,39.3c1.9-1.8,2.9-4.4,2.9-7c0.1-2.6-1-5.1-2.9-6.9c-1.9-1.9-4.4-2.9-7.1-2.8
	c-5.3-0.1-9.7,4.2-9.8,9.5v0.2c0,2.6,1,5.1,2.8,7c1.8,1.9,4.3,2.9,6.9,2.9C330.5,42.3,333.1,41.2,335,39.3z M377.2,21.6l-47.7,74.1
	c-0.8,1.5-2.4,2.5-4.1,2.4c-2.7-0.1-4.9-2.3-5-5c0.1-1,0.4-2,0.9-2.9L369.1,16c0.8-1.5,2.4-2.5,4.1-2.4c1.4,0,2.7,0.5,3.6,1.5
	c1,0.9,1.5,2.3,1.4,3.6C378.1,19.7,377.8,20.7,377.2,21.6L377.2,21.6z M357.4,92.7c-7.2-7.2-7.2-18.8,0-26l0.1-0.1
	c3.4-3.4,8.1-5.3,12.9-5.4c10.2-0.1,18.4,8.1,18.5,18.3s-8.1,18.4-18.3,18.5C365.7,98.2,360.9,96.2,357.4,92.7z M363.4,72.7
	c-3.9,3.7-4,9.8-0.3,13.7l0.1,0.1l0.2,0.2c3.8,3.8,9.9,3.9,13.7,0.1c2-1.9,3-4.6,2.9-7.4c-0.2-5.2-4.4-9.4-9.6-9.6
	C367.8,69.8,365.3,70.9,363.4,72.7L363.4,72.7z"/>
<g>
	
		<ellipse transform="matrix(0.6003 -0.7998 0.7998 0.6003 -140.1914 233.9958)" class="st1" cx="164" cy="257.3" rx="23.8" ry="43.4"/>
	
		<ellipse transform="matrix(0.6165 -0.7874 0.7874 0.6165 -135.9128 228.6298)" class="st2" cx="166.7" cy="253.8" rx="21.1" ry="43.4"/>
	
		<ellipse transform="matrix(0.6165 -0.7874 0.7874 0.6165 -135.9128 228.6298)" class="st3" cx="166.7" cy="253.8" rx="16.9" ry="34.8"/>
	<path class="st1" d="M155,251.4c-0.5,2.2,2.2,5.7,5.7,7.9c2.2,1.4,4.5,1.9,5.8,1.4l0.7-0.2l0.9,0.9c0.9,0.9,2,1.7,3.1,2.4
		c3.6,2.2,6.8,2.1,7.2-0.1l0.1-0.7l3.7,2.4c0.7,0.5,1.5,0.5,1.6,0c0.1-0.5-0.5-1.2-1.2-1.7l-3.7-2.4l0.6-3l3.7,2.4
		c0.7,0.5,1.5,0.5,1.5,0c-0.1-0.7-0.6-1.4-1.2-1.7l-3.7-2.4l0.5-2.4c0.1-0.5-0.5-1.2-1.2-1.7s-1.5-0.5-1.5,0l-0.5,2.4l-17.6-10.5
		l0.5-2.4c0.1-0.5-0.5-1.2-1.2-1.7c-0.7-0.5-1.5-0.5-1.5,0l-0.5,2.4L153,240c-0.7-0.5-1.5-0.5-1.6,0c-0.1,0.5,0.5,1.2,1.2,1.7
		l3.7,2.4l-0.6,3.1l-3.7-2.4c-0.7-0.5-1.5-0.5-1.5,0c0.1,0.7,0.6,1.4,1.2,1.7l3.7,2.4L155,251.4z M176.7,256.7l-1,5.5
		c-0.2,1.2-2.1,1.2-4.1,0.1c-2.1-1.1-3.6-3.4-3.4-4.6l1-5.5L176.7,256.7z M159.1,245.9l7.3,4.5l-1.2,7.1c-0.2,1.2-2.1,1.2-4.1,0.1
		c-2-1.1-3.6-3.2-3.4-4.6L159.1,245.9z"/>
</g>
<g>
	
		<ellipse transform="matrix(0.5509 -0.8346 0.8346 0.5509 -53.286 417.1289)" class="st4" cx="360.9" cy="258.1" rx="38.8" ry="18.7"/>
	
		<ellipse transform="matrix(0.5509 -0.8346 0.8346 0.5509 -52.4292 414.4359)" class="st5" cx="358.9" cy="255.9" rx="38" ry="17.4"/>
	
		<ellipse transform="matrix(0.5509 -0.8346 0.8346 0.5509 -52.4292 414.4359)" class="st6" cx="358.9" cy="255.9" rx="30.4" ry="14"/>
	<path class="st7" d="M362.9,250.1l5.4-6.6c-0.8-0.5-1.4-0.8-2-1.4c-0.4-0.3-0.7,0-1.1,0.6c-1.8,2-3.5,4.2-5.3,6.3
		c-1.1,1.4-1.9,1.9-2.9,2c-1.2,0.1-1.4,0.1-2.4,2.3l1.8-0.1c-1.8,2.3-3.7,4.2-5.4,6.5l7.3,4.8c0.1,0.1,0.4,0.1,0.6-0.3
		c0.8-1,1.8-2,2.7-3l-5-3.3c1.1-1.2,2-2.3,2.9-3.5c1.1-1.5,2-2,3-2c1.2,0,1.3-0.1,2.4-2.3H362.9z"/>
</g>
<g>
	<ellipse class="st8" cx="62.8" cy="229.4" rx="38.1" ry="43.9"/>
	<ellipse class="st9" cx="58.2" cy="228" rx="36.8" ry="42.5"/>
	<ellipse class="st8" cx="58.2" cy="228" rx="29.5" ry="34.1"/>
	<path class="st9" d="M64.6,208.3c3.9,0,7,3.3,7.1,8.1c0.1,4.4-2.8,7.9-6.2,8.4c-0.5,0.1-1,0.1-1.5,0.1c-1.6-0.1-3,0.9-3.1,2.5v0.5
		c0,2,1.2,3.3,2.9,3.2c3.6-0.1,6.6,2.4,7.4,6.3c0.8,3.1-0.1,6.2-2.4,8.4c-1.8,2.1-5,2.5-7.4,1.2c-2.8-1.3-4.1-3.8-4.4-7.1
		c-0.1-1.6,0.2-3.2,0.9-4.6c0.6-1.2,0.3-2.6-0.7-3.6c-0.8-0.9-2-1-3.1-0.5c-0.3,0.3-0.8,0.7-1,1.2c-1.8,3-4.4,4.1-7.4,3.5
		c-3.1-0.7-5-3.1-5.6-6.7c-0.9-5.1,3-10.1,7.5-9.7c2.9,0.2,5,2,6.2,5c0.3,1.3,1.7,2,3.1,1.7c0.1,0,0.1,0,0.1-0.1
		c0.1-0.1,0.2-0.1,0.3-0.1c1.5-0.9,2-2.8,1.2-4.4c-0.7-1.4-1.2-2.9-1.3-4.4C57.3,212,60.4,208.3,64.6,208.3z"/>
</g>
<g>
	<path class="st10" d="M72.4,9.8c2,0.6,4.2,1.2,6.1,2l0.4,0.1c0.2,0.2,0.6,0.4,0.8,0.6l0.2,0.1c0.4,0.8,1.7,1.2,2.6,2
		c0.6,0.4,0.4,1,1.2,1c0.6,1.2,1.6,2.4,2.1,3.8c-0.1,0.1,0,0.2,0.1,0.3h0.1c0.1,0.8,0.2,1.7,0.6,2.6c0,0-0.4,0.1-0.1,0.2
		c-0.1,2.1-0.6,4.3-1.5,6.3c-1,1.2-1.8,3.3-3.2,4.6C71.4,47,35.8,53.9,26.8,38c0.1-0.2-0.3-0.2-0.3-0.6c0-0.3,0.2-0.4-0.1-0.6
		c-1-1-0.6-3.7-0.8-4.7c0.1-0.3,0.1-0.6,0-1c0.2-0.6,0.2-1.2,0.6-1.6c0.3-1.2,0.8-2.4,1.2-3.6c0.3-0.3,0.6-0.6,0.8-1
		c1.5-2.1,3.2-3.9,5.2-5.5c0.1-0.4,0.8-0.4,0.8-1c0.1,0.1,0.2,0,0.3-0.1v-0.1c2.2-1.5,5-3.1,7.5-4.6c0.2,0,0.6-0.1,0.6-0.3
		c4.2-1.6,8.5-3,12.9-3.9c0.6,0.1,1.2,0,1.6-0.3c1.2,0,2.6-0.1,3.8-0.4c0.2,0,0.4,0.2,0.6-0.1c1.2,0.3,2.6-0.1,3.9,0.1
		c0.3-0.3,0.8,0.2,1-0.2c0.2,0.1,0.2-0.1,0.4-0.1c0.1,0.6,0.6,0.2,0.8,0.2C68.9,9.6,70.6,9.2,72.4,9.8z M79.9,29.2
		C85.9,19.3,75.8,13,67.4,12C46.1,9.8,25,25.1,31.6,36.4c3.2,6.3,11.7,7.3,18.2,7.5c11.3-0.8,23.5-4.6,30-14.4L79.9,29.2z"/>
	<path class="st11" d="M79.8,29.6C73.3,39.5,61,43.2,49.8,44c-6.4-0.3-15-1.2-18.2-7.5c-0.6-3.2,0.1-6.4,1.8-9.1
		c5.4-7.3,12.8-9.9,20.3-12.2c3.7-0.2,7.9-1.4,11.7-0.6c8,0.1,18.1,5.5,14.5,14.7C79.7,29,79.4,29.5,79.8,29.6z M56.5,22.1
		C56.8,22.1,56.7,21.5,56.5,22.1c-4.6,0.2-9.1,0.8-13.7,1.2l5.7,7.1c0.4-1.7,0.6-3.6,1-5.2C51.9,24.2,54.2,23.2,56.5,22.1z
		 M61.1,21.4c-3.3,1-6.7,2.9-10.1,4.2c-0.3,1-0.6,2-0.6,3.1c-0.3,1.2-0.6,2.6-0.8,3.8c0.2,0.2,0.4-0.1,0.6,0
		c6.7-0.3,13.7-0.6,20.5-1.2C67.7,28.1,64.6,24.2,61.1,21.4z"/>
	<path class="st11" d="M87.2,23.9l-0.1,0.2c0,1.2,0.2,2.6,0.6,3.8c-0.2,0.6,0.1,1.2-0.2,1.7c0.1,2-1,3.9-1.7,5.9
		c-1.6,2.1-3.3,4.3-5.2,6.2c-0.1,0-0.2,0-0.2,0.1V42c-1.2,0.6-2.6,2.2-4,2.9c-1.2,1-3,1.2-3.8,2.4c-0.1-0.1-0.2,0-0.3,0.1v0.1
		c-0.4-0.2-0.8,0-1,0.4c-0.1,0-0.2,0-0.3,0.2c-0.4-0.2-0.8,0-1,0.4c-0.1-0.1-0.2,0-0.3,0.2c-0.1-0.1-0.2,0-0.3,0.1v0.1
		c-0.3-0.1-0.6,0-0.8,0.2l0,0c-0.6-0.1-0.6,0-0.8,0.6c-3.4,0.8-7,2-10.7,2.6c-0.8,0.1-2.6-0.1-3.3,0.6c-1.6-0.3-3.6,0.3-5.4-0.1
		c-0.4,0.3-0.8-0.2-1.2,0.1c-4.3-0.6-8.6-1.2-12.3-3.2c-1.2-0.6-2.6-1.9-3.9-2.6c0-0.6-0.6-0.8-1-1.2c-1.6-2.2-2.6-4.9-2.8-7.7
		c10,16.6,45.9,7.9,55-4.8c1.4-1.2,2.2-3.1,3.2-4.6c0.8-2,1.4-4.2,1.5-6.3c0.6,0.3,0.3,1,0.4,1.4L87.2,23.9z"/>
	<path class="st12" d="M79.9,29.2c3.6-9.5-7-14.5-14.5-14.7c-3.8-0.8-7.9,0.4-11.7,0.6c-8.1,2.4-15.3,5.5-20.3,12.2
		c-1,1.9-1.8,4-2.1,6.2c-0.1,1,0.6,1.8,0.2,3c-2.6-4.2-0.6-9.1,2.2-12.7c8.4-9.7,23.1-12.8,33.5-11.7C78.7,13.5,84.9,21.2,79.9,29.2
		z"/>
	<path class="st12" d="M79.8,29.6c-0.1,0-0.2-0.2-0.2-0.3s0.2-0.2,0.3-0.2L79.8,29.6z"/>
	<path class="st10" d="M61.2,21.4c3.4,2.8,6.4,6.6,9.8,9.8c-6.6,0.6-13.7,0.8-20.5,1.2c2.1-1.8,5.7-3.2,8.4-4.6
		C59.6,25.8,60.3,23.6,61.2,21.4z"/>
	<path class="st13" d="M61.2,21.4c-0.8,2.1-1.6,4.2-2.4,6.5c-2.6,1.4-6.1,2.6-8.4,4.6c-0.2-0.1-0.4,0.3-0.6,0
		c0.2-1.2,0.4-2.6,0.8-3.8c0.1-1,0.3-2.1,0.6-3.1C54.4,24.4,57.9,22.3,61.2,21.4z"/>
	<path class="st10" d="M56.5,22.1l-7,3c-0.3,1.5-0.6,3.4-1,5.2l-5.7-7.1C47.5,22.9,51.9,22.3,56.5,22.1z"/>
</g>
<g>
	<g>
		<defs>
			<path id="SVGID_1_" d="M287.3,274.4c-0.7-0.8-0.9-1.1-1.1-1.4c-2-3.4-3.4-3.7-6.5-1.3c-2,1.6-3.3,1.7-6,0.3
				c3.7-3.8,1.1-7.1-1.3-9.9c-2.4-2.8-5.5-5.6-9.7-0.5c0.2-3.2,2.2-4,3-5.7c-1.1-1.6-2.8-2.7-4.2-3.9c-0.8-0.7-3-0.6-4.2-0.1
				c-2.3,1.1-3.7-0.3-4.5-1.7c-0.6-1.2-1.7-1.3-2.2-1.9c-1.7-2-4.5-2.9-5.2-5.8c-1.3,0.7-2.6,0.6-3.9,0.3c-0.7-0.4-0.6-1-0.7-1.6
				c-0.8-3.6-2.4-4.7-5.3-2.6c-2.8,2-4.8,1.1-7.2,0.1c-0.1-0.9,0.8-1.2,1-2.1c-3.2-1.1,0.6-4.1-1.7-5.5c3.7-4.1,2.9-9.3-1.8-11.8
				c-2.3-1.2-2.7-4-0.7-6.5c0.9-1.2,2.1-2.3,2.2-4c0-0.4,0.5-1,0.1-1.3c-1.6-1.3-0.6-2.9,0.2-3.5c2.7-2,1.4-5.3,3.5-7.3
				c-1.4-1-2.7-0.2-3.9-0.6c-0.9-0.8,0.1-2-0.8-3.2c-1.6,2.6-4.6,3.8-5.7,6.9c-0.4,1.1-1.2,1.9-2.4,2.5c-2.8,1.3-3.4,2.8-2.5,5.9
				c0.4,1.3-0.6,2.1-0.8,3.1c-0.2,1-0.2,2-0.3,3.1c-0.9,0.7-2,0.9-3.1,0.8c-2.9-0.4-5.2,0.8-6.9,2.8c-5.2,6-9.2,4.1-16,1.4
				c-2.8-1.1-5.6-1.3-8.3-0.7c-3.5,0.7-5.6,0.3-7.9-2.7c0.9-0.8,2.4-0.3,3.2-1.5c0-1.2-1.2-1-1.8-1.4c-0.6-0.5-1.4-0.9-2.1-1.3
				c0.6-2.3,1.8-3.1,4.2-2.9c2,0.2,2.6-2.1,3.7-3.5c1-1.3,0-2.3-0.9-3c-1.6-1.2-2.2-2.6-1.3-4.7c-1.4,0.1-2.5,0.1-3.5,0.3
				c-0.9,0.2-1.6,0.1-2.2-0.7c-0.5-0.8,0-1.5,0.4-2c1.6-1.7,2.3-3.5,1.5-5.8c-0.3-0.9,0.1-1.8,1.1-2.3c0.2-0.1,0.5-0.3,0.7-0.4
				c5.3-4,5.3-4-0.2-8c-1.1,1.8-1.1,1.8-1.4,4.6c-1.5-0.8-1.5-0.8-3-7.6c-3,1.3-4.3-0.4-5.3-2.9c-1.2-2.9-1.8-3.1-4.5-1.4
				c-2.1,1.3-4.2,2.4-6.7,2.1c-0.9-0.1-1.6-0.2-2.4-0.7c-5.3-3.2-9.2-2.1-12.5,3.7c-1.7-2.9-3.4-5.5-3.5-8.8c0-0.9,0.4-1.7-0.5-2.5
				c-0.2-0.2-0.4-0.8-0.3-1c3.2-4.7-1.4-6.4-3.7-8.5c-1.9-1.7-3.5-3.2-3.1-6c-2.6-0.9-4.4,0.7-6.2,1.7c-4.8,2.7-8.9,1.3-13.3-1.5
				c-3.8-2.4-2.9-5.1-3.3-8.1c-0.4-2.7-1.5-5.3-0.9-8.5c-3.4,0.7-3.8-0.9-3.2-3.5c0.2-0.7,0-1.6-1-1.7c-2.5-0.2-2.1-1.9-1.9-3.5
				c0.3-1.5,0.6-2.9-1.6-2.7c-0.6-1.2,0.2-2.6-0.9-3.7c-2.8,1.2-6.2,0.7-8.4,3.4c-0.7,0.8-2,0.6-2.7-0.3c-1.7-1.9-3-1.1-4.4,0.4
				c-1.5,1.6-3.2,3.1-4.7,4.8c-1.1,1.2-2.6,1.2-3.5,0.3c-1.2-1.2-2.2-1.9-3.5-0.8c-1.3-0.7-0.8-1.9-1.5-2.8
				c-2.6,0.3-3.8-0.6-3.5-3.5c0.2-2.2-2.6-4.4-4.9-4.4c-1.5,0-3-0.4-4.8-0.7c1.1-3.4,0.3-6.3-1.3-9.3c-0.8-1.5,0.2-3.6-0.3-5.4
				c4.2-1.8,4.4-3.3,1.1-6.2c-5-4.4-4.4-9.6-0.1-13.8c2.4-2.3,5.4-3.8,8.4-5.3c6.1-3,10.8-8,16.4-11.7c2.9-1.8,5.6-3.9,8.9-5.1
				c1.4-0.5,2.8-1,4-1.8c6.7-4.4,14.5-6.1,21.6-9.7c2.3,5.8,2.3,5.8-0.8,7.5c1.3,1.4,2.4,2.8,2.1,5c-0.3,2.3,1.4,3.4,3.5,3.5
				c2.3,0.1,4.6,0,6.9,0c0.1-1.4,0.3-2.8,0.4-4.1c1.7-1.4,4.8,0.3,5.6-3c1.9,0.8,3.7,1.5,5.5,2.2c2.1,0.8,4.1,1.6,6.4,1.7
				c3.4,0.2,4.3,1.5,3.9,4.8c-0.1,0.8-0.3,1.6,0.2,2.7c2.3,0.3,4.6,0.2,6.5-1.4c1.2,0,0.9,1.2,1.7,1.7c1.3-0.9,2.5-3.3,4.2-0.6
				c5.1-4.1,5.1-4.1,8.8-2.8c0.6-2.1,2-3.2,4.2-3.5c0.4-0.1,8.3-10,8.3-10.5c0.1-1.2,0-2.4-1.2-3.6c2.8,0,5.2-0.1,7.5,0
				c1.1,0.1,2.4,0,2.5,1.9c0.1,1.2,4,1.5,5.5,0.5c1.6-1.1,0.6-2.2-0.2-3.3c-1.4-2-3.4-3.8-2-6.6c0.4-0.8-0.8-1.1-1-2
				c4.3-1.9,8.8-3.5,14.1-3.7c-1.6,2.5-3.1,4.5-1.4,7.4c3-3.1,5.9,0.6,8.9,0c1.7-4.6,5.5-7.3,9.3-9.5c1.4-0.8,4,1.2,5.4,2.6
				c1.5,1.5-0.3,3-1.3,4.1c-0.2,1.1,1,1.4,1,2.5c-1.5,0.6-3.1,0.1-4.9-0.5c0.6,1.7,1,2.7,2.8,2c0.4-0.2,0.9-0.1,1.4-0.2
				c4.5-0.4,4.5-0.4,7.8,2.5c0.8-1.5,2-2.6,3.3-3.7c1.4-1.2,2.9-2,2.3-4.5c-0.3-1.4,1-3,2.6-3.1c1.6-0.2,3.1,1.1,3.6,2.4
				c1,2.6,3.1,5.4-0.3,8c-0.6,0.5-0.4,1.2,0,1.7c0.4,0.5,0.7,1.1,1.2,1.5c2.3,2,4.2,4.2,3.2,7.6c1.5,0.5,2.5,0.6,3.5-0.5
				c0.8-0.8,1.5-0.8,2.6-0.1c2.9,1.9,2.9,1.8,1.2,6.8c3.1-0.2,6.2,1.5,8.9-1.1c0.6-0.6,1.2-0.3,1.7,0.1c2.4,1.7,4.3,1.1,6.2-1
				c1.2-1.4,2.8-3.3,4.9-1.9c1.9,1.3,3.9,3.3,3.7,5.5c-0.4,4.1,2.4,4.8,5,5.6c2.8,0.9,5.4,1.9,7.4,4.1c1.8,2,4.1,1.9,6.4,1.1
				c1.8-0.7,3-0.2,4.1,1.4c-0.2,2.2-2.2,3.2-3.4,4.6c0.2,1.1,1.7,0.5,1.9,1.6c-0.6,1.3-2.1,0.6-3.5,1.2c2.3,3.1-1.2,5.1-1.3,7.8
				c-0.2,3-1.2,5.8-3.5,8.2c0.7,0.4,1.4,0.7,2.3,1.2c-1.2,1.7-0.3,4.7-3.5,4.9c-0.2,0-0.4,0.4-0.4,0.6c0.5,2.6-1.7,3.1-3.2,4.1
				c-1.4,1-1.7,6.1-0.2,6.8c3.3,1.4,2.9,3.6,1.9,6.1c-0.2,0.4-0.1,0.9-0.1,1.3c4.5,0.8,4.5,0.8,6.5-3.4c2,0.8,2,0.8,3.3,4.3
				c0.3-0.1,0.6-0.1,0.7-0.3c0.5-0.4,0.9-0.9,1.3-1.4c0.9-0.2,1.1,0.9,2,0.9c0.6-0.4,1.2-0.9,1.8-1.4c1.3,3,1.4,3,6.4,0.3
				c0.6,0.6,0,1.7,0.8,2.2c4.2-0.3,4.4-0.2,5,3.4c2.7-0.1,5.4-0.3,7.4,2.2c0.5,0.7,1,1.2,1.1,2.1c0.1,1,0.3,2.3,1.4,2.5
				c2.1,0.3,2.3,1.8,2.4,3.6c2.1-0.2,4.3-2.6,6,0.5c-1.3,2.6-3.6,5.1-3.3,8.6c0.1,0.6-0.5,1.1-1.1,1.4c-1.2,0.7-1.9,1.6-1.2,3.2
				c0.6,1.5,1.3,2.5,3.2,2.4c1.5-0.1,2.9,0.3,4.4,0.4c4.1,0.4,4.4,0.7,3.2,4.5c3.2,2.2,3.7,3.6,1.4,7.2c-1.6,2.5-1.2,3.8,0.9,5.4
				c1.5,1.1,2.9,2.5,3.5,5c-2.5-0.8-4.5,3-7-0.2c-0.4-0.6-1.4-0.3-1.8,0.6c-0.3,0.8-0.8,1.7-0.9,2.6c-0.4,2.8-1.4,4.7-4.9,4.7
				c-2.2,0-3.3,2.6-5,3.9c-0.7,0.5,0.3,1.5,0.7,2.2c1.8,3,1.7,3.1-1.5,4c-0.3,0.1-0.7,0.2-1.1,0.3c-0.4,1.8,1.8,3.5,0,5.2
				c-2.1-1.1-0.4-3.3-1.4-4.8c-2.1-0.6-4.2-0.1-6.5,0.8c-0.4-1.6-0.2-3.6-2.7-3.3c-2.2,0.3-3.2,1.5-3.4,3.7
				c-0.1,1.6-1.2,2.6-2.6,3.3c-1.7,0.9-3.9,1.5-2.9,4.4c0.2,0.5-0.6,1.5-1,2.2c-0.3,0.6-0.9,1-1,1.6c-0.9,3.5-0.8,3.5-3.2,5.1
				c0.2,0.9,0.6,1.9,0.7,2.9c0.2,1.6,0.2,3.6-1.5,4c-2.5,0.6-3.1,2.3-3.6,4.2c-0.3,1-0.8,2-1.2,3c0.3,0.8,1.1,0.7,1.6,1.1
				c1.4,1.2,1.8,2.4,0,3.5c-1.4,0.9-2.1,2.4-2.5,3.9c-0.6,2-0.1,3.6,2.2,3.9c2.5,0.3,3.6,1.7,4.1,4.1c0.5,2.8,3.1,4.3,5.1,5.9
				c3.3,2.6,3.9,5.7,1.5,9.3c-1.3,1.9-3.6,3.3-3.1,6.2c0,0.2-0.3,0.8-0.6,0.8c-2.9,0.9-5.5,3.1-8.5,3.1
				C292.9,268.3,288.4,268,287.3,274.4z"/>
		</defs>
		<clipPath id="SVGID_2_">
			<use xlink:href="#SVGID_1_"  style="overflow:visible;"/>
		</clipPath>
		<path class="st14" d="M254.2,293.4c-36.2,0-72.3,0-108.5,0c0-93.9,0-187.8,0-281.7c36.2,0,72.3,0,108.5,0c0,1,0.1,2,0.1,3
			c0,91.9,0,183.7,0,275.6C254.3,291.3,254.2,292.4,254.2,293.4z"/>
		<path class="st15" d="M254.2,293.4c0-1,0.1-2,0.1-3c0-91.9,0-183.7,0-275.6c0-1-0.1-2-0.1-3c36.1,0,72.3,0,108.4,0
			c0,93.9,0,187.8,0,281.7C326.4,293.4,290.3,293.4,254.2,293.4z"/>
		<path class="st16" d="M145.7,11.7c0,93.9,0,187.8,0,281.7c-36,0-72,0-108,0c0-93.9,0-187.8,0-281.7
			C73.8,11.7,109.7,11.7,145.7,11.7z"/>
	</g>
	<g>
		<path class="st17" d="M287.3,274.4c-0.7-0.8-0.9-1.1-1.1-1.4c-2-3.4-3.4-3.7-6.5-1.3c-2,1.6-3.3,1.7-6,0.3
			c3.7-3.8,1.1-7.1-1.3-9.9c-2.4-2.8-5.5-5.6-9.7-0.5c0.2-3.2,2.2-4,3-5.7c-1.1-1.6-2.8-2.7-4.2-3.9c-0.8-0.7-3-0.6-4.2-0.1
			c-2.3,1.1-3.7-0.3-4.5-1.7c-0.6-1.2-1.7-1.3-2.2-1.9c-1.7-2-4.5-2.9-5.2-5.8c-1.3,0.7-2.6,0.6-3.9,0.3c-0.7-0.4-0.6-1-0.7-1.6
			c-0.8-3.6-2.4-4.7-5.3-2.6c-2.8,2-4.8,1.1-7.2,0.1c-0.1-0.9,0.8-1.2,1-2.1c-3.2-1.1,0.6-4.1-1.7-5.5c3.7-4.1,2.9-9.3-1.8-11.8
			c-2.3-1.2-2.7-4-0.7-6.5c0.9-1.2,2.1-2.3,2.2-4c0-0.4,0.5-1,0.1-1.3c-1.6-1.3-0.6-2.9,0.2-3.5c2.7-2,1.4-5.3,3.5-7.3
			c-1.4-1-2.7-0.2-3.9-0.6c-0.9-0.8,0.1-2-0.8-3.2c-1.6,2.6-4.6,3.8-5.7,6.9c-0.4,1.1-1.2,1.9-2.4,2.5c-2.8,1.3-3.4,2.8-2.5,5.9
			c0.4,1.3-0.6,2.1-0.8,3.1c-0.2,1-0.2,2-0.3,3.1c-0.9,0.7-2,0.9-3.1,0.8c-2.9-0.4-5.2,0.8-6.9,2.8c-5.2,6-9.2,4.1-16,1.4
			c-2.8-1.1-5.6-1.3-8.3-0.7c-3.5,0.7-5.6,0.3-7.9-2.7c0.9-0.8,2.4-0.3,3.2-1.5c0-1.2-1.2-1-1.8-1.4c-0.6-0.5-1.4-0.9-2.1-1.3
			c0.6-2.3,1.8-3.1,4.2-2.9c2,0.2,2.6-2.1,3.7-3.5c1-1.3,0-2.3-0.9-3c-1.6-1.2-2.2-2.6-1.3-4.7c-1.4,0.1-2.5,0.1-3.5,0.3
			c-0.9,0.2-1.6,0.1-2.2-0.7c-0.5-0.8,0-1.5,0.4-2c1.6-1.7,2.3-3.5,1.5-5.8c-0.3-0.9,0.1-1.8,1.1-2.3c0.2-0.1,0.5-0.3,0.7-0.4
			c5.3-4,5.3-4-0.2-8c-1.1,1.8-1.1,1.8-1.4,4.6c-1.5-0.8-1.5-0.8-3-7.6c-3,1.3-4.3-0.4-5.3-2.9c-1.2-2.9-1.8-3.1-4.5-1.4
			c-2.1,1.3-4.2,2.4-6.7,2.1c-0.9-0.1-1.6-0.2-2.4-0.7c-5.3-3.2-9.2-2.1-12.5,3.7c-1.7-2.9-3.4-5.5-3.5-8.8c0-0.9,0.4-1.7-0.5-2.5
			c-0.2-0.2-0.4-0.8-0.3-1c3.2-4.7-1.4-6.4-3.7-8.5c-1.9-1.7-3.5-3.2-3.1-6c-2.6-0.9-4.4,0.7-6.2,1.7c-4.8,2.7-8.9,1.3-13.3-1.5
			c-3.8-2.4-2.9-5.1-3.3-8.1c-0.4-2.7-1.5-5.3-0.9-8.5c-3.4,0.7-3.8-0.9-3.2-3.5c0.2-0.7,0-1.6-1-1.7c-2.5-0.2-2.1-1.9-1.9-3.5
			c0.3-1.5,0.6-2.9-1.6-2.7c-0.6-1.2,0.2-2.6-0.9-3.7c-2.8,1.2-6.2,0.7-8.4,3.4c-0.7,0.8-2,0.6-2.7-0.3c-1.7-1.9-3-1.1-4.4,0.4
			c-1.5,1.6-3.2,3.1-4.7,4.8c-1.1,1.2-2.6,1.2-3.5,0.3c-1.2-1.2-2.2-1.9-3.5-0.8c-1.3-0.7-0.8-1.9-1.5-2.8c-2.6,0.3-3.8-0.6-3.5-3.5
			c0.2-2.2-2.6-4.4-4.9-4.4c-1.5,0-3-0.4-4.8-0.7c1.1-3.4,0.3-6.3-1.3-9.3c-0.8-1.5,0.2-3.6-0.3-5.4c4.2-1.8,4.4-3.3,1.1-6.2
			c-5-4.4-4.4-9.6-0.1-13.8c2.4-2.3,5.4-3.8,8.4-5.3c6.1-3,10.8-8,16.4-11.7c2.9-1.8,5.6-3.9,8.9-5.1c1.4-0.5,2.8-1,4-1.8
			c6.7-4.4,14.5-6.1,21.6-9.7c2.3,5.8,2.3,5.8-0.8,7.5c1.3,1.4,2.4,2.8,2.1,5c-0.3,2.3,1.4,3.4,3.5,3.5c2.3,0.1,4.6,0,6.9,0
			c0.1-1.4,0.3-2.8,0.4-4.1c1.7-1.4,4.8,0.3,5.6-3c1.9,0.8,3.7,1.5,5.5,2.2c2.1,0.8,4.1,1.6,6.4,1.7c3.4,0.2,4.3,1.5,3.9,4.8
			c-0.1,0.8-0.3,1.6,0.2,2.7c2.3,0.3,4.6,0.2,6.5-1.4c1.2,0,0.9,1.2,1.7,1.7c1.3-0.9,2.5-3.3,4.2-0.6c5.1-4.1,5.1-4.1,8.8-2.8
			c0.6-2.1,2-3.2,4.2-3.5c0.4-0.1,8.3-10,8.3-10.5c0.1-1.2,0-2.4-1.2-3.6c2.8,0,5.2-0.1,7.5,0c1.1,0.1,2.4,0,2.5,1.9
			c0.1,1.2,4,1.5,5.5,0.5c1.6-1.1,0.6-2.2-0.2-3.3c-1.4-2-3.4-3.8-2-6.6c0.4-0.8-0.8-1.1-1-2c4.3-1.9,8.8-3.5,14.1-3.7
			c-1.6,2.5-3.1,4.5-1.4,7.4c3-3.1,5.9,0.6,8.9,0c1.7-4.6,5.5-7.3,9.3-9.5c1.4-0.8,4,1.2,5.4,2.6c1.5,1.5-0.3,3-1.3,4.1
			c-0.2,1.1,1,1.4,1,2.5c-1.5,0.6-3.1,0.1-4.9-0.5c0.6,1.7,1,2.7,2.8,2c0.4-0.2,0.9-0.1,1.4-0.2c4.5-0.4,4.5-0.4,7.8,2.5
			c0.8-1.5,2-2.6,3.3-3.7c1.4-1.2,2.9-2,2.3-4.5c-0.3-1.4,1-3,2.6-3.1c1.6-0.2,3.1,1.1,3.6,2.4c1,2.6,3.1,5.4-0.3,8
			c-0.6,0.5-0.4,1.2,0,1.7c0.4,0.5,0.7,1.1,1.2,1.5c2.3,2,4.2,4.2,3.2,7.6c1.5,0.5,2.5,0.6,3.5-0.5c0.8-0.8,1.5-0.8,2.6-0.1
			c2.9,1.9,2.9,1.8,1.2,6.8c3.1-0.2,6.2,1.5,8.9-1.1c0.6-0.6,1.2-0.3,1.7,0.1c2.4,1.7,4.3,1.1,6.2-1c1.2-1.4,2.8-3.3,4.9-1.9
			c1.9,1.3,3.9,3.3,3.7,5.5c-0.4,4.1,2.4,4.8,5,5.6c2.8,0.9,5.4,1.9,7.4,4.1c1.8,2,4.1,1.9,6.4,1.1c1.8-0.7,3-0.2,4.1,1.4
			c-0.2,2.2-2.2,3.2-3.4,4.6c0.2,1.1,1.7,0.5,1.9,1.6c-0.6,1.3-2.1,0.6-3.5,1.2c2.3,3.1-1.2,5.1-1.3,7.8c-0.2,3-1.2,5.8-3.5,8.2
			c0.7,0.4,1.4,0.7,2.3,1.2c-1.2,1.7-0.3,4.7-3.5,4.9c-0.2,0-0.4,0.4-0.4,0.6c0.5,2.6-1.7,3.1-3.2,4.1c-1.4,1-1.7,6.1-0.2,6.8
			c3.3,1.4,2.9,3.6,1.9,6.1c-0.2,0.4-0.1,0.9-0.1,1.3c4.5,0.8,4.5,0.8,6.5-3.4c2,0.8,2,0.8,3.3,4.3c0.3-0.1,0.6-0.1,0.7-0.3
			c0.5-0.4,0.9-0.9,1.3-1.4c0.9-0.2,1.1,0.9,2,0.9c0.6-0.4,1.2-0.9,1.8-1.4c1.3,3,1.4,3,6.4,0.3c0.6,0.6,0,1.7,0.8,2.2
			c4.2-0.3,4.4-0.2,5,3.4c2.7-0.1,5.4-0.3,7.4,2.2c0.5,0.7,1,1.2,1.1,2.1c0.1,1,0.3,2.3,1.4,2.5c2.1,0.3,2.3,1.8,2.4,3.6
			c2.1-0.2,4.3-2.6,6,0.5c-1.3,2.6-3.6,5.1-3.3,8.6c0.1,0.6-0.5,1.1-1.1,1.4c-1.2,0.7-1.9,1.6-1.2,3.2c0.6,1.5,1.3,2.5,3.2,2.4
			c1.5-0.1,2.9,0.3,4.4,0.4c4.1,0.4,4.4,0.7,3.2,4.5c3.2,2.2,3.7,3.6,1.4,7.2c-1.6,2.5-1.2,3.8,0.9,5.4c1.5,1.1,2.9,2.5,3.5,5
			c-2.5-0.8-4.5,3-7-0.2c-0.4-0.6-1.4-0.3-1.8,0.6c-0.3,0.8-0.8,1.7-0.9,2.6c-0.4,2.8-1.4,4.7-4.9,4.7c-2.2,0-3.3,2.6-5,3.9
			c-0.7,0.5,0.3,1.5,0.7,2.2c1.8,3,1.7,3.1-1.5,4c-0.3,0.1-0.7,0.2-1.1,0.3c-0.4,1.8,1.8,3.5,0,5.2c-2.1-1.1-0.4-3.3-1.4-4.8
			c-2.1-0.6-4.2-0.1-6.5,0.8c-0.4-1.6-0.2-3.6-2.7-3.3c-2.2,0.3-3.2,1.5-3.4,3.7c-0.1,1.6-1.2,2.6-2.6,3.3c-1.7,0.9-3.9,1.5-2.9,4.4
			c0.2,0.5-0.6,1.5-1,2.2c-0.3,0.6-0.9,1-1,1.6c-0.9,3.5-0.8,3.5-3.2,5.1c0.2,0.9,0.6,1.9,0.7,2.9c0.2,1.6,0.2,3.6-1.5,4
			c-2.5,0.6-3.1,2.3-3.6,4.2c-0.3,1-0.8,2-1.2,3c0.3,0.8,1.1,0.7,1.6,1.1c1.4,1.2,1.8,2.4,0,3.5c-1.4,0.9-2.1,2.4-2.5,3.9
			c-0.6,2-0.1,3.6,2.2,3.9c2.5,0.3,3.6,1.7,4.1,4.1c0.5,2.8,3.1,4.3,5.1,5.9c3.3,2.6,3.9,5.7,1.5,9.3c-1.3,1.9-3.6,3.3-3.1,6.2
			c0,0.2-0.3,0.8-0.6,0.8c-2.9,0.9-5.5,3.1-8.5,3.1C292.9,268.3,288.4,268,287.3,274.4z"/>
	</g>
</g>
</svg>
