<svg xmlns="http://www.w3.org/2000/svg" viewBox="0 0 300.26 300.26"><defs><style>.a{fill:#bfa161;}.b{fill:none;}</style></defs><path class="a" d="M263,197.79c-1.89-1.8-2-1.83-5.46-2.9l-.45-.14-.16-.43c-2.25-5.84-6.62-9.35-13-10.42l-.66-.11-.11-.66a28.77,28.77,0,0,1-.24-5.95,17.72,17.72,0,0,0-.44-5.81c-1.29-1.48-2.79-1.47-4.52-1.45H228.2c-6.15,0-12.31,0-18.46,0a4.86,4.86,0,0,0-.66,0h-.18a5,5,0,0,1-4.26-1.18l-.29-.28v-20.2c0-1.63,0-3-1.65-4.44a109.5,109.5,0,0,0-13.29-.3,120.18,120.18,0,0,1-15.1-.39l-.85-.09V101.49L135.33,74.77V39.65c-1.74-1.08-3.07-1.46-3.83-1.09s-1.15,1.43-1.3,3.15c-.07.82-.06,1.7,0,2.48V59.65q0,22.8,0,45.59c0,.37,0,.74,0,1.11a10.24,10.24,0,0,1-.56,4.65l-.15.35-.35.15a8.14,8.14,0,0,1-3.69.45l-1,0c-5.8,0-11.91,0-18.69,0-1.92,0-3.28.15-4.53,2.31v54.63l-.51.27a8,8,0,0,1-4.38.77l-.86,0q-8.65,0-17.33,0h-5c-1.86,0-3.47,0-4.93,2.2V194.6l-.63.22a11.65,11.65,0,0,1-4.38.55H54.65c-4.44,0-8.8,0-13.15,0-3.59,0-4.14.57-4.19,4s0,7,0,10.28v.15c0,1.29,0,2.54,0,3.75,1.24,2.44,2.9,2.39,5,2.32l1,0H259.93A3.11,3.11,0,0,0,263,214Zm-195,11.76-.11.83H43.47l-.25-.55a10.72,10.72,0,0,1-.62-5.54c0-.76.1-1.54.08-2.34l0-1H67.54l.21.67C68.53,204.25,68.3,206.76,67.94,209.55Zm33,.76H73.79V175.49H101Zm28.5-.71-.14.78H107V117.49h22l.21.65C130.2,121.3,130.46,204.22,129.45,209.6Zm38.61.76H135.84V81.68l32.22,22.5Zm36.33-31.55c0-.77.07-1.56.06-2.36v-1h32.4l.21.64a14.5,14.5,0,0,1,.51,5.55c0,.86-.07,1.83,0,2.77l0,.57-.49.29a18.67,18.67,0,0,0-6.46,6l-.34.53-5.79-1-.22-.27c-4.91-6.06-10.86-7.76-18.23-5.2l-.93.32-.29-.94A16.77,16.77,0,0,1,204.39,178.81Zm-30.55,26.34v-56h24.92v42.21l-1-.12c-7.39-.86-12.35,1.7-15.16,7.82l-.17.38-.39.13a15.73,15.73,0,0,0-6.53,3.92Zm84,4-.23.27a3.93,3.93,0,0,1-3.58,1.2l-.59,0c-25.27,0-47.36,0-67.54,0q-.36,0-.72,0l-1,0a3.33,3.33,0,0,1-3.61-2.5l0-.29a2.84,2.84,0,0,1,3.16-2.75c2,.08,3-.72,3.81-3.11,1-2.75,2.29-4.43,4-5.11s3.9-.37,6.53,1c1.76.92,2.79,1.22,3.44,1s1.16-1,1.85-2.49c1.88-4.15,4.65-6.61,7.81-6.93s6.52,1.6,9.28,5.41a13.82,13.82,0,0,0,.9,1.07l.29.31,1.18.11c2.62.22,5.32.45,7.74,2.4a1.54,1.54,0,0,0,1.26.37,3,3,0,0,0,1.89-1.48,6.39,6.39,0,0,0,.59-1.39,8.91,8.91,0,0,1,.55-1.39,9,9,0,0,1,8.43-5.34h.18a8.94,8.94,0,0,1,8.31,6.77c.12.39.2.79.29,1.2a4.34,4.34,0,0,0,1.33,2.82c.42.41.91.45,1.74.48a6.24,6.24,0,0,1,1.53.17l.42.1.19.39.12.22a1.88,1.88,0,0,1,.39,1.05c0,1.54,0,3.08,0,4.56Z"/><path class="a" d="M160.85,126.46c0-1-.38-2.38-3-2.51-1.29-.07-2.62,0-3.9,0s-2.51,0-3.74,0h-1.88c-.79,0-1.59,0-2.38,0-2.59.13-2.92,1.5-3,2.53,0,1.7.88,2.6,2.74,2.65,4.27.14,8.44.14,12.37,0C159.41,129.09,160.92,128.59,160.85,126.46Z"/><path class="a" d="M157.28,109.55c-2.67-.11-5.42-.08-8.07,0h-.31l-2.24,0a4.07,4.07,0,0,0-3.34,1.35c-.46,1-.64,2.13.94,3.65a40.06,40.06,0,0,0,8.73.36c1.37,0,2.93-.08,4.44,0h.14c2.12,0,3.13-.78,3.3-2.53a2.09,2.09,0,0,0-.48-1.63A4.31,4.31,0,0,0,157.28,109.55Z"/><path class="a" d="M158.23,167c-1.43-.08-2.93-.06-4.26,0l-1.91,0-2,0-2,0c-1,0-1.81,0-2.57.07a2.53,2.53,0,0,0-.06,5.06c4.27.18,8.58.19,12.81,0a2.84,2.84,0,0,0,2.06-.8,2.54,2.54,0,0,0,.58-1.93A2.42,2.42,0,0,0,158.23,167Z"/><path class="a" d="M152.87,138.2c-2,0-4,.05-5.92.1l-.76,0a3.76,3.76,0,0,0-2.67.9,2.22,2.22,0,0,0-.51,1.7c.11,1.79,1.11,2.57,3.36,2.62l.87,0c3.36.08,6.81.15,10.17,0,1-.06,2.62-.29,3.08-1.23s0-2.15-1.07-3.84C157.46,138.28,155.37,138.2,152.87,138.2Z"/><path class="a" d="M157.51,157.87c1.67,0,2.67-.54,3.14-1.67S161,154,159,152.61h-3.62l-3.72,0c-2.11,0-3.86,0-5.49.07a3.55,3.55,0,0,0-2.61.9,2.24,2.24,0,0,0-.51,1.74c.1,1.68,1,2.49,3,2.55,3.24.09,6.56.07,9.77,0Z"/><path class="a" d="M151.67,186.45l2,0c1.53,0,3.08.05,4.56-.05,1.66-.12,2.53-.94,2.56-2.45,0-1.73-.85-2.63-2.67-2.68-2,0-4.14-.08-6.31-.08-2,0-4,0-6.09.07a3.4,3.4,0,0,0-1.82.49,2.29,2.29,0,0,0-.9,2.13c0,1.66,1,2.48,2.89,2.57,1.27.05,2.54.05,4,0Z"/><path class="a" d="M157.85,195.55c-3.5,0-7.67-.08-12,0-1.89,0-2.82.88-2.84,2.57s.89,2.53,2.78,2.62c1.37.07,2.78.06,4.15,0h.11l1.92,0h.45l1.35,0c1.22,0,2.61,0,3.91,0a3.74,3.74,0,0,0,2.68-1,2.12,2.12,0,0,0,.46-1.65C160.7,196.38,159.75,195.58,157.85,195.55Z"/><path class="a" d="M117.35,200.48c1.09.48,2.08.44,3.36-1.32,0-.17.05-.35.07-.54a17.18,17.18,0,0,0,.16-2q0-32.2,0-64.42V132a10.81,10.81,0,0,0-.15-2.23,2.29,2.29,0,0,0-2.23-2h-.28a2.2,2.2,0,0,0-2.37,1.84,17.68,17.68,0,0,0-.26,3.74v.47q0,22.62,0,45.23v12.28c0,1.86,0,3.73,0,5.59C115.64,199.24,116.32,200,117.35,200.48Z"/><rect class="b" width="300.26" height="300.26"/></svg>