<?xml version="1.0" encoding="utf-8"?>
<!-- Generator: Adobe Illustrator 24.3.0, SVG Export Plug-In . SVG Version: 6.00 Build 0)  -->
<svg version="1.1" id="Layer_1" xmlns="http://www.w3.org/2000/svg" xmlns:xlink="http://www.w3.org/1999/xlink" x="0px" y="0px"
	 viewBox="0 0 400 300" style="enable-background:new 0 0 400 300;" xml:space="preserve">
<style type="text/css">
	.st0{fill:none;}
	.st1{clip-path:url(#SVGID_2_);}
	.st2{fill:#C7042C;}
	.st3{fill:#FFFFFF;}
	.st4{fill:none;stroke:#000000;stroke-linecap:round;stroke-linejoin:round;stroke-miterlimit:10;}
	.st5{fill:#F3F2EF;}
	.st6{fill:#C98017;}
	.st7{fill:#FBED60;}
	.st8{fill:#FABA31;}
	.st9{fill:#68C2EE;}
	.st10{fill:#0491BE;}
	.st11{fill:#68C2EF;}
	.st12{fill:#31798F;}
	.st13{fill:#C1BDBE;}
	.st14{fill:#6E6E6E;}
	.st15{fill:#6C6C6C;}
	.st16{fill:#BCBCBC;}
	.st17{fill:#E1E1E1;}
	.st18{fill:#0A0A09;}
</style>
<path class="st0" d="M70.7,240.1c-0.5-3.5-0.2-6.9,2-9.2c3.2-3.4,4.5,3.8,8.2,1.9c0-5.9,0.2-12-0.1-18.1c-0.2-3.7-2.1-6.3-6.2-6.4
	c-4.3-0.1-4.9-3.8-6.8-6.4c-1.2-1.6-1.3-5.3-4.1-4.2c-3.3,1.3-0.4,4-0.1,6.6c-2.4-1.1-4.5-2.1-6.7-3c-2.1-0.8-2.4-2.2-1.6-4.2
	c2.3-5.8,5.1-11.5,4.8-18.1c-0.1-2,2-2.6,3.6-3.4c6.7-3.2,6.9-3.6,4.5-10.9c-0.5-1.5-0.9-3-1-4.6c-0.6-5.3-0.6-5.3-5.9-8
	c-2,2.5-0.8,6.1-3.2,9.1c-1.1-4-0.6-7.7,0.2-11c2.5-10.6,1.4-21.3,1.9-32c0.1-1.4-0.5-3.1,0.2-4.2c5.7-9.7,5.7-21.7,13-30.7
	c3.7-4.7,7.8-9.1,10.6-14.4c1.3-2.3,3.3-1.6,5-1.3c4.3,0.9,8.1,1,12-2.1c2.8-2.3,6.4,0,9.6,0.4c9,1.2,17.8-3,22-11.2
	c4-7.9,9.2-15.1,14.3-22.3c1.2-1.8,2.6-3.9,5.2-3.5c8.2,1,13.7-3.6,19.1-8.6c2.1-2,4.3-3.6,7.8-3.6c-1.1,3.6-3.8,5.8-5.7,8.5
	c-2.3,3.3-3.2,6.6-1,10.1c4.6,7.2,1.8,15.1,2.5,22.6c0.1,0.6-0.4,1.6-1,2c-4.3,3-5.1,7.7-6.1,12.4c-0.6,3.1-1.3,6.2-3.7,8.6
	c-1.3,1.3-1.5,3.1-1.4,4.9c0.4,6.4,0.2,13,2.1,19.2c0.7,2.3,0.5,4.6,0.1,7c-0.8,4.7,2.1,8.4,6.9,8.8c4.1,0.3,8.2,0.1,12.3-0.5
	c5.4-0.7,9.8,4.3,8.7,9.7c-1.1,5.2-2.7,10-7,13.6c-2,1.6-2.1,4.1-2.6,6.4c-0.3,1.1-1,2.1-2.4,1.6c-0.9-0.3-1.6-1.1-0.9-2.2
	c1.5-2.3-0.2-3.8-1.8-3.5c-1.9,0.3-4.4,1.3-4.3,4.2c0.1,1.7,0.6,3.4,1,5.6c-5,0-1.7-8.4-7.8-6.8c2.5-1.3,4.1-2.8,3.9-5.5
	c-0.1-1.2,0-2.2-1.1-2.8c-1.2-0.7-2.1,0.1-2.9,1c-3,3.3-6.1,6.4-6.2,11.3c-0.2,7.1-0.6,14.2-3.7,20.8c-0.6,1.3-0.1,3.1-0.1,4.7
	c-3.5,1.7-2.7-2.5-4.7-3.4c-3,0.4-6.2,0.9-9.4,2.3c1.2,2.2,3.6,1.8,5.1,3.1c1.2,1.5-1.9,3.6,0.7,5.1c1,0.5,0,1.4-0.3,2
	c-1.6,2.8-10.7,5.1-13.4,3.3c-1.9-1.3-3.6-2.6-6.6-1.1c4.8,1.2,4.9,8.5,11.4,6.9c-3.4,6-9.4,7.5-15.5,9.8c5.6,1.4,5.6,2.3,3.4,7
	c-1.8,3.8-0.1,7.7,2.3,10.9c1.8,2.3,3,4.3,1.8,7.2c-1.2,2.8-3.6,2.1-5.7,2c-2.8-0.1-4.9,1.7-4.1,3.9c1.5,3.9,0.4,6.5-2.7,9.4
	c4.5-1.9,7.3,0.1,10.3,2.7c2.1,1.8,3,3.8,2.5,6.2c-0.5,2.5-1.3,4.8,1.5,6.7c-4.8,1.1-5.4,0.4-6.1-6.5c-2.5-1.3-3.5,0.1-4.5,2.2
	c-2.2,4.4-5.9,6.8-10.9,7.3c-2.6,0.2-5.1,0.3-6-3.1c-0.2-0.7-0.8-1.6-1.4-1.7c-6.5-1.4-12.4-5.7-19.6-3.5c-2.9,0.9-5,0.2-5.2-3.9
	c-0.2-4.5-0.1-8.9,0.7-13.2c0.6-3.2-0.6-4-3.7-3.9C76.2,238.7,75,241.2,70.7,240.1z"/>
<g>
	<defs>
		<path id="SVGID_1_" d="M70.7,240.1c-0.5-3.5-0.2-6.9,2-9.2c3.2-3.4,4.5,3.8,8.2,1.9c0-5.9,0.2-12-0.1-18.1
			c-0.2-3.7-2.1-6.3-6.2-6.4c-4.3-0.1-4.9-3.8-6.8-6.4c-1.2-1.6-1.3-5.3-4.1-4.2c-3.3,1.3-0.4,4-0.1,6.6c-2.4-1.1-4.5-2.1-6.7-3
			c-2.1-0.8-2.4-2.2-1.6-4.2c2.3-5.8,5.1-11.5,4.8-18.1c-0.1-2,2-2.6,3.6-3.4c6.7-3.2,6.9-3.6,4.5-10.9c-0.5-1.5-0.9-3-1-4.6
			c-0.6-5.3-0.6-5.3-5.9-8c-2,2.5-0.8,6.1-3.2,9.1c-1.1-4-0.6-7.7,0.2-11c2.5-10.6,1.4-21.3,1.9-32c0.1-1.4-0.5-3.1,0.2-4.2
			c5.7-9.7,5.7-21.7,13-30.7c3.7-4.7,7.8-9.1,10.6-14.4c1.3-2.3,3.3-1.6,5-1.3c4.3,0.9,8.1,1,12-2.1c2.8-2.3,6.4,0,9.6,0.4
			c9,1.2,17.8-3,22-11.2c4-7.9,9.2-15.1,14.3-22.3c1.2-1.8,2.6-3.9,5.2-3.5c8.2,1,13.7-3.6,19.1-8.6c2.1-2,4.3-3.6,7.8-3.6
			c-1.1,3.6-3.8,5.8-5.7,8.5c-2.3,3.3-3.2,6.6-1,10.1c4.6,7.2,1.8,15.1,2.5,22.6c0.1,0.6-0.4,1.6-1,2c-4.3,3-5.1,7.7-6.1,12.4
			c-0.6,3.1-1.3,6.2-3.7,8.6c-1.3,1.3-1.5,3.1-1.4,4.9c0.4,6.4,0.2,13,2.1,19.2c0.7,2.3,0.5,4.6,0.1,7c-0.8,4.7,2.1,8.4,6.9,8.8
			c4.1,0.3,8.2,0.1,12.3-0.5c5.4-0.7,9.8,4.3,8.7,9.7c-1.1,5.2-2.7,10-7,13.6c-2,1.6-2.1,4.1-2.6,6.4c-0.3,1.1-1,2.1-2.4,1.6
			c-0.9-0.3-1.6-1.1-0.9-2.2c1.5-2.3-0.2-3.8-1.8-3.5c-1.9,0.3-4.4,1.3-4.3,4.2c0.1,1.7,0.6,3.4,1,5.6c-5,0-1.7-8.4-7.8-6.8
			c2.5-1.3,4.1-2.8,3.9-5.5c-0.1-1.2,0-2.2-1.1-2.8c-1.2-0.7-2.1,0.1-2.9,1c-3,3.3-6.1,6.4-6.2,11.3c-0.2,7.1-0.6,14.2-3.7,20.8
			c-0.6,1.3-0.1,3.1-0.1,4.7c-3.5,1.7-2.7-2.5-4.7-3.4c-3,0.4-6.2,0.9-9.4,2.3c1.2,2.2,3.6,1.8,5.1,3.1c1.2,1.5-1.9,3.6,0.7,5.1
			c1,0.5,0,1.4-0.3,2c-1.6,2.8-10.7,5.1-13.4,3.3c-1.9-1.3-3.6-2.6-6.6-1.1c4.8,1.2,4.9,8.5,11.4,6.9c-3.4,6-9.4,7.5-15.5,9.8
			c5.6,1.4,5.6,2.3,3.4,7c-1.8,3.8-0.1,7.7,2.3,10.9c1.8,2.3,3,4.3,1.8,7.2c-1.2,2.8-3.6,2.1-5.7,2c-2.8-0.1-4.9,1.7-4.1,3.9
			c1.5,3.9,0.4,6.5-2.7,9.4c4.5-1.9,7.3,0.1,10.3,2.7c2.1,1.8,3,3.8,2.5,6.2c-0.5,2.5-1.3,4.8,1.5,6.7c-4.8,1.1-5.4,0.4-6.1-6.5
			c-2.5-1.3-3.5,0.1-4.5,2.2c-2.2,4.4-5.9,6.8-10.9,7.3c-2.6,0.2-5.1,0.3-6-3.1c-0.2-0.7-0.8-1.6-1.4-1.7
			c-6.5-1.4-12.4-5.7-19.6-3.5c-2.9,0.9-5,0.2-5.2-3.9c-0.2-4.5-0.1-8.9,0.7-13.2c0.6-3.2-0.6-4-3.7-3.9
			C76.2,238.7,75,241.2,70.7,240.1z"/>
	</defs>
	<clipPath id="SVGID_2_">
		<use xlink:href="#SVGID_1_"  style="overflow:visible;"/>
	</clipPath>
	<g class="st1">
		<rect x="-9.1" y="-18.4" class="st2" width="366" height="304.7"/>
		<rect x="91.6" y="-18.4" class="st3" width="32.5" height="304.7"/>
		
			<rect x="139.7" y="-76.1" transform="matrix(-1.836970e-16 1 -1 -1.836970e-16 280.5985 -31.3932)" class="st3" width="32.5" height="401.3"/>
	</g>
</g>
<path class="st2" d="M245.4,253.1c-1.5-0.9-2.9-1.8-4.3-2.7c-4.6,4.9-3.2,7.8,4.7,9.8c2.1,0.5,3.9,1.1,5.2,3.1
	c-5.1,6.7-11.9,12.9-8.3,23c-4-1.6-5.9-5-4.5-9.1c1.1-3.4,0.1-5.8-1.7-8.3c-1.3-1.9-2.8-3.8-4-5.8c-4.1-6.4-3.1-8.8,4.1-9.9
	c1.3-3.1-0.6-5.2-2.3-7.5c-1.4-1.9-4.9-3.3-2-6.9c1.2-1.5-3.2-5.3-5.3-4.5c-2.1,0.8-3.7-0.1-5.4-0.7c-3.6-1.2-6.9-2.6-10.9-0.9
	c-3,1.3-3.7-1.5-4.2-3.6c-0.9-4-2.7-7.3-6.6-9.2c7.6-5.8,7.3-10.3-0.7-14.2c-0.2-2.1,2.5-1.1,2.8-2.8c-0.2-4.9-4.4-6.4-7.8-8.4
	c0.5-1.5,2.2-0.2,2.9-1.6c0.1-3-3.2-2.8-5.2-4.9c3.5-0.5,6.7,0.6,9.2-0.9c1.7,0.8,1.5,2.8,2.6,3c3,1.2,9.2-6.2,9.5-10.3
	c1.9-1.8,5.7,0.1,6.3-3.8c1.2-7-5.9-5.4-9.2-8.2c7.4-0.4,13.8,4.1,20.6,0.7c1.5,3.6-0.9,4.1-3,4.7c0.5,3.5,4,7.3-1.5,9.6
	c0.8,2.1,3.2,0.7,4,2.2c0.3,1.8-2.2,1.8-2,3.6c1.7,1.8,4.4,1.1,6.2,2.4c3.9-2.6-0.8-7.2,2.6-9.6c3.6-2.5,1.4-6,1.3-9.4
	c4.3,0.6,3.9,3.9,4.1,6.4c0.2,2.9,2.8,5.1,1.9,8.1c-0.8,2.8-4.5,3.5-5.2,6.5c8.3,1.1,8.8,0.6,7.5-7.5c-0.6-4.2-1.7-8.3-2.3-12.6
	c-0.5-4-2.2-5.3-6-3.4c-0.6,0.3-1.5,0.2-2.2,0.3c-0.6-2.3,0.8-3.1,2.2-3.9c4.4-2.8,8.6-5.9,12.5-9.3c2.7-2.3,5.7-3.5,9-1
	c2.6,2,6.2,0.3,8.9,2.7c1.9,1.7,3.1,2.9,1.6,5.5c-2.6,4.5-3.2,9,0,13.6c1.5,2.3,1.3,5.2,1.5,7.8c0.2,3.2,0.8,6.1,2.3,9
	c2.5,4.7,1.5,6.4-4.6,8.2c-0.8-1.8-1.7-3.6-2.6-5.5c-6.8,1.2-12.6,3.4-14.2,11.1c-0.9,4.3,1.3,7.4,5.7,7.8c4.8,0.4,5.2,4.5,6.4,7.6
	c1.4,3.6-1.8,4.2-4,5.1c-2.7,1.2-5.6,2.1-8.4,3.1c-4.4,1.6-4.7,3.9-3.5,8c0.8,2.8,0.8,6.3,0.8,9.4
	C250.3,250.8,247.3,251.9,245.4,253.1z"/>
<path class="st2" d="M166.6,211.8c10.1,0.3,9.2-7,10.3-13c3.9,2.1,3.1,6.8,6.2,8.6c-1.1,2.1-3.6,2-4.4,4c1.7,2.3,4,4.5,5.1,7.1
	c3.7,8.3,1.6,16.5-1.5,24.5c-0.2,0.5-0.7,1.3-1.2,1.4c-6.8,0.6-13.7,4.3-20.4-0.6c-1.6-1.2-3.1-3.5-5.6-0.7
	c-0.5,0.5-3.3-1.1-5.3-1.8c0.7-1.9,3.5-3.3,1.5-6c-1-1.4-2.2-1.1-3.3-1.1c-2.5,0-1,2.6-2.2,3.6c-1.4-0.9-0.8-2.1-0.7-3.3
	c0.2-1.4,0.4-2.9-1.4-3.5c-3.5-1.3-4-4.1-3.9-7.3c0-2,0.4-4.1-2-5.4c-1.1-0.6-1.4-1.7-0.7-2.9c1.2-2-0.2-3-1.7-3.6
	c-3.9-1.5-3.1-4.7-1.8-7c1.5-2.7,4-2.5,6.2-0.1c1.6,1.8,3.3,0.5,4.7-0.2c4.4-2.2,8.7-4.4,13.4-5.8c4.5-1.3,9.9,1.4,11.3,5.8
	C170,206.7,169.7,207.7,166.6,211.8z"/>
<path class="st2" d="M181.6,260c-2.7-3.1-1.3-5.2,0.2-7c3.8-4.6,7.3-9.4,9.9-14.9c-2.3,11.7-7.4,22.5-9.9,34.2c-0.5,0-1,0-1.5,0
	c-1.4-2.8-2.9-5.7-4.4-8.6C177.1,261.9,178.2,260.1,181.6,260z"/>
<path class="st2" d="M134.5,241.5c1.3,3.3,3.8,4.3,6.4,5.6c3.8,1.8,5.5,5.8,7.2,9.5c0.6,1.5,0,2.7-1.8,3.1c-3.5,1-9.6-2.5-9.7-6.2
	c-0.1-4.1-1.1-6.9-5.7-7.3c-0.8-0.1-1.5-1-2.3-1.6C130.3,242.3,132.7,243,134.5,241.5z"/>
<path class="st2" d="M256.3,245.8c4,1,7.2,1.8,10.3,2.6c2.4,0.6,4.2,1.7,3.3,4.6c-1,3.1-3.1,1.9-4.9,1.1c-4-1.7-6.1,1.3-8.4,3.5
	c-1.3,1.2-2,2.8-4.2,1.8c-1.2-0.6-2.3-1-1.9-2.7c0.4-2,1-3.5,3.4-3.7C258.5,252.4,257.7,249.4,256.3,245.8z"/>
<path class="st2" d="M189.9,57.4c8.7-6.1,13.1-7,15.7-2.8c-3.6,0.2-5.3,2.4-6.3,5.6c-0.9,2.7-3,3.5-4.9,1.1
	C193.1,59.6,190.5,59.8,189.9,57.4z"/>
<path class="st2" d="M173,165.9c6.8,10.4,7,16.4,0.5,19.6c-1.8-2.7-2.6-5.4-0.4-8.2c2.1-2.6,2.5-4.9-0.1-7.4
	C172.2,168.9,171.2,167.6,173,165.9z"/>
<path class="st2" d="M156,254c4.5,1.9,8.1,3.5,11.8,5c1,0.4,1.2,1.4,1.3,2.3c0.1,1.1-0.5,1.7-1.5,2c-2.4,0.8-4.7,0.7-6.4-1.4
	C159.3,259.8,157.3,257.6,156,254z"/>
<path class="st4" d="M245.4,253.1c-1.5-0.9-2.9-1.8-4.3-2.7c-4.6,4.9-3.2,7.8,4.7,9.8c2.1,0.5,3.9,1.1,5.2,3.1
	c-5.1,6.7-11.9,12.9-8.3,23c-4-1.6-5.9-5-4.5-9.1c1.1-3.4,0.1-5.8-1.7-8.3c-1.3-1.9-2.8-3.8-4-5.8c-4.1-6.4-3.1-8.8,4.1-9.9
	c1.3-3.1-0.6-5.2-2.3-7.5c-1.4-1.9-4.9-3.3-2-6.9c1.2-1.5-3.2-5.3-5.3-4.5c-2.1,0.8-3.7-0.1-5.4-0.7c-3.6-1.2-6.9-2.6-10.9-0.9
	c-3,1.3-3.7-1.5-4.2-3.6c-0.9-4-2.7-7.3-6.6-9.2c7.6-5.8,7.3-10.3-0.7-14.2c-0.2-2.1,2.5-1.1,2.8-2.8c-0.2-4.9-4.4-6.4-7.8-8.4
	c0.5-1.5,2.2-0.2,2.9-1.6c0.1-3-3.2-2.8-5.2-4.9c3.5-0.5,6.7,0.6,9.2-0.9c1.7,0.8,1.5,2.8,2.6,3c3,1.2,9.2-6.2,9.5-10.3
	c1.9-1.8,5.7,0.1,6.3-3.8c1.2-7-5.9-5.4-9.2-8.2c7.4-0.4,13.8,4.1,20.6,0.7c1.5,3.6-0.9,4.1-3,4.7c0.5,3.5,4,7.3-1.5,9.6
	c0.8,2.1,3.2,0.7,4,2.2c0.3,1.8-2.2,1.8-2,3.6c1.7,1.8,4.4,1.1,6.2,2.4c3.9-2.6-0.8-7.2,2.6-9.6c3.6-2.5,1.4-6,1.3-9.4
	c4.3,0.6,3.9,3.9,4.1,6.4c0.2,2.9,2.8,5.1,1.9,8.1c-0.8,2.8-4.5,3.5-5.2,6.5c8.3,1.1,8.8,0.6,7.5-7.5c-0.6-4.2-1.7-8.3-2.3-12.6
	c-0.5-4-2.2-5.3-6-3.4c-0.6,0.3-1.5,0.2-2.2,0.3c-0.6-2.3,0.8-3.1,2.2-3.9c4.4-2.8,8.6-5.9,12.5-9.3c2.7-2.3,5.7-3.5,9-1
	c2.6,2,6.2,0.3,8.9,2.7c1.9,1.7,3.1,2.9,1.6,5.5c-2.6,4.5-3.2,9,0,13.6c1.5,2.3,1.3,5.2,1.5,7.8c0.2,3.2,0.8,6.1,2.3,9
	c2.5,4.7,1.5,6.4-4.6,8.2c-0.8-1.8-1.7-3.6-2.6-5.5c-6.8,1.2-12.6,3.4-14.2,11.1c-0.9,4.3,1.3,7.4,5.7,7.8c4.8,0.4,5.2,4.5,6.4,7.6
	c1.4,3.6-1.8,4.2-4,5.1c-2.7,1.2-5.6,2.1-8.4,3.1c-4.4,1.6-4.7,3.9-3.5,8c0.8,2.8,0.8,6.3,0.8,9.4
	C250.3,250.8,247.3,251.9,245.4,253.1z"/>
<path class="st4" d="M166.6,211.8c10.1,0.3,9.2-7,10.3-13c3.9,2.1,3.1,6.8,6.2,8.6c-1.1,2.1-3.6,2-4.4,4c1.7,2.3,4,4.5,5.1,7.1
	c3.7,8.3,1.6,16.5-1.5,24.5c-0.2,0.5-0.7,1.3-1.2,1.4c-6.8,0.6-13.7,4.3-20.4-0.6c-1.6-1.2-3.1-3.5-5.6-0.7
	c-0.5,0.5-3.3-1.1-5.3-1.8c0.7-1.9,3.5-3.3,1.5-6c-1-1.4-2.2-1.1-3.3-1.1c-2.5,0-1,2.6-2.2,3.6c-1.4-0.9-0.8-2.1-0.7-3.3
	c0.2-1.4,0.4-2.9-1.4-3.5c-3.5-1.3-4-4.1-3.9-7.3c0-2,0.4-4.1-2-5.4c-1.1-0.6-1.4-1.7-0.7-2.9c1.2-2-0.2-3-1.7-3.6
	c-3.9-1.5-3.1-4.7-1.8-7c1.5-2.7,4-2.5,6.2-0.1c1.6,1.8,3.3,0.5,4.7-0.2c4.4-2.2,8.7-4.4,13.4-5.8c4.5-1.3,9.9,1.4,11.3,5.8
	C170,206.7,169.7,207.7,166.6,211.8z"/>
<path class="st4" d="M181.6,260c-2.7-3.1-1.3-5.2,0.2-7c3.8-4.6,7.3-9.4,9.9-14.9c-2.3,11.7-7.4,22.5-9.9,34.2c-0.5,0-1,0-1.5,0
	c-1.4-2.8-2.9-5.7-4.4-8.6C177.1,261.9,178.2,260.1,181.6,260z"/>
<path class="st4" d="M134.5,241.5c1.3,3.3,3.8,4.3,6.4,5.6c3.8,1.8,5.5,5.8,7.2,9.5c0.6,1.5,0,2.7-1.8,3.1c-3.5,1-9.6-2.5-9.7-6.2
	c-0.1-4.1-1.1-6.9-5.7-7.3c-0.8-0.1-1.5-1-2.3-1.6C130.3,242.3,132.7,243,134.5,241.5z"/>
<path class="st4" d="M256.3,245.8c4,1,7.2,1.8,10.3,2.6c2.4,0.6,4.2,1.7,3.3,4.6c-1,3.1-3.1,1.9-4.9,1.1c-4-1.7-6.1,1.3-8.4,3.5
	c-1.3,1.2-2,2.8-4.2,1.8c-1.2-0.6-2.3-1-1.9-2.7c0.4-2,1-3.5,3.4-3.7C258.5,252.4,257.7,249.4,256.3,245.8z"/>
<path class="st4" d="M189.9,57.4c8.7-6.1,13.1-7,15.7-2.8c-3.6,0.2-5.3,2.4-6.3,5.6c-0.9,2.7-3,3.5-4.9,1.1
	C193.1,59.6,190.5,59.8,189.9,57.4z"/>
<path class="st4" d="M173,165.9c6.8,10.4,7,16.4,0.5,19.6c-1.8-2.7-2.6-5.4-0.4-8.2c2.1-2.6,2.5-4.9-0.1-7.4
	C172.2,168.9,171.2,167.6,173,165.9z"/>
<path class="st4" d="M156,254c4.5,1.9,8.1,3.5,11.8,5c1,0.4,1.2,1.4,1.3,2.3c0.1,1.1-0.5,1.7-1.5,2c-2.4,0.8-4.7,0.7-6.4-1.4
	C159.3,259.8,157.3,257.6,156,254z"/>
<rect y="16.6" class="st0" width="400" height="300"/>
<path class="st5" d="M320.5,205c7.2,7,7.3,18.5,0.3,25.7l0,0l-0.3,0.3c-7.2,7.2-18.9,7.3-26.1,0.1s-7.3-18.9-0.1-26.1
	c7.2-7.2,18.9-7.3,26.1-0.1L320.5,205z M314.5,225c1.9-1.8,2.9-4.4,2.9-7c0.1-2.6-1-5.1-2.9-6.9c-1.9-1.9-4.4-2.9-7.1-2.8
	c-5.3-0.1-9.7,4.2-9.8,9.5v0.2c0,2.6,1,5.1,2.8,7c1.8,1.9,4.3,2.9,6.9,2.9C310,228,312.6,226.9,314.5,225z M356.7,207.3L309,281.4
	c-0.8,1.5-2.4,2.5-4.1,2.4c-2.7-0.1-4.9-2.3-5-5c0.1-1,0.4-2,0.9-2.9l47.8-74.2c0.8-1.5,2.4-2.5,4.1-2.4c1.4,0,2.7,0.5,3.6,1.5
	c1,0.9,1.5,2.3,1.4,3.6C357.6,205.4,357.3,206.4,356.7,207.3L356.7,207.3z M336.9,278.4c-7.2-7.2-7.2-18.8,0-26l0.1-0.1
	c3.4-3.4,8.1-5.3,12.9-5.4c10.2-0.1,18.4,8.1,18.5,18.3c0.1,10.2-8.1,18.4-18.3,18.5C345.2,283.9,340.4,281.9,336.9,278.4z
	 M342.9,258.4c-3.9,3.7-4,9.8-0.3,13.7l0.1,0.1l0.2,0.2c3.8,3.8,9.9,3.9,13.7,0.1c2-1.9,3-4.6,2.9-7.4c-0.2-5.2-4.4-9.4-9.6-9.6
	C347.3,255.5,344.8,256.6,342.9,258.4L342.9,258.4z"/>
<g>
	<ellipse transform="matrix(0.887 -0.4618 0.4618 0.887 -15.3198 26.9762)" class="st6" cx="47.5" cy="44.8" rx="42.1" ry="23.1"/>
	<ellipse transform="matrix(0.8962 -0.4437 0.4437 0.8962 -13.479 24.5158)" class="st7" cx="45.6" cy="41.1" rx="42.1" ry="20.5"/>
	<ellipse transform="matrix(0.8962 -0.4437 0.4437 0.8962 -13.479 24.5158)" class="st8" cx="45.6" cy="41.1" rx="33.7" ry="16.3"/>
	<path class="st6" d="M38.6,50.5c1.7,1.3,5.9,0.3,9.4-1.7c2.2-1.4,3.5-3.1,3.6-4.5l0.2-0.8l1.1-0.5c1.1-0.5,2.2-1,3.5-1.8
		c3.6-2.2,4.7-5.1,2.8-6.4l-0.7-0.2l3.7-2.3c0.7-0.5,1.2-1.1,0.7-1.5c-0.3-0.3-1.2-0.1-2,0.4l-3.7,2.3l-2.4-1.7l3.7-2.3
		c0.7-0.5,1.2-1.1,0.7-1.3c-0.7-0.2-1.5,0-2,0.4l-3.7,2.3l-2.1-1.5c-0.3-0.3-1.2-0.1-2,0.4c-0.7,0.5-1.2,1.1-0.7,1.3l1.7,1.5
		l-16.7,11l-1.7-1.5c-0.3-0.3-1.2-0.1-2,0.4c-0.7,0.5-1.2,1.1-0.7,1.3l1.7,1.5l-3.2,2c-0.7,0.5-1.2,1.1-0.7,1.5
		c0.3,0.3,1.2,0.1,2-0.4l3.7-2.3l2.4,1.9l-3.7,2.3c-0.7,0.5-1.2,1.1-0.7,1.3c0.7,0.2,1.5,0,2-0.4l3.7-2.3L38.6,50.5z M52.3,33.5
		l4.3,3.2c0.9,0.7,0.2,2.3-1.5,3.6c-1.8,1.4-4.5,1.8-5.3,1.1l-4.3-3.2L52.3,33.5z M35.5,44.3l7-4.5l5.6,4c0.9,0.7,0.2,2.3-1.5,3.6
		c-1.7,1.3-4.2,1.8-5.3,1.1L35.5,44.3z"/>
</g>
<g>
	<ellipse transform="matrix(0.4884 -0.8726 0.8726 0.4884 66.9346 262.2916)" class="st9" cx="257.2" cy="74.1" rx="62.2" ry="30"/>
	
		<ellipse transform="matrix(0.4884 -0.8726 0.8726 0.4884 68.0521 257.5374)" class="st10" cx="253.7" cy="70.7" rx="61" ry="27.9"/>
	
		<ellipse transform="matrix(0.4884 -0.8726 0.8726 0.4884 68.0521 257.5374)" class="st11" cx="253.7" cy="70.7" rx="48.8" ry="22.4"/>
	<path class="st12" d="M259.5,61.1l7.9-11.1c-1.4-0.7-2.3-1.2-3.4-2.1c-0.6-0.4-1.1,0.1-1.7,1.2c-2.6,3.5-5.3,7.1-7.7,10.7
		c-1.7,2.3-2.8,3.3-4.5,3.5c-1.9,0.3-2.2,0.3-3.5,3.9l2.9-0.5c-2.7,4-5.4,7.3-7.9,11l12.1,6.9c0.3,0,0.5,0.1,0.9-0.5
		c1.3-1.7,2.5-3.3,4.1-5.2l-8.4-4.7c1.6-2,2.9-3.9,4.3-5.9c1.6-2.5,2.9-3.5,4.5-3.7c1.9-0.2,2-0.5,3.5-3.9L259.5,61.1z"/>
</g>
<g>
	<ellipse class="st13" cx="34.4" cy="250.8" rx="25.8" ry="29.7"/>
	<ellipse class="st14" cx="31.3" cy="249.7" rx="24.9" ry="28.7"/>
	<ellipse class="st13" cx="31.3" cy="249.7" rx="20" ry="23"/>
	<path class="st14" d="M35.7,236.4c2.6,0,4.7,2.3,4.9,5.4c0.2,3-1.8,5.3-4.2,5.7c-0.4,0.1-0.6,0.2-1,0.1c-1.1-0.2-2.1,0.6-2.2,1.7
		v0.4c0,1.4,0.8,2.3,2,2.2c2.4-0.2,4.4,1.6,5,4.3c0.5,2.1-0.2,4.2-1.6,5.7c-1.3,1.4-3.3,1.7-5,0.8c-1.8-0.9-2.8-2.5-3-4.9
		c-0.1-1.1,0.2-2.2,0.5-3.2c0.5-0.8,0.2-1.7-0.5-2.4c-0.5-0.5-1.4-0.6-2.1-0.4c-0.3,0.2-0.5,0.5-0.6,0.7c-1.3,2.1-3,2.9-5,2.4
		c-2.1-0.5-3.3-2.1-3.8-4.4c-0.6-3.4,2.1-6.9,5.1-6.6c2,0.2,3.3,1.4,4.2,3.3c0.3,0.9,1.3,1.4,2.1,1.2c0.1,0,0.1,0,0.2-0.1
		c0.2-0.1,0.2-0.1,0.3-0.2c1-0.5,1.4-1.9,0.8-3c-0.5-1-0.8-2-0.9-3C30.7,239,32.9,236.5,35.7,236.4z"/>
</g>
<g>
	<path class="st15" d="M378,142.1c1.8,2.8,3.6,5.7,4.9,8.8l0.4,0.5c0,0.4,0.1,1.2,0.4,1.6l0.1,0.4c-0.4,1.5,0.7,3.2,0.9,5.1
		c0.1,1.2-0.4,1.6,0.4,2.6c-0.5,2-0.7,4.6-1.5,6.7c-0.3,0-0.3,0.3-0.3,0.4l0.1,0.1c-0.8,1.2-1.6,2.1-2.1,3.6c0,0-0.5-0.4-0.4,0.1
		c-2.4,2.4-5.3,4.3-8.3,5.7c-2.6,0.4-5.5,2-8.6,2c-26.4,4.6-75.1-24.7-69.1-52.6c0.4-0.1-0.3-0.5,0.1-1c0.4-0.4,0.7-0.4,0.4-0.7
		c-0.1-2.1,3.3-4.9,3.8-6.3c0.4-0.4,0.8-0.7,1-1.2c0.8-0.4,1.5-1.2,2.4-1.3c1.7-1.2,3.4-2.1,5.3-2.9c0.8,0,1.3-0.1,2-0.4
		c4-0.9,7.9-1.3,11.9-1c0.5-0.4,1.5,0.4,1.8-0.4c0,0.3,0.3,0.3,0.4,0.3l0.1-0.1c4.2,0.5,9,1.7,13.4,2.5c0.3,0.3,0.7,0.4,1.2,0.3
		c6.5,2.4,13,5.5,19.1,8.8c0.5,0.7,1.3,1.3,2.3,1.3c1.5,1.3,3,2.6,4.9,3.6c0.3,0.3,0.4,0.7,0.7,0.4c1,1.6,3.2,2.8,4.5,4.2
		c0.8,0,0.7,0.9,1.5,0.9c0.1,0.4,0.4,0.1,0.5,0.4c-0.4,0.7,0.4,0.8,0.9,1.2C374.1,138.2,376.4,139.5,378,142.1z M366.4,172.7
		c17.4-5.3,12.2-23.2,3.3-33.1c-22.4-24.9-63.1-29.3-67.2-9.1c-2.9,10.7,6.1,20.7,13.3,27.8c13.9,10.9,32.3,19.4,50,14.7
		L366.4,172.7z"/>
	<path class="st16" d="M365.9,173c-18,4.6-36.1-3.8-50-14.7c-7.1-7.1-16.2-17.2-13.3-27.8c2.8-4.3,6.7-7.3,11.6-8.8
		c14-2.8,25.3,1.8,36.5,7.1c4.6,3.8,10.6,6.7,14.4,11.5c9.2,8.4,15.3,25.4,1.5,32.3C366.4,172.3,365.4,172.4,365.9,173z
		 M346.6,139.7C346.9,140.2,347.5,139.4,346.6,139.7c-5.5-4.6-11.3-8.7-17.2-13l-0.8,14.4c2.3-1.5,4.5-3.6,6.6-5
		C339.1,137.5,342.6,138.7,346.6,139.7z M352.5,143.8c-4.9-2.3-10.8-3.7-16.1-5.8c-1.5,0.8-2.8,1.8-3.8,2.9
		c-1.7,1.2-3.3,2.5-4.9,3.8c0,0.4,0.5,0.4,0.7,0.7c8.2,6.6,16.5,13.8,25.2,20.3C353.3,158.5,353.8,150.8,352.5,143.8z"/>
	<path class="st16" d="M380.6,174.1l-0.4,0.1c-1.3,1.5-2.5,3.2-3.3,5.1c-0.8,0.4-1.2,1.5-2,1.8c-2.1,2.5-5.4,3.4-8.3,5.3
		c-4.1,0.8-8.3,1.5-12.5,1.7c-0.1-0.1-0.3-0.3-0.4-0.1l-0.1,0.1c-2.1-0.5-5.4-0.1-7.8-0.9c-2.5-0.1-4.8-1.6-7.1-1.3
		c0-0.3-0.3-0.3-0.4-0.3l-0.1,0.1c-0.4-0.7-1-0.9-1.7-0.5c-0.1-0.1-0.3-0.3-0.5-0.1c-0.4-0.7-1-0.9-1.7-0.5c0-0.3-0.3-0.3-0.5-0.1
		c0-0.3-0.3-0.3-0.4-0.3l-0.1,0.1c-0.4-0.4-0.5-0.5-1-0.5l0,0c-0.5-0.7-0.7-0.7-1.6-0.4c-4.6-2.8-10.3-4.9-15.3-8.1
		c-1.2-0.8-3-2.9-4.5-2.9c-1.5-2.1-4.6-3.3-6.3-5.8c-0.9,0-0.9-1.2-1.5-1.2c-4.5-5.1-8.8-10.4-11.1-16.7c-0.8-2.1-1-4.9-1.8-7.1
		c0.5-0.5,0.1-1.3,0.1-2.6c0.4-4.3,2.1-8.4,4.8-11.9c-5.8,29.8,45.2,57.3,69.2,52.1c2.8,0,5.8-1.3,8.6-2c3.2-1.5,5.9-3.4,8.3-5.7
		c0.3,1-0.5,1.5-0.9,2.1L380.6,174.1z"/>
	<path class="st17" d="M366.4,172.7c14.2-7.4,7.1-24.3-1.5-32.3c-3.8-4.9-9.6-7.8-14.4-11.5c-11.9-5.7-23.7-9.6-36.5-7.1
		c-3.2,1-6.3,2.9-9,4.9c-1.3,1.2-1.3,2.6-2.9,3.7c1.2-7.6,8.8-11.2,16-12.4c19.9-2.4,40.3,9.4,51.4,21.5
		C381.4,153.2,380.6,168.6,366.4,172.7z"/>
	<path class="st17" d="M365.9,173c-0.1-0.1,0-0.4,0.1-0.5c0.3-0.3,0.4,0,0.5,0.1L365.9,173z"/>
	<path class="st15" d="M352.7,143.9c1,6.9,0.4,14.4,1.2,21.6c-8.4-6.3-16.9-13.3-25.2-20.3c4.3,0.1,10,2.3,14.6,3.6
		C346.3,147.4,349.4,145.6,352.7,143.9z"/>
	<path class="st18" d="M352.7,143.9c-3,1.7-6.2,3-9.6,5.1c-4.6-1.3-9.9-3.3-14.6-3.6c-0.1-0.4-0.9,0-0.7-0.7
		c1.5-1.3,3.2-2.5,4.9-3.8c1.3-1.2,2.6-2.1,3.8-2.9C341.7,140.3,347.9,141.5,352.7,143.9z"/>
	<path class="st15" d="M346.4,139.8l-11.3-3.8c-2.1,1.3-4.2,3.4-6.6,5l0.8-14.4C335.1,131.1,341.1,135.2,346.4,139.8z"/>
</g>
<path class="st4" d="M70.7,240.1c-0.5-3.5-0.2-6.9,2-9.2c3.2-3.4,4.5,3.8,8.2,1.9c0-5.9,0.2-12-0.1-18.1c-0.2-3.7-2.1-6.3-6.2-6.4
	c-4.3-0.1-4.9-3.8-6.8-6.4c-1.2-1.6-1.3-5.3-4.1-4.2c-3.3,1.3-0.4,4-0.1,6.6c-2.4-1.1-4.5-2.1-6.7-3c-2.1-0.8-2.4-2.2-1.6-4.2
	c2.3-5.8,5.1-11.5,4.8-18.1c-0.1-2,2-2.6,3.6-3.4c6.7-3.2,6.9-3.6,4.5-10.9c-0.5-1.5-0.9-3-1-4.6c-0.6-5.3-0.6-5.3-5.9-8
	c-2,2.5-0.8,6.1-3.2,9.1c-1.1-4-0.6-7.7,0.2-11c2.5-10.6,1.4-21.3,1.9-32c0.1-1.4-0.5-3.1,0.2-4.2c5.7-9.7,5.7-21.7,13-30.7
	c3.7-4.7,7.8-9.1,10.6-14.4c1.3-2.3,3.3-1.6,5-1.3c4.3,0.9,8.1,1,12-2.1c2.8-2.3,6.4,0,9.6,0.4c9,1.2,17.8-3,22-11.2
	c4-7.9,9.2-15.1,14.3-22.3c1.2-1.8,2.6-3.9,5.2-3.5c8.2,1,13.7-3.6,19.1-8.6c2.1-2,4.3-3.6,7.8-3.6c-1.1,3.6-3.8,5.8-5.7,8.5
	c-2.3,3.3-3.2,6.6-1,10.1c4.6,7.2,1.8,15.1,2.5,22.6c0.1,0.6-0.4,1.6-1,2c-4.3,3-5.1,7.7-6.1,12.4c-0.6,3.1-1.3,6.2-3.7,8.6
	c-1.3,1.3-1.5,3.1-1.4,4.9c0.4,6.4,0.2,13,2.1,19.2c0.7,2.3,0.5,4.6,0.1,7c-0.8,4.7,2.1,8.4,6.9,8.8c4.1,0.3,8.2,0.1,12.3-0.5
	c5.4-0.7,9.8,4.3,8.7,9.7c-1.1,5.2-2.7,10-7,13.6c-2,1.6-2.1,4.1-2.6,6.4c-0.3,1.1-1,2.1-2.4,1.6c-0.9-0.3-1.6-1.1-0.9-2.2
	c1.5-2.3-0.2-3.8-1.8-3.5c-1.9,0.3-4.4,1.3-4.3,4.2c0.1,1.7,0.6,3.4,1,5.6c-5,0-1.7-8.4-7.8-6.8c2.5-1.3,4.1-2.8,3.9-5.5
	c-0.1-1.2,0-2.2-1.1-2.8c-1.2-0.7-2.1,0.1-2.9,1c-3,3.3-6.1,6.4-6.2,11.3c-0.2,7.1-0.6,14.2-3.7,20.8c-0.6,1.3-0.1,3.1-0.1,4.7
	c-3.5,1.7-2.7-2.5-4.7-3.4c-3,0.4-6.2,0.9-9.4,2.3c1.2,2.2,3.6,1.8,5.1,3.1c1.2,1.5-1.9,3.6,0.7,5.1c1,0.5,0,1.4-0.3,2
	c-1.6,2.8-10.7,5.1-13.4,3.3c-1.9-1.3-3.6-2.6-6.6-1.1c4.8,1.2,4.9,8.5,11.4,6.9c-3.4,6-9.4,7.5-15.5,9.8c5.6,1.4,5.6,2.3,3.4,7
	c-1.8,3.8-0.1,7.7,2.3,10.9c1.8,2.3,3,4.3,1.8,7.2c-1.2,2.8-3.6,2.1-5.7,2c-2.8-0.1-4.9,1.7-4.1,3.9c1.5,3.9,0.4,6.5-2.7,9.4
	c4.5-1.9,7.3,0.1,10.3,2.7c2.1,1.8,3,3.8,2.5,6.2c-0.5,2.5-1.3,4.8,1.5,6.7c-4.8,1.1-5.4,0.4-6.1-6.5c-2.5-1.3-3.5,0.1-4.5,2.2
	c-2.2,4.4-5.9,6.8-10.9,7.3c-2.6,0.2-5.1,0.3-6-3.1c-0.2-0.7-0.8-1.6-1.4-1.7c-6.5-1.4-12.4-5.7-19.6-3.5c-2.9,0.9-5,0.2-5.2-3.9
	c-0.2-4.5-0.1-8.9,0.7-13.2c0.6-3.2-0.6-4-3.7-3.9C76.2,238.7,75,241.2,70.7,240.1z"/>
</svg>
