<?xml version="1.0" encoding="utf-8"?>
<!-- Generator: Adobe Illustrator 24.3.0, SVG Export Plug-In . SVG Version: 6.00 Build 0)  -->
<svg version="1.1" id="Layer_1" xmlns="http://www.w3.org/2000/svg" xmlns:xlink="http://www.w3.org/1999/xlink" x="0px" y="0px"
	 viewBox="0 0 400 300" style="enable-background:new 0 0 400 300;" xml:space="preserve">
<style type="text/css">
	.st0{fill:none;}
	.st1{fill:#F3F2EF;}
	.st2{fill:#C98017;}
	.st3{fill:#FBED60;}
	.st4{fill:#FABA31;}
	.st5{fill:#68C2EE;}
	.st6{fill:#0491BE;}
	.st7{fill:#68C2EF;}
	.st8{fill:#31798F;}
	.st9{fill:#C1BDBE;}
	.st10{fill:#6E6E6E;}
	.st11{fill:#6C6C6C;}
	.st12{fill:#BCBCBC;}
	.st13{fill:#E1E1E1;}
	.st14{fill:#0A0A09;}
	.st15{clip-path:url(#SVGID_2_);}
	.st16{fill:#FFFFFF;}
	.st17{fill:#114074;}
	.st18{fill:none;stroke:#000000;stroke-miterlimit:10;}
</style>
<rect y="16.6" class="st0" width="400" height="300"/>
<path class="st1" d="M328.8,64.9c7.2,7,7.3,18.5,0.3,25.7l0,0l-0.3,0.3c-7.2,7.2-18.9,7.3-26.1,0.1c-7.2-7.2-7.3-18.9-0.1-26.1
	c7.2-7.2,18.9-7.3,26.1-0.1L328.8,64.9z M322.8,84.9c1.9-1.8,2.9-4.4,2.9-7c0.1-2.6-1-5.1-2.9-6.9c-1.9-1.9-4.4-2.9-7.1-2.8
	c-5.3-0.1-9.7,4.2-9.8,9.5v0.2c0,2.6,1,5.1,2.8,7s4.3,2.9,6.9,2.9C318.3,87.9,320.9,86.8,322.8,84.9z M365,67.2l-47.7,74.1
	c-0.8,1.5-2.4,2.5-4.1,2.4c-2.7-0.1-4.9-2.3-5-5c0.1-1,0.4-2,0.9-2.9l47.8-74.2c0.8-1.5,2.4-2.5,4.1-2.4c1.4,0,2.7,0.5,3.6,1.5
	c1,0.9,1.5,2.3,1.4,3.6C365.9,65.3,365.6,66.3,365,67.2L365,67.2z M345.2,138.3c-7.2-7.2-7.2-18.8,0-26l0.1-0.1
	c3.4-3.4,8.1-5.3,12.9-5.4c10.2-0.1,18.4,8.1,18.5,18.3s-8.1,18.4-18.3,18.5C353.5,143.8,348.7,141.8,345.2,138.3z M351.2,118.3
	c-3.9,3.7-4,9.8-0.3,13.7l0.1,0.1l0.2,0.2c3.8,3.8,9.9,3.9,13.7,0.1c2-1.9,3-4.6,2.9-7.4c-0.2-5.2-4.4-9.4-9.6-9.6
	C355.6,115.4,353.1,116.5,351.2,118.3L351.2,118.3z"/>
<g>
	
		<ellipse transform="matrix(0.6111 -0.7916 0.7916 0.6111 52.2156 223.6682)" class="st2" cx="253.7" cy="58.7" rx="42.1" ry="23.1"/>
	<ellipse transform="matrix(0.627 -0.779 0.779 0.627 49.7573 216.0678)" class="st3" cx="250.5" cy="56.1" rx="42.1" ry="20.5"/>
	<ellipse transform="matrix(0.627 -0.779 0.779 0.627 49.7573 216.0678)" class="st4" cx="250.5" cy="56.1" rx="33.7" ry="16.3"/>
	<path class="st2" d="M248.1,67.6c2.1,0.5,5.5-2.2,7.8-5.5c1.4-2.2,1.9-4.3,1.4-5.6l-0.2-0.8l0.8-0.9c0.8-0.9,1.6-1.8,2.4-3.1
		c2.3-3.5,2.1-6.6-0.1-7l-0.7,0.1l2.4-3.6c0.4-0.7,0.6-1.5,0-1.6c-0.4-0.1-1.1,0.4-1.7,1.2l-2.4,3.6l-2.9-0.5l2.4-3.6
		c0.4-0.7,0.6-1.5,0.1-1.5c-0.7,0.1-1.4,0.6-1.7,1.2l-2.4,3.6l-2.5-0.5c-0.4-0.1-1.1,0.4-1.7,1.2c-0.4,0.7-0.6,1.5-0.1,1.5l2.2,0.6
		l-10.5,17l-2.2-0.6c-0.4-0.1-1.1,0.4-1.7,1.2c-0.4,0.7-0.6,1.5-0.1,1.5l2.2,0.6l-2.1,3.2c-0.4,0.7-0.6,1.5,0,1.6
		c0.4,0.1,1.1-0.4,1.7-1.2l2.4-3.6l3,0.7l-2.4,3.6c-0.4,0.7-0.6,1.5-0.1,1.5c0.7-0.1,1.4-0.6,1.7-1.2l2.4-3.6L248.1,67.6z
		 M253.4,46.4l5.2,1.1c1.1,0.3,1.2,2,0.1,3.9c-1.1,2-3.3,3.5-4.4,3.2l-5.2-1.1L253.4,46.4z M242.7,63.3l4.5-7l6.8,1.3
		c1.1,0.3,1.2,2,0.1,3.9c-1,1.9-3.1,3.4-4.4,3.2L242.7,63.3z"/>
</g>
<g>
	<ellipse transform="matrix(0.9364 -0.3509 0.3509 0.9364 -36.8033 31.0604)" class="st5" cx="67.3" cy="117.1" rx="30" ry="62.2"/>
	<ellipse transform="matrix(0.9364 -0.3509 0.3509 0.9364 -37.2905 29.409)" class="st6" cx="62.5" cy="117.6" rx="27.9" ry="61"/>
	
		<ellipse transform="matrix(0.9364 -0.3509 0.3509 0.9364 -37.2905 29.409)" class="st7" cx="62.5" cy="117.6" rx="22.4" ry="48.8"/>
	<path class="st8" d="M58.9,106.9l-3.4-13.2c-1.4,0.6-2.4,1-3.8,1.3c-0.7,0.2-0.6,0.9-0.2,2.1c1,4.3,2,8.6,3.2,12.8
		c0.7,2.8,0.7,4.3-0.2,5.7c-1,1.7-1.2,1.9,0.7,5.2l1.5-2.5c1.3,4.6,2.1,8.8,3.3,13.1l13.1-4.8c0.2-0.2,0.4-0.3,0.2-1
		c-0.4-2.1-0.9-4.1-1.3-6.5l-9,3.4c-0.5-2.5-1.1-4.7-1.7-7.1c-0.9-2.8-0.8-4.5,0.1-5.8c1.1-1.6,0.9-1.8-0.7-5.2L58.9,106.9z"/>
</g>
<g>
	<ellipse class="st9" cx="47.1" cy="247.4" rx="28.5" ry="32.8"/>
	<ellipse class="st10" cx="43.7" cy="246.2" rx="27.5" ry="31.7"/>
	<ellipse class="st9" cx="43.7" cy="246.2" rx="22.1" ry="25.4"/>
	<path class="st10" d="M48.5,231.5c2.9,0,5.2,2.5,5.4,6c0.2,3.3-2,5.9-4.6,6.3c-0.4,0.1-0.7,0.2-1.1,0.1c-1.2-0.2-2.3,0.7-2.4,1.9
		v0.4c0,1.5,0.9,2.5,2.2,2.4c2.6-0.2,4.9,1.8,5.5,4.7c0.6,2.3-0.2,4.6-1.8,6.3c-1.4,1.5-3.6,1.9-5.5,0.9c-2-1-3.1-2.8-3.3-5.4
		c-0.1-1.2,0.2-2.4,0.6-3.5c0.5-0.9,0.2-1.9-0.5-2.7c-0.6-0.6-1.5-0.7-2.3-0.4c-0.3,0.2-0.6,0.5-0.7,0.8c-1.4,2.3-3.3,3.2-5.5,2.6
		c-2.3-0.5-3.6-2.3-4.2-4.9c-0.7-3.7,2.3-7.6,5.6-7.3c2.2,0.2,3.6,1.5,4.6,3.6c0.3,1,1.4,1.5,2.3,1.3c0.1,0,0.1,0,0.2-0.1
		c0.2-0.1,0.2-0.1,0.3-0.2c1.1-0.6,1.5-2.1,0.9-3.3c-0.5-1.1-0.9-2.2-1-3.3C43,234.4,45.4,231.6,48.5,231.5z"/>
</g>
<g>
	<path class="st11" d="M374.3,205.9c2,3.1,4,6.4,5.5,9.8l0.5,0.6c0,0.4,0.1,1.3,0.5,1.8l0.1,0.4c-0.5,1.7,0.8,3.6,1,5.7
		c0.1,1.3-0.5,1.8,0.4,2.9c-0.6,2.2-0.8,5.1-1.7,7.5c-0.3,0-0.3,0.3-0.3,0.5l0.1,0.1c-0.9,1.3-1.8,2.4-2.3,4c0,0-0.6-0.4-0.4,0.1
		c-2.7,2.7-5.9,4.8-9.3,6.4c-2.9,0.4-6.2,2.2-9.6,2.2c-29.5,5.2-84-27.7-77.3-58.9c0.4-0.1-0.3-0.6,0.1-1.1s0.8-0.4,0.5-0.8
		c-0.1-2.4,3.7-5.5,4.3-7.1c0.5-0.4,0.9-0.8,1.1-1.3c0.9-0.5,1.7-1.3,2.7-1.4c1.9-1.3,3.8-2.3,5.9-3.2c0.9,0,1.4-0.1,2.2-0.5
		c4.5-1,8.8-1.4,13.3-1.1c0.6-0.5,1.7,0.5,2-0.4c0,0.3,0.3,0.3,0.5,0.3l0.1-0.1c4.7,0.6,10.1,1.9,15,2.8c0.3,0.3,0.8,0.5,1.3,0.3
		c7.3,2.7,14.5,6.1,21.4,9.9c0.6,0.8,1.5,1.4,2.6,1.4c1.7,1.5,3.4,2.9,5.5,4c0.3,0.3,0.4,0.8,0.8,0.5c1.1,1.8,3.6,3.1,5,4.7
		c0.9,0,0.8,1,1.7,1c0.1,0.4,0.4,0.1,0.6,0.4c-0.5,0.8,0.5,0.9,1,1.3C369.9,201.5,372.5,203,374.3,205.9z M361.3,240.1
		c19.5-5.9,13.6-26,3.7-37c-25.1-27.9-70.6-32.8-75.2-10.2c-3.2,12,6.8,23.2,14.9,31.1c15.6,12.2,36.1,21.7,56,16.5L361.3,240.1z"/>
	<path class="st12" d="M360.8,240.4c-20.1,5.2-40.4-4.3-56-16.5c-7.9-7.9-18.1-19.3-14.9-31.1c3.1-4.8,7.5-8.2,13-9.8
		c15.7-3.1,28.3,2,40.9,7.9c5.1,4.2,11.9,7.5,16.1,12.9c10.3,9.4,17.1,28.4,1.7,36.2C361.3,239.7,360.2,239.8,360.8,240.4z
		 M339.1,203.2C339.5,203.7,340.1,202.8,339.1,203.2c-6.1-5.1-12.6-9.7-19.3-14.5l-0.9,16.1c2.6-1.7,5-4,7.4-5.6
		C330.7,200.7,334.7,202.1,339.1,203.2z M345.8,207.8c-5.5-2.6-12.1-4.1-18-6.5c-1.7,0.9-3.1,2-4.3,3.2c-1.9,1.3-3.7,2.8-5.5,4.2
		c0,0.4,0.6,0.4,0.8,0.8c9.2,7.4,18.5,15.4,28.2,22.7C346.6,224.2,347.2,215.6,345.8,207.8z"/>
	<path class="st12" d="M377.2,241.7l-0.4,0.1c-1.5,1.7-2.8,3.6-3.7,5.7c-0.9,0.5-1.3,1.7-2.2,2c-2.3,2.8-6,3.8-9.3,5.9
		c-4.6,0.9-9.3,1.7-14,1.9c-0.1-0.1-0.3-0.3-0.4-0.1l-0.1,0.1c-2.4-0.6-6-0.1-8.7-1c-2.8-0.1-5.4-1.8-7.9-1.4c0-0.3-0.3-0.3-0.5-0.3
		l-0.1,0.1c-0.4-0.8-1.1-1-1.9-0.6c-0.1-0.1-0.3-0.3-0.6-0.1c-0.4-0.8-1.1-1-1.9-0.6c0-0.3-0.3-0.3-0.6-0.1c0-0.3-0.3-0.3-0.5-0.3
		l-0.1,0.1c-0.4-0.5-0.6-0.6-1.1-0.6l0,0c-0.6-0.8-0.8-0.8-1.8-0.4c-5.2-3.1-11.5-5.5-17.1-9.1c-1.3-0.9-3.4-3.3-5-3.2
		c-1.7-2.3-5.1-3.7-7-6.5c-1,0-1-1.3-1.7-1.3c-5-5.7-9.8-11.6-12.4-18.7c-0.9-2.3-1.1-5.5-2-8c0.6-0.6,0.1-1.5,0.1-2.9
		c0.5-4.8,2.4-9.4,5.4-13.3c-6.5,33.4,50.6,64.1,77.4,58.3c3.1,0,6.5-1.4,9.6-2.2c3.6-1.7,6.6-3.8,9.3-6.4c0.3,1.1-0.6,1.7-1,2.3
		L377.2,241.7z"/>
	<path class="st13" d="M361.3,240.1c15.9-8.3,7.9-27.2-1.7-36.2c-4.2-5.5-10.8-8.7-16.1-12.9c-13.3-6.4-26.5-10.7-40.9-7.9
		c-3.6,1.1-7,3.2-10.1,5.5c-1.4,1.3-1.4,2.9-3.2,4.1c1.3-8.5,9.8-12.5,17.9-13.9c22.3-2.7,45.1,10.5,57.5,24.1
		C378.1,218.3,377.2,235.5,361.3,240.1z"/>
	<path class="st13" d="M360.8,240.4c-0.1-0.1,0-0.4,0.1-0.6c0.3-0.3,0.4,0,0.6,0.1L360.8,240.4z"/>
	<path class="st11" d="M346,207.9c1.1,7.7,0.5,16.1,1.3,24.2c-9.4-7-18.9-14.9-28.2-22.7c4.8,0.1,11.2,2.6,16.3,4
		C338.8,211.8,342.3,209.8,346,207.9z"/>
	<path class="st14" d="M346,207.9c-3.4,1.9-6.9,3.4-10.7,5.7c-5.1-1.4-11.1-3.7-16.3-4c-0.1-0.4-1,0-0.8-0.8
		c1.7-1.4,3.6-2.8,5.5-4.2c1.4-1.3,2.9-2.4,4.3-3.2C333.7,203.8,340.6,205.2,346,207.9z"/>
	<path class="st11" d="M338.9,203.3l-12.6-4.3c-2.3,1.5-4.7,3.8-7.4,5.6l0.9-16.1C326.3,193.6,333,198.1,338.9,203.3z"/>
</g>
<g>
	<g>
		<defs>
			<path id="SVGID_1_" d="M183.6,272.7c-0.9-1.6-1.6-3-2.4-4.5c-3.8,1.1-2.5,4.4-2.9,6.9c-8.5,0.8-16.3,3.1-22.1,9.9
				c-1.4-1.2-1.6-3.1-2.7-4.4c-1.6,1-2.8,2.5-3.4,4.3c-0.8,2.5-2.4,3.3-4.8,2.9c-0.6-0.1-1.3-0.1-1.9,0c-4.1,1-6.5-1.6-8.8-4.3
				c-0.7-0.8-0.7-1.7-0.7-2.7c0-1.2,0.2-2.3-0.3-3.5c-1.7-4.4-1.7-4.5-6.6-4.5c-1.9,0-3.7,0-4.9-1.8c-1.1-1.6-2.8-1-4.3-0.8
				c-2.8,0.3-4.5-0.7-6.1-3c-2-2.8-3-5.7-2.7-9.2c0.1-1.7,0.4-2.9,2.1-3.5c2.5-0.7,3.1-2.4,3-4.8c-0.2-4.7-0.2-9.3,0-14
				c0.1-2-0.6-3-2.5-3.8c-3.5-1.6-3.6-2.3-1.1-5.2c1.4-1.6,1.3-5.5-0.2-7.1c-2.1-2.3-2-8.1,0.3-10.2c2.5-2.2,4.2-4.6,3.4-8
				c1.6-0.8,2.7-0.3,3.6,0.7c1,1.1,2,1.3,3.3,0.4c1.3-0.9,3.6-0.9,3.1-3.4c-1.1-6.2,2.7-9.3,7.5-11.8c1.8-1,3.1-2,2.7-4.3
				c-0.3-1.5,0.5-2.5,1.5-3.5c3-3,6.8-5.8,7.8-10.1c0.9-3.9,3.1-6.9,5.2-10.1c0.5-0.9,0.4-1.9,0.6-3c2.2-0.6,4.6,0,6.9-0.4
				c0.7-1.5,0.5-2.7-0.7-3.6c-1.2-0.9-1.5-2.1-1.5-3.6c0.1-2.1,0-4.1,0-6.2c0-2.2,0.5-4.5-1.8-6c-0.9-0.6-0.2-1.9-0.9-3.1
				c-3.6,1.3-6.1-2-9.7-2.7c0.6-3.1-0.6-5.5-2.7-7.8c-1.7-2-2.6-4.7-2.2-7.5c0.2-1.9,0.2-3.9,0-5.9c-0.2-2.3,0.3-4.2,2.1-5.5
				c-2.4-4.8-5.9-9.1-4.5-14.8c-1.6-0.8-2.9-0.2-4.3-0.6c3.1-3.6,1.3-7.9,1.6-11.8c0-0.2,0-0.5-0.2-0.5c-2.7-1.7-2.3-4.6-2.3-6.9
				c-7-2.2-13.1-5.9-19.7-8.3c0,0-0.2-0.2-0.2-0.3c0.5-3.3-0.9-5.2-3.9-6.2c-1.2-0.4-2.3-1.1-3.3-1.7c-1.2-0.7-2.7-0.9-2.8-3.1
				c-0.1-3,0.9-5.5,2.7-7.6c0.5-0.6,1.8-0.5,2.7,0.1c0.5,0.4,0.7,0.9,1.2,1.1c4.6,1.6,6.1,5.6,7.6,9.5c0.5,1.3,1.4,1.6,2.6,1.4
				c1.9-0.2,3.7,0.1,5,1.7c1,1.2,7.7,0.9,9-0.1c3.3-2.7,3.7-2.6,5.7,1.1c0.4,0.6,0.5,1.4,1.4,1.7c2.3-0.7,4.3-2.5,6.9-2.3
				c0.5-3.7,1.9-6.9,4.6-9.2c0.8-0.8,0.8-1.7,0.7-2.7c-0.2-3.3,0.2-6.3,1.9-9.3c1.5-2.6,0.5-5.7,0.6-8.5c0.1-3.8,1.1-4.9,4.9-4.8
				c3.5,0.1,6-1.9,8.6-3.8c1-0.7,1.8-1.8,3.4-0.8c-0.6,1.5-1.3,2.9-2,4.6c2.8,1,5.6,2.2,8.5,2.4c1.5,0.1,6,3.9,6.3,5.3
				c0.2,1.1,0.1,2.2-0.9,2.9c-1.6,1.2-1.7,2.7-1.6,4.6c0.1,2.4,0.1,4.8,0,7.2c-0.1,1.4,0.2,2.5,2.2,2.6c-2.6,2.1-2.2,5.4-4.4,7.5
				c-0.7,0.7-0.4,2.4,0.7,3.4c1.6,1.5,3.2,3.1,4.8,4.7c1,0.9,2,1.7,1.7,3.4c-0.2,1.2,0.9,1.4,1.7,1.7c1.6,0.8,3.2,1.9,4.8,3
				c3.7,2.6,3.7,6.2,3.5,10c0,0.5,0,1.1-0.5,1.5c-2.5,1.6-2.1,4.1-2,6.6c0.1,4-0.5,8,1.8,11.7c1.3,1.9,3.7,3.3,3.6,6
				c0,0.3,1,0.6,1.6,0.9c1,0.5,2.5,0.7,3.1,1.6c3.8,4.8,7.3,9.7,7.5,16.2c0,0.7-0.2,1.5-0.8,1.9c-1.7,1.3-1.7,2.7-0.5,4.3
				c1.1,1.6,1.4,3-0.4,4.4c-1.1,0.9-1.4,2.6-0.4,3.4c2.7,2,2.2,4.8,2.1,7.3c-0.1,2.2,0.6,3.6,2.3,4.8c1.2,0.2,1.5-1.3,2.7-1.5
				c-0.3,1.7,1.2,2.6,2.2,3.7c-1.1,1.5-3,1.6-4.5,3c3.4,1.2,6.2,2.8,4.8,6.9c1.6,1,3.1,0.2,4.6,0.7c0,1.6,0.8,2.8,2.1,3.9
				c1.7,1.6,1.2,3.8,0.6,5.5c-0.5,1.4-1.8,2.9-3.9,2.7c-0.9-0.1-1.9,0-3.2,0c1.4,2.5,1.3,5.6,4.9,5.4c0.2,0,0.5,0.3,0.6,0.5
				c4.2,5.2,10.4,6.4,16.3,8c4.4,1.2,6,4.5,7.7,8c0.5,1.2-1.6,5.2-3.4,5.9c-4.1,1.6-5.9,4.8-6.4,9.1c-0.2,1.7-1.8,2.6-3,3.7
				c-1.4,1.2-2.3,2.5-1.9,4.4c0.5,2.2-0.9,3.5-2.5,4.9c0.7,0.9,1.5,1.7,2.2,2.6c-2.4,2.8-3.2,3-5.1,1.2c-0.6,1.9-1.2,3.8-1.9,5.6
				c-1.2,3-2.9,5.7-5,8.1c-4.4,5.1-8.8,10.5-11.1,16.9c-2.2,6.2-9.1,6.9-14.4,2.9C192.7,268.8,186.7,268.8,183.6,272.7z"/>
		</defs>
		<clipPath id="SVGID_2_">
			<use xlink:href="#SVGID_1_"  style="overflow:visible;"/>
		</clipPath>
		<g class="st15">
			<rect x="42.9" y="9.2" class="st16" width="229.3" height="290.2"/>
			<g>
				<rect x="155.2" y="0.1" class="st17" width="31.4" height="335.7"/>
				<rect x="18.8" y="210.3" class="st17" width="335.7" height="31.4"/>
			</g>
		</g>
	</g>
	<g>
		<path class="st18" d="M183.6,272.7c-0.9-1.6-1.6-3-2.4-4.5c-3.8,1.1-2.5,4.4-2.9,6.9c-8.5,0.8-16.3,3.1-22.1,9.9
			c-1.4-1.2-1.6-3.1-2.7-4.4c-1.6,1-2.8,2.5-3.4,4.3c-0.8,2.5-2.4,3.3-4.8,2.9c-0.6-0.1-1.3-0.1-1.9,0c-4.1,1-6.5-1.6-8.8-4.3
			c-0.7-0.8-0.7-1.7-0.7-2.7c0-1.2,0.2-2.3-0.3-3.5c-1.7-4.4-1.7-4.5-6.6-4.5c-1.9,0-3.7,0-4.9-1.8c-1.1-1.6-2.8-1-4.3-0.8
			c-2.8,0.3-4.5-0.7-6.1-3c-2-2.8-3-5.7-2.7-9.2c0.1-1.7,0.4-2.9,2.1-3.5c2.5-0.7,3.1-2.4,3-4.8c-0.2-4.7-0.2-9.3,0-14
			c0.1-2-0.6-3-2.5-3.8c-3.5-1.6-3.6-2.3-1.1-5.2c1.4-1.6,1.3-5.5-0.2-7.1c-2.1-2.3-2-8.1,0.3-10.2c2.5-2.2,4.2-4.6,3.4-8
			c1.6-0.8,2.7-0.3,3.6,0.7c1,1.1,2,1.3,3.3,0.4c1.3-0.9,3.6-0.9,3.1-3.4c-1.1-6.2,2.7-9.3,7.5-11.8c1.8-1,3.1-2,2.7-4.3
			c-0.3-1.5,0.5-2.5,1.5-3.5c3-3,6.8-5.8,7.8-10.1c0.9-3.9,3.1-6.9,5.2-10.1c0.5-0.9,0.4-1.9,0.6-3c2.2-0.6,4.6,0,6.9-0.4
			c0.7-1.5,0.5-2.7-0.7-3.6c-1.2-0.9-1.5-2.1-1.5-3.6c0.1-2.1,0-4.1,0-6.2c0-2.2,0.5-4.5-1.8-6c-0.9-0.6-0.2-1.9-0.9-3.1
			c-3.6,1.3-6.1-2-9.7-2.7c0.6-3.1-0.6-5.5-2.7-7.8c-1.7-2-2.6-4.7-2.2-7.5c0.2-1.9,0.2-3.9,0-5.9c-0.2-2.3,0.3-4.2,2.1-5.5
			c-2.4-4.8-5.9-9.1-4.5-14.8c-1.6-0.8-2.9-0.2-4.3-0.6c3.1-3.6,1.3-7.9,1.6-11.8c0-0.2,0-0.5-0.2-0.5c-2.7-1.7-2.3-4.6-2.3-6.9
			c-7-2.2-13.1-5.9-19.7-8.3c0,0-0.2-0.2-0.2-0.3c0.5-3.3-0.9-5.2-3.9-6.2c-1.2-0.4-2.3-1.1-3.3-1.7c-1.2-0.7-2.7-0.9-2.8-3.1
			c-0.1-3,0.9-5.5,2.7-7.6c0.5-0.6,1.8-0.5,2.7,0.1c0.5,0.4,0.7,0.9,1.2,1.1c4.6,1.6,6.1,5.6,7.6,9.5c0.5,1.3,1.4,1.6,2.6,1.4
			c1.9-0.2,3.7,0.1,5,1.7c1,1.2,7.7,0.9,9-0.1c3.3-2.7,3.7-2.6,5.7,1.1c0.4,0.6,0.5,1.4,1.4,1.7c2.3-0.7,4.3-2.5,6.9-2.3
			c0.5-3.7,1.9-6.9,4.6-9.2c0.8-0.8,0.8-1.7,0.7-2.7c-0.2-3.3,0.2-6.3,1.9-9.3c1.5-2.6,0.5-5.7,0.6-8.5c0.1-3.8,1.1-4.9,4.9-4.8
			c3.5,0.1,6-1.9,8.6-3.8c1-0.7,1.8-1.8,3.4-0.8c-0.6,1.5-1.3,2.9-2,4.6c2.8,1,5.6,2.2,8.5,2.4c1.5,0.1,6,3.9,6.3,5.3
			c0.2,1.1,0.1,2.2-0.9,2.9c-1.6,1.2-1.7,2.7-1.6,4.6c0.1,2.4,0.1,4.8,0,7.2c-0.1,1.4,0.2,2.5,2.2,2.6c-2.6,2.1-2.2,5.4-4.4,7.5
			c-0.7,0.7-0.4,2.4,0.7,3.4c1.6,1.5,3.2,3.1,4.8,4.7c1,0.9,2,1.7,1.7,3.4c-0.2,1.2,0.9,1.4,1.7,1.7c1.6,0.8,3.2,1.9,4.8,3
			c3.7,2.6,3.7,6.2,3.5,10c0,0.5,0,1.1-0.5,1.5c-2.5,1.6-2.1,4.1-2,6.6c0.1,4-0.5,8,1.8,11.7c1.3,1.9,3.7,3.3,3.6,6
			c0,0.3,1,0.6,1.6,0.9c1,0.5,2.5,0.7,3.1,1.6c3.8,4.8,7.3,9.7,7.5,16.2c0,0.7-0.2,1.5-0.8,1.9c-1.7,1.3-1.7,2.7-0.5,4.3
			c1.1,1.6,1.4,3-0.4,4.4c-1.1,0.9-1.4,2.6-0.4,3.4c2.7,2,2.2,4.8,2.1,7.3c-0.1,2.2,0.6,3.6,2.3,4.8c1.2,0.2,1.5-1.3,2.7-1.5
			c-0.3,1.7,1.2,2.6,2.2,3.7c-1.1,1.5-3,1.6-4.5,3c3.4,1.2,6.2,2.8,4.8,6.9c1.6,1,3.1,0.2,4.6,0.7c0,1.6,0.8,2.8,2.1,3.9
			c1.7,1.6,1.2,3.8,0.6,5.5c-0.5,1.4-1.8,2.9-3.9,2.7c-0.9-0.1-1.9,0-3.2,0c1.4,2.5,1.3,5.6,4.9,5.4c0.2,0,0.5,0.3,0.6,0.5
			c4.2,5.2,10.4,6.4,16.3,8c4.4,1.2,6,4.5,7.7,8c0.5,1.2-1.6,5.2-3.4,5.9c-4.1,1.6-5.9,4.8-6.4,9.1c-0.2,1.7-1.8,2.6-3,3.7
			c-1.4,1.2-2.3,2.5-1.9,4.4c0.5,2.2-0.9,3.5-2.5,4.9c0.7,0.9,1.5,1.7,2.2,2.6c-2.4,2.8-3.2,3-5.1,1.2c-0.6,1.9-1.2,3.8-1.9,5.6
			c-1.2,3-2.9,5.7-5,8.1c-4.4,5.1-8.8,10.5-11.1,16.9c-2.2,6.2-9.1,6.9-14.4,2.9C192.7,268.8,186.7,268.8,183.6,272.7z"/>
	</g>
</g>
</svg>
