<?xml version="1.0" encoding="utf-8"?>
<!-- Generator: Adobe Illustrator 24.3.0, SVG Export Plug-In . SVG Version: 6.00 Build 0)  -->
<svg version="1.1" id="Layer_1" xmlns="http://www.w3.org/2000/svg" xmlns:xlink="http://www.w3.org/1999/xlink" x="0px" y="0px"
	 viewBox="0 0 400 300" style="enable-background:new 0 0 400 300;" xml:space="preserve">
<style type="text/css">
	.st0{clip-path:url(#SVGID_2_);}
	.st1{fill:#2A3587;}
	.st2{fill:#FFFFFF;}
	.st3{fill:#CF2228;}
	.st4{fill:none;stroke:#000000;stroke-miterlimit:10;}
	.st5{fill:#F3F2EF;}
	.st6{fill:#C98017;}
	.st7{fill:#FBED60;}
	.st8{fill:#FABA31;}
	.st9{fill:#68C2EE;}
	.st10{fill:#0491BE;}
	.st11{fill:#68C2EF;}
	.st12{fill:#31798F;}
	.st13{fill:#C1BDBE;}
	.st14{fill:#6E6E6E;}
	.st15{fill:#6C6C6C;}
	.st16{fill:#BCBCBC;}
	.st17{fill:#E1E1E1;}
	.st18{fill:#0A0A09;}
</style>
<g>
	<g>
		<defs>
			<path id="SVGID_1_" d="M214.7,289.1c-0.9,0.1-1.8,0.1-2.3-0.8c-0.9-1.3-2.2-0.9-3.4-0.7c-0.9,0.1-1.8,0.5-2.3,1.5
				c-0.1,0.3-0.5,0.4-0.9,0.6c-0.4,0.2-0.9,0.3-1.3,0.3c-1,0.1-1.8,0.4-1.6,1.6c0,0.4-0.4,0.6-0.8,0.5c-1.3-0.5-1.3-0.5-2.2,0.5
				c0,0.1-0.1,0.1-0.2,0.2c-0.3-0.2-0.5-0.4-0.8-0.7c-1.4-1.5-3.3-2.4-5.3-3c-1.4-0.4-2.9,0-3.8,1.1c-0.3,0.4-0.6,0.7-0.9,1.1
				c-0.6,0.7-1.5,0.8-2.1,0.2c-0.1-0.1-0.2-0.2-0.3-0.3c-0.7-0.5-1.1-1.1-1-2c0.1-0.6-0.2-1-0.9-1.1c-0.4-0.1-0.8-0.3-1.3-0.3
				c-1.2-0.1-2-0.9-2.7-1.8c-0.3-0.4-0.4-1-0.5-1.5c-0.3-1.9-0.3-1.9-2.3-2.2c-0.7-0.1-1.4-0.2-2.1-0.3c-0.4,0-0.9,0-1.3,0.1
				c-0.4,0.1-0.8,0.3-1.2,0.5c-0.5-0.9-1-1.7-1.6-2.5c-0.2-0.2-0.6-0.4-0.9-0.4c-1.2,0-2.5,0.1-3.7,0.2c-0.3,0-0.7-0.2-0.8-0.4
				c-0.8-1.5-2-2.2-3.7-2.2c-1.7,0-3.4-0.6-4.9-1.6c-0.6-0.4-1.5-0.6-2.4-0.9c0,1.1-0.1,2-0.1,2.9c0,0.9-0.1,1.8-0.2,2.8
				c-2.6-0.4-5.1-0.1-7.7-0.8c-0.2,0.3-0.5,0.7-0.7,1.1c-1.4-0.1-2.5-0.6-3.2-1.8c-0.3-0.4-0.6-0.5-1.1-0.3
				c-0.8,0.4-1.6,0.7-2.5,1.1c-1.5,0.6-2.9,0.2-3.8-1.2c0-0.1-0.1-0.2-0.1-0.3c0-0.9-0.5-1.4-1.2-1.8c-0.9-0.6-1.7-1.1-2.6-1.7
				c-0.4-0.3-0.7-0.3-1.1,0c-0.7,0.5-1.5,0.9-2.3,1.3c-0.2,0.1-0.4,0.2-0.5,0.1c-0.7-0.7-1.4-0.3-2,0.1c-0.6,0.4-0.9,0.2-1.4-0.3
				c-0.8-0.9-1.8-1.6-2.7-2.3c-0.5-0.4-0.7-0.8-0.7-1.4c0-0.5-0.1-0.9-0.2-1.5c-1,0-2-0.1-2.9,0c-0.9,0.1-1.7-0.1-2.4-0.7
				c-1-0.8-2.1-1.1-3.3-1.2c-0.6,0-1-0.3-1.3-0.8c-0.2-0.4-0.5-0.6-1-0.6c-1.8,0-2.1-0.3-2.1-2.1c0-0.1,0-0.2,0-0.3
				c-1,0.6-1.2,1.5-1.3,2.6c-0.9-0.2-1.8-0.4-2.4-1.2c-0.5-0.7-0.4-1.3,0.3-1.6c0.8-0.3,1.2-0.8,1-1.7c-0.1-0.6,0-1.1,0.5-1.5
				c0.4-0.3,0.1-1.5-0.3-1.6c-1.1-0.4-2.1-0.7-3.3-1.1c-0.2,0.7-0.6,1-1.4,0.9c-0.4-0.1-0.6-0.2-0.6-0.6c0.1-0.8-0.3-1-1-1
				c-0.7,0-1.2-0.1-1.8-0.6c-0.5-0.5-0.7-1-0.6-1.7c1-0.3,1.9-0.6,2.9-1c0.2-0.1,0.4-0.2,0.6-0.3c0.9-1.1,1.9-2.3,2.7-3.5
				c1.7-2.4,2.4-5.1,3-8c0.7-3.2,1.6-6.3,2.4-9.5c0.9-3.9,1.6-7.8,2.4-11.8c0.2-0.9,0.1-1.9,0.2-2.9c0-0.4,0.2-0.9,0.4-1.2
				c0.6-0.7,1-1.5,1.1-2.5c0-0.2,0.4-0.5,0.7-0.6c0.1-0.1,0.4,0.1,0.6,0.2c0.2,0.1,0.4,0.3,0.6,0.3c0.8,0,1.5-0.1,2.3-0.1
				c-0.6-1.6-1.8-2.6-3-3.6c-1,1.1-1.9,2.2-2.1,3.8c-0.1,0-0.1,0-0.2-0.1c0.2-1.4,0.4-2.9,0.6-4.3c0.7-4.6,1.4-9.2,2-13.8
				c0.3-2.7,0.4-5.4,0.5-8.2c0-0.6,0.2-1.2,0.6-1.7c0.3-0.4,0.6-0.8,0.8-1.3c0.3-0.7,0.8-0.7,1.5-0.4c0,0.2,0,0.4,0,0.6
				c-0.3,1.1,0.1,1.9,1,2.7c1.5,1.2,2.8,2.5,4.2,3.7c0.2,0.2,0.5,0.6,0.5,0.9c0.6,2.5,1.3,5.1,1.9,7.7c0,0.2,0.1,0.3,0.2,0.5
				c0.7-0.5,0.5-1.2,0.5-1.9c0-2.4-1-4.7-1.3-7.1c-0.3-2.1-1.1-3.7-2.8-5c-0.5-0.4-0.8-0.9-1.3-1.2c-0.7-0.4-1.7-0.5-1.7-1.6
				c0-0.1-0.3-0.2-0.4-0.3c-0.7-0.5-1.4-0.9-2.1-1.4c-1.2-0.9-1.2-0.9-2.6-1c-0.3-1.9-0.6-3.8-0.8-5.7c-0.1-0.8-0.3-1.6-1.1-1.9
				c-1.4-0.6-1.9-1.7-1.5-3.2c0.1-0.5,0.1-1,0.2-1.7c0.3,0.4,0.5,0.6,0.7,0.8c0.5,0.7,1.1,1.1,2,1.1c0.6,0,0.8,0.2,0.8,0.8
				c0,0.4,0,0.9,0.1,1.3c0.1,0.3,0.2,0.7,0.4,1c0.3,0.5,0.6,0.9,0.1,1.4c-0.2,0.2-0.3,0.3-0.4,0.5c-0.1,0.3-0.1,0.7,0,1
				c0,0.1,0.4,0.2,0.7,0.2c0.3,0,0.6,0,0.8,0c-0.1-0.7-0.2-1.4-0.3-2.1c1.4,0,1.3,0,1.7-1.4c0.2-0.8,0.2-1.4-0.4-2
				c-0.2-0.2-0.3-0.7-0.2-0.8c0.2-0.2,0.6-0.2,0.9-0.3c0.2,0,0.4,0,0.6,0.1c0.4-0.9,0.3-1.1-0.4-1.6c-0.3-0.2-0.5-0.5-0.6-0.9
				c-0.2-0.7-0.6-1-1.2-1c-0.4,0-0.7-0.2-0.9-0.7c-0.1-0.2-0.5-0.5-0.7-0.5c-1.2,0.2-2.2-0.1-3.1-1c-0.7-0.7-1.6-1.2-2.7-1
				c-0.2,0-0.4-0.1-0.5-0.3c-0.3-0.4-0.6-0.9-0.9-1.3c1.1-0.8,1.7-0.8,2.7-0.1c0.2,0.2,0.4,0.5,0.5,0.8c0.1,0.4,0.3,0.6,0.7,0.6
				c0.3,0,0.7,0,1,0.1c0.4,0.1,0.9,0.3,1.1,0.6c0.6,0.7,1.2,0.4,1.9,0.3c0.6,0,0.4-0.6,0.5-0.9c0.1-0.2,0.2-0.4,0.4-0.6
				c0.4-0.4,0.9-0.8,1.5-1.2c-0.5-0.5-1-0.9-1.5-1.4c-0.1,0.6-0.1,1-0.2,1.5c-1.1-0.6-2.4-0.8-2.9-2c-0.3-0.7-0.8-1-1.6-0.8
				c-1.1,0.2-1.8-0.2-2-1.3c-0.2-0.8-0.7-1.1-1.5-0.9c-1.1,0.2-1.9-0.2-2.6-1c-0.7-0.9-1.7-1.5-2.8-2c-0.3-0.2-0.7-0.6-0.8-0.9
				c-0.6-1.6-1.1-3.2-1.6-4.8c-0.2-0.6-0.4-1.1-1.3-0.9c0.4-0.9-0.2-1.3-0.7-1.8c-0.8-0.7-1.6-1.5-2.3-2.2c-0.2-0.2-0.2-0.5-0.3-0.8
				c0,0,0-0.1,0-0.1c-0.2-1.5,0.4-2.7,1.4-3.8c0.7-0.8,1.3-1.7,1.9-2.5c-0.9-1-1.7-1.9-2.6-2.8c-0.1-0.1-0.4-0.1-0.7-0.1
				c-0.6,0.1-1.2,0.2-1.9,0.3c-0.1-0.5-0.1-1-0.2-1.5c1,0.2,1.7-0.3,2.2-1c0.1-0.2,0.1-0.5,0.1-0.7c0-0.1-0.1-0.2-0.1-0.3
				c-0.4-1.1-0.3-1.4,0.7-1.9c0.3-0.1,0.5-0.3,0.8-0.5c-0.9-0.2-1.8-0.3-2.3,0.6c-0.6,1.1-1.6,0.9-2.6,0.8c-0.2,0-0.4-0.3-0.6-0.5
				c-0.3-0.3-0.5-0.6-0.8-1c-0.1,0.3-0.2,0.5-0.4,0.9c-1-0.3-2.1-0.6-3.3-1c0.8-1.1,1.8-1.9,0.3-3c0.7-0.7,1.4-1.3,2.1-1.9
				c-1-1-1-1.3-0.1-2.4c-0.8-0.1-1.5-0.3-2.2-0.2c-1.6,0.1-3.3,0.3-4.9,0.4c-0.2,0-0.6-0.1-0.7-0.2c-0.5-0.8-1-1.6-2-1.6
				C80,118,80,118,81,118.5c0.7,0.3,1.4,0.6,2.3,0.9c0.2-0.4,0.5-0.9,0.4-1.1c-0.5-0.9-1.2-1.6-2.4-1.5c0,0.2,0.1,0.4,0.1,0.6
				c-1.2,0.7-1.8-0.1-2.4-1c0.3,0.8,0.6,1.5-0.4,2.2c-0.5-0.5-1.1-1.1-1.7-1.7c-0.1,0.3-0.2,0.6-0.4,1c-0.4-0.1-0.8-0.1-1.3-0.2
				c0.1,0.9-0.3,1.9,0.4,2.7c0.1,0.1-0.2,0.6-0.3,1c-1.5-0.9-1.5-0.9-1.2-2.3c0.3-1.4,0-2.5-1.1-3.4c-0.9-0.8-1.8-1.5-2.8-2.3
				c0,0.1-0.1,0.1-0.1,0.2c0.1-0.3,0.1-0.6,0.2-1.1c-0.3,0.4-0.5,0.6-0.6,0.8c-1.3,0.1-2.1-0.6-2.6-1.7c-0.2-0.6-0.7-0.8-1.3-0.8
				c-0.3,0-0.5,0-0.8,0c-1-0.2-2-0.1-2.4-1.1c-0.4,0.1-0.7,0.3-1,0.3c-0.9-0.2-2.1,0.4-2.8-0.8c-0.5-0.9-1.2-1.7-1.3-2.8
				c0-0.1-0.1-0.3-0.2-0.4c0,0.5,0,1-0.1,1.4c-0.6,0.3-1.1,0.3-1.7-0.1c-0.6-0.4-1.3-0.8-2.1-0.6c-0.3,0-0.6-0.2-1.1-0.3
				c0.2,0.3,0.4,0.5,0.5,0.8c0.1,0.3,0.2,0.6,0.2,0.9c-0.1,0.4-0.4,0.7-0.9,0.7c-1.4,0-2.8,0.1-4.1-0.4c0-0.1,0-0.1,0-0.1
				c1-1.3,0.4-2.7,0.1-4.1c0-0.3-0.3-0.5-0.5-0.7c-0.5-0.6-1-1.1-1.5-1.7c-0.3-0.4-0.7-0.6-1.2-0.4c-0.5,0.1-0.9-0.1-1.2-0.4
				c-0.3-0.2-0.7-0.3-1-0.4c-0.6-0.1-1.1-0.2-1.8-0.4c0.4-0.9,0.8-1.2,1.6-1.2c1.4,0,2.9-0.3,4.3-0.4c0.9-0.1,1.7-0.2,2.6-0.1
				c0.8,0.1,1.3-0.1,1.6-0.9c0.4-0.9-0.2-2.1-1.1-2.4c-0.4-0.1-0.7-0.3-1-0.5c-0.5-0.3-1-0.6-1.6-0.9c-0.5,0.7-1,1.4-1.5,2.1
				c-0.1,0-0.1,0-0.2-0.1c0-0.7,0-1.3,0-2c0.1-0.6-0.1-0.9-0.7-1c-0.4-0.1-0.7-0.2-1.2-0.4c0.5-0.6,1-1.1,1.4-1.6
				c1.2,0.5,2.4,1,3.6,1.4c1.2,0.3,2.5,0.4,3.8,0.6c0.1-0.4,0.1-0.6,0.1-0.9c-0.8,0-1.6-0.1-2.4-0.1c0.1-0.5,0.2-1,0.4-1.6
				c-0.8,0.3-1.5,0.6-2.1,0.9c-0.4-0.7-0.2-1.1,0.3-1.6c0.5-0.4,0.8-0.8,1.4-1.4c-1.3,0.5-2,1.7-3.3,1.7c-1.2,0-2.4,0.6-3.7,0.2
				c-0.5,0.8-1.4,0.3-2.3,0.3c0.1-0.5,0.2-1,0.3-1.4c0.1-0.6,0.2-1.1-0.2-1.7c-0.1-0.1,0-0.5,0.2-0.6c0.4-0.4,0.9-0.7,1.4-1.2
				c-0.5-0.4-0.9-0.7-1.4-1.1c0.7-0.6,1.3-1.4,2-1.7c0.8-0.3,1.7-0.1,2.6-0.2c0.1-0.4,0-0.8,0.2-1c0.3-0.3,0.9-0.7,1-0.6
				c0.8,0.6,1.6,0.2,2.4,0.3c0-0.7,0.4-0.9,1-0.9c0.5,0,1-0.1,1.5-0.2c0.1,0.4,0.2,0.7,0.3,1.1c1,0.2,1.4-0.1,1.8-0.9
				c0.1-0.1,0.2-0.3,0.2-0.3c0.9-0.1,1.8-0.3,2.6-0.1c0.9,0.3,1.4,0.2,1.9-0.5c0.1-0.1,0.2-0.2,0.3-0.4c0.1,0.9,0.2,1.6,0.3,2.5
				c0.4,0,0.8-0.1,1.2-0.1c0,0,0.1,0.1,0.1,0.1c0.2,0.4,0.1,1,0.8,0.9c0.7-0.1,0.4-0.7,0.4-1c0.1-1.3-0.2-1.1,1.3-1.3
				c1.4-0.1,2.6,0.2,3.7,1.1c0.6-0.8,1.1-1.4,1.6-2.2c-0.3-0.4-0.5-0.8-0.8-1.2c0.7-0.5,1.3-0.9,2-1.3c0.1-0.1,0.5,0,0.6,0.1
				c0.5,0.3,0.9,0.7,1.5,1.1c0.3-0.8,0.9-0.9,1.6-0.9c0.9-0.1,1.8-0.2,2.5-0.9c0.2,0.5,0.4,0.9,0.7,1.5c0.4-1.8,1.6-0.8,2.5-1.1
				c0,0.4,0,0.8-0.1,1.2c0.4,0.1,0.7,0.2,1.1,0.2c0,0.1,0,0.3,0,0.4c0,1.2,0,1.2,1.1,1.6c0.2,0.1,0.4,0.4,0.4,0.5
				C81.4,81,82,81.7,83,82.2c0.7,0.4,0.8,0.9,0.6,1.6c-0.2,0.7-0.1,1.2,0.7,1.4c1.2,0.3,1.8,1,1.5,2.3c0,0.1,0,0.2,0,0.3
				c0.3,0,0.5,0,0.9,0c-0.3-1.2,0.6-1.4,1.3-1.8c0.7-0.4,1.3-0.7,2-1.1c0.6-0.3,1-0.6,1.2-1.2c0.1-0.4,0.4-0.6,0.8-0.5
				c1,0.3,1.9,0.3,2.7-0.8c0,0.9,0,1.5,0,2.2c0.6-0.3,1-1.2,1.6-0.5c0.3,0.4,0.4,1,0.7,1.6c0.2,0,0.7,0.1,1-0.1
				c0.3-0.2,0.3-0.7,0.5-1.1c0.1,0,0.2,0,0.3,0c1.2,0.4,2.2,0.1,2.8-1.1c0.4-0.6,0.9-0.8,1.6-0.7c0.5,0.1,1,0,1.6,0
				c-0.5,0.7-0.9,1.2-1.3,1.8c1,0.6,1.9,1.4,3.2,1.3c2-0.1,3.9,0,5.9,0c0.4,0,0.8-0.1,1.2-0.3c0.3-0.1,0.7-0.1,0.6-0.7
				c-0.1-0.5-0.1-0.9-0.8-0.9c-1.5,0-2.1-1-2.7-2.3c-0.6-1.5-0.6-2.7,0.2-4.1c0.9-1.6,0.9-3.4,0-4.9c-0.9-1.6-0.8-3.2-0.9-4.9
				c0-0.5-0.3-1-0.4-1.5c-0.2-0.6-0.4-1.2-0.5-1.8c-0.1-0.6-0.4-1.2-0.8-1.6c-0.9-1-2-1.9-2.4-3.2c-0.1-0.5-0.3-1-0.2-1.5
				c0.1-1.3,0.1-1.3-0.7-2.2c1.1-0.7,0.8-1.9,0.9-2.9c0-0.5-0.2-0.8-0.5-1c-0.6-0.5-1.2-1-1.8-1.4c0.3-1.1,0.3-1.1,1.3-0.8
				c2,0.5,4,1.2,5.6,2.6c0.3,0.3,0.6,0.2,0.9,0c1.4-1.3,3-1.6,4.8-1.4c2,0.3,2.1,0.1,2.8,2.1c0.1,0.3,0.2,0.6,0.3,0.9
				c-0.1,0.1-0.1,0.1-0.1,0.1c-0.8-0.1-1.1,0.3-1.4,1c-0.5,1-0.3,1.6,0.4,2.3c1.3,1.4,2.7,2.8,2,5.1c1.4-0.3,2.6-0.6,3.7-0.9
				c0.6-0.2,1.1-0.2,1.6,0.2c1.7,1.1,3.6,1,5.5,1.3c1.4,0.3,2.9,0.3,4.4,0.7c1,0.2,2,0.7,2.8,1.3c1.2,0.8,2.2,0.8,3.5,0.2
				c1.9-0.8,3.8-1.5,5.5-2.7c1.2-0.8,2.5-1.3,4-1.4c0.2,0,0.5-0.1,0.7-0.3c-0.8-0.2-1.6-0.2-2.3-0.5c-1-0.4-1.8-1.1-2.7-1.7
				c-0.1-0.1,0-0.3,0-0.5c0.2-1.6,0.7-3.1,1.6-4.5c1-1.5,2.2-2.6,3.8-3.5c3.9-2,8-3.3,12.3-4.3c1.2-0.3,2.4-0.6,3.6-0.9
				c0.3-0.1,0.6-0.2,0.9-0.4c1.4-1,2.7-2,4-3.1c0.5-0.4,0.9-0.9,1.3-1.4c1.1-1.4,2.3-2.8,3.4-4.2c1,0.6,1.9,1.1,3,1.7
				c0.2-0.7,0.1-1.2-0.4-1.6c-0.6-0.4-1.1-0.9-1.6-1.5c-0.2-0.2-0.4-0.5-0.3-0.8c0.6-5.9,0.2-11.8,0.3-17.7c0-0.7,0.2-1.2,0.8-1.6
				c1.1-0.7,2.1-1.5,3-2.4c0.8-0.8,1.8-1,2.9-1.2c3.2-0.5,6.4-1,9.6-1.7c1.2-0.2,2.2-0.9,3.3-1.3c0.3-0.1,0.6-0.3,1-0.5
				c0.6,1.4,1.1,2.8,1.7,4.2c0.1,0.2-0.1,0.6-0.2,0.8c-0.7,1.1-0.6,2.3,0,3.4c0.2,0.4,0.4,0.5,0.8,0.5c1.2,0,1.9,0.6,2.3,1.8
				c0.1,0.4,0.4,0.9,0.7,1.3c0.6,0.8,1.6,0.8,2.2,0c1.2-1.8,3.2-1.8,5.1-2.2c0.1,0.3,0.1,0.5,0.1,0.8c0,0.2,0,0.4,0.1,0.5
				c0.4,0.4,0.9,0.7,1.3,1.1c0.2,0.2,0.5,0.5,0.5,0.8c0.1,1.1,0.1,2.3,0.1,3.4c0,0.3,0.1,0.5,0.1,0.8c0.1,0.9,0.6,1.4,1.5,1.4
				c0.2,0,0.5,0.1,0.6,0.3c0.4,0.5,0.8,0.5,1.3,0.2c0.2-0.1,0.4-0.2,0.7-0.3c0.5-0.3,1-0.4,1.4,0.2c0.1,0.2,0.5,0.2,0.7,0.2
				c0.7-0.2,1,0.1,1.5,0.6c0.9,0.9,1.3,1.9,1.1,3.2c-0.1,0.7,0,1.4,0,2.1c0.6,0.2,0.9,0,1.1-0.5c0.2-0.5,0.5-0.6,1-0.6
				c1.5,0,3.1-0.1,4.6-0.3c0.6,0,1.1,0.1,1.6,0.5c0.8,0.7,1.7,1.3,2.4,1.9c0.3,0.3,0.6,0.7,0.9,1.1c-0.3,0.2-0.4,0.4-0.6,0.5
				c-0.8,0.4-1.3,1-1.1,2c0,0.3-0.2,0.6-0.4,1c0.4,0.1,0.8,0.3,1.2,0.3c0.5,0.1,0.8,0.3,0.9,0.9c0.2,1.4,0.2,1.4-1,2.2
				c-0.4,0.3-1.1,0.4-1,1.2c0.1,0.4,0.2,0.6,0.7,0.6c1,0,2.1,0,3.1,0c0.6,0,1.2,0.1,1.6,0.6c0.6,0.6,1.1,0.6,1.8,0.3
				c0.7-0.3,1.5-0.5,2.2-0.8c0.6-0.2,1.1-0.6,1.6-0.9c0.1-0.1,0.2-0.3,0.3-0.5c0-0.3,0-0.7,0-1c-0.1-0.7,0.2-1.2,0.7-1.7
				c0.4-0.4,0.8-1,1.1-1.5c0.3-0.4,1.2-0.6,1.9-0.4c0.6,0.2,0.4,0.7,0.5,1.1c0.2,1.1-0.4,1.7-1.2,2.2c0.1,0.2,0.2,0.3,0.3,0.4
				c0.4,0.3,0.4,0.6,0.2,0.9c0,0.1-0.1,0.1-0.1,0.2c-0.6,1.5-0.6,1.5,0.8,2.4c0.6,0.4,0.7,0.9,0.4,1.6c-0.2,0.5-0.1,1.1-0.1,1.6
				c0,1.2,0.1,1.2,1.3,1.4c0.9,0.1,1.9,0.2,2.7,0.6c0.4,0.1,0.7,0.7,1,1.2c0.2,0.4,0.4,0.8,1,0.8c0.6,0,1.3,0.2,1.9,0.2
				c0.9,0.1,1.4,0.5,1.6,1.4c0,0.2,0.1,0.4,0.1,0.6c0,0.7,0.3,1.1,1.1,1.1c0.7,0,1.3,0.7,1.5,1.4c0.1,0.4,0.1,0.8,0.2,1.2
				c0.1,0.5,0.6,0.7,0.9,0.3c0.5-0.5,1-0.6,1.6-0.6c0.6,0,1.1-0.1,1.4-0.6c0.5-0.6,1.1-0.6,1.9-0.7c1.1-0.1,1.9,0.2,2.4,1.1
				c0.6,0.8,1.3,1.3,2.4,1.1c0.2,0,0.5,0,0.6,0.2c0.6,0.8,1.5,0.5,2.2,0.5c0.2,0,0.3-0.2,0.5-0.4c0.7-0.7,1.3-1.5,2.5-1.3
				c0.4,0.1,0.9,0.2,1.1,0.4c0.8,0.7,1.5,1.2,2.6,0.6c0.3-0.1,0.7-0.1,1.1,0c0.8,0.3,1.6,0.7,2.3,1.1c0.8,0.5,1.4,1.2,1.2,2.2
				c0,0.2,0,0.4,0,0.7c-0.1,0.6,0.1,1,0.8,1.2c0.7,0.2,1,0.5,0.8,1.2c-0.1,0.4,0.1,0.6,0.5,0.9c0.4,0.2,0.6,0.8,0.8,1.2
				c0.3,0.8,0.9,1,1.6,0.8c0.3-0.1,0.5-0.1,0.8-0.2c0-0.1,0.1-0.2,0.1-0.4c0.1-1.2,1.1-1.7,2.2-1.3c1,0.4,1.8,0.8,2.4,1.8
				c0.4,0.6,1.1,1,1.9,0.8c0.4-0.1,0.8-0.1,1.2,0c1.2,0.1,2.3-0.2,3.1-1.2c0.2-0.2,0.6-0.3,1-0.4c0.3-0.1,0.7,0,1.1-0.1
				c0.6-0.1,1.1,0,1.4,0.6c0.2,0.3,0.5,0.6,0.9,0.8c0.8,0.6,1.8,0.9,2.3,1.8c0.1,0.1,0.4,0.2,0.6,0.2c0.8-0.1,1.6-0.3,2.5-0.5
				c0.5-0.1,0.9,0.1,1.2,0.5c0.3,0.4,0.6,0.5,0.9,0.2c0.8-0.7,1.5-0.7,2.4-0.1c0.9,0.7,2,0.8,3.1,0.8c1,0,1.6,0.7,2.3,1.3
				c-1.5-0.1-1.7,1-2.1,1.9c-0.3,0.7-0.4,1.5-0.3,2.3c0.2,0.8-0.5,1.6-1.3,1.7c-0.6,0-1.7,1.2-1.6,2c0,0.7-0.2,1.1-0.8,1.5
				c-0.2,0.1-0.4,0.3-0.6,0.5c-1.1,0.6-1.7,1.5-1.6,2.8c0.1,1.7-0.4,3.3-1,4.9c-0.5,1.3-0.4,2.6-0.3,3.9c0.1,0.5,0,1.2-0.3,1.6
				c-0.6,1.3-1.3,2.7-2,3.9c-0.4,0.8-0.6,1.6-0.5,2.4c0,0.3,0.1,0.6,0.1,0.9c-0.1,0.9,0.2,1.7,0.8,2.3c0.3,0.3,0.3,0.7,0,1
				c-0.5,0.6-0.7,1.3-0.7,2.1c0,0.7-0.3,1.3-0.3,2c-0.1,0.8-0.2,1.6-0.2,2.4c0,0.6-0.1,1.1-0.5,1.5c-0.3,0.3-0.4,0.7-0.2,1.2
				c0.6,1,1.2,2,1.8,3c0-0.1,0,0-0.1,0.1c-0.8,0.8-1.1,1.8-1,2.9c0.1,0.5-0.2,0.9-0.6,1.2c-1,0.9-2.1,1.4-3.4,1.2
				c-0.4-0.1-0.8,0-1.2,0c-1.5,0.1-1.8-0.2-1.5-1.8c-1,0.2-2.2-0.1-3,0.7c-1.8,1.6-2.7,3-2.5,3.6c0.6-0.1,1.2-0.2,1.8-0.4
				c0.7-0.2,1.2-0.2,1.6,0.8c-0.7,0.7-1.6,1.5-2.4,2.3c0,0-0.1-0.1-0.1-0.1c0,0,0,0.1,0,0.1c0.7,1,0.2,1.7-0.5,2.4
				c-0.7,0.6-1.2,1.4-1.8,2.1c-0.5,0.5-1.2,1-1.8,1.4c-0.4,0.2-0.6,0.4-0.6,0.9c0.2,1.7-0.9,2.5-2.2,3.2c-1,0.5-2,1-3,1.5
				c-0.5,0.2-0.6,0.5-0.6,1c0.1,1.4,0.1,2.8,0.2,4.1c0,0.3-0.2,0.7-0.4,0.9c-2,1.9-3.9,3.7-5.9,5.6c-0.1,0.1-0.3,0.2-0.4,0.3
				c-0.5,0.5-0.4,1,0.3,1.3c0.1,0.1,0.3,0.1,0.5,0.2c-0.2,0.3-0.4,0.6-0.7,0.8c-1,0.8-1.1,1.9-1.1,3c0,0.3,0.2,0.6,0.4,0.8
				c0.4,0.3,0.8,0.4,1.2,0.7c0.7,0.4,0.7,0.7,0.3,1.3c-0.4,0.5-0.8,1.1-1.3,1.7c0.7,0.4,0.8,0.9,0.5,1.4c-1,0.3-1.9,0.6-2.7,0.9
				c-0.5,0.2-0.6,0.5-0.6,1.1c0,1.5,0,1.4,1.4,1.5c1.5,0.1,2.7-0.1,3.8-1.3c0.6-0.6,1.4-1,2.3-1.6c-0.3-0.3-0.5-0.5-0.8-0.7
				c-0.6-0.5-0.7-1-0.4-1.7c0.2-0.4,0.4-0.9,0.6-1.3c0.5-1.1,1.3-1.1,2-0.2c0.1,0.1,0.2,0.2,0.3,0.3c0.4-0.3,0.9-0.6,1.2-1
				c0.9-1.1,2.2-1.2,3.5-1.3c1.3-0.1,2.6,0,4,0c-0.2,1.5,0.9,2.2,1.8,3.1c0.5,0.6,0.5,1.7,0,2.3c-0.2,0.2-0.4,0.4-0.6,0.6
				c-0.5,0.5-0.4,1.3,0.3,1.5c1.4,0.4,1.9,1.3,1.7,2.7c0,0.2,0,0.4,0,0.7c0.3-0.1,0.5-0.2,0.8-0.3c0.7,0.7,1.5,1.5,2.2,2.3
				c0.2,0.2,0.2,0.5,0.3,0.8c0,0.8,0,1.7-0.1,2.5c0,0.2-0.4,0.5-0.6,0.6c-0.9,0.4-1.9,0.8-2.8,1.2c-0.4,0.2-0.6,0.4-0.6,0.9
				c0,0.8,0,1.6,0,2.5c0,0.5,0.1,0.9,0.5,1.3c0.2,0.2,0.3,0.3,0.5,0.5c0.5,0.8,1.1,0.9,2,0.7c0.3-0.1,0.6-0.1,1.1-0.1
				c0,1.2,0,2.3,0,3.4c0,0.5,0.1,0.8,0.6,1c0.4,0.2,0.8,0.5,1.2,0.7c0.8,0.4,1.5,0.9,1.6,1.9c0,0.2,0.3,0.4,0.5,0.5
				c0.3,0.2,0.6,0.3,1,0.4c-0.4,0.8-0.9,1.5-1.3,2.2c-0.1,0.2-0.1,0.6,0,0.8c0.6,1.1,0.2,2.4-1,2.7c-1.5,0.4-2.5,1.5-3.7,2.1
				c-0.1,0.1-0.2,0.3-0.3,0.5c-0.1,0.9-0.7,1.3-1.4,0.8c-1-0.8-1.8-0.4-2.8,0c-0.5,0.2-1.1,0.5-1.8,0.7c0.4,0.9,0.8,1.8,1.3,2.6
				c0.2,0.3,0.7,0.4,1.1,0.5c0.4,0.1,0.6,0.4,0.7,0.8c0.1,0.8,0.2,1.5,0.3,2.3c0,0.2,0.2,0.5,0.4,0.6c0.7,0.4,1.4,0.8,2.1,1.1
				c0.4,0.2,0.9,0.1,1.4,0.1c1.2-0.2,1.7,0.2,1.9,1.4c0,0.3,0.1,0.7,0.1,1c-0.1,0.9,0.3,1.4,1.1,1.7c0.6,0.2,0.6,0.6,0.5,1.1
				c-0.5,0.1-1.1-0.1-1.6,0.5c-0.6,0.7-0.9,1.3-0.6,2.2c0.1,0.2-0.1,0.5-0.3,0.7c-0.6,0.8-1.3,1.4-1.8,2.2c-0.5,0.8,0.1,1.9,0.9,2.2
				c0.4,0.2,0.8,0.4,1.2,0.7c0,0.1-0.1,0.1-0.1,0.2c-0.4,0.1-0.8,0.2-1.3,0.3c0,0.7,0,1.3,0,2c0,0.1,0.1,0.3,0.3,0.4
				c0.2,0.2,0.4,0.3,0.7,0.4c1,0.4,1.6,1.1,1.4,2.3c-0.1,0.5,0.2,0.6,0.6,0.6c1.3,0.2,2.6,0.3,3.8,0.8c0.8,0.3,1.4,0.9,2,1.5
				c1.1,1,2.3,1,3.5,0.6c1.3-0.4,2.5-0.9,3.8-1.3c0.6-0.2,1.3-0.3,1.9-0.3c0.2,0,0.5,0.1,0.5,0.2c0.4,1.1,1,2.3,1.1,3.5
				c0.1,0.8-0.3,1.8-0.6,2.7c0,0.1-0.3,0.2-0.4,0.2c-0.3,0.1-0.7,0.2-1,0.3c-1,0.3-1.1,0.3-0.8,1.3c0.2,0.7-0.2,1-0.6,1.3
				c-1.2,1.1-1.1,0.6-0.5,2c0.2,0.4,0.4,0.9,0.6,1.3c-0.7,0.8-2.3,0.8-2,2.4c-0.2,0-0.4,0.1-0.5,0.1c-1.1-0.2-2,0.2-2.7,1.1
				c-0.8,1-1.8,1.1-2.9,1.1c-0.5,0-0.8,0.2-0.8,0.8c0,0.9,0,1.8,0,2.8c-0.9-0.5-1.4-0.1-1.9,0.5c-0.1,0.1-0.4,0.1-0.7,0.1
				c-0.5-0.1-1.1-0.2-1.8-0.3c0,0.7,0.1,1.3,0,1.8c-0.1,0.4-0.3,0.9-0.5,1.3c-0.8,1.4-2.1,1.9-3.6,1.9c-0.7,0-1.1,0.2-1.2,1.1
				c0,1.2-0.7,2-1.7,2.6c-0.3,0.2-0.6,0.3-0.8,0.6c0.7,0,1.3,0,2.1,0c0,0.9,0,1.7,0,2.5c0,0.1-0.1,0.3-0.2,0.3
				c-0.7,0.3-1.4,0.9-2.3,0.4c-0.5-0.3-0.9-0.2-1.2,0.4c-0.1,0.2-0.5,0.3-0.7,0.4c-0.4,0.1-0.8,0-1.2,0c-0.9,0-1.5,0.5-1.6,1.4
				c-0.1,0.9-0.1,0.9-0.9,1.3c-0.6-0.9-1.7-1.1-2.7-1.2c-0.5-0.1-1.3,0.4-1.5,0.9c-0.2,0.4,0.1,1.1,0.2,1.6c0,0.1,0.2,0.2,0.4,0.5
				c-0.8,0-1.4-0.1-2-0.1c0.3-0.4,0.5-0.8,0.8-1.2c0-0.1-0.1-0.2-0.1-0.3c-1.2-0.1-2.4-0.4-3.5-0.2c-0.9,0.2-1.7,1-2.6,1.5
				c-0.4,0.2-0.8,0.2-1.3,0.2c-0.2,0-0.4-0.3-0.6-0.5c0,0,0-0.1,0-0.1c-0.1-1.3-0.7-2-2-2.3c-0.2,0-0.4-0.1-0.5-0.3
				c-1.1-1.2-2.6-1.5-4.1-1.6c-1.4-0.1-2.9,0-4.4,0c0.3-0.6,0.6-1.2,1-1.9c-0.8-0.1-1.5-0.1-2.4-0.2c0.4-0.3,0.7-0.6,1-0.9
				c0.7-0.4,0.7-0.9,0.2-1.6c-2.4,1.2-4.9,0.4-7.4,0.5c-0.4,0-0.6-0.1-0.8-0.5c0-0.1-0.1-0.2-0.1-0.3c-0.3-1.3-1.4-1.7-2.5-2.1
				c-0.2-0.1-0.4,0-0.5,0.1c-0.4,0.3-0.7,0.6-1.2,1c0.7,0.6,1.3,1.2,1.9,1.8c-2.3,0.8-5.8,0.7-8.2-0.3c0.7-1.6,0.7-1.6,2.5-1.8
				c-0.3-0.6-0.7-1-1.4-1c-3.6-0.1-7.3-0.3-10.9-0.4c-0.1,0-0.3,0-0.5,0c0-0.6,0-1.1,0-1.7c0-0.2-0.3-0.3-0.4-0.5c0,0-0.1,0-0.2,0
				c-1.9-0.5-3.4,0.2-4.9,1.4c-2.4,2-4.9,3.9-7.4,5.8c0,0-0.1,0.1-0.1,0.1c-0.7,1.3-1.9,1.4-3.1,1.3c-0.6-0.1-1.2,0-1.4,0.8
				c0,0.2-0.3,0.3-0.6,0.4c-1,0.3-2.1,0.6-3.1,1c-0.2,0.1-0.5,0.3-0.5,0.5c0.1,1.4-0.8,2.1-1.8,2.9c-0.4,0.3-0.8,0.6-1.2,0.9
				c-0.6-0.6-1.2-1.1-2-1.9c-0.3,0.7-0.8,1.4-0.6,1.8c0.3,0.8,0.8,1.9,2.2,1.4c0,0.4,0,0.6,0,0.9c0,2.2,0,4.4,0,6.7
				c0,2.8,0.2,5.6,0.2,8.4c0,0.5,0.2,0.8,0.7,1C214.3,286.2,215,287.5,214.7,289.1z"/>
		</defs>
		<clipPath id="SVGID_2_">
			<use xlink:href="#SVGID_1_"  style="overflow:visible;"/>
		</clipPath>
		<g class="st0">
			<rect x="34.4" y="-60.7" class="st1" width="109.8" height="437.8"/>
			<rect x="144.2" y="-60.7" class="st2" width="92.1" height="437.8"/>
			<rect x="236.3" y="-60.7" class="st3" width="105.4" height="437.8"/>
		</g>
	</g>
	<path class="st4" d="M214.7,289.1c-0.9,0.1-1.8,0.1-2.3-0.8c-0.9-1.3-2.2-0.9-3.4-0.7c-0.9,0.1-1.8,0.5-2.3,1.5
		c-0.1,0.3-0.5,0.4-0.9,0.6c-0.4,0.2-0.9,0.3-1.3,0.3c-1,0.1-1.8,0.4-1.6,1.6c0,0.4-0.4,0.6-0.8,0.5c-1.3-0.5-1.3-0.5-2.2,0.5
		c0,0.1-0.1,0.1-0.2,0.2c-0.3-0.2-0.5-0.4-0.8-0.7c-1.4-1.5-3.3-2.4-5.3-3c-1.4-0.4-2.9,0-3.8,1.1c-0.3,0.4-0.6,0.7-0.9,1.1
		c-0.6,0.7-1.5,0.8-2.1,0.2c-0.1-0.1-0.2-0.2-0.3-0.3c-0.7-0.5-1.1-1.1-1-2c0.1-0.6-0.2-1-0.9-1.1c-0.4-0.1-0.8-0.3-1.3-0.3
		c-1.2-0.1-2-0.9-2.7-1.8c-0.3-0.4-0.4-1-0.5-1.5c-0.3-1.9-0.3-1.9-2.3-2.2c-0.7-0.1-1.4-0.2-2.1-0.3c-0.4,0-0.9,0-1.3,0.1
		c-0.4,0.1-0.8,0.3-1.2,0.5c-0.5-0.9-1-1.7-1.6-2.5c-0.2-0.2-0.6-0.4-0.9-0.4c-1.2,0-2.5,0.1-3.7,0.2c-0.3,0-0.7-0.2-0.8-0.4
		c-0.8-1.5-2-2.2-3.7-2.2c-1.7,0-3.4-0.6-4.9-1.6c-0.6-0.4-1.5-0.6-2.4-0.9c0,1.1-0.1,2-0.1,2.9c0,0.9-0.1,1.8-0.2,2.8
		c-2.6-0.4-5.1-0.1-7.7-0.8c-0.2,0.3-0.5,0.7-0.7,1.1c-1.4-0.1-2.5-0.6-3.2-1.8c-0.3-0.4-0.6-0.5-1.1-0.3c-0.8,0.4-1.6,0.7-2.5,1.1
		c-1.5,0.6-2.9,0.2-3.8-1.2c0-0.1-0.1-0.2-0.1-0.3c0-0.9-0.5-1.4-1.2-1.8c-0.9-0.6-1.7-1.1-2.6-1.7c-0.4-0.3-0.7-0.3-1.1,0
		c-0.7,0.5-1.5,0.9-2.3,1.3c-0.2,0.1-0.4,0.2-0.5,0.1c-0.7-0.7-1.4-0.3-2,0.1c-0.6,0.4-0.9,0.2-1.4-0.3c-0.8-0.9-1.8-1.6-2.7-2.3
		c-0.5-0.4-0.7-0.8-0.7-1.4c0-0.5-0.1-0.9-0.2-1.5c-1,0-2-0.1-2.9,0c-0.9,0.1-1.7-0.1-2.4-0.7c-1-0.8-2.1-1.1-3.3-1.2
		c-0.6,0-1-0.3-1.3-0.8c-0.2-0.4-0.5-0.6-1-0.6c-1.8,0-2.1-0.3-2.1-2.1c0-0.1,0-0.2,0-0.3c-1,0.6-1.2,1.5-1.3,2.6
		c-0.9-0.2-1.8-0.4-2.4-1.2c-0.5-0.7-0.4-1.3,0.3-1.6c0.8-0.3,1.2-0.8,1-1.7c-0.1-0.6,0-1.1,0.5-1.5c0.4-0.3,0.1-1.5-0.3-1.6
		c-1.1-0.4-2.1-0.7-3.3-1.1c-0.2,0.7-0.6,1-1.4,0.9c-0.4-0.1-0.6-0.2-0.6-0.6c0.1-0.8-0.3-1-1-1c-0.7,0-1.2-0.1-1.8-0.6
		c-0.5-0.5-0.7-1-0.6-1.7c1-0.3,1.9-0.6,2.9-1c0.2-0.1,0.4-0.2,0.6-0.3c0.9-1.1,1.9-2.3,2.7-3.5c1.7-2.4,2.4-5.1,3-8
		c0.7-3.2,1.6-6.3,2.4-9.5c0.9-3.9,1.6-7.8,2.4-11.8c0.2-0.9,0.1-1.9,0.2-2.9c0-0.4,0.2-0.9,0.4-1.2c0.6-0.7,1-1.5,1.1-2.5
		c0-0.2,0.4-0.5,0.7-0.6c0.1-0.1,0.4,0.1,0.6,0.2c0.2,0.1,0.4,0.3,0.6,0.3c0.8,0,1.5-0.1,2.3-0.1c-0.6-1.6-1.8-2.6-3-3.6
		c-1,1.1-1.9,2.2-2.1,3.8c-0.1,0-0.1,0-0.2-0.1c0.2-1.4,0.4-2.9,0.6-4.3c0.7-4.6,1.4-9.2,2-13.8c0.3-2.7,0.4-5.4,0.5-8.2
		c0-0.6,0.2-1.2,0.6-1.7c0.3-0.4,0.6-0.8,0.8-1.3c0.3-0.7,0.8-0.7,1.5-0.4c0,0.2,0,0.4,0,0.6c-0.3,1.1,0.1,1.9,1,2.7
		c1.5,1.2,2.8,2.5,4.2,3.7c0.2,0.2,0.5,0.6,0.5,0.9c0.6,2.5,1.3,5.1,1.9,7.7c0,0.2,0.1,0.3,0.2,0.5c0.7-0.5,0.5-1.2,0.5-1.9
		c0-2.4-1-4.7-1.3-7.1c-0.3-2.1-1.1-3.7-2.8-5c-0.5-0.4-0.8-0.9-1.3-1.2c-0.7-0.4-1.7-0.5-1.7-1.6c0-0.1-0.3-0.2-0.4-0.3
		c-0.7-0.5-1.4-0.9-2.1-1.4c-1.2-0.9-1.2-0.9-2.6-1c-0.3-1.9-0.6-3.8-0.8-5.7c-0.1-0.8-0.3-1.6-1.1-1.9c-1.4-0.6-1.9-1.7-1.5-3.2
		c0.1-0.5,0.1-1,0.2-1.7c0.3,0.4,0.5,0.6,0.7,0.8c0.5,0.7,1.1,1.1,2,1.1c0.6,0,0.8,0.2,0.8,0.8c0,0.4,0,0.9,0.1,1.3
		c0.1,0.3,0.2,0.7,0.4,1c0.3,0.5,0.6,0.9,0.1,1.4c-0.2,0.2-0.3,0.3-0.4,0.5c-0.1,0.3-0.1,0.7,0,1c0,0.1,0.4,0.2,0.7,0.2
		c0.3,0,0.6,0,0.8,0c-0.1-0.7-0.2-1.4-0.3-2.1c1.4,0,1.3,0,1.7-1.4c0.2-0.8,0.2-1.4-0.4-2c-0.2-0.2-0.3-0.7-0.2-0.8
		c0.2-0.2,0.6-0.2,0.9-0.3c0.2,0,0.4,0,0.6,0.1c0.4-0.9,0.3-1.1-0.4-1.6c-0.3-0.2-0.5-0.5-0.6-0.9c-0.2-0.7-0.6-1-1.2-1
		c-0.4,0-0.7-0.2-0.9-0.7c-0.1-0.2-0.5-0.5-0.7-0.5c-1.2,0.2-2.2-0.1-3.1-1c-0.7-0.7-1.6-1.2-2.7-1c-0.2,0-0.4-0.1-0.5-0.3
		c-0.3-0.4-0.6-0.9-0.9-1.3c1.1-0.8,1.7-0.8,2.7-0.1c0.2,0.2,0.4,0.5,0.5,0.8c0.1,0.4,0.3,0.6,0.7,0.6c0.3,0,0.7,0,1,0.1
		c0.4,0.1,0.9,0.3,1.1,0.6c0.6,0.7,1.2,0.4,1.9,0.3c0.6,0,0.4-0.6,0.5-0.9c0.1-0.2,0.2-0.4,0.4-0.6c0.4-0.4,0.9-0.8,1.5-1.2
		c-0.5-0.5-1-0.9-1.5-1.4c-0.1,0.6-0.1,1-0.2,1.5c-1.1-0.6-2.4-0.8-2.9-2c-0.3-0.7-0.8-1-1.6-0.8c-1.1,0.2-1.8-0.2-2-1.3
		c-0.2-0.8-0.7-1.1-1.5-0.9c-1.1,0.2-1.9-0.2-2.6-1c-0.7-0.9-1.7-1.5-2.8-2c-0.3-0.2-0.7-0.6-0.8-0.9c-0.6-1.6-1.1-3.2-1.6-4.8
		c-0.2-0.6-0.4-1.1-1.3-0.9c0.4-0.9-0.2-1.3-0.7-1.8c-0.8-0.7-1.6-1.5-2.3-2.2c-0.2-0.2-0.2-0.5-0.3-0.8c0,0,0-0.1,0-0.1
		c-0.2-1.5,0.4-2.7,1.4-3.8c0.7-0.8,1.3-1.7,1.9-2.5c-0.9-1-1.7-1.9-2.6-2.8c-0.1-0.1-0.4-0.1-0.7-0.1c-0.6,0.1-1.2,0.2-1.9,0.3
		c-0.1-0.5-0.1-1-0.2-1.5c1,0.2,1.7-0.3,2.2-1c0.1-0.2,0.1-0.5,0.1-0.7c0-0.1-0.1-0.2-0.1-0.3c-0.4-1.1-0.3-1.4,0.7-1.9
		c0.3-0.1,0.5-0.3,0.8-0.5c-0.9-0.2-1.8-0.3-2.3,0.6c-0.6,1.1-1.6,0.9-2.6,0.8c-0.2,0-0.4-0.3-0.6-0.5c-0.3-0.3-0.5-0.6-0.8-1
		c-0.1,0.3-0.2,0.5-0.4,0.9c-1-0.3-2.1-0.6-3.3-1c0.8-1.1,1.8-1.9,0.3-3c0.7-0.7,1.4-1.3,2.1-1.9c-1-1-1-1.3-0.1-2.4
		c-0.8-0.1-1.5-0.3-2.2-0.2c-1.6,0.1-3.3,0.3-4.9,0.4c-0.2,0-0.6-0.1-0.7-0.2c-0.5-0.8-1-1.6-2-1.6C80,118,80,118,81,118.5
		c0.7,0.3,1.4,0.6,2.3,0.9c0.2-0.4,0.5-0.9,0.4-1.1c-0.5-0.9-1.2-1.6-2.4-1.5c0,0.2,0.1,0.4,0.1,0.6c-1.2,0.7-1.8-0.1-2.4-1
		c0.3,0.8,0.6,1.5-0.4,2.2c-0.5-0.5-1.1-1.1-1.7-1.7c-0.1,0.3-0.2,0.6-0.4,1c-0.4-0.1-0.8-0.1-1.3-0.2c0.1,0.9-0.3,1.9,0.4,2.7
		c0.1,0.1-0.2,0.6-0.3,1c-1.5-0.9-1.5-0.9-1.2-2.3c0.3-1.4,0-2.5-1.1-3.4c-0.9-0.8-1.8-1.5-2.8-2.3c0,0.1-0.1,0.1-0.1,0.2
		c0.1-0.3,0.1-0.6,0.2-1.1c-0.3,0.4-0.5,0.6-0.6,0.8c-1.3,0.1-2.1-0.6-2.6-1.7c-0.2-0.6-0.7-0.8-1.3-0.8c-0.3,0-0.5,0-0.8,0
		c-1-0.2-2-0.1-2.4-1.1c-0.4,0.1-0.7,0.3-1,0.3c-0.9-0.2-2.1,0.4-2.8-0.8c-0.5-0.9-1.2-1.7-1.3-2.8c0-0.1-0.1-0.3-0.2-0.4
		c0,0.5,0,1-0.1,1.4c-0.6,0.3-1.1,0.3-1.7-0.1c-0.6-0.4-1.3-0.8-2.1-0.6c-0.3,0-0.6-0.2-1.1-0.3c0.2,0.3,0.4,0.5,0.5,0.8
		c0.1,0.3,0.2,0.6,0.2,0.9c-0.1,0.4-0.4,0.7-0.9,0.7c-1.4,0-2.8,0.1-4.1-0.4c0-0.1,0-0.1,0-0.1c1-1.3,0.4-2.7,0.1-4.1
		c0-0.3-0.3-0.5-0.5-0.7c-0.5-0.6-1-1.1-1.5-1.7c-0.3-0.4-0.7-0.6-1.2-0.4c-0.5,0.1-0.9-0.1-1.2-0.4c-0.3-0.2-0.7-0.3-1-0.4
		c-0.6-0.1-1.1-0.2-1.8-0.4c0.4-0.9,0.8-1.2,1.6-1.2c1.4,0,2.9-0.3,4.3-0.4c0.9-0.1,1.7-0.2,2.6-0.1c0.8,0.1,1.3-0.1,1.6-0.9
		c0.4-0.9-0.2-2.1-1.1-2.4c-0.4-0.1-0.7-0.3-1-0.5c-0.5-0.3-1-0.6-1.6-0.9c-0.5,0.7-1,1.4-1.5,2.1c-0.1,0-0.1,0-0.2-0.1
		c0-0.7,0-1.3,0-2c0.1-0.6-0.1-0.9-0.7-1c-0.4-0.1-0.7-0.2-1.2-0.4c0.5-0.6,1-1.1,1.4-1.6c1.2,0.5,2.4,1,3.6,1.4
		c1.2,0.3,2.5,0.4,3.8,0.6c0.1-0.4,0.1-0.6,0.1-0.9c-0.8,0-1.6-0.1-2.4-0.1c0.1-0.5,0.2-1,0.4-1.6c-0.8,0.3-1.5,0.6-2.1,0.9
		c-0.4-0.7-0.2-1.1,0.3-1.6c0.5-0.4,0.8-0.8,1.4-1.4c-1.3,0.5-2,1.7-3.3,1.7c-1.2,0-2.4,0.6-3.7,0.2c-0.5,0.8-1.4,0.3-2.3,0.3
		c0.1-0.5,0.2-1,0.3-1.4c0.1-0.6,0.2-1.1-0.2-1.7c-0.1-0.1,0-0.5,0.2-0.6c0.4-0.4,0.9-0.7,1.4-1.2c-0.5-0.4-0.9-0.7-1.4-1.1
		c0.7-0.6,1.3-1.4,2-1.7c0.8-0.3,1.7-0.1,2.6-0.2c0.1-0.4,0-0.8,0.2-1c0.3-0.3,0.9-0.7,1-0.6c0.8,0.6,1.6,0.2,2.4,0.3
		c0-0.7,0.4-0.9,1-0.9c0.5,0,1-0.1,1.5-0.2c0.1,0.4,0.2,0.7,0.3,1.1c1,0.2,1.4-0.1,1.8-0.9c0.1-0.1,0.2-0.3,0.2-0.3
		c0.9-0.1,1.8-0.3,2.6-0.1c0.9,0.3,1.4,0.2,1.9-0.5c0.1-0.1,0.2-0.2,0.3-0.4c0.1,0.9,0.2,1.6,0.3,2.5c0.4,0,0.8-0.1,1.2-0.1
		c0,0,0.1,0.1,0.1,0.1c0.2,0.4,0.1,1,0.8,0.9c0.7-0.1,0.4-0.7,0.4-1c0.1-1.3-0.2-1.1,1.3-1.3c1.4-0.1,2.6,0.2,3.7,1.1
		c0.6-0.8,1.1-1.4,1.6-2.2c-0.3-0.4-0.5-0.8-0.8-1.2c0.7-0.5,1.3-0.9,2-1.3c0.1-0.1,0.5,0,0.6,0.1c0.5,0.3,0.9,0.7,1.5,1.1
		c0.3-0.8,0.9-0.9,1.6-0.9c0.9-0.1,1.8-0.2,2.5-0.9c0.2,0.5,0.4,0.9,0.7,1.5c0.4-1.8,1.6-0.8,2.5-1.1c0,0.4,0,0.8-0.1,1.2
		c0.4,0.1,0.7,0.2,1.1,0.2c0,0.1,0,0.3,0,0.4c0,1.2,0,1.2,1.1,1.6c0.2,0.1,0.4,0.4,0.4,0.5C81.4,81,82,81.7,83,82.2
		c0.7,0.4,0.8,0.9,0.6,1.6c-0.2,0.7-0.1,1.2,0.7,1.4c1.2,0.3,1.8,1,1.5,2.3c0,0.1,0,0.2,0,0.3c0.3,0,0.5,0,0.9,0
		c-0.3-1.2,0.6-1.4,1.3-1.8c0.7-0.4,1.3-0.7,2-1.1c0.6-0.3,1-0.6,1.2-1.2c0.1-0.4,0.4-0.6,0.8-0.5c1,0.3,1.9,0.3,2.7-0.8
		c0,0.9,0,1.5,0,2.2c0.6-0.3,1-1.2,1.6-0.5c0.3,0.4,0.4,1,0.7,1.6c0.2,0,0.7,0.1,1-0.1c0.3-0.2,0.3-0.7,0.5-1.1c0.1,0,0.2,0,0.3,0
		c1.2,0.4,2.2,0.1,2.8-1.1c0.4-0.6,0.9-0.8,1.6-0.7c0.5,0.1,1,0,1.6,0c-0.5,0.7-0.9,1.2-1.3,1.8c1,0.6,1.9,1.4,3.2,1.3
		c2-0.1,3.9,0,5.9,0c0.4,0,0.8-0.1,1.2-0.3c0.3-0.1,0.7-0.1,0.6-0.7c-0.1-0.5-0.1-0.9-0.8-0.9c-1.5,0-2.1-1-2.7-2.3
		c-0.6-1.5-0.6-2.7,0.2-4.1c0.9-1.6,0.9-3.4,0-4.9c-0.9-1.6-0.8-3.2-0.9-4.9c0-0.5-0.3-1-0.4-1.5c-0.2-0.6-0.4-1.2-0.5-1.8
		c-0.1-0.6-0.4-1.2-0.8-1.6c-0.9-1-2-1.9-2.4-3.2c-0.1-0.5-0.3-1-0.2-1.5c0.1-1.3,0.1-1.3-0.7-2.2c1.1-0.7,0.8-1.9,0.9-2.9
		c0-0.5-0.2-0.8-0.5-1c-0.6-0.5-1.2-1-1.8-1.4c0.3-1.1,0.3-1.1,1.3-0.8c2,0.5,4,1.2,5.6,2.6c0.3,0.3,0.6,0.2,0.9,0
		c1.4-1.3,3-1.6,4.8-1.4c2,0.3,2.1,0.1,2.8,2.1c0.1,0.3,0.2,0.6,0.3,0.9c-0.1,0.1-0.1,0.1-0.1,0.1c-0.8-0.1-1.1,0.3-1.4,1
		c-0.5,1-0.3,1.6,0.4,2.3c1.3,1.4,2.7,2.8,2,5.1c1.4-0.3,2.6-0.6,3.7-0.9c0.6-0.2,1.1-0.2,1.6,0.2c1.7,1.1,3.6,1,5.5,1.3
		c1.4,0.3,2.9,0.3,4.4,0.7c1,0.2,2,0.7,2.8,1.3c1.2,0.8,2.2,0.8,3.5,0.2c1.9-0.8,3.8-1.5,5.5-2.7c1.2-0.8,2.5-1.3,4-1.4
		c0.2,0,0.5-0.1,0.7-0.3c-0.8-0.2-1.6-0.2-2.3-0.5c-1-0.4-1.8-1.1-2.7-1.7c-0.1-0.1,0-0.3,0-0.5c0.2-1.6,0.7-3.1,1.6-4.5
		c1-1.5,2.2-2.6,3.8-3.5c3.9-2,8-3.3,12.3-4.3c1.2-0.3,2.4-0.6,3.6-0.9c0.3-0.1,0.6-0.2,0.9-0.4c1.4-1,2.7-2,4-3.1
		c0.5-0.4,0.9-0.9,1.3-1.4c1.1-1.4,2.3-2.8,3.4-4.2c1,0.6,1.9,1.1,3,1.7c0.2-0.7,0.1-1.2-0.4-1.6c-0.6-0.4-1.1-0.9-1.6-1.5
		c-0.2-0.2-0.4-0.5-0.3-0.8c0.6-5.9,0.2-11.8,0.3-17.7c0-0.7,0.2-1.2,0.8-1.6c1.1-0.7,2.1-1.5,3-2.4c0.8-0.8,1.8-1,2.9-1.2
		c3.2-0.5,6.4-1,9.6-1.7c1.2-0.2,2.2-0.9,3.3-1.3c0.3-0.1,0.6-0.3,1-0.5c0.6,1.4,1.1,2.8,1.7,4.2c0.1,0.2-0.1,0.6-0.2,0.8
		c-0.7,1.1-0.6,2.3,0,3.4c0.2,0.4,0.4,0.5,0.8,0.5c1.2,0,1.9,0.6,2.3,1.8c0.1,0.4,0.4,0.9,0.7,1.3c0.6,0.8,1.6,0.8,2.2,0
		c1.2-1.8,3.2-1.8,5.1-2.2c0.1,0.3,0.1,0.5,0.1,0.8c0,0.2,0,0.4,0.1,0.5c0.4,0.4,0.9,0.7,1.3,1.1c0.2,0.2,0.5,0.5,0.5,0.8
		c0.1,1.1,0.1,2.3,0.1,3.4c0,0.3,0.1,0.5,0.1,0.8c0.1,0.9,0.6,1.4,1.5,1.4c0.2,0,0.5,0.1,0.6,0.3c0.4,0.5,0.8,0.5,1.3,0.2
		c0.2-0.1,0.4-0.2,0.7-0.3c0.5-0.3,1-0.4,1.4,0.2c0.1,0.2,0.5,0.2,0.7,0.2c0.7-0.2,1,0.1,1.5,0.6c0.9,0.9,1.3,1.9,1.1,3.2
		c-0.1,0.7,0,1.4,0,2.1c0.6,0.2,0.9,0,1.1-0.5c0.2-0.5,0.5-0.6,1-0.6c1.5,0,3.1-0.1,4.6-0.3c0.6,0,1.1,0.1,1.6,0.5
		c0.8,0.7,1.7,1.3,2.4,1.9c0.3,0.3,0.6,0.7,0.9,1.1c-0.3,0.2-0.4,0.4-0.6,0.5c-0.8,0.4-1.3,1-1.1,2c0,0.3-0.2,0.6-0.4,1
		c0.4,0.1,0.8,0.3,1.2,0.3c0.5,0.1,0.8,0.3,0.9,0.9c0.2,1.4,0.2,1.4-1,2.2c-0.4,0.3-1.1,0.4-1,1.2c0.1,0.4,0.2,0.6,0.7,0.6
		c1,0,2.1,0,3.1,0c0.6,0,1.2,0.1,1.6,0.6c0.6,0.6,1.1,0.6,1.8,0.3c0.7-0.3,1.5-0.5,2.2-0.8c0.6-0.2,1.1-0.6,1.6-0.9
		c0.1-0.1,0.2-0.3,0.3-0.5c0-0.3,0-0.7,0-1c-0.1-0.7,0.2-1.2,0.7-1.7c0.4-0.4,0.8-1,1.1-1.5c0.3-0.4,1.2-0.6,1.9-0.4
		c0.6,0.2,0.4,0.7,0.5,1.1c0.2,1.1-0.4,1.7-1.2,2.2c0.1,0.2,0.2,0.3,0.3,0.4c0.4,0.3,0.4,0.6,0.2,0.9c0,0.1-0.1,0.1-0.1,0.2
		c-0.6,1.5-0.6,1.5,0.8,2.4c0.6,0.4,0.7,0.9,0.4,1.6c-0.2,0.5-0.1,1.1-0.1,1.6c0,1.2,0.1,1.2,1.3,1.4c0.9,0.1,1.9,0.2,2.7,0.6
		c0.4,0.1,0.7,0.7,1,1.2c0.2,0.4,0.4,0.8,1,0.8c0.6,0,1.3,0.2,1.9,0.2c0.9,0.1,1.4,0.5,1.6,1.4c0,0.2,0.1,0.4,0.1,0.6
		c0,0.7,0.3,1.1,1.1,1.1c0.7,0,1.3,0.7,1.5,1.4c0.1,0.4,0.1,0.8,0.2,1.2c0.1,0.5,0.6,0.7,0.9,0.3c0.5-0.5,1-0.6,1.6-0.6
		c0.6,0,1.1-0.1,1.4-0.6c0.5-0.6,1.1-0.6,1.9-0.7c1.1-0.1,1.9,0.2,2.4,1.1c0.6,0.8,1.3,1.3,2.4,1.1c0.2,0,0.5,0,0.6,0.2
		c0.6,0.8,1.5,0.5,2.2,0.5c0.2,0,0.3-0.2,0.5-0.4c0.7-0.7,1.3-1.5,2.5-1.3c0.4,0.1,0.9,0.2,1.1,0.4c0.8,0.7,1.5,1.2,2.6,0.6
		c0.3-0.1,0.7-0.1,1.1,0c0.8,0.3,1.6,0.7,2.3,1.1c0.8,0.5,1.4,1.2,1.2,2.2c0,0.2,0,0.4,0,0.7c-0.1,0.6,0.1,1,0.8,1.2
		c0.7,0.2,1,0.5,0.8,1.2c-0.1,0.4,0.1,0.6,0.5,0.9c0.4,0.2,0.6,0.8,0.8,1.2c0.3,0.8,0.9,1,1.6,0.8c0.3-0.1,0.5-0.1,0.8-0.2
		c0-0.1,0.1-0.2,0.1-0.4c0.1-1.2,1.1-1.7,2.2-1.3c1,0.4,1.8,0.8,2.4,1.8c0.4,0.6,1.1,1,1.9,0.8c0.4-0.1,0.8-0.1,1.2,0
		c1.2,0.1,2.3-0.2,3.1-1.2c0.2-0.2,0.6-0.3,1-0.4c0.3-0.1,0.7,0,1.1-0.1c0.6-0.1,1.1,0,1.4,0.6c0.2,0.3,0.5,0.6,0.9,0.8
		c0.8,0.6,1.8,0.9,2.3,1.8c0.1,0.1,0.4,0.2,0.6,0.2c0.8-0.1,1.6-0.3,2.5-0.5c0.5-0.1,0.9,0.1,1.2,0.5c0.3,0.4,0.6,0.5,0.9,0.2
		c0.8-0.7,1.5-0.7,2.4-0.1c0.9,0.7,2,0.8,3.1,0.8c1,0,1.6,0.7,2.3,1.3c-1.5-0.1-1.7,1-2.1,1.9c-0.3,0.7-0.4,1.5-0.3,2.3
		c0.2,0.8-0.5,1.6-1.3,1.7c-0.6,0-1.7,1.2-1.6,2c0,0.7-0.2,1.1-0.8,1.5c-0.2,0.1-0.4,0.3-0.6,0.5c-1.1,0.6-1.7,1.5-1.6,2.8
		c0.1,1.7-0.4,3.3-1,4.9c-0.5,1.3-0.4,2.6-0.3,3.9c0.1,0.5,0,1.2-0.3,1.6c-0.6,1.3-1.3,2.7-2,3.9c-0.4,0.8-0.6,1.6-0.5,2.4
		c0,0.3,0.1,0.6,0.1,0.9c-0.1,0.9,0.2,1.7,0.8,2.3c0.3,0.3,0.3,0.7,0,1c-0.5,0.6-0.7,1.3-0.7,2.1c0,0.7-0.3,1.3-0.3,2
		c-0.1,0.8-0.2,1.6-0.2,2.4c0,0.6-0.1,1.1-0.5,1.5c-0.3,0.3-0.4,0.7-0.2,1.2c0.6,1,1.2,2,1.8,3c0-0.1,0,0-0.1,0.1
		c-0.8,0.8-1.1,1.8-1,2.9c0.1,0.5-0.2,0.9-0.6,1.2c-1,0.9-2.1,1.4-3.4,1.2c-0.4-0.1-0.8,0-1.2,0c-1.5,0.1-1.8-0.2-1.5-1.8
		c-1,0.2-2.2-0.1-3,0.7c-1.8,1.6-2.7,3-2.5,3.6c0.6-0.1,1.2-0.2,1.8-0.4c0.7-0.2,1.2-0.2,1.6,0.8c-0.7,0.7-1.6,1.5-2.4,2.3
		c0,0-0.1-0.1-0.1-0.1c0,0,0,0.1,0,0.1c0.7,1,0.2,1.7-0.5,2.4c-0.7,0.6-1.2,1.4-1.8,2.1c-0.5,0.5-1.2,1-1.8,1.4
		c-0.4,0.2-0.6,0.4-0.6,0.9c0.2,1.7-0.9,2.5-2.2,3.2c-1,0.5-2,1-3,1.5c-0.5,0.2-0.6,0.5-0.6,1c0.1,1.4,0.1,2.8,0.2,4.1
		c0,0.3-0.2,0.7-0.4,0.9c-2,1.9-3.9,3.7-5.9,5.6c-0.1,0.1-0.3,0.2-0.4,0.3c-0.5,0.5-0.4,1,0.3,1.3c0.1,0.1,0.3,0.1,0.5,0.2
		c-0.2,0.3-0.4,0.6-0.7,0.8c-1,0.8-1.1,1.9-1.1,3c0,0.3,0.2,0.6,0.4,0.8c0.4,0.3,0.8,0.4,1.2,0.7c0.7,0.4,0.7,0.7,0.3,1.3
		c-0.4,0.5-0.8,1.1-1.3,1.7c0.7,0.4,0.8,0.9,0.5,1.4c-1,0.3-1.9,0.6-2.7,0.9c-0.5,0.2-0.6,0.5-0.6,1.1c0,1.5,0,1.4,1.4,1.5
		c1.5,0.1,2.7-0.1,3.8-1.3c0.6-0.6,1.4-1,2.3-1.6c-0.3-0.3-0.5-0.5-0.8-0.7c-0.6-0.5-0.7-1-0.4-1.7c0.2-0.4,0.4-0.9,0.6-1.3
		c0.5-1.1,1.3-1.1,2-0.2c0.1,0.1,0.2,0.2,0.3,0.3c0.4-0.3,0.9-0.6,1.2-1c0.9-1.1,2.2-1.2,3.5-1.3c1.3-0.1,2.6,0,4,0
		c-0.2,1.5,0.9,2.2,1.8,3.1c0.5,0.6,0.5,1.7,0,2.3c-0.2,0.2-0.4,0.4-0.6,0.6c-0.5,0.5-0.4,1.3,0.3,1.5c1.4,0.4,1.9,1.3,1.7,2.7
		c0,0.2,0,0.4,0,0.7c0.3-0.1,0.5-0.2,0.8-0.3c0.7,0.7,1.5,1.5,2.2,2.3c0.2,0.2,0.2,0.5,0.3,0.8c0,0.8,0,1.7-0.1,2.5
		c0,0.2-0.4,0.5-0.6,0.6c-0.9,0.4-1.9,0.8-2.8,1.2c-0.4,0.2-0.6,0.4-0.6,0.9c0,0.8,0,1.6,0,2.5c0,0.5,0.1,0.9,0.5,1.3
		c0.2,0.2,0.3,0.3,0.5,0.5c0.5,0.8,1.1,0.9,2,0.7c0.3-0.1,0.6-0.1,1.1-0.1c0,1.2,0,2.3,0,3.4c0,0.5,0.1,0.8,0.6,1
		c0.4,0.2,0.8,0.5,1.2,0.7c0.8,0.4,1.5,0.9,1.6,1.9c0,0.2,0.3,0.4,0.5,0.5c0.3,0.2,0.6,0.3,1,0.4c-0.4,0.8-0.9,1.5-1.3,2.2
		c-0.1,0.2-0.1,0.6,0,0.8c0.6,1.1,0.2,2.4-1,2.7c-1.5,0.4-2.5,1.5-3.7,2.1c-0.1,0.1-0.2,0.3-0.3,0.5c-0.1,0.9-0.7,1.3-1.4,0.8
		c-1-0.8-1.8-0.4-2.8,0c-0.5,0.2-1.1,0.5-1.8,0.7c0.4,0.9,0.8,1.8,1.3,2.6c0.2,0.3,0.7,0.4,1.1,0.5c0.4,0.1,0.6,0.4,0.7,0.8
		c0.1,0.8,0.2,1.5,0.3,2.3c0,0.2,0.2,0.5,0.4,0.6c0.7,0.4,1.4,0.8,2.1,1.1c0.4,0.2,0.9,0.1,1.4,0.1c1.2-0.2,1.7,0.2,1.9,1.4
		c0,0.3,0.1,0.7,0.1,1c-0.1,0.9,0.3,1.4,1.1,1.7c0.6,0.2,0.6,0.6,0.5,1.1c-0.5,0.1-1.1-0.1-1.6,0.5c-0.6,0.7-0.9,1.3-0.6,2.2
		c0.1,0.2-0.1,0.5-0.3,0.7c-0.6,0.8-1.3,1.4-1.8,2.2c-0.5,0.8,0.1,1.9,0.9,2.2c0.4,0.2,0.8,0.4,1.2,0.7c0,0.1-0.1,0.1-0.1,0.2
		c-0.4,0.1-0.8,0.2-1.3,0.3c0,0.7,0,1.3,0,2c0,0.1,0.1,0.3,0.3,0.4c0.2,0.2,0.4,0.3,0.7,0.4c1,0.4,1.6,1.1,1.4,2.3
		c-0.1,0.5,0.2,0.6,0.6,0.6c1.3,0.2,2.6,0.3,3.8,0.8c0.8,0.3,1.4,0.9,2,1.5c1.1,1,2.3,1,3.5,0.6c1.3-0.4,2.5-0.9,3.8-1.3
		c0.6-0.2,1.3-0.3,1.9-0.3c0.2,0,0.5,0.1,0.5,0.2c0.4,1.1,1,2.3,1.1,3.5c0.1,0.8-0.3,1.8-0.6,2.7c0,0.1-0.3,0.2-0.4,0.2
		c-0.3,0.1-0.7,0.2-1,0.3c-1,0.3-1.1,0.3-0.8,1.3c0.2,0.7-0.2,1-0.6,1.3c-1.2,1.1-1.1,0.6-0.5,2c0.2,0.4,0.4,0.9,0.6,1.3
		c-0.7,0.8-2.3,0.8-2,2.4c-0.2,0-0.4,0.1-0.5,0.1c-1.1-0.2-2,0.2-2.7,1.1c-0.8,1-1.8,1.1-2.9,1.1c-0.5,0-0.8,0.2-0.8,0.8
		c0,0.9,0,1.8,0,2.8c-0.9-0.5-1.4-0.1-1.9,0.5c-0.1,0.1-0.4,0.1-0.7,0.1c-0.5-0.1-1.1-0.2-1.8-0.3c0,0.7,0.1,1.3,0,1.8
		c-0.1,0.4-0.3,0.9-0.5,1.3c-0.8,1.4-2.1,1.9-3.6,1.9c-0.7,0-1.1,0.2-1.2,1.1c0,1.2-0.7,2-1.7,2.6c-0.3,0.2-0.6,0.3-0.8,0.6
		c0.7,0,1.3,0,2.1,0c0,0.9,0,1.7,0,2.5c0,0.1-0.1,0.3-0.2,0.3c-0.7,0.3-1.4,0.9-2.3,0.4c-0.5-0.3-0.9-0.2-1.2,0.4
		c-0.1,0.2-0.5,0.3-0.7,0.4c-0.4,0.1-0.8,0-1.2,0c-0.9,0-1.5,0.5-1.6,1.4c-0.1,0.9-0.1,0.9-0.9,1.3c-0.6-0.9-1.7-1.1-2.7-1.2
		c-0.5-0.1-1.3,0.4-1.5,0.9c-0.2,0.4,0.1,1.1,0.2,1.6c0,0.1,0.2,0.2,0.4,0.5c-0.8,0-1.4-0.1-2-0.1c0.3-0.4,0.5-0.8,0.8-1.2
		c0-0.1-0.1-0.2-0.1-0.3c-1.2-0.1-2.4-0.4-3.5-0.2c-0.9,0.2-1.7,1-2.6,1.5c-0.4,0.2-0.8,0.2-1.3,0.2c-0.2,0-0.4-0.3-0.6-0.5
		c0,0,0-0.1,0-0.1c-0.1-1.3-0.7-2-2-2.3c-0.2,0-0.4-0.1-0.5-0.3c-1.1-1.2-2.6-1.5-4.1-1.6c-1.4-0.1-2.9,0-4.4,0
		c0.3-0.6,0.6-1.2,1-1.9c-0.8-0.1-1.5-0.1-2.4-0.2c0.4-0.3,0.7-0.6,1-0.9c0.7-0.4,0.7-0.9,0.2-1.6c-2.4,1.2-4.9,0.4-7.4,0.5
		c-0.4,0-0.6-0.1-0.8-0.5c0-0.1-0.1-0.2-0.1-0.3c-0.3-1.3-1.4-1.7-2.5-2.1c-0.2-0.1-0.4,0-0.5,0.1c-0.4,0.3-0.7,0.6-1.2,1
		c0.7,0.6,1.3,1.2,1.9,1.8c-2.3,0.8-5.8,0.7-8.2-0.3c0.7-1.6,0.7-1.6,2.5-1.8c-0.3-0.6-0.7-1-1.4-1c-3.6-0.1-7.3-0.3-10.9-0.4
		c-0.1,0-0.3,0-0.5,0c0-0.6,0-1.1,0-1.7c0-0.2-0.3-0.3-0.4-0.5c0,0-0.1,0-0.2,0c-1.9-0.5-3.4,0.2-4.9,1.4c-2.4,2-4.9,3.9-7.4,5.8
		c0,0-0.1,0.1-0.1,0.1c-0.7,1.3-1.9,1.4-3.1,1.3c-0.6-0.1-1.2,0-1.4,0.8c0,0.2-0.3,0.3-0.6,0.4c-1,0.3-2.1,0.6-3.1,1
		c-0.2,0.1-0.5,0.3-0.5,0.5c0.1,1.4-0.8,2.1-1.8,2.9c-0.4,0.3-0.8,0.6-1.2,0.9c-0.6-0.6-1.2-1.1-2-1.9c-0.3,0.7-0.8,1.4-0.6,1.8
		c0.3,0.8,0.8,1.9,2.2,1.4c0,0.4,0,0.6,0,0.9c0,2.2,0,4.4,0,6.7c0,2.8,0.2,5.6,0.2,8.4c0,0.5,0.2,0.8,0.7,1
		C214.3,286.2,215,287.5,214.7,289.1z"/>
</g>
<path class="st5" d="M42.9,207.8c4.9,4.8,5,12.7,0.2,17.6l0,0l-0.2,0.2c-4.9,4.9-12.9,5-17.8,0.1s-5-12.9-0.1-17.8
	C29.9,202.9,37.9,202.9,42.9,207.8L42.9,207.8z M38.8,221.5c1.3-1.2,2-3,2-4.8c0.1-1.8-0.7-3.5-2-4.7c-1.3-1.3-3-2-4.9-1.9
	c-3.6-0.1-6.6,2.9-6.7,6.5v0.1c0,1.8,0.7,3.5,1.9,4.8c1.2,1.3,2.9,2,4.7,2C35.7,223.6,37.5,222.8,38.8,221.5z M67.6,209.4L35,260.1
	c-0.5,1-1.6,1.7-2.8,1.6c-1.8-0.1-3.4-1.6-3.4-3.4c0.1-0.7,0.3-1.4,0.6-2l32.7-50.7c0.5-1,1.6-1.7,2.8-1.6c1,0,1.8,0.3,2.5,1
	c0.7,0.6,1,1.6,1,2.5C68.3,208.1,68.1,208.8,67.6,209.4L67.6,209.4z M54.1,258c-4.9-4.9-4.9-12.9,0-17.8l0.1-0.1
	c2.3-2.3,5.5-3.6,8.8-3.7c7-0.1,12.6,5.5,12.7,12.5s-5.5,12.6-12.5,12.7C59.8,261.8,56.5,260.4,54.1,258z M58.2,244.4
	c-2.7,2.5-2.7,6.7-0.2,9.4l0.1,0.1l0.1,0.1c2.6,2.6,6.8,2.7,9.4,0.1c1.4-1.3,2.1-3.1,2-5.1c-0.1-3.6-3-6.4-6.6-6.6
	C61.2,242.4,59.5,243.1,58.2,244.4L58.2,244.4z"/>
<g>
	
		<ellipse transform="matrix(0.6003 -0.7998 0.7998 0.6003 -72.6191 257.0103)" class="st6" cx="220.8" cy="201.2" rx="27.1" ry="49.4"/>
	<ellipse transform="matrix(0.6165 -0.7874 0.7874 0.6165 -69.6193 252.0934)" class="st7" cx="224" cy="197.5" rx="24" ry="49.4"/>
	
		<ellipse transform="matrix(0.6165 -0.7874 0.7874 0.6165 -69.6193 252.0934)" class="st8" cx="224" cy="197.5" rx="19.2" ry="39.5"/>
	<path class="st6" d="M210.4,194.7c-0.6,2.5,2.5,6.5,6.5,9.1c2.5,1.5,5.1,2.1,6.6,1.5l0.9-0.3l1,1c1,1,2.2,2,3.6,2.7
		c4,2.5,7.8,2.4,8.2-0.1l0.1-0.9l4.2,2.7c0.9,0.6,1.7,0.6,1.8,0c0.1-0.6-0.6-1.4-1.4-2l-4.2-2.7l0.7-3.4l4.2,2.7
		c0.9,0.6,1.7,0.6,1.7,0c-0.1-0.9-0.7-1.5-1.4-2l-4.2-2.7l0.6-2.7c0.1-0.6-0.6-1.4-1.4-2s-1.7-0.6-1.7,0l-0.6,2.7l-20-12l0.6-2.7
		c0.1-0.6-0.6-1.4-1.4-2c-0.9-0.6-1.7-0.6-1.7,0l-0.6,2.7l-4.2-2.7c-0.9-0.6-1.7-0.6-1.8,0c-0.1,0.6,0.6,1.4,1.4,2l4.2,2.7l-0.7,3.6
		l-4.2-2.7c-0.9-0.6-1.7-0.6-1.7,0c0.1,0.9,0.7,1.5,1.4,2l4.2,2.7L210.4,194.7z M235.1,200.6l-1.2,6.2c-0.3,1.4-2.4,1.4-4.6,0.1
		c-2.4-1.3-4-3.9-3.9-5.2l1.2-6.2L235.1,200.6z M215.1,188.5l8.3,5.1l-1.4,8.1c-0.3,1.4-2.4,1.4-4.6,0.1c-2.2-1.3-4-3.7-3.9-5.2
		L215.1,188.5z"/>
</g>
<g>
	
		<ellipse transform="matrix(0.5509 -0.8346 0.8346 0.5509 72.5381 360.9962)" class="st9" cx="371.7" cy="113.1" rx="42.1" ry="20.4"/>
	
		<ellipse transform="matrix(0.5509 -0.8346 0.8346 0.5509 73.5905 358.0559)" class="st10" cx="369.5" cy="110.7" rx="41.3" ry="18.9"/>
	
		<ellipse transform="matrix(0.5509 -0.8346 0.8346 0.5509 73.5905 358.0559)" class="st11" cx="369.5" cy="110.7" rx="33.1" ry="15.2"/>
	<path class="st12" d="M374,104.4l5.8-7.1c-0.8-0.5-1.5-0.9-2.2-1.5c-0.4-0.3-0.8,0-1.2,0.7c-2,2.2-3.8,4.5-5.7,6.9
		c-1.2,1.5-2.1,2.1-3.1,2.1c-1.3,0.1-1.5,0.2-2.6,2.4l1.9-0.2c-2,2.5-4,4.6-5.8,7l7.9,5.2c0.2,0.1,0.4,0.1,0.7-0.3
		c0.9-1.1,1.9-2.1,3-3.3l-5.4-3.6c1.1-1.3,2.1-2.4,3.1-3.8c1.2-1.6,2.1-2.2,3.2-2.2c1.3,0,1.4-0.2,2.6-2.4L374,104.4z"/>
</g>
<g>
	<ellipse class="st13" cx="358.9" cy="261.7" rx="26.6" ry="30.5"/>
	<ellipse class="st14" cx="355.7" cy="260.7" rx="25.6" ry="29.6"/>
	<ellipse class="st13" cx="355.7" cy="260.7" rx="20.5" ry="23.7"/>
	<path class="st14" d="M360.2,247c2.8,0,4.8,2.3,5,5.6c0.1,3-1.9,5.5-4.3,5.9c-0.3,0.1-0.8,0.1-1,0.1c-1.1-0.1-2.1,0.7-2.2,1.8v0.3
		c0,1.3,0.8,2.3,2,2.2c2.5-0.1,4.6,1.7,5.1,4.4c0.6,2.1-0.1,4.3-1.7,5.8c-1.3,1.5-3.5,1.8-5.1,0.8c-1.9-0.9-2.8-2.6-3-5
		c-0.1-1.1,0.1-2.2,0.6-3.3c0.4-0.8,0.2-1.9-0.4-2.5c-0.6-0.6-1.4-0.8-2.1-0.3c-0.3,0.2-0.6,0.4-0.8,0.8c-1.3,2.1-3,2.9-5.1,2.4
		c-2.1-0.5-3.5-2.1-3.9-4.6c-0.7-3.5,2.1-7.1,5.2-6.8c2,0.1,3.5,1.3,4.4,3.5c0.3,0.9,1.2,1.4,2.1,1.2c0.1,0,0.1,0,0.1-0.1
		c0.1-0.1,0.1-0.1,0.3-0.1c1-0.6,1.4-1.9,0.8-3c-0.5-1-0.8-2-0.9-3C355.1,249.7,357.3,247,360.2,247z"/>
</g>
<g>
	<path class="st15" d="M65.3,15.2c1.9,0.5,3.9,1.1,5.7,1.9l0.4,0.1c0.2,0.2,0.5,0.4,0.8,0.5l0.2,0.1c0.4,0.8,1.6,1.2,2.4,1.9
		c0.5,0.4,0.4,0.9,1.2,1c0.5,1.1,1.5,2.3,2,3.6c-0.1,0.1,0,0.2,0.1,0.3h0.1c0.1,0.8,0.2,1.6,0.5,2.4c0,0-0.4,0.1-0.1,0.2
		c-0.1,2-0.6,4-1.4,5.9c-1,1.2-1.7,3.1-3,4.3c-9.8,12.7-43.3,19.2-51.8,4.3c0.1-0.2-0.3-0.2-0.3-0.5s0.2-0.4-0.1-0.5
		c-0.9-0.9-0.5-3.5-0.8-4.4c0.1-0.3,0.1-0.6,0-0.9c0.2-0.5,0.2-1.1,0.6-1.5c0.3-1.2,0.7-2.3,1.2-3.4c0.3-0.3,0.5-0.6,0.7-1
		c1.4-2,3-3.7,4.9-5.2c0.1-0.4,0.8-0.4,0.7-0.9c0.1,0.1,0.2,0,0.3-0.1v-0.1c2.1-1.4,4.7-2.9,7-4.3c0.2,0,0.5-0.1,0.6-0.3
		c3.9-1.5,8-2.8,12.1-3.7c0.5,0.1,1.1,0,1.5-0.3c1.2,0,2.4-0.1,3.6-0.4c0.2,0,0.4,0.2,0.5-0.1c1.1,0.3,2.5-0.1,3.7,0.1
		c0.3-0.3,0.7,0.2,1-0.2c0.2,0.1,0.2-0.1,0.4-0.1c0.1,0.5,0.5,0.2,0.8,0.2C62.1,15,63.6,14.6,65.3,15.2z M72.4,33.4
		c5.6-9.3-3.9-15.2-11.8-16.1c-20-2.1-39.9,12.3-33.6,22.9c3,5.9,11,6.8,17.1,7.1c10.6-0.7,22.1-4.3,28.2-13.5L72.4,33.4z"/>
	<path class="st16" d="M72.3,33.8c-6.1,9.3-17.7,12.8-28.2,13.5C38.1,47,30,46.1,27,40.2c-0.5-3,0.1-6,1.7-8.6
		c5.1-6.8,12-9.3,19.1-11.5c3.5-0.2,7.4-1.3,11-0.6c7.5,0.1,17,5.2,13.6,13.8C72.2,33.3,71.9,33.7,72.3,33.8z M50.4,26.7
		C50.7,26.8,50.6,26.2,50.4,26.7c-4.3,0.2-8.5,0.7-12.9,1.1l5.4,6.7c0.4-1.6,0.6-3.4,0.9-4.9C46.1,28.7,48.2,27.8,50.4,26.7z
		 M54.7,26.1c-3.1,0.9-6.3,2.7-9.5,3.9c-0.3,0.9-0.5,1.9-0.6,2.9c-0.3,1.2-0.5,2.4-0.7,3.6c0.2,0.2,0.4-0.1,0.6,0
		c6.3-0.3,12.9-0.5,19.3-1.1C60.9,32.4,58,28.7,54.7,26.1z"/>
	<path class="st16" d="M79.3,28.4l-0.1,0.2c0,1.2,0.2,2.4,0.6,3.6c-0.2,0.5,0.1,1.1-0.2,1.6c0.1,1.9-1,3.7-1.6,5.6
		c-1.5,2-3.1,4-4.9,5.8c-0.1,0-0.2,0-0.2,0.1v0.1c-1.2,0.6-2.4,2.1-3.8,2.7c-1.2,0.9-2.8,1.2-3.6,2.3c-0.1-0.1-0.2,0-0.3,0.1v0.1
		c-0.4-0.2-0.8,0-1,0.4c-0.1,0-0.2,0-0.3,0.2c-0.4-0.2-0.8,0-1,0.4c-0.1-0.1-0.2,0-0.3,0.2c-0.1-0.1-0.2,0-0.3,0.1V52
		c-0.3-0.1-0.5,0-0.7,0.2l0,0c-0.5-0.1-0.6,0-0.8,0.5c-3.2,0.7-6.6,1.9-10,2.5c-0.8,0.1-2.5-0.1-3.1,0.5c-1.5-0.3-3.4,0.3-5.1-0.1
		c-0.4,0.3-0.8-0.2-1.1,0.1c-4-0.5-8.1-1.1-11.6-3c-1.2-0.6-2.4-1.8-3.7-2.4c0-0.5-0.5-0.7-1-1.2c-1.5-2.1-2.4-4.6-2.6-7.2
		c9.4,15.6,43.1,7.4,51.7-4.5c1.3-1.1,2.1-2.9,3-4.3c0.8-1.9,1.3-3.9,1.4-5.9c0.5,0.3,0.3,0.9,0.4,1.3L79.3,28.4z"/>
	<path class="st17" d="M72.4,33.4c3.4-9-6.6-13.6-13.6-13.8c-3.6-0.7-7.4,0.4-11,0.6c-7.6,2.2-14.4,5.2-19.1,11.5
		c-1,1.8-1.7,3.8-2,5.8c-0.1,1,0.5,1.7,0.2,2.8c-2.5-3.9-0.6-8.5,2.1-11.9c7.9-9.1,21.7-12,31.5-11C71.3,18.7,77.1,25.9,72.4,33.4z"
		/>
	<path class="st17" d="M72.3,33.8c-0.1,0-0.2-0.2-0.2-0.3s0.2-0.2,0.3-0.2L72.3,33.8z"/>
	<path class="st15" d="M54.8,26.1c3.2,2.6,6,6.2,9.2,9.2c-6.2,0.6-12.9,0.8-19.3,1.1c2-1.7,5.4-3,7.9-4.3
		C53.3,30.2,54,28.2,54.8,26.1z"/>
	<path class="st18" d="M54.8,26.1c-0.7,2-1.5,3.9-2.2,6.1c-2.5,1.3-5.7,2.5-7.9,4.3c-0.2-0.1-0.4,0.3-0.6,0c0.2-1.2,0.4-2.4,0.7-3.6
		c0.1-1,0.3-2,0.6-2.9C48.4,28.9,51.7,27,54.8,26.1z"/>
	<path class="st15" d="M50.4,26.8l-6.6,2.8c-0.3,1.4-0.5,3.2-0.9,4.9l-5.4-6.7C41.9,27.5,46.1,26.9,50.4,26.8z"/>
</g>
</svg>
