<svg xmlns="http://www.w3.org/2000/svg" viewBox="0 0 300.26 300.26"><defs><style>.a{fill:#bfa161;}.b{fill:none;}</style></defs><path class="a" d="M185.91,225.08a46.33,46.33,0,0,0,32.9,13.59H219a46.59,46.59,0,0,0-.22-93.17h0a46.56,46.56,0,0,0-32.83,79.58Zm53.27-68.81a41.91,41.91,0,0,1,17.53,19.6l.16.36-15.28,12.14,0-1.09c.23-6.4-.25-9.29-1.79-10.68-1.23-1.11-3.3-1.35-7.15-.82l-.8.11L238.65,156Zm-28.12-4.65a38.79,38.79,0,0,1,22.23,1.94l.45.17-2,5.84c-1.51,4.44-3,8.81-4.52,13.17-1.07,3.08-.9,5.08.59,6.92,1.78,2.18,4.08,2.68,7.69,1.66l.43-.12.17.41a5.52,5.52,0,0,1,0,3.66,12.64,12.64,0,0,0-.26,1.28c-.33,2.85.6,4.88,2.82,6.2a5.58,5.58,0,0,0,6.76-.56c1.55-1.21,3.09-2.45,4.62-3.69s3-2.46,4.55-3.65a8.93,8.93,0,0,0,.73-.65,4.43,4.43,0,0,1,2.72-1.51l.39,0,.12.37c3,9.32,1.45,20.2-4.21,29.84s-14.43,16.32-23.66,18.18l-.47.1-.11-.48a9.07,9.07,0,0,1,.23-4c.11-.5.22-1,.28-1.51a9,9,0,0,0-10.15-10.59c-2.74.25-4.75.18-5.68-1s-.56-3.2.38-6.06c2.46-7.55,1.85-9.53-4.39-14.11-2.32-1.71-2.82-3.67-1.6-6.34,2.21-4.82,4.39-9.74,6.51-14.5l1.65-3.71c3.54-8,2.26-11.56-5.49-15.41a2.18,2.18,0,0,1-.56-.48l-.47-.48-.68-.66Zm-32.3,30.58c3.37-12.34,10.56-21.24,22-27.23l.2-.1.21.08,3,1.18c2.33.89,4.74,1.82,7.09,2.82a4.14,4.14,0,0,1,2.41,2.21,5.05,5.05,0,0,1-.44,4c-2.84,6.3-5.57,12.48-8.6,19.32-2.76,6.26-1.79,9.8,3.69,13.53,2.78,1.89,3.47,4,2.25,6.87a23.66,23.66,0,0,0-1.41,4.38,8.9,8.9,0,0,0,10.28,10.94c2.78-.39,4.26-.19,5.13.71s1,2.39.5,5.14c-.11.58-.18,1.17-.26,1.76a14.64,14.64,0,0,1-1.32,5.12l-.13.24-.27,0a42,42,0,0,1-4.32.22,40.8,40.8,0,0,1-21.68-6.25l-.21-.12,0-.25a13.22,13.22,0,0,1,.91-5.63c.12-.37.23-.74.34-1.11,1.38-4.65.73-8.48-2-11.72a11.63,11.63,0,0,1-2.43-11.64,9.41,9.41,0,0,0-.71-7.44,11,11,0,0,0-7-4.92c-1.43-.36-2.9-.66-4.46-1l-2.36-.49-.52-.11Zm-.67,6.37h1a6.66,6.66,0,0,1,1.41,0c4.41.74,6.42,1.28,7.41,2.75s.75,3.54-.16,7.67c-.83,3.82.17,7.34,3.07,10.76,3,3.58,3.36,7.41,1,12l-.26.5-.47-.31c-8.89-6-15.37-22.35-13.09-33Z"/><path class="a" d="M126,120.48c.21-.21.41-.44.62-.67a6.5,6.5,0,0,1,3.19-2.26l.28-.08,5.49,5.51c4.08,4.1,8.19,8.24,12.31,12.36,3.61,3.61,4,3.61,7.51.06l17.66-17.64q14.2-14.19,28.43-28.38c.19-.19.37-.39.56-.6a8.38,8.38,0,0,1,3.49-2.52l.32-.12.23.25c.5.56,1,1.15,1.52,1.75,1.2,1.39,2.43,2.82,3.8,4.12,1.12,1.07,2.25,1.52,3.17,1.26A3.22,3.22,0,0,0,216.51,91c3.25-11.7,6.42-23.54,9.43-35.2a2.66,2.66,0,0,0-3.57-3.57c-12.42,3.23-23.93,6.32-35.2,9.45a3.24,3.24,0,0,0-2.49,1.93c-.26.91.2,2,1.27,3.17,1.31,1.38,2.73,2.61,4.1,3.8q.88.75,1.68,1.47l.39.35-40.84,40.83-.35-.3c-.08-.08-.2-.17-.33-.28-.38-.32-.9-.75-1.38-1.23q-3-3-6.08-6.08c-3.55-3.56-7.22-7.23-10.86-10.82-1.18-1.16-2-1.74-2.8-1.74s-1.61.58-2.77,1.74c-15.14,15.07-30.93,30.83-46.93,46.84-2.46,2.46-2.45,3.23.08,5.85,1.76,1.83,3.6,3.64,5.38,5.39l.71.71c3.29,3.24,3.9,3.23,7.28-.15q6-6,12-12Q115.63,130.82,126,120.48ZM93.21,145.76a12.43,12.43,0,0,0-1.27,1.57,13.52,13.52,0,0,1-1.45,1.79l-.26.25-.32-.17a10.8,10.8,0,0,1-3.27-2.74,7.06,7.06,0,0,0-1-1l-.48-.34L130.28,100l8.12,8.12q1.65,1.64,3.29,3.29c2.32,2.33,4.64,4.66,7,7,2.54,2.49,3.41,2.5,5.85.07,15-15,28.9-28.85,42.43-42.44,2.31-2.32,2.31-3,0-5.59-.32-.36-.67-.69-1-1a11.13,11.13,0,0,1-2.63-3.25L193,65.6l26.64-7.12-6.9,26-.29.07a2.42,2.42,0,0,1-2.62-1.17,6,6,0,0,0-.4-.46c-2.29-2.21-3.55-3.42-4.56-3.42h0c-1,0-2.31,1.3-4.62,3.61q-15.39,15.39-30.77,30.8c-4.21,4.2-8.41,8.41-12.71,12.73l-5.06,5.07L134.32,114.3c-2.39-2.4-3.71-3.72-4.81-3.72h0c-1.1,0-2.47,1.37-4.94,3.84L118,121C109.84,129.09,101.44,137.48,93.21,145.76Z"/><path class="a" d="M151.82,187.31,152,187c4.67-6.38,4.67-8.49,0-15.05l-.2-.29.2-.29c4.39-6.16,4.49-10.17.36-14.3-3.34-3.33-9-5.31-15.21-5.31H137c-6.24,0-11.92,2.09-15.21,5.47-3.57,3.67-3.89,8-.92,12.12a4.6,4.6,0,0,0,.48.53,2.75,2.75,0,0,1,1.06,2.07v.19l-.12.14c-2.06,2.3-3.43,4.41-3.44,7.2s1.44,5.05,3.61,7.42l.28.31-.25.33c-4.88,6.38-4.9,8.52-.18,15.28l.21.29-.21.29c-4.73,6.4-4.72,8.53.09,15.15l.22.31-.23.29-.51.63c-.37.46-.75.93-1.1,1.42-2.77,3.88-2.56,8,.61,11.56s9.29,5.89,16,5.88,12.49-2.28,15.69-6a8.76,8.76,0,0,0,.69-11.28,4.7,4.7,0,0,0-.6-.69,3.5,3.5,0,0,1-1.21-2.14l0-.21.14-.17c1.74-2,3.43-4.21,3.45-7.23s-1.72-5.4-3.59-7.42l-.28-.31.25-.33c4.81-6.41,4.84-8.56.17-15.3Zm-25.37-27.18c5.15-4.06,16.11-4.08,21.32,0q2.41,1.88,2.36,3.89c0,1.34-.93,2.62-2.66,3.8a17.89,17.89,0,0,1-10.06,2.84h0c-4.72-.06-8.07-1-10.86-3-1.57-1.14-2.38-2.37-2.4-3.65S124.89,161.35,126.45,160.13Zm-2,33.93c1.3-2.86,3.25-4,5.78-3.35a27.33,27.33,0,0,0,13.71,0c2.53-.66,4.43.41,5.82,3.25,1.28,2.65-1.11,4.34-2.26,5.15-3.4,2.4-7.29,2.79-10.29,2.86h0c-4.46-.08-7.65-.95-10.35-2.81C125.67,198.37,123.25,196.71,124.45,194.06Zm.11,15.43c.92-1.71,2.49-3.89,5.54-3.11a28.52,28.52,0,0,0,14.1,0c3.06-.76,4.61,1.45,5.5,3.17,1.4,2.67-1,4.38-2.1,5.2-3.48,2.51-7.57,2.89-10.74,2.94h0c-3-.11-6.9-.55-10.22-3C125.48,213.88,123.13,212.16,124.56,209.49Zm23.09,20.9c-2.8,2-6.2,3-10.69,3h0c-4.3-.08-7.58-1-10.31-2.94-1.06-.75-3.53-2.49-2.14-5.2.52-1,2.08-4,5.51-3.18a28.72,28.72,0,0,0,14.12,0c3-.78,4.62,1.39,5.55,3.09C151.15,227.88,148.7,229.64,147.65,230.39Zm.29-47.28c-3.41,2.64-7.38,3.09-10.82,3.19h0c-3.35-.14-7.22-.6-10.48-3-1.12-.83-3.46-2.56-2-5.23.91-1.69,2.49-3.84,5.55-3.06a28.52,28.52,0,0,0,14.1,0c3-.75,4.58,1.45,5.5,3.17C151.09,180.67,148.8,182.45,147.94,183.11Z"/><path class="a" d="M90.06,238.67h.12c6.43,0,12.22-2.16,15.49-5.71s3.57-7.81.71-11.86a4.31,4.31,0,0,0-.51-.56,2.69,2.69,0,0,1-1-1.92v-.18l.11-.14c4.7-6.08,4.67-8.86-.13-14.85l-.24-.3.23-.31c2.82-3.73,3.88-7.32,3-10.38s-3.49-5.56-7.73-7.33a25.79,25.79,0,0,0-10-2.07,26.64,26.64,0,0,0-9.52,1.82c-4.47,1.71-7.32,4.24-8.23,7.31s.1,6.81,3,10.75l.25.35-.3.3c-4.78,4.75-4.76,9.76.08,14.89l.3.32-.28.34c-4.47,5.46-4.73,9.74-.85,13.89C77.81,236.56,83.62,238.67,90.06,238.67ZM79.28,191.58c5.22-4.21,16.55-4.17,21.65.08,1.44,1.21,2.15,2.45,2.12,3.68a4.73,4.73,0,0,1-2.26,3.51C98,201,94.49,202,89.78,202h0c-4.32-.11-7.57-1.06-10.24-3-1.61-1.15-2.44-2.39-2.48-3.68S77.76,192.8,79.28,191.58ZM101,214.37c-3.38,2.72-7.43,3.21-11,3.32h0c-3.39-.12-7.3-.57-10.67-3.13-1-.72-3.18-2.41-1.94-4.91.88-1.77,2.4-4,5.44-3.28a29.77,29.77,0,0,0,14.5,0c2.64-.65,4.12,1.15,5.22,3C104.09,211.9,101.77,213.76,101,214.37Zm-23.66,11c1.35-2.79,3.12-3.88,5.43-3.33a30.47,30.47,0,0,0,14.52,0c2.27-.54,4.09.59,5.41,3.37,1.19,2.52-1.07,4.18-2,4.89a17.63,17.63,0,0,1-10.33,3.09h0c-4.79-.08-8.18-1-11-3.11C78.45,229.64,76.11,227.93,77.35,225.38Z"/><rect class="b" width="300.26" height="300.26"/></svg>