<?xml version="1.0" encoding="utf-8"?>
<!-- Generator: Adobe Illustrator 24.3.0, SVG Export Plug-In . SVG Version: 6.00 Build 0)  -->
<svg version="1.1" id="Layer_1" xmlns="http://www.w3.org/2000/svg" xmlns:xlink="http://www.w3.org/1999/xlink" x="0px" y="0px"
	 viewBox="0 0 400 300" style="enable-background:new 0 0 400 300;" xml:space="preserve">
<style type="text/css">
	.st0{fill:none;}
	.st1{fill:#F3F2EF;}
	.st2{fill:#C98017;}
	.st3{fill:#FBED60;}
	.st4{fill:#FABA31;}
	.st5{fill:#68C2EE;}
	.st6{fill:#0491BE;}
	.st7{fill:#68C2EF;}
	.st8{fill:#31798F;}
	.st9{fill:#C1BDBE;}
	.st10{fill:#6E6E6E;}
	.st11{fill:#6C6C6C;}
	.st12{fill:#BCBCBC;}
	.st13{fill:#E1E1E1;}
	.st14{fill:#0A0A09;}
	.st15{fill:none;stroke:#000000;stroke-miterlimit:10;}
	.st16{clip-path:url(#SVGID_2_);fill:#0032A0;}
	.st17{clip-path:url(#SVGID_2_);fill:#FDFEFE;}
</style>
<rect y="16.6" class="st0" width="400" height="300"/>
<path class="st1" d="M45.4,22.4c7.2,7,7.3,18.5,0.3,25.7l0,0l-0.3,0.3c-7.2,7.2-18.9,7.3-26.1,0.1c-7.2-7.2-7.3-18.9-0.1-26.1
	c7.2-7.2,18.9-7.3,26.1-0.1L45.4,22.4z M39.4,42.4c1.9-1.8,2.9-4.4,2.9-7c0.1-2.6-1-5.1-2.9-6.9c-1.9-1.9-4.4-2.9-7.1-2.8
	c-5.3-0.1-9.7,4.2-9.8,9.5v0.2c0,2.6,1,5.1,2.8,7s4.3,2.9,6.9,2.9C34.9,45.4,37.5,44.3,39.4,42.4z M81.6,24.7L33.9,98.8
	c-0.8,1.5-2.4,2.5-4.1,2.4c-2.7-0.1-4.9-2.3-5-5c0.1-1,0.4-2,0.9-2.9l47.8-74.2c0.8-1.5,2.4-2.5,4.1-2.4c1.4,0,2.7,0.5,3.6,1.5
	c1,0.9,1.5,2.3,1.4,3.6C82.5,22.8,82.2,23.8,81.6,24.7L81.6,24.7z M61.8,95.8c-7.2-7.2-7.2-18.8,0-26l0.1-0.1
	c3.4-3.4,8.1-5.3,12.9-5.4c10.2-0.1,18.4,8.1,18.5,18.3S85.2,101,75,101.1C70.1,101.3,65.3,99.3,61.8,95.8z M67.8,75.8
	c-3.9,3.7-4,9.8-0.3,13.7l0.1,0.1l0.2,0.2c3.8,3.8,9.9,3.9,13.7,0.1c2-1.9,3-4.6,2.9-7.4c-0.2-5.2-4.4-9.4-9.6-9.6
	C72.2,72.9,69.7,74,67.8,75.8L67.8,75.8z"/>
<g>
	
		<ellipse transform="matrix(0.2051 -0.9787 0.9787 0.2051 19.4411 540.1841)" class="st2" cx="342.3" cy="258.1" rx="23.4" ry="42.6"/>
	
		<ellipse transform="matrix(0.225 -0.9744 0.9744 0.225 18.5419 531.4332)" class="st3" cx="343.3" cy="254.1" rx="20.7" ry="42.6"/>
	
		<ellipse transform="matrix(0.225 -0.9744 0.9744 0.225 18.5419 531.4332)" class="st4" cx="343.3" cy="254.1" rx="16.5" ry="34.1"/>
	<path class="st2" d="M331.8,256.9c0.5,2.2,4.4,4.1,8.4,4.6c2.6,0.2,4.7-0.2,5.7-1.2l0.6-0.5l1.1,0.4c1.1,0.4,2.4,0.7,3.8,0.9
		c4.1,0.5,6.9-1,6.3-3l-0.2-0.7l4.3,0.6c0.9,0.1,1.6-0.1,1.5-0.7c-0.1-0.5-1-0.9-1.8-1l-4.3-0.6l-0.7-2.9l4.3,0.6
		c0.9,0.1,1.6-0.1,1.3-0.6c-0.4-0.6-1.1-1-1.8-1l-4.3-0.6l-0.6-2.4c-0.1-0.5-1-0.9-1.8-1s-1.6,0.1-1.3,0.6l0.5,2.3l-20.1-2.1
		l-0.4-2.3c-0.1-0.5-1-0.9-1.8-1c-0.9-0.1-1.6,0.1-1.3,0.6l0.5,2.3l-4.3-0.6c-0.9-0.1-1.6,0.1-1.5,0.7c0.1,0.5,1,0.9,1.8,1l4.3,0.6
		l0.7,3l-4.3-0.6c-0.9-0.1-1.6,0.1-1.3,0.6c0.4,0.6,1.1,1,1.8,1l4.3,0.6L331.8,256.9z M353.3,252.4l1.3,5.2c0.2,1.2-1.3,1.9-3.5,1.8
		c-2.3-0.1-4.6-1.5-4.9-2.7l-1.3-5.2L353.3,252.4z M333.3,250.2l8.4,1l1.8,6.8c0.2,1.2-1.3,1.9-3.5,1.8s-4.5-1.3-4.9-2.7
		L333.3,250.2z"/>
</g>
<g>
	
		<ellipse transform="matrix(0.7396 -0.6731 0.6731 0.7396 -23.2161 242.6346)" class="st5" cx="301.9" cy="151.3" rx="59.9" ry="28.9"/>
	
		<ellipse transform="matrix(0.7396 -0.6731 0.6731 0.7396 -21.0227 240.1625)" class="st6" cx="299.8" cy="147.2" rx="58.6" ry="26.9"/>
	
		<ellipse transform="matrix(0.7396 -0.6731 0.6731 0.7396 -21.0227 240.1625)" class="st7" cx="299.8" cy="147.2" rx="47" ry="21.6"/>
	<path class="st8" d="M308.1,140.2l10.5-7.8c-1-1-1.8-1.8-2.5-2.9c-0.5-0.6-1-0.2-1.9,0.6c-3.5,2.4-6.9,4.9-10.3,7.5
		c-2.3,1.7-3.6,2.1-5.1,1.8c-1.8-0.3-2.1-0.3-4.4,2.5l2.7,0.5c-3.6,2.8-7.1,5-10.5,7.7l9,9.9c0.2,0.1,0.5,0.2,1-0.2
		c1.7-1.1,3.4-2.3,5.3-3.5l-6.2-6.9c2-1.4,3.8-2.6,5.6-4.1c2.3-1.8,3.7-2.3,5.2-1.9c1.8,0.5,1.9,0.2,4.4-2.5L308.1,140.2z"/>
</g>
<g>
	<ellipse class="st9" cx="66.4" cy="239" rx="37.9" ry="43.6"/>
	<ellipse class="st10" cx="61.8" cy="237.5" rx="36.6" ry="42.2"/>
	<ellipse class="st9" cx="61.8" cy="237.5" rx="29.3" ry="33.8"/>
	<path class="st10" d="M68.2,218c3.9,0,6.9,3.3,7.1,8c0.2,4.3-2.7,7.9-6.1,8.4c-0.5,0.1-1,0.2-1.5,0.1c-1.6-0.2-3,1-3.1,2.6v0.5
		c0,1.9,1.2,3.3,2.9,3.2c3.5-0.2,6.5,2.4,7.3,6.3c0.8,3-0.2,6.1-2.4,8.3c-1.8,2.1-4.9,2.6-7.3,1.2c-2.7-1.3-4.1-3.8-4.3-7.1
		c-0.1-1.6,0.2-3.2,0.9-4.6c0.6-1.2,0.3-2.6-0.6-3.6c-0.8-0.9-2-1-3-0.5c-0.4,0.3-0.8,0.6-1,1.1c-1.8,3-4.3,4.2-7.3,3.4
		c-3-0.7-4.9-3-5.6-6.6c-1-5,3-10.1,7.4-9.7c2.9,0.2,4.9,1.9,6.2,4.9c0.4,1.3,1.8,2,3,1.7c0.1,0,0.1,0,0.2-0.1
		c0.2-0.1,0.2-0.1,0.4-0.2c1.4-0.9,2-2.8,1.2-4.3c-0.7-1.4-1.2-2.9-1.3-4.4C60.9,221.7,64,218.1,68.2,218z"/>
</g>
<g>
	<path class="st11" d="M164.4,15.4c2.1,0.5,4.1,1.2,6.1,2.1l0.4,0.1c0.2,0.2,0.5,0.4,0.9,0.5l0.2,0.1c0.4,0.9,1.7,1.3,2.6,2.1
		c0.5,0.4,0.4,1,1.3,1.1c0.5,1.2,1.6,2.4,2.2,3.9c-0.1,0.1,0,0.2,0.1,0.4h0.1c0.1,0.9,0.2,1.7,0.5,2.6c0,0-0.4,0.1-0.1,0.2
		c-0.1,2.2-0.6,4.3-1.5,6.3c-1.1,1.3-1.8,3.3-3.2,4.6c-10.5,13.5-46.3,20.4-55.4,4.5c0.1-0.2-0.4-0.2-0.4-0.5s0.2-0.4-0.1-0.5
		c-1-1-0.5-3.8-0.9-4.7c0.1-0.4,0.1-0.6,0-1c0.2-0.5,0.2-1.2,0.6-1.6c0.4-1.3,0.7-2.4,1.3-3.6c0.4-0.4,0.5-0.6,0.7-1.1
		c1.5-2.2,3.2-3.9,5.2-5.6c0.1-0.4,0.9-0.4,0.7-1c0.1,0.1,0.2,0,0.4-0.1v-0.1c2.2-1.5,5-3.1,7.4-4.6c0.2,0,0.5-0.1,0.6-0.4
		c4.1-1.6,8.5-3,12.9-3.9c0.5,0.1,1.2,0,1.6-0.4c1.3,0,2.6-0.1,3.9-0.4c0.2,0,0.4,0.2,0.5-0.1c1.2,0.4,2.7-0.1,3.9,0.1
		c0.4-0.4,0.7,0.2,1.1-0.2c0.2,0.1,0.2-0.1,0.4-0.1c0.1,0.5,0.5,0.2,0.9,0.2C160.9,15.2,162.5,14.8,164.4,15.4z M172,34.9
		c6-10-4.1-16.2-12.6-17.1c-21.4-2.2-42.5,13.1-35.9,24.4c3.2,6.3,11.8,7.3,18.2,7.5c11.3-0.7,23.6-4.6,30.1-14.4L172,34.9z"/>
	<path class="st12" d="M171.9,35.3c-6.5,10-18.8,13.6-30.1,14.4c-6.4-0.4-15.1-1.3-18.2-7.5c-0.5-3.2,0.1-6.4,1.8-9.2
		c5.5-7.3,12.8-10,20.4-12.3c3.8-0.2,7.9-1.3,11.8-0.6c8,0.1,18.1,5.6,14.5,14.7C171.8,34.7,171.4,35.2,171.9,35.3z M148.5,27.7
		C148.8,27.8,148.7,27.2,148.5,27.7c-4.6,0.2-9.1,0.7-13.7,1.2l5.7,7.2c0.4-1.7,0.6-3.6,1-5.2C143.9,29.9,146.1,28.9,148.5,27.7z
		 M153,27.1c-3.3,1-6.7,2.9-10.1,4.1c-0.4,1-0.5,2.1-0.6,3.1c-0.4,1.3-0.5,2.6-0.7,3.9c0.2,0.2,0.4-0.1,0.6,0
		c6.7-0.4,13.7-0.5,20.6-1.2C159.7,33.8,156.6,29.9,153,27.1z"/>
	<path class="st12" d="M179.3,29.5l-0.1,0.2c0,1.3,0.2,2.6,0.6,3.9c-0.2,0.5,0.1,1.2-0.2,1.7c0.1,2.1-1.1,3.9-1.7,6
		c-1.6,2.2-3.3,4.3-5.2,6.2c-0.1,0-0.2,0-0.2,0.1v0.1c-1.3,0.6-2.6,2.2-4,2.9c-1.3,1-3,1.3-3.9,2.4c-0.1-0.1-0.2,0-0.4,0.1v0.1
		c-0.4-0.2-0.9,0-1.1,0.4c-0.1,0-0.2,0-0.4,0.2c-0.4-0.2-0.9,0-1.1,0.4c-0.1-0.1-0.2,0-0.4,0.2c-0.1-0.1-0.2,0-0.4,0.1v0.1
		c-0.4-0.1-0.5,0-0.7,0.2l0,0c-0.5-0.1-0.6,0-0.9,0.5c-3.4,0.7-7,2.1-10.7,2.7c-0.9,0.1-2.7-0.1-3.3,0.5c-1.6-0.4-3.6,0.4-5.5-0.1
		c-0.4,0.4-0.9-0.2-1.2,0.1c-4.3-0.5-8.6-1.2-12.4-3.2c-1.3-0.6-2.6-1.9-3.9-2.6c0-0.5-0.5-0.7-1.1-1.3c-1.6-2.2-2.6-4.9-2.8-7.7
		c10,16.7,46,7.9,55.2-4.8c1.3-1.2,2.2-3.1,3.2-4.6c0.9-2.1,1.3-4.1,1.5-6.3c0.5,0.4,0.4,1,0.4,1.3L179.3,29.5z"/>
	<path class="st13" d="M172,34.9c3.6-9.6-7-14.5-14.5-14.7c-3.9-0.7-7.9,0.4-11.8,0.6c-8.1,2.3-15.3,5.6-20.4,12.3
		c-1.1,1.9-1.8,4-2.2,6.2c-0.1,1.1,0.5,1.8,0.2,3c-2.7-4.1-0.6-9.1,2.2-12.7c8.4-9.7,23.1-12.8,33.6-11.8
		C170.8,19.2,177,26.8,172,34.9z"/>
	<path class="st13" d="M171.9,35.3c-0.1,0-0.2-0.2-0.2-0.4c0-0.2,0.2-0.2,0.4-0.2L171.9,35.3z"/>
	<path class="st11" d="M153.2,27.1c3.4,2.8,6.4,6.6,9.8,9.8c-6.6,0.6-13.7,0.9-20.6,1.2c2.2-1.8,5.7-3.2,8.4-4.6
		C151.6,31.4,152.3,29.3,153.2,27.1z"/>
	<path class="st14" d="M153.2,27.1c-0.7,2.2-1.6,4.1-2.3,6.5c-2.7,1.3-6.1,2.7-8.4,4.6c-0.2-0.1-0.4,0.4-0.6,0
		c0.2-1.3,0.4-2.6,0.7-3.9c0.1-1.1,0.4-2.2,0.6-3.1C146.4,30,149.9,28,153.2,27.1z"/>
	<path class="st11" d="M148.5,27.8l-7,3c-0.4,1.5-0.5,3.4-1,5.2l-5.7-7.2C139.4,28.5,143.9,27.9,148.5,27.8z"/>
</g>
<path class="st15" d="M-453.2-815.5h-0.7c0,0,0,0,0,0h615.7v0c-41,0-82,0-123,0C-125.2-815.5-289.2-815.5-453.2-815.5z"/>
<path class="st15" d="M-463.8-815.5c-0.2,0-0.3,0-0.4,0c-124.6,0-249.3,0-373.9,0c0,0,0,0,0,0H-463.8z"/>
<g>
	<g>
		<defs>
			<path id="SVGID_1_" d="M344.5,55.8c-0.3-1.3-1-2-2.1-2.8c-3.3-2.2-7.1-2.8-10.8-3.9c-1.1-0.3-2.2-0.6-3-1.6h-2.2
				c0.1,0.4-0.1,0.6-0.5,0.6c-1.9,0.2-3.6,1.2-5.4,1.8c0.3,1.1,0.4,2.1,0.7,3c0.2,0.8,0.9,1.2,1.7,1.3c1,0.2,1.3,1,1.8,1.8
				c1.2,1.9-0.4,3.7,0.3,5.5c0.4,1-0.9,2.5-2.2,2.8c-2.2,0.5-4.4,1-6.6,1.5c-1,0.2-2,0.2-2.8-0.4c-0.9-0.5-1.7-0.6-2.7-0.2
				c-2.8,1.2-5.6,1.5-8.6,1c-0.8-0.2-1.7,0-2.4,0.5c-0.4,0.3-1,0.5-1.4,0.4c-2-0.5-3.8,0.3-5.5,1c-1.7,0.7-3.4,0.5-5.1,0.5
				c-0.5,0-0.8-0.3-1.1-0.8c-0.4-0.7-0.9-1.4-1.6-1.7c-2.4-1-4.6-2.7-7.4-2.9c-0.7,0-1.4-0.3-2-0.5c-1.2-0.4-2.3-0.8-3.6-0.4
				c-0.9,0.3-1.8-0.2-2.8-0.4c-0.3,0.5-0.6,1-1,1.6c-0.3-0.1-0.7-0.1-0.8-0.3c-0.9-1.2-1.9-2.2-3.6-2c-0.1,0-0.3-0.3-0.4-0.3
				c-3.6,0.2-4-2.8-5-5.1c-0.1-0.2-0.2-0.4-0.3-0.7c-1.1,0.3-2.2,0.7-3.2,1c-0.7,0.2-1.4,0.4-2,0.3c-1-0.2-1.7-0.2-2.5,0.7
				c-0.6,0.7-1.3,0.4-1.9-0.3c-0.7-0.8-1.1-2.1-2-2.1c-0.9,0-1.8,0.8-2.7,1.3c-1,0.6-1.9,0.9-3,0.4c-0.6-0.3-1.3-0.2-1.9-0.1
				c-1.9,0.3-2.1,0.7-1.7,2.5c0,0.2,0,0.4,0,0.8c-1.1-0.2-2.1-0.3-3,0.5c-0.3,0.3-0.7,0-1-0.3c-0.5-0.6-0.9-1.1-1.7-2.1
				c-0.5,2.3-1.9,2.6-3.4,2.8c-0.9,0.1-1.7,0.3-2.4,1c-0.7,0.7-1.5,0.6-2.4,0.6c-1.1,0-2.1-0.1-3,0.8c-0.4,0.4-0.9,0.3-1.5,0.2
				c-1.8-0.2-3.6-0.4-5.4-0.7c-1.6-0.3-3.2-0.3-4.8,0.4c-0.6,0.3-1,0.2-1.6-0.2c-1.3-0.8-4.2,0-4.7,1.4c-0.3,0.8-0.8,1.1-1.5,1.3
				c-2.5,0.7-5,0.5-7.4,0c-3-0.7-5.9-0.9-9-0.4c-1.5,0.3-2.3,1-2.5,2.6c-0.2,1.5-0.3,3.1-1,4.6c-0.8-0.1-1.2-0.6-1.7-1
				c-0.1,0-0.2,0-0.3,0.1c-2.3,2.3-5,3.2-8.2,3c-0.8,0-1.6,0.1-2.2-0.6c-0.1-0.1-0.2-0.2-0.4-0.2c-2.8,0.1-5.3-1.5-8.1-1.5
				c-0.9,0-1.7,0.4-2.4,1c-0.9,0.8-1.9,1-2.9,0.2c-0.7-0.5-1.4-0.4-2.1-0.2c-1.5,0.6-3.1,1.2-4.7,1.8c-0.9,0.3-1.5,0.8-1.9,1.8
				c-0.6,1.2-2.1,2-3.2,2.9c-0.4,0.3-0.9,0.4-1,0.9c-0.3,1.5-1.4,1.5-2.5,1.4c-1.2-0.1-2.3,0.1-3,1c-0.9,1.2-2.1,1.2-3.4,1
				c-0.5-0.1-1.1-0.3-1.6-0.4c-3.1-1-6.1-1.2-9,0.8c-1.2,0.8-2.5,0.9-3.7-0.1c-0.3-0.3-0.7-0.5-1.2-0.2c-2.3,1.5-4.8,1.2-7.3,1.1
				c-0.5,0-1,0-1.5,0c-0.5,0-1,0.3-0.9,0.8c0.3,1.7-0.4,2.6-2.4,3.3c2,0.7,2.8,2.2,3.8,3.4c1.6,1.9,1.3,4.2-0.7,5.6
				c-0.7,0.5-1,1.2-1.4,1.9c-0.4,0.8-1,1.2-1.9,1c-0.6-0.1-1.2-0.1-1.8-0.1c-0.8-0.1-1.4,0.1-1.7,0.9c-0.3,0.8-0.8,1.1-1.6,0.6
				c-0.1,0.4-0.2,0.6-0.1,0.9c0.3,2.5-1.1,4.2-2.9,5.6c-0.9,0.7-1.5,1.5-0.9,2.7c0.3,0.5-0.1,0.9-0.4,1.2c-0.5,0.5-1,1.1-1.4,1.6
				c0.9,1.3,0.4,2.2-1.1,2.6c-1.9,0.5-3.7,0.9-5.7,0.6c-1.6-0.2-3,0.6-3.8,2.1c-0.4,0.8-1,1.1-1.9,1.1c-1.1,0-2.2,0-3.5,0
				c0.2,0.8,0.8,1,1.2,1.5c0.6,0.7,1.3,1.3,1,2.4c-0.2,0.5,0.3,0.9,0.7,1.3c0.8,0.9,1.8,1.6,2.3,2.9c-1.8,0.7-3.5-0.4-5.3,0
				c0.2,1.2,0.4,2.3,0.4,3.4c0,1.3-1,1.8-2.5,1.5c-1.5,2-2.2,2.1-4.9,0.8c-1.4-0.7-2.7-1.6-4.3-1.3v2c2.1,0.6,4.2,1.2,6.4,1.9
				c-1,1.2-1.4,2.4-0.9,3.9c0.5,1.5,1.8,1.9,2.9,2.6c-0.7,1.8-0.1,3.4,1.8,4.2c0.5,0.2,0.7,0.7,0.9,1.2c0.9,2.2,2.6,3.5,5,3.6
				c1.4,0.1,2.5,0.5,3.3,1.7c0.5,0.6,1.1,1.1,1.7,1.6c2,1.5,3.9,2.9,5.9,4.4c1.1,0.8,2.2,1.4,1.7,3.1c-0.2,0.8,0.5,1.6,1.1,2.2
				c0.9,1,1.2,2,0.5,3.4c-0.6,1.2-0.7,2.7,0.2,4c1.1,1.5,2.6,1.6,4.1,1.1c1.3-0.4,1.7,0.1,1.9,1.2c0.3,2,1.2,2.9,3.1,3.1
				c0.6,0.1,1,0.4,1.3,0.9c0.9,1.2,1.2,2.6,1.4,4c0.1,0.9,0.3,1.6,1.4,1.7c0.8,0.1,0.9,0.8,1.3,1.4c-0.3,0.3-0.9,0.4-0.5,1.1
				c0.5,0.8,0.6,1.8,0.6,2.8c-0.2,1.7,2.7,3.7,4.3,2.9c1.1-0.5,2.2-0.2,3.3-0.1c0.1-0.9,0.3-1.7,1.4-1.6c0.1,0,0.3-0.1,0.4-0.1
				c0.9-1.9,2-0.7,3.1-0.2c1.4,0.6,2.7,1.3,4,2c1.2,0.6,2.4,0.6,3.5-0.3c2.6-2,5.3-1.4,8.4-0.6c-1.6,2.1-2.9,4.1-4.8,5.6
				c-1,0.8-2.2,0.7-3.3,0.3c-1.1-0.3-2-0.9-3-1.4c-0.8-0.5-1.5-1.2-2.6-0.7c-0.5,0.2-1-0.2-1.4-0.5c-0.5-0.3-0.8-0.8-1.5-0.8
				c-0.5,1-0.3,2.1-0.2,3.1c0.2,2.3-0.7,4-2.5,5.2c-1.2,0.8-2.2,1.9-3.1,3c-0.7,0.8-1.4,1.1-2.4,0.7c-1-0.4-1.8,0-2,1.2
				c-0.7,4.4-1.1,3.5,2.6,5.5c1.2,0.6,2.4,1.3,3.6,1.8c1.4,0.6,1.8,1.6,1.6,3.1c-0.2,1.2-0.3,2.5-0.4,3.8c0.9,0,1.2-0.6,1.6-0.9
				c0.9-0.7,1.9-1.1,3-0.6c5.1,2.5,9.4,5.9,11.4,11.4c0.8,2.2,0.3,3.6-1.7,4.9c-0.5,0.3-0.9,0.6-1.4,0.9c-1.2,0.7-1.8,1.6-1.6,3
				c0.1,0.5,0,0.9,0,1.4c-0.2,2,0.2,3.5,2.1,4.5c1.2,0.6,1.7,1.8,1.3,3.1c0.5,0.5,0.9-0.2,1.5,0.1c-0.3,1.4-0.2,2.7,0.6,4
				c0.6,1,1.3,1.8,2.3,2.3c0.5,0.3,1,0.5,1.6,0.1c1-0.6,1.6-0.2,2.1,0.7c0,0,0,0.1,0.1,0.1c1.6,2.4,3.1,2.5,5,0.3
				c0.6-0.8,1.4-1,2.3-0.9c0.2-0.3,0.1-0.4-0.1-0.5c-2.6-1.7-1.8-4.4-1.8-6.9c0-0.7,0.6-1.1,1.2-1.4c1.9-1.1,4-0.9,6.1-0.6
				c0.1,0.5-0.3,0.9-0.3,1.4c-0.1,0.8-1.2,1.5-0.3,2.2c1,0.8,1.7,2.3,3.4,1.3c0.3-0.2,0.7-0.1,0.9,0.2c0.7,0.9,1.7,1.6,2.1,2.7
				c0.8,1.9,1.6,3.8,2.8,5.4c0.4,0.5,0.3,1.1,0.3,1.7c-0.2,1.7-0.3,3.5-0.3,5.3c0,1.8,0.4,2.2,2.2,2.4c0.7,0.1,1.3,0.4,1.6,1
				c0.4,1.1,1.3,1.9,2.2,2.5c0.4-0.2,0.9-0.3,1.3-0.5c-0.1-1.2-0.1-2.3,0.6-3.3c0.5-0.7,0.2-1.3-0.4-1.9c-0.8-0.7-0.9-1.7-0.8-2.7
				c0-0.2,0.1-0.6,0.2-0.6c1.4-0.1,2-1.9,3.8-1.5c-0.3-0.6-0.6-1.2-0.8-1.7c-0.3-0.5-0.5-1.1-0.9-1.7c0.9-0.7,1.7-1.4,2-2.5
				c0.2-0.7,0.9-1,1.7-1c1.3,0,2.5-0.1,3.8,0c1.8,0.1,3.2,1.9,2.8,3.7c-0.4,1.6,0.9,2.3,1.7,3.3c0.5-0.3,0.1-1,0.6-1.3
				c0.4,0.1,0.6,0.4,0.4,0.7c-0.7,1.1,0.1,1.5,0.9,1.9c0.8,0.4,1.5,0.9,1.9,1.8c0.8,1.4,1.9,2.3,3.6,2c1-0.2,1.2,0.6,1.5,1.3
				c1.4,2.7,5.5,3,7.4,0.6c-0.5-1.1-1.7-1.5-2.5-2.4c0.3-0.4,0.5-0.9,0.9-1.4c-1.2-0.6-2.4-1.2-3.6-1.8c-1.9-1-2.2-2.2-0.9-3.9
				c0.3-0.3,0.6-0.7,0.7-1c0.2-1.4,0.8-2.3,2.4-2.8c-2.8-1.9-3.8-4.5-4.6-7.4c-0.4-1.5-1-3-1.1-4.5c-0.1-1.2-1.1-2.1-1.7-3.1
				c-0.4-0.8-1.6-0.3-2.5-0.7c0.9-1.7-0.1-2.9-1-4.2c-0.3-0.4-0.4-0.8-0.8-1.2c-2.9-3.1-3.5-7.3-5.4-10.8c-0.2-0.4-0.3-0.8,0.1-1.1
				c0.4-0.3,0.7,0,1,0.1c0.6,0.3,1.1,0.6,1.3,1.2c0.3,1,1,1.2,2,1.1c0.2,0,0.5,0,0.7-0.1c2.3-0.8,4-0.1,4.9,2.2
				c0.3,0.6,0.9,0.6,1.4,0.6c1,0,2,0,3.1,0.2c-0.2,0.6-0.7,0.6-1.1,0.8c-1.1,0.6-1.3,2.1-0.3,2.9c1.4,1.1,2.8,2.1,4.3,3.1
				c0.8,0.5,2.4-0.1,2.7-1.2c0.2-0.8,0.7-1,1.4-1.1c0.9-0.2,1.7-0.4,2.6-0.6c0.1,0,0.3-0.1,0.4-0.1c-0.4-0.6-1.2-0.5-1.6-1
				c3.1-1.7,6.7-1.1,10.1-1.9c-0.4-1.8-0.5-3.5-2.8-3.9c-1.1-0.2-1.6-1.5-2.5-2.1c0.1-0.6,0.6-0.8,0.9-1.2c0.6-0.9,0.3-2.1-0.7-2.6
				c-0.9-0.4-4.7,0.3-5.6,1c0.3,1,1.2,1.5,1.9,2.3c-0.6,0.1-1-0.2-1.3-0.6c-0.6-0.6-1.3-1-2.1-1.3c-2.1-0.8-2.1-0.8-1.9-3
				c0.1-1.1,0.1-2-1.1-2.4c0-0.5,0.4-0.6,0.6-0.8c1-1.1,1-1.9,0-3c-1.2-1.3-2.7-2.1-4.6-1.9c-0.6,0.1-1.2,0.1-1.8-0.2
				c0.4-0.7,0.9-0.8,1.5-0.8c1.7,0.1,3.3-0.5,4.8-1.3c2-1.1,4.1-1.5,6.4-1.1c2.1,0.4,4.3,0.5,6.7,0.7c-0.6-1.1-1.7-1.1-2.5-2
				c1.6-1.4,3.5-1.6,5.8-1.6c-0.8,1.1-1.4,2.1-2.1,3c0.7,0.4,1.3,0.2,1.9,0.2c0.9,0,1.8-0.2,2.1,1c0.1,0.5,0.7,0.4,1.1,0.2
				c1-0.4,1.6,0.1,2.2,0.9c1.2,1.5,2.2,3.1,2,5.2c0,0.2,0.1,0.3,0.2,0.5c0.7-0.1,1.3-0.4,1.8-0.8c1.9-1.3,3.4-0.5,4.1,1.8
				c0.7,2.6,3.9,5.3,7.1,3.8c0.5-0.2,0.8-0.5,0.8-1c0-1.2,0.4-2.3,0.8-3.4c0.3-1,0.2-1.9-0.2-2.9c-0.3-0.6-0.6-1.3-0.6-2
				c0-1.5-0.6-2.6-2-3.4c1.3-2.1,1-4-0.3-5.9c-0.2-0.3-0.5-0.7-0.1-1c0.3-0.4,0.8-0.3,1.2-0.1c0.5,0.3,0.9,0.6,1.5,1
				c0.2-1.3,0.3-2.6,0.9-3.7c0.4-0.6,0-1.4-0.7-1.9c-2.6-2-5.2-3.8-8.5-4.5c-2.6-0.5-5.1-1.8-7.9-1.5c-0.6,0.1-1.2-0.4-1.4-1
				c-0.5-1.7-2-2.9-2.8-4.4c-0.4-0.9-1.4-1.4-2.4-1c-1.8,0.8-3.5,0.3-5.1-0.3c-0.5-0.2-1-0.4-1.6-0.6c-1.2-0.4-2.1-0.8-1.1-2.3
				c0.5-0.8,0.2-1.9-0.8-2.2c-2.4-0.9-4.7-2-7.4-2c-0.1,0.7-0.1,1.4-1,1.5c-1,0.1-1.1-0.6-1.5-1.2c-0.5-0.9-1-1.8-1.5-2.7
				c-0.5-0.9-1.2-1.2-2.1-0.7c-1.2,0.5-2.2,0.4-3.3-0.2c-1.7-0.8-3.6-0.8-5.3-1.2c-1.2-0.3-2.1-0.7-3-1.9c2.2,0,4-0.6,5.5-1.9
				c0.1-0.1,0.4-0.3,0.5-0.2c1.7,0.7,2.9-0.7,4.4-1.1c0.5-0.1,0.8-0.4,1.1-0.7c0.7-1,1.5-1.9,2.5-2.6c0.7-0.5,0.8-1.3,0.6-2.2
				c-0.5-0.1-0.9-0.1-1.3-0.1c-0.8,0-1.3-0.3-1.6-1.1c-0.3-0.9-0.9-1.5-1.7-2c-1.3-0.8-2.6-1.7-3.3-3.3c-0.5,0.3-0.9,0.6-1.4,0.8
				c-1.2-1.6-1.1-2.2,0.8-2.7c1.2-0.4,2.4-0.7,3.6-1.1c0-0.6-0.7-1-0.4-1.6c0.5-0.4,1-0.1,1.3,0.3c0.9,1.1,1.9,1.3,3.2,1.1
				c1.5-0.3,2.6,0.3,3.5,1.5c0.7,1,1.3,2,2,3.1c-1.1,0.4-2,0.8-3.2,0.5c-1.9-0.5-2.3-0.2-2.7,1.7c-0.1,0.7-0.6,1.3-0.4,2.1
				c2.3,0.3,4.6,0.3,6.9,0c0.4,0,0.9-0.3,1-0.6c0.5-1.4,1.7-1.5,2.9-1.7c0.6-0.1,1.3-0.3,1.8-0.7c0.8-0.7,1.2-1.5,0.5-2.5
				c-0.4-0.6-0.7-1.2-1-1.8c-1.1-2-2.2-4-4.2-5.4c-1.6-1.1-2.7-2.8-3.9-4.3c-1-1.2-2.1-2.1-3.6-2.6c-4.6-1.5-6.7-4.8-7.3-9.4
				c-0.1-0.8-0.5-1.5-1.2-1.9c-0.9-0.6-1.7-1.2-2.5-1.7c-1.3-0.8-2.3-1.9-2.3-3.5c0-0.6-0.4-1-0.9-1.3c-0.6-0.4-1.3-0.8-1.9-1.1
				c-3.3-1.9-4.2-4.5-2.9-8.1c0.8-2.1,1.8-4.1,3.2-5.8c0.7-0.9,0.7-1.6-0.4-2.2c-1.7-1-1.6-2.2,0.2-3c1.3-0.6,3-1,3.8-2
				c1.2-1.5,2.8-1.7,4.3-2.5c1.4-0.8,2.3-0.5,3.4,0.7c-0.5,0.9-1.2,1-2.1,0.8c-2.6-0.5-2.6-0.5-3.7,1.9c0.7,0.7,1.7,1.2,2.3,2.1
				c0.6,1,1.1,1.9,0,2.8c0.2,0.1,0.2,0.3,0.3,0.2c2.8-0.2,5.1,0.6,7.5,2.2c2.6,1.7,5.9,2.2,8.9,3.2c2.3,0.7,2.7,1.4,2,3.7
				c-0.3,1.1-0.2,2.2,0.5,3c1.4,1.8,2.5,3.6,1,5.8c0.6,0.4,1.1,0.3,1.5,0.2c2.8-0.9,5.5-0.2,8.2,0.5c1.4,0.4,2.8,0.8,4.2,1.2
				c1,0.3,2.1,0.4,3.1-0.1c0.5-0.2,0.9-0.5,0.9-1.1c0-0.6-0.2-0.9-0.8-1.2c-2.8-1.4-5.1-3.4-8.2-4.1c-0.9-0.2-1.6-0.9-2.3-1.6
				c-1.2-1.3-2.5-2.3-4-3.2c-1.2-0.7-1.8-1.9-1.4-2.7c0.4-0.8,1.9-1.4,3-1.2c2.8,0.6,5.4,1.7,8.3,1.7c0.5,0,1,0.3,1.4,0.6
				c1.9,1.8,3.9,3.5,4.8,6c0.5,1.3,0.7,2.7,2.7,2.7c1,0,1.7,1.3,2.3,2.2c0.6,1,1.3,1.1,2.4,0.7c1-0.4,2.1-0.8,3.1-1.1
				c0-0.6-0.6-0.8-0.7-1.3c0.1-0.1,0.1-0.3,0.2-0.4c1.2-1.1,1.5-2.2,0.2-3.4c-0.1-0.1-0.2-0.2-0.2-0.4c-0.5-3.3-3.4-3.8-5.8-4.5
				c-2.5-0.8-4.5-2.1-6.2-4c-0.4-0.4-0.6-0.8-0.3-1.4c0.3-0.5,0.7-0.9,1.4-0.7c0.6,0.2,1.2-0.1,1.7-0.3c2.5-0.9,4.9-0.9,6.9,0.9
				c1.6,1.4,3.6,1.9,5.6,1.9c1.2,0,2.2,0.4,2.9,1.4c0.9,1.2,1.9,2.2,3.1,3c0.6,0.4,1.1,0.9,1.2,1.6c0.2,1,0.8,1.1,1.7,0.8
				c0.8-0.3,1.7-0.6,2.5-0.8c0.7-0.2,1.5-0.3,1.5-1.4c0-1-0.2-1.8-1.1-2.3c-1.4-0.8-2.9-1.7-3.8-3c-1.6-2.2-4-3.2-6.5-4
				c-1.6-0.5-2.8-1.1-3.8-2.5c-1.4-1.9-2-1.9-3,0.3c-0.4,0.9-1,1.1-1.8,0.8c-1.4-0.4-2.5-1.2-3.4-2.3c-0.7-0.8-0.4-1.3,0.6-1.5
				c1.1-0.2,2.2-0.3,3.3-0.5c-0.8-2.5-1.1-2.8-3.5-2.8c-0.7,0-1.4-0.3-1.9-0.8c-1.2-1.2-2.3-2.4-3.4-3.7c-0.8-1,0-1.8,0.8-2
				c1.9-0.6,3.8-1.5,5.9-0.4c0.6,0.3,1.2,0.5,1.8,0.7c3.1,1.1,6.2,1.4,9.4,0c3.1-1.4,6.5-2.3,9.7-3.5c0.5-0.2,1-0.2,1.5-0.9
				c-0.8,0-1.5,0-2.1,0c-0.8,0-1.4-0.5-1.5-1.2c-0.2-0.7,0.6-0.8,1.1-1c1.4-0.6,2.8-1.3,4.3-1.7c1.7-0.5,2.7-0.1,3.8,1.3
				c0.3,0.4,0.5,0.8,0.8,1.1c0.9,0.9,1.3,2.4,3.3,1.5c0.8-0.4,2.4,0.3,3.6,0.3c1.5,0,2.7-0.4,3.9-1.2c1.2-0.8,2.4-1.4,3.8-1.7
				c1.6-0.3,3-1,4.2-2.1c0.8-0.8,1.8-1.2,3-1.3c0.4,0.5-0.2,0.9,0,1.5c2.1,0.5,4.6,1.9,6.6,1.4c2.3-0.5,3.8,0.3,5.5,1
				c4.9,1.9,10,1.9,15.1,2.2c2.1,0.1,4.3,0.3,6.4,0.3c2.2,0,3.8,1.3,4.3,3.5c0.2,1,0.6,1.4,1.6,1.1c0.7-0.2,1.5-0.3,2.2-0.4
				c1.2-0.1,2-0.6,2.3-1.8c0.3-1,0.9-1.6,1.9-1.7c0.4,0,0.8-0.2,1-0.5c0.6-1.2,1.8-1.4,2.8-2c2.1-1.4,3.3-3.5,3.7-6.1
				c0.1-0.7-0.5-1-0.9-1.3c-0.7-0.6-0.9-1.2-0.6-2.1c0.4-1,0.4-2-0.3-3c-0.4-0.6,0.7-2.8,1.5-2.8c1.9-0.1,3.3-1,4.7-2.2
				c0.9-0.7,1.9-1.1,3.1-0.8c1.2,0.4,2.4-0.3,3.5-0.5v-5C345.2,59.6,344.9,57.7,344.5,55.8z"/>
		</defs>
		<clipPath id="SVGID_2_">
			<use xlink:href="#SVGID_1_"  style="overflow:visible;"/>
		</clipPath>
		<rect x="68.4" y="40.1" class="st16" width="348.9" height="267.8"/>
		<rect x="197.4" y="99.5" class="st17" width="219.9" height="26.7"/>
		<rect x="197.4" y="151.3" class="st17" width="219.9" height="26.7"/>
		<rect x="68.4" y="126.3" class="st17" width="128.9" height="26.7"/>
		<rect x="68.4" y="203" class="st17" width="348.9" height="26.7"/>
		<rect x="68.4" y="254.7" class="st17" width="348.9" height="26.7"/>
		
			<rect x="68.4" y="126.3" transform="matrix(-1.836970e-16 1 -1 -1.836970e-16 272.5267 6.6992)" class="st17" width="128.9" height="26.7"/>
	</g>
	<path class="st15" d="M344.5,55.8c-0.3-1.3-1-2-2.1-2.8c-3.3-2.2-7.1-2.8-10.8-3.9c-1.1-0.3-2.2-0.6-3-1.6h-2.2
		c0.1,0.4-0.1,0.6-0.5,0.6c-1.9,0.2-3.6,1.2-5.4,1.8c0.3,1.1,0.4,2.1,0.7,3c0.2,0.8,0.9,1.2,1.7,1.3c1,0.2,1.3,1,1.8,1.8
		c1.2,1.9-0.4,3.7,0.3,5.5c0.4,1-0.9,2.5-2.2,2.8c-2.2,0.5-4.4,1-6.6,1.5c-1,0.2-2,0.2-2.8-0.4c-0.9-0.5-1.7-0.6-2.7-0.2
		c-2.8,1.2-5.6,1.5-8.6,1c-0.8-0.2-1.7,0-2.4,0.5c-0.4,0.3-1,0.5-1.4,0.4c-2-0.5-3.8,0.3-5.5,1c-1.7,0.7-3.4,0.5-5.1,0.5
		c-0.5,0-0.8-0.3-1.1-0.8c-0.4-0.7-0.9-1.4-1.6-1.7c-2.4-1-4.6-2.7-7.4-2.9c-0.7,0-1.4-0.3-2-0.5c-1.2-0.4-2.3-0.8-3.6-0.4
		c-0.9,0.3-1.8-0.2-2.8-0.4c-0.3,0.5-0.6,1-1,1.6c-0.3-0.1-0.7-0.1-0.8-0.3c-0.9-1.2-1.9-2.2-3.6-2c-0.1,0-0.3-0.3-0.4-0.3
		c-3.6,0.2-4-2.8-5-5.1c-0.1-0.2-0.2-0.4-0.3-0.7c-1.1,0.3-2.2,0.7-3.2,1c-0.7,0.2-1.4,0.4-2,0.3c-1-0.2-1.7-0.2-2.5,0.7
		c-0.6,0.7-1.3,0.4-1.9-0.3c-0.7-0.8-1.1-2.1-2-2.1c-0.9,0-1.8,0.8-2.7,1.3c-1,0.6-1.9,0.9-3,0.4c-0.6-0.3-1.3-0.2-1.9-0.1
		c-1.9,0.3-2.1,0.7-1.7,2.5c0,0.2,0,0.4,0,0.8c-1.1-0.2-2.1-0.3-3,0.5c-0.3,0.3-0.7,0-1-0.3c-0.5-0.6-0.9-1.1-1.7-2.1
		c-0.5,2.3-1.9,2.6-3.4,2.8c-0.9,0.1-1.7,0.3-2.4,1c-0.7,0.7-1.5,0.6-2.4,0.6c-1.1,0-2.1-0.1-3,0.8c-0.4,0.4-0.9,0.3-1.5,0.2
		c-1.8-0.2-3.6-0.4-5.4-0.7c-1.6-0.3-3.2-0.3-4.8,0.4c-0.6,0.3-1,0.2-1.6-0.2c-1.3-0.8-4.2,0-4.7,1.4c-0.3,0.8-0.8,1.1-1.5,1.3
		c-2.5,0.7-5,0.5-7.4,0c-3-0.7-5.9-0.9-9-0.4c-1.5,0.3-2.3,1-2.5,2.6c-0.2,1.5-0.3,3.1-1,4.6c-0.8-0.1-1.2-0.6-1.7-1
		c-0.1,0-0.2,0-0.3,0.1c-2.3,2.3-5,3.2-8.2,3c-0.8,0-1.6,0.1-2.2-0.6c-0.1-0.1-0.2-0.2-0.4-0.2c-2.8,0.1-5.3-1.5-8.1-1.5
		c-0.9,0-1.7,0.4-2.4,1c-0.9,0.8-1.9,1-2.9,0.2c-0.7-0.5-1.4-0.4-2.1-0.2c-1.5,0.6-3.1,1.2-4.7,1.8c-0.9,0.3-1.5,0.8-1.9,1.8
		c-0.6,1.2-2.1,2-3.2,2.9c-0.4,0.3-0.9,0.4-1,0.9c-0.3,1.5-1.4,1.5-2.5,1.4c-1.2-0.1-2.3,0.1-3,1c-0.9,1.2-2.1,1.2-3.4,1
		c-0.5-0.1-1.1-0.3-1.6-0.4c-3.1-1-6.1-1.2-9,0.8c-1.2,0.8-2.5,0.9-3.7-0.1c-0.3-0.3-0.7-0.5-1.2-0.2c-2.3,1.5-4.8,1.2-7.3,1.1
		c-0.5,0-1,0-1.5,0c-0.5,0-1,0.3-0.9,0.8c0.3,1.7-0.4,2.6-2.4,3.3c2,0.7,2.8,2.2,3.8,3.4c1.6,1.9,1.3,4.2-0.7,5.6
		c-0.7,0.5-1,1.2-1.4,1.9c-0.4,0.8-1,1.2-1.9,1c-0.6-0.1-1.2-0.1-1.8-0.1c-0.8-0.1-1.4,0.1-1.7,0.9c-0.3,0.8-0.8,1.1-1.6,0.6
		c-0.1,0.4-0.2,0.6-0.1,0.9c0.3,2.5-1.1,4.2-2.9,5.6c-0.9,0.7-1.5,1.5-0.9,2.7c0.3,0.5-0.1,0.9-0.4,1.2c-0.5,0.5-1,1.1-1.4,1.6
		c0.9,1.3,0.4,2.2-1.1,2.6c-1.9,0.5-3.7,0.9-5.7,0.6c-1.6-0.2-3,0.6-3.8,2.1c-0.4,0.8-1,1.1-1.9,1.1c-1.1,0-2.2,0-3.5,0
		c0.2,0.8,0.8,1,1.2,1.5c0.6,0.7,1.3,1.3,1,2.4c-0.2,0.5,0.3,0.9,0.7,1.3c0.8,0.9,1.8,1.6,2.3,2.9c-1.8,0.7-3.5-0.4-5.3,0
		c0.2,1.2,0.4,2.3,0.4,3.4c0,1.3-1,1.8-2.5,1.5c-1.5,2-2.2,2.1-4.9,0.8c-1.4-0.7-2.7-1.6-4.3-1.3v2c2.1,0.6,4.2,1.2,6.4,1.9
		c-1,1.2-1.4,2.4-0.9,3.9c0.5,1.5,1.8,1.9,2.9,2.6c-0.7,1.8-0.1,3.4,1.8,4.2c0.5,0.2,0.7,0.7,0.9,1.2c0.9,2.2,2.6,3.5,5,3.6
		c1.4,0.1,2.5,0.5,3.3,1.7c0.5,0.6,1.1,1.1,1.7,1.6c2,1.5,3.9,2.9,5.9,4.4c1.1,0.8,2.2,1.4,1.7,3.1c-0.2,0.8,0.5,1.6,1.1,2.2
		c0.9,1,1.2,2,0.5,3.4c-0.6,1.2-0.7,2.7,0.2,4c1.1,1.5,2.6,1.6,4.1,1.1c1.3-0.4,1.7,0.1,1.9,1.2c0.3,2,1.2,2.9,3.1,3.1
		c0.6,0.1,1,0.4,1.3,0.9c0.9,1.2,1.2,2.6,1.4,4c0.1,0.9,0.3,1.6,1.4,1.7c0.8,0.1,0.9,0.8,1.3,1.4c-0.3,0.3-0.9,0.4-0.5,1.1
		c0.5,0.8,0.6,1.8,0.6,2.8c-0.2,1.7,2.7,3.7,4.3,2.9c1.1-0.5,2.2-0.2,3.3-0.1c0.1-0.9,0.3-1.7,1.4-1.6c0.1,0,0.3-0.1,0.4-0.1
		c0.9-1.9,2-0.7,3.1-0.2c1.4,0.6,2.7,1.3,4,2c1.2,0.6,2.4,0.6,3.5-0.3c2.6-2,5.3-1.4,8.4-0.6c-1.6,2.1-2.9,4.1-4.8,5.6
		c-1,0.8-2.2,0.7-3.3,0.3c-1.1-0.3-2-0.9-3-1.4c-0.8-0.5-1.5-1.2-2.6-0.7c-0.5,0.2-1-0.2-1.4-0.5c-0.5-0.3-0.8-0.8-1.5-0.8
		c-0.5,1-0.3,2.1-0.2,3.1c0.2,2.3-0.7,4-2.5,5.2c-1.2,0.8-2.2,1.9-3.1,3c-0.7,0.8-1.4,1.1-2.4,0.7c-1-0.4-1.8,0-2,1.2
		c-0.7,4.4-1.1,3.5,2.6,5.5c1.2,0.6,2.4,1.3,3.6,1.8c1.4,0.6,1.8,1.6,1.6,3.1c-0.2,1.2-0.3,2.5-0.4,3.8c0.9,0,1.2-0.6,1.6-0.9
		c0.9-0.7,1.9-1.1,3-0.6c5.1,2.5,9.4,5.9,11.4,11.4c0.8,2.2,0.3,3.6-1.7,4.9c-0.5,0.3-0.9,0.6-1.4,0.9c-1.2,0.7-1.8,1.6-1.6,3
		c0.1,0.5,0,0.9,0,1.4c-0.2,2,0.2,3.5,2.1,4.5c1.2,0.6,1.7,1.8,1.3,3.1c0.5,0.5,0.9-0.2,1.5,0.1c-0.3,1.4-0.2,2.7,0.6,4
		c0.6,1,1.3,1.8,2.3,2.3c0.5,0.3,1,0.5,1.6,0.1c1-0.6,1.6-0.2,2.1,0.7c0,0,0,0.1,0.1,0.1c1.6,2.4,3.1,2.5,5,0.3
		c0.6-0.8,1.4-1,2.3-0.9c0.2-0.3,0.1-0.4-0.1-0.5c-2.6-1.7-1.8-4.4-1.8-6.9c0-0.7,0.6-1.1,1.2-1.4c1.9-1.1,4-0.9,6.1-0.6
		c0.1,0.5-0.3,0.9-0.3,1.4c-0.1,0.8-1.2,1.5-0.3,2.2c1,0.8,1.7,2.3,3.4,1.3c0.3-0.2,0.7-0.1,0.9,0.2c0.7,0.9,1.7,1.6,2.1,2.7
		c0.8,1.9,1.6,3.8,2.8,5.4c0.4,0.5,0.3,1.1,0.3,1.7c-0.2,1.7-0.3,3.5-0.3,5.3c0,1.8,0.4,2.2,2.2,2.4c0.7,0.1,1.3,0.4,1.6,1
		c0.4,1.1,1.3,1.9,2.2,2.5c0.4-0.2,0.9-0.3,1.3-0.5c-0.1-1.2-0.1-2.3,0.6-3.3c0.5-0.7,0.2-1.3-0.4-1.9c-0.8-0.7-0.9-1.7-0.8-2.7
		c0-0.2,0.1-0.6,0.2-0.6c1.4-0.1,2-1.9,3.8-1.5c-0.3-0.6-0.6-1.2-0.8-1.7c-0.3-0.5-0.5-1.1-0.9-1.7c0.9-0.7,1.7-1.4,2-2.5
		c0.2-0.7,0.9-1,1.7-1c1.3,0,2.5-0.1,3.8,0c1.8,0.1,3.2,1.9,2.8,3.7c-0.4,1.6,0.9,2.3,1.7,3.3c0.5-0.3,0.1-1,0.6-1.3
		c0.4,0.1,0.6,0.4,0.4,0.7c-0.7,1.1,0.1,1.5,0.9,1.9c0.8,0.4,1.5,0.9,1.9,1.8c0.8,1.4,1.9,2.3,3.6,2c1-0.2,1.2,0.6,1.5,1.3
		c1.4,2.7,5.5,3,7.4,0.6c-0.5-1.1-1.7-1.5-2.5-2.4c0.3-0.4,0.5-0.9,0.9-1.4c-1.2-0.6-2.4-1.2-3.6-1.8c-1.9-1-2.2-2.2-0.9-3.9
		c0.3-0.3,0.6-0.7,0.7-1c0.2-1.4,0.8-2.3,2.4-2.8c-2.8-1.9-3.8-4.5-4.6-7.4c-0.4-1.5-1-3-1.1-4.5c-0.1-1.2-1.1-2.1-1.7-3.1
		c-0.4-0.8-1.6-0.3-2.5-0.7c0.9-1.7-0.1-2.9-1-4.2c-0.3-0.4-0.4-0.8-0.8-1.2c-2.9-3.1-3.5-7.3-5.4-10.8c-0.2-0.4-0.3-0.8,0.1-1.1
		c0.4-0.3,0.7,0,1,0.1c0.6,0.3,1.1,0.6,1.3,1.2c0.3,1,1,1.2,2,1.1c0.2,0,0.5,0,0.7-0.1c2.3-0.8,4-0.1,4.9,2.2
		c0.3,0.6,0.9,0.6,1.4,0.6c1,0,2,0,3.1,0.2c-0.2,0.6-0.7,0.6-1.1,0.8c-1.1,0.6-1.3,2.1-0.3,2.9c1.4,1.1,2.8,2.1,4.3,3.1
		c0.8,0.5,2.4-0.1,2.7-1.2c0.2-0.8,0.7-1,1.4-1.1c0.9-0.2,1.7-0.4,2.6-0.6c0.1,0,0.3-0.1,0.4-0.1c-0.4-0.6-1.2-0.5-1.6-1
		c3.1-1.7,6.7-1.1,10.1-1.9c-0.4-1.8-0.5-3.5-2.8-3.9c-1.1-0.2-1.6-1.5-2.5-2.1c0.1-0.6,0.6-0.8,0.9-1.2c0.6-0.9,0.3-2.1-0.7-2.6
		c-0.9-0.4-4.7,0.3-5.6,1c0.3,1,1.2,1.5,1.9,2.3c-0.6,0.1-1-0.2-1.3-0.6c-0.6-0.6-1.3-1-2.1-1.3c-2.1-0.8-2.1-0.8-1.9-3
		c0.1-1.1,0.1-2-1.1-2.4c0-0.5,0.4-0.6,0.6-0.8c1-1.1,1-1.9,0-3c-1.2-1.3-2.7-2.1-4.6-1.9c-0.6,0.1-1.2,0.1-1.8-0.2
		c0.4-0.7,0.9-0.8,1.5-0.8c1.7,0.1,3.3-0.5,4.8-1.3c2-1.1,4.1-1.5,6.4-1.1c2.1,0.4,4.3,0.5,6.7,0.7c-0.6-1.1-1.7-1.1-2.5-2
		c1.6-1.4,3.5-1.6,5.8-1.6c-0.8,1.1-1.4,2.1-2.1,3c0.7,0.4,1.3,0.2,1.9,0.2c0.9,0,1.8-0.2,2.1,1c0.1,0.5,0.7,0.4,1.1,0.2
		c1-0.4,1.6,0.1,2.2,0.9c1.2,1.5,2.2,3.1,2,5.2c0,0.2,0.1,0.3,0.2,0.5c0.7-0.1,1.3-0.4,1.8-0.8c1.9-1.3,3.4-0.5,4.1,1.8
		c0.7,2.6,3.9,5.3,7.1,3.8c0.5-0.2,0.8-0.5,0.8-1c0-1.2,0.4-2.3,0.8-3.4c0.3-1,0.2-1.9-0.2-2.9c-0.3-0.6-0.6-1.3-0.6-2
		c0-1.5-0.6-2.6-2-3.4c1.3-2.1,1-4-0.3-5.9c-0.2-0.3-0.5-0.7-0.1-1c0.3-0.4,0.8-0.3,1.2-0.1c0.5,0.3,0.9,0.6,1.5,1
		c0.2-1.3,0.3-2.6,0.9-3.7c0.4-0.6,0-1.4-0.7-1.9c-2.6-2-5.2-3.8-8.5-4.5c-2.6-0.5-5.1-1.8-7.9-1.5c-0.6,0.1-1.2-0.4-1.4-1
		c-0.5-1.7-2-2.9-2.8-4.4c-0.4-0.9-1.4-1.4-2.4-1c-1.8,0.8-3.5,0.3-5.1-0.3c-0.5-0.2-1-0.4-1.6-0.6c-1.2-0.4-2.1-0.8-1.1-2.3
		c0.5-0.8,0.2-1.9-0.8-2.2c-2.4-0.9-4.7-2-7.4-2c-0.1,0.7-0.1,1.4-1,1.5c-1,0.1-1.1-0.6-1.5-1.2c-0.5-0.9-1-1.8-1.5-2.7
		c-0.5-0.9-1.2-1.2-2.1-0.7c-1.2,0.5-2.2,0.4-3.3-0.2c-1.7-0.8-3.6-0.8-5.3-1.2c-1.2-0.3-2.1-0.7-3-1.9c2.2,0,4-0.6,5.5-1.9
		c0.1-0.1,0.4-0.3,0.5-0.2c1.7,0.7,2.9-0.7,4.4-1.1c0.5-0.1,0.8-0.4,1.1-0.7c0.7-1,1.5-1.9,2.5-2.6c0.7-0.5,0.8-1.3,0.6-2.2
		c-0.5-0.1-0.9-0.1-1.3-0.1c-0.8,0-1.3-0.3-1.6-1.1c-0.3-0.9-0.9-1.5-1.7-2c-1.3-0.8-2.6-1.7-3.3-3.3c-0.5,0.3-0.9,0.6-1.4,0.8
		c-1.2-1.6-1.1-2.2,0.8-2.7c1.2-0.4,2.4-0.7,3.6-1.1c0-0.6-0.7-1-0.4-1.6c0.5-0.4,1-0.1,1.3,0.3c0.9,1.1,1.9,1.3,3.2,1.1
		c1.5-0.3,2.6,0.3,3.5,1.5c0.7,1,1.3,2,2,3.1c-1.1,0.4-2,0.8-3.2,0.5c-1.9-0.5-2.3-0.2-2.7,1.7c-0.1,0.7-0.6,1.3-0.4,2.1
		c2.3,0.3,4.6,0.3,6.9,0c0.4,0,0.9-0.3,1-0.6c0.5-1.4,1.7-1.5,2.9-1.7c0.6-0.1,1.3-0.3,1.8-0.7c0.8-0.7,1.2-1.5,0.5-2.5
		c-0.4-0.6-0.7-1.2-1-1.8c-1.1-2-2.2-4-4.2-5.4c-1.6-1.1-2.7-2.8-3.9-4.3c-1-1.2-2.1-2.1-3.6-2.6c-4.6-1.5-6.7-4.8-7.3-9.4
		c-0.1-0.8-0.5-1.5-1.2-1.9c-0.9-0.6-1.7-1.2-2.5-1.7c-1.3-0.8-2.3-1.9-2.3-3.5c0-0.6-0.4-1-0.9-1.3c-0.6-0.4-1.3-0.8-1.9-1.1
		c-3.3-1.9-4.2-4.5-2.9-8.1c0.8-2.1,1.8-4.1,3.2-5.8c0.7-0.9,0.7-1.6-0.4-2.2c-1.7-1-1.6-2.2,0.2-3c1.3-0.6,3-1,3.8-2
		c1.2-1.5,2.8-1.7,4.3-2.5c1.4-0.8,2.3-0.5,3.4,0.7c-0.5,0.9-1.2,1-2.1,0.8c-2.6-0.5-2.6-0.5-3.7,1.9c0.7,0.7,1.7,1.2,2.3,2.1
		c0.6,1,1.1,1.9,0,2.8c0.2,0.1,0.2,0.3,0.3,0.2c2.8-0.2,5.1,0.6,7.5,2.2c2.6,1.7,5.9,2.2,8.9,3.2c2.3,0.7,2.7,1.4,2,3.7
		c-0.3,1.1-0.2,2.2,0.5,3c1.4,1.8,2.5,3.6,1,5.8c0.6,0.4,1.1,0.3,1.5,0.2c2.8-0.9,5.5-0.2,8.2,0.5c1.4,0.4,2.8,0.8,4.2,1.2
		c1,0.3,2.1,0.4,3.1-0.1c0.5-0.2,0.9-0.5,0.9-1.1c0-0.6-0.2-0.9-0.8-1.2c-2.8-1.4-5.1-3.4-8.2-4.1c-0.9-0.2-1.6-0.9-2.3-1.6
		c-1.2-1.3-2.5-2.3-4-3.2c-1.2-0.7-1.8-1.9-1.4-2.7c0.4-0.8,1.9-1.4,3-1.2c2.8,0.6,5.4,1.7,8.3,1.7c0.5,0,1,0.3,1.4,0.6
		c1.9,1.8,3.9,3.5,4.8,6c0.5,1.3,0.7,2.7,2.7,2.7c1,0,1.7,1.3,2.3,2.2c0.6,1,1.3,1.1,2.4,0.7c1-0.4,2.1-0.8,3.1-1.1
		c0-0.6-0.6-0.8-0.7-1.3c0.1-0.1,0.1-0.3,0.2-0.4c1.2-1.1,1.5-2.2,0.2-3.4c-0.1-0.1-0.2-0.2-0.2-0.4c-0.5-3.3-3.4-3.8-5.8-4.5
		c-2.5-0.8-4.5-2.1-6.2-4c-0.4-0.4-0.6-0.8-0.3-1.4c0.3-0.5,0.7-0.9,1.4-0.7c0.6,0.2,1.2-0.1,1.7-0.3c2.5-0.9,4.9-0.9,6.9,0.9
		c1.6,1.4,3.6,1.9,5.6,1.9c1.2,0,2.2,0.4,2.9,1.4c0.9,1.2,1.9,2.2,3.1,3c0.6,0.4,1.1,0.9,1.2,1.6c0.2,1,0.8,1.1,1.7,0.8
		c0.8-0.3,1.7-0.6,2.5-0.8c0.7-0.2,1.5-0.3,1.5-1.4c0-1-0.2-1.8-1.1-2.3c-1.4-0.8-2.9-1.7-3.8-3c-1.6-2.2-4-3.2-6.5-4
		c-1.6-0.5-2.8-1.1-3.8-2.5c-1.4-1.9-2-1.9-3,0.3c-0.4,0.9-1,1.1-1.8,0.8c-1.4-0.4-2.5-1.2-3.4-2.3c-0.7-0.8-0.4-1.3,0.6-1.5
		c1.1-0.2,2.2-0.3,3.3-0.5c-0.8-2.5-1.1-2.8-3.5-2.8c-0.7,0-1.4-0.3-1.9-0.8c-1.2-1.2-2.3-2.4-3.4-3.7c-0.8-1,0-1.8,0.8-2
		c1.9-0.6,3.8-1.5,5.9-0.4c0.6,0.3,1.2,0.5,1.8,0.7c3.1,1.1,6.2,1.4,9.4,0c3.1-1.4,6.5-2.3,9.7-3.5c0.5-0.2,1-0.2,1.5-0.9
		c-0.8,0-1.5,0-2.1,0c-0.8,0-1.4-0.5-1.5-1.2c-0.2-0.7,0.6-0.8,1.1-1c1.4-0.6,2.8-1.3,4.3-1.7c1.7-0.5,2.7-0.1,3.8,1.3
		c0.3,0.4,0.5,0.8,0.8,1.1c0.9,0.9,1.3,2.4,3.3,1.5c0.8-0.4,2.4,0.3,3.6,0.3c1.5,0,2.7-0.4,3.9-1.2c1.2-0.8,2.4-1.4,3.8-1.7
		c1.6-0.3,3-1,4.2-2.1c0.8-0.8,1.8-1.2,3-1.3c0.4,0.5-0.2,0.9,0,1.5c2.1,0.5,4.6,1.9,6.6,1.4c2.3-0.5,3.8,0.3,5.5,1
		c4.9,1.9,10,1.9,15.1,2.2c2.1,0.1,4.3,0.3,6.4,0.3c2.2,0,3.8,1.3,4.3,3.5c0.2,1,0.6,1.4,1.6,1.1c0.7-0.2,1.5-0.3,2.2-0.4
		c1.2-0.1,2-0.6,2.3-1.8c0.3-1,0.9-1.6,1.9-1.7c0.4,0,0.8-0.2,1-0.5c0.6-1.2,1.8-1.4,2.8-2c2.1-1.4,3.3-3.5,3.7-6.1
		c0.1-0.7-0.5-1-0.9-1.3c-0.7-0.6-0.9-1.2-0.6-2.1c0.4-1,0.4-2-0.3-3c-0.4-0.6,0.7-2.8,1.5-2.8c1.9-0.1,3.3-1,4.7-2.2
		c0.9-0.7,1.9-1.1,3.1-0.8c1.2,0.4,2.4-0.3,3.5-0.5v-5C345.2,59.6,344.9,57.7,344.5,55.8z"/>
</g>
</svg>
