<?xml version="1.0" encoding="utf-8"?>
<!-- Generator: Adobe Illustrator 24.3.0, SVG Export Plug-In . SVG Version: 6.00 Build 0)  -->
<svg version="1.1" id="Layer_1" xmlns="http://www.w3.org/2000/svg" xmlns:xlink="http://www.w3.org/1999/xlink" x="0px" y="0px"
	 viewBox="0 0 400 300" style="enable-background:new 0 0 400 300;" xml:space="preserve">
<style type="text/css">
	.st0{clip-path:url(#SVGID_2_);fill:#CE2029;}
	.st1{clip-path:url(#SVGID_2_);fill:#FFFFFF;}
	.st2{clip-path:url(#SVGID_2_);fill:#018652;}
	.st3{fill:none;stroke:#000000;stroke-miterlimit:10;}
	.st4{fill:none;}
	.st5{fill:#F3F2EF;}
	.st6{fill:#C98017;}
	.st7{fill:#FBED60;}
	.st8{fill:#FABA31;}
	.st9{fill:#68C2EE;}
	.st10{fill:#0491BE;}
	.st11{fill:#68C2EF;}
	.st12{fill:#31798F;}
	.st13{fill:#C1BDBE;}
	.st14{fill:#6E6E6E;}
	.st15{fill:#6C6C6C;}
	.st16{fill:#BCBCBC;}
	.st17{fill:#E1E1E1;}
	.st18{fill:#0A0A09;}
</style>
<g>
	<g>
		<defs>
			<path id="SVGID_1_" d="M106.7,237c0.3-0.4,0.6-0.8,1-1.4c-2-0.3-2.3-1.8-2.6-3.4c-0.8-3.8-2.5-5.2-6.4-5.3
				c-1.5-0.1-2.6-0.7-3.4-1.6c-3.8-4.6-9.1-8.2-10-14.8c-0.3-2.1-2.4-2.8-4-2.9c-2.6-0.1-3.9-1.5-5.1-3.3c-1.3-2-2.7-3.5-5.5-3.1
				c-0.8,0.1-2.4-0.7-2.7-1.5c-1.6-4.3-4.7-7.4-8.2-10.4c2.2-1.6,3.8-2.8,0.1-4.3c-2.9-1.2-3.3-4.9-1.8-9.6
				c-1.5-1.1-2.7-2.5-5.1-2.4c-1.9,0.1-3.9,1.1-6,0.1c1.6-2,2.7-4.2,5-5.2c0.6-0.3,0.9-0.7,1.2-1.3c2-3.7,4.1-4.7,8-3.3
				c1.6,0.6,3,0.3,4.5,0c0.2-1.8-1.5-1.5-2.1-2.3c0.8-0.9,2.2-0.7,2.8-1.9c-0.6-1.1-3.7-1.6-0.9-3.6c0.8-0.6,2-1.5,1.3-2.7
				c-0.8-1.6-2.1-0.1-3.4-0.2c1.1-2.2-2.6-3.9-0.6-6.2c2.7-2.9,2.5-5.6,0.3-8.8c-0.4-0.6-0.1-3,0.6-4.5c3.7,1.7,9.3-1.4,9.9-5.5
				c0.1-0.4,0.1-1,0.3-1.1c3-1.6,1-3.2,0.8-5.4c-0.6-5.7-5-4.3-8-5.2c-1.5-0.5-2.9-1-4.6-1.3c0.4-1,0.4-1.7,1.8-2
				c1.6-0.4,3.7-0.9,3.9-3.4c0.1-1.1,1.3-1.7,2.3-1.5c2.7,0.4,5.5,0.5,7,3.6c1.3,2.8,4.1,2.6,6.5-0.1c3.8,3.6,7.5-0.5,12,0.4
				c-2-2.4-1.8-4.7-1.7-6.6c0.2-2.4,0-4-2.6-5.5c5.6-0.1,4.1-4.5,5.1-7.2c1-2.9,3.6-4.4,6.6-4.1c5,0.4,7.9,3.3,10.7,7.1
				c2.1,2.9,4.7,5.6,8.6,6.5c0.8,0.2,1.6,0.9,2.1,1.6c2.4,3.2,5.8,4.1,9.5,4.2c6.6,0.2,13.2-1.4,19.8-0.1c1.2,0.2,2.3-0.6,3.5-0.8
				c5.5-1.3,11-3.1,16.8-1.1c1.6,0.6,3.2,0.3,4.4-1.2c1.1-1.4,2.4-2.3,5.3-2.9c-6.2-2.3-4.5-6.7-3.7-10c0.4-1.8,2.2-4.8,4.6-5.5
				c5.5-1.7,11.1-2.8,16.9-1.7c0.8,0.1,1.7,0.6,2.3,0c2.6-2.2,5.6-1.6,8.6-1.7c2.1-0.1,4-0.9,4.2-3.7c0.3-3.7,1.6-6.5,6-6.7
				c0.6,0,1.3-0.5,1.7,0c1.4,1.7,3,1.9,5.2,1.8c2.2-0.1,1.1,2.3,1.4,3.9c2.3-0.9,4.2-0.1,5.8,1.5c0.7,0.7,1.6,0.4,2.2-0.2
				c2.1-2.4,5.1-3.1,7.7-4.6c0.8-0.5,1.3-1.1,1.7-1.9c1-2.3,5.7-3.8,8-2.5c3.3-1.7,4.5-5,5.6-8.2c0.9-2.8,1.7-5.6,4-7.6
				c1.5-1.3,0.7-3.2,1.1-5.1c5-0.6,9.8-2.1,14.7-2.9c2.5-0.4,4.3,2.1,6.7,2.7c1.4,0.4,2.9,0.7,4.3,1.2c3.7,1.2,7.1,1.4,11,0.2
				c1.6-0.5,3.2,0,4.6-1.9c2.2-2.9,8.5-1.6,10.2,1.7c0.3,0.5,0.5,1.4,1.1,1.3c3.4-0.2,3.4,2.4,4.3,4.6c1,2.3,2.6,4.3,4.2,6.2
				c1.4,1.6,3.2,2,5.5,1.1c4.1-1.8,8.3-3.3,13-2.7c2.2,0.3,3.2-2,5.2-2.5c1.8-0.5,3.3-0.6,4.9,0.7c-0.5,1.5-1.2,2.9,1.1,4
				c0.8,0.4,0.2,2.8,0.9,4.2c2.1,4,4,4.9,8.6,3.8c1.6,2.3,3.8,4.2,4.7,7.2c1.1,3.7,3.2,4.9,6.6,3.2c3-1.5,4.2,0.8,5.9,2.1
				c1.7,1.2,2.5,3.1,1.5,5.4c-0.7,1.6-1.5,3.3,1.1,4.1c-1.1,2.3-2,4.5-4.6,5.1c-0.4,0.1-1.1,0.7-1.1,0.9c0.5,3.7-3.4,3.9-4.9,6
				c-1.9,2.7-5.2,2.9-8.4,1.1c-2-1.1-3.8-1.8-4.3,1.5c-0.2,1.3-1.4,1.5-2.6,1.5c-3.4-0.1-7.1,2.4-8,5.4c-0.9,3.2-2,5.8-5.6,7.2
				c-3.7,1.5-5.9,4.7-4.8,9.3c0.7,2.8,0.5,5.2-3.1,6.3c-2.1,0.7-3.4,3-3.8,5.1c-0.5,2.3-1.1,4.8-1.8,6.9c-0.9,2.8-2,6.1-4.8,7.9
				c-1.9,1.2-3.5,2.6-4.5,4.7c1.7,1.7,1.9,4.7,0,6.4c-1.6,1.4-2.9,2.7-2.3,5.1c0.2,0.9-0.4,1.6-1.2,1.8c-3.5,0.8-3.3,4.2-4.6,6.5
				c-0.4,0.6,0.2,1.2,0.7,1.5c0.8,0.5,1.3,1.6,0.6,2c-2.8,1.6-3.6,5.7-7.4,6c-1.9,0.1-2.7,1.1-2.8,2.9c-0.1,1.9-0.6,3.7-1.8,5.3
				c-0.9,1.1-0.8,2.4-0.1,3.7c0.6,1,1.3,2.1,0.6,3.7c-4.2-0.2-5.4,2.4-5.3,6.3c0,1.3-0.4,3-2.5,3.2c-1.7,0.2-2.1,2.3-3.7,3.2
				c-3.1-2.4-7.2-1.3-10.8-2.8c-1.8-0.7-4.1,2.5-4.5,4.4c-0.3,2-1.7,3.8-3.4,4.9c-1.6,1-3.4,1.2-5.3-0.3c-1.7-1.3-3.5-3.3-6.1-0.6
				c-0.9,0.9-3.2,0.5-4.9,0.6c-2,0-3.8,0.3-4.9,2.4c-3.1-2.1-6.3-3.4-10.1-2.3c-0.3,0.1-0.8-0.1-1.1-0.3c-3-1.7-6-1.3-8.9,0.2
				c-2.2,1.2-4.1,1.1-6.1-0.5c-3.4-2.8-7-1.3-10.4,0c-0.9,0.3-2,1-1.3,2.5c0.5,1.3-1,1.7-1.6,2.2c-2.1,1.6-3.5,4.3-6.7,4.2
				c-0.9,0-1.7,0.5-2.2,1.4c-1.4,2.2-5.3,2.9-7.4,1.5c-3.6-2.5-3.7-2.5-4.7,1.6c-2.8,0.8-2.8,0.8-3.3,3.1c-4.1-1.3-7.1,0.9-10.7,2.9
				c0.1,0-0.2,0-0.4-0.1c-4.8-2.3-4.8-2.3-7.4,2.1c-1.5,2.6-2.8,5.4-6.6,5.1c-0.5,0-1.2,1-1.7,1.6c-1,1.1-1.9,1.2-3.6,1.2
				c-3.5,0-6-2.9-9-2.5c-4.6,0.7-9-0.2-13.5-0.5c-1.2-0.1-2.2,0.1-3,1.3c-1.8-3.7-5.5-3.8-8.7-4.7c-0.9-0.3-1.6-0.4-1.9-1.5
				c-1.5-5.2-3.5-6.8-9-7c-1.3,0-2.5,0-3.8,0.1C109.9,239.1,108.6,237.5,106.7,237z"/>
		</defs>
		<clipPath id="SVGID_2_">
			<use xlink:href="#SVGID_1_"  style="overflow:visible;"/>
		</clipPath>
		<rect x="8.5" y="39.5" class="st0" width="395.2" height="73.5"/>
		<rect x="8.5" y="113" class="st1" width="395.2" height="73.5"/>
		<rect x="8.5" y="186.6" class="st2" width="395.2" height="73.5"/>
	</g>
	<g>
		<path class="st3" d="M106.7,237c0.3-0.4,0.6-0.8,1-1.4c-2-0.3-2.3-1.8-2.6-3.4c-0.8-3.8-2.5-5.2-6.4-5.3c-1.5-0.1-2.6-0.7-3.4-1.6
			c-3.8-4.6-9.1-8.2-10-14.8c-0.3-2.1-2.4-2.8-4-2.9c-2.6-0.1-3.9-1.5-5.1-3.3c-1.3-2-2.7-3.5-5.5-3.1c-0.8,0.1-2.4-0.7-2.7-1.5
			c-1.6-4.3-4.7-7.4-8.2-10.4c2.2-1.6,3.8-2.8,0.1-4.3c-2.9-1.2-3.3-4.9-1.8-9.6c-1.5-1.1-2.7-2.5-5.1-2.4c-1.9,0.1-3.9,1.1-6,0.1
			c1.6-2,2.7-4.2,5-5.2c0.6-0.3,0.9-0.7,1.2-1.3c2-3.7,4.1-4.7,8-3.3c1.6,0.6,3,0.3,4.5,0c0.2-1.8-1.5-1.5-2.1-2.3
			c0.8-0.9,2.2-0.7,2.8-1.9c-0.6-1.1-3.7-1.6-0.9-3.6c0.8-0.6,2-1.5,1.3-2.7c-0.8-1.6-2.1-0.1-3.4-0.2c1.1-2.2-2.6-3.9-0.6-6.2
			c2.7-2.9,2.5-5.6,0.3-8.8c-0.4-0.6-0.1-3,0.6-4.5c3.7,1.7,9.3-1.4,9.9-5.5c0.1-0.4,0.1-1,0.3-1.1c3-1.6,1-3.2,0.8-5.4
			c-0.6-5.7-5-4.3-8-5.2c-1.5-0.5-2.9-1-4.6-1.3c0.4-1,0.4-1.7,1.8-2c1.6-0.4,3.7-0.9,3.9-3.4c0.1-1.1,1.3-1.7,2.3-1.5
			c2.7,0.4,5.5,0.5,7,3.6c1.3,2.8,4.1,2.6,6.5-0.1c3.8,3.6,7.5-0.5,12,0.4c-2-2.4-1.8-4.7-1.7-6.6c0.2-2.4,0-4-2.6-5.5
			c5.6-0.1,4.1-4.5,5.1-7.2c1-2.9,3.6-4.4,6.6-4.1c5,0.4,7.9,3.3,10.7,7.1c2.1,2.9,4.7,5.6,8.6,6.5c0.8,0.2,1.6,0.9,2.1,1.6
			c2.4,3.2,5.8,4.1,9.5,4.2c6.6,0.2,13.2-1.4,19.8-0.1c1.2,0.2,2.3-0.6,3.5-0.8c5.5-1.3,11-3.1,16.8-1.1c1.6,0.6,3.2,0.3,4.4-1.2
			c1.1-1.4,2.4-2.3,5.3-2.9c-6.2-2.3-4.5-6.7-3.7-10c0.4-1.8,2.2-4.8,4.6-5.5c5.5-1.7,11.1-2.8,16.9-1.7c0.8,0.1,1.7,0.6,2.3,0
			c2.6-2.2,5.6-1.6,8.6-1.7c2.1-0.1,4-0.9,4.2-3.7c0.3-3.7,1.6-6.5,6-6.7c0.6,0,1.3-0.5,1.7,0c1.4,1.7,3,1.9,5.2,1.8
			c2.2-0.1,1.1,2.3,1.4,3.9c2.3-0.9,4.2-0.1,5.8,1.5c0.7,0.7,1.6,0.4,2.2-0.2c2.1-2.4,5.1-3.1,7.7-4.6c0.8-0.5,1.3-1.1,1.7-1.9
			c1-2.3,5.7-3.8,8-2.5c3.3-1.7,4.5-5,5.6-8.2c0.9-2.8,1.7-5.6,4-7.6c1.5-1.3,0.7-3.2,1.1-5.1c5-0.6,9.8-2.1,14.7-2.9
			c2.5-0.4,4.3,2.1,6.7,2.7c1.4,0.4,2.9,0.7,4.3,1.2c3.7,1.2,7.1,1.4,11,0.2c1.6-0.5,3.2,0,4.6-1.9c2.2-2.9,8.5-1.6,10.2,1.7
			c0.3,0.5,0.5,1.4,1.1,1.3c3.4-0.2,3.4,2.4,4.3,4.6c1,2.3,2.6,4.3,4.2,6.2c1.4,1.6,3.2,2,5.5,1.1c4.1-1.8,8.3-3.3,13-2.7
			c2.2,0.3,3.2-2,5.2-2.5c1.8-0.5,3.3-0.6,4.9,0.7c-0.5,1.5-1.2,2.9,1.1,4c0.8,0.4,0.2,2.8,0.9,4.2c2.1,4,4,4.9,8.6,3.8
			c1.6,2.3,3.8,4.2,4.7,7.2c1.1,3.7,3.2,4.9,6.6,3.2c3-1.5,4.2,0.8,5.9,2.1c1.7,1.2,2.5,3.1,1.5,5.4c-0.7,1.6-1.5,3.3,1.1,4.1
			c-1.1,2.3-2,4.5-4.6,5.1c-0.4,0.1-1.1,0.7-1.1,0.9c0.5,3.7-3.4,3.9-4.9,6c-1.9,2.7-5.2,2.9-8.4,1.1c-2-1.1-3.8-1.8-4.3,1.5
			c-0.2,1.3-1.4,1.5-2.6,1.5c-3.4-0.1-7.1,2.4-8,5.4c-0.9,3.2-2,5.8-5.6,7.2c-3.7,1.5-5.9,4.7-4.8,9.3c0.7,2.8,0.5,5.2-3.1,6.3
			c-2.1,0.7-3.4,3-3.8,5.1c-0.5,2.3-1.1,4.8-1.8,6.9c-0.9,2.8-2,6.1-4.8,7.9c-1.9,1.2-3.5,2.6-4.5,4.7c1.7,1.7,1.9,4.7,0,6.4
			c-1.6,1.4-2.9,2.7-2.3,5.1c0.2,0.9-0.4,1.6-1.2,1.8c-3.5,0.8-3.3,4.2-4.6,6.5c-0.4,0.6,0.2,1.2,0.7,1.5c0.8,0.5,1.3,1.6,0.6,2
			c-2.8,1.6-3.6,5.7-7.4,6c-1.9,0.1-2.7,1.1-2.8,2.9c-0.1,1.9-0.6,3.7-1.8,5.3c-0.9,1.1-0.8,2.4-0.1,3.7c0.6,1,1.3,2.1,0.6,3.7
			c-4.2-0.2-5.4,2.4-5.3,6.3c0,1.3-0.4,3-2.5,3.2c-1.7,0.2-2.1,2.3-3.7,3.2c-3.1-2.4-7.2-1.3-10.8-2.8c-1.8-0.7-4.1,2.5-4.5,4.4
			c-0.3,2-1.7,3.8-3.4,4.9c-1.6,1-3.4,1.2-5.3-0.3c-1.7-1.3-3.5-3.3-6.1-0.6c-0.9,0.9-3.2,0.5-4.9,0.6c-2,0-3.8,0.3-4.9,2.4
			c-3.1-2.1-6.3-3.4-10.1-2.3c-0.3,0.1-0.8-0.1-1.1-0.3c-3-1.7-6-1.3-8.9,0.2c-2.2,1.2-4.1,1.1-6.1-0.5c-3.4-2.8-7-1.3-10.4,0
			c-0.9,0.3-2,1-1.3,2.5c0.5,1.3-1,1.7-1.6,2.2c-2.1,1.6-3.5,4.3-6.7,4.2c-0.9,0-1.7,0.5-2.2,1.4c-1.4,2.2-5.3,2.9-7.4,1.5
			c-3.6-2.5-3.7-2.5-4.7,1.6c-2.8,0.8-2.8,0.8-3.3,3.1c-4.1-1.3-7.1,0.9-10.7,2.9c0.1,0-0.2,0-0.4-0.1c-4.8-2.3-4.8-2.3-7.4,2.1
			c-1.5,2.6-2.8,5.4-6.6,5.1c-0.5,0-1.2,1-1.7,1.6c-1,1.1-1.9,1.2-3.6,1.2c-3.5,0-6-2.9-9-2.5c-4.6,0.7-9-0.2-13.5-0.5
			c-1.2-0.1-2.2,0.1-3,1.3c-1.8-3.7-5.5-3.8-8.7-4.7c-0.9-0.3-1.6-0.4-1.9-1.5c-1.5-5.2-3.5-6.8-9-7c-1.3,0-2.5,0-3.8,0.1
			C109.9,239.1,108.6,237.5,106.7,237z"/>
	</g>
</g>
<rect y="16.6" class="st4" width="400" height="300"/>
<path class="st5" d="M38.9,217.9c7.2,7,7.3,18.5,0.3,25.7l0,0l-0.3,0.3c-7.2,7.2-18.9,7.3-26.1,0.1s-7.3-18.9-0.1-26.1
	c7.2-7.2,18.9-7.3,26.1-0.1L38.9,217.9z M32.9,237.9c1.9-1.8,2.9-4.4,2.9-7c0.1-2.6-1-5.1-2.9-6.9c-1.9-1.9-4.4-2.9-7.1-2.8
	c-5.3-0.1-9.7,4.2-9.8,9.5v0.2c0,2.6,1,5.1,2.8,7s4.3,2.9,6.9,2.9C28.4,240.9,31,239.8,32.9,237.9z M75.1,220.2l-47.7,74.1
	c-0.8,1.5-2.4,2.5-4.1,2.4c-2.7-0.1-4.9-2.3-5-5c0.1-1,0.4-2,0.9-2.9L67,214.6c0.8-1.5,2.4-2.5,4.1-2.4c1.4,0,2.7,0.5,3.6,1.5
	c1,0.9,1.5,2.3,1.4,3.6C76,218.3,75.7,219.3,75.1,220.2L75.1,220.2z M55.3,291.3c-7.2-7.2-7.2-18.8,0-26l0.1-0.1
	c3.4-3.4,8.1-5.3,12.9-5.4c10.2-0.1,18.4,8.1,18.5,18.3c0.1,10.2-8.1,18.4-18.3,18.5C63.6,296.8,58.8,294.8,55.3,291.3z M61.3,271.3
	c-3.9,3.7-4,9.8-0.3,13.7l0.1,0.1l0.2,0.2c3.8,3.8,9.9,3.9,13.7,0.1c2-1.9,3-4.6,2.9-7.4c-0.2-5.2-4.4-9.4-9.6-9.6
	C65.7,268.4,63.2,269.5,61.3,271.3L61.3,271.3z"/>
<g>
	<ellipse transform="matrix(0.9509 -0.3096 0.3096 0.9509 -5.9342 58.8798)" class="st6" cx="182.5" cy="48.1" rx="51" ry="28"/>
	<ellipse transform="matrix(0.957 -0.2902 0.2902 0.957 -4.7774 54.4223)" class="st7" cx="181.1" cy="43.3" rx="51" ry="24.8"/>
	<ellipse transform="matrix(0.957 -0.2902 0.2902 0.957 -4.7774 54.4223)" class="st8" cx="181.1" cy="43.3" rx="40.7" ry="19.7"/>
	<path class="st6" d="M170.9,53.2c1.8,2,7,1.6,11.5-0.2c2.9-1.3,4.8-3.1,5.2-4.7l0.4-0.9l1.4-0.4c1.4-0.4,2.9-0.7,4.5-1.4
		c4.7-2,6.6-5.2,4.7-7l-0.7-0.4l4.8-2c0.9-0.4,1.6-1.1,1.1-1.6c-0.4-0.4-1.4-0.4-2.5,0l-4.8,2l-2.5-2.5l4.8-2
		c0.9-0.4,1.6-1.1,1.1-1.4c-0.7-0.4-1.8-0.4-2.5,0l-4.8,2l-2.2-2.2c-0.4-0.4-1.4-0.4-2.5,0c-0.9,0.4-1.6,1.1-1.1,1.4l1.8,2.2
		L166.4,44l-1.8-2.2c-0.4-0.4-1.4-0.4-2.5,0c-0.9,0.4-1.6,1.1-1.1,1.4l1.8,2.2l-4.3,1.8c-0.9,0.4-1.6,1.1-1.1,1.6
		c0.4,0.4,1.4,0.4,2.5,0l4.8-2l2.5,2.7l-4.8,2c-0.9,0.4-1.6,1.1-1.1,1.4c0.7,0.4,1.8,0.4,2.5,0l4.8-2L170.9,53.2z M190.6,35.6
		l4.5,4.7c0.9,1.1-0.2,2.9-2.5,3.9c-2.5,1.3-5.7,1.3-6.6,0.2l-4.5-4.7L190.6,35.6z M168.4,45.3l9.3-3.9l5.9,5.9
		c0.9,1.1-0.2,2.9-2.5,3.9c-2.3,1.3-5.4,1.3-6.6,0.2L168.4,45.3z"/>
</g>
<g>
	
		<ellipse transform="matrix(0.8069 -0.5907 0.5907 0.8069 -80.0999 247.7724)" class="st9" cx="338.9" cy="246.4" rx="59.9" ry="28.9"/>
	
		<ellipse transform="matrix(0.8069 -0.5907 0.5907 0.8069 -77.908 245.9399)" class="st10" cx="337.2" cy="242.1" rx="58.7" ry="26.9"/>
	
		<ellipse transform="matrix(0.8069 -0.5907 0.5907 0.8069 -77.908 245.9399)" class="st11" cx="337.2" cy="242.1" rx="47" ry="21.6"/>
	<path class="st12" d="M346.2,236l11.3-6.6c-0.9-1.1-1.6-2-2.2-3.2c-0.4-0.6-1-0.3-2,0.4c-3.7,2-7.4,4.1-11,6.3
		c-2.4,1.4-3.8,1.8-5.3,1.3c-1.8-0.5-2.1-0.6-4.6,2l2.7,0.7c-3.9,2.4-7.6,4.2-11.3,6.5l7.9,10.9c0.2,0.1,0.4,0.3,1-0.1
		c1.8-0.9,3.6-1.9,5.7-2.9l-5.5-7.5c2.2-1.1,4.1-2.2,6.1-3.4c2.4-1.6,4-1.9,5.4-1.4c1.8,0.6,1.9,0.4,4.6-2L346.2,236z"/>
</g>
<g>
	<ellipse class="st13" cx="48.3" cy="48.2" rx="31.3" ry="36"/>
	<ellipse class="st14" cx="44.6" cy="46.9" rx="30.2" ry="34.8"/>
	<ellipse class="st13" cx="44.6" cy="46.9" rx="24.2" ry="27.9"/>
	<path class="st14" d="M49.8,30.8c3.2,0,5.7,2.7,5.9,6.6c0.2,3.6-2.2,6.5-5,6.9c-0.4,0.1-0.8,0.2-1.2,0.1c-1.3-0.2-2.5,0.8-2.6,2.1
		v0.4c0,1.6,1,2.7,2.4,2.6c2.9-0.2,5.4,2,6,5.2c0.7,2.5-0.2,5-2,6.9c-1.5,1.7-4,2.1-6,1c-2.2-1.1-3.4-3.1-3.6-5.9
		c-0.1-1.3,0.2-2.6,0.7-3.8c0.5-1,0.2-2.1-0.5-3c-0.7-0.7-1.7-0.8-2.5-0.4c-0.3,0.2-0.7,0.5-0.8,0.9c-1.5,2.5-3.6,3.5-6,2.8
		c-2.5-0.6-4-2.5-4.6-5.4c-0.8-4.1,2.5-8.3,6.1-8c2.4,0.2,4,1.6,5.1,4c0.3,1.1,1.5,1.7,2.5,1.4c0.1,0,0.1,0,0.2-0.1
		c0.2-0.1,0.2-0.1,0.3-0.2c1.2-0.7,1.7-2.3,1-3.6c-0.6-1.2-1-2.4-1.1-3.6C43.8,33.9,46.4,30.9,49.8,30.8z"/>
</g>
<g>
	<path class="st15" d="M386.7,26.1c1,1.4,1.9,3,2.6,4.6l0.2,0.3c0,0.2,0.1,0.6,0.2,0.8l0.1,0.2c-0.2,0.8,0.4,1.7,0.5,2.7
		c0.1,0.6-0.2,0.8,0.2,1.4c-0.3,1-0.4,2.4-0.8,3.5c-0.1,0-0.1,0.1-0.1,0.2l0.1,0.1c-0.4,0.6-0.8,1.1-1.1,1.9c0,0-0.3-0.2-0.2,0.1
		c-1.3,1.3-2.8,2.3-4.4,3c-1.4,0.2-2.9,1-4.5,1c-13.8,2.5-39.4-13-36.3-27.6c0.2-0.1-0.1-0.3,0.1-0.5c0.2-0.2,0.4-0.2,0.2-0.4
		c-0.1-1.1,1.7-2.6,2-3.4c0.2-0.2,0.4-0.4,0.5-0.6c0.4-0.2,0.8-0.6,1.3-0.7c0.9-0.6,1.8-1.1,2.8-1.5c0.4,0,0.7-0.1,1-0.2
		c2.1-0.5,4.1-0.7,6.2-0.5c0.3-0.2,0.8,0.2,1-0.2c0,0.1,0.1,0.1,0.2,0.1l0.1-0.1c2.2,0.3,4.7,0.9,7.1,1.3c0.1,0.1,0.4,0.2,0.6,0.1
		c3.4,1.3,6.8,2.9,10.1,4.7c0.3,0.4,0.7,0.7,1.2,0.7c0.8,0.7,1.6,1.4,2.6,1.9c0.1,0.1,0.2,0.4,0.4,0.2c0.5,0.8,1.7,1.4,2.3,2.2
		c0.4,0,0.4,0.5,0.8,0.5c0.1,0.2,0.2,0.1,0.3,0.2c-0.2,0.4,0.2,0.4,0.5,0.6C384.7,24.1,385.9,24.8,386.7,26.1z M380.6,42.2
		c9.2-2.8,6.4-12.2,1.7-17.4C370.6,11.7,349.2,9.4,347,20c-1.5,5.6,3.2,10.9,7,14.6c7.3,5.7,16.9,10.2,26.3,7.7L380.6,42.2z"/>
	<path class="st16" d="M380.4,42.3c-9.5,2.5-19-2-26.3-7.7c-3.7-3.7-8.5-9-7-14.6c1.4-2.3,3.5-3.8,6.1-4.6c7.4-1.4,13.3,1,19.2,3.7
		c2.4,2,5.6,3.5,7.5,6c4.8,4.4,8,13.3,0.8,17C380.6,42,380.1,42,380.4,42.3z M370.2,24.9C370.4,25.1,370.7,24.7,370.2,24.9
		c-2.9-2.4-5.9-4.5-9-6.8l-0.4,7.5c1.2-0.8,2.3-1.9,3.5-2.6C366.3,23.7,368.2,24.3,370.2,24.9z M373.4,27c-2.6-1.2-5.7-1.9-8.4-3.1
		c-0.8,0.4-1.4,1-2,1.5c-0.9,0.6-1.7,1.3-2.6,2c0,0.2,0.3,0.2,0.4,0.4c4.3,3.5,8.7,7.2,13.2,10.6C373.7,34.7,374,30.7,373.4,27z"/>
	<path class="st16" d="M388.1,42.9l-0.2,0.1c-0.7,0.8-1.3,1.7-1.7,2.7c-0.4,0.2-0.6,0.8-1,1c-1.1,1.3-2.8,1.8-4.4,2.8
		c-2.2,0.4-4.4,0.8-6.6,0.9c-0.1-0.1-0.1-0.1-0.2-0.1l-0.1,0.1c-1.1-0.3-2.8-0.1-4.1-0.5c-1.3-0.1-2.5-0.8-3.7-0.7
		c0-0.1-0.1-0.1-0.2-0.1l-0.1,0.1c-0.2-0.4-0.5-0.5-0.9-0.3c-0.1-0.1-0.1-0.1-0.3-0.1c-0.2-0.4-0.5-0.5-0.9-0.3
		c0-0.1-0.1-0.1-0.3-0.1c0-0.1-0.1-0.1-0.2-0.1l-0.1,0.1c-0.2-0.2-0.3-0.3-0.5-0.3l0,0c-0.3-0.4-0.4-0.4-0.8-0.2
		c-2.5-1.4-5.4-2.6-8-4.2c-0.6-0.4-1.6-1.6-2.3-1.5c-0.8-1.1-2.4-1.7-3.3-3.1c-0.5,0-0.5-0.6-0.8-0.6c-2.3-2.7-4.6-5.4-5.8-8.8
		c-0.4-1.1-0.5-2.6-1-3.8c0.3-0.3,0.1-0.7,0.1-1.4c0.2-2.3,1.1-4.4,2.5-6.2C340.2,34,367,48.4,379.5,45.6c1.4,0,3.1-0.7,4.5-1
		c1.7-0.8,3.1-1.8,4.4-3c0.1,0.5-0.3,0.8-0.5,1.1L388.1,42.9z"/>
	<path class="st17" d="M380.6,42.2c7.5-3.9,3.7-12.7-0.8-17c-2-2.6-5.1-4.1-7.5-6c-6.2-3-12.4-5-19.2-3.7c-1.7,0.5-3.3,1.5-4.7,2.6
		c-0.7,0.6-0.7,1.4-1.5,1.9c0.6-4,4.6-5.9,8.4-6.5c10.5-1.3,21.2,4.9,27,11.3C388.5,31.9,388.1,40,380.6,42.2z"/>
	<path class="st17" d="M380.4,42.3c-0.1-0.1,0-0.2,0.1-0.3c0.1-0.1,0.2,0,0.3,0.1L380.4,42.3z"/>
	<path class="st15" d="M373.4,27.1c0.5,3.6,0.2,7.5,0.6,11.4c-4.4-3.3-8.9-7-13.2-10.6c2.3,0.1,5.3,1.2,7.7,1.9
		C370.1,28.9,371.7,28,373.4,27.1z"/>
	<path class="st18" d="M373.4,27.1c-1.6,0.9-3.2,1.6-5,2.7c-2.4-0.7-5.2-1.7-7.7-1.9c-0.1-0.2-0.5,0-0.4-0.4c0.8-0.7,1.7-1.3,2.6-2
		c0.7-0.6,1.4-1.1,2-1.5C367.7,25.2,370.9,25.8,373.4,27.1z"/>
	<path class="st15" d="M370.1,24.9l-5.9-2c-1.1,0.7-2.2,1.8-3.5,2.6l0.4-7.5C364.2,20.4,367.3,22.5,370.1,24.9z"/>
</g>
</svg>
