<?xml version="1.0" encoding="utf-8"?>
<!-- Generator: Adobe Illustrator 24.3.0, SVG Export Plug-In . SVG Version: 6.00 Build 0)  -->
<svg version="1.1" id="Layer_1" xmlns="http://www.w3.org/2000/svg" xmlns:xlink="http://www.w3.org/1999/xlink" x="0px" y="0px"
	 viewBox="0 0 400 300" style="enable-background:new 0 0 400 300;" xml:space="preserve">
<style type="text/css">
	.st0{fill:#212F63;}
	.st1{fill:#EE2D2F;}
	.st2{clip-path:url(#SVGID_2_);fill:#EE2D2F;}
	.st3{clip-path:url(#SVGID_2_);fill:#FDFEFE;}
	.st4{clip-path:url(#SVGID_2_);fill:#212F63;}
	.st5{fill:none;stroke:#000000;stroke-linejoin:round;stroke-miterlimit:10;}
	.st6{fill:none;}
	.st7{fill:#F3F2EF;}
	.st8{fill:#C98017;}
	.st9{fill:#FBED60;}
	.st10{fill:#FABA31;}
	.st11{fill:#68C2EE;}
	.st12{fill:#0491BE;}
	.st13{fill:#68C2EF;}
	.st14{fill:#31798F;}
	.st15{fill:#C1BDBE;}
	.st16{fill:#6E6E6E;}
	.st17{fill:#6C6C6C;}
	.st18{fill:#BCBCBC;}
	.st19{fill:#E1E1E1;}
	.st20{fill:#0A0A09;}
</style>
<g>
	<path class="st0" d="M60.7,189.6c0-1.2-0.1-2.4,0.5-3.6c1.7-0.2,3.5-0.6,3.8,1.8c0.3,1.7-1.1,2.5-2.1,1.8
		C61.9,189,61.5,190.1,60.7,189.6z"/>
	<path class="st1" d="M174.7,45.1c0.2-0.7,0.4-1.4,0.7-2.5c-1.3,0.6-2,0.5-2.1-1.1c1.9,1.2,3.1-3.3,5.1-0.2c0.9-0.9-1-1.4-0.2-2.3
		c1-0.4,1.5,0.5,2,1.2c1.3-0.7,0-1.5,0.2-2.1c0.4-0.8,1.3-0.3,1.4-0.6c0.4-0.7,0.6-0.9,1.3-0.3c0.5,0.5,0.6,0.9,0.2,1.6
		C181.4,42.1,179.7,45.6,174.7,45.1z"/>
	<path class="st1" d="M157.6,50.2c1.4,0.6,1.9,2.3,3.5,2.7c0,0,0.8,0.9,0.3,1.6c-0.3,0.5-0.7,0.9-1.4,0.9c-0.7-0.1-1.4-0.3-1.3-1
		C159.1,52.7,156.1,52.2,157.6,50.2z"/>
	<path class="st1" d="M136.8,80.8c-0.2-0.1-0.3-0.3-0.5-0.4c0.2-0.8-0.8-1-1.1-1.8c1.1-0.1,1.9-0.6,1.9-1.8c1,0.5,0.1,2.6,2.1,1.8
		C138.7,79.9,138.5,81.2,136.8,80.8z"/>
	<g>
		<defs>
			<path id="SVGID_1_" d="M177.9,49.9c0.1-0.8-0.9-1-1-1.9c3.2-2.4,6.5-5,8.2-9.3c1.4,0,2.7,0.6,3.7,2.7c0.4-1.4,0.5-3.2,2.6-1.5
				c-0.4-2.2-3.9-1.6-2.8-4.2c1-0.7,1.1,0.7,2.1,0.8c-0.2-2.1-0.9-4.2,0.4-6.3c-0.8,4.2,3.9,2.8,4.8,5.2c-0.1-2.5-2.9-5.3,1.5-7.2
				c0.5-0.1,0.9,1.7,2,0.7c0.7,0.7-0.6,1.4,0,1.9c0.8,0.5,1-0.7,1.8-0.3c-0.1,2.1-2.2,1.6-3.2,2.2c-0.1,1.7,1.3,0.7,1.7,1.7
				c-0.6,1.4-0.9,3.1-2.1,4.4c-2,2-1.3,4.9-0.9,6.8c0.4,2.1-1.9,3-1,4.7c0.5,0.1,0.4-0.4,0.6-0.6c1-0.7,2.8-0.6,1.5-2.8
				c-0.4-0.7,0.8-2.5,1.4-3.7c1.6-2.9,1.9-6.4,3.5-9.3c0.4-0.8,0.5-2,1.9-2c1.3,3.4-0.1,7.3,2,11.4c0.2-1.7,0.7-2.3,1.6-2.1
				c-0.2-2.9-0.6-5.7,1.8-7.9c-0.5-1.1-1.8-0.2-2.4-0.9c-1.1-2.7,3.2-2.6,2.3-4.9c1.2-0.1,1.2,1,1.9,1.2c0.8-0.4,1.5-1,2.7-1
				c-0.1,1.7,1.1,1.6,2.3,1.6c0.3,3.3-0.3,4.3-2.9,4.6c3.5,2.1,3.5,2.2,0.9,5.7c1.1-0.3,1.9-0.6,2.8-0.8c0.7-2-0.2-4,0.8-5.9
				c0.5-0.9,0.3-2.1,1.8-2.2c1.4-0.1,2.5,0.6,3.3,1.7c0.2,0.3,0.3,0.8,0.3,0.8c1.1,0.9,2.2-2,3,0.5c0.1,0.3,0.3-0.3,0.5-0.5
				c0.5-0.6,1.4-0.7,1.6-0.3c1,1.9,3.2,1.9,4.6,3.2c0.5,0.5,0.9,0.5,1.6,0.5c0.6,0,1.2,0.5,1.8,0.8c-0.6,0.8,0.3,2.1-0.8,2.6
				c-1.9,0.8-3.1,2.2-3.9,4.1c-0.6,1.3-2,1.8-3.5,1.7c-2.4-0.1-4.7,0-7.5,0c1.5,0.9,2.7,0.9,3.8,1.3c3.9,1.4,7.9,2.2,12,2.4
				c2.4,0.1,1.9,2.4,2.5,3.9c0.3,0.7,0.5,1.5-0.3,1.8c-1.3,0.4-2.7,0.7-3.8-0.6c-0.4-0.4-0.7-1-1.6-0.8c1.6,3.4-0.8,5.3-2.9,7.1
				c-1,0.8-1.3,1.4-1.1,2.7c0.3,1.5,0.6,3.3-0.9,4.6c-2.8-1.3-3.4-2.9-1.8-5.7c1.3-2.2,1.9-4.3,0.2-6.6c-0.6-0.9-1.1-1.5-2.2-1.8
				c-2-0.6-4.1-1-5.7-2.5c-1-0.9-2.2-1.7-2.2-3.2c-2.4-0.3-3.1,1.5-4.1,2.8c-0.8,1.1-1.6,1.8-3,1.2c-1.1-0.5-2.3-0.3-2.8,0.7
				c-2.7,5.2-4,10.8-2.7,16.7c0.5,2.4,1.4,4.5-1.8,5.8c-1.2,0.5-1.5,2.3-1.3,3.7c0.1,1.3-0.3,2.2-1.6,2.8c-0.7-1.5-1.8-2.2-3.4-2
				c-1.2,0.1-1.8-0.8-2.6-1.5c-0.7-0.7-1.7-1.3-2.1-0.2c-1.4,3.7-4.2,3.5-7.4,3.4c-3.3-0.1-4-2.7-5-4.8c-1.1-2.3-2.8-4.1-4.1-6.2
				c-0.6-1-2.1-1.3-3-0.7c-1,0.7-2.1,1.7-1.4,3.3c0.3,0.6,0.8,1.2,0.3,2.2c-2.2-1.2-4.2,0.2-6.8,0.6c2.9,3.6,1.9,6.9-0.4,10
				c0.1,1,1.2,0.7,1.5,1.4c0.2,0.8-1.9,2.9-2.8,2.6c-1.2-0.4-2.6-0.6-3.6-1.3c-2.3-1.5-5-0.8-7.5-1.5c-2.1-0.6-2.2,1.7-1.8,3
				c1.1,3.2,0.4,5.9-1.2,8.6c-0.1,0-0.3,0.1-0.4,0c-3-2.9-7.6-1.6-8.6,2.6c-0.6,2.8-0.9,5.6-3.8,7.2c-1,0.6-0.6,1.9,0.1,3
				c2.4,3.3,2.3,5-0.4,8c-2.3,2.7-3.3,6.3-5.9,8.8c-0.5,0.5-0.2,1.1-0.2,1.7c0.4,3.2-1.5,5.4-4.7,5.4c-2.1,0-2.7,0.7-2.2,2.6
				c0.6,2.2,0.7,4.4-0.1,6.6c-1,2.9-0.3,6-1.3,9.1c-1.2,3.7-3.5,6.7-5.1,10.1c-0.4,0.9-0.9,1.7-1.5,2.8c5.9,2.6,5.1,6.7,2.5,11.4
				c-1.3-0.3-2.7-0.5-3.9-1c-3.3-1.6-6.2,0.3-8.2,2.6c-3,3.6-4.2,8.1-6.1,12.2c-0.7,1.4,0.8,2.6,1,3.9c0.2,1,0.3,1.7,0,2.7
				c-0.8,2.9-1.8,6.2-0.5,8.9c2,4.1,1.2,8,0.1,11.8c-1,3.5,0.2,5.6,2.9,7.4c2.6,1.7,3.1,4.2,1.9,7c-0.4,0.9-1,1.8-1,2.9
				c-1.4,0.4-2.9-0.6-4,0.8c0.4,3,1.5,5.9,2.5,8.8c0.1,0.4,0.6,0.9,0.5,1.2c-1.5,3.7-0.1,8.6-4.1,11.1c-2.1,1.2-4.6,1.6-3.8,4.8
				c-2.8,1.3-1.7,3.5-1.3,5.6c0.6,3.3-1.1,6.2-1.8,9.2c-0.2,0.7-1.1,1-2.2,0.7c0.6-3-1-4.8-3.6-5.9c-1,1,2,1.3,0.4,2.4
				c-2.1-0.9-4.1-6.6-3.5-10.3c-0.9,0.1-1.8,0.1-3.1,0.2c3,2.8,1.5,6,1,9c-0.5,0.8-0.6-0.8-1.4-0.2c-1.5,1.2-3.2,2.6-5.4,1.5
				c-0.7-0.3-1.1,0.4-1.5,0.8c-4.8,5.2-9.7,10.5-15.5,14.6c-1.5,1.1-3.3,1.3-5,1.4c-1.6,0.1-2.7,1.9-4.7,0.7
				c-1.3-0.8-3.4-0.3-4.6-0.9c-1.5-0.6-3.3-0.9-4.5-2.2c-0.4-0.9,0.5-1.2,0.7-1.8c-1.9-2.3-4.6-3.6-6.8-5.5
				c-2.9-2.6-3.7-5.7-2.3-9.3c0.2-0.5,0.1-1.4,0.4-1.7c1.1-1-0.6-3.9,2.5-3.4c0.4,0.1,1.6-1.2,1-2.4c1.2-0.1,2.2-0.2,3.2-0.3
				c-1.9-1.7-5.4-0.7-7.3,2.2c-0.7-2.1-1.5,0.3-2.4-0.1c-0.5-0.9-0.4-1.9,0-2.7c1.7-3.2,1.2-6.5,0.9-9.8c-0.2-1.7,0-2.9,2-3.1
				c1.3-0.2,1.7-1.2,1.7-2.4c2.7,0.7,2.9,0.6,2.9-2.3c-1-0.1-1.2,1.2-2.1,1.2c-1.4-1.6-1.4-1.6-2.7-0.9c1.5,0.3,1.3,1.4,1.4,2.4
				c0.1,0.9-0.6,0.9-1,1.2c-0.7,0.5-1.1,0.2-1.6-0.3c-0.3-0.3-0.4-0.5-0.3-1.1c0.7-3.1-0.2-6.2-0.5-9.3c-0.1-1.3-0.5-2.6-0.5-4
				c1.3,0.6,1,1.9,1.5,3c0.7-1.1,0.4-2,0-3c-0.6-1.2-0.4-2.6-0.3-3.8c0.1-2,3.8-3.5,5.5-2.4c0.9,0.6,1.4,0.7,2.5,0.2
				c2.3-1.2,4.8-0.9,7.2-0.3c-2-1-4.3-1.8-6.2-0.8c-2.2,1.2-3.3,0.1-4.7-1.1c-1.4,1.5-3.4,1.6-4.9,2.7c-1.6-2.1,2.3-2.5,1.2-4.4
				c0.9-0.4,1.6,0.2,2.4,0.3c-0.3-0.9,0.7-2.3-1.9-2.5c2.1-0.9,2.8-2.3,4-3.4c-0.8-1.4-1.9-1.6-3.5-0.4c-0.1-2.1,1-3.7,0.9-5.4
				c-0.1-1.9,3.3-1.7,2.1-4.1c1-0.4,1.6,0.2,2.2,1c0.7-0.7,1.5-1.3,0.5-1.9c-0.8-0.5-1.4-1-1.2-1.9c0.1-0.3,0.8-0.8,0.9-0.7
				c0.8,0.5,1.5,1.1,1.3,2.3c1.4-0.9,0.8-1.7,0.2-2.4c0.8-1,2.3-0.4,2.7-1.6c-0.4-0.1-0.8-0.3-1.1-0.4c0.8-2.4,2.4,0.3,3.1-0.5
				c2-2.1,2,0.6,3.1,1.2c0.8-0.1,1.6-0.7,2.6-0.4c-0.1-2-1.8-1.3-2.5-2c-0.7-0.7-0.8-1.6-0.1-3.3c0.4,2.1,1,3.4,3,2.7
				c-0.3-1.1-1.4-0.3-1.9-0.9c-0.1-0.6,0.4-0.9,0.8-1.1c1.2-0.6,3.2,0.4,3.6-2c0-0.3,2.1-1.3,2.8,0.8c0.3,0.9,1.6,1.5,2.7,1.4
				c1.4,0,0.5-1.4,1.1-2c-2.6,1.4-3.7-1.2-5.7-1.6c1.3-2.3,3.1-3.2,5.6-4c1.8-0.6,3.8-1.9,5.6-2.6c3.2-1.2,5.7-3.7,9.5-4.4
				c-1.2-0.7-1.9-0.3-2.7,0c-1.1,0.4-2.6,0.9-2.9-0.8c-0.3-1.4,0.3-2.7,2.2-2.7c0.2,0,0.5-0.2,0.9-0.3c-0.8-0.9-1.9-0.2-2.8-0.9
				c1.3-0.6,2.5-1.2,3.4-2.2c0.6-0.7,1.4-0.4,2,0.2c0.9,0.9,0.2,1.6-0.3,2.3c0.9,1.1,1.7-0.1,2.7,0.2c0.1,0.9,0,2.1,0.8,2.9
				c1.7,0,2.9-2.2,5-1.5c0-0.1,0.1-0.7,0.2-1.3c-0.8-0.6-1.4,0.7-2.3,0c0.4-1.9,0.7-3.7,3.1-4.3c1-0.3,0.8-1.3-0.4-2.2
				c3.8-2.2,4.9-6.6,7.8-9.4c1.4-1.4,3.5-2.7,5.4-2.9c1.8-0.2,2.3-1.5,3.5-2.1c-1.7-0.3-2.3,2.2-4.2,1.2c-0.3-3.5-3.3-1.2-5-2.1
				c1-2,2.1-3.7,4.7-3.8c1,2.3,2.6,1.8,4.3,0.8c-0.3-0.4-0.6-0.8-1-1.2c1.4-2,3.9-0.7,5.5-2.1c-0.1-0.8-1.3-0.1-1.3-1.1
				c1.2-0.7,2.5-1.5,0.6-3c-0.2-0.1,0.1-1.2,0.4-1.4c1.9-1.2,2.3-3.4,3.5-5c0.5-0.7-0.3-1.2-0.1-1.8c-0.8-0.1-0.8,0.7-1.3,0.8
				c-0.7-0.6-0.4-1.5-0.7-2.2c-0.6-0.6-1.1,0.4-2-0.2c2.1-0.5,2.2-2,2.3-3.6c0.2-2.3,2.5-3.4,4.6-2.4c0-1.7,0-1.7,1.7-1.5
				c0.6,0.1,1.3,0,0.9-1.1c-0.7-1.7-1.2-3.5-1.8-5.3c-1.1-0.1-0.4,1.1-1.2,1.2c-0.7-2.7,1.1-1.7,2.3-1.6c0.4-0.5-0.4-2.2,1.5-1.6
				c0.1,0.9,0.2,1.8,0.3,3.3c1.1-1.9,0.2-4.1,2.1-5.2c-0.1-0.6-1.1-0.4-1-1.1c0-0.6,1.9,0.8,1.1-1.1c-0.5-1.1,0.8-1,1.5-1.1
				c1.8-0.2,3-0.9,3.8-2.6c-1.2-0.6-1.3,1.6-2.7,0.6c2-2.6,5.5-2.3,7.8-4.2c-0.9-0.5-1.9,0.7-3.1-0.1c3.1-1.5,2.8-6.2,7-6.5
				c-0.8-1.4-2.2-0.8-3.1-1.2c-0.2-1.3,0.4-1.9,1.6-2c-1,0.3-2.1-1.5-2.9,0.4c0-0.9-0.2-1.8,0.2-2.5c0.7-0.6,0.7,0.7,1.3,0.3
				c2.1-3.9,5.9-6,9.4-8.5c0.7-0.3,0.6,0.7,1.2,0.9c1.5-1.2-0.4-1.7-0.5-2.7c1,0,1.8-0.6,2.7-1.1c0.8-0.4,1.6-0.7,2.5-0.4
				c3.2,1,3.9,0.8,5.8-2.3c-1.4,0.1-2.2,2.3-3,1.5c-1.2-1.2-1.9-0.1-2.9,0c-2.3,0.2-4.3,1.7-6.7,1.5c-1.3-0.1-0.8,1.4-2,1.6
				c-2.8-1.6-4.5,1-6.6,2.5c-1.6-1.8-2.7,0.5-4.1,0.5c-0.1-0.4-0.2-0.8-0.3-1.5c-3.5,3-8,4.3-10.8,8.1c0.7-2.5,0.7-5.3,3.7-6.4
				c0.9-0.3,1.8-1.3,2.2-2.6c0.4-1.2,1.9-1.2,3.1-1.5c0.4-0.1,1.1,0,1.3,0.1c2.4,1.1,2.5-2.1,4.4-2.2c1.5-0.1,3.8,0.6,3.9-2.3
				c0-0.7,1.8-0.8,2-2.7c-1.2,1.4-2.7,1.5-3.4,3c-0.9,1.8-2,1.5-3-0.1c0.5-0.3,1-1.3,1-2c-1.1,0.5-2,1.6-3.2,0.7
				c0.9-1.8,0.1-5.3,4.1-4.8c-1-1.9,0.9-2.5,1.5-4.1c0.9,1.2,1.8,2,2.1,3.3c0.6-1.8,0.3-4.2,1.9-5c1.8-1,1.1-3.8,3.5-4
				c0.7,2-0.1,4.1-2.4,6.9c2.6,1.1,1,3.9,2.2,5.5c0.4-1.4,0-3.4,2.4-3.7c0.2,0.1,0.3,0.3,0.5,0.4c1.2,1.1,1.7,2.5,1.6,4.3
				c1-0.5,1.5-0.4,1.8-1.8c0.3-1.9,1.5-4.1,4.6-3.7c-3.3-3.9,1.3-3.2,2.5-4.9c-2.5,0.3-5.1-0.1-5.1,3.3c-1.3,0.1-1.4-2.4-2.8-0.9
				c-0.6-1.9,1-1.7,1.5-2.3c-0.9-1.6-0.5-3.4-1.2-4.9c1-0.3,1.8-0.5,2.7-0.7c-1.4-2,1-2.7,1.6-3.3c1.2-1.2,3.7,0.9,4.6,4.1
				c0-1.8,0.6-2.5,2.3-1.8c-0.2-2.4-2.6-0.7-3.4-2.4c-0.8-1.8,2.4-2.5,0.2-4c2.9-0.1,4.6-1.1,4.4-4c0-0.4,0.9-0.6-0.2-1.1
				c-0.9-0.4,0.1-4.5,0.9-4.2c1.6,0.5,1.3-1.3,2.4-1.4c0.4,1.2,0.5,2.3-0.2,3.6c2.2-0.5,3.3,2.6,5.7,1.1c-0.3,2.7-1.5,4.4-4.7,4.6
				c1.6,0.9,2.4-0.2,3.4,0c0.6,0.9,0,1.8,0.4,3c1.1-2.4,1.6-5,3.6-6.8c1.1,2.4,1.2,4.7,0.3,12.1c2.8-4.3,0.6-9.1,2.6-13
				c-0.9-0.8-2.5,0-2.7-1.6c-0.1-1.3,0.1-2.5,1.4-2.9c1.9-0.6,1.7,1.5,2.4,2.4c0.4,0.4-0.8,1.7,1,1.7c0.3,0,0.8,1.5,0.2,2.2
				c-0.6,0.8-0.6,1.5-0.1,2.5c0.9-1.4,1.7-2.8,1.4-4.5c2.3-0.6,2.5,1.6,3.6,2.4c1.6-1.7,1.6-2.5-0.5-3.5c-1.6-0.7-2.9-1.6-4-3
				c0.5-1.9,3.8-1.2,3.1-4.2C173.7,49.5,176.3,48.5,177.9,49.9c4-0.5,4,3.5,5.6,5.4c0.8-0.3,1.4-0.6,2.6-1c-1.5-0.2-2.4-0.3-2.8-1
				c0.6-1.9-0.8-4,0.3-4.7C182.7,50,180.1,49.4,177.9,49.9z M80.4,187.2c1,0.6-0.2,1.8,0.7,2.9c1.6-4.5,4.9-0.8,7.2-2
				c-0.4-0.8-0.2-2-1.6-2.2c1.7-2.6,5-2.6,7.2-4.3c-0.5-0.7-1-0.9-1-0.9C88.5,183,85,186,80.4,187.2z"/>
		</defs>
		<clipPath id="SVGID_2_">
			<use xlink:href="#SVGID_1_"  style="overflow:visible;"/>
		</clipPath>
		<path class="st2" d="M246.1-3.8c0,111,0,222,0,333c-92.9,0-185.8,0-278.8,0c-2.8,0-5.9-0.6-8.4,0.7c-2.3,0-4.7,0.1-7,0.1
			c-1.4-0.3-1.2-1-0.9-1.6c2-1.3,1.1-2.9,1.1-4.4c0-109.5,0-219.1,0-328.6c0.9,0,1.8,0,2.7,0c1.7,1.2,4.1,0.7,6.3,0.7
			c9.4,0,18.7,0.1,28.1,0c2.6,0,5.4,0.6,7.6-0.7c82.6,0,165.2,0,247.9,0C245.2-4.3,245.7-4,246.1-3.8z"/>
		
			<rect x="-222.3" y="218" transform="matrix(-1.836970e-16 1 -1 -1.836970e-16 291.7613 178.419)" class="st3" width="558" height="34.2"/>
		<rect x="-182.3" y="218" class="st3" width="558" height="34.2"/>
		<rect x="-24.1" y="227.7" class="st4" width="241.5" height="14.8"/>
		
			<rect x="-64.1" y="227.7" transform="matrix(-1.836970e-16 1 -1 -1.836970e-16 291.7613 178.419)" class="st4" width="241.5" height="14.8"/>
	</g>
	<path class="st5" d="M174.7,45.1c0.2-0.7,0.4-1.4,0.7-2.5c-1.3,0.6-2,0.5-2.1-1.1c1.9,1.2,3.1-3.3,5.1-0.2c0.9-0.9-1-1.4-0.2-2.3
		c1-0.4,1.5,0.5,2,1.2c1.3-0.7,0-1.5,0.2-2.1c0.4-0.8,1.3-0.3,1.4-0.6c0.4-0.7,0.6-0.9,1.3-0.3c0.5,0.5,0.6,0.9,0.2,1.6
		C181.4,42.1,179.7,45.6,174.7,45.1z"/>
	<path class="st5" d="M60.7,189.6c0-1.2-0.1-2.4,0.5-3.6c1.7-0.2,3.5-0.6,3.8,1.8c0.3,1.7-1.1,2.5-2.1,1.8
		C61.9,189,61.5,190.1,60.7,189.6z"/>
	<path class="st5" d="M157.6,50.2c1.4,0.6,1.9,2.3,3.5,2.7c0,0,0.8,0.9,0.3,1.6c-0.3,0.5-0.7,0.9-1.4,0.9c-0.7-0.1-1.4-0.3-1.3-1
		C159.1,52.7,156.1,52.2,157.6,50.2z"/>
	<path class="st5" d="M136.8,80.8c-0.2-0.1-0.3-0.3-0.5-0.4c0.2-0.8-0.8-1-1.1-1.8c1.1-0.1,1.9-0.6,1.9-1.8c1,0.5,0.1,2.6,2.1,1.8
		C138.7,79.9,138.5,81.2,136.8,80.8z"/>
	<g>
		<path class="st5" d="M177.9,49.9c0.1-0.8-0.9-1-1-1.9c3.2-2.4,6.5-5,8.2-9.3c1.4,0,2.7,0.6,3.7,2.7c0.4-1.4,0.5-3.2,2.6-1.5
			c-0.4-2.2-3.9-1.6-2.8-4.2c1-0.7,1.1,0.7,2.1,0.8c-0.2-2.1-0.9-4.2,0.4-6.3c-0.8,4.2,3.9,2.8,4.8,5.2c-0.1-2.5-2.9-5.3,1.5-7.2
			c0.5-0.1,0.9,1.7,2,0.7c0.7,0.7-0.6,1.4,0,1.9c0.8,0.5,1-0.7,1.8-0.3c-0.1,2.1-2.2,1.6-3.2,2.2c-0.1,1.7,1.3,0.7,1.7,1.7
			c-0.6,1.4-0.9,3.1-2.1,4.4c-2,2-1.3,4.9-0.9,6.8c0.4,2.1-1.9,3-1,4.7c0.5,0.1,0.4-0.4,0.6-0.6c1-0.7,2.8-0.6,1.5-2.8
			c-0.4-0.7,0.8-2.5,1.4-3.7c1.6-2.9,1.9-6.4,3.5-9.3c0.4-0.8,0.5-2,1.9-2c1.3,3.4-0.1,7.3,2,11.4c0.2-1.7,0.7-2.3,1.6-2.1
			c-0.2-2.9-0.6-5.7,1.8-7.9c-0.5-1.1-1.8-0.2-2.4-0.9c-1.1-2.7,3.2-2.6,2.3-4.9c1.2-0.1,1.2,1,1.9,1.2c0.8-0.4,1.5-1,2.7-1
			c-0.1,1.7,1.1,1.6,2.3,1.6c0.3,3.3-0.3,4.3-2.9,4.6c3.5,2.1,3.5,2.2,0.9,5.7c1.1-0.3,1.9-0.6,2.8-0.8c0.7-2-0.2-4,0.8-5.9
			c0.5-0.9,0.3-2.1,1.8-2.2c1.4-0.1,2.5,0.6,3.3,1.7c0.2,0.3,0.3,0.8,0.3,0.8c1.1,0.9,2.2-2,3,0.5c0.1,0.3,0.3-0.3,0.5-0.5
			c0.5-0.6,1.4-0.7,1.6-0.3c1,1.9,3.2,1.9,4.6,3.2c0.5,0.5,0.9,0.5,1.6,0.5c0.6,0,1.2,0.5,1.8,0.8c-0.6,0.8,0.3,2.1-0.8,2.6
			c-1.9,0.8-3.1,2.2-3.9,4.1c-0.6,1.3-2,1.8-3.5,1.7c-2.4-0.1-4.7,0-7.5,0c1.5,0.9,2.7,0.9,3.8,1.3c3.9,1.4,7.9,2.2,12,2.4
			c2.4,0.1,1.9,2.4,2.5,3.9c0.3,0.7,0.5,1.5-0.3,1.8c-1.3,0.4-2.7,0.7-3.8-0.6c-0.4-0.4-0.7-1-1.6-0.8c1.6,3.4-0.8,5.3-2.9,7.1
			c-1,0.8-1.3,1.4-1.1,2.7c0.3,1.5,0.6,3.3-0.9,4.6c-2.8-1.3-3.4-2.9-1.8-5.7c1.3-2.2,1.9-4.3,0.2-6.6c-0.6-0.9-1.1-1.5-2.2-1.8
			c-2-0.6-4.1-1-5.7-2.5c-1-0.9-2.2-1.7-2.2-3.2c-2.4-0.3-3.1,1.5-4.1,2.8c-0.8,1.1-1.6,1.8-3,1.2c-1.1-0.5-2.3-0.3-2.8,0.7
			c-2.7,5.2-4,10.8-2.7,16.7c0.5,2.4,1.4,4.5-1.8,5.8c-1.2,0.5-1.5,2.3-1.3,3.7c0.1,1.3-0.3,2.2-1.6,2.8c-0.7-1.5-1.8-2.2-3.4-2
			c-1.2,0.1-1.8-0.8-2.6-1.5c-0.7-0.7-1.7-1.3-2.1-0.2c-1.4,3.7-4.2,3.5-7.4,3.4c-3.3-0.1-4-2.7-5-4.8c-1.1-2.3-2.8-4.1-4.1-6.2
			c-0.6-1-2.1-1.3-3-0.7c-1,0.7-2.1,1.7-1.4,3.3c0.3,0.6,0.8,1.2,0.3,2.2c-2.2-1.2-4.2,0.2-6.8,0.6c2.9,3.6,1.9,6.9-0.4,10
			c0.1,1,1.2,0.7,1.5,1.4c0.2,0.8-1.9,2.9-2.8,2.6c-1.2-0.4-2.6-0.6-3.6-1.3c-2.3-1.5-5-0.8-7.5-1.5c-2.1-0.6-2.2,1.7-1.8,3
			c1.1,3.2,0.4,5.9-1.2,8.6c-0.1,0-0.3,0.1-0.4,0c-3-2.9-7.6-1.6-8.6,2.6c-0.6,2.8-0.9,5.6-3.8,7.2c-1,0.6-0.6,1.9,0.1,3
			c2.4,3.3,2.3,5-0.4,8c-2.3,2.7-3.3,6.3-5.9,8.8c-0.5,0.5-0.2,1.1-0.2,1.7c0.4,3.2-1.5,5.4-4.7,5.4c-2.1,0-2.7,0.7-2.2,2.6
			c0.6,2.2,0.7,4.4-0.1,6.6c-1,2.9-0.3,6-1.3,9.1c-1.2,3.7-3.5,6.7-5.1,10.1c-0.4,0.9-0.9,1.7-1.5,2.8c5.9,2.6,5.1,6.7,2.5,11.4
			c-1.3-0.3-2.7-0.5-3.9-1c-3.3-1.6-6.2,0.3-8.2,2.6c-3,3.6-4.2,8.1-6.1,12.2c-0.7,1.4,0.8,2.6,1,3.9c0.2,1,0.3,1.7,0,2.7
			c-0.8,2.9-1.8,6.2-0.5,8.9c2,4.1,1.2,8,0.1,11.8c-1,3.5,0.2,5.6,2.9,7.4c2.6,1.7,3.1,4.2,1.9,7c-0.4,0.9-1,1.8-1,2.9
			c-1.4,0.4-2.9-0.6-4,0.8c0.4,3,1.5,5.9,2.5,8.8c0.1,0.4,0.6,0.9,0.5,1.2c-1.5,3.7-0.1,8.6-4.1,11.1c-2.1,1.2-4.6,1.6-3.8,4.8
			c-2.8,1.3-1.7,3.5-1.3,5.6c0.6,3.3-1.1,6.2-1.8,9.2c-0.2,0.7-1.1,1-2.2,0.7c0.6-3-1-4.8-3.6-5.9c-1,1,2,1.3,0.4,2.4
			c-2.1-0.9-4.1-6.6-3.5-10.3c-0.9,0.1-1.8,0.1-3.1,0.2c3,2.8,1.5,6,1,9c-0.5,0.8-0.6-0.8-1.4-0.2c-1.5,1.2-3.2,2.6-5.4,1.5
			c-0.7-0.3-1.1,0.4-1.5,0.8c-4.8,5.2-9.7,10.5-15.5,14.6c-1.5,1.1-3.3,1.3-5,1.4c-1.6,0.1-2.7,1.9-4.7,0.7
			c-1.3-0.8-3.4-0.3-4.6-0.9c-1.5-0.6-3.3-0.9-4.5-2.2c-0.4-0.9,0.5-1.2,0.7-1.8c-1.9-2.3-4.6-3.6-6.8-5.5c-2.9-2.6-3.7-5.7-2.3-9.3
			c0.2-0.5,0.1-1.4,0.4-1.7c1.1-1-0.6-3.9,2.5-3.4c0.4,0.1,1.6-1.2,1-2.4c1.2-0.1,2.2-0.2,3.2-0.3c-1.9-1.7-5.4-0.7-7.3,2.2
			c-0.7-2.1-1.5,0.3-2.4-0.1c-0.5-0.9-0.4-1.9,0-2.7c1.7-3.2,1.2-6.5,0.9-9.8c-0.2-1.7,0-2.9,2-3.1c1.3-0.2,1.7-1.2,1.7-2.4
			c2.7,0.7,2.9,0.6,2.9-2.3c-1-0.1-1.2,1.2-2.1,1.2c-1.4-1.6-1.4-1.6-2.7-0.9c1.5,0.3,1.3,1.4,1.4,2.4c0.1,0.9-0.6,0.9-1,1.2
			c-0.7,0.5-1.1,0.2-1.6-0.3c-0.3-0.3-0.4-0.5-0.3-1.1c0.7-3.1-0.2-6.2-0.5-9.3c-0.1-1.3-0.5-2.6-0.5-4c1.3,0.6,1,1.9,1.5,3
			c0.7-1.1,0.4-2,0-3c-0.6-1.2-0.4-2.6-0.3-3.8c0.1-2,3.8-3.5,5.5-2.4c0.9,0.6,1.4,0.7,2.5,0.2c2.3-1.2,4.8-0.9,7.2-0.3
			c-2-1-4.3-1.8-6.2-0.8c-2.2,1.2-3.3,0.1-4.7-1.1c-1.4,1.5-3.4,1.6-4.9,2.7c-1.6-2.1,2.3-2.5,1.2-4.4c0.9-0.4,1.6,0.2,2.4,0.3
			c-0.3-0.9,0.7-2.3-1.9-2.5c2.1-0.9,2.8-2.3,4-3.4c-0.8-1.4-1.9-1.6-3.5-0.4c-0.1-2.1,1-3.7,0.9-5.4c-0.1-1.9,3.3-1.7,2.1-4.1
			c1-0.4,1.6,0.2,2.2,1c0.7-0.7,1.5-1.3,0.5-1.9c-0.8-0.5-1.4-1-1.2-1.9c0.1-0.3,0.8-0.8,0.9-0.7c0.8,0.5,1.5,1.1,1.3,2.3
			c1.4-0.9,0.8-1.7,0.2-2.4c0.8-1,2.3-0.4,2.7-1.6c-0.4-0.1-0.8-0.3-1.1-0.4c0.8-2.4,2.4,0.3,3.1-0.5c2-2.1,2,0.6,3.1,1.2
			c0.8-0.1,1.6-0.7,2.6-0.4c-0.1-2-1.8-1.3-2.5-2c-0.7-0.7-0.8-1.6-0.1-3.3c0.4,2.1,1,3.4,3,2.7c-0.3-1.1-1.4-0.3-1.9-0.9
			c-0.1-0.6,0.4-0.9,0.8-1.1c1.2-0.6,3.2,0.4,3.6-2c0-0.3,2.1-1.3,2.8,0.8c0.3,0.9,1.6,1.5,2.7,1.4c1.4,0,0.5-1.4,1.1-2
			c-2.6,1.4-3.7-1.2-5.7-1.6c1.3-2.3,3.1-3.2,5.6-4c1.8-0.6,3.8-1.9,5.6-2.6c3.2-1.2,5.7-3.7,9.5-4.4c-1.2-0.7-1.9-0.3-2.7,0
			c-1.1,0.4-2.6,0.9-2.9-0.8c-0.3-1.4,0.3-2.7,2.2-2.7c0.2,0,0.5-0.2,0.9-0.3c-0.8-0.9-1.9-0.2-2.8-0.9c1.3-0.6,2.5-1.2,3.4-2.2
			c0.6-0.7,1.4-0.4,2,0.2c0.9,0.9,0.2,1.6-0.3,2.3c0.9,1.1,1.7-0.1,2.7,0.2c0.1,0.9,0,2.1,0.8,2.9c1.7,0,2.9-2.2,5-1.5
			c0-0.1,0.1-0.7,0.2-1.3c-0.8-0.6-1.4,0.7-2.3,0c0.4-1.9,0.7-3.7,3.1-4.3c1-0.3,0.8-1.3-0.4-2.2c3.8-2.2,4.9-6.6,7.8-9.4
			c1.4-1.4,3.5-2.7,5.4-2.9c1.8-0.2,2.3-1.5,3.5-2.1c-1.7-0.3-2.3,2.2-4.2,1.2c-0.3-3.5-3.3-1.2-5-2.1c1-2,2.1-3.7,4.7-3.8
			c1,2.3,2.6,1.8,4.3,0.8c-0.3-0.4-0.6-0.8-1-1.2c1.4-2,3.9-0.7,5.5-2.1c-0.1-0.8-1.3-0.1-1.3-1.1c1.2-0.7,2.5-1.5,0.6-3
			c-0.2-0.1,0.1-1.2,0.4-1.4c1.9-1.2,2.3-3.4,3.5-5c0.5-0.7-0.3-1.2-0.1-1.8c-0.8-0.1-0.8,0.7-1.3,0.8c-0.7-0.6-0.4-1.5-0.7-2.2
			c-0.6-0.6-1.1,0.4-2-0.2c2.1-0.5,2.2-2,2.3-3.6c0.2-2.3,2.5-3.4,4.6-2.4c0-1.7,0-1.7,1.7-1.5c0.6,0.1,1.3,0,0.9-1.1
			c-0.7-1.7-1.2-3.5-1.8-5.3c-1.1-0.1-0.4,1.1-1.2,1.2c-0.7-2.7,1.1-1.7,2.3-1.6c0.4-0.5-0.4-2.2,1.5-1.6c0.1,0.9,0.2,1.8,0.3,3.3
			c1.1-1.9,0.2-4.1,2.1-5.2c-0.1-0.6-1.1-0.4-1-1.1c0-0.6,1.9,0.8,1.1-1.1c-0.5-1.1,0.8-1,1.5-1.1c1.8-0.2,3-0.9,3.8-2.6
			c-1.2-0.6-1.3,1.6-2.7,0.6c2-2.6,5.5-2.3,7.8-4.2c-0.9-0.5-1.9,0.7-3.1-0.1c3.1-1.5,2.8-6.2,7-6.5c-0.8-1.4-2.2-0.8-3.1-1.2
			c-0.2-1.3,0.4-1.9,1.6-2c-1,0.3-2.1-1.5-2.9,0.4c0-0.9-0.2-1.8,0.2-2.5c0.7-0.6,0.7,0.7,1.3,0.3c2.1-3.9,5.9-6,9.4-8.5
			c0.7-0.3,0.6,0.7,1.2,0.9c1.5-1.2-0.4-1.7-0.5-2.7c1,0,1.8-0.6,2.7-1.1c0.8-0.4,1.6-0.7,2.5-0.4c3.2,1,3.9,0.8,5.8-2.3
			c-1.4,0.1-2.2,2.3-3,1.5c-1.2-1.2-1.9-0.1-2.9,0c-2.3,0.2-4.3,1.7-6.7,1.5c-1.3-0.1-0.8,1.4-2,1.6c-2.8-1.6-4.5,1-6.6,2.5
			c-1.6-1.8-2.7,0.5-4.1,0.5c-0.1-0.4-0.2-0.8-0.3-1.5c-3.5,3-8,4.3-10.8,8.1c0.7-2.5,0.7-5.3,3.7-6.4c0.9-0.3,1.8-1.3,2.2-2.6
			c0.4-1.2,1.9-1.2,3.1-1.5c0.4-0.1,1.1,0,1.3,0.1c2.4,1.1,2.5-2.1,4.4-2.2c1.5-0.1,3.8,0.6,3.9-2.3c0-0.7,1.8-0.8,2-2.7
			c-1.2,1.4-2.7,1.5-3.4,3c-0.9,1.8-2,1.5-3-0.1c0.5-0.3,1-1.3,1-2c-1.1,0.5-2,1.6-3.2,0.7c0.9-1.8,0.1-5.3,4.1-4.8
			c-1-1.9,0.9-2.5,1.5-4.1c0.9,1.2,1.8,2,2.1,3.3c0.6-1.8,0.3-4.2,1.9-5c1.8-1,1.1-3.8,3.5-4c0.7,2-0.1,4.1-2.4,6.9
			c2.6,1.1,1,3.9,2.2,5.5c0.4-1.4,0-3.4,2.4-3.7c0.2,0.1,0.3,0.3,0.5,0.4c1.2,1.1,1.7,2.5,1.6,4.3c1-0.5,1.5-0.4,1.8-1.8
			c0.3-1.9,1.5-4.1,4.6-3.7c-3.3-3.9,1.3-3.2,2.5-4.9c-2.5,0.3-5.1-0.1-5.1,3.3c-1.3,0.1-1.4-2.4-2.8-0.9c-0.6-1.9,1-1.7,1.5-2.3
			c-0.9-1.6-0.5-3.4-1.2-4.9c1-0.3,1.8-0.5,2.7-0.7c-1.4-2,1-2.7,1.6-3.3c1.2-1.2,3.7,0.9,4.6,4.1c0-1.8,0.6-2.5,2.3-1.8
			c-0.2-2.4-2.6-0.7-3.4-2.4c-0.8-1.8,2.4-2.5,0.2-4c2.9-0.1,4.6-1.1,4.4-4c0-0.4,0.9-0.6-0.2-1.1c-0.9-0.4,0.1-4.5,0.9-4.2
			c1.6,0.5,1.3-1.3,2.4-1.4c0.4,1.2,0.5,2.3-0.2,3.6c2.2-0.5,3.3,2.6,5.7,1.1c-0.3,2.7-1.5,4.4-4.7,4.6c1.6,0.9,2.4-0.2,3.4,0
			c0.6,0.9,0,1.8,0.4,3c1.1-2.4,1.6-5,3.6-6.8c1.1,2.4,1.2,4.7,0.3,12.1c2.8-4.3,0.6-9.1,2.6-13c-0.9-0.8-2.5,0-2.7-1.6
			c-0.1-1.3,0.1-2.5,1.4-2.9c1.9-0.6,1.7,1.5,2.4,2.4c0.4,0.4-0.8,1.7,1,1.7c0.3,0,0.8,1.5,0.2,2.2c-0.6,0.8-0.6,1.5-0.1,2.5
			c0.9-1.4,1.7-2.8,1.4-4.5c2.3-0.6,2.5,1.6,3.6,2.4c1.6-1.7,1.6-2.5-0.5-3.5c-1.6-0.7-2.9-1.6-4-3c0.5-1.9,3.8-1.2,3.1-4.2
			C173.7,49.5,176.3,48.5,177.9,49.9c4-0.5,4,3.5,5.6,5.4c0.8-0.3,1.4-0.6,2.6-1c-1.5-0.2-2.4-0.3-2.8-1c0.6-1.9-0.8-4,0.3-4.7
			C182.7,50,180.1,49.4,177.9,49.9z M80.4,187.2c1,0.6-0.2,1.8,0.7,2.9c1.6-4.5,4.9-0.8,7.2-2c-0.4-0.8-0.2-2-1.6-2.2
			c1.7-2.6,5-2.6,7.2-4.3c-0.5-0.7-1-0.9-1-0.9C88.5,183,85,186,80.4,187.2z"/>
		<path class="st5" d="M174.7,45.1c0.2-0.7,0.4-1.4,0.7-2.5c-1.3,0.6-2,0.5-2.1-1.1c1.9,1.2,3.1-3.3,5.1-0.2c0.9-0.9-1-1.4-0.2-2.3
			c1-0.4,1.5,0.5,2,1.2c1.3-0.7,0-1.5,0.2-2.1c0.4-0.8,1.3-0.3,1.4-0.6c0.4-0.7,0.6-0.9,1.3-0.3c0.5,0.5,0.6,0.9,0.2,1.6
			C181.4,42.1,179.7,45.6,174.7,45.1z"/>
		<path class="st5" d="M60.7,189.6c0-1.2-0.1-2.4,0.5-3.6c1.7-0.2,3.5-0.6,3.8,1.8c0.3,1.7-1.1,2.5-2.1,1.8
			C61.9,189,61.5,190.1,60.7,189.6z"/>
		<path class="st5" d="M157.6,50.2c1.4,0.6,1.9,2.3,3.5,2.7c0,0,0.8,0.9,0.3,1.6c-0.3,0.5-0.7,0.9-1.4,0.9c-0.7-0.1-1.4-0.3-1.3-1
			C159.1,52.7,156.1,52.2,157.6,50.2z"/>
		<path class="st5" d="M136.8,80.8c-0.2-0.1-0.3-0.3-0.5-0.4c0.2-0.8-0.8-1-1.1-1.8c1.1-0.1,1.9-0.6,1.9-1.8c1,0.5,0.1,2.6,2.1,1.8
			C138.7,79.9,138.5,81.2,136.8,80.8z"/>
	</g>
</g>
<rect y="16.6" class="st6" width="400" height="300"/>
<path class="st7" d="M175.2,209.2c7.2,7,7.3,18.5,0.3,25.7l0,0l-0.3,0.3c-7.2,7.2-18.9,7.3-26.1,0.1c-7.2-7.2-7.3-18.9-0.1-26.1
	c7.2-7.2,18.9-7.3,26.1-0.1L175.2,209.2z M169.2,229.2c1.9-1.8,2.9-4.4,2.9-7c0.1-2.6-1-5.1-2.9-6.9c-1.9-1.9-4.4-2.9-7.1-2.8
	c-5.3-0.1-9.7,4.2-9.8,9.5v0.2c0,2.6,1,5.1,2.8,7s4.3,2.9,6.9,2.9C164.7,232.2,167.3,231.1,169.2,229.2z M211.4,211.5l-47.7,74.1
	c-0.8,1.5-2.4,2.5-4.1,2.4c-2.7-0.1-4.9-2.3-5-5c0.1-1,0.4-2,0.9-2.9l47.8-74.2c0.8-1.5,2.4-2.5,4.1-2.4c1.4,0,2.7,0.5,3.6,1.5
	c1,0.9,1.5,2.3,1.4,3.6C212.3,209.6,212,210.6,211.4,211.5L211.4,211.5z M191.6,282.6c-7.2-7.2-7.2-18.8,0-26l0.1-0.1
	c3.4-3.4,8.1-5.3,12.9-5.4c10.2-0.1,18.4,8.1,18.5,18.3c0.1,10.2-8.1,18.4-18.3,18.5C199.9,288.1,195.1,286.1,191.6,282.6z
	 M197.6,262.6c-3.9,3.7-4,9.8-0.3,13.7l0.1,0.1l0.2,0.2c3.8,3.8,9.9,3.9,13.7,0.1c2-1.9,3-4.6,2.9-7.4c-0.2-5.2-4.4-9.4-9.6-9.6
	C202,259.7,199.5,260.8,197.6,262.6L197.6,262.6z"/>
<g>
	<ellipse transform="matrix(0.9509 -0.3096 0.3096 0.9509 -5.6908 104.3181)" class="st8" cx="325.8" cy="70.1" rx="51" ry="28"/>
	<ellipse transform="matrix(0.957 -0.2902 0.2902 0.957 -4.9821 96.947)" class="st9" cx="324.4" cy="65.3" rx="51" ry="24.8"/>
	<ellipse transform="matrix(0.957 -0.2902 0.2902 0.957 -4.9821 96.947)" class="st10" cx="324.4" cy="65.3" rx="40.7" ry="19.7"/>
	<path class="st8" d="M314.2,75.1c1.8,2,7,1.6,11.5-0.2c2.9-1.3,4.8-3.1,5.2-4.7l0.4-0.9l1.4-0.4c1.4-0.4,2.9-0.7,4.5-1.4
		c4.7-2,6.6-5.2,4.7-7l-0.7-0.4l4.8-2c0.9-0.4,1.6-1.1,1.1-1.6c-0.4-0.4-1.4-0.4-2.5,0l-4.8,2l-2.5-2.5l4.8-2
		c0.9-0.4,1.6-1.1,1.1-1.4c-0.7-0.4-1.8-0.4-2.5,0l-4.8,2l-2.2-2.2c-0.4-0.4-1.4-0.4-2.5,0c-0.9,0.4-1.6,1.1-1.1,1.4l1.8,2.2
		L309.7,66l-1.8-2.2c-0.4-0.4-1.4-0.4-2.5,0c-0.9,0.4-1.6,1.1-1.1,1.4l1.8,2.2l-4.3,1.8c-0.9,0.4-1.6,1.1-1.1,1.6
		c0.4,0.4,1.4,0.4,2.5,0l4.8-2l2.5,2.7l-4.8,2c-0.9,0.4-1.6,1.1-1.1,1.4c0.7,0.4,1.8,0.4,2.5,0l4.8-2L314.2,75.1z M333.9,57.5
		l4.5,4.7c0.9,1.1-0.2,2.9-2.5,3.9c-2.5,1.3-5.7,1.3-6.6,0.2l-4.5-4.7L333.9,57.5z M311.6,67.2l9.3-3.9l5.9,5.9
		c0.9,1.1-0.2,2.9-2.5,3.9c-2.3,1.3-5.4,1.3-6.6,0.2L311.6,67.2z"/>
</g>
<g>
	
		<ellipse transform="matrix(0.8069 -0.5907 0.5907 0.8069 -68.9581 232.2211)" class="st11" cx="320.7" cy="221.6" rx="59.9" ry="28.9"/>
	
		<ellipse transform="matrix(0.8069 -0.5907 0.5907 0.8069 -66.7662 230.3886)" class="st12" cx="319" cy="217.3" rx="58.7" ry="26.9"/>
	
		<ellipse transform="matrix(0.8069 -0.5907 0.5907 0.8069 -66.7662 230.3886)" class="st13" cx="319" cy="217.3" rx="47" ry="21.6"/>
	<path class="st14" d="M328,211.2l11.3-6.6c-0.9-1.1-1.6-2-2.2-3.2c-0.4-0.6-1-0.3-2,0.4c-3.7,2-7.4,4.1-11,6.3
		c-2.4,1.4-3.8,1.8-5.3,1.3c-1.8-0.5-2.1-0.6-4.6,2l2.7,0.7c-3.9,2.4-7.6,4.2-11.3,6.5l7.9,10.9c0.2,0.1,0.4,0.3,1-0.1
		c1.8-0.9,3.6-1.9,5.7-2.9l-5.5-7.5c2.2-1.1,4.1-2.2,6.1-3.4c2.4-1.6,4-1.9,5.4-1.4c1.8,0.6,1.9,0.4,4.6-2L328,211.2z"/>
</g>
<g>
	<ellipse class="st15" cx="56.2" cy="69.7" rx="31.3" ry="36"/>
	<ellipse class="st16" cx="52.5" cy="68.4" rx="30.2" ry="34.8"/>
	<ellipse class="st15" cx="52.5" cy="68.4" rx="24.2" ry="27.9"/>
	<path class="st16" d="M57.7,52.3c3.2,0,5.7,2.7,5.9,6.6c0.2,3.6-2.2,6.5-5,6.9c-0.4,0.1-0.8,0.2-1.2,0.1c-1.3-0.2-2.5,0.8-2.6,2.1
		v0.4c0,1.6,1,2.7,2.4,2.6c2.9-0.2,5.4,2,6,5.2c0.7,2.5-0.2,5-2,6.9c-1.5,1.7-4,2.1-6,1C53,83,51.8,81,51.6,78.2
		c-0.1-1.3,0.2-2.6,0.7-3.8c0.5-1,0.2-2.1-0.5-3c-0.7-0.7-1.7-0.8-2.5-0.4c-0.3,0.2-0.7,0.5-0.8,0.9c-1.5,2.5-3.6,3.5-6,2.8
		c-2.5-0.6-4-2.5-4.6-5.4c-0.8-4.1,2.5-8.3,6.1-8c2.4,0.2,4,1.6,5.1,4c0.3,1.1,1.5,1.7,2.5,1.4c0.1,0,0.1,0,0.2-0.1
		c0.2-0.1,0.2-0.1,0.3-0.2c1.2-0.7,1.7-2.3,1-3.6c-0.6-1.2-1-2.4-1.1-3.6C51.7,55.4,54.3,52.4,57.7,52.3z"/>
</g>
<g>
	<path class="st17" d="M234.4,138.9c1.4,2.1,2.8,4.5,3.8,6.9l0.4,0.4c0,0.3,0.1,0.9,0.4,1.3l0.1,0.3c-0.4,1.2,0.5,2.5,0.7,4
		c0.1,0.9-0.4,1.3,0.3,2.1c-0.4,1.5-0.5,3.6-1.2,5.3c-0.2,0-0.2,0.2-0.2,0.4l0.1,0.1c-0.6,0.9-1.3,1.7-1.6,2.8c0,0-0.4-0.3-0.3,0.1
		c-1.9,1.9-4.1,3.4-6.5,4.5c-2.1,0.3-4.4,1.5-6.7,1.5c-20.6,3.7-58.9-19.4-54.1-41.3c0.3-0.1-0.2-0.4,0.1-0.8
		c0.3-0.4,0.5-0.3,0.4-0.5c-0.1-1.7,2.6-3.8,3-5c0.4-0.3,0.6-0.5,0.8-0.9c0.6-0.4,1.2-0.9,1.9-1c1.3-0.9,2.7-1.6,4.1-2.2
		c0.6,0,1-0.1,1.5-0.4c3.1-0.7,6.2-1,9.3-0.8c0.4-0.4,1.2,0.4,1.4-0.3c0,0.2,0.2,0.2,0.4,0.2l0.1-0.1c3.3,0.4,7.1,1.3,10.5,2
		c0.2,0.2,0.5,0.4,0.9,0.2c5.1,1.9,10.2,4.3,15,7c0.4,0.5,1.1,1,1.8,1c1.2,1.1,2.4,2.1,3.8,2.8c0.2,0.2,0.3,0.5,0.5,0.4
		c0.8,1.3,2.5,2.1,3.5,3.3c0.6,0,0.5,0.7,1.2,0.7c0.1,0.3,0.3,0.1,0.4,0.3c-0.4,0.5,0.4,0.6,0.7,0.9
		C231.3,135.9,233.1,136.9,234.4,138.9z M225.3,162.9c13.7-4.1,9.6-18.2,2.6-25.9c-17.6-19.6-49.5-23-52.7-7.1
		c-2.2,8.4,4.7,16.3,10.4,21.8c10.9,8.6,25.3,15.2,39.2,11.5L225.3,162.9z"/>
	<path class="st18" d="M224.9,163.1c-14.1,3.7-28.3-3-39.2-11.5c-5.5-5.5-12.7-13.5-10.4-21.8c2.1-3.4,5.3-5.7,9.1-6.9
		c11-2.1,19.8,1.4,28.7,5.5c3.6,2.9,8.3,5.3,11.3,9c7.2,6.6,12,19.9,1.2,25.4C225.3,162.6,224.5,162.7,224.9,163.1z M209.7,137
		C210,137.4,210.4,136.8,209.7,137c-4.3-3.6-8.8-6.8-13.5-10.2l-0.6,11.3c1.8-1.2,3.5-2.8,5.2-3.9
		C203.8,135.3,206.7,136.2,209.7,137z M214.5,140.3c-3.8-1.8-8.5-2.9-12.6-4.6c-1.2,0.6-2.1,1.4-3,2.2c-1.3,0.9-2.6,2-3.8,2.9
		c0,0.3,0.4,0.3,0.5,0.5c6.4,5.2,13,10.8,19.7,15.9C215,151.8,215.4,145.7,214.5,140.3z"/>
	<path class="st18" d="M236.4,164l-0.3,0.1c-1.1,1.2-2,2.5-2.6,4c-0.6,0.4-0.9,1.2-1.5,1.4c-1.6,2-4.2,2.7-6.5,4.1
		c-3.2,0.6-6.5,1.2-9.8,1.3c-0.1-0.1-0.2-0.2-0.3-0.1l-0.1,0.1c-1.7-0.4-4.2-0.1-6.1-0.7c-2-0.1-3.8-1.3-5.5-1
		c0-0.2-0.2-0.2-0.4-0.2l-0.1,0.1c-0.3-0.5-0.8-0.7-1.3-0.4c-0.1-0.1-0.2-0.2-0.4-0.1c-0.3-0.5-0.8-0.7-1.3-0.4
		c0-0.2-0.2-0.2-0.4-0.1c0-0.2-0.2-0.2-0.4-0.2l-0.1,0.1c-0.3-0.4-0.4-0.4-0.8-0.4l0,0c-0.4-0.5-0.5-0.5-1.3-0.3
		c-3.7-2.1-8-3.8-12-6.3c-0.9-0.6-2.4-2.3-3.5-2.2c-1.2-1.6-3.6-2.6-4.9-4.6c-0.7,0-0.7-0.9-1.2-0.9c-3.5-4-6.9-8.1-8.7-13.1
		c-0.6-1.6-0.8-3.8-1.4-5.6c0.4-0.4,0.1-1.1,0.1-2.1c0.4-3.4,1.7-6.6,3.8-9.3c-4.6,23.4,35.5,44.9,54.2,40.8c2.1,0,4.6-1,6.7-1.5
		c2.5-1.2,4.6-2.7,6.5-4.5c0.2,0.8-0.4,1.2-0.7,1.6L236.4,164z"/>
	<path class="st19" d="M225.3,162.9c11.2-5.8,5.5-19-1.2-25.4c-2.9-3.8-7.6-6.1-11.3-9c-9.3-4.5-18.6-7.5-28.7-5.5
		c-2.5,0.8-4.9,2.2-7.1,3.8c-1,0.9-1,2.1-2.2,2.9c0.9-6,6.9-8.8,12.5-9.7c15.6-1.9,31.6,7.3,40.3,16.9
		C237.1,147.6,236.4,159.6,225.3,162.9z"/>
	<path class="st19" d="M224.9,163.1c-0.1-0.1,0-0.3,0.1-0.4c0.2-0.2,0.3,0,0.4,0.1L224.9,163.1z"/>
	<path class="st17" d="M214.5,140.3c0.8,5.4,0.4,11.3,0.9,17c-6.6-4.9-13.2-10.4-19.7-15.9c3.4,0.1,7.9,1.8,11.4,2.8
		C209.5,143,212,141.7,214.5,140.3z"/>
	<path class="st20" d="M214.5,140.3c-2.4,1.3-4.8,2.4-7.5,4c-3.6-1-7.8-2.6-11.4-2.8c-0.1-0.3-0.7,0-0.5-0.5c1.2-1,2.5-2,3.8-2.9
		c1-0.9,2.1-1.7,3-2.2C206,137.5,210.8,138.5,214.5,140.3z"/>
	<path class="st17" d="M209.6,137.1l-8.8-3c-1.6,1.1-3.3,2.7-5.2,3.9l0.6-11.3C200.8,130.3,205.4,133.5,209.6,137.1z"/>
</g>
</svg>
