<svg xmlns="http://www.w3.org/2000/svg" viewBox="0 0 300.26 300.26"><defs><style>.a{fill:#bfa161;}.b{fill:none;}</style></defs><path class="a" d="M190.32,233.44c0-.29,0-.58,0-.86q-.06-10.72-.18-21.45l0-3.86c-.1-9.12-3.76-13.9-12.66-16.5L168.11,188l-5.13-1.5v-9.44l.18-.15c5.26-4.47,7.34-10.8,6.34-19.34l0-.22.15-.17c7.33-8.26,10.92-19.27,8.94-27.4-1-4.21-3.42-7.21-6.94-8.7-3.47,4.81-7.68,3.3-11.77,1.84-.91-.33-1.85-.67-2.77-.93a41.78,41.78,0,0,0-11.32-1.56,43.93,43.93,0,0,0-7.71.69c-7.2,1.3-13,5.84-15.39,12.15s-1.29,13.45,3.25,19.34a39.79,39.79,0,0,0,2.77,3.15c.48.51,1,1,1.45,1.58l.16.17,0,.23c-1.08,8.26,1.12,14.78,6.52,19.38l.17.15v9.29l-.36.11-4.86,1.39c-3.67,1.06-7.15,2-10.68,3.13-7,2.16-11,7.39-11.08,14.75,0,3.12,0,6.29.06,9.36,0,1.52,0,3,.07,4.56l.12,14.68c0,3,1.83,3,2.42,3h0c.62,0,2.35-.05,2.4-3,0-.79,0-1.58,0-2.36l-.06-7q-.09-9.47-.18-18.93c0-5,2-8.36,6.07-9.8,3.77-1.36,7.68-2.47,11.46-3.54q2.46-.69,4.88-1.41l.36-.11.21.32c3.2,5,7.9,7.92,12.92,7.79,4.72-.09,9-2.87,11.81-7.63l.2-.33,4.56,1.31c3.15.91,6.31,1.82,9.46,2.76,6.06,1.79,8.35,4.8,8.42,11.1q.06,5.4.1,10.78c0,5,.08,9.93.15,14.9,0,.29,0,.59,0,.89,0,1.38,0,2.81.7,3.54a2.59,2.59,0,0,0,1.9.56,2.32,2.32,0,0,0,1.7-.59C190.41,236.14,190.37,234.77,190.32,233.44ZM133,152.17l-.32.51-.44-.41c-4.42-4.11-6.31-8.62-5.77-13.8.59-5.78,3.72-9.77,9-11.56,7.17-2.4,14.9-2.11,23.65.87,6.32,2.16,7,2.15,12.2,0l.42-.17.21.38c4.08,7.3,3,16.41-2.61,21.67l-.46.43-.32-.55-.6-1.1a22.22,22.22,0,0,0-1.33-2.25,4.61,4.61,0,0,0-2.87-2.09,3.56,3.56,0,0,0-2.7.88c-6.79,5.24-13.8,3.16-19.15.76-4-1.79-4-1.79-6.16,2-.52.92-1.09,1.79-1.76,2.8Zm21.36,41.47a7.81,7.81,0,0,1-4,1.13,8.68,8.68,0,0,1-4.85-1.6c-4-2.71-3.81-6.69-3.18-11.24l.1-.69.62.31a14.22,14.22,0,0,0,14.06-.27l.73-.39v.82c0,.71,0,1.42.06,2.11C158.1,187.68,158.26,191.33,154.37,193.64Zm.17-16.5A9.78,9.78,0,0,1,145,177c-8.16-4.31-11.33-10.83-9.71-19.91l0-.12,4.77-6.35,1.54.44a45.23,45.23,0,0,0,9.91,2.06c3.37.18,6.71-.73,10.8-3l.53-.28.19.57C167.21,163.43,164.42,172.15,154.54,177.14Z"/><path class="a" d="M243.56,169.21c0-5.82-3.29-10.26-8.95-12.19-1.68-.57-3.38-1.09-5.18-1.63l-2.67-.82-1-.32.91-.58a5.45,5.45,0,0,1,3.57-.71,8.82,8.82,0,0,0,.89,0c2.37-.06,3.42-1.07,3.41-3.28,0-2.59,0-5.18.06-7.77.07-5.86.14-11.93-.25-17.86a24,24,0,0,0-25-22.59c-13.11.55-23.13,11.08-23.3,24.5-.07,5.17-.05,10.44,0,15.54v3.88c0,.78,0,1.48,0,2.12,0,2.38-.07,3.81.69,4.57s2.5,1.06,6.13,1c.43,0,.54.33.66.6a2.34,2.34,0,0,0,.14.27l.3.55-.6.17-2.45.72c-1.81.52-3.52,1-5.24,1.59-5,1.71-8,5.21-8.41,9.86A111.93,111.93,0,0,0,177,179c0,1.68.07,3.35.07,5,1.08,1.42,2,1.75,3.19,1.15,1-.5,1.49-1.4,1.49-2.91l0-3.16q0-4.84,0-9.67c0-3.66,1.53-6.25,4.34-7.29,3.2-1.18,6.52-2.13,9.72-3,1.35-.38,2.69-.76,4-1.16l.36-.11.2.32c2.53,4,5.43,6.11,8.62,6.37,3.57.29,7.53-1.86,11.45-6.23l.21-.24,3.43,1c2.42.7,4.87,1.41,7.31,2.14,5.62,1.68,7.24,3.86,7.24,9.72,0,12.4,0,22.42,0,31.54,0,2.34.15,3.79,2.42,4.2,1.81-.28,2.51-1.31,2.5-3.67q0-7.48,0-15C243.59,181.83,243.6,175.47,243.56,169.21Zm-30-10.59a5.71,5.71,0,0,1-3.26,1,6.06,6.06,0,0,1-3.15-.91c-2.37-1.42-2.12-3.72-1.85-6.15l.13-1.22.52.08a25.77,25.77,0,0,0,8.63,0l.57-.1,0,.57c0,.44.05.88.08,1.31C215.44,155.18,215.61,157.21,213.59,158.62Zm3.15-14a10.07,10.07,0,0,1-6.35,2.37,10.67,10.67,0,0,1-4.47-1c-4.1-1.89-6.12-5.33-6.17-10.53v-.62c-.05-3.92-.1-8,4.48-10.51l.35-.19.26.29c3.9,4.31,9.32,6.13,15.07,8.06l.4.13,0,.3C221.28,138.25,220.13,142,216.74,144.67ZM224,148c-.65,0-1.32-.07-2-.08h-1l.64-.81c4.25-5.36,4.55-11,3.65-17.75a6.28,6.28,0,0,0-3.72-1.69,14.67,14.67,0,0,1-1.68-.41c-5.31-1.81-10.81-3.68-13.4-9.88a2.07,2.07,0,0,0-1.65-1.46,3.06,3.06,0,0,0-2.58,1.7c-.21.33-.4.68-.6,1a15.29,15.29,0,0,1-1.14,1.82c-7.08,9-7.65,16.39-2,26.22l.32.55-.61.17c-2.85.83-3.1.84-6.8.11l-.4-.07v-.42c0-2.3-.06-4.67-.12-6.95a112.55,112.55,0,0,1,.42-17.1,18.91,18.91,0,0,1,19.4-16.52,19.44,19.44,0,0,1,18.79,17.25,24.83,24.83,0,0,1,.2,3q0,7.64,0,15.28v5.23l-.28.13a7.54,7.54,0,0,1-3.55.76C225.22,148.12,224.62,148.08,224,148Z"/><path class="a" d="M123.39,181.92c0-2.24,0-4.48,0-6.72,0-1.31,0-2.62,0-3.92,0-8.74-2.8-12.51-11.13-14.95-2.47-.73-4.94-1.48-7.37-2.22l-3.62-1.1v-7l.12-.14c4.18-4.83,4.18-4.83,5.74-16.66l0-.15.11-.12c5.9-6.56,8.7-15.55,7-22.38-.93-3.62-3-6.12-6-7.23a5,5,0,0,0-1.94,1.1,5.81,5.81,0,0,1-3.55,1.55h-.08l-5.26-1.66a35.17,35.17,0,0,0-10.71-1.68,34.66,34.66,0,0,0-6.07.53c-6.3,1.1-11.27,5-13.3,10.5s-.81,11.71,3.26,16.65c.62.75,1.27,1.48,2,2.23l1,1.1.15.18,0,.23a17.29,17.29,0,0,0,5.4,16l.17.16v.23a20.81,20.81,0,0,0,0,2.09,10.29,10.29,0,0,1-.49,4.34l-.09.23-.23.07-3.87,1.11c-2.86.82-5.81,1.67-8.7,2.57-5.42,1.69-8.63,5.45-8.83,10.31-.35,9-.31,18.07-.26,26.9,0,3.24,0,6.49,0,9.74a2.62,2.62,0,0,0,.66,1.9,2.49,2.49,0,0,0,1.79.61c1.89,0,2.34-1.45,2.38-2.64,0-.67,0-1.34,0-2V192.6q0-11.31,0-22.61c0-4.21,1.62-6.93,4.87-8.09,3-1.07,6-1.93,9-2.76l3.81-1.09.34-.1.2.29c2.85,4,6.73,6.23,10.69,6.23h.2c3.85-.08,7.37-2.24,9.9-6.09l.2-.3.36.1c1.2.36,2.4.7,3.61,1,2.82.81,5.72,1.64,8.56,2.6,3.37,1.13,5.16,3.72,5.16,7.49q0,6.24,0,12.48a4.1,4.1,0,0,0,.82,3,2.33,2.33,0,0,0,1.77.57C122.72,185.32,123.41,184.29,123.39,181.92ZM75.76,124.17l-.34.19-.27-.28c-3.43-3.61-4.55-7.56-3.44-12.08,1-4.16,3.83-6.71,8.59-7.79a29.79,29.79,0,0,1,16.88,1.19c3.28,1.18,6.68,2.4,10.33.37l.48-.27.22.5c2.7,6,2.15,11.51-1.61,15.89l-.39.46-.38-.47c-3.57-4.47-3.57-4.47-8.85-1.67-4,2.14-8,1.18-11.76-.16-1-.39-2.08-.86-3-1.28l-1-.44c-1.72.33-2.35,1.51-3.08,2.88A6.57,6.57,0,0,1,75.76,124.17ZM94,158.46a5.81,5.81,0,0,1-3.48,1.19,6.64,6.64,0,0,1-3.62-1.16c-2.6-1.7-3.37-4.24-2.42-8l.14-.53.51.18A13.3,13.3,0,0,0,95.22,150l.56-.24.13.6C96.5,153.3,96.83,156.34,94,158.46Zm7.11-21a14.19,14.19,0,0,1-8.88,8.43,6.24,6.24,0,0,1-1.86.27,10.92,10.92,0,0,1-5.93-2.06c-3.37-2.28-5.72-5.83-6-9.05a35.18,35.18,0,0,1,0-3.57c0-.59,0-1.19,0-1.81v-.17l3.77-4.95.3,0c1.11.19,2.22.48,3.28.76a23.62,23.62,0,0,0,5.51,1,15.73,15.73,0,0,0,8.45-2l.44-.26.25.45A15,15,0,0,1,101.08,137.44Z"/><path class="a" d="M124.6,109.12c-7,5.43-8.54,8.38-7.64,14.88.86,1.13,1.72,1.47,2.79,1.08s1.76-1.41,1.77-3.06c0-3.89,1.59-6.5,4.54-7.56,3.13-1.12,6.37-2,9.51-2.86,1.32-.37,2.64-.72,3.93-1.1l.34-.1.21.29c2.79,4,6.08,6.15,9.5,6.28,3.64.14,7.41-2,10.89-6.17l.21-.25.31.09,3.2.89c2.49.7,5.05,1.43,7.61,2.08,3.48.91,5.59,2.61,6.63,5.36.52,1.4,1.27,2,2.42,2h0c1.35,0,2.12-.73,2.47-2.33-.73-3.72-3.09-6.59-7.43-9l-.25-.14V99.73c0-7.67,0-14.92,0-22.33a26.61,26.61,0,0,0-3.52-14.13,25.39,25.39,0,0,0-47.29,12.31c-.11,7.72-.08,15.55-.06,23.11,0,3.36,0,6.7,0,10V109Zm29,1.92a6.07,6.07,0,0,1-3.38,1,6.32,6.32,0,0,1-3.42-1c-2.32-1.43-2.22-3.67-2.12-5.83,0-.52,0-1,0-1.59v-.57l.57.06a33.83,33.83,0,0,0,9.72,0l.52-.09.13,1.19C155.89,106.7,156.17,109.3,153.56,111Zm5.92-17.39a11,11,0,0,1-9.29,5,11.56,11.56,0,0,1-2.78-.34,11,11,0,0,1-8.16-9.18,23.7,23.7,0,0,1-.07-3.59c0-.57,0-1.15,0-1.76v-.35l.33-.12,2.19-.79c5.17-1.84,10.52-3.74,14.23-8.18l.33-.4.39.34C161.82,78.84,163.15,88.07,159.48,93.65ZM129.71,76.13c.16-11.53,8.83-20.34,20.16-20.5h.3a20.28,20.28,0,0,1,20.46,19.86c.19,7.25.15,14.39.1,21.94,0,3.33,0,6.71,0,10.13v.66l-9.43-2.63-.1-.19a6.18,6.18,0,0,1-.52-3.46,9,9,0,0,0,0-1.37l0-.19.12-.15c8.9-11.68,7.8-22.7-3.34-33.68a2.2,2.2,0,0,0-1.84-.45,2,2,0,0,0-1.28,1.31C151.69,74,145.8,76,140.11,77.87c-.64.21-1.25.34-1.83.47a8.5,8.5,0,0,0-3.72,1.45c-.88,6.9-1.19,14.09,4.87,19.66l.16.15v5.79l-9,2.48-.2-.22a3.08,3.08,0,0,1-.76-2.53c0-.13,0-.27,0-.4q0-3.7,0-7.41C129.63,90.36,129.61,83.19,129.71,76.13Z"/><rect class="b" width="300.26" height="300.26"/></svg>