<?xml version="1.0" encoding="utf-8"?>
<!-- Generator: Adobe Illustrator 24.3.0, SVG Export Plug-In . SVG Version: 6.00 Build 0)  -->
<svg version="1.1" id="Layer_1" xmlns="http://www.w3.org/2000/svg" xmlns:xlink="http://www.w3.org/1999/xlink" x="0px" y="0px"
	 viewBox="0 0 400 300" style="enable-background:new 0 0 400 300;" xml:space="preserve">
<style type="text/css">
	.st0{clip-path:url(#SVGID_2_);fill:#002780;}
	.st1{clip-path:url(#SVGID_2_);fill:#FCD20E;}
	.st2{clip-path:url(#SVGID_2_);fill:#CF0821;}
	.st3{fill:none;stroke:#000000;stroke-miterlimit:10;}
	.st4{fill:#F3F2EF;}
	.st5{fill:#C98017;}
	.st6{fill:#FBED60;}
	.st7{fill:#FABA31;}
	.st8{fill:#68C2EE;}
	.st9{fill:#0491BE;}
	.st10{fill:#68C2EF;}
	.st11{fill:#31798F;}
	.st12{fill:#C1BDBE;}
	.st13{fill:#6E6E6E;}
	.st14{fill:#6C6C6C;}
	.st15{fill:#BCBCBC;}
	.st16{fill:#E1E1E1;}
	.st17{fill:#0A0A09;}
</style>
<g>
	<g>
		<defs>
			<path id="SVGID_1_" d="M246.8,33.6c1.1,0,2.2,0,3.3,0c3.5,1.4,5.9,4.2,8.4,6.8c0.2,0.2,0.4,0.6,0.4,0.8c-0.1,2.2,1.2,3.4,2.8,4.6
				c0.7,0.5,1.5,1,1.6,1.8c0.5,3,2.2,5.6,2.9,8.6c1.2,5.5,4.9,9.6,7.9,14.1c0.2,0.4,0.6,0.7,1,0.9c1.9,1.2,2.9,3,3.2,5.2
				c0.3,2,1.3,3.5,3,4.7c1.8,1.2,3.1,2.8,4.2,4.6c2.3,3.4,4.6,6.8,8.2,9c1,0.6,1.7,1.4,2,2.5c0.4,1.2,1,2.3,1.1,3.5
				c0.3,3.5,2,6.4,3.8,9.3c0.7,1.2,1,2.4,1,3.8c0.1,3.3,0,6.7,0.9,9.9c0.2,0.7-0.1,1.3-0.4,2c-0.5,0.9-1,1.9-1,2.9
				c0,1.2-0.5,2.2-1.4,3c-0.7,0.6-1.2,1.4-1.2,2.4c0.1,5.6-0.9,11.2,0.6,16.8c0.2,0.9,0.2,1.8,0.3,2.7c0.1,1.2,0.2,2.4,0.7,3.5
				c0.7,1.8,0.9,3.6,1.1,5.5c0.1,1.3-0.2,2.5-1.4,3.2c-0.2,0.1-0.5,0.3-0.4,0.8c1.4,1,2.2,2.6,2.6,4.3c0.1,0.6,0.5,1.1,1.1,1.2
				c1.9,0.2,2.4,1.6,2.8,3.2c0.3,1.5,0.8,3.1,2.4,3.7c3.6,1.3,7.3,2.7,11.2,2.9c2,0.1,2,0,2.5-2c0.6-2.6,1.9-3,3.9-1.4
				c0.9,0.8,1.6,0.8,2.6,0c3-2.2,6-4.3,9.1-6.4c1.1-0.7,2.3-1,3.6-1c2.9,0,5.5,0.8,8.1,1.8c2.8,1,4.7,2.7,4.8,5.9
				c0,0.6,0.2,1.2,0.4,1.7c0.1,0.4,0.2,0.7-0.1,1c-0.9,0.8-0.6,1.5,0,2.2c0.6,0.6,0.7,1.3,0.6,2.2c-0.6,5-1.1,10-1.7,15
				c-0.2,1.6-0.5,1.8-2,1.5c-0.2,0-0.5,0-0.7,0c-3.7,0.9-7.6,1.2-11.3,2c-1.5,0.3-2.7,0.9-3.8,2c-0.8,0.9-1.7,1.7-2.6,2.4
				c-0.9,0.7-1.7,0.3-2.6-0.8c-0.6-0.9,0-1.4,0.6-1.8c1-0.7,2.1-1.2,3.2-1.9c0.4-0.3,0.9-0.6,0.8-1.1c-0.1-0.7-0.7-0.6-1.2-0.7
				c-0.7-0.2-1.5-0.3-1.7-1.2c-0.3-1.6-0.8-3.3,0.4-4.9c0.5-0.7,0.3-1.2-0.6-1.4c-1.7-0.4-3.4,0.4-4.4,2.1c-0.9,1.6-0.8,2.3,0.7,4
				c0.2,0.2,0.3,0.3,0.4,0.5c1.4,2,1,4.4-1.1,5.7c-0.7,0.5-1.5,0.9-2.1,1.5c-0.5,0.6-0.8,1.2-0.4,1.9c0.8-0.1,1.1-0.7,1.6-1.1
				c0.5-0.4,1-0.9,1.5-1.2c0.7-0.4,1.3,0,1.8,0.6c0.4,0.5,0.3,1.1-0.2,1.5c-1.7,1.1-2.9,2.8-4.9,3.5c-1.3,0.5-1.8,2.6-1,3.8
				c0.6-0.2,0.7-0.8,1.1-1.2c0.9-1.1,1.7-2.2,3-3c0.4-0.2,0.7-0.4,1.1-0.2c0.5,0.3,0.4,0.8,0.2,1.2c-0.1,0.3-0.2,0.5-0.3,0.8
				c-2,4.2-4.5,8.1-7.7,11.5c-1.4,1.4-1.7,2.9-1.3,4.6c0.6,2.3,0.7,4.7,0.8,7.1c0.1,1.7,0.3,3.4,0.5,5c0.2,1.2,0.2,2.4-0.1,3.5
				c-0.9,3-1.7,6-1.9,9.1c-0.1,1.4-1.2,2.5-2.6,2.3c-5.4-0.7-10.9-1.4-15.9-3.9c-2.2-1.1-3.8-2.7-4.6-5c-1.2-3.2-1.1-3-4.3-2.1
				c-2.5,0.7-4.7,0.5-6.5-1.6c-0.4-0.5-1-0.7-1.7-0.6c-2,0.4-4,0.3-6,0.4c-1.4,0.1-2.6-0.3-3.5-1.5c-1.9-2.4-4.4-3.7-7.5-4.2
				c-4.2-0.7-8.1-0.2-11.7,2c-0.9,0.5-1.8,0.9-2.8,1.1c-3.6,0.8-7.2,1.6-10.9,2c-5.4,0.6-10,2.6-13.7,6.9c-2.1,2.5-4.6,4.7-6.8,7.1
				c-1.8,2-3.6,3.3-6.2,4.1c-2,0.6-3.9,1.6-6,2.1c-1.3,0.3-2.6,0.4-3.8,1c-0.6,0-1.3,0-1.9,0c-2.4-2.2-5-3.9-8.4-3.6
				c-0.7,0-1.4-0.1-2-0.4c-2.7-1.2-5.6-1-8.4-0.7c-2.7,0.3-5.3,0.2-7.6-1.5c-1.9-1.5-3.9-1.3-5.9-0.1c-3.2,1.9-6.7,2.3-10.2,2.7
				c-0.6,0.1-1.1-0.1-1.6-0.4c-1.9-1.4-4.1-2-6.3-2.7c-2.6-0.8-5.3-1.5-7.7-2.8c-0.9-0.5-1.8-0.7-2.8-0.4c-2.1,0.5-3.9-0.1-5.5-1.3
				c-2-1.4-4.2-1.7-6.5-1.4c-2.8,0.4-5.5,1.2-8.3,1.6c-2.9,0.5-5.6,0-8.1-1.5c-0.7-0.4-1.5-0.9-1.6-1.7c-0.3-1.8-0.5-3.7,0.2-5.5
				c0.4-1.1,1.2-1.9,2.4-2.2c0.6-0.1,1.1-0.4,1.7-0.6c0.9-0.4,1.6-0.9,1.7-1.9c0.1-1-0.8-1.4-1.5-1.8c-2.8-1.6-5.4-3.6-8.1-5.5
				c-0.7-0.5-1.2-1.1-1.4-2c-0.2-0.9-0.6-1.8-1.5-2.2c-3.6-1.7-4.7-5.2-5.7-8.6c-0.4-1.4,0-2,1.4-2.3c1.1-0.2,2-0.7,2.6-1.6
				c0.7-1.1,1.7-1.2,2.9-1c0.7,0.1,1.3,0.3,2,0.4c0.3,0,0.6-0.1,0.8-0.4c0.1-0.3-0.1-0.5-0.3-0.7c-0.5-0.6-1.3-0.9-2-1.2
				c-2.3-1-4.5-2-5.8-4.3c-0.4-0.7-1.1-0.9-1.9-0.6c-2,0.7-3.8,1.7-5,3.6c-1.3,1.9-2.5,3.8-3.9,5.7c-0.9,1.3-1.9,1.4-3.1,0.4
				c-0.8-0.7-1.6-1.5-2-2.4c-0.9-2.1-2.9-3.2-4.5-4.7c-0.7-0.7-1.6-0.8-2.5-0.9c-1.6-0.1-3.3-0.2-4.9-0.3c-2.5-0.2-4.1-1.4-4.6-3.6
				c-0.3-1.3-1.1-1.9-2.3-2.2c-1.3-0.2-2.5-0.3-3.7-0.8c-1.5-0.7-2.2-2.1-1.9-4c0.3-1.6,1.5-1.7,2.8-1.8c0.8,0,1.6-0.2,2.4-0.3
				c0.4-0.1,0.8-0.1,1-0.7c-0.5-1-1.5-1.4-2.4-1.8c-1.2-0.6-2.2-1.4-2.7-2.8c-0.2-0.8-0.2-1.6,0.6-1.9c1.9-0.7,2.5-2.5,3.2-4.1
				c0.7-1.5,0.4-2.4-1-3.2c-1.1-0.7-2.4-1.1-3.7-1.5c-2-0.7-3.8-1.6-5.1-3.3c-0.3-0.4-0.6-0.7-1.1-0.8c-1.3-0.3-2.4-1.1-3.5-1.9
				c-3.4-2.4-5.8-5.8-8.7-8.7c-0.5-0.5-0.6-1.1-0.1-1.7c0.6-0.7,0.4-1.3,0.1-2.1c-0.7-1.6-0.8-3.2-0.4-4.8c0.3-1.1,0.5-2.2,0.7-3.4
				c0.1-0.8,0-1.4-1-1c-1.4,0.5-2-0.2-2.2-1.4c-0.4-2.1-1.6-3.9-3.1-5.4c-1.7-1.6-3.5-2.9-5.3-4.3c-1.4-1.1-2.4-2.3-3-4
				c-0.6-1.6-1.4-3.2-2.5-4.6c0-0.3,0-0.5,0-0.8c1-1.2,2.2-1.6,3.8-1.4c1.2,0.2,2.6,0.7,3.6,0c1.4-1,2.4-0.5,3.6,0.2
				c2.7,1.6,4.8,0.9,5.9-2c0.8-2,2.2-2.8,4-2.7c1.8,0,3.6,0,5.4,0.4c3.1,0.8,5.2-0.4,6.2-3.4c0.2-0.5,0.3-1,0.5-1.6
				c0.3-1,0.9-1.7,2-1.9c1.2-0.2,1.5-0.9,1.1-2c-0.5-1.3-0.3-2.5,0.4-3.7c0.6-1,1-2,1.2-3c0.2-1,0.8-1.9,1.9-1.9
				c1.9,0,3-1.2,4.3-2.1c0.6-0.4,0.9-0.9,0.7-1.6c-0.3-1.3,0.1-2.4,0.9-3.5c0.8-1.2,2-2.4,2.3-3.8c0.5-1.7,1.4-3,2.4-4.4
				c0.7-1,1.2-2.1,0.7-3.3c-0.4-1-0.1-1.7,0.7-2.4c1.1-1,2.4-1.8,3.2-3.1c1-1.7,2-3.3,2.6-5.1c0.9-2.7,2.3-5,4.5-6.7
				c0.8-0.6,1.3-1.5,1.1-2.5c-0.4-2.8,0.9-4.7,3.2-6.1c0.8-0.5,1.5-1.1,2.3-1.5c1-0.5,1.6-1.3,2.1-2.4c1.1-2.7,2.7-5,6-5.3
				c0.2,0,0.5-0.1,0.6-0.2c1.6-1.7,3.6-1.3,5.7-1.1c2.8,0.3,4.5-1.7,6.2-3.3c0.7-0.7,1.2-1.6,2-2.4c1.4-1.2,3.2-2,4.1-3.6
				c0.7-1.2,1.6-1.6,2.9-1.6c1.7,0,2.8-0.5,3.3-2.3c0.8-2.6,3.1-3.1,5.1-1.2c0.3,0.3,0.6,0.7,0.9,1c2,2.4,4.7,3.6,7.8,3.6
				c2.6,0,5.2,0,7.8,0.6c0.9,0.2,1.7,0.4,2.3,1.2c0.7,1,1.6,1.1,2.6,0.9c2.1-0.4,4.2-0.1,6.1,0.9c1.1,0.5,2.2,0.7,3.3,0.5
				c2.9-0.4,5.9-0.8,8.8-1.2c2.8-0.4,6.8,1.5,8.3,4c0.4,0.7,0.9,1.1,1.6,1.5c2,1.2,3.7,2.6,4.9,4.7c1,1.7,3,1.9,4.7,0.9
				c2-1.3,3.5-2.9,4.7-4.9c1.7-2.9,4.3-4.2,7.5-4.5c1.2-0.1,2.5-0.3,3.7-0.4c4.3-0.3,8.7-0.4,12.8-1.8c1.5-0.5,3.2-0.6,4.9-0.8
				c2.5-0.4,4.5-1.6,5.9-3.6c1.1-1.4,2-3,2.3-4.8c0.4-2,1.5-2.8,3.5-3c1.7-0.2,3.6-0.1,5.1-1C243.6,34.6,245.1,34,246.8,33.6z"/>
		</defs>
		<clipPath id="SVGID_2_">
			<use xlink:href="#SVGID_1_"  style="overflow:visible;"/>
		</clipPath>
		<rect x="19.7" y="-2.4" class="st0" width="114" height="291"/>
		<rect x="133.7" y="-2.4" class="st1" width="114" height="291"/>
		<rect x="247.7" y="-2.4" class="st2" width="114" height="291"/>
	</g>
	<path class="st3" d="M246.8,33.6c1.1,0,2.2,0,3.3,0c3.5,1.4,5.9,4.2,8.4,6.8c0.2,0.2,0.4,0.6,0.4,0.8c-0.1,2.2,1.2,3.4,2.8,4.6
		c0.7,0.5,1.5,1,1.6,1.8c0.5,3,2.2,5.6,2.9,8.6c1.2,5.5,4.9,9.6,7.9,14.1c0.2,0.4,0.6,0.7,1,0.9c1.9,1.2,2.9,3,3.2,5.2
		c0.3,2,1.3,3.5,3,4.7c1.8,1.2,3.1,2.8,4.2,4.6c2.3,3.4,4.6,6.8,8.2,9c1,0.6,1.7,1.4,2,2.5c0.4,1.2,1,2.3,1.1,3.5
		c0.3,3.5,2,6.4,3.8,9.3c0.7,1.2,1,2.4,1,3.8c0.1,3.3,0,6.7,0.9,9.9c0.2,0.7-0.1,1.3-0.4,2c-0.5,0.9-1,1.9-1,2.9
		c0,1.2-0.5,2.2-1.4,3c-0.7,0.6-1.2,1.4-1.2,2.4c0.1,5.6-0.9,11.2,0.6,16.8c0.2,0.9,0.2,1.8,0.3,2.7c0.1,1.2,0.2,2.4,0.7,3.5
		c0.7,1.8,0.9,3.6,1.1,5.5c0.1,1.3-0.2,2.5-1.4,3.2c-0.2,0.1-0.5,0.3-0.4,0.8c1.4,1,2.2,2.6,2.6,4.3c0.1,0.6,0.5,1.1,1.1,1.2
		c1.9,0.2,2.4,1.6,2.8,3.2c0.3,1.5,0.8,3.1,2.4,3.7c3.6,1.3,7.3,2.7,11.2,2.9c2,0.1,2,0,2.5-2c0.6-2.6,1.9-3,3.9-1.4
		c0.9,0.8,1.6,0.8,2.6,0c3-2.2,6-4.3,9.1-6.4c1.1-0.7,2.3-1,3.6-1c2.9,0,5.5,0.8,8.1,1.8c2.8,1,4.7,2.7,4.8,5.9
		c0,0.6,0.2,1.2,0.4,1.7c0.1,0.4,0.2,0.7-0.1,1c-0.9,0.8-0.6,1.5,0,2.2c0.6,0.6,0.7,1.3,0.6,2.2c-0.6,5-1.1,10-1.7,15
		c-0.2,1.6-0.5,1.8-2,1.5c-0.2,0-0.5,0-0.7,0c-3.7,0.9-7.6,1.2-11.3,2c-1.5,0.3-2.7,0.9-3.8,2c-0.8,0.9-1.7,1.7-2.6,2.4
		c-0.9,0.7-1.7,0.3-2.6-0.8c-0.6-0.9,0-1.4,0.6-1.8c1-0.7,2.1-1.2,3.2-1.9c0.4-0.3,0.9-0.6,0.8-1.1c-0.1-0.7-0.7-0.6-1.2-0.7
		c-0.7-0.2-1.5-0.3-1.7-1.2c-0.3-1.6-0.8-3.3,0.4-4.9c0.5-0.7,0.3-1.2-0.6-1.4c-1.7-0.4-3.4,0.4-4.4,2.1c-0.9,1.6-0.8,2.3,0.7,4
		c0.2,0.2,0.3,0.3,0.4,0.5c1.4,2,1,4.4-1.1,5.7c-0.7,0.5-1.5,0.9-2.1,1.5c-0.5,0.6-0.8,1.2-0.4,1.9c0.8-0.1,1.1-0.7,1.6-1.1
		c0.5-0.4,1-0.9,1.5-1.2c0.7-0.4,1.3,0,1.8,0.6c0.4,0.5,0.3,1.1-0.2,1.5c-1.7,1.1-2.9,2.8-4.9,3.5c-1.3,0.5-1.8,2.6-1,3.8
		c0.6-0.2,0.7-0.8,1.1-1.2c0.9-1.1,1.7-2.2,3-3c0.4-0.2,0.7-0.4,1.1-0.2c0.5,0.3,0.4,0.8,0.2,1.2c-0.1,0.3-0.2,0.5-0.3,0.8
		c-2,4.2-4.5,8.1-7.7,11.5c-1.4,1.4-1.7,2.9-1.3,4.6c0.6,2.3,0.7,4.7,0.8,7.1c0.1,1.7,0.3,3.4,0.5,5c0.2,1.2,0.2,2.4-0.1,3.5
		c-0.9,3-1.7,6-1.9,9.1c-0.1,1.4-1.2,2.5-2.6,2.3c-5.4-0.7-10.9-1.4-15.9-3.9c-2.2-1.1-3.8-2.7-4.6-5c-1.2-3.2-1.1-3-4.3-2.1
		c-2.5,0.7-4.7,0.5-6.5-1.6c-0.4-0.5-1-0.7-1.7-0.6c-2,0.4-4,0.3-6,0.4c-1.4,0.1-2.6-0.3-3.5-1.5c-1.9-2.4-4.4-3.7-7.5-4.2
		c-4.2-0.7-8.1-0.2-11.7,2c-0.9,0.5-1.8,0.9-2.8,1.1c-3.6,0.8-7.2,1.6-10.9,2c-5.4,0.6-10,2.6-13.7,6.9c-2.1,2.5-4.6,4.7-6.8,7.1
		c-1.8,2-3.6,3.3-6.2,4.1c-2,0.6-3.9,1.6-6,2.1c-1.3,0.3-2.6,0.4-3.8,1c-0.6,0-1.3,0-1.9,0c-2.4-2.2-5-3.9-8.4-3.6
		c-0.7,0-1.4-0.1-2-0.4c-2.7-1.2-5.6-1-8.4-0.7c-2.7,0.3-5.3,0.2-7.6-1.5c-1.9-1.5-3.9-1.3-5.9-0.1c-3.2,1.9-6.7,2.3-10.2,2.7
		c-0.6,0.1-1.1-0.1-1.6-0.4c-1.9-1.4-4.1-2-6.3-2.7c-2.6-0.8-5.3-1.5-7.7-2.8c-0.9-0.5-1.8-0.7-2.8-0.4c-2.1,0.5-3.9-0.1-5.5-1.3
		c-2-1.4-4.2-1.7-6.5-1.4c-2.8,0.4-5.5,1.2-8.3,1.6c-2.9,0.5-5.6,0-8.1-1.5c-0.7-0.4-1.5-0.9-1.6-1.7c-0.3-1.8-0.5-3.7,0.2-5.5
		c0.4-1.1,1.2-1.9,2.4-2.2c0.6-0.1,1.1-0.4,1.7-0.6c0.9-0.4,1.6-0.9,1.7-1.9c0.1-1-0.8-1.4-1.5-1.8c-2.8-1.6-5.4-3.6-8.1-5.5
		c-0.7-0.5-1.2-1.1-1.4-2c-0.2-0.9-0.6-1.8-1.5-2.2c-3.6-1.7-4.7-5.2-5.7-8.6c-0.4-1.4,0-2,1.4-2.3c1.1-0.2,2-0.7,2.6-1.6
		c0.7-1.1,1.7-1.2,2.9-1c0.7,0.1,1.3,0.3,2,0.4c0.3,0,0.6-0.1,0.8-0.4c0.1-0.3-0.1-0.5-0.3-0.7c-0.5-0.6-1.3-0.9-2-1.2
		c-2.3-1-4.5-2-5.8-4.3c-0.4-0.7-1.1-0.9-1.9-0.6c-2,0.7-3.8,1.7-5,3.6c-1.3,1.9-2.5,3.8-3.9,5.7c-0.9,1.3-1.9,1.4-3.1,0.4
		c-0.8-0.7-1.6-1.5-2-2.4c-0.9-2.1-2.9-3.2-4.5-4.7c-0.7-0.7-1.6-0.8-2.5-0.9c-1.6-0.1-3.3-0.2-4.9-0.3c-2.5-0.2-4.1-1.4-4.6-3.6
		c-0.3-1.3-1.1-1.9-2.3-2.2c-1.3-0.2-2.5-0.3-3.7-0.8c-1.5-0.7-2.2-2.1-1.9-4c0.3-1.6,1.5-1.7,2.8-1.8c0.8,0,1.6-0.2,2.4-0.3
		c0.4-0.1,0.8-0.1,1-0.7c-0.5-1-1.5-1.4-2.4-1.8c-1.2-0.6-2.2-1.4-2.7-2.8c-0.2-0.8-0.2-1.6,0.6-1.9c1.9-0.7,2.5-2.5,3.2-4.1
		c0.7-1.5,0.4-2.4-1-3.2c-1.1-0.7-2.4-1.1-3.7-1.5c-2-0.7-3.8-1.6-5.1-3.3c-0.3-0.4-0.6-0.7-1.1-0.8c-1.3-0.3-2.4-1.1-3.5-1.9
		c-3.4-2.4-5.8-5.8-8.7-8.7c-0.5-0.5-0.6-1.1-0.1-1.7c0.6-0.7,0.4-1.3,0.1-2.1c-0.7-1.6-0.8-3.2-0.4-4.8c0.3-1.1,0.5-2.2,0.7-3.4
		c0.1-0.8,0-1.4-1-1c-1.4,0.5-2-0.2-2.2-1.4c-0.4-2.1-1.6-3.9-3.1-5.4c-1.7-1.6-3.5-2.9-5.3-4.3c-1.4-1.1-2.4-2.3-3-4
		c-0.6-1.6-1.4-3.2-2.5-4.6c0-0.3,0-0.5,0-0.8c1-1.2,2.2-1.6,3.8-1.4c1.2,0.2,2.6,0.7,3.6,0c1.4-1,2.4-0.5,3.6,0.2
		c2.7,1.6,4.8,0.9,5.9-2c0.8-2,2.2-2.8,4-2.7c1.8,0,3.6,0,5.4,0.4c3.1,0.8,5.2-0.4,6.2-3.4c0.2-0.5,0.3-1,0.5-1.6
		c0.3-1,0.9-1.7,2-1.9c1.2-0.2,1.5-0.9,1.1-2c-0.5-1.3-0.3-2.5,0.4-3.7c0.6-1,1-2,1.2-3c0.2-1,0.8-1.9,1.9-1.9c1.9,0,3-1.2,4.3-2.1
		c0.6-0.4,0.9-0.9,0.7-1.6c-0.3-1.3,0.1-2.4,0.9-3.5c0.8-1.2,2-2.4,2.3-3.8c0.5-1.7,1.4-3,2.4-4.4c0.7-1,1.2-2.1,0.7-3.3
		c-0.4-1-0.1-1.7,0.7-2.4c1.1-1,2.4-1.8,3.2-3.1c1-1.7,2-3.3,2.6-5.1c0.9-2.7,2.3-5,4.5-6.7c0.8-0.6,1.3-1.5,1.1-2.5
		c-0.4-2.8,0.9-4.7,3.2-6.1c0.8-0.5,1.5-1.1,2.3-1.5c1-0.5,1.6-1.3,2.1-2.4c1.1-2.7,2.7-5,6-5.3c0.2,0,0.5-0.1,0.6-0.2
		c1.6-1.7,3.6-1.3,5.7-1.1c2.8,0.3,4.5-1.7,6.2-3.3c0.7-0.7,1.2-1.6,2-2.4c1.4-1.2,3.2-2,4.1-3.6c0.7-1.2,1.6-1.6,2.9-1.6
		c1.7,0,2.8-0.5,3.3-2.3c0.8-2.6,3.1-3.1,5.1-1.2c0.3,0.3,0.6,0.7,0.9,1c2,2.4,4.7,3.6,7.8,3.6c2.6,0,5.2,0,7.8,0.6
		c0.9,0.2,1.7,0.4,2.3,1.2c0.7,1,1.6,1.1,2.6,0.9c2.1-0.4,4.2-0.1,6.1,0.9c1.1,0.5,2.2,0.7,3.3,0.5c2.9-0.4,5.9-0.8,8.8-1.2
		c2.8-0.4,6.8,1.5,8.3,4c0.4,0.7,0.9,1.1,1.6,1.5c2,1.2,3.7,2.6,4.9,4.7c1,1.7,3,1.9,4.7,0.9c2-1.3,3.5-2.9,4.7-4.9
		c1.7-2.9,4.3-4.2,7.5-4.5c1.2-0.1,2.5-0.3,3.7-0.4c4.3-0.3,8.7-0.4,12.8-1.8c1.5-0.5,3.2-0.6,4.9-0.8c2.5-0.4,4.5-1.6,5.9-3.6
		c1.1-1.4,2-3,2.3-4.8c0.4-2,1.5-2.8,3.5-3c1.7-0.2,3.6-0.1,5.1-1C243.6,34.6,245.1,34,246.8,33.6z"/>
</g>
<path class="st4" d="M48.2,224.1c4.9,4.8,5,12.7,0.2,17.6l0,0l-0.2,0.2c-4.9,4.9-12.9,5-17.8,0.1s-5-12.9-0.1-17.8
	C35.2,219.2,43.2,219.2,48.2,224.1L48.2,224.1z M44.1,237.8c1.3-1.2,2-3,2-4.8c0.1-1.8-0.7-3.5-2-4.7c-1.3-1.3-3-2-4.9-1.9
	c-3.6-0.1-6.6,2.9-6.7,6.5v0.1c0,1.8,0.7,3.5,1.9,4.8c1.2,1.3,2.9,2,4.7,2C41,239.9,42.8,239.1,44.1,237.8z M72.9,225.7l-32.6,50.7
	c-0.5,1-1.6,1.7-2.8,1.6c-1.8-0.1-3.4-1.6-3.4-3.4c0.1-0.7,0.3-1.4,0.6-2l32.7-50.7c0.5-1,1.6-1.7,2.8-1.6c1,0,1.8,0.3,2.5,1
	c0.7,0.6,1,1.6,1,2.5C73.6,224.4,73.4,225.1,72.9,225.7L72.9,225.7z M59.4,274.3c-4.9-4.9-4.9-12.9,0-17.8l0.1-0.1
	c2.3-2.3,5.5-3.6,8.8-3.7c7-0.1,12.6,5.5,12.7,12.5s-5.5,12.6-12.5,12.7C65.1,278.1,61.8,276.7,59.4,274.3z M63.5,260.7
	c-2.7,2.5-2.7,6.7-0.2,9.4l0.1,0.1l0.1,0.1c2.6,2.6,6.8,2.7,9.4,0.1c1.4-1.3,2.1-3.1,2-5.1c-0.1-3.6-3-6.4-6.6-6.6
	C66.5,258.7,64.8,259.4,63.5,260.7L63.5,260.7z"/>
<g>
	<ellipse transform="matrix(0.8907 -0.4545 0.4545 0.8907 11.9617 162.454)" class="st5" cx="343.9" cy="56.3" rx="43" ry="23.6"/>
	<ellipse transform="matrix(0.8998 -0.4363 0.4363 0.8998 11.3831 154.5574)" class="st6" cx="342.2" cy="52.5" rx="43" ry="20.9"/>
	
		<ellipse transform="matrix(0.8998 -0.4363 0.4363 0.8998 11.3831 154.5574)" class="st7" cx="342.2" cy="52.5" rx="34.4" ry="16.7"/>
	<path class="st5" d="M334.8,62c1.7,1.4,6,0.5,9.5-1.6c2.2-1.4,3.6-3.2,3.7-4.6l0.1-0.8l1.1-0.4c1.1-0.4,2.4-1,3.5-1.8
		c3.5-2.2,4.9-5.2,3.1-6.4l-0.6-0.4l3.7-2.3c0.8-0.5,1.1-1.1,0.7-1.4c-0.4-0.3-1.4-0.1-2.1,0.4l-3.7,2.3l-2.4-1.8l3.7-2.3
		c0.8-0.5,1.1-1.1,0.7-1.4c-0.7-0.3-1.5-0.1-2.1,0.4l-3.7,2.3l-1.9-1.5c-0.4-0.3-1.4-0.1-2.1,0.4c-0.8,0.5-1.1,1.1-0.7,1.4l1.9,1.5
		L330.1,55l-1.9-1.5c-0.4-0.3-1.4-0.1-2.1,0.4c-0.8,0.5-1.1,1.1-0.7,1.4l1.9,1.5l-3.7,2.3c-0.8,0.5-1.1,1.1-0.7,1.4
		c0.4,0.3,1.4,0.1,2.1-0.4l3.7-2.3l2.5,1.9l-3.7,2.3c-0.8,0.5-1.1,1.1-0.7,1.4c0.7,0.3,1.5,0.1,2.1-0.4l3.7-2.3L334.8,62z
		 M348.9,44.9l4.4,3.3c1,0.8,0.2,2.4-1.7,3.7c-1.9,1.4-4.6,1.7-5.5,1l-4.4-3.3L348.9,44.9z M331.7,56l7.2-4.5l5.8,4.2
		c1,0.8,0.2,2.4-1.7,3.7c-1.9,1.2-4.4,1.8-5.5,1L331.7,56z"/>
</g>
<g>
	
		<ellipse transform="matrix(0.1984 -0.9801 0.9801 0.1984 141.3782 462.5021)" class="st8" cx="353.5" cy="144.8" rx="17.2" ry="35.5"/>
	
		<ellipse transform="matrix(0.1984 -0.9801 0.9801 0.1984 144.799 461.6947)" class="st9" cx="354.7" cy="142.3" rx="15.9" ry="34.8"/>
	
		<ellipse transform="matrix(0.1984 -0.9801 0.9801 0.1984 144.799 461.6947)" class="st10" cx="354.7" cy="142.3" rx="12.8" ry="27.9"/>
	<path class="st11" d="M360.9,143.9l7.4,2.3c0.1-0.8,0.2-1.5,0.5-2.2c0.1-0.4-0.3-0.6-0.9-0.7c-2.3-0.9-4.7-1.5-7.2-2.3
		c-1.6-0.5-2.3-1-2.6-1.8c-0.5-1-0.6-1.1-2.7-1.3l0.8,1.4c-2.6-0.8-4.9-1.7-7.3-2.3l-1.6,7.8c0,0.2,0,0.3,0.5,0.5
		c1.1,0.4,2.2,0.8,3.5,1.3l1.1-5.4c1.4,0.4,2.5,0.9,3.9,1.2c1.6,0.4,2.4,0.9,2.7,1.8c0.4,1,0.6,1,2.7,1.3L360.9,143.9z"/>
</g>
<g>
	<ellipse class="st12" cx="58.2" cy="39.9" rx="30.1" ry="34.6"/>
	<ellipse class="st13" cx="54.5" cy="38.8" rx="29" ry="33.5"/>
	<ellipse class="st12" cx="54.5" cy="38.8" rx="23.2" ry="26.9"/>
	<path class="st13" d="M59.6,23.3c3.1,0,5.5,2.6,5.6,6.4c0.2,3.5-2.1,6.3-4.9,6.7c-0.4,0.1-0.9,0.2-1.2,0.1c-1.3-0.2-2.4,0.8-2.5,2
		v0.4c0,1.5,0.9,2.6,2.3,2.5c2.8-0.2,5.2,1.9,5.8,5c0.6,2.4-0.2,4.9-1.9,6.6c-1.5,1.6-3.9,2-5.8,0.9c-2.1-1-3.2-3-3.5-5.6
		c-0.1-1.3,0.2-2.5,0.7-3.7c0.5-0.9,0.2-2.1-0.5-2.8c-0.6-0.7-1.6-0.9-2.4-0.4c-0.3,0.2-0.6,0.5-0.9,0.9c-1.5,2.4-3.5,3.3-5.8,2.7
		c-2.4-0.5-3.9-2.4-4.5-5.3c-0.8-4,2.4-8,5.9-7.7c2.3,0.2,3.9,1.5,4.9,3.9c0.3,1,1.4,1.6,2.4,1.3c0.1,0,0.1,0,0.2-0.1
		c0.2-0.1,0.2-0.1,0.3-0.2c1.2-0.7,1.6-2.2,0.9-3.5c-0.5-1.1-0.9-2.3-1-3.5C53.9,26.3,56.3,23.3,59.6,23.3z"/>
</g>
<g>
	<path class="st14" d="M360.6,229.8c2.2-0.8,4.5-1.6,6.7-2.1l0.5-0.2c0.3,0.1,0.8,0,1.1-0.1l0.3,0c0.9,0.5,2.3,0.1,3.6,0.2
		c0.8,0,1,0.6,1.8,0.1c1.2,0.7,3,1.2,4.4,2.1c0,0.2,0.1,0.2,0.3,0.2l0.1-0.1c0.6,0.7,1.3,1.4,2.1,2c0,0-0.3,0.4,0,0.3
		c1.3,2,2.1,4.2,2.7,6.6c-0.1,1.8,0.5,4.1,0,6.2c-0.8,18.8-28.4,47.8-46.7,39.3c0-0.3-0.4,0-0.6-0.3c-0.2-0.3-0.1-0.5-0.4-0.4
		c-1.5-0.3-2.9-3-3.8-3.7c-0.1-0.4-0.3-0.6-0.6-0.9c-0.1-0.6-0.6-1.2-0.4-1.8c-0.5-1.4-0.9-2.7-1.2-4.1c0.1-0.5,0.1-0.9,0-1.4
		c0-2.9,0.4-5.6,1.2-8.3c-0.2-0.5,0.5-0.9,0.1-1.3c0.2,0,0.2-0.1,0.2-0.3l-0.1-0.1c1.1-2.8,2.5-6,3.8-8.9c0.2-0.1,0.4-0.4,0.4-0.7
		c2.7-4.1,5.8-8.1,9.1-11.8c0.5-0.2,1.1-0.7,1.2-1.3c1.1-0.8,2.2-1.7,3.2-2.8c0.2-0.1,0.5-0.1,0.4-0.4c1.3-0.5,2.3-1.8,3.6-2.4
		c0.1-0.5,0.8-0.3,0.8-0.9c0.3,0,0.1-0.2,0.3-0.4c0.4,0.4,0.6-0.1,0.9-0.4C357.4,231.8,358.6,230.4,360.6,229.8z M379.8,242.4
		c-1-12.7-14.1-11.9-22.2-7.4c-20.6,11.6-29.8,38.9-16.6,44.7c6.9,3.6,15.1-1,21.2-4.8c9.7-7.9,18.2-19.1,17.8-32.1L379.8,242.4z"/>
	<path class="st15" d="M379.9,242.9c0.5,13-8.3,24.3-17.8,32.1c-5.9,3.8-14.3,8.4-21.2,4.8c-2.5-2.5-4-5.8-4.2-9.4
		c0.3-10,5.2-17,10.5-24c3.2-2.6,6.2-6.3,10.1-8c7.2-5,19.8-6.6,22.4,4C379.5,242.5,379.5,243.1,379.9,242.9z M354.2,251
		C354.5,250.9,354,250.3,354.2,251c-4,3.1-7.7,6.4-11.6,9.8l9.7,2.7c-0.7-1.8-1.7-3.7-2.5-5.3C351.4,255.8,352.8,253.5,354.2,251z
		 M357.9,247.5c-2.4,3-4.2,6.9-6.4,10.2c0.3,1.1,0.8,2.2,1.4,3.2c0.5,1.4,1.2,2.6,1.8,3.9c0.3,0.1,0.3-0.4,0.6-0.4
		c5.8-4.6,12-9.2,17.7-14.2C368.1,249.3,362.8,247.7,357.9,247.5z"/>
	<path class="st15" d="M383,233l0,0.3c0.8,1.1,1.8,2.2,3,3c0.1,0.6,0.8,1,0.9,1.7c1.4,1.8,1.6,4.2,2.3,6.4c-0.1,2.9-0.3,5.9-0.8,8.9
		c-0.1,0.1-0.2,0.1-0.1,0.2l0.1,0.1c-0.7,1.4-0.9,3.6-1.8,5.2c-0.5,1.7-1.9,3-1.9,4.6c-0.2,0-0.2,0.1-0.2,0.3l0.1,0.1
		c-0.5,0.1-0.8,0.5-0.7,1.1c-0.1,0.1-0.2,0.1-0.2,0.4c-0.5,0.1-0.8,0.5-0.7,1.1c-0.2,0-0.2,0.1-0.2,0.4c-0.2,0-0.2,0.1-0.2,0.3
		l0.1,0.1c-0.4,0.1-0.5,0.3-0.5,0.7l0,0c-0.5,0.2-0.6,0.4-0.4,1c-2.6,2.8-5,6.3-7.9,9.2c-0.7,0.6-2.5,1.6-2.6,2.6
		c-1.6,0.7-3.1,2.6-4.9,3.4c-0.2,0.6-0.9,0.4-1,0.8c-4.2,2.2-8.5,4.4-13.1,5c-1.6,0.2-3.5-0.1-5.2,0.2c-0.3-0.5-1-0.3-1.8-0.5
		c-2.9-1-5.4-2.8-7.4-5.1c19.6,8.5,46.3-22.2,46.4-39.4c0.5-1.9,0-4.2,0-6.2c-0.5-2.4-1.4-4.6-2.7-6.6c0.7-0.1,0.9,0.7,1.3,1
		L383,233z"/>
	<path class="st16" d="M379.8,242.4c-2.9-10.9-15.6-8.5-22.4-4c-3.9,1.8-6.8,5.4-10.1,8c-5.8,7.3-10.3,14.8-10.5,24
		c0.3,2.4,1,4.8,2,6.9c0.6,1,1.6,1.3,2.1,2.5c-5-2-6.3-7.7-6.1-12.8c1.4-14.1,12.6-26.2,22.7-31.9
		C368.7,229.1,379.2,232.1,379.8,242.4z"/>
	<path class="st16" d="M379.9,242.9c-0.1,0.1-0.3-0.1-0.4-0.2s0.1-0.3,0.2-0.4L379.9,242.9z"/>
	<path class="st14" d="M358,247.4c4.8,0.3,10,1.9,15.1,2.6c-5.5,4.8-11.8,9.5-17.7,14.2c0.8-3,3.1-6.5,4.6-9.5
		C359.3,252.3,358.6,250,358,247.4z"/>
	<path class="st17" d="M358,247.4c0.7,2.4,1.2,4.8,2,7.3c-1.5,2.9-3.8,6.3-4.6,9.5c-0.3,0-0.2,0.6-0.6,0.4c-0.6-1.3-1.2-2.6-1.8-3.9
		c-0.6-1-1.1-2.1-1.4-3.2C353.7,254.4,355.6,250.4,358,247.4z"/>
	<path class="st14" d="M354.2,251.1l-4.4,7.2c0.7,1.5,1.7,3.4,2.5,5.3l-9.7-2.7C346.6,257.5,350.2,254.1,354.2,251.1z"/>
</g>
</svg>
