<?xml version="1.0" encoding="utf-8"?>
<!-- Generator: Adobe Illustrator 24.3.0, SVG Export Plug-In . SVG Version: 6.00 Build 0)  -->
<svg version="1.1" id="Layer_1" xmlns="http://www.w3.org/2000/svg" xmlns:xlink="http://www.w3.org/1999/xlink" x="0px" y="0px"
	 viewBox="0 0 400 300" style="enable-background:new 0 0 400 300;" xml:space="preserve">
<style type="text/css">
	.st0{clip-path:url(#SVGID_2_);fill:#FF0000;}
	.st1{clip-path:url(#SVGID_2_);fill:#0000FF;}
	.st2{clip-path:url(#SVGID_2_);fill:#FFFFFF;}
	.st3{clip-path:url(#SVGID_2_);}
	.st4{fill:#0000FF;}
	.st5{fill:#FFFF00;}
	.st6{fill:#FFFFFF;}
	.st7{fill:#FF0000;}
	.st8{fill:none;stroke:#000000;stroke-miterlimit:10;}
	.st9{fill:#F3F2EF;}
	.st10{fill:#C98017;}
	.st11{fill:#FBED60;}
	.st12{fill:#FABA31;}
	.st13{fill:#68C2EE;}
	.st14{fill:#0491BE;}
	.st15{fill:#68C2EF;}
	.st16{fill:#31798F;}
	.st17{fill:#C1BDBE;}
	.st18{fill:#6E6E6E;}
	.st19{fill:#6C6C6C;}
	.st20{fill:#BCBCBC;}
	.st21{fill:#E1E1E1;}
	.st22{fill:#0A0A09;}
</style>
<g>
	<g>
		<defs>
			<path id="SVGID_1_" d="M47,128.9c0-0.1,0-0.2,0-0.3c2.6-1.1,4-3.4,5-5.8c0.3-0.7,0.6-1.4,0.9-2.1c0.5-1,1.2-1.8,2.4-2
				c0.8-0.1,1.6-0.7,2.3-1.2c1-0.6,2-1.5,3.1-1.9c3.3-1.5,5.7-3.8,7.6-6.8c1.8-2.9,4.4-4.2,7.8-3.8c3.1,0.3,4.2-1.6,4.7-3.7
				c0.6-2.5,0.9-5,1.3-7.7c1.5,0.3,2.8,0.6,4.1,0.9c2.4,0.5,4.6,1.4,7.1,0.9c2.2-0.5,4.6-1,6.6-0.6c2.9,0.6,5.7,1.9,8.4,3.3
				c2.6,1.3,5,1.9,7.9,1.2c2.3-0.6,4.7,0,6.3,1.8c3.6,4,7.9,5.5,13.2,5.1c6.3-0.4,12.6,1.1,18.9-0.2c0.6-0.1,1.4,0.6,2,1
				c0.7,0.5,1.1,1.3,1.8,1.8c2,1.3,4.2,1.7,6.5,0.8c1-0.4,1.6,0,2,0.8c0.7,1.2,1.3,2.6,2.1,3.7c1.1,1.5,2.6,1.3,3.3-0.5
				c0.5-1.3,0.8-2.7,1.4-4c0.7-1.5,1.3-3.2,3.3-3.2c2.1,0,3.7-0.9,5-2.4c0.4-0.5,1.2-0.6,1.8-1c0.5-0.3,1.1-0.5,1.4-1
				c0.8-1.1,1.5-2.5,2.4-3.6c0.6-0.8,1.5-1.3,2.7-0.9c2,0.7,5.6-0.9,6.4-2.9c1-2.4,1.8-5,2.9-7.4c0.8-1.8,1.7-3.6,2.8-5.2
				c0.3-0.6,1.3-1.2,1.8-1.1c2.5,0.3,4.5-0.7,6.4-2c1.1-0.8,2.1-0.6,2.9,0.6c0.4,0.6,0.9,1.2,1.5,2c0.9-1.2,1.7-2.3,2.5-3.5
				c2-3.2,5.4-3.8,8.6-3.7c5,0.1,10,1.2,15,1.2c5.5,0.1,11-0.5,16.5-0.8c1,0,2.2,0,3,0.5c1.6,0.8,3.3,1.8,4.6,3
				c2.6,2.3,7.4,0.1,7.8-3.2c0.6-4.6,4.2-5.5,7.8-4.9c2.5,0.4,4.1-0.8,4.2-3.3c0-1,0.2-2,0.3-3.1c0.8,0.4,1.4,0.8,2,0.9
				c5.2,1,10.4,2,15.4-0.9c3.3-1.9,6.8-1.4,10.1,0.4c1.9,1,3.9,2.2,6,2.7c2.5,0.5,4.7,1.1,6.1,3.4c0,0,0.2,0,0.3,0
				c0.1-2.7-0.4-5.1-3.1-6.6c-0.4-0.2-0.6-0.8-0.8-1.2c-1.3-2.8-1.1-5.7-0.8-8.6c0.2-1.6,0.8-3.4,0.5-4.9c-0.4-1.8,0.4-2.5,1.6-2.7
				c3.6-0.6,6.5-2.5,9.6-4.2c0.7-0.4,1.6-0.4,2.5-0.3c1.2,0.1,2.4,0.7,3.6,0.6c4-0.2,7.9-0.6,11.8-1.1c1.7-0.2,2.9,0.2,4,1.6
				c0.6,0.8,1.6,1.7,2.5,1.9c1.4,0.3,1.7,1,1.3,2c-0.7,1.8-1.4,3.6-2.2,5.3c-0.6,1.3-1,2.5-0.4,3.9c1,2.1,1.9,4.3,3,6.3
				c0.5,0.9,1.5,1.4,2.6,2.4c0.2,1.9,0.2,1.9,2.9,2.4c1.2,0.2,2,0.8,2.4,2.1c0.4,1.5,0,2.4-1.2,3.2c-0.5,0.3-1,0.4-1.5,0.8
				c-1,0.7-1.8,1.7-0.9,2.9c0.9,1.1,1.9,2.3,3.1,3c2,1.2,3.6,2.6,4.7,4.7c1.1,2.2,2.7,4,4.7,5.5c0.5,0.4,0.9,1.2,1.1,1.9
				c0.5,1.5,0.9,3,1.3,4.5c0,0.2,0,0.4,0,0.7c-0.7-0.5-1.4-0.9-2-1.5c-1.1-0.9-2.3-1.5-3.8-1.1c-1.5,0.4-2.6-0.2-3.6-1.3
				c-0.6-0.7-1.4-1.5-2.3-1.7c-1.5-0.4-3.2,0.4-4.6-0.9c0,0-0.3,0.1-0.4,0.1c-0.5,0-0.9,0-1.4,0.1c-2.1,1.4-4.4,2.6-6.8,3.7
				c-2.8,1.3-5.7,4.3-4.3,8.1c0.3,0.7,0.5,1.5,0.6,2.2c0.2,1.7,0.5,3.5,0.6,5.2c0,1.4,0.3,2.5,1.6,3.2c0.4,0.3,1,0.5,1.2,0.9
				c0.3,0.7,0.5,1.5,0.4,2.2c0,0.2-1,0.4-1.5,0.5c-0.9,0.2-1.8,0.1-2.6,0.4c-3.1,1.1-5.7,0.3-7.9-2.1c-2.1-2.2-2.9-2.1-4.7,0.3
				c-1,1.3-2.2,1.8-3.7,1.3c-0.8-0.2-1.7-0.3-2.6-0.5c0,1.6,0,2.9,0,4.3c0,1.1,0.1,2.4-0.3,3.4c-1.3,3.5-4.5,5-7.8,5.7
				c-2.7,0.6-5.2,1.5-7.4,2.9c-1.8,1.2-3.7,1.7-5.9,1.6c-3.8-0.1-6.7,1.3-8.4,4.9c-0.8,1.7-2.2,2.5-4.2,2.2c-2-0.2-4-0.2-5.9-0.5
				c-2.2-0.3-3.9,0.5-4.9,2.3c-1.4,2.5-2.8,5.1-3.8,7.8c-1.4,3.7-0.5,7,2,9.9c1.5,1.7,3.4,2.8,5.4,3.6c3,1.3,3.7,3.5,2,6.2
				c-0.3,0.4-0.5,0.9-0.6,1.3c-0.2,2.3-0.5,4.6-0.4,6.9c0.1,3.2,0.2,6.3-1.3,9.2c-0.7,1.4-0.4,2.9,0.1,4.3c0.3,0.7,0.6,1.4,0.9,2.1
				c0.6,1.8,0.2,3.6-1.2,4.2c-1.6,0.7-3.3,1.5-5,1.5c-2.6,0.1-5.3-0.3-7.9-0.7c-1.5-0.2-2.6-0.1-3.6,1c-1.2,1.2-2.5,1.4-4.1,0.9
				c-2.5-0.8-3.6,0.3-3.1,2.8c0.4,2,0.2,2.4-1.8,3.1c-3.1,1-6.2,2-9.2,3.1c-2.3,0.9-4.5,1.8-6.6,3c-0.9,0.5-1.5,1.7-2,2.6
				c-0.2,0.3,0.1,0.9,0.3,1.3c0.7,1,1.5,2,2.3,2.9c0.9,0.9,1.8,1.7,2.9,2.7c0.5-0.7,0.6-1.2,0.9-1.3c0.8-0.3,2-0.8,2.3-0.4
				c1.8,1.6,3.1,3.6,3.9,5.9c-0.2,0.1-0.2,0.2-0.3,0.2c-3.3,0.8-7.1,0.7-8.7,4.6c-0.1,0.3-0.5,0.6-0.9,0.7c-1.2,0.4-1,1.2-0.7,2.2
				c0.6,2,1.2,4.1,1.7,6.2c0.7,3.1,1.4,6.3,4.6,8c1.1,0.6,2,1.4,3,2c-0.9,1.2-1.6,2.2-2.4,3.2c-0.8,1.1-1.8,1.7-3.1,1.6
				c-2-0.3-3.8,0.3-5.6,1c-2,0.8-4.1,1.7-6.2,2.3c-2.4,0.7-4.9,0.5-7-1.2c-2.3-1.8-4.4-3.8-6.7-5.7c-0.5-0.4-1.1-0.8-1.7-0.8
				c-2.2-0.2-4.1-0.4-6.3-1.3c-2.2-0.9-4-2-5.9-3.3c-0.4-0.3-1-0.6-1.5-0.6c-0.9-0.1-1.6,0.1-1.6,1.3c-0.2,3.9-2.3,6.2-6.1,6.8
				c-1.4,0.2-3.1-0.2-4.5-0.7c-0.6-0.2-1-1.3-1.3-2.1c-0.5-1.5-1.3-2.4-2.8-2.9c-2.4-0.9-4.7-2-7-3c-2.6-1.2-3.1-2-2.7-4.8
				c0.2-1.5-0.3-2.4-1.6-3.3c-1.7-1.1-3.5-2.4-4.9-3.9c-0.9-1-1.3-2.6-1.6-4c-0.3-1.2,0.1-2.5-0.1-3.8c-0.1-0.8-0.6-2.1-0.9-2.1
				c-0.9,0-1.8,0.4-2.6,0.9c-0.5,0.3-0.7,1.1-1,1.7c-1,1.5-1.7,3.2-2.9,4.5c-2.1,2.3-3.4,4.8-3.6,7.9c-0.2,3.2-1.5,5.9-4.4,7.7
				c-1.1,0.7-2,1.7-3.1,2.5c-1.5,1-3.1,2.3-4.8,2.8c-3.6,0.9-7.3,0.8-10.6-1c-3.8-1.9-7.2-2-10.7,0.2c-0.2,0.1-0.4,0.2-0.6,0.3
				c-4.5,2.1-8.7,1.7-12.4-1.6c-1.8-1.7-3.7-2.7-6.1-2.9c-0.7-0.1-2.1,0.1-2.1,0.4c-0.2,1-0.2,2.1,0.1,3.1c0.3,0.8,1.1,1.4,1.9,2.4
				c-1.1,0.8-2.1,1.7-3.2,2.2c-1.8,0.9-3.9,1.4-5,3.3c-0.9,1.6-2,2.1-3.8,1.6c-1.2-0.3-2.4-0.3-3.6-0.6c-0.7-0.2-1.4-0.4-1.9-0.8
				c-1.7-1.1-3.3-2.4-5-3.5c-0.7-0.4-1.6-0.7-2.4-0.7c-2.8,0-5.5,0-8.2,0.4c-3,0.5-5.1-0.4-6.9-2.8c-1.1-1.5-1.6-2.8-0.8-4.5
				c0.3-0.7,0.3-1.2-0.6-1.7c-0.9-0.5-1.4-1.5-2.3-2.5c1.7,0,2.8,0.1,3.8,0c4.6-0.6,9.3-1.4,13.9-2c2.3-0.3,2.4-0.7,1-2.5
				c-1-1.3-2.1-2.4-3.2-3.8c4.4-0.7,4.4-0.7,8.1,1.2c0.6,0.3,1.2,0.4,1.9,0.4c2.7,0.1,4.9-0.6,6.3-3.2c0.4-0.7,1.1-1.3,1.5-2
				c0.5-0.8,0.8-1.7,1.3-2.7c-2.3-0.4-3.6-1.7-4.6-3.4c-2.3-4-4.7-8-7.1-11.9c-0.4-0.7-1.2-1.3-1.9-1.7c-2.8-1.6-5.8-2.9-8.4-4.7
				c-2.3-1.6-4.5-2.7-7.3-3c-3.1-0.3-5.3-2.8-5.3-6.1c0-2.5,0.6-4.7,1.6-7c1.5-3.7,2.8-7.5,4-11.3c0.6-2-1.3-3.9-3.3-3.3
				c-1.5,0.4-3,1.1-4.5,1.6c-1.4,0.5-3.1,1.2-4.3,0c-1.7-1.6-3-3.5-4.5-5.3c0.7-0.6,1.4-1.1,2-1.7c1.1-1,1.7-2.1,0.7-3.6
				c-0.2-0.2-0.2-0.9,0-1.1c1-1.2,1.9-2.4,3.1-3.4c2.1-1.8,4.3-3.5,6.6-5c2.8-1.9,4.9-4.3,6.3-7.4c1.1-2.3,0.1-4.3-2.4-4.5
				c-0.8-0.1-1.6,0.1-2.5,0.2c-1.8,0.1-3.6,0-4.9-1.7c-3.3-4-8-4.4-12.8-5.2c0.3,0.6,0.5,0.9,0.7,1.2c0.2,0.4,0.3,0.7,0.5,1.1
				c-2.9,0.8-3.1,0.6-3.7-2.1c-0.1-0.4-0.3-0.8-0.5-1.2c-0.5-1.4-1-2.7-1.5-4.1C48.1,131.6,47.6,130.3,47,128.9z"/>
		</defs>
		<clipPath id="SVGID_2_">
			<use xlink:href="#SVGID_1_"  style="overflow:visible;"/>
		</clipPath>
		<path class="st0" d="M42.7,93.4h350.7V336H42.7V93.4z"/>
		<path class="st1" d="M42.7,93.4h350.7v116.9H42.7V93.4z"/>
		<path class="st2" d="M42.7,27.7h350.7v124.2H42.7V27.7z"/>
		<g transform="matrix(.39140688 0 0 .39140688 60 60)" class="st3">
			<path class="st4" d="M125.4,171.4c34.6-15.3,74-15.3,108.7,0c5.7,80.2-12.4,125.7-54.3,136.4
				C137.8,297.2,119.7,251.7,125.4,171.4z"/>
			<path id="a" class="st5" d="M179.7,185.9l1.6,3.7l4.1-0.4l-2.4,3.3l2.4,3.3l-4.1-0.4l-1.6,3.7l-1.6-3.7l-4.1,0.4l2.4-3.3
				l-2.4-3.3l4.1,0.4"/>
			<g>
				<path id="a_1_" class="st5" d="M164.4,165.4l1.6,3.7l4.1-0.4l-2.4,3.3l2.4,3.3l-4.1-0.4l-1.6,3.7l-1.6-3.7l-4.1,0.4l2.4-3.3
					l-2.4-3.3l4.1,0.4"/>
			</g>
			<g>
				<path id="a_2_" class="st5" d="M195.1,165.4l1.6,3.7l4.1-0.4l-2.4,3.3l2.4,3.3l-4.1-0.4l-1.6,3.7l-1.6-3.7l-4.1,0.4l2.4-3.3
					l-2.4-3.3l4.1,0.4"/>
			</g>
			<path class="st6" d="M179.7,207.1l13.2,26.3l8.8-11.7l21.9,29.2c0,1.4-0.2,2.7-0.6,4c-6.1,21.3-22.3,38.4-43.3,45.5
				c-21-7.2-37.2-24.2-43.3-45.5c-0.4-1.3-0.6-2.7-0.6-4l21.9-29.2l8.8,11.7L179.7,207.1z"/>
			<path id="b" class="st4" d="M136.4,254.9c2.2,7.8,10.3,12.3,18.1,10c1.2-0.3,2.3-0.8,3.3-1.4c4.5-2.6,10.1-2.6,14.6,0
				c4.5,2.6,10.1,2.6,14.6,0c4.5-2.6,10.1-2.6,14.6,0c7,4,15.9,1.6,20-5.3c0.6-1,1.1-2.1,1.4-3.3l0.6,0.2v10.7c-2.6,0-5.1,0.7-7.3,2
				c-4.5,2.6-10.1,2.6-14.6,0c-4.5-2.6-10.1-2.6-14.6,0c-4.5,2.6-10.1,2.6-14.6,0c-4.5-2.6-10.1-2.6-14.6,0
				c-4.5,2.6-10.1,2.6-14.6,0c-2.2-1.3-4.7-2-7.3-2v-10.7"/>
			<g>
				<path id="b_1_" class="st4" d="M136.4,263.3c2.2,7.8,10.3,12.3,18.1,10c1.2-0.3,2.3-0.8,3.3-1.4c4.5-2.6,10.1-2.6,14.6,0
					c4.5,2.6,10.1,2.6,14.6,0c4.5-2.6,10.1-2.6,14.6,0c7,4,15.9,1.6,20-5.3c0.6-1,1.1-2.1,1.4-3.3l0.6,0.2v10.7
					c-2.6,0-5.1,0.7-7.3,2c-4.5,2.6-10.1,2.6-14.6,0c-4.5-2.6-10.1-2.6-14.6,0c-4.5,2.6-10.1,2.6-14.6,0c-4.5-2.6-10.1-2.6-14.6,0
					c-4.5,2.6-10.1,2.6-14.6,0c-2.2-1.3-4.7-2-7.3-2v-10.7"/>
			</g>
			<path class="st7" d="M121.3,173.3c1.4-0.7,2.7-1.3,4.1-1.9l4.3,69.3c1.9,29.6,21.7,55.1,50,64.1c28.3-9,48.1-34.5,50-64.1
				l4.3-69.3c1.4,0.6,2.8,1.2,4.1,1.9l-4.2,67.7c-2,31.9-23.6,59.1-54.2,68.3c-30.6-9.2-52.2-36.4-54.2-68.3L121.3,173.3z"/>
		</g>
	</g>
	<path class="st8" d="M47,128.9c0-0.1,0-0.2,0-0.3c2.6-1.1,4-3.4,5-5.8c0.3-0.7,0.6-1.4,0.9-2.1c0.5-1,1.2-1.8,2.4-2
		c0.8-0.1,1.6-0.7,2.3-1.2c1-0.6,2-1.5,3.1-1.9c3.3-1.5,5.7-3.8,7.6-6.8c1.8-2.9,4.4-4.2,7.8-3.8c3.1,0.3,4.2-1.6,4.7-3.7
		c0.6-2.5,0.9-5,1.3-7.7c1.5,0.3,2.8,0.6,4.1,0.9c2.4,0.5,4.6,1.4,7.1,0.9c2.2-0.5,4.6-1,6.6-0.6c2.9,0.6,5.7,1.9,8.4,3.3
		c2.6,1.3,5,1.9,7.9,1.2c2.3-0.6,4.7,0,6.3,1.8c3.6,4,7.9,5.5,13.2,5.1c6.3-0.4,12.6,1.1,18.9-0.2c0.6-0.1,1.4,0.6,2,1
		c0.7,0.5,1.1,1.3,1.8,1.8c2,1.3,4.2,1.7,6.5,0.8c1-0.4,1.6,0,2,0.8c0.7,1.2,1.3,2.6,2.1,3.7c1.1,1.5,2.6,1.3,3.3-0.5
		c0.5-1.3,0.8-2.7,1.4-4c0.7-1.5,1.3-3.2,3.3-3.2c2.1,0,3.7-0.9,5-2.4c0.4-0.5,1.2-0.6,1.8-1c0.5-0.3,1.1-0.5,1.4-1
		c0.8-1.1,1.5-2.5,2.4-3.6c0.6-0.8,1.5-1.3,2.7-0.9c2,0.7,5.6-0.9,6.4-2.9c1-2.4,1.8-5,2.9-7.4c0.8-1.8,1.7-3.6,2.8-5.2
		c0.3-0.6,1.3-1.2,1.8-1.1c2.5,0.3,4.5-0.7,6.4-2c1.1-0.8,2.1-0.6,2.9,0.6c0.4,0.6,0.9,1.2,1.5,2c0.9-1.2,1.7-2.3,2.5-3.5
		c2-3.2,5.4-3.8,8.6-3.7c5,0.1,10,1.2,15,1.2c5.5,0.1,11-0.5,16.5-0.8c1,0,2.2,0,3,0.5c1.6,0.8,3.3,1.8,4.6,3
		c2.6,2.3,7.4,0.1,7.8-3.2c0.6-4.6,4.2-5.5,7.8-4.9c2.5,0.4,4.1-0.8,4.2-3.3c0-1,0.2-2,0.3-3.1c0.8,0.4,1.4,0.8,2,0.9
		c5.2,1,10.4,2,15.4-0.9c3.3-1.9,6.8-1.4,10.1,0.4c1.9,1,3.9,2.2,6,2.7c2.5,0.5,4.7,1.1,6.1,3.4c0,0,0.2,0,0.3,0
		c0.1-2.7-0.4-5.1-3.1-6.6c-0.4-0.2-0.6-0.8-0.8-1.2c-1.3-2.8-1.1-5.7-0.8-8.6c0.2-1.6,0.8-3.4,0.5-4.9c-0.4-1.8,0.4-2.5,1.6-2.7
		c3.6-0.6,6.5-2.5,9.6-4.2c0.7-0.4,1.6-0.4,2.5-0.3c1.2,0.1,2.4,0.7,3.6,0.6c4-0.2,7.9-0.6,11.8-1.1c1.7-0.2,2.9,0.2,4,1.6
		c0.6,0.8,1.6,1.7,2.5,1.9c1.4,0.3,1.7,1,1.3,2c-0.7,1.8-1.4,3.6-2.2,5.3c-0.6,1.3-1,2.5-0.4,3.9c1,2.1,1.9,4.3,3,6.3
		c0.5,0.9,1.5,1.4,2.6,2.4c0.2,1.9,0.2,1.9,2.9,2.4c1.2,0.2,2,0.8,2.4,2.1c0.4,1.5,0,2.4-1.2,3.2c-0.5,0.3-1,0.4-1.5,0.8
		c-1,0.7-1.8,1.7-0.9,2.9c0.9,1.1,1.9,2.3,3.1,3c2,1.2,3.6,2.6,4.7,4.7c1.1,2.2,2.7,4,4.7,5.5c0.5,0.4,0.9,1.2,1.1,1.9
		c0.5,1.5,0.9,3,1.3,4.5c0,0.2,0,0.4,0,0.7c-0.7-0.5-1.4-0.9-2-1.5c-1.1-0.9-2.3-1.5-3.8-1.1c-1.5,0.4-2.6-0.2-3.6-1.3
		c-0.6-0.7-1.4-1.5-2.3-1.7c-1.5-0.4-3.2,0.4-4.6-0.9c0,0-0.3,0.1-0.4,0.1c-0.5,0-0.9,0-1.4,0.1c-2.1,1.4-4.4,2.6-6.8,3.7
		c-2.8,1.3-5.7,4.3-4.3,8.1c0.3,0.7,0.5,1.5,0.6,2.2c0.2,1.7,0.5,3.5,0.6,5.2c0,1.4,0.3,2.5,1.6,3.2c0.4,0.3,1,0.5,1.2,0.9
		c0.3,0.7,0.5,1.5,0.4,2.2c0,0.2-1,0.4-1.5,0.5c-0.9,0.2-1.8,0.1-2.6,0.4c-3.1,1.1-5.7,0.3-7.9-2.1c-2.1-2.2-2.9-2.1-4.7,0.3
		c-1,1.3-2.2,1.8-3.7,1.3c-0.8-0.2-1.7-0.3-2.6-0.5c0,1.6,0,2.9,0,4.3c0,1.1,0.1,2.4-0.3,3.4c-1.3,3.5-4.5,5-7.8,5.7
		c-2.7,0.6-5.2,1.5-7.4,2.9c-1.8,1.2-3.7,1.7-5.9,1.6c-3.8-0.1-6.7,1.3-8.4,4.9c-0.8,1.7-2.2,2.5-4.2,2.2c-2-0.2-4-0.2-5.9-0.5
		c-2.2-0.3-3.9,0.5-4.9,2.3c-1.4,2.5-2.8,5.1-3.8,7.8c-1.4,3.7-0.5,7,2,9.9c1.5,1.7,3.4,2.8,5.4,3.6c3,1.3,3.7,3.5,2,6.2
		c-0.3,0.4-0.5,0.9-0.6,1.3c-0.2,2.3-0.5,4.6-0.4,6.9c0.1,3.2,0.2,6.3-1.3,9.2c-0.7,1.4-0.4,2.9,0.1,4.3c0.3,0.7,0.6,1.4,0.9,2.1
		c0.6,1.8,0.2,3.6-1.2,4.2c-1.6,0.7-3.3,1.5-5,1.5c-2.6,0.1-5.3-0.3-7.9-0.7c-1.5-0.2-2.6-0.1-3.6,1c-1.2,1.2-2.5,1.4-4.1,0.9
		c-2.5-0.8-3.6,0.3-3.1,2.8c0.4,2,0.2,2.4-1.8,3.1c-3.1,1-6.2,2-9.2,3.1c-2.3,0.9-4.5,1.8-6.6,3c-0.9,0.5-1.5,1.7-2,2.6
		c-0.2,0.3,0.1,0.9,0.3,1.3c0.7,1,1.5,2,2.3,2.9c0.9,0.9,1.8,1.7,2.9,2.7c0.5-0.7,0.6-1.2,0.9-1.3c0.8-0.3,2-0.8,2.3-0.4
		c1.8,1.6,3.1,3.6,3.9,5.9c-0.2,0.1-0.2,0.2-0.3,0.2c-3.3,0.8-7.1,0.7-8.7,4.6c-0.1,0.3-0.5,0.6-0.9,0.7c-1.2,0.4-1,1.2-0.7,2.2
		c0.6,2,1.2,4.1,1.7,6.2c0.7,3.1,1.4,6.3,4.6,8c1.1,0.6,2,1.4,3,2c-0.9,1.2-1.6,2.2-2.4,3.2c-0.8,1.1-1.8,1.7-3.1,1.6
		c-2-0.3-3.8,0.3-5.6,1c-2,0.8-4.1,1.7-6.2,2.3c-2.4,0.7-4.9,0.5-7-1.2c-2.3-1.8-4.4-3.8-6.7-5.7c-0.5-0.4-1.1-0.8-1.7-0.8
		c-2.2-0.2-4.1-0.4-6.3-1.3c-2.2-0.9-4-2-5.9-3.3c-0.4-0.3-1-0.6-1.5-0.6c-0.9-0.1-1.6,0.1-1.6,1.3c-0.2,3.9-2.3,6.2-6.1,6.8
		c-1.4,0.2-3.1-0.2-4.5-0.7c-0.6-0.2-1-1.3-1.3-2.1c-0.5-1.5-1.3-2.4-2.8-2.9c-2.4-0.9-4.7-2-7-3c-2.6-1.2-3.1-2-2.7-4.8
		c0.2-1.5-0.3-2.4-1.6-3.3c-1.7-1.1-3.5-2.4-4.9-3.9c-0.9-1-1.3-2.6-1.6-4c-0.3-1.2,0.1-2.5-0.1-3.8c-0.1-0.8-0.6-2.1-0.9-2.1
		c-0.9,0-1.8,0.4-2.6,0.9c-0.5,0.3-0.7,1.1-1,1.7c-1,1.5-1.7,3.2-2.9,4.5c-2.1,2.3-3.4,4.8-3.6,7.9c-0.2,3.2-1.5,5.9-4.4,7.7
		c-1.1,0.7-2,1.7-3.1,2.5c-1.5,1-3.1,2.3-4.8,2.8c-3.6,0.9-7.3,0.8-10.6-1c-3.8-1.9-7.2-2-10.7,0.2c-0.2,0.1-0.4,0.2-0.6,0.3
		c-4.5,2.1-8.7,1.7-12.4-1.6c-1.8-1.7-3.7-2.7-6.1-2.9c-0.7-0.1-2.1,0.1-2.1,0.4c-0.2,1-0.2,2.1,0.1,3.1c0.3,0.8,1.1,1.4,1.9,2.4
		c-1.1,0.8-2.1,1.7-3.2,2.2c-1.8,0.9-3.9,1.4-5,3.3c-0.9,1.6-2,2.1-3.8,1.6c-1.2-0.3-2.4-0.3-3.6-0.6c-0.7-0.2-1.4-0.4-1.9-0.8
		c-1.7-1.1-3.3-2.4-5-3.5c-0.7-0.4-1.6-0.7-2.4-0.7c-2.8,0-5.5,0-8.2,0.4c-3,0.5-5.1-0.4-6.9-2.8c-1.1-1.5-1.6-2.8-0.8-4.5
		c0.3-0.7,0.3-1.2-0.6-1.7c-0.9-0.5-1.4-1.5-2.3-2.5c1.7,0,2.8,0.1,3.8,0c4.6-0.6,9.3-1.4,13.9-2c2.3-0.3,2.4-0.7,1-2.5
		c-1-1.3-2.1-2.4-3.2-3.8c4.4-0.7,4.4-0.7,8.1,1.2c0.6,0.3,1.2,0.4,1.9,0.4c2.7,0.1,4.9-0.6,6.3-3.2c0.4-0.7,1.1-1.3,1.5-2
		c0.5-0.8,0.8-1.7,1.3-2.7c-2.3-0.4-3.6-1.7-4.6-3.4c-2.3-4-4.7-8-7.1-11.9c-0.4-0.7-1.2-1.3-1.9-1.7c-2.8-1.6-5.8-2.9-8.4-4.7
		c-2.3-1.6-4.5-2.7-7.3-3c-3.1-0.3-5.3-2.8-5.3-6.1c0-2.5,0.6-4.7,1.6-7c1.5-3.7,2.8-7.5,4-11.3c0.6-2-1.3-3.9-3.3-3.3
		c-1.5,0.4-3,1.1-4.5,1.6c-1.4,0.5-3.1,1.2-4.3,0c-1.7-1.6-3-3.5-4.5-5.3c0.7-0.6,1.4-1.1,2-1.7c1.1-1,1.7-2.1,0.7-3.6
		c-0.2-0.2-0.2-0.9,0-1.1c1-1.2,1.9-2.4,3.1-3.4c2.1-1.8,4.3-3.5,6.6-5c2.8-1.9,4.9-4.3,6.3-7.4c1.1-2.3,0.1-4.3-2.4-4.5
		c-0.8-0.1-1.6,0.1-2.5,0.2c-1.8,0.1-3.6,0-4.9-1.7c-3.3-4-8-4.4-12.8-5.2c0.3,0.6,0.5,0.9,0.7,1.2c0.2,0.4,0.3,0.7,0.5,1.1
		c-2.9,0.8-3.1,0.6-3.7-2.1c-0.1-0.4-0.3-0.8-0.5-1.2c-0.5-1.4-1-2.7-1.5-4.1C48.1,131.6,47.6,130.3,47,128.9z"/>
</g>
<path class="st9" d="M329.8,207.5c7.2,7,7.3,18.5,0.3,25.7l0,0l-0.3,0.3c-7.2,7.2-18.9,7.3-26.1,0.1c-7.2-7.2-7.3-18.9-0.1-26.1
	c7.2-7.2,18.9-7.3,26.1-0.1L329.8,207.5z M323.8,227.5c1.9-1.8,2.9-4.4,2.9-7c0.1-2.6-1-5.1-2.9-6.9c-1.9-1.9-4.4-2.9-7.1-2.8
	c-5.3-0.1-9.7,4.2-9.8,9.5v0.2c0,2.6,1,5.1,2.8,7c1.8,1.9,4.3,2.9,6.9,2.9C319.3,230.5,321.9,229.4,323.8,227.5z M366,209.8
	l-47.7,74.1c-0.8,1.5-2.4,2.5-4.1,2.4c-2.7-0.1-4.9-2.3-5-5c0.1-1,0.4-2,0.9-2.9l47.8-74.2c0.8-1.5,2.4-2.5,4.1-2.4
	c1.4,0,2.7,0.5,3.6,1.5c1,0.9,1.5,2.3,1.4,3.6C366.9,207.9,366.6,208.9,366,209.8L366,209.8z M346.2,280.9c-7.2-7.2-7.2-18.8,0-26
	l0.1-0.1c3.4-3.4,8.1-5.3,12.9-5.4c10.2-0.1,18.4,8.1,18.5,18.3c0.1,10.2-8.1,18.4-18.3,18.5C354.5,286.4,349.7,284.4,346.2,280.9z
	 M352.2,260.9c-3.9,3.7-4,9.8-0.3,13.7l0.1,0.1l0.2,0.2c3.8,3.8,9.9,3.9,13.7,0.1c2-1.9,3-4.6,2.9-7.4c-0.2-5.2-4.4-9.4-9.6-9.6
	C356.6,258,354.1,259.1,352.2,260.9L352.2,260.9z"/>
<g>
	
		<ellipse transform="matrix(0.6003 -0.7998 0.7998 0.6003 -153.5367 116.6012)" class="st10" cx="39.9" cy="211.9" rx="19.2" ry="35"/>
	
		<ellipse transform="matrix(0.6165 -0.7874 0.7874 0.6165 -148.5381 113.3478)" class="st11" cx="42.1" cy="209.1" rx="17" ry="35"/>
	
		<ellipse transform="matrix(0.6165 -0.7874 0.7874 0.6165 -148.5381 113.3478)" class="st12" cx="42.1" cy="209.1" rx="13.6" ry="28"/>
	<path class="st10" d="M32.6,207.2c-0.4,1.8,1.8,4.6,4.6,6.4c1.8,1.1,3.6,1.5,4.7,1.1l0.6-0.2l0.7,0.7c0.7,0.7,1.6,1.4,2.5,1.9
		c2.9,1.8,5.5,1.7,5.8-0.1l0.1-0.6l3,1.9c0.6,0.4,1.2,0.4,1.3,0c0.1-0.4-0.4-1-1-1.4l-3-1.9l0.5-2.4l3,1.9c0.6,0.4,1.2,0.4,1.2,0
		c-0.1-0.6-0.5-1.1-1-1.4l-3-1.9l0.4-1.9c0.1-0.4-0.4-1-1-1.4c-0.6-0.4-1.2-0.4-1.2,0l-0.4,1.9l-14.2-8.5l0.4-1.9
		c0.1-0.4-0.4-1-1-1.4c-0.6-0.4-1.2-0.4-1.2,0l-0.4,1.9l-3-1.9c-0.6-0.4-1.2-0.4-1.3,0c-0.1,0.4,0.4,1,1,1.4l3,1.9l-0.5,2.5l-3-1.9
		c-0.6-0.4-1.2-0.4-1.2,0c0.1,0.6,0.5,1.1,1,1.4l3,1.9L32.6,207.2z M50.1,211.5l-0.8,4.4c-0.2,1-1.7,1-3.3,0.1
		c-1.7-0.9-2.9-2.7-2.7-3.7l0.8-4.4L50.1,211.5z M35.9,202.8l5.9,3.6l-1,5.7c-0.2,1-1.7,1-3.3,0.1c-1.6-0.9-2.9-2.6-2.7-3.7
		L35.9,202.8z"/>
</g>
<g>
	
		<ellipse transform="matrix(0.5509 -0.8346 0.8346 0.5509 -23.9067 67.3693)" class="st13" cx="50.6" cy="55.9" rx="38.8" ry="18.7"/>
	<ellipse transform="matrix(0.5509 -0.8346 0.8346 0.5509 -23.0499 64.6763)" class="st14" cx="48.6" cy="53.8" rx="38" ry="17.4"/>
	<ellipse transform="matrix(0.5509 -0.8346 0.8346 0.5509 -23.0499 64.6763)" class="st15" cx="48.6" cy="53.8" rx="30.4" ry="14"/>
	<path class="st16" d="M52.6,47.9l5.4-6.6c-0.8-0.5-1.4-0.8-2-1.4c-0.4-0.3-0.7,0-1.1,0.6c-1.8,2-3.5,4.2-5.3,6.3
		c-1.1,1.4-1.9,1.9-2.9,2c-1.2,0.1-1.4,0.1-2.4,2.3l1.8-0.1c-1.8,2.3-3.7,4.2-5.4,6.5l7.3,4.8c0.1,0.1,0.4,0.1,0.6-0.3
		c0.8-1,1.8-2,2.7-3l-5-3.3c1.1-1.2,2-2.3,2.9-3.5c1.1-1.5,2-2,3-2c1.2,0,1.3-0.1,2.4-2.3H52.6z"/>
</g>
<g>
	<ellipse class="st17" cx="150.1" cy="45.1" rx="32.7" ry="37.6"/>
	<ellipse class="st18" cx="146.2" cy="44" rx="31.6" ry="36.4"/>
	<ellipse class="st17" cx="146.2" cy="44" rx="25.3" ry="29.2"/>
	<path class="st18" d="M151.6,27.1c3.4,0,6,2.9,6.1,6.9c0.1,3.8-2.4,6.8-5.3,7.2c-0.4,0.1-0.9,0.1-1.3,0.1c-1.4-0.1-2.6,0.8-2.7,2.2
		v0.4c0,1.7,1,2.9,2.5,2.8c3.1-0.1,5.6,2.1,6.3,5.4c0.7,2.7-0.1,5.3-2.1,7.2c-1.6,1.8-4.2,2.2-6.3,1c-2.4-1.1-3.6-3.3-3.8-6.1
		c-0.1-1.4,0.2-2.8,0.8-3.9c0.5-1,0.3-2.3-0.6-3.1c-0.7-0.8-1.7-0.9-2.7-0.4c-0.3,0.3-0.7,0.6-0.9,1c-1.6,2.6-3.8,3.6-6.3,3
		c-2.7-0.6-4.2-2.7-4.8-5.7c-0.8-4.3,2.6-8.7,6.4-8.3c2.5,0.2,4.2,1.7,5.3,4.2c0.3,1.1,1.5,1.7,2.7,1.5c0.1,0,0.1,0,0.1-0.1
		c0.1-0.1,0.2-0.1,0.3-0.1c1.3-0.8,1.7-2.4,1-3.8c-0.6-1.2-1-2.5-1.1-3.8C145.4,30.2,148,27.1,151.6,27.1z"/>
</g>
<g>
	<path class="st19" d="M359.8,139.6c2,0.6,4.2,1.2,6.1,2l0.4,0.1c0.2,0.2,0.6,0.4,0.8,0.6l0.2,0.1c0.4,0.8,1.7,1.2,2.6,2
		c0.6,0.4,0.4,1,1.2,1c0.6,1.2,1.6,2.4,2.1,3.8c-0.1,0.1,0,0.2,0.1,0.3h0.1c0.1,0.8,0.2,1.7,0.6,2.6c0,0-0.4,0.1-0.1,0.2
		c-0.1,2.1-0.6,4.3-1.5,6.3c-1,1.2-1.8,3.3-3.2,4.6c-10.4,13.5-46.1,20.4-55.1,4.6c0.1-0.2-0.3-0.2-0.3-0.6c0-0.3,0.2-0.4-0.1-0.6
		c-1-1-0.6-3.7-0.8-4.7c0.1-0.3,0.1-0.6,0-1c0.2-0.6,0.2-1.2,0.6-1.6c0.3-1.2,0.8-2.4,1.2-3.6c0.3-0.3,0.6-0.6,0.8-1
		c1.5-2.1,3.2-3.9,5.2-5.5c0.1-0.4,0.8-0.4,0.8-1c0.1,0.1,0.2,0,0.3-0.1V148c2.2-1.5,5-3.1,7.5-4.6c0.2,0,0.6-0.1,0.6-0.3
		c4.2-1.6,8.5-3,12.9-3.9c0.6,0.1,1.2,0,1.6-0.3c1.2,0,2.6-0.1,3.8-0.4c0.2,0,0.4,0.2,0.6-0.1c1.2,0.3,2.6-0.1,3.9,0.1
		c0.3-0.3,0.8,0.2,1-0.2c0.2,0.1,0.2-0.1,0.4-0.1c0.1,0.6,0.6,0.2,0.8,0.2C356.3,139.4,358,139,359.8,139.6z M367.3,159
		c5.9-9.9-4.2-16.2-12.5-17.2c-21.3-2.2-42.4,13.1-35.8,24.4c3.2,6.3,11.7,7.3,18.2,7.5c11.3-0.8,23.5-4.6,30-14.4L367.3,159z"/>
	<path class="st20" d="M367.2,159.4c-6.5,9.9-18.8,13.6-30,14.4c-6.4-0.3-15-1.2-18.2-7.5c-0.6-3.2,0.1-6.4,1.8-9.1
		c5.4-7.3,12.8-9.9,20.3-12.2c3.7-0.2,7.9-1.4,11.7-0.6c8,0.1,18.1,5.5,14.5,14.7C367.1,158.8,366.8,159.3,367.2,159.4z
		 M343.9,151.8C344.2,151.9,344.1,151.3,343.9,151.8c-4.6,0.2-9.1,0.8-13.7,1.2l5.7,7.1c0.4-1.7,0.6-3.6,1-5.2
		C339.3,154,341.6,153,343.9,151.8z M348.5,151.2c-3.3,1-6.7,2.9-10.1,4.2c-0.3,1-0.6,2-0.6,3.1c-0.3,1.2-0.6,2.6-0.8,3.8
		c0.2,0.2,0.4-0.1,0.6,0c6.7-0.3,13.7-0.6,20.5-1.2C355.1,157.9,352,154,348.5,151.2z"/>
	<path class="st20" d="M374.7,153.6l-0.1,0.2c0,1.2,0.2,2.6,0.6,3.8c-0.2,0.6,0.1,1.2-0.2,1.7c0.1,2-1,3.9-1.7,5.9
		c-1.6,2.1-3.3,4.3-5.2,6.2c-0.1,0-0.2,0-0.2,0.1v0.1c-1.2,0.6-2.6,2.2-4,2.9c-1.2,1-3,1.2-3.8,2.4c-0.1-0.1-0.2,0-0.3,0.1v0.1
		c-0.4-0.2-0.8,0-1,0.4c-0.1,0-0.2,0-0.3,0.2c-0.4-0.2-0.8,0-1,0.4c-0.1-0.1-0.2,0-0.3,0.2c-0.1-0.1-0.2,0-0.3,0.1v0.1
		c-0.3-0.1-0.6,0-0.8,0.2l0,0c-0.6-0.1-0.6,0-0.8,0.6c-3.4,0.8-7,2-10.7,2.6c-0.8,0.1-2.6-0.1-3.3,0.6c-1.6-0.3-3.6,0.3-5.4-0.1
		c-0.4,0.3-0.8-0.2-1.2,0.1c-4.3-0.6-8.6-1.2-12.3-3.2c-1.2-0.6-2.6-1.9-3.9-2.6c0-0.6-0.6-0.8-1-1.2c-1.6-2.2-2.6-4.9-2.8-7.7
		c10,16.6,45.9,7.9,55-4.8c1.4-1.2,2.2-3.1,3.2-4.6c0.8-2,1.4-4.2,1.5-6.3c0.6,0.3,0.3,1,0.4,1.4L374.7,153.6z"/>
	<path class="st21" d="M367.3,159c3.6-9.5-7-14.5-14.5-14.7c-3.8-0.8-7.9,0.4-11.7,0.6c-8.1,2.4-15.3,5.5-20.3,12.2
		c-1,1.9-1.8,4-2.1,6.2c-0.1,1,0.6,1.8,0.2,3c-2.6-4.2-0.6-9.1,2.2-12.7c8.4-9.7,23.1-12.8,33.5-11.7
		C366.1,143.3,372.3,150.9,367.3,159z"/>
	<path class="st21" d="M367.2,159.4c-0.1,0-0.2-0.2-0.2-0.3s0.2-0.2,0.3-0.2L367.2,159.4z"/>
	<path class="st19" d="M348.6,151.2c3.4,2.8,6.4,6.6,9.8,9.8c-6.6,0.6-13.7,0.8-20.5,1.2c2.1-1.8,5.7-3.2,8.4-4.6
		C347,155.6,347.7,153.4,348.6,151.2z"/>
	<path class="st22" d="M348.6,151.2c-0.8,2.1-1.6,4.2-2.4,6.5c-2.6,1.4-6.1,2.6-8.4,4.6c-0.2-0.1-0.4,0.3-0.6,0
		c0.2-1.2,0.4-2.6,0.8-3.8c0.1-1,0.3-2.1,0.6-3.1C341.8,154.2,345.3,152.1,348.6,151.2z"/>
	<path class="st19" d="M343.9,151.9l-7,3c-0.3,1.5-0.6,3.4-1,5.2l-5.7-7.1C334.9,152.7,339.3,152.1,343.9,151.9z"/>
</g>
</svg>
