<?xml version="1.0" encoding="utf-8"?>
<!-- Generator: Adobe Illustrator 24.3.0, SVG Export Plug-In . SVG Version: 6.00 Build 0)  -->
<svg version="1.1" id="Layer_1" xmlns="http://www.w3.org/2000/svg" xmlns:xlink="http://www.w3.org/1999/xlink" x="0px" y="0px"
	 viewBox="0 0 400 300" style="enable-background:new 0 0 400 300;" xml:space="preserve">
<style type="text/css">
	.st0{fill:none;}
	.st1{fill:#F3F2EF;}
	.st2{fill:#C98017;}
	.st3{fill:#FBED60;}
	.st4{fill:#FABA31;}
	.st5{fill:#68C2EE;}
	.st6{fill:#0491BE;}
	.st7{fill:#68C2EF;}
	.st8{fill:#31798F;}
	.st9{fill:#C1BDBE;}
	.st10{fill:#6E6E6E;}
	.st11{fill:#6C6C6C;}
	.st12{fill:#BCBCBC;}
	.st13{fill:#E1E1E1;}
	.st14{fill:#0A0A09;}
	.st15{clip-path:url(#SVGID_2_);}
	.st16{fill:#006AA7;}
	.st17{fill:#FDCC00;}
	.st18{fill:none;stroke:#000000;stroke-miterlimit:10;}
</style>
<rect y="16.6" class="st0" width="400" height="300"/>
<path class="st1" d="M75.2,50.7c7.2,7,7.3,18.5,0.3,25.7l0,0l-0.3,0.3C68,83.9,56.3,84,49.1,76.8c-7.2-7.2-7.3-18.9-0.1-26.1
	c7.2-7.2,18.9-7.3,26.1-0.1L75.2,50.7z M69.2,70.7c1.9-1.8,2.9-4.4,2.9-7c0.1-2.6-1-5.1-2.9-6.9c-1.9-1.9-4.4-2.9-7.1-2.8
	c-5.3-0.1-9.7,4.2-9.8,9.5v0.2c0,2.6,1,5.1,2.8,7s4.3,2.9,6.9,2.9C64.7,73.7,67.3,72.6,69.2,70.7z M111.4,53l-47.7,74.1
	c-0.8,1.5-2.4,2.5-4.1,2.4c-2.7-0.1-4.9-2.3-5-5c0.1-1,0.4-2,0.9-2.9l47.8-74.2c0.8-1.5,2.4-2.5,4.1-2.4c1.4,0,2.7,0.5,3.6,1.5
	c1,0.9,1.5,2.3,1.4,3.6C112.3,51.1,112,52.1,111.4,53L111.4,53z M91.6,124.1c-7.2-7.2-7.2-18.8,0-26l0.1-0.1
	c3.4-3.4,8.1-5.3,12.9-5.4c10.2-0.1,18.4,8.1,18.5,18.3s-8.1,18.4-18.3,18.5C99.9,129.6,95.1,127.6,91.6,124.1z M97.6,104.1
	c-3.9,3.7-4,9.8-0.3,13.7l0.1,0.1l0.2,0.2c3.8,3.8,9.9,3.9,13.7,0.1c2-1.9,3-4.6,2.9-7.4c-0.2-5.2-4.4-9.4-9.6-9.6
	C102,101.2,99.5,102.3,97.6,104.1L97.6,104.1z"/>
<g>
	
		<ellipse transform="matrix(0.9509 -0.3096 0.3096 0.9509 -65.7197 101.305)" class="st2" cx="286.3" cy="257.7" rx="28.4" ry="15.6"/>
	<ellipse transform="matrix(0.957 -0.2902 0.2902 0.957 -61.7115 93.841)" class="st3" cx="285.5" cy="255" rx="28.4" ry="13.8"/>
	<ellipse transform="matrix(0.957 -0.2902 0.2902 0.957 -61.7115 93.841)" class="st4" cx="285.5" cy="255" rx="22.7" ry="11"/>
	<path class="st2" d="M279.8,260.5c1,1.1,3.9,0.9,6.4-0.1c1.6-0.7,2.7-1.7,2.9-2.6l0.2-0.5l0.8-0.2c0.8-0.2,1.6-0.4,2.5-0.8
		c2.6-1.1,3.7-2.9,2.6-3.9l-0.4-0.3l2.7-1.1c0.5-0.2,0.9-0.6,0.6-0.9c-0.2-0.2-0.8-0.2-1.4,0l-2.7,1.1l-1.4-1.4l2.7-1.1
		c0.5-0.2,0.9-0.6,0.6-0.8c-0.4-0.2-1-0.2-1.4,0l-2.7,1.1l-1.2-1.2c-0.2-0.2-0.8-0.2-1.4,0c-0.5,0.2-0.9,0.6-0.6,0.8l1,1.2
		l-12.3,5.5l-1-1.2c-0.2-0.2-0.8-0.2-1.4,0c-0.5,0.2-0.9,0.6-0.6,0.8l1,1.2l-2.7,1.1c-0.5,0.2-0.9,0.6-0.6,0.9
		c0.2,0.2,0.8,0.2,1.4,0l2.7-1.1l1.4,1.5l-2.7,1.1c-0.5,0.2-0.9,0.6-0.6,0.8c0.4,0.2,1,0.2,1.4,0l2.7-1.1L279.8,260.5z M290.8,250.7
		l2.5,2.6c0.5,0.6-0.1,1.6-1.4,2.2c-1.4,0.7-3.2,0.7-3.7,0.1l-2.5-2.6L290.8,250.7z M278.4,256.1l5.2-2.2l3.3,3.3
		c0.5,0.6-0.1,1.6-1.4,2.2c-1.3,0.7-3,0.7-3.7,0.1L278.4,256.1z"/>
</g>
<g>
	<ellipse transform="matrix(0.8069 -0.5907 0.5907 0.8069 20.5477 192.9418)" class="st5" cx="305.3" cy="65" rx="59.9" ry="28.9"/>
	
		<ellipse transform="matrix(0.8069 -0.5907 0.5907 0.8069 22.7527 191.1385)" class="st6" cx="303.7" cy="60.8" rx="58.7" ry="26.9"/>
	<ellipse transform="matrix(0.8069 -0.5907 0.5907 0.8069 22.7527 191.1385)" class="st7" cx="303.7" cy="60.8" rx="47" ry="21.6"/>
	<path class="st8" d="M312.7,54.7L324,48c-0.9-1.1-1.6-2-2.2-3.2c-0.4-0.6-1-0.3-2,0.4c-3.7,2-7.4,4.1-11,6.3
		c-2.4,1.4-3.8,1.8-5.3,1.3c-1.8-0.5-2.1-0.6-4.6,2l2.7,0.7c-3.9,2.4-7.6,4.2-11.3,6.5l7.9,10.9c0.2,0.1,0.4,0.3,1-0.1
		c1.8-0.9,3.6-1.9,5.7-2.9l-5.5-7.5c2.2-1.1,4.1-2.2,6.1-3.4c2.4-1.6,4-1.9,5.4-1.4c1.8,0.6,1.9,0.4,4.6-2L312.7,54.7z"/>
</g>
<g>
	<ellipse class="st9" cx="69.3" cy="222" rx="43.4" ry="50"/>
	<ellipse class="st10" cx="64" cy="220.3" rx="41.9" ry="48.3"/>
	<ellipse class="st9" cx="64" cy="220.3" rx="33.6" ry="38.7"/>
	<path class="st10" d="M71.3,198c4.5,0,7.9,3.8,8.1,9.2c0.2,4.9-3.1,9.1-7,9.6c-0.6,0.1-1.1,0.2-1.7,0.1c-1.8-0.2-3.4,1.1-3.6,3v0.6
		c0,2.2,1.4,3.8,3.3,3.7c4-0.2,7.4,2.7,8.4,7.2c0.9,3.4-0.2,7-2.7,9.5c-2.1,2.4-5.6,3-8.4,1.4c-3.1-1.5-4.7-4.4-4.9-8.1
		c-0.1-1.8,0.2-3.7,1-5.3c0.7-1.4,0.3-3-0.7-4.1c-0.9-1-2.3-1.1-3.4-0.6c-0.5,0.3-0.9,0.7-1.1,1.3c-2.1,3.4-4.9,4.8-8.4,3.9
		c-3.4-0.8-5.6-3.4-6.4-7.6c-1.1-5.7,3.4-11.6,8.5-11.1c3.3,0.2,5.6,2.2,7.1,5.6c0.5,1.5,2.1,2.3,3.4,1.9c0.1,0,0.1,0,0.2-0.1
		c0.2-0.1,0.2-0.1,0.5-0.2c1.6-1,2.3-3.2,1.4-4.9c-0.8-1.6-1.4-3.3-1.5-5C63,202.2,66.5,198.1,71.3,198z"/>
</g>
<g>
	<path class="st11" d="M362.9,146.5c1.6,2.4,3.1,5,4.3,7.7l0.4,0.5c0,0.3,0.1,1,0.4,1.4l0.1,0.3c-0.4,1.3,0.6,2.8,0.8,4.5
		c0.1,1-0.4,1.4,0.3,2.3c-0.5,1.7-0.6,4-1.3,5.9c-0.2,0-0.2,0.2-0.2,0.4l0.1,0.1c-0.7,1-1.4,1.9-1.8,3.1c0,0-0.5-0.3-0.3,0.1
		c-2.1,2.1-4.6,3.8-7.3,5c-2.3,0.3-4.9,1.7-7.5,1.7c-23.1,4.1-65.9-21.7-60.6-46.2c0.3-0.1-0.2-0.5,0.1-0.9c0.3-0.4,0.6-0.3,0.4-0.6
		c-0.1-1.9,2.9-4.3,3.4-5.6c0.4-0.3,0.7-0.6,0.9-1c0.7-0.4,1.3-1,2.1-1.1c1.5-1,3-1.8,4.6-2.5c0.7,0,1.1-0.1,1.7-0.4
		c3.5-0.8,6.9-1.1,10.4-0.9c0.5-0.4,1.3,0.4,1.6-0.3c0,0.2,0.2,0.2,0.4,0.2l0.1-0.1c3.7,0.5,7.9,1.5,11.8,2.2c0.2,0.2,0.6,0.4,1,0.2
		c5.7,2.1,11.4,4.8,16.8,7.8c0.5,0.6,1.2,1.1,2,1.1c1.3,1.2,2.7,2.3,4.3,3.1c0.2,0.2,0.3,0.6,0.6,0.4c0.9,1.4,2.8,2.4,3.9,3.7
		c0.7,0,0.6,0.8,1.3,0.8c0.1,0.3,0.3,0.1,0.5,0.3c-0.4,0.6,0.4,0.7,0.8,1C359.4,143.1,361.5,144.1,362.9,146.5z M352.7,173.3
		c15.3-4.6,10.7-20.4,2.9-29c-19.7-21.9-55.4-25.7-59-8c-2.5,9.4,5.3,18.2,11.7,24.4c12.2,9.6,28.3,17,43.9,12.9L352.7,173.3z"/>
	<path class="st12" d="M352.2,173.6c-15.8,4.1-31.7-3.4-43.9-12.9c-6.2-6.2-14.2-15.1-11.7-24.4c2.4-3.8,5.9-6.4,10.2-7.7
		c12.3-2.4,22.2,1.6,32.1,6.2c4,3.3,9.3,5.9,12.6,10.1c8.1,7.4,13.4,22.3,1.3,28.4C352.7,172.9,351.9,173.1,352.2,173.6z
		 M335.3,144.4C335.6,144.8,336,144.1,335.3,144.4c-4.8-4-9.9-7.6-15.1-11.4l-0.7,12.6c2-1.3,3.9-3.1,5.8-4.4
		C328.6,142.4,331.8,143.4,335.3,144.4z M340.5,147.9c-4.3-2-9.5-3.2-14.1-5.1c-1.3,0.7-2.4,1.6-3.4,2.5c-1.5,1-2.9,2.2-4.3,3.3
		c0,0.3,0.5,0.3,0.6,0.6c7.2,5.8,14.5,12.1,22.1,17.8C341.1,160.9,341.6,154.1,340.5,147.9z"/>
	<path class="st12" d="M365.1,174.5l-0.3,0.1c-1.2,1.3-2.2,2.8-2.9,4.5c-0.7,0.4-1,1.3-1.7,1.6c-1.8,2.2-4.7,3-7.3,4.6
		c-3.6,0.7-7.3,1.3-11,1.5c-0.1-0.1-0.2-0.2-0.3-0.1l-0.1,0.1c-1.9-0.5-4.7-0.1-6.8-0.8c-2.2-0.1-4.2-1.4-6.2-1.1
		c0-0.2-0.2-0.2-0.4-0.2l-0.1,0.1c-0.3-0.6-0.9-0.8-1.5-0.5c-0.1-0.1-0.2-0.2-0.5-0.1c-0.3-0.6-0.9-0.8-1.5-0.5
		c0-0.2-0.2-0.2-0.5-0.1c0-0.2-0.2-0.2-0.4-0.2l-0.1,0.1c-0.3-0.4-0.5-0.5-0.9-0.5l0,0c-0.5-0.6-0.6-0.6-1.4-0.3
		c-4.1-2.4-9-4.3-13.4-7.1c-1-0.7-2.7-2.6-3.9-2.5c-1.3-1.8-4-2.9-5.5-5.1c-0.8,0-0.8-1-1.3-1c-3.9-4.5-7.7-9.1-9.7-14.7
		c-0.7-1.8-0.9-4.3-1.6-6.3c0.5-0.5,0.1-1.2,0.1-2.3c0.4-3.8,1.9-7.4,4.2-10.4c-5.1,26.2,39.7,50.3,60.7,45.7c2.4,0,5.1-1.1,7.5-1.7
		c2.8-1.3,5.2-3,7.3-5c0.2,0.9-0.5,1.3-0.8,1.8L365.1,174.5z"/>
	<path class="st13" d="M352.7,173.3c12.5-6.5,6.2-21.3-1.3-28.4c-3.3-4.3-8.5-6.8-12.6-10.1c-10.4-5-20.8-8.4-32.1-6.2
		c-2.8,0.9-5.5,2.5-7.9,4.3c-1.1,1-1.1,2.3-2.5,3.2c1-6.7,7.7-9.8,14-10.9c17.5-2.1,35.4,8.2,45.1,18.9
		C365.9,156.2,365.2,169.7,352.7,173.3z"/>
	<path class="st13" d="M352.2,173.6c-0.1-0.1,0-0.3,0.1-0.5c0.2-0.2,0.3,0,0.5,0.1L352.2,173.6z"/>
	<path class="st11" d="M340.7,148.1c0.9,6,0.4,12.6,1,19c-7.4-5.5-14.8-11.7-22.1-17.8c3.8,0.1,8.8,2,12.8,3.1
		C335.1,151,337.7,149.6,340.7,148.1z"/>
	<path class="st14" d="M340.7,148.1c-2.7,1.5-5.4,2.7-8.4,4.5c-4-1.1-8.7-2.9-12.8-3.1c-0.1-0.3-0.8,0-0.6-0.6
		c1.3-1.1,2.8-2.2,4.3-3.3c1.1-1,2.3-1.9,3.4-2.5C331,144.9,336.5,146,340.7,148.1z"/>
	<path class="st11" d="M335.2,144.5l-9.9-3.4c-1.8,1.2-3.7,3-5.8,4.4l0.7-12.6C325.3,136.9,330.4,140.4,335.2,144.5z"/>
</g>
<g>
	<g>
		<defs>
			<path id="SVGID_1_" d="M143.3,246.7c-0.7-0.2-1.8,0.4-2.5-1c-0.2-1.6,0.5-3.3,0.9-5.1c0.3-1.5,1-2.9,1.3-4.4
				c0.1-0.6,0.4-1.5-0.6-2c-0.9-0.5-1.8-0.3-2.7,0.3c-0.8,0.6-1.6,0.6-2.6,0.5c-1.6-1.8-1.7-4.1-1.2-6c0.5-2,0.2-3.9,0.4-5.4
				c-0.5-1.8-1.9-2.8-1.6-4.5c0.7,0.1,0.9,0.7,1.3,1c0.6,0,1.2,0.1,1.9,0.1c0.2,1-0.4,2.4,1.4,2.8c1.4-1,1.6-2.7,2-4.2
				c0.3-1.3-0.3-2.9,0.6-4.2c-0.9-1.7-0.1-3.6-0.7-5.2c-0.3-0.9-0.1-1.8-0.4-2.6c0.7-0.7,1.1-1.5,2.2-1.6c0-1.2,0-2.4,0-3.4
				c0.9-1.1,2.1-1.4,3.2-2c1.6-0.8,2.4-1.9,2.4-3.7c0-2.2,0.3-4.5-0.1-6.6c-0.4-1.9-0.6-3.9-1.4-5.8c-0.8-1.8-1.8-3.5-2.8-5.2
				c-1-1.6-0.9-2,0.9-2.6c0.8-0.3,1.6-0.8,2.6-0.5c0.4-0.5,0.8-1,1.5-1.8c0.1-0.3-0.5-1.2,0.4-1.8c0.2-1.9-0.3-3.7-1.1-5.3
				c-0.8-1.6-2.2-2.6-4.2-2.8c-2.3-0.3-3.3-2.1-2.7-4.4c0.5-1.9,0.9-3.7,2.4-5.1c-0.1-1,0.8-1.7,0.7-2.8c-0.1-0.9,0-1.8,0-2.9
				c-1.4-0.8-1.3-2.7-2.7-3.8c0-1.5-0.5-3.3,0.1-4.5c0.6-1.4-0.3-3,0.9-4.1c0-1.8,0-3.7,0-5.4c-0.6-0.3-1-0.2-1.4-0.1
				c-1.4,1.8-0.4,4-1,6.2c-0.9-1.7-1.5-3.2-0.5-4.8c0.4-3.9,2.8-7.2,3.4-11.1c1.1-1.5,1.5-3.7,3.4-4.7c0.5-0.2,0.8-0.8,1.3-1.3
				c1.2,0.4,2.2-0.6,3.5-0.6c1.2,0.1,2.4,0,3.6,0c0.4,0,0.7,0,1-0.3c0.2-0.2,0.6-0.3,1.1-0.5c-0.3-1.7,0.1-3.4-0.5-5.2
				c-0.6-2-1.5-3-3.4-3.6c0-1,0-1.9,0-2.8c1.7-3.7,4-6.9,5.1-10.8c0.4-1.5,1-3,1-4.6c0-1.8,0-3.7,0-5.5c0-1.4,0-2.8,0-4.2
				c-1.3-0.9-0.1-2.4-1-3.5c-0.5-0.5-0.1-1.8-0.1-2.6c1.9-1.4,1.9-1.4,5-1.4c0.9-0.4,1.7-0.9,2.6-1.3c0.2-0.5,0.4-1,0.7-1.6
				c-0.8-0.7-1.6-1.5-2.3-2.1c0.1-2.3,0.7-4,2-5.6c1.6-2,3.2-3.9,4.1-6.3c0-0.4,0-0.7,0-1.1c0.2-2.5-0.2-4.7-1.6-6.8
				c-0.7-0.9-0.8-2.1-0.5-3.3c1-0.5,2-1,3.2-1.5c1.1-3.4,1.1-7.2,2.5-10.8c1.5-0.2,3-0.3,4.2,0.8c0.6,0.5,1.2,0.1,1.9,0.3
				c0.8-1.5,1.3-3,0.4-4.7c-0.3-0.6-0.2-1.4-0.1-2.2c0.1-0.8-0.7-1.2-0.6-2c0.1-1.2,0.8-1.9,1.2-2.7c4.2-0.8,7.7,0.6,10.9,2.6
				c1.7-0.2,2.5-1.5,3.5-2.5c0-0.4,0-0.7,0-1.1c-0.6-1.2-2.4-1.6-2.2-3.4c0.5-0.5,1.2-1,1.7-1.4c0-1.4,0-2.5,0-3.2
				c-0.5-1.6-1.4-2.4-2.2-3.1c-0.1-0.8,0.5-0.9,0.7-1.4c1.1,0,2,0,3.1,0.4c1.2,0.4,1.8,0.9,2.3,1.9c1,1.8,2.4,3.1,4.1,4.4
				c2.6,2,5.5,3.3,8.1,5.2c1.3,0.9,3,0.9,4.7,0.8c0.3,0.7,0.6,1.4,1,2.2c0.6,0,1.2,0,1.6,0c0.5,0.3,0.2,0.7,0.4,0.8
				c0.7,0.8,1.4,1.5,2.2,2.2c0,0.9,0.1,1.8,0,2.7c-0.2,1.5,0.2,2.9,0.8,4.1c0.6,1.2,0.3,2-0.2,3c0.3,0.7,0.8,1,1.7,1.1
				c1.8,0.1,2.1,1,1.2,2.4c-0.9,1.2-1.8,2.4-0.6,4c0.2,0.2,0.1,0.6,0.6,0.7c1,0.3,1.5,1.3,2.2,1.9c0.9,0.7,1.1,1.7,1.1,2.9
				c0,2.4,0.1,4.8,0,7.2c-0.1,2.4,1.1,4.2,2.3,6c1.2,1.8,2.6,3.5,3.9,5.2c-0.8,0.7-1.4,1.3-2.5,2.4c-1.3,0.5-3.2-0.8-4.4-0.7
				c-2.3,0.7-0.5,2.9-2.7,3.3c-1.4-0.3-2.7-2.1-4.8-1.5c0.1,0.7-0.3,1.5,0.3,2.3c0.4,0.5,0.3,1.4-0.1,2.2c-1-0.9-2.1-0.8-3.4-0.7
				c-0.4,0.3-0.1,0.8-0.2,1.2c0.8,0.7,1.8,0.8,2.8,1.1c0,0.4,0,0.8,0,1.2c-0.3,0.5-0.8,0.3-1.3,0.3c-0.5,0-0.9,0-1,0.2
				c0,0.9,0.4,0.9,0.8,0.9c0.3,0,0.5,0.1,0.8,0.1c0,0.3,0,0.6,0.1,0.8c-2,0.4-4,0.6-5.6,2.1c0.4,0.3,0.7,0.7,1.1,0.8
				c0.5,0.1,1.2,0,1.4,0.6c0.3,0.7,1.1,1.3,0.8,2.1c-0.5,1.3-0.3,2.7-1.2,3.9c-1.3,1.6-1.8,3.6-1.4,6c0.9,0.6,1.5,1.9,2.9,2.4
				c0.7,0.3,1.6,3.5,1.3,4.2c-1.1,2.8-2.3,5.5-3.7,8.4c0.3,1.6-0.5,3.3-0.7,4.8c-0.4,1.2-1.4,0.5-2,1c0,0.6,0,1.2,0,2
				c-2.8-0.3-3.5,1.9-4.5,3.8c-0.8-0.4-1.5-0.7-2.2-1.1c-0.7,0.2-0.4,1.2-1,1.4c0.7,0.4,0.5,1.3,1.3,1.9c-1.1,0-2,0-2.9,0
				c0,1.6,0,2.9,0,4.2c-0.5,0.5-1,0.2-1.4,0.3c-0.6,0.4,0,1.1-0.5,1.6c-0.7,0-1.5,0-2.2,0c-0.4,0.4-0.6,0.6-0.9,0.9
				c0,0.7,0,1.5,0,2.2c-0.6,0.6-1.4,0-2.1,0.4c0,0.4,0,0.8,0,1.4c0.8,0.4,1.7,0,2.5,0.2c0.4,0.6,0.1,0.9-0.2,1.3
				c-0.8,0.8-1.8,1.5-2,2.6c-1,0-1.2-0.8-1.7-1.1c-0.1,0.1-0.3,0.3-0.3,0.4c0.1,1.5-0.4,3,0.5,4.5c0.5,0.8-0.9,1.3-0.5,2.2
				c-1.8,0-3.2,1-4.9,0.6c0,1,0,1.8,0,2.6c0.2,0.2,0.5,0.5,0.7,0.7c0.7,0,1.5,0,2.2,0c0.1,0.1,0.3,0.3,0.3,0.4c0,1,0.1,1.9-0.5,2.8
				c-0.7,1.1-0.6,2.5-1,3.7c-0.4,1.2-0.4,2.6,1.2,3.6c1.1,0.7,1.2,2.3,0.8,3.6c-1.7,0.8-2-1.1-3.2-1.5c-0.3,0-0.7,0-1.1,0.1
				c0,1.1,0,2,0,3.1c1.2,0.7,1.3,2.2,2.1,3.3c0,1.4,0.1,2.9,0,4.3c-0.2,2.8,0.7,5.4,1.4,8c0.2,0.9,0,1.8,0.3,2.6
				c0.4,0.6,0.9,0.8,1.7,0.8c1.9-0.1,3.9,0,6,0c-0.1,1.1,0.8,1.9,0.6,3.1c0.9,0.1,1.3,0.8,1.9,1.3c1.4,0.4,3-0.6,4.2,0.8
				c-0.5,0.5-0.4,1.3-0.9,1.7c0,1,0,2,0,3c0.9,0.4,1.6-0.2,2.4-0.7c0.3,0.4,0.7,0.7,0.7,1c0,1.7,1.1,2.9,2,4.2
				c0.6,0.8,0.5,1.4-0.3,2.1c-0.4,0.3-1.1,0.3-1.2,1.1c-0.1,0.9-1.2,1.2-1.6,2.1c-0.5,0.9-1.5,1.1-2.4,1.5c-0.3,0.1-0.6,0.5-0.9,0.7
				c0,0.4,0,0.8,0,1.2c1.3,0.4,2.5,0.8,3.5,1.1c0.6,0.9-0.9,0.9,0.1,1.7c-1.3,0.3-2.8,0.2-2.4,2.3c0.3,0.2,0.8,0.4,1.2,0.7
				c-1.2,1.6-3.3,1.5-4,3c-0.6,1.4-1,2.8-1.6,4.6c-1.7-2-1.5-3.8-0.6-5.7c-0.3-0.1-0.5-0.2-0.9-0.3c-0.4,0.8-0.7,1.5-0.9,2.5
				c-0.4,2.4-0.8,4.9-3.1,6.4c-0.1,0-0.2,0-0.3,0c-0.2-0.1-0.4-0.3-0.7-0.4c-1.3,0.4-0.7,1.6-0.9,2.4c-1.5,1.3-3.3,0.7-5.4,1
				c1.5,0.6,2.6,0.3,3.5,0.4c1,0.7,1.1,1.7,0.6,2.6c-0.8,1.3-1.8,0.5-2.7,0c-0.3,0.4-0.6,0.7-0.9,1c0.7,1.2,2.3,1,3.2,2.2
				c0,0.4,0,1,0,1.7c-0.3,0.3-0.7,0.8-1.1,1.2c0.9,1.8,1.1,3.8,2.2,5.5c-0.5,0.9-1.9,0.6-2.2,1.9c0.1,0.7,0.8,0.9,1.1,1.5
				c0.2,1.6-1.8,2.7-1,4.5c0.3,0.3,0.7,0.7,0.9,0.9c0.4,1.1,0,2.2-0.5,2.9c-1.3,1.7-1.4,3.3,0,5c0.2,0.3,0.2,0.8,0.7,1.2
				c-1.1,0.5-1.1,1.8-1.8,2.4c0.4,1.7,1.8,2.9,1.1,4.8c-1,1.3-1.8,2.8-2.2,4.7c-0.5,2.6-0.7,5.3-2.1,7.7c-0.2,0.4-0.6,0.7-0.9,1.2
				c-0.5-0.7-1-1.3-1.4-1.8c-0.8,0-1.4,0-1.9,0c-0.3,0.6-0.4,1.5-1.2,1.6c-1,0.2-1.8-0.8-2.8-0.6c-0.9,0.1-2,0.3-2.8-0.6
				c-0.6,0.6-1.6,0.5-2.1,1.3c-0.1,0.9,1.1,1.4,0.9,2.5c-1,0-2,0-3,0c-1.1,1.3-1.5,2.8-1.9,4.3c-0.4,1.4-1.1,2.9-0.5,4.5
				c0.4,0.4,1.3,0,1.5,0.9c0,1,0,2,0,2.9c-1,1-2.2,1.1-3.4,1.3c-1,0.2-2.2-0.3-3.1,0.6c-3-0.2-5.9,1.2-9,0.4
				c-0.1-1.2,1.2-1.5,1.7-2.5c-1.6-1.6,0.3-3.5,0-5.4c-1.6-1.3-1.5-3.5-2.7-5c-1.2-1.4-2-3.2-2.9-4.8c0.7-0.8,1-0.4,1.5,0.1
				c0.2-0.2,0.5-0.5,0.8-0.7c-0.4-0.7-0.7-1.5-1.1-2.2c0.6-0.8,1.5-0.2,2.1-0.5c1-1.2,0.8-2.7,0.7-4c-1.2-1.7-2.9-2.8-4-4.5
				c-1.1-1.7-2.8-2.9-4.2-4.3c-0.5-1.1,0.4-2,0.5-3.2c-0.5-0.7-0.9-1.7-1.7-2.1c-0.9-0.5-1.4-1.4-2.2-1.9
				C142.8,251.3,144.2,249.2,143.3,246.7z"/>
		</defs>
		<clipPath id="SVGID_2_">
			<use xlink:href="#SVGID_1_"  style="overflow:visible;"/>
		</clipPath>
		<g class="st15">
			<path class="st16" d="M98.2-14.8c50.4,0,100.9,0,151.6,0c0,107.8,0,215.4,0,323.1c-50.5,0-101.1,0-151.6,0
				C98.2,200.6,98.2,92.9,98.2-14.8z"/>
			<rect x="174.9" y="-8.6" class="st17" width="15.6" height="333.1"/>
			
				<rect x="166.2" y="-62.9" transform="matrix(-1.836970e-16 1 -1 -1.836970e-16 277.6925 -70.3183)" class="st17" width="15.6" height="333.1"/>
		</g>
	</g>
	<path class="st16" d="M210,254.1c0.3,1.1-0.3,2-0.8,3c-0.1-0.1-0.3-0.3-0.3-0.4c0.4-2.7-0.5-5.3-1.3-7.8c-1.2-3.8-0.3-7,1.7-10.2
		c0.7-1.2,1.4-2.5,2.8-3.3c0.8,0,1.7,0,2.6,0c0.3,0.5,0.6,1,0.9,1.7c-0.9,0.9-0.9,2.5-2.2,3.4c0,1.1,0,2.2,0,3.5
		c0.4,0.7,1.1,1.4,2.1,1.6c0.7,1.9-1.3,1.8-2.1,2.9c0.1,1,0.2,2.5-0.7,3.2C211.8,252.6,210.9,253.3,210,254.1z"/>
	<path class="st16" d="M193.3,273.2c-0.6,0-0.9,0-1.3,0c-1.7-4.7-0.7-9,1.9-12.8c0.4-3.3,0.6-6.4,2-9.3c0.4,0,0.8,0,1.2,0
		c0.2,0.2,0.4,0.4,0.3,0.7c-0.4,1.6-1.1,3.1-1.3,4.7c0,0.2-0.4,0.3-0.4,0.7c0.4,2.1-0.5,4.1-0.6,6.1c-0.2,2.8-0.7,5.6-1.1,8.4
		C193.9,272.2,193.3,272.5,193.3,273.2z"/>
	<path class="st18" d="M143.3,246.7c-0.7-0.2-1.8,0.4-2.5-1c-0.2-1.6,0.5-3.3,0.9-5.1c0.3-1.5,1-2.9,1.3-4.4c0.1-0.6,0.4-1.5-0.6-2
		c-0.9-0.5-1.8-0.3-2.7,0.3c-0.8,0.6-1.6,0.6-2.6,0.5c-1.6-1.8-1.7-4.1-1.2-6c0.5-2,0.2-3.9,0.4-5.4c-0.5-1.8-1.9-2.8-1.6-4.5
		c0.7,0.1,0.9,0.7,1.3,1c0.6,0,1.2,0.1,1.9,0.1c0.2,1-0.4,2.4,1.4,2.8c1.4-1,1.6-2.7,2-4.2c0.3-1.3-0.3-2.9,0.6-4.2
		c-0.9-1.7-0.1-3.6-0.7-5.2c-0.3-0.9-0.1-1.8-0.4-2.6c0.7-0.7,1.1-1.5,2.2-1.6c0-1.2,0-2.4,0-3.4c0.9-1.1,2.1-1.4,3.2-2
		c1.6-0.8,2.4-1.9,2.4-3.7c0-2.2,0.3-4.5-0.1-6.6c-0.4-1.9-0.6-3.9-1.4-5.8c-0.8-1.8-1.8-3.5-2.8-5.2c-1-1.6-0.9-2,0.9-2.6
		c0.8-0.3,1.6-0.8,2.6-0.5c0.4-0.5,0.8-1,1.5-1.8c0.1-0.3-0.5-1.2,0.4-1.8c0.2-1.9-0.3-3.7-1.1-5.3c-0.8-1.6-2.2-2.6-4.2-2.8
		c-2.3-0.3-3.3-2.1-2.7-4.4c0.5-1.9,0.9-3.7,2.4-5.1c-0.1-1,0.8-1.7,0.7-2.8c-0.1-0.9,0-1.8,0-2.9c-1.4-0.8-1.3-2.7-2.7-3.8
		c0-1.5-0.5-3.3,0.1-4.5c0.6-1.4-0.3-3,0.9-4.1c0-1.8,0-3.7,0-5.4c-0.6-0.3-1-0.2-1.4-0.1c-1.4,1.8-0.4,4-1,6.2
		c-0.9-1.7-1.5-3.2-0.5-4.8c0.4-3.9,2.8-7.2,3.4-11.1c1.1-1.5,1.5-3.7,3.4-4.7c0.5-0.2,0.8-0.8,1.3-1.3c1.2,0.4,2.2-0.6,3.5-0.6
		c1.2,0.1,2.4,0,3.6,0c0.4,0,0.7,0,1-0.3c0.2-0.2,0.6-0.3,1.1-0.5c-0.3-1.7,0.1-3.4-0.5-5.2c-0.6-2-1.5-3-3.4-3.6c0-1,0-1.9,0-2.8
		c1.7-3.7,4-6.9,5.1-10.8c0.4-1.5,1-3,1-4.6c0-1.8,0-3.7,0-5.5c0-1.4,0-2.8,0-4.2c-1.3-0.9-0.1-2.4-1-3.5c-0.5-0.5-0.1-1.8-0.1-2.6
		c1.9-1.4,1.9-1.4,5-1.4c0.9-0.4,1.7-0.9,2.6-1.3c0.2-0.5,0.4-1,0.7-1.6c-0.8-0.7-1.6-1.5-2.3-2.1c0.1-2.3,0.7-4,2-5.6
		c1.6-2,3.2-3.9,4.1-6.3c0-0.4,0-0.7,0-1.1c0.2-2.5-0.2-4.7-1.6-6.8c-0.7-0.9-0.8-2.1-0.5-3.3c1-0.5,2-1,3.2-1.5
		c1.1-3.4,1.1-7.2,2.5-10.8c1.5-0.2,3-0.3,4.2,0.8c0.6,0.5,1.2,0.1,1.9,0.3c0.8-1.5,1.3-3,0.4-4.7c-0.3-0.6-0.2-1.4-0.1-2.2
		c0.1-0.8-0.7-1.2-0.6-2c0.1-1.2,0.8-1.9,1.2-2.7c4.2-0.8,7.7,0.6,10.9,2.6c1.7-0.2,2.5-1.5,3.5-2.5c0-0.4,0-0.7,0-1.1
		c-0.6-1.2-2.4-1.6-2.2-3.4c0.5-0.5,1.2-1,1.7-1.4c0-1.4,0-2.5,0-3.2c-0.5-1.6-1.4-2.4-2.2-3.1c-0.1-0.8,0.5-0.9,0.7-1.4
		c1.1,0,2,0,3.1,0.4c1.2,0.4,1.8,0.9,2.3,1.9c1,1.8,2.4,3.1,4.1,4.4c2.6,2,5.5,3.3,8.1,5.2c1.3,0.9,3,0.9,4.7,0.8
		c0.3,0.7,0.6,1.4,1,2.2c0.6,0,1.2,0,1.6,0c0.5,0.3,0.2,0.7,0.4,0.8c0.7,0.8,1.4,1.5,2.2,2.2c0,0.9,0.1,1.8,0,2.7
		c-0.2,1.5,0.2,2.9,0.8,4.1c0.6,1.2,0.3,2-0.2,3c0.3,0.7,0.8,1,1.7,1.1c1.8,0.1,2.1,1,1.2,2.4c-0.9,1.2-1.8,2.4-0.6,4
		c0.2,0.2,0.1,0.6,0.6,0.7c1,0.3,1.5,1.3,2.2,1.9c0.9,0.7,1.1,1.7,1.1,2.9c0,2.4,0.1,4.8,0,7.2c-0.1,2.4,1.1,4.2,2.3,6
		c1.2,1.8,2.6,3.5,3.9,5.2c-0.8,0.7-1.4,1.3-2.5,2.4c-1.3,0.5-3.2-0.8-4.4-0.7c-2.3,0.7-0.5,2.9-2.7,3.3c-1.4-0.3-2.7-2.1-4.8-1.5
		c0.1,0.7-0.3,1.5,0.3,2.3c0.4,0.5,0.3,1.4-0.1,2.2c-1-0.9-2.1-0.8-3.4-0.7c-0.4,0.3-0.1,0.8-0.2,1.2c0.8,0.7,1.8,0.8,2.8,1.1
		c0,0.4,0,0.8,0,1.2c-0.3,0.5-0.8,0.3-1.3,0.3c-0.5,0-0.9,0-1,0.2c0,0.9,0.4,0.9,0.8,0.9c0.3,0,0.5,0.1,0.8,0.1c0,0.3,0,0.6,0.1,0.8
		c-2,0.4-4,0.6-5.6,2.1c0.4,0.3,0.7,0.7,1.1,0.8c0.5,0.1,1.2,0,1.4,0.6c0.3,0.7,1.1,1.3,0.8,2.1c-0.5,1.3-0.3,2.7-1.2,3.9
		c-1.3,1.6-1.8,3.6-1.4,6c0.9,0.6,1.5,1.9,2.9,2.4c0.7,0.3,1.6,3.5,1.3,4.2c-1.1,2.8-2.3,5.5-3.7,8.4c0.3,1.6-0.5,3.3-0.7,4.8
		c-0.4,1.2-1.4,0.5-2,1c0,0.6,0,1.2,0,2c-2.8-0.3-3.5,1.9-4.5,3.8c-0.8-0.4-1.5-0.7-2.2-1.1c-0.7,0.2-0.4,1.2-1,1.4
		c0.7,0.4,0.5,1.3,1.3,1.9c-1.1,0-2,0-2.9,0c0,1.6,0,2.9,0,4.2c-0.5,0.5-1,0.2-1.4,0.3c-0.6,0.4,0,1.1-0.5,1.6c-0.7,0-1.5,0-2.2,0
		c-0.4,0.4-0.6,0.6-0.9,0.9c0,0.7,0,1.5,0,2.2c-0.6,0.6-1.4,0-2.1,0.4c0,0.4,0,0.8,0,1.4c0.8,0.4,1.7,0,2.5,0.2
		c0.4,0.6,0.1,0.9-0.2,1.3c-0.8,0.8-1.8,1.5-2,2.6c-1,0-1.2-0.8-1.7-1.1c-0.1,0.1-0.3,0.3-0.3,0.4c0.1,1.5-0.4,3,0.5,4.5
		c0.5,0.8-0.9,1.3-0.5,2.2c-1.8,0-3.2,1-4.9,0.6c0,1,0,1.8,0,2.6c0.2,0.2,0.5,0.5,0.7,0.7c0.7,0,1.5,0,2.2,0
		c0.1,0.1,0.3,0.3,0.3,0.4c0,1,0.1,1.9-0.5,2.8c-0.7,1.1-0.6,2.5-1,3.7c-0.4,1.2-0.4,2.6,1.2,3.6c1.1,0.7,1.2,2.3,0.8,3.6
		c-1.7,0.8-2-1.1-3.2-1.5c-0.3,0-0.7,0-1.1,0.1c0,1.1,0,2,0,3.1c1.2,0.7,1.3,2.2,2.1,3.3c0,1.4,0.1,2.9,0,4.3
		c-0.2,2.8,0.7,5.4,1.4,8c0.2,0.9,0,1.8,0.3,2.6c0.4,0.6,0.9,0.8,1.7,0.8c1.9-0.1,3.9,0,6,0c-0.1,1.1,0.8,1.9,0.6,3.1
		c0.9,0.1,1.3,0.8,1.9,1.3c1.4,0.4,3-0.6,4.2,0.8c-0.5,0.5-0.4,1.3-0.9,1.7c0,1,0,2,0,3c0.9,0.4,1.6-0.2,2.4-0.7
		c0.3,0.4,0.7,0.7,0.7,1c0,1.7,1.1,2.9,2,4.2c0.6,0.8,0.5,1.4-0.3,2.1c-0.4,0.3-1.1,0.3-1.2,1.1c-0.1,0.9-1.2,1.2-1.6,2.1
		c-0.5,0.9-1.5,1.1-2.4,1.5c-0.3,0.1-0.6,0.5-0.9,0.7c0,0.4,0,0.8,0,1.2c1.3,0.4,2.5,0.8,3.5,1.1c0.6,0.9-0.9,0.9,0.1,1.7
		c-1.3,0.3-2.8,0.2-2.4,2.3c0.3,0.2,0.8,0.4,1.2,0.7c-1.2,1.6-3.3,1.5-4,3c-0.6,1.4-1,2.8-1.6,4.6c-1.7-2-1.5-3.8-0.6-5.7
		c-0.3-0.1-0.5-0.2-0.9-0.3c-0.4,0.8-0.7,1.5-0.9,2.5c-0.4,2.4-0.8,4.9-3.1,6.4c-0.1,0-0.2,0-0.3,0c-0.2-0.1-0.4-0.3-0.7-0.4
		c-1.3,0.4-0.7,1.6-0.9,2.4c-1.5,1.3-3.3,0.7-5.4,1c1.5,0.6,2.6,0.3,3.5,0.4c1,0.7,1.1,1.7,0.6,2.6c-0.8,1.3-1.8,0.5-2.7,0
		c-0.3,0.4-0.6,0.7-0.9,1c0.7,1.2,2.3,1,3.2,2.2c0,0.4,0,1,0,1.7c-0.3,0.3-0.7,0.8-1.1,1.2c0.9,1.8,1.1,3.8,2.2,5.5
		c-0.5,0.9-1.9,0.6-2.2,1.9c0.1,0.7,0.8,0.9,1.1,1.5c0.2,1.6-1.8,2.7-1,4.5c0.3,0.3,0.7,0.7,0.9,0.9c0.4,1.1,0,2.2-0.5,2.9
		c-1.3,1.7-1.4,3.3,0,5c0.2,0.3,0.2,0.8,0.7,1.2c-1.1,0.5-1.1,1.8-1.8,2.4c0.4,1.7,1.8,2.9,1.1,4.8c-1,1.3-1.8,2.8-2.2,4.7
		c-0.5,2.6-0.7,5.3-2.1,7.7c-0.2,0.4-0.6,0.7-0.9,1.2c-0.5-0.7-1-1.3-1.4-1.8c-0.8,0-1.4,0-1.9,0c-0.3,0.6-0.4,1.5-1.2,1.6
		c-1,0.2-1.8-0.8-2.8-0.6c-0.9,0.1-2,0.3-2.8-0.6c-0.6,0.6-1.6,0.5-2.1,1.3c-0.1,0.9,1.1,1.4,0.9,2.5c-1,0-2,0-3,0
		c-1.1,1.3-1.5,2.8-1.9,4.3c-0.4,1.4-1.1,2.9-0.5,4.5c0.4,0.4,1.3,0,1.5,0.9c0,1,0,2,0,2.9c-1,1-2.2,1.1-3.4,1.3
		c-1,0.2-2.2-0.3-3.1,0.6c-3-0.2-5.9,1.2-9,0.4c-0.1-1.2,1.2-1.5,1.7-2.5c-1.6-1.6,0.3-3.5,0-5.4c-1.6-1.3-1.5-3.5-2.7-5
		c-1.2-1.4-2-3.2-2.9-4.8c0.7-0.8,1-0.4,1.5,0.1c0.2-0.2,0.5-0.5,0.8-0.7c-0.4-0.7-0.7-1.5-1.1-2.2c0.6-0.8,1.5-0.2,2.1-0.5
		c1-1.2,0.8-2.7,0.7-4c-1.2-1.7-2.9-2.8-4-4.5c-1.1-1.7-2.8-2.9-4.2-4.3c-0.5-1.1,0.4-2,0.5-3.2c-0.5-0.7-0.9-1.7-1.7-2.1
		c-0.9-0.5-1.4-1.4-2.2-1.9C142.8,251.3,144.2,249.2,143.3,246.7z"/>
	<path class="st18" d="M210,254.1c0.3,1.1-0.3,2-0.8,3c-0.1-0.1-0.3-0.3-0.3-0.4c0.4-2.7-0.5-5.3-1.3-7.8c-1.2-3.8-0.3-7,1.7-10.2
		c0.7-1.2,1.4-2.5,2.8-3.3c0.8,0,1.7,0,2.6,0c0.3,0.5,0.6,1,0.9,1.7c-0.9,0.9-0.9,2.5-2.2,3.4c0,1.1,0,2.2,0,3.5
		c0.4,0.7,1.1,1.4,2.1,1.6c0.7,1.9-1.3,1.8-2.1,2.9c0.1,1,0.2,2.5-0.7,3.2C211.8,252.6,210.9,253.3,210,254.1z"/>
	<path class="st18" d="M193.3,273.2c-0.6,0-0.9,0-1.3,0c-1.7-4.7-0.7-9,1.9-12.8c0.4-3.3,0.6-6.4,2-9.3c0.4,0,0.8,0,1.2,0
		c0.2,0.2,0.4,0.4,0.3,0.7c-0.4,1.6-1.1,3.1-1.3,4.7c0,0.2-0.4,0.3-0.4,0.7c0.4,2.1-0.5,4.1-0.6,6.1c-0.2,2.8-0.7,5.6-1.1,8.4
		C193.9,272.2,193.3,272.5,193.3,273.2z"/>
</g>
</svg>
