<?xml version="1.0" encoding="utf-8"?>
<!-- Generator: Adobe Illustrator 24.3.0, SVG Export Plug-In . SVG Version: 6.00 Build 0)  -->
<svg version="1.1" id="Layer_1" xmlns="http://www.w3.org/2000/svg" xmlns:xlink="http://www.w3.org/1999/xlink" x="0px" y="0px"
	 viewBox="0 0 400 300" style="enable-background:new 0 0 400 300;" xml:space="preserve">
<style type="text/css">
	.st0{fill:#F3F2EF;}
	.st1{clip-path:url(#SVGID_2_);}
	.st2{fill:#E20A17;}
	.st3{fill:#FEFCFC;}
	.st4{fill:#FEFBFB;}
	.st5{fill:#C98017;}
	.st6{fill:#FBED60;}
	.st7{fill:#FABA31;}
	.st8{fill:#68C2EE;}
	.st9{fill:#0491BE;}
	.st10{fill:#68C2EF;}
	.st11{fill:#31798F;}
	.st12{fill:#C1BDBE;}
	.st13{fill:#6E6E6E;}
	.st14{fill:#6C6C6C;}
	.st15{fill:#BCBCBC;}
	.st16{fill:#E1E1E1;}
	.st17{fill:#0A0A09;}
</style>
<path class="st0" d="M274.3,23.6c7.2,7,7.3,18.5,0.3,25.7l0,0l-0.3,0.3c-7.2,7.2-18.9,7.3-26.1,0.1c-7.2-7.2-7.3-18.9-0.1-26.1
	c7.2-7.2,18.9-7.3,26.1-0.1L274.3,23.6z M268.3,43.6c1.9-1.8,2.9-4.4,2.9-7c0.1-2.6-1-5.1-2.9-6.9c-1.9-1.9-4.4-2.9-7.1-2.8
	c-5.3-0.1-9.7,4.2-9.8,9.5v0.2c0,2.6,1,5.1,2.8,7s4.3,2.9,6.9,2.9C263.8,46.6,266.4,45.5,268.3,43.6z M310.5,25.9L262.8,100
	c-0.8,1.5-2.4,2.5-4.1,2.4c-2.7-0.1-4.9-2.3-5-5c0.1-1,0.4-2,0.9-2.9l47.8-74.2c0.8-1.5,2.4-2.5,4.1-2.4c1.4,0,2.7,0.5,3.6,1.5
	c1,0.9,1.5,2.3,1.4,3.6C311.4,24,311.1,25,310.5,25.9L310.5,25.9z M290.7,97c-7.2-7.2-7.2-18.8,0-26l0.1-0.1
	c3.4-3.4,8.1-5.3,12.9-5.4c10.2-0.1,18.4,8.1,18.5,18.3c0.1,10.2-8.1,18.4-18.3,18.5C299,102.5,294.2,100.5,290.7,97z M296.7,77
	c-3.9,3.7-4,9.8-0.3,13.7l0.1,0.1l0.2,0.2c3.8,3.8,9.9,3.9,13.7,0.1c2-1.9,3-4.6,2.9-7.4c-0.2-5.2-4.4-9.4-9.6-9.6
	C301.1,74.1,298.6,75.2,296.7,77L296.7,77z"/>
<g>
	<defs>
		<path id="SVGID_1_" d="M37.2,160.5c0.8,0.7,1.6,1.3,2.3,1.9c0.9-0.4,1.5-1,2.2-1.7c-1.3-1.4-2.3-2.8-2-4.7
			c0.1-0.8,0.3-1.5,1.1-1.9c0.9-0.3,1.6,0.1,2.3,0.6c1.2,1,1.6,2.4,1.6,3.9c0,1,0,2,0,3c0.8,0.4,0.5-0.7,1-0.5c0.1,0,0.3,0,0.3,0.1
			c0.8,0.7,1.6,2,2.9,1c1.2-0.9,0.4-2.1-0.1-3.1c-0.3-0.8-0.8-1.4-1.3-2.1c-1.2-1.4-1-2.5,0.8-3c1.8-0.5,3.4-1.2,4.1-3.1
			c-0.6-0.2-1.3-0.5-1.9-0.8c-0.8-0.5-1.3-1.3-0.7-2.2c0.5-0.8,1.3-1.5,0.7-2.6c-0.8-1.4-1.2-3.1-2.8-3.9c-0.3-0.2-0.6-0.4-1.2-0.6
			c3.3-1.4,5.9-3.4,8.3-5.7c-0.7-1.2-1.6-0.9-2.4-0.8c-3.4,0.2-6.8,0.5-10.2,0.7c-1.1,0.1-2.2,0.2-3.2-0.3c-0.9-0.4-1.3-1.2-0.5-2
			c1.8-1.8,2.2-4.1,2.4-6.4c0.3-2.6,1.1-4.5,3.9-5.1c0.5-0.1,1.1-0.3,1.3-0.7c1.6-2.5,4.7-3.2,6.7-5.2c0.5-0.5,1.2-1.1,1.8-1
			c3.5,0.5,6.9-1.2,10.3-0.1c0.5,0.2,0.9,0.5,1.1,1c0.9,2.7,3.1,2.6,5.3,2.7c0.9,0,1.7-0.2,2.8-0.4c-0.7-0.8-1.3-1.4-1.7-2.1
			c-0.6-1-0.2-1.8,1.1-1.7c1.9,0.3,3.7,0.6,5.5,1.2c0.2,1.6-1.5,1.4-1.9,2.4c0.4,0.5,1,0.3,1.4,0.3c4.8-0.3,9.4,0.6,14,2.1
			c1.9,0.7,3.8,0.6,5.9-0.4c-0.5-0.2-0.8-0.3-1.1-0.4c-0.4-0.1-0.8-0.1-1.1-0.2c-1.4-0.3-2.7-0.7-3.9-1.5c-1.2-0.9-1.1-1.8,0.2-2.4
			c1.6-0.7,3.4-0.8,5.2-0.9c4.1-0.4,8.2-0.9,12.3-0.4c0.5,0.1,1.1-0.1,2.1-0.2c-2-1-3.7-1.3-5.5-1c-1.3,0.2-2.7,0.1-3.9-0.5
			c-0.5-0.2-1.3-0.6-1.3-1c-0.2-2.1-2.2-2.6-3.1-4.1c-0.7-1.1-1.9-0.9-2.9-0.8c-2.9,0.4-5.5-0.4-8-1.9c-2.6-1.5-5.3-2.1-8.1-0.4
			c-0.8,0.5-1.6,0.3-2.4,0c-1-0.3-1.9-0.7-2.9-0.9c-2.8-0.5-3.5-0.2-5,2.2c-1.9,3-4.7,4.9-8.1,5.5c-4.8,0.9-8.5,3.7-12.6,6
			c-0.9,0.5-1.4,1.4-2,2.2c-0.8,1.1-1.8,2-3.7,1.9c1.8-1.9,2.8-3.9,2.8-6.2c0-0.3,0.5-0.8,0.8-1c2.3-1,4.4-2.5,7-2.7
			c0.1,0,0.3,0,0.4,0c1.1-0.3,2.9-0.2,2.5-1.8c-0.3-1.3-1.8-0.7-2.8-0.6c-2.2,0.4-4.4,0.2-6.6,0.1c-3-0.2-4-1.5-3.7-4.8
			c1.4,0.1,2.7-0.1,2.4-2c-0.1-0.4,0.6-0.5,1-0.7c2.4-1.2,4.4-2.6,3.5-5.8c-0.4-1.5,0.3-2.6,2-2.8c1.4-0.2,2.2-2,4-1.1
			c0.5-2.1,0.6-4.1,0.6-6.1c0-1.1-1-1.5-1.8-2c-1-0.6-2.1-1.1-2.4-2.7c0.9-0.5,1.9-0.5,2.9-0.7c1.4-0.2,2.8-0.5,2.5-2.5
			c-0.2-1,0.7-1.4,1.6-1.5c0.8,0,1.7,0,2.4,0.3c1.7,0.5,3.2,0.2,4.7-0.7c0.6-0.4,1.2-0.7,1.9-0.9c2.1-0.7,3.6,0,4.4,2.1
			c0.4,1.1,0.9,2,2,2.7c0.7,0.5,1.3,1.1,2.3,0.3c0.3-0.2,1-0.1,1.5,0c1.1,0.4,2.2,0.3,3.3,0c2-0.6,3.1,0.4,2.5,2.5
			c-0.5,1.9-0.6,3.7-0.1,5.6c0.5,1.9,1.5,3.5,3.1,4.6c5.2,3.8,10.6,7.2,17.1,8.4c1.9,0.4,3.6,1.2,5.3,2.1c2.5,1.2,5.1,1.9,7.9,1.8
			c1.1,0,2.1,0.1,2.8-1c0.5-0.8,1.4-0.5,2,0c2.4,2,5.4,2.7,8.2,3.9c2.6,1.2,5.3,0.9,8,0.2c1.7-0.4,2.3-1.7,2.3-3.3
			c0-0.8,0.1-1.4,1-1.6c5.7-1.4,10.3-5,15.6-7.3c4.1-1.8,8.3-3.1,12.7-3.7c1.2-0.2,2.4-0.4,3.5-0.9c2.9-1.6,5.8-1.4,8.7-0.2
			c1.5,0.6,3.2,0.7,4.9,0.7c2,0,4,0.2,6,0.9c0.2,0.1,0.4,0.2,0.5,0.2c2.9,0,5.7-0.1,8.5,0.6c1.9,0.5,3.1-1.1,3-3.2
			c2.2-0.6,2.7,2.7,5.1,1.6c-1.9,3.2-0.1,5.3,1.5,7.4c2.2,2.7,4.9,3.4,8.1,1.9c0.5-0.2,0.9-0.5,1.4-0.6c3.1-1.1,5.5,0.4,5,3.6
			c-0.6,4,2.3,5.6,4.3,7.9c0.9,1,1.9,0.2,2.6-0.6c3-2.8,8.2-1.5,9.3,2.5c0.3,1,1,1.3,1.8,1.4c1.8,0.4,3.5,0.9,5,2.1
			c1.3,1,2.2,0,3.1-0.8c0.9-0.8,2.4-1.5,2.6-0.3c0.7,3.4,3.4,3.3,5.7,4.1c2.4,0.8,5.1,1,7.5,0.5c1.8-0.4,3.7-0.6,5.4-1.6
			c2-1.1,4.4-0.8,6.7-0.7c1.2,0.1,2.3,0,3.2-0.8c1.4-1.3,2.7-1,3.7,0.5c1.1,1.7,2.7,2.2,4.5,2.4c2.2,0.2,4.4,0.4,6.5,1.4
			c1.1,0.5,2.2,0.3,2.9-0.7c1.3-1.9,3-2.8,5.3-2.8c0.4,0,0.8-0.2,1.1-0.4c4.1-2.9,8.6-5.1,12-8.8c0.4-0.4,0.8-0.8,1.1-1.3
			c1.6-2.2,1.9-2.3,4.2-0.8c1.8,1.2,3.3,1.9,4.8-0.3c0.5-0.7,1.4-0.7,2.3-0.7c2.3,0,4.5,0.5,6.7,1.3c1.1,0.4,1.9,0.3,2.3-1.1
			c0.8-3.2,0.9-3.2,4.3-2.6c0.4,0.1,0.9,0.1,1.2,0.2c0.5,0.6-0.1,1.2,0.2,1.8c2.9,0.7,4.9,3.1,7.6,4.3c-0.5,2.5,0,3,2.6,3
			c1.7,0,2.2,0.6,1.9,2.3c-0.3,1.6,0.5,2.5,1.9,3.1c1.3,0.6,2.6,1.1,2.1,3c0,0.2,0.1,0.4,0.2,0.5c1.8,3.9,1.5,5.4-1.6,8.3
			c-0.4,0.3-0.8,0.6-1,1.3c0.6,0.9,1.6,1.9,0.9,3.3c-0.2,0.5,0.3,0.9,0.6,1.3c0.6,0.7,1,1.5,0.9,2.4c-0.2,1.8,0.9,2.5,2.3,3
			c2,0.7,4,0.2,6-0.2c3.4-0.7,6.2,0.2,8.6,2.7c1,1.1,2.3,2,3.4,3c1.7,1.5,2.7,3.4,3.4,6c-1.4-0.6-2.2-1.5-3.1-2.1
			c-0.7-0.5-1.3-1-2.1-1.4c-2-1-2.9-0.6-3.3,1.6c-0.2,1-0.3,2-0.4,3c-0.3,2.7-1.2,3.5-3.9,3.6c-0.9,0-1.9,0-3,0
			c0,0.7,0.4,1.4,0.1,2.2c-0.4,0.9,0.5,1.3,1.1,1.7c1.3,0.9,1.9,2,1.3,3.7c-0.6,1.7,0.3,3,1.7,3.9c1.2,0.8,1.7,1.7,1,3
			c-0.2,0.3-0.3,0.8-0.2,1.1c0.7,2.2,1.1,4.3,0.7,6.7c-0.1,0.8,0.7,1.3,1.6,1.3c1,0,2,0,2.4,1.1c0.4,1-0.4,1.5-1,2
			c0,0-0.1,0.1-0.1,0.1c0.3,2.6-2.2,3.7-3,5.6c-0.9,2.2-0.7,2.7,1.6,3.5c0.2,0.1,0.4,0.1,0.5,0.2c1.3,1.9,3,2.1,5,1.2
			c0.4,1.5,0.4,2.7-0.5,3.9c-1.1,1.6-0.5,3.6,1.6,5.4c2.2,1.8,2.6,4.2,2.5,6.7c-0.8,0.2-1.3,0-1.8-0.2c-1.3-0.4-2.4-0.2-3.3,0.8
			c-1,1-2.2,1.9-3,3.2c-0.8,1.3-2.2,1.2-3,0c-1-1.4-0.6-3,1.2-4.4c-0.3-1.7-1.5-2.4-3.1-2.9c-1-0.3-1.7-0.1-2.2,0.9
			c-0.8,1.7-2.4,2.2-4.1,2.3c-2.6,0.1-5-0.5-7.2-1.9c-2.8-1.6-5.8-2-8.7-0.2c-0.5,0.3-1,0-1.4-0.2c-2.2-0.8-2.9-0.6-3.8,1.7
			c-0.9,2.2-2.2,3.7-4.7,3.7c-1,0-1.7-0.2-1.8-1.4c-0.1-1.2-1.1-1.8-2-2.4c-0.7-0.5-1.3-0.6-1.9,0.2c-0.8,1.1-1.9,1.7-3.1,2.1
			c-3.5,1.2-7.1,2.3-10.7,3.4c-2.2,0.7-4.4,0.5-6.6-0.1c-4.1-1.1-8-0.5-11.6,1.6c-7.1,4-14.7,6.3-22.6,7.4
			c-4.8,0.7-9.9,0.3-14.1-2.6c-4-2.8-7.9-3.3-12.3-1.2c-2,1-4.1,1.5-6.4,1.8c-1.1,0.1-2.2,0.3-2.8,1.4c-0.3,0.5-0.7,0.5-1.2,0.4
			c-2.6-0.6-5.3-0.6-8-0.8c0.4-1.9-0.7-2.4-2.3-2.6c-1-0.1-2-0.7-3-1c-1.3-0.5-2.3-0.1-2.7,1.2c-0.5,1.5-1.2,3-1.5,4.5
			c-0.3,2.2,1.5,3.8,2.1,5.7c0.3,1,1.6,1.8,0.8,2.9c-0.8,1.2-2.1,0.6-3.2,0.4c-3.4-0.5-3.4-0.5-3.4,3c0,1.6-1.3,3.2-2.9,3.5
			c-0.8,2.3-0.9,2.4-3.1,1.3c-0.6-0.3-1.3-0.5-2-0.7c-0.6-0.2-1.2-0.3-2-0.5c1.5-2.3,0.5-4.2-0.6-6.1c-2.2-3.7-1.9-5.4,1.3-8.2
			c1.2-1,2.4-1.8,3.6-2.8c1.3-1,2.2-2.3,2.3-4c0.1-1.4-0.6-2.3-1.8-2.8c-1.2-0.5-2.1-0.2-2.8,0.8c-1.2,1.7-3.3,1.8-5,2.3
			c0.1,2.2-0.9,3.5-3,4.2c-3.2,0.9-6,0.1-8.6-1.8c-1.2-0.9-2.3-2-3.3-3.1c-1.9-2.1-4.4-2.5-6.6-0.8c-2.8,2.2-5.5,4.7-8.4,6.8
			c-1,0.7-1.1,2-1.5,3c-0.8,2-1.6,2.4-3.4,1.3c-0.7-0.4-1.1-0.2-1.5,0.2c-2.6,3.2-6,2.7-9.4,2.2c-1.9-0.3-3.8-0.8-5.2,1.5
			c-1.4-1.9-3-1.8-5-1.1c-2.3,0.8-7.7-1.6-9.5-4.1c-1.1-1.6-2-3.3-2.9-4.9c-1-1.8-2.3-3.4-4.1-4.3c-3.4-1.6-6.5-3.8-9.5-5.9
			c-2.8-2-5.9-2.8-9.3-2.9c-1.6-0.1-3.3-0.1-5.2-1.3c0.1,5.8-3.8,9.8-4.9,15.1c-1.1-0.9-1.7-1.5-2.3-1.9c-1.3-0.8-2.6-0.9-4-0.1
			c-2.1,1.1-4.4,1.6-6.7,2c-1.5,0.3-2.8,0-3.9-1.1c-0.8-0.8-1.7-1.3-2.8-1.6c-2.2-0.5-3.8-2-5.2-3.6c-0.9-1-1.2-2.3-0.6-3.5
			c0.6-1.2,0.5-2.1-1-2.3c1.3-3.1,0.9-3.8-2.1-3.4c0.1,1.2,0.5,2.5-1.3,2.9c-1.7-2.3-3.7-4.3-6.2-5.7c-2.3-1.2-3.5-1-5.5,0.8
			c-1,0.9-1.9,2-3.2,2.6c-0.9,0.4-1.9,0.8-3.1,0.5c0.7-1,2.3-1.6,1.2-3.2c-0.2-0.3,0.4-0.7,0.8-0.8c0.6-0.2,1.3-0.3,2-1.2
			c-3,0-5.8-0.4-8.3,1c-1.6,0.9-5.9,0.1-7-1.3c3.8-1.7,7.6-2.6,11.8-2.1c1.1,0.1,2.1,0.6,2.7-0.9c0.2-0.5,0.7-0.6,1.3-0.6
			c1.6,0,1.6,0,3-1.4c-3-0.3-5.8-0.6-8.6-0.8c-1.5-0.1-2.9-0.2-4.3-0.6c-1.2-0.3-2.3-0.5-3.6,0.2c-1.6,0.9-2.6,0.1-2.4-1.7
			c0.1-0.7,0.3-1.5,0.6-2.2c0.9-2,2-2.2,3.6-0.8c0.5,0.5,1,1.7,1.9,0.7c0.7-0.8,0.4-1.6-0.5-2.2c-0.3-0.2-0.5-0.4-0.6-0.7
			c-1.2-2.4-1.2-2.4-4.2-2.7c0.6-3.2-0.3-6.2-2.4-9.1c1.7,0.1,3.2,0.2,4.2-1.1c0.7-0.9,1.1-2,1.2-3.1c0.1-1.2-0.3-2.1-1.4-2.7
			c-1.3-0.7-2.5-1.8-4.1-2c-0.6-0.1-0.8-0.4-1-1c-0.2-0.7-0.6-1.4-0.9-2.1c-1-2-1.3-2-2.8-0.5c-1,1-2.1,0.8-2.7-0.6
			c-0.4-1-0.9-1.5-1.9-1.9C37.3,164.3,36.7,162.8,37.2,160.5z"/>
	</defs>
	<clipPath id="SVGID_2_">
		<use xlink:href="#SVGID_1_"  style="overflow:visible;"/>
	</clipPath>
	<g class="st1">
		<path class="st2" d="M399.9,273.5c-120.4,0-240.7,0-361.1,0c0-80.2,0-160.4,0-240.6c120.4,0,240.7,0,361.1,0
			C399.9,113.1,399.9,193.3,399.9,273.5z"/>
		<path class="st3" d="M199.3,177.6c-6.6,9.2-15.6,14.8-26.7,16.6c-21.6,3.7-41.8-9.6-47.4-30.7c-6.2-23.6,9.9-48.1,34.1-51.4
			c16.5-2.3,29.9,3.5,40,16.7c-0.1,0.1-0.1,0.1-0.2,0.2c-3.1-2.6-6.4-4.9-10.2-6.5c-20.6-8.8-44.3,5.5-46.1,27.8
			c-1.6,20.6,15.1,37.6,35.7,36.1c7.2-0.5,13.6-3.2,19.2-7.9c0.5-0.4,1-0.8,1.4-1.2C199.1,177.5,199.2,177.5,199.3,177.6z"/>
		<path class="st4" d="M235.9,165.5c-4.6-1.5-8.7-2.8-12.8-4.2c-1.2-0.4-1.8-0.2-2.5,0.8c-2.2,3.2-4.5,6.2-6.8,9.4
			c-0.3,0.4-0.6,0.8-1.2,1.5c0-3.7,0-7,0-10.3c0-1.6,0.5-3.5-0.3-4.6c-0.7-1-2.7-1.2-4.2-1.6c-3.2-1-6.3-2.1-9.8-3.2
			c5-1.6,9.6-3.1,14.3-4.7c0-4.9,0-9.8,0-15.1c1.3,1.8,2.3,3.2,3.4,4.6c1.5,2.1,3.1,4.2,4.6,6.3c0.7,1.2,1.5,1.2,2.7,0.8
			c4.1-1.4,8.2-2.7,12.7-4.2c-3.1,4.3-6,8.2-8.9,12.2C229.9,157.2,232.7,161.1,235.9,165.5z"/>
		<path class="st3" d="M207.9,118c0,0.2,0,0.4,0.1,0.6c-0.1-0.1-0.3-0.2-0.4-0.4C207.7,118.2,207.8,118.1,207.9,118z"/>
		<path class="st3" d="M207.6,188.1c0.1-0.1,0.3-0.2,0.4-0.4c0,0.2-0.1,0.4-0.1,0.6C207.8,188.3,207.7,188.2,207.6,188.1z"/>
	</g>
</g>
<g>
	<ellipse transform="matrix(0.6003 -0.7998 0.7998 0.6003 -13.3791 48.872)" class="st5" cx="42.2" cy="37.8" rx="19.2" ry="35"/>
	<ellipse transform="matrix(0.6165 -0.7874 0.7874 0.6165 -10.5483 48.437)" class="st6" cx="44.4" cy="35" rx="17" ry="35"/>
	<ellipse transform="matrix(0.6165 -0.7874 0.7874 0.6165 -10.5483 48.437)" class="st7" cx="44.4" cy="35" rx="13.6" ry="28"/>
	<path class="st5" d="M34.9,33.1c-0.4,1.8,1.8,4.6,4.6,6.4c1.8,1.1,3.6,1.5,4.7,1.1l0.6-0.2l0.7,0.7c0.7,0.7,1.6,1.4,2.5,1.9
		c2.9,1.8,5.5,1.7,5.8-0.1l0.1-0.6l3,1.9c0.6,0.4,1.2,0.4,1.3,0c0.1-0.4-0.4-1-1-1.4l-3-1.9l0.5-2.4l3,1.9c0.6,0.4,1.2,0.4,1.2,0
		c-0.1-0.6-0.5-1.1-1-1.4l-3-1.9l0.4-1.9c0.1-0.4-0.4-1-1-1.4s-1.2-0.4-1.2,0l-0.4,1.9l-14.2-8.5l0.4-1.9c0.1-0.4-0.4-1-1-1.4
		s-1.2-0.4-1.2,0l-0.4,1.9l-3-1.9c-0.6-0.4-1.2-0.4-1.3,0c-0.1,0.4,0.4,1,1,1.4l3,1.9l-0.5,2.5l-3-1.9c-0.6-0.4-1.2-0.4-1.2,0
		c0.1,0.6,0.5,1.1,1,1.4l3,1.9L34.9,33.1z M52.4,37.4l-0.8,4.4c-0.2,1-1.7,1-3.3,0.1c-1.7-0.9-2.9-2.7-2.7-3.7l0.8-4.4L52.4,37.4z
		 M38.2,28.7l5.9,3.6l-1,5.7c-0.2,1-1.7,1-3.3,0.1s-2.9-2.6-2.7-3.7L38.2,28.7z"/>
</g>
<g>
	<ellipse transform="matrix(0.5509 -0.8346 0.8346 0.5509 32.1764 161.312)" class="st8" cx="166" cy="50.8" rx="38.8" ry="18.7"/>
	<ellipse transform="matrix(0.5509 -0.8346 0.8346 0.5509 33.0956 158.6287)" class="st9" cx="163.9" cy="48.6" rx="38" ry="17.4"/>
	
		<ellipse transform="matrix(0.5509 -0.8346 0.8346 0.5509 33.0956 158.6287)" class="st10" cx="163.9" cy="48.6" rx="30.4" ry="14"/>
	<path class="st11" d="M168,42.8l5.4-6.6c-0.8-0.5-1.4-0.8-2-1.4c-0.4-0.3-0.7,0-1.1,0.6c-1.8,2-3.5,4.2-5.3,6.3
		c-1.1,1.4-1.9,1.9-2.9,2c-1.2,0.1-1.4,0.1-2.4,2.3l1.8-0.1c-1.8,2.3-3.7,4.2-5.4,6.5l7.3,4.8c0.1,0.1,0.4,0.1,0.6-0.3
		c0.8-1,1.8-2,2.7-3l-5-3.3c1.1-1.2,2-2.3,2.9-3.5c1.1-1.5,2-2,3-2c1.2,0,1.3-0.1,2.4-2.3L168,42.8z"/>
</g>
<g>
	<ellipse class="st12" cx="53.1" cy="254.1" rx="33.1" ry="38.1"/>
	<ellipse class="st13" cx="49.1" cy="252.9" rx="32" ry="36.9"/>
	<ellipse class="st12" cx="49.1" cy="252.9" rx="25.6" ry="29.6"/>
	<path class="st13" d="M54.6,235.8c3.4,0,6.1,2.9,6.2,7c0.1,3.8-2.4,6.9-5.4,7.3c-0.4,0.1-0.9,0.1-1.3,0.1c-1.4-0.1-2.6,0.8-2.7,2.2
		v0.4c0,1.7,1,2.9,2.5,2.8c3.1-0.1,5.7,2.1,6.4,5.5c0.7,2.7-0.1,5.4-2.1,7.3c-1.6,1.8-4.3,2.2-6.4,1c-2.4-1.1-3.6-3.3-3.8-6.2
		c-0.1-1.4,0.2-2.8,0.8-4c0.5-1,0.3-2.3-0.6-3.1c-0.7-0.8-1.7-0.9-2.7-0.4c-0.3,0.3-0.7,0.6-0.9,1c-1.6,2.6-3.8,3.6-6.4,3
		c-2.7-0.6-4.3-2.7-4.9-5.8c-0.8-4.4,2.6-8.8,6.5-8.4c2.5,0.2,4.3,1.7,5.4,4.3c0.3,1.1,1.5,1.7,2.7,1.5c0.1,0,0.1,0,0.1-0.1
		c0.1-0.1,0.2-0.1,0.3-0.1c1.3-0.8,1.7-2.4,1-3.8c-0.6-1.2-1-2.5-1.1-3.8C48.3,239,51,235.8,54.6,235.8z"/>
</g>
<g>
	<path class="st14" d="M348.2,232.3c2.9,0.8,6,1.7,8.8,2.9l0.6,0.2c0.3,0.3,0.8,0.6,1.2,0.8l0.3,0.2c0.6,1.2,2.5,1.8,3.7,2.9
		c0.8,0.6,0.6,1.4,1.8,1.5c0.8,1.7,2.3,3.5,3.1,5.5c-0.2,0.2,0,0.3,0.2,0.5h0.2c0.2,1.2,0.3,2.5,0.8,3.7c0,0-0.6,0.2-0.2,0.3
		c-0.2,3.1-0.9,6.2-2.2,9.1c-1.5,1.8-2.6,4.8-4.6,6.6c-15.1,19.5-66.6,29.5-79.6,6.6c0.2-0.3-0.5-0.3-0.5-0.8s0.3-0.6-0.2-0.8
		c-1.4-1.4-0.8-5.4-1.2-6.8c0.2-0.5,0.2-0.9,0-1.4c0.3-0.8,0.3-1.7,0.9-2.3c0.5-1.8,1.1-3.5,1.8-5.2c0.5-0.5,0.8-0.9,1.1-1.5
		c2.2-3.1,4.6-5.7,7.5-8c0.2-0.6,1.2-0.6,1.1-1.4c0.2,0.2,0.3,0,0.5-0.2v-0.2c3.2-2.2,7.2-4.5,10.8-6.6c0.3,0,0.8-0.2,0.9-0.5
		c6-2.3,12.3-4.3,18.6-5.7c0.8,0.2,1.7,0,2.3-0.5c1.8,0,3.7-0.2,5.5-0.6c0.3,0,0.6,0.3,0.8-0.2c1.7,0.5,3.8-0.2,5.7,0.2
		c0.5-0.5,1.1,0.3,1.5-0.3c0.3,0.2,0.3-0.2,0.6-0.2c0.2,0.8,0.8,0.3,1.2,0.3C343.2,232,345.6,231.4,348.2,232.3z M359.1,260.3
		c8.6-14.3-6-23.4-18.1-24.8c-30.8-3.2-61.3,18.9-51.7,35.2c4.6,9.1,16.9,10.5,26.3,10.9c16.3-1.1,34-6.6,43.4-20.8L359.1,260.3z"/>
	<path class="st15" d="M358.9,260.9c-9.4,14.3-27.2,19.7-43.4,20.8c-9.2-0.5-21.7-1.8-26.3-10.9c-0.8-4.6,0.2-9.2,2.6-13.2
		c7.8-10.5,18.5-14.3,29.4-17.7c5.4-0.3,11.4-2,16.9-0.9c11.5,0.2,26.1,8,20.9,21.2C358.8,260.1,358.3,260.7,358.9,260.9z
		 M325.3,250C325.7,250.1,325.6,249.2,325.3,250c-6.6,0.3-13.1,1.1-19.8,1.7l8.3,10.3c0.6-2.5,0.9-5.2,1.4-7.5
		C318.6,253.1,321.9,251.7,325.3,250z M331.9,249.1c-4.8,1.4-9.7,4.2-14.6,6c-0.5,1.4-0.8,2.9-0.9,4.5c-0.5,1.8-0.8,3.7-1.1,5.5
		c0.3,0.3,0.6-0.2,0.9,0c9.7-0.5,19.8-0.8,29.7-1.7C341.4,258.7,336.9,253.1,331.9,249.1z"/>
	<path class="st15" d="M369.7,252.6l-0.2,0.3c0,1.8,0.3,3.7,0.9,5.5c-0.3,0.8,0.2,1.7-0.3,2.5c0.2,2.9-1.5,5.7-2.5,8.6
		c-2.3,3.1-4.8,6.2-7.5,8.9c-0.2,0-0.3,0-0.3,0.2v0.2c-1.8,0.9-3.7,3.2-5.8,4.2c-1.8,1.4-4.3,1.8-5.5,3.5c-0.2-0.2-0.3,0-0.5,0.2
		v0.2c-0.6-0.3-1.2,0-1.5,0.6c-0.2,0-0.3,0-0.5,0.3c-0.6-0.3-1.2,0-1.5,0.6c-0.2-0.2-0.3,0-0.5,0.3c-0.2-0.2-0.3,0-0.5,0.2v0.2
		c-0.5-0.2-0.8,0-1.1,0.3l0,0c-0.8-0.2-0.9,0-1.2,0.8c-4.9,1.1-10.1,2.9-15.4,3.8c-1.2,0.2-3.8-0.2-4.8,0.8
		c-2.3-0.5-5.2,0.5-7.8-0.2c-0.6,0.5-1.2-0.3-1.7,0.2c-6.2-0.8-12.5-1.7-17.8-4.6c-1.8-0.9-3.7-2.8-5.7-3.7c0-0.8-0.8-1.1-1.5-1.8
		c-2.3-3.2-3.7-7.1-4-11.1c14.5,24,66.3,11.4,79.5-6.9c2-1.7,3.2-4.5,4.6-6.6c1.2-2.9,2-6,2.2-9.1c0.8,0.5,0.5,1.4,0.6,2
		L369.7,252.6z"/>
	<path class="st16" d="M359.1,260.3c5.2-13.8-10.1-20.9-20.9-21.2c-5.5-1.1-11.4,0.6-16.9,0.9c-11.7,3.4-22.1,8-29.4,17.7
		c-1.5,2.8-2.6,5.8-3.1,8.9c-0.2,1.5,0.8,2.6,0.3,4.3c-3.8-6-0.9-13.1,3.2-18.3c12.1-14,33.4-18.5,48.4-16.9
		C357.4,237.7,366.3,248.7,359.1,260.3z"/>
	<path class="st16" d="M358.9,260.9c-0.2,0-0.3-0.3-0.3-0.5s0.3-0.3,0.5-0.3L358.9,260.9z"/>
	<path class="st14" d="M332,249.1c4.9,4,9.2,9.5,14.1,14.1c-9.5,0.9-19.8,1.2-29.7,1.7c3.1-2.6,8.3-4.6,12.1-6.6
		C329.7,255.4,330.8,252.3,332,249.1z"/>
	<path class="st17" d="M332,249.1c-1.1,3.1-2.3,6-3.4,9.4c-3.8,2-8.8,3.8-12.1,6.6c-0.3-0.2-0.6,0.5-0.9,0c0.3-1.8,0.6-3.7,1.1-5.5
		c0.2-1.5,0.5-3.1,0.9-4.5C322.2,253.4,327.3,250.4,332,249.1z"/>
	<path class="st14" d="M325.3,250.1l-10.1,4.3c-0.5,2.2-0.8,4.9-1.4,7.5l-8.3-10.3C312.2,251.2,318.6,250.3,325.3,250.1z"/>
</g>
<g>
	<path d="M-1167.4,825.1c1.5,0,3,0,4.5,0c330.3,0,660.7,0,991,0c1.5,0,3,0,4.5,0c0,26.7,0,53.3,0,80c-333.3,0-666.7,0-1000,0
		C-1167.4,878.4-1167.4,851.8-1167.4,825.1z M-1026,858.8c1.1-1.4,1.6-2.7-0.3-3.7c-2.7-1.4-5.4-2.5-8.6-2c-3.3,0.6-6,2.1-6.6,5.8
		c-0.6,3.8,1.5,5.9,4.8,7.2c2.2,0.8,4.4,1.4,6.6,2.2c1.4,0.5,2.7,1.4,2.7,3.2c0,2-1.2,3-2.8,3.7c-2.8,1.2-5.5,0.8-8.3,0
		c-2.2-0.7-3.9-0.7-3.4,2.5c4.3,1.4,8.5,2.2,12.8,0.7c3.3-1.2,5.4-3.5,5.4-7c0.1-3.4-1.9-5.5-5-6.7c-2.2-0.8-4.4-1.5-6.6-2.3
		c-1.5-0.5-2.8-1.3-2.7-3.1c0.2-2,1.8-2.6,3.5-3C-1031.2,855.7-1028.8,857.9-1026,858.8z M-973,852.1c-0.3,2.3-0.5,3.2-0.5,4.2
		c0,7.5,0,14.9,0,22.3c3.4,1.4,3.6-0.5,3.7-2.7c0.1-1.8-0.9-4,1-5.4c4.4,1.8,3.8,9.7,11.1,8.5c-2.9-4.2-5.5-7.9-8.7-12.4
		c2.7-2.4,5.2-4.5,7.9-6.9c-5.7-2-6.9,4.6-10.8,5.2C-971.2,861-967.5,856-973,852.1z M-1011,869.2c0,5.9,3.5,9.9,8.8,10
		c5.5,0.1,9.2-4,9.2-10.1c0-5.9-3.5-9.9-8.8-10C-1007.3,858.9-1011,863-1011,869.2z M-976.6,860.4c-5.8-2.3-10-1.3-12.5,2.7
		c-2.6,4-2,10.9,1.5,13.8c3.5,2.9,7.2,3.3,11.2,0.7c-0.3-0.8-0.5-1.3-0.7-1.7c-0.8-1.1-1.8-0.2-2.7-0.1c-4.6,0.4-7.3-2-7.3-6.6
		c-0.1-4.6,2.7-7.3,7.1-6.7C-978.2,862.7-976.7,863.4-976.6,860.4z M-1135.5,852.9c-0.6,0.2-1.3,0.5-1.9,0.7c2.9,8,5.6,16.1,8.6,24
		c1,2.5,3,2.2,3.9,0c3-7.9,5.6-16,8.4-24c-0.5-0.2-1-0.4-1.6-0.6c-2.8,7.7-5.7,15.3-8.8,23.8
		C-1129.9,868.1-1132.7,860.5-1135.5,852.9z M-1102.5,870.2c0.8-8.1-3.8-13-9.5-10.6c-4.4,1.9-5.7,5.7-5.6,10.2c0.1,4.4,2,7.8,6.4,9
		c3,0.8,6.4,1.1,9.1-2.2c-10.6,1.1-12,0.4-13.1-6.4C-1110.9,870.2-1106.7,870.2-1102.5,870.2z M-1073.5,869.3c0.1,5.9,3.7,9.8,9,9.8
		c5.4,0,9.2-4.2,9.1-10.2c-0.1-5.8-3.8-9.8-9-9.8C-1069.8,859-1073.5,863.3-1073.5,869.3z M-1012.7,859.4c-3-0.1-5.4-0.7-4.7-4.4
		c0.2-1.1-0.4-1.9-1.7-1.8c-1,0-1.6,0.6-1.5,1.5c0.1,6.7,0,13.3,0.4,19.9c0.1,2.3,2.2,3.6,4.4,4.2c1.8,0.6,2.9-0.1,3.2-2.2
		c-8.1-2.7-3.4-9.2-4.7-13.8C-1015.6,861.5-1012.8,863.2-1012.7,859.4z M-230.6,868.6c0.3-2.8-1.2-4.4-3.9-4.5
		c-2.6-0.1-4.1,1.4-3.8,4.1c0.2,1.6,0.1,2.7-0.7,4.2c-1,1.8-0.4,3.6,1.2,4.8c1.6,1.2,3.4,1.3,5.1,0.3c1.8-1,2.8-2.7,1.8-4.6
		C-231.6,871.3-231.4,870.1-230.6,868.6z M-1084.2,877.3c-10.3-0.5-12.5-1.8-12.9-7.2c-0.2-3.1,0.5-5.9,3.1-8c2.6-2,5.9-0.2,9.3-1.1
		c-5.3-2.7-9.3-2.2-12.1,1.2c-3.1,3.7-3.2,10.1-0.2,13.9C-1094.3,879.5-1089.8,880.1-1084.2,877.3z M-306.9,878.8
		c1.8-2.2,1.3-3.9,1.4-5.4c0.2-1.8,0.9-3.3,3-3.3c2.2,0,1.8,1.9,2,3.3c0.1,1.5-0.4,3.2,0.8,4.9c2.6-2.3-0.9-7.7,4.3-8.1
		c2,2.4-0.2,5.6,2.2,8.3c1.2-2.9,0.9-5.4,0.5-7.7c-0.3-1.8-1.7-3.2-3.6-2.5c-3.7,1.4-7.3-0.8-11,0.5
		C-307.5,871.7-307.8,874.8-306.9,878.8z M-199.3,864.1c-3.5,2.8-5.6,6.2-7.2,10.4c3.2,0.3,6.4-0.4,7,4.5
		C-197,873.4-199.1,868.9-199.3,864.1z M-261.4,871.2c-0.3-3.4-0.7-7.1-5.3-7c-4.3,0.1-4.8,3.5-4.8,6.8c0,3.5,0.5,7.1,5.1,7
		C-262.1,877.9-261.7,874.4-261.4,871.2z M-1075,878.9c-5.6-5.6-5.5-15.8,0.1-19.6c-5.8,1-3.2-4.2-6.1-7c-0.2,8.4-0.9,15.7,0.5,23
		C-1080.1,877.4-1078.4,878.7-1075,878.9z M-282.1,878.1c3.1-0.5,6.3,0.9,10.5-1.3c-3.5-0.4-5.8-0.7-8.2-1c0.9-2.2,2.6-2.6,3.8-3.7
		c2.1-1.9,4-4.1,1.4-6.7c-2.5-2.4-5.2-2.1-7.6,1.4c2.5,0.1,5.3-2.4,6.4,0.7c0.9,2.6-2.1,3.3-3.6,4.7
		C-281.1,873.7-282.8,875-282.1,878.1z M-216.3,864.4c-0.3,2-0.9,3.9-0.3,6c2.5-0.3,5.6-1.4,5.9,2.3c0.3,4.8-3.9,2.6-6.6,3
		c3.8,2.9,6.2,3,7.8,0.3c3.3-5.5-1.3-7.2-5.1-8.9c1.3-2.2,3.9-0.2,5.1-2.7C-211.8,864.4-213.8,864.4-216.3,864.4z M-421.5,872.9
		c-0.3-2.9-1.4-4.7-4.3-4.8c-2.5-0.1-4.1,1.3-4.6,3.7c-0.5,2.3,0.4,4.3,2.4,5.6c1.9,1.3,3.4,0.9,5.6-1.4c-2.3-0.2-5.3,1.3-5.8-2.7
		C-425.9,873.2-423.8,873.1-421.5,872.9z M-384,876.2c3.1,2.2,6.3,3.2,8.2,0.5c4.5-6.4-4.9-5.2-5.6-9c1.2-3,4.1-0.7,6.5-2.1
		c-3.4-2.2-6.3-2.4-8.1,0.7c-1.8,3.1,1,4.3,3.3,5.5c1.3,0.7,2.9,1,2.9,2.9C-378.3,877.9-381.2,874.8-384,876.2z M-259.9,876.1
		c3.3,2.5,6,2.9,8.2,0.4c2.6-3.1,0.4-5.4-2-7c0.4-2.2,3-2.9,2.2-5.3c-2.3-0.1-4.6-0.5-7,0.3c0.8,2.2,3.1,0.6,3.7,2.2
		c-0.1,1.6-2.2,2.3-1.6,4.3c1.4,0.6,4,0.7,3.5,3.1C-253.6,877.9-256.9,875.1-259.9,876.1z M-442.5,864.4c1,4.9,2.1,9.7,5.1,14.6
		c2.9-5.2,4.1-9.8,5.6-14.4c-0.5-0.2-1-0.4-1.5-0.6c-1.3,3.2-2.5,6.4-4,10.1C-439.7,870.8-439.4,866.8-442.5,864.4z M-344.2,878.3
		c2.7-1.3,0.8-3.9,2.5-4.9c2.2,1.1,1.9,4.5,5.4,4.6c-2-3.4-4.4-6.3-0.7-9.6c-2.8-0.8-2.7,2.8-5.1,2.3c-1-1.9,0.6-4.7-1.8-7.3
		C-344.8,868.8-344.6,873.3-344.2,878.3z M-1052.2,878.8c3.7-6.1-2.7-15.4,8-18.6c-2.9-2.4-5.7,3.6-8-2.5
		C-1052.2,865.9-1052.2,872.4-1052.2,878.8z M-361.6,878.1c3.1-0.4,5-2.1,5-5.2c-0.1-3.1-2-5-5.1-4.8c-2.9,0.1-4.6,1.9-4.7,4.8
		C-366.4,876.1-364.6,877.8-361.6,878.1z M-314.6,878.1c3.1-0.3,5-2,5-5.1c0-2.8-1.7-4.7-4.6-4.9c-3.1-0.2-5.1,1.6-5.2,4.7
		C-319.5,876-317.6,877.7-314.6,878.1z M-397.6,868.1c-3,0.4-4.9,2.1-4.8,5.2c0.1,2.9,1.9,4.7,4.7,4.8c3.2,0.1,5-1.9,5.1-4.9
		C-392.5,870.1-394.5,868.4-397.6,868.1z M-227.8,864.2c2,2.6,4.4,0.9,6.1,2.3c-0.9,3.9-3.9,7.2-3.9,11.5c3.1-4.1,5.3-8.6,7-13.8
		C-221.9,864.2-224.5,864.2-227.8,864.2z M-241.7,877.8c-3.6-4.2-0.6-9.3-2.3-13.5c-1.3-0.3-1.9,0.3-2.5,0.9
		c-0.6,0.7-1.7,1.1-1.5,2.3c3,1.3,3.4,5.7,0.8,10.2C-245.4,878.4-243.8,878.2-241.7,877.8z M-320.2,869.9c-4-2.7-6.5-2.1-8.4,0.5
		c-1.6,2.1-1.2,4.5,0.7,6.2c2.2,1.9,4.6,2.2,7.3-0.4c-2.8-0.6-6.7,1.2-6.7-3.2C-327.3,868.9-323.7,870.3-320.2,869.9z M-410.2,876.4
		c-3.1-0.7-6.7,1.1-7.1-3c-0.4-4.5,3.6-2.9,6.5-3.6c-2.9-2.5-5.2-2.1-7.3,0c-1.9,1.9-2,4.2-0.3,6.3
		C-416.3,878.6-413.8,878.8-410.2,876.4z M-345,876.3c-3.6-0.4-7.1,1-7.3-3.1c-0.2-4.3,3.7-2.8,6.8-3.5c-3.3-2.3-5.6-2.1-7.7,0.2
		c-1.8,1.9-1.9,4.3-0.1,6.3C-351.2,878.7-348.7,878.7-345,876.3z M-367.8,877.8c-2.9-2-3.1-4.4-2.6-6.7c0.6-2.6,0.7-2.5-1.8-3.9
		C-374,872.5-372.6,876.8-367.8,877.8z M-404.6,877.7c-1.5-1.9-2.9-4.2-1.7-6.1c1.6-2.6,0.6-3.6-1.4-4.8
		C-410,871.3-408.7,876.4-404.6,877.7z M-390.1,877.9c0.5,0.1,0.9,0.1,1.4,0.2c0.5-3.3-0.6-7.3,3.2-9.4c-1.6,0-3.2,0-4.6,0
		C-390.1,871.8-390.1,874.9-390.1,877.9z M-290.6,878.3c0.5,0.2,1,0.3,1.6,0.5c1.5-4.7,3-9.5,4.4-14.2c-0.5-0.1-0.9-0.3-1.4-0.4
		C-287.5,868.9-289.1,873.6-290.6,878.3z"/>
	<path d="M-1116.5,210.6c2.3,6.3,1.2,8.2-5.3,8.5c-1.5,0.1-3,0-4.4-0.2c-1.8-0.3-3.5-0.7-5.2-1.1
		C-1130.5,212.9-1127.7,211.6-1116.5,210.6z"/>
	<path d="M-1025.4,197.7c-3.3,3.8-7,4.4-10.5,5.3c-1.5,0.4-2.4-0.8-2.6-2.3c-0.3-2.1,0.4-3.7,2.5-4.1
		C-1032.8,195.9-1029.6,196.2-1025.4,197.7z"/>
	<path d="M-996.5,868.8c-0.3,3.8-1.3,7.1-5.6,7.1c-3.9,0-5.3-3-5.3-6.5c-0.1-3.6,0.9-6.9,5.2-7.1
		C-997.9,862.2-996.9,865.5-996.5,868.8z"/>
	<path d="M-1104.3,867.9c-3.9,0.6-7.3,0.5-11,0c0.4-3.7,1.5-6.8,5.7-6.8C-1105.5,861-1104.5,863.9-1104.3,867.9z"/>
	<path d="M-1057.5,869.4c-0.1,4.9-2.8,7.9-7,7.9c-4.2,0-6.8-3.2-6.8-8c0-5.1,2.9-8.3,7.3-8.1C-1060,861.3-1057.4,864.5-1057.5,869.4
		z"/>
	<path d="M-269.4,871.2c0.2-2.2-0.1-4.8,2.8-5c3-0.1,3,2.5,3.1,4.6c0,2.2,0.2,5.2-3,5.1C-269.5,876-269.2,873.2-269.4,871.2z"/>
	<path d="M-358.6,873.2c-0.3,1.9-1.2,3.1-3.2,2.9c-2-0.2-2.7-1.6-2.6-3.5c0.1-1.7,1.1-2.7,2.9-2.6
		C-359.4,870.1-358.7,871.4-358.6,873.2z"/>
	<path d="M-314.7,876.2c-2-0.2-2.8-1.5-2.7-3.3c0.1-1.9,1.3-3,3.2-2.8c1.8,0.2,2.5,1.5,2.5,3.1C-311.7,875-312.6,876.2-314.7,876.2z
		"/>
	<path d="M-397.1,876.2c-2.2,0-3.2-1.2-3.2-3.1c0-1.7,0.7-2.9,2.5-3.1c2-0.2,3.1,0.9,3.3,2.8C-394.4,874.7-395.4,875.9-397.1,876.2z
		"/>
</g>
</svg>
